<?xml version="1.0" encoding="UTF-8" standalone="no"?>
<!DOCTYPE svg PUBLIC "-//W3C//DTD SVG 1.1//EN"
 "http://www.w3.org/Graphics/SVG/1.1/DTD/svg11.dtd">
<!-- Generated by graphviz version 2.43.0 (0)
 -->
<!-- Title: G Pages: 1 -->
<svg width="1730pt" height="188pt"
 viewBox="0.00 0.00 1730.07 188.00" xmlns="http://www.w3.org/2000/svg" xmlns:xlink="http://www.w3.org/1999/xlink">
<g id="graph0" class="graph" transform="scale(1 1) rotate(0) translate(4 184)">
<title>G</title>
<polygon fill="white" stroke="transparent" points="-4,4 -4,-184 1726.07,-184 1726.07,4 -4,4"/>
<!-- :app:androidApp -->
<g id="node1" class="node">
<title>:app:androidApp</title>
<ellipse fill="none" stroke="black" cx="517.89" cy="-162" rx="87.18" ry="18"/>
<text text-anchor="middle" x="517.89" y="-158.3" font-family="Times,serif" font-size="14.00">:app:androidApp</text>
</g>
<!-- :app:shared -->
<g id="node2" class="node">
<title>:app:shared</title>
<ellipse fill="none" stroke="black" cx="710.89" cy="-90" rx="65.79" ry="18"/>
<text text-anchor="middle" x="710.89" y="-86.3" font-family="Times,serif" font-size="14.00">:app:shared</text>
</g>
<!-- :app:androidApp&#45;&gt;:app:shared -->
<g id="edge1" class="edge">
<title>:app:androidApp&#45;&gt;:app:shared</title>
<path fill="none" stroke="black" d="M559.29,-145.98C589.81,-134.92 631.38,-119.84 663.27,-108.27"/>
<polygon fill="black" stroke="black" points="664.62,-111.5 672.83,-104.8 662.24,-104.92 664.62,-111.5"/>
</g>
<!-- :feature:lmu&#45;connection -->
<g id="node4" class="node">
<title>:feature:lmu&#45;connection</title>
<ellipse fill="none" stroke="black" cx="120.89" cy="-18" rx="120.78" ry="18"/>
<text text-anchor="middle" x="120.89" y="-14.3" font-family="Times,serif" font-size="14.00">:feature:lmu&#45;connection</text>
</g>
<!-- :app:shared&#45;&gt;:feature:lmu&#45;connection -->
<g id="edge3" class="edge">
<title>:app:shared&#45;&gt;:feature:lmu&#45;connection</title>
<path fill="none" stroke="black" d="M651.31,-82.43C563.58,-72.69 394.51,-53.66 250.89,-36 240.25,-34.69 229.13,-33.29 218.06,-31.87"/>
<polygon fill="black" stroke="black" points="218.29,-28.37 207.93,-30.57 217.4,-35.32 218.29,-28.37"/>
</g>
<!-- :feature:narrator -->
<g id="node5" class="node">
<title>:feature:narrator</title>
<ellipse fill="none" stroke="black" cx="348.89" cy="-18" rx="89.08" ry="18"/>
<text text-anchor="middle" x="348.89" y="-14.3" font-family="Times,serif" font-size="14.00">:feature:narrator</text>
</g>
<!-- :app:shared&#45;&gt;:feature:narrator -->
<g id="edge4" class="edge">
<title>:app:shared&#45;&gt;:feature:narrator</title>
<path fill="none" stroke="black" d="M658.64,-78.9C596.12,-66.81 491.11,-46.5 420.93,-32.93"/>
<polygon fill="black" stroke="black" points="421.32,-29.44 410.83,-30.98 419.99,-36.31 421.32,-29.44"/>
</g>
<!-- :feature:other -->
<g id="node6" class="node">
<title>:feature:other</title>
<ellipse fill="none" stroke="black" cx="530.89" cy="-18" rx="75.29" ry="18"/>
<text text-anchor="middle" x="530.89" y="-14.3" font-family="Times,serif" font-size="14.00">:feature:other</text>
</g>
<!-- :app:shared&#45;&gt;:feature:other -->
<g id="edge5" class="edge">
<title>:app:shared&#45;&gt;:feature:other</title>
<path fill="none" stroke="black" d="M674.46,-74.83C646.65,-64.02 608.12,-49.03 577.97,-37.31"/>
<polygon fill="black" stroke="black" points="579.09,-33.99 568.5,-33.63 576.55,-40.51 579.09,-33.99"/>
</g>
<!-- :feature:readout -->
<g id="node7" class="node">
<title>:feature:readout</title>
<ellipse fill="none" stroke="black" cx="710.89" cy="-18" rx="86.38" ry="18"/>
<text text-anchor="middle" x="710.89" y="-14.3" font-family="Times,serif" font-size="14.00">:feature:readout</text>
</g>
<!-- :app:shared&#45;&gt;:feature:readout -->
<g id="edge6" class="edge">
<title>:app:shared&#45;&gt;:feature:readout</title>
<path fill="none" stroke="black" d="M710.89,-71.7C710.89,-63.98 710.89,-54.71 710.89,-46.11"/>
<polygon fill="black" stroke="black" points="714.39,-46.1 710.89,-36.1 707.39,-46.1 714.39,-46.1"/>
</g>
<!-- :feature:readout&#45;vehicle&#45;approach -->
<g id="node8" class="node">
<title>:feature:readout&#45;vehicle&#45;approach</title>
<ellipse fill="none" stroke="black" cx="982.89" cy="-18" rx="167.87" ry="18"/>
<text text-anchor="middle" x="982.89" y="-14.3" font-family="Times,serif" font-size="14.00">:feature:readout&#45;vehicle&#45;approach</text>
</g>
<!-- :app:shared&#45;&gt;:feature:readout&#45;vehicle&#45;approach -->
<g id="edge7" class="edge">
<title>:app:shared&#45;&gt;:feature:readout&#45;vehicle&#45;approach</title>
<path fill="none" stroke="black" d="M757.03,-77.13C799.36,-66.23 862.7,-49.93 911.55,-37.36"/>
<polygon fill="black" stroke="black" points="912.61,-40.7 921.42,-34.82 910.87,-33.92 912.61,-40.7"/>
</g>
<!-- :feature:readout&#45;flag -->
<g id="node9" class="node">
<title>:feature:readout&#45;flag</title>
<ellipse fill="none" stroke="black" cx="1274.89" cy="-18" rx="106.68" ry="18"/>
<text text-anchor="middle" x="1274.89" y="-14.3" font-family="Times,serif" font-size="14.00">:feature:readout&#45;flag</text>
</g>
<!-- :app:shared&#45;&gt;:feature:readout&#45;flag -->
<g id="edge8" class="edge">
<title>:app:shared&#45;&gt;:feature:readout&#45;flag</title>
<path fill="none" stroke="black" d="M770.88,-82.48C857.04,-73 1020.81,-54.48 1159.89,-36 1169.17,-34.77 1178.86,-33.42 1188.51,-32.05"/>
<polygon fill="black" stroke="black" points="1189.14,-35.49 1198.54,-30.61 1188.14,-28.56 1189.14,-35.49"/>
</g>
<!-- :feature:readout&#45;vehicle&#45;damage -->
<g id="node10" class="node">
<title>:feature:readout&#45;vehicle&#45;damage</title>
<ellipse fill="none" stroke="black" cx="1560.89" cy="-18" rx="161.37" ry="18"/>
<text text-anchor="middle" x="1560.89" y="-14.3" font-family="Times,serif" font-size="14.00">:feature:readout&#45;vehicle&#45;damage</text>
</g>
<!-- :app:shared&#45;&gt;:feature:readout&#45;vehicle&#45;damage -->
<g id="edge9" class="edge">
<title>:app:shared&#45;&gt;:feature:readout&#45;vehicle&#45;damage</title>
<path fill="none" stroke="black" d="M773.74,-84.56C893.76,-75.99 1163.84,-56.2 1390.89,-36 1405.67,-34.68 1421.17,-33.23 1436.54,-31.75"/>
<polygon fill="black" stroke="black" points="1437,-35.22 1446.62,-30.77 1436.32,-28.26 1437,-35.22"/>
</g>
<!-- :app:desktopApp -->
<g id="node3" class="node">
<title>:app:desktopApp</title>
<ellipse fill="none" stroke="black" cx="710.89" cy="-162" rx="88.28" ry="18"/>
<text text-anchor="middle" x="710.89" y="-158.3" font-family="Times,serif" font-size="14.00">:app:desktopApp</text>
</g>
<!-- :app:desktopApp&#45;&gt;:app:shared -->
<g id="edge2" class="edge">
<title>:app:desktopApp&#45;&gt;:app:shared</title>
<path fill="none" stroke="black" d="M710.89,-143.7C710.89,-135.98 710.89,-126.71 710.89,-118.11"/>
<polygon fill="black" stroke="black" points="714.39,-118.1 710.89,-108.1 707.39,-118.1 714.39,-118.1"/>
</g>
<!-- :app:webApp -->
<g id="node11" class="node">
<title>:app:webApp</title>
<ellipse fill="none" stroke="black" cx="887.89" cy="-162" rx="70.69" ry="18"/>
<text text-anchor="middle" x="887.89" y="-158.3" font-family="Times,serif" font-size="14.00">:app:webApp</text>
</g>
<!-- :app:webApp&#45;&gt;:app:shared -->
<g id="edge10" class="edge">
<title>:app:webApp&#45;&gt;:app:shared</title>
<path fill="none" stroke="black" d="M851.21,-146.5C823.65,-135.59 785.73,-120.6 756.25,-108.94"/>
<polygon fill="black" stroke="black" points="757.2,-105.55 746.61,-105.13 754.62,-112.06 757.2,-105.55"/>
</g>
</g>
</svg>
