<?xml version="1.0" encoding="UTF-8" standalone="no"?>
<!DOCTYPE svg PUBLIC "-//W3C//DTD SVG 1.1//EN"
 "http://www.w3.org/Graphics/SVG/1.1/DTD/svg11.dtd">
<!-- Generated by graphviz version 2.43.0 (0)
 -->
<!-- Title: G Pages: 1 -->
<svg width="208pt" height="188pt"
 viewBox="0.00 0.00 207.74 188.00" xmlns="http://www.w3.org/2000/svg" xmlns:xlink="http://www.w3.org/1999/xlink">
<g id="graph0" class="graph" transform="scale(1 1) rotate(0) translate(4 184)">
<title>G</title>
<polygon fill="white" stroke="transparent" points="-4,4 -4,-184 203.74,-184 203.74,4 -4,4"/>
<!-- :app:androidApp -->
<g id="node1" class="node">
<title>:app:androidApp</title>
<ellipse fill="none" stroke="black" cx="112.64" cy="-162" rx="87.18" ry="18"/>
<text text-anchor="middle" x="112.64" y="-158.3" font-family="Times,serif" font-size="14.00">:app:androidApp</text>
</g>
<!-- :app:shared -->
<g id="node2" class="node">
<title>:app:shared</title>
<ellipse fill="none" stroke="black" cx="65.64" cy="-90" rx="65.79" ry="18"/>
<text text-anchor="middle" x="65.64" y="-86.3" font-family="Times,serif" font-size="14.00">:app:shared</text>
</g>
<!-- :app:androidApp&#45;&gt;:app:shared -->
<g id="edge1" class="edge">
<title>:app:androidApp&#45;&gt;:app:shared</title>
<path fill="none" stroke="black" d="M101.27,-144.05C95.67,-135.71 88.8,-125.49 82.6,-116.25"/>
<polygon fill="black" stroke="black" points="85.4,-114.14 76.92,-107.79 79.59,-118.04 85.4,-114.14"/>
</g>
<!-- :core:domain -->
<g id="node3" class="node">
<title>:core:domain</title>
<ellipse fill="none" stroke="black" cx="112.64" cy="-18" rx="70.69" ry="18"/>
<text text-anchor="middle" x="112.64" y="-14.3" font-family="Times,serif" font-size="14.00">:core:domain</text>
</g>
<!-- :app:androidApp&#45;&gt;:core:domain -->
<g id="edge2" class="edge">
<title>:app:androidApp&#45;&gt;:core:domain</title>
<path fill="none" stroke="black" d="M124.53,-143.72C130.66,-133.76 137.49,-120.73 140.64,-108 144.49,-92.47 144.49,-87.53 140.64,-72 138.32,-62.61 133.98,-53.04 129.41,-44.67"/>
<polygon fill="black" stroke="black" points="132.3,-42.68 124.24,-35.8 126.25,-46.21 132.3,-42.68"/>
</g>
<!-- :app:shared&#45;&gt;:core:domain -->
<g id="edge3" class="edge">
<title>:app:shared&#45;&gt;:core:domain</title>
<path fill="none" stroke="black" d="M77.02,-72.05C82.62,-63.71 89.49,-53.49 95.69,-44.25"/>
<polygon fill="black" stroke="black" points="98.7,-46.04 101.37,-35.79 92.89,-42.14 98.7,-46.04"/>
</g>
</g>
</svg>
