<?xml version="1.0" encoding="UTF-8" standalone="no"?>
<!DOCTYPE svg PUBLIC "-//W3C//DTD SVG 1.1//EN"
 "http://www.w3.org/Graphics/SVG/1.1/DTD/svg11.dtd">
<!-- Generated by graphviz version 2.43.0 (0)
 -->
<!-- Title: G Pages: 1 -->
<svg width="2369pt" height="188pt"
 viewBox="0.00 0.00 2369.12 188.00" xmlns="http://www.w3.org/2000/svg" xmlns:xlink="http://www.w3.org/1999/xlink">
<g id="graph0" class="graph" transform="scale(1 1) rotate(0) translate(4 184)">
<title>G</title>
<polygon fill="white" stroke="transparent" points="-4,4 -4,-184 2365.12,-184 2365.12,4 -4,4"/>
<!-- :app:androidApp -->
<g id="node1" class="node">
<title>:app:androidApp</title>
<ellipse fill="none" stroke="black" cx="731.89" cy="-162" rx="87.18" ry="18"/>
<text text-anchor="middle" x="731.89" y="-158.3" font-family="Times,serif" font-size="14.00">:app:androidApp</text>
</g>
<!-- :app:shared -->
<g id="node2" class="node">
<title>:app:shared</title>
<ellipse fill="none" stroke="black" cx="924.89" cy="-90" rx="65.79" ry="18"/>
<text text-anchor="middle" x="924.89" y="-86.3" font-family="Times,serif" font-size="14.00">:app:shared</text>
</g>
<!-- :app:androidApp&#45;&gt;:app:shared -->
<g id="edge1" class="edge">
<title>:app:androidApp&#45;&gt;:app:shared</title>
<path fill="none" stroke="black" d="M773.29,-145.98C803.81,-134.92 845.38,-119.84 877.27,-108.27"/>
<polygon fill="black" stroke="black" points="878.62,-111.5 886.83,-104.8 876.24,-104.92 878.62,-111.5"/>
</g>
<!-- :feature:lmu&#45;connection -->
<g id="node4" class="node">
<title>:feature:lmu&#45;connection</title>
<ellipse fill="none" stroke="black" cx="120.89" cy="-18" rx="120.78" ry="18"/>
<text text-anchor="middle" x="120.89" y="-14.3" font-family="Times,serif" font-size="14.00">:feature:lmu&#45;connection</text>
</g>
<!-- :app:shared&#45;&gt;:feature:lmu&#45;connection -->
<g id="edge3" class="edge">
<title>:app:shared&#45;&gt;:feature:lmu&#45;connection</title>
<path fill="none" stroke="black" d="M861.6,-85.12C742.08,-77.54 475.03,-59.45 250.89,-36 239.68,-34.83 227.95,-33.47 216.31,-32.05"/>
<polygon fill="black" stroke="black" points="216.48,-28.54 206.13,-30.79 215.62,-35.49 216.48,-28.54"/>
</g>
<!-- :feature:lmu&#45;narrator -->
<g id="node5" class="node">
<title>:feature:lmu&#45;narrator</title>
<ellipse fill="none" stroke="black" cx="369.89" cy="-18" rx="109.68" ry="18"/>
<text text-anchor="middle" x="369.89" y="-14.3" font-family="Times,serif" font-size="14.00">:feature:lmu&#45;narrator</text>
</g>
<!-- :app:shared&#45;&gt;:feature:lmu&#45;narrator -->
<g id="edge4" class="edge">
<title>:app:shared&#45;&gt;:feature:lmu&#45;narrator</title>
<path fill="none" stroke="black" d="M865.46,-82.22C781.34,-72.52 622.74,-53.89 487.89,-36 478.45,-34.75 468.59,-33.4 458.77,-32.02"/>
<polygon fill="black" stroke="black" points="458.95,-28.51 448.56,-30.58 457.98,-35.45 458.95,-28.51"/>
</g>
<!-- :feature:other&#45;detail -->
<g id="node6" class="node">
<title>:feature:other&#45;detail</title>
<ellipse fill="none" stroke="black" cx="601.89" cy="-18" rx="104.78" ry="18"/>
<text text-anchor="middle" x="601.89" y="-14.3" font-family="Times,serif" font-size="14.00">:feature:other&#45;detail</text>
</g>
<!-- :app:shared&#45;&gt;:feature:other&#45;detail -->
<g id="edge5" class="edge">
<title>:app:shared&#45;&gt;:feature:other&#45;detail</title>
<path fill="none" stroke="black" d="M875.13,-78.22C821.4,-66.57 735.32,-47.92 674.14,-34.66"/>
<polygon fill="black" stroke="black" points="674.68,-31.19 664.17,-32.5 673.2,-38.04 674.68,-31.19"/>
</g>
<!-- :feature:other&#45;list -->
<g id="node7" class="node">
<title>:feature:other&#45;list</title>
<ellipse fill="none" stroke="black" cx="817.89" cy="-18" rx="92.88" ry="18"/>
<text text-anchor="middle" x="817.89" y="-14.3" font-family="Times,serif" font-size="14.00">:feature:other&#45;list</text>
</g>
<!-- :app:shared&#45;&gt;:feature:other&#45;list -->
<g id="edge6" class="edge">
<title>:app:shared&#45;&gt;:feature:other&#45;list</title>
<path fill="none" stroke="black" d="M900.61,-73.12C886.15,-63.65 867.57,-51.5 851.69,-41.11"/>
<polygon fill="black" stroke="black" points="853.47,-38.1 843.19,-35.55 849.64,-43.96 853.47,-38.1"/>
</g>
<!-- :feature:readout&#45;list -->
<g id="node8" class="node">
<title>:feature:readout&#45;list</title>
<ellipse fill="none" stroke="black" cx="1032.89" cy="-18" rx="103.98" ry="18"/>
<text text-anchor="middle" x="1032.89" y="-14.3" font-family="Times,serif" font-size="14.00">:feature:readout&#45;list</text>
</g>
<!-- :app:shared&#45;&gt;:feature:readout&#45;list -->
<g id="edge7" class="edge">
<title>:app:shared&#45;&gt;:feature:readout&#45;list</title>
<path fill="none" stroke="black" d="M949.4,-73.12C963.99,-63.65 982.74,-51.5 998.77,-41.11"/>
<polygon fill="black" stroke="black" points="1000.86,-43.93 1007.35,-35.55 997.06,-38.05 1000.86,-43.93"/>
</g>
<!-- :feature:lmu&#45;readout&#45;vehicle&#45;approach&#45;detail -->
<g id="node9" class="node">
<title>:feature:lmu&#45;readout&#45;vehicle&#45;approach&#45;detail</title>
<ellipse fill="none" stroke="black" cx="1372.89" cy="-18" rx="217.96" ry="18"/>
<text text-anchor="middle" x="1372.89" y="-14.3" font-family="Times,serif" font-size="14.00">:feature:lmu&#45;readout&#45;vehicle&#45;approach&#45;detail</text>
</g>
<!-- :app:shared&#45;&gt;:feature:lmu&#45;readout&#45;vehicle&#45;approach&#45;detail -->
<g id="edge8" class="edge">
<title>:app:shared&#45;&gt;:feature:lmu&#45;readout&#45;vehicle&#45;approach&#45;detail</title>
<path fill="none" stroke="black" d="M980.72,-80.28C1051.83,-69.17 1176.2,-49.73 1265.85,-35.73"/>
<polygon fill="black" stroke="black" points="1266.44,-39.18 1275.78,-34.17 1265.36,-32.26 1266.44,-39.18"/>
</g>
<!-- :feature:lmu&#45;readout&#45;flag&#45;detail -->
<g id="node10" class="node">
<title>:feature:lmu&#45;readout&#45;flag&#45;detail</title>
<ellipse fill="none" stroke="black" cx="1764.89" cy="-18" rx="155.97" ry="18"/>
<text text-anchor="middle" x="1764.89" y="-14.3" font-family="Times,serif" font-size="14.00">:feature:lmu&#45;readout&#45;flag&#45;detail</text>
</g>
<!-- :app:shared&#45;&gt;:feature:lmu&#45;readout&#45;flag&#45;detail -->
<g id="edge9" class="edge">
<title>:app:shared&#45;&gt;:feature:lmu&#45;readout&#45;flag&#45;detail</title>
<path fill="none" stroke="black" d="M987.75,-84.58C1107.12,-76.06 1374.83,-56.43 1599.89,-36 1614.22,-34.7 1629.24,-33.26 1644.14,-31.78"/>
<polygon fill="black" stroke="black" points="1644.82,-35.23 1654.43,-30.76 1644.13,-28.27 1644.82,-35.23"/>
</g>
<!-- :feature:lmu&#45;readout&#45;vehicle&#45;damage&#45;detail -->
<g id="node11" class="node">
<title>:feature:lmu&#45;readout&#45;vehicle&#45;damage&#45;detail</title>
<ellipse fill="none" stroke="black" cx="2149.89" cy="-18" rx="211.46" ry="18"/>
<text text-anchor="middle" x="2149.89" y="-14.3" font-family="Times,serif" font-size="14.00">:feature:lmu&#45;readout&#45;vehicle&#45;damage&#45;detail</text>
</g>
<!-- :app:shared&#45;&gt;:feature:lmu&#45;readout&#45;vehicle&#45;damage&#45;detail -->
<g id="edge10" class="edge">
<title>:app:shared&#45;&gt;:feature:lmu&#45;readout&#45;vehicle&#45;damage&#45;detail</title>
<path fill="none" stroke="black" d="M989.29,-86.15C1148.78,-78.97 1574.86,-59.07 1929.89,-36 1950.01,-34.69 1971.16,-33.2 1992.06,-31.66"/>
<polygon fill="black" stroke="black" points="1992.58,-35.13 2002.3,-30.9 1992.06,-28.15 1992.58,-35.13"/>
</g>
<!-- :app:desktopApp -->
<g id="node3" class="node">
<title>:app:desktopApp</title>
<ellipse fill="none" stroke="black" cx="924.89" cy="-162" rx="88.28" ry="18"/>
<text text-anchor="middle" x="924.89" y="-158.3" font-family="Times,serif" font-size="14.00">:app:desktopApp</text>
</g>
<!-- :app:desktopApp&#45;&gt;:app:shared -->
<g id="edge2" class="edge">
<title>:app:desktopApp&#45;&gt;:app:shared</title>
<path fill="none" stroke="black" d="M924.89,-143.7C924.89,-135.98 924.89,-126.71 924.89,-118.11"/>
<polygon fill="black" stroke="black" points="928.39,-118.1 924.89,-108.1 921.39,-118.1 928.39,-118.1"/>
</g>
<!-- :app:webApp -->
<g id="node12" class="node">
<title>:app:webApp</title>
<ellipse fill="none" stroke="black" cx="1101.89" cy="-162" rx="70.69" ry="18"/>
<text text-anchor="middle" x="1101.89" y="-158.3" font-family="Times,serif" font-size="14.00">:app:webApp</text>
</g>
<!-- :app:webApp&#45;&gt;:app:shared -->
<g id="edge11" class="edge">
<title>:app:webApp&#45;&gt;:app:shared</title>
<path fill="none" stroke="black" d="M1065.21,-146.5C1037.65,-135.59 999.73,-120.6 970.25,-108.94"/>
<polygon fill="black" stroke="black" points="971.2,-105.55 960.61,-105.13 968.62,-112.06 971.2,-105.55"/>
</g>
</g>
</svg>
