<?xml version="1.0" encoding="UTF-8" standalone="no"?>
<!DOCTYPE svg PUBLIC "-//W3C//DTD SVG 1.1//EN"
 "http://www.w3.org/Graphics/SVG/1.1/DTD/svg11.dtd">
<!-- Generated by graphviz version 2.43.0 (0)
 -->
<!-- Title: G Pages: 1 -->
<svg width="3774pt" height="188pt"
 viewBox="0.00 0.00 3774.21 188.00" xmlns="http://www.w3.org/2000/svg" xmlns:xlink="http://www.w3.org/1999/xlink">
<g id="graph0" class="graph" transform="scale(1 1) rotate(0) translate(4 184)">
<title>G</title>
<polygon fill="white" stroke="transparent" points="-4,4 -4,-184 3770.21,-184 3770.21,4 -4,4"/>
<!-- :app:androidApp -->
<g id="node1" class="node">
<title>:app:androidApp</title>
<ellipse fill="none" stroke="black" cx="1414.44" cy="-162" rx="87.18" ry="18"/>
<text text-anchor="middle" x="1414.44" y="-158.3" font-family="Times,serif" font-size="14.00">:app:androidApp</text>
</g>
<!-- :app:shared -->
<g id="node2" class="node">
<title>:app:shared</title>
<ellipse fill="none" stroke="black" cx="1607.44" cy="-90" rx="65.79" ry="18"/>
<text text-anchor="middle" x="1607.44" y="-86.3" font-family="Times,serif" font-size="14.00">:app:shared</text>
</g>
<!-- :app:androidApp&#45;&gt;:app:shared -->
<g id="edge1" class="edge">
<title>:app:androidApp&#45;&gt;:app:shared</title>
<path fill="none" stroke="black" d="M1455.84,-145.98C1486.35,-134.92 1527.92,-119.84 1559.81,-108.27"/>
<polygon fill="black" stroke="black" points="1561.17,-111.5 1569.38,-104.8 1558.78,-104.92 1561.17,-111.5"/>
</g>
<!-- :feature:lmu&#45;windows&#45;connection -->
<g id="node4" class="node">
<title>:feature:lmu&#45;windows&#45;connection</title>
<ellipse fill="none" stroke="black" cx="164.44" cy="-18" rx="164.37" ry="18"/>
<text text-anchor="middle" x="164.44" y="-14.3" font-family="Times,serif" font-size="14.00">:feature:lmu&#45;windows&#45;connection</text>
</g>
<!-- :app:shared&#45;&gt;:feature:lmu&#45;windows&#45;connection -->
<g id="edge3" class="edge">
<title>:app:shared&#45;&gt;:feature:lmu&#45;windows&#45;connection</title>
<path fill="none" stroke="black" d="M1542.32,-87.56C1355.05,-83.14 799,-68.09 338.44,-36 322.26,-34.87 305.26,-33.48 288.49,-31.97"/>
<polygon fill="black" stroke="black" points="288.36,-28.45 278.08,-31.02 287.72,-35.42 288.36,-28.45"/>
</g>
<!-- :feature:server&#45;connection -->
<g id="node5" class="node">
<title>:feature:server&#45;connection</title>
<ellipse fill="none" stroke="black" cx="480.44" cy="-18" rx="133.48" ry="18"/>
<text text-anchor="middle" x="480.44" y="-14.3" font-family="Times,serif" font-size="14.00">:feature:server&#45;connection</text>
</g>
<!-- :app:shared&#45;&gt;:feature:server&#45;connection -->
<g id="edge4" class="edge">
<title>:app:shared&#45;&gt;:feature:server&#45;connection</title>
<path fill="none" stroke="black" d="M1542.57,-86.95C1384.93,-81.67 969.23,-65.84 623.44,-36 610.53,-34.89 597,-33.53 583.61,-32.07"/>
<polygon fill="black" stroke="black" points="583.75,-28.56 573.42,-30.94 582.97,-35.52 583.75,-28.56"/>
</g>
<!-- :feature:lmu&#45;windows&#45;narrator -->
<g id="node6" class="node">
<title>:feature:lmu&#45;windows&#45;narrator</title>
<ellipse fill="none" stroke="black" cx="785.44" cy="-18" rx="153.27" ry="18"/>
<text text-anchor="middle" x="785.44" y="-14.3" font-family="Times,serif" font-size="14.00">:feature:lmu&#45;windows&#45;narrator</text>
</g>
<!-- :app:shared&#45;&gt;:feature:lmu&#45;windows&#45;narrator -->
<g id="edge5" class="edge">
<title>:app:shared&#45;&gt;:feature:lmu&#45;windows&#45;narrator</title>
<path fill="none" stroke="black" d="M1544.6,-84.47C1427.21,-75.89 1166.63,-56.3 947.44,-36 933.36,-34.7 918.61,-33.25 903.99,-31.78"/>
<polygon fill="black" stroke="black" points="904.19,-28.28 893.89,-30.75 903.48,-35.24 904.19,-28.28"/>
</g>
<!-- :feature:other&#45;license&#45;detail -->
<g id="node7" class="node">
<title>:feature:other&#45;license&#45;detail</title>
<ellipse fill="none" stroke="black" cx="1096.44" cy="-18" rx="139.98" ry="18"/>
<text text-anchor="middle" x="1096.44" y="-14.3" font-family="Times,serif" font-size="14.00">:feature:other&#45;license&#45;detail</text>
</g>
<!-- :app:shared&#45;&gt;:feature:other&#45;license&#45;detail -->
<g id="edge6" class="edge">
<title>:app:shared&#45;&gt;:feature:other&#45;license&#45;detail</title>
<path fill="none" stroke="black" d="M1549.81,-81.11C1464.6,-69.43 1303.72,-47.4 1198.32,-32.96"/>
<polygon fill="black" stroke="black" points="1198.68,-29.47 1188.3,-31.58 1197.73,-36.41 1198.68,-29.47"/>
</g>
<!-- :feature:other&#45;list -->
<g id="node8" class="node">
<title>:feature:other&#45;list</title>
<ellipse fill="none" stroke="black" cx="1347.44" cy="-18" rx="92.88" ry="18"/>
<text text-anchor="middle" x="1347.44" y="-14.3" font-family="Times,serif" font-size="14.00">:feature:other&#45;list</text>
</g>
<!-- :app:shared&#45;&gt;:feature:other&#45;list -->
<g id="edge7" class="edge">
<title>:app:shared&#45;&gt;:feature:other&#45;list</title>
<path fill="none" stroke="black" d="M1562.44,-76.89C1520.11,-65.49 1456.35,-48.32 1409.25,-35.64"/>
<polygon fill="black" stroke="black" points="1410.04,-32.23 1399.47,-33.01 1408.22,-38.99 1410.04,-32.23"/>
</g>
<!-- :feature:other&#45;server&#45;ip&#45;detail -->
<g id="node9" class="node">
<title>:feature:other&#45;server&#45;ip&#45;detail</title>
<ellipse fill="none" stroke="black" cx="1607.44" cy="-18" rx="148.67" ry="18"/>
<text text-anchor="middle" x="1607.44" y="-14.3" font-family="Times,serif" font-size="14.00">:feature:other&#45;server&#45;ip&#45;detail</text>
</g>
<!-- :app:shared&#45;&gt;:feature:other&#45;server&#45;ip&#45;detail -->
<g id="edge8" class="edge">
<title>:app:shared&#45;&gt;:feature:other&#45;server&#45;ip&#45;detail</title>
<path fill="none" stroke="black" d="M1607.44,-71.7C1607.44,-63.98 1607.44,-54.71 1607.44,-46.11"/>
<polygon fill="black" stroke="black" points="1610.94,-46.1 1607.44,-36.1 1603.94,-46.1 1610.94,-46.1"/>
</g>
<!-- :feature:other&#45;volume&#45;detail -->
<g id="node10" class="node">
<title>:feature:other&#45;volume&#45;detail</title>
<ellipse fill="none" stroke="black" cx="1915.44" cy="-18" rx="141.07" ry="18"/>
<text text-anchor="middle" x="1915.44" y="-14.3" font-family="Times,serif" font-size="14.00">:feature:other&#45;volume&#45;detail</text>
</g>
<!-- :app:shared&#45;&gt;:feature:other&#45;volume&#45;detail -->
<g id="edge9" class="edge">
<title>:app:shared&#45;&gt;:feature:other&#45;volume&#45;detail</title>
<path fill="none" stroke="black" d="M1656.24,-77.91C1705.52,-66.71 1782.34,-49.25 1839.58,-36.24"/>
<polygon fill="black" stroke="black" points="1840.69,-39.58 1849.66,-33.95 1839.14,-32.75 1840.69,-39.58"/>
</g>
<!-- :feature:readout&#45;list -->
<g id="node11" class="node">
<title>:feature:readout&#45;list</title>
<ellipse fill="none" stroke="black" cx="2178.44" cy="-18" rx="103.98" ry="18"/>
<text text-anchor="middle" x="2178.44" y="-14.3" font-family="Times,serif" font-size="14.00">:feature:readout&#45;list</text>
</g>
<!-- :app:shared&#45;&gt;:feature:readout&#45;list -->
<g id="edge10" class="edge">
<title>:app:shared&#45;&gt;:feature:readout&#45;list</title>
<path fill="none" stroke="black" d="M1667.53,-82.71C1755.14,-73.38 1923.01,-54.95 2065.44,-36 2074.63,-34.78 2084.24,-33.43 2093.8,-32.05"/>
<polygon fill="black" stroke="black" points="2094.33,-35.51 2103.72,-30.61 2093.32,-28.59 2094.33,-35.51"/>
</g>
<!-- :feature:lmu&#45;windows&#45;readout&#45;vehicle&#45;approach&#45;detail -->
<g id="node12" class="node">
<title>:feature:lmu&#45;windows&#45;readout&#45;vehicle&#45;approach&#45;detail</title>
<ellipse fill="none" stroke="black" cx="2561.44" cy="-18" rx="260.75" ry="18"/>
<text text-anchor="middle" x="2561.44" y="-14.3" font-family="Times,serif" font-size="14.00">:feature:lmu&#45;windows&#45;readout&#45;vehicle&#45;approach&#45;detail</text>
</g>
<!-- :app:shared&#45;&gt;:feature:lmu&#45;windows&#45;readout&#45;vehicle&#45;approach&#45;detail -->
<g id="edge11" class="edge">
<title>:app:shared&#45;&gt;:feature:lmu&#45;windows&#45;readout&#45;vehicle&#45;approach&#45;detail</title>
<path fill="none" stroke="black" d="M1670.03,-84.41C1812.03,-73.99 2163.06,-48.23 2379.83,-32.33"/>
<polygon fill="black" stroke="black" points="2380.34,-35.8 2390.05,-31.58 2379.82,-28.82 2380.34,-35.8"/>
</g>
<!-- :feature:lmu&#45;windows&#45;readout&#45;flag&#45;detail -->
<g id="node13" class="node">
<title>:feature:lmu&#45;windows&#45;readout&#45;flag&#45;detail</title>
<ellipse fill="none" stroke="black" cx="3039.44" cy="-18" rx="199.56" ry="18"/>
<text text-anchor="middle" x="3039.44" y="-14.3" font-family="Times,serif" font-size="14.00">:feature:lmu&#45;windows&#45;readout&#45;flag&#45;detail</text>
</g>
<!-- :app:shared&#45;&gt;:feature:lmu&#45;windows&#45;readout&#45;flag&#45;detail -->
<g id="edge12" class="edge">
<title>:app:shared&#45;&gt;:feature:lmu&#45;windows&#45;readout&#45;flag&#45;detail</title>
<path fill="none" stroke="black" d="M1672.5,-87.06C1855.26,-81.42 2388.82,-63.66 2831.44,-36 2850.77,-34.79 2871.1,-33.35 2891.17,-31.82"/>
<polygon fill="black" stroke="black" points="2891.61,-35.29 2901.31,-31.03 2891.07,-28.31 2891.61,-35.29"/>
</g>
<!-- :feature:lmu&#45;windows&#45;readout&#45;vehicle&#45;damage&#45;detail -->
<g id="node14" class="node">
<title>:feature:lmu&#45;windows&#45;readout&#45;vehicle&#45;damage&#45;detail</title>
<ellipse fill="none" stroke="black" cx="3511.44" cy="-18" rx="254.55" ry="18"/>
<text text-anchor="middle" x="3511.44" y="-14.3" font-family="Times,serif" font-size="14.00">:feature:lmu&#45;windows&#45;readout&#45;vehicle&#45;damage&#45;detail</text>
</g>
<!-- :app:shared&#45;&gt;:feature:lmu&#45;windows&#45;readout&#45;vehicle&#45;damage&#45;detail -->
<g id="edge13" class="edge">
<title>:app:shared&#45;&gt;:feature:lmu&#45;windows&#45;readout&#45;vehicle&#45;damage&#45;detail</title>
<path fill="none" stroke="black" d="M1672.74,-87.65C1894.04,-82.9 2635.95,-65.68 3248.44,-36 3273.66,-34.78 3300.24,-33.29 3326.41,-31.71"/>
<polygon fill="black" stroke="black" points="3326.64,-35.21 3336.41,-31.1 3326.22,-28.22 3326.64,-35.21"/>
</g>
<!-- :app:desktopApp -->
<g id="node3" class="node">
<title>:app:desktopApp</title>
<ellipse fill="none" stroke="black" cx="1607.44" cy="-162" rx="88.28" ry="18"/>
<text text-anchor="middle" x="1607.44" y="-158.3" font-family="Times,serif" font-size="14.00">:app:desktopApp</text>
</g>
<!-- :app:desktopApp&#45;&gt;:app:shared -->
<g id="edge2" class="edge">
<title>:app:desktopApp&#45;&gt;:app:shared</title>
<path fill="none" stroke="black" d="M1607.44,-143.7C1607.44,-135.98 1607.44,-126.71 1607.44,-118.11"/>
<polygon fill="black" stroke="black" points="1610.94,-118.1 1607.44,-108.1 1603.94,-118.1 1610.94,-118.1"/>
</g>
<!-- :app:webApp -->
<g id="node15" class="node">
<title>:app:webApp</title>
<ellipse fill="none" stroke="black" cx="1784.44" cy="-162" rx="70.69" ry="18"/>
<text text-anchor="middle" x="1784.44" y="-158.3" font-family="Times,serif" font-size="14.00">:app:webApp</text>
</g>
<!-- :app:webApp&#45;&gt;:app:shared -->
<g id="edge14" class="edge">
<title>:app:webApp&#45;&gt;:app:shared</title>
<path fill="none" stroke="black" d="M1747.76,-146.5C1720.2,-135.59 1682.27,-120.6 1652.8,-108.94"/>
<polygon fill="black" stroke="black" points="1653.74,-105.55 1643.16,-105.13 1651.17,-112.06 1653.74,-105.55"/>
</g>
</g>
</svg>
