<?xml version="1.0" encoding="UTF-8" standalone="no"?>
<!DOCTYPE svg PUBLIC "-//W3C//DTD SVG 1.1//EN"
 "http://www.w3.org/Graphics/SVG/1.1/DTD/svg11.dtd">
<!-- Generated by graphviz version 2.43.0 (0)
 -->
<!-- Title: G Pages: 1 -->
<svg width="6844pt" height="188pt"
 viewBox="0.00 0.00 6843.77 188.00" xmlns="http://www.w3.org/2000/svg" xmlns:xlink="http://www.w3.org/1999/xlink">
<g id="graph0" class="graph" transform="scale(1 1) rotate(0) translate(4 184)">
<title>G</title>
<polygon fill="white" stroke="transparent" points="-4,4 -4,-184 6839.77,-184 6839.77,4 -4,4"/>
<!-- :app:androidApp -->
<g id="node1" class="node">
<title>:app:androidApp</title>
<ellipse fill="none" stroke="black" cx="2652.44" cy="-162" rx="87.18" ry="18"/>
<text text-anchor="middle" x="2652.44" y="-158.3" font-family="Times,serif" font-size="14.00">:app:androidApp</text>
</g>
<!-- :app:shared -->
<g id="node2" class="node">
<title>:app:shared</title>
<ellipse fill="none" stroke="black" cx="2845.44" cy="-90" rx="65.79" ry="18"/>
<text text-anchor="middle" x="2845.44" y="-86.3" font-family="Times,serif" font-size="14.00">:app:shared</text>
</g>
<!-- :app:androidApp&#45;&gt;:app:shared -->
<g id="edge1" class="edge">
<title>:app:androidApp&#45;&gt;:app:shared</title>
<path fill="none" stroke="black" d="M2693.85,-145.98C2724.36,-134.92 2765.93,-119.84 2797.82,-108.27"/>
<polygon fill="black" stroke="black" points="2799.18,-111.5 2807.38,-104.8 2796.79,-104.92 2799.18,-111.5"/>
</g>
<!-- :feature:main -->
<g id="node4" class="node">
<title>:feature:main</title>
<ellipse fill="none" stroke="black" cx="73.44" cy="-18" rx="73.39" ry="18"/>
<text text-anchor="middle" x="73.44" y="-14.3" font-family="Times,serif" font-size="14.00">:feature:main</text>
</g>
<!-- :app:shared&#45;&gt;:feature:main -->
<g id="edge3" class="edge">
<title>:app:shared&#45;&gt;:feature:main</title>
<path fill="none" stroke="black" d="M2779.94,-88.42C2393.97,-84.94 424.15,-65.8 156.44,-36 149.31,-35.21 141.88,-34.1 134.52,-32.82"/>
<polygon fill="black" stroke="black" points="135.04,-29.36 124.57,-30.99 133.77,-36.24 135.04,-29.36"/>
</g>
<!-- :feature:lmu&#45;windows&#45;connection -->
<g id="node5" class="node">
<title>:feature:lmu&#45;windows&#45;connection</title>
<ellipse fill="none" stroke="black" cx="329.44" cy="-18" rx="164.37" ry="18"/>
<text text-anchor="middle" x="329.44" y="-14.3" font-family="Times,serif" font-size="14.00">:feature:lmu&#45;windows&#45;connection</text>
</g>
<!-- :app:shared&#45;&gt;:feature:lmu&#45;windows&#45;connection -->
<g id="edge4" class="edge">
<title>:app:shared&#45;&gt;:feature:lmu&#45;windows&#45;connection</title>
<path fill="none" stroke="black" d="M2779.71,-89.31C2502.82,-90.24 1404.19,-90.12 503.44,-36 486.73,-35 469.14,-33.63 451.82,-32.12"/>
<polygon fill="black" stroke="black" points="451.94,-28.61 441.67,-31.21 451.31,-35.59 451.94,-28.61"/>
</g>
<!-- :feature:gt7&#45;ps5&#45;connection -->
<g id="node6" class="node">
<title>:feature:gt7&#45;ps5&#45;connection</title>
<ellipse fill="none" stroke="black" cx="650.44" cy="-18" rx="138.38" ry="18"/>
<text text-anchor="middle" x="650.44" y="-14.3" font-family="Times,serif" font-size="14.00">:feature:gt7&#45;ps5&#45;connection</text>
</g>
<!-- :app:shared&#45;&gt;:feature:gt7&#45;ps5&#45;connection -->
<g id="edge5" class="edge">
<title>:app:shared&#45;&gt;:feature:gt7&#45;ps5&#45;connection</title>
<path fill="none" stroke="black" d="M2779.51,-89.41C2524.23,-90.56 1576.41,-90.64 798.44,-36 784.5,-35.02 769.86,-33.7 755.42,-32.22"/>
<polygon fill="black" stroke="black" points="755.78,-28.74 745.47,-31.17 755.05,-35.7 755.78,-28.74"/>
</g>
<!-- :feature:server&#45;connection -->
<g id="node7" class="node">
<title>:feature:server&#45;connection</title>
<ellipse fill="none" stroke="black" cx="940.44" cy="-18" rx="133.48" ry="18"/>
<text text-anchor="middle" x="940.44" y="-14.3" font-family="Times,serif" font-size="14.00">:feature:server&#45;connection</text>
</g>
<!-- :app:shared&#45;&gt;:feature:server&#45;connection -->
<g id="edge6" class="edge">
<title>:app:shared&#45;&gt;:feature:server&#45;connection</title>
<path fill="none" stroke="black" d="M2779.73,-89.11C2547.56,-89.06 1744.2,-85.12 1083.44,-36 1070.1,-35.01 1056.09,-33.69 1042.27,-32.22"/>
<polygon fill="black" stroke="black" points="1042.57,-28.73 1032.25,-31.13 1041.82,-35.69 1042.57,-28.73"/>
</g>
<!-- :feature:lmu&#45;windows&#45;narrator -->
<g id="node8" class="node">
<title>:feature:lmu&#45;windows&#45;narrator</title>
<ellipse fill="none" stroke="black" cx="1245.44" cy="-18" rx="153.27" ry="18"/>
<text text-anchor="middle" x="1245.44" y="-14.3" font-family="Times,serif" font-size="14.00">:feature:lmu&#45;windows&#45;narrator</text>
</g>
<!-- :app:shared&#45;&gt;:feature:lmu&#45;windows&#45;narrator -->
<g id="edge7" class="edge">
<title>:app:shared&#45;&gt;:feature:lmu&#45;windows&#45;narrator</title>
<path fill="none" stroke="black" d="M2779.83,-88.15C2576.16,-85.16 1936.7,-73.25 1408.44,-36 1393.31,-34.93 1377.41,-33.57 1361.72,-32.09"/>
<polygon fill="black" stroke="black" points="1361.74,-28.57 1351.45,-31.1 1361.06,-35.54 1361.74,-28.57"/>
</g>
<!-- :feature:gt7&#45;ps5&#45;narrator -->
<g id="node9" class="node">
<title>:feature:gt7&#45;ps5&#45;narrator</title>
<ellipse fill="none" stroke="black" cx="1544.44" cy="-18" rx="127.28" ry="18"/>
<text text-anchor="middle" x="1544.44" y="-14.3" font-family="Times,serif" font-size="14.00">:feature:gt7&#45;ps5&#45;narrator</text>
</g>
<!-- :app:shared&#45;&gt;:feature:gt7&#45;ps5&#45;narrator -->
<g id="edge8" class="edge">
<title>:app:shared&#45;&gt;:feature:gt7&#45;ps5&#45;narrator</title>
<path fill="none" stroke="black" d="M2779.96,-87.83C2602.62,-84.27 2098.29,-71.56 1680.44,-36 1668.19,-34.96 1655.34,-33.64 1642.64,-32.21"/>
<polygon fill="black" stroke="black" points="1642.83,-28.71 1632.49,-31.04 1642.02,-35.66 1642.83,-28.71"/>
</g>
<!-- :feature:other&#45;license&#45;detail -->
<g id="node10" class="node">
<title>:feature:other&#45;license&#45;detail</title>
<ellipse fill="none" stroke="black" cx="1829.44" cy="-18" rx="139.98" ry="18"/>
<text text-anchor="middle" x="1829.44" y="-14.3" font-family="Times,serif" font-size="14.00">:feature:other&#45;license&#45;detail</text>
</g>
<!-- :app:shared&#45;&gt;:feature:other&#45;license&#45;detail -->
<g id="edge9" class="edge">
<title>:app:shared&#45;&gt;:feature:other&#45;license&#45;detail</title>
<path fill="none" stroke="black" d="M2781.19,-86.23C2637.27,-79.77 2278.15,-62.24 1978.44,-36 1965.09,-34.83 1951.07,-33.44 1937.21,-31.97"/>
<polygon fill="black" stroke="black" points="1937.47,-28.48 1927.15,-30.89 1936.72,-35.44 1937.47,-28.48"/>
</g>
<!-- :feature:other&#45;list -->
<g id="node11" class="node">
<title>:feature:other&#45;list</title>
<ellipse fill="none" stroke="black" cx="2080.44" cy="-18" rx="92.88" ry="18"/>
<text text-anchor="middle" x="2080.44" y="-14.3" font-family="Times,serif" font-size="14.00">:feature:other&#45;list</text>
</g>
<!-- :app:shared&#45;&gt;:feature:other&#45;list -->
<g id="edge10" class="edge">
<title>:app:shared&#45;&gt;:feature:other&#45;list</title>
<path fill="none" stroke="black" d="M2781.26,-85.7C2662.67,-79.18 2401.34,-62.94 2182.44,-36 2173.9,-34.95 2164.98,-33.69 2156.12,-32.35"/>
<polygon fill="black" stroke="black" points="2156.59,-28.88 2146.17,-30.8 2155.51,-35.8 2156.59,-28.88"/>
</g>
<!-- :feature:other&#45;server&#45;ip&#45;detail -->
<g id="node12" class="node">
<title>:feature:other&#45;server&#45;ip&#45;detail</title>
<ellipse fill="none" stroke="black" cx="2340.44" cy="-18" rx="148.67" ry="18"/>
<text text-anchor="middle" x="2340.44" y="-14.3" font-family="Times,serif" font-size="14.00">:feature:other&#45;server&#45;ip&#45;detail</text>
</g>
<!-- :app:shared&#45;&gt;:feature:other&#45;server&#45;ip&#45;detail -->
<g id="edge11" class="edge">
<title>:app:shared&#45;&gt;:feature:other&#45;server&#45;ip&#45;detail</title>
<path fill="none" stroke="black" d="M2788.01,-81.04C2704.57,-69.47 2548.48,-47.84 2444.48,-33.42"/>
<polygon fill="black" stroke="black" points="2444.66,-29.91 2434.27,-32.01 2443.7,-36.85 2444.66,-29.91"/>
</g>
<!-- :feature:other&#45;console&#45;ip&#45;detail -->
<g id="node13" class="node">
<title>:feature:other&#45;console&#45;ip&#45;detail</title>
<ellipse fill="none" stroke="black" cx="2660.44" cy="-18" rx="153.27" ry="18"/>
<text text-anchor="middle" x="2660.44" y="-14.3" font-family="Times,serif" font-size="14.00">:feature:other&#45;console&#45;ip&#45;detail</text>
</g>
<!-- :app:shared&#45;&gt;:feature:other&#45;console&#45;ip&#45;detail -->
<g id="edge12" class="edge">
<title>:app:shared&#45;&gt;:feature:other&#45;console&#45;ip&#45;detail</title>
<path fill="none" stroke="black" d="M2808.45,-75C2781.14,-64.67 2743.59,-50.46 2713.15,-38.94"/>
<polygon fill="black" stroke="black" points="2714.13,-35.57 2703.54,-35.31 2711.65,-42.12 2714.13,-35.57"/>
</g>
<!-- :feature:other&#45;readout&#45;start&#45;sound&#45;detail -->
<g id="node14" class="node">
<title>:feature:other&#45;readout&#45;start&#45;sound&#45;detail</title>
<ellipse fill="none" stroke="black" cx="3031.44" cy="-18" rx="199.56" ry="18"/>
<text text-anchor="middle" x="3031.44" y="-14.3" font-family="Times,serif" font-size="14.00">:feature:other&#45;readout&#45;start&#45;sound&#45;detail</text>
</g>
<!-- :app:shared&#45;&gt;:feature:other&#45;readout&#45;start&#45;sound&#45;detail -->
<g id="edge13" class="edge">
<title>:app:shared&#45;&gt;:feature:other&#45;readout&#45;start&#45;sound&#45;detail</title>
<path fill="none" stroke="black" d="M2882.64,-75C2909.9,-64.74 2947.32,-50.66 2977.81,-39.18"/>
<polygon fill="black" stroke="black" points="2979.32,-42.36 2987.45,-35.56 2976.85,-35.8 2979.32,-42.36"/>
</g>
<!-- :feature:other&#45;volume&#45;detail -->
<g id="node15" class="node">
<title>:feature:other&#45;volume&#45;detail</title>
<ellipse fill="none" stroke="black" cx="3390.44" cy="-18" rx="141.07" ry="18"/>
<text text-anchor="middle" x="3390.44" y="-14.3" font-family="Times,serif" font-size="14.00">:feature:other&#45;volume&#45;detail</text>
</g>
<!-- :app:shared&#45;&gt;:feature:other&#45;volume&#45;detail -->
<g id="edge14" class="edge">
<title>:app:shared&#45;&gt;:feature:other&#45;volume&#45;detail</title>
<path fill="none" stroke="black" d="M2903.51,-81.54C2994.16,-69.9 3170.7,-47.22 3284.45,-32.61"/>
<polygon fill="black" stroke="black" points="3285.11,-36.06 3294.58,-31.31 3284.21,-29.12 3285.11,-36.06"/>
</g>
<!-- :feature:other&#45;keep&#45;screen&#45;on&#45;detail -->
<g id="node16" class="node">
<title>:feature:other&#45;keep&#45;screen&#45;on&#45;detail</title>
<ellipse fill="none" stroke="black" cx="3726.44" cy="-18" rx="176.57" ry="18"/>
<text text-anchor="middle" x="3726.44" y="-14.3" font-family="Times,serif" font-size="14.00">:feature:other&#45;keep&#45;screen&#45;on&#45;detail</text>
</g>
<!-- :app:shared&#45;&gt;:feature:other&#45;keep&#45;screen&#45;on&#45;detail -->
<g id="edge15" class="edge">
<title>:app:shared&#45;&gt;:feature:other&#45;keep&#45;screen&#45;on&#45;detail</title>
<path fill="none" stroke="black" d="M2908.24,-84.53C3030.16,-75.78 3307.41,-55.53 3540.44,-36 3556.85,-34.62 3574.07,-33.13 3591.13,-31.61"/>
<polygon fill="black" stroke="black" points="3591.5,-35.09 3601.15,-30.71 3590.88,-28.12 3591.5,-35.09"/>
</g>
<!-- :feature:telemetry&#45;log&#45;list -->
<g id="node17" class="node">
<title>:feature:telemetry&#45;log&#45;list</title>
<ellipse fill="none" stroke="black" cx="4051.44" cy="-18" rx="129.98" ry="18"/>
<text text-anchor="middle" x="4051.44" y="-14.3" font-family="Times,serif" font-size="14.00">:feature:telemetry&#45;log&#45;list</text>
</g>
<!-- :app:shared&#45;&gt;:feature:telemetry&#45;log&#45;list -->
<g id="edge16" class="edge">
<title>:app:shared&#45;&gt;:feature:telemetry&#45;log&#45;list</title>
<path fill="none" stroke="black" d="M2910.51,-87.4C3077.29,-82.95 3533.62,-68.53 3912.44,-36 3924.87,-34.93 3937.89,-33.61 3950.78,-32.18"/>
<polygon fill="black" stroke="black" points="3951.53,-35.62 3961.07,-31.01 3950.74,-28.66 3951.53,-35.62"/>
</g>
<!-- :feature:readout&#45;list -->
<g id="node18" class="node">
<title>:feature:readout&#45;list</title>
<ellipse fill="none" stroke="black" cx="4303.44" cy="-18" rx="103.98" ry="18"/>
<text text-anchor="middle" x="4303.44" y="-14.3" font-family="Times,serif" font-size="14.00">:feature:readout&#45;list</text>
</g>
<!-- :app:shared&#45;&gt;:feature:readout&#45;list -->
<g id="edge17" class="edge">
<title>:app:shared&#45;&gt;:feature:readout&#45;list</title>
<path fill="none" stroke="black" d="M2911.05,-88.97C3106.27,-88.32 3700.43,-82.37 4190.44,-36 4200.55,-35.04 4211.12,-33.79 4221.58,-32.4"/>
<polygon fill="black" stroke="black" points="4222.12,-35.86 4231.55,-31.03 4221.17,-28.92 4222.12,-35.86"/>
</g>
<!-- :feature:lmu&#45;windows&#45;readout&#45;vehicle&#45;approach&#45;detail -->
<g id="node19" class="node">
<title>:feature:lmu&#45;windows&#45;readout&#45;vehicle&#45;approach&#45;detail</title>
<ellipse fill="none" stroke="black" cx="4686.44" cy="-18" rx="260.75" ry="18"/>
<text text-anchor="middle" x="4686.44" y="-14.3" font-family="Times,serif" font-size="14.00">:feature:lmu&#45;windows&#45;readout&#45;vehicle&#45;approach&#45;detail</text>
</g>
<!-- :app:shared&#45;&gt;:feature:lmu&#45;windows&#45;readout&#45;vehicle&#45;approach&#45;detail -->
<g id="edge18" class="edge">
<title>:app:shared&#45;&gt;:feature:lmu&#45;windows&#45;readout&#45;vehicle&#45;approach&#45;detail</title>
<path fill="none" stroke="black" d="M2910.57,-87.48C3125.59,-82.33 3832.44,-64.23 4416.44,-36 4442.34,-34.75 4469.62,-33.25 4496.48,-31.66"/>
<polygon fill="black" stroke="black" points="4496.98,-35.14 4506.76,-31.05 4496.57,-28.15 4496.98,-35.14"/>
</g>
<!-- :feature:lmu&#45;windows&#45;readout&#45;flag&#45;detail -->
<g id="node20" class="node">
<title>:feature:lmu&#45;windows&#45;readout&#45;flag&#45;detail</title>
<ellipse fill="none" stroke="black" cx="5164.44" cy="-18" rx="199.56" ry="18"/>
<text text-anchor="middle" x="5164.44" y="-14.3" font-family="Times,serif" font-size="14.00">:feature:lmu&#45;windows&#45;readout&#45;flag&#45;detail</text>
</g>
<!-- :app:shared&#45;&gt;:feature:lmu&#45;windows&#45;readout&#45;flag&#45;detail -->
<g id="edge19" class="edge">
<title>:app:shared&#45;&gt;:feature:lmu&#45;windows&#45;readout&#45;flag&#45;detail</title>
<path fill="none" stroke="black" d="M2911.16,-88.7C3170.9,-87.23 4151.05,-78.99 4956.44,-36 4976.5,-34.93 4997.62,-33.53 5018.41,-31.98"/>
<polygon fill="black" stroke="black" points="5018.87,-35.46 5028.58,-31.22 5018.34,-28.48 5018.87,-35.46"/>
</g>
<!-- :feature:lmu&#45;windows&#45;readout&#45;vehicle&#45;damage&#45;detail -->
<g id="node21" class="node">
<title>:feature:lmu&#45;windows&#45;readout&#45;vehicle&#45;damage&#45;detail</title>
<ellipse fill="none" stroke="black" cx="5636.44" cy="-18" rx="254.55" ry="18"/>
<text text-anchor="middle" x="5636.44" y="-14.3" font-family="Times,serif" font-size="14.00">:feature:lmu&#45;windows&#45;readout&#45;vehicle&#45;damage&#45;detail</text>
</g>
<!-- :app:shared&#45;&gt;:feature:lmu&#45;windows&#45;readout&#45;vehicle&#45;damage&#45;detail -->
<g id="edge20" class="edge">
<title>:app:shared&#45;&gt;:feature:lmu&#45;windows&#45;readout&#45;vehicle&#45;damage&#45;detail</title>
<path fill="none" stroke="black" d="M2911.39,-88.67C3201.7,-87.01 4394.85,-77.87 5373.44,-36 5399.28,-34.89 5426.54,-33.45 5453.32,-31.87"/>
<polygon fill="black" stroke="black" points="5453.78,-35.34 5463.55,-31.25 5453.36,-28.36 5453.78,-35.34"/>
</g>
<!-- :feature:gt7&#45;ps5&#45;readout&#45;my&#45;bestlap&#45;detail -->
<g id="node22" class="node">
<title>:feature:gt7&#45;ps5&#45;readout&#45;my&#45;bestlap&#45;detail</title>
<ellipse fill="none" stroke="black" cx="6117.44" cy="-18" rx="207.96" ry="18"/>
<text text-anchor="middle" x="6117.44" y="-14.3" font-family="Times,serif" font-size="14.00">:feature:gt7&#45;ps5&#45;readout&#45;my&#45;bestlap&#45;detail</text>
</g>
<!-- :app:shared&#45;&gt;:feature:gt7&#45;ps5&#45;readout&#45;my&#45;bestlap&#45;detail -->
<g id="edge21" class="edge">
<title>:app:shared&#45;&gt;:feature:gt7&#45;ps5&#45;readout&#45;my&#45;bestlap&#45;detail</title>
<path fill="none" stroke="black" d="M2911.06,-89.34C3235.61,-90.72 4701.64,-93.3 5900.44,-36 5921.88,-34.98 5944.49,-33.57 5966.7,-32"/>
<polygon fill="black" stroke="black" points="5967.14,-35.48 5976.86,-31.27 5966.64,-28.49 5967.14,-35.48"/>
</g>
<!-- :feature:gt7&#45;ps5&#45;readout&#45;remaining&#45;fuel&#45;laps&#45;detail -->
<g id="node23" class="node">
<title>:feature:gt7&#45;ps5&#45;readout&#45;remaining&#45;fuel&#45;laps&#45;detail</title>
<ellipse fill="none" stroke="black" cx="6589.44" cy="-18" rx="246.16" ry="18"/>
<text text-anchor="middle" x="6589.44" y="-14.3" font-family="Times,serif" font-size="14.00">:feature:gt7&#45;ps5&#45;readout&#45;remaining&#45;fuel&#45;laps&#45;detail</text>
</g>
<!-- :app:shared&#45;&gt;:feature:gt7&#45;ps5&#45;readout&#45;remaining&#45;fuel&#45;laps&#45;detail -->
<g id="edge22" class="edge">
<title>:app:shared&#45;&gt;:feature:gt7&#45;ps5&#45;readout&#45;remaining&#45;fuel&#45;laps&#45;detail</title>
<path fill="none" stroke="black" d="M2911.13,-89.26C3262.26,-90.38 4953.24,-92.49 6334.44,-36 6359.9,-34.96 6386.76,-33.53 6413.12,-31.94"/>
<polygon fill="black" stroke="black" points="6413.43,-35.43 6423.19,-31.32 6413,-28.44 6413.43,-35.43"/>
</g>
<!-- :app:desktopApp -->
<g id="node3" class="node">
<title>:app:desktopApp</title>
<ellipse fill="none" stroke="black" cx="2845.44" cy="-162" rx="88.28" ry="18"/>
<text text-anchor="middle" x="2845.44" y="-158.3" font-family="Times,serif" font-size="14.00">:app:desktopApp</text>
</g>
<!-- :app:desktopApp&#45;&gt;:app:shared -->
<g id="edge2" class="edge">
<title>:app:desktopApp&#45;&gt;:app:shared</title>
<path fill="none" stroke="black" d="M2845.44,-143.7C2845.44,-135.98 2845.44,-126.71 2845.44,-118.11"/>
<polygon fill="black" stroke="black" points="2848.94,-118.1 2845.44,-108.1 2841.94,-118.1 2848.94,-118.1"/>
</g>
<!-- :app:webApp -->
<g id="node24" class="node">
<title>:app:webApp</title>
<ellipse fill="none" stroke="black" cx="3022.44" cy="-162" rx="70.69" ry="18"/>
<text text-anchor="middle" x="3022.44" y="-158.3" font-family="Times,serif" font-size="14.00">:app:webApp</text>
</g>
<!-- :app:webApp&#45;&gt;:app:shared -->
<g id="edge23" class="edge">
<title>:app:webApp&#45;&gt;:app:shared</title>
<path fill="none" stroke="black" d="M2985.77,-146.5C2958.2,-135.59 2920.28,-120.6 2890.81,-108.94"/>
<polygon fill="black" stroke="black" points="2891.75,-105.55 2881.16,-105.13 2889.18,-112.06 2891.75,-105.55"/>
</g>
</g>
</svg>
