<?xml version="1.0" encoding="UTF-8" standalone="no"?>
<!DOCTYPE svg PUBLIC "-//W3C//DTD SVG 1.1//EN"
 "http://www.w3.org/Graphics/SVG/1.1/DTD/svg11.dtd">
<!-- Generated by graphviz version 2.43.0 (0)
 -->
<!-- Title: G Pages: 1 -->
<svg width="899pt" height="188pt"
 viewBox="0.00 0.00 898.73 188.00" xmlns="http://www.w3.org/2000/svg" xmlns:xlink="http://www.w3.org/1999/xlink">
<g id="graph0" class="graph" transform="scale(1 1) rotate(0) translate(4 184)">
<title>G</title>
<polygon fill="white" stroke="transparent" points="-4,4 -4,-184 894.73,-184 894.73,4 -4,4"/>
<!-- :app:androidApp -->
<g id="node1" class="node">
<title>:app:androidApp</title>
<ellipse fill="none" stroke="black" cx="168.04" cy="-162" rx="87.18" ry="18"/>
<text text-anchor="middle" x="168.04" y="-158.3" font-family="Times,serif" font-size="14.00">:app:androidApp</text>
</g>
<!-- :app:shared -->
<g id="node2" class="node">
<title>:app:shared</title>
<ellipse fill="none" stroke="black" cx="361.04" cy="-90" rx="65.79" ry="18"/>
<text text-anchor="middle" x="361.04" y="-86.3" font-family="Times,serif" font-size="14.00">:app:shared</text>
</g>
<!-- :app:androidApp&#45;&gt;:app:shared -->
<g id="edge1" class="edge">
<title>:app:androidApp&#45;&gt;:app:shared</title>
<path fill="none" stroke="black" d="M209.45,-145.98C239.96,-134.92 281.53,-119.84 313.42,-108.27"/>
<polygon fill="black" stroke="black" points="314.78,-111.5 322.98,-104.8 312.39,-104.92 314.78,-111.5"/>
</g>
<!-- :feature:narrator -->
<g id="node4" class="node">
<title>:feature:narrator</title>
<ellipse fill="none" stroke="black" cx="89.04" cy="-18" rx="89.08" ry="18"/>
<text text-anchor="middle" x="89.04" y="-14.3" font-family="Times,serif" font-size="14.00">:feature:narrator</text>
</g>
<!-- :app:shared&#45;&gt;:feature:narrator -->
<g id="edge3" class="edge">
<title>:app:shared&#45;&gt;:feature:narrator</title>
<path fill="none" stroke="black" d="M314.9,-77.13C270,-65.57 201.44,-47.93 151.64,-35.11"/>
<polygon fill="black" stroke="black" points="152.5,-31.72 141.94,-32.61 150.75,-38.5 152.5,-31.72"/>
</g>
<!-- :feature:other -->
<g id="node5" class="node">
<title>:feature:other</title>
<ellipse fill="none" stroke="black" cx="271.04" cy="-18" rx="75.29" ry="18"/>
<text text-anchor="middle" x="271.04" y="-14.3" font-family="Times,serif" font-size="14.00">:feature:other</text>
</g>
<!-- :app:shared&#45;&gt;:feature:other -->
<g id="edge4" class="edge">
<title>:app:shared&#45;&gt;:feature:other</title>
<path fill="none" stroke="black" d="M340.17,-72.76C328.33,-63.55 313.32,-51.88 300.32,-41.77"/>
<polygon fill="black" stroke="black" points="302.16,-38.77 292.11,-35.39 297.86,-44.29 302.16,-38.77"/>
</g>
<!-- :feature:readout -->
<g id="node6" class="node">
<title>:feature:readout</title>
<ellipse fill="none" stroke="black" cx="451.04" cy="-18" rx="86.38" ry="18"/>
<text text-anchor="middle" x="451.04" y="-14.3" font-family="Times,serif" font-size="14.00">:feature:readout</text>
</g>
<!-- :app:shared&#45;&gt;:feature:readout -->
<g id="edge5" class="edge">
<title>:app:shared&#45;&gt;:feature:readout</title>
<path fill="none" stroke="black" d="M381.92,-72.76C393.67,-63.62 408.55,-52.05 421.49,-41.99"/>
<polygon fill="black" stroke="black" points="423.91,-44.54 429.66,-35.63 419.61,-39.01 423.91,-44.54"/>
</g>
<!-- :feature:readout&#45;vehicle&#45;approach -->
<g id="node7" class="node">
<title>:feature:readout&#45;vehicle&#45;approach</title>
<ellipse fill="none" stroke="black" cx="723.04" cy="-18" rx="167.87" ry="18"/>
<text text-anchor="middle" x="723.04" y="-14.3" font-family="Times,serif" font-size="14.00">:feature:readout&#45;vehicle&#45;approach</text>
</g>
<!-- :app:shared&#45;&gt;:feature:readout&#45;vehicle&#45;approach -->
<g id="edge6" class="edge">
<title>:app:shared&#45;&gt;:feature:readout&#45;vehicle&#45;approach</title>
<path fill="none" stroke="black" d="M413.29,-78.9C471.33,-67.67 565.99,-49.37 635.41,-35.94"/>
<polygon fill="black" stroke="black" points="636.31,-39.34 645.46,-34 634.98,-32.46 636.31,-39.34"/>
</g>
<!-- :app:desktopApp -->
<g id="node3" class="node">
<title>:app:desktopApp</title>
<ellipse fill="none" stroke="black" cx="361.04" cy="-162" rx="88.28" ry="18"/>
<text text-anchor="middle" x="361.04" y="-158.3" font-family="Times,serif" font-size="14.00">:app:desktopApp</text>
</g>
<!-- :app:desktopApp&#45;&gt;:app:shared -->
<g id="edge2" class="edge">
<title>:app:desktopApp&#45;&gt;:app:shared</title>
<path fill="none" stroke="black" d="M361.04,-143.7C361.04,-135.98 361.04,-126.71 361.04,-118.11"/>
<polygon fill="black" stroke="black" points="364.54,-118.1 361.04,-108.1 357.54,-118.1 364.54,-118.1"/>
</g>
<!-- :app:webApp -->
<g id="node8" class="node">
<title>:app:webApp</title>
<ellipse fill="none" stroke="black" cx="538.04" cy="-162" rx="70.69" ry="18"/>
<text text-anchor="middle" x="538.04" y="-158.3" font-family="Times,serif" font-size="14.00">:app:webApp</text>
</g>
<!-- :app:webApp&#45;&gt;:app:shared -->
<g id="edge7" class="edge">
<title>:app:webApp&#45;&gt;:app:shared</title>
<path fill="none" stroke="black" d="M501.37,-146.5C473.8,-135.59 435.88,-120.6 406.41,-108.94"/>
<polygon fill="black" stroke="black" points="407.35,-105.55 396.76,-105.13 404.77,-112.06 407.35,-105.55"/>
</g>
</g>
</svg>
