<?xml version="1.0" encoding="UTF-8" standalone="no"?>
<!DOCTYPE svg PUBLIC "-//W3C//DTD SVG 1.1//EN"
 "http://www.w3.org/Graphics/SVG/1.1/DTD/svg11.dtd">
<!-- Generated by graphviz version 2.43.0 (0)
 -->
<!-- Title: G Pages: 1 -->
<svg width="3056pt" height="188pt"
 viewBox="0.00 0.00 3056.12 188.00" xmlns="http://www.w3.org/2000/svg" xmlns:xlink="http://www.w3.org/1999/xlink">
<g id="graph0" class="graph" transform="scale(1 1) rotate(0) translate(4 184)">
<title>G</title>
<polygon fill="white" stroke="transparent" points="-4,4 -4,-184 3052.12,-184 3052.12,4 -4,4"/>
<!-- :app:androidApp -->
<g id="node1" class="node">
<title>:app:androidApp</title>
<ellipse fill="none" stroke="black" cx="1109.89" cy="-162" rx="87.18" ry="18"/>
<text text-anchor="middle" x="1109.89" y="-158.3" font-family="Times,serif" font-size="14.00">:app:androidApp</text>
</g>
<!-- :app:shared -->
<g id="node2" class="node">
<title>:app:shared</title>
<ellipse fill="none" stroke="black" cx="1302.89" cy="-90" rx="65.79" ry="18"/>
<text text-anchor="middle" x="1302.89" y="-86.3" font-family="Times,serif" font-size="14.00">:app:shared</text>
</g>
<!-- :app:androidApp&#45;&gt;:app:shared -->
<g id="edge1" class="edge">
<title>:app:androidApp&#45;&gt;:app:shared</title>
<path fill="none" stroke="black" d="M1151.29,-145.98C1181.81,-134.92 1223.38,-119.84 1255.27,-108.27"/>
<polygon fill="black" stroke="black" points="1256.62,-111.5 1264.83,-104.8 1254.24,-104.92 1256.62,-111.5"/>
</g>
<!-- :feature:lmu&#45;connection -->
<g id="node4" class="node">
<title>:feature:lmu&#45;connection</title>
<ellipse fill="none" stroke="black" cx="120.89" cy="-18" rx="120.78" ry="18"/>
<text text-anchor="middle" x="120.89" y="-14.3" font-family="Times,serif" font-size="14.00">:feature:lmu&#45;connection</text>
</g>
<!-- :app:shared&#45;&gt;:feature:lmu&#45;connection -->
<g id="edge3" class="edge">
<title>:app:shared&#45;&gt;:feature:lmu&#45;connection</title>
<path fill="none" stroke="black" d="M1237.82,-87.53C1072.6,-83.39 623.57,-69.7 250.89,-36 239.29,-34.95 227.13,-33.64 215.1,-32.22"/>
<polygon fill="black" stroke="black" points="215.4,-28.73 205.05,-31 214.55,-35.68 215.4,-28.73"/>
</g>
<!-- :feature:lmu&#45;narrator -->
<g id="node5" class="node">
<title>:feature:lmu&#45;narrator</title>
<ellipse fill="none" stroke="black" cx="369.89" cy="-18" rx="109.68" ry="18"/>
<text text-anchor="middle" x="369.89" y="-14.3" font-family="Times,serif" font-size="14.00">:feature:lmu&#45;narrator</text>
</g>
<!-- :app:shared&#45;&gt;:feature:lmu&#45;narrator -->
<g id="edge4" class="edge">
<title>:app:shared&#45;&gt;:feature:lmu&#45;narrator</title>
<path fill="none" stroke="black" d="M1238.38,-86.49C1100.52,-80.75 767.09,-64.89 488.89,-36 478.59,-34.93 467.8,-33.64 457.12,-32.25"/>
<polygon fill="black" stroke="black" points="457.29,-28.74 446.92,-30.89 456.37,-35.68 457.29,-28.74"/>
</g>
<!-- :feature:other&#45;license&#45;detail -->
<g id="node6" class="node">
<title>:feature:other&#45;license&#45;detail</title>
<ellipse fill="none" stroke="black" cx="637.89" cy="-18" rx="139.98" ry="18"/>
<text text-anchor="middle" x="637.89" y="-14.3" font-family="Times,serif" font-size="14.00">:feature:other&#45;license&#45;detail</text>
</g>
<!-- :app:shared&#45;&gt;:feature:other&#45;license&#45;detail -->
<g id="edge5" class="edge">
<title>:app:shared&#45;&gt;:feature:other&#45;license&#45;detail</title>
<path fill="none" stroke="black" d="M1242.1,-82.98C1145.59,-73.37 951.4,-53.83 786.89,-36 774.31,-34.64 761.13,-33.18 748.04,-31.71"/>
<polygon fill="black" stroke="black" points="748.39,-28.23 738.06,-30.59 747.6,-35.18 748.39,-28.23"/>
</g>
<!-- :feature:other&#45;list -->
<g id="node7" class="node">
<title>:feature:other&#45;list</title>
<ellipse fill="none" stroke="black" cx="888.89" cy="-18" rx="92.88" ry="18"/>
<text text-anchor="middle" x="888.89" y="-14.3" font-family="Times,serif" font-size="14.00">:feature:other&#45;list</text>
</g>
<!-- :app:shared&#45;&gt;:feature:other&#45;list -->
<g id="edge6" class="edge">
<title>:app:shared&#45;&gt;:feature:other&#45;list</title>
<path fill="none" stroke="black" d="M1248.34,-79.78C1176.25,-67.59 1048.82,-46.04 966.66,-32.15"/>
<polygon fill="black" stroke="black" points="967.06,-28.67 956.62,-30.45 965.9,-35.57 967.06,-28.67"/>
</g>
<!-- :feature:other&#45;server&#45;ip&#45;detail -->
<g id="node8" class="node">
<title>:feature:other&#45;server&#45;ip&#45;detail</title>
<ellipse fill="none" stroke="black" cx="1148.89" cy="-18" rx="148.67" ry="18"/>
<text text-anchor="middle" x="1148.89" y="-14.3" font-family="Times,serif" font-size="14.00">:feature:other&#45;server&#45;ip&#45;detail</text>
</g>
<!-- :app:shared&#45;&gt;:feature:other&#45;server&#45;ip&#45;detail -->
<g id="edge7" class="edge">
<title>:app:shared&#45;&gt;:feature:other&#45;server&#45;ip&#45;detail</title>
<path fill="none" stroke="black" d="M1270.61,-74.33C1248.47,-64.27 1218.8,-50.78 1194.29,-39.64"/>
<polygon fill="black" stroke="black" points="1195.73,-36.45 1185.18,-35.49 1192.83,-42.82 1195.73,-36.45"/>
</g>
<!-- :feature:other&#45;volume&#45;detail -->
<g id="node9" class="node">
<title>:feature:other&#45;volume&#45;detail</title>
<ellipse fill="none" stroke="black" cx="1456.89" cy="-18" rx="141.07" ry="18"/>
<text text-anchor="middle" x="1456.89" y="-14.3" font-family="Times,serif" font-size="14.00">:feature:other&#45;volume&#45;detail</text>
</g>
<!-- :app:shared&#45;&gt;:feature:other&#45;volume&#45;detail -->
<g id="edge8" class="edge">
<title>:app:shared&#45;&gt;:feature:other&#45;volume&#45;detail</title>
<path fill="none" stroke="black" d="M1335.17,-74.33C1357.31,-64.27 1386.98,-50.78 1411.49,-39.64"/>
<polygon fill="black" stroke="black" points="1412.95,-42.82 1420.6,-35.49 1410.05,-36.45 1412.95,-42.82"/>
</g>
<!-- :feature:readout&#45;list -->
<g id="node10" class="node">
<title>:feature:readout&#45;list</title>
<ellipse fill="none" stroke="black" cx="1719.89" cy="-18" rx="103.98" ry="18"/>
<text text-anchor="middle" x="1719.89" y="-14.3" font-family="Times,serif" font-size="14.00">:feature:readout&#45;list</text>
</g>
<!-- :app:shared&#45;&gt;:feature:readout&#45;list -->
<g id="edge9" class="edge">
<title>:app:shared&#45;&gt;:feature:readout&#45;list</title>
<path fill="none" stroke="black" d="M1357.4,-79.85C1428.9,-67.85 1554.96,-46.69 1637.97,-32.75"/>
<polygon fill="black" stroke="black" points="1638.59,-36.2 1647.87,-31.09 1637.43,-29.29 1638.59,-36.2"/>
</g>
<!-- :feature:lmu&#45;readout&#45;vehicle&#45;approach&#45;detail -->
<g id="node11" class="node">
<title>:feature:lmu&#45;readout&#45;vehicle&#45;approach&#45;detail</title>
<ellipse fill="none" stroke="black" cx="2059.89" cy="-18" rx="217.96" ry="18"/>
<text text-anchor="middle" x="2059.89" y="-14.3" font-family="Times,serif" font-size="14.00">:feature:lmu&#45;readout&#45;vehicle&#45;approach&#45;detail</text>
</g>
<!-- :app:shared&#45;&gt;:feature:lmu&#45;readout&#45;vehicle&#45;approach&#45;detail -->
<g id="edge10" class="edge">
<title>:app:shared&#45;&gt;:feature:lmu&#45;readout&#45;vehicle&#45;approach&#45;detail</title>
<path fill="none" stroke="black" d="M1364.2,-83.33C1482.11,-72.43 1743.53,-48.25 1910.2,-32.84"/>
<polygon fill="black" stroke="black" points="1910.91,-36.29 1920.54,-31.89 1910.26,-29.32 1910.91,-36.29"/>
</g>
<!-- :feature:lmu&#45;readout&#45;flag&#45;detail -->
<g id="node12" class="node">
<title>:feature:lmu&#45;readout&#45;flag&#45;detail</title>
<ellipse fill="none" stroke="black" cx="2451.89" cy="-18" rx="155.97" ry="18"/>
<text text-anchor="middle" x="2451.89" y="-14.3" font-family="Times,serif" font-size="14.00">:feature:lmu&#45;readout&#45;flag&#45;detail</text>
</g>
<!-- :app:shared&#45;&gt;:feature:lmu&#45;readout&#45;flag&#45;detail -->
<g id="edge11" class="edge">
<title>:app:shared&#45;&gt;:feature:lmu&#45;readout&#45;flag&#45;detail</title>
<path fill="none" stroke="black" d="M1367.43,-86.62C1524.79,-80.57 1940.66,-63.14 2286.89,-36 2301.84,-34.83 2317.54,-33.43 2333.07,-31.94"/>
<polygon fill="black" stroke="black" points="2333.62,-35.41 2343.23,-30.96 2332.94,-28.44 2333.62,-35.41"/>
</g>
<!-- :feature:lmu&#45;readout&#45;vehicle&#45;damage&#45;detail -->
<g id="node13" class="node">
<title>:feature:lmu&#45;readout&#45;vehicle&#45;damage&#45;detail</title>
<ellipse fill="none" stroke="black" cx="2836.89" cy="-18" rx="211.46" ry="18"/>
<text text-anchor="middle" x="2836.89" y="-14.3" font-family="Times,serif" font-size="14.00">:feature:lmu&#45;readout&#45;vehicle&#45;damage&#45;detail</text>
</g>
<!-- :app:shared&#45;&gt;:feature:lmu&#45;readout&#45;vehicle&#45;damage&#45;detail -->
<g id="edge12" class="edge">
<title>:app:shared&#45;&gt;:feature:lmu&#45;readout&#45;vehicle&#45;damage&#45;detail</title>
<path fill="none" stroke="black" d="M1367.87,-87.23C1559.3,-81.82 2137.69,-64.17 2616.89,-36 2637.61,-34.78 2659.41,-33.32 2680.9,-31.77"/>
<polygon fill="black" stroke="black" points="2681.37,-35.24 2691.09,-31.02 2680.86,-28.26 2681.37,-35.24"/>
</g>
<!-- :app:desktopApp -->
<g id="node3" class="node">
<title>:app:desktopApp</title>
<ellipse fill="none" stroke="black" cx="1302.89" cy="-162" rx="88.28" ry="18"/>
<text text-anchor="middle" x="1302.89" y="-158.3" font-family="Times,serif" font-size="14.00">:app:desktopApp</text>
</g>
<!-- :app:desktopApp&#45;&gt;:app:shared -->
<g id="edge2" class="edge">
<title>:app:desktopApp&#45;&gt;:app:shared</title>
<path fill="none" stroke="black" d="M1302.89,-143.7C1302.89,-135.98 1302.89,-126.71 1302.89,-118.11"/>
<polygon fill="black" stroke="black" points="1306.39,-118.1 1302.89,-108.1 1299.39,-118.1 1306.39,-118.1"/>
</g>
<!-- :app:webApp -->
<g id="node14" class="node">
<title>:app:webApp</title>
<ellipse fill="none" stroke="black" cx="1479.89" cy="-162" rx="70.69" ry="18"/>
<text text-anchor="middle" x="1479.89" y="-158.3" font-family="Times,serif" font-size="14.00">:app:webApp</text>
</g>
<!-- :app:webApp&#45;&gt;:app:shared -->
<g id="edge13" class="edge">
<title>:app:webApp&#45;&gt;:app:shared</title>
<path fill="none" stroke="black" d="M1443.21,-146.5C1415.65,-135.59 1377.73,-120.6 1348.25,-108.94"/>
<polygon fill="black" stroke="black" points="1349.2,-105.55 1338.61,-105.13 1346.62,-112.06 1349.2,-105.55"/>
</g>
</g>
</svg>
