<?xml version="1.0" encoding="UTF-8" standalone="no"?>
<!DOCTYPE svg PUBLIC "-//W3C//DTD SVG 1.1//EN"
 "http://www.w3.org/Graphics/SVG/1.1/DTD/svg11.dtd">
<!-- Generated by graphviz version 2.43.0 (0)
 -->
<!-- Title: G Pages: 1 -->
<svg width="556pt" height="260pt"
 viewBox="0.00 0.00 556.25 260.00" xmlns="http://www.w3.org/2000/svg" xmlns:xlink="http://www.w3.org/1999/xlink">
<g id="graph0" class="graph" transform="scale(1 1) rotate(0) translate(4 256)">
<title>G</title>
<polygon fill="white" stroke="transparent" points="-4,4 -4,-256 552.25,-256 552.25,4 -4,4"/>
<!-- :app:androidApp -->
<g id="node1" class="node">
<title>:app:androidApp</title>
<ellipse fill="none" stroke="black" cx="442.39" cy="-234" rx="87.18" ry="18"/>
<text text-anchor="middle" x="442.39" y="-230.3" font-family="Times,serif" font-size="14.00">:app:androidApp</text>
</g>
<!-- :app:shared -->
<g id="node2" class="node">
<title>:app:shared</title>
<ellipse fill="none" stroke="black" cx="264.39" cy="-162" rx="65.79" ry="18"/>
<text text-anchor="middle" x="264.39" y="-158.3" font-family="Times,serif" font-size="14.00">:app:shared</text>
</g>
<!-- :app:androidApp&#45;&gt;:app:shared -->
<g id="edge1" class="edge">
<title>:app:androidApp&#45;&gt;:app:shared</title>
<path fill="none" stroke="black" d="M403.77,-217.81C376.12,-206.94 338.79,-192.26 309.73,-180.83"/>
<polygon fill="black" stroke="black" points="310.8,-177.49 300.21,-177.09 308.24,-184 310.8,-177.49"/>
</g>
<!-- :core:domain -->
<g id="node3" class="node">
<title>:core:domain</title>
<ellipse fill="none" stroke="black" cx="352.39" cy="-18" rx="70.69" ry="18"/>
<text text-anchor="middle" x="352.39" y="-14.3" font-family="Times,serif" font-size="14.00">:core:domain</text>
</g>
<!-- :app:androidApp&#45;&gt;:core:domain -->
<g id="edge2" class="edge">
<title>:app:androidApp&#45;&gt;:core:domain</title>
<path fill="none" stroke="black" d="M465.18,-216.47C503.83,-186.42 574.61,-121.37 537.39,-72 523.15,-53.11 468.06,-38.9 421.67,-29.97"/>
<polygon fill="black" stroke="black" points="422.09,-26.49 411.61,-28.09 420.8,-33.37 422.09,-26.49"/>
</g>
<!-- :feature:readout -->
<g id="node4" class="node">
<title>:feature:readout</title>
<ellipse fill="none" stroke="black" cx="442.39" cy="-90" rx="86.38" ry="18"/>
<text text-anchor="middle" x="442.39" y="-86.3" font-family="Times,serif" font-size="14.00">:feature:readout</text>
</g>
<!-- :app:androidApp&#45;&gt;:feature:readout -->
<g id="edge3" class="edge">
<title>:app:androidApp&#45;&gt;:feature:readout</title>
<path fill="none" stroke="black" d="M442.39,-215.87C442.39,-191.67 442.39,-147.21 442.39,-118.39"/>
<polygon fill="black" stroke="black" points="445.89,-118.19 442.39,-108.19 438.89,-118.19 445.89,-118.19"/>
</g>
<!-- :app:shared&#45;&gt;:core:domain -->
<g id="edge7" class="edge">
<title>:app:shared&#45;&gt;:core:domain</title>
<path fill="none" stroke="black" d="M225.61,-147.37C207.87,-138.96 188.57,-126.22 178.39,-108 170.59,-94.03 168.87,-84.86 178.39,-72 200.12,-42.67 237.7,-29.02 272.39,-22.87"/>
<polygon fill="black" stroke="black" points="273.23,-26.28 282.56,-21.26 272.13,-19.37 273.23,-26.28"/>
</g>
<!-- :app:shared&#45;&gt;:feature:readout -->
<g id="edge6" class="edge">
<title>:app:shared&#45;&gt;:feature:readout</title>
<path fill="none" stroke="black" d="M300.41,-146.83C327.45,-136.2 364.76,-121.53 394.34,-109.9"/>
<polygon fill="black" stroke="black" points="395.62,-113.15 403.65,-106.24 393.06,-106.64 395.62,-113.15"/>
</g>
<!-- :feature:other -->
<g id="node6" class="node">
<title>:feature:other</title>
<ellipse fill="none" stroke="black" cx="262.39" cy="-90" rx="75.29" ry="18"/>
<text text-anchor="middle" x="262.39" y="-86.3" font-family="Times,serif" font-size="14.00">:feature:other</text>
</g>
<!-- :app:shared&#45;&gt;:feature:other -->
<g id="edge5" class="edge">
<title>:app:shared&#45;&gt;:feature:other</title>
<path fill="none" stroke="black" d="M263.9,-143.7C263.68,-135.98 263.41,-126.71 263.17,-118.11"/>
<polygon fill="black" stroke="black" points="266.67,-118 262.88,-108.1 259.67,-118.2 266.67,-118"/>
</g>
<!-- :feature:readout&#45;&gt;:core:domain -->
<g id="edge10" class="edge">
<title>:feature:readout&#45;&gt;:core:domain</title>
<path fill="none" stroke="black" d="M421.06,-72.41C409.21,-63.19 394.29,-51.59 381.39,-41.55"/>
<polygon fill="black" stroke="black" points="383.3,-38.61 373.26,-35.23 379,-44.13 383.3,-38.61"/>
</g>
<!-- :app:desktopApp -->
<g id="node5" class="node">
<title>:app:desktopApp</title>
<ellipse fill="none" stroke="black" cx="88.39" cy="-234" rx="88.28" ry="18"/>
<text text-anchor="middle" x="88.39" y="-230.3" font-family="Times,serif" font-size="14.00">:app:desktopApp</text>
</g>
<!-- :app:desktopApp&#45;&gt;:app:shared -->
<g id="edge4" class="edge">
<title>:app:desktopApp&#45;&gt;:app:shared</title>
<path fill="none" stroke="black" d="M127.02,-217.64C154.29,-206.79 190.92,-192.22 219.49,-180.86"/>
<polygon fill="black" stroke="black" points="220.85,-184.08 228.85,-177.14 218.27,-177.58 220.85,-184.08"/>
</g>
<!-- :feature:other&#45;&gt;:core:domain -->
<g id="edge9" class="edge">
<title>:feature:other&#45;&gt;:core:domain</title>
<path fill="none" stroke="black" d="M283.72,-72.41C295.57,-63.19 310.49,-51.59 323.39,-41.55"/>
<polygon fill="black" stroke="black" points="325.78,-44.13 331.53,-35.23 321.48,-38.61 325.78,-44.13"/>
</g>
<!-- :app:webApp -->
<g id="node7" class="node">
<title>:app:webApp</title>
<ellipse fill="none" stroke="black" cx="265.39" cy="-234" rx="70.69" ry="18"/>
<text text-anchor="middle" x="265.39" y="-230.3" font-family="Times,serif" font-size="14.00">:app:webApp</text>
</g>
<!-- :app:webApp&#45;&gt;:app:shared -->
<g id="edge8" class="edge">
<title>:app:webApp&#45;&gt;:app:shared</title>
<path fill="none" stroke="black" d="M265.14,-215.7C265.03,-207.98 264.9,-198.71 264.78,-190.11"/>
<polygon fill="black" stroke="black" points="268.28,-190.05 264.64,-180.1 261.28,-190.15 268.28,-190.05"/>
</g>
</g>
</svg>
