<?xml version="1.0" encoding="UTF-8" standalone="no"?>
<!DOCTYPE svg PUBLIC "-//W3C//DTD SVG 1.1//EN"
 "http://www.w3.org/Graphics/SVG/1.1/DTD/svg11.dtd">
<!-- Generated by graphviz version 2.43.0 (0)
 -->
<!-- Title: G Pages: 1 -->
<svg width="348pt" height="260pt"
 viewBox="0.00 0.00 348.01 260.00" xmlns="http://www.w3.org/2000/svg" xmlns:xlink="http://www.w3.org/1999/xlink">
<g id="graph0" class="graph" transform="scale(1 1) rotate(0) translate(4 256)">
<title>G</title>
<polygon fill="white" stroke="transparent" points="-4,4 -4,-256 344.01,-256 344.01,4 -4,4"/>
<!-- :app:desktopApp -->
<g id="node1" class="node">
<title>:app:desktopApp</title>
<ellipse fill="none" stroke="black" cx="244.71" cy="-234" rx="88.28" ry="18"/>
<text text-anchor="middle" x="244.71" y="-230.3" font-family="Times,serif" font-size="14.00">:app:desktopApp</text>
</g>
<!-- :app:shared -->
<g id="node2" class="node">
<title>:app:shared</title>
<ellipse fill="none" stroke="black" cx="101.71" cy="-162" rx="65.79" ry="18"/>
<text text-anchor="middle" x="101.71" y="-158.3" font-family="Times,serif" font-size="14.00">:app:shared</text>
</g>
<!-- :app:desktopApp&#45;&gt;:app:shared -->
<g id="edge1" class="edge">
<title>:app:desktopApp&#45;&gt;:app:shared</title>
<path fill="none" stroke="black" d="M212.26,-217.12C191.35,-206.88 164.01,-193.5 141.75,-182.6"/>
<polygon fill="black" stroke="black" points="143.08,-179.35 132.56,-178.1 140,-185.64 143.08,-179.35"/>
</g>
<!-- :core:data -->
<g id="node3" class="node">
<title>:core:data</title>
<ellipse fill="none" stroke="black" cx="263.71" cy="-90" rx="57.39" ry="18"/>
<text text-anchor="middle" x="263.71" y="-86.3" font-family="Times,serif" font-size="14.00">:core:data</text>
</g>
<!-- :app:desktopApp&#45;&gt;:core:data -->
<g id="edge2" class="edge">
<title>:app:desktopApp&#45;&gt;:core:data</title>
<path fill="none" stroke="black" d="M247,-215.87C250.24,-191.67 256.19,-147.21 260.04,-118.39"/>
<polygon fill="black" stroke="black" points="263.55,-118.57 261.41,-108.19 256.61,-117.64 263.55,-118.57"/>
</g>
<!-- :core:domain -->
<g id="node4" class="node">
<title>:core:domain</title>
<ellipse fill="none" stroke="black" cx="182.71" cy="-18" rx="70.69" ry="18"/>
<text text-anchor="middle" x="182.71" y="-14.3" font-family="Times,serif" font-size="14.00">:core:domain</text>
</g>
<!-- :app:desktopApp&#45;&gt;:core:domain -->
<g id="edge3" class="edge">
<title>:app:desktopApp&#45;&gt;:core:domain</title>
<path fill="none" stroke="black" d="M265.35,-216.45C300.35,-186.37 364.32,-121.27 329.71,-72 313.04,-48.27 284.67,-35.12 257.27,-27.85"/>
<polygon fill="black" stroke="black" points="257.79,-24.37 247.25,-25.43 256.14,-31.18 257.79,-24.37"/>
</g>
<!-- :feature:readout -->
<g id="node5" class="node">
<title>:feature:readout</title>
<ellipse fill="none" stroke="black" cx="101.71" cy="-90" rx="86.38" ry="18"/>
<text text-anchor="middle" x="101.71" y="-86.3" font-family="Times,serif" font-size="14.00">:feature:readout</text>
</g>
<!-- :app:desktopApp&#45;&gt;:feature:readout -->
<g id="edge4" class="edge">
<title>:app:desktopApp&#45;&gt;:feature:readout</title>
<path fill="none" stroke="black" d="M234.02,-216.04C221.64,-197.17 199.95,-166.4 176.71,-144 164.84,-132.57 150.33,-121.73 137.24,-112.86"/>
<polygon fill="black" stroke="black" points="139.17,-109.94 128.89,-107.34 135.3,-115.77 139.17,-109.94"/>
</g>
<!-- :app:shared&#45;&gt;:core:domain -->
<g id="edge6" class="edge">
<title>:app:shared&#45;&gt;:core:domain</title>
<path fill="none" stroke="black" d="M58.49,-148.15C39.06,-139.98 17.99,-127.22 6.71,-108 -1.39,-94.2 -2.84,-84.84 6.71,-72 28.8,-42.28 67.02,-28.61 102.22,-22.55"/>
<polygon fill="black" stroke="black" points="103.18,-25.95 112.54,-20.97 102.12,-19.03 103.18,-25.95"/>
</g>
<!-- :app:shared&#45;&gt;:feature:readout -->
<g id="edge5" class="edge">
<title>:app:shared&#45;&gt;:feature:readout</title>
<path fill="none" stroke="black" d="M101.71,-143.7C101.71,-135.98 101.71,-126.71 101.71,-118.11"/>
<polygon fill="black" stroke="black" points="105.21,-118.1 101.71,-108.1 98.21,-118.1 105.21,-118.1"/>
</g>
<!-- :core:data&#45;&gt;:core:domain -->
<g id="edge7" class="edge">
<title>:core:data&#45;&gt;:core:domain</title>
<path fill="none" stroke="black" d="M244.92,-72.76C234.36,-63.64 221.01,-52.1 209.39,-42.06"/>
<polygon fill="black" stroke="black" points="211.53,-39.28 201.67,-35.39 206.95,-44.58 211.53,-39.28"/>
</g>
<!-- :feature:readout&#45;&gt;:core:domain -->
<g id="edge8" class="edge">
<title>:feature:readout&#45;&gt;:core:domain</title>
<path fill="none" stroke="black" d="M120.9,-72.41C131.39,-63.34 144.55,-51.97 156.03,-42.06"/>
<polygon fill="black" stroke="black" points="158.37,-44.66 163.65,-35.47 153.79,-39.36 158.37,-44.66"/>
</g>
</g>
</svg>
