<?xml version="1.0" encoding="UTF-8" standalone="no"?>
<!DOCTYPE svg PUBLIC "-//W3C//DTD SVG 1.1//EN"
 "http://www.w3.org/Graphics/SVG/1.1/DTD/svg11.dtd">
<!-- Generated by graphviz version 2.43.0 (0)
 -->
<!-- Title: G Pages: 1 -->
<svg width="4790pt" height="188pt"
 viewBox="0.00 0.00 4790.43 188.00" xmlns="http://www.w3.org/2000/svg" xmlns:xlink="http://www.w3.org/1999/xlink">
<g id="graph0" class="graph" transform="scale(1 1) rotate(0) translate(4 184)">
<title>G</title>
<polygon fill="white" stroke="transparent" points="-4,4 -4,-184 4786.43,-184 4786.43,4 -4,4"/>
<!-- :app:androidApp -->
<g id="node1" class="node">
<title>:app:androidApp</title>
<ellipse fill="none" stroke="black" cx="1762.44" cy="-162" rx="87.18" ry="18"/>
<text text-anchor="middle" x="1762.44" y="-158.3" font-family="Times,serif" font-size="14.00">:app:androidApp</text>
</g>
<!-- :app:shared -->
<g id="node2" class="node">
<title>:app:shared</title>
<ellipse fill="none" stroke="black" cx="1955.44" cy="-90" rx="65.79" ry="18"/>
<text text-anchor="middle" x="1955.44" y="-86.3" font-family="Times,serif" font-size="14.00">:app:shared</text>
</g>
<!-- :app:androidApp&#45;&gt;:app:shared -->
<g id="edge1" class="edge">
<title>:app:androidApp&#45;&gt;:app:shared</title>
<path fill="none" stroke="black" d="M1803.85,-145.98C1834.36,-134.92 1875.93,-119.84 1907.82,-108.27"/>
<polygon fill="black" stroke="black" points="1909.18,-111.5 1917.38,-104.8 1906.79,-104.92 1909.18,-111.5"/>
</g>
<!-- :feature:main -->
<g id="node4" class="node">
<title>:feature:main</title>
<ellipse fill="none" stroke="black" cx="73.44" cy="-18" rx="73.39" ry="18"/>
<text text-anchor="middle" x="73.44" y="-14.3" font-family="Times,serif" font-size="14.00">:feature:main</text>
</g>
<!-- :app:shared&#45;&gt;:feature:main -->
<g id="edge3" class="edge">
<title>:app:shared&#45;&gt;:feature:main</title>
<path fill="none" stroke="black" d="M1889.78,-88.58C1608.27,-86.57 502.12,-76.19 156.44,-36 149.57,-35.2 142.42,-34.12 135.33,-32.89"/>
<polygon fill="black" stroke="black" points="135.49,-29.36 125.02,-31 134.23,-36.25 135.49,-29.36"/>
</g>
<!-- :feature:lmu&#45;windows&#45;connection -->
<g id="node5" class="node">
<title>:feature:lmu&#45;windows&#45;connection</title>
<ellipse fill="none" stroke="black" cx="329.44" cy="-18" rx="164.37" ry="18"/>
<text text-anchor="middle" x="329.44" y="-14.3" font-family="Times,serif" font-size="14.00">:feature:lmu&#45;windows&#45;connection</text>
</g>
<!-- :app:shared&#45;&gt;:feature:lmu&#45;windows&#45;connection -->
<g id="edge4" class="edge">
<title>:app:shared&#45;&gt;:feature:lmu&#45;windows&#45;connection</title>
<path fill="none" stroke="black" d="M1889.88,-88.03C1684.91,-84.69 1037.96,-71.83 503.44,-36 486.99,-34.9 469.68,-33.5 452.62,-31.97"/>
<polygon fill="black" stroke="black" points="452.89,-28.48 442.61,-31.06 452.26,-35.46 452.89,-28.48"/>
</g>
<!-- :feature:server&#45;connection -->
<g id="node6" class="node">
<title>:feature:server&#45;connection</title>
<ellipse fill="none" stroke="black" cx="645.44" cy="-18" rx="133.48" ry="18"/>
<text text-anchor="middle" x="645.44" y="-14.3" font-family="Times,serif" font-size="14.00">:feature:server&#45;connection</text>
</g>
<!-- :app:shared&#45;&gt;:feature:server&#45;connection -->
<g id="edge5" class="edge">
<title>:app:shared&#45;&gt;:feature:server&#45;connection</title>
<path fill="none" stroke="black" d="M1890.18,-87.7C1712.85,-83.83 1207.37,-70.37 788.44,-36 775.44,-34.93 761.79,-33.59 748.3,-32.14"/>
<polygon fill="black" stroke="black" points="748.36,-28.62 738.04,-31.01 747.59,-35.58 748.36,-28.62"/>
</g>
<!-- :feature:lmu&#45;windows&#45;narrator -->
<g id="node7" class="node">
<title>:feature:lmu&#45;windows&#45;narrator</title>
<ellipse fill="none" stroke="black" cx="950.44" cy="-18" rx="153.27" ry="18"/>
<text text-anchor="middle" x="950.44" y="-14.3" font-family="Times,serif" font-size="14.00">:feature:lmu&#45;windows&#45;narrator</text>
</g>
<!-- :app:shared&#45;&gt;:feature:lmu&#45;windows&#45;narrator -->
<g id="edge6" class="edge">
<title>:app:shared&#45;&gt;:feature:lmu&#45;windows&#45;narrator</title>
<path fill="none" stroke="black" d="M1891.4,-85.89C1750.46,-78.84 1402.88,-60.36 1112.44,-36 1098.13,-34.8 1083.13,-33.41 1068.26,-31.94"/>
<polygon fill="black" stroke="black" points="1068.3,-28.43 1058,-30.92 1067.61,-35.4 1068.3,-28.43"/>
</g>
<!-- :feature:other&#45;license&#45;detail -->
<g id="node8" class="node">
<title>:feature:other&#45;license&#45;detail</title>
<ellipse fill="none" stroke="black" cx="1261.44" cy="-18" rx="139.98" ry="18"/>
<text text-anchor="middle" x="1261.44" y="-14.3" font-family="Times,serif" font-size="14.00">:feature:other&#45;license&#45;detail</text>
</g>
<!-- :app:shared&#45;&gt;:feature:other&#45;license&#45;detail -->
<g id="edge7" class="edge">
<title>:app:shared&#45;&gt;:feature:other&#45;license&#45;detail</title>
<path fill="none" stroke="black" d="M1894.11,-83.37C1793.19,-74.03 1585.81,-54.53 1410.44,-36 1397.75,-34.66 1384.46,-33.21 1371.27,-31.74"/>
<polygon fill="black" stroke="black" points="1371.53,-28.25 1361.2,-30.61 1370.75,-35.2 1371.53,-28.25"/>
</g>
<!-- :feature:other&#45;list -->
<g id="node9" class="node">
<title>:feature:other&#45;list</title>
<ellipse fill="none" stroke="black" cx="1512.44" cy="-18" rx="92.88" ry="18"/>
<text text-anchor="middle" x="1512.44" y="-14.3" font-family="Times,serif" font-size="14.00">:feature:other&#45;list</text>
</g>
<!-- :app:shared&#45;&gt;:feature:other&#45;list -->
<g id="edge8" class="edge">
<title>:app:shared&#45;&gt;:feature:other&#45;list</title>
<path fill="none" stroke="black" d="M1899.6,-80.51C1832.03,-70.2 1714.85,-52.17 1614.44,-36 1606.57,-34.73 1598.35,-33.39 1590.15,-32.04"/>
<polygon fill="black" stroke="black" points="1590.62,-28.57 1580.19,-30.4 1589.48,-35.48 1590.62,-28.57"/>
</g>
<!-- :feature:other&#45;server&#45;ip&#45;detail -->
<g id="node10" class="node">
<title>:feature:other&#45;server&#45;ip&#45;detail</title>
<ellipse fill="none" stroke="black" cx="1772.44" cy="-18" rx="148.67" ry="18"/>
<text text-anchor="middle" x="1772.44" y="-14.3" font-family="Times,serif" font-size="14.00">:feature:other&#45;server&#45;ip&#45;detail</text>
</g>
<!-- :app:shared&#45;&gt;:feature:other&#45;server&#45;ip&#45;detail -->
<g id="edge9" class="edge">
<title>:app:shared&#45;&gt;:feature:other&#45;server&#45;ip&#45;detail</title>
<path fill="none" stroke="black" d="M1918.85,-75C1891.84,-64.67 1854.7,-50.46 1824.58,-38.94"/>
<polygon fill="black" stroke="black" points="1825.66,-35.61 1815.07,-35.31 1823.16,-42.15 1825.66,-35.61"/>
</g>
<!-- :feature:other&#45;readout&#45;start&#45;sound&#45;detail -->
<g id="node11" class="node">
<title>:feature:other&#45;readout&#45;start&#45;sound&#45;detail</title>
<ellipse fill="none" stroke="black" cx="2138.44" cy="-18" rx="199.56" ry="18"/>
<text text-anchor="middle" x="2138.44" y="-14.3" font-family="Times,serif" font-size="14.00">:feature:other&#45;readout&#45;start&#45;sound&#45;detail</text>
</g>
<!-- :app:shared&#45;&gt;:feature:other&#45;readout&#45;start&#45;sound&#45;detail -->
<g id="edge10" class="edge">
<title>:app:shared&#45;&gt;:feature:other&#45;readout&#45;start&#45;sound&#45;detail</title>
<path fill="none" stroke="black" d="M1992.04,-75C2018.77,-64.78 2055.42,-50.76 2085.36,-39.31"/>
<polygon fill="black" stroke="black" points="2086.74,-42.53 2094.82,-35.68 2084.23,-35.99 2086.74,-42.53"/>
</g>
<!-- :feature:other&#45;volume&#45;detail -->
<g id="node12" class="node">
<title>:feature:other&#45;volume&#45;detail</title>
<ellipse fill="none" stroke="black" cx="2497.44" cy="-18" rx="141.07" ry="18"/>
<text text-anchor="middle" x="2497.44" y="-14.3" font-family="Times,serif" font-size="14.00">:feature:other&#45;volume&#45;detail</text>
</g>
<!-- :app:shared&#45;&gt;:feature:other&#45;volume&#45;detail -->
<g id="edge11" class="edge">
<title>:app:shared&#45;&gt;:feature:other&#45;volume&#45;detail</title>
<path fill="none" stroke="black" d="M2013.45,-81.51C2103.71,-69.85 2279.13,-47.19 2392.15,-32.6"/>
<polygon fill="black" stroke="black" points="2392.74,-36.05 2402.21,-31.3 2391.84,-29.11 2392.74,-36.05"/>
</g>
<!-- :feature:readout&#45;list -->
<g id="node13" class="node">
<title>:feature:readout&#45;list</title>
<ellipse fill="none" stroke="black" cx="2760.44" cy="-18" rx="103.98" ry="18"/>
<text text-anchor="middle" x="2760.44" y="-14.3" font-family="Times,serif" font-size="14.00">:feature:readout&#45;list</text>
</g>
<!-- :app:shared&#45;&gt;:feature:readout&#45;list -->
<g id="edge12" class="edge">
<title>:app:shared&#45;&gt;:feature:readout&#45;list</title>
<path fill="none" stroke="black" d="M2019.51,-85.66C2141.83,-78.93 2416.97,-62.13 2647.44,-36 2657.13,-34.9 2667.26,-33.6 2677.3,-32.21"/>
<polygon fill="black" stroke="black" points="2677.89,-35.66 2687.3,-30.8 2676.91,-28.73 2677.89,-35.66"/>
</g>
<!-- :feature:lmu&#45;windows&#45;readout&#45;vehicle&#45;approach&#45;detail -->
<g id="node14" class="node">
<title>:feature:lmu&#45;windows&#45;readout&#45;vehicle&#45;approach&#45;detail</title>
<ellipse fill="none" stroke="black" cx="3143.44" cy="-18" rx="260.75" ry="18"/>
<text text-anchor="middle" x="3143.44" y="-14.3" font-family="Times,serif" font-size="14.00">:feature:lmu&#45;windows&#45;readout&#45;vehicle&#45;approach&#45;detail</text>
</g>
<!-- :app:shared&#45;&gt;:feature:lmu&#45;windows&#45;readout&#45;vehicle&#45;approach&#45;detail -->
<g id="edge13" class="edge">
<title>:app:shared&#45;&gt;:feature:lmu&#45;windows&#45;readout&#45;vehicle&#45;approach&#45;detail</title>
<path fill="none" stroke="black" d="M2019.17,-85.44C2168.47,-77.06 2552.55,-55.37 2873.44,-36 2897.86,-34.53 2923.52,-32.95 2948.91,-31.37"/>
<polygon fill="black" stroke="black" points="2949.23,-34.86 2959,-30.74 2948.8,-27.87 2949.23,-34.86"/>
</g>
<!-- :feature:lmu&#45;windows&#45;readout&#45;flag&#45;detail -->
<g id="node15" class="node">
<title>:feature:lmu&#45;windows&#45;readout&#45;flag&#45;detail</title>
<ellipse fill="none" stroke="black" cx="3621.44" cy="-18" rx="199.56" ry="18"/>
<text text-anchor="middle" x="3621.44" y="-14.3" font-family="Times,serif" font-size="14.00">:feature:lmu&#45;windows&#45;readout&#45;flag&#45;detail</text>
</g>
<!-- :app:shared&#45;&gt;:feature:lmu&#45;windows&#45;readout&#45;flag&#45;detail -->
<g id="edge14" class="edge">
<title>:app:shared&#45;&gt;:feature:lmu&#45;windows&#45;readout&#45;flag&#45;detail</title>
<path fill="none" stroke="black" d="M2020.89,-87.68C2226.24,-83.29 2876.13,-67.71 3413.44,-36 3433.1,-34.84 3453.79,-33.41 3474.19,-31.87"/>
<polygon fill="black" stroke="black" points="3474.46,-35.36 3484.17,-31.1 3473.93,-28.38 3474.46,-35.36"/>
</g>
<!-- :feature:lmu&#45;windows&#45;readout&#45;vehicle&#45;damage&#45;detail -->
<g id="node16" class="node">
<title>:feature:lmu&#45;windows&#45;readout&#45;vehicle&#45;damage&#45;detail</title>
<ellipse fill="none" stroke="black" cx="4093.44" cy="-18" rx="254.55" ry="18"/>
<text text-anchor="middle" x="4093.44" y="-14.3" font-family="Times,serif" font-size="14.00">:feature:lmu&#45;windows&#45;readout&#45;vehicle&#45;damage&#45;detail</text>
</g>
<!-- :app:shared&#45;&gt;:feature:lmu&#45;windows&#45;readout&#45;vehicle&#45;damage&#45;detail -->
<g id="edge15" class="edge">
<title>:app:shared&#45;&gt;:feature:lmu&#45;windows&#45;readout&#45;vehicle&#45;damage&#45;detail</title>
<path fill="none" stroke="black" d="M2021.07,-88.01C2262.22,-84.17 3122.1,-68.89 3830.44,-36 3855.87,-34.82 3882.68,-33.35 3909.05,-31.77"/>
<polygon fill="black" stroke="black" points="3909.36,-35.26 3919.13,-31.16 3908.94,-28.27 3909.36,-35.26"/>
</g>
<!-- :feature:gt7&#45;ps5&#45;readout&#45;my&#45;bestlap&#45;detail -->
<g id="node17" class="node">
<title>:feature:gt7&#45;ps5&#45;readout&#45;my&#45;bestlap&#45;detail</title>
<ellipse fill="none" stroke="black" cx="4574.44" cy="-18" rx="207.96" ry="18"/>
<text text-anchor="middle" x="4574.44" y="-14.3" font-family="Times,serif" font-size="14.00">:feature:gt7&#45;ps5&#45;readout&#45;my&#45;bestlap&#45;detail</text>
</g>
<!-- :app:shared&#45;&gt;:feature:gt7&#45;ps5&#45;readout&#45;my&#45;bestlap&#45;detail -->
<g id="edge16" class="edge">
<title>:app:shared&#45;&gt;:feature:gt7&#45;ps5&#45;readout&#45;my&#45;bestlap&#45;detail</title>
<path fill="none" stroke="black" d="M2021.4,-88.9C2302.91,-88.19 3431.57,-82.44 4357.44,-36 4378.64,-34.94 4400.97,-33.52 4422.93,-31.96"/>
<polygon fill="black" stroke="black" points="4423.26,-35.45 4432.98,-31.23 4422.76,-28.46 4423.26,-35.45"/>
</g>
<!-- :app:desktopApp -->
<g id="node3" class="node">
<title>:app:desktopApp</title>
<ellipse fill="none" stroke="black" cx="1955.44" cy="-162" rx="88.28" ry="18"/>
<text text-anchor="middle" x="1955.44" y="-158.3" font-family="Times,serif" font-size="14.00">:app:desktopApp</text>
</g>
<!-- :app:desktopApp&#45;&gt;:app:shared -->
<g id="edge2" class="edge">
<title>:app:desktopApp&#45;&gt;:app:shared</title>
<path fill="none" stroke="black" d="M1955.44,-143.7C1955.44,-135.98 1955.44,-126.71 1955.44,-118.11"/>
<polygon fill="black" stroke="black" points="1958.94,-118.1 1955.44,-108.1 1951.94,-118.1 1958.94,-118.1"/>
</g>
<!-- :app:webApp -->
<g id="node18" class="node">
<title>:app:webApp</title>
<ellipse fill="none" stroke="black" cx="2132.44" cy="-162" rx="70.69" ry="18"/>
<text text-anchor="middle" x="2132.44" y="-158.3" font-family="Times,serif" font-size="14.00">:app:webApp</text>
</g>
<!-- :app:webApp&#45;&gt;:app:shared -->
<g id="edge17" class="edge">
<title>:app:webApp&#45;&gt;:app:shared</title>
<path fill="none" stroke="black" d="M2095.77,-146.5C2068.2,-135.59 2030.28,-120.6 2000.81,-108.94"/>
<polygon fill="black" stroke="black" points="2001.75,-105.55 1991.16,-105.13 1999.18,-112.06 2001.75,-105.55"/>
</g>
</g>
</svg>
