<?xml version="1.0" encoding="UTF-8" standalone="no"?>
<!DOCTYPE svg PUBLIC "-//W3C//DTD SVG 1.1//EN"
 "http://www.w3.org/Graphics/SVG/1.1/DTD/svg11.dtd">
<!-- Generated by graphviz version 2.43.0 (0)
 -->
<!-- Title: G Pages: 1 -->
<svg width="577pt" height="260pt"
 viewBox="0.00 0.00 577.48 260.00" xmlns="http://www.w3.org/2000/svg" xmlns:xlink="http://www.w3.org/1999/xlink">
<g id="graph0" class="graph" transform="scale(1 1) rotate(0) translate(4 256)">
<title>G</title>
<polygon fill="white" stroke="transparent" points="-4,4 -4,-256 573.48,-256 573.48,4 -4,4"/>
<!-- :app:androidApp -->
<g id="node1" class="node">
<title>:app:androidApp</title>
<ellipse fill="none" stroke="black" cx="87.09" cy="-234" rx="87.18" ry="18"/>
<text text-anchor="middle" x="87.09" y="-230.3" font-family="Times,serif" font-size="14.00">:app:androidApp</text>
</g>
<!-- :app:shared -->
<g id="node2" class="node">
<title>:app:shared</title>
<ellipse fill="none" stroke="black" cx="289.09" cy="-162" rx="65.79" ry="18"/>
<text text-anchor="middle" x="289.09" y="-158.3" font-family="Times,serif" font-size="14.00">:app:shared</text>
</g>
<!-- :app:androidApp&#45;&gt;:app:shared -->
<g id="edge1" class="edge">
<title>:app:androidApp&#45;&gt;:app:shared</title>
<path fill="none" stroke="black" d="M129.93,-218.15C162.29,-206.94 206.73,-191.54 240.43,-179.86"/>
<polygon fill="black" stroke="black" points="241.77,-183.1 250.08,-176.52 239.48,-176.49 241.77,-183.1"/>
</g>
<!-- :core:domain -->
<g id="node3" class="node">
<title>:core:domain</title>
<ellipse fill="none" stroke="black" cx="289.09" cy="-18" rx="70.69" ry="18"/>
<text text-anchor="middle" x="289.09" y="-14.3" font-family="Times,serif" font-size="14.00">:core:domain</text>
</g>
<!-- :app:androidApp&#45;&gt;:core:domain -->
<g id="edge2" class="edge">
<title>:app:androidApp&#45;&gt;:core:domain</title>
<path fill="none" stroke="black" d="M79.81,-215.79C67.54,-183.76 47.11,-114.4 80.09,-72 96.91,-50.39 162.78,-36.17 216.13,-27.95"/>
<polygon fill="black" stroke="black" points="216.9,-31.37 226.28,-26.43 215.87,-24.45 216.9,-31.37"/>
</g>
<!-- :app:shared&#45;&gt;:core:domain -->
<g id="edge7" class="edge">
<title>:app:shared&#45;&gt;:core:domain</title>
<path fill="none" stroke="black" d="M289.09,-143.87C289.09,-119.67 289.09,-75.21 289.09,-46.39"/>
<polygon fill="black" stroke="black" points="292.59,-46.19 289.09,-36.19 285.59,-46.19 292.59,-46.19"/>
</g>
<!-- :feature:other -->
<g id="node5" class="node">
<title>:feature:other</title>
<ellipse fill="none" stroke="black" cx="392.09" cy="-90" rx="75.29" ry="18"/>
<text text-anchor="middle" x="392.09" y="-86.3" font-family="Times,serif" font-size="14.00">:feature:other</text>
</g>
<!-- :app:shared&#45;&gt;:feature:other -->
<g id="edge5" class="edge">
<title>:app:shared&#45;&gt;:feature:other</title>
<path fill="none" stroke="black" d="M312.46,-145.12C326.36,-135.67 344.19,-123.56 359.45,-113.18"/>
<polygon fill="black" stroke="black" points="361.79,-115.82 368.1,-107.31 357.86,-110.03 361.79,-115.82"/>
</g>
<!-- :feature:readout -->
<g id="node6" class="node">
<title>:feature:readout</title>
<ellipse fill="none" stroke="black" cx="175.09" cy="-90" rx="86.38" ry="18"/>
<text text-anchor="middle" x="175.09" y="-86.3" font-family="Times,serif" font-size="14.00">:feature:readout</text>
</g>
<!-- :app:shared&#45;&gt;:feature:readout -->
<g id="edge6" class="edge">
<title>:app:shared&#45;&gt;:feature:readout</title>
<path fill="none" stroke="black" d="M263.51,-145.29C247.86,-135.68 227.61,-123.25 210.44,-112.7"/>
<polygon fill="black" stroke="black" points="212.13,-109.64 201.78,-107.39 208.47,-115.6 212.13,-109.64"/>
</g>
<!-- :app:desktopApp -->
<g id="node4" class="node">
<title>:app:desktopApp</title>
<ellipse fill="none" stroke="black" cx="481.09" cy="-234" rx="88.28" ry="18"/>
<text text-anchor="middle" x="481.09" y="-230.3" font-family="Times,serif" font-size="14.00">:app:desktopApp</text>
</g>
<!-- :app:desktopApp&#45;&gt;:app:shared -->
<g id="edge3" class="edge">
<title>:app:desktopApp&#45;&gt;:app:shared</title>
<path fill="none" stroke="black" d="M439.9,-217.98C409.55,-206.92 368.19,-191.84 336.47,-180.27"/>
<polygon fill="black" stroke="black" points="337.55,-176.94 326.95,-176.8 335.15,-183.52 337.55,-176.94"/>
</g>
<!-- :app:desktopApp&#45;&gt;:core:domain -->
<g id="edge4" class="edge">
<title>:app:desktopApp&#45;&gt;:core:domain</title>
<path fill="none" stroke="black" d="M486.51,-215.78C495.42,-183.72 509.13,-114.32 476.09,-72 461.31,-53.07 405.13,-38.8 358.17,-29.86"/>
<polygon fill="black" stroke="black" points="358.78,-26.42 348.31,-28.04 357.51,-33.3 358.78,-26.42"/>
</g>
<!-- :feature:other&#45;&gt;:core:domain -->
<g id="edge9" class="edge">
<title>:feature:other&#45;&gt;:core:domain</title>
<path fill="none" stroke="black" d="M368.2,-72.76C354.29,-63.31 336.57,-51.26 321.42,-40.97"/>
<polygon fill="black" stroke="black" points="323.09,-37.87 312.85,-35.15 319.16,-43.66 323.09,-37.87"/>
</g>
<!-- :feature:readout&#45;&gt;:core:domain -->
<g id="edge10" class="edge">
<title>:feature:readout&#45;&gt;:core:domain</title>
<path fill="none" stroke="black" d="M201.53,-72.76C217.33,-63.07 237.57,-50.64 254.61,-40.17"/>
<polygon fill="black" stroke="black" points="256.5,-43.12 263.19,-34.91 252.84,-37.16 256.5,-43.12"/>
</g>
<!-- :app:webApp -->
<g id="node7" class="node">
<title>:app:webApp</title>
<ellipse fill="none" stroke="black" cx="289.09" cy="-234" rx="70.69" ry="18"/>
<text text-anchor="middle" x="289.09" y="-230.3" font-family="Times,serif" font-size="14.00">:app:webApp</text>
</g>
<!-- :app:webApp&#45;&gt;:app:shared -->
<g id="edge8" class="edge">
<title>:app:webApp&#45;&gt;:app:shared</title>
<path fill="none" stroke="black" d="M289.09,-215.7C289.09,-207.98 289.09,-198.71 289.09,-190.11"/>
<polygon fill="black" stroke="black" points="292.59,-190.1 289.09,-180.1 285.59,-190.1 292.59,-190.1"/>
</g>
</g>
</svg>
