<?xml version="1.0" encoding="UTF-8" standalone="no"?>
<!DOCTYPE svg PUBLIC "-//W3C//DTD SVG 1.1//EN"
 "http://www.w3.org/Graphics/SVG/1.1/DTD/svg11.dtd">
<!-- Generated by graphviz version 2.43.0 (0)
 -->
<!-- Title: G Pages: 1 -->
<svg width="1933pt" height="188pt"
 viewBox="0.00 0.00 1933.07 188.00" xmlns="http://www.w3.org/2000/svg" xmlns:xlink="http://www.w3.org/1999/xlink">
<g id="graph0" class="graph" transform="scale(1 1) rotate(0) translate(4 184)">
<title>G</title>
<polygon fill="white" stroke="transparent" points="-4,4 -4,-184 1929.07,-184 1929.07,4 -4,4"/>
<!-- :app:androidApp -->
<g id="node1" class="node">
<title>:app:androidApp</title>
<ellipse fill="none" stroke="black" cx="621.89" cy="-162" rx="87.18" ry="18"/>
<text text-anchor="middle" x="621.89" y="-158.3" font-family="Times,serif" font-size="14.00">:app:androidApp</text>
</g>
<!-- :app:shared -->
<g id="node2" class="node">
<title>:app:shared</title>
<ellipse fill="none" stroke="black" cx="814.89" cy="-90" rx="65.79" ry="18"/>
<text text-anchor="middle" x="814.89" y="-86.3" font-family="Times,serif" font-size="14.00">:app:shared</text>
</g>
<!-- :app:androidApp&#45;&gt;:app:shared -->
<g id="edge1" class="edge">
<title>:app:androidApp&#45;&gt;:app:shared</title>
<path fill="none" stroke="black" d="M663.29,-145.98C693.81,-134.92 735.38,-119.84 767.27,-108.27"/>
<polygon fill="black" stroke="black" points="768.62,-111.5 776.83,-104.8 766.24,-104.92 768.62,-111.5"/>
</g>
<!-- :feature:lmu&#45;connection -->
<g id="node4" class="node">
<title>:feature:lmu&#45;connection</title>
<ellipse fill="none" stroke="black" cx="120.89" cy="-18" rx="120.78" ry="18"/>
<text text-anchor="middle" x="120.89" y="-14.3" font-family="Times,serif" font-size="14.00">:feature:lmu&#45;connection</text>
</g>
<!-- :app:shared&#45;&gt;:feature:lmu&#45;connection -->
<g id="edge3" class="edge">
<title>:app:shared&#45;&gt;:feature:lmu&#45;connection</title>
<path fill="none" stroke="black" d="M753.06,-83.93C649.19,-75.25 433.16,-56.48 250.89,-36 239.87,-34.76 228.33,-33.38 216.88,-31.95"/>
<polygon fill="black" stroke="black" points="217.21,-28.47 206.85,-30.69 216.33,-35.41 217.21,-28.47"/>
</g>
<!-- :feature:narrator -->
<g id="node5" class="node">
<title>:feature:narrator</title>
<ellipse fill="none" stroke="black" cx="348.89" cy="-18" rx="89.08" ry="18"/>
<text text-anchor="middle" x="348.89" y="-14.3" font-family="Times,serif" font-size="14.00">:feature:narrator</text>
</g>
<!-- :app:shared&#45;&gt;:feature:narrator -->
<g id="edge4" class="edge">
<title>:app:shared&#45;&gt;:feature:narrator</title>
<path fill="none" stroke="black" d="M757.44,-81.25C684.97,-71.35 556.54,-53.4 446.89,-36 439.27,-34.79 431.34,-33.49 423.42,-32.16"/>
<polygon fill="black" stroke="black" points="423.87,-28.68 413.42,-30.47 422.7,-35.59 423.87,-28.68"/>
</g>
<!-- :feature:other -->
<g id="node6" class="node">
<title>:feature:other</title>
<ellipse fill="none" stroke="black" cx="530.89" cy="-18" rx="75.29" ry="18"/>
<text text-anchor="middle" x="530.89" y="-14.3" font-family="Times,serif" font-size="14.00">:feature:other</text>
</g>
<!-- :app:shared&#45;&gt;:feature:other -->
<g id="edge5" class="edge">
<title>:app:shared&#45;&gt;:feature:other</title>
<path fill="none" stroke="black" d="M767.67,-77.36C719.37,-65.46 644.13,-46.91 591.46,-33.93"/>
<polygon fill="black" stroke="black" points="592.12,-30.49 581.57,-31.49 590.45,-37.28 592.12,-30.49"/>
</g>
<!-- :feature:other&#45;list -->
<g id="node7" class="node">
<title>:feature:other&#45;list</title>
<ellipse fill="none" stroke="black" cx="716.89" cy="-18" rx="92.88" ry="18"/>
<text text-anchor="middle" x="716.89" y="-14.3" font-family="Times,serif" font-size="14.00">:feature:other&#45;list</text>
</g>
<!-- :app:shared&#45;&gt;:feature:other&#45;list -->
<g id="edge6" class="edge">
<title>:app:shared&#45;&gt;:feature:other&#45;list</title>
<path fill="none" stroke="black" d="M792.16,-72.76C779.24,-63.53 762.85,-51.83 748.67,-41.7"/>
<polygon fill="black" stroke="black" points="750.35,-38.6 740.18,-35.63 746.28,-44.29 750.35,-38.6"/>
</g>
<!-- :feature:readout -->
<g id="node8" class="node">
<title>:feature:readout</title>
<ellipse fill="none" stroke="black" cx="913.89" cy="-18" rx="86.38" ry="18"/>
<text text-anchor="middle" x="913.89" y="-14.3" font-family="Times,serif" font-size="14.00">:feature:readout</text>
</g>
<!-- :app:shared&#45;&gt;:feature:readout -->
<g id="edge7" class="edge">
<title>:app:shared&#45;&gt;:feature:readout</title>
<path fill="none" stroke="black" d="M837.85,-72.76C851.12,-63.38 868.01,-51.44 882.5,-41.19"/>
<polygon fill="black" stroke="black" points="884.56,-44.02 890.71,-35.39 880.52,-38.31 884.56,-44.02"/>
</g>
<!-- :feature:readout&#45;vehicle&#45;approach -->
<g id="node9" class="node">
<title>:feature:readout&#45;vehicle&#45;approach</title>
<ellipse fill="none" stroke="black" cx="1185.89" cy="-18" rx="167.87" ry="18"/>
<text text-anchor="middle" x="1185.89" y="-14.3" font-family="Times,serif" font-size="14.00">:feature:readout&#45;vehicle&#45;approach</text>
</g>
<!-- :app:shared&#45;&gt;:feature:readout&#45;vehicle&#45;approach -->
<g id="edge8" class="edge">
<title>:app:shared&#45;&gt;:feature:readout&#45;vehicle&#45;approach</title>
<path fill="none" stroke="black" d="M867.26,-79.12C926.87,-67.87 1025.26,-49.31 1096.96,-35.78"/>
<polygon fill="black" stroke="black" points="1097.71,-39.2 1106.89,-33.91 1096.41,-32.32 1097.71,-39.2"/>
</g>
<!-- :feature:readout&#45;flag -->
<g id="node10" class="node">
<title>:feature:readout&#45;flag</title>
<ellipse fill="none" stroke="black" cx="1477.89" cy="-18" rx="106.68" ry="18"/>
<text text-anchor="middle" x="1477.89" y="-14.3" font-family="Times,serif" font-size="14.00">:feature:readout&#45;flag</text>
</g>
<!-- :app:shared&#45;&gt;:feature:readout&#45;flag -->
<g id="edge9" class="edge">
<title>:app:shared&#45;&gt;:feature:readout&#45;flag</title>
<path fill="none" stroke="black" d="M877.05,-84.01C978.78,-75.62 1187.13,-57.48 1362.89,-36 1372.33,-34.85 1382.19,-33.54 1392,-32.18"/>
<polygon fill="black" stroke="black" points="1392.77,-35.61 1402.18,-30.74 1391.79,-28.67 1392.77,-35.61"/>
</g>
<!-- :feature:readout&#45;vehicle&#45;damage -->
<g id="node11" class="node">
<title>:feature:readout&#45;vehicle&#45;damage</title>
<ellipse fill="none" stroke="black" cx="1763.89" cy="-18" rx="161.37" ry="18"/>
<text text-anchor="middle" x="1763.89" y="-14.3" font-family="Times,serif" font-size="14.00">:feature:readout&#45;vehicle&#45;damage</text>
</g>
<!-- :app:shared&#45;&gt;:feature:readout&#45;vehicle&#45;damage -->
<g id="edge10" class="edge">
<title>:app:shared&#45;&gt;:feature:readout&#45;vehicle&#45;damage</title>
<path fill="none" stroke="black" d="M878.56,-85.35C1011.54,-77.59 1328.46,-58.3 1593.89,-36 1608.92,-34.74 1624.69,-33.31 1640.31,-31.82"/>
<polygon fill="black" stroke="black" points="1640.92,-35.28 1650.54,-30.84 1640.26,-28.31 1640.92,-35.28"/>
</g>
<!-- :app:desktopApp -->
<g id="node3" class="node">
<title>:app:desktopApp</title>
<ellipse fill="none" stroke="black" cx="814.89" cy="-162" rx="88.28" ry="18"/>
<text text-anchor="middle" x="814.89" y="-158.3" font-family="Times,serif" font-size="14.00">:app:desktopApp</text>
</g>
<!-- :app:desktopApp&#45;&gt;:app:shared -->
<g id="edge2" class="edge">
<title>:app:desktopApp&#45;&gt;:app:shared</title>
<path fill="none" stroke="black" d="M814.89,-143.7C814.89,-135.98 814.89,-126.71 814.89,-118.11"/>
<polygon fill="black" stroke="black" points="818.39,-118.1 814.89,-108.1 811.39,-118.1 818.39,-118.1"/>
</g>
<!-- :app:webApp -->
<g id="node12" class="node">
<title>:app:webApp</title>
<ellipse fill="none" stroke="black" cx="991.89" cy="-162" rx="70.69" ry="18"/>
<text text-anchor="middle" x="991.89" y="-158.3" font-family="Times,serif" font-size="14.00">:app:webApp</text>
</g>
<!-- :app:webApp&#45;&gt;:app:shared -->
<g id="edge11" class="edge">
<title>:app:webApp&#45;&gt;:app:shared</title>
<path fill="none" stroke="black" d="M955.21,-146.5C927.65,-135.59 889.73,-120.6 860.25,-108.94"/>
<polygon fill="black" stroke="black" points="861.2,-105.55 850.61,-105.13 858.62,-112.06 861.2,-105.55"/>
</g>
</g>
</svg>
