<?xml version="1.0" encoding="UTF-8" standalone="no"?>
<!DOCTYPE svg PUBLIC "-//W3C//DTD SVG 1.1//EN"
 "http://www.w3.org/Graphics/SVG/1.1/DTD/svg11.dtd">
<!-- Generated by graphviz version 2.43.0 (0)
 -->
<!-- Title: G Pages: 1 -->
<svg width="1389pt" height="188pt"
 viewBox="0.00 0.00 1389.48 188.00" xmlns="http://www.w3.org/2000/svg" xmlns:xlink="http://www.w3.org/1999/xlink">
<g id="graph0" class="graph" transform="scale(1 1) rotate(0) translate(4 184)">
<title>G</title>
<polygon fill="white" stroke="transparent" points="-4,4 -4,-184 1385.48,-184 1385.48,4 -4,4"/>
<!-- :app:androidApp -->
<g id="node1" class="node">
<title>:app:androidApp</title>
<ellipse fill="none" stroke="black" cx="427.89" cy="-162" rx="87.18" ry="18"/>
<text text-anchor="middle" x="427.89" y="-158.3" font-family="Times,serif" font-size="14.00">:app:androidApp</text>
</g>
<!-- :app:shared -->
<g id="node2" class="node">
<title>:app:shared</title>
<ellipse fill="none" stroke="black" cx="620.89" cy="-90" rx="65.79" ry="18"/>
<text text-anchor="middle" x="620.89" y="-86.3" font-family="Times,serif" font-size="14.00">:app:shared</text>
</g>
<!-- :app:androidApp&#45;&gt;:app:shared -->
<g id="edge1" class="edge">
<title>:app:androidApp&#45;&gt;:app:shared</title>
<path fill="none" stroke="black" d="M469.29,-145.98C499.81,-134.92 541.38,-119.84 573.27,-108.27"/>
<polygon fill="black" stroke="black" points="574.62,-111.5 582.83,-104.8 572.24,-104.92 574.62,-111.5"/>
</g>
<!-- :feature:lmu&#45;connection -->
<g id="node4" class="node">
<title>:feature:lmu&#45;connection</title>
<ellipse fill="none" stroke="black" cx="120.89" cy="-18" rx="120.78" ry="18"/>
<text text-anchor="middle" x="120.89" y="-14.3" font-family="Times,serif" font-size="14.00">:feature:lmu&#45;connection</text>
</g>
<!-- :app:shared&#45;&gt;:feature:lmu&#45;connection -->
<g id="edge3" class="edge">
<title>:app:shared&#45;&gt;:feature:lmu&#45;connection</title>
<path fill="none" stroke="black" d="M563.53,-80.97C478.63,-69.08 318.52,-46.67 215.92,-32.3"/>
<polygon fill="black" stroke="black" points="216.26,-28.82 205.87,-30.9 215.28,-35.75 216.26,-28.82"/>
</g>
<!-- :feature:narrator -->
<g id="node5" class="node">
<title>:feature:narrator</title>
<ellipse fill="none" stroke="black" cx="348.89" cy="-18" rx="89.08" ry="18"/>
<text text-anchor="middle" x="348.89" y="-14.3" font-family="Times,serif" font-size="14.00">:feature:narrator</text>
</g>
<!-- :app:shared&#45;&gt;:feature:narrator -->
<g id="edge4" class="edge">
<title>:app:shared&#45;&gt;:feature:narrator</title>
<path fill="none" stroke="black" d="M574.75,-77.13C529.85,-65.57 461.29,-47.93 411.49,-35.11"/>
<polygon fill="black" stroke="black" points="412.34,-31.72 401.79,-32.61 410.6,-38.5 412.34,-31.72"/>
</g>
<!-- :feature:other -->
<g id="node6" class="node">
<title>:feature:other</title>
<ellipse fill="none" stroke="black" cx="530.89" cy="-18" rx="75.29" ry="18"/>
<text text-anchor="middle" x="530.89" y="-14.3" font-family="Times,serif" font-size="14.00">:feature:other</text>
</g>
<!-- :app:shared&#45;&gt;:feature:other -->
<g id="edge5" class="edge">
<title>:app:shared&#45;&gt;:feature:other</title>
<path fill="none" stroke="black" d="M600.02,-72.76C588.17,-63.55 573.17,-51.88 560.16,-41.77"/>
<polygon fill="black" stroke="black" points="562,-38.77 551.96,-35.39 557.71,-44.29 562,-38.77"/>
</g>
<!-- :feature:readout -->
<g id="node7" class="node">
<title>:feature:readout</title>
<ellipse fill="none" stroke="black" cx="710.89" cy="-18" rx="86.38" ry="18"/>
<text text-anchor="middle" x="710.89" y="-14.3" font-family="Times,serif" font-size="14.00">:feature:readout</text>
</g>
<!-- :app:shared&#45;&gt;:feature:readout -->
<g id="edge6" class="edge">
<title>:app:shared&#45;&gt;:feature:readout</title>
<path fill="none" stroke="black" d="M641.76,-72.76C653.52,-63.62 668.4,-52.05 681.33,-41.99"/>
<polygon fill="black" stroke="black" points="683.76,-44.54 689.5,-35.63 679.46,-39.01 683.76,-44.54"/>
</g>
<!-- :feature:readout&#45;vehicle&#45;approach -->
<g id="node8" class="node">
<title>:feature:readout&#45;vehicle&#45;approach</title>
<ellipse fill="none" stroke="black" cx="982.89" cy="-18" rx="167.87" ry="18"/>
<text text-anchor="middle" x="982.89" y="-14.3" font-family="Times,serif" font-size="14.00">:feature:readout&#45;vehicle&#45;approach</text>
</g>
<!-- :app:shared&#45;&gt;:feature:readout&#45;vehicle&#45;approach -->
<g id="edge7" class="edge">
<title>:app:shared&#45;&gt;:feature:readout&#45;vehicle&#45;approach</title>
<path fill="none" stroke="black" d="M673.14,-78.9C731.18,-67.67 825.84,-49.37 895.26,-35.94"/>
<polygon fill="black" stroke="black" points="896.16,-39.34 905.31,-34 894.83,-32.46 896.16,-39.34"/>
</g>
<!-- :feature:readout&#45;flag -->
<g id="node9" class="node">
<title>:feature:readout&#45;flag</title>
<ellipse fill="none" stroke="black" cx="1274.89" cy="-18" rx="106.68" ry="18"/>
<text text-anchor="middle" x="1274.89" y="-14.3" font-family="Times,serif" font-size="14.00">:feature:readout&#45;flag</text>
</g>
<!-- :app:shared&#45;&gt;:feature:readout&#45;flag -->
<g id="edge8" class="edge">
<title>:app:shared&#45;&gt;:feature:readout&#45;flag</title>
<path fill="none" stroke="black" d="M682.84,-83.9C783.19,-75.41 987.47,-57.21 1159.89,-36 1169.33,-34.84 1179.19,-33.53 1189,-32.16"/>
<polygon fill="black" stroke="black" points="1189.77,-35.59 1199.18,-30.73 1188.79,-28.66 1189.77,-35.59"/>
</g>
<!-- :app:desktopApp -->
<g id="node3" class="node">
<title>:app:desktopApp</title>
<ellipse fill="none" stroke="black" cx="620.89" cy="-162" rx="88.28" ry="18"/>
<text text-anchor="middle" x="620.89" y="-158.3" font-family="Times,serif" font-size="14.00">:app:desktopApp</text>
</g>
<!-- :app:desktopApp&#45;&gt;:app:shared -->
<g id="edge2" class="edge">
<title>:app:desktopApp&#45;&gt;:app:shared</title>
<path fill="none" stroke="black" d="M620.89,-143.7C620.89,-135.98 620.89,-126.71 620.89,-118.11"/>
<polygon fill="black" stroke="black" points="624.39,-118.1 620.89,-108.1 617.39,-118.1 624.39,-118.1"/>
</g>
<!-- :app:webApp -->
<g id="node10" class="node">
<title>:app:webApp</title>
<ellipse fill="none" stroke="black" cx="797.89" cy="-162" rx="70.69" ry="18"/>
<text text-anchor="middle" x="797.89" y="-158.3" font-family="Times,serif" font-size="14.00">:app:webApp</text>
</g>
<!-- :app:webApp&#45;&gt;:app:shared -->
<g id="edge9" class="edge">
<title>:app:webApp&#45;&gt;:app:shared</title>
<path fill="none" stroke="black" d="M761.21,-146.5C733.65,-135.59 695.73,-120.6 666.25,-108.94"/>
<polygon fill="black" stroke="black" points="667.2,-105.55 656.61,-105.13 664.62,-112.06 667.2,-105.55"/>
</g>
</g>
</svg>
