<?xml version="1.0" encoding="UTF-8" standalone="no"?>
<!DOCTYPE svg PUBLIC "-//W3C//DTD SVG 1.1//EN"
 "http://www.w3.org/Graphics/SVG/1.1/DTD/svg11.dtd">
<!-- Generated by graphviz version 2.43.0 (0)
 -->
<!-- Title: G Pages: 1 -->
<svg width="3340pt" height="188pt"
 viewBox="0.00 0.00 3340.12 188.00" xmlns="http://www.w3.org/2000/svg" xmlns:xlink="http://www.w3.org/1999/xlink">
<g id="graph0" class="graph" transform="scale(1 1) rotate(0) translate(4 184)">
<title>G</title>
<polygon fill="white" stroke="transparent" points="-4,4 -4,-184 3336.12,-184 3336.12,4 -4,4"/>
<!-- :app:androidApp -->
<g id="node1" class="node">
<title>:app:androidApp</title>
<ellipse fill="none" stroke="black" cx="1239.89" cy="-162" rx="87.18" ry="18"/>
<text text-anchor="middle" x="1239.89" y="-158.3" font-family="Times,serif" font-size="14.00">:app:androidApp</text>
</g>
<!-- :app:shared -->
<g id="node2" class="node">
<title>:app:shared</title>
<ellipse fill="none" stroke="black" cx="1432.89" cy="-90" rx="65.79" ry="18"/>
<text text-anchor="middle" x="1432.89" y="-86.3" font-family="Times,serif" font-size="14.00">:app:shared</text>
</g>
<!-- :app:androidApp&#45;&gt;:app:shared -->
<g id="edge1" class="edge">
<title>:app:androidApp&#45;&gt;:app:shared</title>
<path fill="none" stroke="black" d="M1281.29,-145.98C1311.81,-134.92 1353.38,-119.84 1385.27,-108.27"/>
<polygon fill="black" stroke="black" points="1386.62,-111.5 1394.83,-104.8 1384.24,-104.92 1386.62,-111.5"/>
</g>
<!-- :feature:lmu&#45;connection -->
<g id="node4" class="node">
<title>:feature:lmu&#45;connection</title>
<ellipse fill="none" stroke="black" cx="120.89" cy="-18" rx="120.78" ry="18"/>
<text text-anchor="middle" x="120.89" y="-14.3" font-family="Times,serif" font-size="14.00">:feature:lmu&#45;connection</text>
</g>
<!-- :app:shared&#45;&gt;:feature:lmu&#45;connection -->
<g id="edge3" class="edge">
<title>:app:shared&#45;&gt;:feature:lmu&#45;connection</title>
<path fill="none" stroke="black" d="M1367.41,-88.02C1188.33,-84.92 675.5,-73.21 250.89,-36 239.2,-34.98 226.94,-33.67 214.82,-32.25"/>
<polygon fill="black" stroke="black" points="215.04,-28.75 204.69,-31.03 214.2,-35.7 215.04,-28.75"/>
</g>
<!-- :feature:server&#45;connection -->
<g id="node5" class="node">
<title>:feature:server&#45;connection</title>
<ellipse fill="none" stroke="black" cx="392.89" cy="-18" rx="133.48" ry="18"/>
<text text-anchor="middle" x="392.89" y="-14.3" font-family="Times,serif" font-size="14.00">:feature:server&#45;connection</text>
</g>
<!-- :app:shared&#45;&gt;:feature:server&#45;connection -->
<g id="edge4" class="edge">
<title>:app:shared&#45;&gt;:feature:server&#45;connection</title>
<path fill="none" stroke="black" d="M1368.27,-86.52C1220.5,-80.56 846.58,-63.83 534.89,-36 522.28,-34.87 509.05,-33.52 495.96,-32.08"/>
<polygon fill="black" stroke="black" points="496.32,-28.6 485.99,-30.96 495.54,-35.55 496.32,-28.6"/>
</g>
<!-- :feature:lmu&#45;narrator -->
<g id="node6" class="node">
<title>:feature:lmu&#45;narrator</title>
<ellipse fill="none" stroke="black" cx="653.89" cy="-18" rx="109.68" ry="18"/>
<text text-anchor="middle" x="653.89" y="-14.3" font-family="Times,serif" font-size="14.00">:feature:lmu&#45;narrator</text>
</g>
<!-- :app:shared&#45;&gt;:feature:lmu&#45;narrator -->
<g id="edge5" class="edge">
<title>:app:shared&#45;&gt;:feature:lmu&#45;narrator</title>
<path fill="none" stroke="black" d="M1369.51,-85.22C1251.77,-77.9 991.38,-60.36 772.89,-36 762.75,-34.87 752.15,-33.55 741.62,-32.16"/>
<polygon fill="black" stroke="black" points="741.95,-28.67 731.58,-30.8 741.02,-35.61 741.95,-28.67"/>
</g>
<!-- :feature:other&#45;license&#45;detail -->
<g id="node7" class="node">
<title>:feature:other&#45;license&#45;detail</title>
<ellipse fill="none" stroke="black" cx="921.89" cy="-18" rx="139.98" ry="18"/>
<text text-anchor="middle" x="921.89" y="-14.3" font-family="Times,serif" font-size="14.00">:feature:other&#45;license&#45;detail</text>
</g>
<!-- :app:shared&#45;&gt;:feature:other&#45;license&#45;detail -->
<g id="edge6" class="edge">
<title>:app:shared&#45;&gt;:feature:other&#45;license&#45;detail</title>
<path fill="none" stroke="black" d="M1375.26,-81.11C1290.05,-69.43 1129.18,-47.4 1023.77,-32.96"/>
<polygon fill="black" stroke="black" points="1024.13,-29.47 1013.75,-31.58 1023.18,-36.41 1024.13,-29.47"/>
</g>
<!-- :feature:other&#45;list -->
<g id="node8" class="node">
<title>:feature:other&#45;list</title>
<ellipse fill="none" stroke="black" cx="1172.89" cy="-18" rx="92.88" ry="18"/>
<text text-anchor="middle" x="1172.89" y="-14.3" font-family="Times,serif" font-size="14.00">:feature:other&#45;list</text>
</g>
<!-- :app:shared&#45;&gt;:feature:other&#45;list -->
<g id="edge7" class="edge">
<title>:app:shared&#45;&gt;:feature:other&#45;list</title>
<path fill="none" stroke="black" d="M1387.9,-76.89C1345.56,-65.49 1281.81,-48.32 1234.71,-35.64"/>
<polygon fill="black" stroke="black" points="1235.49,-32.23 1224.92,-33.01 1233.67,-38.99 1235.49,-32.23"/>
</g>
<!-- :feature:other&#45;server&#45;ip&#45;detail -->
<g id="node9" class="node">
<title>:feature:other&#45;server&#45;ip&#45;detail</title>
<ellipse fill="none" stroke="black" cx="1432.89" cy="-18" rx="148.67" ry="18"/>
<text text-anchor="middle" x="1432.89" y="-14.3" font-family="Times,serif" font-size="14.00">:feature:other&#45;server&#45;ip&#45;detail</text>
</g>
<!-- :app:shared&#45;&gt;:feature:other&#45;server&#45;ip&#45;detail -->
<g id="edge8" class="edge">
<title>:app:shared&#45;&gt;:feature:other&#45;server&#45;ip&#45;detail</title>
<path fill="none" stroke="black" d="M1432.89,-71.7C1432.89,-63.98 1432.89,-54.71 1432.89,-46.11"/>
<polygon fill="black" stroke="black" points="1436.39,-46.1 1432.89,-36.1 1429.39,-46.1 1436.39,-46.1"/>
</g>
<!-- :feature:other&#45;volume&#45;detail -->
<g id="node10" class="node">
<title>:feature:other&#45;volume&#45;detail</title>
<ellipse fill="none" stroke="black" cx="1740.89" cy="-18" rx="141.07" ry="18"/>
<text text-anchor="middle" x="1740.89" y="-14.3" font-family="Times,serif" font-size="14.00">:feature:other&#45;volume&#45;detail</text>
</g>
<!-- :app:shared&#45;&gt;:feature:other&#45;volume&#45;detail -->
<g id="edge9" class="edge">
<title>:app:shared&#45;&gt;:feature:other&#45;volume&#45;detail</title>
<path fill="none" stroke="black" d="M1481.69,-77.91C1530.98,-66.71 1607.8,-49.25 1665.03,-36.24"/>
<polygon fill="black" stroke="black" points="1666.14,-39.58 1675.12,-33.95 1664.59,-32.75 1666.14,-39.58"/>
</g>
<!-- :feature:readout&#45;list -->
<g id="node11" class="node">
<title>:feature:readout&#45;list</title>
<ellipse fill="none" stroke="black" cx="2003.89" cy="-18" rx="103.98" ry="18"/>
<text text-anchor="middle" x="2003.89" y="-14.3" font-family="Times,serif" font-size="14.00">:feature:readout&#45;list</text>
</g>
<!-- :app:shared&#45;&gt;:feature:readout&#45;list -->
<g id="edge10" class="edge">
<title>:app:shared&#45;&gt;:feature:readout&#45;list</title>
<path fill="none" stroke="black" d="M1492.99,-82.71C1580.6,-73.38 1748.46,-54.95 1890.89,-36 1900.08,-34.78 1909.69,-33.43 1919.25,-32.05"/>
<polygon fill="black" stroke="black" points="1919.79,-35.51 1929.18,-30.61 1918.78,-28.59 1919.79,-35.51"/>
</g>
<!-- :feature:lmu&#45;readout&#45;vehicle&#45;approach&#45;detail -->
<g id="node12" class="node">
<title>:feature:lmu&#45;readout&#45;vehicle&#45;approach&#45;detail</title>
<ellipse fill="none" stroke="black" cx="2343.89" cy="-18" rx="217.96" ry="18"/>
<text text-anchor="middle" x="2343.89" y="-14.3" font-family="Times,serif" font-size="14.00">:feature:lmu&#45;readout&#45;vehicle&#45;approach&#45;detail</text>
</g>
<!-- :app:shared&#45;&gt;:feature:lmu&#45;readout&#45;vehicle&#45;approach&#45;detail -->
<g id="edge11" class="edge">
<title>:app:shared&#45;&gt;:feature:lmu&#45;readout&#45;vehicle&#45;approach&#45;detail</title>
<path fill="none" stroke="black" d="M1495.15,-84.22C1634.43,-73.51 1975.01,-47.34 2179.89,-31.6"/>
<polygon fill="black" stroke="black" points="2180.45,-35.07 2190.15,-30.81 2179.91,-28.09 2180.45,-35.07"/>
</g>
<!-- :feature:lmu&#45;readout&#45;flag&#45;detail -->
<g id="node13" class="node">
<title>:feature:lmu&#45;readout&#45;flag&#45;detail</title>
<ellipse fill="none" stroke="black" cx="2735.89" cy="-18" rx="155.97" ry="18"/>
<text text-anchor="middle" x="2735.89" y="-14.3" font-family="Times,serif" font-size="14.00">:feature:lmu&#45;readout&#45;flag&#45;detail</text>
</g>
<!-- :app:shared&#45;&gt;:feature:lmu&#45;readout&#45;flag&#45;detail -->
<g id="edge12" class="edge">
<title>:app:shared&#45;&gt;:feature:lmu&#45;readout&#45;flag&#45;detail</title>
<path fill="none" stroke="black" d="M1498.08,-87.25C1672.33,-82.28 2163.36,-66.46 2570.89,-36 2585.97,-34.87 2601.8,-33.49 2617.44,-32.01"/>
<polygon fill="black" stroke="black" points="2618.07,-35.47 2627.69,-31.03 2617.4,-28.5 2618.07,-35.47"/>
</g>
<!-- :feature:lmu&#45;readout&#45;vehicle&#45;damage&#45;detail -->
<g id="node14" class="node">
<title>:feature:lmu&#45;readout&#45;vehicle&#45;damage&#45;detail</title>
<ellipse fill="none" stroke="black" cx="3120.89" cy="-18" rx="211.46" ry="18"/>
<text text-anchor="middle" x="3120.89" y="-14.3" font-family="Times,serif" font-size="14.00">:feature:lmu&#45;readout&#45;vehicle&#45;damage&#45;detail</text>
</g>
<!-- :app:shared&#45;&gt;:feature:lmu&#45;readout&#45;vehicle&#45;damage&#45;detail -->
<g id="edge13" class="edge">
<title>:app:shared&#45;&gt;:feature:lmu&#45;readout&#45;vehicle&#45;damage&#45;detail</title>
<path fill="none" stroke="black" d="M1498.05,-87.6C1703.98,-82.98 2359.19,-66.7 2900.89,-36 2921.69,-34.82 2943.58,-33.38 2965.16,-31.83"/>
<polygon fill="black" stroke="black" points="2965.67,-35.3 2975.39,-31.09 2965.16,-28.32 2965.67,-35.3"/>
</g>
<!-- :app:desktopApp -->
<g id="node3" class="node">
<title>:app:desktopApp</title>
<ellipse fill="none" stroke="black" cx="1432.89" cy="-162" rx="88.28" ry="18"/>
<text text-anchor="middle" x="1432.89" y="-158.3" font-family="Times,serif" font-size="14.00">:app:desktopApp</text>
</g>
<!-- :app:desktopApp&#45;&gt;:app:shared -->
<g id="edge2" class="edge">
<title>:app:desktopApp&#45;&gt;:app:shared</title>
<path fill="none" stroke="black" d="M1432.89,-143.7C1432.89,-135.98 1432.89,-126.71 1432.89,-118.11"/>
<polygon fill="black" stroke="black" points="1436.39,-118.1 1432.89,-108.1 1429.39,-118.1 1436.39,-118.1"/>
</g>
<!-- :app:webApp -->
<g id="node15" class="node">
<title>:app:webApp</title>
<ellipse fill="none" stroke="black" cx="1609.89" cy="-162" rx="70.69" ry="18"/>
<text text-anchor="middle" x="1609.89" y="-158.3" font-family="Times,serif" font-size="14.00">:app:webApp</text>
</g>
<!-- :app:webApp&#45;&gt;:app:shared -->
<g id="edge14" class="edge">
<title>:app:webApp&#45;&gt;:app:shared</title>
<path fill="none" stroke="black" d="M1573.21,-146.5C1545.65,-135.59 1507.73,-120.6 1478.25,-108.94"/>
<polygon fill="black" stroke="black" points="1479.2,-105.55 1468.61,-105.13 1476.62,-112.06 1479.2,-105.55"/>
</g>
</g>
</svg>
