<?xml version="1.0" encoding="UTF-8" standalone="no"?>
<!DOCTYPE svg PUBLIC "-//W3C//DTD SVG 1.1//EN"
 "http://www.w3.org/Graphics/SVG/1.1/DTD/svg11.dtd">
<!-- Generated by graphviz version 2.43.0 (0)
 -->
<!-- Title: G Pages: 1 -->
<svg width="636pt" height="116pt"
 viewBox="0.00 0.00 636.19 116.00" xmlns="http://www.w3.org/2000/svg" xmlns:xlink="http://www.w3.org/1999/xlink">
<g id="graph0" class="graph" transform="scale(1 1) rotate(0) translate(4 112)">
<title>G</title>
<polygon fill="white" stroke="transparent" points="-4,4 -4,-112 632.19,-112 632.19,4 -4,4"/>
<!-- :app:desktopApp -->
<g id="node1" class="node">
<title>:app:desktopApp</title>
<ellipse fill="none" stroke="black" cx="304.64" cy="-90" rx="88.28" ry="18"/>
<text text-anchor="middle" x="304.64" y="-86.3" font-family="Times,serif" font-size="14.00">:app:desktopApp</text>
</g>
<!-- :app:shared -->
<g id="node2" class="node">
<title>:app:shared</title>
<ellipse fill="none" stroke="black" cx="65.64" cy="-18" rx="65.79" ry="18"/>
<text text-anchor="middle" x="65.64" y="-14.3" font-family="Times,serif" font-size="14.00">:app:shared</text>
</g>
<!-- :app:desktopApp&#45;&gt;:app:shared -->
<g id="edge1" class="edge">
<title>:app:desktopApp&#45;&gt;:app:shared</title>
<path fill="none" stroke="black" d="M256.28,-74.83C216.33,-63.14 159.72,-46.55 118.57,-34.5"/>
<polygon fill="black" stroke="black" points="119.3,-31.07 108.72,-31.62 117.34,-37.79 119.3,-31.07"/>
</g>
<!-- :core:data -->
<g id="node3" class="node">
<title>:core:data</title>
<ellipse fill="none" stroke="black" cx="206.64" cy="-18" rx="57.39" ry="18"/>
<text text-anchor="middle" x="206.64" y="-14.3" font-family="Times,serif" font-size="14.00">:core:data</text>
</g>
<!-- :app:desktopApp&#45;&gt;:core:data -->
<g id="edge2" class="edge">
<title>:app:desktopApp&#45;&gt;:core:data</title>
<path fill="none" stroke="black" d="M281.42,-72.41C268.2,-62.97 251.48,-51.03 237.21,-40.83"/>
<polygon fill="black" stroke="black" points="238.86,-37.71 228.69,-34.75 234.8,-43.41 238.86,-37.71"/>
</g>
<!-- :core:lmu&#45;windows&#45;data -->
<g id="node4" class="node">
<title>:core:lmu&#45;windows&#45;data</title>
<ellipse fill="none" stroke="black" cx="402.64" cy="-18" rx="120.78" ry="18"/>
<text text-anchor="middle" x="402.64" y="-14.3" font-family="Times,serif" font-size="14.00">:core:lmu&#45;windows&#45;data</text>
</g>
<!-- :app:desktopApp&#45;&gt;:core:lmu&#45;windows&#45;data -->
<g id="edge3" class="edge">
<title>:app:desktopApp&#45;&gt;:core:lmu&#45;windows&#45;data</title>
<path fill="none" stroke="black" d="M327.87,-72.41C340.71,-63.24 356.86,-51.7 370.86,-41.71"/>
<polygon fill="black" stroke="black" points="373.14,-44.37 379.25,-35.71 369.07,-38.68 373.14,-44.37"/>
</g>
<!-- :server -->
<g id="node5" class="node">
<title>:server</title>
<ellipse fill="none" stroke="black" cx="584.64" cy="-18" rx="43.59" ry="18"/>
<text text-anchor="middle" x="584.64" y="-14.3" font-family="Times,serif" font-size="14.00">:server</text>
</g>
<!-- :app:desktopApp&#45;&gt;:server -->
<g id="edge4" class="edge">
<title>:app:desktopApp&#45;&gt;:server</title>
<path fill="none" stroke="black" d="M364.53,-76.58C410.73,-66.64 476.08,-51.79 532.64,-36 535.8,-35.12 539.05,-34.17 542.31,-33.18"/>
<polygon fill="black" stroke="black" points="543.54,-36.46 552.05,-30.14 541.46,-29.78 543.54,-36.46"/>
</g>
</g>
</svg>
