<?xml version="1.0" encoding="UTF-8" standalone="no"?>
<!DOCTYPE svg PUBLIC "-//W3C//DTD SVG 1.1//EN"
 "http://www.w3.org/Graphics/SVG/1.1/DTD/svg11.dtd">
<!-- Generated by graphviz version 2.43.0 (0)
 -->
<!-- Title: G Pages: 1 -->
<svg width="2740pt" height="188pt"
 viewBox="0.00 0.00 2740.12 188.00" xmlns="http://www.w3.org/2000/svg" xmlns:xlink="http://www.w3.org/1999/xlink">
<g id="graph0" class="graph" transform="scale(1 1) rotate(0) translate(4 184)">
<title>G</title>
<polygon fill="white" stroke="transparent" points="-4,4 -4,-184 2736.12,-184 2736.12,4 -4,4"/>
<!-- :app:androidApp -->
<g id="node1" class="node">
<title>:app:androidApp</title>
<ellipse fill="none" stroke="black" cx="947.89" cy="-162" rx="87.18" ry="18"/>
<text text-anchor="middle" x="947.89" y="-158.3" font-family="Times,serif" font-size="14.00">:app:androidApp</text>
</g>
<!-- :app:shared -->
<g id="node2" class="node">
<title>:app:shared</title>
<ellipse fill="none" stroke="black" cx="1140.89" cy="-90" rx="65.79" ry="18"/>
<text text-anchor="middle" x="1140.89" y="-86.3" font-family="Times,serif" font-size="14.00">:app:shared</text>
</g>
<!-- :app:androidApp&#45;&gt;:app:shared -->
<g id="edge1" class="edge">
<title>:app:androidApp&#45;&gt;:app:shared</title>
<path fill="none" stroke="black" d="M989.29,-145.98C1019.81,-134.92 1061.38,-119.84 1093.27,-108.27"/>
<polygon fill="black" stroke="black" points="1094.62,-111.5 1102.83,-104.8 1092.24,-104.92 1094.62,-111.5"/>
</g>
<!-- :feature:lmu&#45;connection -->
<g id="node4" class="node">
<title>:feature:lmu&#45;connection</title>
<ellipse fill="none" stroke="black" cx="120.89" cy="-18" rx="120.78" ry="18"/>
<text text-anchor="middle" x="120.89" y="-14.3" font-family="Times,serif" font-size="14.00">:feature:lmu&#45;connection</text>
</g>
<!-- :app:shared&#45;&gt;:feature:lmu&#45;connection -->
<g id="edge3" class="edge">
<title>:app:shared&#45;&gt;:feature:lmu&#45;connection</title>
<path fill="none" stroke="black" d="M1076.27,-86.72C929.4,-81.18 559.27,-65.31 250.89,-36 239.38,-34.91 227.33,-33.58 215.39,-32.15"/>
<polygon fill="black" stroke="black" points="215.76,-28.67 205.41,-30.93 214.91,-35.62 215.76,-28.67"/>
</g>
<!-- :feature:lmu&#45;narrator -->
<g id="node5" class="node">
<title>:feature:lmu&#45;narrator</title>
<ellipse fill="none" stroke="black" cx="369.89" cy="-18" rx="109.68" ry="18"/>
<text text-anchor="middle" x="369.89" y="-14.3" font-family="Times,serif" font-size="14.00">:feature:lmu&#45;narrator</text>
</g>
<!-- :app:shared&#45;&gt;:feature:lmu&#45;narrator -->
<g id="edge4" class="edge">
<title>:app:shared&#45;&gt;:feature:lmu&#45;narrator</title>
<path fill="none" stroke="black" d="M1077.37,-85.12C960.62,-77.71 704.17,-60.11 488.89,-36 478.75,-34.86 468.15,-33.54 457.62,-32.15"/>
<polygon fill="black" stroke="black" points="457.96,-28.66 447.58,-30.79 457.02,-35.6 457.96,-28.66"/>
</g>
<!-- :feature:other&#45;license&#45;detail -->
<g id="node6" class="node">
<title>:feature:other&#45;license&#45;detail</title>
<ellipse fill="none" stroke="black" cx="637.89" cy="-18" rx="139.98" ry="18"/>
<text text-anchor="middle" x="637.89" y="-14.3" font-family="Times,serif" font-size="14.00">:feature:other&#45;license&#45;detail</text>
</g>
<!-- :app:shared&#45;&gt;:feature:other&#45;license&#45;detail -->
<g id="edge5" class="edge">
<title>:app:shared&#45;&gt;:feature:other&#45;license&#45;detail</title>
<path fill="none" stroke="black" d="M1083.68,-81.04C999.95,-69.39 842.76,-47.51 739.2,-33.1"/>
<polygon fill="black" stroke="black" points="739.42,-29.6 729.03,-31.68 738.46,-36.53 739.42,-29.6"/>
</g>
<!-- :feature:other&#45;list -->
<g id="node7" class="node">
<title>:feature:other&#45;list</title>
<ellipse fill="none" stroke="black" cx="888.89" cy="-18" rx="92.88" ry="18"/>
<text text-anchor="middle" x="888.89" y="-14.3" font-family="Times,serif" font-size="14.00">:feature:other&#45;list</text>
</g>
<!-- :app:shared&#45;&gt;:feature:other&#45;list -->
<g id="edge6" class="edge">
<title>:app:shared&#45;&gt;:feature:other&#45;list</title>
<path fill="none" stroke="black" d="M1096.42,-76.65C1055.61,-65.31 994.81,-48.42 949.55,-35.85"/>
<polygon fill="black" stroke="black" points="950.43,-32.46 939.85,-33.16 948.55,-39.21 950.43,-32.46"/>
</g>
<!-- :feature:other&#45;volume&#45;detail -->
<g id="node8" class="node">
<title>:feature:other&#45;volume&#45;detail</title>
<ellipse fill="none" stroke="black" cx="1140.89" cy="-18" rx="141.07" ry="18"/>
<text text-anchor="middle" x="1140.89" y="-14.3" font-family="Times,serif" font-size="14.00">:feature:other&#45;volume&#45;detail</text>
</g>
<!-- :app:shared&#45;&gt;:feature:other&#45;volume&#45;detail -->
<g id="edge7" class="edge">
<title>:app:shared&#45;&gt;:feature:other&#45;volume&#45;detail</title>
<path fill="none" stroke="black" d="M1140.89,-71.7C1140.89,-63.98 1140.89,-54.71 1140.89,-46.11"/>
<polygon fill="black" stroke="black" points="1144.39,-46.1 1140.89,-36.1 1137.39,-46.1 1144.39,-46.1"/>
</g>
<!-- :feature:readout&#45;list -->
<g id="node9" class="node">
<title>:feature:readout&#45;list</title>
<ellipse fill="none" stroke="black" cx="1403.89" cy="-18" rx="103.98" ry="18"/>
<text text-anchor="middle" x="1403.89" y="-14.3" font-family="Times,serif" font-size="14.00">:feature:readout&#45;list</text>
</g>
<!-- :app:shared&#45;&gt;:feature:readout&#45;list -->
<g id="edge8" class="edge">
<title>:app:shared&#45;&gt;:feature:readout&#45;list</title>
<path fill="none" stroke="black" d="M1186.4,-76.89C1228.81,-65.6 1292.48,-48.65 1339.98,-36.01"/>
<polygon fill="black" stroke="black" points="1341.09,-39.34 1349.86,-33.38 1339.29,-32.57 1341.09,-39.34"/>
</g>
<!-- :feature:lmu&#45;readout&#45;vehicle&#45;approach&#45;detail -->
<g id="node10" class="node">
<title>:feature:lmu&#45;readout&#45;vehicle&#45;approach&#45;detail</title>
<ellipse fill="none" stroke="black" cx="1743.89" cy="-18" rx="217.96" ry="18"/>
<text text-anchor="middle" x="1743.89" y="-14.3" font-family="Times,serif" font-size="14.00">:feature:lmu&#45;readout&#45;vehicle&#45;approach&#45;detail</text>
</g>
<!-- :app:shared&#45;&gt;:feature:lmu&#45;readout&#45;vehicle&#45;approach&#45;detail -->
<g id="edge9" class="edge">
<title>:app:shared&#45;&gt;:feature:lmu&#45;readout&#45;vehicle&#45;approach&#45;detail</title>
<path fill="none" stroke="black" d="M1200.08,-82.13C1295.28,-71.08 1484.68,-49.09 1612.86,-34.21"/>
<polygon fill="black" stroke="black" points="1613.61,-37.65 1623.13,-33.02 1612.8,-30.69 1613.61,-37.65"/>
</g>
<!-- :feature:lmu&#45;readout&#45;flag&#45;detail -->
<g id="node11" class="node">
<title>:feature:lmu&#45;readout&#45;flag&#45;detail</title>
<ellipse fill="none" stroke="black" cx="2135.89" cy="-18" rx="155.97" ry="18"/>
<text text-anchor="middle" x="2135.89" y="-14.3" font-family="Times,serif" font-size="14.00">:feature:lmu&#45;readout&#45;flag&#45;detail</text>
</g>
<!-- :app:shared&#45;&gt;:feature:lmu&#45;readout&#45;flag&#45;detail -->
<g id="edge10" class="edge">
<title>:app:shared&#45;&gt;:feature:lmu&#45;readout&#45;flag&#45;detail</title>
<path fill="none" stroke="black" d="M1204.73,-85.77C1343.99,-78.54 1685.45,-59.81 1970.89,-36 1985.6,-34.77 2001.04,-33.36 2016.32,-31.87"/>
<polygon fill="black" stroke="black" points="2016.72,-35.35 2026.33,-30.89 2016.04,-28.38 2016.72,-35.35"/>
</g>
<!-- :feature:lmu&#45;readout&#45;vehicle&#45;damage&#45;detail -->
<g id="node12" class="node">
<title>:feature:lmu&#45;readout&#45;vehicle&#45;damage&#45;detail</title>
<ellipse fill="none" stroke="black" cx="2520.89" cy="-18" rx="211.46" ry="18"/>
<text text-anchor="middle" x="2520.89" y="-14.3" font-family="Times,serif" font-size="14.00">:feature:lmu&#45;readout&#45;vehicle&#45;damage&#45;detail</text>
</g>
<!-- :app:shared&#45;&gt;:feature:lmu&#45;readout&#45;vehicle&#45;damage&#45;detail -->
<g id="edge11" class="edge">
<title>:app:shared&#45;&gt;:feature:lmu&#45;readout&#45;vehicle&#45;damage&#45;detail</title>
<path fill="none" stroke="black" d="M1205.7,-86.75C1381.79,-80.5 1883.86,-61.63 2300.89,-36 2321.35,-34.74 2342.88,-33.27 2364.13,-31.72"/>
<polygon fill="black" stroke="black" points="2364.48,-35.2 2374.19,-30.98 2363.96,-28.22 2364.48,-35.2"/>
</g>
<!-- :app:desktopApp -->
<g id="node3" class="node">
<title>:app:desktopApp</title>
<ellipse fill="none" stroke="black" cx="1140.89" cy="-162" rx="88.28" ry="18"/>
<text text-anchor="middle" x="1140.89" y="-158.3" font-family="Times,serif" font-size="14.00">:app:desktopApp</text>
</g>
<!-- :app:desktopApp&#45;&gt;:app:shared -->
<g id="edge2" class="edge">
<title>:app:desktopApp&#45;&gt;:app:shared</title>
<path fill="none" stroke="black" d="M1140.89,-143.7C1140.89,-135.98 1140.89,-126.71 1140.89,-118.11"/>
<polygon fill="black" stroke="black" points="1144.39,-118.1 1140.89,-108.1 1137.39,-118.1 1144.39,-118.1"/>
</g>
<!-- :app:webApp -->
<g id="node13" class="node">
<title>:app:webApp</title>
<ellipse fill="none" stroke="black" cx="1317.89" cy="-162" rx="70.69" ry="18"/>
<text text-anchor="middle" x="1317.89" y="-158.3" font-family="Times,serif" font-size="14.00">:app:webApp</text>
</g>
<!-- :app:webApp&#45;&gt;:app:shared -->
<g id="edge12" class="edge">
<title>:app:webApp&#45;&gt;:app:shared</title>
<path fill="none" stroke="black" d="M1281.21,-146.5C1253.65,-135.59 1215.73,-120.6 1186.25,-108.94"/>
<polygon fill="black" stroke="black" points="1187.2,-105.55 1176.61,-105.13 1184.62,-112.06 1187.2,-105.55"/>
</g>
</g>
</svg>
