<?xml version="1.0" encoding="UTF-8" standalone="no"?>
<!DOCTYPE svg PUBLIC "-//W3C//DTD SVG 1.1//EN"
 "http://www.w3.org/Graphics/SVG/1.1/DTD/svg11.dtd">
<!-- Generated by graphviz version 2.43.0 (0)
 -->
<!-- Title: G Pages: 1 -->
<svg width="728pt" height="188pt"
 viewBox="0.00 0.00 727.78 188.00" xmlns="http://www.w3.org/2000/svg" xmlns:xlink="http://www.w3.org/1999/xlink">
<g id="graph0" class="graph" transform="scale(1 1) rotate(0) translate(4 184)">
<title>G</title>
<polygon fill="white" stroke="transparent" points="-4,4 -4,-184 723.78,-184 723.78,4 -4,4"/>
<!-- :app:androidApp -->
<g id="node1" class="node">
<title>:app:androidApp</title>
<ellipse fill="none" stroke="black" cx="87.09" cy="-162" rx="87.18" ry="18"/>
<text text-anchor="middle" x="87.09" y="-158.3" font-family="Times,serif" font-size="14.00">:app:androidApp</text>
</g>
<!-- :app:shared -->
<g id="node2" class="node">
<title>:app:shared</title>
<ellipse fill="none" stroke="black" cx="280.09" cy="-90" rx="65.79" ry="18"/>
<text text-anchor="middle" x="280.09" y="-86.3" font-family="Times,serif" font-size="14.00">:app:shared</text>
</g>
<!-- :app:androidApp&#45;&gt;:app:shared -->
<g id="edge1" class="edge">
<title>:app:androidApp&#45;&gt;:app:shared</title>
<path fill="none" stroke="black" d="M128.5,-145.98C159.01,-134.92 200.58,-119.84 232.47,-108.27"/>
<polygon fill="black" stroke="black" points="233.83,-111.5 242.03,-104.8 231.44,-104.92 233.83,-111.5"/>
</g>
<!-- :feature:other -->
<g id="node4" class="node">
<title>:feature:other</title>
<ellipse fill="none" stroke="black" cx="100.09" cy="-18" rx="75.29" ry="18"/>
<text text-anchor="middle" x="100.09" y="-14.3" font-family="Times,serif" font-size="14.00">:feature:other</text>
</g>
<!-- :app:shared&#45;&gt;:feature:other -->
<g id="edge3" class="edge">
<title>:app:shared&#45;&gt;:feature:other</title>
<path fill="none" stroke="black" d="M243.67,-74.83C215.86,-64.02 177.32,-49.03 147.17,-37.31"/>
<polygon fill="black" stroke="black" points="148.29,-33.99 137.7,-33.63 145.75,-40.51 148.29,-33.99"/>
</g>
<!-- :feature:readout -->
<g id="node5" class="node">
<title>:feature:readout</title>
<ellipse fill="none" stroke="black" cx="280.09" cy="-18" rx="86.38" ry="18"/>
<text text-anchor="middle" x="280.09" y="-14.3" font-family="Times,serif" font-size="14.00">:feature:readout</text>
</g>
<!-- :app:shared&#45;&gt;:feature:readout -->
<g id="edge4" class="edge">
<title>:app:shared&#45;&gt;:feature:readout</title>
<path fill="none" stroke="black" d="M280.09,-71.7C280.09,-63.98 280.09,-54.71 280.09,-46.11"/>
<polygon fill="black" stroke="black" points="283.59,-46.1 280.09,-36.1 276.59,-46.1 283.59,-46.1"/>
</g>
<!-- :feature:readout&#45;vehicle&#45;approach -->
<g id="node6" class="node">
<title>:feature:readout&#45;vehicle&#45;approach</title>
<ellipse fill="none" stroke="black" cx="552.09" cy="-18" rx="167.87" ry="18"/>
<text text-anchor="middle" x="552.09" y="-14.3" font-family="Times,serif" font-size="14.00">:feature:readout&#45;vehicle&#45;approach</text>
</g>
<!-- :app:shared&#45;&gt;:feature:readout&#45;vehicle&#45;approach -->
<g id="edge5" class="edge">
<title>:app:shared&#45;&gt;:feature:readout&#45;vehicle&#45;approach</title>
<path fill="none" stroke="black" d="M326.23,-77.13C368.56,-66.23 431.91,-49.93 480.75,-37.36"/>
<polygon fill="black" stroke="black" points="481.82,-40.7 490.63,-34.82 480.07,-33.92 481.82,-40.7"/>
</g>
<!-- :app:desktopApp -->
<g id="node3" class="node">
<title>:app:desktopApp</title>
<ellipse fill="none" stroke="black" cx="280.09" cy="-162" rx="88.28" ry="18"/>
<text text-anchor="middle" x="280.09" y="-158.3" font-family="Times,serif" font-size="14.00">:app:desktopApp</text>
</g>
<!-- :app:desktopApp&#45;&gt;:app:shared -->
<g id="edge2" class="edge">
<title>:app:desktopApp&#45;&gt;:app:shared</title>
<path fill="none" stroke="black" d="M280.09,-143.7C280.09,-135.98 280.09,-126.71 280.09,-118.11"/>
<polygon fill="black" stroke="black" points="283.59,-118.1 280.09,-108.1 276.59,-118.1 283.59,-118.1"/>
</g>
<!-- :app:webApp -->
<g id="node7" class="node">
<title>:app:webApp</title>
<ellipse fill="none" stroke="black" cx="457.09" cy="-162" rx="70.69" ry="18"/>
<text text-anchor="middle" x="457.09" y="-158.3" font-family="Times,serif" font-size="14.00">:app:webApp</text>
</g>
<!-- :app:webApp&#45;&gt;:app:shared -->
<g id="edge6" class="edge">
<title>:app:webApp&#45;&gt;:app:shared</title>
<path fill="none" stroke="black" d="M420.42,-146.5C392.85,-135.59 354.93,-120.6 325.46,-108.94"/>
<polygon fill="black" stroke="black" points="326.4,-105.55 315.81,-105.13 323.82,-112.06 326.4,-105.55"/>
</g>
</g>
</svg>
