<?xml version="1.0" encoding="UTF-8" standalone="no"?>
<!DOCTYPE svg PUBLIC "-//W3C//DTD SVG 1.1//EN"
 "http://www.w3.org/Graphics/SVG/1.1/DTD/svg11.dtd">
<!-- Generated by graphviz version 2.43.0 (0)
 -->
<!-- Title: G Pages: 1 -->
<svg width="4356pt" height="188pt"
 viewBox="0.00 0.00 4356.22 188.00" xmlns="http://www.w3.org/2000/svg" xmlns:xlink="http://www.w3.org/1999/xlink">
<g id="graph0" class="graph" transform="scale(1 1) rotate(0) translate(4 184)">
<title>G</title>
<polygon fill="white" stroke="transparent" points="-4,4 -4,-184 4352.22,-184 4352.22,4 -4,4"/>
<!-- :app:androidApp -->
<g id="node1" class="node">
<title>:app:androidApp</title>
<ellipse fill="none" stroke="black" cx="1579.44" cy="-162" rx="87.18" ry="18"/>
<text text-anchor="middle" x="1579.44" y="-158.3" font-family="Times,serif" font-size="14.00">:app:androidApp</text>
</g>
<!-- :app:shared -->
<g id="node2" class="node">
<title>:app:shared</title>
<ellipse fill="none" stroke="black" cx="1772.44" cy="-90" rx="65.79" ry="18"/>
<text text-anchor="middle" x="1772.44" y="-86.3" font-family="Times,serif" font-size="14.00">:app:shared</text>
</g>
<!-- :app:androidApp&#45;&gt;:app:shared -->
<g id="edge1" class="edge">
<title>:app:androidApp&#45;&gt;:app:shared</title>
<path fill="none" stroke="black" d="M1620.85,-145.98C1651.36,-134.92 1692.93,-119.84 1724.82,-108.27"/>
<polygon fill="black" stroke="black" points="1726.18,-111.5 1734.38,-104.8 1723.79,-104.92 1726.18,-111.5"/>
</g>
<!-- :feature:main -->
<g id="node4" class="node">
<title>:feature:main</title>
<ellipse fill="none" stroke="black" cx="73.44" cy="-18" rx="73.39" ry="18"/>
<text text-anchor="middle" x="73.44" y="-14.3" font-family="Times,serif" font-size="14.00">:feature:main</text>
</g>
<!-- :app:shared&#45;&gt;:feature:main -->
<g id="edge3" class="edge">
<title>:app:shared&#45;&gt;:feature:main</title>
<path fill="none" stroke="black" d="M1706.91,-88.33C1443.9,-85.42 464.31,-72.31 156.44,-36 149.57,-35.19 142.43,-34.1 135.34,-32.87"/>
<polygon fill="black" stroke="black" points="135.49,-29.34 125.03,-30.97 134.23,-36.22 135.49,-29.34"/>
</g>
<!-- :feature:lmu&#45;windows&#45;connection -->
<g id="node5" class="node">
<title>:feature:lmu&#45;windows&#45;connection</title>
<ellipse fill="none" stroke="black" cx="329.44" cy="-18" rx="164.37" ry="18"/>
<text text-anchor="middle" x="329.44" y="-14.3" font-family="Times,serif" font-size="14.00">:feature:lmu&#45;windows&#45;connection</text>
</g>
<!-- :app:shared&#45;&gt;:feature:lmu&#45;windows&#45;connection -->
<g id="edge4" class="edge">
<title>:app:shared&#45;&gt;:feature:lmu&#45;windows&#45;connection</title>
<path fill="none" stroke="black" d="M1707.33,-87.56C1520.06,-83.14 964.01,-68.09 503.44,-36 487.27,-34.87 470.27,-33.48 453.5,-31.97"/>
<polygon fill="black" stroke="black" points="453.36,-28.45 443.09,-31.02 452.73,-35.42 453.36,-28.45"/>
</g>
<!-- :feature:server&#45;connection -->
<g id="node6" class="node">
<title>:feature:server&#45;connection</title>
<ellipse fill="none" stroke="black" cx="645.44" cy="-18" rx="133.48" ry="18"/>
<text text-anchor="middle" x="645.44" y="-14.3" font-family="Times,serif" font-size="14.00">:feature:server&#45;connection</text>
</g>
<!-- :app:shared&#45;&gt;:feature:server&#45;connection -->
<g id="edge5" class="edge">
<title>:app:shared&#45;&gt;:feature:server&#45;connection</title>
<path fill="none" stroke="black" d="M1707.58,-86.95C1549.94,-81.67 1134.24,-65.84 788.44,-36 775.54,-34.89 762.01,-33.53 748.62,-32.07"/>
<polygon fill="black" stroke="black" points="748.76,-28.56 738.43,-30.94 747.98,-35.52 748.76,-28.56"/>
</g>
<!-- :feature:lmu&#45;windows&#45;narrator -->
<g id="node7" class="node">
<title>:feature:lmu&#45;windows&#45;narrator</title>
<ellipse fill="none" stroke="black" cx="950.44" cy="-18" rx="153.27" ry="18"/>
<text text-anchor="middle" x="950.44" y="-14.3" font-family="Times,serif" font-size="14.00">:feature:lmu&#45;windows&#45;narrator</text>
</g>
<!-- :app:shared&#45;&gt;:feature:lmu&#45;windows&#45;narrator -->
<g id="edge6" class="edge">
<title>:app:shared&#45;&gt;:feature:lmu&#45;windows&#45;narrator</title>
<path fill="none" stroke="black" d="M1709.61,-84.47C1592.22,-75.89 1331.64,-56.3 1112.44,-36 1098.37,-34.7 1083.62,-33.25 1069,-31.78"/>
<polygon fill="black" stroke="black" points="1069.2,-28.28 1058.9,-30.75 1068.49,-35.24 1069.2,-28.28"/>
</g>
<!-- :feature:other&#45;license&#45;detail -->
<g id="node8" class="node">
<title>:feature:other&#45;license&#45;detail</title>
<ellipse fill="none" stroke="black" cx="1261.44" cy="-18" rx="139.98" ry="18"/>
<text text-anchor="middle" x="1261.44" y="-14.3" font-family="Times,serif" font-size="14.00">:feature:other&#45;license&#45;detail</text>
</g>
<!-- :app:shared&#45;&gt;:feature:other&#45;license&#45;detail -->
<g id="edge7" class="edge">
<title>:app:shared&#45;&gt;:feature:other&#45;license&#45;detail</title>
<path fill="none" stroke="black" d="M1714.82,-81.11C1629.61,-69.43 1468.73,-47.4 1363.33,-32.96"/>
<polygon fill="black" stroke="black" points="1363.69,-29.47 1353.3,-31.58 1362.74,-36.41 1363.69,-29.47"/>
</g>
<!-- :feature:other&#45;list -->
<g id="node9" class="node">
<title>:feature:other&#45;list</title>
<ellipse fill="none" stroke="black" cx="1512.44" cy="-18" rx="92.88" ry="18"/>
<text text-anchor="middle" x="1512.44" y="-14.3" font-family="Times,serif" font-size="14.00">:feature:other&#45;list</text>
</g>
<!-- :app:shared&#45;&gt;:feature:other&#45;list -->
<g id="edge8" class="edge">
<title>:app:shared&#45;&gt;:feature:other&#45;list</title>
<path fill="none" stroke="black" d="M1727.45,-76.89C1685.12,-65.49 1621.36,-48.32 1574.26,-35.64"/>
<polygon fill="black" stroke="black" points="1575.04,-32.23 1564.48,-33.01 1573.22,-38.99 1575.04,-32.23"/>
</g>
<!-- :feature:other&#45;server&#45;ip&#45;detail -->
<g id="node10" class="node">
<title>:feature:other&#45;server&#45;ip&#45;detail</title>
<ellipse fill="none" stroke="black" cx="1772.44" cy="-18" rx="148.67" ry="18"/>
<text text-anchor="middle" x="1772.44" y="-14.3" font-family="Times,serif" font-size="14.00">:feature:other&#45;server&#45;ip&#45;detail</text>
</g>
<!-- :app:shared&#45;&gt;:feature:other&#45;server&#45;ip&#45;detail -->
<g id="edge9" class="edge">
<title>:app:shared&#45;&gt;:feature:other&#45;server&#45;ip&#45;detail</title>
<path fill="none" stroke="black" d="M1772.44,-71.7C1772.44,-63.98 1772.44,-54.71 1772.44,-46.11"/>
<polygon fill="black" stroke="black" points="1775.94,-46.1 1772.44,-36.1 1768.94,-46.1 1775.94,-46.1"/>
</g>
<!-- :feature:other&#45;readout&#45;start&#45;sound&#45;detail -->
<g id="node11" class="node">
<title>:feature:other&#45;readout&#45;start&#45;sound&#45;detail</title>
<ellipse fill="none" stroke="black" cx="2138.44" cy="-18" rx="199.56" ry="18"/>
<text text-anchor="middle" x="2138.44" y="-14.3" font-family="Times,serif" font-size="14.00">:feature:other&#45;readout&#45;start&#45;sound&#45;detail</text>
</g>
<!-- :app:shared&#45;&gt;:feature:other&#45;readout&#45;start&#45;sound&#45;detail -->
<g id="edge10" class="edge">
<title>:app:shared&#45;&gt;:feature:other&#45;readout&#45;start&#45;sound&#45;detail</title>
<path fill="none" stroke="black" d="M1824.88,-78.97C1882.81,-67.89 1977.17,-49.84 2047.27,-36.44"/>
<polygon fill="black" stroke="black" points="2048.26,-39.81 2057.42,-34.5 2046.94,-32.94 2048.26,-39.81"/>
</g>
<!-- :feature:other&#45;volume&#45;detail -->
<g id="node12" class="node">
<title>:feature:other&#45;volume&#45;detail</title>
<ellipse fill="none" stroke="black" cx="2497.44" cy="-18" rx="141.07" ry="18"/>
<text text-anchor="middle" x="2497.44" y="-14.3" font-family="Times,serif" font-size="14.00">:feature:other&#45;volume&#45;detail</text>
</g>
<!-- :app:shared&#45;&gt;:feature:other&#45;volume&#45;detail -->
<g id="edge11" class="edge">
<title>:app:shared&#45;&gt;:feature:other&#45;volume&#45;detail</title>
<path fill="none" stroke="black" d="M1834.18,-83.74C1939.51,-74.66 2160.71,-55.19 2347.44,-36 2360.22,-34.69 2373.6,-33.25 2386.89,-31.79"/>
<polygon fill="black" stroke="black" points="2387.47,-35.25 2397.02,-30.68 2386.7,-28.29 2387.47,-35.25"/>
</g>
<!-- :feature:readout&#45;list -->
<g id="node13" class="node">
<title>:feature:readout&#45;list</title>
<ellipse fill="none" stroke="black" cx="2760.44" cy="-18" rx="103.98" ry="18"/>
<text text-anchor="middle" x="2760.44" y="-14.3" font-family="Times,serif" font-size="14.00">:feature:readout&#45;list</text>
</g>
<!-- :app:shared&#45;&gt;:feature:readout&#45;list -->
<g id="edge12" class="edge">
<title>:app:shared&#45;&gt;:feature:readout&#45;list</title>
<path fill="none" stroke="black" d="M1837.37,-87.04C1982.77,-82.22 2345.5,-67.79 2647.44,-36 2657.21,-34.97 2667.42,-33.71 2677.55,-32.33"/>
<polygon fill="black" stroke="black" points="2678.2,-35.77 2687.62,-30.93 2677.23,-28.84 2678.2,-35.77"/>
</g>
<!-- :feature:lmu&#45;windows&#45;readout&#45;vehicle&#45;approach&#45;detail -->
<g id="node14" class="node">
<title>:feature:lmu&#45;windows&#45;readout&#45;vehicle&#45;approach&#45;detail</title>
<ellipse fill="none" stroke="black" cx="3143.44" cy="-18" rx="260.75" ry="18"/>
<text text-anchor="middle" x="3143.44" y="-14.3" font-family="Times,serif" font-size="14.00">:feature:lmu&#45;windows&#45;readout&#45;vehicle&#45;approach&#45;detail</text>
</g>
<!-- :app:shared&#45;&gt;:feature:lmu&#45;windows&#45;readout&#45;vehicle&#45;approach&#45;detail -->
<g id="edge13" class="edge">
<title>:app:shared&#45;&gt;:feature:lmu&#45;windows&#45;readout&#45;vehicle&#45;approach&#45;detail</title>
<path fill="none" stroke="black" d="M1836.68,-86.24C2006.19,-78.88 2479.6,-57.88 2873.44,-36 2898.39,-34.61 2924.62,-33.07 2950.53,-31.49"/>
<polygon fill="black" stroke="black" points="2951.06,-34.97 2960.83,-30.87 2950.64,-27.98 2951.06,-34.97"/>
</g>
<!-- :feature:lmu&#45;windows&#45;readout&#45;flag&#45;detail -->
<g id="node15" class="node">
<title>:feature:lmu&#45;windows&#45;readout&#45;flag&#45;detail</title>
<ellipse fill="none" stroke="black" cx="3621.44" cy="-18" rx="199.56" ry="18"/>
<text text-anchor="middle" x="3621.44" y="-14.3" font-family="Times,serif" font-size="14.00">:feature:lmu&#45;windows&#45;readout&#45;flag&#45;detail</text>
</g>
<!-- :app:shared&#45;&gt;:feature:lmu&#45;windows&#45;readout&#45;flag&#45;detail -->
<g id="edge14" class="edge">
<title>:app:shared&#45;&gt;:feature:lmu&#45;windows&#45;readout&#45;flag&#45;detail</title>
<path fill="none" stroke="black" d="M1837.77,-88.05C2059.14,-84.57 2801.23,-70.88 3413.44,-36 3433.26,-34.87 3454.12,-33.45 3474.67,-31.9"/>
<polygon fill="black" stroke="black" points="3475.03,-35.39 3484.73,-31.14 3474.49,-28.41 3475.03,-35.39"/>
</g>
<!-- :feature:lmu&#45;windows&#45;readout&#45;vehicle&#45;damage&#45;detail -->
<g id="node16" class="node">
<title>:feature:lmu&#45;windows&#45;readout&#45;vehicle&#45;damage&#45;detail</title>
<ellipse fill="none" stroke="black" cx="4093.44" cy="-18" rx="254.55" ry="18"/>
<text text-anchor="middle" x="4093.44" y="-14.3" font-family="Times,serif" font-size="14.00">:feature:lmu&#45;windows&#45;readout&#45;vehicle&#45;damage&#45;detail</text>
</g>
<!-- :app:shared&#45;&gt;:feature:lmu&#45;windows&#45;readout&#45;vehicle&#45;damage&#45;detail -->
<g id="edge15" class="edge">
<title>:app:shared&#45;&gt;:feature:lmu&#45;windows&#45;readout&#45;vehicle&#45;damage&#45;detail</title>
<path fill="none" stroke="black" d="M1837.79,-88.24C2092.89,-85.08 3046.28,-71.43 3830.44,-36 3856.08,-34.84 3883.11,-33.38 3909.68,-31.79"/>
<polygon fill="black" stroke="black" points="3910.07,-35.27 3919.84,-31.18 3909.65,-28.29 3910.07,-35.27"/>
</g>
<!-- :app:desktopApp -->
<g id="node3" class="node">
<title>:app:desktopApp</title>
<ellipse fill="none" stroke="black" cx="1772.44" cy="-162" rx="88.28" ry="18"/>
<text text-anchor="middle" x="1772.44" y="-158.3" font-family="Times,serif" font-size="14.00">:app:desktopApp</text>
</g>
<!-- :app:desktopApp&#45;&gt;:app:shared -->
<g id="edge2" class="edge">
<title>:app:desktopApp&#45;&gt;:app:shared</title>
<path fill="none" stroke="black" d="M1772.44,-143.7C1772.44,-135.98 1772.44,-126.71 1772.44,-118.11"/>
<polygon fill="black" stroke="black" points="1775.94,-118.1 1772.44,-108.1 1768.94,-118.1 1775.94,-118.1"/>
</g>
<!-- :app:webApp -->
<g id="node17" class="node">
<title>:app:webApp</title>
<ellipse fill="none" stroke="black" cx="1949.44" cy="-162" rx="70.69" ry="18"/>
<text text-anchor="middle" x="1949.44" y="-158.3" font-family="Times,serif" font-size="14.00">:app:webApp</text>
</g>
<!-- :app:webApp&#45;&gt;:app:shared -->
<g id="edge16" class="edge">
<title>:app:webApp&#45;&gt;:app:shared</title>
<path fill="none" stroke="black" d="M1912.77,-146.5C1885.2,-135.59 1847.28,-120.6 1817.81,-108.94"/>
<polygon fill="black" stroke="black" points="1818.75,-105.55 1808.16,-105.13 1816.18,-112.06 1818.75,-105.55"/>
</g>
</g>
</svg>
