<?xml version="1.0" encoding="UTF-8" standalone="no"?>
<!DOCTYPE svg PUBLIC "-//W3C//DTD SVG 1.1//EN"
 "http://www.w3.org/Graphics/SVG/1.1/DTD/svg11.dtd">
<!-- Generated by graphviz version 2.43.0 (0)
 -->
<!-- Title: G Pages: 1 -->
<svg width="542pt" height="260pt"
 viewBox="0.00 0.00 541.90 260.00" xmlns="http://www.w3.org/2000/svg" xmlns:xlink="http://www.w3.org/1999/xlink">
<g id="graph0" class="graph" transform="scale(1 1) rotate(0) translate(4 256)">
<title>G</title>
<polygon fill="white" stroke="transparent" points="-4,4 -4,-256 537.9,-256 537.9,4 -4,4"/>
<!-- :app:androidApp -->
<g id="node1" class="node">
<title>:app:androidApp</title>
<ellipse fill="none" stroke="black" cx="246.84" cy="-234" rx="87.18" ry="18"/>
<text text-anchor="middle" x="246.84" y="-230.3" font-family="Times,serif" font-size="14.00">:app:androidApp</text>
</g>
<!-- :app:shared -->
<g id="node2" class="node">
<title>:app:shared</title>
<ellipse fill="none" stroke="black" cx="246.84" cy="-162" rx="65.79" ry="18"/>
<text text-anchor="middle" x="246.84" y="-158.3" font-family="Times,serif" font-size="14.00">:app:shared</text>
</g>
<!-- :app:androidApp&#45;&gt;:app:shared -->
<g id="edge1" class="edge">
<title>:app:androidApp&#45;&gt;:app:shared</title>
<path fill="none" stroke="black" d="M246.84,-215.7C246.84,-207.98 246.84,-198.71 246.84,-190.11"/>
<polygon fill="black" stroke="black" points="250.34,-190.1 246.84,-180.1 243.34,-190.1 250.34,-190.1"/>
</g>
<!-- :core:domain -->
<g id="node3" class="node">
<title>:core:domain</title>
<ellipse fill="none" stroke="black" cx="246.84" cy="-18" rx="70.69" ry="18"/>
<text text-anchor="middle" x="246.84" y="-14.3" font-family="Times,serif" font-size="14.00">:core:domain</text>
</g>
<!-- :app:androidApp&#45;&gt;:core:domain -->
<g id="edge2" class="edge">
<title>:app:androidApp&#45;&gt;:core:domain</title>
<path fill="none" stroke="black" d="M214.69,-217.1C199.63,-208.13 182.66,-195.59 171.84,-180 144.05,-139.96 128.26,-114.08 152.84,-72 162.01,-56.31 177.72,-44.91 193.7,-36.79"/>
<polygon fill="black" stroke="black" points="195.52,-39.8 203.09,-32.38 192.55,-33.46 195.52,-39.8"/>
</g>
<!-- :feature:readout -->
<g id="node4" class="node">
<title>:feature:readout</title>
<ellipse fill="none" stroke="black" cx="426.84" cy="-90" rx="86.38" ry="18"/>
<text text-anchor="middle" x="426.84" y="-86.3" font-family="Times,serif" font-size="14.00">:feature:readout</text>
</g>
<!-- :app:androidApp&#45;&gt;:feature:readout -->
<g id="edge3" class="edge">
<title>:app:androidApp&#45;&gt;:feature:readout</title>
<path fill="none" stroke="black" d="M271.22,-216.58C286.08,-206.37 305.33,-192.79 321.84,-180 349.48,-158.59 379.83,-132.58 400.75,-114.22"/>
<polygon fill="black" stroke="black" points="403.1,-116.82 408.29,-107.59 398.47,-111.57 403.1,-116.82"/>
</g>
<!-- :app:shared&#45;&gt;:core:domain -->
<g id="edge9" class="edge">
<title>:app:shared&#45;&gt;:core:domain</title>
<path fill="none" stroke="black" d="M208.93,-147.15C191.6,-138.68 172.75,-125.97 162.84,-108 155.12,-93.99 155.12,-86.01 162.84,-72 170.91,-57.37 184.91,-46.22 199.18,-38.02"/>
<polygon fill="black" stroke="black" points="200.88,-41.08 208.06,-33.28 197.59,-34.9 200.88,-41.08"/>
</g>
<!-- :app:shared&#45;&gt;:feature:readout -->
<g id="edge8" class="edge">
<title>:app:shared&#45;&gt;:feature:readout</title>
<path fill="none" stroke="black" d="M283.27,-146.83C310.71,-136.16 348.59,-121.43 378.55,-109.78"/>
<polygon fill="black" stroke="black" points="379.93,-113 387.98,-106.11 377.39,-106.48 379.93,-113"/>
</g>
<!-- :feature:other -->
<g id="node6" class="node">
<title>:feature:other</title>
<ellipse fill="none" stroke="black" cx="246.84" cy="-90" rx="75.29" ry="18"/>
<text text-anchor="middle" x="246.84" y="-86.3" font-family="Times,serif" font-size="14.00">:feature:other</text>
</g>
<!-- :app:shared&#45;&gt;:feature:other -->
<g id="edge7" class="edge">
<title>:app:shared&#45;&gt;:feature:other</title>
<path fill="none" stroke="black" d="M246.84,-143.7C246.84,-135.98 246.84,-126.71 246.84,-118.11"/>
<polygon fill="black" stroke="black" points="250.34,-118.1 246.84,-108.1 243.34,-118.1 250.34,-118.1"/>
</g>
<!-- :feature:readout&#45;&gt;:core:domain -->
<g id="edge12" class="edge">
<title>:feature:readout&#45;&gt;:core:domain</title>
<path fill="none" stroke="black" d="M387.79,-73.81C360.1,-63.05 322.83,-48.55 293.57,-37.17"/>
<polygon fill="black" stroke="black" points="294.57,-33.8 283.98,-33.44 292.03,-40.33 294.57,-33.8"/>
</g>
<!-- :app:desktopApp -->
<g id="node5" class="node">
<title>:app:desktopApp</title>
<ellipse fill="none" stroke="black" cx="439.84" cy="-234" rx="88.28" ry="18"/>
<text text-anchor="middle" x="439.84" y="-230.3" font-family="Times,serif" font-size="14.00">:app:desktopApp</text>
</g>
<!-- :app:desktopApp&#45;&gt;:app:shared -->
<g id="edge4" class="edge">
<title>:app:desktopApp&#45;&gt;:app:shared</title>
<path fill="none" stroke="black" d="M398.44,-217.98C367.93,-206.92 326.36,-191.84 294.47,-180.27"/>
<polygon fill="black" stroke="black" points="295.5,-176.92 284.9,-176.8 293.11,-183.5 295.5,-176.92"/>
</g>
<!-- :app:desktopApp&#45;&gt;:core:domain -->
<g id="edge5" class="edge">
<title>:app:desktopApp&#45;&gt;:core:domain</title>
<path fill="none" stroke="black" d="M460.12,-216.31C495.23,-185.43 560.09,-118.32 521.84,-72 497.34,-42.32 397.98,-29.08 325.72,-23.3"/>
<polygon fill="black" stroke="black" points="325.95,-19.81 315.71,-22.53 325.42,-26.79 325.95,-19.81"/>
</g>
<!-- :app:desktopApp&#45;&gt;:feature:readout -->
<g id="edge6" class="edge">
<title>:app:desktopApp&#45;&gt;:feature:readout</title>
<path fill="none" stroke="black" d="M438.28,-215.87C436.06,-191.67 431.99,-147.21 429.35,-118.39"/>
<polygon fill="black" stroke="black" points="432.81,-117.83 428.42,-108.19 425.84,-118.47 432.81,-117.83"/>
</g>
<!-- :feature:other&#45;&gt;:core:domain -->
<g id="edge11" class="edge">
<title>:feature:other&#45;&gt;:core:domain</title>
<path fill="none" stroke="black" d="M246.84,-71.7C246.84,-63.98 246.84,-54.71 246.84,-46.11"/>
<polygon fill="black" stroke="black" points="250.34,-46.1 246.84,-36.1 243.34,-46.1 250.34,-46.1"/>
</g>
<!-- :app:webApp -->
<g id="node7" class="node">
<title>:app:webApp</title>
<ellipse fill="none" stroke="black" cx="70.84" cy="-234" rx="70.69" ry="18"/>
<text text-anchor="middle" x="70.84" y="-230.3" font-family="Times,serif" font-size="14.00">:app:webApp</text>
</g>
<!-- :app:webApp&#45;&gt;:app:shared -->
<g id="edge10" class="edge">
<title>:app:webApp&#45;&gt;:app:shared</title>
<path fill="none" stroke="black" d="M107.31,-218.5C134.63,-207.63 172.18,-192.7 201.44,-181.06"/>
<polygon fill="black" stroke="black" points="203.03,-184.19 211.03,-177.25 200.44,-177.69 203.03,-184.19"/>
</g>
</g>
</svg>
