<?xml version="1.0" encoding="UTF-8" standalone="no"?>
<!DOCTYPE svg PUBLIC "-//W3C//DTD SVG 1.1//EN"
 "http://www.w3.org/Graphics/SVG/1.1/DTD/svg11.dtd">
<!-- Generated by graphviz version 2.43.0 (0)
 -->
<!-- Title: G Pages: 1 -->
<svg width="376pt" height="116pt"
 viewBox="0.00 0.00 376.48 116.00" xmlns="http://www.w3.org/2000/svg" xmlns:xlink="http://www.w3.org/1999/xlink">
<g id="graph0" class="graph" transform="scale(1 1) rotate(0) translate(4 112)">
<title>G</title>
<polygon fill="white" stroke="transparent" points="-4,4 -4,-112 372.48,-112 372.48,4 -4,4"/>
<!-- :app:androidApp -->
<g id="node1" class="node">
<title>:app:androidApp</title>
<ellipse fill="none" stroke="black" cx="87.09" cy="-90" rx="87.18" ry="18"/>
<text text-anchor="middle" x="87.09" y="-86.3" font-family="Times,serif" font-size="14.00">:app:androidApp</text>
</g>
<!-- :app:shared -->
<g id="node2" class="node">
<title>:app:shared</title>
<ellipse fill="none" stroke="black" cx="183.09" cy="-18" rx="65.79" ry="18"/>
<text text-anchor="middle" x="183.09" y="-14.3" font-family="Times,serif" font-size="14.00">:app:shared</text>
</g>
<!-- :app:androidApp&#45;&gt;:app:shared -->
<g id="edge1" class="edge">
<title>:app:androidApp&#45;&gt;:app:shared</title>
<path fill="none" stroke="black" d="M109.84,-72.41C122.7,-63.04 138.93,-51.2 152.85,-41.05"/>
<polygon fill="black" stroke="black" points="155.15,-43.71 161.17,-34.99 151.02,-38.05 155.15,-43.71"/>
</g>
<!-- :app:desktopApp -->
<g id="node3" class="node">
<title>:app:desktopApp</title>
<ellipse fill="none" stroke="black" cx="280.09" cy="-90" rx="88.28" ry="18"/>
<text text-anchor="middle" x="280.09" y="-86.3" font-family="Times,serif" font-size="14.00">:app:desktopApp</text>
</g>
<!-- :app:desktopApp&#45;&gt;:app:shared -->
<g id="edge2" class="edge">
<title>:app:desktopApp&#45;&gt;:app:shared</title>
<path fill="none" stroke="red" stroke-width="2" d="M257.1,-72.41C244.11,-63.04 227.71,-51.2 213.65,-41.05"/>
<polygon fill="red" stroke="red" stroke-width="2" points="215.4,-38 205.25,-34.99 211.31,-43.68 215.4,-38"/>
</g>
</g>
</svg>
