<?xml version="1.0" encoding="UTF-8" standalone="no"?>
<!DOCTYPE svg PUBLIC "-//W3C//DTD SVG 1.1//EN"
 "http://www.w3.org/Graphics/SVG/1.1/DTD/svg11.dtd">
<!-- Generated by graphviz version 2.43.0 (0)
 -->
<!-- Title: G Pages: 1 -->
<svg width="2669pt" height="188pt"
 viewBox="0.00 0.00 2669.12 188.00" xmlns="http://www.w3.org/2000/svg" xmlns:xlink="http://www.w3.org/1999/xlink">
<g id="graph0" class="graph" transform="scale(1 1) rotate(0) translate(4 184)">
<title>G</title>
<polygon fill="white" stroke="transparent" points="-4,4 -4,-184 2665.12,-184 2665.12,4 -4,4"/>
<!-- :app:androidApp -->
<g id="node1" class="node">
<title>:app:androidApp</title>
<ellipse fill="none" stroke="black" cx="876.89" cy="-162" rx="87.18" ry="18"/>
<text text-anchor="middle" x="876.89" y="-158.3" font-family="Times,serif" font-size="14.00">:app:androidApp</text>
</g>
<!-- :app:shared -->
<g id="node2" class="node">
<title>:app:shared</title>
<ellipse fill="none" stroke="black" cx="1069.89" cy="-90" rx="65.79" ry="18"/>
<text text-anchor="middle" x="1069.89" y="-86.3" font-family="Times,serif" font-size="14.00">:app:shared</text>
</g>
<!-- :app:androidApp&#45;&gt;:app:shared -->
<g id="edge1" class="edge">
<title>:app:androidApp&#45;&gt;:app:shared</title>
<path fill="none" stroke="black" d="M918.29,-145.98C948.81,-134.92 990.38,-119.84 1022.27,-108.27"/>
<polygon fill="black" stroke="black" points="1023.62,-111.5 1031.83,-104.8 1021.24,-104.92 1023.62,-111.5"/>
</g>
<!-- :feature:lmu&#45;connection -->
<g id="node4" class="node">
<title>:feature:lmu&#45;connection</title>
<ellipse fill="none" stroke="black" cx="120.89" cy="-18" rx="120.78" ry="18"/>
<text text-anchor="middle" x="120.89" y="-14.3" font-family="Times,serif" font-size="14.00">:feature:lmu&#45;connection</text>
</g>
<!-- :app:shared&#45;&gt;:feature:lmu&#45;connection -->
<g id="edge3" class="edge">
<title>:app:shared&#45;&gt;:feature:lmu&#45;connection</title>
<path fill="none" stroke="black" d="M1005.53,-86.27C867.2,-80.08 531.32,-63.38 250.89,-36 239.59,-34.9 227.75,-33.58 216.03,-32.17"/>
<polygon fill="black" stroke="black" points="216.11,-28.65 205.76,-30.91 215.26,-35.6 216.11,-28.65"/>
</g>
<!-- :feature:lmu&#45;narrator -->
<g id="node5" class="node">
<title>:feature:lmu&#45;narrator</title>
<ellipse fill="none" stroke="black" cx="369.89" cy="-18" rx="109.68" ry="18"/>
<text text-anchor="middle" x="369.89" y="-14.3" font-family="Times,serif" font-size="14.00">:feature:lmu&#45;narrator</text>
</g>
<!-- :app:shared&#45;&gt;:feature:lmu&#45;narrator -->
<g id="edge4" class="edge">
<title>:app:shared&#45;&gt;:feature:lmu&#45;narrator</title>
<path fill="none" stroke="black" d="M1007.33,-84.38C900.61,-76.26 676.57,-58.17 487.89,-36 478.1,-34.85 467.87,-33.54 457.7,-32.17"/>
<polygon fill="black" stroke="black" points="457.95,-28.67 447.57,-30.78 457,-35.6 457.95,-28.67"/>
</g>
<!-- :feature:other&#45;detail -->
<g id="node6" class="node">
<title>:feature:other&#45;detail</title>
<ellipse fill="none" stroke="black" cx="601.89" cy="-18" rx="104.78" ry="18"/>
<text text-anchor="middle" x="601.89" y="-14.3" font-family="Times,serif" font-size="14.00">:feature:other&#45;detail</text>
</g>
<!-- :app:shared&#45;&gt;:feature:other&#45;detail -->
<g id="edge5" class="edge">
<title>:app:shared&#45;&gt;:feature:other&#45;detail</title>
<path fill="none" stroke="black" d="M1013.44,-80.56C932.51,-68.45 782.86,-46.07 688.05,-31.89"/>
<polygon fill="black" stroke="black" points="688.32,-28.39 677.91,-30.37 687.28,-35.31 688.32,-28.39"/>
</g>
<!-- :feature:other&#45;list -->
<g id="node7" class="node">
<title>:feature:other&#45;list</title>
<ellipse fill="none" stroke="black" cx="817.89" cy="-18" rx="92.88" ry="18"/>
<text text-anchor="middle" x="817.89" y="-14.3" font-family="Times,serif" font-size="14.00">:feature:other&#45;list</text>
</g>
<!-- :app:shared&#45;&gt;:feature:other&#45;list -->
<g id="edge6" class="edge">
<title>:app:shared&#45;&gt;:feature:other&#45;list</title>
<path fill="none" stroke="black" d="M1025.42,-76.65C984.61,-65.31 923.81,-48.42 878.55,-35.85"/>
<polygon fill="black" stroke="black" points="879.43,-32.46 868.85,-33.16 877.55,-39.21 879.43,-32.46"/>
</g>
<!-- :feature:other&#45;volume&#45;detail -->
<g id="node8" class="node">
<title>:feature:other&#45;volume&#45;detail</title>
<ellipse fill="none" stroke="black" cx="1069.89" cy="-18" rx="141.07" ry="18"/>
<text text-anchor="middle" x="1069.89" y="-14.3" font-family="Times,serif" font-size="14.00">:feature:other&#45;volume&#45;detail</text>
</g>
<!-- :app:shared&#45;&gt;:feature:other&#45;volume&#45;detail -->
<g id="edge7" class="edge">
<title>:app:shared&#45;&gt;:feature:other&#45;volume&#45;detail</title>
<path fill="none" stroke="black" d="M1069.89,-71.7C1069.89,-63.98 1069.89,-54.71 1069.89,-46.11"/>
<polygon fill="black" stroke="black" points="1073.39,-46.1 1069.89,-36.1 1066.39,-46.1 1073.39,-46.1"/>
</g>
<!-- :feature:readout&#45;list -->
<g id="node9" class="node">
<title>:feature:readout&#45;list</title>
<ellipse fill="none" stroke="black" cx="1332.89" cy="-18" rx="103.98" ry="18"/>
<text text-anchor="middle" x="1332.89" y="-14.3" font-family="Times,serif" font-size="14.00">:feature:readout&#45;list</text>
</g>
<!-- :app:shared&#45;&gt;:feature:readout&#45;list -->
<g id="edge8" class="edge">
<title>:app:shared&#45;&gt;:feature:readout&#45;list</title>
<path fill="none" stroke="black" d="M1115.4,-76.89C1157.81,-65.6 1221.48,-48.65 1268.98,-36.01"/>
<polygon fill="black" stroke="black" points="1270.09,-39.34 1278.86,-33.38 1268.29,-32.57 1270.09,-39.34"/>
</g>
<!-- :feature:lmu&#45;readout&#45;vehicle&#45;approach&#45;detail -->
<g id="node10" class="node">
<title>:feature:lmu&#45;readout&#45;vehicle&#45;approach&#45;detail</title>
<ellipse fill="none" stroke="black" cx="1672.89" cy="-18" rx="217.96" ry="18"/>
<text text-anchor="middle" x="1672.89" y="-14.3" font-family="Times,serif" font-size="14.00">:feature:lmu&#45;readout&#45;vehicle&#45;approach&#45;detail</text>
</g>
<!-- :app:shared&#45;&gt;:feature:lmu&#45;readout&#45;vehicle&#45;approach&#45;detail -->
<g id="edge9" class="edge">
<title>:app:shared&#45;&gt;:feature:lmu&#45;readout&#45;vehicle&#45;approach&#45;detail</title>
<path fill="none" stroke="black" d="M1129.08,-82.13C1224.28,-71.08 1413.68,-49.09 1541.86,-34.21"/>
<polygon fill="black" stroke="black" points="1542.61,-37.65 1552.13,-33.02 1541.8,-30.69 1542.61,-37.65"/>
</g>
<!-- :feature:lmu&#45;readout&#45;flag&#45;detail -->
<g id="node11" class="node">
<title>:feature:lmu&#45;readout&#45;flag&#45;detail</title>
<ellipse fill="none" stroke="black" cx="2064.89" cy="-18" rx="155.97" ry="18"/>
<text text-anchor="middle" x="2064.89" y="-14.3" font-family="Times,serif" font-size="14.00">:feature:lmu&#45;readout&#45;flag&#45;detail</text>
</g>
<!-- :app:shared&#45;&gt;:feature:lmu&#45;readout&#45;flag&#45;detail -->
<g id="edge10" class="edge">
<title>:app:shared&#45;&gt;:feature:lmu&#45;readout&#45;flag&#45;detail</title>
<path fill="none" stroke="black" d="M1133.73,-85.77C1272.99,-78.54 1614.45,-59.81 1899.89,-36 1914.6,-34.77 1930.04,-33.36 1945.32,-31.87"/>
<polygon fill="black" stroke="black" points="1945.72,-35.35 1955.33,-30.89 1945.04,-28.38 1945.72,-35.35"/>
</g>
<!-- :feature:lmu&#45;readout&#45;vehicle&#45;damage&#45;detail -->
<g id="node12" class="node">
<title>:feature:lmu&#45;readout&#45;vehicle&#45;damage&#45;detail</title>
<ellipse fill="none" stroke="black" cx="2449.89" cy="-18" rx="211.46" ry="18"/>
<text text-anchor="middle" x="2449.89" y="-14.3" font-family="Times,serif" font-size="14.00">:feature:lmu&#45;readout&#45;vehicle&#45;damage&#45;detail</text>
</g>
<!-- :app:shared&#45;&gt;:feature:lmu&#45;readout&#45;vehicle&#45;damage&#45;detail -->
<g id="edge11" class="edge">
<title>:app:shared&#45;&gt;:feature:lmu&#45;readout&#45;vehicle&#45;damage&#45;detail</title>
<path fill="none" stroke="black" d="M1134.7,-86.75C1310.79,-80.5 1812.86,-61.63 2229.89,-36 2250.35,-34.74 2271.88,-33.27 2293.13,-31.72"/>
<polygon fill="black" stroke="black" points="2293.48,-35.2 2303.19,-30.98 2292.96,-28.22 2293.48,-35.2"/>
</g>
<!-- :app:desktopApp -->
<g id="node3" class="node">
<title>:app:desktopApp</title>
<ellipse fill="none" stroke="black" cx="1069.89" cy="-162" rx="88.28" ry="18"/>
<text text-anchor="middle" x="1069.89" y="-158.3" font-family="Times,serif" font-size="14.00">:app:desktopApp</text>
</g>
<!-- :app:desktopApp&#45;&gt;:app:shared -->
<g id="edge2" class="edge">
<title>:app:desktopApp&#45;&gt;:app:shared</title>
<path fill="none" stroke="black" d="M1069.89,-143.7C1069.89,-135.98 1069.89,-126.71 1069.89,-118.11"/>
<polygon fill="black" stroke="black" points="1073.39,-118.1 1069.89,-108.1 1066.39,-118.1 1073.39,-118.1"/>
</g>
<!-- :app:webApp -->
<g id="node13" class="node">
<title>:app:webApp</title>
<ellipse fill="none" stroke="black" cx="1246.89" cy="-162" rx="70.69" ry="18"/>
<text text-anchor="middle" x="1246.89" y="-158.3" font-family="Times,serif" font-size="14.00">:app:webApp</text>
</g>
<!-- :app:webApp&#45;&gt;:app:shared -->
<g id="edge12" class="edge">
<title>:app:webApp&#45;&gt;:app:shared</title>
<path fill="none" stroke="black" d="M1210.21,-146.5C1182.65,-135.59 1144.73,-120.6 1115.25,-108.94"/>
<polygon fill="black" stroke="black" points="1116.2,-105.55 1105.61,-105.13 1113.62,-112.06 1116.2,-105.55"/>
</g>
</g>
</svg>
