<?xml version="1.0" encoding="UTF-8" standalone="no"?>
<!DOCTYPE svg PUBLIC "-//W3C//DTD SVG 1.1//EN"
 "http://www.w3.org/Graphics/SVG/1.1/DTD/svg11.dtd">
<!-- Generated by graphviz version 2.43.0 (0)
 -->
<!-- Title: G Pages: 1 -->
<svg width="3428pt" height="188pt"
 viewBox="0.00 0.00 3427.67 188.00" xmlns="http://www.w3.org/2000/svg" xmlns:xlink="http://www.w3.org/1999/xlink">
<g id="graph0" class="graph" transform="scale(1 1) rotate(0) translate(4 184)">
<title>G</title>
<polygon fill="white" stroke="transparent" points="-4,4 -4,-184 3423.67,-184 3423.67,4 -4,4"/>
<!-- :app:androidApp -->
<g id="node1" class="node">
<title>:app:androidApp</title>
<ellipse fill="none" stroke="black" cx="1327.44" cy="-162" rx="87.18" ry="18"/>
<text text-anchor="middle" x="1327.44" y="-158.3" font-family="Times,serif" font-size="14.00">:app:androidApp</text>
</g>
<!-- :app:shared -->
<g id="node2" class="node">
<title>:app:shared</title>
<ellipse fill="none" stroke="black" cx="1520.44" cy="-90" rx="65.79" ry="18"/>
<text text-anchor="middle" x="1520.44" y="-86.3" font-family="Times,serif" font-size="14.00">:app:shared</text>
</g>
<!-- :app:androidApp&#45;&gt;:app:shared -->
<g id="edge1" class="edge">
<title>:app:androidApp&#45;&gt;:app:shared</title>
<path fill="none" stroke="black" d="M1368.84,-145.98C1399.35,-134.92 1440.92,-119.84 1472.81,-108.27"/>
<polygon fill="black" stroke="black" points="1474.17,-111.5 1482.38,-104.8 1471.78,-104.92 1474.17,-111.5"/>
</g>
<!-- :feature:lmu&#45;windows&#45;connection -->
<g id="node4" class="node">
<title>:feature:lmu&#45;windows&#45;connection</title>
<ellipse fill="none" stroke="black" cx="164.44" cy="-18" rx="164.37" ry="18"/>
<text text-anchor="middle" x="164.44" y="-14.3" font-family="Times,serif" font-size="14.00">:feature:lmu&#45;windows&#45;connection</text>
</g>
<!-- :app:shared&#45;&gt;:feature:lmu&#45;windows&#45;connection -->
<g id="edge3" class="edge">
<title>:app:shared&#45;&gt;:feature:lmu&#45;windows&#45;connection</title>
<path fill="none" stroke="black" d="M1455.34,-87.28C1276.71,-82.31 763.85,-66.3 338.44,-36 322.39,-34.86 305.53,-33.46 288.88,-31.96"/>
<polygon fill="black" stroke="black" points="288.83,-28.44 278.55,-31.02 288.19,-35.41 288.83,-28.44"/>
</g>
<!-- :feature:server&#45;connection -->
<g id="node5" class="node">
<title>:feature:server&#45;connection</title>
<ellipse fill="none" stroke="black" cx="480.44" cy="-18" rx="133.48" ry="18"/>
<text text-anchor="middle" x="480.44" y="-14.3" font-family="Times,serif" font-size="14.00">:feature:server&#45;connection</text>
</g>
<!-- :app:shared&#45;&gt;:feature:server&#45;connection -->
<g id="edge4" class="edge">
<title>:app:shared&#45;&gt;:feature:server&#45;connection</title>
<path fill="none" stroke="black" d="M1455.82,-86.52C1308.04,-80.56 934.13,-63.83 622.44,-36 609.82,-34.87 596.6,-33.52 583.51,-32.08"/>
<polygon fill="black" stroke="black" points="583.87,-28.6 573.54,-30.96 583.09,-35.55 583.87,-28.6"/>
</g>
<!-- :feature:lmu&#45;narrator -->
<g id="node6" class="node">
<title>:feature:lmu&#45;narrator</title>
<ellipse fill="none" stroke="black" cx="741.44" cy="-18" rx="109.68" ry="18"/>
<text text-anchor="middle" x="741.44" y="-14.3" font-family="Times,serif" font-size="14.00">:feature:lmu&#45;narrator</text>
</g>
<!-- :app:shared&#45;&gt;:feature:lmu&#45;narrator -->
<g id="edge5" class="edge">
<title>:app:shared&#45;&gt;:feature:lmu&#45;narrator</title>
<path fill="none" stroke="black" d="M1457.06,-85.22C1339.32,-77.9 1078.93,-60.36 860.44,-36 850.3,-34.87 839.69,-33.55 829.17,-32.16"/>
<polygon fill="black" stroke="black" points="829.5,-28.67 819.12,-30.8 828.56,-35.61 829.5,-28.67"/>
</g>
<!-- :feature:other&#45;license&#45;detail -->
<g id="node7" class="node">
<title>:feature:other&#45;license&#45;detail</title>
<ellipse fill="none" stroke="black" cx="1009.44" cy="-18" rx="139.98" ry="18"/>
<text text-anchor="middle" x="1009.44" y="-14.3" font-family="Times,serif" font-size="14.00">:feature:other&#45;license&#45;detail</text>
</g>
<!-- :app:shared&#45;&gt;:feature:other&#45;license&#45;detail -->
<g id="edge6" class="edge">
<title>:app:shared&#45;&gt;:feature:other&#45;license&#45;detail</title>
<path fill="none" stroke="black" d="M1462.81,-81.11C1377.6,-69.43 1216.72,-47.4 1111.32,-32.96"/>
<polygon fill="black" stroke="black" points="1111.68,-29.47 1101.3,-31.58 1110.73,-36.41 1111.68,-29.47"/>
</g>
<!-- :feature:other&#45;list -->
<g id="node8" class="node">
<title>:feature:other&#45;list</title>
<ellipse fill="none" stroke="black" cx="1260.44" cy="-18" rx="92.88" ry="18"/>
<text text-anchor="middle" x="1260.44" y="-14.3" font-family="Times,serif" font-size="14.00">:feature:other&#45;list</text>
</g>
<!-- :app:shared&#45;&gt;:feature:other&#45;list -->
<g id="edge7" class="edge">
<title>:app:shared&#45;&gt;:feature:other&#45;list</title>
<path fill="none" stroke="black" d="M1475.44,-76.89C1433.11,-65.49 1369.35,-48.32 1322.25,-35.64"/>
<polygon fill="black" stroke="black" points="1323.04,-32.23 1312.47,-33.01 1321.22,-38.99 1323.04,-32.23"/>
</g>
<!-- :feature:other&#45;server&#45;ip&#45;detail -->
<g id="node9" class="node">
<title>:feature:other&#45;server&#45;ip&#45;detail</title>
<ellipse fill="none" stroke="black" cx="1520.44" cy="-18" rx="148.67" ry="18"/>
<text text-anchor="middle" x="1520.44" y="-14.3" font-family="Times,serif" font-size="14.00">:feature:other&#45;server&#45;ip&#45;detail</text>
</g>
<!-- :app:shared&#45;&gt;:feature:other&#45;server&#45;ip&#45;detail -->
<g id="edge8" class="edge">
<title>:app:shared&#45;&gt;:feature:other&#45;server&#45;ip&#45;detail</title>
<path fill="none" stroke="black" d="M1520.44,-71.7C1520.44,-63.98 1520.44,-54.71 1520.44,-46.11"/>
<polygon fill="black" stroke="black" points="1523.94,-46.1 1520.44,-36.1 1516.94,-46.1 1523.94,-46.1"/>
</g>
<!-- :feature:other&#45;volume&#45;detail -->
<g id="node10" class="node">
<title>:feature:other&#45;volume&#45;detail</title>
<ellipse fill="none" stroke="black" cx="1828.44" cy="-18" rx="141.07" ry="18"/>
<text text-anchor="middle" x="1828.44" y="-14.3" font-family="Times,serif" font-size="14.00">:feature:other&#45;volume&#45;detail</text>
</g>
<!-- :app:shared&#45;&gt;:feature:other&#45;volume&#45;detail -->
<g id="edge9" class="edge">
<title>:app:shared&#45;&gt;:feature:other&#45;volume&#45;detail</title>
<path fill="none" stroke="black" d="M1569.24,-77.91C1618.52,-66.71 1695.34,-49.25 1752.58,-36.24"/>
<polygon fill="black" stroke="black" points="1753.69,-39.58 1762.66,-33.95 1752.14,-32.75 1753.69,-39.58"/>
</g>
<!-- :feature:readout&#45;list -->
<g id="node11" class="node">
<title>:feature:readout&#45;list</title>
<ellipse fill="none" stroke="black" cx="2091.44" cy="-18" rx="103.98" ry="18"/>
<text text-anchor="middle" x="2091.44" y="-14.3" font-family="Times,serif" font-size="14.00">:feature:readout&#45;list</text>
</g>
<!-- :app:shared&#45;&gt;:feature:readout&#45;list -->
<g id="edge10" class="edge">
<title>:app:shared&#45;&gt;:feature:readout&#45;list</title>
<path fill="none" stroke="black" d="M1580.53,-82.71C1668.14,-73.38 1836.01,-54.95 1978.44,-36 1987.63,-34.78 1997.24,-33.43 2006.8,-32.05"/>
<polygon fill="black" stroke="black" points="2007.33,-35.51 2016.72,-30.61 2006.32,-28.59 2007.33,-35.51"/>
</g>
<!-- :feature:lmu&#45;readout&#45;vehicle&#45;approach&#45;detail -->
<g id="node12" class="node">
<title>:feature:lmu&#45;readout&#45;vehicle&#45;approach&#45;detail</title>
<ellipse fill="none" stroke="black" cx="2431.44" cy="-18" rx="217.96" ry="18"/>
<text text-anchor="middle" x="2431.44" y="-14.3" font-family="Times,serif" font-size="14.00">:feature:lmu&#45;readout&#45;vehicle&#45;approach&#45;detail</text>
</g>
<!-- :app:shared&#45;&gt;:feature:lmu&#45;readout&#45;vehicle&#45;approach&#45;detail -->
<g id="edge11" class="edge">
<title>:app:shared&#45;&gt;:feature:lmu&#45;readout&#45;vehicle&#45;approach&#45;detail</title>
<path fill="none" stroke="black" d="M1582.69,-84.22C1721.98,-73.51 2062.55,-47.34 2267.44,-31.6"/>
<polygon fill="black" stroke="black" points="2267.99,-35.07 2277.69,-30.81 2267.46,-28.09 2267.99,-35.07"/>
</g>
<!-- :feature:lmu&#45;readout&#45;flag&#45;detail -->
<g id="node13" class="node">
<title>:feature:lmu&#45;readout&#45;flag&#45;detail</title>
<ellipse fill="none" stroke="black" cx="2823.44" cy="-18" rx="155.97" ry="18"/>
<text text-anchor="middle" x="2823.44" y="-14.3" font-family="Times,serif" font-size="14.00">:feature:lmu&#45;readout&#45;flag&#45;detail</text>
</g>
<!-- :app:shared&#45;&gt;:feature:lmu&#45;readout&#45;flag&#45;detail -->
<g id="edge12" class="edge">
<title>:app:shared&#45;&gt;:feature:lmu&#45;readout&#45;flag&#45;detail</title>
<path fill="none" stroke="black" d="M1585.62,-87.25C1759.87,-82.28 2250.9,-66.46 2658.44,-36 2673.51,-34.87 2689.34,-33.49 2704.99,-32.01"/>
<polygon fill="black" stroke="black" points="2705.61,-35.47 2715.23,-31.03 2704.94,-28.5 2705.61,-35.47"/>
</g>
<!-- :feature:lmu&#45;readout&#45;vehicle&#45;damage&#45;detail -->
<g id="node14" class="node">
<title>:feature:lmu&#45;readout&#45;vehicle&#45;damage&#45;detail</title>
<ellipse fill="none" stroke="black" cx="3208.44" cy="-18" rx="211.46" ry="18"/>
<text text-anchor="middle" x="3208.44" y="-14.3" font-family="Times,serif" font-size="14.00">:feature:lmu&#45;readout&#45;vehicle&#45;damage&#45;detail</text>
</g>
<!-- :app:shared&#45;&gt;:feature:lmu&#45;readout&#45;vehicle&#45;damage&#45;detail -->
<g id="edge13" class="edge">
<title>:app:shared&#45;&gt;:feature:lmu&#45;readout&#45;vehicle&#45;damage&#45;detail</title>
<path fill="none" stroke="black" d="M1585.59,-87.6C1791.52,-82.98 2446.73,-66.7 2988.44,-36 3009.24,-34.82 3031.13,-33.38 3052.71,-31.83"/>
<polygon fill="black" stroke="black" points="3053.21,-35.3 3062.93,-31.09 3052.71,-28.32 3053.21,-35.3"/>
</g>
<!-- :app:desktopApp -->
<g id="node3" class="node">
<title>:app:desktopApp</title>
<ellipse fill="none" stroke="black" cx="1520.44" cy="-162" rx="88.28" ry="18"/>
<text text-anchor="middle" x="1520.44" y="-158.3" font-family="Times,serif" font-size="14.00">:app:desktopApp</text>
</g>
<!-- :app:desktopApp&#45;&gt;:app:shared -->
<g id="edge2" class="edge">
<title>:app:desktopApp&#45;&gt;:app:shared</title>
<path fill="none" stroke="black" d="M1520.44,-143.7C1520.44,-135.98 1520.44,-126.71 1520.44,-118.11"/>
<polygon fill="black" stroke="black" points="1523.94,-118.1 1520.44,-108.1 1516.94,-118.1 1523.94,-118.1"/>
</g>
<!-- :app:webApp -->
<g id="node15" class="node">
<title>:app:webApp</title>
<ellipse fill="none" stroke="black" cx="1697.44" cy="-162" rx="70.69" ry="18"/>
<text text-anchor="middle" x="1697.44" y="-158.3" font-family="Times,serif" font-size="14.00">:app:webApp</text>
</g>
<!-- :app:webApp&#45;&gt;:app:shared -->
<g id="edge14" class="edge">
<title>:app:webApp&#45;&gt;:app:shared</title>
<path fill="none" stroke="black" d="M1660.76,-146.5C1633.2,-135.59 1595.27,-120.6 1565.8,-108.94"/>
<polygon fill="black" stroke="black" points="1566.74,-105.55 1556.16,-105.13 1564.17,-112.06 1566.74,-105.55"/>
</g>
</g>
</svg>
