<?xml version="1.0" encoding="UTF-8" standalone="no"?>
<!DOCTYPE svg PUBLIC "-//W3C//DTD SVG 1.1//EN"
 "http://www.w3.org/Graphics/SVG/1.1/DTD/svg11.dtd">
<!-- Generated by graphviz version 2.43.0 (0)
 -->
<!-- Title: G Pages: 1 -->
<svg width="844pt" height="116pt"
 viewBox="0.00 0.00 844.19 116.00" xmlns="http://www.w3.org/2000/svg" xmlns:xlink="http://www.w3.org/1999/xlink">
<g id="graph0" class="graph" transform="scale(1 1) rotate(0) translate(4 112)">
<title>G</title>
<polygon fill="white" stroke="transparent" points="-4,4 -4,-112 840.19,-112 840.19,4 -4,4"/>
<!-- :app:desktopApp -->
<g id="node1" class="node">
<title>:app:desktopApp</title>
<ellipse fill="none" stroke="black" cx="402.64" cy="-90" rx="88.28" ry="18"/>
<text text-anchor="middle" x="402.64" y="-86.3" font-family="Times,serif" font-size="14.00">:app:desktopApp</text>
</g>
<!-- :app:shared -->
<g id="node2" class="node">
<title>:app:shared</title>
<ellipse fill="none" stroke="black" cx="65.64" cy="-18" rx="65.79" ry="18"/>
<text text-anchor="middle" x="65.64" y="-14.3" font-family="Times,serif" font-size="14.00">:app:shared</text>
</g>
<!-- :app:desktopApp&#45;&gt;:app:shared -->
<g id="edge1" class="edge">
<title>:app:desktopApp&#45;&gt;:app:shared</title>
<path fill="none" stroke="black" d="M341.15,-76.98C288,-66.49 209.16,-50.69 140.64,-36 135.34,-34.86 129.83,-33.66 124.32,-32.44"/>
<polygon fill="black" stroke="black" points="124.95,-28.99 114.42,-30.23 123.42,-35.82 124.95,-28.99"/>
</g>
<!-- :core:data -->
<g id="node3" class="node">
<title>:core:data</title>
<ellipse fill="none" stroke="black" cx="206.64" cy="-18" rx="57.39" ry="18"/>
<text text-anchor="middle" x="206.64" y="-14.3" font-family="Times,serif" font-size="14.00">:core:data</text>
</g>
<!-- :app:desktopApp&#45;&gt;:core:data -->
<g id="edge2" class="edge">
<title>:app:desktopApp&#45;&gt;:core:data</title>
<path fill="none" stroke="black" d="M360.6,-73.98C328.89,-62.66 285.44,-47.14 252.79,-35.48"/>
<polygon fill="black" stroke="black" points="253.62,-32.06 243.02,-31.99 251.26,-38.65 253.62,-32.06"/>
</g>
<!-- :core:lmu&#45;windows&#45;data -->
<g id="node4" class="node">
<title>:core:lmu&#45;windows&#45;data</title>
<ellipse fill="none" stroke="black" cx="402.64" cy="-18" rx="120.78" ry="18"/>
<text text-anchor="middle" x="402.64" y="-14.3" font-family="Times,serif" font-size="14.00">:core:lmu&#45;windows&#45;data</text>
</g>
<!-- :app:desktopApp&#45;&gt;:core:lmu&#45;windows&#45;data -->
<g id="edge3" class="edge">
<title>:app:desktopApp&#45;&gt;:core:lmu&#45;windows&#45;data</title>
<path fill="none" stroke="black" d="M402.64,-71.7C402.64,-63.98 402.64,-54.71 402.64,-46.11"/>
<polygon fill="black" stroke="black" points="406.14,-46.1 402.64,-36.1 399.14,-46.1 406.14,-46.1"/>
</g>
<!-- :core:gt7&#45;ps5&#45;data -->
<g id="node5" class="node">
<title>:core:gt7&#45;ps5&#45;data</title>
<ellipse fill="none" stroke="black" cx="636.64" cy="-18" rx="94.78" ry="18"/>
<text text-anchor="middle" x="636.64" y="-14.3" font-family="Times,serif" font-size="14.00">:core:gt7&#45;ps5&#45;data</text>
</g>
<!-- :app:desktopApp&#45;&gt;:core:gt7&#45;ps5&#45;data -->
<g id="edge4" class="edge">
<title>:app:desktopApp&#45;&gt;:core:gt7&#45;ps5&#45;data</title>
<path fill="none" stroke="black" d="M450.28,-74.75C487.24,-63.69 538.64,-48.32 578.11,-36.51"/>
<polygon fill="black" stroke="black" points="579.29,-39.81 587.87,-33.59 577.28,-33.1 579.29,-39.81"/>
</g>
<!-- :server -->
<g id="node6" class="node">
<title>:server</title>
<ellipse fill="none" stroke="black" cx="792.64" cy="-18" rx="43.59" ry="18"/>
<text text-anchor="middle" x="792.64" y="-14.3" font-family="Times,serif" font-size="14.00">:server</text>
</g>
<!-- :app:desktopApp&#45;&gt;:server -->
<g id="edge5" class="edge">
<title>:app:desktopApp&#45;&gt;:server</title>
<path fill="none" stroke="black" d="M478.5,-80.64C547.45,-72.21 651.7,-57.37 740.64,-36 744.03,-35.19 747.5,-34.26 750.98,-33.27"/>
<polygon fill="black" stroke="black" points="752.14,-36.57 760.7,-30.33 750.11,-29.87 752.14,-36.57"/>
</g>
</g>
</svg>
