<?xml version="1.0" encoding="UTF-8" standalone="no"?>
<!DOCTYPE svg PUBLIC "-//W3C//DTD SVG 1.1//EN"
 "http://www.w3.org/Graphics/SVG/1.1/DTD/svg11.dtd">
<!-- Generated by graphviz version 2.43.0 (0)
 -->
<!-- Title: G Pages: 1 -->
<svg width="327pt" height="188pt"
 viewBox="0.00 0.00 327.49 188.00" xmlns="http://www.w3.org/2000/svg" xmlns:xlink="http://www.w3.org/1999/xlink">
<g id="graph0" class="graph" transform="scale(1 1) rotate(0) translate(4 184)">
<title>G</title>
<polygon fill="white" stroke="transparent" points="-4,4 -4,-184 323.49,-184 323.49,4 -4,4"/>
<!-- :app:desktopApp -->
<g id="node1" class="node">
<title>:app:desktopApp</title>
<ellipse fill="none" stroke="black" cx="206.64" cy="-162" rx="88.28" ry="18"/>
<text text-anchor="middle" x="206.64" y="-158.3" font-family="Times,serif" font-size="14.00">:app:desktopApp</text>
</g>
<!-- :app:shared -->
<g id="node2" class="node">
<title>:app:shared</title>
<ellipse fill="none" stroke="black" cx="65.64" cy="-90" rx="65.79" ry="18"/>
<text text-anchor="middle" x="65.64" y="-86.3" font-family="Times,serif" font-size="14.00">:app:shared</text>
</g>
<!-- :app:desktopApp&#45;&gt;:app:shared -->
<g id="edge1" class="edge">
<title>:app:desktopApp&#45;&gt;:app:shared</title>
<path fill="none" stroke="black" d="M174.65,-145.12C154.03,-134.88 127.08,-121.5 105.13,-110.6"/>
<polygon fill="black" stroke="black" points="106.58,-107.41 96.06,-106.1 103.46,-113.68 106.58,-107.41"/>
</g>
<!-- :core:data -->
<g id="node3" class="node">
<title>:core:data</title>
<ellipse fill="none" stroke="black" cx="206.64" cy="-90" rx="57.39" ry="18"/>
<text text-anchor="middle" x="206.64" y="-86.3" font-family="Times,serif" font-size="14.00">:core:data</text>
</g>
<!-- :app:desktopApp&#45;&gt;:core:data -->
<g id="edge2" class="edge">
<title>:app:desktopApp&#45;&gt;:core:data</title>
<path fill="none" stroke="black" d="M206.64,-143.7C206.64,-135.98 206.64,-126.71 206.64,-118.11"/>
<polygon fill="black" stroke="black" points="210.14,-118.1 206.64,-108.1 203.14,-118.1 210.14,-118.1"/>
</g>
<!-- :core:domain -->
<g id="node4" class="node">
<title>:core:domain</title>
<ellipse fill="none" stroke="black" cx="248.64" cy="-18" rx="70.69" ry="18"/>
<text text-anchor="middle" x="248.64" y="-14.3" font-family="Times,serif" font-size="14.00">:core:domain</text>
</g>
<!-- :app:desktopApp&#45;&gt;:core:domain -->
<g id="edge3" class="edge">
<title>:app:desktopApp&#45;&gt;:core:domain</title>
<path fill="none" stroke="black" d="M236.97,-145.03C250.54,-136.12 265.15,-123.64 272.64,-108 282.31,-87.85 274.28,-63.2 265,-44.95"/>
<polygon fill="black" stroke="black" points="267.99,-43.13 260.11,-36.05 261.86,-46.5 267.99,-43.13"/>
</g>
<!-- :core:data&#45;&gt;:core:domain -->
<g id="edge4" class="edge">
<title>:core:data&#45;&gt;:core:domain</title>
<path fill="none" stroke="black" d="M216.81,-72.05C221.69,-63.92 227.65,-54 233.08,-44.94"/>
<polygon fill="black" stroke="black" points="236.14,-46.65 238.28,-36.28 230.13,-43.05 236.14,-46.65"/>
</g>
</g>
</svg>
