<?xml version="1.0" encoding="UTF-8" standalone="no"?>
<!DOCTYPE svg PUBLIC "-//W3C//DTD SVG 1.1//EN"
 "http://www.w3.org/Graphics/SVG/1.1/DTD/svg11.dtd">
<!-- Generated by graphviz version 2.43.0 (0)
 -->
<!-- Title: G Pages: 1 -->
<svg width="6791pt" height="260pt"
 viewBox="0.00 0.00 6790.74 260.00" xmlns="http://www.w3.org/2000/svg" xmlns:xlink="http://www.w3.org/1999/xlink">
<g id="graph0" class="graph" transform="scale(1 1) rotate(0) translate(4 256)">
<title>G</title>
<polygon fill="white" stroke="transparent" points="-4,4 -4,-256 6786.74,-256 6786.74,4 -4,4"/>
<!-- :app:androidApp -->
<g id="node1" class="node">
<title>:app:androidApp</title>
<ellipse fill="none" stroke="black" cx="2484.41" cy="-234" rx="87.18" ry="18"/>
<text text-anchor="middle" x="2484.41" y="-230.3" font-family="Times,serif" font-size="14.00">:app:androidApp</text>
</g>
<!-- :app:shared -->
<g id="node2" class="node">
<title>:app:shared</title>
<ellipse fill="none" stroke="black" cx="2677.41" cy="-162" rx="65.79" ry="18"/>
<text text-anchor="middle" x="2677.41" y="-158.3" font-family="Times,serif" font-size="14.00">:app:shared</text>
</g>
<!-- :app:androidApp&#45;&gt;:app:shared -->
<g id="edge1" class="edge">
<title>:app:androidApp&#45;&gt;:app:shared</title>
<path fill="none" stroke="black" d="M2525.81,-217.98C2556.33,-206.92 2597.9,-191.84 2629.79,-180.27"/>
<polygon fill="black" stroke="black" points="2631.15,-183.5 2639.35,-176.8 2628.76,-176.92 2631.15,-183.5"/>
</g>
<!-- :core:designsystem -->
<g id="node4" class="node">
<title>:core:designsystem</title>
<ellipse fill="none" stroke="black" cx="3407.41" cy="-18" rx="100.98" ry="18"/>
<text text-anchor="middle" x="3407.41" y="-14.3" font-family="Times,serif" font-size="14.00">:core:designsystem</text>
</g>
<!-- :app:shared&#45;&gt;:core:designsystem -->
<g id="edge3" class="edge">
<title>:app:shared&#45;&gt;:core:designsystem</title>
<path fill="none" stroke="black" d="M2611.69,-160.95C2205.77,-160.52 55.42,-155.95 8.41,-108 -2.79,-96.57 -2.81,-83.4 8.41,-72 37.93,-42.01 2714.64,-23.38 3296.57,-19.68"/>
<polygon fill="black" stroke="black" points="3296.66,-23.18 3306.64,-19.62 3296.62,-16.18 3296.66,-23.18"/>
</g>
<!-- :feature:main -->
<g id="node5" class="node">
<title>:feature:main</title>
<ellipse fill="none" stroke="black" cx="90.41" cy="-90" rx="73.39" ry="18"/>
<text text-anchor="middle" x="90.41" y="-86.3" font-family="Times,serif" font-size="14.00">:feature:main</text>
</g>
<!-- :app:shared&#45;&gt;:feature:main -->
<g id="edge4" class="edge">
<title>:app:shared&#45;&gt;:feature:main</title>
<path fill="none" stroke="black" d="M2611.78,-161.22C2267.38,-162.12 666.02,-163.2 173.41,-108 166.28,-107.2 158.84,-106.09 151.49,-104.81"/>
<polygon fill="black" stroke="black" points="152.01,-101.35 141.54,-102.98 150.74,-108.23 152.01,-101.35"/>
</g>
<!-- :feature:lmu&#45;windows&#45;connection -->
<g id="node6" class="node">
<title>:feature:lmu&#45;windows&#45;connection</title>
<ellipse fill="none" stroke="black" cx="346.41" cy="-90" rx="164.37" ry="18"/>
<text text-anchor="middle" x="346.41" y="-86.3" font-family="Times,serif" font-size="14.00">:feature:lmu&#45;windows&#45;connection</text>
</g>
<!-- :app:shared&#45;&gt;:feature:lmu&#45;windows&#45;connection -->
<g id="edge5" class="edge">
<title>:app:shared&#45;&gt;:feature:lmu&#45;windows&#45;connection</title>
<path fill="none" stroke="black" d="M2611.59,-161.13C2348.17,-161.28 1344.38,-158.31 520.41,-108 503.7,-106.98 486.1,-105.61 468.79,-104.09"/>
<polygon fill="black" stroke="black" points="468.91,-100.58 458.64,-103.18 468.28,-107.56 468.91,-100.58"/>
</g>
<!-- :feature:gt7&#45;ps5&#45;connection -->
<g id="node7" class="node">
<title>:feature:gt7&#45;ps5&#45;connection</title>
<ellipse fill="none" stroke="black" cx="667.41" cy="-90" rx="138.38" ry="18"/>
<text text-anchor="middle" x="667.41" y="-86.3" font-family="Times,serif" font-size="14.00">:feature:gt7&#45;ps5&#45;connection</text>
</g>
<!-- :app:shared&#45;&gt;:feature:gt7&#45;ps5&#45;connection -->
<g id="edge6" class="edge">
<title>:app:shared&#45;&gt;:feature:gt7&#45;ps5&#45;connection</title>
<path fill="none" stroke="black" d="M2611.76,-161.17C2371.48,-161.36 1517.41,-158.21 815.41,-108 801.47,-107 786.82,-105.67 772.39,-104.19"/>
<polygon fill="black" stroke="black" points="772.75,-100.7 762.44,-103.14 772.02,-107.67 772.75,-100.7"/>
</g>
<!-- :feature:server&#45;connection -->
<g id="node8" class="node">
<title>:feature:server&#45;connection</title>
<ellipse fill="none" stroke="black" cx="957.41" cy="-90" rx="133.48" ry="18"/>
<text text-anchor="middle" x="957.41" y="-86.3" font-family="Times,serif" font-size="14.00">:feature:server&#45;connection</text>
</g>
<!-- :app:shared&#45;&gt;:feature:server&#45;connection -->
<g id="edge7" class="edge">
<title>:app:shared&#45;&gt;:feature:server&#45;connection</title>
<path fill="none" stroke="black" d="M2611.58,-160.78C2395.04,-159.64 1685.29,-152.51 1100.41,-108 1087.07,-106.98 1073.06,-105.65 1059.24,-104.18"/>
<polygon fill="black" stroke="black" points="1059.55,-100.69 1049.22,-103.08 1058.78,-107.65 1059.55,-100.69"/>
</g>
<!-- :feature:lmu&#45;windows&#45;narrator -->
<g id="node9" class="node">
<title>:feature:lmu&#45;windows&#45;narrator</title>
<ellipse fill="none" stroke="black" cx="1262.41" cy="-90" rx="153.27" ry="18"/>
<text text-anchor="middle" x="1262.41" y="-86.3" font-family="Times,serif" font-size="14.00">:feature:lmu&#45;windows&#45;narrator</text>
</g>
<!-- :app:shared&#45;&gt;:feature:lmu&#45;windows&#45;narrator -->
<g id="edge8" class="edge">
<title>:app:shared&#45;&gt;:feature:lmu&#45;windows&#45;narrator</title>
<path fill="none" stroke="black" d="M2612.16,-159.66C2426.4,-155.52 1878.89,-141.21 1425.41,-108 1410.28,-106.89 1394.38,-105.51 1378.69,-104.01"/>
<polygon fill="black" stroke="black" points="1378.71,-100.5 1368.42,-103.01 1378.04,-107.46 1378.71,-100.5"/>
</g>
<!-- :feature:gt7&#45;ps5&#45;narrator -->
<g id="node10" class="node">
<title>:feature:gt7&#45;ps5&#45;narrator</title>
<ellipse fill="none" stroke="black" cx="1561.41" cy="-90" rx="127.28" ry="18"/>
<text text-anchor="middle" x="1561.41" y="-86.3" font-family="Times,serif" font-size="14.00">:feature:gt7&#45;ps5&#45;narrator</text>
</g>
<!-- :app:shared&#45;&gt;:feature:gt7&#45;ps5&#45;narrator -->
<g id="edge9" class="edge">
<title>:app:shared&#45;&gt;:feature:gt7&#45;ps5&#45;narrator</title>
<path fill="none" stroke="black" d="M2612.51,-159.07C2455.26,-154.05 2041.5,-138.77 1697.41,-108 1685.26,-106.91 1672.51,-105.58 1659.9,-104.14"/>
<polygon fill="black" stroke="black" points="1660.17,-100.65 1649.83,-102.97 1659.36,-107.6 1660.17,-100.65"/>
</g>
<!-- :feature:other&#45;license&#45;detail -->
<g id="node11" class="node">
<title>:feature:other&#45;license&#45;detail</title>
<ellipse fill="none" stroke="black" cx="1846.41" cy="-90" rx="139.98" ry="18"/>
<text text-anchor="middle" x="1846.41" y="-86.3" font-family="Times,serif" font-size="14.00">:feature:other&#45;license&#45;detail</text>
</g>
<!-- :app:shared&#45;&gt;:feature:other&#45;license&#45;detail -->
<g id="edge10" class="edge">
<title>:app:shared&#45;&gt;:feature:other&#45;license&#45;detail</title>
<path fill="none" stroke="black" d="M2614.35,-156.86C2493.93,-148.79 2222.98,-129.82 1995.41,-108 1982.5,-106.76 1968.98,-105.36 1955.56,-103.91"/>
<polygon fill="black" stroke="black" points="1955.66,-100.4 1945.34,-102.79 1954.9,-107.36 1955.66,-100.4"/>
</g>
<!-- :feature:other&#45;list -->
<g id="node12" class="node">
<title>:feature:other&#45;list</title>
<ellipse fill="none" stroke="black" cx="2097.41" cy="-90" rx="92.88" ry="18"/>
<text text-anchor="middle" x="2097.41" y="-86.3" font-family="Times,serif" font-size="14.00">:feature:other&#45;list</text>
</g>
<!-- :app:shared&#45;&gt;:feature:other&#45;list -->
<g id="edge11" class="edge">
<title>:app:shared&#45;&gt;:feature:other&#45;list</title>
<path fill="none" stroke="black" d="M2616.16,-155.29C2525.09,-146.56 2348.69,-128.7 2199.41,-108 2191.17,-106.86 2182.56,-105.57 2174,-104.23"/>
<polygon fill="black" stroke="black" points="2174.42,-100.75 2163.99,-102.64 2173.32,-107.67 2174.42,-100.75"/>
</g>
<!-- :feature:other&#45;server&#45;ip&#45;detail -->
<g id="node13" class="node">
<title>:feature:other&#45;server&#45;ip&#45;detail</title>
<ellipse fill="none" stroke="black" cx="2357.41" cy="-90" rx="148.67" ry="18"/>
<text text-anchor="middle" x="2357.41" y="-86.3" font-family="Times,serif" font-size="14.00">:feature:other&#45;server&#45;ip&#45;detail</text>
</g>
<!-- :app:shared&#45;&gt;:feature:other&#45;server&#45;ip&#45;detail -->
<g id="edge12" class="edge">
<title>:app:shared&#45;&gt;:feature:other&#45;server&#45;ip&#45;detail</title>
<path fill="none" stroke="black" d="M2627.76,-150.14C2576.46,-138.92 2495.65,-121.24 2435.73,-108.13"/>
<polygon fill="black" stroke="black" points="2436.44,-104.7 2425.92,-105.99 2434.94,-111.54 2436.44,-104.7"/>
</g>
<!-- :feature:other&#45;console&#45;ip&#45;detail -->
<g id="node14" class="node">
<title>:feature:other&#45;console&#45;ip&#45;detail</title>
<ellipse fill="none" stroke="black" cx="2677.41" cy="-90" rx="153.27" ry="18"/>
<text text-anchor="middle" x="2677.41" y="-86.3" font-family="Times,serif" font-size="14.00">:feature:other&#45;console&#45;ip&#45;detail</text>
</g>
<!-- :app:shared&#45;&gt;:feature:other&#45;console&#45;ip&#45;detail -->
<g id="edge13" class="edge">
<title>:app:shared&#45;&gt;:feature:other&#45;console&#45;ip&#45;detail</title>
<path fill="none" stroke="black" d="M2677.41,-143.7C2677.41,-135.98 2677.41,-126.71 2677.41,-118.11"/>
<polygon fill="black" stroke="black" points="2680.91,-118.1 2677.41,-108.1 2673.91,-118.1 2680.91,-118.1"/>
</g>
<!-- :feature:other&#45;readout&#45;start&#45;sound&#45;detail -->
<g id="node15" class="node">
<title>:feature:other&#45;readout&#45;start&#45;sound&#45;detail</title>
<ellipse fill="none" stroke="black" cx="3048.41" cy="-90" rx="199.56" ry="18"/>
<text text-anchor="middle" x="3048.41" y="-86.3" font-family="Times,serif" font-size="14.00">:feature:other&#45;readout&#45;start&#45;sound&#45;detail</text>
</g>
<!-- :app:shared&#45;&gt;:feature:other&#45;readout&#45;start&#45;sound&#45;detail -->
<g id="edge14" class="edge">
<title>:app:shared&#45;&gt;:feature:other&#45;readout&#45;start&#45;sound&#45;detail</title>
<path fill="none" stroke="black" d="M2729.78,-151.12C2788.63,-140.02 2885.27,-121.78 2956.71,-108.3"/>
<polygon fill="black" stroke="black" points="2957.44,-111.73 2966.62,-106.43 2956.14,-104.85 2957.44,-111.73"/>
</g>
<!-- :feature:other&#45;volume&#45;detail -->
<g id="node16" class="node">
<title>:feature:other&#45;volume&#45;detail</title>
<ellipse fill="none" stroke="black" cx="3407.41" cy="-90" rx="141.07" ry="18"/>
<text text-anchor="middle" x="3407.41" y="-86.3" font-family="Times,serif" font-size="14.00">:feature:other&#45;volume&#45;detail</text>
</g>
<!-- :app:shared&#45;&gt;:feature:other&#45;volume&#45;detail -->
<g id="edge15" class="edge">
<title>:app:shared&#45;&gt;:feature:other&#45;volume&#45;detail</title>
<path fill="none" stroke="black" d="M2739.26,-155.79C2845.34,-146.76 3068.81,-127.3 3257.41,-108 3270.19,-106.69 3283.57,-105.26 3296.86,-103.8"/>
<polygon fill="black" stroke="black" points="3297.43,-107.26 3306.99,-102.69 3296.67,-100.3 3297.43,-107.26"/>
</g>
<!-- :feature:telemetry&#45;log&#45;list -->
<g id="node17" class="node">
<title>:feature:telemetry&#45;log&#45;list</title>
<ellipse fill="none" stroke="black" cx="3696.41" cy="-90" rx="129.98" ry="18"/>
<text text-anchor="middle" x="3696.41" y="-86.3" font-family="Times,serif" font-size="14.00">:feature:telemetry&#45;log&#45;list</text>
</g>
<!-- :app:shared&#45;&gt;:feature:telemetry&#45;log&#45;list -->
<g id="edge16" class="edge">
<title>:app:shared&#45;&gt;:feature:telemetry&#45;log&#45;list</title>
<path fill="none" stroke="black" d="M2741.83,-158.48C2887.39,-152.49 3252.76,-135.78 3557.41,-108 3569.73,-106.88 3582.65,-105.53 3595.44,-104.09"/>
<polygon fill="black" stroke="black" points="3596.12,-107.53 3605.65,-102.92 3595.32,-100.58 3596.12,-107.53"/>
</g>
<!-- :feature:telemetry&#45;log&#45;detail -->
<g id="node18" class="node">
<title>:feature:telemetry&#45;log&#45;detail</title>
<ellipse fill="none" stroke="black" cx="3986.41" cy="-90" rx="141.88" ry="18"/>
<text text-anchor="middle" x="3986.41" y="-86.3" font-family="Times,serif" font-size="14.00">:feature:telemetry&#45;log&#45;detail</text>
</g>
<!-- :app:shared&#45;&gt;:feature:telemetry&#45;log&#45;detail -->
<g id="edge17" class="edge">
<title>:app:shared&#45;&gt;:feature:telemetry&#45;log&#45;detail</title>
<path fill="none" stroke="black" d="M2742.48,-159.54C2918.7,-155.24 3419.87,-140.86 3835.41,-108 3849.17,-106.91 3863.6,-105.56 3877.87,-104.09"/>
<polygon fill="black" stroke="black" points="3878.64,-107.53 3888.22,-103.01 3877.91,-100.57 3878.64,-107.53"/>
</g>
<!-- :feature:readout&#45;list -->
<g id="node19" class="node">
<title>:feature:readout&#45;list</title>
<ellipse fill="none" stroke="black" cx="4250.41" cy="-90" rx="103.98" ry="18"/>
<text text-anchor="middle" x="4250.41" y="-86.3" font-family="Times,serif" font-size="14.00">:feature:readout&#45;list</text>
</g>
<!-- :app:shared&#45;&gt;:feature:readout&#45;list -->
<g id="edge18" class="edge">
<title>:app:shared&#45;&gt;:feature:readout&#45;list</title>
<path fill="none" stroke="black" d="M2743.06,-161.26C2949.05,-161.49 3600.75,-157.95 4137.41,-108 4147.52,-107.06 4158.09,-105.82 4168.55,-104.43"/>
<polygon fill="black" stroke="black" points="4169.09,-107.89 4178.52,-103.06 4168.14,-100.95 4169.09,-107.89"/>
</g>
<!-- :feature:lmu&#45;windows&#45;readout&#45;vehicle&#45;approach&#45;detail -->
<g id="node20" class="node">
<title>:feature:lmu&#45;windows&#45;readout&#45;vehicle&#45;approach&#45;detail</title>
<ellipse fill="none" stroke="black" cx="4633.41" cy="-90" rx="260.75" ry="18"/>
<text text-anchor="middle" x="4633.41" y="-86.3" font-family="Times,serif" font-size="14.00">:feature:lmu&#45;windows&#45;readout&#45;vehicle&#45;approach&#45;detail</text>
</g>
<!-- :app:shared&#45;&gt;:feature:lmu&#45;windows&#45;readout&#45;vehicle&#45;approach&#45;detail -->
<g id="edge19" class="edge">
<title>:app:shared&#45;&gt;:feature:lmu&#45;windows&#45;readout&#45;vehicle&#45;approach&#45;detail</title>
<path fill="none" stroke="black" d="M2742.54,-159.69C2967.44,-155.01 3732.28,-137.78 4363.41,-108 4389.41,-106.77 4416.81,-105.28 4443.78,-103.7"/>
<polygon fill="black" stroke="black" points="4444.32,-107.17 4454.09,-103.08 4443.9,-100.18 4444.32,-107.17"/>
</g>
<!-- :feature:lmu&#45;windows&#45;readout&#45;flag&#45;detail -->
<g id="node21" class="node">
<title>:feature:lmu&#45;windows&#45;readout&#45;flag&#45;detail</title>
<ellipse fill="none" stroke="black" cx="5111.41" cy="-90" rx="199.56" ry="18"/>
<text text-anchor="middle" x="5111.41" y="-86.3" font-family="Times,serif" font-size="14.00">:feature:lmu&#45;windows&#45;readout&#45;flag&#45;detail</text>
</g>
<!-- :app:shared&#45;&gt;:feature:lmu&#45;windows&#45;readout&#45;flag&#45;detail -->
<g id="edge20" class="edge">
<title>:app:shared&#45;&gt;:feature:lmu&#45;windows&#45;readout&#45;flag&#45;detail</title>
<path fill="none" stroke="black" d="M2743.02,-160.82C3011.2,-159.8 4050.28,-152.98 4903.41,-108 4923.54,-106.94 4944.75,-105.54 4965.62,-103.99"/>
<polygon fill="black" stroke="black" points="4966.12,-107.46 4975.82,-103.22 4965.59,-100.48 4966.12,-107.46"/>
</g>
<!-- :feature:lmu&#45;windows&#45;readout&#45;vehicle&#45;damage&#45;detail -->
<g id="node22" class="node">
<title>:feature:lmu&#45;windows&#45;readout&#45;vehicle&#45;damage&#45;detail</title>
<ellipse fill="none" stroke="black" cx="5583.41" cy="-90" rx="254.55" ry="18"/>
<text text-anchor="middle" x="5583.41" y="-86.3" font-family="Times,serif" font-size="14.00">:feature:lmu&#45;windows&#45;readout&#45;vehicle&#45;damage&#45;detail</text>
</g>
<!-- :app:shared&#45;&gt;:feature:lmu&#45;windows&#45;readout&#45;vehicle&#45;damage&#45;detail -->
<g id="edge21" class="edge">
<title>:app:shared&#45;&gt;:feature:lmu&#45;windows&#45;readout&#45;vehicle&#45;damage&#45;detail</title>
<path fill="none" stroke="black" d="M2743.08,-160.76C3040.78,-159.44 4293.58,-151.46 5320.41,-108 5346.35,-106.9 5373.72,-105.46 5400.6,-103.87"/>
<polygon fill="black" stroke="black" points="5401.1,-107.34 5410.88,-103.25 5400.69,-100.36 5401.1,-107.34"/>
</g>
<!-- :feature:gt7&#45;ps5&#45;readout&#45;my&#45;bestlap&#45;detail -->
<g id="node23" class="node">
<title>:feature:gt7&#45;ps5&#45;readout&#45;my&#45;bestlap&#45;detail</title>
<ellipse fill="none" stroke="black" cx="6064.41" cy="-90" rx="207.96" ry="18"/>
<text text-anchor="middle" x="6064.41" y="-86.3" font-family="Times,serif" font-size="14.00">:feature:gt7&#45;ps5&#45;readout&#45;my&#45;bestlap&#45;detail</text>
</g>
<!-- :app:shared&#45;&gt;:feature:gt7&#45;ps5&#45;readout&#45;my&#45;bestlap&#45;detail -->
<g id="edge22" class="edge">
<title>:app:shared&#45;&gt;:feature:gt7&#45;ps5&#45;readout&#45;my&#45;bestlap&#45;detail</title>
<path fill="none" stroke="black" d="M2743.07,-160.45C3138.93,-157.07 5211.87,-138.18 5847.41,-108 5868.85,-106.98 5891.46,-105.58 5913.66,-104.01"/>
<polygon fill="black" stroke="black" points="5914.11,-107.49 5923.83,-103.28 5913.61,-100.51 5914.11,-107.49"/>
</g>
<!-- :feature:gt7&#45;ps5&#45;readout&#45;remaining&#45;fuel&#45;laps&#45;detail -->
<g id="node24" class="node">
<title>:feature:gt7&#45;ps5&#45;readout&#45;remaining&#45;fuel&#45;laps&#45;detail</title>
<ellipse fill="none" stroke="black" cx="6536.41" cy="-90" rx="246.16" ry="18"/>
<text text-anchor="middle" x="6536.41" y="-86.3" font-family="Times,serif" font-size="14.00">:feature:gt7&#45;ps5&#45;readout&#45;remaining&#45;fuel&#45;laps&#45;detail</text>
</g>
<!-- :app:shared&#45;&gt;:feature:gt7&#45;ps5&#45;readout&#45;remaining&#45;fuel&#45;laps&#45;detail -->
<g id="edge23" class="edge">
<title>:app:shared&#45;&gt;:feature:gt7&#45;ps5&#45;readout&#45;remaining&#45;fuel&#45;laps&#45;detail</title>
<path fill="none" stroke="black" d="M2743.19,-161.31C3101.26,-162.7 4851.94,-166.12 6281.41,-108 6306.96,-106.96 6333.94,-105.53 6360.39,-103.93"/>
<polygon fill="black" stroke="black" points="6360.74,-107.42 6370.5,-103.31 6360.31,-100.43 6360.74,-107.42"/>
</g>
<!-- :app:desktopApp -->
<g id="node3" class="node">
<title>:app:desktopApp</title>
<ellipse fill="none" stroke="black" cx="2677.41" cy="-234" rx="88.28" ry="18"/>
<text text-anchor="middle" x="2677.41" y="-230.3" font-family="Times,serif" font-size="14.00">:app:desktopApp</text>
</g>
<!-- :app:desktopApp&#45;&gt;:app:shared -->
<g id="edge2" class="edge">
<title>:app:desktopApp&#45;&gt;:app:shared</title>
<path fill="none" stroke="black" d="M2677.41,-215.7C2677.41,-207.98 2677.41,-198.71 2677.41,-190.11"/>
<polygon fill="black" stroke="black" points="2680.91,-190.1 2677.41,-180.1 2673.91,-190.1 2680.91,-190.1"/>
</g>
<!-- :feature:lmu&#45;windows&#45;narrator&#45;&gt;:core:designsystem -->
<g id="edge28" class="edge">
<title>:feature:lmu&#45;windows&#45;narrator&#45;&gt;:core:designsystem</title>
<path fill="none" stroke="black" d="M1367.53,-76.83C1386.76,-74.95 1406.67,-73.23 1425.41,-72 2137.36,-25.42 2995.72,-19.53 3296.7,-18.97"/>
<polygon fill="black" stroke="black" points="3296.74,-22.47 3306.74,-18.95 3296.73,-15.47 3296.74,-22.47"/>
</g>
<!-- :feature:gt7&#45;ps5&#45;narrator&#45;&gt;:core:designsystem -->
<g id="edge25" class="edge">
<title>:feature:gt7&#45;ps5&#45;narrator&#45;&gt;:core:designsystem</title>
<path fill="none" stroke="black" d="M1648.71,-76.86C1664.88,-74.96 1681.64,-73.23 1697.41,-72 2299.31,-25.16 3023.42,-19.29 3296.23,-18.86"/>
<polygon fill="black" stroke="black" points="3296.53,-22.36 3306.53,-18.84 3296.52,-15.36 3296.53,-22.36"/>
</g>
<!-- :feature:other&#45;license&#45;detail&#45;&gt;:core:designsystem -->
<g id="edge33" class="edge">
<title>:feature:other&#45;license&#45;detail&#45;&gt;:core:designsystem</title>
<path fill="none" stroke="black" d="M1942.89,-76.91C1960.35,-75.03 1978.41,-73.29 1995.41,-72 2479.52,-35.35 3059,-23.69 3297.07,-20.29"/>
<polygon fill="black" stroke="black" points="3297.16,-23.79 3307.11,-20.15 3297.06,-16.79 3297.16,-23.79"/>
</g>
<!-- :feature:other&#45;list&#45;&gt;:core:designsystem -->
<g id="edge34" class="edge">
<title>:feature:other&#45;list&#45;&gt;:core:designsystem</title>
<path fill="none" stroke="black" d="M2162,-77.02C2174.38,-75.07 2187.27,-73.27 2199.41,-72 2602.02,-29.77 3083.54,-21.09 3296.63,-19.38"/>
<polygon fill="black" stroke="black" points="3296.91,-22.87 3306.88,-19.3 3296.85,-15.87 3296.91,-22.87"/>
</g>
<!-- :feature:other&#45;server&#45;ip&#45;detail&#45;&gt;:core:designsystem -->
<g id="edge36" class="edge">
<title>:feature:other&#45;server&#45;ip&#45;detail&#45;&gt;:core:designsystem</title>
<path fill="none" stroke="black" d="M2461.46,-77.09C2479.43,-75.24 2497.95,-73.46 2515.41,-72 2798.72,-48.36 3133.51,-31.4 3300.9,-23.68"/>
<polygon fill="black" stroke="black" points="3301.12,-27.17 3310.95,-23.22 3300.8,-20.18 3301.12,-27.17"/>
</g>
<!-- :feature:other&#45;console&#45;ip&#45;detail&#45;&gt;:core:designsystem -->
<g id="edge32" class="edge">
<title>:feature:other&#45;console&#45;ip&#45;detail&#45;&gt;:core:designsystem</title>
<path fill="none" stroke="black" d="M2786.76,-77.35C2804.36,-75.53 2822.39,-73.69 2839.41,-72 3004.2,-55.67 3196.03,-38.06 3309.28,-27.81"/>
<polygon fill="black" stroke="black" points="3309.68,-31.29 3319.32,-26.9 3309.05,-24.32 3309.68,-31.29"/>
</g>
<!-- :feature:other&#45;readout&#45;start&#45;sound&#45;detail&#45;&gt;:core:designsystem -->
<g id="edge35" class="edge">
<title>:feature:other&#45;readout&#45;start&#45;sound&#45;detail&#45;&gt;:core:designsystem</title>
<path fill="none" stroke="black" d="M3128.09,-73.46C3188.91,-61.6 3272.17,-45.37 3331.93,-33.72"/>
<polygon fill="black" stroke="black" points="3332.91,-37.09 3342.06,-31.74 3331.57,-30.22 3332.91,-37.09"/>
</g>
<!-- :feature:other&#45;volume&#45;detail&#45;&gt;:core:designsystem -->
<g id="edge37" class="edge">
<title>:feature:other&#45;volume&#45;detail&#45;&gt;:core:designsystem</title>
<path fill="none" stroke="black" d="M3407.41,-71.7C3407.41,-63.98 3407.41,-54.71 3407.41,-46.11"/>
<polygon fill="black" stroke="black" points="3410.91,-46.1 3407.41,-36.1 3403.91,-46.1 3410.91,-46.1"/>
</g>
<!-- :feature:telemetry&#45;log&#45;list&#45;&gt;:core:designsystem -->
<g id="edge40" class="edge">
<title>:feature:telemetry&#45;log&#45;list&#45;&gt;:core:designsystem</title>
<path fill="none" stroke="black" d="M3634.77,-74.07C3587.62,-62.65 3522.7,-46.92 3474.3,-35.2"/>
<polygon fill="black" stroke="black" points="3475.08,-31.79 3464.54,-32.84 3473.44,-38.59 3475.08,-31.79"/>
</g>
<!-- :feature:telemetry&#45;log&#45;detail&#45;&gt;:core:designsystem -->
<g id="edge39" class="edge">
<title>:feature:telemetry&#45;log&#45;detail&#45;&gt;:core:designsystem</title>
<path fill="none" stroke="black" d="M3887.54,-77.05C3778.49,-63.86 3604.5,-42.83 3498.62,-30.03"/>
<polygon fill="black" stroke="black" points="3498.94,-26.54 3488.59,-28.81 3498.1,-33.49 3498.94,-26.54"/>
</g>
<!-- :feature:readout&#45;list&#45;&gt;:core:designsystem -->
<g id="edge38" class="edge">
<title>:feature:readout&#45;list&#45;&gt;:core:designsystem</title>
<path fill="none" stroke="black" d="M4177.27,-77.16C4164.03,-75.25 4150.33,-73.44 4137.41,-72 3916.04,-47.35 3655.56,-31.61 3513.32,-24.13"/>
<polygon fill="black" stroke="black" points="3513.45,-20.63 3503.29,-23.61 3513.09,-27.62 3513.45,-20.63"/>
</g>
<!-- :feature:lmu&#45;windows&#45;readout&#45;vehicle&#45;approach&#45;detail&#45;&gt;:core:designsystem -->
<g id="edge30" class="edge">
<title>:feature:lmu&#45;windows&#45;readout&#45;vehicle&#45;approach&#45;detail&#45;&gt;:core:designsystem</title>
<path fill="none" stroke="black" d="M4449.33,-77.22C4420.57,-75.44 4391.19,-73.64 4363.41,-72 4054.14,-53.69 3688.46,-33.95 3512.44,-24.56"/>
<polygon fill="black" stroke="black" points="3512.58,-21.07 3502.41,-24.03 3512.21,-28.06 3512.58,-21.07"/>
</g>
<!-- :feature:lmu&#45;windows&#45;readout&#45;flag&#45;detail&#45;&gt;:core:designsystem -->
<g id="edge29" class="edge">
<title>:feature:lmu&#45;windows&#45;readout&#45;flag&#45;detail&#45;&gt;:core:designsystem</title>
<path fill="none" stroke="black" d="M4974.42,-76.9C4950.75,-75.07 4926.38,-73.34 4903.41,-72 4384.91,-41.64 3764.22,-26.38 3516.9,-21.15"/>
<polygon fill="black" stroke="black" points="3516.9,-17.65 3506.83,-20.94 3516.76,-24.65 3516.9,-17.65"/>
</g>
<!-- :feature:lmu&#45;windows&#45;readout&#45;vehicle&#45;damage&#45;detail&#45;&gt;:core:designsystem -->
<g id="edge31" class="edge">
<title>:feature:lmu&#45;windows&#45;readout&#45;vehicle&#45;damage&#45;detail&#45;&gt;:core:designsystem</title>
<path fill="none" stroke="black" d="M5409.45,-76.85C5379.76,-75.03 5349.21,-73.33 5320.41,-72 4635.09,-40.37 3810.73,-25.28 3517.5,-20.63"/>
<polygon fill="black" stroke="black" points="3517.34,-17.13 3507.29,-20.47 3517.23,-24.13 3517.34,-17.13"/>
</g>
<!-- :feature:gt7&#45;ps5&#45;readout&#45;my&#45;bestlap&#45;detail&#45;&gt;:core:designsystem -->
<g id="edge26" class="edge">
<title>:feature:gt7&#45;ps5&#45;readout&#45;my&#45;bestlap&#45;detail&#45;&gt;:core:designsystem</title>
<path fill="none" stroke="black" d="M5923.24,-76.78C5898.01,-74.93 5871.94,-73.23 5847.41,-72 4949.29,-27.1 3863.34,-20.22 3518.25,-19.18"/>
<polygon fill="black" stroke="black" points="3518.02,-15.68 3508.01,-19.15 3518,-22.68 3518.02,-15.68"/>
</g>
<!-- :feature:gt7&#45;ps5&#45;readout&#45;remaining&#45;fuel&#45;laps&#45;detail&#45;&gt;:core:designsystem -->
<g id="edge27" class="edge">
<title>:feature:gt7&#45;ps5&#45;readout&#45;remaining&#45;fuel&#45;laps&#45;detail&#45;&gt;:core:designsystem</title>
<path fill="none" stroke="black" d="M6369.82,-76.74C6340.38,-74.9 6310,-73.22 6281.41,-72 5205.53,-26.24 3901.44,-19.97 3518.26,-19.13"/>
<polygon fill="black" stroke="black" points="3518.02,-15.62 3508.01,-19.1 3518,-22.62 3518.02,-15.62"/>
</g>
<!-- :app:webApp -->
<g id="node25" class="node">
<title>:app:webApp</title>
<ellipse fill="none" stroke="black" cx="2854.41" cy="-234" rx="70.69" ry="18"/>
<text text-anchor="middle" x="2854.41" y="-230.3" font-family="Times,serif" font-size="14.00">:app:webApp</text>
</g>
<!-- :app:webApp&#45;&gt;:app:shared -->
<g id="edge24" class="edge">
<title>:app:webApp&#45;&gt;:app:shared</title>
<path fill="none" stroke="black" d="M2817.74,-218.5C2790.17,-207.59 2752.25,-192.6 2722.78,-180.94"/>
<polygon fill="black" stroke="black" points="2723.72,-177.55 2713.13,-177.13 2721.14,-184.06 2723.72,-177.55"/>
</g>
</g>
</svg>
