<?xml version="1.0" encoding="UTF-8" standalone="no"?>
<!DOCTYPE svg PUBLIC "-//W3C//DTD SVG 1.1//EN"
 "http://www.w3.org/Graphics/SVG/1.1/DTD/svg11.dtd">
<!-- Generated by graphviz version 2.43.0 (0)
 -->
<!-- Title: G Pages: 1 -->
<svg width="1000pt" height="260pt"
 viewBox="0.00 0.00 999.52 260.00" xmlns="http://www.w3.org/2000/svg" xmlns:xlink="http://www.w3.org/1999/xlink">
<g id="graph0" class="graph" transform="scale(1 1) rotate(0) translate(4 256)">
<title>G</title>
<polygon fill="white" stroke="transparent" points="-4,4 -4,-256 995.52,-256 995.52,4 -4,4"/>
<!-- :app:androidApp -->
<g id="node1" class="node">
<title>:app:androidApp</title>
<ellipse fill="none" stroke="black" cx="185.99" cy="-234" rx="87.18" ry="18"/>
<text text-anchor="middle" x="185.99" y="-230.3" font-family="Times,serif" font-size="14.00">:app:androidApp</text>
</g>
<!-- :app:shared -->
<g id="node2" class="node">
<title>:app:shared</title>
<ellipse fill="none" stroke="black" cx="553.99" cy="-162" rx="65.79" ry="18"/>
<text text-anchor="middle" x="553.99" y="-158.3" font-family="Times,serif" font-size="14.00">:app:shared</text>
</g>
<!-- :app:androidApp&#45;&gt;:app:shared -->
<g id="edge1" class="edge">
<title>:app:androidApp&#45;&gt;:app:shared</title>
<path fill="none" stroke="black" d="M248,-221.2C315.71,-208.33 423.52,-187.82 491.44,-174.9"/>
<polygon fill="black" stroke="black" points="492.4,-178.28 501.57,-172.97 491.09,-171.4 492.4,-178.28"/>
</g>
<!-- :core:domain -->
<g id="node3" class="node">
<title>:core:domain</title>
<ellipse fill="none" stroke="black" cx="553.99" cy="-18" rx="70.69" ry="18"/>
<text text-anchor="middle" x="553.99" y="-14.3" font-family="Times,serif" font-size="14.00">:core:domain</text>
</g>
<!-- :app:androidApp&#45;&gt;:core:domain -->
<g id="edge2" class="edge">
<title>:app:androidApp&#45;&gt;:core:domain</title>
<path fill="none" stroke="black" d="M146.72,-217.82C80.97,-190.3 -39.31,-129.67 12.99,-72 43.33,-38.55 330.73,-25.49 473.84,-21.03"/>
<polygon fill="black" stroke="black" points="474,-24.53 483.89,-20.72 473.78,-17.53 474,-24.53"/>
</g>
<!-- :app:shared&#45;&gt;:core:domain -->
<g id="edge10" class="edge">
<title>:app:shared&#45;&gt;:core:domain</title>
<path fill="none" stroke="black" d="M553.99,-143.87C553.99,-119.67 553.99,-75.21 553.99,-46.39"/>
<polygon fill="black" stroke="black" points="557.49,-46.19 553.99,-36.19 550.49,-46.19 557.49,-46.19"/>
</g>
<!-- :feature:readout -->
<g id="node5" class="node">
<title>:feature:readout</title>
<ellipse fill="none" stroke="black" cx="883.99" cy="-90" rx="86.38" ry="18"/>
<text text-anchor="middle" x="883.99" y="-86.3" font-family="Times,serif" font-size="14.00">:feature:readout</text>
</g>
<!-- :app:shared&#45;&gt;:feature:readout -->
<g id="edge8" class="edge">
<title>:app:shared&#45;&gt;:feature:readout</title>
<path fill="none" stroke="black" d="M604.11,-150.37C660.68,-138.37 753,-118.79 816.02,-105.42"/>
<polygon fill="black" stroke="black" points="816.82,-108.83 825.88,-103.33 815.37,-101.98 816.82,-108.83"/>
</g>
<!-- :feature:announcer -->
<g id="node6" class="node">
<title>:feature:announcer</title>
<ellipse fill="none" stroke="black" cx="680.99" cy="-90" rx="98.58" ry="18"/>
<text text-anchor="middle" x="680.99" y="-86.3" font-family="Times,serif" font-size="14.00">:feature:announcer</text>
</g>
<!-- :app:shared&#45;&gt;:feature:announcer -->
<g id="edge6" class="edge">
<title>:app:shared&#45;&gt;:feature:announcer</title>
<path fill="none" stroke="black" d="M581.86,-145.64C599.64,-135.84 622.92,-123.01 642.45,-112.24"/>
<polygon fill="black" stroke="black" points="644.35,-115.19 651.42,-107.3 640.97,-109.06 644.35,-115.19"/>
</g>
<!-- :feature:other -->
<g id="node7" class="node">
<title>:feature:other</title>
<ellipse fill="none" stroke="black" cx="96.99" cy="-90" rx="75.29" ry="18"/>
<text text-anchor="middle" x="96.99" y="-86.3" font-family="Times,serif" font-size="14.00">:feature:other</text>
</g>
<!-- :app:shared&#45;&gt;:feature:other -->
<g id="edge7" class="edge">
<title>:app:shared&#45;&gt;:feature:other</title>
<path fill="none" stroke="black" d="M495.36,-153.75C421.75,-144.4 291.7,-127.05 180.99,-108 174.74,-106.92 168.23,-105.73 161.74,-104.5"/>
<polygon fill="black" stroke="black" points="162.06,-101 151.58,-102.53 160.73,-107.87 162.06,-101"/>
</g>
<!-- :feature:readout&#45;vehicle&#45;approach -->
<g id="node8" class="node">
<title>:feature:readout&#45;vehicle&#45;approach</title>
<ellipse fill="none" stroke="black" cx="357.99" cy="-90" rx="167.87" ry="18"/>
<text text-anchor="middle" x="357.99" y="-86.3" font-family="Times,serif" font-size="14.00">:feature:readout&#45;vehicle&#45;approach</text>
</g>
<!-- :app:shared&#45;&gt;:feature:readout&#45;vehicle&#45;approach -->
<g id="edge9" class="edge">
<title>:app:shared&#45;&gt;:feature:readout&#45;vehicle&#45;approach</title>
<path fill="none" stroke="black" d="M515.73,-147.34C486.53,-136.91 445.89,-122.39 413.17,-110.71"/>
<polygon fill="black" stroke="black" points="414.32,-107.4 403.73,-107.33 411.97,-113.99 414.32,-107.4"/>
</g>
<!-- :app:desktopApp -->
<g id="node4" class="node">
<title>:app:desktopApp</title>
<ellipse fill="none" stroke="black" cx="883.99" cy="-234" rx="88.28" ry="18"/>
<text text-anchor="middle" x="883.99" y="-230.3" font-family="Times,serif" font-size="14.00">:app:desktopApp</text>
</g>
<!-- :app:desktopApp&#45;&gt;:app:shared -->
<g id="edge3" class="edge">
<title>:app:desktopApp&#45;&gt;:app:shared</title>
<path fill="none" stroke="black" d="M824.99,-220.49C765.5,-207.86 674.11,-188.48 614.19,-175.77"/>
<polygon fill="black" stroke="black" points="614.62,-172.28 604.11,-173.63 613.17,-179.13 614.62,-172.28"/>
</g>
<!-- :app:desktopApp&#45;&gt;:core:domain -->
<g id="edge4" class="edge">
<title>:app:desktopApp&#45;&gt;:core:domain</title>
<path fill="none" stroke="black" d="M906.88,-216.36C946.56,-185.57 1020.13,-118.59 978.99,-72 956.51,-46.54 749.57,-30.42 632.97,-23.28"/>
<polygon fill="black" stroke="black" points="632.86,-19.77 622.67,-22.66 632.44,-26.76 632.86,-19.77"/>
</g>
<!-- :app:desktopApp&#45;&gt;:feature:readout -->
<g id="edge5" class="edge">
<title>:app:desktopApp&#45;&gt;:feature:readout</title>
<path fill="none" stroke="black" d="M883.99,-215.87C883.99,-191.67 883.99,-147.21 883.99,-118.39"/>
<polygon fill="black" stroke="black" points="887.49,-118.19 883.99,-108.19 880.49,-118.19 887.49,-118.19"/>
</g>
<!-- :feature:readout&#45;&gt;:core:domain -->
<g id="edge14" class="edge">
<title>:feature:readout&#45;&gt;:core:domain</title>
<path fill="none" stroke="black" d="M825.75,-76.65C767.07,-64.2 676.81,-45.05 616.61,-32.28"/>
<polygon fill="black" stroke="black" points="616.99,-28.79 606.48,-30.13 615.53,-35.63 616.99,-28.79"/>
</g>
<!-- :feature:announcer&#45;&gt;:core:domain -->
<g id="edge12" class="edge">
<title>:feature:announcer&#45;&gt;:core:domain</title>
<path fill="none" stroke="black" d="M651.53,-72.76C633.57,-62.86 610.44,-50.12 591.22,-39.52"/>
<polygon fill="black" stroke="black" points="592.86,-36.43 582.41,-34.67 589.48,-42.56 592.86,-36.43"/>
</g>
<!-- :feature:other&#45;&gt;:core:domain -->
<g id="edge13" class="edge">
<title>:feature:other&#45;&gt;:core:domain</title>
<path fill="none" stroke="black" d="M151.58,-77.47C161.35,-75.54 171.46,-73.64 180.99,-72 285.03,-54.1 406.16,-37.7 481.46,-28.03"/>
<polygon fill="black" stroke="black" points="482.3,-31.45 491.78,-26.71 481.41,-24.51 482.3,-31.45"/>
</g>
<!-- :feature:readout&#45;vehicle&#45;approach&#45;&gt;:core:domain -->
<g id="edge15" class="edge">
<title>:feature:readout&#45;vehicle&#45;approach&#45;&gt;:core:domain</title>
<path fill="none" stroke="black" d="M403.94,-72.59C434.27,-61.76 473.96,-47.58 504.9,-36.53"/>
<polygon fill="black" stroke="black" points="506.37,-39.72 514.61,-33.06 504.02,-33.13 506.37,-39.72"/>
</g>
<!-- :app:webApp -->
<g id="node9" class="node">
<title>:app:webApp</title>
<ellipse fill="none" stroke="black" cx="553.99" cy="-234" rx="70.69" ry="18"/>
<text text-anchor="middle" x="553.99" y="-230.3" font-family="Times,serif" font-size="14.00">:app:webApp</text>
</g>
<!-- :app:webApp&#45;&gt;:app:shared -->
<g id="edge11" class="edge">
<title>:app:webApp&#45;&gt;:app:shared</title>
<path fill="none" stroke="black" d="M553.99,-215.7C553.99,-207.98 553.99,-198.71 553.99,-190.11"/>
<polygon fill="black" stroke="black" points="557.49,-190.1 553.99,-180.1 550.49,-190.1 557.49,-190.1"/>
</g>
</g>
</svg>
