<?xml version="1.0" encoding="UTF-8" standalone="no"?>
<!DOCTYPE svg PUBLIC "-//W3C//DTD SVG 1.1//EN"
 "http://www.w3.org/Graphics/SVG/1.1/DTD/svg11.dtd">
<!-- Generated by graphviz version 2.43.0 (0)
 -->
<!-- Title: G Pages: 1 -->
<svg width="3791pt" height="260pt"
 viewBox="0.00 0.00 3791.12 260.00" xmlns="http://www.w3.org/2000/svg" xmlns:xlink="http://www.w3.org/1999/xlink">
<g id="graph0" class="graph" transform="scale(1 1) rotate(0) translate(4 256)">
<title>G</title>
<polygon fill="white" stroke="transparent" points="-4,4 -4,-256 3787.12,-256 3787.12,4 -4,4"/>
<!-- :app:androidApp -->
<g id="node1" class="node">
<title>:app:androidApp</title>
<ellipse fill="none" stroke="black" cx="1301.34" cy="-234" rx="87.18" ry="18"/>
<text text-anchor="middle" x="1301.34" y="-230.3" font-family="Times,serif" font-size="14.00">:app:androidApp</text>
</g>
<!-- :app:shared -->
<g id="node2" class="node">
<title>:app:shared</title>
<ellipse fill="none" stroke="black" cx="1494.34" cy="-162" rx="65.79" ry="18"/>
<text text-anchor="middle" x="1494.34" y="-158.3" font-family="Times,serif" font-size="14.00">:app:shared</text>
</g>
<!-- :app:androidApp&#45;&gt;:app:shared -->
<g id="edge1" class="edge">
<title>:app:androidApp&#45;&gt;:app:shared</title>
<path fill="none" stroke="black" d="M1342.74,-217.98C1373.26,-206.92 1414.83,-191.84 1446.72,-180.27"/>
<polygon fill="black" stroke="black" points="1448.07,-183.5 1456.28,-176.8 1445.69,-176.92 1448.07,-183.5"/>
</g>
<!-- :core:domain -->
<g id="node4" class="node">
<title>:core:domain</title>
<ellipse fill="none" stroke="black" cx="1624.34" cy="-18" rx="70.69" ry="18"/>
<text text-anchor="middle" x="1624.34" y="-14.3" font-family="Times,serif" font-size="14.00">:core:domain</text>
</g>
<!-- :app:shared&#45;&gt;:core:domain -->
<g id="edge3" class="edge">
<title>:app:shared&#45;&gt;:core:domain</title>
<path fill="none" stroke="black" d="M1428.65,-161.17C1147.58,-161.56 58.28,-159.75 8.34,-108 -2.77,-96.49 -2.79,-83.5 8.34,-72 62.17,-16.38 1223.25,-17.26 1543.29,-18.57"/>
<polygon fill="black" stroke="black" points="1543.4,-22.07 1553.42,-18.61 1543.43,-15.07 1543.4,-22.07"/>
</g>
<!-- :feature:lmu&#45;windows&#45;connection -->
<g id="node5" class="node">
<title>:feature:lmu&#45;windows&#45;connection</title>
<ellipse fill="none" stroke="black" cx="181.34" cy="-90" rx="164.37" ry="18"/>
<text text-anchor="middle" x="181.34" y="-86.3" font-family="Times,serif" font-size="14.00">:feature:lmu&#45;windows&#45;connection</text>
</g>
<!-- :app:shared&#45;&gt;:feature:lmu&#45;windows&#45;connection -->
<g id="edge4" class="edge">
<title>:app:shared&#45;&gt;:feature:lmu&#45;windows&#45;connection</title>
<path fill="none" stroke="black" d="M1429.42,-159.14C1255.32,-153.89 763.56,-137.42 355.34,-108 339.29,-106.84 322.44,-105.44 305.79,-103.93"/>
<polygon fill="black" stroke="black" points="305.73,-100.42 295.46,-102.99 305.1,-107.39 305.73,-100.42"/>
</g>
<!-- :feature:server&#45;connection -->
<g id="node6" class="node">
<title>:feature:server&#45;connection</title>
<ellipse fill="none" stroke="black" cx="497.34" cy="-90" rx="133.48" ry="18"/>
<text text-anchor="middle" x="497.34" y="-86.3" font-family="Times,serif" font-size="14.00">:feature:server&#45;connection</text>
</g>
<!-- :app:shared&#45;&gt;:feature:server&#45;connection -->
<g id="edge5" class="edge">
<title>:app:shared&#45;&gt;:feature:server&#45;connection</title>
<path fill="none" stroke="black" d="M1429.97,-158.25C1287.49,-151.88 934.75,-134.61 640.34,-108 627.54,-106.84 614.12,-105.47 600.84,-104"/>
<polygon fill="black" stroke="black" points="601.05,-100.5 590.72,-102.87 600.27,-107.46 601.05,-100.5"/>
</g>
<!-- :feature:lmu&#45;windows&#45;narrator -->
<g id="node7" class="node">
<title>:feature:lmu&#45;windows&#45;narrator</title>
<ellipse fill="none" stroke="black" cx="802.34" cy="-90" rx="153.27" ry="18"/>
<text text-anchor="middle" x="802.34" y="-86.3" font-family="Times,serif" font-size="14.00">:feature:lmu&#45;windows&#45;narrator</text>
</g>
<!-- :app:shared&#45;&gt;:feature:lmu&#45;windows&#45;narrator -->
<g id="edge6" class="edge">
<title>:app:shared&#45;&gt;:feature:lmu&#45;windows&#45;narrator</title>
<path fill="none" stroke="black" d="M1433.52,-155.02C1334.98,-145.3 1134.29,-125.41 964.34,-108 950.76,-106.61 936.54,-105.14 922.4,-103.67"/>
<polygon fill="black" stroke="black" points="922.44,-100.15 912.13,-102.59 921.71,-107.11 922.44,-100.15"/>
</g>
<!-- :feature:other&#45;license&#45;detail -->
<g id="node8" class="node">
<title>:feature:other&#45;license&#45;detail</title>
<ellipse fill="none" stroke="black" cx="1113.34" cy="-90" rx="139.98" ry="18"/>
<text text-anchor="middle" x="1113.34" y="-86.3" font-family="Times,serif" font-size="14.00">:feature:other&#45;license&#45;detail</text>
</g>
<!-- :app:shared&#45;&gt;:feature:other&#45;license&#45;detail -->
<g id="edge7" class="edge">
<title>:app:shared&#45;&gt;:feature:other&#45;license&#45;detail</title>
<path fill="none" stroke="black" d="M1441.36,-151.27C1378.97,-139.8 1274.43,-120.6 1200.15,-106.95"/>
<polygon fill="black" stroke="black" points="1200.34,-103.43 1189.88,-105.06 1199.08,-110.31 1200.34,-103.43"/>
</g>
<!-- :feature:other&#45;list -->
<g id="node9" class="node">
<title>:feature:other&#45;list</title>
<ellipse fill="none" stroke="black" cx="1364.34" cy="-90" rx="92.88" ry="18"/>
<text text-anchor="middle" x="1364.34" y="-86.3" font-family="Times,serif" font-size="14.00">:feature:other&#45;list</text>
</g>
<!-- :app:shared&#45;&gt;:feature:other&#45;list -->
<g id="edge8" class="edge">
<title>:app:shared&#45;&gt;:feature:other&#45;list</title>
<path fill="none" stroke="black" d="M1465.81,-145.64C1447.4,-135.73 1423.23,-122.71 1403.09,-111.87"/>
<polygon fill="black" stroke="black" points="1404.62,-108.71 1394.16,-107.06 1401.3,-114.88 1404.62,-108.71"/>
</g>
<!-- :feature:other&#45;server&#45;ip&#45;detail -->
<g id="node10" class="node">
<title>:feature:other&#45;server&#45;ip&#45;detail</title>
<ellipse fill="none" stroke="black" cx="1624.34" cy="-90" rx="148.67" ry="18"/>
<text text-anchor="middle" x="1624.34" y="-86.3" font-family="Times,serif" font-size="14.00">:feature:other&#45;server&#45;ip&#45;detail</text>
</g>
<!-- :app:shared&#45;&gt;:feature:other&#45;server&#45;ip&#45;detail -->
<g id="edge9" class="edge">
<title>:app:shared&#45;&gt;:feature:other&#45;server&#45;ip&#45;detail</title>
<path fill="none" stroke="black" d="M1522.87,-145.64C1540.89,-135.94 1564.43,-123.26 1584.31,-112.56"/>
<polygon fill="black" stroke="black" points="1586,-115.62 1593.15,-107.8 1582.68,-109.45 1586,-115.62"/>
</g>
<!-- :feature:other&#45;volume&#45;detail -->
<g id="node11" class="node">
<title>:feature:other&#45;volume&#45;detail</title>
<ellipse fill="none" stroke="black" cx="1932.34" cy="-90" rx="141.07" ry="18"/>
<text text-anchor="middle" x="1932.34" y="-86.3" font-family="Times,serif" font-size="14.00">:feature:other&#45;volume&#45;detail</text>
</g>
<!-- :app:shared&#45;&gt;:feature:other&#45;volume&#45;detail -->
<g id="edge10" class="edge">
<title>:app:shared&#45;&gt;:feature:other&#45;volume&#45;detail</title>
<path fill="none" stroke="black" d="M1549.81,-152.13C1622.29,-140.55 1750.29,-120.09 1838.12,-106.06"/>
<polygon fill="black" stroke="black" points="1838.77,-109.5 1848.09,-104.46 1837.66,-102.59 1838.77,-109.5"/>
</g>
<!-- :feature:readout&#45;list -->
<g id="node12" class="node">
<title>:feature:readout&#45;list</title>
<ellipse fill="none" stroke="black" cx="2195.34" cy="-90" rx="103.98" ry="18"/>
<text text-anchor="middle" x="2195.34" y="-86.3" font-family="Times,serif" font-size="14.00">:feature:readout&#45;list</text>
</g>
<!-- :app:shared&#45;&gt;:feature:readout&#45;list -->
<g id="edge11" class="edge">
<title>:app:shared&#45;&gt;:feature:readout&#45;list</title>
<path fill="none" stroke="black" d="M1557.12,-156.57C1664.8,-148.7 1891.53,-130.93 2082.34,-108 2091.77,-106.87 2101.62,-105.56 2111.41,-104.19"/>
<polygon fill="black" stroke="black" points="2112.17,-107.62 2121.57,-102.74 2111.18,-100.69 2112.17,-107.62"/>
</g>
<!-- :feature:lmu&#45;windows&#45;readout&#45;vehicle&#45;approach&#45;detail -->
<g id="node13" class="node">
<title>:feature:lmu&#45;windows&#45;readout&#45;vehicle&#45;approach&#45;detail</title>
<ellipse fill="none" stroke="black" cx="2578.34" cy="-90" rx="260.75" ry="18"/>
<text text-anchor="middle" x="2578.34" y="-86.3" font-family="Times,serif" font-size="14.00">:feature:lmu&#45;windows&#45;readout&#45;vehicle&#45;approach&#45;detail</text>
</g>
<!-- :app:shared&#45;&gt;:feature:lmu&#45;windows&#45;readout&#45;vehicle&#45;approach&#45;detail -->
<g id="edge12" class="edge">
<title>:app:shared&#45;&gt;:feature:lmu&#45;windows&#45;readout&#45;vehicle&#45;approach&#45;detail</title>
<path fill="none" stroke="black" d="M1557.7,-156.91C1716.38,-146.66 2135.89,-119.57 2384.9,-103.49"/>
<polygon fill="black" stroke="black" points="2385.41,-106.97 2395.16,-102.83 2384.96,-99.98 2385.41,-106.97"/>
</g>
<!-- :feature:lmu&#45;windows&#45;readout&#45;flag&#45;detail -->
<g id="node14" class="node">
<title>:feature:lmu&#45;windows&#45;readout&#45;flag&#45;detail</title>
<ellipse fill="none" stroke="black" cx="3056.34" cy="-90" rx="199.56" ry="18"/>
<text text-anchor="middle" x="3056.34" y="-86.3" font-family="Times,serif" font-size="14.00">:feature:lmu&#45;windows&#45;readout&#45;flag&#45;detail</text>
</g>
<!-- :app:shared&#45;&gt;:feature:lmu&#45;windows&#45;readout&#45;flag&#45;detail -->
<g id="edge13" class="edge">
<title>:app:shared&#45;&gt;:feature:lmu&#45;windows&#45;readout&#45;flag&#45;detail</title>
<path fill="none" stroke="black" d="M1559.56,-159.43C1755.04,-154.51 2353.16,-137.91 2848.34,-108 2867.83,-106.82 2888.33,-105.39 2908.56,-103.86"/>
<polygon fill="black" stroke="black" points="2909.08,-107.33 2918.78,-103.07 2908.54,-100.35 2909.08,-107.33"/>
</g>
<!-- :feature:lmu&#45;windows&#45;readout&#45;vehicle&#45;damage&#45;detail -->
<g id="node15" class="node">
<title>:feature:lmu&#45;windows&#45;readout&#45;vehicle&#45;damage&#45;detail</title>
<ellipse fill="none" stroke="black" cx="3528.34" cy="-90" rx="254.55" ry="18"/>
<text text-anchor="middle" x="3528.34" y="-86.3" font-family="Times,serif" font-size="14.00">:feature:lmu&#45;windows&#45;readout&#45;vehicle&#45;damage&#45;detail</text>
</g>
<!-- :app:shared&#45;&gt;:feature:lmu&#45;windows&#45;readout&#45;vehicle&#45;damage&#45;detail -->
<g id="edge14" class="edge">
<title>:app:shared&#45;&gt;:feature:lmu&#45;windows&#45;readout&#45;vehicle&#45;damage&#45;detail</title>
<path fill="none" stroke="black" d="M1559.9,-159.86C1792.48,-155.63 2599.74,-139.46 3265.34,-108 3290.67,-106.8 3317.36,-105.33 3343.63,-103.75"/>
<polygon fill="black" stroke="black" points="3343.9,-107.24 3353.67,-103.14 3343.48,-100.25 3343.9,-107.24"/>
</g>
<!-- :app:desktopApp -->
<g id="node3" class="node">
<title>:app:desktopApp</title>
<ellipse fill="none" stroke="black" cx="1494.34" cy="-234" rx="88.28" ry="18"/>
<text text-anchor="middle" x="1494.34" y="-230.3" font-family="Times,serif" font-size="14.00">:app:desktopApp</text>
</g>
<!-- :app:desktopApp&#45;&gt;:app:shared -->
<g id="edge2" class="edge">
<title>:app:desktopApp&#45;&gt;:app:shared</title>
<path fill="none" stroke="black" d="M1494.34,-215.7C1494.34,-207.98 1494.34,-198.71 1494.34,-190.11"/>
<polygon fill="black" stroke="black" points="1497.84,-190.1 1494.34,-180.1 1490.84,-190.1 1497.84,-190.1"/>
</g>
<!-- :feature:lmu&#45;windows&#45;connection&#45;&gt;:core:domain -->
<g id="edge16" class="edge">
<title>:feature:lmu&#45;windows&#45;connection&#45;&gt;:core:domain</title>
<path fill="none" stroke="black" d="M294.98,-76.98C315.08,-75.12 335.81,-73.36 355.34,-72 803.98,-40.74 1343.22,-25.65 1543.94,-20.8"/>
<polygon fill="black" stroke="black" points="1544.19,-24.3 1554.1,-20.56 1544.02,-17.3 1544.19,-24.3"/>
</g>
<!-- :feature:server&#45;connection&#45;&gt;:core:domain -->
<g id="edge25" class="edge">
<title>:feature:server&#45;connection&#45;&gt;:core:domain</title>
<path fill="none" stroke="black" d="M590.33,-77.06C606.96,-75.18 624.15,-73.4 640.34,-72 975.5,-43.08 1376.32,-27.32 1544.2,-21.56"/>
<polygon fill="black" stroke="black" points="1544.56,-25.05 1554.44,-21.21 1544.32,-18.06 1544.56,-25.05"/>
</g>
<!-- :feature:lmu&#45;windows&#45;narrator&#45;&gt;:core:domain -->
<g id="edge17" class="edge">
<title>:feature:lmu&#45;windows&#45;narrator&#45;&gt;:core:domain</title>
<path fill="none" stroke="black" d="M910.79,-77.25C928.68,-75.42 947.02,-73.6 964.34,-72 1175.04,-52.49 1423.97,-33.63 1547.22,-24.58"/>
<polygon fill="black" stroke="black" points="1547.59,-28.06 1557.31,-23.84 1547.08,-21.08 1547.59,-28.06"/>
</g>
<!-- :feature:other&#45;list&#45;&gt;:core:domain -->
<g id="edge21" class="edge">
<title>:feature:other&#45;list&#45;&gt;:core:domain</title>
<path fill="none" stroke="black" d="M1416.33,-75C1460.14,-63.21 1522.71,-46.36 1567.77,-34.23"/>
<polygon fill="black" stroke="black" points="1568.93,-37.54 1577.68,-31.56 1567.11,-30.78 1568.93,-37.54"/>
</g>
<!-- :feature:other&#45;server&#45;ip&#45;detail&#45;&gt;:core:domain -->
<g id="edge22" class="edge">
<title>:feature:other&#45;server&#45;ip&#45;detail&#45;&gt;:core:domain</title>
<path fill="none" stroke="black" d="M1624.34,-71.7C1624.34,-63.98 1624.34,-54.71 1624.34,-46.11"/>
<polygon fill="black" stroke="black" points="1627.84,-46.1 1624.34,-36.1 1620.84,-46.1 1627.84,-46.1"/>
</g>
<!-- :feature:other&#45;volume&#45;detail&#45;&gt;:core:domain -->
<g id="edge23" class="edge">
<title>:feature:other&#45;volume&#45;detail&#45;&gt;:core:domain</title>
<path fill="none" stroke="black" d="M1866.64,-74.07C1812.87,-61.85 1737.39,-44.69 1685.03,-32.79"/>
<polygon fill="black" stroke="black" points="1685.73,-29.36 1675.2,-30.56 1684.18,-36.19 1685.73,-29.36"/>
</g>
<!-- :feature:readout&#45;list&#45;&gt;:core:domain -->
<g id="edge24" class="edge">
<title>:feature:readout&#45;list&#45;&gt;:core:domain</title>
<path fill="none" stroke="black" d="M2120.63,-77.39C2107.86,-75.51 2094.73,-73.65 2082.34,-72 1947.3,-54.03 1789.39,-36.53 1698.7,-26.82"/>
<polygon fill="black" stroke="black" points="1698.84,-23.31 1688.52,-25.73 1698.09,-30.27 1698.84,-23.31"/>
</g>
<!-- :feature:lmu&#45;windows&#45;readout&#45;vehicle&#45;approach&#45;detail&#45;&gt;:core:domain -->
<g id="edge19" class="edge">
<title>:feature:lmu&#45;windows&#45;readout&#45;vehicle&#45;approach&#45;detail&#45;&gt;:core:domain</title>
<path fill="none" stroke="black" d="M2406.96,-76.42C2198.16,-61.1 1854.42,-35.88 1701.66,-24.67"/>
<polygon fill="black" stroke="black" points="1701.66,-21.16 1691.43,-23.92 1701.15,-28.15 1701.66,-21.16"/>
</g>
<!-- :feature:lmu&#45;windows&#45;readout&#45;flag&#45;detail&#45;&gt;:core:domain -->
<g id="edge18" class="edge">
<title>:feature:lmu&#45;windows&#45;readout&#45;flag&#45;detail&#45;&gt;:core:domain</title>
<path fill="none" stroke="black" d="M2918.22,-76.97C2894.9,-75.15 2870.94,-73.41 2848.34,-72 2417.42,-45.07 1900.29,-27.52 1704.61,-21.41"/>
<polygon fill="black" stroke="black" points="1704.53,-17.91 1694.42,-21.1 1704.31,-24.9 1704.53,-17.91"/>
</g>
<!-- :feature:lmu&#45;windows&#45;readout&#45;vehicle&#45;damage&#45;detail&#45;&gt;:core:domain -->
<g id="edge20" class="edge">
<title>:feature:lmu&#45;windows&#45;readout&#45;vehicle&#45;damage&#45;detail&#45;&gt;:core:domain</title>
<path fill="none" stroke="black" d="M3353.32,-76.9C3323.95,-75.09 3293.79,-73.38 3265.34,-72 2666.39,-42.98 1943.66,-25.86 1705.06,-20.68"/>
<polygon fill="black" stroke="black" points="1704.82,-17.18 1694.75,-20.46 1704.67,-24.18 1704.82,-17.18"/>
</g>
<!-- :app:webApp -->
<g id="node16" class="node">
<title>:app:webApp</title>
<ellipse fill="none" stroke="black" cx="1671.34" cy="-234" rx="70.69" ry="18"/>
<text text-anchor="middle" x="1671.34" y="-230.3" font-family="Times,serif" font-size="14.00">:app:webApp</text>
</g>
<!-- :app:webApp&#45;&gt;:app:shared -->
<g id="edge15" class="edge">
<title>:app:webApp&#45;&gt;:app:shared</title>
<path fill="none" stroke="black" d="M1634.67,-218.5C1607.1,-207.59 1569.18,-192.6 1539.7,-180.94"/>
<polygon fill="black" stroke="black" points="1540.65,-177.55 1530.06,-177.13 1538.07,-184.06 1540.65,-177.55"/>
</g>
</g>
</svg>
