<?xml version="1.0" encoding="UTF-8" standalone="no"?>
<!DOCTYPE svg PUBLIC "-//W3C//DTD SVG 1.1//EN"
 "http://www.w3.org/Graphics/SVG/1.1/DTD/svg11.dtd">
<!-- Generated by graphviz version 2.43.0 (0)
 -->
<!-- Title: G Pages: 1 -->
<svg width="411pt" height="260pt"
 viewBox="0.00 0.00 411.40 260.00" xmlns="http://www.w3.org/2000/svg" xmlns:xlink="http://www.w3.org/1999/xlink">
<g id="graph0" class="graph" transform="scale(1 1) rotate(0) translate(4 256)">
<title>G</title>
<polygon fill="white" stroke="transparent" points="-4,4 -4,-256 407.4,-256 407.4,4 -4,4"/>
<!-- :app:desktopApp -->
<g id="node1" class="node">
<title>:app:desktopApp</title>
<ellipse fill="none" stroke="black" cx="242.44" cy="-234" rx="88.28" ry="18"/>
<text text-anchor="middle" x="242.44" y="-230.3" font-family="Times,serif" font-size="14.00">:app:desktopApp</text>
</g>
<!-- :app:shared -->
<g id="node2" class="node">
<title>:app:shared</title>
<ellipse fill="none" stroke="black" cx="195.44" cy="-162" rx="65.79" ry="18"/>
<text text-anchor="middle" x="195.44" y="-158.3" font-family="Times,serif" font-size="14.00">:app:shared</text>
</g>
<!-- :app:desktopApp&#45;&gt;:app:shared -->
<g id="edge1" class="edge">
<title>:app:desktopApp&#45;&gt;:app:shared</title>
<path fill="none" stroke="black" d="M231.06,-216.05C225.47,-207.71 218.6,-197.49 212.4,-188.25"/>
<polygon fill="black" stroke="black" points="215.2,-186.14 206.71,-179.79 209.38,-190.04 215.2,-186.14"/>
</g>
<!-- :core:domain -->
<g id="node3" class="node">
<title>:core:domain</title>
<ellipse fill="none" stroke="black" cx="289.44" cy="-18" rx="70.69" ry="18"/>
<text text-anchor="middle" x="289.44" y="-14.3" font-family="Times,serif" font-size="14.00">:core:domain</text>
</g>
<!-- :app:desktopApp&#45;&gt;:core:domain -->
<g id="edge2" class="edge">
<title>:app:desktopApp&#45;&gt;:core:domain</title>
<path fill="none" stroke="black" d="M276.25,-217.24C313.81,-197.63 372.46,-160.24 397.44,-108 404.35,-93.57 405.9,-85.58 397.44,-72 386.48,-54.41 367.79,-42.49 349.01,-34.49"/>
<polygon fill="black" stroke="black" points="350.1,-31.16 339.52,-30.77 347.55,-37.68 350.1,-31.16"/>
</g>
<!-- :feature:readout -->
<g id="node4" class="node">
<title>:feature:readout</title>
<ellipse fill="none" stroke="black" cx="86.44" cy="-90" rx="86.38" ry="18"/>
<text text-anchor="middle" x="86.44" y="-86.3" font-family="Times,serif" font-size="14.00">:feature:readout</text>
</g>
<!-- :app:desktopApp&#45;&gt;:feature:readout -->
<g id="edge3" class="edge">
<title>:app:desktopApp&#45;&gt;:feature:readout</title>
<path fill="none" stroke="black" d="M188.27,-219.73C164.82,-211.62 138.63,-199.03 120.44,-180 104.24,-163.05 95.56,-137.59 91.03,-118.23"/>
<polygon fill="black" stroke="black" points="94.41,-117.27 88.93,-108.2 87.56,-118.71 94.41,-117.27"/>
</g>
<!-- :feature:announcer -->
<g id="node5" class="node">
<title>:feature:announcer</title>
<ellipse fill="none" stroke="black" cx="289.44" cy="-90" rx="98.58" ry="18"/>
<text text-anchor="middle" x="289.44" y="-86.3" font-family="Times,serif" font-size="14.00">:feature:announcer</text>
</g>
<!-- :app:desktopApp&#45;&gt;:feature:announcer -->
<g id="edge4" class="edge">
<title>:app:desktopApp&#45;&gt;:feature:announcer</title>
<path fill="none" stroke="black" d="M253.03,-215.89C258.9,-205.77 265.9,-192.52 270.44,-180 277.75,-159.86 282.65,-136.08 285.64,-118.17"/>
<polygon fill="black" stroke="black" points="289.12,-118.54 287.22,-108.12 282.21,-117.45 289.12,-118.54"/>
</g>
<!-- :app:shared&#45;&gt;:feature:readout -->
<g id="edge6" class="edge">
<title>:app:shared&#45;&gt;:feature:readout</title>
<path fill="none" stroke="black" d="M170.98,-145.29C156.15,-135.77 137.01,-123.47 120.69,-112.99"/>
<polygon fill="black" stroke="black" points="122.26,-109.85 111.96,-107.39 118.48,-115.74 122.26,-109.85"/>
</g>
<!-- :app:shared&#45;&gt;:feature:announcer -->
<g id="edge5" class="edge">
<title>:app:shared&#45;&gt;:feature:announcer</title>
<path fill="none" stroke="black" d="M217.24,-144.76C229.64,-135.53 245.36,-123.83 258.96,-113.7"/>
<polygon fill="black" stroke="black" points="261.18,-116.41 267.11,-107.63 257,-110.8 261.18,-116.41"/>
</g>
<!-- :feature:readout&#45;&gt;:core:domain -->
<g id="edge8" class="edge">
<title>:feature:readout&#45;&gt;:core:domain</title>
<path fill="none" stroke="black" d="M129,-74.33C161.17,-63.23 205.42,-47.97 239.31,-36.29"/>
<polygon fill="black" stroke="black" points="240.7,-39.51 249.02,-32.94 238.42,-32.89 240.7,-39.51"/>
</g>
<!-- :feature:announcer&#45;&gt;:core:domain -->
<g id="edge7" class="edge">
<title>:feature:announcer&#45;&gt;:core:domain</title>
<path fill="none" stroke="black" d="M289.44,-71.7C289.44,-63.98 289.44,-54.71 289.44,-46.11"/>
<polygon fill="black" stroke="black" points="292.94,-46.1 289.44,-36.1 285.94,-46.1 292.94,-46.1"/>
</g>
</g>
</svg>
