<?xml version="1.0" encoding="UTF-8" standalone="no"?>
<!DOCTYPE svg PUBLIC "-//W3C//DTD SVG 1.1//EN"
 "http://www.w3.org/Graphics/SVG/1.1/DTD/svg11.dtd">
<!-- Generated by graphviz version 2.43.0 (0)
 -->
<!-- Title: G Pages: 1 -->
<svg width="7146pt" height="188pt"
 viewBox="0.00 0.00 7145.77 188.00" xmlns="http://www.w3.org/2000/svg" xmlns:xlink="http://www.w3.org/1999/xlink">
<g id="graph0" class="graph" transform="scale(1 1) rotate(0) translate(4 184)">
<title>G</title>
<polygon fill="white" stroke="transparent" points="-4,4 -4,-184 7141.77,-184 7141.77,4 -4,4"/>
<!-- :app:androidApp -->
<g id="node1" class="node">
<title>:app:androidApp</title>
<ellipse fill="none" stroke="black" cx="2838.44" cy="-162" rx="87.18" ry="18"/>
<text text-anchor="middle" x="2838.44" y="-158.3" font-family="Times,serif" font-size="14.00">:app:androidApp</text>
</g>
<!-- :app:shared -->
<g id="node2" class="node">
<title>:app:shared</title>
<ellipse fill="none" stroke="black" cx="3031.44" cy="-90" rx="65.79" ry="18"/>
<text text-anchor="middle" x="3031.44" y="-86.3" font-family="Times,serif" font-size="14.00">:app:shared</text>
</g>
<!-- :app:androidApp&#45;&gt;:app:shared -->
<g id="edge1" class="edge">
<title>:app:androidApp&#45;&gt;:app:shared</title>
<path fill="none" stroke="black" d="M2879.85,-145.98C2910.36,-134.92 2951.93,-119.84 2983.82,-108.27"/>
<polygon fill="black" stroke="black" points="2985.18,-111.5 2993.38,-104.8 2982.79,-104.92 2985.18,-111.5"/>
</g>
<!-- :feature:main -->
<g id="node4" class="node">
<title>:feature:main</title>
<ellipse fill="none" stroke="black" cx="73.44" cy="-18" rx="73.39" ry="18"/>
<text text-anchor="middle" x="73.44" y="-14.3" font-family="Times,serif" font-size="14.00">:feature:main</text>
</g>
<!-- :app:shared&#45;&gt;:feature:main -->
<g id="edge3" class="edge">
<title>:app:shared&#45;&gt;:feature:main</title>
<path fill="none" stroke="black" d="M2965.7,-88.51C2563.59,-85.43 443.69,-67.79 156.44,-36 149.31,-35.21 141.87,-34.1 134.52,-32.83"/>
<polygon fill="black" stroke="black" points="135.04,-29.37 124.57,-31 133.77,-36.25 135.04,-29.37"/>
</g>
<!-- :feature:lmu&#45;windows&#45;connection -->
<g id="node5" class="node">
<title>:feature:lmu&#45;windows&#45;connection</title>
<ellipse fill="none" stroke="black" cx="329.44" cy="-18" rx="164.37" ry="18"/>
<text text-anchor="middle" x="329.44" y="-14.3" font-family="Times,serif" font-size="14.00">:feature:lmu&#45;windows&#45;connection</text>
</g>
<!-- :app:shared&#45;&gt;:feature:lmu&#45;windows&#45;connection -->
<g id="edge4" class="edge">
<title>:app:shared&#45;&gt;:feature:lmu&#45;windows&#45;connection</title>
<path fill="none" stroke="black" d="M2965.83,-88.31C2619.74,-84.54 1003.28,-65.61 503.44,-36 486.73,-35.01 469.13,-33.66 451.82,-32.14"/>
<polygon fill="black" stroke="black" points="451.94,-28.64 441.66,-31.23 451.31,-35.61 451.94,-28.64"/>
</g>
<!-- :feature:gt7&#45;ps5&#45;connection -->
<g id="node6" class="node">
<title>:feature:gt7&#45;ps5&#45;connection</title>
<ellipse fill="none" stroke="black" cx="650.44" cy="-18" rx="138.38" ry="18"/>
<text text-anchor="middle" x="650.44" y="-14.3" font-family="Times,serif" font-size="14.00">:feature:gt7&#45;ps5&#45;connection</text>
</g>
<!-- :app:shared&#45;&gt;:feature:gt7&#45;ps5&#45;connection -->
<g id="edge5" class="edge">
<title>:app:shared&#45;&gt;:feature:gt7&#45;ps5&#45;connection</title>
<path fill="none" stroke="black" d="M2965.98,-88.25C2645.1,-84.44 1236.2,-66.27 798.44,-36 784.4,-35.03 769.63,-33.7 755.09,-32.21"/>
<polygon fill="black" stroke="black" points="755.38,-28.73 745.07,-31.16 754.65,-35.69 755.38,-28.73"/>
</g>
<!-- :feature:server&#45;connection -->
<g id="node7" class="node">
<title>:feature:server&#45;connection</title>
<ellipse fill="none" stroke="black" cx="940.44" cy="-18" rx="133.48" ry="18"/>
<text text-anchor="middle" x="940.44" y="-14.3" font-family="Times,serif" font-size="14.00">:feature:server&#45;connection</text>
</g>
<!-- :app:shared&#45;&gt;:feature:server&#45;connection -->
<g id="edge6" class="edge">
<title>:app:shared&#45;&gt;:feature:server&#45;connection</title>
<path fill="none" stroke="black" d="M2965.75,-89.38C2718.54,-90.35 1820.72,-89.74 1083.44,-36 1070,-35.02 1055.88,-33.7 1041.96,-32.22"/>
<polygon fill="black" stroke="black" points="1042.19,-28.73 1031.87,-31.12 1041.43,-35.69 1042.19,-28.73"/>
</g>
<!-- :feature:lmu&#45;windows&#45;narrator -->
<g id="node8" class="node">
<title>:feature:lmu&#45;windows&#45;narrator</title>
<ellipse fill="none" stroke="black" cx="1245.44" cy="-18" rx="153.27" ry="18"/>
<text text-anchor="middle" x="1245.44" y="-14.3" font-family="Times,serif" font-size="14.00">:feature:lmu&#45;windows&#45;narrator</text>
</g>
<!-- :app:shared&#45;&gt;:feature:lmu&#45;windows&#45;narrator -->
<g id="edge7" class="edge">
<title>:app:shared&#45;&gt;:feature:lmu&#45;windows&#45;narrator</title>
<path fill="none" stroke="black" d="M2965.65,-88.53C2745.2,-86.61 2012.46,-77.31 1408.44,-36 1393.19,-34.96 1377.16,-33.6 1361.35,-32.11"/>
<polygon fill="black" stroke="black" points="1361.29,-28.59 1351.01,-31.12 1360.62,-35.56 1361.29,-28.59"/>
</g>
<!-- :feature:gt7&#45;ps5&#45;narrator -->
<g id="node9" class="node">
<title>:feature:gt7&#45;ps5&#45;narrator</title>
<ellipse fill="none" stroke="black" cx="1544.44" cy="-18" rx="127.28" ry="18"/>
<text text-anchor="middle" x="1544.44" y="-14.3" font-family="Times,serif" font-size="14.00">:feature:gt7&#45;ps5&#45;narrator</text>
</g>
<!-- :app:shared&#45;&gt;:feature:gt7&#45;ps5&#45;narrator -->
<g id="edge8" class="edge">
<title>:app:shared&#45;&gt;:feature:gt7&#45;ps5&#45;narrator</title>
<path fill="none" stroke="black" d="M2965.95,-88.41C2770.35,-86.21 2173.48,-76.41 1680.44,-36 1668.09,-34.99 1655.14,-33.68 1642.34,-32.25"/>
<polygon fill="black" stroke="black" points="1642.45,-28.74 1632.12,-31.07 1641.65,-35.69 1642.45,-28.74"/>
</g>
<!-- :feature:other&#45;license&#45;detail -->
<g id="node10" class="node">
<title>:feature:other&#45;license&#45;detail</title>
<ellipse fill="none" stroke="black" cx="1829.44" cy="-18" rx="139.98" ry="18"/>
<text text-anchor="middle" x="1829.44" y="-14.3" font-family="Times,serif" font-size="14.00">:feature:other&#45;license&#45;detail</text>
</g>
<!-- :app:shared&#45;&gt;:feature:other&#45;license&#45;detail -->
<g id="edge9" class="edge">
<title>:app:shared&#45;&gt;:feature:other&#45;license&#45;detail</title>
<path fill="none" stroke="black" d="M2966.34,-87.16C2801.04,-82.17 2351.74,-66.66 1978.44,-36 1964.98,-34.89 1950.84,-33.54 1936.87,-32.08"/>
<polygon fill="black" stroke="black" points="1937.05,-28.58 1926.74,-31 1936.31,-35.54 1937.05,-28.58"/>
</g>
<!-- :feature:other&#45;list -->
<g id="node11" class="node">
<title>:feature:other&#45;list</title>
<ellipse fill="none" stroke="black" cx="2080.44" cy="-18" rx="92.88" ry="18"/>
<text text-anchor="middle" x="2080.44" y="-14.3" font-family="Times,serif" font-size="14.00">:feature:other&#45;list</text>
</g>
<!-- :app:shared&#45;&gt;:feature:other&#45;list -->
<g id="edge10" class="edge">
<title>:app:shared&#45;&gt;:feature:other&#45;list</title>
<path fill="none" stroke="black" d="M2966.54,-87.22C2824.17,-82.83 2473.88,-69.29 2182.44,-36 2173.76,-35.01 2164.69,-33.78 2155.7,-32.44"/>
<polygon fill="black" stroke="black" points="2156.02,-28.95 2145.6,-30.88 2154.95,-35.86 2156.02,-28.95"/>
</g>
<!-- :feature:other&#45;server&#45;ip&#45;detail -->
<g id="node12" class="node">
<title>:feature:other&#45;server&#45;ip&#45;detail</title>
<ellipse fill="none" stroke="black" cx="2340.44" cy="-18" rx="148.67" ry="18"/>
<text text-anchor="middle" x="2340.44" y="-14.3" font-family="Times,serif" font-size="14.00">:feature:other&#45;server&#45;ip&#45;detail</text>
</g>
<!-- :app:shared&#45;&gt;:feature:other&#45;server&#45;ip&#45;detail -->
<g id="edge11" class="edge">
<title>:app:shared&#45;&gt;:feature:other&#45;server&#45;ip&#45;detail</title>
<path fill="none" stroke="black" d="M2970.68,-83.12C2871.71,-73.5 2669.56,-53.71 2498.44,-36 2485.08,-34.62 2471.09,-33.15 2457.19,-31.67"/>
<polygon fill="black" stroke="black" points="2457.41,-28.17 2447.09,-30.59 2456.67,-35.13 2457.41,-28.17"/>
</g>
<!-- :feature:other&#45;console&#45;ip&#45;detail -->
<g id="node13" class="node">
<title>:feature:other&#45;console&#45;ip&#45;detail</title>
<ellipse fill="none" stroke="black" cx="2660.44" cy="-18" rx="153.27" ry="18"/>
<text text-anchor="middle" x="2660.44" y="-14.3" font-family="Times,serif" font-size="14.00">:feature:other&#45;console&#45;ip&#45;detail</text>
</g>
<!-- :app:shared&#45;&gt;:feature:other&#45;console&#45;ip&#45;detail -->
<g id="edge12" class="edge">
<title>:app:shared&#45;&gt;:feature:other&#45;console&#45;ip&#45;detail</title>
<path fill="none" stroke="black" d="M2979.08,-79.12C2918.98,-67.78 2819.5,-49.01 2747.66,-35.46"/>
<polygon fill="black" stroke="black" points="2748.19,-31.99 2737.71,-33.58 2746.89,-38.87 2748.19,-31.99"/>
</g>
<!-- :feature:other&#45;readout&#45;start&#45;sound&#45;detail -->
<g id="node14" class="node">
<title>:feature:other&#45;readout&#45;start&#45;sound&#45;detail</title>
<ellipse fill="none" stroke="black" cx="3031.44" cy="-18" rx="199.56" ry="18"/>
<text text-anchor="middle" x="3031.44" y="-14.3" font-family="Times,serif" font-size="14.00">:feature:other&#45;readout&#45;start&#45;sound&#45;detail</text>
</g>
<!-- :app:shared&#45;&gt;:feature:other&#45;readout&#45;start&#45;sound&#45;detail -->
<g id="edge13" class="edge">
<title>:app:shared&#45;&gt;:feature:other&#45;readout&#45;start&#45;sound&#45;detail</title>
<path fill="none" stroke="black" d="M3031.44,-71.7C3031.44,-63.98 3031.44,-54.71 3031.44,-46.11"/>
<polygon fill="black" stroke="black" points="3034.94,-46.1 3031.44,-36.1 3027.94,-46.1 3034.94,-46.1"/>
</g>
<!-- :feature:other&#45;volume&#45;detail -->
<g id="node15" class="node">
<title>:feature:other&#45;volume&#45;detail</title>
<ellipse fill="none" stroke="black" cx="3390.44" cy="-18" rx="141.07" ry="18"/>
<text text-anchor="middle" x="3390.44" y="-14.3" font-family="Times,serif" font-size="14.00">:feature:other&#45;volume&#45;detail</text>
</g>
<!-- :app:shared&#45;&gt;:feature:other&#45;volume&#45;detail -->
<g id="edge14" class="edge">
<title>:app:shared&#45;&gt;:feature:other&#45;volume&#45;detail</title>
<path fill="none" stroke="black" d="M3083.26,-78.9C3141.65,-67.51 3237.42,-48.84 3306.51,-35.37"/>
<polygon fill="black" stroke="black" points="3307.36,-38.77 3316.51,-33.42 3306.02,-31.9 3307.36,-38.77"/>
</g>
<!-- :feature:other&#45;keep&#45;screen&#45;on&#45;detail -->
<g id="node16" class="node">
<title>:feature:other&#45;keep&#45;screen&#45;on&#45;detail</title>
<ellipse fill="none" stroke="black" cx="3726.44" cy="-18" rx="176.57" ry="18"/>
<text text-anchor="middle" x="3726.44" y="-14.3" font-family="Times,serif" font-size="14.00">:feature:other&#45;keep&#45;screen&#45;on&#45;detail</text>
</g>
<!-- :app:shared&#45;&gt;:feature:other&#45;keep&#45;screen&#45;on&#45;detail -->
<g id="edge15" class="edge">
<title>:app:shared&#45;&gt;:feature:other&#45;keep&#45;screen&#45;on&#45;detail</title>
<path fill="none" stroke="black" d="M3091.9,-82.91C3203.61,-71.66 3444.64,-47.38 3595.38,-32.2"/>
<polygon fill="black" stroke="black" points="3596.03,-35.65 3605.63,-31.17 3595.33,-28.69 3596.03,-35.65"/>
</g>
<!-- :feature:telemetry&#45;log&#45;list -->
<g id="node17" class="node">
<title>:feature:telemetry&#45;log&#45;list</title>
<ellipse fill="none" stroke="black" cx="4051.44" cy="-18" rx="129.98" ry="18"/>
<text text-anchor="middle" x="4051.44" y="-14.3" font-family="Times,serif" font-size="14.00">:feature:telemetry&#45;log&#45;list</text>
</g>
<!-- :app:shared&#45;&gt;:feature:telemetry&#45;log&#45;list -->
<g id="edge16" class="edge">
<title>:app:shared&#45;&gt;:feature:telemetry&#45;log&#45;list</title>
<path fill="none" stroke="black" d="M3095.93,-86.48C3241.66,-80.5 3607.44,-63.8 3912.44,-36 3924.77,-34.88 3937.68,-33.53 3950.47,-32.09"/>
<polygon fill="black" stroke="black" points="3951.15,-35.53 3960.68,-30.92 3950.35,-28.58 3951.15,-35.53"/>
</g>
<!-- :feature:telemetry&#45;log&#45;detail -->
<g id="node18" class="node">
<title>:feature:telemetry&#45;log&#45;detail</title>
<ellipse fill="none" stroke="black" cx="4341.44" cy="-18" rx="141.88" ry="18"/>
<text text-anchor="middle" x="4341.44" y="-14.3" font-family="Times,serif" font-size="14.00">:feature:telemetry&#45;log&#45;detail</text>
</g>
<!-- :app:shared&#45;&gt;:feature:telemetry&#45;log&#45;detail -->
<g id="edge17" class="edge">
<title>:app:shared&#45;&gt;:feature:telemetry&#45;log&#45;detail</title>
<path fill="none" stroke="black" d="M3096.57,-87.54C3272.94,-83.25 3774.54,-68.88 4190.44,-36 4204.2,-34.91 4218.64,-33.56 4232.9,-32.1"/>
<polygon fill="black" stroke="black" points="4233.67,-35.53 4243.25,-31.01 4232.94,-28.57 4233.67,-35.53"/>
</g>
<!-- :feature:readout&#45;list -->
<g id="node19" class="node">
<title>:feature:readout&#45;list</title>
<ellipse fill="none" stroke="black" cx="4605.44" cy="-18" rx="103.98" ry="18"/>
<text text-anchor="middle" x="4605.44" y="-14.3" font-family="Times,serif" font-size="14.00">:feature:readout&#45;list</text>
</g>
<!-- :app:shared&#45;&gt;:feature:readout&#45;list -->
<g id="edge18" class="edge">
<title>:app:shared&#45;&gt;:feature:readout&#45;list</title>
<path fill="none" stroke="black" d="M3097.14,-89.26C3303.26,-89.5 3955.41,-85.98 4492.44,-36 4502.55,-35.06 4513.13,-33.82 4523.58,-32.43"/>
<polygon fill="black" stroke="black" points="4524.13,-35.89 4533.56,-31.06 4523.17,-28.95 4524.13,-35.89"/>
</g>
<!-- :feature:lmu&#45;windows&#45;readout&#45;vehicle&#45;approach&#45;detail -->
<g id="node20" class="node">
<title>:feature:lmu&#45;windows&#45;readout&#45;vehicle&#45;approach&#45;detail</title>
<ellipse fill="none" stroke="black" cx="4988.44" cy="-18" rx="260.75" ry="18"/>
<text text-anchor="middle" x="4988.44" y="-14.3" font-family="Times,serif" font-size="14.00">:feature:lmu&#45;windows&#45;readout&#45;vehicle&#45;approach&#45;detail</text>
</g>
<!-- :app:shared&#45;&gt;:feature:lmu&#45;windows&#45;readout&#45;vehicle&#45;approach&#45;detail -->
<g id="edge19" class="edge">
<title>:app:shared&#45;&gt;:feature:lmu&#45;windows&#45;readout&#45;vehicle&#45;approach&#45;detail</title>
<path fill="none" stroke="black" d="M3096.61,-87.69C3321.65,-83.01 4086.94,-65.79 4718.44,-36 4744.44,-34.77 4771.84,-33.28 4798.81,-31.7"/>
<polygon fill="black" stroke="black" points="4799.35,-35.17 4809.12,-31.08 4798.93,-28.18 4799.35,-35.17"/>
</g>
<!-- :feature:lmu&#45;windows&#45;readout&#45;flag&#45;detail -->
<g id="node21" class="node">
<title>:feature:lmu&#45;windows&#45;readout&#45;flag&#45;detail</title>
<ellipse fill="none" stroke="black" cx="5466.44" cy="-18" rx="199.56" ry="18"/>
<text text-anchor="middle" x="5466.44" y="-14.3" font-family="Times,serif" font-size="14.00">:feature:lmu&#45;windows&#45;readout&#45;flag&#45;detail</text>
</g>
<!-- :app:shared&#45;&gt;:feature:lmu&#45;windows&#45;readout&#45;flag&#45;detail -->
<g id="edge20" class="edge">
<title>:app:shared&#45;&gt;:feature:lmu&#45;windows&#45;readout&#45;flag&#45;detail</title>
<path fill="none" stroke="black" d="M3097.08,-88.82C3365.38,-87.8 4404.93,-81 5258.44,-36 5278.58,-34.94 5299.78,-33.54 5320.65,-31.99"/>
<polygon fill="black" stroke="black" points="5321.15,-35.46 5330.86,-31.22 5320.62,-28.48 5321.15,-35.46"/>
</g>
<!-- :feature:lmu&#45;windows&#45;readout&#45;vehicle&#45;damage&#45;detail -->
<g id="node22" class="node">
<title>:feature:lmu&#45;windows&#45;readout&#45;vehicle&#45;damage&#45;detail</title>
<ellipse fill="none" stroke="black" cx="5938.44" cy="-18" rx="254.55" ry="18"/>
<text text-anchor="middle" x="5938.44" y="-14.3" font-family="Times,serif" font-size="14.00">:feature:lmu&#45;windows&#45;readout&#45;vehicle&#45;damage&#45;detail</text>
</g>
<!-- :app:shared&#45;&gt;:feature:lmu&#45;windows&#45;readout&#45;vehicle&#45;damage&#45;detail -->
<g id="edge21" class="edge">
<title>:app:shared&#45;&gt;:feature:lmu&#45;windows&#45;readout&#45;vehicle&#45;damage&#45;detail</title>
<path fill="none" stroke="black" d="M3097.14,-88.76C3394.95,-87.45 4648.22,-79.47 5675.44,-36 5701.39,-34.9 5728.75,-33.46 5755.63,-31.87"/>
<polygon fill="black" stroke="black" points="5756.14,-35.35 5765.91,-31.25 5755.72,-28.36 5756.14,-35.35"/>
</g>
<!-- :feature:gt7&#45;ps5&#45;readout&#45;my&#45;bestlap&#45;detail -->
<g id="node23" class="node">
<title>:feature:gt7&#45;ps5&#45;readout&#45;my&#45;bestlap&#45;detail</title>
<ellipse fill="none" stroke="black" cx="6419.44" cy="-18" rx="207.96" ry="18"/>
<text text-anchor="middle" x="6419.44" y="-14.3" font-family="Times,serif" font-size="14.00">:feature:gt7&#45;ps5&#45;readout&#45;my&#45;bestlap&#45;detail</text>
</g>
<!-- :app:shared&#45;&gt;:feature:gt7&#45;ps5&#45;readout&#45;my&#45;bestlap&#45;detail -->
<g id="edge22" class="edge">
<title>:app:shared&#45;&gt;:feature:gt7&#45;ps5&#45;readout&#45;my&#45;bestlap&#45;detail</title>
<path fill="none" stroke="black" d="M3097.12,-88.45C3493.11,-85.08 5566.7,-66.19 6202.44,-36 6223.88,-34.98 6246.49,-33.58 6268.7,-32.01"/>
<polygon fill="black" stroke="black" points="6269.14,-35.49 6278.86,-31.28 6268.64,-28.51 6269.14,-35.49"/>
</g>
<!-- :feature:gt7&#45;ps5&#45;readout&#45;remaining&#45;fuel&#45;laps&#45;detail -->
<g id="node24" class="node">
<title>:feature:gt7&#45;ps5&#45;readout&#45;remaining&#45;fuel&#45;laps&#45;detail</title>
<ellipse fill="none" stroke="black" cx="6891.44" cy="-18" rx="246.16" ry="18"/>
<text text-anchor="middle" x="6891.44" y="-14.3" font-family="Times,serif" font-size="14.00">:feature:gt7&#45;ps5&#45;readout&#45;remaining&#45;fuel&#45;laps&#45;detail</text>
</g>
<!-- :app:shared&#45;&gt;:feature:gt7&#45;ps5&#45;readout&#45;remaining&#45;fuel&#45;laps&#45;detail -->
<g id="edge23" class="edge">
<title>:app:shared&#45;&gt;:feature:gt7&#45;ps5&#45;readout&#45;remaining&#45;fuel&#45;laps&#45;detail</title>
<path fill="none" stroke="black" d="M3097.24,-89.31C3455.41,-90.7 5206.58,-94.13 6636.44,-36 6662,-34.96 6688.97,-33.53 6715.42,-31.93"/>
<polygon fill="black" stroke="black" points="6715.77,-35.42 6725.54,-31.31 6715.34,-28.43 6715.77,-35.42"/>
</g>
<!-- :app:desktopApp -->
<g id="node3" class="node">
<title>:app:desktopApp</title>
<ellipse fill="none" stroke="black" cx="3031.44" cy="-162" rx="88.28" ry="18"/>
<text text-anchor="middle" x="3031.44" y="-158.3" font-family="Times,serif" font-size="14.00">:app:desktopApp</text>
</g>
<!-- :app:desktopApp&#45;&gt;:app:shared -->
<g id="edge2" class="edge">
<title>:app:desktopApp&#45;&gt;:app:shared</title>
<path fill="none" stroke="black" d="M3031.44,-143.7C3031.44,-135.98 3031.44,-126.71 3031.44,-118.11"/>
<polygon fill="black" stroke="black" points="3034.94,-118.1 3031.44,-108.1 3027.94,-118.1 3034.94,-118.1"/>
</g>
<!-- :app:webApp -->
<g id="node25" class="node">
<title>:app:webApp</title>
<ellipse fill="none" stroke="black" cx="3208.44" cy="-162" rx="70.69" ry="18"/>
<text text-anchor="middle" x="3208.44" y="-158.3" font-family="Times,serif" font-size="14.00">:app:webApp</text>
</g>
<!-- :app:webApp&#45;&gt;:app:shared -->
<g id="edge24" class="edge">
<title>:app:webApp&#45;&gt;:app:shared</title>
<path fill="none" stroke="black" d="M3171.77,-146.5C3144.2,-135.59 3106.28,-120.6 3076.81,-108.94"/>
<polygon fill="black" stroke="black" points="3077.75,-105.55 3067.16,-105.13 3075.18,-112.06 3077.75,-105.55"/>
</g>
</g>
</svg>
