<?xml version="1.0" encoding="UTF-8" standalone="no"?>
<!DOCTYPE svg PUBLIC "-//W3C//DTD SVG 1.1//EN"
 "http://www.w3.org/Graphics/SVG/1.1/DTD/svg11.dtd">
<!-- Generated by graphviz version 2.43.0 (0)
 -->
<!-- Title: G Pages: 1 -->
<svg width="1993pt" height="188pt"
 viewBox="0.00 0.00 1993.07 188.00" xmlns="http://www.w3.org/2000/svg" xmlns:xlink="http://www.w3.org/1999/xlink">
<g id="graph0" class="graph" transform="scale(1 1) rotate(0) translate(4 184)">
<title>G</title>
<polygon fill="white" stroke="transparent" points="-4,4 -4,-184 1989.07,-184 1989.07,4 -4,4"/>
<!-- :app:androidApp -->
<g id="node1" class="node">
<title>:app:androidApp</title>
<ellipse fill="none" stroke="black" cx="681.89" cy="-162" rx="87.18" ry="18"/>
<text text-anchor="middle" x="681.89" y="-158.3" font-family="Times,serif" font-size="14.00">:app:androidApp</text>
</g>
<!-- :app:shared -->
<g id="node2" class="node">
<title>:app:shared</title>
<ellipse fill="none" stroke="black" cx="874.89" cy="-90" rx="65.79" ry="18"/>
<text text-anchor="middle" x="874.89" y="-86.3" font-family="Times,serif" font-size="14.00">:app:shared</text>
</g>
<!-- :app:androidApp&#45;&gt;:app:shared -->
<g id="edge1" class="edge">
<title>:app:androidApp&#45;&gt;:app:shared</title>
<path fill="none" stroke="black" d="M723.29,-145.98C753.81,-134.92 795.38,-119.84 827.27,-108.27"/>
<polygon fill="black" stroke="black" points="828.62,-111.5 836.83,-104.8 826.24,-104.92 828.62,-111.5"/>
</g>
<!-- :feature:lmu&#45;connection -->
<g id="node4" class="node">
<title>:feature:lmu&#45;connection</title>
<ellipse fill="none" stroke="black" cx="120.89" cy="-18" rx="120.78" ry="18"/>
<text text-anchor="middle" x="120.89" y="-14.3" font-family="Times,serif" font-size="14.00">:feature:lmu&#45;connection</text>
</g>
<!-- :app:shared&#45;&gt;:feature:lmu&#45;connection -->
<g id="edge3" class="edge">
<title>:app:shared&#45;&gt;:feature:lmu&#45;connection</title>
<path fill="none" stroke="black" d="M811.91,-84.6C699.23,-76.51 455.73,-58.08 250.89,-36 239.77,-34.8 228.14,-33.44 216.59,-32.02"/>
<polygon fill="black" stroke="black" points="216.84,-28.52 206.49,-30.75 215.97,-35.47 216.84,-28.52"/>
</g>
<!-- :feature:narrator -->
<g id="node5" class="node">
<title>:feature:narrator</title>
<ellipse fill="none" stroke="black" cx="348.89" cy="-18" rx="89.08" ry="18"/>
<text text-anchor="middle" x="348.89" y="-14.3" font-family="Times,serif" font-size="14.00">:feature:narrator</text>
</g>
<!-- :app:shared&#45;&gt;:feature:narrator -->
<g id="edge4" class="edge">
<title>:app:shared&#45;&gt;:feature:narrator</title>
<path fill="none" stroke="black" d="M814.87,-82.5C731.96,-73.31 577.79,-55.45 446.89,-36 439.06,-34.84 430.89,-33.54 422.75,-32.21"/>
<polygon fill="black" stroke="black" points="423.31,-28.75 412.87,-30.56 422.15,-35.66 423.31,-28.75"/>
</g>
<!-- :feature:other&#45;detail -->
<g id="node6" class="node">
<title>:feature:other&#45;detail</title>
<ellipse fill="none" stroke="black" cx="560.89" cy="-18" rx="104.78" ry="18"/>
<text text-anchor="middle" x="560.89" y="-14.3" font-family="Times,serif" font-size="14.00">:feature:other&#45;detail</text>
</g>
<!-- :app:shared&#45;&gt;:feature:other&#45;detail -->
<g id="edge5" class="edge">
<title>:app:shared&#45;&gt;:feature:other&#45;detail</title>
<path fill="none" stroke="black" d="M825.48,-77.99C773.48,-66.39 691.14,-48.04 632.13,-34.88"/>
<polygon fill="black" stroke="black" points="632.65,-31.41 622.13,-32.65 631.13,-38.24 632.65,-31.41"/>
</g>
<!-- :feature:other&#45;list -->
<g id="node7" class="node">
<title>:feature:other&#45;list</title>
<ellipse fill="none" stroke="black" cx="776.89" cy="-18" rx="92.88" ry="18"/>
<text text-anchor="middle" x="776.89" y="-14.3" font-family="Times,serif" font-size="14.00">:feature:other&#45;list</text>
</g>
<!-- :app:shared&#45;&gt;:feature:other&#45;list -->
<g id="edge6" class="edge">
<title>:app:shared&#45;&gt;:feature:other&#45;list</title>
<path fill="none" stroke="black" d="M852.16,-72.76C839.24,-63.53 822.85,-51.83 808.67,-41.7"/>
<polygon fill="black" stroke="black" points="810.35,-38.6 800.18,-35.63 806.28,-44.29 810.35,-38.6"/>
</g>
<!-- :feature:readout -->
<g id="node8" class="node">
<title>:feature:readout</title>
<ellipse fill="none" stroke="black" cx="973.89" cy="-18" rx="86.38" ry="18"/>
<text text-anchor="middle" x="973.89" y="-14.3" font-family="Times,serif" font-size="14.00">:feature:readout</text>
</g>
<!-- :app:shared&#45;&gt;:feature:readout -->
<g id="edge7" class="edge">
<title>:app:shared&#45;&gt;:feature:readout</title>
<path fill="none" stroke="black" d="M897.85,-72.76C911.12,-63.38 928.01,-51.44 942.5,-41.19"/>
<polygon fill="black" stroke="black" points="944.56,-44.02 950.71,-35.39 940.52,-38.31 944.56,-44.02"/>
</g>
<!-- :feature:readout&#45;vehicle&#45;approach -->
<g id="node9" class="node">
<title>:feature:readout&#45;vehicle&#45;approach</title>
<ellipse fill="none" stroke="black" cx="1245.89" cy="-18" rx="167.87" ry="18"/>
<text text-anchor="middle" x="1245.89" y="-14.3" font-family="Times,serif" font-size="14.00">:feature:readout&#45;vehicle&#45;approach</text>
</g>
<!-- :app:shared&#45;&gt;:feature:readout&#45;vehicle&#45;approach -->
<g id="edge8" class="edge">
<title>:app:shared&#45;&gt;:feature:readout&#45;vehicle&#45;approach</title>
<path fill="none" stroke="black" d="M927.26,-79.12C986.87,-67.87 1085.26,-49.31 1156.96,-35.78"/>
<polygon fill="black" stroke="black" points="1157.71,-39.2 1166.89,-33.91 1156.41,-32.32 1157.71,-39.2"/>
</g>
<!-- :feature:readout&#45;flag -->
<g id="node10" class="node">
<title>:feature:readout&#45;flag</title>
<ellipse fill="none" stroke="black" cx="1537.89" cy="-18" rx="106.68" ry="18"/>
<text text-anchor="middle" x="1537.89" y="-14.3" font-family="Times,serif" font-size="14.00">:feature:readout&#45;flag</text>
</g>
<!-- :app:shared&#45;&gt;:feature:readout&#45;flag -->
<g id="edge9" class="edge">
<title>:app:shared&#45;&gt;:feature:readout&#45;flag</title>
<path fill="none" stroke="black" d="M937.05,-84.01C1038.78,-75.62 1247.13,-57.48 1422.89,-36 1432.33,-34.85 1442.19,-33.54 1452,-32.18"/>
<polygon fill="black" stroke="black" points="1452.77,-35.61 1462.18,-30.74 1451.79,-28.67 1452.77,-35.61"/>
</g>
<!-- :feature:readout&#45;vehicle&#45;damage -->
<g id="node11" class="node">
<title>:feature:readout&#45;vehicle&#45;damage</title>
<ellipse fill="none" stroke="black" cx="1823.89" cy="-18" rx="161.37" ry="18"/>
<text text-anchor="middle" x="1823.89" y="-14.3" font-family="Times,serif" font-size="14.00">:feature:readout&#45;vehicle&#45;damage</text>
</g>
<!-- :app:shared&#45;&gt;:feature:readout&#45;vehicle&#45;damage -->
<g id="edge10" class="edge">
<title>:app:shared&#45;&gt;:feature:readout&#45;vehicle&#45;damage</title>
<path fill="none" stroke="black" d="M938.56,-85.35C1071.54,-77.59 1388.46,-58.3 1653.89,-36 1668.92,-34.74 1684.69,-33.31 1700.31,-31.82"/>
<polygon fill="black" stroke="black" points="1700.92,-35.28 1710.54,-30.84 1700.26,-28.31 1700.92,-35.28"/>
</g>
<!-- :app:desktopApp -->
<g id="node3" class="node">
<title>:app:desktopApp</title>
<ellipse fill="none" stroke="black" cx="874.89" cy="-162" rx="88.28" ry="18"/>
<text text-anchor="middle" x="874.89" y="-158.3" font-family="Times,serif" font-size="14.00">:app:desktopApp</text>
</g>
<!-- :app:desktopApp&#45;&gt;:app:shared -->
<g id="edge2" class="edge">
<title>:app:desktopApp&#45;&gt;:app:shared</title>
<path fill="none" stroke="black" d="M874.89,-143.7C874.89,-135.98 874.89,-126.71 874.89,-118.11"/>
<polygon fill="black" stroke="black" points="878.39,-118.1 874.89,-108.1 871.39,-118.1 878.39,-118.1"/>
</g>
<!-- :app:webApp -->
<g id="node12" class="node">
<title>:app:webApp</title>
<ellipse fill="none" stroke="black" cx="1051.89" cy="-162" rx="70.69" ry="18"/>
<text text-anchor="middle" x="1051.89" y="-158.3" font-family="Times,serif" font-size="14.00">:app:webApp</text>
</g>
<!-- :app:webApp&#45;&gt;:app:shared -->
<g id="edge11" class="edge">
<title>:app:webApp&#45;&gt;:app:shared</title>
<path fill="none" stroke="black" d="M1015.21,-146.5C987.65,-135.59 949.73,-120.6 920.25,-108.94"/>
<polygon fill="black" stroke="black" points="921.2,-105.55 910.61,-105.13 918.62,-112.06 921.2,-105.55"/>
</g>
</g>
</svg>
