<?xml version="1.0" encoding="UTF-8" standalone="no"?>
<!DOCTYPE svg PUBLIC "-//W3C//DTD SVG 1.1//EN"
 "http://www.w3.org/Graphics/SVG/1.1/DTD/svg11.dtd">
<!-- Generated by graphviz version 2.43.0 (0)
 -->
<!-- Title: G Pages: 1 -->
<svg width="5683pt" height="188pt"
 viewBox="0.00 0.00 5683.43 188.00" xmlns="http://www.w3.org/2000/svg" xmlns:xlink="http://www.w3.org/1999/xlink">
<g id="graph0" class="graph" transform="scale(1 1) rotate(0) translate(4 184)">
<title>G</title>
<polygon fill="white" stroke="transparent" points="-4,4 -4,-184 5679.43,-184 5679.43,4 -4,4"/>
<!-- :app:androidApp -->
<g id="node1" class="node">
<title>:app:androidApp</title>
<ellipse fill="none" stroke="black" cx="2147.44" cy="-162" rx="87.18" ry="18"/>
<text text-anchor="middle" x="2147.44" y="-158.3" font-family="Times,serif" font-size="14.00">:app:androidApp</text>
</g>
<!-- :app:shared -->
<g id="node2" class="node">
<title>:app:shared</title>
<ellipse fill="none" stroke="black" cx="2340.44" cy="-90" rx="65.79" ry="18"/>
<text text-anchor="middle" x="2340.44" y="-86.3" font-family="Times,serif" font-size="14.00">:app:shared</text>
</g>
<!-- :app:androidApp&#45;&gt;:app:shared -->
<g id="edge1" class="edge">
<title>:app:androidApp&#45;&gt;:app:shared</title>
<path fill="none" stroke="black" d="M2188.85,-145.98C2219.36,-134.92 2260.93,-119.84 2292.82,-108.27"/>
<polygon fill="black" stroke="black" points="2294.18,-111.5 2302.38,-104.8 2291.79,-104.92 2294.18,-111.5"/>
</g>
<!-- :feature:main -->
<g id="node4" class="node">
<title>:feature:main</title>
<ellipse fill="none" stroke="black" cx="73.44" cy="-18" rx="73.39" ry="18"/>
<text text-anchor="middle" x="73.44" y="-14.3" font-family="Times,serif" font-size="14.00">:feature:main</text>
</g>
<!-- :app:shared&#45;&gt;:feature:main -->
<g id="edge3" class="edge">
<title>:app:shared&#45;&gt;:feature:main</title>
<path fill="none" stroke="black" d="M2274.78,-88.98C1957.61,-88.64 582.17,-84.37 156.44,-36 149.31,-35.19 141.88,-34.07 134.52,-32.79"/>
<polygon fill="black" stroke="black" points="135.04,-29.33 124.57,-30.96 133.77,-36.21 135.04,-29.33"/>
</g>
<!-- :feature:lmu&#45;windows&#45;connection -->
<g id="node5" class="node">
<title>:feature:lmu&#45;windows&#45;connection</title>
<ellipse fill="none" stroke="black" cx="329.44" cy="-18" rx="164.37" ry="18"/>
<text text-anchor="middle" x="329.44" y="-14.3" font-family="Times,serif" font-size="14.00">:feature:lmu&#45;windows&#45;connection</text>
</g>
<!-- :app:shared&#45;&gt;:feature:lmu&#45;windows&#45;connection -->
<g id="edge4" class="edge">
<title>:app:shared&#45;&gt;:feature:lmu&#45;windows&#45;connection</title>
<path fill="none" stroke="black" d="M2274.88,-88.73C2036.8,-87.41 1195.61,-79.75 503.44,-36 486.86,-34.95 469.41,-33.57 452.22,-32.06"/>
<polygon fill="black" stroke="black" points="452.41,-28.56 442.14,-31.15 451.78,-35.53 452.41,-28.56"/>
</g>
<!-- :feature:gt7&#45;ps5&#45;connection -->
<g id="node6" class="node">
<title>:feature:gt7&#45;ps5&#45;connection</title>
<ellipse fill="none" stroke="black" cx="650.44" cy="-18" rx="138.38" ry="18"/>
<text text-anchor="middle" x="650.44" y="-14.3" font-family="Times,serif" font-size="14.00">:feature:gt7&#45;ps5&#45;connection</text>
</g>
<!-- :app:shared&#45;&gt;:feature:gt7&#45;ps5&#45;connection -->
<g id="edge5" class="edge">
<title>:app:shared&#45;&gt;:feature:gt7&#45;ps5&#45;connection</title>
<path fill="none" stroke="black" d="M2274.96,-88.62C2061.93,-86.99 1369.43,-78.54 798.44,-36 784.75,-34.98 770.36,-33.65 756.17,-32.19"/>
<polygon fill="black" stroke="black" points="756.19,-28.67 745.87,-31.1 755.45,-35.63 756.19,-28.67"/>
</g>
<!-- :feature:server&#45;connection -->
<g id="node7" class="node">
<title>:feature:server&#45;connection</title>
<ellipse fill="none" stroke="black" cx="940.44" cy="-18" rx="133.48" ry="18"/>
<text text-anchor="middle" x="940.44" y="-14.3" font-family="Times,serif" font-size="14.00">:feature:server&#45;connection</text>
</g>
<!-- :app:shared&#45;&gt;:feature:server&#45;connection -->
<g id="edge6" class="edge">
<title>:app:shared&#45;&gt;:feature:server&#45;connection</title>
<path fill="none" stroke="black" d="M2274.91,-88C2088.34,-84.76 1538.48,-72.59 1083.44,-36 1070.21,-34.94 1056.31,-33.58 1042.59,-32.1"/>
<polygon fill="black" stroke="black" points="1042.97,-28.62 1032.65,-31.01 1042.21,-35.58 1042.97,-28.62"/>
</g>
<!-- :feature:lmu&#45;windows&#45;narrator -->
<g id="node8" class="node">
<title>:feature:lmu&#45;windows&#45;narrator</title>
<ellipse fill="none" stroke="black" cx="1245.44" cy="-18" rx="153.27" ry="18"/>
<text text-anchor="middle" x="1245.44" y="-14.3" font-family="Times,serif" font-size="14.00">:feature:lmu&#45;windows&#45;narrator</text>
</g>
<!-- :app:shared&#45;&gt;:feature:lmu&#45;windows&#45;narrator -->
<g id="edge7" class="edge">
<title>:app:shared&#45;&gt;:feature:lmu&#45;windows&#45;narrator</title>
<path fill="none" stroke="black" d="M2275.97,-86.38C2124.45,-80 1733.95,-62.22 1408.44,-36 1393.67,-34.81 1378.16,-33.4 1362.83,-31.91"/>
<polygon fill="black" stroke="black" points="1363.08,-28.42 1352.78,-30.92 1362.39,-35.38 1363.08,-28.42"/>
</g>
<!-- :feature:gt7&#45;ps5&#45;narrator -->
<g id="node9" class="node">
<title>:feature:gt7&#45;ps5&#45;narrator</title>
<ellipse fill="none" stroke="black" cx="1544.44" cy="-18" rx="127.28" ry="18"/>
<text text-anchor="middle" x="1544.44" y="-14.3" font-family="Times,serif" font-size="14.00">:feature:gt7&#45;ps5&#45;narrator</text>
</g>
<!-- :app:shared&#45;&gt;:feature:gt7&#45;ps5&#45;narrator -->
<g id="edge8" class="edge">
<title>:app:shared&#45;&gt;:feature:gt7&#45;ps5&#45;narrator</title>
<path fill="none" stroke="black" d="M2277.11,-84.85C2159.43,-76.93 1899.14,-58.44 1680.44,-36 1668.79,-34.8 1656.6,-33.44 1644.49,-32.02"/>
<polygon fill="black" stroke="black" points="1644.7,-28.52 1634.36,-30.81 1643.88,-35.47 1644.7,-28.52"/>
</g>
<!-- :feature:other&#45;license&#45;detail -->
<g id="node10" class="node">
<title>:feature:other&#45;license&#45;detail</title>
<ellipse fill="none" stroke="black" cx="1829.44" cy="-18" rx="139.98" ry="18"/>
<text text-anchor="middle" x="1829.44" y="-14.3" font-family="Times,serif" font-size="14.00">:feature:other&#45;license&#45;detail</text>
</g>
<!-- :app:shared&#45;&gt;:feature:other&#45;license&#45;detail -->
<g id="edge9" class="edge">
<title>:app:shared&#45;&gt;:feature:other&#45;license&#45;detail</title>
<path fill="none" stroke="black" d="M2282.82,-81.11C2197.61,-69.43 2036.73,-47.4 1931.33,-32.96"/>
<polygon fill="black" stroke="black" points="1931.69,-29.47 1921.3,-31.58 1930.74,-36.41 1931.69,-29.47"/>
</g>
<!-- :feature:other&#45;list -->
<g id="node11" class="node">
<title>:feature:other&#45;list</title>
<ellipse fill="none" stroke="black" cx="2080.44" cy="-18" rx="92.88" ry="18"/>
<text text-anchor="middle" x="2080.44" y="-14.3" font-family="Times,serif" font-size="14.00">:feature:other&#45;list</text>
</g>
<!-- :app:shared&#45;&gt;:feature:other&#45;list -->
<g id="edge10" class="edge">
<title>:app:shared&#45;&gt;:feature:other&#45;list</title>
<path fill="none" stroke="black" d="M2295.45,-76.89C2253.12,-65.49 2189.36,-48.32 2142.26,-35.64"/>
<polygon fill="black" stroke="black" points="2143.04,-32.23 2132.48,-33.01 2141.22,-38.99 2143.04,-32.23"/>
</g>
<!-- :feature:other&#45;server&#45;ip&#45;detail -->
<g id="node12" class="node">
<title>:feature:other&#45;server&#45;ip&#45;detail</title>
<ellipse fill="none" stroke="black" cx="2340.44" cy="-18" rx="148.67" ry="18"/>
<text text-anchor="middle" x="2340.44" y="-14.3" font-family="Times,serif" font-size="14.00">:feature:other&#45;server&#45;ip&#45;detail</text>
</g>
<!-- :app:shared&#45;&gt;:feature:other&#45;server&#45;ip&#45;detail -->
<g id="edge11" class="edge">
<title>:app:shared&#45;&gt;:feature:other&#45;server&#45;ip&#45;detail</title>
<path fill="none" stroke="black" d="M2340.44,-71.7C2340.44,-63.98 2340.44,-54.71 2340.44,-46.11"/>
<polygon fill="black" stroke="black" points="2343.94,-46.1 2340.44,-36.1 2336.94,-46.1 2343.94,-46.1"/>
</g>
<!-- :feature:other&#45;console&#45;ip&#45;detail -->
<g id="node13" class="node">
<title>:feature:other&#45;console&#45;ip&#45;detail</title>
<ellipse fill="none" stroke="black" cx="2660.44" cy="-18" rx="153.27" ry="18"/>
<text text-anchor="middle" x="2660.44" y="-14.3" font-family="Times,serif" font-size="14.00">:feature:other&#45;console&#45;ip&#45;detail</text>
</g>
<!-- :app:shared&#45;&gt;:feature:other&#45;console&#45;ip&#45;detail -->
<g id="edge12" class="edge">
<title>:app:shared&#45;&gt;:feature:other&#45;console&#45;ip&#45;detail</title>
<path fill="none" stroke="black" d="M2390.09,-78.14C2441.23,-66.95 2521.68,-49.35 2581.55,-36.26"/>
<polygon fill="black" stroke="black" points="2582.32,-39.67 2591.34,-34.12 2580.83,-32.83 2582.32,-39.67"/>
</g>
<!-- :feature:other&#45;readout&#45;start&#45;sound&#45;detail -->
<g id="node14" class="node">
<title>:feature:other&#45;readout&#45;start&#45;sound&#45;detail</title>
<ellipse fill="none" stroke="black" cx="3031.44" cy="-18" rx="199.56" ry="18"/>
<text text-anchor="middle" x="3031.44" y="-14.3" font-family="Times,serif" font-size="14.00">:feature:other&#45;readout&#45;start&#45;sound&#45;detail</text>
</g>
<!-- :app:shared&#45;&gt;:feature:other&#45;readout&#45;start&#45;sound&#45;detail -->
<g id="edge13" class="edge">
<title>:app:shared&#45;&gt;:feature:other&#45;readout&#45;start&#45;sound&#45;detail</title>
<path fill="none" stroke="black" d="M2400.86,-82.88C2510.31,-71.79 2743.96,-48.12 2894.06,-32.92"/>
<polygon fill="black" stroke="black" points="2894.68,-36.37 2904.28,-31.88 2893.98,-29.41 2894.68,-36.37"/>
</g>
<!-- :feature:other&#45;volume&#45;detail -->
<g id="node15" class="node">
<title>:feature:other&#45;volume&#45;detail</title>
<ellipse fill="none" stroke="black" cx="3390.44" cy="-18" rx="141.07" ry="18"/>
<text text-anchor="middle" x="3390.44" y="-14.3" font-family="Times,serif" font-size="14.00">:feature:other&#45;volume&#45;detail</text>
</g>
<!-- :app:shared&#45;&gt;:feature:other&#45;volume&#45;detail -->
<g id="edge14" class="edge">
<title>:app:shared&#45;&gt;:feature:other&#45;volume&#45;detail</title>
<path fill="none" stroke="black" d="M2404.92,-86.4C2552.81,-80.18 2927.77,-62.9 3240.44,-36 3253.89,-34.84 3268,-33.46 3281.96,-32"/>
<polygon fill="black" stroke="black" points="3282.51,-35.46 3292.08,-30.92 3281.77,-28.5 3282.51,-35.46"/>
</g>
<!-- :feature:readout&#45;list -->
<g id="node16" class="node">
<title>:feature:readout&#45;list</title>
<ellipse fill="none" stroke="black" cx="3653.44" cy="-18" rx="103.98" ry="18"/>
<text text-anchor="middle" x="3653.44" y="-14.3" font-family="Times,serif" font-size="14.00">:feature:readout&#45;list</text>
</g>
<!-- :app:shared&#45;&gt;:feature:readout&#45;list -->
<g id="edge15" class="edge">
<title>:app:shared&#45;&gt;:feature:readout&#45;list</title>
<path fill="none" stroke="black" d="M2405.98,-88.52C2586.99,-86.69 3108.97,-77.87 3540.44,-36 3550.37,-35.04 3560.75,-33.8 3571.02,-32.43"/>
<polygon fill="black" stroke="black" points="3571.82,-35.85 3581.25,-31.02 3570.86,-28.92 3571.82,-35.85"/>
</g>
<!-- :feature:lmu&#45;windows&#45;readout&#45;vehicle&#45;approach&#45;detail -->
<g id="node17" class="node">
<title>:feature:lmu&#45;windows&#45;readout&#45;vehicle&#45;approach&#45;detail</title>
<ellipse fill="none" stroke="black" cx="4036.44" cy="-18" rx="260.75" ry="18"/>
<text text-anchor="middle" x="4036.44" y="-14.3" font-family="Times,serif" font-size="14.00">:feature:lmu&#45;windows&#45;readout&#45;vehicle&#45;approach&#45;detail</text>
</g>
<!-- :app:shared&#45;&gt;:feature:lmu&#45;windows&#45;readout&#45;vehicle&#45;approach&#45;detail -->
<g id="edge16" class="edge">
<title>:app:shared&#45;&gt;:feature:lmu&#45;windows&#45;readout&#45;vehicle&#45;approach&#45;detail</title>
<path fill="none" stroke="black" d="M2405.49,-87.18C2607.44,-81.4 3241.58,-62.27 3766.44,-36 3792.13,-34.71 3819.18,-33.2 3845.83,-31.62"/>
<polygon fill="black" stroke="black" points="3846.25,-35.1 3856.03,-31.01 3845.83,-28.11 3846.25,-35.1"/>
</g>
<!-- :feature:lmu&#45;windows&#45;readout&#45;flag&#45;detail -->
<g id="node18" class="node">
<title>:feature:lmu&#45;windows&#45;readout&#45;flag&#45;detail</title>
<ellipse fill="none" stroke="black" cx="4514.44" cy="-18" rx="199.56" ry="18"/>
<text text-anchor="middle" x="4514.44" y="-14.3" font-family="Times,serif" font-size="14.00">:feature:lmu&#45;windows&#45;readout&#45;flag&#45;detail</text>
</g>
<!-- :app:shared&#45;&gt;:feature:lmu&#45;windows&#45;readout&#45;flag&#45;detail -->
<g id="edge17" class="edge">
<title>:app:shared&#45;&gt;:feature:lmu&#45;windows&#45;readout&#45;flag&#45;detail</title>
<path fill="none" stroke="black" d="M2406.26,-88.53C2654.95,-86.47 3561.06,-76.48 4306.44,-36 4326.42,-34.92 4347.45,-33.51 4368.16,-31.97"/>
<polygon fill="black" stroke="black" points="4368.59,-35.44 4378.3,-31.2 4368.06,-28.46 4368.59,-35.44"/>
</g>
<!-- :feature:lmu&#45;windows&#45;readout&#45;vehicle&#45;damage&#45;detail -->
<g id="node19" class="node">
<title>:feature:lmu&#45;windows&#45;readout&#45;vehicle&#45;damage&#45;detail</title>
<ellipse fill="none" stroke="black" cx="4986.44" cy="-18" rx="254.55" ry="18"/>
<text text-anchor="middle" x="4986.44" y="-14.3" font-family="Times,serif" font-size="14.00">:feature:lmu&#45;windows&#45;readout&#45;vehicle&#45;damage&#45;detail</text>
</g>
<!-- :app:shared&#45;&gt;:feature:lmu&#45;windows&#45;readout&#45;vehicle&#45;damage&#45;detail -->
<g id="edge18" class="edge">
<title>:app:shared&#45;&gt;:feature:lmu&#45;windows&#45;readout&#45;vehicle&#45;damage&#45;detail</title>
<path fill="none" stroke="black" d="M2406.34,-88.56C2686.34,-86.45 3805.12,-75.87 4723.44,-36 4749.28,-34.88 4776.54,-33.42 4803.32,-31.84"/>
<polygon fill="black" stroke="black" points="4803.78,-35.31 4813.55,-31.22 4803.36,-28.33 4803.78,-35.31"/>
</g>
<!-- :feature:gt7&#45;ps5&#45;readout&#45;my&#45;bestlap&#45;detail -->
<g id="node20" class="node">
<title>:feature:gt7&#45;ps5&#45;readout&#45;my&#45;bestlap&#45;detail</title>
<ellipse fill="none" stroke="black" cx="5467.44" cy="-18" rx="207.96" ry="18"/>
<text text-anchor="middle" x="5467.44" y="-14.3" font-family="Times,serif" font-size="14.00">:feature:gt7&#45;ps5&#45;readout&#45;my&#45;bestlap&#45;detail</text>
</g>
<!-- :app:shared&#45;&gt;:feature:gt7&#45;ps5&#45;readout&#45;my&#45;bestlap&#45;detail -->
<g id="edge19" class="edge">
<title>:app:shared&#45;&gt;:feature:gt7&#45;ps5&#45;readout&#45;my&#45;bestlap&#45;detail</title>
<path fill="none" stroke="black" d="M2406.05,-89.26C2721.35,-90.2 4112.33,-90.9 5250.44,-36 5271.8,-34.97 5294.32,-33.56 5316.44,-32"/>
<polygon fill="black" stroke="black" points="5316.85,-35.48 5326.57,-31.27 5316.35,-28.5 5316.85,-35.48"/>
</g>
<!-- :app:desktopApp -->
<g id="node3" class="node">
<title>:app:desktopApp</title>
<ellipse fill="none" stroke="black" cx="2340.44" cy="-162" rx="88.28" ry="18"/>
<text text-anchor="middle" x="2340.44" y="-158.3" font-family="Times,serif" font-size="14.00">:app:desktopApp</text>
</g>
<!-- :app:desktopApp&#45;&gt;:app:shared -->
<g id="edge2" class="edge">
<title>:app:desktopApp&#45;&gt;:app:shared</title>
<path fill="none" stroke="black" d="M2340.44,-143.7C2340.44,-135.98 2340.44,-126.71 2340.44,-118.11"/>
<polygon fill="black" stroke="black" points="2343.94,-118.1 2340.44,-108.1 2336.94,-118.1 2343.94,-118.1"/>
</g>
<!-- :app:webApp -->
<g id="node21" class="node">
<title>:app:webApp</title>
<ellipse fill="none" stroke="black" cx="2517.44" cy="-162" rx="70.69" ry="18"/>
<text text-anchor="middle" x="2517.44" y="-158.3" font-family="Times,serif" font-size="14.00">:app:webApp</text>
</g>
<!-- :app:webApp&#45;&gt;:app:shared -->
<g id="edge20" class="edge">
<title>:app:webApp&#45;&gt;:app:shared</title>
<path fill="none" stroke="black" d="M2480.77,-146.5C2453.2,-135.59 2415.28,-120.6 2385.81,-108.94"/>
<polygon fill="black" stroke="black" points="2386.75,-105.55 2376.16,-105.13 2384.18,-112.06 2386.75,-105.55"/>
</g>
</g>
</svg>
