<?xml version="1.0" encoding="UTF-8" standalone="no"?>
<!DOCTYPE svg PUBLIC "-//W3C//DTD SVG 1.1//EN"
 "http://www.w3.org/Graphics/SVG/1.1/DTD/svg11.dtd">
<!-- Generated by graphviz version 2.43.0 (0)
 -->
<!-- Title: G Pages: 1 -->
<svg width="2333pt" height="188pt"
 viewBox="0.00 0.00 2333.12 188.00" xmlns="http://www.w3.org/2000/svg" xmlns:xlink="http://www.w3.org/1999/xlink">
<g id="graph0" class="graph" transform="scale(1 1) rotate(0) translate(4 184)">
<title>G</title>
<polygon fill="white" stroke="transparent" points="-4,4 -4,-184 2329.12,-184 2329.12,4 -4,4"/>
<!-- :app:androidApp -->
<g id="node1" class="node">
<title>:app:androidApp</title>
<ellipse fill="none" stroke="black" cx="722.89" cy="-162" rx="87.18" ry="18"/>
<text text-anchor="middle" x="722.89" y="-158.3" font-family="Times,serif" font-size="14.00">:app:androidApp</text>
</g>
<!-- :app:shared -->
<g id="node2" class="node">
<title>:app:shared</title>
<ellipse fill="none" stroke="black" cx="915.89" cy="-90" rx="65.79" ry="18"/>
<text text-anchor="middle" x="915.89" y="-86.3" font-family="Times,serif" font-size="14.00">:app:shared</text>
</g>
<!-- :app:androidApp&#45;&gt;:app:shared -->
<g id="edge1" class="edge">
<title>:app:androidApp&#45;&gt;:app:shared</title>
<path fill="none" stroke="black" d="M764.29,-145.98C794.81,-134.92 836.38,-119.84 868.27,-108.27"/>
<polygon fill="black" stroke="black" points="869.62,-111.5 877.83,-104.8 867.24,-104.92 869.62,-111.5"/>
</g>
<!-- :feature:lmu&#45;connection -->
<g id="node4" class="node">
<title>:feature:lmu&#45;connection</title>
<ellipse fill="none" stroke="black" cx="120.89" cy="-18" rx="120.78" ry="18"/>
<text text-anchor="middle" x="120.89" y="-14.3" font-family="Times,serif" font-size="14.00">:feature:lmu&#45;connection</text>
</g>
<!-- :app:shared&#45;&gt;:feature:lmu&#45;connection -->
<g id="edge3" class="edge">
<title>:app:shared&#45;&gt;:feature:lmu&#45;connection</title>
<path fill="none" stroke="black" d="M852.52,-85.02C734.15,-77.35 471.46,-59.2 250.89,-36 239.68,-34.82 227.95,-33.46 216.31,-32.04"/>
<polygon fill="black" stroke="black" points="216.48,-28.53 206.13,-30.77 215.62,-35.48 216.48,-28.53"/>
</g>
<!-- :feature:lmu&#45;narrator -->
<g id="node5" class="node">
<title>:feature:lmu&#45;narrator</title>
<ellipse fill="none" stroke="black" cx="369.89" cy="-18" rx="109.68" ry="18"/>
<text text-anchor="middle" x="369.89" y="-14.3" font-family="Times,serif" font-size="14.00">:feature:lmu&#45;narrator</text>
</g>
<!-- :app:shared&#45;&gt;:feature:lmu&#45;narrator -->
<g id="edge4" class="edge">
<title>:app:shared&#45;&gt;:feature:lmu&#45;narrator</title>
<path fill="none" stroke="black" d="M856.65,-82.04C774,-72.25 619.43,-53.62 487.89,-36 478.53,-34.75 468.75,-33.4 459.01,-32.03"/>
<polygon fill="black" stroke="black" points="459.27,-28.53 448.88,-30.6 458.3,-35.47 459.27,-28.53"/>
</g>
<!-- :feature:other&#45;detail -->
<g id="node6" class="node">
<title>:feature:other&#45;detail</title>
<ellipse fill="none" stroke="black" cx="601.89" cy="-18" rx="104.78" ry="18"/>
<text text-anchor="middle" x="601.89" y="-14.3" font-family="Times,serif" font-size="14.00">:feature:other&#45;detail</text>
</g>
<!-- :app:shared&#45;&gt;:feature:other&#45;detail -->
<g id="edge5" class="edge">
<title>:app:shared&#45;&gt;:feature:other&#45;detail</title>
<path fill="none" stroke="black" d="M866.48,-77.99C814.48,-66.39 732.14,-48.04 673.13,-34.88"/>
<polygon fill="black" stroke="black" points="673.65,-31.41 663.13,-32.65 672.13,-38.24 673.65,-31.41"/>
</g>
<!-- :feature:other&#45;list -->
<g id="node7" class="node">
<title>:feature:other&#45;list</title>
<ellipse fill="none" stroke="black" cx="817.89" cy="-18" rx="92.88" ry="18"/>
<text text-anchor="middle" x="817.89" y="-14.3" font-family="Times,serif" font-size="14.00">:feature:other&#45;list</text>
</g>
<!-- :app:shared&#45;&gt;:feature:other&#45;list -->
<g id="edge6" class="edge">
<title>:app:shared&#45;&gt;:feature:other&#45;list</title>
<path fill="none" stroke="black" d="M893.16,-72.76C880.24,-63.53 863.85,-51.83 849.67,-41.7"/>
<polygon fill="black" stroke="black" points="851.35,-38.6 841.18,-35.63 847.28,-44.29 851.35,-38.6"/>
</g>
<!-- :feature:readout -->
<g id="node8" class="node">
<title>:feature:readout</title>
<ellipse fill="none" stroke="black" cx="1014.89" cy="-18" rx="86.38" ry="18"/>
<text text-anchor="middle" x="1014.89" y="-14.3" font-family="Times,serif" font-size="14.00">:feature:readout</text>
</g>
<!-- :app:shared&#45;&gt;:feature:readout -->
<g id="edge7" class="edge">
<title>:app:shared&#45;&gt;:feature:readout</title>
<path fill="none" stroke="black" d="M938.85,-72.76C952.12,-63.38 969.01,-51.44 983.5,-41.19"/>
<polygon fill="black" stroke="black" points="985.56,-44.02 991.71,-35.39 981.52,-38.31 985.56,-44.02"/>
</g>
<!-- :feature:lmu&#45;readout&#45;vehicle&#45;approach&#45;detail -->
<g id="node9" class="node">
<title>:feature:lmu&#45;readout&#45;vehicle&#45;approach&#45;detail</title>
<ellipse fill="none" stroke="black" cx="1336.89" cy="-18" rx="217.96" ry="18"/>
<text text-anchor="middle" x="1336.89" y="-14.3" font-family="Times,serif" font-size="14.00">:feature:lmu&#45;readout&#45;vehicle&#45;approach&#45;detail</text>
</g>
<!-- :app:shared&#45;&gt;:feature:lmu&#45;readout&#45;vehicle&#45;approach&#45;detail -->
<g id="edge8" class="edge">
<title>:app:shared&#45;&gt;:feature:lmu&#45;readout&#45;vehicle&#45;approach&#45;detail</title>
<path fill="none" stroke="black" d="M970.5,-79.92C1037.2,-68.83 1151.42,-49.84 1234.63,-36"/>
<polygon fill="black" stroke="black" points="1235.33,-39.43 1244.62,-34.34 1234.18,-32.53 1235.33,-39.43"/>
</g>
<!-- :feature:lmu&#45;readout&#45;flag&#45;detail -->
<g id="node10" class="node">
<title>:feature:lmu&#45;readout&#45;flag&#45;detail</title>
<ellipse fill="none" stroke="black" cx="1728.89" cy="-18" rx="155.97" ry="18"/>
<text text-anchor="middle" x="1728.89" y="-14.3" font-family="Times,serif" font-size="14.00">:feature:lmu&#45;readout&#45;flag&#45;detail</text>
</g>
<!-- :app:shared&#45;&gt;:feature:lmu&#45;readout&#45;flag&#45;detail -->
<g id="edge9" class="edge">
<title>:app:shared&#45;&gt;:feature:lmu&#45;readout&#45;flag&#45;detail</title>
<path fill="none" stroke="black" d="M978.48,-84.32C1094.16,-75.58 1349.21,-55.84 1563.89,-36 1578.1,-34.69 1593,-33.24 1607.77,-31.77"/>
<polygon fill="black" stroke="black" points="1608.38,-35.23 1617.98,-30.75 1607.68,-28.27 1608.38,-35.23"/>
</g>
<!-- :feature:lmu&#45;readout&#45;vehicle&#45;damage&#45;detail -->
<g id="node11" class="node">
<title>:feature:lmu&#45;readout&#45;vehicle&#45;damage&#45;detail</title>
<ellipse fill="none" stroke="black" cx="2113.89" cy="-18" rx="211.46" ry="18"/>
<text text-anchor="middle" x="2113.89" y="-14.3" font-family="Times,serif" font-size="14.00">:feature:lmu&#45;readout&#45;vehicle&#45;damage&#45;detail</text>
</g>
<!-- :app:shared&#45;&gt;:feature:lmu&#45;readout&#45;vehicle&#45;damage&#45;detail -->
<g id="edge10" class="edge">
<title>:app:shared&#45;&gt;:feature:lmu&#45;readout&#45;vehicle&#45;damage&#45;detail</title>
<path fill="none" stroke="black" d="M980,-86.04C1136.3,-78.7 1549.45,-58.64 1893.89,-36 1913.93,-34.68 1934.98,-33.19 1955.8,-31.65"/>
<polygon fill="black" stroke="black" points="1956.28,-35.13 1966,-30.9 1955.77,-28.15 1956.28,-35.13"/>
</g>
<!-- :app:desktopApp -->
<g id="node3" class="node">
<title>:app:desktopApp</title>
<ellipse fill="none" stroke="black" cx="915.89" cy="-162" rx="88.28" ry="18"/>
<text text-anchor="middle" x="915.89" y="-158.3" font-family="Times,serif" font-size="14.00">:app:desktopApp</text>
</g>
<!-- :app:desktopApp&#45;&gt;:app:shared -->
<g id="edge2" class="edge">
<title>:app:desktopApp&#45;&gt;:app:shared</title>
<path fill="none" stroke="black" d="M915.89,-143.7C915.89,-135.98 915.89,-126.71 915.89,-118.11"/>
<polygon fill="black" stroke="black" points="919.39,-118.1 915.89,-108.1 912.39,-118.1 919.39,-118.1"/>
</g>
<!-- :app:webApp -->
<g id="node12" class="node">
<title>:app:webApp</title>
<ellipse fill="none" stroke="black" cx="1092.89" cy="-162" rx="70.69" ry="18"/>
<text text-anchor="middle" x="1092.89" y="-158.3" font-family="Times,serif" font-size="14.00">:app:webApp</text>
</g>
<!-- :app:webApp&#45;&gt;:app:shared -->
<g id="edge11" class="edge">
<title>:app:webApp&#45;&gt;:app:shared</title>
<path fill="none" stroke="black" d="M1056.21,-146.5C1028.65,-135.59 990.73,-120.6 961.25,-108.94"/>
<polygon fill="black" stroke="black" points="962.2,-105.55 951.61,-105.13 959.62,-112.06 962.2,-105.55"/>
</g>
</g>
</svg>
