<?xml version="1.0" encoding="UTF-8" standalone="no"?>
<!DOCTYPE svg PUBLIC "-//W3C//DTD SVG 1.1//EN"
 "http://www.w3.org/Graphics/SVG/1.1/DTD/svg11.dtd">
<!-- Generated by graphviz version 2.43.0 (0)
 -->
<!-- Title: G Pages: 1 -->
<svg width="1130pt" height="188pt"
 viewBox="0.00 0.00 1129.63 188.00" xmlns="http://www.w3.org/2000/svg" xmlns:xlink="http://www.w3.org/1999/xlink">
<g id="graph0" class="graph" transform="scale(1 1) rotate(0) translate(4 184)">
<title>G</title>
<polygon fill="white" stroke="transparent" points="-4,4 -4,-184 1125.63,-184 1125.63,4 -4,4"/>
<!-- :app:androidApp -->
<g id="node1" class="node">
<title>:app:androidApp</title>
<ellipse fill="none" stroke="black" cx="258.04" cy="-162" rx="87.18" ry="18"/>
<text text-anchor="middle" x="258.04" y="-158.3" font-family="Times,serif" font-size="14.00">:app:androidApp</text>
</g>
<!-- :app:shared -->
<g id="node2" class="node">
<title>:app:shared</title>
<ellipse fill="none" stroke="black" cx="451.04" cy="-90" rx="65.79" ry="18"/>
<text text-anchor="middle" x="451.04" y="-86.3" font-family="Times,serif" font-size="14.00">:app:shared</text>
</g>
<!-- :app:androidApp&#45;&gt;:app:shared -->
<g id="edge1" class="edge">
<title>:app:androidApp&#45;&gt;:app:shared</title>
<path fill="none" stroke="black" d="M299.45,-145.98C329.96,-134.92 371.53,-119.84 403.42,-108.27"/>
<polygon fill="black" stroke="black" points="404.78,-111.5 412.98,-104.8 402.39,-104.92 404.78,-111.5"/>
</g>
<!-- :feature:narrator -->
<g id="node4" class="node">
<title>:feature:narrator</title>
<ellipse fill="none" stroke="black" cx="89.04" cy="-18" rx="89.08" ry="18"/>
<text text-anchor="middle" x="89.04" y="-14.3" font-family="Times,serif" font-size="14.00">:feature:narrator</text>
</g>
<!-- :app:shared&#45;&gt;:feature:narrator -->
<g id="edge3" class="edge">
<title>:app:shared&#45;&gt;:feature:narrator</title>
<path fill="none" stroke="black" d="M398.79,-78.9C336.27,-66.81 231.27,-46.5 161.08,-32.93"/>
<polygon fill="black" stroke="black" points="161.47,-29.44 150.99,-30.98 160.14,-36.31 161.47,-29.44"/>
</g>
<!-- :feature:other -->
<g id="node5" class="node">
<title>:feature:other</title>
<ellipse fill="none" stroke="black" cx="271.04" cy="-18" rx="75.29" ry="18"/>
<text text-anchor="middle" x="271.04" y="-14.3" font-family="Times,serif" font-size="14.00">:feature:other</text>
</g>
<!-- :app:shared&#45;&gt;:feature:other -->
<g id="edge4" class="edge">
<title>:app:shared&#45;&gt;:feature:other</title>
<path fill="none" stroke="black" d="M414.62,-74.83C386.81,-64.02 348.27,-49.03 318.12,-37.31"/>
<polygon fill="black" stroke="black" points="319.24,-33.99 308.65,-33.63 316.7,-40.51 319.24,-33.99"/>
</g>
<!-- :feature:readout -->
<g id="node6" class="node">
<title>:feature:readout</title>
<ellipse fill="none" stroke="black" cx="451.04" cy="-18" rx="86.38" ry="18"/>
<text text-anchor="middle" x="451.04" y="-14.3" font-family="Times,serif" font-size="14.00">:feature:readout</text>
</g>
<!-- :app:shared&#45;&gt;:feature:readout -->
<g id="edge5" class="edge">
<title>:app:shared&#45;&gt;:feature:readout</title>
<path fill="none" stroke="black" d="M451.04,-71.7C451.04,-63.98 451.04,-54.71 451.04,-46.11"/>
<polygon fill="black" stroke="black" points="454.54,-46.1 451.04,-36.1 447.54,-46.1 454.54,-46.1"/>
</g>
<!-- :feature:readout&#45;vehicle&#45;approach -->
<g id="node7" class="node">
<title>:feature:readout&#45;vehicle&#45;approach</title>
<ellipse fill="none" stroke="black" cx="723.04" cy="-18" rx="167.87" ry="18"/>
<text text-anchor="middle" x="723.04" y="-14.3" font-family="Times,serif" font-size="14.00">:feature:readout&#45;vehicle&#45;approach</text>
</g>
<!-- :app:shared&#45;&gt;:feature:readout&#45;vehicle&#45;approach -->
<g id="edge6" class="edge">
<title>:app:shared&#45;&gt;:feature:readout&#45;vehicle&#45;approach</title>
<path fill="none" stroke="black" d="M497.18,-77.13C539.51,-66.23 602.86,-49.93 651.7,-37.36"/>
<polygon fill="black" stroke="black" points="652.77,-40.7 661.58,-34.82 651.02,-33.92 652.77,-40.7"/>
</g>
<!-- :feature:readout&#45;flag -->
<g id="node8" class="node">
<title>:feature:readout&#45;flag</title>
<ellipse fill="none" stroke="black" cx="1015.04" cy="-18" rx="106.68" ry="18"/>
<text text-anchor="middle" x="1015.04" y="-14.3" font-family="Times,serif" font-size="14.00">:feature:readout&#45;flag</text>
</g>
<!-- :app:shared&#45;&gt;:feature:readout&#45;flag -->
<g id="edge7" class="edge">
<title>:app:shared&#45;&gt;:feature:readout&#45;flag</title>
<path fill="none" stroke="black" d="M511.03,-82.48C597.2,-73 760.96,-54.48 900.04,-36 909.32,-34.77 919.02,-33.42 928.67,-32.05"/>
<polygon fill="black" stroke="black" points="929.29,-35.49 938.69,-30.61 928.29,-28.56 929.29,-35.49"/>
</g>
<!-- :app:desktopApp -->
<g id="node3" class="node">
<title>:app:desktopApp</title>
<ellipse fill="none" stroke="black" cx="451.04" cy="-162" rx="88.28" ry="18"/>
<text text-anchor="middle" x="451.04" y="-158.3" font-family="Times,serif" font-size="14.00">:app:desktopApp</text>
</g>
<!-- :app:desktopApp&#45;&gt;:app:shared -->
<g id="edge2" class="edge">
<title>:app:desktopApp&#45;&gt;:app:shared</title>
<path fill="none" stroke="black" d="M451.04,-143.7C451.04,-135.98 451.04,-126.71 451.04,-118.11"/>
<polygon fill="black" stroke="black" points="454.54,-118.1 451.04,-108.1 447.54,-118.1 454.54,-118.1"/>
</g>
<!-- :app:webApp -->
<g id="node9" class="node">
<title>:app:webApp</title>
<ellipse fill="none" stroke="black" cx="628.04" cy="-162" rx="70.69" ry="18"/>
<text text-anchor="middle" x="628.04" y="-158.3" font-family="Times,serif" font-size="14.00">:app:webApp</text>
</g>
<!-- :app:webApp&#45;&gt;:app:shared -->
<g id="edge8" class="edge">
<title>:app:webApp&#45;&gt;:app:shared</title>
<path fill="none" stroke="black" d="M591.37,-146.5C563.8,-135.59 525.88,-120.6 496.41,-108.94"/>
<polygon fill="black" stroke="black" points="497.35,-105.55 486.76,-105.13 494.77,-112.06 497.35,-105.55"/>
</g>
</g>
</svg>
