<?xml version="1.0" encoding="UTF-8" standalone="no"?>
<!DOCTYPE svg PUBLIC "-//W3C//DTD SVG 1.1//EN"
 "http://www.w3.org/Graphics/SVG/1.1/DTD/svg11.dtd">
<!-- Generated by graphviz version 2.43.0 (0)
 -->
<!-- Title: G Pages: 1 -->
<svg width="5085pt" height="188pt"
 viewBox="0.00 0.00 5085.43 188.00" xmlns="http://www.w3.org/2000/svg" xmlns:xlink="http://www.w3.org/1999/xlink">
<g id="graph0" class="graph" transform="scale(1 1) rotate(0) translate(4 184)">
<title>G</title>
<polygon fill="white" stroke="transparent" points="-4,4 -4,-184 5081.43,-184 5081.43,4 -4,4"/>
<!-- :app:androidApp -->
<g id="node1" class="node">
<title>:app:androidApp</title>
<ellipse fill="none" stroke="black" cx="1874.44" cy="-162" rx="87.18" ry="18"/>
<text text-anchor="middle" x="1874.44" y="-158.3" font-family="Times,serif" font-size="14.00">:app:androidApp</text>
</g>
<!-- :app:shared -->
<g id="node2" class="node">
<title>:app:shared</title>
<ellipse fill="none" stroke="black" cx="2067.44" cy="-90" rx="65.79" ry="18"/>
<text text-anchor="middle" x="2067.44" y="-86.3" font-family="Times,serif" font-size="14.00">:app:shared</text>
</g>
<!-- :app:androidApp&#45;&gt;:app:shared -->
<g id="edge1" class="edge">
<title>:app:androidApp&#45;&gt;:app:shared</title>
<path fill="none" stroke="black" d="M1915.85,-145.98C1946.36,-134.92 1987.93,-119.84 2019.82,-108.27"/>
<polygon fill="black" stroke="black" points="2021.18,-111.5 2029.38,-104.8 2018.79,-104.92 2021.18,-111.5"/>
</g>
<!-- :feature:main -->
<g id="node4" class="node">
<title>:feature:main</title>
<ellipse fill="none" stroke="black" cx="73.44" cy="-18" rx="73.39" ry="18"/>
<text text-anchor="middle" x="73.44" y="-14.3" font-family="Times,serif" font-size="14.00">:feature:main</text>
</g>
<!-- :app:shared&#45;&gt;:feature:main -->
<g id="edge3" class="edge">
<title>:app:shared&#45;&gt;:feature:main</title>
<path fill="none" stroke="black" d="M2001.66,-88.71C1709.23,-87.21 525.31,-78.56 156.44,-36 149.31,-35.18 141.88,-34.05 134.53,-32.76"/>
<polygon fill="black" stroke="black" points="135.05,-29.3 124.58,-30.93 133.78,-36.19 135.05,-29.3"/>
</g>
<!-- :feature:lmu&#45;windows&#45;connection -->
<g id="node5" class="node">
<title>:feature:lmu&#45;windows&#45;connection</title>
<ellipse fill="none" stroke="black" cx="329.44" cy="-18" rx="164.37" ry="18"/>
<text text-anchor="middle" x="329.44" y="-14.3" font-family="Times,serif" font-size="14.00">:feature:lmu&#45;windows&#45;connection</text>
</g>
<!-- :app:shared&#45;&gt;:feature:lmu&#45;windows&#45;connection -->
<g id="edge4" class="edge">
<title>:app:shared&#45;&gt;:feature:lmu&#45;windows&#45;connection</title>
<path fill="none" stroke="black" d="M2001.81,-88.27C1786.72,-85.55 1083.59,-74.13 503.44,-36 486.99,-34.92 469.68,-33.53 452.62,-32.01"/>
<polygon fill="black" stroke="black" points="452.89,-28.52 442.61,-31.11 452.26,-35.5 452.89,-28.52"/>
</g>
<!-- :feature:gt7&#45;ps5&#45;connection -->
<g id="node6" class="node">
<title>:feature:gt7&#45;ps5&#45;connection</title>
<ellipse fill="none" stroke="black" cx="650.44" cy="-18" rx="138.38" ry="18"/>
<text text-anchor="middle" x="650.44" y="-14.3" font-family="Times,serif" font-size="14.00">:feature:gt7&#45;ps5&#45;connection</text>
</g>
<!-- :app:shared&#45;&gt;:feature:gt7&#45;ps5&#45;connection -->
<g id="edge5" class="edge">
<title>:app:shared&#45;&gt;:feature:gt7&#45;ps5&#45;connection</title>
<path fill="none" stroke="black" d="M2001.96,-87.94C1814.29,-84.55 1258.44,-71.98 798.44,-36 784.85,-34.94 770.59,-33.59 756.5,-32.12"/>
<polygon fill="black" stroke="black" points="756.59,-28.61 746.28,-31.04 755.85,-35.58 756.59,-28.61"/>
</g>
<!-- :feature:server&#45;connection -->
<g id="node7" class="node">
<title>:feature:server&#45;connection</title>
<ellipse fill="none" stroke="black" cx="940.44" cy="-18" rx="133.48" ry="18"/>
<text text-anchor="middle" x="940.44" y="-14.3" font-family="Times,serif" font-size="14.00">:feature:server&#45;connection</text>
</g>
<!-- :app:shared&#45;&gt;:feature:server&#45;connection -->
<g id="edge6" class="edge">
<title>:app:shared&#45;&gt;:feature:server&#45;connection</title>
<path fill="none" stroke="black" d="M2002.58,-86.95C1844.94,-81.67 1429.24,-65.84 1083.44,-36 1070.54,-34.89 1057.01,-33.53 1043.62,-32.07"/>
<polygon fill="black" stroke="black" points="1043.76,-28.56 1033.43,-30.94 1042.98,-35.52 1043.76,-28.56"/>
</g>
<!-- :feature:lmu&#45;windows&#45;narrator -->
<g id="node8" class="node">
<title>:feature:lmu&#45;windows&#45;narrator</title>
<ellipse fill="none" stroke="black" cx="1245.44" cy="-18" rx="153.27" ry="18"/>
<text text-anchor="middle" x="1245.44" y="-14.3" font-family="Times,serif" font-size="14.00">:feature:lmu&#45;windows&#45;narrator</text>
</g>
<!-- :app:shared&#45;&gt;:feature:lmu&#45;windows&#45;narrator -->
<g id="edge7" class="edge">
<title>:app:shared&#45;&gt;:feature:lmu&#45;windows&#45;narrator</title>
<path fill="none" stroke="black" d="M2004.61,-84.47C1887.22,-75.89 1626.64,-56.3 1407.44,-36 1393.37,-34.7 1378.62,-33.25 1364,-31.78"/>
<polygon fill="black" stroke="black" points="1364.2,-28.28 1353.9,-30.75 1363.49,-35.24 1364.2,-28.28"/>
</g>
<!-- :feature:other&#45;license&#45;detail -->
<g id="node9" class="node">
<title>:feature:other&#45;license&#45;detail</title>
<ellipse fill="none" stroke="black" cx="1556.44" cy="-18" rx="139.98" ry="18"/>
<text text-anchor="middle" x="1556.44" y="-14.3" font-family="Times,serif" font-size="14.00">:feature:other&#45;license&#45;detail</text>
</g>
<!-- :app:shared&#45;&gt;:feature:other&#45;license&#45;detail -->
<g id="edge8" class="edge">
<title>:app:shared&#45;&gt;:feature:other&#45;license&#45;detail</title>
<path fill="none" stroke="black" d="M2009.82,-81.11C1924.61,-69.43 1763.73,-47.4 1658.33,-32.96"/>
<polygon fill="black" stroke="black" points="1658.69,-29.47 1648.3,-31.58 1657.74,-36.41 1658.69,-29.47"/>
</g>
<!-- :feature:other&#45;list -->
<g id="node10" class="node">
<title>:feature:other&#45;list</title>
<ellipse fill="none" stroke="black" cx="1807.44" cy="-18" rx="92.88" ry="18"/>
<text text-anchor="middle" x="1807.44" y="-14.3" font-family="Times,serif" font-size="14.00">:feature:other&#45;list</text>
</g>
<!-- :app:shared&#45;&gt;:feature:other&#45;list -->
<g id="edge9" class="edge">
<title>:app:shared&#45;&gt;:feature:other&#45;list</title>
<path fill="none" stroke="black" d="M2022.45,-76.89C1980.12,-65.49 1916.36,-48.32 1869.26,-35.64"/>
<polygon fill="black" stroke="black" points="1870.04,-32.23 1859.48,-33.01 1868.22,-38.99 1870.04,-32.23"/>
</g>
<!-- :feature:other&#45;server&#45;ip&#45;detail -->
<g id="node11" class="node">
<title>:feature:other&#45;server&#45;ip&#45;detail</title>
<ellipse fill="none" stroke="black" cx="2067.44" cy="-18" rx="148.67" ry="18"/>
<text text-anchor="middle" x="2067.44" y="-14.3" font-family="Times,serif" font-size="14.00">:feature:other&#45;server&#45;ip&#45;detail</text>
</g>
<!-- :app:shared&#45;&gt;:feature:other&#45;server&#45;ip&#45;detail -->
<g id="edge10" class="edge">
<title>:app:shared&#45;&gt;:feature:other&#45;server&#45;ip&#45;detail</title>
<path fill="none" stroke="black" d="M2067.44,-71.7C2067.44,-63.98 2067.44,-54.71 2067.44,-46.11"/>
<polygon fill="black" stroke="black" points="2070.94,-46.1 2067.44,-36.1 2063.94,-46.1 2070.94,-46.1"/>
</g>
<!-- :feature:other&#45;readout&#45;start&#45;sound&#45;detail -->
<g id="node12" class="node">
<title>:feature:other&#45;readout&#45;start&#45;sound&#45;detail</title>
<ellipse fill="none" stroke="black" cx="2433.44" cy="-18" rx="199.56" ry="18"/>
<text text-anchor="middle" x="2433.44" y="-14.3" font-family="Times,serif" font-size="14.00">:feature:other&#45;readout&#45;start&#45;sound&#45;detail</text>
</g>
<!-- :app:shared&#45;&gt;:feature:other&#45;readout&#45;start&#45;sound&#45;detail -->
<g id="edge11" class="edge">
<title>:app:shared&#45;&gt;:feature:other&#45;readout&#45;start&#45;sound&#45;detail</title>
<path fill="none" stroke="black" d="M2119.88,-78.97C2177.81,-67.89 2272.17,-49.84 2342.27,-36.44"/>
<polygon fill="black" stroke="black" points="2343.26,-39.81 2352.42,-34.5 2341.94,-32.94 2343.26,-39.81"/>
</g>
<!-- :feature:other&#45;volume&#45;detail -->
<g id="node13" class="node">
<title>:feature:other&#45;volume&#45;detail</title>
<ellipse fill="none" stroke="black" cx="2792.44" cy="-18" rx="141.07" ry="18"/>
<text text-anchor="middle" x="2792.44" y="-14.3" font-family="Times,serif" font-size="14.00">:feature:other&#45;volume&#45;detail</text>
</g>
<!-- :app:shared&#45;&gt;:feature:other&#45;volume&#45;detail -->
<g id="edge12" class="edge">
<title>:app:shared&#45;&gt;:feature:other&#45;volume&#45;detail</title>
<path fill="none" stroke="black" d="M2129.18,-83.74C2234.51,-74.66 2455.71,-55.19 2642.44,-36 2655.22,-34.69 2668.6,-33.25 2681.89,-31.79"/>
<polygon fill="black" stroke="black" points="2682.47,-35.25 2692.02,-30.68 2681.7,-28.29 2682.47,-35.25"/>
</g>
<!-- :feature:readout&#45;list -->
<g id="node14" class="node">
<title>:feature:readout&#45;list</title>
<ellipse fill="none" stroke="black" cx="3055.44" cy="-18" rx="103.98" ry="18"/>
<text text-anchor="middle" x="3055.44" y="-14.3" font-family="Times,serif" font-size="14.00">:feature:readout&#45;list</text>
</g>
<!-- :app:shared&#45;&gt;:feature:readout&#45;list -->
<g id="edge13" class="edge">
<title>:app:shared&#45;&gt;:feature:readout&#45;list</title>
<path fill="none" stroke="black" d="M2132.37,-87.04C2277.77,-82.22 2640.5,-67.79 2942.44,-36 2952.21,-34.97 2962.42,-33.71 2972.55,-32.33"/>
<polygon fill="black" stroke="black" points="2973.2,-35.77 2982.62,-30.93 2972.23,-28.84 2973.2,-35.77"/>
</g>
<!-- :feature:lmu&#45;windows&#45;readout&#45;vehicle&#45;approach&#45;detail -->
<g id="node15" class="node">
<title>:feature:lmu&#45;windows&#45;readout&#45;vehicle&#45;approach&#45;detail</title>
<ellipse fill="none" stroke="black" cx="3438.44" cy="-18" rx="260.75" ry="18"/>
<text text-anchor="middle" x="3438.44" y="-14.3" font-family="Times,serif" font-size="14.00">:feature:lmu&#45;windows&#45;readout&#45;vehicle&#45;approach&#45;detail</text>
</g>
<!-- :app:shared&#45;&gt;:feature:lmu&#45;windows&#45;readout&#45;vehicle&#45;approach&#45;detail -->
<g id="edge14" class="edge">
<title>:app:shared&#45;&gt;:feature:lmu&#45;windows&#45;readout&#45;vehicle&#45;approach&#45;detail</title>
<path fill="none" stroke="black" d="M2131.68,-86.24C2301.19,-78.88 2774.6,-57.88 3168.44,-36 3193.39,-34.61 3219.62,-33.07 3245.53,-31.49"/>
<polygon fill="black" stroke="black" points="3246.06,-34.97 3255.83,-30.87 3245.64,-27.98 3246.06,-34.97"/>
</g>
<!-- :feature:lmu&#45;windows&#45;readout&#45;flag&#45;detail -->
<g id="node16" class="node">
<title>:feature:lmu&#45;windows&#45;readout&#45;flag&#45;detail</title>
<ellipse fill="none" stroke="black" cx="3916.44" cy="-18" rx="199.56" ry="18"/>
<text text-anchor="middle" x="3916.44" y="-14.3" font-family="Times,serif" font-size="14.00">:feature:lmu&#45;windows&#45;readout&#45;flag&#45;detail</text>
</g>
<!-- :app:shared&#45;&gt;:feature:lmu&#45;windows&#45;readout&#45;flag&#45;detail -->
<g id="edge15" class="edge">
<title>:app:shared&#45;&gt;:feature:lmu&#45;windows&#45;readout&#45;flag&#45;detail</title>
<path fill="none" stroke="black" d="M2132.77,-88.05C2354.14,-84.57 3096.23,-70.88 3708.44,-36 3728.26,-34.87 3749.12,-33.45 3769.67,-31.9"/>
<polygon fill="black" stroke="black" points="3770.03,-35.39 3779.73,-31.14 3769.49,-28.41 3770.03,-35.39"/>
</g>
<!-- :feature:lmu&#45;windows&#45;readout&#45;vehicle&#45;damage&#45;detail -->
<g id="node17" class="node">
<title>:feature:lmu&#45;windows&#45;readout&#45;vehicle&#45;damage&#45;detail</title>
<ellipse fill="none" stroke="black" cx="4388.44" cy="-18" rx="254.55" ry="18"/>
<text text-anchor="middle" x="4388.44" y="-14.3" font-family="Times,serif" font-size="14.00">:feature:lmu&#45;windows&#45;readout&#45;vehicle&#45;damage&#45;detail</text>
</g>
<!-- :app:shared&#45;&gt;:feature:lmu&#45;windows&#45;readout&#45;vehicle&#45;damage&#45;detail -->
<g id="edge16" class="edge">
<title>:app:shared&#45;&gt;:feature:lmu&#45;windows&#45;readout&#45;vehicle&#45;damage&#45;detail</title>
<path fill="none" stroke="black" d="M2132.79,-88.24C2387.89,-85.08 3341.28,-71.43 4125.44,-36 4151.08,-34.84 4178.11,-33.38 4204.68,-31.79"/>
<polygon fill="black" stroke="black" points="4205.07,-35.27 4214.84,-31.18 4204.65,-28.29 4205.07,-35.27"/>
</g>
<!-- :feature:gt7&#45;ps5&#45;readout&#45;my&#45;bestlap&#45;detail -->
<g id="node18" class="node">
<title>:feature:gt7&#45;ps5&#45;readout&#45;my&#45;bestlap&#45;detail</title>
<ellipse fill="none" stroke="black" cx="4869.44" cy="-18" rx="207.96" ry="18"/>
<text text-anchor="middle" x="4869.44" y="-14.3" font-family="Times,serif" font-size="14.00">:feature:gt7&#45;ps5&#45;readout&#45;my&#45;bestlap&#45;detail</text>
</g>
<!-- :app:shared&#45;&gt;:feature:gt7&#45;ps5&#45;readout&#45;my&#45;bestlap&#45;detail -->
<g id="edge17" class="edge">
<title>:app:shared&#45;&gt;:feature:gt7&#45;ps5&#45;readout&#45;my&#45;bestlap&#45;detail</title>
<path fill="none" stroke="black" d="M2133.4,-89.05C2427.71,-88.96 3650.42,-85.48 4652.44,-36 4673.72,-34.95 4696.14,-33.54 4718.18,-31.97"/>
<polygon fill="black" stroke="black" points="4718.56,-35.46 4728.28,-31.25 4718.05,-28.47 4718.56,-35.46"/>
</g>
<!-- :app:desktopApp -->
<g id="node3" class="node">
<title>:app:desktopApp</title>
<ellipse fill="none" stroke="black" cx="2067.44" cy="-162" rx="88.28" ry="18"/>
<text text-anchor="middle" x="2067.44" y="-158.3" font-family="Times,serif" font-size="14.00">:app:desktopApp</text>
</g>
<!-- :app:desktopApp&#45;&gt;:app:shared -->
<g id="edge2" class="edge">
<title>:app:desktopApp&#45;&gt;:app:shared</title>
<path fill="none" stroke="black" d="M2067.44,-143.7C2067.44,-135.98 2067.44,-126.71 2067.44,-118.11"/>
<polygon fill="black" stroke="black" points="2070.94,-118.1 2067.44,-108.1 2063.94,-118.1 2070.94,-118.1"/>
</g>
<!-- :app:webApp -->
<g id="node19" class="node">
<title>:app:webApp</title>
<ellipse fill="none" stroke="black" cx="2244.44" cy="-162" rx="70.69" ry="18"/>
<text text-anchor="middle" x="2244.44" y="-158.3" font-family="Times,serif" font-size="14.00">:app:webApp</text>
</g>
<!-- :app:webApp&#45;&gt;:app:shared -->
<g id="edge18" class="edge">
<title>:app:webApp&#45;&gt;:app:shared</title>
<path fill="none" stroke="black" d="M2207.77,-146.5C2180.2,-135.59 2142.28,-120.6 2112.81,-108.94"/>
<polygon fill="black" stroke="black" points="2113.75,-105.55 2103.16,-105.13 2111.18,-112.06 2113.75,-105.55"/>
</g>
</g>
</svg>
