<?xml version="1.0" encoding="UTF-8" standalone="no"?>
<!DOCTYPE svg PUBLIC "-//W3C//DTD SVG 1.1//EN"
 "http://www.w3.org/Graphics/SVG/1.1/DTD/svg11.dtd">
<!-- Generated by graphviz version 2.43.0 (0)
 -->
<!-- Title: G Pages: 1 -->
<svg width="5412pt" height="188pt"
 viewBox="0.00 0.00 5412.43 188.00" xmlns="http://www.w3.org/2000/svg" xmlns:xlink="http://www.w3.org/1999/xlink">
<g id="graph0" class="graph" transform="scale(1 1) rotate(0) translate(4 184)">
<title>G</title>
<polygon fill="white" stroke="transparent" points="-4,4 -4,-184 5408.43,-184 5408.43,4 -4,4"/>
<!-- :app:androidApp -->
<g id="node1" class="node">
<title>:app:androidApp</title>
<ellipse fill="none" stroke="black" cx="2034.44" cy="-162" rx="87.18" ry="18"/>
<text text-anchor="middle" x="2034.44" y="-158.3" font-family="Times,serif" font-size="14.00">:app:androidApp</text>
</g>
<!-- :app:shared -->
<g id="node2" class="node">
<title>:app:shared</title>
<ellipse fill="none" stroke="black" cx="2227.44" cy="-90" rx="65.79" ry="18"/>
<text text-anchor="middle" x="2227.44" y="-86.3" font-family="Times,serif" font-size="14.00">:app:shared</text>
</g>
<!-- :app:androidApp&#45;&gt;:app:shared -->
<g id="edge1" class="edge">
<title>:app:androidApp&#45;&gt;:app:shared</title>
<path fill="none" stroke="black" d="M2075.85,-145.98C2106.36,-134.92 2147.93,-119.84 2179.82,-108.27"/>
<polygon fill="black" stroke="black" points="2181.18,-111.5 2189.38,-104.8 2178.79,-104.92 2181.18,-111.5"/>
</g>
<!-- :feature:main -->
<g id="node4" class="node">
<title>:feature:main</title>
<ellipse fill="none" stroke="black" cx="73.44" cy="-18" rx="73.39" ry="18"/>
<text text-anchor="middle" x="73.44" y="-14.3" font-family="Times,serif" font-size="14.00">:feature:main</text>
</g>
<!-- :app:shared&#45;&gt;:feature:main -->
<g id="edge3" class="edge">
<title>:app:shared&#45;&gt;:feature:main</title>
<path fill="none" stroke="black" d="M2161.89,-88.88C1855.04,-88.08 558.67,-81.97 156.44,-36 149.31,-35.18 141.88,-34.06 134.52,-32.78"/>
<polygon fill="black" stroke="black" points="135.05,-29.32 124.58,-30.94 133.78,-36.2 135.05,-29.32"/>
</g>
<!-- :feature:lmu&#45;windows&#45;connection -->
<g id="node5" class="node">
<title>:feature:lmu&#45;windows&#45;connection</title>
<ellipse fill="none" stroke="black" cx="329.44" cy="-18" rx="164.37" ry="18"/>
<text text-anchor="middle" x="329.44" y="-14.3" font-family="Times,serif" font-size="14.00">:feature:lmu&#45;windows&#45;connection</text>
</g>
<!-- :app:shared&#45;&gt;:feature:lmu&#45;windows&#45;connection -->
<g id="edge4" class="edge">
<title>:app:shared&#45;&gt;:feature:lmu&#45;windows&#45;connection</title>
<path fill="none" stroke="black" d="M2162,-88.56C1933.4,-86.68 1149.3,-77.43 503.44,-36 486.86,-34.94 469.41,-33.55 452.22,-32.03"/>
<polygon fill="black" stroke="black" points="452.42,-28.53 442.14,-31.12 451.79,-35.5 452.42,-28.53"/>
</g>
<!-- :feature:gt7&#45;ps5&#45;connection -->
<g id="node6" class="node">
<title>:feature:gt7&#45;ps5&#45;connection</title>
<ellipse fill="none" stroke="black" cx="650.44" cy="-18" rx="138.38" ry="18"/>
<text text-anchor="middle" x="650.44" y="-14.3" font-family="Times,serif" font-size="14.00">:feature:gt7&#45;ps5&#45;connection</text>
</g>
<!-- :app:shared&#45;&gt;:feature:gt7&#45;ps5&#45;connection -->
<g id="edge5" class="edge">
<title>:app:shared&#45;&gt;:feature:gt7&#45;ps5&#45;connection</title>
<path fill="none" stroke="black" d="M2161.82,-88.37C1958.84,-86.03 1323.25,-75.81 798.44,-36 784.75,-34.96 770.36,-33.62 756.17,-32.15"/>
<polygon fill="black" stroke="black" points="756.19,-28.63 745.88,-31.06 755.45,-35.59 756.19,-28.63"/>
</g>
<!-- :feature:server&#45;connection -->
<g id="node7" class="node">
<title>:feature:server&#45;connection</title>
<ellipse fill="none" stroke="black" cx="940.44" cy="-18" rx="133.48" ry="18"/>
<text text-anchor="middle" x="940.44" y="-14.3" font-family="Times,serif" font-size="14.00">:feature:server&#45;connection</text>
</g>
<!-- :app:shared&#45;&gt;:feature:server&#45;connection -->
<g id="edge6" class="edge">
<title>:app:shared&#45;&gt;:feature:server&#45;connection</title>
<path fill="none" stroke="black" d="M2162.2,-87.62C1987.24,-83.57 1493.12,-69.8 1083.44,-36 1070.44,-34.93 1056.79,-33.59 1043.31,-32.13"/>
<polygon fill="black" stroke="black" points="1043.36,-28.61 1033.04,-30.99 1042.59,-35.57 1043.36,-28.61"/>
</g>
<!-- :feature:lmu&#45;windows&#45;narrator -->
<g id="node8" class="node">
<title>:feature:lmu&#45;windows&#45;narrator</title>
<ellipse fill="none" stroke="black" cx="1245.44" cy="-18" rx="153.27" ry="18"/>
<text text-anchor="middle" x="1245.44" y="-14.3" font-family="Times,serif" font-size="14.00">:feature:lmu&#45;windows&#45;narrator</text>
</g>
<!-- :app:shared&#45;&gt;:feature:lmu&#45;windows&#45;narrator -->
<g id="edge7" class="edge">
<title>:app:shared&#45;&gt;:feature:lmu&#45;windows&#45;narrator</title>
<path fill="none" stroke="black" d="M2163.58,-85.74C2025.51,-78.51 1688.9,-59.85 1407.44,-36 1393.13,-34.79 1378.13,-33.39 1363.26,-31.92"/>
<polygon fill="black" stroke="black" points="1363.3,-28.41 1353,-30.9 1362.61,-35.37 1363.3,-28.41"/>
</g>
<!-- :feature:other&#45;license&#45;detail -->
<g id="node9" class="node">
<title>:feature:other&#45;license&#45;detail</title>
<ellipse fill="none" stroke="black" cx="1556.44" cy="-18" rx="139.98" ry="18"/>
<text text-anchor="middle" x="1556.44" y="-14.3" font-family="Times,serif" font-size="14.00">:feature:other&#45;license&#45;detail</text>
</g>
<!-- :app:shared&#45;&gt;:feature:other&#45;license&#45;detail -->
<g id="edge8" class="edge">
<title>:app:shared&#45;&gt;:feature:other&#45;license&#45;detail</title>
<path fill="none" stroke="black" d="M2166.74,-83.08C2069.38,-73.54 1872.31,-53.99 1705.44,-36 1692.86,-34.64 1679.68,-33.19 1666.59,-31.72"/>
<polygon fill="black" stroke="black" points="1666.94,-28.24 1656.61,-30.6 1666.16,-35.2 1666.94,-28.24"/>
</g>
<!-- :feature:other&#45;list -->
<g id="node10" class="node">
<title>:feature:other&#45;list</title>
<ellipse fill="none" stroke="black" cx="1807.44" cy="-18" rx="92.88" ry="18"/>
<text text-anchor="middle" x="1807.44" y="-14.3" font-family="Times,serif" font-size="14.00">:feature:other&#45;list</text>
</g>
<!-- :app:shared&#45;&gt;:feature:other&#45;list -->
<g id="edge9" class="edge">
<title>:app:shared&#45;&gt;:feature:other&#45;list</title>
<path fill="none" stroke="black" d="M2172.97,-79.92C2099.7,-67.71 1968.98,-45.92 1885.34,-31.98"/>
<polygon fill="black" stroke="black" points="1885.82,-28.51 1875.38,-30.32 1884.67,-35.42 1885.82,-28.51"/>
</g>
<!-- :feature:other&#45;server&#45;ip&#45;detail -->
<g id="node11" class="node">
<title>:feature:other&#45;server&#45;ip&#45;detail</title>
<ellipse fill="none" stroke="black" cx="2067.44" cy="-18" rx="148.67" ry="18"/>
<text text-anchor="middle" x="2067.44" y="-14.3" font-family="Times,serif" font-size="14.00">:feature:other&#45;server&#45;ip&#45;detail</text>
</g>
<!-- :app:shared&#45;&gt;:feature:other&#45;server&#45;ip&#45;detail -->
<g id="edge10" class="edge">
<title>:app:shared&#45;&gt;:feature:other&#45;server&#45;ip&#45;detail</title>
<path fill="none" stroke="black" d="M2193.9,-74.33C2170.91,-64.27 2140.08,-50.78 2114.61,-39.64"/>
<polygon fill="black" stroke="black" points="2115.71,-36.3 2105.14,-35.49 2112.9,-42.71 2115.71,-36.3"/>
</g>
<!-- :feature:other&#45;gt7&#45;ps5&#45;ip&#45;detail -->
<g id="node12" class="node">
<title>:feature:other&#45;gt7&#45;ps5&#45;ip&#45;detail</title>
<ellipse fill="none" stroke="black" cx="2388.44" cy="-18" rx="154.07" ry="18"/>
<text text-anchor="middle" x="2388.44" y="-14.3" font-family="Times,serif" font-size="14.00">:feature:other&#45;gt7&#45;ps5&#45;ip&#45;detail</text>
</g>
<!-- :app:shared&#45;&gt;:feature:other&#45;gt7&#45;ps5&#45;ip&#45;detail -->
<g id="edge11" class="edge">
<title>:app:shared&#45;&gt;:feature:other&#45;gt7&#45;ps5&#45;ip&#45;detail</title>
<path fill="none" stroke="black" d="M2260.8,-74.5C2284.02,-64.4 2315.31,-50.8 2341.1,-39.58"/>
<polygon fill="black" stroke="black" points="2342.55,-42.77 2350.33,-35.57 2339.76,-36.35 2342.55,-42.77"/>
</g>
<!-- :feature:other&#45;readout&#45;start&#45;sound&#45;detail -->
<g id="node13" class="node">
<title>:feature:other&#45;readout&#45;start&#45;sound&#45;detail</title>
<ellipse fill="none" stroke="black" cx="2760.44" cy="-18" rx="199.56" ry="18"/>
<text text-anchor="middle" x="2760.44" y="-14.3" font-family="Times,serif" font-size="14.00">:feature:other&#45;readout&#45;start&#45;sound&#45;detail</text>
</g>
<!-- :app:shared&#45;&gt;:feature:other&#45;readout&#45;start&#45;sound&#45;detail -->
<g id="edge12" class="edge">
<title>:app:shared&#45;&gt;:feature:other&#45;readout&#45;start&#45;sound&#45;detail</title>
<path fill="none" stroke="black" d="M2285.24,-81.41C2370.44,-70.22 2531.59,-49.06 2642.42,-34.5"/>
<polygon fill="black" stroke="black" points="2643.19,-37.93 2652.65,-33.16 2642.28,-30.99 2643.19,-37.93"/>
</g>
<!-- :feature:other&#45;volume&#45;detail -->
<g id="node14" class="node">
<title>:feature:other&#45;volume&#45;detail</title>
<ellipse fill="none" stroke="black" cx="3119.44" cy="-18" rx="141.07" ry="18"/>
<text text-anchor="middle" x="3119.44" y="-14.3" font-family="Times,serif" font-size="14.00">:feature:other&#45;volume&#45;detail</text>
</g>
<!-- :app:shared&#45;&gt;:feature:other&#45;volume&#45;detail -->
<g id="edge13" class="edge">
<title>:app:shared&#45;&gt;:feature:other&#45;volume&#45;detail</title>
<path fill="none" stroke="black" d="M2291.04,-85.35C2419.42,-77.79 2718.67,-59.16 2969.44,-36 2982.67,-34.78 2996.55,-33.37 3010.29,-31.91"/>
<polygon fill="black" stroke="black" points="3010.69,-35.38 3020.26,-30.83 3009.94,-28.42 3010.69,-35.38"/>
</g>
<!-- :feature:readout&#45;list -->
<g id="node15" class="node">
<title>:feature:readout&#45;list</title>
<ellipse fill="none" stroke="black" cx="3382.44" cy="-18" rx="103.98" ry="18"/>
<text text-anchor="middle" x="3382.44" y="-14.3" font-family="Times,serif" font-size="14.00">:feature:readout&#45;list</text>
</g>
<!-- :app:shared&#45;&gt;:feature:readout&#45;list -->
<g id="edge14" class="edge">
<title>:app:shared&#45;&gt;:feature:readout&#45;list</title>
<path fill="none" stroke="black" d="M2292.84,-87.91C2457.31,-84.68 2901.32,-72.96 3269.44,-36 3279.29,-35.01 3289.59,-33.76 3299.79,-32.39"/>
<polygon fill="black" stroke="black" points="3300.51,-35.83 3309.94,-30.99 3299.55,-28.89 3300.51,-35.83"/>
</g>
<!-- :feature:lmu&#45;windows&#45;readout&#45;vehicle&#45;approach&#45;detail -->
<g id="node16" class="node">
<title>:feature:lmu&#45;windows&#45;readout&#45;vehicle&#45;approach&#45;detail</title>
<ellipse fill="none" stroke="black" cx="3765.44" cy="-18" rx="260.75" ry="18"/>
<text text-anchor="middle" x="3765.44" y="-14.3" font-family="Times,serif" font-size="14.00">:feature:lmu&#45;windows&#45;readout&#45;vehicle&#45;approach&#45;detail</text>
</g>
<!-- :app:shared&#45;&gt;:feature:lmu&#45;windows&#45;readout&#45;vehicle&#45;approach&#45;detail -->
<g id="edge15" class="edge">
<title>:app:shared&#45;&gt;:feature:lmu&#45;windows&#45;readout&#45;vehicle&#45;approach&#45;detail</title>
<path fill="none" stroke="black" d="M2292.13,-86.78C2478.79,-80.27 3034.48,-60.14 3495.44,-36 3520.81,-34.67 3547.52,-33.15 3573.86,-31.56"/>
<polygon fill="black" stroke="black" points="3574.16,-35.05 3583.93,-30.96 3573.74,-28.07 3574.16,-35.05"/>
</g>
<!-- :feature:lmu&#45;windows&#45;readout&#45;flag&#45;detail -->
<g id="node17" class="node">
<title>:feature:lmu&#45;windows&#45;readout&#45;flag&#45;detail</title>
<ellipse fill="none" stroke="black" cx="4243.44" cy="-18" rx="199.56" ry="18"/>
<text text-anchor="middle" x="4243.44" y="-14.3" font-family="Times,serif" font-size="14.00">:feature:lmu&#45;windows&#45;readout&#45;flag&#45;detail</text>
</g>
<!-- :app:shared&#45;&gt;:feature:lmu&#45;windows&#45;readout&#45;flag&#45;detail -->
<g id="edge16" class="edge">
<title>:app:shared&#45;&gt;:feature:lmu&#45;windows&#45;readout&#45;flag&#45;detail</title>
<path fill="none" stroke="black" d="M2293.17,-88.31C2529.05,-85.58 3355.06,-73.75 4035.44,-36 4055.34,-34.9 4076.29,-33.48 4096.92,-31.94"/>
<polygon fill="black" stroke="black" points="4097.31,-35.42 4107.01,-31.18 4096.78,-28.44 4097.31,-35.42"/>
</g>
<!-- :feature:lmu&#45;windows&#45;readout&#45;vehicle&#45;damage&#45;detail -->
<g id="node18" class="node">
<title>:feature:lmu&#45;windows&#45;readout&#45;vehicle&#45;damage&#45;detail</title>
<ellipse fill="none" stroke="black" cx="4715.44" cy="-18" rx="254.55" ry="18"/>
<text text-anchor="middle" x="4715.44" y="-14.3" font-family="Times,serif" font-size="14.00">:feature:lmu&#45;windows&#45;readout&#45;vehicle&#45;damage&#45;detail</text>
</g>
<!-- :app:shared&#45;&gt;:feature:lmu&#45;windows&#45;readout&#45;vehicle&#45;damage&#45;detail -->
<g id="edge17" class="edge">
<title>:app:shared&#45;&gt;:feature:lmu&#45;windows&#45;readout&#45;vehicle&#45;damage&#45;detail</title>
<path fill="none" stroke="black" d="M2293,-88.41C2560.98,-85.81 3599.35,-73.72 4452.44,-36 4478.18,-34.86 4505.32,-33.4 4532,-31.82"/>
<polygon fill="black" stroke="black" points="4532.43,-35.3 4542.2,-31.2 4532.01,-28.31 4532.43,-35.3"/>
</g>
<!-- :feature:gt7&#45;ps5&#45;readout&#45;my&#45;bestlap&#45;detail -->
<g id="node19" class="node">
<title>:feature:gt7&#45;ps5&#45;readout&#45;my&#45;bestlap&#45;detail</title>
<ellipse fill="none" stroke="black" cx="5196.44" cy="-18" rx="207.96" ry="18"/>
<text text-anchor="middle" x="5196.44" y="-14.3" font-family="Times,serif" font-size="14.00">:feature:gt7&#45;ps5&#45;readout&#45;my&#45;bestlap&#45;detail</text>
</g>
<!-- :app:shared&#45;&gt;:feature:gt7&#45;ps5&#45;readout&#45;my&#45;bestlap&#45;detail -->
<g id="edge18" class="edge">
<title>:app:shared&#45;&gt;:feature:gt7&#45;ps5&#45;readout&#45;my&#45;bestlap&#45;detail</title>
<path fill="none" stroke="black" d="M2293.26,-89.16C2598.6,-89.62 3907.61,-88.26 4979.44,-36 5000.8,-34.96 5023.32,-33.55 5045.44,-31.98"/>
<polygon fill="black" stroke="black" points="5045.85,-35.46 5055.57,-31.25 5045.34,-28.48 5045.85,-35.46"/>
</g>
<!-- :app:desktopApp -->
<g id="node3" class="node">
<title>:app:desktopApp</title>
<ellipse fill="none" stroke="black" cx="2227.44" cy="-162" rx="88.28" ry="18"/>
<text text-anchor="middle" x="2227.44" y="-158.3" font-family="Times,serif" font-size="14.00">:app:desktopApp</text>
</g>
<!-- :app:desktopApp&#45;&gt;:app:shared -->
<g id="edge2" class="edge">
<title>:app:desktopApp&#45;&gt;:app:shared</title>
<path fill="none" stroke="black" d="M2227.44,-143.7C2227.44,-135.98 2227.44,-126.71 2227.44,-118.11"/>
<polygon fill="black" stroke="black" points="2230.94,-118.1 2227.44,-108.1 2223.94,-118.1 2230.94,-118.1"/>
</g>
<!-- :app:webApp -->
<g id="node20" class="node">
<title>:app:webApp</title>
<ellipse fill="none" stroke="black" cx="2404.44" cy="-162" rx="70.69" ry="18"/>
<text text-anchor="middle" x="2404.44" y="-158.3" font-family="Times,serif" font-size="14.00">:app:webApp</text>
</g>
<!-- :app:webApp&#45;&gt;:app:shared -->
<g id="edge19" class="edge">
<title>:app:webApp&#45;&gt;:app:shared</title>
<path fill="none" stroke="black" d="M2367.77,-146.5C2340.2,-135.59 2302.28,-120.6 2272.81,-108.94"/>
<polygon fill="black" stroke="black" points="2273.75,-105.55 2263.16,-105.13 2271.18,-112.06 2273.75,-105.55"/>
</g>
</g>
</svg>
