<?xml version="1.0" encoding="UTF-8" standalone="no"?>
<!DOCTYPE svg PUBLIC "-//W3C//DTD SVG 1.1//EN"
 "http://www.w3.org/Graphics/SVG/1.1/DTD/svg11.dtd">
<!-- Generated by graphviz version 2.43.0 (0)
 -->
<!-- Title: G Pages: 1 -->
<svg width="6055pt" height="188pt"
 viewBox="0.00 0.00 6055.43 188.00" xmlns="http://www.w3.org/2000/svg" xmlns:xlink="http://www.w3.org/1999/xlink">
<g id="graph0" class="graph" transform="scale(1 1) rotate(0) translate(4 184)">
<title>G</title>
<polygon fill="white" stroke="transparent" points="-4,4 -4,-184 6051.43,-184 6051.43,4 -4,4"/>
<!-- :app:androidApp -->
<g id="node1" class="node">
<title>:app:androidApp</title>
<ellipse fill="none" stroke="black" cx="2307.44" cy="-162" rx="87.18" ry="18"/>
<text text-anchor="middle" x="2307.44" y="-158.3" font-family="Times,serif" font-size="14.00">:app:androidApp</text>
</g>
<!-- :app:shared -->
<g id="node2" class="node">
<title>:app:shared</title>
<ellipse fill="none" stroke="black" cx="2500.44" cy="-90" rx="65.79" ry="18"/>
<text text-anchor="middle" x="2500.44" y="-86.3" font-family="Times,serif" font-size="14.00">:app:shared</text>
</g>
<!-- :app:androidApp&#45;&gt;:app:shared -->
<g id="edge1" class="edge">
<title>:app:androidApp&#45;&gt;:app:shared</title>
<path fill="none" stroke="black" d="M2348.85,-145.98C2379.36,-134.92 2420.93,-119.84 2452.82,-108.27"/>
<polygon fill="black" stroke="black" points="2454.18,-111.5 2462.38,-104.8 2451.79,-104.92 2454.18,-111.5"/>
</g>
<!-- :feature:main -->
<g id="node4" class="node">
<title>:feature:main</title>
<ellipse fill="none" stroke="black" cx="73.44" cy="-18" rx="73.39" ry="18"/>
<text text-anchor="middle" x="73.44" y="-14.3" font-family="Times,serif" font-size="14.00">:feature:main</text>
</g>
<!-- :app:shared&#45;&gt;:feature:main -->
<g id="edge3" class="edge">
<title>:app:shared&#45;&gt;:feature:main</title>
<path fill="none" stroke="black" d="M2434.69,-89.11C2103.47,-89.4 615.53,-87.78 156.44,-36 149.31,-35.2 141.88,-34.08 134.52,-32.8"/>
<polygon fill="black" stroke="black" points="135.04,-29.34 124.57,-30.97 133.77,-36.22 135.04,-29.34"/>
</g>
<!-- :feature:lmu&#45;windows&#45;connection -->
<g id="node5" class="node">
<title>:feature:lmu&#45;windows&#45;connection</title>
<ellipse fill="none" stroke="black" cx="329.44" cy="-18" rx="164.37" ry="18"/>
<text text-anchor="middle" x="329.44" y="-14.3" font-family="Times,serif" font-size="14.00">:feature:lmu&#45;windows&#45;connection</text>
</g>
<!-- :app:shared&#45;&gt;:feature:lmu&#45;windows&#45;connection -->
<g id="edge4" class="edge">
<title>:app:shared&#45;&gt;:feature:lmu&#45;windows&#45;connection</title>
<path fill="none" stroke="black" d="M2434.86,-88.95C2184.04,-88.38 1261.53,-83.03 503.44,-36 486.86,-34.97 469.4,-33.6 452.22,-32.09"/>
<polygon fill="black" stroke="black" points="452.41,-28.6 442.14,-31.19 451.78,-35.57 452.41,-28.6"/>
</g>
<!-- :feature:gt7&#45;ps5&#45;connection -->
<g id="node6" class="node">
<title>:feature:gt7&#45;ps5&#45;connection</title>
<ellipse fill="none" stroke="black" cx="650.44" cy="-18" rx="138.38" ry="18"/>
<text text-anchor="middle" x="650.44" y="-14.3" font-family="Times,serif" font-size="14.00">:feature:gt7&#45;ps5&#45;connection</text>
</g>
<!-- :app:shared&#45;&gt;:feature:gt7&#45;ps5&#45;connection -->
<g id="edge5" class="edge">
<title>:app:shared&#45;&gt;:feature:gt7&#45;ps5&#45;connection</title>
<path fill="none" stroke="black" d="M2434.63,-88.92C2207.35,-88.22 1434.58,-82.36 798.44,-36 784.51,-34.98 769.86,-33.64 755.42,-32.15"/>
<polygon fill="black" stroke="black" points="755.79,-28.67 745.47,-31.1 755.05,-35.63 755.79,-28.67"/>
</g>
<!-- :feature:server&#45;connection -->
<g id="node7" class="node">
<title>:feature:server&#45;connection</title>
<ellipse fill="none" stroke="black" cx="940.44" cy="-18" rx="133.48" ry="18"/>
<text text-anchor="middle" x="940.44" y="-14.3" font-family="Times,serif" font-size="14.00">:feature:server&#45;connection</text>
</g>
<!-- :app:shared&#45;&gt;:feature:server&#45;connection -->
<g id="edge6" class="edge">
<title>:app:shared&#45;&gt;:feature:server&#45;connection</title>
<path fill="none" stroke="black" d="M2435.01,-88.43C2233.33,-86.29 1603.46,-76.57 1083.44,-36 1070.21,-34.97 1056.31,-33.63 1042.59,-32.16"/>
<polygon fill="black" stroke="black" points="1042.97,-28.68 1032.64,-31.07 1042.2,-35.64 1042.97,-28.68"/>
</g>
<!-- :feature:lmu&#45;windows&#45;narrator -->
<g id="node8" class="node">
<title>:feature:lmu&#45;windows&#45;narrator</title>
<ellipse fill="none" stroke="black" cx="1245.44" cy="-18" rx="153.27" ry="18"/>
<text text-anchor="middle" x="1245.44" y="-14.3" font-family="Times,serif" font-size="14.00">:feature:lmu&#45;windows&#45;narrator</text>
</g>
<!-- :app:shared&#45;&gt;:feature:lmu&#45;windows&#45;narrator -->
<g id="edge7" class="edge">
<title>:app:shared&#45;&gt;:feature:lmu&#45;windows&#45;narrator</title>
<path fill="none" stroke="black" d="M2435.44,-87.1C2266.12,-81.89 1797.6,-65.71 1408.44,-36 1393.43,-34.85 1377.66,-33.46 1362.09,-31.96"/>
<polygon fill="black" stroke="black" points="1362.19,-28.45 1351.9,-30.96 1361.51,-35.42 1362.19,-28.45"/>
</g>
<!-- :feature:gt7&#45;ps5&#45;narrator -->
<g id="node9" class="node">
<title>:feature:gt7&#45;ps5&#45;narrator</title>
<ellipse fill="none" stroke="black" cx="1544.44" cy="-18" rx="127.28" ry="18"/>
<text text-anchor="middle" x="1544.44" y="-14.3" font-family="Times,serif" font-size="14.00">:feature:gt7&#45;ps5&#45;narrator</text>
</g>
<!-- :app:shared&#45;&gt;:feature:gt7&#45;ps5&#45;narrator -->
<g id="edge8" class="edge">
<title>:app:shared&#45;&gt;:feature:gt7&#45;ps5&#45;narrator</title>
<path fill="none" stroke="black" d="M2436.28,-86.16C2297.97,-79.75 1961.47,-62.62 1680.44,-36 1668.6,-34.88 1656.19,-33.55 1643.9,-32.13"/>
<polygon fill="black" stroke="black" points="1643.95,-28.61 1633.61,-30.92 1643.13,-35.56 1643.95,-28.61"/>
</g>
<!-- :feature:other&#45;license&#45;detail -->
<g id="node10" class="node">
<title>:feature:other&#45;license&#45;detail</title>
<ellipse fill="none" stroke="black" cx="1829.44" cy="-18" rx="139.98" ry="18"/>
<text text-anchor="middle" x="1829.44" y="-14.3" font-family="Times,serif" font-size="14.00">:feature:other&#45;license&#45;detail</text>
</g>
<!-- :app:shared&#45;&gt;:feature:other&#45;license&#45;detail -->
<g id="edge9" class="edge">
<title>:app:shared&#45;&gt;:feature:other&#45;license&#45;detail</title>
<path fill="none" stroke="black" d="M2439.74,-83.08C2342.38,-73.54 2145.31,-53.99 1978.44,-36 1965.86,-34.64 1952.68,-33.19 1939.59,-31.72"/>
<polygon fill="black" stroke="black" points="1939.94,-28.24 1929.61,-30.6 1939.16,-35.2 1939.94,-28.24"/>
</g>
<!-- :feature:other&#45;list -->
<g id="node11" class="node">
<title>:feature:other&#45;list</title>
<ellipse fill="none" stroke="black" cx="2080.44" cy="-18" rx="92.88" ry="18"/>
<text text-anchor="middle" x="2080.44" y="-14.3" font-family="Times,serif" font-size="14.00">:feature:other&#45;list</text>
</g>
<!-- :app:shared&#45;&gt;:feature:other&#45;list -->
<g id="edge10" class="edge">
<title>:app:shared&#45;&gt;:feature:other&#45;list</title>
<path fill="none" stroke="black" d="M2445.97,-79.92C2372.7,-67.71 2241.98,-45.92 2158.34,-31.98"/>
<polygon fill="black" stroke="black" points="2158.82,-28.51 2148.38,-30.32 2157.67,-35.42 2158.82,-28.51"/>
</g>
<!-- :feature:other&#45;server&#45;ip&#45;detail -->
<g id="node12" class="node">
<title>:feature:other&#45;server&#45;ip&#45;detail</title>
<ellipse fill="none" stroke="black" cx="2340.44" cy="-18" rx="148.67" ry="18"/>
<text text-anchor="middle" x="2340.44" y="-14.3" font-family="Times,serif" font-size="14.00">:feature:other&#45;server&#45;ip&#45;detail</text>
</g>
<!-- :app:shared&#45;&gt;:feature:other&#45;server&#45;ip&#45;detail -->
<g id="edge11" class="edge">
<title>:app:shared&#45;&gt;:feature:other&#45;server&#45;ip&#45;detail</title>
<path fill="none" stroke="black" d="M2466.9,-74.33C2443.91,-64.27 2413.08,-50.78 2387.61,-39.64"/>
<polygon fill="black" stroke="black" points="2388.71,-36.3 2378.14,-35.49 2385.9,-42.71 2388.71,-36.3"/>
</g>
<!-- :feature:other&#45;console&#45;ip&#45;detail -->
<g id="node13" class="node">
<title>:feature:other&#45;console&#45;ip&#45;detail</title>
<ellipse fill="none" stroke="black" cx="2660.44" cy="-18" rx="153.27" ry="18"/>
<text text-anchor="middle" x="2660.44" y="-14.3" font-family="Times,serif" font-size="14.00">:feature:other&#45;console&#45;ip&#45;detail</text>
</g>
<!-- :app:shared&#45;&gt;:feature:other&#45;console&#45;ip&#45;detail -->
<g id="edge12" class="edge">
<title>:app:shared&#45;&gt;:feature:other&#45;console&#45;ip&#45;detail</title>
<path fill="none" stroke="black" d="M2533.98,-74.33C2556.98,-64.27 2587.81,-50.78 2613.27,-39.64"/>
<polygon fill="black" stroke="black" points="2614.98,-42.71 2622.74,-35.49 2612.18,-36.3 2614.98,-42.71"/>
</g>
<!-- :feature:other&#45;readout&#45;start&#45;sound&#45;detail -->
<g id="node14" class="node">
<title>:feature:other&#45;readout&#45;start&#45;sound&#45;detail</title>
<ellipse fill="none" stroke="black" cx="3031.44" cy="-18" rx="199.56" ry="18"/>
<text text-anchor="middle" x="3031.44" y="-14.3" font-family="Times,serif" font-size="14.00">:feature:other&#45;readout&#45;start&#45;sound&#45;detail</text>
</g>
<!-- :app:shared&#45;&gt;:feature:other&#45;readout&#45;start&#45;sound&#45;detail -->
<g id="edge13" class="edge">
<title>:app:shared&#45;&gt;:feature:other&#45;readout&#45;start&#45;sound&#45;detail</title>
<path fill="none" stroke="black" d="M2558.28,-81.38C2643.19,-70.18 2803.44,-49.06 2913.74,-34.52"/>
<polygon fill="black" stroke="black" points="2914.46,-37.95 2923.92,-33.17 2913.55,-31.01 2914.46,-37.95"/>
</g>
<!-- :feature:other&#45;volume&#45;detail -->
<g id="node15" class="node">
<title>:feature:other&#45;volume&#45;detail</title>
<ellipse fill="none" stroke="black" cx="3390.44" cy="-18" rx="141.07" ry="18"/>
<text text-anchor="middle" x="3390.44" y="-14.3" font-family="Times,serif" font-size="14.00">:feature:other&#45;volume&#45;detail</text>
</g>
<!-- :app:shared&#45;&gt;:feature:other&#45;volume&#45;detail -->
<g id="edge14" class="edge">
<title>:app:shared&#45;&gt;:feature:other&#45;volume&#45;detail</title>
<path fill="none" stroke="black" d="M2563.87,-85.34C2691.9,-77.77 2990.35,-59.12 3240.44,-36 3253.67,-34.78 3267.55,-33.37 3281.29,-31.9"/>
<polygon fill="black" stroke="black" points="3281.69,-35.38 3291.26,-30.83 3280.94,-28.42 3281.69,-35.38"/>
</g>
<!-- :feature:other&#45;keep&#45;screen&#45;on&#45;detail -->
<g id="node16" class="node">
<title>:feature:other&#45;keep&#45;screen&#45;on&#45;detail</title>
<ellipse fill="none" stroke="black" cx="3726.44" cy="-18" rx="176.57" ry="18"/>
<text text-anchor="middle" x="3726.44" y="-14.3" font-family="Times,serif" font-size="14.00">:feature:other&#45;keep&#45;screen&#45;on&#45;detail</text>
</g>
<!-- :app:shared&#45;&gt;:feature:other&#45;keep&#45;screen&#45;on&#45;detail -->
<g id="edge15" class="edge">
<title>:app:shared&#45;&gt;:feature:other&#45;keep&#45;screen&#45;on&#45;detail</title>
<path fill="none" stroke="black" d="M2565,-86.61C2728.41,-80.38 3171.66,-62.24 3540.44,-36 3557.48,-34.79 3575.37,-33.36 3593.06,-31.84"/>
<polygon fill="black" stroke="black" points="3593.78,-35.29 3603.44,-30.95 3593.17,-28.32 3593.78,-35.29"/>
</g>
<!-- :feature:readout&#45;list -->
<g id="node17" class="node">
<title>:feature:readout&#45;list</title>
<ellipse fill="none" stroke="black" cx="4025.44" cy="-18" rx="103.98" ry="18"/>
<text text-anchor="middle" x="4025.44" y="-14.3" font-family="Times,serif" font-size="14.00">:feature:readout&#45;list</text>
</g>
<!-- :app:shared&#45;&gt;:feature:readout&#45;list -->
<g id="edge16" class="edge">
<title>:app:shared&#45;&gt;:feature:readout&#45;list</title>
<path fill="none" stroke="black" d="M2566.06,-89.14C2767.6,-89.01 3395.26,-84.46 3912.44,-36 3922.55,-35.05 3933.12,-33.81 3943.58,-32.42"/>
<polygon fill="black" stroke="black" points="3944.13,-35.88 3953.56,-31.05 3943.17,-28.94 3944.13,-35.88"/>
</g>
<!-- :feature:lmu&#45;windows&#45;readout&#45;vehicle&#45;approach&#45;detail -->
<g id="node18" class="node">
<title>:feature:lmu&#45;windows&#45;readout&#45;vehicle&#45;approach&#45;detail</title>
<ellipse fill="none" stroke="black" cx="4408.44" cy="-18" rx="260.75" ry="18"/>
<text text-anchor="middle" x="4408.44" y="-14.3" font-family="Times,serif" font-size="14.00">:feature:lmu&#45;windows&#45;readout&#45;vehicle&#45;approach&#45;detail</text>
</g>
<!-- :app:shared&#45;&gt;:feature:lmu&#45;windows&#45;readout&#45;vehicle&#45;approach&#45;detail -->
<g id="edge17" class="edge">
<title>:app:shared&#45;&gt;:feature:lmu&#45;windows&#45;readout&#45;vehicle&#45;approach&#45;detail</title>
<path fill="none" stroke="black" d="M2565.63,-87.61C2786.52,-82.73 3527.06,-65.13 4138.44,-36 4164.34,-34.77 4191.62,-33.27 4218.49,-31.69"/>
<polygon fill="black" stroke="black" points="4218.98,-35.17 4228.76,-31.08 4218.57,-28.18 4218.98,-35.17"/>
</g>
<!-- :feature:lmu&#45;windows&#45;readout&#45;flag&#45;detail -->
<g id="node19" class="node">
<title>:feature:lmu&#45;windows&#45;readout&#45;flag&#45;detail</title>
<ellipse fill="none" stroke="black" cx="4886.44" cy="-18" rx="199.56" ry="18"/>
<text text-anchor="middle" x="4886.44" y="-14.3" font-family="Times,serif" font-size="14.00">:feature:lmu&#45;windows&#45;readout&#45;flag&#45;detail</text>
</g>
<!-- :app:shared&#45;&gt;:feature:lmu&#45;windows&#45;readout&#45;flag&#45;detail -->
<g id="edge18" class="edge">
<title>:app:shared&#45;&gt;:feature:lmu&#45;windows&#45;readout&#45;flag&#45;detail</title>
<path fill="none" stroke="black" d="M2565.98,-88.77C2830.48,-87.57 3845.13,-80.16 4678.44,-36 4698.58,-34.93 4719.78,-33.53 4740.65,-31.98"/>
<polygon fill="black" stroke="black" points="4741.15,-35.45 4750.86,-31.21 4740.62,-28.47 4741.15,-35.45"/>
</g>
<!-- :feature:lmu&#45;windows&#45;readout&#45;vehicle&#45;damage&#45;detail -->
<g id="node20" class="node">
<title>:feature:lmu&#45;windows&#45;readout&#45;vehicle&#45;damage&#45;detail</title>
<ellipse fill="none" stroke="black" cx="5358.44" cy="-18" rx="254.55" ry="18"/>
<text text-anchor="middle" x="5358.44" y="-14.3" font-family="Times,serif" font-size="14.00">:feature:lmu&#45;windows&#45;readout&#45;vehicle&#45;damage&#45;detail</text>
</g>
<!-- :app:shared&#45;&gt;:feature:lmu&#45;windows&#45;readout&#45;vehicle&#45;damage&#45;detail -->
<g id="edge19" class="edge">
<title>:app:shared&#45;&gt;:feature:lmu&#45;windows&#45;readout&#45;vehicle&#45;damage&#45;detail</title>
<path fill="none" stroke="black" d="M2566.15,-88.72C2860.65,-87.27 4088.67,-78.8 5095.44,-36 5121.39,-34.9 5148.75,-33.45 5175.63,-31.86"/>
<polygon fill="black" stroke="black" points="5176.14,-35.34 5185.91,-31.24 5175.72,-28.35 5176.14,-35.34"/>
</g>
<!-- :feature:gt7&#45;ps5&#45;readout&#45;my&#45;bestlap&#45;detail -->
<g id="node21" class="node">
<title>:feature:gt7&#45;ps5&#45;readout&#45;my&#45;bestlap&#45;detail</title>
<ellipse fill="none" stroke="black" cx="5839.44" cy="-18" rx="207.96" ry="18"/>
<text text-anchor="middle" x="5839.44" y="-14.3" font-family="Times,serif" font-size="14.00">:feature:gt7&#45;ps5&#45;readout&#45;my&#45;bestlap&#45;detail</text>
</g>
<!-- :app:shared&#45;&gt;:feature:gt7&#45;ps5&#45;readout&#45;my&#45;bestlap&#45;detail -->
<g id="edge20" class="edge">
<title>:app:shared&#45;&gt;:feature:gt7&#45;ps5&#45;readout&#45;my&#45;bestlap&#45;detail</title>
<path fill="none" stroke="black" d="M2566.06,-88.43C2958.29,-84.97 4997.04,-65.78 5622.44,-36 5643.88,-34.98 5666.49,-33.57 5688.7,-32.01"/>
<polygon fill="black" stroke="black" points="5689.14,-35.48 5698.86,-31.28 5688.64,-28.5 5689.14,-35.48"/>
</g>
<!-- :app:desktopApp -->
<g id="node3" class="node">
<title>:app:desktopApp</title>
<ellipse fill="none" stroke="black" cx="2500.44" cy="-162" rx="88.28" ry="18"/>
<text text-anchor="middle" x="2500.44" y="-158.3" font-family="Times,serif" font-size="14.00">:app:desktopApp</text>
</g>
<!-- :app:desktopApp&#45;&gt;:app:shared -->
<g id="edge2" class="edge">
<title>:app:desktopApp&#45;&gt;:app:shared</title>
<path fill="none" stroke="black" d="M2500.44,-143.7C2500.44,-135.98 2500.44,-126.71 2500.44,-118.11"/>
<polygon fill="black" stroke="black" points="2503.94,-118.1 2500.44,-108.1 2496.94,-118.1 2503.94,-118.1"/>
</g>
<!-- :app:webApp -->
<g id="node22" class="node">
<title>:app:webApp</title>
<ellipse fill="none" stroke="black" cx="2677.44" cy="-162" rx="70.69" ry="18"/>
<text text-anchor="middle" x="2677.44" y="-158.3" font-family="Times,serif" font-size="14.00">:app:webApp</text>
</g>
<!-- :app:webApp&#45;&gt;:app:shared -->
<g id="edge21" class="edge">
<title>:app:webApp&#45;&gt;:app:shared</title>
<path fill="none" stroke="black" d="M2640.77,-146.5C2613.2,-135.59 2575.28,-120.6 2545.81,-108.94"/>
<polygon fill="black" stroke="black" points="2546.75,-105.55 2536.16,-105.13 2544.18,-112.06 2546.75,-105.55"/>
</g>
</g>
</svg>
