<?xml version="1.0" encoding="UTF-8" standalone="no"?>
<!DOCTYPE svg PUBLIC "-//W3C//DTD SVG 1.1//EN"
 "http://www.w3.org/Graphics/SVG/1.1/DTD/svg11.dtd">
<!-- Generated by graphviz version 2.43.0 (0)
 -->
<!-- Title: G Pages: 1 -->
<svg width="918pt" height="188pt"
 viewBox="0.00 0.00 918.23 188.00" xmlns="http://www.w3.org/2000/svg" xmlns:xlink="http://www.w3.org/1999/xlink">
<g id="graph0" class="graph" transform="scale(1 1) rotate(0) translate(4 184)">
<title>G</title>
<polygon fill="white" stroke="transparent" points="-4,4 -4,-184 914.23,-184 914.23,4 -4,4"/>
<!-- :app:androidApp -->
<g id="node1" class="node">
<title>:app:androidApp</title>
<ellipse fill="none" stroke="black" cx="110.79" cy="-162" rx="87.18" ry="18"/>
<text text-anchor="middle" x="110.79" y="-158.3" font-family="Times,serif" font-size="14.00">:app:androidApp</text>
</g>
<!-- :app:shared -->
<g id="node2" class="node">
<title>:app:shared</title>
<ellipse fill="none" stroke="black" cx="290.79" cy="-90" rx="65.79" ry="18"/>
<text text-anchor="middle" x="290.79" y="-86.3" font-family="Times,serif" font-size="14.00">:app:shared</text>
</g>
<!-- :app:androidApp&#45;&gt;:app:shared -->
<g id="edge1" class="edge">
<title>:app:androidApp&#45;&gt;:app:shared</title>
<path fill="none" stroke="black" d="M149.85,-145.81C177.81,-134.94 215.55,-120.26 244.95,-108.83"/>
<polygon fill="black" stroke="black" points="246.52,-111.97 254.57,-105.09 243.98,-105.45 246.52,-111.97"/>
</g>
<!-- :feature:announcer -->
<g id="node3" class="node">
<title>:feature:announcer</title>
<ellipse fill="none" stroke="black" cx="98.79" cy="-18" rx="98.58" ry="18"/>
<text text-anchor="middle" x="98.79" y="-14.3" font-family="Times,serif" font-size="14.00">:feature:announcer</text>
</g>
<!-- :app:androidApp&#45;&gt;:feature:announcer -->
<g id="edge2" class="edge">
<title>:app:androidApp&#45;&gt;:feature:announcer</title>
<path fill="none" stroke="black" d="M109.34,-143.87C107.3,-119.67 103.54,-75.21 101.11,-46.39"/>
<polygon fill="black" stroke="black" points="104.57,-45.86 100.24,-36.19 97.6,-46.45 104.57,-45.86"/>
</g>
<!-- :app:shared&#45;&gt;:feature:announcer -->
<g id="edge6" class="edge">
<title>:app:shared&#45;&gt;:feature:announcer</title>
<path fill="none" stroke="black" d="M252.86,-75.17C223.64,-64.52 182.93,-49.68 150.69,-37.92"/>
<polygon fill="black" stroke="black" points="151.58,-34.52 140.98,-34.38 149.18,-41.1 151.58,-34.52"/>
</g>
<!-- :feature:readout -->
<g id="node5" class="node">
<title>:feature:readout</title>
<ellipse fill="none" stroke="black" cx="823.79" cy="-18" rx="86.38" ry="18"/>
<text text-anchor="middle" x="823.79" y="-14.3" font-family="Times,serif" font-size="14.00">:feature:readout</text>
</g>
<!-- :app:shared&#45;&gt;:feature:readout -->
<g id="edge8" class="edge">
<title>:app:shared&#45;&gt;:feature:readout</title>
<path fill="none" stroke="black" d="M351.16,-82.79C435.76,-73.84 594.33,-56.15 728.79,-36 736.22,-34.89 743.97,-33.64 751.68,-32.34"/>
<polygon fill="black" stroke="black" points="752.52,-35.75 761.79,-30.62 751.34,-28.85 752.52,-35.75"/>
</g>
<!-- :feature:other -->
<g id="node6" class="node">
<title>:feature:other</title>
<ellipse fill="none" stroke="black" cx="290.79" cy="-18" rx="75.29" ry="18"/>
<text text-anchor="middle" x="290.79" y="-14.3" font-family="Times,serif" font-size="14.00">:feature:other</text>
</g>
<!-- :app:shared&#45;&gt;:feature:other -->
<g id="edge7" class="edge">
<title>:app:shared&#45;&gt;:feature:other</title>
<path fill="none" stroke="black" d="M290.79,-71.7C290.79,-63.98 290.79,-54.71 290.79,-46.11"/>
<polygon fill="black" stroke="black" points="294.29,-46.1 290.79,-36.1 287.29,-46.1 294.29,-46.1"/>
</g>
<!-- :feature:readout&#45;vehicle&#45;approach -->
<g id="node7" class="node">
<title>:feature:readout&#45;vehicle&#45;approach</title>
<ellipse fill="none" stroke="black" cx="551.79" cy="-18" rx="167.87" ry="18"/>
<text text-anchor="middle" x="551.79" y="-14.3" font-family="Times,serif" font-size="14.00">:feature:readout&#45;vehicle&#45;approach</text>
</g>
<!-- :app:shared&#45;&gt;:feature:readout&#45;vehicle&#45;approach -->
<g id="edge9" class="edge">
<title>:app:shared&#45;&gt;:feature:readout&#45;vehicle&#45;approach</title>
<path fill="none" stroke="black" d="M335.96,-76.89C376.41,-66.04 436.35,-49.96 482.8,-37.5"/>
<polygon fill="black" stroke="black" points="483.75,-40.87 492.5,-34.9 481.94,-34.11 483.75,-40.87"/>
</g>
<!-- :app:desktopApp -->
<g id="node4" class="node">
<title>:app:desktopApp</title>
<ellipse fill="none" stroke="black" cx="465.79" cy="-162" rx="88.28" ry="18"/>
<text text-anchor="middle" x="465.79" y="-158.3" font-family="Times,serif" font-size="14.00">:app:desktopApp</text>
</g>
<!-- :app:desktopApp&#45;&gt;:app:shared -->
<g id="edge3" class="edge">
<title>:app:desktopApp&#45;&gt;:app:shared</title>
<path fill="none" stroke="black" d="M427.39,-145.64C400.36,-134.83 364.09,-120.32 335.72,-108.97"/>
<polygon fill="black" stroke="black" points="337.01,-105.72 326.42,-105.25 334.41,-112.22 337.01,-105.72"/>
</g>
<!-- :app:desktopApp&#45;&gt;:feature:announcer -->
<g id="edge5" class="edge">
<title>:app:desktopApp&#45;&gt;:feature:announcer</title>
<path fill="none" stroke="black" d="M403.18,-149.21C334.8,-136.1 232.71,-115.75 215.79,-108 180.3,-91.74 145.45,-63.14 123.15,-42.74"/>
<polygon fill="black" stroke="black" points="125.5,-40.16 115.8,-35.91 120.74,-45.28 125.5,-40.16"/>
</g>
<!-- :app:desktopApp&#45;&gt;:feature:readout -->
<g id="edge4" class="edge">
<title>:app:desktopApp&#45;&gt;:feature:readout</title>
<path fill="none" stroke="black" d="M504.44,-145.67C570.32,-119.54 704.17,-66.45 775.88,-38"/>
<polygon fill="black" stroke="black" points="777.57,-41.1 785.57,-34.16 774.98,-34.59 777.57,-41.1"/>
</g>
<!-- :app:webApp -->
<g id="node8" class="node">
<title>:app:webApp</title>
<ellipse fill="none" stroke="black" cx="288.79" cy="-162" rx="70.69" ry="18"/>
<text text-anchor="middle" x="288.79" y="-158.3" font-family="Times,serif" font-size="14.00">:app:webApp</text>
</g>
<!-- :app:webApp&#45;&gt;:app:shared -->
<g id="edge10" class="edge">
<title>:app:webApp&#45;&gt;:app:shared</title>
<path fill="none" stroke="black" d="M289.29,-143.7C289.51,-135.98 289.77,-126.71 290.02,-118.11"/>
<polygon fill="black" stroke="black" points="293.52,-118.2 290.3,-108.1 286.52,-118 293.52,-118.2"/>
</g>
</g>
</svg>
