<?xml version="1.0" encoding="UTF-8" standalone="no"?>
<!DOCTYPE svg PUBLIC "-//W3C//DTD SVG 1.1//EN"
 "http://www.w3.org/Graphics/SVG/1.1/DTD/svg11.dtd">
<!-- Generated by graphviz version 2.43.0 (0)
 -->
<!-- Title: G Pages: 1 -->
<svg width="6566pt" height="188pt"
 viewBox="0.00 0.00 6565.77 188.00" xmlns="http://www.w3.org/2000/svg" xmlns:xlink="http://www.w3.org/1999/xlink">
<g id="graph0" class="graph" transform="scale(1 1) rotate(0) translate(4 184)">
<title>G</title>
<polygon fill="white" stroke="transparent" points="-4,4 -4,-184 6561.77,-184 6561.77,4 -4,4"/>
<!-- :app:androidApp -->
<g id="node1" class="node">
<title>:app:androidApp</title>
<ellipse fill="none" stroke="black" cx="2467.44" cy="-162" rx="87.18" ry="18"/>
<text text-anchor="middle" x="2467.44" y="-158.3" font-family="Times,serif" font-size="14.00">:app:androidApp</text>
</g>
<!-- :app:shared -->
<g id="node2" class="node">
<title>:app:shared</title>
<ellipse fill="none" stroke="black" cx="2660.44" cy="-90" rx="65.79" ry="18"/>
<text text-anchor="middle" x="2660.44" y="-86.3" font-family="Times,serif" font-size="14.00">:app:shared</text>
</g>
<!-- :app:androidApp&#45;&gt;:app:shared -->
<g id="edge1" class="edge">
<title>:app:androidApp&#45;&gt;:app:shared</title>
<path fill="none" stroke="black" d="M2508.85,-145.98C2539.36,-134.92 2580.93,-119.84 2612.82,-108.27"/>
<polygon fill="black" stroke="black" points="2614.18,-111.5 2622.38,-104.8 2611.79,-104.92 2614.18,-111.5"/>
</g>
<!-- :feature:main -->
<g id="node4" class="node">
<title>:feature:main</title>
<ellipse fill="none" stroke="black" cx="73.44" cy="-18" rx="73.39" ry="18"/>
<text text-anchor="middle" x="73.44" y="-14.3" font-family="Times,serif" font-size="14.00">:feature:main</text>
</g>
<!-- :app:shared&#45;&gt;:feature:main -->
<g id="edge3" class="edge">
<title>:app:shared&#45;&gt;:feature:main</title>
<path fill="none" stroke="black" d="M2594.81,-89.22C2250.41,-90.12 649.05,-91.2 156.44,-36 149.31,-35.2 141.88,-34.09 134.52,-32.81"/>
<polygon fill="black" stroke="black" points="135.04,-29.35 124.57,-30.98 133.77,-36.23 135.04,-29.35"/>
</g>
<!-- :feature:lmu&#45;windows&#45;connection -->
<g id="node5" class="node">
<title>:feature:lmu&#45;windows&#45;connection</title>
<ellipse fill="none" stroke="black" cx="329.44" cy="-18" rx="164.37" ry="18"/>
<text text-anchor="middle" x="329.44" y="-14.3" font-family="Times,serif" font-size="14.00">:feature:lmu&#45;windows&#45;connection</text>
</g>
<!-- :app:shared&#45;&gt;:feature:lmu&#45;windows&#45;connection -->
<g id="edge4" class="edge">
<title>:app:shared&#45;&gt;:feature:lmu&#45;windows&#45;connection</title>
<path fill="none" stroke="black" d="M2594.62,-89.13C2331.21,-89.28 1327.42,-86.31 503.44,-36 486.73,-34.98 469.14,-33.61 451.82,-32.09"/>
<polygon fill="black" stroke="black" points="451.94,-28.58 441.67,-31.18 451.32,-35.56 451.94,-28.58"/>
</g>
<!-- :feature:gt7&#45;ps5&#45;connection -->
<g id="node6" class="node">
<title>:feature:gt7&#45;ps5&#45;connection</title>
<ellipse fill="none" stroke="black" cx="650.44" cy="-18" rx="138.38" ry="18"/>
<text text-anchor="middle" x="650.44" y="-14.3" font-family="Times,serif" font-size="14.00">:feature:gt7&#45;ps5&#45;connection</text>
</g>
<!-- :app:shared&#45;&gt;:feature:gt7&#45;ps5&#45;connection -->
<g id="edge5" class="edge">
<title>:app:shared&#45;&gt;:feature:gt7&#45;ps5&#45;connection</title>
<path fill="none" stroke="black" d="M2594.79,-89.17C2354.51,-89.36 1500.44,-86.21 798.44,-36 784.5,-35 769.86,-33.67 755.42,-32.19"/>
<polygon fill="black" stroke="black" points="755.78,-28.7 745.47,-31.14 755.05,-35.67 755.78,-28.7"/>
</g>
<!-- :feature:server&#45;connection -->
<g id="node7" class="node">
<title>:feature:server&#45;connection</title>
<ellipse fill="none" stroke="black" cx="940.44" cy="-18" rx="133.48" ry="18"/>
<text text-anchor="middle" x="940.44" y="-14.3" font-family="Times,serif" font-size="14.00">:feature:server&#45;connection</text>
</g>
<!-- :app:shared&#45;&gt;:feature:server&#45;connection -->
<g id="edge6" class="edge">
<title>:app:shared&#45;&gt;:feature:server&#45;connection</title>
<path fill="none" stroke="black" d="M2594.61,-88.78C2378.07,-87.64 1668.32,-80.51 1083.44,-36 1070.1,-34.98 1056.09,-33.65 1042.27,-32.18"/>
<polygon fill="black" stroke="black" points="1042.58,-28.69 1032.26,-31.08 1041.82,-35.65 1042.58,-28.69"/>
</g>
<!-- :feature:lmu&#45;windows&#45;narrator -->
<g id="node8" class="node">
<title>:feature:lmu&#45;windows&#45;narrator</title>
<ellipse fill="none" stroke="black" cx="1245.44" cy="-18" rx="153.27" ry="18"/>
<text text-anchor="middle" x="1245.44" y="-14.3" font-family="Times,serif" font-size="14.00">:feature:lmu&#45;windows&#45;narrator</text>
</g>
<!-- :app:shared&#45;&gt;:feature:lmu&#45;windows&#45;narrator -->
<g id="edge7" class="edge">
<title>:app:shared&#45;&gt;:feature:lmu&#45;windows&#45;narrator</title>
<path fill="none" stroke="black" d="M2595.19,-87.66C2409.44,-83.52 1861.92,-69.21 1408.44,-36 1393.31,-34.89 1377.41,-33.51 1361.72,-32.01"/>
<polygon fill="black" stroke="black" points="1361.74,-28.5 1351.45,-31.01 1361.07,-35.46 1361.74,-28.5"/>
</g>
<!-- :feature:gt7&#45;ps5&#45;narrator -->
<g id="node9" class="node">
<title>:feature:gt7&#45;ps5&#45;narrator</title>
<ellipse fill="none" stroke="black" cx="1544.44" cy="-18" rx="127.28" ry="18"/>
<text text-anchor="middle" x="1544.44" y="-14.3" font-family="Times,serif" font-size="14.00">:feature:gt7&#45;ps5&#45;narrator</text>
</g>
<!-- :app:shared&#45;&gt;:feature:gt7&#45;ps5&#45;narrator -->
<g id="edge8" class="edge">
<title>:app:shared&#45;&gt;:feature:gt7&#45;ps5&#45;narrator</title>
<path fill="none" stroke="black" d="M2595.54,-87.07C2438.3,-82.05 2024.53,-66.77 1680.44,-36 1668.29,-34.91 1655.54,-33.58 1642.94,-32.14"/>
<polygon fill="black" stroke="black" points="1643.2,-28.65 1632.87,-30.97 1642.39,-35.6 1643.2,-28.65"/>
</g>
<!-- :feature:other&#45;license&#45;detail -->
<g id="node10" class="node">
<title>:feature:other&#45;license&#45;detail</title>
<ellipse fill="none" stroke="black" cx="1829.44" cy="-18" rx="139.98" ry="18"/>
<text text-anchor="middle" x="1829.44" y="-14.3" font-family="Times,serif" font-size="14.00">:feature:other&#45;license&#45;detail</text>
</g>
<!-- :app:shared&#45;&gt;:feature:other&#45;license&#45;detail -->
<g id="edge9" class="edge">
<title>:app:shared&#45;&gt;:feature:other&#45;license&#45;detail</title>
<path fill="none" stroke="black" d="M2597.38,-84.86C2476.96,-76.79 2206.01,-57.82 1978.44,-36 1965.54,-34.76 1952.01,-33.36 1938.6,-31.91"/>
<polygon fill="black" stroke="black" points="1938.69,-28.4 1928.37,-30.79 1937.93,-35.36 1938.69,-28.4"/>
</g>
<!-- :feature:other&#45;list -->
<g id="node11" class="node">
<title>:feature:other&#45;list</title>
<ellipse fill="none" stroke="black" cx="2080.44" cy="-18" rx="92.88" ry="18"/>
<text text-anchor="middle" x="2080.44" y="-14.3" font-family="Times,serif" font-size="14.00">:feature:other&#45;list</text>
</g>
<!-- :app:shared&#45;&gt;:feature:other&#45;list -->
<g id="edge10" class="edge">
<title>:app:shared&#45;&gt;:feature:other&#45;list</title>
<path fill="none" stroke="black" d="M2599.19,-83.29C2508.13,-74.56 2331.72,-56.7 2182.44,-36 2174.2,-34.86 2165.6,-33.57 2157.03,-32.23"/>
<polygon fill="black" stroke="black" points="2157.45,-28.75 2147.03,-30.64 2156.35,-35.67 2157.45,-28.75"/>
</g>
<!-- :feature:other&#45;server&#45;ip&#45;detail -->
<g id="node12" class="node">
<title>:feature:other&#45;server&#45;ip&#45;detail</title>
<ellipse fill="none" stroke="black" cx="2340.44" cy="-18" rx="148.67" ry="18"/>
<text text-anchor="middle" x="2340.44" y="-14.3" font-family="Times,serif" font-size="14.00">:feature:other&#45;server&#45;ip&#45;detail</text>
</g>
<!-- :app:shared&#45;&gt;:feature:other&#45;server&#45;ip&#45;detail -->
<g id="edge11" class="edge">
<title>:app:shared&#45;&gt;:feature:other&#45;server&#45;ip&#45;detail</title>
<path fill="none" stroke="black" d="M2610.79,-78.14C2559.49,-66.92 2478.68,-49.24 2418.76,-36.13"/>
<polygon fill="black" stroke="black" points="2419.47,-32.7 2408.95,-33.99 2417.97,-39.54 2419.47,-32.7"/>
</g>
<!-- :feature:other&#45;console&#45;ip&#45;detail -->
<g id="node13" class="node">
<title>:feature:other&#45;console&#45;ip&#45;detail</title>
<ellipse fill="none" stroke="black" cx="2660.44" cy="-18" rx="153.27" ry="18"/>
<text text-anchor="middle" x="2660.44" y="-14.3" font-family="Times,serif" font-size="14.00">:feature:other&#45;console&#45;ip&#45;detail</text>
</g>
<!-- :app:shared&#45;&gt;:feature:other&#45;console&#45;ip&#45;detail -->
<g id="edge12" class="edge">
<title>:app:shared&#45;&gt;:feature:other&#45;console&#45;ip&#45;detail</title>
<path fill="none" stroke="black" d="M2660.44,-71.7C2660.44,-63.98 2660.44,-54.71 2660.44,-46.11"/>
<polygon fill="black" stroke="black" points="2663.94,-46.1 2660.44,-36.1 2656.94,-46.1 2663.94,-46.1"/>
</g>
<!-- :feature:other&#45;readout&#45;start&#45;sound&#45;detail -->
<g id="node14" class="node">
<title>:feature:other&#45;readout&#45;start&#45;sound&#45;detail</title>
<ellipse fill="none" stroke="black" cx="3031.44" cy="-18" rx="199.56" ry="18"/>
<text text-anchor="middle" x="3031.44" y="-14.3" font-family="Times,serif" font-size="14.00">:feature:other&#45;readout&#45;start&#45;sound&#45;detail</text>
</g>
<!-- :app:shared&#45;&gt;:feature:other&#45;readout&#45;start&#45;sound&#45;detail -->
<g id="edge13" class="edge">
<title>:app:shared&#45;&gt;:feature:other&#45;readout&#45;start&#45;sound&#45;detail</title>
<path fill="none" stroke="black" d="M2712.81,-79.12C2771.66,-68.02 2868.3,-49.78 2939.74,-36.3"/>
<polygon fill="black" stroke="black" points="2940.47,-39.73 2949.65,-34.43 2939.18,-32.85 2940.47,-39.73"/>
</g>
<!-- :feature:other&#45;volume&#45;detail -->
<g id="node15" class="node">
<title>:feature:other&#45;volume&#45;detail</title>
<ellipse fill="none" stroke="black" cx="3390.44" cy="-18" rx="141.07" ry="18"/>
<text text-anchor="middle" x="3390.44" y="-14.3" font-family="Times,serif" font-size="14.00">:feature:other&#45;volume&#45;detail</text>
</g>
<!-- :app:shared&#45;&gt;:feature:other&#45;volume&#45;detail -->
<g id="edge14" class="edge">
<title>:app:shared&#45;&gt;:feature:other&#45;volume&#45;detail</title>
<path fill="none" stroke="black" d="M2722.29,-83.79C2828.37,-74.76 3051.84,-55.3 3240.44,-36 3253.22,-34.69 3266.6,-33.26 3279.89,-31.8"/>
<polygon fill="black" stroke="black" points="3280.47,-35.26 3290.02,-30.69 3279.7,-28.3 3280.47,-35.26"/>
</g>
<!-- :feature:other&#45;keep&#45;screen&#45;on&#45;detail -->
<g id="node16" class="node">
<title>:feature:other&#45;keep&#45;screen&#45;on&#45;detail</title>
<ellipse fill="none" stroke="black" cx="3726.44" cy="-18" rx="176.57" ry="18"/>
<text text-anchor="middle" x="3726.44" y="-14.3" font-family="Times,serif" font-size="14.00">:feature:other&#45;keep&#45;screen&#45;on&#45;detail</text>
</g>
<!-- :app:shared&#45;&gt;:feature:other&#45;keep&#45;screen&#45;on&#45;detail -->
<g id="edge15" class="edge">
<title>:app:shared&#45;&gt;:feature:other&#45;keep&#45;screen&#45;on&#45;detail</title>
<path fill="none" stroke="black" d="M2724.53,-85.82C2869.79,-78.47 3235.21,-59.13 3540.44,-36 3557.2,-34.73 3574.8,-33.28 3592.21,-31.77"/>
<polygon fill="black" stroke="black" points="3592.77,-35.23 3602.43,-30.87 3592.16,-28.26 3592.77,-35.23"/>
</g>
<!-- :feature:readout&#45;list -->
<g id="node17" class="node">
<title>:feature:readout&#45;list</title>
<ellipse fill="none" stroke="black" cx="4025.44" cy="-18" rx="103.98" ry="18"/>
<text text-anchor="middle" x="4025.44" y="-14.3" font-family="Times,serif" font-size="14.00">:feature:readout&#45;list</text>
</g>
<!-- :app:shared&#45;&gt;:feature:readout&#45;list -->
<g id="edge16" class="edge">
<title>:app:shared&#45;&gt;:feature:readout&#45;list</title>
<path fill="none" stroke="black" d="M2726.12,-88.69C2912.43,-87.29 3460.11,-79.47 3912.44,-36 3922.37,-35.05 3932.75,-33.81 3943.03,-32.44"/>
<polygon fill="black" stroke="black" points="3943.82,-35.87 3953.25,-31.04 3942.86,-28.93 3943.82,-35.87"/>
</g>
<!-- :feature:lmu&#45;windows&#45;readout&#45;vehicle&#45;approach&#45;detail -->
<g id="node18" class="node">
<title>:feature:lmu&#45;windows&#45;readout&#45;vehicle&#45;approach&#45;detail</title>
<ellipse fill="none" stroke="black" cx="4408.44" cy="-18" rx="260.75" ry="18"/>
<text text-anchor="middle" x="4408.44" y="-14.3" font-family="Times,serif" font-size="14.00">:feature:lmu&#45;windows&#45;readout&#45;vehicle&#45;approach&#45;detail</text>
</g>
<!-- :app:shared&#45;&gt;:feature:lmu&#45;windows&#45;readout&#45;vehicle&#45;approach&#45;detail -->
<g id="edge17" class="edge">
<title>:app:shared&#45;&gt;:feature:lmu&#45;windows&#45;readout&#45;vehicle&#45;approach&#45;detail</title>
<path fill="none" stroke="black" d="M2725.66,-87.29C2932.53,-81.73 3592.53,-62.97 4138.44,-36 4164.23,-34.73 4191.4,-33.22 4218.16,-31.63"/>
<polygon fill="black" stroke="black" points="4218.62,-35.11 4228.39,-31.02 4218.2,-28.12 4218.62,-35.11"/>
</g>
<!-- :feature:lmu&#45;windows&#45;readout&#45;flag&#45;detail -->
<g id="node19" class="node">
<title>:feature:lmu&#45;windows&#45;readout&#45;flag&#45;detail</title>
<ellipse fill="none" stroke="black" cx="4886.44" cy="-18" rx="199.56" ry="18"/>
<text text-anchor="middle" x="4886.44" y="-14.3" font-family="Times,serif" font-size="14.00">:feature:lmu&#45;windows&#45;readout&#45;flag&#45;detail</text>
</g>
<!-- :app:shared&#45;&gt;:feature:lmu&#45;windows&#45;readout&#45;flag&#45;detail -->
<g id="edge18" class="edge">
<title>:app:shared&#45;&gt;:feature:lmu&#45;windows&#45;readout&#45;flag&#45;detail</title>
<path fill="none" stroke="black" d="M2726.26,-88.59C2979.01,-86.75 3911.6,-77.38 4678.44,-36 4698.5,-34.92 4719.62,-33.51 4740.4,-31.96"/>
<polygon fill="black" stroke="black" points="4740.87,-35.44 4750.58,-31.19 4740.34,-28.46 4740.87,-35.44"/>
</g>
<!-- :feature:lmu&#45;windows&#45;readout&#45;vehicle&#45;damage&#45;detail -->
<g id="node20" class="node">
<title>:feature:lmu&#45;windows&#45;readout&#45;vehicle&#45;damage&#45;detail</title>
<ellipse fill="none" stroke="black" cx="5358.44" cy="-18" rx="254.55" ry="18"/>
<text text-anchor="middle" x="5358.44" y="-14.3" font-family="Times,serif" font-size="14.00">:feature:lmu&#45;windows&#45;readout&#45;vehicle&#45;damage&#45;detail</text>
</g>
<!-- :app:shared&#45;&gt;:feature:lmu&#45;windows&#45;readout&#45;vehicle&#45;damage&#45;detail -->
<g id="edge19" class="edge">
<title>:app:shared&#45;&gt;:feature:lmu&#45;windows&#45;readout&#45;vehicle&#45;damage&#45;detail</title>
<path fill="none" stroke="black" d="M2726.33,-88.6C3010.03,-86.66 4155.49,-76.59 5095.44,-36 5121.28,-34.88 5148.54,-33.43 5175.32,-31.85"/>
<polygon fill="black" stroke="black" points="5175.78,-35.33 5185.55,-31.23 5175.36,-28.34 5175.78,-35.33"/>
</g>
<!-- :feature:gt7&#45;ps5&#45;readout&#45;my&#45;bestlap&#45;detail -->
<g id="node21" class="node">
<title>:feature:gt7&#45;ps5&#45;readout&#45;my&#45;bestlap&#45;detail</title>
<ellipse fill="none" stroke="black" cx="5839.44" cy="-18" rx="207.96" ry="18"/>
<text text-anchor="middle" x="5839.44" y="-14.3" font-family="Times,serif" font-size="14.00">:feature:gt7&#45;ps5&#45;readout&#45;my&#45;bestlap&#45;detail</text>
</g>
<!-- :app:shared&#45;&gt;:feature:gt7&#45;ps5&#45;readout&#45;my&#45;bestlap&#45;detail -->
<g id="edge20" class="edge">
<title>:app:shared&#45;&gt;:feature:gt7&#45;ps5&#45;readout&#45;my&#45;bestlap&#45;detail</title>
<path fill="none" stroke="black" d="M2726.16,-89.29C3045.01,-90.39 4462.71,-91.75 5622.44,-36 5643.8,-34.97 5666.32,-33.57 5688.44,-32.01"/>
<polygon fill="black" stroke="black" points="5688.85,-35.49 5698.57,-31.28 5688.35,-28.5 5688.85,-35.49"/>
</g>
<!-- :feature:gt7&#45;ps5&#45;readout&#45;remaining&#45;fuel&#45;laps&#45;detail -->
<g id="node22" class="node">
<title>:feature:gt7&#45;ps5&#45;readout&#45;remaining&#45;fuel&#45;laps&#45;detail</title>
<ellipse fill="none" stroke="black" cx="6311.44" cy="-18" rx="246.16" ry="18"/>
<text text-anchor="middle" x="6311.44" y="-14.3" font-family="Times,serif" font-size="14.00">:feature:gt7&#45;ps5&#45;readout&#45;remaining&#45;fuel&#45;laps&#45;detail</text>
</g>
<!-- :app:shared&#45;&gt;:feature:gt7&#45;ps5&#45;readout&#45;remaining&#45;fuel&#45;laps&#45;detail -->
<g id="edge21" class="edge">
<title>:app:shared&#45;&gt;:feature:gt7&#45;ps5&#45;readout&#45;remaining&#45;fuel&#45;laps&#45;detail</title>
<path fill="none" stroke="black" d="M2726.08,-89.22C3071.55,-90.12 4714.27,-91.18 6056.44,-36 6081.9,-34.95 6108.76,-33.52 6135.12,-31.93"/>
<polygon fill="black" stroke="black" points="6135.43,-35.42 6145.19,-31.31 6135,-28.43 6135.43,-35.42"/>
</g>
<!-- :app:desktopApp -->
<g id="node3" class="node">
<title>:app:desktopApp</title>
<ellipse fill="none" stroke="black" cx="2660.44" cy="-162" rx="88.28" ry="18"/>
<text text-anchor="middle" x="2660.44" y="-158.3" font-family="Times,serif" font-size="14.00">:app:desktopApp</text>
</g>
<!-- :app:desktopApp&#45;&gt;:app:shared -->
<g id="edge2" class="edge">
<title>:app:desktopApp&#45;&gt;:app:shared</title>
<path fill="none" stroke="black" d="M2660.44,-143.7C2660.44,-135.98 2660.44,-126.71 2660.44,-118.11"/>
<polygon fill="black" stroke="black" points="2663.94,-118.1 2660.44,-108.1 2656.94,-118.1 2663.94,-118.1"/>
</g>
<!-- :app:webApp -->
<g id="node23" class="node">
<title>:app:webApp</title>
<ellipse fill="none" stroke="black" cx="2837.44" cy="-162" rx="70.69" ry="18"/>
<text text-anchor="middle" x="2837.44" y="-158.3" font-family="Times,serif" font-size="14.00">:app:webApp</text>
</g>
<!-- :app:webApp&#45;&gt;:app:shared -->
<g id="edge22" class="edge">
<title>:app:webApp&#45;&gt;:app:shared</title>
<path fill="none" stroke="black" d="M2800.77,-146.5C2773.2,-135.59 2735.28,-120.6 2705.81,-108.94"/>
<polygon fill="black" stroke="black" points="2706.75,-105.55 2696.16,-105.13 2704.18,-112.06 2706.75,-105.55"/>
</g>
</g>
</svg>
