<?xml version="1.0" encoding="UTF-8" standalone="no"?>
<!DOCTYPE svg PUBLIC "-//W3C//DTD SVG 1.1//EN"
 "http://www.w3.org/Graphics/SVG/1.1/DTD/svg11.dtd">
<!-- Generated by graphviz version 2.43.0 (0)
 -->
<!-- Title: G Pages: 1 -->
<svg width="3939pt" height="188pt"
 viewBox="0.00 0.00 3939.22 188.00" xmlns="http://www.w3.org/2000/svg" xmlns:xlink="http://www.w3.org/1999/xlink">
<g id="graph0" class="graph" transform="scale(1 1) rotate(0) translate(4 184)">
<title>G</title>
<polygon fill="white" stroke="transparent" points="-4,4 -4,-184 3935.22,-184 3935.22,4 -4,4"/>
<!-- :app:androidApp -->
<g id="node1" class="node">
<title>:app:androidApp</title>
<ellipse fill="none" stroke="black" cx="1449.44" cy="-162" rx="87.18" ry="18"/>
<text text-anchor="middle" x="1449.44" y="-158.3" font-family="Times,serif" font-size="14.00">:app:androidApp</text>
</g>
<!-- :app:shared -->
<g id="node2" class="node">
<title>:app:shared</title>
<ellipse fill="none" stroke="black" cx="1642.44" cy="-90" rx="65.79" ry="18"/>
<text text-anchor="middle" x="1642.44" y="-86.3" font-family="Times,serif" font-size="14.00">:app:shared</text>
</g>
<!-- :app:androidApp&#45;&gt;:app:shared -->
<g id="edge1" class="edge">
<title>:app:androidApp&#45;&gt;:app:shared</title>
<path fill="none" stroke="black" d="M1490.85,-145.98C1521.36,-134.92 1562.93,-119.84 1594.82,-108.27"/>
<polygon fill="black" stroke="black" points="1596.18,-111.5 1604.38,-104.8 1593.79,-104.92 1596.18,-111.5"/>
</g>
<!-- :feature:main -->
<g id="node4" class="node">
<title>:feature:main</title>
<ellipse fill="none" stroke="black" cx="73.44" cy="-18" rx="73.39" ry="18"/>
<text text-anchor="middle" x="73.44" y="-14.3" font-family="Times,serif" font-size="14.00">:feature:main</text>
</g>
<!-- :app:shared&#45;&gt;:feature:main -->
<g id="edge3" class="edge">
<title>:app:shared&#45;&gt;:feature:main</title>
<path fill="none" stroke="black" d="M1576.74,-88.11C1327.1,-84.51 437.44,-69.55 156.44,-36 149.57,-35.18 142.43,-34.09 135.34,-32.85"/>
<polygon fill="black" stroke="black" points="135.5,-29.32 125.03,-30.95 134.23,-36.2 135.5,-29.32"/>
</g>
<!-- :feature:lmu&#45;windows&#45;connection -->
<g id="node5" class="node">
<title>:feature:lmu&#45;windows&#45;connection</title>
<ellipse fill="none" stroke="black" cx="329.44" cy="-18" rx="164.37" ry="18"/>
<text text-anchor="middle" x="329.44" y="-14.3" font-family="Times,serif" font-size="14.00">:feature:lmu&#45;windows&#45;connection</text>
</g>
<!-- :app:shared&#45;&gt;:feature:lmu&#45;windows&#45;connection -->
<g id="edge4" class="edge">
<title>:app:shared&#45;&gt;:feature:lmu&#45;windows&#45;connection</title>
<path fill="none" stroke="black" d="M1577.52,-87.14C1403.42,-81.89 911.66,-65.42 503.44,-36 487.4,-34.84 470.54,-33.44 453.89,-31.93"/>
<polygon fill="black" stroke="black" points="453.84,-28.42 443.56,-30.99 453.2,-35.39 453.84,-28.42"/>
</g>
<!-- :feature:server&#45;connection -->
<g id="node6" class="node">
<title>:feature:server&#45;connection</title>
<ellipse fill="none" stroke="black" cx="645.44" cy="-18" rx="133.48" ry="18"/>
<text text-anchor="middle" x="645.44" y="-14.3" font-family="Times,serif" font-size="14.00">:feature:server&#45;connection</text>
</g>
<!-- :app:shared&#45;&gt;:feature:server&#45;connection -->
<g id="edge5" class="edge">
<title>:app:shared&#45;&gt;:feature:server&#45;connection</title>
<path fill="none" stroke="black" d="M1578.07,-86.25C1435.59,-79.88 1082.86,-62.61 788.44,-36 775.65,-34.84 762.22,-33.47 748.94,-32"/>
<polygon fill="black" stroke="black" points="749.15,-28.5 738.82,-30.87 748.37,-35.46 749.15,-28.5"/>
</g>
<!-- :feature:lmu&#45;windows&#45;narrator -->
<g id="node7" class="node">
<title>:feature:lmu&#45;windows&#45;narrator</title>
<ellipse fill="none" stroke="black" cx="950.44" cy="-18" rx="153.27" ry="18"/>
<text text-anchor="middle" x="950.44" y="-14.3" font-family="Times,serif" font-size="14.00">:feature:lmu&#45;windows&#45;narrator</text>
</g>
<!-- :app:shared&#45;&gt;:feature:lmu&#45;windows&#45;narrator -->
<g id="edge6" class="edge">
<title>:app:shared&#45;&gt;:feature:lmu&#45;windows&#45;narrator</title>
<path fill="none" stroke="black" d="M1581.63,-83.02C1483.08,-73.3 1282.4,-53.41 1112.44,-36 1098.86,-34.61 1084.64,-33.14 1070.5,-31.67"/>
<polygon fill="black" stroke="black" points="1070.54,-28.15 1060.24,-30.59 1069.82,-35.11 1070.54,-28.15"/>
</g>
<!-- :feature:other&#45;license&#45;detail -->
<g id="node8" class="node">
<title>:feature:other&#45;license&#45;detail</title>
<ellipse fill="none" stroke="black" cx="1261.44" cy="-18" rx="139.98" ry="18"/>
<text text-anchor="middle" x="1261.44" y="-14.3" font-family="Times,serif" font-size="14.00">:feature:other&#45;license&#45;detail</text>
</g>
<!-- :app:shared&#45;&gt;:feature:other&#45;license&#45;detail -->
<g id="edge7" class="edge">
<title>:app:shared&#45;&gt;:feature:other&#45;license&#45;detail</title>
<path fill="none" stroke="black" d="M1589.47,-79.27C1527.07,-67.8 1422.54,-48.6 1348.25,-34.95"/>
<polygon fill="black" stroke="black" points="1348.45,-31.43 1337.98,-33.06 1347.18,-38.31 1348.45,-31.43"/>
</g>
<!-- :feature:other&#45;list -->
<g id="node9" class="node">
<title>:feature:other&#45;list</title>
<ellipse fill="none" stroke="black" cx="1512.44" cy="-18" rx="92.88" ry="18"/>
<text text-anchor="middle" x="1512.44" y="-14.3" font-family="Times,serif" font-size="14.00">:feature:other&#45;list</text>
</g>
<!-- :app:shared&#45;&gt;:feature:other&#45;list -->
<g id="edge8" class="edge">
<title>:app:shared&#45;&gt;:feature:other&#45;list</title>
<path fill="none" stroke="black" d="M1613.91,-73.64C1595.51,-63.73 1571.33,-50.71 1551.19,-39.87"/>
<polygon fill="black" stroke="black" points="1552.72,-36.71 1542.26,-35.06 1549.41,-42.88 1552.72,-36.71"/>
</g>
<!-- :feature:other&#45;server&#45;ip&#45;detail -->
<g id="node10" class="node">
<title>:feature:other&#45;server&#45;ip&#45;detail</title>
<ellipse fill="none" stroke="black" cx="1772.44" cy="-18" rx="148.67" ry="18"/>
<text text-anchor="middle" x="1772.44" y="-14.3" font-family="Times,serif" font-size="14.00">:feature:other&#45;server&#45;ip&#45;detail</text>
</g>
<!-- :app:shared&#45;&gt;:feature:other&#45;server&#45;ip&#45;detail -->
<g id="edge9" class="edge">
<title>:app:shared&#45;&gt;:feature:other&#45;server&#45;ip&#45;detail</title>
<path fill="none" stroke="black" d="M1670.97,-73.64C1688.99,-63.94 1712.54,-51.26 1732.41,-40.56"/>
<polygon fill="black" stroke="black" points="1734.11,-43.62 1741.25,-35.8 1730.79,-37.45 1734.11,-43.62"/>
</g>
<!-- :feature:other&#45;volume&#45;detail -->
<g id="node11" class="node">
<title>:feature:other&#45;volume&#45;detail</title>
<ellipse fill="none" stroke="black" cx="2080.44" cy="-18" rx="141.07" ry="18"/>
<text text-anchor="middle" x="2080.44" y="-14.3" font-family="Times,serif" font-size="14.00">:feature:other&#45;volume&#45;detail</text>
</g>
<!-- :app:shared&#45;&gt;:feature:other&#45;volume&#45;detail -->
<g id="edge10" class="edge">
<title>:app:shared&#45;&gt;:feature:other&#45;volume&#45;detail</title>
<path fill="none" stroke="black" d="M1697.92,-80.13C1770.4,-68.55 1898.4,-48.09 1986.22,-34.06"/>
<polygon fill="black" stroke="black" points="1986.87,-37.5 1996.19,-32.46 1985.76,-30.59 1986.87,-37.5"/>
</g>
<!-- :feature:readout&#45;list -->
<g id="node12" class="node">
<title>:feature:readout&#45;list</title>
<ellipse fill="none" stroke="black" cx="2343.44" cy="-18" rx="103.98" ry="18"/>
<text text-anchor="middle" x="2343.44" y="-14.3" font-family="Times,serif" font-size="14.00">:feature:readout&#45;list</text>
</g>
<!-- :app:shared&#45;&gt;:feature:readout&#45;list -->
<g id="edge11" class="edge">
<title>:app:shared&#45;&gt;:feature:readout&#45;list</title>
<path fill="none" stroke="black" d="M1705.23,-84.57C1812.9,-76.7 2039.63,-58.93 2230.44,-36 2239.87,-34.87 2249.73,-33.56 2259.52,-32.19"/>
<polygon fill="black" stroke="black" points="2260.27,-35.62 2269.68,-30.74 2259.28,-28.69 2260.27,-35.62"/>
</g>
<!-- :feature:lmu&#45;windows&#45;readout&#45;vehicle&#45;approach&#45;detail -->
<g id="node13" class="node">
<title>:feature:lmu&#45;windows&#45;readout&#45;vehicle&#45;approach&#45;detail</title>
<ellipse fill="none" stroke="black" cx="2726.44" cy="-18" rx="260.75" ry="18"/>
<text text-anchor="middle" x="2726.44" y="-14.3" font-family="Times,serif" font-size="14.00">:feature:lmu&#45;windows&#45;readout&#45;vehicle&#45;approach&#45;detail</text>
</g>
<!-- :app:shared&#45;&gt;:feature:lmu&#45;windows&#45;readout&#45;vehicle&#45;approach&#45;detail -->
<g id="edge12" class="edge">
<title>:app:shared&#45;&gt;:feature:lmu&#45;windows&#45;readout&#45;vehicle&#45;approach&#45;detail</title>
<path fill="none" stroke="black" d="M1705.81,-84.91C1864.48,-74.66 2283.99,-47.57 2533.01,-31.49"/>
<polygon fill="black" stroke="black" points="2533.51,-34.97 2543.26,-30.83 2533.06,-27.98 2533.51,-34.97"/>
</g>
<!-- :feature:lmu&#45;windows&#45;readout&#45;flag&#45;detail -->
<g id="node14" class="node">
<title>:feature:lmu&#45;windows&#45;readout&#45;flag&#45;detail</title>
<ellipse fill="none" stroke="black" cx="3204.44" cy="-18" rx="199.56" ry="18"/>
<text text-anchor="middle" x="3204.44" y="-14.3" font-family="Times,serif" font-size="14.00">:feature:lmu&#45;windows&#45;readout&#45;flag&#45;detail</text>
</g>
<!-- :app:shared&#45;&gt;:feature:lmu&#45;windows&#45;readout&#45;flag&#45;detail -->
<g id="edge13" class="edge">
<title>:app:shared&#45;&gt;:feature:lmu&#45;windows&#45;readout&#45;flag&#45;detail</title>
<path fill="none" stroke="black" d="M1707.67,-87.43C1903.14,-82.51 2501.26,-65.91 2996.44,-36 3015.93,-34.82 3036.44,-33.39 3056.66,-31.86"/>
<polygon fill="black" stroke="black" points="3057.18,-35.33 3066.88,-31.07 3056.65,-28.35 3057.18,-35.33"/>
</g>
<!-- :feature:lmu&#45;windows&#45;readout&#45;vehicle&#45;damage&#45;detail -->
<g id="node15" class="node">
<title>:feature:lmu&#45;windows&#45;readout&#45;vehicle&#45;damage&#45;detail</title>
<ellipse fill="none" stroke="black" cx="3676.44" cy="-18" rx="254.55" ry="18"/>
<text text-anchor="middle" x="3676.44" y="-14.3" font-family="Times,serif" font-size="14.00">:feature:lmu&#45;windows&#45;readout&#45;vehicle&#45;damage&#45;detail</text>
</g>
<!-- :app:shared&#45;&gt;:feature:lmu&#45;windows&#45;readout&#45;vehicle&#45;damage&#45;detail -->
<g id="edge14" class="edge">
<title>:app:shared&#45;&gt;:feature:lmu&#45;windows&#45;readout&#45;vehicle&#45;damage&#45;detail</title>
<path fill="none" stroke="black" d="M1708.01,-87.86C1940.59,-83.63 2747.84,-67.46 3413.44,-36 3438.77,-34.8 3465.46,-33.33 3491.73,-31.75"/>
<polygon fill="black" stroke="black" points="3492.01,-35.24 3501.78,-31.14 3491.58,-28.25 3492.01,-35.24"/>
</g>
<!-- :app:desktopApp -->
<g id="node3" class="node">
<title>:app:desktopApp</title>
<ellipse fill="none" stroke="black" cx="1642.44" cy="-162" rx="88.28" ry="18"/>
<text text-anchor="middle" x="1642.44" y="-158.3" font-family="Times,serif" font-size="14.00">:app:desktopApp</text>
</g>
<!-- :app:desktopApp&#45;&gt;:app:shared -->
<g id="edge2" class="edge">
<title>:app:desktopApp&#45;&gt;:app:shared</title>
<path fill="none" stroke="black" d="M1642.44,-143.7C1642.44,-135.98 1642.44,-126.71 1642.44,-118.11"/>
<polygon fill="black" stroke="black" points="1645.94,-118.1 1642.44,-108.1 1638.94,-118.1 1645.94,-118.1"/>
</g>
<!-- :app:webApp -->
<g id="node16" class="node">
<title>:app:webApp</title>
<ellipse fill="none" stroke="black" cx="1819.44" cy="-162" rx="70.69" ry="18"/>
<text text-anchor="middle" x="1819.44" y="-158.3" font-family="Times,serif" font-size="14.00">:app:webApp</text>
</g>
<!-- :app:webApp&#45;&gt;:app:shared -->
<g id="edge15" class="edge">
<title>:app:webApp&#45;&gt;:app:shared</title>
<path fill="none" stroke="black" d="M1782.77,-146.5C1755.2,-135.59 1717.28,-120.6 1687.81,-108.94"/>
<polygon fill="black" stroke="black" points="1688.75,-105.55 1678.16,-105.13 1686.18,-112.06 1688.75,-105.55"/>
</g>
</g>
</svg>
