<?xml version="1.0" encoding="UTF-8" standalone="no"?>
<!DOCTYPE svg PUBLIC "-//W3C//DTD SVG 1.1//EN"
 "http://www.w3.org/Graphics/SVG/1.1/DTD/svg11.dtd">
<!-- Generated by graphviz version 2.43.0 (0)
 -->
<!-- Title: G Pages: 1 -->
<svg width="391pt" height="260pt"
 viewBox="0.00 0.00 390.74 260.00" xmlns="http://www.w3.org/2000/svg" xmlns:xlink="http://www.w3.org/1999/xlink">
<g id="graph0" class="graph" transform="scale(1 1) rotate(0) translate(4 256)">
<title>G</title>
<polygon fill="white" stroke="transparent" points="-4,4 -4,-256 386.74,-256 386.74,4 -4,4"/>
<!-- :app:desktopApp -->
<g id="node1" class="node">
<title>:app:desktopApp</title>
<ellipse fill="none" stroke="black" cx="235.04" cy="-234" rx="88.28" ry="18"/>
<text text-anchor="middle" x="235.04" y="-230.3" font-family="Times,serif" font-size="14.00">:app:desktopApp</text>
</g>
<!-- :app:shared -->
<g id="node2" class="node">
<title>:app:shared</title>
<ellipse fill="none" stroke="black" cx="188.04" cy="-162" rx="65.79" ry="18"/>
<text text-anchor="middle" x="188.04" y="-158.3" font-family="Times,serif" font-size="14.00">:app:shared</text>
</g>
<!-- :app:desktopApp&#45;&gt;:app:shared -->
<g id="edge1" class="edge">
<title>:app:desktopApp&#45;&gt;:app:shared</title>
<path fill="none" stroke="black" d="M223.66,-216.05C218.06,-207.71 211.2,-197.49 205,-188.25"/>
<polygon fill="black" stroke="black" points="207.79,-186.14 199.31,-179.79 201.98,-190.04 207.79,-186.14"/>
</g>
<!-- :core:domain -->
<g id="node3" class="node">
<title>:core:domain</title>
<ellipse fill="none" stroke="black" cx="282.04" cy="-18" rx="70.69" ry="18"/>
<text text-anchor="middle" x="282.04" y="-14.3" font-family="Times,serif" font-size="14.00">:core:domain</text>
</g>
<!-- :app:desktopApp&#45;&gt;:core:domain -->
<g id="edge2" class="edge">
<title>:app:desktopApp&#45;&gt;:core:domain</title>
<path fill="none" stroke="black" d="M265.17,-217.03C299.62,-196.85 354.18,-158.58 377.04,-108 383.63,-93.42 385.14,-85.8 377.04,-72 367.77,-56.21 351.89,-44.77 335.74,-36.66"/>
<polygon fill="black" stroke="black" points="336.79,-33.3 326.25,-32.27 333.85,-39.65 336.79,-33.3"/>
</g>
<!-- :feature:narrator -->
<g id="node4" class="node">
<title>:feature:narrator</title>
<ellipse fill="none" stroke="black" cx="89.04" cy="-90" rx="89.08" ry="18"/>
<text text-anchor="middle" x="89.04" y="-86.3" font-family="Times,serif" font-size="14.00">:feature:narrator</text>
</g>
<!-- :app:desktopApp&#45;&gt;:feature:narrator -->
<g id="edge3" class="edge">
<title>:app:desktopApp&#45;&gt;:feature:narrator</title>
<path fill="none" stroke="black" d="M178.4,-220.03C155.18,-212.06 129.87,-199.49 113.04,-180 98.22,-162.83 92.45,-137.39 90.26,-118.1"/>
<polygon fill="black" stroke="black" points="93.74,-117.76 89.37,-108.11 86.77,-118.38 93.74,-117.76"/>
</g>
<!-- :feature:readout -->
<g id="node5" class="node">
<title>:feature:readout</title>
<ellipse fill="none" stroke="black" cx="282.04" cy="-90" rx="86.38" ry="18"/>
<text text-anchor="middle" x="282.04" y="-86.3" font-family="Times,serif" font-size="14.00">:feature:readout</text>
</g>
<!-- :app:desktopApp&#45;&gt;:feature:readout -->
<g id="edge4" class="edge">
<title>:app:desktopApp&#45;&gt;:feature:readout</title>
<path fill="none" stroke="black" d="M245.63,-215.89C251.5,-205.77 258.5,-192.52 263.04,-180 270.35,-159.86 275.25,-136.08 278.24,-118.17"/>
<polygon fill="black" stroke="black" points="281.72,-118.54 279.82,-108.12 274.81,-117.45 281.72,-118.54"/>
</g>
<!-- :app:shared&#45;&gt;:feature:narrator -->
<g id="edge5" class="edge">
<title>:app:shared&#45;&gt;:feature:narrator</title>
<path fill="none" stroke="black" d="M165.08,-144.76C151.81,-135.38 134.92,-123.44 120.43,-113.19"/>
<polygon fill="black" stroke="black" points="122.41,-110.31 112.22,-107.39 118.37,-116.02 122.41,-110.31"/>
</g>
<!-- :app:shared&#45;&gt;:feature:readout -->
<g id="edge6" class="edge">
<title>:app:shared&#45;&gt;:feature:readout</title>
<path fill="none" stroke="black" d="M209.84,-144.76C222.24,-135.53 237.96,-123.83 251.56,-113.7"/>
<polygon fill="black" stroke="black" points="253.78,-116.41 259.71,-107.63 249.59,-110.8 253.78,-116.41"/>
</g>
<!-- :feature:narrator&#45;&gt;:core:domain -->
<g id="edge7" class="edge">
<title>:feature:narrator&#45;&gt;:core:domain</title>
<path fill="none" stroke="black" d="M130.45,-73.98C160.66,-63.02 201.71,-48.14 233.47,-36.62"/>
<polygon fill="black" stroke="black" points="234.8,-39.86 243.01,-33.16 232.42,-33.28 234.8,-39.86"/>
</g>
<!-- :feature:readout&#45;&gt;:core:domain -->
<g id="edge8" class="edge">
<title>:feature:readout&#45;&gt;:core:domain</title>
<path fill="none" stroke="black" d="M282.04,-71.7C282.04,-63.98 282.04,-54.71 282.04,-46.11"/>
<polygon fill="black" stroke="black" points="285.54,-46.1 282.04,-36.1 278.54,-46.1 285.54,-46.1"/>
</g>
</g>
</svg>
