<?xml version="1.0" encoding="UTF-8" standalone="no"?>
<!DOCTYPE svg PUBLIC "-//W3C//DTD SVG 1.1//EN"
 "http://www.w3.org/Graphics/SVG/1.1/DTD/svg11.dtd">
<!-- Generated by graphviz version 2.43.0 (0)
 -->
<!-- Title: G Pages: 1 -->
<svg width="11939pt" height="188pt"
 viewBox="0.00 0.00 11939.00 188.00" xmlns="http://www.w3.org/2000/svg" xmlns:xlink="http://www.w3.org/1999/xlink">
<g id="graph0" class="graph" transform="scale(1 1) rotate(0) translate(4 184)">
<title>G</title>
<polygon fill="white" stroke="transparent" points="-4,4 -4,-184 11935,-184 11935,4 -4,4"/>
<!-- :app:androidApp -->
<g id="node1" class="node">
<title>:app:androidApp</title>
<path fill="#ffe0b2" stroke="#fb8c00" d="M6339,-180C6339,-180 6229,-180 6229,-180 6223,-180 6217,-174 6217,-168 6217,-168 6217,-156 6217,-156 6217,-150 6223,-144 6229,-144 6229,-144 6339,-144 6339,-144 6345,-144 6351,-150 6351,-156 6351,-156 6351,-168 6351,-168 6351,-174 6345,-180 6339,-180"/>
<text text-anchor="middle" x="6284" y="-158.3" font-family="Times,serif" font-size="14.00">:app:androidApp</text>
</g>
<!-- :app:shared -->
<g id="node3" class="node">
<title>:app:shared</title>
<path fill="#ffe0b2" stroke="#fb8c00" stroke-width="2.5" d="M6475.5,-108C6475.5,-108 6398.5,-108 6398.5,-108 6392.5,-108 6386.5,-102 6386.5,-96 6386.5,-96 6386.5,-84 6386.5,-84 6386.5,-78 6392.5,-72 6398.5,-72 6398.5,-72 6475.5,-72 6475.5,-72 6481.5,-72 6487.5,-78 6487.5,-84 6487.5,-84 6487.5,-96 6487.5,-96 6487.5,-102 6481.5,-108 6475.5,-108"/>
<text text-anchor="middle" x="6437" y="-86.3" font-family="Times,serif" font-size="14.00">:app:shared</text>
</g>
<!-- :app:androidApp&#45;&gt;:app:shared -->
<g id="edge1" class="edge">
<title>:app:androidApp&#45;&gt;:app:shared</title>
<path fill="none" stroke="black" d="M6321.43,-143.88C6342.25,-134.35 6368.35,-122.41 6390.48,-112.28"/>
<polygon fill="black" stroke="black" points="6392.06,-115.41 6399.69,-108.07 6389.14,-109.05 6392.06,-115.41"/>
</g>
<!-- :app:desktopApp -->
<g id="node2" class="node">
<title>:app:desktopApp</title>
<path fill="#ffe0b2" stroke="#fb8c00" d="M6493,-180C6493,-180 6381,-180 6381,-180 6375,-180 6369,-174 6369,-168 6369,-168 6369,-156 6369,-156 6369,-150 6375,-144 6381,-144 6381,-144 6493,-144 6493,-144 6499,-144 6505,-150 6505,-156 6505,-156 6505,-168 6505,-168 6505,-174 6499,-180 6493,-180"/>
<text text-anchor="middle" x="6437" y="-158.3" font-family="Times,serif" font-size="14.00">:app:desktopApp</text>
</g>
<!-- :app:desktopApp&#45;&gt;:app:shared -->
<g id="edge2" class="edge">
<title>:app:desktopApp&#45;&gt;:app:shared</title>
<path fill="none" stroke="black" d="M6437,-143.7C6437,-135.98 6437,-126.71 6437,-118.11"/>
<polygon fill="black" stroke="black" points="6440.5,-118.1 6437,-108.1 6433.5,-118.1 6440.5,-118.1"/>
</g>
<!-- :feature:ace&#45;windows&#45;connection -->
<g id="node5" class="node">
<title>:feature:ace&#45;windows&#45;connection</title>
<path fill="#c8e6c9" stroke="#43a047" d="M238,-36C238,-36 12,-36 12,-36 6,-36 0,-30 0,-24 0,-24 0,-12 0,-12 0,-6 6,0 12,0 12,0 238,0 238,0 244,0 250,-6 250,-12 250,-12 250,-24 250,-24 250,-30 244,-36 238,-36"/>
<text text-anchor="middle" x="125" y="-14.3" font-family="Times,serif" font-size="14.00">:feature:ace&#45;windows&#45;connection</text>
</g>
<!-- :app:shared&#45;&gt;:feature:ace&#45;windows&#45;connection -->
<g id="edge7" class="edge">
<title>:app:shared&#45;&gt;:feature:ace&#45;windows&#45;connection</title>
<path fill="none" stroke="black" d="M6386.43,-88.93C5835.48,-88.11 954.5,-79.7 260.29,-36.01"/>
<polygon fill="black" stroke="black" points="260.34,-32.5 250.13,-35.35 259.89,-39.49 260.34,-32.5"/>
</g>
<!-- :feature:ace&#45;windows&#45;narrator -->
<g id="node6" class="node">
<title>:feature:ace&#45;windows&#45;narrator</title>
<path fill="#c8e6c9" stroke="#43a047" d="M489.5,-36C489.5,-36 280.5,-36 280.5,-36 274.5,-36 268.5,-30 268.5,-24 268.5,-24 268.5,-12 268.5,-12 268.5,-6 274.5,0 280.5,0 280.5,0 489.5,0 489.5,0 495.5,0 501.5,-6 501.5,-12 501.5,-12 501.5,-24 501.5,-24 501.5,-30 495.5,-36 489.5,-36"/>
<text text-anchor="middle" x="385" y="-14.3" font-family="Times,serif" font-size="14.00">:feature:ace&#45;windows&#45;narrator</text>
</g>
<!-- :app:shared&#45;&gt;:feature:ace&#45;windows&#45;narrator -->
<g id="edge11" class="edge">
<title>:app:shared&#45;&gt;:feature:ace&#45;windows&#45;narrator</title>
<path fill="none" stroke="black" d="M6386.41,-88.93C5847.89,-88.18 1178.18,-80.43 511.63,-35.95"/>
<polygon fill="black" stroke="black" points="511.87,-32.46 501.65,-35.26 511.38,-39.44 511.87,-32.46"/>
</g>
<!-- :feature:ace&#45;windows&#45;readout&#45;flag&#45;detail -->
<g id="node7" class="node">
<title>:feature:ace&#45;windows&#45;readout&#45;flag&#45;detail</title>
<path fill="#c8e6c9" stroke="#43a047" d="M812,-36C812,-36 532,-36 532,-36 526,-36 520,-30 520,-24 520,-24 520,-12 520,-12 520,-6 526,0 532,0 532,0 812,0 812,0 818,0 824,-6 824,-12 824,-12 824,-24 824,-24 824,-30 818,-36 812,-36"/>
<text text-anchor="middle" x="672" y="-14.3" font-family="Times,serif" font-size="14.00">:feature:ace&#45;windows&#45;readout&#45;flag&#45;detail</text>
</g>
<!-- :app:shared&#45;&gt;:feature:ace&#45;windows&#45;readout&#45;flag&#45;detail -->
<g id="edge39" class="edge">
<title>:app:shared&#45;&gt;:feature:ace&#45;windows&#45;readout&#45;flag&#45;detail</title>
<path fill="none" stroke="black" d="M6386.34,-88.82C5864.13,-86.89 1467.57,-69.76 834.45,-36.02"/>
<polygon fill="black" stroke="black" points="834.26,-32.51 824.08,-35.45 833.87,-39.5 834.26,-32.51"/>
</g>
<!-- :feature:ace&#45;windows&#45;readout&#45;my&#45;best&#45;lap&#45;detail -->
<g id="node8" class="node">
<title>:feature:ace&#45;windows&#45;readout&#45;my&#45;best&#45;lap&#45;detail</title>
<path fill="#c8e6c9" stroke="#43a047" d="M1191.5,-36C1191.5,-36 854.5,-36 854.5,-36 848.5,-36 842.5,-30 842.5,-24 842.5,-24 842.5,-12 842.5,-12 842.5,-6 848.5,0 854.5,0 854.5,0 1191.5,0 1191.5,0 1197.5,0 1203.5,-6 1203.5,-12 1203.5,-12 1203.5,-24 1203.5,-24 1203.5,-30 1197.5,-36 1191.5,-36"/>
<text text-anchor="middle" x="1023" y="-14.3" font-family="Times,serif" font-size="14.00">:feature:ace&#45;windows&#45;readout&#45;my&#45;best&#45;lap&#45;detail</text>
</g>
<!-- :app:shared&#45;&gt;:feature:ace&#45;windows&#45;readout&#45;my&#45;best&#45;lap&#45;detail -->
<g id="edge42" class="edge">
<title>:app:shared&#45;&gt;:feature:ace&#45;windows&#45;readout&#45;my&#45;best&#45;lap&#45;detail</title>
<path fill="none" stroke="black" d="M6386.38,-89.04C5917.11,-89.34 2318.43,-89.87 1213.82,-36.01"/>
<polygon fill="black" stroke="black" points="1213.91,-32.51 1203.75,-35.51 1213.56,-39.5 1213.91,-32.51"/>
</g>
<!-- :feature:ace&#45;windows&#45;readout&#45;remaining&#45;fuel&#45;detail -->
<g id="node9" class="node">
<title>:feature:ace&#45;windows&#45;readout&#45;remaining&#45;fuel&#45;detail</title>
<path fill="#c8e6c9" stroke="#43a047" d="M1592,-36C1592,-36 1234,-36 1234,-36 1228,-36 1222,-30 1222,-24 1222,-24 1222,-12 1222,-12 1222,-6 1228,0 1234,0 1234,0 1592,0 1592,0 1598,0 1604,-6 1604,-12 1604,-12 1604,-24 1604,-24 1604,-30 1598,-36 1592,-36"/>
<text text-anchor="middle" x="1413" y="-14.3" font-family="Times,serif" font-size="14.00">:feature:ace&#45;windows&#45;readout&#45;remaining&#45;fuel&#45;detail</text>
</g>
<!-- :app:shared&#45;&gt;:feature:ace&#45;windows&#45;readout&#45;remaining&#45;fuel&#45;detail -->
<g id="edge38" class="edge">
<title>:app:shared&#45;&gt;:feature:ace&#45;windows&#45;readout&#45;remaining&#45;fuel&#45;detail</title>
<path fill="none" stroke="black" d="M6386.44,-88.96C5937.89,-88.54 2632.53,-83.85 1614.09,-36.02"/>
<polygon fill="black" stroke="black" points="1614.21,-32.53 1604.06,-35.55 1613.88,-39.52 1614.21,-32.53"/>
</g>
<!-- :feature:ace&#45;windows&#45;readout&#45;tyre&#45;temperature&#45;detail -->
<g id="node10" class="node">
<title>:feature:ace&#45;windows&#45;readout&#45;tyre&#45;temperature&#45;detail</title>
<path fill="#c8e6c9" stroke="#43a047" d="M2011.5,-36C2011.5,-36 1634.5,-36 1634.5,-36 1628.5,-36 1622.5,-30 1622.5,-24 1622.5,-24 1622.5,-12 1622.5,-12 1622.5,-6 1628.5,0 1634.5,0 1634.5,0 2011.5,0 2011.5,0 2017.5,0 2023.5,-6 2023.5,-12 2023.5,-12 2023.5,-24 2023.5,-24 2023.5,-30 2017.5,-36 2011.5,-36"/>
<text text-anchor="middle" x="1823" y="-14.3" font-family="Times,serif" font-size="14.00">:feature:ace&#45;windows&#45;readout&#45;tyre&#45;temperature&#45;detail</text>
</g>
<!-- :app:shared&#45;&gt;:feature:ace&#45;windows&#45;readout&#45;tyre&#45;temperature&#45;detail -->
<g id="edge40" class="edge">
<title>:app:shared&#45;&gt;:feature:ace&#45;windows&#45;readout&#45;tyre&#45;temperature&#45;detail</title>
<path fill="none" stroke="black" d="M6386.22,-88.87C5959.32,-87.72 2962.57,-78.21 2033.77,-36.01"/>
<polygon fill="black" stroke="black" points="2033.76,-32.5 2023.61,-35.54 2033.44,-39.5 2033.76,-32.5"/>
</g>
<!-- :feature:ace&#45;windows&#45;readout&#45;vehicle&#45;approach&#45;detail -->
<g id="node11" class="node">
<title>:feature:ace&#45;windows&#45;readout&#45;vehicle&#45;approach&#45;detail</title>
<path fill="#c8e6c9" stroke="#43a047" d="M2428,-36C2428,-36 2054,-36 2054,-36 2048,-36 2042,-30 2042,-24 2042,-24 2042,-12 2042,-12 2042,-6 2048,0 2054,0 2054,0 2428,0 2428,0 2434,0 2440,-6 2440,-12 2440,-12 2440,-24 2440,-24 2440,-30 2434,-36 2428,-36"/>
<text text-anchor="middle" x="2241" y="-14.3" font-family="Times,serif" font-size="14.00">:feature:ace&#45;windows&#45;readout&#45;vehicle&#45;approach&#45;detail</text>
</g>
<!-- :app:shared&#45;&gt;:feature:ace&#45;windows&#45;readout&#45;vehicle&#45;approach&#45;detail -->
<g id="edge41" class="edge">
<title>:app:shared&#45;&gt;:feature:ace&#45;windows&#45;readout&#45;vehicle&#45;approach&#45;detail</title>
<path fill="none" stroke="black" d="M6386.31,-88.8C5983.12,-87.17 3289.35,-74.94 2450.34,-36.04"/>
<polygon fill="black" stroke="black" points="2450.4,-32.54 2440.25,-35.56 2450.08,-39.53 2450.4,-32.54"/>
</g>
<!-- :feature:debug&#45;state&#45;detail -->
<g id="node12" class="node">
<title>:feature:debug&#45;state&#45;detail</title>
<path fill="#c8e6c9" stroke="#43a047" d="M2653.5,-36C2653.5,-36 2470.5,-36 2470.5,-36 2464.5,-36 2458.5,-30 2458.5,-24 2458.5,-24 2458.5,-12 2458.5,-12 2458.5,-6 2464.5,0 2470.5,0 2470.5,0 2653.5,0 2653.5,0 2659.5,0 2665.5,-6 2665.5,-12 2665.5,-12 2665.5,-24 2665.5,-24 2665.5,-30 2659.5,-36 2653.5,-36"/>
<text text-anchor="middle" x="2562" y="-14.3" font-family="Times,serif" font-size="14.00">:feature:debug&#45;state&#45;detail</text>
</g>
<!-- :app:shared&#45;&gt;:feature:debug&#45;state&#45;detail -->
<g id="edge12" class="edge">
<title>:app:shared&#45;&gt;:feature:debug&#45;state&#45;detail</title>
<path fill="none" stroke="black" d="M6386.29,-88.7C5969.12,-86.19 3107.97,-67.93 2675.74,-35.94"/>
<polygon fill="black" stroke="black" points="2675.93,-32.44 2665.69,-35.16 2675.39,-39.42 2675.93,-32.44"/>
</g>
<!-- :feature:desktop&#45;splash -->
<g id="node13" class="node">
<title>:feature:desktop&#45;splash</title>
<path fill="#c8e6c9" stroke="#43a047" d="M2856,-36C2856,-36 2696,-36 2696,-36 2690,-36 2684,-30 2684,-24 2684,-24 2684,-12 2684,-12 2684,-6 2690,0 2696,0 2696,0 2856,0 2856,0 2862,0 2868,-6 2868,-12 2868,-12 2868,-24 2868,-24 2868,-30 2862,-36 2856,-36"/>
<text text-anchor="middle" x="2776" y="-14.3" font-family="Times,serif" font-size="14.00">:feature:desktop&#45;splash</text>
</g>
<!-- :app:shared&#45;&gt;:feature:desktop&#45;splash -->
<g id="edge3" class="edge">
<title>:app:shared&#45;&gt;:feature:desktop&#45;splash</title>
<path fill="none" stroke="black" d="M6386.47,-88.71C5982.9,-86.36 3288.16,-69.49 2878.21,-35.97"/>
<polygon fill="black" stroke="black" points="2878.39,-32.47 2868.12,-35.1 2877.79,-39.45 2878.39,-32.47"/>
</g>
<!-- :feature:gt7&#45;ps5&#45;connection -->
<g id="node14" class="node">
<title>:feature:gt7&#45;ps5&#45;connection</title>
<path fill="#c8e6c9" stroke="#43a047" d="M3087.5,-36C3087.5,-36 2898.5,-36 2898.5,-36 2892.5,-36 2886.5,-30 2886.5,-24 2886.5,-24 2886.5,-12 2886.5,-12 2886.5,-6 2892.5,0 2898.5,0 2898.5,0 3087.5,0 3087.5,0 3093.5,0 3099.5,-6 3099.5,-12 3099.5,-12 3099.5,-24 3099.5,-24 3099.5,-30 3093.5,-36 3087.5,-36"/>
<text text-anchor="middle" x="2993" y="-14.3" font-family="Times,serif" font-size="14.00">:feature:gt7&#45;ps5&#45;connection</text>
</g>
<!-- :app:shared&#45;&gt;:feature:gt7&#45;ps5&#45;connection -->
<g id="edge6" class="edge">
<title>:app:shared&#45;&gt;:feature:gt7&#45;ps5&#45;connection</title>
<path fill="none" stroke="black" d="M6386.26,-89.1C6022.51,-89.71 3806.19,-91.13 3109.9,-36.08"/>
<polygon fill="black" stroke="black" points="3110.01,-32.58 3099.76,-35.27 3109.45,-39.56 3110.01,-32.58"/>
</g>
<!-- :feature:gt7&#45;ps5&#45;narrator -->
<g id="node15" class="node">
<title>:feature:gt7&#45;ps5&#45;narrator</title>
<path fill="#c8e6c9" stroke="#43a047" d="M3301,-36C3301,-36 3129,-36 3129,-36 3123,-36 3117,-30 3117,-24 3117,-24 3117,-12 3117,-12 3117,-6 3123,0 3129,0 3129,0 3301,0 3301,0 3307,0 3313,-6 3313,-12 3313,-12 3313,-24 3313,-24 3313,-30 3307,-36 3301,-36"/>
<text text-anchor="middle" x="3215" y="-14.3" font-family="Times,serif" font-size="14.00">:feature:gt7&#45;ps5&#45;narrator</text>
</g>
<!-- :app:shared&#45;&gt;:feature:gt7&#45;ps5&#45;narrator -->
<g id="edge10" class="edge">
<title>:app:shared&#45;&gt;:feature:gt7&#45;ps5&#45;narrator</title>
<path fill="none" stroke="black" d="M6386.47,-89.11C6037.08,-89.76 3975.07,-91.18 3323.61,-36.05"/>
<polygon fill="black" stroke="black" points="3323.44,-32.52 3313.18,-35.15 3322.84,-39.49 3323.44,-32.52"/>
</g>
<!-- :feature:gt7&#45;ps5&#45;readout&#45;my&#45;best&#45;lap&#45;detail -->
<g id="node16" class="node">
<title>:feature:gt7&#45;ps5&#45;readout&#45;my&#45;best&#45;lap&#45;detail</title>
<path fill="#c8e6c9" stroke="#43a047" d="M3643,-36C3643,-36 3343,-36 3343,-36 3337,-36 3331,-30 3331,-24 3331,-24 3331,-12 3331,-12 3331,-6 3337,0 3343,0 3343,0 3643,0 3643,0 3649,0 3655,-6 3655,-12 3655,-12 3655,-24 3655,-24 3655,-30 3649,-36 3643,-36"/>
<text text-anchor="middle" x="3493" y="-14.3" font-family="Times,serif" font-size="14.00">:feature:gt7&#45;ps5&#45;readout&#45;my&#45;best&#45;lap&#45;detail</text>
</g>
<!-- :app:shared&#45;&gt;:feature:gt7&#45;ps5&#45;readout&#45;my&#45;best&#45;lap&#45;detail -->
<g id="edge34" class="edge">
<title>:app:shared&#45;&gt;:feature:gt7&#45;ps5&#45;readout&#45;my&#45;best&#45;lap&#45;detail</title>
<path fill="none" stroke="black" d="M6386.38,-88.59C6059.71,-85.84 4244.83,-69.29 3665.55,-36.06"/>
<polygon fill="black" stroke="black" points="3665.63,-32.55 3655.44,-35.47 3665.22,-39.54 3665.63,-32.55"/>
</g>
<!-- :feature:gt7&#45;ps5&#45;readout&#45;remaining&#45;fuel&#45;detail -->
<g id="node17" class="node">
<title>:feature:gt7&#45;ps5&#45;readout&#45;remaining&#45;fuel&#45;detail</title>
<path fill="#c8e6c9" stroke="#43a047" d="M4006.5,-36C4006.5,-36 3685.5,-36 3685.5,-36 3679.5,-36 3673.5,-30 3673.5,-24 3673.5,-24 3673.5,-12 3673.5,-12 3673.5,-6 3679.5,0 3685.5,0 3685.5,0 4006.5,0 4006.5,0 4012.5,0 4018.5,-6 4018.5,-12 4018.5,-12 4018.5,-24 4018.5,-24 4018.5,-30 4012.5,-36 4006.5,-36"/>
<text text-anchor="middle" x="3846" y="-14.3" font-family="Times,serif" font-size="14.00">:feature:gt7&#45;ps5&#45;readout&#45;remaining&#45;fuel&#45;detail</text>
</g>
<!-- :app:shared&#45;&gt;:feature:gt7&#45;ps5&#45;readout&#45;remaining&#45;fuel&#45;detail -->
<g id="edge35" class="edge">
<title>:app:shared&#45;&gt;:feature:gt7&#45;ps5&#45;readout&#45;remaining&#45;fuel&#45;detail</title>
<path fill="none" stroke="black" d="M6386.49,-89.23C6133.85,-90.11 4982.04,-90.8 4029.05,-36.1"/>
<polygon fill="black" stroke="black" points="4029.09,-32.59 4018.9,-35.51 4028.69,-39.58 4029.09,-32.59"/>
</g>
<!-- :feature:gt7&#45;ps5&#45;readout&#45;remaining&#45;fuel&#45;laps&#45;detail -->
<g id="node18" class="node">
<title>:feature:gt7&#45;ps5&#45;readout&#45;remaining&#45;fuel&#45;laps&#45;detail</title>
<path fill="#c8e6c9" stroke="#43a047" d="M4403.5,-36C4403.5,-36 4048.5,-36 4048.5,-36 4042.5,-36 4036.5,-30 4036.5,-24 4036.5,-24 4036.5,-12 4036.5,-12 4036.5,-6 4042.5,0 4048.5,0 4048.5,0 4403.5,0 4403.5,0 4409.5,0 4415.5,-6 4415.5,-12 4415.5,-12 4415.5,-24 4415.5,-24 4415.5,-30 4409.5,-36 4403.5,-36"/>
<text text-anchor="middle" x="4226" y="-14.3" font-family="Times,serif" font-size="14.00">:feature:gt7&#45;ps5&#45;readout&#45;remaining&#45;fuel&#45;laps&#45;detail</text>
</g>
<!-- :app:shared&#45;&gt;:feature:gt7&#45;ps5&#45;readout&#45;remaining&#45;fuel&#45;laps&#45;detail -->
<g id="edge36" class="edge">
<title>:app:shared&#45;&gt;:feature:gt7&#45;ps5&#45;readout&#45;remaining&#45;fuel&#45;laps&#45;detail</title>
<path fill="none" stroke="black" d="M6386.39,-88.77C6159.52,-87.52 5213.14,-79.84 4425.8,-36.08"/>
<polygon fill="black" stroke="black" points="4425.85,-32.58 4415.67,-35.52 4425.46,-39.57 4425.85,-32.58"/>
</g>
<!-- :feature:gt7&#45;ps5&#45;readout&#45;tyre&#45;temperature&#45;detail -->
<g id="node19" class="node">
<title>:feature:gt7&#45;ps5&#45;readout&#45;tyre&#45;temperature&#45;detail</title>
<path fill="#c8e6c9" stroke="#43a047" d="M4786.5,-36C4786.5,-36 4445.5,-36 4445.5,-36 4439.5,-36 4433.5,-30 4433.5,-24 4433.5,-24 4433.5,-12 4433.5,-12 4433.5,-6 4439.5,0 4445.5,0 4445.5,0 4786.5,0 4786.5,0 4792.5,0 4798.5,-6 4798.5,-12 4798.5,-12 4798.5,-24 4798.5,-24 4798.5,-30 4792.5,-36 4786.5,-36"/>
<text text-anchor="middle" x="4616" y="-14.3" font-family="Times,serif" font-size="14.00">:feature:gt7&#45;ps5&#45;readout&#45;tyre&#45;temperature&#45;detail</text>
</g>
<!-- :app:shared&#45;&gt;:feature:gt7&#45;ps5&#45;readout&#45;tyre&#45;temperature&#45;detail -->
<g id="edge37" class="edge">
<title>:app:shared&#45;&gt;:feature:gt7&#45;ps5&#45;readout&#45;tyre&#45;temperature&#45;detail</title>
<path fill="none" stroke="black" d="M6386.25,-88.39C6186.74,-85.77 5436.87,-73.88 4808.88,-36.09"/>
<polygon fill="black" stroke="black" points="4808.91,-32.59 4798.71,-35.48 4808.49,-39.58 4808.91,-32.59"/>
</g>
<!-- :feature:lmu&#45;windows&#45;connection -->
<g id="node20" class="node">
<title>:feature:lmu&#45;windows&#45;connection</title>
<path fill="#c8e6c9" stroke="#43a047" d="M5057.5,-36C5057.5,-36 4828.5,-36 4828.5,-36 4822.5,-36 4816.5,-30 4816.5,-24 4816.5,-24 4816.5,-12 4816.5,-12 4816.5,-6 4822.5,0 4828.5,0 4828.5,0 5057.5,0 5057.5,0 5063.5,0 5069.5,-6 5069.5,-12 5069.5,-12 5069.5,-24 5069.5,-24 5069.5,-30 5063.5,-36 5057.5,-36"/>
<text text-anchor="middle" x="4943" y="-14.3" font-family="Times,serif" font-size="14.00">:feature:lmu&#45;windows&#45;connection</text>
</g>
<!-- :app:shared&#45;&gt;:feature:lmu&#45;windows&#45;connection -->
<g id="edge5" class="edge">
<title>:app:shared&#45;&gt;:feature:lmu&#45;windows&#45;connection</title>
<path fill="none" stroke="black" d="M6386.35,-88.58C6208.55,-86.78 5596.26,-77.8 5079.92,-36.03"/>
<polygon fill="black" stroke="black" points="5079.9,-32.51 5069.65,-35.19 5079.33,-39.49 5079.9,-32.51"/>
</g>
<!-- :feature:lmu&#45;windows&#45;narrator -->
<g id="node21" class="node">
<title>:feature:lmu&#45;windows&#45;narrator</title>
<path fill="#c8e6c9" stroke="#43a047" d="M5312,-36C5312,-36 5100,-36 5100,-36 5094,-36 5088,-30 5088,-24 5088,-24 5088,-12 5088,-12 5088,-6 5094,0 5100,0 5100,0 5312,0 5312,0 5318,0 5324,-6 5324,-12 5324,-12 5324,-24 5324,-24 5324,-30 5318,-36 5312,-36"/>
<text text-anchor="middle" x="5206" y="-14.3" font-family="Times,serif" font-size="14.00">:feature:lmu&#45;windows&#45;narrator</text>
</g>
<!-- :app:shared&#45;&gt;:feature:lmu&#45;windows&#45;narrator -->
<g id="edge9" class="edge">
<title>:app:shared&#45;&gt;:feature:lmu&#45;windows&#45;narrator</title>
<path fill="none" stroke="black" d="M6386.28,-88.1C6230.64,-85.01 5746.03,-72.97 5334.28,-36.07"/>
<polygon fill="black" stroke="black" points="5334.54,-32.58 5324.27,-35.17 5333.91,-39.55 5334.54,-32.58"/>
</g>
<!-- :feature:lmu&#45;windows&#45;readout&#45;flag&#45;detail -->
<g id="node22" class="node">
<title>:feature:lmu&#45;windows&#45;readout&#45;flag&#45;detail</title>
<path fill="#c8e6c9" stroke="#43a047" d="M5637.5,-36C5637.5,-36 5354.5,-36 5354.5,-36 5348.5,-36 5342.5,-30 5342.5,-24 5342.5,-24 5342.5,-12 5342.5,-12 5342.5,-6 5348.5,0 5354.5,0 5354.5,0 5637.5,0 5637.5,0 5643.5,0 5649.5,-6 5649.5,-12 5649.5,-12 5649.5,-24 5649.5,-24 5649.5,-30 5643.5,-36 5637.5,-36"/>
<text text-anchor="middle" x="5496" y="-14.3" font-family="Times,serif" font-size="14.00">:feature:lmu&#45;windows&#45;readout&#45;flag&#45;detail</text>
</g>
<!-- :app:shared&#45;&gt;:feature:lmu&#45;windows&#45;readout&#45;flag&#45;detail -->
<g id="edge27" class="edge">
<title>:app:shared&#45;&gt;:feature:lmu&#45;windows&#45;readout&#45;flag&#45;detail</title>
<path fill="none" stroke="black" d="M6386.43,-86.19C6263.84,-79.23 5940.84,-60.08 5659.54,-36.03"/>
<polygon fill="black" stroke="black" points="5659.82,-32.54 5649.56,-35.17 5659.22,-39.51 5659.82,-32.54"/>
</g>
<!-- :feature:lmu&#45;windows&#45;readout&#45;my&#45;best&#45;lap&#45;detail -->
<g id="node23" class="node">
<title>:feature:lmu&#45;windows&#45;readout&#45;my&#45;best&#45;lap&#45;detail</title>
<path fill="#c8e6c9" stroke="#43a047" d="M6020,-36C6020,-36 5680,-36 5680,-36 5674,-36 5668,-30 5668,-24 5668,-24 5668,-12 5668,-12 5668,-6 5674,0 5680,0 5680,0 6020,0 6020,0 6026,0 6032,-6 6032,-12 6032,-12 6032,-24 6032,-24 6032,-30 6026,-36 6020,-36"/>
<text text-anchor="middle" x="5850" y="-14.3" font-family="Times,serif" font-size="14.00">:feature:lmu&#45;windows&#45;readout&#45;my&#45;best&#45;lap&#45;detail</text>
</g>
<!-- :app:shared&#45;&gt;:feature:lmu&#45;windows&#45;readout&#45;my&#45;best&#45;lap&#45;detail -->
<g id="edge28" class="edge">
<title>:app:shared&#45;&gt;:feature:lmu&#45;windows&#45;readout&#45;my&#45;best&#45;lap&#45;detail</title>
<path fill="none" stroke="black" d="M6386.44,-82.97C6302.17,-72.92 6129.73,-52.36 6003.01,-37.25"/>
<polygon fill="black" stroke="black" points="6003.16,-33.74 5992.82,-36.03 6002.33,-40.69 6003.16,-33.74"/>
</g>
<!-- :feature:lmu&#45;windows&#45;readout&#45;pit&#45;timing&#45;detail -->
<g id="node24" class="node">
<title>:feature:lmu&#45;windows&#45;readout&#45;pit&#45;timing&#45;detail</title>
<path fill="#c8e6c9" stroke="#43a047" d="M6389.5,-36C6389.5,-36 6062.5,-36 6062.5,-36 6056.5,-36 6050.5,-30 6050.5,-24 6050.5,-24 6050.5,-12 6050.5,-12 6050.5,-6 6056.5,0 6062.5,0 6062.5,0 6389.5,0 6389.5,0 6395.5,0 6401.5,-6 6401.5,-12 6401.5,-12 6401.5,-24 6401.5,-24 6401.5,-30 6395.5,-36 6389.5,-36"/>
<text text-anchor="middle" x="6226" y="-14.3" font-family="Times,serif" font-size="14.00">:feature:lmu&#45;windows&#45;readout&#45;pit&#45;timing&#45;detail</text>
</g>
<!-- :app:shared&#45;&gt;:feature:lmu&#45;windows&#45;readout&#45;pit&#45;timing&#45;detail -->
<g id="edge31" class="edge">
<title>:app:shared&#45;&gt;:feature:lmu&#45;windows&#45;readout&#45;pit&#45;timing&#45;detail</title>
<path fill="none" stroke="black" d="M6386.46,-72.23C6356.63,-62.34 6318.66,-49.74 6287.15,-39.29"/>
<polygon fill="black" stroke="black" points="6288.19,-35.94 6277.59,-36.12 6285.98,-42.59 6288.19,-35.94"/>
</g>
<!-- :feature:lmu&#45;windows&#45;readout&#45;remaining&#45;virtual&#45;energy&#45;detail -->
<g id="node25" class="node">
<title>:feature:lmu&#45;windows&#45;readout&#45;remaining&#45;virtual&#45;energy&#45;detail</title>
<path fill="#c8e6c9" stroke="#43a047" d="M6866.5,-36C6866.5,-36 6431.5,-36 6431.5,-36 6425.5,-36 6419.5,-30 6419.5,-24 6419.5,-24 6419.5,-12 6419.5,-12 6419.5,-6 6425.5,0 6431.5,0 6431.5,0 6866.5,0 6866.5,0 6872.5,0 6878.5,-6 6878.5,-12 6878.5,-12 6878.5,-24 6878.5,-24 6878.5,-30 6872.5,-36 6866.5,-36"/>
<text text-anchor="middle" x="6649" y="-14.3" font-family="Times,serif" font-size="14.00">:feature:lmu&#45;windows&#45;readout&#45;remaining&#45;virtual&#45;energy&#45;detail</text>
</g>
<!-- :app:shared&#45;&gt;:feature:lmu&#45;windows&#45;readout&#45;remaining&#45;virtual&#45;energy&#45;detail -->
<g id="edge32" class="edge">
<title>:app:shared&#45;&gt;:feature:lmu&#45;windows&#45;readout&#45;remaining&#45;virtual&#45;energy&#45;detail</title>
<path fill="none" stroke="black" d="M6487.51,-72.32C6517.59,-62.39 6555.97,-49.72 6587.76,-39.22"/>
<polygon fill="black" stroke="black" points="6589.01,-42.5 6597.4,-36.04 6586.81,-35.85 6589.01,-42.5"/>
</g>
<!-- :feature:lmu&#45;windows&#45;readout&#45;tyre&#45;temperature&#45;detail -->
<g id="node26" class="node">
<title>:feature:lmu&#45;windows&#45;readout&#45;tyre&#45;temperature&#45;detail</title>
<path fill="#c8e6c9" stroke="#43a047" d="M7289,-36C7289,-36 6909,-36 6909,-36 6903,-36 6897,-30 6897,-24 6897,-24 6897,-12 6897,-12 6897,-6 6903,0 6909,0 6909,0 7289,0 7289,0 7295,0 7301,-6 7301,-12 7301,-12 7301,-24 7301,-24 7301,-30 7295,-36 7289,-36"/>
<text text-anchor="middle" x="7099" y="-14.3" font-family="Times,serif" font-size="14.00">:feature:lmu&#45;windows&#45;readout&#45;tyre&#45;temperature&#45;detail</text>
</g>
<!-- :app:shared&#45;&gt;:feature:lmu&#45;windows&#45;readout&#45;tyre&#45;temperature&#45;detail -->
<g id="edge30" class="edge">
<title>:app:shared&#45;&gt;:feature:lmu&#45;windows&#45;readout&#45;tyre&#45;temperature&#45;detail</title>
<path fill="none" stroke="black" d="M6487.57,-83.65C6580.35,-73.84 6781.64,-52.56 6927.99,-37.08"/>
<polygon fill="black" stroke="black" points="6928.41,-40.56 6937.98,-36.03 6927.67,-33.6 6928.41,-40.56"/>
</g>
<!-- :feature:lmu&#45;windows&#45;readout&#45;tyre&#45;wear&#45;detail -->
<g id="node27" class="node">
<title>:feature:lmu&#45;windows&#45;readout&#45;tyre&#45;wear&#45;detail</title>
<path fill="#c8e6c9" stroke="#43a047" d="M7657,-36C7657,-36 7331,-36 7331,-36 7325,-36 7319,-30 7319,-24 7319,-24 7319,-12 7319,-12 7319,-6 7325,0 7331,0 7331,0 7657,0 7657,0 7663,0 7669,-6 7669,-12 7669,-12 7669,-24 7669,-24 7669,-30 7663,-36 7657,-36"/>
<text text-anchor="middle" x="7494" y="-14.3" font-family="Times,serif" font-size="14.00">:feature:lmu&#45;windows&#45;readout&#45;tyre&#45;wear&#45;detail</text>
</g>
<!-- :app:shared&#45;&gt;:feature:lmu&#45;windows&#45;readout&#45;tyre&#45;wear&#45;detail -->
<g id="edge33" class="edge">
<title>:app:shared&#45;&gt;:feature:lmu&#45;windows&#45;readout&#45;tyre&#45;wear&#45;detail</title>
<path fill="none" stroke="black" d="M6487.72,-86.48C6620.53,-79.76 6989.69,-60.32 7308.34,-36.11"/>
<polygon fill="black" stroke="black" points="7309,-39.57 7318.71,-35.32 7308.47,-32.59 7309,-39.57"/>
</g>
<!-- :feature:lmu&#45;windows&#45;readout&#45;vehicle&#45;approach&#45;detail -->
<g id="node28" class="node">
<title>:feature:lmu&#45;windows&#45;readout&#45;vehicle&#45;approach&#45;detail</title>
<path fill="#c8e6c9" stroke="#43a047" d="M8076.5,-36C8076.5,-36 7699.5,-36 7699.5,-36 7693.5,-36 7687.5,-30 7687.5,-24 7687.5,-24 7687.5,-12 7687.5,-12 7687.5,-6 7693.5,0 7699.5,0 7699.5,0 8076.5,0 8076.5,0 8082.5,0 8088.5,-6 8088.5,-12 8088.5,-12 8088.5,-24 8088.5,-24 8088.5,-30 8082.5,-36 8076.5,-36"/>
<text text-anchor="middle" x="7888" y="-14.3" font-family="Times,serif" font-size="14.00">:feature:lmu&#45;windows&#45;readout&#45;vehicle&#45;approach&#45;detail</text>
</g>
<!-- :app:shared&#45;&gt;:feature:lmu&#45;windows&#45;readout&#45;vehicle&#45;approach&#45;detail -->
<g id="edge26" class="edge">
<title>:app:shared&#45;&gt;:feature:lmu&#45;windows&#45;readout&#45;vehicle&#45;approach&#45;detail</title>
<path fill="none" stroke="black" d="M6487.57,-87.53C6655.21,-82.52 7208.14,-64.81 7677.36,-36.02"/>
<polygon fill="black" stroke="black" points="7677.61,-39.52 7687.38,-35.41 7677.18,-32.53 7677.61,-39.52"/>
</g>
<!-- :feature:lmu&#45;windows&#45;readout&#45;vehicle&#45;damage&#45;detail -->
<g id="node29" class="node">
<title>:feature:lmu&#45;windows&#45;readout&#45;vehicle&#45;damage&#45;detail</title>
<path fill="#c8e6c9" stroke="#43a047" d="M8486,-36C8486,-36 8118,-36 8118,-36 8112,-36 8106,-30 8106,-24 8106,-24 8106,-12 8106,-12 8106,-6 8112,0 8118,0 8118,0 8486,0 8486,0 8492,0 8498,-6 8498,-12 8498,-12 8498,-24 8498,-24 8498,-30 8492,-36 8486,-36"/>
<text text-anchor="middle" x="8302" y="-14.3" font-family="Times,serif" font-size="14.00">:feature:lmu&#45;windows&#45;readout&#45;vehicle&#45;damage&#45;detail</text>
</g>
<!-- :app:shared&#45;&gt;:feature:lmu&#45;windows&#45;readout&#45;vehicle&#45;damage&#45;detail -->
<g id="edge29" class="edge">
<title>:app:shared&#45;&gt;:feature:lmu&#45;windows&#45;readout&#45;vehicle&#45;damage&#45;detail</title>
<path fill="none" stroke="black" d="M6487.67,-88.33C6689.37,-85.46 7454.95,-72.69 8095.4,-36.13"/>
<polygon fill="black" stroke="black" points="8095.98,-39.61 8105.77,-35.54 8095.58,-32.62 8095.98,-39.61"/>
</g>
<!-- :feature:main -->
<g id="node30" class="node">
<title>:feature:main</title>
<path fill="#c8e6c9" stroke="#43a047" d="M8617.5,-36C8617.5,-36 8528.5,-36 8528.5,-36 8522.5,-36 8516.5,-30 8516.5,-24 8516.5,-24 8516.5,-12 8516.5,-12 8516.5,-6 8522.5,0 8528.5,0 8528.5,0 8617.5,0 8617.5,0 8623.5,0 8629.5,-6 8629.5,-12 8629.5,-12 8629.5,-24 8629.5,-24 8629.5,-30 8623.5,-36 8617.5,-36"/>
<text text-anchor="middle" x="8573" y="-14.3" font-family="Times,serif" font-size="14.00">:feature:main</text>
</g>
<!-- :app:shared&#45;&gt;:feature:main -->
<g id="edge4" class="edge">
<title>:app:shared&#45;&gt;:feature:main</title>
<path fill="none" stroke="black" d="M6487.62,-89.26C6762.46,-90.42 8078.55,-92.93 8506.34,-35.84"/>
<polygon fill="black" stroke="black" points="8506.85,-39.3 8516.28,-34.48 8505.9,-32.37 8506.85,-39.3"/>
</g>
<!-- :feature:narrator&#45;overlay -->
<g id="node31" class="node">
<title>:feature:narrator&#45;overlay</title>
<path fill="#c8e6c9" stroke="#43a047" d="M8830,-36C8830,-36 8660,-36 8660,-36 8654,-36 8648,-30 8648,-24 8648,-24 8648,-12 8648,-12 8648,-6 8654,0 8660,0 8660,0 8830,0 8830,0 8836,0 8842,-6 8842,-12 8842,-12 8842,-24 8842,-24 8842,-30 8836,-36 8830,-36"/>
<text text-anchor="middle" x="8745" y="-14.3" font-family="Times,serif" font-size="14.00">:feature:narrator&#45;overlay</text>
</g>
<!-- :app:shared&#45;&gt;:feature:narrator&#45;overlay -->
<g id="edge13" class="edge">
<title>:app:shared&#45;&gt;:feature:narrator&#45;overlay</title>
<path fill="none" stroke="black" d="M6487.91,-88.71C6773.61,-86.94 8180.73,-76.31 8637.78,-36.02"/>
<polygon fill="black" stroke="black" points="8638.09,-39.5 8647.74,-35.12 8637.46,-32.53 8638.09,-39.5"/>
</g>
<!-- :feature:other&#45;console&#45;ip&#45;detail -->
<g id="node32" class="node">
<title>:feature:other&#45;console&#45;ip&#45;detail</title>
<path fill="#c8e6c9" stroke="#43a047" d="M9084,-36C9084,-36 8872,-36 8872,-36 8866,-36 8860,-30 8860,-24 8860,-24 8860,-12 8860,-12 8860,-6 8866,0 8872,0 8872,0 9084,0 9084,0 9090,0 9096,-6 9096,-12 9096,-12 9096,-24 9096,-24 9096,-30 9090,-36 9084,-36"/>
<text text-anchor="middle" x="8978" y="-14.3" font-family="Times,serif" font-size="14.00">:feature:other&#45;console&#45;ip&#45;detail</text>
</g>
<!-- :app:shared&#45;&gt;:feature:other&#45;console&#45;ip&#45;detail -->
<g id="edge18" class="edge">
<title>:app:shared&#45;&gt;:feature:other&#45;console&#45;ip&#45;detail</title>
<path fill="none" stroke="black" d="M6487.76,-88.65C6789.11,-86.49 8346.78,-73.67 8849.51,-36.05"/>
<polygon fill="black" stroke="black" points="8850.04,-39.52 8859.74,-35.27 8849.51,-32.54 8850.04,-39.52"/>
</g>
<!-- :feature:other&#45;feedback&#45;detail -->
<g id="node33" class="node">
<title>:feature:other&#45;feedback&#45;detail</title>
<path fill="#c8e6c9" stroke="#43a047" d="M9331.5,-36C9331.5,-36 9126.5,-36 9126.5,-36 9120.5,-36 9114.5,-30 9114.5,-24 9114.5,-24 9114.5,-12 9114.5,-12 9114.5,-6 9120.5,0 9126.5,0 9126.5,0 9331.5,0 9331.5,0 9337.5,0 9343.5,-6 9343.5,-12 9343.5,-12 9343.5,-24 9343.5,-24 9343.5,-30 9337.5,-36 9331.5,-36"/>
<text text-anchor="middle" x="9229" y="-14.3" font-family="Times,serif" font-size="14.00">:feature:other&#45;feedback&#45;detail</text>
</g>
<!-- :app:shared&#45;&gt;:feature:other&#45;feedback&#45;detail -->
<g id="edge16" class="edge">
<title>:app:shared&#45;&gt;:feature:other&#45;feedback&#45;detail</title>
<path fill="none" stroke="black" d="M6487.52,-88.8C6806.65,-87.42 8547.07,-78.08 9104.08,-36"/>
<polygon fill="black" stroke="black" points="9104.5,-39.47 9114.2,-35.22 9103.96,-32.49 9104.5,-39.47"/>
</g>
<!-- :feature:other&#45;license&#45;detail -->
<g id="node34" class="node">
<title>:feature:other&#45;license&#45;detail</title>
<path fill="#c8e6c9" stroke="#43a047" d="M9564.5,-36C9564.5,-36 9373.5,-36 9373.5,-36 9367.5,-36 9361.5,-30 9361.5,-24 9361.5,-24 9361.5,-12 9361.5,-12 9361.5,-6 9367.5,0 9373.5,0 9373.5,0 9564.5,0 9564.5,0 9570.5,0 9576.5,-6 9576.5,-12 9576.5,-12 9576.5,-24 9576.5,-24 9576.5,-30 9570.5,-36 9564.5,-36"/>
<text text-anchor="middle" x="9469" y="-14.3" font-family="Times,serif" font-size="14.00">:feature:other&#45;license&#45;detail</text>
</g>
<!-- :app:shared&#45;&gt;:feature:other&#45;license&#45;detail -->
<g id="edge14" class="edge">
<title>:app:shared&#45;&gt;:feature:other&#45;license&#45;detail</title>
<path fill="none" stroke="black" d="M6487.51,-88.96C6823.67,-88.59 8742.43,-84.35 9351.12,-36.08"/>
<polygon fill="black" stroke="black" points="9351.62,-39.55 9361.31,-35.26 9351.06,-32.57 9351.62,-39.55"/>
</g>
<!-- :feature:other&#45;list -->
<g id="node35" class="node">
<title>:feature:other&#45;list</title>
<path fill="#c8e6c9" stroke="#43a047" d="M9725.5,-36C9725.5,-36 9606.5,-36 9606.5,-36 9600.5,-36 9594.5,-30 9594.5,-24 9594.5,-24 9594.5,-12 9594.5,-12 9594.5,-6 9600.5,0 9606.5,0 9606.5,0 9725.5,0 9725.5,0 9731.5,0 9737.5,-6 9737.5,-12 9737.5,-12 9737.5,-24 9737.5,-24 9737.5,-30 9731.5,-36 9725.5,-36"/>
<text text-anchor="middle" x="9666" y="-14.3" font-family="Times,serif" font-size="14.00">:feature:other&#45;list</text>
</g>
<!-- :app:shared&#45;&gt;:feature:other&#45;list -->
<g id="edge15" class="edge">
<title>:app:shared&#45;&gt;:feature:other&#45;list</title>
<path fill="none" stroke="black" d="M6487.59,-88.74C6863.66,-86.71 9219.32,-72.63 9583.95,-36.04"/>
<polygon fill="black" stroke="black" points="9584.58,-39.49 9594.15,-34.95 9583.83,-32.53 9584.58,-39.49"/>
</g>
<!-- :feature:other&#45;overlay&#45;text&#45;size&#45;detail -->
<g id="node36" class="node">
<title>:feature:other&#45;overlay&#45;text&#45;size&#45;detail</title>
<path fill="#c8e6c9" stroke="#43a047" d="M10026.5,-36C10026.5,-36 9767.5,-36 9767.5,-36 9761.5,-36 9755.5,-30 9755.5,-24 9755.5,-24 9755.5,-12 9755.5,-12 9755.5,-6 9761.5,0 9767.5,0 9767.5,0 10026.5,0 10026.5,0 10032.5,0 10038.5,-6 10038.5,-12 10038.5,-12 10038.5,-24 10038.5,-24 10038.5,-30 10032.5,-36 10026.5,-36"/>
<text text-anchor="middle" x="9897" y="-14.3" font-family="Times,serif" font-size="14.00">:feature:other&#45;overlay&#45;text&#45;size&#45;detail</text>
</g>
<!-- :app:shared&#45;&gt;:feature:other&#45;overlay&#45;text&#45;size&#45;detail -->
<g id="edge21" class="edge">
<title>:app:shared&#45;&gt;:feature:other&#45;overlay&#45;text&#45;size&#45;detail</title>
<path fill="none" stroke="black" d="M6487.72,-88.86C6850.17,-87.78 9052.16,-79.52 9745.22,-36.07"/>
<polygon fill="black" stroke="black" points="9745.56,-39.56 9755.31,-35.43 9745.11,-32.57 9745.56,-39.56"/>
</g>
<!-- :feature:other&#45;readout&#45;start&#45;sound&#45;detail -->
<g id="node37" class="node">
<title>:feature:other&#45;readout&#45;start&#45;sound&#45;detail</title>
<path fill="#c8e6c9" stroke="#43a047" d="M10351.5,-36C10351.5,-36 10068.5,-36 10068.5,-36 10062.5,-36 10056.5,-30 10056.5,-24 10056.5,-24 10056.5,-12 10056.5,-12 10056.5,-6 10062.5,0 10068.5,0 10068.5,0 10351.5,0 10351.5,0 10357.5,0 10363.5,-6 10363.5,-12 10363.5,-12 10363.5,-24 10363.5,-24 10363.5,-30 10357.5,-36 10351.5,-36"/>
<text text-anchor="middle" x="10210" y="-14.3" font-family="Times,serif" font-size="14.00">:feature:other&#45;readout&#45;start&#45;sound&#45;detail</text>
</g>
<!-- :app:shared&#45;&gt;:feature:other&#45;readout&#45;start&#45;sound&#45;detail -->
<g id="edge19" class="edge">
<title>:app:shared&#45;&gt;:feature:other&#45;readout&#45;start&#45;sound&#45;detail</title>
<path fill="none" stroke="black" d="M6487.66,-88.88C6868.53,-87.91 9288.46,-80.09 10045.91,-36.09"/>
<polygon fill="black" stroke="black" points="10046.34,-39.57 10056.11,-35.49 10045.92,-32.58 10046.34,-39.57"/>
</g>
<!-- :feature:other&#45;server&#45;ip&#45;detail -->
<g id="node38" class="node">
<title>:feature:other&#45;server&#45;ip&#45;detail</title>
<path fill="#c8e6c9" stroke="#43a047" d="M10598.5,-36C10598.5,-36 10393.5,-36 10393.5,-36 10387.5,-36 10381.5,-30 10381.5,-24 10381.5,-24 10381.5,-12 10381.5,-12 10381.5,-6 10387.5,0 10393.5,0 10393.5,0 10598.5,0 10598.5,0 10604.5,0 10610.5,-6 10610.5,-12 10610.5,-12 10610.5,-24 10610.5,-24 10610.5,-30 10604.5,-36 10598.5,-36"/>
<text text-anchor="middle" x="10496" y="-14.3" font-family="Times,serif" font-size="14.00">:feature:other&#45;server&#45;ip&#45;detail</text>
</g>
<!-- :app:shared&#45;&gt;:feature:other&#45;server&#45;ip&#45;detail -->
<g id="edge17" class="edge">
<title>:app:shared&#45;&gt;:feature:other&#45;server&#45;ip&#45;detail</title>
<path fill="none" stroke="black" d="M6487.64,-88.7C6915.46,-86.11 9920.37,-66.91 10371.3,-36.03"/>
<polygon fill="black" stroke="black" points="10371.75,-39.51 10381.47,-35.3 10371.25,-32.53 10371.75,-39.51"/>
</g>
<!-- :feature:other&#45;theme&#45;detail -->
<g id="node39" class="node">
<title>:feature:other&#45;theme&#45;detail</title>
<path fill="#c8e6c9" stroke="#43a047" d="M10827,-36C10827,-36 10641,-36 10641,-36 10635,-36 10629,-30 10629,-24 10629,-24 10629,-12 10629,-12 10629,-6 10635,0 10641,0 10641,0 10827,0 10827,0 10833,0 10839,-6 10839,-12 10839,-12 10839,-24 10839,-24 10839,-30 10833,-36 10827,-36"/>
<text text-anchor="middle" x="10734" y="-14.3" font-family="Times,serif" font-size="14.00">:feature:other&#45;theme&#45;detail</text>
</g>
<!-- :app:shared&#45;&gt;:feature:other&#45;theme&#45;detail -->
<g id="edge20" class="edge">
<title>:app:shared&#45;&gt;:feature:other&#45;theme&#45;detail</title>
<path fill="none" stroke="black" d="M6487.62,-88.77C6930.48,-86.75 10141.06,-70.97 10618.65,-36"/>
<polygon fill="black" stroke="black" points="10619.07,-39.48 10628.78,-35.22 10618.54,-32.5 10619.07,-39.48"/>
</g>
<!-- :feature:other&#45;volume&#45;detail -->
<g id="node40" class="node">
<title>:feature:other&#45;volume&#45;detail</title>
<path fill="#c8e6c9" stroke="#43a047" d="M11062.5,-36C11062.5,-36 10869.5,-36 10869.5,-36 10863.5,-36 10857.5,-30 10857.5,-24 10857.5,-24 10857.5,-12 10857.5,-12 10857.5,-6 10863.5,0 10869.5,0 10869.5,0 11062.5,0 11062.5,0 11068.5,0 11074.5,-6 11074.5,-12 11074.5,-12 11074.5,-24 11074.5,-24 11074.5,-30 11068.5,-36 11062.5,-36"/>
<text text-anchor="middle" x="10966" y="-14.3" font-family="Times,serif" font-size="14.00">:feature:other&#45;volume&#45;detail</text>
</g>
<!-- :app:shared&#45;&gt;:feature:other&#45;volume&#45;detail -->
<g id="edge22" class="edge">
<title>:app:shared&#45;&gt;:feature:other&#45;volume&#45;detail</title>
<path fill="none" stroke="black" d="M6487.81,-88.79C6944.94,-86.89 10343.52,-71.64 10847.07,-35.96"/>
<polygon fill="black" stroke="black" points="10847.68,-39.42 10857.4,-35.19 10847.17,-32.44 10847.68,-39.42"/>
</g>
<!-- :feature:readout&#45;list -->
<g id="node41" class="node">
<title>:feature:readout&#45;list</title>
<path fill="#c8e6c9" stroke="#43a047" d="M11241,-36C11241,-36 11105,-36 11105,-36 11099,-36 11093,-30 11093,-24 11093,-24 11093,-12 11093,-12 11093,-6 11099,0 11105,0 11105,0 11241,0 11241,0 11247,0 11253,-6 11253,-12 11253,-12 11253,-24 11253,-24 11253,-30 11247,-36 11241,-36"/>
<text text-anchor="middle" x="11173" y="-14.3" font-family="Times,serif" font-size="14.00">:feature:readout&#45;list</text>
</g>
<!-- :app:shared&#45;&gt;:feature:readout&#45;list -->
<g id="edge25" class="edge">
<title>:app:shared&#45;&gt;:feature:readout&#45;list</title>
<path fill="none" stroke="black" d="M6487.54,-88.97C6957.35,-88.61 10555.81,-84.28 11082.49,-35.99"/>
<polygon fill="black" stroke="black" points="11082.94,-39.47 11092.56,-35.03 11082.27,-32.5 11082.94,-39.47"/>
</g>
<!-- :feature:server&#45;connection -->
<g id="node42" class="node">
<title>:feature:server&#45;connection</title>
<path fill="#c8e6c9" stroke="#43a047" d="M11464.5,-36C11464.5,-36 11283.5,-36 11283.5,-36 11277.5,-36 11271.5,-30 11271.5,-24 11271.5,-24 11271.5,-12 11271.5,-12 11271.5,-6 11277.5,0 11283.5,0 11283.5,0 11464.5,0 11464.5,0 11470.5,0 11476.5,-6 11476.5,-12 11476.5,-12 11476.5,-24 11476.5,-24 11476.5,-30 11470.5,-36 11464.5,-36"/>
<text text-anchor="middle" x="11374" y="-14.3" font-family="Times,serif" font-size="14.00">:feature:server&#45;connection</text>
</g>
<!-- :app:shared&#45;&gt;:feature:server&#45;connection -->
<g id="edge8" class="edge">
<title>:app:shared&#45;&gt;:feature:server&#45;connection</title>
<path fill="none" stroke="black" d="M6487.56,-88.87C6967.46,-87.63 10713.79,-76.65 11261.13,-35.95"/>
<polygon fill="black" stroke="black" points="11261.53,-39.43 11271.23,-35.17 11260.99,-32.45 11261.53,-39.43"/>
</g>
<!-- :feature:telemetry&#45;log&#45;detail -->
<g id="node43" class="node">
<title>:feature:telemetry&#45;log&#45;detail</title>
<path fill="#c8e6c9" stroke="#43a047" d="M11701,-36C11701,-36 11507,-36 11507,-36 11501,-36 11495,-30 11495,-24 11495,-24 11495,-12 11495,-12 11495,-6 11501,0 11507,0 11507,0 11701,0 11701,0 11707,0 11713,-6 11713,-12 11713,-12 11713,-24 11713,-24 11713,-30 11707,-36 11701,-36"/>
<text text-anchor="middle" x="11604" y="-14.3" font-family="Times,serif" font-size="14.00">:feature:telemetry&#45;log&#45;detail</text>
</g>
<!-- :app:shared&#45;&gt;:feature:telemetry&#45;log&#45;detail -->
<g id="edge24" class="edge">
<title>:app:shared&#45;&gt;:feature:telemetry&#45;log&#45;detail</title>
<path fill="none" stroke="black" d="M6487.56,-88.88C6979.83,-87.63 10913.14,-76.49 11484.62,-36.01"/>
<polygon fill="black" stroke="black" points="11485.05,-39.48 11494.77,-35.26 11484.53,-32.5 11485.05,-39.48"/>
</g>
<!-- :feature:telemetry&#45;log&#45;list -->
<g id="node44" class="node">
<title>:feature:telemetry&#45;log&#45;list</title>
<path fill="#c8e6c9" stroke="#43a047" d="M11919,-36C11919,-36 11743,-36 11743,-36 11737,-36 11731,-30 11731,-24 11731,-24 11731,-12 11731,-12 11731,-6 11737,0 11743,0 11743,0 11919,0 11919,0 11925,0 11931,-6 11931,-12 11931,-12 11931,-24 11931,-24 11931,-30 11925,-36 11919,-36"/>
<text text-anchor="middle" x="11831" y="-14.3" font-family="Times,serif" font-size="14.00">:feature:telemetry&#45;log&#45;list</text>
</g>
<!-- :app:shared&#45;&gt;:feature:telemetry&#45;log&#45;list -->
<g id="edge23" class="edge">
<title>:app:shared&#45;&gt;:feature:telemetry&#45;log&#45;list</title>
<path fill="none" stroke="black" d="M6487.52,-88.94C6992.4,-88.27 11123.64,-81.45 11720.79,-35.98"/>
<polygon fill="black" stroke="black" points="11721.29,-39.45 11730.98,-35.17 11720.74,-32.48 11721.29,-39.45"/>
</g>
<!-- :app:webApp -->
<g id="node4" class="node">
<title>:app:webApp</title>
<path fill="#ffe0b2" stroke="#fb8c00" d="M6620.5,-180C6620.5,-180 6535.5,-180 6535.5,-180 6529.5,-180 6523.5,-174 6523.5,-168 6523.5,-168 6523.5,-156 6523.5,-156 6523.5,-150 6529.5,-144 6535.5,-144 6535.5,-144 6620.5,-144 6620.5,-144 6626.5,-144 6632.5,-150 6632.5,-156 6632.5,-156 6632.5,-168 6632.5,-168 6632.5,-174 6626.5,-180 6620.5,-180"/>
<text text-anchor="middle" x="6578" y="-158.3" font-family="Times,serif" font-size="14.00">:app:webApp</text>
</g>
<!-- :app:webApp&#45;&gt;:app:shared -->
<g id="edge43" class="edge">
<title>:app:webApp&#45;&gt;:app:shared</title>
<path fill="none" stroke="black" d="M6543.51,-143.88C6524.56,-134.47 6500.87,-122.71 6480.64,-112.67"/>
<polygon fill="black" stroke="black" points="6482.14,-109.5 6471.63,-108.19 6479.03,-115.77 6482.14,-109.5"/>
</g>
</g>
</svg>
