<?xml version="1.0" encoding="UTF-8" standalone="no"?>
<!DOCTYPE svg PUBLIC "-//W3C//DTD SVG 1.1//EN"
 "http://www.w3.org/Graphics/SVG/1.1/DTD/svg11.dtd">
<!-- Generated by graphviz version 2.43.0 (0)
 -->
<!-- Title: G Pages: 1 -->
<svg width="536pt" height="260pt"
 viewBox="0.00 0.00 536.48 260.00" xmlns="http://www.w3.org/2000/svg" xmlns:xlink="http://www.w3.org/1999/xlink">
<g id="graph0" class="graph" transform="scale(1 1) rotate(0) translate(4 256)">
<title>G</title>
<polygon fill="white" stroke="transparent" points="-4,4 -4,-256 532.48,-256 532.48,4 -4,4"/>
<!-- :app:androidApp -->
<g id="node1" class="node">
<title>:app:androidApp</title>
<ellipse fill="none" stroke="black" cx="87.09" cy="-234" rx="87.18" ry="18"/>
<text text-anchor="middle" x="87.09" y="-230.3" font-family="Times,serif" font-size="14.00">:app:androidApp</text>
</g>
<!-- :app:shared -->
<g id="node2" class="node">
<title>:app:shared</title>
<ellipse fill="none" stroke="black" cx="294.09" cy="-162" rx="65.79" ry="18"/>
<text text-anchor="middle" x="294.09" y="-158.3" font-family="Times,serif" font-size="14.00">:app:shared</text>
</g>
<!-- :app:androidApp&#45;&gt;:app:shared -->
<g id="edge1" class="edge">
<title>:app:androidApp&#45;&gt;:app:shared</title>
<path fill="none" stroke="black" d="M130.49,-218.33C163.86,-207.04 210,-191.44 244.77,-179.68"/>
<polygon fill="black" stroke="black" points="245.91,-182.99 254.26,-176.47 243.67,-176.36 245.91,-182.99"/>
</g>
<!-- :feature:readout -->
<g id="node4" class="node">
<title>:feature:readout</title>
<ellipse fill="none" stroke="black" cx="424.09" cy="-90" rx="86.38" ry="18"/>
<text text-anchor="middle" x="424.09" y="-86.3" font-family="Times,serif" font-size="14.00">:feature:readout</text>
</g>
<!-- :app:shared&#45;&gt;:feature:readout -->
<g id="edge5" class="edge">
<title>:app:shared&#45;&gt;:feature:readout</title>
<path fill="none" stroke="black" d="M322.62,-145.64C341.03,-135.73 365.21,-122.71 385.34,-111.87"/>
<polygon fill="black" stroke="black" points="387.13,-114.88 394.28,-107.06 383.81,-108.71 387.13,-114.88"/>
</g>
<!-- :feature:other -->
<g id="node5" class="node">
<title>:feature:other</title>
<ellipse fill="none" stroke="black" cx="207.09" cy="-90" rx="75.29" ry="18"/>
<text text-anchor="middle" x="207.09" y="-86.3" font-family="Times,serif" font-size="14.00">:feature:other</text>
</g>
<!-- :app:shared&#45;&gt;:feature:other -->
<g id="edge4" class="edge">
<title>:app:shared&#45;&gt;:feature:other</title>
<path fill="none" stroke="black" d="M273.91,-144.76C262.47,-135.55 247.96,-123.88 235.39,-113.77"/>
<polygon fill="black" stroke="black" points="237.45,-110.93 227.46,-107.39 233.06,-116.39 237.45,-110.93"/>
</g>
<!-- :core:domain -->
<g id="node6" class="node">
<title>:core:domain</title>
<ellipse fill="none" stroke="black" cx="310.09" cy="-18" rx="70.69" ry="18"/>
<text text-anchor="middle" x="310.09" y="-14.3" font-family="Times,serif" font-size="14.00">:core:domain</text>
</g>
<!-- :app:shared&#45;&gt;:core:domain -->
<g id="edge6" class="edge">
<title>:app:shared&#45;&gt;:core:domain</title>
<path fill="none" stroke="black" d="M296.02,-143.87C298.75,-119.67 303.76,-75.21 307.01,-46.39"/>
<polygon fill="black" stroke="black" points="310.51,-46.52 308.16,-36.19 303.56,-45.73 310.51,-46.52"/>
</g>
<!-- :app:desktopApp -->
<g id="node3" class="node">
<title>:app:desktopApp</title>
<ellipse fill="none" stroke="black" cx="440.09" cy="-234" rx="88.28" ry="18"/>
<text text-anchor="middle" x="440.09" y="-230.3" font-family="Times,serif" font-size="14.00">:app:desktopApp</text>
</g>
<!-- :app:desktopApp&#45;&gt;:app:shared -->
<g id="edge2" class="edge">
<title>:app:desktopApp&#45;&gt;:app:shared</title>
<path fill="none" stroke="black" d="M406.96,-217.12C385.52,-206.83 357.45,-193.38 334.67,-182.46"/>
<polygon fill="black" stroke="black" points="336.12,-179.27 325.59,-178.1 333.09,-185.58 336.12,-179.27"/>
</g>
<!-- :app:desktopApp&#45;&gt;:feature:readout -->
<g id="edge3" class="edge">
<title>:app:desktopApp&#45;&gt;:feature:readout</title>
<path fill="none" stroke="black" d="M438.16,-215.87C435.44,-191.67 430.43,-147.21 427.18,-118.39"/>
<polygon fill="black" stroke="black" points="430.63,-117.73 426.03,-108.19 423.67,-118.52 430.63,-117.73"/>
</g>
<!-- :feature:readout&#45;&gt;:core:domain -->
<g id="edge9" class="edge">
<title>:feature:readout&#45;&gt;:core:domain</title>
<path fill="none" stroke="black" d="M397.65,-72.76C381.86,-63.07 361.62,-50.64 344.58,-40.17"/>
<polygon fill="black" stroke="black" points="346.35,-37.16 336,-34.91 342.69,-43.12 346.35,-37.16"/>
</g>
<!-- :feature:other&#45;&gt;:core:domain -->
<g id="edge8" class="edge">
<title>:feature:other&#45;&gt;:core:domain</title>
<path fill="none" stroke="black" d="M230.98,-72.76C244.89,-63.31 262.62,-51.26 277.76,-40.97"/>
<polygon fill="black" stroke="black" points="280.03,-43.66 286.33,-35.15 276.09,-37.87 280.03,-43.66"/>
</g>
<!-- :app:webApp -->
<g id="node7" class="node">
<title>:app:webApp</title>
<ellipse fill="none" stroke="black" cx="263.09" cy="-234" rx="70.69" ry="18"/>
<text text-anchor="middle" x="263.09" y="-230.3" font-family="Times,serif" font-size="14.00">:app:webApp</text>
</g>
<!-- :app:webApp&#45;&gt;:app:shared -->
<g id="edge7" class="edge">
<title>:app:webApp&#45;&gt;:app:shared</title>
<path fill="none" stroke="black" d="M270.6,-216.05C274.12,-208.09 278.41,-198.41 282.35,-189.51"/>
<polygon fill="black" stroke="black" points="285.59,-190.84 286.44,-180.28 279.19,-188 285.59,-190.84"/>
</g>
</g>
</svg>
