<?xml version="1.0" encoding="UTF-8" standalone="no"?>
<!DOCTYPE svg PUBLIC "-//W3C//DTD SVG 1.1//EN"
 "http://www.w3.org/Graphics/SVG/1.1/DTD/svg11.dtd">
<!-- Generated by graphviz version 2.43.0 (0)
 -->
<!-- Title: G Pages: 1 -->
<svg width="6774pt" height="188pt"
 viewBox="0.00 0.00 6773.77 188.00" xmlns="http://www.w3.org/2000/svg" xmlns:xlink="http://www.w3.org/1999/xlink">
<g id="graph0" class="graph" transform="scale(1 1) rotate(0) translate(4 184)">
<title>G</title>
<polygon fill="white" stroke="transparent" points="-4,4 -4,-184 6769.77,-184 6769.77,4 -4,4"/>
<!-- :app:androidApp -->
<g id="node1" class="node">
<title>:app:androidApp</title>
<ellipse fill="none" stroke="black" cx="2652.44" cy="-162" rx="87.18" ry="18"/>
<text text-anchor="middle" x="2652.44" y="-158.3" font-family="Times,serif" font-size="14.00">:app:androidApp</text>
</g>
<!-- :app:shared -->
<g id="node2" class="node">
<title>:app:shared</title>
<ellipse fill="none" stroke="black" cx="2845.44" cy="-90" rx="65.79" ry="18"/>
<text text-anchor="middle" x="2845.44" y="-86.3" font-family="Times,serif" font-size="14.00">:app:shared</text>
</g>
<!-- :app:androidApp&#45;&gt;:app:shared -->
<g id="edge1" class="edge">
<title>:app:androidApp&#45;&gt;:app:shared</title>
<path fill="none" stroke="black" d="M2693.85,-145.98C2724.36,-134.92 2765.93,-119.84 2797.82,-108.27"/>
<polygon fill="black" stroke="black" points="2799.18,-111.5 2807.38,-104.8 2796.79,-104.92 2799.18,-111.5"/>
</g>
<!-- :feature:main -->
<g id="node4" class="node">
<title>:feature:main</title>
<ellipse fill="none" stroke="black" cx="73.44" cy="-18" rx="73.39" ry="18"/>
<text text-anchor="middle" x="73.44" y="-14.3" font-family="Times,serif" font-size="14.00">:feature:main</text>
</g>
<!-- :app:shared&#45;&gt;:feature:main -->
<g id="edge3" class="edge">
<title>:app:shared&#45;&gt;:feature:main</title>
<path fill="none" stroke="black" d="M2779.94,-88.42C2393.97,-84.94 424.15,-65.8 156.44,-36 149.31,-35.21 141.88,-34.1 134.52,-32.82"/>
<polygon fill="black" stroke="black" points="135.04,-29.36 124.57,-30.99 133.77,-36.24 135.04,-29.36"/>
</g>
<!-- :feature:lmu&#45;windows&#45;connection -->
<g id="node5" class="node">
<title>:feature:lmu&#45;windows&#45;connection</title>
<ellipse fill="none" stroke="black" cx="329.44" cy="-18" rx="164.37" ry="18"/>
<text text-anchor="middle" x="329.44" y="-14.3" font-family="Times,serif" font-size="14.00">:feature:lmu&#45;windows&#45;connection</text>
</g>
<!-- :app:shared&#45;&gt;:feature:lmu&#45;windows&#45;connection -->
<g id="edge4" class="edge">
<title>:app:shared&#45;&gt;:feature:lmu&#45;windows&#45;connection</title>
<path fill="none" stroke="black" d="M2779.71,-89.31C2502.82,-90.24 1404.19,-90.12 503.44,-36 486.73,-35 469.14,-33.63 451.82,-32.12"/>
<polygon fill="black" stroke="black" points="451.94,-28.61 441.67,-31.21 451.31,-35.59 451.94,-28.61"/>
</g>
<!-- :feature:gt7&#45;ps5&#45;connection -->
<g id="node6" class="node">
<title>:feature:gt7&#45;ps5&#45;connection</title>
<ellipse fill="none" stroke="black" cx="650.44" cy="-18" rx="138.38" ry="18"/>
<text text-anchor="middle" x="650.44" y="-14.3" font-family="Times,serif" font-size="14.00">:feature:gt7&#45;ps5&#45;connection</text>
</g>
<!-- :app:shared&#45;&gt;:feature:gt7&#45;ps5&#45;connection -->
<g id="edge5" class="edge">
<title>:app:shared&#45;&gt;:feature:gt7&#45;ps5&#45;connection</title>
<path fill="none" stroke="black" d="M2779.51,-89.41C2524.23,-90.56 1576.41,-90.64 798.44,-36 784.5,-35.02 769.86,-33.7 755.42,-32.22"/>
<polygon fill="black" stroke="black" points="755.78,-28.74 745.47,-31.17 755.05,-35.7 755.78,-28.74"/>
</g>
<!-- :feature:server&#45;connection -->
<g id="node7" class="node">
<title>:feature:server&#45;connection</title>
<ellipse fill="none" stroke="black" cx="940.44" cy="-18" rx="133.48" ry="18"/>
<text text-anchor="middle" x="940.44" y="-14.3" font-family="Times,serif" font-size="14.00">:feature:server&#45;connection</text>
</g>
<!-- :app:shared&#45;&gt;:feature:server&#45;connection -->
<g id="edge6" class="edge">
<title>:app:shared&#45;&gt;:feature:server&#45;connection</title>
<path fill="none" stroke="black" d="M2779.73,-89.11C2547.56,-89.06 1744.2,-85.12 1083.44,-36 1070.1,-35.01 1056.09,-33.69 1042.27,-32.22"/>
<polygon fill="black" stroke="black" points="1042.57,-28.73 1032.25,-31.13 1041.82,-35.69 1042.57,-28.73"/>
</g>
<!-- :feature:lmu&#45;windows&#45;narrator -->
<g id="node8" class="node">
<title>:feature:lmu&#45;windows&#45;narrator</title>
<ellipse fill="none" stroke="black" cx="1245.44" cy="-18" rx="153.27" ry="18"/>
<text text-anchor="middle" x="1245.44" y="-14.3" font-family="Times,serif" font-size="14.00">:feature:lmu&#45;windows&#45;narrator</text>
</g>
<!-- :app:shared&#45;&gt;:feature:lmu&#45;windows&#45;narrator -->
<g id="edge7" class="edge">
<title>:app:shared&#45;&gt;:feature:lmu&#45;windows&#45;narrator</title>
<path fill="none" stroke="black" d="M2779.83,-88.15C2576.16,-85.16 1936.7,-73.25 1408.44,-36 1393.31,-34.93 1377.41,-33.57 1361.72,-32.09"/>
<polygon fill="black" stroke="black" points="1361.74,-28.57 1351.45,-31.1 1361.06,-35.54 1361.74,-28.57"/>
</g>
<!-- :feature:gt7&#45;ps5&#45;narrator -->
<g id="node9" class="node">
<title>:feature:gt7&#45;ps5&#45;narrator</title>
<ellipse fill="none" stroke="black" cx="1544.44" cy="-18" rx="127.28" ry="18"/>
<text text-anchor="middle" x="1544.44" y="-14.3" font-family="Times,serif" font-size="14.00">:feature:gt7&#45;ps5&#45;narrator</text>
</g>
<!-- :app:shared&#45;&gt;:feature:gt7&#45;ps5&#45;narrator -->
<g id="edge8" class="edge">
<title>:app:shared&#45;&gt;:feature:gt7&#45;ps5&#45;narrator</title>
<path fill="none" stroke="black" d="M2779.96,-87.83C2602.62,-84.27 2098.29,-71.56 1680.44,-36 1668.19,-34.96 1655.34,-33.64 1642.64,-32.21"/>
<polygon fill="black" stroke="black" points="1642.83,-28.71 1632.49,-31.04 1642.02,-35.66 1642.83,-28.71"/>
</g>
<!-- :feature:other&#45;license&#45;detail -->
<g id="node10" class="node">
<title>:feature:other&#45;license&#45;detail</title>
<ellipse fill="none" stroke="black" cx="1829.44" cy="-18" rx="139.98" ry="18"/>
<text text-anchor="middle" x="1829.44" y="-14.3" font-family="Times,serif" font-size="14.00">:feature:other&#45;license&#45;detail</text>
</g>
<!-- :app:shared&#45;&gt;:feature:other&#45;license&#45;detail -->
<g id="edge9" class="edge">
<title>:app:shared&#45;&gt;:feature:other&#45;license&#45;detail</title>
<path fill="none" stroke="black" d="M2781.19,-86.23C2637.27,-79.77 2278.15,-62.24 1978.44,-36 1965.09,-34.83 1951.07,-33.44 1937.21,-31.97"/>
<polygon fill="black" stroke="black" points="1937.47,-28.48 1927.15,-30.89 1936.72,-35.44 1937.47,-28.48"/>
</g>
<!-- :feature:other&#45;list -->
<g id="node11" class="node">
<title>:feature:other&#45;list</title>
<ellipse fill="none" stroke="black" cx="2080.44" cy="-18" rx="92.88" ry="18"/>
<text text-anchor="middle" x="2080.44" y="-14.3" font-family="Times,serif" font-size="14.00">:feature:other&#45;list</text>
</g>
<!-- :app:shared&#45;&gt;:feature:other&#45;list -->
<g id="edge10" class="edge">
<title>:app:shared&#45;&gt;:feature:other&#45;list</title>
<path fill="none" stroke="black" d="M2781.26,-85.7C2662.67,-79.18 2401.34,-62.94 2182.44,-36 2173.9,-34.95 2164.98,-33.69 2156.12,-32.35"/>
<polygon fill="black" stroke="black" points="2156.59,-28.88 2146.17,-30.8 2155.51,-35.8 2156.59,-28.88"/>
</g>
<!-- :feature:other&#45;server&#45;ip&#45;detail -->
<g id="node12" class="node">
<title>:feature:other&#45;server&#45;ip&#45;detail</title>
<ellipse fill="none" stroke="black" cx="2340.44" cy="-18" rx="148.67" ry="18"/>
<text text-anchor="middle" x="2340.44" y="-14.3" font-family="Times,serif" font-size="14.00">:feature:other&#45;server&#45;ip&#45;detail</text>
</g>
<!-- :app:shared&#45;&gt;:feature:other&#45;server&#45;ip&#45;detail -->
<g id="edge11" class="edge">
<title>:app:shared&#45;&gt;:feature:other&#45;server&#45;ip&#45;detail</title>
<path fill="none" stroke="black" d="M2788.01,-81.04C2704.57,-69.47 2548.48,-47.84 2444.48,-33.42"/>
<polygon fill="black" stroke="black" points="2444.66,-29.91 2434.27,-32.01 2443.7,-36.85 2444.66,-29.91"/>
</g>
<!-- :feature:other&#45;console&#45;ip&#45;detail -->
<g id="node13" class="node">
<title>:feature:other&#45;console&#45;ip&#45;detail</title>
<ellipse fill="none" stroke="black" cx="2660.44" cy="-18" rx="153.27" ry="18"/>
<text text-anchor="middle" x="2660.44" y="-14.3" font-family="Times,serif" font-size="14.00">:feature:other&#45;console&#45;ip&#45;detail</text>
</g>
<!-- :app:shared&#45;&gt;:feature:other&#45;console&#45;ip&#45;detail -->
<g id="edge12" class="edge">
<title>:app:shared&#45;&gt;:feature:other&#45;console&#45;ip&#45;detail</title>
<path fill="none" stroke="black" d="M2808.45,-75C2781.14,-64.67 2743.59,-50.46 2713.15,-38.94"/>
<polygon fill="black" stroke="black" points="2714.13,-35.57 2703.54,-35.31 2711.65,-42.12 2714.13,-35.57"/>
</g>
<!-- :feature:other&#45;readout&#45;start&#45;sound&#45;detail -->
<g id="node14" class="node">
<title>:feature:other&#45;readout&#45;start&#45;sound&#45;detail</title>
<ellipse fill="none" stroke="black" cx="3031.44" cy="-18" rx="199.56" ry="18"/>
<text text-anchor="middle" x="3031.44" y="-14.3" font-family="Times,serif" font-size="14.00">:feature:other&#45;readout&#45;start&#45;sound&#45;detail</text>
</g>
<!-- :app:shared&#45;&gt;:feature:other&#45;readout&#45;start&#45;sound&#45;detail -->
<g id="edge13" class="edge">
<title>:app:shared&#45;&gt;:feature:other&#45;readout&#45;start&#45;sound&#45;detail</title>
<path fill="none" stroke="black" d="M2882.64,-75C2909.9,-64.74 2947.32,-50.66 2977.81,-39.18"/>
<polygon fill="black" stroke="black" points="2979.32,-42.36 2987.45,-35.56 2976.85,-35.8 2979.32,-42.36"/>
</g>
<!-- :feature:other&#45;volume&#45;detail -->
<g id="node15" class="node">
<title>:feature:other&#45;volume&#45;detail</title>
<ellipse fill="none" stroke="black" cx="3390.44" cy="-18" rx="141.07" ry="18"/>
<text text-anchor="middle" x="3390.44" y="-14.3" font-family="Times,serif" font-size="14.00">:feature:other&#45;volume&#45;detail</text>
</g>
<!-- :app:shared&#45;&gt;:feature:other&#45;volume&#45;detail -->
<g id="edge14" class="edge">
<title>:app:shared&#45;&gt;:feature:other&#45;volume&#45;detail</title>
<path fill="none" stroke="black" d="M2903.51,-81.54C2994.16,-69.9 3170.7,-47.22 3284.45,-32.61"/>
<polygon fill="black" stroke="black" points="3285.11,-36.06 3294.58,-31.31 3284.21,-29.12 3285.11,-36.06"/>
</g>
<!-- :feature:telemetry&#45;log&#45;list -->
<g id="node16" class="node">
<title>:feature:telemetry&#45;log&#45;list</title>
<ellipse fill="none" stroke="black" cx="3679.44" cy="-18" rx="129.98" ry="18"/>
<text text-anchor="middle" x="3679.44" y="-14.3" font-family="Times,serif" font-size="14.00">:feature:telemetry&#45;log&#45;list</text>
</g>
<!-- :app:shared&#45;&gt;:feature:telemetry&#45;log&#45;list -->
<g id="edge15" class="edge">
<title>:app:shared&#45;&gt;:feature:telemetry&#45;log&#45;list</title>
<path fill="none" stroke="black" d="M2908.77,-85.14C3031.03,-77.47 3308.04,-59.06 3540.44,-36 3552.57,-34.8 3565.27,-33.41 3577.86,-31.97"/>
<polygon fill="black" stroke="black" points="3578.39,-35.43 3587.92,-30.8 3577.58,-28.48 3578.39,-35.43"/>
</g>
<!-- :feature:telemetry&#45;log&#45;detail -->
<g id="node17" class="node">
<title>:feature:telemetry&#45;log&#45;detail</title>
<ellipse fill="none" stroke="black" cx="3969.44" cy="-18" rx="141.88" ry="18"/>
<text text-anchor="middle" x="3969.44" y="-14.3" font-family="Times,serif" font-size="14.00">:feature:telemetry&#45;log&#45;detail</text>
</g>
<!-- :app:shared&#45;&gt;:feature:telemetry&#45;log&#45;detail -->
<g id="edge16" class="edge">
<title>:app:shared&#45;&gt;:feature:telemetry&#45;log&#45;detail</title>
<path fill="none" stroke="black" d="M2910.15,-86.77C3066.43,-81.09 3476.84,-64.51 3818.44,-36 3832.09,-34.86 3846.41,-33.49 3860.57,-32.02"/>
<polygon fill="black" stroke="black" points="3861.26,-35.46 3870.84,-30.93 3860.52,-28.5 3861.26,-35.46"/>
</g>
<!-- :feature:readout&#45;list -->
<g id="node18" class="node">
<title>:feature:readout&#45;list</title>
<ellipse fill="none" stroke="black" cx="4233.44" cy="-18" rx="103.98" ry="18"/>
<text text-anchor="middle" x="4233.44" y="-14.3" font-family="Times,serif" font-size="14.00">:feature:readout&#45;list</text>
</g>
<!-- :app:shared&#45;&gt;:feature:readout&#45;list -->
<g id="edge17" class="edge">
<title>:app:shared&#45;&gt;:feature:readout&#45;list</title>
<path fill="none" stroke="black" d="M2910.97,-88.76C3099.38,-87.55 3658.69,-80.2 4120.44,-36 4130.37,-35.05 4140.75,-33.82 4151.03,-32.45"/>
<polygon fill="black" stroke="black" points="4151.82,-35.88 4161.25,-31.05 4150.86,-28.94 4151.82,-35.88"/>
</g>
<!-- :feature:lmu&#45;windows&#45;readout&#45;vehicle&#45;approach&#45;detail -->
<g id="node19" class="node">
<title>:feature:lmu&#45;windows&#45;readout&#45;vehicle&#45;approach&#45;detail</title>
<ellipse fill="none" stroke="black" cx="4616.44" cy="-18" rx="260.75" ry="18"/>
<text text-anchor="middle" x="4616.44" y="-14.3" font-family="Times,serif" font-size="14.00">:feature:lmu&#45;windows&#45;readout&#45;vehicle&#45;approach&#45;detail</text>
</g>
<!-- :app:shared&#45;&gt;:feature:lmu&#45;windows&#45;readout&#45;vehicle&#45;approach&#45;detail -->
<g id="edge18" class="edge">
<title>:app:shared&#45;&gt;:feature:lmu&#45;windows&#45;readout&#45;vehicle&#45;approach&#45;detail</title>
<path fill="none" stroke="black" d="M2910.57,-87.34C3119.41,-81.89 3791.06,-63.28 4346.44,-36 4372.23,-34.73 4399.4,-33.23 4426.16,-31.64"/>
<polygon fill="black" stroke="black" points="4426.62,-35.12 4436.39,-31.03 4426.2,-28.13 4426.62,-35.12"/>
</g>
<!-- :feature:lmu&#45;windows&#45;readout&#45;flag&#45;detail -->
<g id="node20" class="node">
<title>:feature:lmu&#45;windows&#45;readout&#45;flag&#45;detail</title>
<ellipse fill="none" stroke="black" cx="5094.44" cy="-18" rx="199.56" ry="18"/>
<text text-anchor="middle" x="5094.44" y="-14.3" font-family="Times,serif" font-size="14.00">:feature:lmu&#45;windows&#45;readout&#45;flag&#45;detail</text>
</g>
<!-- :app:shared&#45;&gt;:feature:lmu&#45;windows&#45;readout&#45;flag&#45;detail -->
<g id="edge19" class="edge">
<title>:app:shared&#45;&gt;:feature:lmu&#45;windows&#45;readout&#45;flag&#45;detail</title>
<path fill="none" stroke="black" d="M2911.14,-88.62C3165.49,-86.87 4109.97,-77.78 4886.44,-36 4906.5,-34.92 4927.62,-33.51 4948.4,-31.97"/>
<polygon fill="black" stroke="black" points="4948.87,-35.44 4958.58,-31.2 4948.34,-28.46 4948.87,-35.44"/>
</g>
<!-- :feature:lmu&#45;windows&#45;readout&#45;vehicle&#45;damage&#45;detail -->
<g id="node21" class="node">
<title>:feature:lmu&#45;windows&#45;readout&#45;vehicle&#45;damage&#45;detail</title>
<ellipse fill="none" stroke="black" cx="5566.44" cy="-18" rx="254.55" ry="18"/>
<text text-anchor="middle" x="5566.44" y="-14.3" font-family="Times,serif" font-size="14.00">:feature:lmu&#45;windows&#45;readout&#45;vehicle&#45;damage&#45;detail</text>
</g>
<!-- :app:shared&#45;&gt;:feature:lmu&#45;windows&#45;readout&#45;vehicle&#45;damage&#45;detail -->
<g id="edge20" class="edge">
<title>:app:shared&#45;&gt;:feature:lmu&#45;windows&#45;readout&#45;vehicle&#45;damage&#45;detail</title>
<path fill="none" stroke="black" d="M2911,-88.62C3195.73,-86.76 4353.55,-76.92 5303.44,-36 5329.28,-34.89 5356.54,-33.44 5383.32,-31.85"/>
<polygon fill="black" stroke="black" points="5383.78,-35.33 5393.55,-31.24 5383.36,-28.34 5383.78,-35.33"/>
</g>
<!-- :feature:gt7&#45;ps5&#45;readout&#45;my&#45;bestlap&#45;detail -->
<g id="node22" class="node">
<title>:feature:gt7&#45;ps5&#45;readout&#45;my&#45;bestlap&#45;detail</title>
<ellipse fill="none" stroke="black" cx="6047.44" cy="-18" rx="207.96" ry="18"/>
<text text-anchor="middle" x="6047.44" y="-14.3" font-family="Times,serif" font-size="14.00">:feature:gt7&#45;ps5&#45;readout&#45;my&#45;bestlap&#45;detail</text>
</g>
<!-- :app:shared&#45;&gt;:feature:gt7&#45;ps5&#45;readout&#45;my&#45;bestlap&#45;detail -->
<g id="edge21" class="edge">
<title>:app:shared&#45;&gt;:feature:gt7&#45;ps5&#45;readout&#45;my&#45;bestlap&#45;detail</title>
<path fill="none" stroke="black" d="M2911.14,-89.3C3231.42,-90.47 4661.06,-92.14 5830.44,-36 5851.8,-34.97 5874.32,-33.57 5896.44,-32.01"/>
<polygon fill="black" stroke="black" points="5896.85,-35.49 5906.57,-31.28 5896.35,-28.51 5896.85,-35.49"/>
</g>
<!-- :feature:gt7&#45;ps5&#45;readout&#45;remaining&#45;fuel&#45;laps&#45;detail -->
<g id="node23" class="node">
<title>:feature:gt7&#45;ps5&#45;readout&#45;remaining&#45;fuel&#45;laps&#45;detail</title>
<ellipse fill="none" stroke="black" cx="6519.44" cy="-18" rx="246.16" ry="18"/>
<text text-anchor="middle" x="6519.44" y="-14.3" font-family="Times,serif" font-size="14.00">:feature:gt7&#45;ps5&#45;readout&#45;remaining&#45;fuel&#45;laps&#45;detail</text>
</g>
<!-- :app:shared&#45;&gt;:feature:gt7&#45;ps5&#45;readout&#45;remaining&#45;fuel&#45;laps&#45;detail -->
<g id="edge22" class="edge">
<title>:app:shared&#45;&gt;:feature:gt7&#45;ps5&#45;readout&#45;remaining&#45;fuel&#45;laps&#45;detail</title>
<path fill="none" stroke="black" d="M2911.23,-89.23C3258.43,-90.19 4912.81,-91.49 6264.44,-36 6289.9,-34.95 6316.76,-33.52 6343.12,-31.93"/>
<polygon fill="black" stroke="black" points="6343.43,-35.42 6353.19,-31.31 6343,-28.43 6343.43,-35.42"/>
</g>
<!-- :app:desktopApp -->
<g id="node3" class="node">
<title>:app:desktopApp</title>
<ellipse fill="none" stroke="black" cx="2845.44" cy="-162" rx="88.28" ry="18"/>
<text text-anchor="middle" x="2845.44" y="-158.3" font-family="Times,serif" font-size="14.00">:app:desktopApp</text>
</g>
<!-- :app:desktopApp&#45;&gt;:app:shared -->
<g id="edge2" class="edge">
<title>:app:desktopApp&#45;&gt;:app:shared</title>
<path fill="none" stroke="black" d="M2845.44,-143.7C2845.44,-135.98 2845.44,-126.71 2845.44,-118.11"/>
<polygon fill="black" stroke="black" points="2848.94,-118.1 2845.44,-108.1 2841.94,-118.1 2848.94,-118.1"/>
</g>
<!-- :app:webApp -->
<g id="node24" class="node">
<title>:app:webApp</title>
<ellipse fill="none" stroke="black" cx="3022.44" cy="-162" rx="70.69" ry="18"/>
<text text-anchor="middle" x="3022.44" y="-158.3" font-family="Times,serif" font-size="14.00">:app:webApp</text>
</g>
<!-- :app:webApp&#45;&gt;:app:shared -->
<g id="edge23" class="edge">
<title>:app:webApp&#45;&gt;:app:shared</title>
<path fill="none" stroke="black" d="M2985.77,-146.5C2958.2,-135.59 2920.28,-120.6 2890.81,-108.94"/>
<polygon fill="black" stroke="black" points="2891.75,-105.55 2881.16,-105.13 2889.18,-112.06 2891.75,-105.55"/>
</g>
</g>
</svg>
