<?xml version="1.0" encoding="UTF-8" standalone="no"?>
<!DOCTYPE svg PUBLIC "-//W3C//DTD SVG 1.1//EN"
 "http://www.w3.org/Graphics/SVG/1.1/DTD/svg11.dtd">
<!-- Generated by graphviz version 2.43.0 (0)
 -->
<!-- Title: G Pages: 1 -->
<svg width="980pt" height="260pt"
 viewBox="0.00 0.00 980.30 260.00" xmlns="http://www.w3.org/2000/svg" xmlns:xlink="http://www.w3.org/1999/xlink">
<g id="graph0" class="graph" transform="scale(1 1) rotate(0) translate(4 256)">
<title>G</title>
<polygon fill="white" stroke="transparent" points="-4,4 -4,-256 976.3,-256 976.3,4 -4,4"/>
<!-- :app:androidApp -->
<g id="node1" class="node">
<title>:app:androidApp</title>
<ellipse fill="none" stroke="black" cx="183.94" cy="-234" rx="87.18" ry="18"/>
<text text-anchor="middle" x="183.94" y="-230.3" font-family="Times,serif" font-size="14.00">:app:androidApp</text>
</g>
<!-- :app:shared -->
<g id="node2" class="node">
<title>:app:shared</title>
<ellipse fill="none" stroke="black" cx="548.94" cy="-162" rx="65.79" ry="18"/>
<text text-anchor="middle" x="548.94" y="-158.3" font-family="Times,serif" font-size="14.00">:app:shared</text>
</g>
<!-- :app:androidApp&#45;&gt;:app:shared -->
<g id="edge1" class="edge">
<title>:app:androidApp&#45;&gt;:app:shared</title>
<path fill="none" stroke="black" d="M245.44,-221.2C312.5,-208.34 419.22,-187.88 486.61,-174.95"/>
<polygon fill="black" stroke="black" points="487.5,-178.35 496.66,-173.03 486.18,-171.47 487.5,-178.35"/>
</g>
<!-- :core:domain -->
<g id="node3" class="node">
<title>:core:domain</title>
<ellipse fill="none" stroke="black" cx="548.94" cy="-18" rx="70.69" ry="18"/>
<text text-anchor="middle" x="548.94" y="-14.3" font-family="Times,serif" font-size="14.00">:core:domain</text>
</g>
<!-- :app:androidApp&#45;&gt;:core:domain -->
<g id="edge2" class="edge">
<title>:app:androidApp&#45;&gt;:core:domain</title>
<path fill="none" stroke="black" d="M145.33,-217.86C80.31,-190.29 -39.08,-129.41 12.94,-72 42.9,-38.94 326.08,-25.71 468.28,-21.13"/>
<polygon fill="black" stroke="black" points="468.8,-24.61 478.69,-20.8 468.58,-17.62 468.8,-24.61"/>
</g>
<!-- :app:shared&#45;&gt;:core:domain -->
<g id="edge9" class="edge">
<title>:app:shared&#45;&gt;:core:domain</title>
<path fill="none" stroke="black" d="M603.82,-151.9C650.13,-142.97 711.19,-127.81 725.94,-108 758.55,-64.2 682.64,-40.5 620.27,-28.81"/>
<polygon fill="black" stroke="black" points="620.86,-25.36 610.39,-27.04 619.62,-32.25 620.86,-25.36"/>
</g>
<!-- :feature:narrator -->
<g id="node5" class="node">
<title>:feature:narrator</title>
<ellipse fill="none" stroke="black" cx="861.94" cy="-90" rx="89.08" ry="18"/>
<text text-anchor="middle" x="861.94" y="-86.3" font-family="Times,serif" font-size="14.00">:feature:narrator</text>
</g>
<!-- :app:shared&#45;&gt;:feature:narrator -->
<g id="edge5" class="edge">
<title>:app:shared&#45;&gt;:feature:narrator</title>
<path fill="none" stroke="black" d="M598.19,-149.99C651.08,-138.16 735.46,-119.29 794.5,-106.08"/>
<polygon fill="black" stroke="black" points="795.49,-109.45 804.48,-103.85 793.96,-102.62 795.49,-109.45"/>
</g>
<!-- :feature:other -->
<g id="node6" class="node">
<title>:feature:other</title>
<ellipse fill="none" stroke="black" cx="96.94" cy="-90" rx="75.29" ry="18"/>
<text text-anchor="middle" x="96.94" y="-86.3" font-family="Times,serif" font-size="14.00">:feature:other</text>
</g>
<!-- :app:shared&#45;&gt;:feature:other -->
<g id="edge6" class="edge">
<title>:app:shared&#45;&gt;:feature:other</title>
<path fill="none" stroke="black" d="M490.63,-153.57C418.1,-144.1 290.59,-126.7 181.94,-108 175.36,-106.87 168.51,-105.62 161.69,-104.33"/>
<polygon fill="black" stroke="black" points="162.21,-100.86 151.73,-102.41 160.89,-107.74 162.21,-100.86"/>
</g>
<!-- :feature:readout -->
<g id="node7" class="node">
<title>:feature:readout</title>
<ellipse fill="none" stroke="black" cx="276.94" cy="-90" rx="86.38" ry="18"/>
<text text-anchor="middle" x="276.94" y="-86.3" font-family="Times,serif" font-size="14.00">:feature:readout</text>
</g>
<!-- :app:shared&#45;&gt;:feature:readout -->
<g id="edge7" class="edge">
<title>:app:shared&#45;&gt;:feature:readout</title>
<path fill="none" stroke="black" d="M502.8,-149.13C457.75,-137.53 388.91,-119.81 339.06,-106.99"/>
<polygon fill="black" stroke="black" points="339.92,-103.59 329.36,-104.49 338.17,-110.37 339.92,-103.59"/>
</g>
<!-- :feature:readout&#45;vehicle&#45;approach -->
<g id="node8" class="node">
<title>:feature:readout&#45;vehicle&#45;approach</title>
<ellipse fill="none" stroke="black" cx="548.94" cy="-90" rx="167.87" ry="18"/>
<text text-anchor="middle" x="548.94" y="-86.3" font-family="Times,serif" font-size="14.00">:feature:readout&#45;vehicle&#45;approach</text>
</g>
<!-- :app:shared&#45;&gt;:feature:readout&#45;vehicle&#45;approach -->
<g id="edge8" class="edge">
<title>:app:shared&#45;&gt;:feature:readout&#45;vehicle&#45;approach</title>
<path fill="none" stroke="black" d="M548.94,-143.7C548.94,-135.98 548.94,-126.71 548.94,-118.11"/>
<polygon fill="black" stroke="black" points="552.44,-118.1 548.94,-108.1 545.44,-118.1 552.44,-118.1"/>
</g>
<!-- :app:desktopApp -->
<g id="node4" class="node">
<title>:app:desktopApp</title>
<ellipse fill="none" stroke="black" cx="852.94" cy="-234" rx="88.28" ry="18"/>
<text text-anchor="middle" x="852.94" y="-230.3" font-family="Times,serif" font-size="14.00">:app:desktopApp</text>
</g>
<!-- :app:desktopApp&#45;&gt;:app:shared -->
<g id="edge3" class="edge">
<title>:app:desktopApp&#45;&gt;:app:shared</title>
<path fill="none" stroke="black" d="M796.83,-220.08C743.05,-207.7 662.19,-189.08 607.58,-176.5"/>
<polygon fill="black" stroke="black" points="608.23,-173.06 597.7,-174.23 606.66,-179.88 608.23,-173.06"/>
</g>
<!-- :app:desktopApp&#45;&gt;:core:domain -->
<g id="edge4" class="edge">
<title>:app:desktopApp&#45;&gt;:core:domain</title>
<path fill="none" stroke="black" d="M877.98,-216.68C921.45,-186.41 1002.38,-120.26 959.94,-72 938.35,-47.45 740.22,-31.04 627.13,-23.59"/>
<polygon fill="black" stroke="black" points="627.34,-20.1 617.13,-22.94 626.88,-27.08 627.34,-20.1"/>
</g>
<!-- :feature:narrator&#45;&gt;:core:domain -->
<g id="edge11" class="edge">
<title>:feature:narrator&#45;&gt;:core:domain</title>
<path fill="none" stroke="black" d="M804.53,-76.16C749.42,-63.84 666.47,-45.28 610.13,-32.68"/>
<polygon fill="black" stroke="black" points="610.8,-29.25 600.28,-30.48 609.28,-36.08 610.8,-29.25"/>
</g>
<!-- :feature:other&#45;&gt;:core:domain -->
<g id="edge12" class="edge">
<title>:feature:other&#45;&gt;:core:domain</title>
<path fill="none" stroke="black" d="M151.73,-77.59C161.76,-75.63 172.15,-73.68 181.94,-72 284.04,-54.43 402.8,-38.01 476.93,-28.23"/>
<polygon fill="black" stroke="black" points="477.63,-31.67 487.09,-26.9 476.72,-24.73 477.63,-31.67"/>
</g>
<!-- :feature:readout&#45;&gt;:core:domain -->
<g id="edge13" class="edge">
<title>:feature:readout&#45;&gt;:core:domain</title>
<path fill="none" stroke="black" d="M329.06,-75.59C375.43,-63.65 443.15,-46.22 491.16,-33.87"/>
<polygon fill="black" stroke="black" points="492.28,-37.19 501.1,-31.31 490.54,-30.42 492.28,-37.19"/>
</g>
<!-- :feature:readout&#45;vehicle&#45;approach&#45;&gt;:core:domain -->
<g id="edge14" class="edge">
<title>:feature:readout&#45;vehicle&#45;approach&#45;&gt;:core:domain</title>
<path fill="none" stroke="black" d="M548.94,-71.7C548.94,-63.98 548.94,-54.71 548.94,-46.11"/>
<polygon fill="black" stroke="black" points="552.44,-46.1 548.94,-36.1 545.44,-46.1 552.44,-46.1"/>
</g>
<!-- :app:webApp -->
<g id="node9" class="node">
<title>:app:webApp</title>
<ellipse fill="none" stroke="black" cx="548.94" cy="-234" rx="70.69" ry="18"/>
<text text-anchor="middle" x="548.94" y="-230.3" font-family="Times,serif" font-size="14.00">:app:webApp</text>
</g>
<!-- :app:webApp&#45;&gt;:app:shared -->
<g id="edge10" class="edge">
<title>:app:webApp&#45;&gt;:app:shared</title>
<path fill="none" stroke="black" d="M548.94,-215.7C548.94,-207.98 548.94,-198.71 548.94,-190.11"/>
<polygon fill="black" stroke="black" points="552.44,-190.1 548.94,-180.1 545.44,-190.1 552.44,-190.1"/>
</g>
</g>
</svg>
