<?xml version="1.0" encoding="UTF-8" standalone="no"?>
<!DOCTYPE svg PUBLIC "-//W3C//DTD SVG 1.1//EN"
 "http://www.w3.org/Graphics/SVG/1.1/DTD/svg11.dtd">
<!-- Generated by graphviz version 14.1.5 (20260411.2331)
 -->
<!-- Title: G Pages: 1 -->
<svg width="1639pt" height="188pt"
 viewBox="0.00 0.00 1639.00 188.00" xmlns="http://www.w3.org/2000/svg" xmlns:xlink="http://www.w3.org/1999/xlink">
<g id="graph0" class="graph" transform="scale(1 1) rotate(0) translate(4 184)">
<title>G</title>
<polygon fill="white" stroke="none" points="-4,4 -4,-184 1635.17,-184 1635.17,4 -4,4"/>
<!-- :app:androidApp -->
<g id="node1" class="node">
<title>:app:androidApp</title>
<ellipse fill="none" stroke="black" cx="554.97" cy="-162" rx="73.36" ry="18"/>
<text xml:space="preserve" text-anchor="middle" x="554.97" y="-156.95" font-family="Times,serif" font-size="14.00">:app:androidApp</text>
</g>
<!-- :app:shared -->
<g id="node2" class="node">
<title>:app:shared</title>
<ellipse fill="none" stroke="black" cx="719.97" cy="-90" rx="53.4" ry="18"/>
<text xml:space="preserve" text-anchor="middle" x="719.97" y="-84.95" font-family="Times,serif" font-size="14.00">:app:shared</text>
</g>
<!-- :app:androidApp&#45;&gt;:app:shared -->
<g id="edge1" class="edge">
<title>:app:androidApp&#45;&gt;:app:shared</title>
<path fill="none" stroke="black" d="M590.37,-145.98C615.87,-135.17 650.39,-120.52 677.39,-109.06"/>
<polygon fill="black" stroke="black" points="678.48,-112.41 686.32,-105.28 675.75,-105.96 678.48,-112.41"/>
</g>
<!-- :feature:lmu&#45;connection -->
<g id="node4" class="node">
<title>:feature:lmu&#45;connection</title>
<ellipse fill="none" stroke="black" cx="99.97" cy="-18" rx="99.97" ry="18"/>
<text xml:space="preserve" text-anchor="middle" x="99.97" y="-12.95" font-family="Times,serif" font-size="14.00">:feature:lmu&#45;connection</text>
</g>
<!-- :app:shared&#45;&gt;:feature:lmu&#45;connection -->
<g id="edge3" class="edge">
<title>:app:shared&#45;&gt;:feature:lmu&#45;connection</title>
<path fill="none" stroke="black" d="M668.74,-84.56C576.58,-76.39 376.81,-57.78 208.97,-36 200.72,-34.93 192.13,-33.73 183.55,-32.48"/>
<polygon fill="black" stroke="black" points="184.21,-29.04 173.81,-31.04 183.18,-35.97 184.21,-29.04"/>
</g>
<!-- :feature:narrator -->
<g id="node5" class="node">
<title>:feature:narrator</title>
<ellipse fill="none" stroke="black" cx="288.97" cy="-18" rx="70.8" ry="18"/>
<text xml:space="preserve" text-anchor="middle" x="288.97" y="-12.95" font-family="Times,serif" font-size="14.00">:feature:narrator</text>
</g>
<!-- :app:shared&#45;&gt;:feature:narrator -->
<g id="edge4" class="edge">
<title>:app:shared&#45;&gt;:feature:narrator</title>
<path fill="none" stroke="black" d="M670.7,-82.5C602.65,-73.31 476.15,-55.46 368.97,-36 363.44,-35 357.7,-33.89 351.96,-32.75"/>
<polygon fill="black" stroke="black" points="352.94,-29.38 342.44,-30.82 351.54,-36.24 352.94,-29.38"/>
</g>
<!-- :feature:other&#45;detail -->
<g id="node6" class="node">
<title>:feature:other&#45;detail</title>
<ellipse fill="none" stroke="black" cx="461.97" cy="-18" rx="84.11" ry="18"/>
<text xml:space="preserve" text-anchor="middle" x="461.97" y="-12.95" font-family="Times,serif" font-size="14.00">:feature:other&#45;detail</text>
</g>
<!-- :app:shared&#45;&gt;:feature:other&#45;detail -->
<g id="edge5" class="edge">
<title>:app:shared&#45;&gt;:feature:other&#45;detail</title>
<path fill="none" stroke="black" d="M679.38,-77.99C637.51,-66.63 571.71,-48.77 523.46,-35.68"/>
<polygon fill="black" stroke="black" points="524.55,-32.35 513.98,-33.11 522.72,-39.11 524.55,-32.35"/>
</g>
<!-- :feature:other&#45;list -->
<g id="node7" class="node">
<title>:feature:other&#45;list</title>
<ellipse fill="none" stroke="black" cx="638.97" cy="-18" rx="74.89" ry="18"/>
<text xml:space="preserve" text-anchor="middle" x="638.97" y="-12.95" font-family="Times,serif" font-size="14.00">:feature:other&#45;list</text>
</g>
<!-- :app:shared&#45;&gt;:feature:other&#45;list -->
<g id="edge6" class="edge">
<title>:app:shared&#45;&gt;:feature:other&#45;list</title>
<path fill="none" stroke="black" d="M701.19,-72.76C691.01,-63.97 678.23,-52.93 666.91,-43.14"/>
<polygon fill="black" stroke="black" points="669.22,-40.51 659.37,-36.62 664.64,-45.81 669.22,-40.51"/>
</g>
<!-- :feature:readout -->
<g id="node8" class="node">
<title>:feature:readout</title>
<ellipse fill="none" stroke="black" cx="800.97" cy="-18" rx="69.26" ry="18"/>
<text xml:space="preserve" text-anchor="middle" x="800.97" y="-12.95" font-family="Times,serif" font-size="14.00">:feature:readout</text>
</g>
<!-- :app:shared&#45;&gt;:feature:readout -->
<g id="edge7" class="edge">
<title>:app:shared&#45;&gt;:feature:readout</title>
<path fill="none" stroke="black" d="M738.76,-72.76C748.94,-63.97 761.71,-52.93 773.04,-43.14"/>
<polygon fill="black" stroke="black" points="775.3,-45.81 780.58,-36.62 770.73,-40.51 775.3,-45.81"/>
</g>
<!-- :feature:readout&#45;vehicle&#45;approach -->
<g id="node9" class="node">
<title>:feature:readout&#45;vehicle&#45;approach</title>
<ellipse fill="none" stroke="black" cx="1023.97" cy="-18" rx="135.8" ry="18"/>
<text xml:space="preserve" text-anchor="middle" x="1023.97" y="-12.95" font-family="Times,serif" font-size="14.00">:feature:readout&#45;vehicle&#45;approach</text>
</g>
<!-- :app:shared&#45;&gt;:feature:readout&#45;vehicle&#45;approach -->
<g id="edge8" class="edge">
<title>:app:shared&#45;&gt;:feature:readout&#45;vehicle&#45;approach</title>
<path fill="none" stroke="black" d="M763.21,-79.05C811.02,-68.03 889,-50.08 947.24,-36.67"/>
<polygon fill="black" stroke="black" points="947.81,-40.13 956.77,-34.47 946.24,-33.31 947.81,-40.13"/>
</g>
<!-- :feature:readout&#45;flag -->
<g id="node10" class="node">
<title>:feature:readout&#45;flag</title>
<ellipse fill="none" stroke="black" cx="1263.97" cy="-18" rx="86.67" ry="18"/>
<text xml:space="preserve" text-anchor="middle" x="1263.97" y="-12.95" font-family="Times,serif" font-size="14.00">:feature:readout&#45;flag</text>
</g>
<!-- :app:shared&#45;&gt;:feature:readout&#45;flag -->
<g id="edge9" class="edge">
<title>:app:shared&#45;&gt;:feature:readout&#45;flag</title>
<path fill="none" stroke="black" d="M770.61,-84.02C853.89,-75.6 1024.95,-57.37 1168.97,-36 1175.83,-34.98 1182.94,-33.85 1190.06,-32.67"/>
<polygon fill="black" stroke="black" points="1190.44,-36.15 1199.71,-31.03 1189.27,-29.25 1190.44,-36.15"/>
</g>
<!-- :feature:readout&#45;vehicle&#45;damage -->
<g id="node11" class="node">
<title>:feature:readout&#45;vehicle&#45;damage</title>
<ellipse fill="none" stroke="black" cx="1499.97" cy="-18" rx="131.19" ry="18"/>
<text xml:space="preserve" text-anchor="middle" x="1499.97" y="-12.95" font-family="Times,serif" font-size="14.00">:feature:readout&#45;vehicle&#45;damage</text>
</g>
<!-- :app:shared&#45;&gt;:feature:readout&#45;vehicle&#45;damage -->
<g id="edge10" class="edge">
<title>:app:shared&#45;&gt;:feature:readout&#45;vehicle&#45;damage</title>
<path fill="none" stroke="black" d="M771.88,-85.38C880.93,-77.62 1141.75,-58.28 1359.97,-36 1371.23,-34.85 1382.99,-33.56 1394.7,-32.22"/>
<polygon fill="black" stroke="black" points="1394.86,-35.73 1404.39,-31.1 1394.05,-28.77 1394.86,-35.73"/>
</g>
<!-- :app:desktopApp -->
<g id="node3" class="node">
<title>:app:desktopApp</title>
<ellipse fill="none" stroke="black" cx="719.97" cy="-162" rx="73.87" ry="18"/>
<text xml:space="preserve" text-anchor="middle" x="719.97" y="-156.95" font-family="Times,serif" font-size="14.00">:app:desktopApp</text>
</g>
<!-- :app:desktopApp&#45;&gt;:app:shared -->
<g id="edge2" class="edge">
<title>:app:desktopApp&#45;&gt;:app:shared</title>
<path fill="none" stroke="black" d="M719.97,-143.7C719.97,-136.41 719.97,-127.73 719.97,-119.54"/>
<polygon fill="black" stroke="black" points="723.47,-119.62 719.97,-109.62 716.47,-119.62 723.47,-119.62"/>
</g>
<!-- :app:webApp -->
<g id="node12" class="node">
<title>:app:webApp</title>
<ellipse fill="none" stroke="black" cx="871.97" cy="-162" rx="60.56" ry="18"/>
<text xml:space="preserve" text-anchor="middle" x="871.97" y="-156.95" font-family="Times,serif" font-size="14.00">:app:webApp</text>
</g>
<!-- :app:webApp&#45;&gt;:app:shared -->
<g id="edge11" class="edge">
<title>:app:webApp&#45;&gt;:app:shared</title>
<path fill="none" stroke="black" d="M840.11,-146.33C817.11,-135.73 785.85,-121.34 760.98,-109.88"/>
<polygon fill="black" stroke="black" points="762.68,-106.81 752.13,-105.81 759.75,-113.17 762.68,-106.81"/>
</g>
</g>
</svg>
