<?xml version="1.0" encoding="UTF-8" standalone="no"?>
<!DOCTYPE svg PUBLIC "-//W3C//DTD SVG 1.1//EN"
 "http://www.w3.org/Graphics/SVG/1.1/DTD/svg11.dtd">
<!-- Generated by graphviz version 2.43.0 (0)
 -->
<!-- Title: G Pages: 1 -->
<svg width="377pt" height="116pt"
 viewBox="0.00 0.00 377.19 116.00" xmlns="http://www.w3.org/2000/svg" xmlns:xlink="http://www.w3.org/1999/xlink">
<g id="graph0" class="graph" transform="scale(1 1) rotate(0) translate(4 112)">
<title>G</title>
<polygon fill="white" stroke="transparent" points="-4,4 -4,-112 373.19,-112 373.19,4 -4,4"/>
<!-- :app:desktopApp -->
<g id="node1" class="node">
<title>:app:desktopApp</title>
<ellipse fill="none" stroke="black" cx="206.64" cy="-90" rx="88.28" ry="18"/>
<text text-anchor="middle" x="206.64" y="-86.3" font-family="Times,serif" font-size="14.00">:app:desktopApp</text>
</g>
<!-- :app:shared -->
<g id="node2" class="node">
<title>:app:shared</title>
<ellipse fill="none" stroke="black" cx="65.64" cy="-18" rx="65.79" ry="18"/>
<text text-anchor="middle" x="65.64" y="-14.3" font-family="Times,serif" font-size="14.00">:app:shared</text>
</g>
<!-- :app:desktopApp&#45;&gt;:app:shared -->
<g id="edge1" class="edge">
<title>:app:desktopApp&#45;&gt;:app:shared</title>
<path fill="none" stroke="black" d="M174.65,-73.12C154.03,-62.88 127.08,-49.5 105.13,-38.6"/>
<polygon fill="black" stroke="black" points="106.58,-35.41 96.06,-34.1 103.46,-41.68 106.58,-35.41"/>
</g>
<!-- :core:data -->
<g id="node3" class="node">
<title>:core:data</title>
<ellipse fill="none" stroke="black" cx="206.64" cy="-18" rx="57.39" ry="18"/>
<text text-anchor="middle" x="206.64" y="-14.3" font-family="Times,serif" font-size="14.00">:core:data</text>
</g>
<!-- :app:desktopApp&#45;&gt;:core:data -->
<g id="edge2" class="edge">
<title>:app:desktopApp&#45;&gt;:core:data</title>
<path fill="none" stroke="black" d="M206.64,-71.7C206.64,-63.98 206.64,-54.71 206.64,-46.11"/>
<polygon fill="black" stroke="black" points="210.14,-46.1 206.64,-36.1 203.14,-46.1 210.14,-46.1"/>
</g>
<!-- :server -->
<g id="node4" class="node">
<title>:server</title>
<ellipse fill="none" stroke="black" cx="325.64" cy="-18" rx="43.59" ry="18"/>
<text text-anchor="middle" x="325.64" y="-14.3" font-family="Times,serif" font-size="14.00">:server</text>
</g>
<!-- :app:desktopApp&#45;&gt;:server -->
<g id="edge3" class="edge">
<title>:app:desktopApp&#45;&gt;:server</title>
<path fill="none" stroke="black" d="M234.24,-72.76C251.71,-62.49 274.38,-49.15 292.77,-38.33"/>
<polygon fill="black" stroke="black" points="294.57,-41.34 301.42,-33.25 291.03,-35.3 294.57,-41.34"/>
</g>
</g>
</svg>
