<?xml version="1.0" encoding="UTF-8" standalone="no"?>
<!DOCTYPE svg PUBLIC "-//W3C//DTD SVG 1.1//EN"
 "http://www.w3.org/Graphics/SVG/1.1/DTD/svg11.dtd">
<!-- Generated by graphviz version 2.43.0 (0)
 -->
<!-- Title: G Pages: 1 -->
<svg width="496pt" height="188pt"
 viewBox="0.00 0.00 496.08 188.00" xmlns="http://www.w3.org/2000/svg" xmlns:xlink="http://www.w3.org/1999/xlink">
<g id="graph0" class="graph" transform="scale(1 1) rotate(0) translate(4 184)">
<title>G</title>
<polygon fill="white" stroke="transparent" points="-4,4 -4,-184 492.08,-184 492.08,4 -4,4"/>
<!-- :app:androidApp -->
<g id="node1" class="node">
<title>:app:androidApp</title>
<ellipse fill="none" stroke="black" cx="152.18" cy="-162" rx="87.18" ry="18"/>
<text text-anchor="middle" x="152.18" y="-158.3" font-family="Times,serif" font-size="14.00">:app:androidApp</text>
</g>
<!-- :core:domain -->
<g id="node2" class="node">
<title>:core:domain</title>
<ellipse fill="none" stroke="black" cx="223.18" cy="-18" rx="70.69" ry="18"/>
<text text-anchor="middle" x="223.18" y="-14.3" font-family="Times,serif" font-size="14.00">:core:domain</text>
</g>
<!-- :app:androidApp&#45;&gt;:core:domain -->
<g id="edge1" class="edge">
<title>:app:androidApp&#45;&gt;:core:domain</title>
<path fill="none" stroke="black" d="M79.08,-152.03C51.91,-144.74 23.7,-131.61 7.18,-108 -1.98,-94.89 -2.69,-84.59 7.18,-72 24.77,-49.58 93.85,-35.4 149.22,-27.41"/>
<polygon fill="black" stroke="black" points="149.96,-30.84 159.38,-25.98 148.99,-23.9 149.96,-30.84"/>
</g>
<!-- :app:shared -->
<g id="node3" class="node">
<title>:app:shared</title>
<ellipse fill="none" stroke="black" cx="82.18" cy="-90" rx="65.79" ry="18"/>
<text text-anchor="middle" x="82.18" y="-86.3" font-family="Times,serif" font-size="14.00">:app:shared</text>
</g>
<!-- :app:androidApp&#45;&gt;:app:shared -->
<g id="edge2" class="edge">
<title>:app:androidApp&#45;&gt;:app:shared</title>
<path fill="none" stroke="black" d="M135.24,-144.05C126.56,-135.37 115.83,-124.64 106.3,-115.11"/>
<polygon fill="black" stroke="black" points="108.52,-112.39 98.97,-107.79 103.57,-117.33 108.52,-112.39"/>
</g>
<!-- :core:data -->
<g id="node4" class="node">
<title>:core:data</title>
<ellipse fill="none" stroke="black" cx="223.18" cy="-90" rx="57.39" ry="18"/>
<text text-anchor="middle" x="223.18" y="-86.3" font-family="Times,serif" font-size="14.00">:core:data</text>
</g>
<!-- :app:androidApp&#45;&gt;:core:data -->
<g id="edge3" class="edge">
<title>:app:androidApp&#45;&gt;:core:data</title>
<path fill="none" stroke="black" d="M169.37,-144.05C178.4,-135.16 189.6,-124.11 199.44,-114.41"/>
<polygon fill="black" stroke="black" points="201.98,-116.82 206.65,-107.31 197.07,-111.84 201.98,-116.82"/>
</g>
<!-- :core:gt7&#45;ps5&#45;data -->
<g id="node5" class="node">
<title>:core:gt7&#45;ps5&#45;data</title>
<ellipse fill="none" stroke="black" cx="393.18" cy="-90" rx="94.78" ry="18"/>
<text text-anchor="middle" x="393.18" y="-86.3" font-family="Times,serif" font-size="14.00">:core:gt7&#45;ps5&#45;data</text>
</g>
<!-- :app:androidApp&#45;&gt;:core:gt7&#45;ps5&#45;data -->
<g id="edge4" class="edge">
<title>:app:androidApp&#45;&gt;:core:gt7&#45;ps5&#45;data</title>
<path fill="none" stroke="black" d="M200.38,-147C238.78,-135.85 292.74,-120.18 333.81,-108.25"/>
<polygon fill="black" stroke="black" points="334.79,-111.6 343.42,-105.45 332.84,-104.88 334.79,-111.6"/>
</g>
<!-- :core:data&#45;&gt;:core:domain -->
<g id="edge5" class="edge">
<title>:core:data&#45;&gt;:core:domain</title>
<path fill="none" stroke="black" d="M223.18,-71.7C223.18,-63.98 223.18,-54.71 223.18,-46.11"/>
<polygon fill="black" stroke="black" points="226.69,-46.1 223.18,-36.1 219.69,-46.1 226.69,-46.1"/>
</g>
<!-- :core:gt7&#45;ps5&#45;data&#45;&gt;:core:domain -->
<g id="edge6" class="edge">
<title>:core:gt7&#45;ps5&#45;data&#45;&gt;:core:domain</title>
<path fill="none" stroke="black" d="M355.46,-73.46C329.64,-62.84 295.3,-48.7 268.08,-37.49"/>
<polygon fill="black" stroke="black" points="269.35,-34.23 258.77,-33.65 266.69,-40.7 269.35,-34.23"/>
</g>
</g>
</svg>
