<?xml version="1.0" encoding="UTF-8" standalone="no"?>
<!DOCTYPE svg PUBLIC "-//W3C//DTD SVG 1.1//EN"
 "http://www.w3.org/Graphics/SVG/1.1/DTD/svg11.dtd">
<!-- Generated by graphviz version 2.43.0 (0)
 -->
<!-- Title: G Pages: 1 -->
<svg width="283pt" height="260pt"
 viewBox="0.00 0.00 282.88 260.00" xmlns="http://www.w3.org/2000/svg" xmlns:xlink="http://www.w3.org/1999/xlink">
<g id="graph0" class="graph" transform="scale(1 1) rotate(0) translate(4 256)">
<title>G</title>
<polygon fill="white" stroke="transparent" points="-4,4 -4,-256 278.88,-256 278.88,4 -4,4"/>
<!-- :app:androidApp -->
<g id="node1" class="node">
<title>:app:androidApp</title>
<ellipse fill="none" stroke="black" cx="187.79" cy="-234" rx="87.18" ry="18"/>
<text text-anchor="middle" x="187.79" y="-230.3" font-family="Times,serif" font-size="14.00">:app:androidApp</text>
</g>
<!-- :app:shared -->
<g id="node2" class="node">
<title>:app:shared</title>
<ellipse fill="none" stroke="black" cx="93.79" cy="-162" rx="65.79" ry="18"/>
<text text-anchor="middle" x="93.79" y="-158.3" font-family="Times,serif" font-size="14.00">:app:shared</text>
</g>
<!-- :app:androidApp&#45;&gt;:app:shared -->
<g id="edge1" class="edge">
<title>:app:androidApp&#45;&gt;:app:shared</title>
<path fill="none" stroke="black" d="M165.51,-216.41C153.02,-207.1 137.26,-195.37 123.69,-185.27"/>
<polygon fill="black" stroke="black" points="125.69,-182.39 115.58,-179.23 121.51,-188.01 125.69,-182.39"/>
</g>
<!-- :core:domain -->
<g id="node3" class="node">
<title>:core:domain</title>
<ellipse fill="none" stroke="black" cx="161.79" cy="-18" rx="70.69" ry="18"/>
<text text-anchor="middle" x="161.79" y="-14.3" font-family="Times,serif" font-size="14.00">:core:domain</text>
</g>
<!-- :app:androidApp&#45;&gt;:core:domain -->
<g id="edge2" class="edge">
<title>:app:androidApp&#45;&gt;:core:domain</title>
<path fill="none" stroke="black" d="M194.78,-215.95C206.03,-185.89 225.13,-121.93 206.79,-72 202.88,-61.35 195.78,-51.38 188.35,-43.02"/>
<polygon fill="black" stroke="black" points="190.66,-40.37 181.23,-35.54 185.59,-45.19 190.66,-40.37"/>
</g>
<!-- :feature:announcer -->
<g id="node4" class="node">
<title>:feature:announcer</title>
<ellipse fill="none" stroke="black" cx="98.79" cy="-90" rx="98.58" ry="18"/>
<text text-anchor="middle" x="98.79" y="-86.3" font-family="Times,serif" font-size="14.00">:feature:announcer</text>
</g>
<!-- :app:androidApp&#45;&gt;:feature:announcer -->
<g id="edge3" class="edge">
<title>:app:androidApp&#45;&gt;:feature:announcer</title>
<path fill="none" stroke="black" d="M187.62,-215.94C186.68,-196.98 182.87,-166.13 168.79,-144 160.96,-131.68 149.19,-121.17 137.53,-112.82"/>
<polygon fill="black" stroke="black" points="139.36,-109.84 129.11,-107.14 135.44,-115.64 139.36,-109.84"/>
</g>
<!-- :app:shared&#45;&gt;:feature:announcer -->
<g id="edge4" class="edge">
<title>:app:shared&#45;&gt;:feature:announcer</title>
<path fill="none" stroke="black" d="M95.03,-143.7C95.58,-135.98 96.24,-126.71 96.85,-118.11"/>
<polygon fill="black" stroke="black" points="100.35,-118.33 97.57,-108.1 93.37,-117.83 100.35,-118.33"/>
</g>
<!-- :feature:announcer&#45;&gt;:core:domain -->
<g id="edge5" class="edge">
<title>:feature:announcer&#45;&gt;:core:domain</title>
<path fill="none" stroke="black" d="M114.04,-72.05C121.78,-63.46 131.32,-52.86 139.83,-43.4"/>
<polygon fill="black" stroke="black" points="142.59,-45.56 146.68,-35.79 137.39,-40.88 142.59,-45.56"/>
</g>
</g>
</svg>
