<?xml version="1.0" encoding="UTF-8" standalone="no"?>
<!DOCTYPE svg PUBLIC "-//W3C//DTD SVG 1.1//EN"
 "http://www.w3.org/Graphics/SVG/1.1/DTD/svg11.dtd">
<!-- Generated by graphviz version 2.43.0 (0)
 -->
<!-- Title: G Pages: 1 -->
<svg width="298pt" height="116pt"
 viewBox="0.00 0.00 298.49 116.00" xmlns="http://www.w3.org/2000/svg" xmlns:xlink="http://www.w3.org/1999/xlink">
<g id="graph0" class="graph" transform="scale(1 1) rotate(0) translate(4 112)">
<title>G</title>
<polygon fill="white" stroke="transparent" points="-4,4 -4,-112 294.49,-112 294.49,4 -4,4"/>
<!-- :app:desktopApp -->
<g id="node1" class="node">
<title>:app:desktopApp</title>
<ellipse fill="none" stroke="black" cx="142.64" cy="-90" rx="88.28" ry="18"/>
<text text-anchor="middle" x="142.64" y="-86.3" font-family="Times,serif" font-size="14.00">:app:desktopApp</text>
</g>
<!-- :app:shared -->
<g id="node2" class="node">
<title>:app:shared</title>
<ellipse fill="none" stroke="black" cx="65.64" cy="-18" rx="65.79" ry="18"/>
<text text-anchor="middle" x="65.64" y="-14.3" font-family="Times,serif" font-size="14.00">:app:shared</text>
</g>
<!-- :app:desktopApp&#45;&gt;:app:shared -->
<g id="edge1" class="edge">
<title>:app:desktopApp&#45;&gt;:app:shared</title>
<path fill="none" stroke="black" d="M124,-72.05C114.19,-63.13 102.01,-52.06 91.31,-42.34"/>
<polygon fill="black" stroke="black" points="93.6,-39.68 83.85,-35.55 88.89,-44.86 93.6,-39.68"/>
</g>
<!-- :core:domain -->
<g id="node3" class="node">
<title>:core:domain</title>
<ellipse fill="none" stroke="black" cx="219.64" cy="-18" rx="70.69" ry="18"/>
<text text-anchor="middle" x="219.64" y="-14.3" font-family="Times,serif" font-size="14.00">:core:domain</text>
</g>
<!-- :app:desktopApp&#45;&gt;:core:domain -->
<g id="edge2" class="edge">
<title>:app:desktopApp&#45;&gt;:core:domain</title>
<path fill="none" stroke="black" d="M161.28,-72.05C171.1,-63.13 183.28,-52.06 193.97,-42.34"/>
<polygon fill="black" stroke="black" points="196.4,-44.86 201.44,-35.55 191.69,-39.68 196.4,-44.86"/>
</g>
</g>
</svg>
