<?xml version="1.0" encoding="UTF-8" standalone="no"?>
<!DOCTYPE svg PUBLIC "-//W3C//DTD SVG 1.1//EN"
 "http://www.w3.org/Graphics/SVG/1.1/DTD/svg11.dtd">
<!-- Generated by graphviz version 2.43.0 (0)
 -->
<!-- Title: G Pages: 1 -->
<svg width="6459pt" height="116pt"
 viewBox="0.00 0.00 6458.78 116.00" xmlns="http://www.w3.org/2000/svg" xmlns:xlink="http://www.w3.org/1999/xlink">
<g id="graph0" class="graph" transform="scale(1 1) rotate(0) translate(4 112)">
<title>G</title>
<polygon fill="white" stroke="transparent" points="-4,4 -4,-112 6454.78,-112 6454.78,4 -4,4"/>
<!-- :server -->
<g id="node1" class="node">
<title>:server</title>
<ellipse fill="none" stroke="black" cx="43.55" cy="-90" rx="43.59" ry="18"/>
<text text-anchor="middle" x="43.55" y="-86.3" font-family="Times,serif" font-size="14.00">:server</text>
</g>
<!-- :core:domain -->
<g id="node2" class="node">
<title>:core:domain</title>
<ellipse fill="none" stroke="black" cx="3055.55" cy="-18" rx="70.69" ry="18"/>
<text text-anchor="middle" x="3055.55" y="-14.3" font-family="Times,serif" font-size="14.00">:core:domain</text>
</g>
<!-- :server&#45;&gt;:core:domain -->
<g id="edge1" class="edge">
<title>:server&#45;&gt;:core:domain</title>
<path fill="none" stroke="black" d="M74.84,-77.3C81.89,-75.13 89.4,-73.18 96.55,-72 386.99,-23.89 2529.16,-19.44 2974.57,-19.04"/>
<polygon fill="black" stroke="black" points="2974.78,-22.54 2984.78,-19.03 2974.77,-15.54 2974.78,-22.54"/>
</g>
<!-- :core:data -->
<g id="node3" class="node">
<title>:core:data</title>
<ellipse fill="none" stroke="black" cx="162.55" cy="-90" rx="57.39" ry="18"/>
<text text-anchor="middle" x="162.55" y="-86.3" font-family="Times,serif" font-size="14.00">:core:data</text>
</g>
<!-- :core:data&#45;&gt;:core:domain -->
<g id="edge2" class="edge">
<title>:core:data&#45;&gt;:core:domain</title>
<path fill="none" stroke="black" d="M202.74,-77.06C211.19,-75 220.1,-73.15 228.55,-72 506.42,-34.14 2540.84,-21.64 2974.42,-19.39"/>
<polygon fill="black" stroke="black" points="2974.68,-22.89 2984.66,-19.34 2974.64,-15.89 2974.68,-22.89"/>
</g>
<!-- :core:gt7&#45;ps5&#45;data -->
<g id="node4" class="node">
<title>:core:gt7&#45;ps5&#45;data</title>
<ellipse fill="none" stroke="black" cx="332.55" cy="-90" rx="94.78" ry="18"/>
<text text-anchor="middle" x="332.55" y="-86.3" font-family="Times,serif" font-size="14.00">:core:gt7&#45;ps5&#45;data</text>
</g>
<!-- :core:gt7&#45;ps5&#45;data&#45;&gt;:core:domain -->
<g id="edge3" class="edge">
<title>:core:gt7&#45;ps5&#45;data&#45;&gt;:core:domain</title>
<path fill="none" stroke="black" d="M397.83,-76.88C410.62,-74.91 423.97,-73.15 436.55,-72 947.06,-25.35 2589.54,-19.76 2974.34,-19.09"/>
<polygon fill="black" stroke="black" points="2974.55,-22.59 2984.55,-19.07 2974.54,-15.59 2974.55,-22.59"/>
</g>
<!-- :core:lmu&#45;windows&#45;data -->
<g id="node5" class="node">
<title>:core:lmu&#45;windows&#45;data</title>
<ellipse fill="none" stroke="black" cx="566.55" cy="-90" rx="120.78" ry="18"/>
<text text-anchor="middle" x="566.55" y="-86.3" font-family="Times,serif" font-size="14.00">:core:lmu&#45;windows&#45;data</text>
</g>
<!-- :core:lmu&#45;windows&#45;data&#45;&gt;:core:domain -->
<g id="edge4" class="edge">
<title>:core:lmu&#45;windows&#45;data&#45;&gt;:core:domain</title>
<path fill="none" stroke="black" d="M649.28,-76.83C664.95,-74.91 681.23,-73.17 696.55,-72 1153.71,-37.07 2615.04,-22.7 2974.9,-19.65"/>
<polygon fill="black" stroke="black" points="2975,-23.14 2984.97,-19.56 2974.94,-16.14 2975,-23.14"/>
</g>
<!-- :feature:gt7&#45;ps5&#45;connection -->
<g id="node6" class="node">
<title>:feature:gt7&#45;ps5&#45;connection</title>
<ellipse fill="none" stroke="black" cx="843.55" cy="-90" rx="138.38" ry="18"/>
<text text-anchor="middle" x="843.55" y="-86.3" font-family="Times,serif" font-size="14.00">:feature:gt7&#45;ps5&#45;connection</text>
</g>
<!-- :feature:gt7&#45;ps5&#45;connection&#45;&gt;:core:domain -->
<g id="edge5" class="edge">
<title>:feature:gt7&#45;ps5&#45;connection&#45;&gt;:core:domain</title>
<path fill="none" stroke="black" d="M938.57,-76.82C956.16,-74.93 974.39,-73.2 991.55,-72 1761.6,-17.99 2696.7,-17.34 2974.22,-18.5"/>
<polygon fill="black" stroke="black" points="2974.58,-22 2984.6,-18.55 2974.61,-15 2974.58,-22"/>
</g>
<!-- :feature:gt7&#45;ps5&#45;narrator -->
<g id="node7" class="node">
<title>:feature:gt7&#45;ps5&#45;narrator</title>
<ellipse fill="none" stroke="black" cx="1127.55" cy="-90" rx="127.28" ry="18"/>
<text text-anchor="middle" x="1127.55" y="-86.3" font-family="Times,serif" font-size="14.00">:feature:gt7&#45;ps5&#45;narrator</text>
</g>
<!-- :feature:gt7&#45;ps5&#45;narrator&#45;&gt;:core:domain -->
<g id="edge6" class="edge">
<title>:feature:gt7&#45;ps5&#45;narrator&#45;&gt;:core:domain</title>
<path fill="none" stroke="black" d="M1214.85,-76.85C1231.01,-74.95 1247.77,-73.22 1263.55,-72 1922.39,-21.19 2720.94,-18.21 2974.34,-18.66"/>
<polygon fill="black" stroke="black" points="2974.55,-22.17 2984.56,-18.69 2974.57,-15.17 2974.55,-22.17"/>
</g>
<!-- :feature:gt7&#45;ps5&#45;readout&#45;my&#45;bestlap&#45;detail -->
<g id="node8" class="node">
<title>:feature:gt7&#45;ps5&#45;readout&#45;my&#45;bestlap&#45;detail</title>
<ellipse fill="none" stroke="black" cx="1480.55" cy="-90" rx="207.96" ry="18"/>
<text text-anchor="middle" x="1480.55" y="-86.3" font-family="Times,serif" font-size="14.00">:feature:gt7&#45;ps5&#45;readout&#45;my&#45;bestlap&#45;detail</text>
</g>
<!-- :feature:gt7&#45;ps5&#45;readout&#45;my&#45;bestlap&#45;detail&#45;&gt;:core:domain -->
<g id="edge7" class="edge">
<title>:feature:gt7&#45;ps5&#45;readout&#45;my&#45;bestlap&#45;detail&#45;&gt;:core:domain</title>
<path fill="none" stroke="black" d="M1624.06,-76.96C1648.57,-75.13 1673.78,-73.39 1697.55,-72 2182.47,-43.55 2765.73,-26.58 2975.53,-21.03"/>
<polygon fill="black" stroke="black" points="2975.63,-24.53 2985.53,-20.76 2975.44,-17.53 2975.63,-24.53"/>
</g>
<!-- :feature:lmu&#45;windows&#45;connection -->
<g id="node9" class="node">
<title>:feature:lmu&#45;windows&#45;connection</title>
<ellipse fill="none" stroke="black" cx="1870.55" cy="-90" rx="164.37" ry="18"/>
<text text-anchor="middle" x="1870.55" y="-86.3" font-family="Times,serif" font-size="14.00">:feature:lmu&#45;windows&#45;connection</text>
</g>
<!-- :feature:lmu&#45;windows&#45;connection&#45;&gt;:core:domain -->
<g id="edge8" class="edge">
<title>:feature:lmu&#45;windows&#45;connection&#45;&gt;:core:domain</title>
<path fill="none" stroke="black" d="M1985.14,-77.06C2004.94,-75.21 2025.33,-73.44 2044.55,-72 2390.86,-46.02 2804.86,-28.57 2975.75,-21.96"/>
<polygon fill="black" stroke="black" points="2976.06,-25.45 2985.92,-21.57 2975.79,-18.46 2976.06,-25.45"/>
</g>
<!-- :feature:lmu&#45;windows&#45;narrator -->
<g id="node10" class="node">
<title>:feature:lmu&#45;windows&#45;narrator</title>
<ellipse fill="none" stroke="black" cx="2206.55" cy="-90" rx="153.27" ry="18"/>
<text text-anchor="middle" x="2206.55" y="-86.3" font-family="Times,serif" font-size="14.00">:feature:lmu&#45;windows&#45;narrator</text>
</g>
<!-- :feature:lmu&#45;windows&#45;narrator&#45;&gt;:core:domain -->
<g id="edge9" class="edge">
<title>:feature:lmu&#45;windows&#45;narrator&#45;&gt;:core:domain</title>
<path fill="none" stroke="black" d="M2315,-77.2C2332.88,-75.38 2351.23,-73.58 2368.55,-72 2589.22,-51.91 2850.23,-33.15 2977.67,-24.31"/>
<polygon fill="black" stroke="black" points="2977.99,-27.79 2987.72,-23.61 2977.51,-20.81 2977.99,-27.79"/>
</g>
<!-- :feature:lmu&#45;windows&#45;readout&#45;flag&#45;detail -->
<g id="node11" class="node">
<title>:feature:lmu&#45;windows&#45;readout&#45;flag&#45;detail</title>
<ellipse fill="none" stroke="black" cx="2577.55" cy="-90" rx="199.56" ry="18"/>
<text text-anchor="middle" x="2577.55" y="-86.3" font-family="Times,serif" font-size="14.00">:feature:lmu&#45;windows&#45;readout&#45;flag&#45;detail</text>
</g>
<!-- :feature:lmu&#45;windows&#45;readout&#45;flag&#45;detail&#45;&gt;:core:domain -->
<g id="edge10" class="edge">
<title>:feature:lmu&#45;windows&#45;readout&#45;flag&#45;detail&#45;&gt;:core:domain</title>
<path fill="none" stroke="black" d="M2677.46,-74.37C2769.71,-60.86 2904.37,-41.14 2985.62,-29.24"/>
<polygon fill="black" stroke="black" points="2986.35,-32.67 2995.74,-27.76 2985.34,-25.74 2986.35,-32.67"/>
</g>
<!-- :feature:lmu&#45;windows&#45;readout&#45;vehicle&#45;approach&#45;detail -->
<g id="node12" class="node">
<title>:feature:lmu&#45;windows&#45;readout&#45;vehicle&#45;approach&#45;detail</title>
<ellipse fill="none" stroke="black" cx="3055.55" cy="-90" rx="260.75" ry="18"/>
<text text-anchor="middle" x="3055.55" y="-86.3" font-family="Times,serif" font-size="14.00">:feature:lmu&#45;windows&#45;readout&#45;vehicle&#45;approach&#45;detail</text>
</g>
<!-- :feature:lmu&#45;windows&#45;readout&#45;vehicle&#45;approach&#45;detail&#45;&gt;:core:domain -->
<g id="edge11" class="edge">
<title>:feature:lmu&#45;windows&#45;readout&#45;vehicle&#45;approach&#45;detail&#45;&gt;:core:domain</title>
<path fill="none" stroke="black" d="M3055.55,-71.7C3055.55,-63.98 3055.55,-54.71 3055.55,-46.11"/>
<polygon fill="black" stroke="black" points="3059.05,-46.1 3055.55,-36.1 3052.05,-46.1 3059.05,-46.1"/>
</g>
<!-- :feature:lmu&#45;windows&#45;readout&#45;vehicle&#45;damage&#45;detail -->
<g id="node13" class="node">
<title>:feature:lmu&#45;windows&#45;readout&#45;vehicle&#45;damage&#45;detail</title>
<ellipse fill="none" stroke="black" cx="3588.55" cy="-90" rx="254.55" ry="18"/>
<text text-anchor="middle" x="3588.55" y="-86.3" font-family="Times,serif" font-size="14.00">:feature:lmu&#45;windows&#45;readout&#45;vehicle&#45;damage&#45;detail</text>
</g>
<!-- :feature:lmu&#45;windows&#45;readout&#45;vehicle&#45;damage&#45;detail&#45;&gt;:core:domain -->
<g id="edge12" class="edge">
<title>:feature:lmu&#45;windows&#45;readout&#45;vehicle&#45;damage&#45;detail&#45;&gt;:core:domain</title>
<path fill="none" stroke="black" d="M3473.55,-73.9C3368.2,-60.06 3215.56,-40.02 3126.84,-28.36"/>
<polygon fill="black" stroke="black" points="3127.25,-24.89 3116.88,-27.05 3126.33,-31.83 3127.25,-24.89"/>
</g>
<!-- :feature:main -->
<g id="node14" class="node">
<title>:feature:main</title>
<ellipse fill="none" stroke="black" cx="3934.55" cy="-90" rx="73.39" ry="18"/>
<text text-anchor="middle" x="3934.55" y="-86.3" font-family="Times,serif" font-size="14.00">:feature:main</text>
</g>
<!-- :feature:main&#45;&gt;:core:domain -->
<g id="edge13" class="edge">
<title>:feature:main&#45;&gt;:core:domain</title>
<path fill="none" stroke="black" d="M3882.68,-77.12C3872.72,-75.16 3862.34,-73.33 3852.55,-72 3592.06,-36.51 3280.31,-24.52 3136.06,-20.68"/>
<polygon fill="black" stroke="black" points="3136.06,-17.18 3125.97,-20.42 3135.88,-24.18 3136.06,-17.18"/>
</g>
<!-- :feature:other&#45;console&#45;ip&#45;detail -->
<g id="node15" class="node">
<title>:feature:other&#45;console&#45;ip&#45;detail</title>
<ellipse fill="none" stroke="black" cx="4179.55" cy="-90" rx="153.27" ry="18"/>
<text text-anchor="middle" x="4179.55" y="-86.3" font-family="Times,serif" font-size="14.00">:feature:other&#45;console&#45;ip&#45;detail</text>
</g>
<!-- :feature:other&#45;console&#45;ip&#45;detail&#45;&gt;:core:domain -->
<g id="edge14" class="edge">
<title>:feature:other&#45;console&#45;ip&#45;detail&#45;&gt;:core:domain</title>
<path fill="none" stroke="black" d="M4072.21,-77.05C4053.66,-75.2 4034.56,-73.43 4016.55,-72 3689.84,-45.97 3299.62,-28.71 3135.01,-22.07"/>
<polygon fill="black" stroke="black" points="3135.1,-18.57 3124.97,-21.66 3134.82,-25.56 3135.1,-18.57"/>
</g>
<!-- :feature:other&#45;keep&#45;screen&#45;on&#45;detail -->
<g id="node16" class="node">
<title>:feature:other&#45;keep&#45;screen&#45;on&#45;detail</title>
<ellipse fill="none" stroke="black" cx="4527.55" cy="-90" rx="176.57" ry="18"/>
<text text-anchor="middle" x="4527.55" y="-86.3" font-family="Times,serif" font-size="14.00">:feature:other&#45;keep&#45;screen&#45;on&#45;detail</text>
</g>
<!-- :feature:other&#45;keep&#45;screen&#45;on&#45;detail&#45;&gt;:core:domain -->
<g id="edge15" class="edge">
<title>:feature:other&#45;keep&#45;screen&#45;on&#45;detail&#45;&gt;:core:domain</title>
<path fill="none" stroke="black" d="M4405.55,-76.97C4384.23,-75.12 4362.25,-73.37 4341.55,-72 3885.98,-41.81 3338.41,-26.05 3135.91,-20.92"/>
<polygon fill="black" stroke="black" points="3135.75,-17.41 3125.66,-20.66 3135.57,-24.41 3135.75,-17.41"/>
</g>
<!-- :feature:other&#45;list -->
<g id="node17" class="node">
<title>:feature:other&#45;list</title>
<ellipse fill="none" stroke="black" cx="4815.55" cy="-90" rx="92.88" ry="18"/>
<text text-anchor="middle" x="4815.55" y="-86.3" font-family="Times,serif" font-size="14.00">:feature:other&#45;list</text>
</g>
<!-- :feature:other&#45;list&#45;&gt;:core:domain -->
<g id="edge16" class="edge">
<title>:feature:other&#45;list&#45;&gt;:core:domain</title>
<path fill="none" stroke="black" d="M4751.24,-76.95C4738.78,-74.99 4725.78,-73.21 4713.55,-72 4402.14,-41.21 3424.67,-24.5 3136.35,-20.16"/>
<polygon fill="black" stroke="black" points="3136.04,-16.65 3125.98,-20 3135.93,-23.65 3136.04,-16.65"/>
</g>
<!-- :feature:other&#45;readout&#45;start&#45;sound&#45;detail -->
<g id="node18" class="node">
<title>:feature:other&#45;readout&#45;start&#45;sound&#45;detail</title>
<ellipse fill="none" stroke="black" cx="5125.55" cy="-90" rx="199.56" ry="18"/>
<text text-anchor="middle" x="5125.55" y="-86.3" font-family="Times,serif" font-size="14.00">:feature:other&#45;readout&#45;start&#45;sound&#45;detail</text>
</g>
<!-- :feature:other&#45;readout&#45;start&#45;sound&#45;detail&#45;&gt;:core:domain -->
<g id="edge17" class="edge">
<title>:feature:other&#45;readout&#45;start&#45;sound&#45;detail&#45;&gt;:core:domain</title>
<path fill="none" stroke="black" d="M4989.4,-76.83C4965.47,-74.99 4940.79,-73.28 4917.55,-72 4228.87,-34.08 3395.32,-22.56 3136.28,-19.77"/>
<polygon fill="black" stroke="black" points="3136.24,-16.27 3126.2,-19.66 3136.17,-23.27 3136.24,-16.27"/>
</g>
<!-- :feature:other&#45;server&#45;ip&#45;detail -->
<g id="node19" class="node">
<title>:feature:other&#45;server&#45;ip&#45;detail</title>
<ellipse fill="none" stroke="black" cx="5491.55" cy="-90" rx="148.67" ry="18"/>
<text text-anchor="middle" x="5491.55" y="-86.3" font-family="Times,serif" font-size="14.00">:feature:other&#45;server&#45;ip&#45;detail</text>
</g>
<!-- :feature:other&#45;server&#45;ip&#45;detail&#45;&gt;:core:domain -->
<g id="edge18" class="edge">
<title>:feature:other&#45;server&#45;ip&#45;detail&#45;&gt;:core:domain</title>
<path fill="none" stroke="black" d="M5390.31,-76.77C5371.78,-74.89 5352.6,-73.19 5334.55,-72 4893.75,-43.06 3488.74,-24.29 3136.32,-19.96"/>
<polygon fill="black" stroke="black" points="3136.24,-16.46 3126.2,-19.84 3136.16,-23.46 3136.24,-16.46"/>
</g>
<!-- :feature:other&#45;volume&#45;detail -->
<g id="node20" class="node">
<title>:feature:other&#45;volume&#45;detail</title>
<ellipse fill="none" stroke="black" cx="5799.55" cy="-90" rx="141.07" ry="18"/>
<text text-anchor="middle" x="5799.55" y="-86.3" font-family="Times,serif" font-size="14.00">:feature:other&#45;volume&#45;detail</text>
</g>
<!-- :feature:other&#45;volume&#45;detail&#45;&gt;:core:domain -->
<g id="edge19" class="edge">
<title>:feature:other&#45;volume&#45;detail&#45;&gt;:core:domain</title>
<path fill="none" stroke="black" d="M5703.64,-76.8C5685.69,-74.89 5667.07,-73.17 5649.55,-72 5143.06,-38.2 3517.77,-22.83 3136.25,-19.64"/>
<polygon fill="black" stroke="black" points="3136.16,-16.14 3126.13,-19.56 3136.1,-23.14 3136.16,-16.14"/>
</g>
<!-- :feature:readout&#45;list -->
<g id="node21" class="node">
<title>:feature:readout&#45;list</title>
<ellipse fill="none" stroke="black" cx="6062.55" cy="-90" rx="103.98" ry="18"/>
<text text-anchor="middle" x="6062.55" y="-86.3" font-family="Times,serif" font-size="14.00">:feature:readout&#45;list</text>
</g>
<!-- :feature:readout&#45;list&#45;&gt;:core:domain -->
<g id="edge20" class="edge">
<title>:feature:readout&#45;list&#45;&gt;:core:domain</title>
<path fill="none" stroke="black" d="M5991.28,-76.83C5977.47,-74.88 5963.09,-73.14 5949.55,-72 5381.24,-24.25 3545.62,-19.51 3136.77,-19.05"/>
<polygon fill="black" stroke="black" points="3136.52,-15.55 3126.51,-19.04 3136.51,-22.55 3136.52,-15.55"/>
</g>
<!-- :feature:server&#45;connection -->
<g id="node22" class="node">
<title>:feature:server&#45;connection</title>
<ellipse fill="none" stroke="black" cx="6317.55" cy="-90" rx="133.48" ry="18"/>
<text text-anchor="middle" x="6317.55" y="-86.3" font-family="Times,serif" font-size="14.00">:feature:server&#45;connection</text>
</g>
<!-- :feature:server&#45;connection&#45;&gt;:core:domain -->
<g id="edge21" class="edge">
<title>:feature:server&#45;connection&#45;&gt;:core:domain</title>
<path fill="none" stroke="black" d="M6226.77,-76.73C6209.78,-74.84 6192.14,-73.13 6175.55,-72 5558.99,-29.97 3563.37,-20.76 3136.41,-19.25"/>
<polygon fill="black" stroke="black" points="3136.33,-15.75 3126.32,-19.22 3136.31,-22.75 3136.33,-15.75"/>
</g>
</g>
</svg>
