<?xml version="1.0" encoding="UTF-8" standalone="no"?>
<!DOCTYPE svg PUBLIC "-//W3C//DTD SVG 1.1//EN"
 "http://www.w3.org/Graphics/SVG/1.1/DTD/svg11.dtd">
<!-- Generated by graphviz version 2.43.0 (0)
 -->
<!-- Title: G Pages: 1 -->
<svg width="6164pt" height="116pt"
 viewBox="0.00 0.00 6164.38 116.00" xmlns="http://www.w3.org/2000/svg" xmlns:xlink="http://www.w3.org/1999/xlink">
<g id="graph0" class="graph" transform="scale(1 1) rotate(0) translate(4 112)">
<title>G</title>
<polygon fill="white" stroke="transparent" points="-4,4 -4,-112 6160.38,-112 6160.38,4 -4,4"/>
<!-- :feature:gt7&#45;ps5&#45;narrator -->
<g id="node1" class="node">
<title>:feature:gt7&#45;ps5&#45;narrator</title>
<ellipse fill="none" stroke="black" cx="127.39" cy="-90" rx="127.28" ry="18"/>
<text text-anchor="middle" x="127.39" y="-86.3" font-family="Times,serif" font-size="14.00">:feature:gt7&#45;ps5&#45;narrator</text>
</g>
<!-- :core:designsystem -->
<g id="node2" class="node">
<title>:core:designsystem</title>
<ellipse fill="none" stroke="black" cx="3663.39" cy="-18" rx="100.98" ry="18"/>
<text text-anchor="middle" x="3663.39" y="-14.3" font-family="Times,serif" font-size="14.00">:core:designsystem</text>
</g>
<!-- :feature:gt7&#45;ps5&#45;narrator&#45;&gt;:core:designsystem -->
<g id="edge1" class="edge">
<title>:feature:gt7&#45;ps5&#45;narrator&#45;&gt;:core:designsystem</title>
<path fill="none" stroke="black" d="M213.95,-76.75C230.34,-74.84 247.37,-73.12 263.39,-72 924.67,-25.65 3042.32,-19.83 3552.19,-19.1"/>
<polygon fill="black" stroke="black" points="3552.49,-22.6 3562.49,-19.09 3552.48,-15.6 3552.49,-22.6"/>
</g>
<!-- :feature:gt7&#45;ps5&#45;readout&#45;my&#45;bestlap&#45;detail -->
<g id="node3" class="node">
<title>:feature:gt7&#45;ps5&#45;readout&#45;my&#45;bestlap&#45;detail</title>
<ellipse fill="none" stroke="black" cx="480.39" cy="-90" rx="207.96" ry="18"/>
<text text-anchor="middle" x="480.39" y="-86.3" font-family="Times,serif" font-size="14.00">:feature:gt7&#45;ps5&#45;readout&#45;my&#45;bestlap&#45;detail</text>
</g>
<!-- :feature:gt7&#45;ps5&#45;readout&#45;my&#45;bestlap&#45;detail&#45;&gt;:core:designsystem -->
<g id="edge2" class="edge">
<title>:feature:gt7&#45;ps5&#45;readout&#45;my&#45;bestlap&#45;detail&#45;&gt;:core:designsystem</title>
<path fill="none" stroke="black" d="M621.26,-76.72C646.59,-74.87 672.76,-73.18 697.39,-72 1810.56,-18.5 3161.07,-17.58 3552.31,-18.57"/>
<polygon fill="black" stroke="black" points="3552.48,-22.07 3562.49,-18.6 3552.5,-15.07 3552.48,-22.07"/>
</g>
<!-- :feature:gt7&#45;ps5&#45;readout&#45;remaining&#45;fuel&#45;laps&#45;detail -->
<g id="node4" class="node">
<title>:feature:gt7&#45;ps5&#45;readout&#45;remaining&#45;fuel&#45;laps&#45;detail</title>
<ellipse fill="none" stroke="black" cx="952.39" cy="-90" rx="246.16" ry="18"/>
<text text-anchor="middle" x="952.39" y="-86.3" font-family="Times,serif" font-size="14.00">:feature:gt7&#45;ps5&#45;readout&#45;remaining&#45;fuel&#45;laps&#45;detail</text>
</g>
<!-- :feature:gt7&#45;ps5&#45;readout&#45;remaining&#45;fuel&#45;laps&#45;detail&#45;&gt;:core:designsystem -->
<g id="edge3" class="edge">
<title>:feature:gt7&#45;ps5&#45;readout&#45;remaining&#45;fuel&#45;laps&#45;detail&#45;&gt;:core:designsystem</title>
<path fill="none" stroke="black" d="M1119.99,-76.79C1149.43,-74.95 1179.8,-73.26 1208.39,-72 2113.03,-32.22 3206.55,-21.96 3552.76,-19.63"/>
<polygon fill="black" stroke="black" points="3552.81,-23.13 3562.78,-19.56 3552.76,-16.13 3552.81,-23.13"/>
</g>
<!-- :feature:lmu&#45;windows&#45;narrator -->
<g id="node5" class="node">
<title>:feature:lmu&#45;windows&#45;narrator</title>
<ellipse fill="none" stroke="black" cx="1370.39" cy="-90" rx="153.27" ry="18"/>
<text text-anchor="middle" x="1370.39" y="-86.3" font-family="Times,serif" font-size="14.00">:feature:lmu&#45;windows&#45;narrator</text>
</g>
<!-- :feature:lmu&#45;windows&#45;narrator&#45;&gt;:core:designsystem -->
<g id="edge4" class="edge">
<title>:feature:lmu&#45;windows&#45;narrator&#45;&gt;:core:designsystem</title>
<path fill="none" stroke="black" d="M1474.86,-76.8C1493.97,-74.92 1513.76,-73.21 1532.39,-72 2304.39,-21.97 3236.53,-18.31 3552.52,-18.65"/>
<polygon fill="black" stroke="black" points="3552.59,-22.15 3562.59,-18.66 3552.6,-15.15 3552.59,-22.15"/>
</g>
<!-- :feature:lmu&#45;windows&#45;readout&#45;flag&#45;detail -->
<g id="node6" class="node">
<title>:feature:lmu&#45;windows&#45;readout&#45;flag&#45;detail</title>
<ellipse fill="none" stroke="black" cx="1741.39" cy="-90" rx="199.56" ry="18"/>
<text text-anchor="middle" x="1741.39" y="-86.3" font-family="Times,serif" font-size="14.00">:feature:lmu&#45;windows&#45;readout&#45;flag&#45;detail</text>
</g>
<!-- :feature:lmu&#45;windows&#45;readout&#45;flag&#45;detail&#45;&gt;:core:designsystem -->
<g id="edge5" class="edge">
<title>:feature:lmu&#45;windows&#45;readout&#45;flag&#45;detail&#45;&gt;:core:designsystem</title>
<path fill="none" stroke="black" d="M1878.2,-76.88C1902.24,-75.03 1927.04,-73.31 1950.39,-72 2554.95,-38.08 3280.85,-24.6 3553.11,-20.49"/>
<polygon fill="black" stroke="black" points="3553.45,-23.99 3563.39,-20.34 3553.34,-16.99 3553.45,-23.99"/>
</g>
<!-- :feature:lmu&#45;windows&#45;readout&#45;my&#45;bestlap&#45;detail -->
<g id="node7" class="node">
<title>:feature:lmu&#45;windows&#45;readout&#45;my&#45;bestlap&#45;detail</title>
<ellipse fill="none" stroke="black" cx="2192.39" cy="-90" rx="233.16" ry="18"/>
<text text-anchor="middle" x="2192.39" y="-86.3" font-family="Times,serif" font-size="14.00">:feature:lmu&#45;windows&#45;readout&#45;my&#45;bestlap&#45;detail</text>
</g>
<!-- :feature:lmu&#45;windows&#45;readout&#45;my&#45;bestlap&#45;detail&#45;&gt;:core:designsystem -->
<g id="edge6" class="edge">
<title>:feature:lmu&#45;windows&#45;readout&#45;my&#45;bestlap&#45;detail&#45;&gt;:core:designsystem</title>
<path fill="none" stroke="black" d="M2354.42,-77.01C2381.13,-75.21 2408.53,-73.47 2434.39,-72 2848.2,-48.55 3340.91,-30.19 3555.07,-22.69"/>
<polygon fill="black" stroke="black" points="3555.5,-26.17 3565.37,-22.33 3555.25,-19.18 3555.5,-26.17"/>
</g>
<!-- :feature:lmu&#45;windows&#45;readout&#45;vehicle&#45;approach&#45;detail -->
<g id="node8" class="node">
<title>:feature:lmu&#45;windows&#45;readout&#45;vehicle&#45;approach&#45;detail</title>
<ellipse fill="none" stroke="black" cx="2704.39" cy="-90" rx="260.75" ry="18"/>
<text text-anchor="middle" x="2704.39" y="-86.3" font-family="Times,serif" font-size="14.00">:feature:lmu&#45;windows&#45;readout&#45;vehicle&#45;approach&#45;detail</text>
</g>
<!-- :feature:lmu&#45;windows&#45;readout&#45;vehicle&#45;approach&#45;detail&#45;&gt;:core:designsystem -->
<g id="edge7" class="edge">
<title>:feature:lmu&#45;windows&#45;readout&#45;vehicle&#45;approach&#45;detail&#45;&gt;:core:designsystem</title>
<path fill="none" stroke="black" d="M2876.39,-76.45C3076.09,-61.87 3398.87,-38.31 3562.03,-26.4"/>
<polygon fill="black" stroke="black" points="3562.35,-29.88 3572.07,-25.67 3561.84,-22.9 3562.35,-29.88"/>
</g>
<!-- :feature:lmu&#45;windows&#45;readout&#45;vehicle&#45;damage&#45;detail -->
<g id="node9" class="node">
<title>:feature:lmu&#45;windows&#45;readout&#45;vehicle&#45;damage&#45;detail</title>
<ellipse fill="none" stroke="black" cx="3237.39" cy="-90" rx="254.55" ry="18"/>
<text text-anchor="middle" x="3237.39" y="-86.3" font-family="Times,serif" font-size="14.00">:feature:lmu&#45;windows&#45;readout&#45;vehicle&#45;damage&#45;detail</text>
</g>
<!-- :feature:lmu&#45;windows&#45;readout&#45;vehicle&#45;damage&#45;detail&#45;&gt;:core:designsystem -->
<g id="edge8" class="edge">
<title>:feature:lmu&#45;windows&#45;readout&#45;vehicle&#45;damage&#45;detail&#45;&gt;:core:designsystem</title>
<path fill="none" stroke="black" d="M3332.99,-73.29C3407.81,-61 3510.74,-44.08 3581.73,-32.42"/>
<polygon fill="black" stroke="black" points="3582.67,-35.81 3591.97,-30.74 3581.53,-28.9 3582.67,-35.81"/>
</g>
<!-- :feature:other&#45;console&#45;ip&#45;detail -->
<g id="node10" class="node">
<title>:feature:other&#45;console&#45;ip&#45;detail</title>
<ellipse fill="none" stroke="black" cx="3663.39" cy="-90" rx="153.27" ry="18"/>
<text text-anchor="middle" x="3663.39" y="-86.3" font-family="Times,serif" font-size="14.00">:feature:other&#45;console&#45;ip&#45;detail</text>
</g>
<!-- :feature:other&#45;console&#45;ip&#45;detail&#45;&gt;:core:designsystem -->
<g id="edge9" class="edge">
<title>:feature:other&#45;console&#45;ip&#45;detail&#45;&gt;:core:designsystem</title>
<path fill="none" stroke="black" d="M3663.39,-71.7C3663.39,-63.98 3663.39,-54.71 3663.39,-46.11"/>
<polygon fill="black" stroke="black" points="3666.89,-46.1 3663.39,-36.1 3659.89,-46.1 3666.89,-46.1"/>
</g>
<!-- :feature:other&#45;license&#45;detail -->
<g id="node11" class="node">
<title>:feature:other&#45;license&#45;detail</title>
<ellipse fill="none" stroke="black" cx="3974.39" cy="-90" rx="139.98" ry="18"/>
<text text-anchor="middle" x="3974.39" y="-86.3" font-family="Times,serif" font-size="14.00">:feature:other&#45;license&#45;detail</text>
</g>
<!-- :feature:other&#45;license&#45;detail&#45;&gt;:core:designsystem -->
<g id="edge10" class="edge">
<title>:feature:other&#45;license&#45;detail&#45;&gt;:core:designsystem</title>
<path fill="none" stroke="black" d="M3908.05,-74.07C3856.6,-62.49 3785.48,-46.48 3733.18,-34.71"/>
<polygon fill="black" stroke="black" points="3733.83,-31.27 3723.31,-32.49 3732.3,-38.1 3733.83,-31.27"/>
</g>
<!-- :feature:other&#45;list -->
<g id="node12" class="node">
<title>:feature:other&#45;list</title>
<ellipse fill="none" stroke="black" cx="4225.39" cy="-90" rx="92.88" ry="18"/>
<text text-anchor="middle" x="4225.39" y="-86.3" font-family="Times,serif" font-size="14.00">:feature:other&#45;list</text>
</g>
<!-- :feature:other&#45;list&#45;&gt;:core:designsystem -->
<g id="edge11" class="edge">
<title>:feature:other&#45;list&#45;&gt;:core:designsystem</title>
<path fill="none" stroke="black" d="M4158.8,-77.4C4147.02,-75.5 4134.85,-73.62 4123.39,-72 3997.81,-54.31 3852.33,-38.3 3759.15,-28.61"/>
<polygon fill="black" stroke="black" points="3759.49,-25.13 3749.18,-27.58 3758.77,-32.09 3759.49,-25.13"/>
</g>
<!-- :feature:other&#45;readout&#45;start&#45;sound&#45;detail -->
<g id="node13" class="node">
<title>:feature:other&#45;readout&#45;start&#45;sound&#45;detail</title>
<ellipse fill="none" stroke="black" cx="4535.39" cy="-90" rx="199.56" ry="18"/>
<text text-anchor="middle" x="4535.39" y="-86.3" font-family="Times,serif" font-size="14.00">:feature:other&#45;readout&#45;start&#45;sound&#45;detail</text>
</g>
<!-- :feature:other&#45;readout&#45;start&#45;sound&#45;detail&#45;&gt;:core:designsystem -->
<g id="edge12" class="edge">
<title>:feature:other&#45;readout&#45;start&#45;sound&#45;detail&#45;&gt;:core:designsystem</title>
<path fill="none" stroke="black" d="M4393.29,-77.35C4371.23,-75.55 4348.7,-73.72 4327.39,-72 4127.48,-55.85 3893.69,-37.26 3763.67,-26.94"/>
<polygon fill="black" stroke="black" points="3763.59,-23.43 3753.34,-26.13 3763.03,-30.41 3763.59,-23.43"/>
</g>
<!-- :feature:other&#45;server&#45;ip&#45;detail -->
<g id="node14" class="node">
<title>:feature:other&#45;server&#45;ip&#45;detail</title>
<ellipse fill="none" stroke="black" cx="4901.39" cy="-90" rx="148.67" ry="18"/>
<text text-anchor="middle" x="4901.39" y="-86.3" font-family="Times,serif" font-size="14.00">:feature:other&#45;server&#45;ip&#45;detail</text>
</g>
<!-- :feature:other&#45;server&#45;ip&#45;detail&#45;&gt;:core:designsystem -->
<g id="edge13" class="edge">
<title>:feature:other&#45;server&#45;ip&#45;detail&#45;&gt;:core:designsystem</title>
<path fill="none" stroke="black" d="M4798.44,-76.98C4780.44,-75.12 4761.88,-73.37 4744.39,-72 4389.21,-44.09 3967.16,-28.45 3772.13,-22.21"/>
<polygon fill="black" stroke="black" points="3771.99,-18.71 3761.88,-21.89 3771.77,-25.7 3771.99,-18.71"/>
</g>
<!-- :feature:other&#45;volume&#45;detail -->
<g id="node15" class="node">
<title>:feature:other&#45;volume&#45;detail</title>
<ellipse fill="none" stroke="black" cx="5209.39" cy="-90" rx="141.07" ry="18"/>
<text text-anchor="middle" x="5209.39" y="-86.3" font-family="Times,serif" font-size="14.00">:feature:other&#45;volume&#45;detail</text>
</g>
<!-- :feature:other&#45;volume&#45;detail&#45;&gt;:core:designsystem -->
<g id="edge14" class="edge">
<title>:feature:other&#45;volume&#45;detail&#45;&gt;:core:designsystem</title>
<path fill="none" stroke="black" d="M5112.26,-76.92C5094.68,-75.04 5076.51,-73.29 5059.39,-72 4581.59,-35.91 4009.84,-23.96 3773.71,-20.38"/>
<polygon fill="black" stroke="black" points="3773.46,-16.88 3763.41,-20.23 3773.35,-23.88 3773.46,-16.88"/>
</g>
<!-- :feature:readout&#45;list -->
<g id="node16" class="node">
<title>:feature:readout&#45;list</title>
<ellipse fill="none" stroke="black" cx="5472.39" cy="-90" rx="103.98" ry="18"/>
<text text-anchor="middle" x="5472.39" y="-86.3" font-family="Times,serif" font-size="14.00">:feature:readout&#45;list</text>
</g>
<!-- :feature:readout&#45;list&#45;&gt;:core:designsystem -->
<g id="edge15" class="edge">
<title>:feature:readout&#45;list&#45;&gt;:core:designsystem</title>
<path fill="none" stroke="black" d="M5400.81,-76.93C5387.09,-74.99 5372.82,-73.22 5359.39,-72 5049.92,-43.98 4098.78,-26.15 3773.68,-20.74"/>
<polygon fill="black" stroke="black" points="3773.36,-17.24 3763.31,-20.57 3773.25,-24.24 3773.36,-17.24"/>
</g>
<!-- :feature:telemetry&#45;log&#45;detail -->
<g id="node17" class="node">
<title>:feature:telemetry&#45;log&#45;detail</title>
<ellipse fill="none" stroke="black" cx="5736.39" cy="-90" rx="141.88" ry="18"/>
<text text-anchor="middle" x="5736.39" y="-86.3" font-family="Times,serif" font-size="14.00">:feature:telemetry&#45;log&#45;detail</text>
</g>
<!-- :feature:telemetry&#45;log&#45;detail&#45;&gt;:core:designsystem -->
<g id="edge16" class="edge">
<title>:feature:telemetry&#45;log&#45;detail&#45;&gt;:core:designsystem</title>
<path fill="none" stroke="black" d="M5639.43,-76.86C5621.49,-74.96 5602.89,-73.22 5585.39,-72 4898,-23.91 4069.47,-18.92 3774.36,-18.78"/>
<polygon fill="black" stroke="black" points="3774.09,-15.28 3764.09,-18.78 3774.09,-22.28 3774.09,-15.28"/>
</g>
<!-- :feature:telemetry&#45;log&#45;list -->
<g id="node18" class="node">
<title>:feature:telemetry&#45;log&#45;list</title>
<ellipse fill="none" stroke="black" cx="6026.39" cy="-90" rx="129.98" ry="18"/>
<text text-anchor="middle" x="6026.39" y="-86.3" font-family="Times,serif" font-size="14.00">:feature:telemetry&#45;log&#45;list</text>
</g>
<!-- :feature:telemetry&#45;log&#45;list&#45;&gt;:core:designsystem -->
<g id="edge17" class="edge">
<title>:feature:telemetry&#45;log&#45;list&#45;&gt;:core:designsystem</title>
<path fill="none" stroke="black" d="M5937.53,-76.82C5920.9,-74.91 5903.63,-73.18 5887.39,-72 5469.54,-41.54 4162.64,-24.64 3773.67,-20.2"/>
<polygon fill="black" stroke="black" points="3773.58,-16.7 3763.54,-20.08 3773.5,-23.7 3773.58,-16.7"/>
</g>
</g>
</svg>
