<?xml version="1.0" encoding="UTF-8" standalone="no"?>
<!DOCTYPE svg PUBLIC "-//W3C//DTD SVG 1.1//EN"
 "http://www.w3.org/Graphics/SVG/1.1/DTD/svg11.dtd">
<!-- Generated by graphviz version 2.43.0 (0)
 -->
<!-- Title: G Pages: 1 -->
<svg width="2946pt" height="188pt"
 viewBox="0.00 0.00 2945.54 188.00" xmlns="http://www.w3.org/2000/svg" xmlns:xlink="http://www.w3.org/1999/xlink">
<g id="graph0" class="graph" transform="scale(1 1) rotate(0) translate(4 184)">
<title>G</title>
<polygon fill="white" stroke="transparent" points="-4,4 -4,-184 2941.54,-184 2941.54,4 -4,4"/>
<!-- :server -->
<g id="node1" class="node">
<title>:server</title>
<ellipse fill="none" stroke="black" cx="43.55" cy="-90" rx="43.59" ry="18"/>
<text text-anchor="middle" x="43.55" y="-86.3" font-family="Times,serif" font-size="14.00">:server</text>
</g>
<!-- :core:domain -->
<g id="node2" class="node">
<title>:core:domain</title>
<ellipse fill="none" stroke="black" cx="1125.55" cy="-18" rx="70.69" ry="18"/>
<text text-anchor="middle" x="1125.55" y="-14.3" font-family="Times,serif" font-size="14.00">:core:domain</text>
</g>
<!-- :server&#45;&gt;:core:domain -->
<g id="edge1" class="edge">
<title>:server&#45;&gt;:core:domain</title>
<path fill="none" stroke="black" d="M76.36,-77.94C84.5,-75.59 93.27,-73.41 101.55,-72 282.54,-41.23 836.66,-25.64 1045.12,-20.74"/>
<polygon fill="black" stroke="black" points="1045.46,-24.23 1055.38,-20.5 1045.3,-17.23 1045.46,-24.23"/>
</g>
<!-- :app:desktopApp -->
<g id="node3" class="node">
<title>:app:desktopApp</title>
<ellipse fill="none" stroke="black" cx="157.55" cy="-162" rx="88.28" ry="18"/>
<text text-anchor="middle" x="157.55" y="-158.3" font-family="Times,serif" font-size="14.00">:app:desktopApp</text>
</g>
<!-- :app:desktopApp&#45;&gt;:core:domain -->
<g id="edge3" class="edge">
<title>:app:desktopApp&#45;&gt;:core:domain</title>
<path fill="none" stroke="black" d="M144.95,-143.93C131.96,-124.09 115.99,-91.57 134.55,-72 165.7,-39.14 814.12,-24.5 1044.89,-20.32"/>
<polygon fill="black" stroke="black" points="1044.97,-23.82 1054.9,-20.14 1044.84,-16.82 1044.97,-23.82"/>
</g>
<!-- :core:data -->
<g id="node4" class="node">
<title>:core:data</title>
<ellipse fill="none" stroke="black" cx="200.55" cy="-90" rx="57.39" ry="18"/>
<text text-anchor="middle" x="200.55" y="-86.3" font-family="Times,serif" font-size="14.00">:core:data</text>
</g>
<!-- :app:desktopApp&#45;&gt;:core:data -->
<g id="edge2" class="edge">
<title>:app:desktopApp&#45;&gt;:core:data</title>
<path fill="none" stroke="black" d="M167.96,-144.05C173.03,-135.8 179.23,-125.7 184.86,-116.54"/>
<polygon fill="black" stroke="black" points="187.98,-118.14 190.23,-107.79 182.02,-114.48 187.98,-118.14"/>
</g>
<!-- :core:data&#45;&gt;:core:domain -->
<g id="edge4" class="edge">
<title>:core:data&#45;&gt;:core:domain</title>
<path fill="none" stroke="black" d="M241.13,-77.25C249.48,-75.2 258.25,-73.31 266.55,-72 549.85,-27.19 891.28,-19.78 1044.37,-18.88"/>
<polygon fill="black" stroke="black" points="1044.64,-22.38 1054.62,-18.83 1044.6,-15.38 1044.64,-22.38"/>
</g>
<!-- :feature:lmu&#45;connection -->
<g id="node5" class="node">
<title>:feature:lmu&#45;connection</title>
<ellipse fill="none" stroke="black" cx="396.55" cy="-90" rx="120.78" ry="18"/>
<text text-anchor="middle" x="396.55" y="-86.3" font-family="Times,serif" font-size="14.00">:feature:lmu&#45;connection</text>
</g>
<!-- :feature:lmu&#45;connection&#45;&gt;:core:domain -->
<g id="edge5" class="edge">
<title>:feature:lmu&#45;connection&#45;&gt;:core:domain</title>
<path fill="none" stroke="black" d="M482.15,-77.29C496.94,-75.41 512.18,-73.57 526.55,-72 713.67,-51.5 934.35,-33.58 1048.49,-24.78"/>
<polygon fill="black" stroke="black" points="1048.83,-28.27 1058.53,-24.01 1048.29,-21.29 1048.83,-28.27"/>
</g>
<!-- :feature:lmu&#45;narrator -->
<g id="node6" class="node">
<title>:feature:lmu&#45;narrator</title>
<ellipse fill="none" stroke="black" cx="645.55" cy="-90" rx="109.68" ry="18"/>
<text text-anchor="middle" x="645.55" y="-86.3" font-family="Times,serif" font-size="14.00">:feature:lmu&#45;narrator</text>
</g>
<!-- :feature:lmu&#45;narrator&#45;&gt;:core:domain -->
<g id="edge6" class="edge">
<title>:feature:lmu&#45;narrator&#45;&gt;:core:domain</title>
<path fill="none" stroke="black" d="M724.54,-77.48C816.69,-64.04 967.63,-42.03 1055.68,-29.19"/>
<polygon fill="black" stroke="black" points="1056.44,-32.61 1065.83,-27.71 1055.43,-25.69 1056.44,-32.61"/>
</g>
<!-- :feature:lmu&#45;readout&#45;flag&#45;detail -->
<g id="node7" class="node">
<title>:feature:lmu&#45;readout&#45;flag&#45;detail</title>
<ellipse fill="none" stroke="black" cx="929.55" cy="-90" rx="155.97" ry="18"/>
<text text-anchor="middle" x="929.55" y="-86.3" font-family="Times,serif" font-size="14.00">:feature:lmu&#45;readout&#45;flag&#45;detail</text>
</g>
<!-- :feature:lmu&#45;readout&#45;flag&#45;detail&#45;&gt;:core:domain -->
<g id="edge7" class="edge">
<title>:feature:lmu&#45;readout&#45;flag&#45;detail&#45;&gt;:core:domain</title>
<path fill="none" stroke="black" d="M975.01,-72.76C1005.41,-61.9 1045.41,-47.62 1076.53,-36.51"/>
<polygon fill="black" stroke="black" points="1078.05,-39.68 1086.29,-33.02 1075.7,-33.09 1078.05,-39.68"/>
</g>
<!-- :feature:lmu&#45;readout&#45;vehicle&#45;approach&#45;detail -->
<g id="node8" class="node">
<title>:feature:lmu&#45;readout&#45;vehicle&#45;approach&#45;detail</title>
<ellipse fill="none" stroke="black" cx="1321.55" cy="-90" rx="217.96" ry="18"/>
<text text-anchor="middle" x="1321.55" y="-86.3" font-family="Times,serif" font-size="14.00">:feature:lmu&#45;readout&#45;vehicle&#45;approach&#45;detail</text>
</g>
<!-- :feature:lmu&#45;readout&#45;vehicle&#45;approach&#45;detail&#45;&gt;:core:domain -->
<g id="edge8" class="edge">
<title>:feature:lmu&#45;readout&#45;vehicle&#45;approach&#45;detail&#45;&gt;:core:domain</title>
<path fill="none" stroke="black" d="M1275.1,-72.41C1244.86,-61.61 1205.47,-47.55 1174.71,-36.56"/>
<polygon fill="black" stroke="black" points="1175.64,-33.17 1165.05,-33.11 1173.29,-39.77 1175.64,-33.17"/>
</g>
<!-- :feature:lmu&#45;readout&#45;vehicle&#45;damage&#45;detail -->
<g id="node9" class="node">
<title>:feature:lmu&#45;readout&#45;vehicle&#45;damage&#45;detail</title>
<ellipse fill="none" stroke="black" cx="1768.55" cy="-90" rx="211.46" ry="18"/>
<text text-anchor="middle" x="1768.55" y="-86.3" font-family="Times,serif" font-size="14.00">:feature:lmu&#45;readout&#45;vehicle&#45;damage&#45;detail</text>
</g>
<!-- :feature:lmu&#45;readout&#45;vehicle&#45;damage&#45;detail&#45;&gt;:core:domain -->
<g id="edge9" class="edge">
<title>:feature:lmu&#45;readout&#45;vehicle&#45;damage&#45;detail&#45;&gt;:core:domain</title>
<path fill="none" stroke="black" d="M1643.81,-75.42C1511.84,-61.05 1308.01,-38.86 1199.48,-27.05"/>
<polygon fill="black" stroke="black" points="1199.6,-23.54 1189.28,-25.94 1198.84,-30.5 1199.6,-23.54"/>
</g>
<!-- :feature:other&#45;detail -->
<g id="node10" class="node">
<title>:feature:other&#45;detail</title>
<ellipse fill="none" stroke="black" cx="2102.55" cy="-90" rx="104.78" ry="18"/>
<text text-anchor="middle" x="2102.55" y="-86.3" font-family="Times,serif" font-size="14.00">:feature:other&#45;detail</text>
</g>
<!-- :feature:other&#45;detail&#45;&gt;:core:domain -->
<g id="edge10" class="edge">
<title>:feature:other&#45;detail&#45;&gt;:core:domain</title>
<path fill="none" stroke="black" d="M2029.38,-77.13C2015.83,-75.21 2001.78,-73.39 1988.55,-72 1701.24,-41.81 1358.18,-27.06 1205.57,-21.6"/>
<polygon fill="black" stroke="black" points="1205.47,-18.09 1195.35,-21.23 1205.22,-25.09 1205.47,-18.09"/>
</g>
<!-- :feature:other&#45;list -->
<g id="node11" class="node">
<title>:feature:other&#45;list</title>
<ellipse fill="none" stroke="black" cx="2318.55" cy="-90" rx="92.88" ry="18"/>
<text text-anchor="middle" x="2318.55" y="-86.3" font-family="Times,serif" font-size="14.00">:feature:other&#45;list</text>
</g>
<!-- :feature:other&#45;list&#45;&gt;:core:domain -->
<g id="edge11" class="edge">
<title>:feature:other&#45;list&#45;&gt;:core:domain</title>
<path fill="none" stroke="black" d="M2253.68,-77.02C2241.38,-75.08 2228.6,-73.29 2216.55,-72 1840.38,-31.66 1387.93,-22 1206.54,-19.71"/>
<polygon fill="black" stroke="black" points="1206.33,-16.21 1196.29,-19.58 1206.24,-23.21 1206.33,-16.21"/>
</g>
<!-- :feature:other&#45;volume&#45;detail -->
<g id="node12" class="node">
<title>:feature:other&#45;volume&#45;detail</title>
<ellipse fill="none" stroke="black" cx="2570.55" cy="-90" rx="141.07" ry="18"/>
<text text-anchor="middle" x="2570.55" y="-86.3" font-family="Times,serif" font-size="14.00">:feature:other&#45;volume&#45;detail</text>
</g>
<!-- :feature:other&#45;volume&#45;detail&#45;&gt;:core:domain -->
<g id="edge12" class="edge">
<title>:feature:other&#45;volume&#45;detail&#45;&gt;:core:domain</title>
<path fill="none" stroke="black" d="M2473.01,-76.92C2455.56,-75.05 2437.53,-73.31 2420.55,-72 1961.92,-36.67 1409.99,-23.97 1206.21,-20.29"/>
<polygon fill="black" stroke="black" points="1206.25,-16.79 1196.19,-20.11 1206.13,-23.78 1206.25,-16.79"/>
</g>
<!-- :feature:readout&#45;list -->
<g id="node13" class="node">
<title>:feature:readout&#45;list</title>
<ellipse fill="none" stroke="black" cx="2833.55" cy="-90" rx="103.98" ry="18"/>
<text text-anchor="middle" x="2833.55" y="-86.3" font-family="Times,serif" font-size="14.00">:feature:readout&#45;list</text>
</g>
<!-- :feature:readout&#45;list&#45;&gt;:core:domain -->
<g id="edge13" class="edge">
<title>:feature:readout&#45;list&#45;&gt;:core:domain</title>
<path fill="none" stroke="black" d="M2761.66,-76.91C2748.04,-74.98 2733.88,-73.22 2720.55,-72 2142.15,-19.06 1441.48,-17.28 1206.64,-18.38"/>
<polygon fill="black" stroke="black" points="1206.46,-14.88 1196.48,-18.43 1206.49,-21.88 1206.46,-14.88"/>
</g>
</g>
</svg>
