<?xml version="1.0" encoding="UTF-8" standalone="no"?>
<!DOCTYPE svg PUBLIC "-//W3C//DTD SVG 1.1//EN"
 "http://www.w3.org/Graphics/SVG/1.1/DTD/svg11.dtd">
<!-- Generated by graphviz version 2.43.0 (0)
 -->
<!-- Title: G Pages: 1 -->
<svg width="2680pt" height="116pt"
 viewBox="0.00 0.00 2679.54 116.00" xmlns="http://www.w3.org/2000/svg" xmlns:xlink="http://www.w3.org/1999/xlink">
<g id="graph0" class="graph" transform="scale(1 1) rotate(0) translate(4 112)">
<title>G</title>
<polygon fill="white" stroke="transparent" points="-4,4 -4,-112 2675.54,-112 2675.54,4 -4,4"/>
<!-- :server -->
<g id="node1" class="node">
<title>:server</title>
<ellipse fill="none" stroke="black" cx="43.55" cy="-90" rx="43.59" ry="18"/>
<text text-anchor="middle" x="43.55" y="-86.3" font-family="Times,serif" font-size="14.00">:server</text>
</g>
<!-- :core:domain -->
<g id="node2" class="node">
<title>:core:domain</title>
<ellipse fill="none" stroke="black" cx="1087.55" cy="-18" rx="70.69" ry="18"/>
<text text-anchor="middle" x="1087.55" y="-14.3" font-family="Times,serif" font-size="14.00">:core:domain</text>
</g>
<!-- :server&#45;&gt;:core:domain -->
<g id="edge1" class="edge">
<title>:server&#45;&gt;:core:domain</title>
<path fill="none" stroke="black" d="M74.88,-77.49C81.92,-75.31 89.42,-73.31 96.55,-72 270.58,-39.99 803.34,-25.23 1007.12,-20.64"/>
<polygon fill="black" stroke="black" points="1007.24,-24.14 1017.16,-20.42 1007.08,-17.14 1007.24,-24.14"/>
</g>
<!-- :core:data -->
<g id="node3" class="node">
<title>:core:data</title>
<ellipse fill="none" stroke="black" cx="162.55" cy="-90" rx="57.39" ry="18"/>
<text text-anchor="middle" x="162.55" y="-86.3" font-family="Times,serif" font-size="14.00">:core:data</text>
</g>
<!-- :core:data&#45;&gt;:core:domain -->
<g id="edge2" class="edge">
<title>:core:data&#45;&gt;:core:domain</title>
<path fill="none" stroke="black" d="M203.13,-77.25C211.48,-75.2 220.25,-73.31 228.55,-72 511.85,-27.19 853.28,-19.78 1006.37,-18.88"/>
<polygon fill="black" stroke="black" points="1006.64,-22.38 1016.62,-18.83 1006.6,-15.38 1006.64,-22.38"/>
</g>
<!-- :feature:lmu&#45;connection -->
<g id="node4" class="node">
<title>:feature:lmu&#45;connection</title>
<ellipse fill="none" stroke="black" cx="358.55" cy="-90" rx="120.78" ry="18"/>
<text text-anchor="middle" x="358.55" y="-86.3" font-family="Times,serif" font-size="14.00">:feature:lmu&#45;connection</text>
</g>
<!-- :feature:lmu&#45;connection&#45;&gt;:core:domain -->
<g id="edge3" class="edge">
<title>:feature:lmu&#45;connection&#45;&gt;:core:domain</title>
<path fill="none" stroke="black" d="M444.15,-77.29C458.94,-75.41 474.18,-73.57 488.55,-72 675.67,-51.5 896.35,-33.58 1010.49,-24.78"/>
<polygon fill="black" stroke="black" points="1010.83,-28.27 1020.53,-24.01 1010.29,-21.29 1010.83,-28.27"/>
</g>
<!-- :feature:lmu&#45;narrator -->
<g id="node5" class="node">
<title>:feature:lmu&#45;narrator</title>
<ellipse fill="none" stroke="black" cx="607.55" cy="-90" rx="109.68" ry="18"/>
<text text-anchor="middle" x="607.55" y="-86.3" font-family="Times,serif" font-size="14.00">:feature:lmu&#45;narrator</text>
</g>
<!-- :feature:lmu&#45;narrator&#45;&gt;:core:domain -->
<g id="edge4" class="edge">
<title>:feature:lmu&#45;narrator&#45;&gt;:core:domain</title>
<path fill="none" stroke="black" d="M686.54,-77.48C778.69,-64.04 929.63,-42.03 1017.68,-29.19"/>
<polygon fill="black" stroke="black" points="1018.44,-32.61 1027.83,-27.71 1017.43,-25.69 1018.44,-32.61"/>
</g>
<!-- :feature:lmu&#45;readout&#45;flag&#45;detail -->
<g id="node6" class="node">
<title>:feature:lmu&#45;readout&#45;flag&#45;detail</title>
<ellipse fill="none" stroke="black" cx="891.55" cy="-90" rx="155.97" ry="18"/>
<text text-anchor="middle" x="891.55" y="-86.3" font-family="Times,serif" font-size="14.00">:feature:lmu&#45;readout&#45;flag&#45;detail</text>
</g>
<!-- :feature:lmu&#45;readout&#45;flag&#45;detail&#45;&gt;:core:domain -->
<g id="edge5" class="edge">
<title>:feature:lmu&#45;readout&#45;flag&#45;detail&#45;&gt;:core:domain</title>
<path fill="none" stroke="black" d="M937.01,-72.76C967.41,-61.9 1007.41,-47.62 1038.53,-36.51"/>
<polygon fill="black" stroke="black" points="1040.05,-39.68 1048.29,-33.02 1037.7,-33.09 1040.05,-39.68"/>
</g>
<!-- :feature:lmu&#45;readout&#45;vehicle&#45;approach&#45;detail -->
<g id="node7" class="node">
<title>:feature:lmu&#45;readout&#45;vehicle&#45;approach&#45;detail</title>
<ellipse fill="none" stroke="black" cx="1283.55" cy="-90" rx="217.96" ry="18"/>
<text text-anchor="middle" x="1283.55" y="-86.3" font-family="Times,serif" font-size="14.00">:feature:lmu&#45;readout&#45;vehicle&#45;approach&#45;detail</text>
</g>
<!-- :feature:lmu&#45;readout&#45;vehicle&#45;approach&#45;detail&#45;&gt;:core:domain -->
<g id="edge6" class="edge">
<title>:feature:lmu&#45;readout&#45;vehicle&#45;approach&#45;detail&#45;&gt;:core:domain</title>
<path fill="none" stroke="black" d="M1237.1,-72.41C1206.86,-61.61 1167.47,-47.55 1136.71,-36.56"/>
<polygon fill="black" stroke="black" points="1137.64,-33.17 1127.05,-33.11 1135.29,-39.77 1137.64,-33.17"/>
</g>
<!-- :feature:lmu&#45;readout&#45;vehicle&#45;damage&#45;detail -->
<g id="node8" class="node">
<title>:feature:lmu&#45;readout&#45;vehicle&#45;damage&#45;detail</title>
<ellipse fill="none" stroke="black" cx="1730.55" cy="-90" rx="211.46" ry="18"/>
<text text-anchor="middle" x="1730.55" y="-86.3" font-family="Times,serif" font-size="14.00">:feature:lmu&#45;readout&#45;vehicle&#45;damage&#45;detail</text>
</g>
<!-- :feature:lmu&#45;readout&#45;vehicle&#45;damage&#45;detail&#45;&gt;:core:domain -->
<g id="edge7" class="edge">
<title>:feature:lmu&#45;readout&#45;vehicle&#45;damage&#45;detail&#45;&gt;:core:domain</title>
<path fill="none" stroke="black" d="M1605.81,-75.42C1473.84,-61.05 1270.01,-38.86 1161.48,-27.05"/>
<polygon fill="black" stroke="black" points="1161.6,-23.54 1151.28,-25.94 1160.84,-30.5 1161.6,-23.54"/>
</g>
<!-- :feature:other&#45;list -->
<g id="node9" class="node">
<title>:feature:other&#45;list</title>
<ellipse fill="none" stroke="black" cx="2052.55" cy="-90" rx="92.88" ry="18"/>
<text text-anchor="middle" x="2052.55" y="-86.3" font-family="Times,serif" font-size="14.00">:feature:other&#45;list</text>
</g>
<!-- :feature:other&#45;list&#45;&gt;:core:domain -->
<g id="edge8" class="edge">
<title>:feature:other&#45;list&#45;&gt;:core:domain</title>
<path fill="none" stroke="black" d="M1987.39,-77.11C1975.18,-75.17 1962.5,-73.36 1950.55,-72 1663.69,-39.38 1320.75,-25.86 1167.91,-21.15"/>
<polygon fill="black" stroke="black" points="1167.78,-17.64 1157.68,-20.84 1167.56,-24.64 1167.78,-17.64"/>
</g>
<!-- :feature:other&#45;volume&#45;detail -->
<g id="node10" class="node">
<title>:feature:other&#45;volume&#45;detail</title>
<ellipse fill="none" stroke="black" cx="2304.55" cy="-90" rx="141.07" ry="18"/>
<text text-anchor="middle" x="2304.55" y="-86.3" font-family="Times,serif" font-size="14.00">:feature:other&#45;volume&#45;detail</text>
</g>
<!-- :feature:other&#45;volume&#45;detail&#45;&gt;:core:domain -->
<g id="edge9" class="edge">
<title>:feature:other&#45;volume&#45;detail&#45;&gt;:core:domain</title>
<path fill="none" stroke="black" d="M2206.6,-77C2189.28,-75.13 2171.39,-73.37 2154.55,-72 1786.43,-42.03 1345.38,-26.62 1167.61,-21.25"/>
<polygon fill="black" stroke="black" points="1167.66,-17.75 1157.56,-20.95 1167.45,-24.74 1167.66,-17.75"/>
</g>
<!-- :feature:readout&#45;list -->
<g id="node11" class="node">
<title>:feature:readout&#45;list</title>
<ellipse fill="none" stroke="black" cx="2567.55" cy="-90" rx="103.98" ry="18"/>
<text text-anchor="middle" x="2567.55" y="-86.3" font-family="Times,serif" font-size="14.00">:feature:readout&#45;list</text>
</g>
<!-- :feature:readout&#45;list&#45;&gt;:core:domain -->
<g id="edge10" class="edge">
<title>:feature:readout&#45;list&#45;&gt;:core:domain</title>
<path fill="none" stroke="black" d="M2495.66,-76.97C2482.04,-75.03 2467.88,-73.26 2454.55,-72 1968.03,-26.11 1380.51,-19.75 1168.63,-19.02"/>
<polygon fill="black" stroke="black" points="1168.53,-15.52 1158.52,-18.99 1168.51,-22.52 1168.53,-15.52"/>
</g>
</g>
</svg>
