<?xml version="1.0" encoding="UTF-8" standalone="no"?>
<!DOCTYPE svg PUBLIC "-//W3C//DTD SVG 1.1//EN"
 "http://www.w3.org/Graphics/SVG/1.1/DTD/svg11.dtd">
<!-- Generated by graphviz version 2.43.0 (0)
 -->
<!-- Title: G Pages: 1 -->
<svg width="588pt" height="116pt"
 viewBox="0.00 0.00 587.99 116.00" xmlns="http://www.w3.org/2000/svg" xmlns:xlink="http://www.w3.org/1999/xlink">
<g id="graph0" class="graph" transform="scale(1 1) rotate(0) translate(4 112)">
<title>G</title>
<polygon fill="white" stroke="transparent" points="-4,4 -4,-112 583.99,-112 583.99,4 -4,4"/>
<!-- :server -->
<g id="node1" class="node">
<title>:server</title>
<ellipse fill="none" stroke="black" cx="43.55" cy="-90" rx="43.59" ry="18"/>
<text text-anchor="middle" x="43.55" y="-86.3" font-family="Times,serif" font-size="14.00">:server</text>
</g>
<!-- :core:domain -->
<g id="node2" class="node">
<title>:core:domain</title>
<ellipse fill="none" stroke="black" cx="237.55" cy="-18" rx="70.69" ry="18"/>
<text text-anchor="middle" x="237.55" y="-14.3" font-family="Times,serif" font-size="14.00">:core:domain</text>
</g>
<!-- :server&#45;&gt;:core:domain -->
<g id="edge1" class="edge">
<title>:server&#45;&gt;:core:domain</title>
<path fill="none" stroke="black" d="M75.15,-77.6C105.96,-66.48 153.26,-49.41 188.88,-36.56"/>
<polygon fill="black" stroke="black" points="190.38,-39.74 198.6,-33.05 188,-33.16 190.38,-39.74"/>
</g>
<!-- :core:data -->
<g id="node3" class="node">
<title>:core:data</title>
<ellipse fill="none" stroke="black" cx="162.55" cy="-90" rx="57.39" ry="18"/>
<text text-anchor="middle" x="162.55" y="-86.3" font-family="Times,serif" font-size="14.00">:core:data</text>
</g>
<!-- :core:data&#45;&gt;:core:domain -->
<g id="edge2" class="edge">
<title>:core:data&#45;&gt;:core:domain</title>
<path fill="none" stroke="black" d="M179.94,-72.76C189.55,-63.79 201.66,-52.49 212.3,-42.56"/>
<polygon fill="black" stroke="black" points="214.8,-45.02 219.72,-35.63 210.03,-39.9 214.8,-45.02"/>
</g>
<!-- :feature:other -->
<g id="node4" class="node">
<title>:feature:other</title>
<ellipse fill="none" stroke="black" cx="313.55" cy="-90" rx="75.29" ry="18"/>
<text text-anchor="middle" x="313.55" y="-86.3" font-family="Times,serif" font-size="14.00">:feature:other</text>
</g>
<!-- :feature:other&#45;&gt;:core:domain -->
<g id="edge3" class="edge">
<title>:feature:other&#45;&gt;:core:domain</title>
<path fill="none" stroke="black" d="M295.54,-72.41C285.79,-63.43 273.58,-52.19 262.89,-42.34"/>
<polygon fill="black" stroke="black" points="265.15,-39.67 255.43,-35.47 260.41,-44.82 265.15,-39.67"/>
</g>
<!-- :feature:readout -->
<g id="node5" class="node">
<title>:feature:readout</title>
<ellipse fill="none" stroke="black" cx="493.55" cy="-90" rx="86.38" ry="18"/>
<text text-anchor="middle" x="493.55" y="-86.3" font-family="Times,serif" font-size="14.00">:feature:readout</text>
</g>
<!-- :feature:readout&#45;&gt;:core:domain -->
<g id="edge4" class="edge">
<title>:feature:readout&#45;&gt;:core:domain</title>
<path fill="none" stroke="black" d="M443.27,-75.25C400.23,-63.48 338.3,-46.55 293.65,-34.34"/>
<polygon fill="black" stroke="black" points="294.4,-30.92 283.83,-31.66 292.55,-37.67 294.4,-30.92"/>
</g>
</g>
</svg>
