<?xml version="1.0" encoding="UTF-8" standalone="no"?>
<!DOCTYPE svg PUBLIC "-//W3C//DTD SVG 1.1//EN"
 "http://www.w3.org/Graphics/SVG/1.1/DTD/svg11.dtd">
<!-- Generated by graphviz version 2.43.0 (0)
 -->
<!-- Title: G Pages: 1 -->
<svg width="2128pt" height="116pt"
 viewBox="0.00 0.00 2128.02 116.00" xmlns="http://www.w3.org/2000/svg" xmlns:xlink="http://www.w3.org/1999/xlink">
<g id="graph0" class="graph" transform="scale(1 1) rotate(0) translate(4 112)">
<title>G</title>
<polygon fill="white" stroke="transparent" points="-4,4 -4,-112 2124.02,-112 2124.02,4 -4,4"/>
<!-- :feature:lmu&#45;readout&#45;flag&#45;detail -->
<g id="node1" class="node">
<title>:feature:lmu&#45;readout&#45;flag&#45;detail</title>
<ellipse fill="none" stroke="black" cx="155.99" cy="-90" rx="155.97" ry="18"/>
<text text-anchor="middle" x="155.99" y="-86.3" font-family="Times,serif" font-size="14.00">:feature:lmu&#45;readout&#45;flag&#45;detail</text>
</g>
<!-- :core:designsystem -->
<g id="node2" class="node">
<title>:core:designsystem</title>
<ellipse fill="none" stroke="black" cx="1178.99" cy="-18" rx="100.98" ry="18"/>
<text text-anchor="middle" x="1178.99" y="-14.3" font-family="Times,serif" font-size="14.00">:core:designsystem</text>
</g>
<!-- :feature:lmu&#45;readout&#45;flag&#45;detail&#45;&gt;:core:designsystem -->
<g id="edge1" class="edge">
<title>:feature:lmu&#45;readout&#45;flag&#45;detail&#45;&gt;:core:designsystem</title>
<path fill="none" stroke="black" d="M265.1,-77.12C283.73,-75.28 302.9,-73.49 320.99,-72 591.33,-49.73 910.3,-32.37 1072.57,-24.17"/>
<polygon fill="black" stroke="black" points="1073.22,-27.64 1083.03,-23.64 1072.87,-20.65 1073.22,-27.64"/>
</g>
<!-- :feature:lmu&#45;readout&#45;vehicle&#45;approach&#45;detail -->
<g id="node3" class="node">
<title>:feature:lmu&#45;readout&#45;vehicle&#45;approach&#45;detail</title>
<ellipse fill="none" stroke="black" cx="547.99" cy="-90" rx="217.96" ry="18"/>
<text text-anchor="middle" x="547.99" y="-86.3" font-family="Times,serif" font-size="14.00">:feature:lmu&#45;readout&#45;vehicle&#45;approach&#45;detail</text>
</g>
<!-- :feature:lmu&#45;readout&#45;vehicle&#45;approach&#45;detail&#45;&gt;:core:designsystem -->
<g id="edge2" class="edge">
<title>:feature:lmu&#45;readout&#45;vehicle&#45;approach&#45;detail&#45;&gt;:core:designsystem</title>
<path fill="none" stroke="black" d="M672.27,-75.21C793.79,-61.73 976.05,-41.51 1085.67,-29.35"/>
<polygon fill="black" stroke="black" points="1086.16,-32.82 1095.72,-28.24 1085.39,-25.86 1086.16,-32.82"/>
</g>
<!-- :feature:lmu&#45;readout&#45;vehicle&#45;damage&#45;detail -->
<g id="node4" class="node">
<title>:feature:lmu&#45;readout&#45;vehicle&#45;damage&#45;detail</title>
<ellipse fill="none" stroke="black" cx="994.99" cy="-90" rx="211.46" ry="18"/>
<text text-anchor="middle" x="994.99" y="-86.3" font-family="Times,serif" font-size="14.00">:feature:lmu&#45;readout&#45;vehicle&#45;damage&#45;detail</text>
</g>
<!-- :feature:lmu&#45;readout&#45;vehicle&#45;damage&#45;detail&#45;&gt;:core:designsystem -->
<g id="edge3" class="edge">
<title>:feature:lmu&#45;readout&#45;vehicle&#45;damage&#45;detail&#45;&gt;:core:designsystem</title>
<path fill="none" stroke="black" d="M1039.06,-72.23C1065.97,-61.99 1100.48,-48.87 1128.49,-38.21"/>
<polygon fill="black" stroke="black" points="1130,-41.38 1138.11,-34.55 1127.52,-34.84 1130,-41.38"/>
</g>
<!-- :feature:other&#45;license&#45;detail -->
<g id="node5" class="node">
<title>:feature:other&#45;license&#45;detail</title>
<ellipse fill="none" stroke="black" cx="1363.99" cy="-90" rx="139.98" ry="18"/>
<text text-anchor="middle" x="1363.99" y="-86.3" font-family="Times,serif" font-size="14.00">:feature:other&#45;license&#45;detail</text>
</g>
<!-- :feature:other&#45;license&#45;detail&#45;&gt;:core:designsystem -->
<g id="edge4" class="edge">
<title>:feature:other&#45;license&#45;detail&#45;&gt;:core:designsystem</title>
<path fill="none" stroke="black" d="M1321.08,-72.76C1293.75,-62.42 1258.21,-48.98 1229.52,-38.12"/>
<polygon fill="black" stroke="black" points="1230.66,-34.81 1220.07,-34.55 1228.19,-41.36 1230.66,-34.81"/>
</g>
<!-- :feature:other&#45;server&#45;ip&#45;detail -->
<g id="node6" class="node">
<title>:feature:other&#45;server&#45;ip&#45;detail</title>
<ellipse fill="none" stroke="black" cx="1670.99" cy="-90" rx="148.67" ry="18"/>
<text text-anchor="middle" x="1670.99" y="-86.3" font-family="Times,serif" font-size="14.00">:feature:other&#45;server&#45;ip&#45;detail</text>
</g>
<!-- :feature:other&#45;server&#45;ip&#45;detail&#45;&gt;:core:designsystem -->
<g id="edge5" class="edge">
<title>:feature:other&#45;server&#45;ip&#45;detail&#45;&gt;:core:designsystem</title>
<path fill="none" stroke="black" d="M1578.73,-75.87C1488.71,-63.07 1352.84,-43.74 1265.01,-31.24"/>
<polygon fill="black" stroke="black" points="1265.47,-27.77 1255.08,-29.83 1264.48,-34.7 1265.47,-27.77"/>
</g>
<!-- :feature:other&#45;volume&#45;detail -->
<g id="node7" class="node">
<title>:feature:other&#45;volume&#45;detail</title>
<ellipse fill="none" stroke="black" cx="1978.99" cy="-90" rx="141.07" ry="18"/>
<text text-anchor="middle" x="1978.99" y="-86.3" font-family="Times,serif" font-size="14.00">:feature:other&#45;volume&#45;detail</text>
</g>
<!-- :feature:other&#45;volume&#45;detail&#45;&gt;:core:designsystem -->
<g id="edge6" class="edge">
<title>:feature:other&#45;volume&#45;detail&#45;&gt;:core:designsystem</title>
<path fill="none" stroke="black" d="M1878.98,-77.22C1862.3,-75.38 1845.16,-73.58 1828.99,-72 1635.34,-53.14 1408.77,-35.72 1280.75,-26.3"/>
<polygon fill="black" stroke="black" points="1280.79,-22.8 1270.57,-25.55 1280.28,-29.78 1280.79,-22.8"/>
</g>
</g>
</svg>
