<?xml version="1.0" encoding="UTF-8" standalone="no"?>
<!DOCTYPE svg PUBLIC "-//W3C//DTD SVG 1.1//EN"
 "http://www.w3.org/Graphics/SVG/1.1/DTD/svg11.dtd">
<!-- Generated by graphviz version 2.43.0 (0)
 -->
<!-- Title: G Pages: 1 -->
<svg width="250pt" height="188pt"
 viewBox="0.00 0.00 249.78 188.00" xmlns="http://www.w3.org/2000/svg" xmlns:xlink="http://www.w3.org/1999/xlink">
<g id="graph0" class="graph" transform="scale(1 1) rotate(0) translate(4 184)">
<title>G</title>
<polygon fill="white" stroke="transparent" points="-4,4 -4,-184 245.78,-184 245.78,4 -4,4"/>
<!-- :app:desktopApp -->
<g id="node1" class="node">
<title>:app:desktopApp</title>
<ellipse fill="none" stroke="black" cx="120.89" cy="-162" rx="88.28" ry="18"/>
<text text-anchor="middle" x="120.89" y="-158.3" font-family="Times,serif" font-size="14.00">:app:desktopApp</text>
</g>
<!-- :core:lmu&#45;windows&#45;data -->
<g id="node2" class="node">
<title>:core:lmu&#45;windows&#45;data</title>
<ellipse fill="none" stroke="black" cx="120.89" cy="-90" rx="120.78" ry="18"/>
<text text-anchor="middle" x="120.89" y="-86.3" font-family="Times,serif" font-size="14.00">:core:lmu&#45;windows&#45;data</text>
</g>
<!-- :app:desktopApp&#45;&gt;:core:lmu&#45;windows&#45;data -->
<g id="edge1" class="edge">
<title>:app:desktopApp&#45;&gt;:core:lmu&#45;windows&#45;data</title>
<path fill="none" stroke="black" d="M120.89,-143.7C120.89,-135.98 120.89,-126.71 120.89,-118.11"/>
<polygon fill="black" stroke="black" points="124.39,-118.1 120.89,-108.1 117.39,-118.1 124.39,-118.1"/>
</g>
<!-- :core:domain -->
<g id="node3" class="node">
<title>:core:domain</title>
<ellipse fill="none" stroke="black" cx="120.89" cy="-18" rx="70.69" ry="18"/>
<text text-anchor="middle" x="120.89" y="-14.3" font-family="Times,serif" font-size="14.00">:core:domain</text>
</g>
<!-- :core:lmu&#45;windows&#45;data&#45;&gt;:core:domain -->
<g id="edge2" class="edge">
<title>:core:lmu&#45;windows&#45;data&#45;&gt;:core:domain</title>
<path fill="none" stroke="black" d="M120.89,-71.7C120.89,-63.98 120.89,-54.71 120.89,-46.11"/>
<polygon fill="black" stroke="black" points="124.39,-46.1 120.89,-36.1 117.39,-46.1 124.39,-46.1"/>
</g>
</g>
</svg>
