<?xml version="1.0" encoding="UTF-8" standalone="no"?>
<!DOCTYPE svg PUBLIC "-//W3C//DTD SVG 1.1//EN"
 "http://www.w3.org/Graphics/SVG/1.1/DTD/svg11.dtd">
<!-- Generated by graphviz version 2.43.0 (0)
 -->
<!-- Title: G Pages: 1 -->
<svg width="3752pt" height="188pt"
 viewBox="0.00 0.00 3751.74 188.00" xmlns="http://www.w3.org/2000/svg" xmlns:xlink="http://www.w3.org/1999/xlink">
<g id="graph0" class="graph" transform="scale(1 1) rotate(0) translate(4 184)">
<title>G</title>
<polygon fill="white" stroke="transparent" points="-4,4 -4,-184 3747.74,-184 3747.74,4 -4,4"/>
<!-- :server -->
<g id="node1" class="node">
<title>:server</title>
<ellipse fill="none" stroke="black" cx="43.55" cy="-90" rx="43.59" ry="18"/>
<text text-anchor="middle" x="43.55" y="-86.3" font-family="Times,serif" font-size="14.00">:server</text>
</g>
<!-- :core:domain -->
<g id="node2" class="node">
<title>:core:domain</title>
<ellipse fill="none" stroke="black" cx="1452.55" cy="-18" rx="70.69" ry="18"/>
<text text-anchor="middle" x="1452.55" y="-14.3" font-family="Times,serif" font-size="14.00">:core:domain</text>
</g>
<!-- :server&#45;&gt;:core:domain -->
<g id="edge1" class="edge">
<title>:server&#45;&gt;:core:domain</title>
<path fill="none" stroke="black" d="M76.04,-77.95C84.27,-75.58 93.16,-73.37 101.55,-72 348.16,-31.65 1119.14,-21.76 1371.61,-19.57"/>
<polygon fill="black" stroke="black" points="1371.84,-23.07 1381.81,-19.48 1371.78,-16.07 1371.84,-23.07"/>
</g>
<!-- :app:shared -->
<g id="node3" class="node">
<title>:app:shared</title>
<ellipse fill="none" stroke="black" cx="1452.55" cy="-162" rx="65.79" ry="18"/>
<text text-anchor="middle" x="1452.55" y="-158.3" font-family="Times,serif" font-size="14.00">:app:shared</text>
</g>
<!-- :app:shared&#45;&gt;:core:domain -->
<g id="edge2" class="edge">
<title>:app:shared&#45;&gt;:core:domain</title>
<path fill="none" stroke="black" d="M1386.95,-160.85C1126.63,-159.96 178.32,-153.57 134.55,-108 123.46,-96.46 123.46,-83.54 134.55,-72 177.49,-27.29 1091.07,-20.3 1371.45,-19.2"/>
<polygon fill="black" stroke="black" points="1371.56,-22.7 1381.55,-19.16 1371.54,-15.7 1371.56,-22.7"/>
</g>
<!-- :feature:lmu&#45;windows&#45;connection -->
<g id="node4" class="node">
<title>:feature:lmu&#45;windows&#45;connection</title>
<ellipse fill="none" stroke="black" cx="307.55" cy="-90" rx="164.37" ry="18"/>
<text text-anchor="middle" x="307.55" y="-86.3" font-family="Times,serif" font-size="14.00">:feature:lmu&#45;windows&#45;connection</text>
</g>
<!-- :app:shared&#45;&gt;:feature:lmu&#45;windows&#45;connection -->
<g id="edge3" class="edge">
<title>:app:shared&#45;&gt;:feature:lmu&#45;windows&#45;connection</title>
<path fill="none" stroke="black" d="M1388,-158.43C1232.09,-152.03 822.65,-133.96 481.55,-108 465.76,-106.8 449.18,-105.38 432.78,-103.88"/>
<polygon fill="black" stroke="black" points="432.89,-100.38 422.61,-102.94 432.24,-107.35 432.89,-100.38"/>
</g>
<!-- :feature:server&#45;connection -->
<g id="node5" class="node">
<title>:feature:server&#45;connection</title>
<ellipse fill="none" stroke="black" cx="623.55" cy="-90" rx="133.48" ry="18"/>
<text text-anchor="middle" x="623.55" y="-86.3" font-family="Times,serif" font-size="14.00">:feature:server&#45;connection</text>
</g>
<!-- :app:shared&#45;&gt;:feature:server&#45;connection -->
<g id="edge4" class="edge">
<title>:app:shared&#45;&gt;:feature:server&#45;connection</title>
<path fill="none" stroke="black" d="M1389.1,-156.98C1267.96,-149.1 995.39,-130.43 766.55,-108 753.96,-106.77 740.76,-105.36 727.68,-103.89"/>
<polygon fill="black" stroke="black" points="728.05,-100.41 717.71,-102.75 727.25,-107.36 728.05,-100.41"/>
</g>
<!-- :feature:lmu&#45;windows&#45;narrator -->
<g id="node6" class="node">
<title>:feature:lmu&#45;windows&#45;narrator</title>
<ellipse fill="none" stroke="black" cx="928.55" cy="-90" rx="153.27" ry="18"/>
<text text-anchor="middle" x="928.55" y="-86.3" font-family="Times,serif" font-size="14.00">:feature:lmu&#45;windows&#45;narrator</text>
</g>
<!-- :app:shared&#45;&gt;:feature:lmu&#45;windows&#45;narrator -->
<g id="edge5" class="edge">
<title>:app:shared&#45;&gt;:feature:lmu&#45;windows&#45;narrator</title>
<path fill="none" stroke="black" d="M1394.97,-153.31C1308.73,-141.79 1144.55,-119.86 1035.81,-105.33"/>
<polygon fill="black" stroke="black" points="1036.16,-101.85 1025.79,-103.99 1035.24,-108.78 1036.16,-101.85"/>
</g>
<!-- :feature:other&#45;list -->
<g id="node7" class="node">
<title>:feature:other&#45;list</title>
<ellipse fill="none" stroke="black" cx="1192.55" cy="-90" rx="92.88" ry="18"/>
<text text-anchor="middle" x="1192.55" y="-86.3" font-family="Times,serif" font-size="14.00">:feature:other&#45;list</text>
</g>
<!-- :app:shared&#45;&gt;:feature:other&#45;list -->
<g id="edge6" class="edge">
<title>:app:shared&#45;&gt;:feature:other&#45;list</title>
<path fill="none" stroke="black" d="M1407.55,-148.89C1365.22,-137.49 1301.46,-120.32 1254.36,-107.64"/>
<polygon fill="black" stroke="black" points="1255.15,-104.23 1244.58,-105.01 1253.33,-110.99 1255.15,-104.23"/>
</g>
<!-- :feature:other&#45;server&#45;ip&#45;detail -->
<g id="node8" class="node">
<title>:feature:other&#45;server&#45;ip&#45;detail</title>
<ellipse fill="none" stroke="black" cx="1452.55" cy="-90" rx="148.67" ry="18"/>
<text text-anchor="middle" x="1452.55" y="-86.3" font-family="Times,serif" font-size="14.00">:feature:other&#45;server&#45;ip&#45;detail</text>
</g>
<!-- :app:shared&#45;&gt;:feature:other&#45;server&#45;ip&#45;detail -->
<g id="edge7" class="edge">
<title>:app:shared&#45;&gt;:feature:other&#45;server&#45;ip&#45;detail</title>
<path fill="none" stroke="black" d="M1452.55,-143.7C1452.55,-135.98 1452.55,-126.71 1452.55,-118.11"/>
<polygon fill="black" stroke="black" points="1456.05,-118.1 1452.55,-108.1 1449.05,-118.1 1456.05,-118.1"/>
</g>
<!-- :feature:other&#45;volume&#45;detail -->
<g id="node9" class="node">
<title>:feature:other&#45;volume&#45;detail</title>
<ellipse fill="none" stroke="black" cx="1760.55" cy="-90" rx="141.07" ry="18"/>
<text text-anchor="middle" x="1760.55" y="-86.3" font-family="Times,serif" font-size="14.00">:feature:other&#45;volume&#45;detail</text>
</g>
<!-- :app:shared&#45;&gt;:feature:other&#45;volume&#45;detail -->
<g id="edge8" class="edge">
<title>:app:shared&#45;&gt;:feature:other&#45;volume&#45;detail</title>
<path fill="none" stroke="black" d="M1501.35,-149.91C1550.63,-138.71 1627.46,-121.25 1684.69,-108.24"/>
<polygon fill="black" stroke="black" points="1685.8,-111.58 1694.77,-105.95 1684.25,-104.75 1685.8,-111.58"/>
</g>
<!-- :feature:readout&#45;list -->
<g id="node10" class="node">
<title>:feature:readout&#45;list</title>
<ellipse fill="none" stroke="black" cx="2023.55" cy="-90" rx="103.98" ry="18"/>
<text text-anchor="middle" x="2023.55" y="-86.3" font-family="Times,serif" font-size="14.00">:feature:readout&#45;list</text>
</g>
<!-- :app:shared&#45;&gt;:feature:readout&#45;list -->
<g id="edge9" class="edge">
<title>:app:shared&#45;&gt;:feature:readout&#45;list</title>
<path fill="none" stroke="black" d="M1512.64,-154.71C1600.25,-145.38 1768.12,-126.95 1910.55,-108 1919.74,-106.78 1929.35,-105.43 1938.91,-104.05"/>
<polygon fill="black" stroke="black" points="1939.44,-107.51 1948.83,-102.61 1938.43,-100.59 1939.44,-107.51"/>
</g>
<!-- :feature:lmu&#45;windows&#45;readout&#45;vehicle&#45;approach&#45;detail -->
<g id="node11" class="node">
<title>:feature:lmu&#45;windows&#45;readout&#45;vehicle&#45;approach&#45;detail</title>
<ellipse fill="none" stroke="black" cx="2406.55" cy="-90" rx="260.75" ry="18"/>
<text text-anchor="middle" x="2406.55" y="-86.3" font-family="Times,serif" font-size="14.00">:feature:lmu&#45;windows&#45;readout&#45;vehicle&#45;approach&#45;detail</text>
</g>
<!-- :app:shared&#45;&gt;:feature:lmu&#45;windows&#45;readout&#45;vehicle&#45;approach&#45;detail -->
<g id="edge10" class="edge">
<title>:app:shared&#45;&gt;:feature:lmu&#45;windows&#45;readout&#45;vehicle&#45;approach&#45;detail</title>
<path fill="none" stroke="black" d="M1515.14,-156.41C1657.14,-145.99 2008.17,-120.23 2224.94,-104.33"/>
<polygon fill="black" stroke="black" points="2225.45,-107.8 2235.16,-103.58 2224.93,-100.82 2225.45,-107.8"/>
</g>
<!-- :feature:lmu&#45;windows&#45;readout&#45;flag&#45;detail -->
<g id="node12" class="node">
<title>:feature:lmu&#45;windows&#45;readout&#45;flag&#45;detail</title>
<ellipse fill="none" stroke="black" cx="2884.55" cy="-90" rx="199.56" ry="18"/>
<text text-anchor="middle" x="2884.55" y="-86.3" font-family="Times,serif" font-size="14.00">:feature:lmu&#45;windows&#45;readout&#45;flag&#45;detail</text>
</g>
<!-- :app:shared&#45;&gt;:feature:lmu&#45;windows&#45;readout&#45;flag&#45;detail -->
<g id="edge11" class="edge">
<title>:app:shared&#45;&gt;:feature:lmu&#45;windows&#45;readout&#45;flag&#45;detail</title>
<path fill="none" stroke="black" d="M1517.61,-159.06C1700.37,-153.42 2233.93,-135.66 2676.55,-108 2695.88,-106.79 2716.21,-105.35 2736.28,-103.82"/>
<polygon fill="black" stroke="black" points="2736.72,-107.29 2746.42,-103.03 2736.18,-100.31 2736.72,-107.29"/>
</g>
<!-- :feature:lmu&#45;windows&#45;readout&#45;vehicle&#45;damage&#45;detail -->
<g id="node13" class="node">
<title>:feature:lmu&#45;windows&#45;readout&#45;vehicle&#45;damage&#45;detail</title>
<ellipse fill="none" stroke="black" cx="3356.55" cy="-90" rx="254.55" ry="18"/>
<text text-anchor="middle" x="3356.55" y="-86.3" font-family="Times,serif" font-size="14.00">:feature:lmu&#45;windows&#45;readout&#45;vehicle&#45;damage&#45;detail</text>
</g>
<!-- :app:shared&#45;&gt;:feature:lmu&#45;windows&#45;readout&#45;vehicle&#45;damage&#45;detail -->
<g id="edge12" class="edge">
<title>:app:shared&#45;&gt;:feature:lmu&#45;windows&#45;readout&#45;vehicle&#45;damage&#45;detail</title>
<path fill="none" stroke="black" d="M1517.85,-159.65C1739.15,-154.9 2481.06,-137.68 3093.55,-108 3118.77,-106.78 3145.35,-105.29 3171.52,-103.71"/>
<polygon fill="black" stroke="black" points="3171.75,-107.21 3181.52,-103.1 3171.33,-100.22 3171.75,-107.21"/>
</g>
<!-- :feature:lmu&#45;windows&#45;connection&#45;&gt;:core:domain -->
<g id="edge14" class="edge">
<title>:feature:lmu&#45;windows&#45;connection&#45;&gt;:core:domain</title>
<path fill="none" stroke="black" d="M422.61,-77.06C442.26,-75.22 462.48,-73.45 481.55,-72 812.15,-46.84 1206.95,-29.09 1372.89,-22.19"/>
<polygon fill="black" stroke="black" points="1373.17,-25.68 1383.01,-21.77 1372.88,-18.69 1373.17,-25.68"/>
</g>
<!-- :feature:server&#45;connection&#45;&gt;:core:domain -->
<g id="edge23" class="edge">
<title>:feature:server&#45;connection&#45;&gt;:core:domain</title>
<path fill="none" stroke="black" d="M717.71,-77.25C733.99,-75.38 750.75,-73.55 766.55,-72 986.76,-50.41 1247.45,-32.32 1374.75,-23.96"/>
<polygon fill="black" stroke="black" points="1375.04,-27.45 1384.79,-23.3 1374.59,-20.47 1375.04,-27.45"/>
</g>
<!-- :feature:lmu&#45;windows&#45;narrator&#45;&gt;:core:domain -->
<g id="edge15" class="edge">
<title>:feature:lmu&#45;windows&#45;narrator&#45;&gt;:core:domain</title>
<path fill="none" stroke="black" d="M1025.57,-76.04C1128.66,-62.27 1289.18,-40.82 1381.22,-28.53"/>
<polygon fill="black" stroke="black" points="1381.83,-31.98 1391.28,-27.18 1380.9,-25.04 1381.83,-31.98"/>
</g>
<!-- :feature:other&#45;list&#45;&gt;:core:domain -->
<g id="edge19" class="edge">
<title>:feature:other&#45;list&#45;&gt;:core:domain</title>
<path fill="none" stroke="black" d="M1244.54,-75C1288.35,-63.21 1350.92,-46.36 1395.98,-34.23"/>
<polygon fill="black" stroke="black" points="1397.14,-37.54 1405.88,-31.56 1395.32,-30.78 1397.14,-37.54"/>
</g>
<!-- :feature:other&#45;server&#45;ip&#45;detail&#45;&gt;:core:domain -->
<g id="edge20" class="edge">
<title>:feature:other&#45;server&#45;ip&#45;detail&#45;&gt;:core:domain</title>
<path fill="none" stroke="black" d="M1452.55,-71.7C1452.55,-63.98 1452.55,-54.71 1452.55,-46.11"/>
<polygon fill="black" stroke="black" points="1456.05,-46.1 1452.55,-36.1 1449.05,-46.1 1456.05,-46.1"/>
</g>
<!-- :feature:other&#45;volume&#45;detail&#45;&gt;:core:domain -->
<g id="edge21" class="edge">
<title>:feature:other&#45;volume&#45;detail&#45;&gt;:core:domain</title>
<path fill="none" stroke="black" d="M1694.85,-74.07C1641.07,-61.85 1565.6,-44.69 1513.23,-32.79"/>
<polygon fill="black" stroke="black" points="1513.94,-29.36 1503.41,-30.56 1512.38,-36.19 1513.94,-29.36"/>
</g>
<!-- :feature:readout&#45;list&#45;&gt;:core:domain -->
<g id="edge22" class="edge">
<title>:feature:readout&#45;list&#45;&gt;:core:domain</title>
<path fill="none" stroke="black" d="M1948.83,-77.39C1936.07,-75.51 1922.94,-73.65 1910.55,-72 1775.51,-54.03 1617.6,-36.53 1526.91,-26.82"/>
<polygon fill="black" stroke="black" points="1527.04,-23.31 1516.73,-25.73 1526.3,-30.27 1527.04,-23.31"/>
</g>
<!-- :feature:lmu&#45;windows&#45;readout&#45;vehicle&#45;approach&#45;detail&#45;&gt;:core:domain -->
<g id="edge17" class="edge">
<title>:feature:lmu&#45;windows&#45;readout&#45;vehicle&#45;approach&#45;detail&#45;&gt;:core:domain</title>
<path fill="none" stroke="black" d="M2235.16,-76.42C2026.37,-61.1 1682.62,-35.88 1529.86,-24.67"/>
<polygon fill="black" stroke="black" points="1529.87,-21.16 1519.64,-23.92 1529.36,-28.15 1529.87,-21.16"/>
</g>
<!-- :feature:lmu&#45;windows&#45;readout&#45;flag&#45;detail&#45;&gt;:core:domain -->
<g id="edge16" class="edge">
<title>:feature:lmu&#45;windows&#45;readout&#45;flag&#45;detail&#45;&gt;:core:domain</title>
<path fill="none" stroke="black" d="M2746.42,-76.97C2723.11,-75.15 2699.15,-73.41 2676.55,-72 2245.62,-45.07 1728.5,-27.52 1532.82,-21.41"/>
<polygon fill="black" stroke="black" points="1532.73,-17.91 1522.63,-21.1 1532.51,-24.9 1532.73,-17.91"/>
</g>
<!-- :feature:lmu&#45;windows&#45;readout&#45;vehicle&#45;damage&#45;detail&#45;&gt;:core:domain -->
<g id="edge18" class="edge">
<title>:feature:lmu&#45;windows&#45;readout&#45;vehicle&#45;damage&#45;detail&#45;&gt;:core:domain</title>
<path fill="none" stroke="black" d="M3181.52,-76.9C3152.16,-75.09 3122,-73.38 3093.55,-72 2494.59,-42.98 1771.87,-25.86 1533.27,-20.68"/>
<polygon fill="black" stroke="black" points="1533.03,-17.18 1522.95,-20.46 1532.88,-24.18 1533.03,-17.18"/>
</g>
<!-- :core:data -->
<g id="node14" class="node">
<title>:core:data</title>
<ellipse fill="none" stroke="black" cx="3686.55" cy="-90" rx="57.39" ry="18"/>
<text text-anchor="middle" x="3686.55" y="-86.3" font-family="Times,serif" font-size="14.00">:core:data</text>
</g>
<!-- :core:data&#45;&gt;:core:domain -->
<g id="edge13" class="edge">
<title>:core:data&#45;&gt;:core:domain</title>
<path fill="none" stroke="black" d="M3646.35,-77.1C3637.9,-75.03 3628.98,-73.17 3620.55,-72 3411.23,-42.87 1901.44,-24.07 1533.32,-19.89"/>
<polygon fill="black" stroke="black" points="1533.32,-16.39 1523.29,-19.77 1533.25,-23.39 1533.32,-16.39"/>
</g>
</g>
</svg>
