<?xml version="1.0" encoding="UTF-8" standalone="no"?>
<!DOCTYPE svg PUBLIC "-//W3C//DTD SVG 1.1//EN"
 "http://www.w3.org/Graphics/SVG/1.1/DTD/svg11.dtd">
<!-- Generated by graphviz version 2.43.0 (0)
 -->
<!-- Title: G Pages: 1 -->
<svg width="3714pt" height="116pt"
 viewBox="0.00 0.00 3713.78 116.00" xmlns="http://www.w3.org/2000/svg" xmlns:xlink="http://www.w3.org/1999/xlink">
<g id="graph0" class="graph" transform="scale(1 1) rotate(0) translate(4 112)">
<title>G</title>
<polygon fill="white" stroke="transparent" points="-4,4 -4,-112 3709.78,-112 3709.78,4 -4,4"/>
<!-- :server -->
<g id="node1" class="node">
<title>:server</title>
<ellipse fill="none" stroke="black" cx="43.55" cy="-90" rx="43.59" ry="18"/>
<text text-anchor="middle" x="43.55" y="-86.3" font-family="Times,serif" font-size="14.00">:server</text>
</g>
<!-- :core:domain -->
<g id="node2" class="node">
<title>:core:domain</title>
<ellipse fill="none" stroke="black" cx="1853.55" cy="-18" rx="70.69" ry="18"/>
<text text-anchor="middle" x="1853.55" y="-14.3" font-family="Times,serif" font-size="14.00">:core:domain</text>
</g>
<!-- :server&#45;&gt;:core:domain -->
<g id="edge1" class="edge">
<title>:server&#45;&gt;:core:domain</title>
<path fill="none" stroke="black" d="M74.85,-77.36C81.9,-75.2 89.4,-73.23 96.55,-72 262.6,-43.45 1449.8,-24.71 1772.67,-20.11"/>
<polygon fill="black" stroke="black" points="1772.93,-23.61 1782.88,-19.96 1772.83,-16.61 1772.93,-23.61"/>
</g>
<!-- :core:data -->
<g id="node3" class="node">
<title>:core:data</title>
<ellipse fill="none" stroke="black" cx="162.55" cy="-90" rx="57.39" ry="18"/>
<text text-anchor="middle" x="162.55" y="-86.3" font-family="Times,serif" font-size="14.00">:core:data</text>
</g>
<!-- :core:data&#45;&gt;:core:domain -->
<g id="edge2" class="edge">
<title>:core:data&#45;&gt;:core:domain</title>
<path fill="none" stroke="black" d="M203.01,-77.24C211.7,-75.14 220.87,-73.23 229.55,-72 532.35,-29.16 1487.18,-20.87 1772.35,-19.33"/>
<polygon fill="black" stroke="black" points="1772.63,-22.83 1782.61,-19.28 1772.6,-15.83 1772.63,-22.83"/>
</g>
<!-- :feature:lmu&#45;windows&#45;connection -->
<g id="node4" class="node">
<title>:feature:lmu&#45;windows&#45;connection</title>
<ellipse fill="none" stroke="black" cx="402.55" cy="-90" rx="164.37" ry="18"/>
<text text-anchor="middle" x="402.55" y="-86.3" font-family="Times,serif" font-size="14.00">:feature:lmu&#45;windows&#45;connection</text>
</g>
<!-- :feature:lmu&#45;windows&#45;connection&#45;&gt;:core:domain -->
<g id="edge3" class="edge">
<title>:feature:lmu&#45;windows&#45;connection&#45;&gt;:core:domain</title>
<path fill="none" stroke="black" d="M516.19,-76.97C536.28,-75.11 557.02,-73.36 576.55,-72 1028.29,-40.58 1571.31,-25.57 1773.01,-20.78"/>
<polygon fill="black" stroke="black" points="1773.3,-24.27 1783.22,-20.54 1773.14,-17.28 1773.3,-24.27"/>
</g>
<!-- :feature:lmu&#45;windows&#45;narrator -->
<g id="node5" class="node">
<title>:feature:lmu&#45;windows&#45;narrator</title>
<ellipse fill="none" stroke="black" cx="738.55" cy="-90" rx="153.27" ry="18"/>
<text text-anchor="middle" x="738.55" y="-86.3" font-family="Times,serif" font-size="14.00">:feature:lmu&#45;windows&#45;narrator</text>
</g>
<!-- :feature:lmu&#45;windows&#45;narrator&#45;&gt;:core:domain -->
<g id="edge4" class="edge">
<title>:feature:lmu&#45;windows&#45;narrator&#45;&gt;:core:domain</title>
<path fill="none" stroke="black" d="M845.23,-77.05C863.66,-75.21 882.65,-73.44 900.55,-72 1223.8,-46.07 1609.76,-28.81 1773.64,-22.12"/>
<polygon fill="black" stroke="black" points="1774.26,-25.6 1784.11,-21.69 1773.98,-18.6 1774.26,-25.6"/>
</g>
<!-- :feature:lmu&#45;windows&#45;readout&#45;flag&#45;detail -->
<g id="node6" class="node">
<title>:feature:lmu&#45;windows&#45;readout&#45;flag&#45;detail</title>
<ellipse fill="none" stroke="black" cx="1109.55" cy="-90" rx="199.56" ry="18"/>
<text text-anchor="middle" x="1109.55" y="-86.3" font-family="Times,serif" font-size="14.00">:feature:lmu&#45;windows&#45;readout&#45;flag&#45;detail</text>
</g>
<!-- :feature:lmu&#45;windows&#45;readout&#45;flag&#45;detail&#45;&gt;:core:domain -->
<g id="edge5" class="edge">
<title>:feature:lmu&#45;windows&#45;readout&#45;flag&#45;detail&#45;&gt;:core:domain</title>
<path fill="none" stroke="black" d="M1242.13,-76.53C1398.17,-61.84 1651.92,-37.97 1777.78,-26.13"/>
<polygon fill="black" stroke="black" points="1778.46,-29.58 1788.09,-25.16 1777.81,-22.61 1778.46,-29.58"/>
</g>
<!-- :feature:lmu&#45;windows&#45;readout&#45;vehicle&#45;approach&#45;detail -->
<g id="node7" class="node">
<title>:feature:lmu&#45;windows&#45;readout&#45;vehicle&#45;approach&#45;detail</title>
<ellipse fill="none" stroke="black" cx="1587.55" cy="-90" rx="260.75" ry="18"/>
<text text-anchor="middle" x="1587.55" y="-86.3" font-family="Times,serif" font-size="14.00">:feature:lmu&#45;windows&#45;readout&#45;vehicle&#45;approach&#45;detail</text>
</g>
<!-- :feature:lmu&#45;windows&#45;readout&#45;vehicle&#45;approach&#45;detail&#45;&gt;:core:domain -->
<g id="edge6" class="edge">
<title>:feature:lmu&#45;windows&#45;readout&#45;vehicle&#45;approach&#45;detail&#45;&gt;:core:domain</title>
<path fill="none" stroke="black" d="M1650.25,-72.5C1694.56,-60.84 1753.49,-45.33 1796.49,-34.01"/>
<polygon fill="black" stroke="black" points="1797.46,-37.38 1806.24,-31.45 1795.68,-30.61 1797.46,-37.38"/>
</g>
<!-- :feature:lmu&#45;windows&#45;readout&#45;vehicle&#45;damage&#45;detail -->
<g id="node8" class="node">
<title>:feature:lmu&#45;windows&#45;readout&#45;vehicle&#45;damage&#45;detail</title>
<ellipse fill="none" stroke="black" cx="2120.55" cy="-90" rx="254.55" ry="18"/>
<text text-anchor="middle" x="2120.55" y="-86.3" font-family="Times,serif" font-size="14.00">:feature:lmu&#45;windows&#45;readout&#45;vehicle&#45;damage&#45;detail</text>
</g>
<!-- :feature:lmu&#45;windows&#45;readout&#45;vehicle&#45;damage&#45;detail&#45;&gt;:core:domain -->
<g id="edge7" class="edge">
<title>:feature:lmu&#45;windows&#45;readout&#45;vehicle&#45;damage&#45;detail&#45;&gt;:core:domain</title>
<path fill="none" stroke="black" d="M2057.61,-72.5C2013.13,-60.84 1953.98,-45.33 1910.81,-34.01"/>
<polygon fill="black" stroke="black" points="1911.59,-30.6 1901.03,-31.45 1909.82,-37.37 1911.59,-30.6"/>
</g>
<!-- :feature:other&#45;list -->
<g id="node9" class="node">
<title>:feature:other&#45;list</title>
<ellipse fill="none" stroke="black" cx="2486.55" cy="-90" rx="92.88" ry="18"/>
<text text-anchor="middle" x="2486.55" y="-86.3" font-family="Times,serif" font-size="14.00">:feature:other&#45;list</text>
</g>
<!-- :feature:other&#45;list&#45;&gt;:core:domain -->
<g id="edge8" class="edge">
<title>:feature:other&#45;list&#45;&gt;:core:domain</title>
<path fill="none" stroke="black" d="M2420.25,-77.3C2408.38,-75.39 2396.11,-73.54 2384.55,-72 2223.46,-50.56 2033.82,-33.62 1930.39,-25.08"/>
<polygon fill="black" stroke="black" points="1930.6,-21.58 1920.35,-24.25 1930.03,-28.56 1930.6,-21.58"/>
</g>
<!-- :feature:other&#45;server&#45;ip&#45;detail -->
<g id="node10" class="node">
<title>:feature:other&#45;server&#45;ip&#45;detail</title>
<ellipse fill="none" stroke="black" cx="2746.55" cy="-90" rx="148.67" ry="18"/>
<text text-anchor="middle" x="2746.55" y="-86.3" font-family="Times,serif" font-size="14.00">:feature:other&#45;server&#45;ip&#45;detail</text>
</g>
<!-- :feature:other&#45;server&#45;ip&#45;detail&#45;&gt;:core:domain -->
<g id="edge9" class="edge">
<title>:feature:other&#45;server&#45;ip&#45;detail&#45;&gt;:core:domain</title>
<path fill="none" stroke="black" d="M2641.64,-77.19C2623.93,-75.35 2605.72,-73.54 2588.55,-72 2349.49,-50.53 2066.06,-32.06 1931.7,-23.73"/>
<polygon fill="black" stroke="black" points="1931.7,-20.22 1921.5,-23.1 1931.27,-27.21 1931.7,-20.22"/>
</g>
<!-- :feature:other&#45;volume&#45;detail -->
<g id="node11" class="node">
<title>:feature:other&#45;volume&#45;detail</title>
<ellipse fill="none" stroke="black" cx="3054.55" cy="-90" rx="141.07" ry="18"/>
<text text-anchor="middle" x="3054.55" y="-86.3" font-family="Times,serif" font-size="14.00">:feature:other&#45;volume&#45;detail</text>
</g>
<!-- :feature:other&#45;volume&#45;detail&#45;&gt;:core:domain -->
<g id="edge10" class="edge">
<title>:feature:other&#45;volume&#45;detail&#45;&gt;:core:domain</title>
<path fill="none" stroke="black" d="M2956.6,-77.01C2939.27,-75.14 2921.39,-73.38 2904.55,-72 2542.79,-42.41 2109.55,-26.83 1933.64,-21.33"/>
<polygon fill="black" stroke="black" points="1933.54,-17.83 1923.44,-21.02 1933.33,-24.82 1933.54,-17.83"/>
</g>
<!-- :feature:readout&#45;list -->
<g id="node12" class="node">
<title>:feature:readout&#45;list</title>
<ellipse fill="none" stroke="black" cx="3317.55" cy="-90" rx="103.98" ry="18"/>
<text text-anchor="middle" x="3317.55" y="-86.3" font-family="Times,serif" font-size="14.00">:feature:readout&#45;list</text>
</g>
<!-- :feature:readout&#45;list&#45;&gt;:core:domain -->
<g id="edge11" class="edge">
<title>:feature:readout&#45;list&#45;&gt;:core:domain</title>
<path fill="none" stroke="black" d="M3245.66,-76.97C3232.04,-75.04 3217.88,-73.26 3204.55,-72 2724.3,-26.59 2144.47,-19.93 1934.43,-19.07"/>
<polygon fill="black" stroke="black" points="1934.42,-15.57 1924.41,-19.04 1934.4,-22.57 1934.42,-15.57"/>
</g>
<!-- :feature:server&#45;connection -->
<g id="node13" class="node">
<title>:feature:server&#45;connection</title>
<ellipse fill="none" stroke="black" cx="3572.55" cy="-90" rx="133.48" ry="18"/>
<text text-anchor="middle" x="3572.55" y="-86.3" font-family="Times,serif" font-size="14.00">:feature:server&#45;connection</text>
</g>
<!-- :feature:server&#45;connection&#45;&gt;:core:domain -->
<g id="edge12" class="edge">
<title>:feature:server&#45;connection&#45;&gt;:core:domain</title>
<path fill="none" stroke="black" d="M3481,-76.87C3464.24,-74.99 3446.89,-73.25 3430.55,-72 2858.62,-28.24 2167.27,-20.61 1934.47,-19.28"/>
<polygon fill="black" stroke="black" points="1934.41,-15.78 1924.4,-19.22 1934.38,-22.78 1934.41,-15.78"/>
</g>
</g>
</svg>
