<?xml version="1.0" encoding="UTF-8" standalone="no"?>
<!DOCTYPE svg PUBLIC "-//W3C//DTD SVG 1.1//EN"
 "http://www.w3.org/Graphics/SVG/1.1/DTD/svg11.dtd">
<!-- Generated by graphviz version 2.43.0 (0)
 -->
<!-- Title: G Pages: 1 -->
<svg width="4294pt" height="116pt"
 viewBox="0.00 0.00 4293.78 116.00" xmlns="http://www.w3.org/2000/svg" xmlns:xlink="http://www.w3.org/1999/xlink">
<g id="graph0" class="graph" transform="scale(1 1) rotate(0) translate(4 112)">
<title>G</title>
<polygon fill="white" stroke="transparent" points="-4,4 -4,-112 4289.78,-112 4289.78,4 -4,4"/>
<!-- :server -->
<g id="node1" class="node">
<title>:server</title>
<ellipse fill="none" stroke="black" cx="43.55" cy="-90" rx="43.59" ry="18"/>
<text text-anchor="middle" x="43.55" y="-86.3" font-family="Times,serif" font-size="14.00">:server</text>
</g>
<!-- :core:domain -->
<g id="node2" class="node">
<title>:core:domain</title>
<ellipse fill="none" stroke="black" cx="2293.55" cy="-18" rx="70.69" ry="18"/>
<text text-anchor="middle" x="2293.55" y="-14.3" font-family="Times,serif" font-size="14.00">:core:domain</text>
</g>
<!-- :server&#45;&gt;:core:domain -->
<g id="edge1" class="edge">
<title>:server&#45;&gt;:core:domain</title>
<path fill="none" stroke="black" d="M74.85,-77.33C81.89,-75.17 89.4,-73.21 96.55,-72 307.89,-36.32 1840.95,-22.44 2212.57,-19.58"/>
<polygon fill="black" stroke="black" points="2212.73,-23.08 2222.7,-19.51 2212.67,-16.08 2212.73,-23.08"/>
</g>
<!-- :core:data -->
<g id="node3" class="node">
<title>:core:data</title>
<ellipse fill="none" stroke="black" cx="162.55" cy="-90" rx="57.39" ry="18"/>
<text text-anchor="middle" x="162.55" y="-86.3" font-family="Times,serif" font-size="14.00">:core:data</text>
</g>
<!-- :core:data&#45;&gt;:core:domain -->
<g id="edge2" class="edge">
<title>:core:data&#45;&gt;:core:domain</title>
<path fill="none" stroke="black" d="M203.01,-77.19C211.69,-75.09 220.87,-73.2 229.55,-72 622.84,-17.75 1880.91,-17.7 2212.7,-18.67"/>
<polygon fill="black" stroke="black" points="2212.7,-22.17 2222.71,-18.7 2212.72,-15.17 2212.7,-22.17"/>
</g>
<!-- :feature:lmu&#45;windows&#45;connection -->
<g id="node4" class="node">
<title>:feature:lmu&#45;windows&#45;connection</title>
<ellipse fill="none" stroke="black" cx="402.55" cy="-90" rx="164.37" ry="18"/>
<text text-anchor="middle" x="402.55" y="-86.3" font-family="Times,serif" font-size="14.00">:feature:lmu&#45;windows&#45;connection</text>
</g>
<!-- :feature:lmu&#45;windows&#45;connection&#45;&gt;:core:domain -->
<g id="edge3" class="edge">
<title>:feature:lmu&#45;windows&#45;connection&#45;&gt;:core:domain</title>
<path fill="none" stroke="black" d="M515.24,-76.89C535.63,-75.01 556.71,-73.27 576.55,-72 1205.53,-31.61 1966.18,-21.79 2212.44,-19.59"/>
<polygon fill="black" stroke="black" points="2212.76,-23.09 2222.73,-19.5 2212.7,-16.09 2212.76,-23.09"/>
</g>
<!-- :feature:lmu&#45;windows&#45;narrator -->
<g id="node5" class="node">
<title>:feature:lmu&#45;windows&#45;narrator</title>
<ellipse fill="none" stroke="black" cx="738.55" cy="-90" rx="153.27" ry="18"/>
<text text-anchor="middle" x="738.55" y="-86.3" font-family="Times,serif" font-size="14.00">:feature:lmu&#45;windows&#45;narrator</text>
</g>
<!-- :feature:lmu&#45;windows&#45;narrator&#45;&gt;:core:domain -->
<g id="edge4" class="edge">
<title>:feature:lmu&#45;windows&#45;narrator&#45;&gt;:core:domain</title>
<path fill="none" stroke="black" d="M844.33,-76.87C863.04,-75.02 882.35,-73.3 900.55,-72 1398.43,-36.44 1998.23,-23.78 2212.57,-20.2"/>
<polygon fill="black" stroke="black" points="2212.85,-23.69 2222.79,-20.03 2212.73,-16.7 2212.85,-23.69"/>
</g>
<!-- :feature:lmu&#45;windows&#45;readout&#45;flag&#45;detail -->
<g id="node6" class="node">
<title>:feature:lmu&#45;windows&#45;readout&#45;flag&#45;detail</title>
<ellipse fill="none" stroke="black" cx="1109.55" cy="-90" rx="199.56" ry="18"/>
<text text-anchor="middle" x="1109.55" y="-86.3" font-family="Times,serif" font-size="14.00">:feature:lmu&#45;windows&#45;readout&#45;flag&#45;detail</text>
</g>
<!-- :feature:lmu&#45;windows&#45;readout&#45;flag&#45;detail&#45;&gt;:core:domain -->
<g id="edge5" class="edge">
<title>:feature:lmu&#45;windows&#45;readout&#45;flag&#45;detail&#45;&gt;:core:domain</title>
<path fill="none" stroke="black" d="M1248.8,-77.09C1271.76,-75.28 1295.32,-73.51 1317.55,-72 1650.45,-49.36 2047.76,-30.23 2214.14,-22.58"/>
<polygon fill="black" stroke="black" points="2214.45,-26.07 2224.28,-22.11 2214.13,-19.07 2214.45,-26.07"/>
</g>
<!-- :feature:lmu&#45;windows&#45;readout&#45;vehicle&#45;approach&#45;detail -->
<g id="node7" class="node">
<title>:feature:lmu&#45;windows&#45;readout&#45;vehicle&#45;approach&#45;detail</title>
<ellipse fill="none" stroke="black" cx="1587.55" cy="-90" rx="260.75" ry="18"/>
<text text-anchor="middle" x="1587.55" y="-86.3" font-family="Times,serif" font-size="14.00">:feature:lmu&#45;windows&#45;readout&#45;vehicle&#45;approach&#45;detail</text>
</g>
<!-- :feature:lmu&#45;windows&#45;readout&#45;vehicle&#45;approach&#45;detail&#45;&gt;:core:domain -->
<g id="edge6" class="edge">
<title>:feature:lmu&#45;windows&#45;readout&#45;vehicle&#45;approach&#45;detail&#45;&gt;:core:domain</title>
<path fill="none" stroke="black" d="M1729.99,-74.88C1877.59,-60.24 2102.59,-37.93 2218.59,-26.43"/>
<polygon fill="black" stroke="black" points="2219.18,-29.89 2228.79,-25.42 2218.49,-22.92 2219.18,-29.89"/>
</g>
<!-- :feature:lmu&#45;windows&#45;readout&#45;vehicle&#45;damage&#45;detail -->
<g id="node8" class="node">
<title>:feature:lmu&#45;windows&#45;readout&#45;vehicle&#45;damage&#45;detail</title>
<ellipse fill="none" stroke="black" cx="2120.55" cy="-90" rx="254.55" ry="18"/>
<text text-anchor="middle" x="2120.55" y="-86.3" font-family="Times,serif" font-size="14.00">:feature:lmu&#45;windows&#45;readout&#45;vehicle&#45;damage&#45;detail</text>
</g>
<!-- :feature:lmu&#45;windows&#45;readout&#45;vehicle&#45;damage&#45;detail&#45;&gt;:core:domain -->
<g id="edge7" class="edge">
<title>:feature:lmu&#45;windows&#45;readout&#45;vehicle&#45;damage&#45;detail&#45;&gt;:core:domain</title>
<path fill="none" stroke="black" d="M2161.98,-72.23C2187.89,-61.75 2221.28,-48.24 2247.94,-37.45"/>
<polygon fill="black" stroke="black" points="2249.47,-40.61 2257.43,-33.61 2246.85,-34.12 2249.47,-40.61"/>
</g>
<!-- :feature:main -->
<g id="node9" class="node">
<title>:feature:main</title>
<ellipse fill="none" stroke="black" cx="2466.55" cy="-90" rx="73.39" ry="18"/>
<text text-anchor="middle" x="2466.55" y="-86.3" font-family="Times,serif" font-size="14.00">:feature:main</text>
</g>
<!-- :feature:main&#45;&gt;:core:domain -->
<g id="edge8" class="edge">
<title>:feature:main&#45;&gt;:core:domain</title>
<path fill="none" stroke="black" d="M2430.28,-74.33C2403.66,-63.56 2367.34,-48.86 2338.82,-37.32"/>
<polygon fill="black" stroke="black" points="2340.05,-34.04 2329.47,-33.53 2337.43,-40.53 2340.05,-34.04"/>
</g>
<!-- :feature:other&#45;list -->
<g id="node10" class="node">
<title>:feature:other&#45;list</title>
<ellipse fill="none" stroke="black" cx="2650.55" cy="-90" rx="92.88" ry="18"/>
<text text-anchor="middle" x="2650.55" y="-86.3" font-family="Times,serif" font-size="14.00">:feature:other&#45;list</text>
</g>
<!-- :feature:other&#45;list&#45;&gt;:core:domain -->
<g id="edge9" class="edge">
<title>:feature:other&#45;list&#45;&gt;:core:domain</title>
<path fill="none" stroke="black" d="M2587.54,-76.65C2522.94,-63.98 2422.97,-44.38 2357.88,-31.62"/>
<polygon fill="black" stroke="black" points="2358.24,-28.12 2347.75,-29.63 2356.89,-34.99 2358.24,-28.12"/>
</g>
<!-- :feature:other&#45;readout&#45;start&#45;sound&#45;detail -->
<g id="node11" class="node">
<title>:feature:other&#45;readout&#45;start&#45;sound&#45;detail</title>
<ellipse fill="none" stroke="black" cx="2960.55" cy="-90" rx="199.56" ry="18"/>
<text text-anchor="middle" x="2960.55" y="-86.3" font-family="Times,serif" font-size="14.00">:feature:other&#45;readout&#45;start&#45;sound&#45;detail</text>
</g>
<!-- :feature:other&#45;readout&#45;start&#45;sound&#45;detail&#45;&gt;:core:domain -->
<g id="edge10" class="edge">
<title>:feature:other&#45;readout&#45;start&#45;sound&#45;detail&#45;&gt;:core:domain</title>
<path fill="none" stroke="black" d="M2835.87,-75.92C2698.07,-61.45 2480.67,-38.64 2367.52,-26.76"/>
<polygon fill="black" stroke="black" points="2367.87,-23.28 2357.56,-25.72 2367.14,-30.24 2367.87,-23.28"/>
</g>
<!-- :feature:other&#45;server&#45;ip&#45;detail -->
<g id="node12" class="node">
<title>:feature:other&#45;server&#45;ip&#45;detail</title>
<ellipse fill="none" stroke="black" cx="3326.55" cy="-90" rx="148.67" ry="18"/>
<text text-anchor="middle" x="3326.55" y="-86.3" font-family="Times,serif" font-size="14.00">:feature:other&#45;server&#45;ip&#45;detail</text>
</g>
<!-- :feature:other&#45;server&#45;ip&#45;detail&#45;&gt;:core:domain -->
<g id="edge11" class="edge">
<title>:feature:other&#45;server&#45;ip&#45;detail&#45;&gt;:core:domain</title>
<path fill="none" stroke="black" d="M3222.74,-77.06C3205.01,-75.22 3186.76,-73.45 3169.55,-72 2876.25,-47.26 2526.76,-29.68 2372.91,-22.54"/>
<polygon fill="black" stroke="black" points="2372.77,-19.03 2362.62,-22.06 2372.44,-26.02 2372.77,-19.03"/>
</g>
<!-- :feature:other&#45;volume&#45;detail -->
<g id="node13" class="node">
<title>:feature:other&#45;volume&#45;detail</title>
<ellipse fill="none" stroke="black" cx="3634.55" cy="-90" rx="141.07" ry="18"/>
<text text-anchor="middle" x="3634.55" y="-86.3" font-family="Times,serif" font-size="14.00">:feature:other&#45;volume&#45;detail</text>
</g>
<!-- :feature:other&#45;volume&#45;detail&#45;&gt;:core:domain -->
<g id="edge12" class="edge">
<title>:feature:other&#45;volume&#45;detail&#45;&gt;:core:domain</title>
<path fill="none" stroke="black" d="M3537.01,-76.97C3519.56,-75.09 3501.53,-73.34 3484.55,-72 3067.22,-39.1 2565.9,-25.11 2373.8,-20.68"/>
<polygon fill="black" stroke="black" points="2373.87,-17.18 2363.79,-20.45 2373.71,-24.18 2373.87,-17.18"/>
</g>
<!-- :feature:readout&#45;list -->
<g id="node14" class="node">
<title>:feature:readout&#45;list</title>
<ellipse fill="none" stroke="black" cx="3897.55" cy="-90" rx="103.98" ry="18"/>
<text text-anchor="middle" x="3897.55" y="-86.3" font-family="Times,serif" font-size="14.00">:feature:readout&#45;list</text>
</g>
<!-- :feature:readout&#45;list&#45;&gt;:core:domain -->
<g id="edge13" class="edge">
<title>:feature:readout&#45;list&#45;&gt;:core:domain</title>
<path fill="none" stroke="black" d="M3825.66,-76.93C3812.04,-75 3797.88,-73.24 3784.55,-72 3247.95,-22.26 2598.75,-18.36 2374.39,-18.65"/>
<polygon fill="black" stroke="black" points="2374.35,-15.15 2364.35,-18.66 2374.36,-22.15 2374.35,-15.15"/>
</g>
<!-- :feature:server&#45;connection -->
<g id="node15" class="node">
<title>:feature:server&#45;connection</title>
<ellipse fill="none" stroke="black" cx="4152.55" cy="-90" rx="133.48" ry="18"/>
<text text-anchor="middle" x="4152.55" y="-86.3" font-family="Times,serif" font-size="14.00">:feature:server&#45;connection</text>
</g>
<!-- :feature:server&#45;connection&#45;&gt;:core:domain -->
<g id="edge14" class="edge">
<title>:feature:server&#45;connection&#45;&gt;:core:domain</title>
<path fill="none" stroke="black" d="M4061,-76.84C4044.24,-74.95 4026.89,-73.23 4010.55,-72 3382.04,-24.77 2621.08,-19.4 2374.7,-18.96"/>
<polygon fill="black" stroke="black" points="2374.41,-15.46 2364.4,-18.95 2374.4,-22.46 2374.41,-15.46"/>
</g>
</g>
</svg>
