<?xml version="1.0" encoding="UTF-8" standalone="no"?>
<!DOCTYPE svg PUBLIC "-//W3C//DTD SVG 1.1//EN"
 "http://www.w3.org/Graphics/SVG/1.1/DTD/svg11.dtd">
<!-- Generated by graphviz version 2.43.0 (0)
 -->
<!-- Title: G Pages: 1 -->
<svg width="196pt" height="188pt"
 viewBox="0.00 0.00 195.59 188.00" xmlns="http://www.w3.org/2000/svg" xmlns:xlink="http://www.w3.org/1999/xlink">
<g id="graph0" class="graph" transform="scale(1 1) rotate(0) translate(4 184)">
<title>G</title>
<polygon fill="white" stroke="transparent" points="-4,4 -4,-184 191.59,-184 191.59,4 -4,4"/>
<!-- :app:desktopApp -->
<g id="node1" class="node">
<title>:app:desktopApp</title>
<ellipse fill="none" stroke="black" cx="99.19" cy="-162" rx="88.28" ry="18"/>
<text text-anchor="middle" x="99.19" y="-158.3" font-family="Times,serif" font-size="14.00">:app:desktopApp</text>
</g>
<!-- :core:data -->
<g id="node2" class="node">
<title>:core:data</title>
<ellipse fill="none" stroke="black" cx="57.19" cy="-90" rx="57.39" ry="18"/>
<text text-anchor="middle" x="57.19" y="-86.3" font-family="Times,serif" font-size="14.00">:core:data</text>
</g>
<!-- :app:desktopApp&#45;&gt;:core:data -->
<g id="edge1" class="edge">
<title>:app:desktopApp&#45;&gt;:core:data</title>
<path fill="none" stroke="black" d="M89.03,-144.05C84.08,-135.8 78.02,-125.7 72.52,-116.54"/>
<polygon fill="black" stroke="black" points="75.41,-114.56 67.27,-107.79 69.41,-118.16 75.41,-114.56"/>
</g>
<!-- :core:domain -->
<g id="node3" class="node">
<title>:core:domain</title>
<ellipse fill="none" stroke="black" cx="99.19" cy="-18" rx="70.69" ry="18"/>
<text text-anchor="middle" x="99.19" y="-14.3" font-family="Times,serif" font-size="14.00">:core:domain</text>
</g>
<!-- :app:desktopApp&#45;&gt;:core:domain -->
<g id="edge2" class="edge">
<title>:app:desktopApp&#45;&gt;:core:domain</title>
<path fill="none" stroke="black" d="M109.15,-143.98C114.47,-133.89 120.47,-120.64 123.19,-108 126.57,-92.36 126.57,-87.64 123.19,-72 121.23,-62.92 117.58,-53.52 113.71,-45.2"/>
<polygon fill="black" stroke="black" points="116.73,-43.42 109.15,-36.02 110.46,-46.53 116.73,-43.42"/>
</g>
<!-- :core:data&#45;&gt;:core:domain -->
<g id="edge3" class="edge">
<title>:core:data&#45;&gt;:core:domain</title>
<path fill="none" stroke="black" d="M67.36,-72.05C72.24,-63.92 78.2,-54 83.63,-44.94"/>
<polygon fill="black" stroke="black" points="86.69,-46.65 88.83,-36.28 80.68,-43.05 86.69,-46.65"/>
</g>
</g>
</svg>
