<?xml version="1.0" encoding="UTF-8" standalone="no"?>
<!DOCTYPE svg PUBLIC "-//W3C//DTD SVG 1.1//EN"
 "http://www.w3.org/Graphics/SVG/1.1/DTD/svg11.dtd">
<!-- Generated by graphviz version 2.43.0 (0)
 -->
<!-- Title: G Pages: 1 -->
<svg width="9920pt" height="116pt"
 viewBox="0.00 0.00 9919.50 116.00" xmlns="http://www.w3.org/2000/svg" xmlns:xlink="http://www.w3.org/1999/xlink">
<g id="graph0" class="graph" transform="scale(1 1) rotate(0) translate(4 112)">
<title>G</title>
<polygon fill="white" stroke="transparent" points="-4,4 -4,-112 9915.5,-112 9915.5,4 -4,4"/>
<!-- :core:designsystem -->
<g id="node1" class="node">
<title>:core:designsystem</title>
<path fill="#bbdefb" stroke="#1e88e5" stroke-width="2.5" d="M5352,-36C5352,-36 5221,-36 5221,-36 5215,-36 5209,-30 5209,-24 5209,-24 5209,-12 5209,-12 5209,-6 5215,0 5221,0 5221,0 5352,0 5352,0 5358,0 5364,-6 5364,-12 5364,-12 5364,-24 5364,-24 5364,-30 5358,-36 5352,-36"/>
<text text-anchor="middle" x="5286.5" y="-14.3" font-family="Times,serif" font-size="14.00">:core:designsystem</text>
</g>
<!-- :feature:ace&#45;windows&#45;narrator -->
<g id="node2" class="node">
<title>:feature:ace&#45;windows&#45;narrator</title>
<path fill="#c8e6c9" stroke="#43a047" d="M221,-108C221,-108 12,-108 12,-108 6,-108 0,-102 0,-96 0,-96 0,-84 0,-84 0,-78 6,-72 12,-72 12,-72 221,-72 221,-72 227,-72 233,-78 233,-84 233,-84 233,-96 233,-96 233,-102 227,-108 221,-108"/>
<text text-anchor="middle" x="116.5" y="-86.3" font-family="Times,serif" font-size="14.00">:feature:ace&#45;windows&#45;narrator</text>
</g>
<!-- :feature:ace&#45;windows&#45;narrator&#45;&gt;:core:designsystem -->
<g id="edge1" class="edge">
<title>:feature:ace&#45;windows&#45;narrator&#45;&gt;:core:designsystem</title>
<path fill="none" stroke="black" d="M233.15,-72.75C236.3,-72.47 239.42,-72.22 242.5,-72 755.08,-34.87 4568.55,-21.27 5198.5,-19.27"/>
<polygon fill="black" stroke="black" points="5198.87,-22.77 5208.86,-19.23 5198.85,-15.77 5198.87,-22.77"/>
</g>
<!-- :feature:ace&#45;windows&#45;readout&#45;flag&#45;detail -->
<g id="node3" class="node">
<title>:feature:ace&#45;windows&#45;readout&#45;flag&#45;detail</title>
<path fill="#c8e6c9" stroke="#43a047" d="M543.5,-108C543.5,-108 263.5,-108 263.5,-108 257.5,-108 251.5,-102 251.5,-96 251.5,-96 251.5,-84 251.5,-84 251.5,-78 257.5,-72 263.5,-72 263.5,-72 543.5,-72 543.5,-72 549.5,-72 555.5,-78 555.5,-84 555.5,-84 555.5,-96 555.5,-96 555.5,-102 549.5,-108 543.5,-108"/>
<text text-anchor="middle" x="403.5" y="-86.3" font-family="Times,serif" font-size="14.00">:feature:ace&#45;windows&#45;readout&#45;flag&#45;detail</text>
</g>
<!-- :feature:ace&#45;windows&#45;readout&#45;flag&#45;detail&#45;&gt;:core:designsystem -->
<g id="edge2" class="edge">
<title>:feature:ace&#45;windows&#45;readout&#45;flag&#45;detail&#45;&gt;:core:designsystem</title>
<path fill="none" stroke="black" d="M555.58,-72.56C558.58,-72.36 561.55,-72.17 564.5,-72 1515.99,-16.55 4634.3,-18.1 5198.56,-18.86"/>
<polygon fill="black" stroke="black" points="5198.66,-22.36 5208.66,-18.87 5198.67,-15.36 5198.66,-22.36"/>
</g>
<!-- :feature:ace&#45;windows&#45;readout&#45;remaining&#45;fuel&#45;detail -->
<g id="node4" class="node">
<title>:feature:ace&#45;windows&#45;readout&#45;remaining&#45;fuel&#45;detail</title>
<path fill="#c8e6c9" stroke="#43a047" d="M943.5,-108C943.5,-108 585.5,-108 585.5,-108 579.5,-108 573.5,-102 573.5,-96 573.5,-96 573.5,-84 573.5,-84 573.5,-78 579.5,-72 585.5,-72 585.5,-72 943.5,-72 943.5,-72 949.5,-72 955.5,-78 955.5,-84 955.5,-84 955.5,-96 955.5,-96 955.5,-102 949.5,-108 943.5,-108"/>
<text text-anchor="middle" x="764.5" y="-86.3" font-family="Times,serif" font-size="14.00">:feature:ace&#45;windows&#45;readout&#45;remaining&#45;fuel&#45;detail</text>
</g>
<!-- :feature:ace&#45;windows&#45;readout&#45;remaining&#45;fuel&#45;detail&#45;&gt;:core:designsystem -->
<g id="edge3" class="edge">
<title>:feature:ace&#45;windows&#45;readout&#45;remaining&#45;fuel&#45;detail&#45;&gt;:core:designsystem</title>
<path fill="none" stroke="black" d="M955.56,-72.46C958.56,-72.3 961.54,-72.14 964.5,-72 1831.7,-29.88 4662.49,-20.6 5198.48,-19.21"/>
<polygon fill="black" stroke="black" points="5198.85,-22.71 5208.84,-19.18 5198.84,-15.71 5198.85,-22.71"/>
</g>
<!-- :feature:ace&#45;windows&#45;readout&#45;tyre&#45;temperature&#45;detail -->
<g id="node5" class="node">
<title>:feature:ace&#45;windows&#45;readout&#45;tyre&#45;temperature&#45;detail</title>
<path fill="#c8e6c9" stroke="#43a047" d="M1363,-108C1363,-108 986,-108 986,-108 980,-108 974,-102 974,-96 974,-96 974,-84 974,-84 974,-78 980,-72 986,-72 986,-72 1363,-72 1363,-72 1369,-72 1375,-78 1375,-84 1375,-84 1375,-96 1375,-96 1375,-102 1369,-108 1363,-108"/>
<text text-anchor="middle" x="1174.5" y="-86.3" font-family="Times,serif" font-size="14.00">:feature:ace&#45;windows&#45;readout&#45;tyre&#45;temperature&#45;detail</text>
</g>
<!-- :feature:ace&#45;windows&#45;readout&#45;tyre&#45;temperature&#45;detail&#45;&gt;:core:designsystem -->
<g id="edge4" class="edge">
<title>:feature:ace&#45;windows&#45;readout&#45;tyre&#45;temperature&#45;detail&#45;&gt;:core:designsystem</title>
<path fill="none" stroke="black" d="M1375.11,-72.47C1378.26,-72.3 1381.39,-72.15 1384.5,-72 2163.1,-35.24 4694.52,-21.74 5198.69,-19.39"/>
<polygon fill="black" stroke="black" points="5198.83,-22.89 5208.82,-19.34 5198.8,-15.89 5198.83,-22.89"/>
</g>
<!-- :feature:ace&#45;windows&#45;readout&#45;vehicle&#45;approach&#45;detail -->
<g id="node6" class="node">
<title>:feature:ace&#45;windows&#45;readout&#45;vehicle&#45;approach&#45;detail</title>
<path fill="#c8e6c9" stroke="#43a047" d="M1779.5,-108C1779.5,-108 1405.5,-108 1405.5,-108 1399.5,-108 1393.5,-102 1393.5,-96 1393.5,-96 1393.5,-84 1393.5,-84 1393.5,-78 1399.5,-72 1405.5,-72 1405.5,-72 1779.5,-72 1779.5,-72 1785.5,-72 1791.5,-78 1791.5,-84 1791.5,-84 1791.5,-96 1791.5,-96 1791.5,-102 1785.5,-108 1779.5,-108"/>
<text text-anchor="middle" x="1592.5" y="-86.3" font-family="Times,serif" font-size="14.00">:feature:ace&#45;windows&#45;readout&#45;vehicle&#45;approach&#45;detail</text>
</g>
<!-- :feature:ace&#45;windows&#45;readout&#45;vehicle&#45;approach&#45;detail&#45;&gt;:core:designsystem -->
<g id="edge5" class="edge">
<title>:feature:ace&#45;windows&#45;readout&#45;vehicle&#45;approach&#45;detail&#45;&gt;:core:designsystem</title>
<path fill="none" stroke="black" d="M1791.75,-72.44C1794.69,-72.29 1797.6,-72.14 1800.5,-72 2491.41,-38.55 4727.42,-22.58 5198.77,-19.54"/>
<polygon fill="black" stroke="black" points="5198.93,-23.04 5208.91,-19.48 5198.89,-16.04 5198.93,-23.04"/>
</g>
<!-- :feature:debug&#45;state&#45;detail -->
<g id="node7" class="node">
<title>:feature:debug&#45;state&#45;detail</title>
<path fill="#c8e6c9" stroke="#43a047" d="M2005,-108C2005,-108 1822,-108 1822,-108 1816,-108 1810,-102 1810,-96 1810,-96 1810,-84 1810,-84 1810,-78 1816,-72 1822,-72 1822,-72 2005,-72 2005,-72 2011,-72 2017,-78 2017,-84 2017,-84 2017,-96 2017,-96 2017,-102 2011,-108 2005,-108"/>
<text text-anchor="middle" x="1913.5" y="-86.3" font-family="Times,serif" font-size="14.00">:feature:debug&#45;state&#45;detail</text>
</g>
<!-- :feature:debug&#45;state&#45;detail&#45;&gt;:core:designsystem -->
<g id="edge6" class="edge">
<title>:feature:debug&#45;state&#45;detail&#45;&gt;:core:designsystem</title>
<path fill="none" stroke="black" d="M2017.19,-72.85C2020.33,-72.54 2023.44,-72.25 2026.5,-72 2668.39,-18.74 4745.32,-18.29 5198.6,-18.85"/>
<polygon fill="black" stroke="black" points="5198.68,-22.35 5208.69,-18.86 5198.69,-15.35 5198.68,-22.35"/>
</g>
<!-- :feature:desktop&#45;splash -->
<g id="node8" class="node">
<title>:feature:desktop&#45;splash</title>
<path fill="#c8e6c9" stroke="#43a047" d="M2207.5,-108C2207.5,-108 2047.5,-108 2047.5,-108 2041.5,-108 2035.5,-102 2035.5,-96 2035.5,-96 2035.5,-84 2035.5,-84 2035.5,-78 2041.5,-72 2047.5,-72 2047.5,-72 2207.5,-72 2207.5,-72 2213.5,-72 2219.5,-78 2219.5,-84 2219.5,-84 2219.5,-96 2219.5,-96 2219.5,-102 2213.5,-108 2207.5,-108"/>
<text text-anchor="middle" x="2127.5" y="-86.3" font-family="Times,serif" font-size="14.00">:feature:desktop&#45;splash</text>
</g>
<!-- :feature:desktop&#45;splash&#45;&gt;:core:designsystem -->
<g id="edge7" class="edge">
<title>:feature:desktop&#45;splash&#45;&gt;:core:designsystem</title>
<path fill="none" stroke="black" d="M2219.62,-72.91C2222.61,-72.58 2225.58,-72.27 2228.5,-72 2827.7,-16.69 4762.95,-17.77 5198.78,-18.75"/>
<polygon fill="black" stroke="black" points="5198.78,-22.25 5208.79,-18.77 5198.8,-15.25 5198.78,-22.25"/>
</g>
<!-- :feature:gt7&#45;ps5&#45;narrator -->
<g id="node9" class="node">
<title>:feature:gt7&#45;ps5&#45;narrator</title>
<path fill="#c8e6c9" stroke="#43a047" d="M2421.5,-108C2421.5,-108 2249.5,-108 2249.5,-108 2243.5,-108 2237.5,-102 2237.5,-96 2237.5,-96 2237.5,-84 2237.5,-84 2237.5,-78 2243.5,-72 2249.5,-72 2249.5,-72 2421.5,-72 2421.5,-72 2427.5,-72 2433.5,-78 2433.5,-84 2433.5,-84 2433.5,-96 2433.5,-96 2433.5,-102 2427.5,-108 2421.5,-108"/>
<text text-anchor="middle" x="2335.5" y="-86.3" font-family="Times,serif" font-size="14.00">:feature:gt7&#45;ps5&#45;narrator</text>
</g>
<!-- :feature:gt7&#45;ps5&#45;narrator&#45;&gt;:core:designsystem -->
<g id="edge8" class="edge">
<title>:feature:gt7&#45;ps5&#45;narrator&#45;&gt;:core:designsystem</title>
<path fill="none" stroke="black" d="M2433.68,-72.86C2436.65,-72.54 2439.6,-72.26 2442.5,-72 2997.11,-23.01 4781.16,-19.2 5198.56,-18.99"/>
<polygon fill="black" stroke="black" points="5198.76,-22.49 5208.75,-18.99 5198.75,-15.49 5198.76,-22.49"/>
</g>
<!-- :feature:gt7&#45;ps5&#45;readout&#45;my&#45;best&#45;lap&#45;detail -->
<g id="node10" class="node">
<title>:feature:gt7&#45;ps5&#45;readout&#45;my&#45;best&#45;lap&#45;detail</title>
<path fill="#c8e6c9" stroke="#43a047" d="M2763.5,-108C2763.5,-108 2463.5,-108 2463.5,-108 2457.5,-108 2451.5,-102 2451.5,-96 2451.5,-96 2451.5,-84 2451.5,-84 2451.5,-78 2457.5,-72 2463.5,-72 2463.5,-72 2763.5,-72 2763.5,-72 2769.5,-72 2775.5,-78 2775.5,-84 2775.5,-84 2775.5,-96 2775.5,-96 2775.5,-102 2769.5,-108 2763.5,-108"/>
<text text-anchor="middle" x="2613.5" y="-86.3" font-family="Times,serif" font-size="14.00">:feature:gt7&#45;ps5&#45;readout&#45;my&#45;best&#45;lap&#45;detail</text>
</g>
<!-- :feature:gt7&#45;ps5&#45;readout&#45;my&#45;best&#45;lap&#45;detail&#45;&gt;:core:designsystem -->
<g id="edge9" class="edge">
<title>:feature:gt7&#45;ps5&#45;readout&#45;my&#45;best&#45;lap&#45;detail&#45;&gt;:core:designsystem</title>
<path fill="none" stroke="black" d="M2775.94,-72.54C2778.82,-72.35 2781.67,-72.17 2784.5,-72 3268.93,-42.83 4813.24,-24.21 5198.69,-19.94"/>
<polygon fill="black" stroke="black" points="5198.98,-23.44 5208.94,-19.83 5198.9,-16.44 5198.98,-23.44"/>
</g>
<!-- :feature:gt7&#45;ps5&#45;readout&#45;remaining&#45;fuel&#45;detail -->
<g id="node11" class="node">
<title>:feature:gt7&#45;ps5&#45;readout&#45;remaining&#45;fuel&#45;detail</title>
<path fill="#c8e6c9" stroke="#43a047" d="M3127,-108C3127,-108 2806,-108 2806,-108 2800,-108 2794,-102 2794,-96 2794,-96 2794,-84 2794,-84 2794,-78 2800,-72 2806,-72 2806,-72 3127,-72 3127,-72 3133,-72 3139,-78 3139,-84 3139,-84 3139,-96 3139,-96 3139,-102 3133,-108 3127,-108"/>
<text text-anchor="middle" x="2966.5" y="-86.3" font-family="Times,serif" font-size="14.00">:feature:gt7&#45;ps5&#45;readout&#45;remaining&#45;fuel&#45;detail</text>
</g>
<!-- :feature:gt7&#45;ps5&#45;readout&#45;remaining&#45;fuel&#45;detail&#45;&gt;:core:designsystem -->
<g id="edge10" class="edge">
<title>:feature:gt7&#45;ps5&#45;readout&#45;remaining&#45;fuel&#45;detail&#45;&gt;:core:designsystem</title>
<path fill="none" stroke="black" d="M3139.41,-72.5C3142.12,-72.33 3144.82,-72.16 3147.5,-72 3942.74,-24.86 4906.71,-19.51 5198.62,-19.01"/>
<polygon fill="black" stroke="black" points="5198.73,-22.51 5208.72,-18.99 5198.72,-15.51 5198.73,-22.51"/>
</g>
<!-- :feature:gt7&#45;ps5&#45;readout&#45;remaining&#45;fuel&#45;laps&#45;detail -->
<g id="node12" class="node">
<title>:feature:gt7&#45;ps5&#45;readout&#45;remaining&#45;fuel&#45;laps&#45;detail</title>
<path fill="#c8e6c9" stroke="#43a047" d="M3524,-108C3524,-108 3169,-108 3169,-108 3163,-108 3157,-102 3157,-96 3157,-96 3157,-84 3157,-84 3157,-78 3163,-72 3169,-72 3169,-72 3524,-72 3524,-72 3530,-72 3536,-78 3536,-84 3536,-84 3536,-96 3536,-96 3536,-102 3530,-108 3524,-108"/>
<text text-anchor="middle" x="3346.5" y="-86.3" font-family="Times,serif" font-size="14.00">:feature:gt7&#45;ps5&#45;readout&#45;remaining&#45;fuel&#45;laps&#45;detail</text>
</g>
<!-- :feature:gt7&#45;ps5&#45;readout&#45;remaining&#45;fuel&#45;laps&#45;detail&#45;&gt;:core:designsystem -->
<g id="edge11" class="edge">
<title>:feature:gt7&#45;ps5&#45;readout&#45;remaining&#45;fuel&#45;laps&#45;detail&#45;&gt;:core:designsystem</title>
<path fill="none" stroke="black" d="M3536.17,-72.5C3538.97,-72.33 3541.74,-72.16 3544.5,-72 4177.98,-35.2 4942.62,-23.12 5198.39,-19.96"/>
<polygon fill="black" stroke="black" points="5198.78,-23.46 5208.73,-19.84 5198.69,-16.46 5198.78,-23.46"/>
</g>
<!-- :feature:gt7&#45;ps5&#45;readout&#45;tyre&#45;temperature&#45;detail -->
<g id="node13" class="node">
<title>:feature:gt7&#45;ps5&#45;readout&#45;tyre&#45;temperature&#45;detail</title>
<path fill="#c8e6c9" stroke="#43a047" d="M3907,-108C3907,-108 3566,-108 3566,-108 3560,-108 3554,-102 3554,-96 3554,-96 3554,-84 3554,-84 3554,-78 3560,-72 3566,-72 3566,-72 3907,-72 3907,-72 3913,-72 3919,-78 3919,-84 3919,-84 3919,-96 3919,-96 3919,-102 3913,-108 3907,-108"/>
<text text-anchor="middle" x="3736.5" y="-86.3" font-family="Times,serif" font-size="14.00">:feature:gt7&#45;ps5&#45;readout&#45;tyre&#45;temperature&#45;detail</text>
</g>
<!-- :feature:gt7&#45;ps5&#45;readout&#45;tyre&#45;temperature&#45;detail&#45;&gt;:core:designsystem -->
<g id="edge12" class="edge">
<title>:feature:gt7&#45;ps5&#45;readout&#45;tyre&#45;temperature&#45;detail&#45;&gt;:core:designsystem</title>
<path fill="none" stroke="black" d="M3919.16,-72.61C3922.29,-72.4 3925.41,-72.2 3928.5,-72 4407.43,-41.47 4982.57,-26 5198.71,-20.93"/>
<polygon fill="black" stroke="black" points="5198.82,-24.43 5208.73,-20.69 5198.65,-17.43 5198.82,-24.43"/>
</g>
<!-- :feature:lmu&#45;windows&#45;narrator -->
<g id="node14" class="node">
<title>:feature:lmu&#45;windows&#45;narrator</title>
<path fill="#c8e6c9" stroke="#43a047" d="M4161.5,-108C4161.5,-108 3949.5,-108 3949.5,-108 3943.5,-108 3937.5,-102 3937.5,-96 3937.5,-96 3937.5,-84 3937.5,-84 3937.5,-78 3943.5,-72 3949.5,-72 3949.5,-72 4161.5,-72 4161.5,-72 4167.5,-72 4173.5,-78 4173.5,-84 4173.5,-84 4173.5,-96 4173.5,-96 4173.5,-102 4167.5,-108 4161.5,-108"/>
<text text-anchor="middle" x="4055.5" y="-86.3" font-family="Times,serif" font-size="14.00">:feature:lmu&#45;windows&#45;narrator</text>
</g>
<!-- :feature:lmu&#45;windows&#45;narrator&#45;&gt;:core:designsystem -->
<g id="edge13" class="edge">
<title>:feature:lmu&#45;windows&#45;narrator&#45;&gt;:core:designsystem</title>
<path fill="none" stroke="black" d="M4173.77,-72.83C4176.7,-72.54 4179.62,-72.26 4182.5,-72 4559.68,-37.76 5011.48,-24.82 5198.65,-20.68"/>
<polygon fill="black" stroke="black" points="5198.79,-24.18 5208.71,-20.46 5198.64,-17.18 5198.79,-24.18"/>
</g>
<!-- :feature:lmu&#45;windows&#45;readout&#45;flag&#45;detail -->
<g id="node15" class="node">
<title>:feature:lmu&#45;windows&#45;readout&#45;flag&#45;detail</title>
<path fill="#c8e6c9" stroke="#43a047" d="M4487,-108C4487,-108 4204,-108 4204,-108 4198,-108 4192,-102 4192,-96 4192,-96 4192,-84 4192,-84 4192,-78 4198,-72 4204,-72 4204,-72 4487,-72 4487,-72 4493,-72 4499,-78 4499,-84 4499,-84 4499,-96 4499,-96 4499,-102 4493,-108 4487,-108"/>
<text text-anchor="middle" x="4345.5" y="-86.3" font-family="Times,serif" font-size="14.00">:feature:lmu&#45;windows&#45;readout&#45;flag&#45;detail</text>
</g>
<!-- :feature:lmu&#45;windows&#45;readout&#45;flag&#45;detail&#45;&gt;:core:designsystem -->
<g id="edge14" class="edge">
<title>:feature:lmu&#45;windows&#45;readout&#45;flag&#45;detail&#45;&gt;:core:designsystem</title>
<path fill="none" stroke="black" d="M4499.06,-72.83C4502.23,-72.55 4505.38,-72.27 4508.5,-72 4758.61,-50.45 5054.57,-32.31 5198.74,-23.95"/>
<polygon fill="black" stroke="black" points="5199.07,-27.44 5208.85,-23.36 5198.67,-20.45 5199.07,-27.44"/>
</g>
<!-- :feature:lmu&#45;windows&#45;readout&#45;my&#45;best&#45;lap&#45;detail -->
<g id="node16" class="node">
<title>:feature:lmu&#45;windows&#45;readout&#45;my&#45;best&#45;lap&#45;detail</title>
<path fill="#c8e6c9" stroke="#43a047" d="M4869.5,-108C4869.5,-108 4529.5,-108 4529.5,-108 4523.5,-108 4517.5,-102 4517.5,-96 4517.5,-96 4517.5,-84 4517.5,-84 4517.5,-78 4523.5,-72 4529.5,-72 4529.5,-72 4869.5,-72 4869.5,-72 4875.5,-72 4881.5,-78 4881.5,-84 4881.5,-84 4881.5,-96 4881.5,-96 4881.5,-102 4875.5,-108 4869.5,-108"/>
<text text-anchor="middle" x="4699.5" y="-86.3" font-family="Times,serif" font-size="14.00">:feature:lmu&#45;windows&#45;readout&#45;my&#45;best&#45;lap&#45;detail</text>
</g>
<!-- :feature:lmu&#45;windows&#45;readout&#45;my&#45;best&#45;lap&#45;detail&#45;&gt;:core:designsystem -->
<g id="edge15" class="edge">
<title>:feature:lmu&#45;windows&#45;readout&#45;my&#45;best&#45;lap&#45;detail&#45;&gt;:core:designsystem</title>
<path fill="none" stroke="black" d="M4842.35,-71.97C4953.67,-58.69 5104.67,-40.68 5198.81,-29.46"/>
<polygon fill="black" stroke="black" points="5199.35,-32.92 5208.87,-28.26 5198.52,-25.97 5199.35,-32.92"/>
</g>
<!-- :feature:lmu&#45;windows&#45;readout&#45;pit&#45;timing&#45;detail -->
<g id="node17" class="node">
<title>:feature:lmu&#45;windows&#45;readout&#45;pit&#45;timing&#45;detail</title>
<path fill="#c8e6c9" stroke="#43a047" d="M5239,-108C5239,-108 4912,-108 4912,-108 4906,-108 4900,-102 4900,-96 4900,-96 4900,-84 4900,-84 4900,-78 4906,-72 4912,-72 4912,-72 5239,-72 5239,-72 5245,-72 5251,-78 5251,-84 5251,-84 5251,-96 5251,-96 5251,-102 5245,-108 5239,-108"/>
<text text-anchor="middle" x="5075.5" y="-86.3" font-family="Times,serif" font-size="14.00">:feature:lmu&#45;windows&#45;readout&#45;pit&#45;timing&#45;detail</text>
</g>
<!-- :feature:lmu&#45;windows&#45;readout&#45;pit&#45;timing&#45;detail&#45;&gt;:core:designsystem -->
<g id="edge16" class="edge">
<title>:feature:lmu&#45;windows&#45;readout&#45;pit&#45;timing&#45;detail&#45;&gt;:core:designsystem</title>
<path fill="none" stroke="black" d="M5126.85,-71.97C5156.46,-62.14 5193.87,-49.73 5225.04,-39.39"/>
<polygon fill="black" stroke="black" points="5226.53,-42.58 5234.92,-36.11 5224.33,-35.94 5226.53,-42.58"/>
</g>
<!-- :feature:lmu&#45;windows&#45;readout&#45;remaining&#45;virtual&#45;energy&#45;detail -->
<g id="node18" class="node">
<title>:feature:lmu&#45;windows&#45;readout&#45;remaining&#45;virtual&#45;energy&#45;detail</title>
<path fill="#c8e6c9" stroke="#43a047" d="M5716,-108C5716,-108 5281,-108 5281,-108 5275,-108 5269,-102 5269,-96 5269,-96 5269,-84 5269,-84 5269,-78 5275,-72 5281,-72 5281,-72 5716,-72 5716,-72 5722,-72 5728,-78 5728,-84 5728,-84 5728,-96 5728,-96 5728,-102 5722,-108 5716,-108"/>
<text text-anchor="middle" x="5498.5" y="-86.3" font-family="Times,serif" font-size="14.00">:feature:lmu&#45;windows&#45;readout&#45;remaining&#45;virtual&#45;energy&#45;detail</text>
</g>
<!-- :feature:lmu&#45;windows&#45;readout&#45;remaining&#45;virtual&#45;energy&#45;detail&#45;&gt;:core:designsystem -->
<g id="edge17" class="edge">
<title>:feature:lmu&#45;windows&#45;readout&#45;remaining&#45;virtual&#45;energy&#45;detail&#45;&gt;:core:designsystem</title>
<path fill="none" stroke="black" d="M5446.91,-71.97C5417.03,-62.1 5379.24,-49.62 5347.84,-39.25"/>
<polygon fill="black" stroke="black" points="5348.91,-35.92 5338.32,-36.11 5346.72,-42.57 5348.91,-35.92"/>
</g>
<!-- :feature:lmu&#45;windows&#45;readout&#45;tyre&#45;temperature&#45;detail -->
<g id="node19" class="node">
<title>:feature:lmu&#45;windows&#45;readout&#45;tyre&#45;temperature&#45;detail</title>
<path fill="#c8e6c9" stroke="#43a047" d="M6138.5,-108C6138.5,-108 5758.5,-108 5758.5,-108 5752.5,-108 5746.5,-102 5746.5,-96 5746.5,-96 5746.5,-84 5746.5,-84 5746.5,-78 5752.5,-72 5758.5,-72 5758.5,-72 6138.5,-72 6138.5,-72 6144.5,-72 6150.5,-78 6150.5,-84 6150.5,-84 6150.5,-96 6150.5,-96 6150.5,-102 6144.5,-108 6138.5,-108"/>
<text text-anchor="middle" x="5948.5" y="-86.3" font-family="Times,serif" font-size="14.00">:feature:lmu&#45;windows&#45;readout&#45;tyre&#45;temperature&#45;detail</text>
</g>
<!-- :feature:lmu&#45;windows&#45;readout&#45;tyre&#45;temperature&#45;detail&#45;&gt;:core:designsystem -->
<g id="edge18" class="edge">
<title>:feature:lmu&#45;windows&#45;readout&#45;tyre&#45;temperature&#45;detail&#45;&gt;:core:designsystem</title>
<path fill="none" stroke="black" d="M5787.4,-71.97C5657.4,-58.22 5479.41,-39.4 5374.34,-28.29"/>
<polygon fill="black" stroke="black" points="5374.4,-24.78 5364.09,-27.2 5373.67,-31.74 5374.4,-24.78"/>
</g>
<!-- :feature:lmu&#45;windows&#45;readout&#45;tyre&#45;wear&#45;detail -->
<g id="node20" class="node">
<title>:feature:lmu&#45;windows&#45;readout&#45;tyre&#45;wear&#45;detail</title>
<path fill="#c8e6c9" stroke="#43a047" d="M6506.5,-108C6506.5,-108 6180.5,-108 6180.5,-108 6174.5,-108 6168.5,-102 6168.5,-96 6168.5,-96 6168.5,-84 6168.5,-84 6168.5,-78 6174.5,-72 6180.5,-72 6180.5,-72 6506.5,-72 6506.5,-72 6512.5,-72 6518.5,-78 6518.5,-84 6518.5,-84 6518.5,-96 6518.5,-96 6518.5,-102 6512.5,-108 6506.5,-108"/>
<text text-anchor="middle" x="6343.5" y="-86.3" font-family="Times,serif" font-size="14.00">:feature:lmu&#45;windows&#45;readout&#45;tyre&#45;wear&#45;detail</text>
</g>
<!-- :feature:lmu&#45;windows&#45;readout&#45;tyre&#45;wear&#45;detail&#45;&gt;:core:designsystem -->
<g id="edge19" class="edge">
<title>:feature:lmu&#45;windows&#45;readout&#45;tyre&#45;wear&#45;detail&#45;&gt;:core:designsystem</title>
<path fill="none" stroke="black" d="M6168.21,-72.68C6165.28,-72.45 6162.38,-72.22 6159.5,-72 5872.47,-50.03 5531.77,-31.53 5374.32,-23.41"/>
<polygon fill="black" stroke="black" points="5374.39,-19.91 5364.22,-22.9 5374.03,-26.9 5374.39,-19.91"/>
</g>
<!-- :feature:lmu&#45;windows&#45;readout&#45;vehicle&#45;approach&#45;detail -->
<g id="node21" class="node">
<title>:feature:lmu&#45;windows&#45;readout&#45;vehicle&#45;approach&#45;detail</title>
<path fill="#c8e6c9" stroke="#43a047" d="M6926,-108C6926,-108 6549,-108 6549,-108 6543,-108 6537,-102 6537,-96 6537,-96 6537,-84 6537,-84 6537,-78 6543,-72 6549,-72 6549,-72 6926,-72 6926,-72 6932,-72 6938,-78 6938,-84 6938,-84 6938,-96 6938,-96 6938,-102 6932,-108 6926,-108"/>
<text text-anchor="middle" x="6737.5" y="-86.3" font-family="Times,serif" font-size="14.00">:feature:lmu&#45;windows&#45;readout&#45;vehicle&#45;approach&#45;detail</text>
</g>
<!-- :feature:lmu&#45;windows&#45;readout&#45;vehicle&#45;approach&#45;detail&#45;&gt;:core:designsystem -->
<g id="edge20" class="edge">
<title>:feature:lmu&#45;windows&#45;readout&#45;vehicle&#45;approach&#45;detail&#45;&gt;:core:designsystem</title>
<path fill="none" stroke="black" d="M6536.88,-72.59C6533.73,-72.39 6530.6,-72.19 6527.5,-72 6095.18,-45.28 5577.29,-27.86 5374.25,-21.6"/>
<polygon fill="black" stroke="black" points="5374.34,-18.1 5364.24,-21.29 5374.13,-25.1 5374.34,-18.1"/>
</g>
<!-- :feature:lmu&#45;windows&#45;readout&#45;vehicle&#45;damage&#45;detail -->
<g id="node22" class="node">
<title>:feature:lmu&#45;windows&#45;readout&#45;vehicle&#45;damage&#45;detail</title>
<path fill="#c8e6c9" stroke="#43a047" d="M7335.5,-108C7335.5,-108 6967.5,-108 6967.5,-108 6961.5,-108 6955.5,-102 6955.5,-96 6955.5,-96 6955.5,-84 6955.5,-84 6955.5,-78 6961.5,-72 6967.5,-72 6967.5,-72 7335.5,-72 7335.5,-72 7341.5,-72 7347.5,-78 7347.5,-84 7347.5,-84 7347.5,-96 7347.5,-96 7347.5,-102 7341.5,-108 7335.5,-108"/>
<text text-anchor="middle" x="7151.5" y="-86.3" font-family="Times,serif" font-size="14.00">:feature:lmu&#45;windows&#45;readout&#45;vehicle&#45;damage&#45;detail</text>
</g>
<!-- :feature:lmu&#45;windows&#45;readout&#45;vehicle&#45;damage&#45;detail&#45;&gt;:core:designsystem -->
<g id="edge21" class="edge">
<title>:feature:lmu&#45;windows&#45;readout&#45;vehicle&#45;damage&#45;detail&#45;&gt;:core:designsystem</title>
<path fill="none" stroke="black" d="M6955.27,-72.46C6952.66,-72.3 6950.07,-72.15 6947.5,-72 6346.63,-37.4 5622.09,-24 5374.42,-20.22"/>
<polygon fill="black" stroke="black" points="5374.45,-16.72 5364.4,-20.07 5374.34,-23.72 5374.45,-16.72"/>
</g>
<!-- :feature:other&#45;console&#45;ip&#45;detail -->
<g id="node23" class="node">
<title>:feature:other&#45;console&#45;ip&#45;detail</title>
<path fill="#c8e6c9" stroke="#43a047" d="M7589.5,-108C7589.5,-108 7377.5,-108 7377.5,-108 7371.5,-108 7365.5,-102 7365.5,-96 7365.5,-96 7365.5,-84 7365.5,-84 7365.5,-78 7371.5,-72 7377.5,-72 7377.5,-72 7589.5,-72 7589.5,-72 7595.5,-72 7601.5,-78 7601.5,-84 7601.5,-84 7601.5,-96 7601.5,-96 7601.5,-102 7595.5,-108 7589.5,-108"/>
<text text-anchor="middle" x="7483.5" y="-86.3" font-family="Times,serif" font-size="14.00">:feature:other&#45;console&#45;ip&#45;detail</text>
</g>
<!-- :feature:other&#45;console&#45;ip&#45;detail&#45;&gt;:core:designsystem -->
<g id="edge22" class="edge">
<title>:feature:other&#45;console&#45;ip&#45;detail&#45;&gt;:core:designsystem</title>
<path fill="none" stroke="black" d="M7365.24,-72.75C7362.3,-72.48 7359.38,-72.23 7356.5,-72 6962.26,-40.66 5716.6,-24.04 5374.29,-19.99"/>
<polygon fill="black" stroke="black" points="5374.22,-16.49 5364.18,-19.87 5374.14,-23.49 5374.22,-16.49"/>
</g>
<!-- :feature:other&#45;feedback&#45;detail -->
<g id="node24" class="node">
<title>:feature:other&#45;feedback&#45;detail</title>
<path fill="#c8e6c9" stroke="#43a047" d="M7837,-108C7837,-108 7632,-108 7632,-108 7626,-108 7620,-102 7620,-96 7620,-96 7620,-84 7620,-84 7620,-78 7626,-72 7632,-72 7632,-72 7837,-72 7837,-72 7843,-72 7849,-78 7849,-84 7849,-84 7849,-96 7849,-96 7849,-102 7843,-108 7837,-108"/>
<text text-anchor="middle" x="7734.5" y="-86.3" font-family="Times,serif" font-size="14.00">:feature:other&#45;feedback&#45;detail</text>
</g>
<!-- :feature:other&#45;feedback&#45;detail&#45;&gt;:core:designsystem -->
<g id="edge23" class="edge">
<title>:feature:other&#45;feedback&#45;detail&#45;&gt;:core:designsystem</title>
<path fill="none" stroke="black" d="M7619.7,-72.79C7616.6,-72.51 7613.53,-72.24 7610.5,-72 7163.6,-36.39 5742.03,-22.67 5374.12,-19.67"/>
<polygon fill="black" stroke="black" points="5374.09,-16.17 5364.06,-19.58 5374.03,-23.17 5374.09,-16.17"/>
</g>
<!-- :feature:other&#45;license&#45;detail -->
<g id="node25" class="node">
<title>:feature:other&#45;license&#45;detail</title>
<path fill="#c8e6c9" stroke="#43a047" d="M8070,-108C8070,-108 7879,-108 7879,-108 7873,-108 7867,-102 7867,-96 7867,-96 7867,-84 7867,-84 7867,-78 7873,-72 7879,-72 7879,-72 8070,-72 8070,-72 8076,-72 8082,-78 8082,-84 8082,-84 8082,-96 8082,-96 8082,-102 8076,-108 8070,-108"/>
<text text-anchor="middle" x="7974.5" y="-86.3" font-family="Times,serif" font-size="14.00">:feature:other&#45;license&#45;detail</text>
</g>
<!-- :feature:other&#45;license&#45;detail&#45;&gt;:core:designsystem -->
<g id="edge24" class="edge">
<title>:feature:other&#45;license&#45;detail&#45;&gt;:core:designsystem</title>
<path fill="none" stroke="black" d="M7866.81,-72.75C7864.01,-72.48 7861.24,-72.23 7858.5,-72 7360.25,-30.52 5766.26,-21.06 5374.23,-19.33"/>
<polygon fill="black" stroke="black" points="5374.1,-15.83 5364.08,-19.29 5374.07,-22.83 5374.1,-15.83"/>
</g>
<!-- :feature:other&#45;list -->
<g id="node26" class="node">
<title>:feature:other&#45;list</title>
<path fill="#c8e6c9" stroke="#43a047" d="M8231,-108C8231,-108 8112,-108 8112,-108 8106,-108 8100,-102 8100,-96 8100,-96 8100,-84 8100,-84 8100,-78 8106,-72 8112,-72 8112,-72 8231,-72 8231,-72 8237,-72 8243,-78 8243,-84 8243,-84 8243,-96 8243,-96 8243,-102 8237,-108 8231,-108"/>
<text text-anchor="middle" x="8171.5" y="-86.3" font-family="Times,serif" font-size="14.00">:feature:other&#45;list</text>
</g>
<!-- :feature:other&#45;list&#45;&gt;:core:designsystem -->
<g id="edge25" class="edge">
<title>:feature:other&#45;list&#45;&gt;:core:designsystem</title>
<path fill="none" stroke="black" d="M8099.65,-73.06C8096.9,-72.66 8094.18,-72.31 8091.5,-72 7816.63,-40.49 5820.09,-23.16 5374.51,-19.66"/>
<polygon fill="black" stroke="black" points="5374.31,-16.16 5364.28,-19.58 5374.25,-23.16 5374.31,-16.16"/>
</g>
<!-- :feature:other&#45;readout&#45;start&#45;sound&#45;detail -->
<g id="node27" class="node">
<title>:feature:other&#45;readout&#45;start&#45;sound&#45;detail</title>
<path fill="#c8e6c9" stroke="#43a047" d="M8556,-108C8556,-108 8273,-108 8273,-108 8267,-108 8261,-102 8261,-96 8261,-96 8261,-84 8261,-84 8261,-78 8267,-72 8273,-72 8273,-72 8556,-72 8556,-72 8562,-72 8568,-78 8568,-84 8568,-84 8568,-96 8568,-96 8568,-102 8562,-108 8556,-108"/>
<text text-anchor="middle" x="8414.5" y="-86.3" font-family="Times,serif" font-size="14.00">:feature:other&#45;readout&#45;start&#45;sound&#45;detail</text>
</g>
<!-- :feature:other&#45;readout&#45;start&#45;sound&#45;detail&#45;&gt;:core:designsystem -->
<g id="edge26" class="edge">
<title>:feature:other&#45;readout&#45;start&#45;sound&#45;detail&#45;&gt;:core:designsystem</title>
<path fill="none" stroke="black" d="M8260.61,-72.53C8257.89,-72.34 8255.18,-72.16 8252.5,-72 7671.21,-36.37 5802.09,-22.33 5374.29,-19.54"/>
<polygon fill="black" stroke="black" points="5374.18,-16.04 5364.15,-19.47 5374.13,-23.04 5374.18,-16.04"/>
</g>
<!-- :feature:other&#45;server&#45;ip&#45;detail -->
<g id="node28" class="node">
<title>:feature:other&#45;server&#45;ip&#45;detail</title>
<path fill="#c8e6c9" stroke="#43a047" d="M8803,-108C8803,-108 8598,-108 8598,-108 8592,-108 8586,-102 8586,-96 8586,-96 8586,-84 8586,-84 8586,-78 8592,-72 8598,-72 8598,-72 8803,-72 8803,-72 8809,-72 8815,-78 8815,-84 8815,-84 8815,-96 8815,-96 8815,-102 8809,-108 8803,-108"/>
<text text-anchor="middle" x="8700.5" y="-86.3" font-family="Times,serif" font-size="14.00">:feature:other&#45;server&#45;ip&#45;detail</text>
</g>
<!-- :feature:other&#45;server&#45;ip&#45;detail&#45;&gt;:core:designsystem -->
<g id="edge27" class="edge">
<title>:feature:other&#45;server&#45;ip&#45;detail&#45;&gt;:core:designsystem</title>
<path fill="none" stroke="black" d="M8585.97,-72.71C8583.12,-72.45 8580.29,-72.21 8577.5,-72 7928.84,-22.14 5830.47,-19.05 5374.47,-18.97"/>
<polygon fill="black" stroke="black" points="5374.33,-15.47 5364.33,-18.97 5374.33,-22.47 5374.33,-15.47"/>
</g>
<!-- :feature:other&#45;theme&#45;detail -->
<g id="node29" class="node">
<title>:feature:other&#45;theme&#45;detail</title>
<path fill="#c8e6c9" stroke="#43a047" d="M9031.5,-108C9031.5,-108 8845.5,-108 8845.5,-108 8839.5,-108 8833.5,-102 8833.5,-96 8833.5,-96 8833.5,-84 8833.5,-84 8833.5,-78 8839.5,-72 8845.5,-72 8845.5,-72 9031.5,-72 9031.5,-72 9037.5,-72 9043.5,-78 9043.5,-84 9043.5,-84 9043.5,-96 9043.5,-96 9043.5,-102 9037.5,-108 9031.5,-108"/>
<text text-anchor="middle" x="8938.5" y="-86.3" font-family="Times,serif" font-size="14.00">:feature:other&#45;theme&#45;detail</text>
</g>
<!-- :feature:other&#45;theme&#45;detail&#45;&gt;:core:designsystem -->
<g id="edge28" class="edge">
<title>:feature:other&#45;theme&#45;detail&#45;&gt;:core:designsystem</title>
<path fill="none" stroke="black" d="M8833.28,-72.79C8830.32,-72.5 8827.39,-72.24 8824.5,-72 8124.22,-14.8 5850.54,-17.5 5374.43,-18.73"/>
<polygon fill="black" stroke="black" points="5374.17,-15.23 5364.18,-18.76 5374.19,-22.23 5374.17,-15.23"/>
</g>
<!-- :feature:other&#45;volume&#45;detail -->
<g id="node30" class="node">
<title>:feature:other&#45;volume&#45;detail</title>
<path fill="#c8e6c9" stroke="#43a047" d="M9267,-108C9267,-108 9074,-108 9074,-108 9068,-108 9062,-102 9062,-96 9062,-96 9062,-84 9062,-84 9062,-78 9068,-72 9074,-72 9074,-72 9267,-72 9267,-72 9273,-72 9279,-78 9279,-84 9279,-84 9279,-96 9279,-96 9279,-102 9273,-108 9267,-108"/>
<text text-anchor="middle" x="9170.5" y="-86.3" font-family="Times,serif" font-size="14.00">:feature:other&#45;volume&#45;detail</text>
</g>
<!-- :feature:other&#45;volume&#45;detail&#45;&gt;:core:designsystem -->
<g id="edge29" class="edge">
<title>:feature:other&#45;volume&#45;detail&#45;&gt;:core:designsystem</title>
<path fill="none" stroke="black" d="M9061.9,-72.82C9058.73,-72.52 9055.6,-72.24 9052.5,-72 8304.12,-13.07 5868.57,-17.21 5374.43,-18.69"/>
<polygon fill="black" stroke="black" points="5374.15,-15.2 5364.16,-18.73 5374.17,-22.2 5374.15,-15.2"/>
</g>
<!-- :feature:readout&#45;list -->
<g id="node31" class="node">
<title>:feature:readout&#45;list</title>
<path fill="#c8e6c9" stroke="#43a047" d="M9445.5,-108C9445.5,-108 9309.5,-108 9309.5,-108 9303.5,-108 9297.5,-102 9297.5,-96 9297.5,-96 9297.5,-84 9297.5,-84 9297.5,-78 9303.5,-72 9309.5,-72 9309.5,-72 9445.5,-72 9445.5,-72 9451.5,-72 9457.5,-78 9457.5,-84 9457.5,-84 9457.5,-96 9457.5,-96 9457.5,-102 9451.5,-108 9445.5,-108"/>
<text text-anchor="middle" x="9377.5" y="-86.3" font-family="Times,serif" font-size="14.00">:feature:readout&#45;list</text>
</g>
<!-- :feature:readout&#45;list&#45;&gt;:core:designsystem -->
<g id="edge30" class="edge">
<title>:feature:readout&#45;list&#45;&gt;:core:designsystem</title>
<path fill="none" stroke="black" d="M9297.06,-72.98C9294.18,-72.61 9291.32,-72.29 9288.5,-72 8887.4,-31.35 5924.48,-20.85 5374.28,-19.24"/>
<polygon fill="black" stroke="black" points="5374.05,-15.74 5364.04,-19.21 5374.03,-22.74 5374.05,-15.74"/>
</g>
<!-- :feature:telemetry&#45;log&#45;detail -->
<g id="node32" class="node">
<title>:feature:telemetry&#45;log&#45;detail</title>
<path fill="#c8e6c9" stroke="#43a047" d="M9681.5,-108C9681.5,-108 9487.5,-108 9487.5,-108 9481.5,-108 9475.5,-102 9475.5,-96 9475.5,-96 9475.5,-84 9475.5,-84 9475.5,-78 9481.5,-72 9487.5,-72 9487.5,-72 9681.5,-72 9681.5,-72 9687.5,-72 9693.5,-78 9693.5,-84 9693.5,-84 9693.5,-96 9693.5,-96 9693.5,-102 9687.5,-108 9681.5,-108"/>
<text text-anchor="middle" x="9584.5" y="-86.3" font-family="Times,serif" font-size="14.00">:feature:telemetry&#45;log&#45;detail</text>
</g>
<!-- :feature:telemetry&#45;log&#45;detail&#45;&gt;:core:designsystem -->
<g id="edge31" class="edge">
<title>:feature:telemetry&#45;log&#45;detail&#45;&gt;:core:designsystem</title>
<path fill="none" stroke="black" d="M9475.26,-72.75C9472.31,-72.48 9469.39,-72.23 9466.5,-72 9045.81,-39.17 5939.57,-22.25 5374.55,-19.43"/>
<polygon fill="black" stroke="black" points="5374.44,-15.93 5364.43,-19.38 5374.41,-22.92 5374.44,-15.93"/>
</g>
<!-- :feature:telemetry&#45;log&#45;list -->
<g id="node33" class="node">
<title>:feature:telemetry&#45;log&#45;list</title>
<path fill="#c8e6c9" stroke="#43a047" d="M9899.5,-108C9899.5,-108 9723.5,-108 9723.5,-108 9717.5,-108 9711.5,-102 9711.5,-96 9711.5,-96 9711.5,-84 9711.5,-84 9711.5,-78 9717.5,-72 9723.5,-72 9723.5,-72 9899.5,-72 9899.5,-72 9905.5,-72 9911.5,-78 9911.5,-84 9911.5,-84 9911.5,-96 9911.5,-96 9911.5,-102 9905.5,-108 9899.5,-108"/>
<text text-anchor="middle" x="9811.5" y="-86.3" font-family="Times,serif" font-size="14.00">:feature:telemetry&#45;log&#45;list</text>
</g>
<!-- :feature:telemetry&#45;log&#45;list&#45;&gt;:core:designsystem -->
<g id="edge32" class="edge">
<title>:feature:telemetry&#45;log&#45;list&#45;&gt;:core:designsystem</title>
<path fill="none" stroke="black" d="M9711.48,-72.83C9708.46,-72.53 9705.46,-72.25 9702.5,-72 9256.96,-34.77 5957.31,-21.38 5374.37,-19.3"/>
<polygon fill="black" stroke="black" points="5374.36,-15.8 5364.35,-19.26 5374.33,-22.8 5374.36,-15.8"/>
</g>
</g>
</svg>
