<?xml version="1.0" encoding="UTF-8" standalone="no"?>
<!DOCTYPE svg PUBLIC "-//W3C//DTD SVG 1.1//EN"
 "http://www.w3.org/Graphics/SVG/1.1/DTD/svg11.dtd">
<!-- Generated by graphviz version 2.43.0 (0)
 -->
<!-- Title: G Pages: 1 -->
<svg width="1114pt" height="116pt"
 viewBox="0.00 0.00 1113.67 116.00" xmlns="http://www.w3.org/2000/svg" xmlns:xlink="http://www.w3.org/1999/xlink">
<g id="graph0" class="graph" transform="scale(1 1) rotate(0) translate(4 112)">
<title>G</title>
<polygon fill="white" stroke="transparent" points="-4,4 -4,-112 1109.67,-112 1109.67,4 -4,4"/>
<!-- :feature:lmu&#45;readout&#45;flag&#45;detail -->
<g id="node1" class="node">
<title>:feature:lmu&#45;readout&#45;flag&#45;detail</title>
<ellipse fill="none" stroke="black" cx="155.99" cy="-90" rx="155.97" ry="18"/>
<text text-anchor="middle" x="155.99" y="-86.3" font-family="Times,serif" font-size="14.00">:feature:lmu&#45;readout&#45;flag&#45;detail</text>
</g>
<!-- :core:designsystem -->
<g id="node2" class="node">
<title>:core:designsystem</title>
<ellipse fill="none" stroke="black" cx="540.99" cy="-18" rx="100.98" ry="18"/>
<text text-anchor="middle" x="540.99" y="-14.3" font-family="Times,serif" font-size="14.00">:core:designsystem</text>
</g>
<!-- :feature:lmu&#45;readout&#45;flag&#45;detail&#45;&gt;:core:designsystem -->
<g id="edge1" class="edge">
<title>:feature:lmu&#45;readout&#45;flag&#45;detail&#45;&gt;:core:designsystem</title>
<path fill="none" stroke="black" d="M235.76,-74.5C302.48,-62.36 397.11,-45.16 463.26,-33.13"/>
<polygon fill="black" stroke="black" points="464,-36.56 473.21,-31.32 462.74,-29.67 464,-36.56"/>
</g>
<!-- :feature:lmu&#45;readout&#45;vehicle&#45;damage&#45;detail -->
<g id="node3" class="node">
<title>:feature:lmu&#45;readout&#45;vehicle&#45;damage&#45;detail</title>
<ellipse fill="none" stroke="black" cx="540.99" cy="-90" rx="211.46" ry="18"/>
<text text-anchor="middle" x="540.99" y="-86.3" font-family="Times,serif" font-size="14.00">:feature:lmu&#45;readout&#45;vehicle&#45;damage&#45;detail</text>
</g>
<!-- :feature:lmu&#45;readout&#45;vehicle&#45;damage&#45;detail&#45;&gt;:core:designsystem -->
<g id="edge2" class="edge">
<title>:feature:lmu&#45;readout&#45;vehicle&#45;damage&#45;detail&#45;&gt;:core:designsystem</title>
<path fill="none" stroke="black" d="M540.99,-71.7C540.99,-63.98 540.99,-54.71 540.99,-46.11"/>
<polygon fill="black" stroke="black" points="544.49,-46.1 540.99,-36.1 537.49,-46.1 544.49,-46.1"/>
</g>
<!-- :feature:readout&#45;vehicle&#45;approach -->
<g id="node4" class="node">
<title>:feature:readout&#45;vehicle&#45;approach</title>
<ellipse fill="none" stroke="black" cx="937.99" cy="-90" rx="167.87" ry="18"/>
<text text-anchor="middle" x="937.99" y="-86.3" font-family="Times,serif" font-size="14.00">:feature:readout&#45;vehicle&#45;approach</text>
</g>
<!-- :feature:readout&#45;vehicle&#45;approach&#45;&gt;:core:designsystem -->
<g id="edge3" class="edge">
<title>:feature:readout&#45;vehicle&#45;approach&#45;&gt;:core:designsystem</title>
<path fill="none" stroke="black" d="M854.76,-74.33C785.66,-62.14 688.05,-44.93 620.11,-32.95"/>
<polygon fill="black" stroke="black" points="620.35,-29.44 609.89,-31.15 619.13,-36.33 620.35,-29.44"/>
</g>
</g>
</svg>
