<?xml version="1.0" encoding="UTF-8" standalone="no"?>
<!DOCTYPE svg PUBLIC "-//W3C//DTD SVG 1.1//EN"
 "http://www.w3.org/Graphics/SVG/1.1/DTD/svg11.dtd">
<!-- Generated by graphviz version 2.43.0 (0)
 -->
<!-- Title: G Pages: 1 -->
<svg width="5762pt" height="116pt"
 viewBox="0.00 0.00 5761.78 116.00" xmlns="http://www.w3.org/2000/svg" xmlns:xlink="http://www.w3.org/1999/xlink">
<g id="graph0" class="graph" transform="scale(1 1) rotate(0) translate(4 112)">
<title>G</title>
<polygon fill="white" stroke="transparent" points="-4,4 -4,-112 5757.78,-112 5757.78,4 -4,4"/>
<!-- :server -->
<g id="node1" class="node">
<title>:server</title>
<ellipse fill="none" stroke="black" cx="43.55" cy="-90" rx="43.59" ry="18"/>
<text text-anchor="middle" x="43.55" y="-86.3" font-family="Times,serif" font-size="14.00">:server</text>
</g>
<!-- :core:domain -->
<g id="node2" class="node">
<title>:core:domain</title>
<ellipse fill="none" stroke="black" cx="2577.55" cy="-18" rx="70.69" ry="18"/>
<text text-anchor="middle" x="2577.55" y="-14.3" font-family="Times,serif" font-size="14.00">:core:domain</text>
</g>
<!-- :server&#45;&gt;:core:domain -->
<g id="edge1" class="edge">
<title>:server&#45;&gt;:core:domain</title>
<path fill="none" stroke="black" d="M74.84,-77.32C81.89,-75.15 89.4,-73.2 96.55,-72 337.34,-31.69 2096.81,-21.21 2496.8,-19.34"/>
<polygon fill="black" stroke="black" points="2496.85,-22.84 2506.84,-19.29 2496.82,-15.84 2496.85,-22.84"/>
</g>
<!-- :core:data -->
<g id="node3" class="node">
<title>:core:data</title>
<ellipse fill="none" stroke="black" cx="162.55" cy="-90" rx="57.39" ry="18"/>
<text text-anchor="middle" x="162.55" y="-86.3" font-family="Times,serif" font-size="14.00">:core:data</text>
</g>
<!-- :core:data&#45;&gt;:core:domain -->
<g id="edge2" class="edge">
<title>:core:data&#45;&gt;:core:domain</title>
<path fill="none" stroke="black" d="M202.74,-77.09C211.19,-75.02 220.11,-73.17 228.55,-72 456.6,-40.48 2109.17,-23.34 2496.48,-19.72"/>
<polygon fill="black" stroke="black" points="2496.79,-23.22 2506.75,-19.63 2496.72,-16.22 2496.79,-23.22"/>
</g>
<!-- :core:gt7&#45;ps5&#45;data -->
<g id="node4" class="node">
<title>:core:gt7&#45;ps5&#45;data</title>
<ellipse fill="none" stroke="black" cx="332.55" cy="-90" rx="94.78" ry="18"/>
<text text-anchor="middle" x="332.55" y="-86.3" font-family="Times,serif" font-size="14.00">:core:gt7&#45;ps5&#45;data</text>
</g>
<!-- :core:gt7&#45;ps5&#45;data&#45;&gt;:core:domain -->
<g id="edge3" class="edge">
<title>:core:gt7&#45;ps5&#45;data&#45;&gt;:core:domain</title>
<path fill="none" stroke="black" d="M397.83,-76.92C410.63,-74.95 423.98,-73.18 436.55,-72 847.71,-33.49 2157.36,-21.91 2496.65,-19.52"/>
<polygon fill="black" stroke="black" points="2496.91,-23.01 2506.88,-19.44 2496.86,-16.01 2496.91,-23.01"/>
</g>
<!-- :core:lmu&#45;windows&#45;data -->
<g id="node5" class="node">
<title>:core:lmu&#45;windows&#45;data</title>
<ellipse fill="none" stroke="black" cx="566.55" cy="-90" rx="120.78" ry="18"/>
<text text-anchor="middle" x="566.55" y="-86.3" font-family="Times,serif" font-size="14.00">:core:lmu&#45;windows&#45;data</text>
</g>
<!-- :core:lmu&#45;windows&#45;data&#45;&gt;:core:domain -->
<g id="edge4" class="edge">
<title>:core:lmu&#45;windows&#45;data&#45;&gt;:core:domain</title>
<path fill="none" stroke="black" d="M649.63,-76.85C665.19,-74.94 681.34,-73.21 696.55,-72 1054.38,-43.64 2183.94,-24.91 2496.62,-20.18"/>
<polygon fill="black" stroke="black" points="2497.01,-23.68 2506.96,-20.02 2496.91,-16.68 2497.01,-23.68"/>
</g>
<!-- :feature:gt7&#45;ps5&#45;connection -->
<g id="node6" class="node">
<title>:feature:gt7&#45;ps5&#45;connection</title>
<ellipse fill="none" stroke="black" cx="843.55" cy="-90" rx="138.38" ry="18"/>
<text text-anchor="middle" x="843.55" y="-86.3" font-family="Times,serif" font-size="14.00">:feature:gt7&#45;ps5&#45;connection</text>
</g>
<!-- :feature:gt7&#45;ps5&#45;connection&#45;&gt;:core:domain -->
<g id="edge5" class="edge">
<title>:feature:gt7&#45;ps5&#45;connection&#45;&gt;:core:domain</title>
<path fill="none" stroke="black" d="M938.98,-76.89C956.44,-75 974.52,-73.26 991.55,-72 1567.17,-29.39 2262.88,-21.03 2496.58,-19.39"/>
<polygon fill="black" stroke="black" points="2496.72,-22.89 2506.7,-19.32 2496.67,-15.89 2496.72,-22.89"/>
</g>
<!-- :feature:gt7&#45;ps5&#45;narrator -->
<g id="node7" class="node">
<title>:feature:gt7&#45;ps5&#45;narrator</title>
<ellipse fill="none" stroke="black" cx="1127.55" cy="-90" rx="127.28" ry="18"/>
<text text-anchor="middle" x="1127.55" y="-86.3" font-family="Times,serif" font-size="14.00">:feature:gt7&#45;ps5&#45;narrator</text>
</g>
<!-- :feature:gt7&#45;ps5&#45;narrator&#45;&gt;:core:domain -->
<g id="edge6" class="edge">
<title>:feature:gt7&#45;ps5&#45;narrator&#45;&gt;:core:domain</title>
<path fill="none" stroke="black" d="M1215.22,-76.94C1231.27,-75.05 1247.89,-73.29 1263.55,-72 1729.53,-33.55 2290.86,-22.7 2496.79,-19.9"/>
<polygon fill="black" stroke="black" points="2496.96,-23.4 2506.91,-19.76 2496.86,-16.4 2496.96,-23.4"/>
</g>
<!-- :feature:gt7&#45;ps5&#45;readout&#45;my&#45;bestlap&#45;detail -->
<g id="node8" class="node">
<title>:feature:gt7&#45;ps5&#45;readout&#45;my&#45;bestlap&#45;detail</title>
<ellipse fill="none" stroke="black" cx="1480.55" cy="-90" rx="207.96" ry="18"/>
<text text-anchor="middle" x="1480.55" y="-86.3" font-family="Times,serif" font-size="14.00">:feature:gt7&#45;ps5&#45;readout&#45;my&#45;bestlap&#45;detail</text>
</g>
<!-- :feature:gt7&#45;ps5&#45;readout&#45;my&#45;bestlap&#45;detail&#45;&gt;:core:domain -->
<g id="edge7" class="edge">
<title>:feature:gt7&#45;ps5&#45;readout&#45;my&#45;bestlap&#45;detail&#45;&gt;:core:domain</title>
<path fill="none" stroke="black" d="M1626.72,-77.19C1650.39,-75.38 1674.64,-73.59 1697.55,-72 1993.08,-51.53 2344.77,-31.71 2498.76,-23.27"/>
<polygon fill="black" stroke="black" points="2499.26,-26.75 2509.06,-22.7 2498.88,-19.76 2499.26,-26.75"/>
</g>
<!-- :feature:lmu&#45;windows&#45;connection -->
<g id="node9" class="node">
<title>:feature:lmu&#45;windows&#45;connection</title>
<ellipse fill="none" stroke="black" cx="1870.55" cy="-90" rx="164.37" ry="18"/>
<text text-anchor="middle" x="1870.55" y="-86.3" font-family="Times,serif" font-size="14.00">:feature:lmu&#45;windows&#45;connection</text>
</g>
<!-- :feature:lmu&#45;windows&#45;connection&#45;&gt;:core:domain -->
<g id="edge8" class="edge">
<title>:feature:lmu&#45;windows&#45;connection&#45;&gt;:core:domain</title>
<path fill="none" stroke="black" d="M1988.09,-77.36C2134.36,-62.88 2379.83,-38.58 2502.72,-26.41"/>
<polygon fill="black" stroke="black" points="2503.18,-29.88 2512.78,-25.41 2502.49,-22.91 2503.18,-29.88"/>
</g>
<!-- :feature:lmu&#45;windows&#45;narrator -->
<g id="node10" class="node">
<title>:feature:lmu&#45;windows&#45;narrator</title>
<ellipse fill="none" stroke="black" cx="2206.55" cy="-90" rx="153.27" ry="18"/>
<text text-anchor="middle" x="2206.55" y="-86.3" font-family="Times,serif" font-size="14.00">:feature:lmu&#45;windows&#45;narrator</text>
</g>
<!-- :feature:lmu&#45;windows&#45;narrator&#45;&gt;:core:domain -->
<g id="edge9" class="edge">
<title>:feature:lmu&#45;windows&#45;narrator&#45;&gt;:core:domain</title>
<path fill="none" stroke="black" d="M2283.87,-74.41C2351.6,-61.63 2448.9,-43.27 2512.66,-31.24"/>
<polygon fill="black" stroke="black" points="2513.41,-34.66 2522.59,-29.37 2512.12,-27.78 2513.41,-34.66"/>
</g>
<!-- :feature:lmu&#45;windows&#45;readout&#45;flag&#45;detail -->
<g id="node11" class="node">
<title>:feature:lmu&#45;windows&#45;readout&#45;flag&#45;detail</title>
<ellipse fill="none" stroke="black" cx="2577.55" cy="-90" rx="199.56" ry="18"/>
<text text-anchor="middle" x="2577.55" y="-86.3" font-family="Times,serif" font-size="14.00">:feature:lmu&#45;windows&#45;readout&#45;flag&#45;detail</text>
</g>
<!-- :feature:lmu&#45;windows&#45;readout&#45;flag&#45;detail&#45;&gt;:core:domain -->
<g id="edge10" class="edge">
<title>:feature:lmu&#45;windows&#45;readout&#45;flag&#45;detail&#45;&gt;:core:domain</title>
<path fill="none" stroke="black" d="M2577.55,-71.7C2577.55,-63.98 2577.55,-54.71 2577.55,-46.11"/>
<polygon fill="black" stroke="black" points="2581.05,-46.1 2577.55,-36.1 2574.05,-46.1 2581.05,-46.1"/>
</g>
<!-- :feature:lmu&#45;windows&#45;readout&#45;vehicle&#45;approach&#45;detail -->
<g id="node12" class="node">
<title>:feature:lmu&#45;windows&#45;readout&#45;vehicle&#45;approach&#45;detail</title>
<ellipse fill="none" stroke="black" cx="3055.55" cy="-90" rx="260.75" ry="18"/>
<text text-anchor="middle" x="3055.55" y="-86.3" font-family="Times,serif" font-size="14.00">:feature:lmu&#45;windows&#45;readout&#45;vehicle&#45;approach&#45;detail</text>
</g>
<!-- :feature:lmu&#45;windows&#45;readout&#45;vehicle&#45;approach&#45;detail&#45;&gt;:core:domain -->
<g id="edge11" class="edge">
<title>:feature:lmu&#45;windows&#45;readout&#45;vehicle&#45;approach&#45;detail&#45;&gt;:core:domain</title>
<path fill="none" stroke="black" d="M2949.76,-73.51C2857.59,-60.01 2726.59,-40.83 2647.09,-29.18"/>
<polygon fill="black" stroke="black" points="2647.59,-25.72 2637.18,-27.73 2646.57,-32.65 2647.59,-25.72"/>
</g>
<!-- :feature:lmu&#45;windows&#45;readout&#45;vehicle&#45;damage&#45;detail -->
<g id="node13" class="node">
<title>:feature:lmu&#45;windows&#45;readout&#45;vehicle&#45;damage&#45;detail</title>
<ellipse fill="none" stroke="black" cx="3588.55" cy="-90" rx="254.55" ry="18"/>
<text text-anchor="middle" x="3588.55" y="-86.3" font-family="Times,serif" font-size="14.00">:feature:lmu&#45;windows&#45;readout&#45;vehicle&#45;damage&#45;detail</text>
</g>
<!-- :feature:lmu&#45;windows&#45;readout&#45;vehicle&#45;damage&#45;detail&#45;&gt;:core:domain -->
<g id="edge12" class="edge">
<title>:feature:lmu&#45;windows&#45;readout&#45;vehicle&#45;damage&#45;detail&#45;&gt;:core:domain</title>
<path fill="none" stroke="black" d="M3413.6,-76.89C3191.15,-61.48 2816.61,-35.55 2655.3,-24.38"/>
<polygon fill="black" stroke="black" points="2655.2,-20.87 2644.99,-23.67 2654.72,-27.85 2655.2,-20.87"/>
</g>
<!-- :feature:main -->
<g id="node14" class="node">
<title>:feature:main</title>
<ellipse fill="none" stroke="black" cx="3934.55" cy="-90" rx="73.39" ry="18"/>
<text text-anchor="middle" x="3934.55" y="-86.3" font-family="Times,serif" font-size="14.00">:feature:main</text>
</g>
<!-- :feature:main&#45;&gt;:core:domain -->
<g id="edge13" class="edge">
<title>:feature:main&#45;&gt;:core:domain</title>
<path fill="none" stroke="black" d="M3883.14,-77.01C3873.05,-75.03 3862.5,-73.23 3852.55,-72 3619.8,-43.23 2900.03,-25.8 2657.93,-20.63"/>
<polygon fill="black" stroke="black" points="2657.87,-17.12 2647.8,-20.41 2657.72,-24.12 2657.87,-17.12"/>
</g>
<!-- :feature:other&#45;list -->
<g id="node15" class="node">
<title>:feature:other&#45;list</title>
<ellipse fill="none" stroke="black" cx="4118.55" cy="-90" rx="92.88" ry="18"/>
<text text-anchor="middle" x="4118.55" y="-86.3" font-family="Times,serif" font-size="14.00">:feature:other&#45;list</text>
</g>
<!-- :feature:other&#45;list&#45;&gt;:core:domain -->
<g id="edge14" class="edge">
<title>:feature:other&#45;list&#45;&gt;:core:domain</title>
<path fill="none" stroke="black" d="M4054.24,-77C4041.77,-75.03 4028.78,-73.24 4016.55,-72 3501.47,-19.81 2878.07,-17.37 2658.66,-18.35"/>
<polygon fill="black" stroke="black" points="2658.5,-14.85 2648.52,-18.4 2658.53,-21.85 2658.5,-14.85"/>
</g>
<!-- :feature:other&#45;readout&#45;start&#45;sound&#45;detail -->
<g id="node16" class="node">
<title>:feature:other&#45;readout&#45;start&#45;sound&#45;detail</title>
<ellipse fill="none" stroke="black" cx="4428.55" cy="-90" rx="199.56" ry="18"/>
<text text-anchor="middle" x="4428.55" y="-86.3" font-family="Times,serif" font-size="14.00">:feature:other&#45;readout&#45;start&#45;sound&#45;detail</text>
</g>
<!-- :feature:other&#45;readout&#45;start&#45;sound&#45;detail&#45;&gt;:core:domain -->
<g id="edge15" class="edge">
<title>:feature:other&#45;readout&#45;start&#45;sound&#45;detail&#45;&gt;:core:domain</title>
<path fill="none" stroke="black" d="M4291.83,-76.86C4268.08,-75.03 4243.61,-73.31 4220.55,-72 3621.13,-37.86 2897.35,-24.04 2658.4,-20.2"/>
<polygon fill="black" stroke="black" points="2658.12,-16.69 2648.06,-20.03 2658,-23.69 2658.12,-16.69"/>
</g>
<!-- :feature:other&#45;server&#45;ip&#45;detail -->
<g id="node17" class="node">
<title>:feature:other&#45;server&#45;ip&#45;detail</title>
<ellipse fill="none" stroke="black" cx="4794.55" cy="-90" rx="148.67" ry="18"/>
<text text-anchor="middle" x="4794.55" y="-86.3" font-family="Times,serif" font-size="14.00">:feature:other&#45;server&#45;ip&#45;detail</text>
</g>
<!-- :feature:other&#45;server&#45;ip&#45;detail&#45;&gt;:core:domain -->
<g id="edge16" class="edge">
<title>:feature:other&#45;server&#45;ip&#45;detail&#45;&gt;:core:domain</title>
<path fill="none" stroke="black" d="M4693.31,-76.8C4674.78,-74.92 4655.6,-73.21 4637.55,-72 3868.81,-20.58 2935.64,-18.17 2658.7,-18.7"/>
<polygon fill="black" stroke="black" points="2658.34,-15.2 2648.35,-18.72 2658.36,-22.2 2658.34,-15.2"/>
</g>
<!-- :feature:other&#45;volume&#45;detail -->
<g id="node18" class="node">
<title>:feature:other&#45;volume&#45;detail</title>
<ellipse fill="none" stroke="black" cx="5102.55" cy="-90" rx="141.07" ry="18"/>
<text text-anchor="middle" x="5102.55" y="-86.3" font-family="Times,serif" font-size="14.00">:feature:other&#45;volume&#45;detail</text>
</g>
<!-- :feature:other&#45;volume&#45;detail&#45;&gt;:core:domain -->
<g id="edge17" class="edge">
<title>:feature:other&#45;volume&#45;detail&#45;&gt;:core:domain</title>
<path fill="none" stroke="black" d="M5006.24,-76.78C4988.41,-74.89 4969.93,-73.18 4952.55,-72 4491.87,-40.82 3020.15,-23.64 2658.43,-19.82"/>
<polygon fill="black" stroke="black" points="2658.34,-16.32 2648.31,-19.71 2658.27,-23.32 2658.34,-16.32"/>
</g>
<!-- :feature:readout&#45;list -->
<g id="node19" class="node">
<title>:feature:readout&#45;list</title>
<ellipse fill="none" stroke="black" cx="5365.55" cy="-90" rx="103.98" ry="18"/>
<text text-anchor="middle" x="5365.55" y="-86.3" font-family="Times,serif" font-size="14.00">:feature:readout&#45;list</text>
</g>
<!-- :feature:readout&#45;list&#45;&gt;:core:domain -->
<g id="edge18" class="edge">
<title>:feature:readout&#45;list&#45;&gt;:core:domain</title>
<path fill="none" stroke="black" d="M5294.28,-76.85C5280.47,-74.9 5266.09,-73.15 5252.55,-72 4729.98,-27.7 3048.01,-20.32 2658.57,-19.19"/>
<polygon fill="black" stroke="black" points="2658.53,-15.69 2648.52,-19.16 2658.51,-22.69 2658.53,-15.69"/>
</g>
<!-- :feature:server&#45;connection -->
<g id="node20" class="node">
<title>:feature:server&#45;connection</title>
<ellipse fill="none" stroke="black" cx="5620.55" cy="-90" rx="133.48" ry="18"/>
<text text-anchor="middle" x="5620.55" y="-86.3" font-family="Times,serif" font-size="14.00">:feature:server&#45;connection</text>
</g>
<!-- :feature:server&#45;connection&#45;&gt;:core:domain -->
<g id="edge19" class="edge">
<title>:feature:server&#45;connection&#45;&gt;:core:domain</title>
<path fill="none" stroke="black" d="M5529.77,-76.75C5512.78,-74.85 5495.14,-73.14 5478.55,-72 4908.05,-32.74 3067.65,-21.43 2658.6,-19.37"/>
<polygon fill="black" stroke="black" points="2658.36,-15.87 2648.35,-19.32 2658.33,-22.87 2658.36,-15.87"/>
</g>
</g>
</svg>
