<?xml version="1.0" encoding="UTF-8" standalone="no"?>
<!DOCTYPE svg PUBLIC "-//W3C//DTD SVG 1.1//EN"
 "http://www.w3.org/Graphics/SVG/1.1/DTD/svg11.dtd">
<!-- Generated by graphviz version 2.43.0 (0)
 -->
<!-- Title: G Pages: 1 -->
<svg width="4553pt" height="116pt"
 viewBox="0.00 0.00 4552.78 116.00" xmlns="http://www.w3.org/2000/svg" xmlns:xlink="http://www.w3.org/1999/xlink">
<g id="graph0" class="graph" transform="scale(1 1) rotate(0) translate(4 112)">
<title>G</title>
<polygon fill="white" stroke="transparent" points="-4,4 -4,-112 4548.78,-112 4548.78,4 -4,4"/>
<!-- :server -->
<g id="node1" class="node">
<title>:server</title>
<ellipse fill="none" stroke="black" cx="43.55" cy="-90" rx="43.59" ry="18"/>
<text text-anchor="middle" x="43.55" y="-86.3" font-family="Times,serif" font-size="14.00">:server</text>
</g>
<!-- :core:domain -->
<g id="node2" class="node">
<title>:core:domain</title>
<ellipse fill="none" stroke="black" cx="2379.55" cy="-18" rx="70.69" ry="18"/>
<text text-anchor="middle" x="2379.55" y="-14.3" font-family="Times,serif" font-size="14.00">:core:domain</text>
</g>
<!-- :server&#45;&gt;:core:domain -->
<g id="edge1" class="edge">
<title>:server&#45;&gt;:core:domain</title>
<path fill="none" stroke="black" d="M74.85,-77.33C81.89,-75.16 89.4,-73.2 96.55,-72 316.77,-34.92 1917.93,-22.05 2298.53,-19.5"/>
<polygon fill="black" stroke="black" points="2298.66,-23 2308.63,-19.44 2298.61,-16 2298.66,-23"/>
</g>
<!-- :core:data -->
<g id="node3" class="node">
<title>:core:data</title>
<ellipse fill="none" stroke="black" cx="162.55" cy="-90" rx="57.39" ry="18"/>
<text text-anchor="middle" x="162.55" y="-86.3" font-family="Times,serif" font-size="14.00">:core:data</text>
</g>
<!-- :core:data&#45;&gt;:core:domain -->
<g id="edge2" class="edge">
<title>:core:data&#45;&gt;:core:domain</title>
<path fill="none" stroke="black" d="M202.74,-77.1C211.2,-75.03 220.11,-73.18 228.55,-72 436.05,-43.1 1931.78,-24.15 2298.52,-19.91"/>
<polygon fill="black" stroke="black" points="2298.83,-23.4 2308.79,-19.79 2298.75,-16.4 2298.83,-23.4"/>
</g>
<!-- :core:lmu&#45;windows&#45;data -->
<g id="node4" class="node">
<title>:core:lmu&#45;windows&#45;data</title>
<ellipse fill="none" stroke="black" cx="358.55" cy="-90" rx="120.78" ry="18"/>
<text text-anchor="middle" x="358.55" y="-86.3" font-family="Times,serif" font-size="14.00">:core:lmu&#45;windows&#45;data</text>
</g>
<!-- :core:lmu&#45;windows&#45;data&#45;&gt;:core:domain -->
<g id="edge3" class="edge">
<title>:core:lmu&#45;windows&#45;data&#45;&gt;:core:domain</title>
<path fill="none" stroke="black" d="M441.63,-76.85C457.19,-74.94 473.34,-73.2 488.55,-72 848.49,-43.5 1985.12,-24.86 2298.72,-20.17"/>
<polygon fill="black" stroke="black" points="2299.14,-23.66 2309.09,-20.01 2299.03,-16.66 2299.14,-23.66"/>
</g>
<!-- :feature:lmu&#45;windows&#45;connection -->
<g id="node5" class="node">
<title>:feature:lmu&#45;windows&#45;connection</title>
<ellipse fill="none" stroke="black" cx="661.55" cy="-90" rx="164.37" ry="18"/>
<text text-anchor="middle" x="661.55" y="-86.3" font-family="Times,serif" font-size="14.00">:feature:lmu&#45;windows&#45;connection</text>
</g>
<!-- :feature:lmu&#45;windows&#45;connection&#45;&gt;:core:domain -->
<g id="edge4" class="edge">
<title>:feature:lmu&#45;windows&#45;connection&#45;&gt;:core:domain</title>
<path fill="none" stroke="black" d="M774.71,-76.9C794.95,-75.03 815.86,-73.3 835.55,-72 1394.67,-35.13 2069.48,-23.14 2298.81,-19.98"/>
<polygon fill="black" stroke="black" points="2299.11,-23.47 2309.06,-19.84 2299.01,-16.47 2299.11,-23.47"/>
</g>
<!-- :feature:lmu&#45;windows&#45;narrator -->
<g id="node6" class="node">
<title>:feature:lmu&#45;windows&#45;narrator</title>
<ellipse fill="none" stroke="black" cx="997.55" cy="-90" rx="153.27" ry="18"/>
<text text-anchor="middle" x="997.55" y="-86.3" font-family="Times,serif" font-size="14.00">:feature:lmu&#45;windows&#45;narrator</text>
</g>
<!-- :feature:lmu&#45;windows&#45;narrator&#45;&gt;:core:domain -->
<g id="edge5" class="edge">
<title>:feature:lmu&#45;windows&#45;narrator&#45;&gt;:core:domain</title>
<path fill="none" stroke="black" d="M1103.34,-76.96C1122.05,-75.1 1141.36,-73.35 1159.55,-72 1588.46,-40.21 2103.73,-25.52 2299.14,-20.79"/>
<polygon fill="black" stroke="black" points="2299.4,-24.29 2309.32,-20.55 2299.23,-17.29 2299.4,-24.29"/>
</g>
<!-- :feature:lmu&#45;windows&#45;readout&#45;flag&#45;detail -->
<g id="node7" class="node">
<title>:feature:lmu&#45;windows&#45;readout&#45;flag&#45;detail</title>
<ellipse fill="none" stroke="black" cx="1368.55" cy="-90" rx="199.56" ry="18"/>
<text text-anchor="middle" x="1368.55" y="-86.3" font-family="Times,serif" font-size="14.00">:feature:lmu&#45;windows&#45;readout&#45;flag&#45;detail</text>
</g>
<!-- :feature:lmu&#45;windows&#45;readout&#45;flag&#45;detail&#45;&gt;:core:domain -->
<g id="edge6" class="edge">
<title>:feature:lmu&#45;windows&#45;readout&#45;flag&#45;detail&#45;&gt;:core:domain</title>
<path fill="none" stroke="black" d="M1509.22,-77.2C1531.73,-75.4 1554.78,-73.61 1576.55,-72 1842.39,-52.36 2158.01,-32.56 2301.54,-23.74"/>
<polygon fill="black" stroke="black" points="2301.81,-27.23 2311.57,-23.13 2301.38,-20.25 2301.81,-27.23"/>
</g>
<!-- :feature:lmu&#45;windows&#45;readout&#45;vehicle&#45;approach&#45;detail -->
<g id="node8" class="node">
<title>:feature:lmu&#45;windows&#45;readout&#45;vehicle&#45;approach&#45;detail</title>
<ellipse fill="none" stroke="black" cx="1846.55" cy="-90" rx="260.75" ry="18"/>
<text text-anchor="middle" x="1846.55" y="-86.3" font-family="Times,serif" font-size="14.00">:feature:lmu&#45;windows&#45;readout&#45;vehicle&#45;approach&#45;detail</text>
</g>
<!-- :feature:lmu&#45;windows&#45;readout&#45;vehicle&#45;approach&#45;detail&#45;&gt;:core:domain -->
<g id="edge7" class="edge">
<title>:feature:lmu&#45;windows&#45;readout&#45;vehicle&#45;approach&#45;detail&#45;&gt;:core:domain</title>
<path fill="none" stroke="black" d="M1961.87,-73.85C2067.09,-60.04 2219.3,-40.05 2307.97,-28.4"/>
<polygon fill="black" stroke="black" points="2308.47,-31.86 2317.93,-27.09 2307.56,-24.92 2308.47,-31.86"/>
</g>
<!-- :feature:lmu&#45;windows&#45;readout&#45;vehicle&#45;damage&#45;detail -->
<g id="node9" class="node">
<title>:feature:lmu&#45;windows&#45;readout&#45;vehicle&#45;damage&#45;detail</title>
<ellipse fill="none" stroke="black" cx="2379.55" cy="-90" rx="254.55" ry="18"/>
<text text-anchor="middle" x="2379.55" y="-86.3" font-family="Times,serif" font-size="14.00">:feature:lmu&#45;windows&#45;readout&#45;vehicle&#45;damage&#45;detail</text>
</g>
<!-- :feature:lmu&#45;windows&#45;readout&#45;vehicle&#45;damage&#45;detail&#45;&gt;:core:domain -->
<g id="edge8" class="edge">
<title>:feature:lmu&#45;windows&#45;readout&#45;vehicle&#45;damage&#45;detail&#45;&gt;:core:domain</title>
<path fill="none" stroke="black" d="M2379.55,-71.7C2379.55,-63.98 2379.55,-54.71 2379.55,-46.11"/>
<polygon fill="black" stroke="black" points="2383.05,-46.1 2379.55,-36.1 2376.05,-46.1 2383.05,-46.1"/>
</g>
<!-- :feature:main -->
<g id="node10" class="node">
<title>:feature:main</title>
<ellipse fill="none" stroke="black" cx="2725.55" cy="-90" rx="73.39" ry="18"/>
<text text-anchor="middle" x="2725.55" y="-86.3" font-family="Times,serif" font-size="14.00">:feature:main</text>
</g>
<!-- :feature:main&#45;&gt;:core:domain -->
<g id="edge9" class="edge">
<title>:feature:main&#45;&gt;:core:domain</title>
<path fill="none" stroke="black" d="M2671.3,-77.7C2662.04,-75.79 2652.52,-73.83 2643.55,-72 2575.23,-58.06 2496.92,-42.38 2443.44,-31.71"/>
<polygon fill="black" stroke="black" points="2443.91,-28.23 2433.41,-29.71 2442.54,-35.1 2443.91,-28.23"/>
</g>
<!-- :feature:other&#45;list -->
<g id="node11" class="node">
<title>:feature:other&#45;list</title>
<ellipse fill="none" stroke="black" cx="2909.55" cy="-90" rx="92.88" ry="18"/>
<text text-anchor="middle" x="2909.55" y="-86.3" font-family="Times,serif" font-size="14.00">:feature:other&#45;list</text>
</g>
<!-- :feature:other&#45;list&#45;&gt;:core:domain -->
<g id="edge10" class="edge">
<title>:feature:other&#45;list&#45;&gt;:core:domain</title>
<path fill="none" stroke="black" d="M2842.67,-77.44C2830.98,-75.54 2818.92,-73.65 2807.55,-72 2683.48,-53.99 2538.6,-36.86 2453.22,-27.17"/>
<polygon fill="black" stroke="black" points="2453.44,-23.67 2443.11,-26.03 2452.65,-30.63 2453.44,-23.67"/>
</g>
<!-- :feature:other&#45;readout&#45;start&#45;sound&#45;detail -->
<g id="node12" class="node">
<title>:feature:other&#45;readout&#45;start&#45;sound&#45;detail</title>
<ellipse fill="none" stroke="black" cx="3219.55" cy="-90" rx="199.56" ry="18"/>
<text text-anchor="middle" x="3219.55" y="-86.3" font-family="Times,serif" font-size="14.00">:feature:other&#45;readout&#45;start&#45;sound&#45;detail</text>
</g>
<!-- :feature:other&#45;readout&#45;start&#45;sound&#45;detail&#45;&gt;:core:domain -->
<g id="edge11" class="edge">
<title>:feature:other&#45;readout&#45;start&#45;sound&#45;detail&#45;&gt;:core:domain</title>
<path fill="none" stroke="black" d="M3078.48,-77.24C2899.42,-62.32 2596.93,-37.12 2456.03,-25.37"/>
<polygon fill="black" stroke="black" points="2456.02,-21.86 2445.76,-24.52 2455.44,-28.84 2456.02,-21.86"/>
</g>
<!-- :feature:other&#45;server&#45;ip&#45;detail -->
<g id="node13" class="node">
<title>:feature:other&#45;server&#45;ip&#45;detail</title>
<ellipse fill="none" stroke="black" cx="3585.55" cy="-90" rx="148.67" ry="18"/>
<text text-anchor="middle" x="3585.55" y="-86.3" font-family="Times,serif" font-size="14.00">:feature:other&#45;server&#45;ip&#45;detail</text>
</g>
<!-- :feature:other&#45;server&#45;ip&#45;detail&#45;&gt;:core:domain -->
<g id="edge12" class="edge">
<title>:feature:other&#45;server&#45;ip&#45;detail&#45;&gt;:core:domain</title>
<path fill="none" stroke="black" d="M3482.59,-77C3464.6,-75.14 3446.04,-73.39 3428.55,-72 3067.63,-43.37 2635.57,-27.27 2459.81,-21.48"/>
<polygon fill="black" stroke="black" points="2459.72,-17.98 2449.61,-21.15 2459.49,-24.98 2459.72,-17.98"/>
</g>
<!-- :feature:other&#45;volume&#45;detail -->
<g id="node14" class="node">
<title>:feature:other&#45;volume&#45;detail</title>
<ellipse fill="none" stroke="black" cx="3893.55" cy="-90" rx="141.07" ry="18"/>
<text text-anchor="middle" x="3893.55" y="-86.3" font-family="Times,serif" font-size="14.00">:feature:other&#45;volume&#45;detail</text>
</g>
<!-- :feature:other&#45;volume&#45;detail&#45;&gt;:core:domain -->
<g id="edge13" class="edge">
<title>:feature:other&#45;volume&#45;detail&#45;&gt;:core:domain</title>
<path fill="none" stroke="black" d="M3796.42,-76.93C3778.84,-75.05 3760.66,-73.3 3743.55,-72 3257.34,-35.05 2671.57,-23.26 2460.36,-20.05"/>
<polygon fill="black" stroke="black" points="2460.34,-16.55 2450.29,-19.9 2460.24,-23.55 2460.34,-16.55"/>
</g>
<!-- :feature:readout&#45;list -->
<g id="node15" class="node">
<title>:feature:readout&#45;list</title>
<ellipse fill="none" stroke="black" cx="4156.55" cy="-90" rx="103.98" ry="18"/>
<text text-anchor="middle" x="4156.55" y="-86.3" font-family="Times,serif" font-size="14.00">:feature:readout&#45;list</text>
</g>
<!-- :feature:readout&#45;list&#45;&gt;:core:domain -->
<g id="edge14" class="edge">
<title>:feature:readout&#45;list&#45;&gt;:core:domain</title>
<path fill="none" stroke="black" d="M4084.97,-76.94C4071.25,-74.99 4056.98,-73.22 4043.55,-72 3730.78,-43.59 2749.93,-25.22 2460.63,-20.32"/>
<polygon fill="black" stroke="black" points="2460.28,-16.81 2450.23,-20.14 2460.16,-23.81 2460.28,-16.81"/>
</g>
<!-- :feature:server&#45;connection -->
<g id="node16" class="node">
<title>:feature:server&#45;connection</title>
<ellipse fill="none" stroke="black" cx="4411.55" cy="-90" rx="133.48" ry="18"/>
<text text-anchor="middle" x="4411.55" y="-86.3" font-family="Times,serif" font-size="14.00">:feature:server&#45;connection</text>
</g>
<!-- :feature:server&#45;connection&#45;&gt;:core:domain -->
<g id="edge15" class="edge">
<title>:feature:server&#45;connection&#45;&gt;:core:domain</title>
<path fill="none" stroke="black" d="M4320.38,-76.84C4303.51,-74.94 4286.01,-73.21 4269.55,-72 3570.55,-20.47 2722.75,-18.03 2460.65,-18.64"/>
<polygon fill="black" stroke="black" points="2460.45,-15.14 2450.46,-18.66 2460.47,-22.14 2460.45,-15.14"/>
</g>
</g>
</svg>
