<?xml version="1.0" encoding="UTF-8" standalone="no"?>
<!DOCTYPE svg PUBLIC "-//W3C//DTD SVG 1.1//EN"
 "http://www.w3.org/Graphics/SVG/1.1/DTD/svg11.dtd">
<!-- Generated by graphviz version 2.43.0 (0)
 -->
<!-- Title: G Pages: 1 -->
<svg width="2467pt" height="188pt"
 viewBox="0.00 0.00 2467.23 188.00" xmlns="http://www.w3.org/2000/svg" xmlns:xlink="http://www.w3.org/1999/xlink">
<g id="graph0" class="graph" transform="scale(1 1) rotate(0) translate(4 184)">
<title>G</title>
<polygon fill="white" stroke="transparent" points="-4,4 -4,-184 2463.23,-184 2463.23,4 -4,4"/>
<!-- :server -->
<g id="node1" class="node">
<title>:server</title>
<ellipse fill="none" stroke="black" cx="43.55" cy="-90" rx="43.59" ry="18"/>
<text text-anchor="middle" x="43.55" y="-86.3" font-family="Times,serif" font-size="14.00">:server</text>
</g>
<!-- :core:domain -->
<g id="node2" class="node">
<title>:core:domain</title>
<ellipse fill="none" stroke="black" cx="1076.55" cy="-18" rx="70.69" ry="18"/>
<text text-anchor="middle" x="1076.55" y="-14.3" font-family="Times,serif" font-size="14.00">:core:domain</text>
</g>
<!-- :server&#45;&gt;:core:domain -->
<g id="edge1" class="edge">
<title>:server&#45;&gt;:core:domain</title>
<path fill="none" stroke="black" d="M76.36,-77.95C84.51,-75.61 93.27,-73.42 101.55,-72 272.76,-42.66 794.68,-26.33 996.08,-20.98"/>
<polygon fill="black" stroke="black" points="996.39,-24.48 1006.29,-20.71 996.2,-17.48 996.39,-24.48"/>
</g>
<!-- :app:desktopApp -->
<g id="node3" class="node">
<title>:app:desktopApp</title>
<ellipse fill="none" stroke="black" cx="157.55" cy="-162" rx="88.28" ry="18"/>
<text text-anchor="middle" x="157.55" y="-158.3" font-family="Times,serif" font-size="14.00">:app:desktopApp</text>
</g>
<!-- :app:desktopApp&#45;&gt;:core:domain -->
<g id="edge3" class="edge">
<title>:app:desktopApp&#45;&gt;:core:domain</title>
<path fill="none" stroke="black" d="M144.96,-143.94C131.98,-124.11 116.02,-91.6 134.55,-72 163.93,-40.91 772.81,-25.27 995.71,-20.56"/>
<polygon fill="black" stroke="black" points="996.1,-24.06 1006.03,-20.35 995.96,-17.06 996.1,-24.06"/>
</g>
<!-- :core:data -->
<g id="node4" class="node">
<title>:core:data</title>
<ellipse fill="none" stroke="black" cx="200.55" cy="-90" rx="57.39" ry="18"/>
<text text-anchor="middle" x="200.55" y="-86.3" font-family="Times,serif" font-size="14.00">:core:data</text>
</g>
<!-- :app:desktopApp&#45;&gt;:core:data -->
<g id="edge2" class="edge">
<title>:app:desktopApp&#45;&gt;:core:data</title>
<path fill="none" stroke="black" d="M167.96,-144.05C173.03,-135.8 179.23,-125.7 184.86,-116.54"/>
<polygon fill="black" stroke="black" points="187.98,-118.14 190.23,-107.79 182.02,-114.48 187.98,-118.14"/>
</g>
<!-- :core:data&#45;&gt;:core:domain -->
<g id="edge4" class="edge">
<title>:core:data&#45;&gt;:core:domain</title>
<path fill="none" stroke="black" d="M241.14,-77.28C249.48,-75.23 258.25,-73.33 266.55,-72 530.86,-29.69 848.86,-20.99 995.38,-19.31"/>
<polygon fill="black" stroke="black" points="995.66,-22.81 1005.63,-19.21 995.59,-15.81 995.66,-22.81"/>
</g>
<!-- :feature:lmu&#45;connection -->
<g id="node5" class="node">
<title>:feature:lmu&#45;connection</title>
<ellipse fill="none" stroke="black" cx="396.55" cy="-90" rx="120.78" ry="18"/>
<text text-anchor="middle" x="396.55" y="-86.3" font-family="Times,serif" font-size="14.00">:feature:lmu&#45;connection</text>
</g>
<!-- :feature:lmu&#45;connection&#45;&gt;:core:domain -->
<g id="edge5" class="edge">
<title>:feature:lmu&#45;connection&#45;&gt;:core:domain</title>
<path fill="none" stroke="black" d="M482.51,-77.34C497.19,-75.47 512.3,-73.62 526.55,-72 695.52,-52.82 894.23,-34.78 1000.45,-25.51"/>
<polygon fill="black" stroke="black" points="1000.78,-28.99 1010.43,-24.64 1000.17,-22.02 1000.78,-28.99"/>
</g>
<!-- :feature:lmu&#45;readout&#45;flag&#45;detail -->
<g id="node6" class="node">
<title>:feature:lmu&#45;readout&#45;flag&#45;detail</title>
<ellipse fill="none" stroke="black" cx="691.55" cy="-90" rx="155.97" ry="18"/>
<text text-anchor="middle" x="691.55" y="-86.3" font-family="Times,serif" font-size="14.00">:feature:lmu&#45;readout&#45;flag&#45;detail</text>
</g>
<!-- :feature:lmu&#45;readout&#45;flag&#45;detail&#45;&gt;:core:domain -->
<g id="edge6" class="edge">
<title>:feature:lmu&#45;readout&#45;flag&#45;detail&#45;&gt;:core:domain</title>
<path fill="none" stroke="black" d="M771.32,-74.5C842.23,-61.6 944.66,-42.98 1010.93,-30.93"/>
<polygon fill="black" stroke="black" points="1011.62,-34.36 1020.84,-29.13 1010.37,-27.47 1011.62,-34.36"/>
</g>
<!-- :feature:lmu&#45;readout&#45;vehicle&#45;damage&#45;detail -->
<g id="node7" class="node">
<title>:feature:lmu&#45;readout&#45;vehicle&#45;damage&#45;detail</title>
<ellipse fill="none" stroke="black" cx="1076.55" cy="-90" rx="211.46" ry="18"/>
<text text-anchor="middle" x="1076.55" y="-86.3" font-family="Times,serif" font-size="14.00">:feature:lmu&#45;readout&#45;vehicle&#45;damage&#45;detail</text>
</g>
<!-- :feature:lmu&#45;readout&#45;vehicle&#45;damage&#45;detail&#45;&gt;:core:domain -->
<g id="edge7" class="edge">
<title>:feature:lmu&#45;readout&#45;vehicle&#45;damage&#45;detail&#45;&gt;:core:domain</title>
<path fill="none" stroke="black" d="M1076.55,-71.7C1076.55,-63.98 1076.55,-54.71 1076.55,-46.11"/>
<polygon fill="black" stroke="black" points="1080.05,-46.1 1076.55,-36.1 1073.05,-46.1 1080.05,-46.1"/>
</g>
<!-- :feature:narrator -->
<g id="node8" class="node">
<title>:feature:narrator</title>
<ellipse fill="none" stroke="black" cx="1394.55" cy="-90" rx="89.08" ry="18"/>
<text text-anchor="middle" x="1394.55" y="-86.3" font-family="Times,serif" font-size="14.00">:feature:narrator</text>
</g>
<!-- :feature:narrator&#45;&gt;:core:domain -->
<g id="edge8" class="edge">
<title>:feature:narrator&#45;&gt;:core:domain</title>
<path fill="none" stroke="black" d="M1336.59,-76.24C1280.48,-63.89 1195.71,-45.23 1138.34,-32.6"/>
<polygon fill="black" stroke="black" points="1138.83,-29.13 1128.32,-30.4 1137.33,-35.96 1138.83,-29.13"/>
</g>
<!-- :feature:other&#45;detail -->
<g id="node9" class="node">
<title>:feature:other&#45;detail</title>
<ellipse fill="none" stroke="black" cx="1606.55" cy="-90" rx="104.78" ry="18"/>
<text text-anchor="middle" x="1606.55" y="-86.3" font-family="Times,serif" font-size="14.00">:feature:other&#45;detail</text>
</g>
<!-- :feature:other&#45;detail&#45;&gt;:core:domain -->
<g id="edge9" class="edge">
<title>:feature:other&#45;detail&#45;&gt;:core:domain</title>
<path fill="none" stroke="black" d="M1530.85,-77.48C1518.07,-75.6 1504.93,-73.71 1492.55,-72 1372.25,-55.37 1232.12,-37.91 1149.06,-27.76"/>
<polygon fill="black" stroke="black" points="1149.32,-24.27 1138.97,-26.53 1148.48,-31.22 1149.32,-24.27"/>
</g>
<!-- :feature:other&#45;list -->
<g id="node10" class="node">
<title>:feature:other&#45;list</title>
<ellipse fill="none" stroke="black" cx="1822.55" cy="-90" rx="92.88" ry="18"/>
<text text-anchor="middle" x="1822.55" y="-86.3" font-family="Times,serif" font-size="14.00">:feature:other&#45;list</text>
</g>
<!-- :feature:other&#45;list&#45;&gt;:core:domain -->
<g id="edge10" class="edge">
<title>:feature:other&#45;list&#45;&gt;:core:domain</title>
<path fill="none" stroke="black" d="M1756.82,-77.22C1744.78,-75.3 1732.3,-73.46 1720.55,-72 1517.45,-46.76 1276.77,-30.58 1155.21,-23.36"/>
<polygon fill="black" stroke="black" points="1155.08,-19.85 1144.89,-22.75 1154.67,-26.84 1155.08,-19.85"/>
</g>
<!-- :feature:readout -->
<g id="node11" class="node">
<title>:feature:readout</title>
<ellipse fill="none" stroke="black" cx="2019.55" cy="-90" rx="86.38" ry="18"/>
<text text-anchor="middle" x="2019.55" y="-86.3" font-family="Times,serif" font-size="14.00">:feature:readout</text>
</g>
<!-- :feature:readout&#45;&gt;:core:domain -->
<g id="edge11" class="edge">
<title>:feature:readout&#45;&gt;:core:domain</title>
<path fill="none" stroke="black" d="M1959.14,-77.12C1947.69,-75.17 1935.77,-73.35 1924.55,-72 1643.77,-38.22 1307.93,-25.31 1156.98,-20.96"/>
<polygon fill="black" stroke="black" points="1156.97,-17.45 1146.87,-20.67 1156.77,-24.45 1156.97,-17.45"/>
</g>
<!-- :feature:readout&#45;vehicle&#45;approach -->
<g id="node12" class="node">
<title>:feature:readout&#45;vehicle&#45;approach</title>
<ellipse fill="none" stroke="black" cx="2291.55" cy="-90" rx="167.87" ry="18"/>
<text text-anchor="middle" x="2291.55" y="-86.3" font-family="Times,serif" font-size="14.00">:feature:readout&#45;vehicle&#45;approach</text>
</g>
<!-- :feature:readout&#45;vehicle&#45;approach&#45;&gt;:core:domain -->
<g id="edge12" class="edge">
<title>:feature:readout&#45;vehicle&#45;approach&#45;&gt;:core:domain</title>
<path fill="none" stroke="black" d="M2174.98,-77.06C2154.84,-75.21 2134.1,-73.44 2114.55,-72 1757.47,-45.75 1330.34,-28.35 1156.26,-21.85"/>
<polygon fill="black" stroke="black" points="1156.29,-18.35 1146.16,-21.48 1156.03,-25.35 1156.29,-18.35"/>
</g>
</g>
</svg>
