<?xml version="1.0" encoding="UTF-8" standalone="no"?>
<!DOCTYPE svg PUBLIC "-//W3C//DTD SVG 1.1//EN"
 "http://www.w3.org/Graphics/SVG/1.1/DTD/svg11.dtd">
<!-- Generated by graphviz version 2.43.0 (0)
 -->
<!-- Title: G Pages: 1 -->
<svg width="1271pt" height="260pt"
 viewBox="0.00 0.00 1270.74 260.00" xmlns="http://www.w3.org/2000/svg" xmlns:xlink="http://www.w3.org/1999/xlink">
<g id="graph0" class="graph" transform="scale(1 1) rotate(0) translate(4 256)">
<title>G</title>
<polygon fill="white" stroke="transparent" points="-4,4 -4,-256 1266.74,-256 1266.74,4 -4,4"/>
<!-- :server -->
<g id="node1" class="node">
<title>:server</title>
<ellipse fill="none" stroke="black" cx="43.55" cy="-90" rx="43.59" ry="18"/>
<text text-anchor="middle" x="43.55" y="-86.3" font-family="Times,serif" font-size="14.00">:server</text>
</g>
<!-- :core:domain -->
<g id="node2" class="node">
<title>:core:domain</title>
<ellipse fill="none" stroke="black" cx="472.55" cy="-18" rx="70.69" ry="18"/>
<text text-anchor="middle" x="472.55" y="-14.3" font-family="Times,serif" font-size="14.00">:core:domain</text>
</g>
<!-- :server&#45;&gt;:core:domain -->
<g id="edge1" class="edge">
<title>:server&#45;&gt;:core:domain</title>
<path fill="none" stroke="black" d="M77.07,-78.29C85.04,-75.99 93.55,-73.73 101.55,-72 202.97,-50.01 322.02,-34.85 397.37,-26.54"/>
<polygon fill="black" stroke="black" points="398.14,-29.98 407.71,-25.42 397.39,-23.02 398.14,-29.98"/>
</g>
<!-- :app:androidApp -->
<g id="node3" class="node">
<title>:app:androidApp</title>
<ellipse fill="none" stroke="black" cx="294.55" cy="-234" rx="87.18" ry="18"/>
<text text-anchor="middle" x="294.55" y="-230.3" font-family="Times,serif" font-size="14.00">:app:androidApp</text>
</g>
<!-- :app:androidApp&#45;&gt;:core:domain -->
<g id="edge3" class="edge">
<title>:app:androidApp&#45;&gt;:core:domain</title>
<path fill="none" stroke="black" d="M263.72,-216.91C211.9,-187.83 117.12,-124.64 161.55,-72 190.54,-37.65 310.22,-25.56 392.37,-21.31"/>
<polygon fill="black" stroke="black" points="392.63,-24.8 402.45,-20.81 392.29,-17.81 392.63,-24.8"/>
</g>
<!-- :app:shared -->
<g id="node4" class="node">
<title>:app:shared</title>
<ellipse fill="none" stroke="black" cx="472.55" cy="-162" rx="65.79" ry="18"/>
<text text-anchor="middle" x="472.55" y="-158.3" font-family="Times,serif" font-size="14.00">:app:shared</text>
</g>
<!-- :app:androidApp&#45;&gt;:app:shared -->
<g id="edge2" class="edge">
<title>:app:androidApp&#45;&gt;:app:shared</title>
<path fill="none" stroke="black" d="M333.17,-217.81C360.82,-206.94 398.14,-192.26 427.21,-180.83"/>
<polygon fill="black" stroke="black" points="428.7,-184 436.72,-177.09 426.14,-177.49 428.7,-184"/>
</g>
<!-- :app:shared&#45;&gt;:core:domain -->
<g id="edge10" class="edge">
<title>:app:shared&#45;&gt;:core:domain</title>
<path fill="none" stroke="black" d="M407.66,-158.95C328.62,-154.93 201.95,-143.05 172.55,-108 162.26,-95.74 162.26,-84.26 172.55,-72 200.12,-39.13 313.2,-26.64 392.36,-21.89"/>
<polygon fill="black" stroke="black" points="393.02,-25.36 402.81,-21.3 392.62,-18.37 393.02,-25.36"/>
</g>
<!-- :feature:announcer -->
<g id="node6" class="node">
<title>:feature:announcer</title>
<ellipse fill="none" stroke="black" cx="280.55" cy="-90" rx="98.58" ry="18"/>
<text text-anchor="middle" x="280.55" y="-86.3" font-family="Times,serif" font-size="14.00">:feature:announcer</text>
</g>
<!-- :app:shared&#45;&gt;:feature:announcer -->
<g id="edge6" class="edge">
<title>:app:shared&#45;&gt;:feature:announcer</title>
<path fill="none" stroke="black" d="M434.61,-147.17C405.4,-136.52 364.68,-121.68 332.45,-109.92"/>
<polygon fill="black" stroke="black" points="333.33,-106.52 322.74,-106.38 330.94,-113.1 333.33,-106.52"/>
</g>
<!-- :feature:other -->
<g id="node7" class="node">
<title>:feature:other</title>
<ellipse fill="none" stroke="black" cx="472.55" cy="-90" rx="75.29" ry="18"/>
<text text-anchor="middle" x="472.55" y="-86.3" font-family="Times,serif" font-size="14.00">:feature:other</text>
</g>
<!-- :app:shared&#45;&gt;:feature:other -->
<g id="edge7" class="edge">
<title>:app:shared&#45;&gt;:feature:other</title>
<path fill="none" stroke="black" d="M472.55,-143.7C472.55,-135.98 472.55,-126.71 472.55,-118.11"/>
<polygon fill="black" stroke="black" points="476.05,-118.1 472.55,-108.1 469.05,-118.1 476.05,-118.1"/>
</g>
<!-- :feature:readout -->
<g id="node8" class="node">
<title>:feature:readout</title>
<ellipse fill="none" stroke="black" cx="652.55" cy="-90" rx="86.38" ry="18"/>
<text text-anchor="middle" x="652.55" y="-86.3" font-family="Times,serif" font-size="14.00">:feature:readout</text>
</g>
<!-- :app:shared&#45;&gt;:feature:readout -->
<g id="edge8" class="edge">
<title>:app:shared&#45;&gt;:feature:readout</title>
<path fill="none" stroke="black" d="M508.97,-146.83C536.41,-136.16 574.29,-121.43 604.26,-109.78"/>
<polygon fill="black" stroke="black" points="605.63,-113 613.68,-106.11 603.09,-106.48 605.63,-113"/>
</g>
<!-- :feature:readout&#45;vehicle&#45;approach -->
<g id="node9" class="node">
<title>:feature:readout&#45;vehicle&#45;approach</title>
<ellipse fill="none" stroke="black" cx="924.55" cy="-90" rx="167.87" ry="18"/>
<text text-anchor="middle" x="924.55" y="-86.3" font-family="Times,serif" font-size="14.00">:feature:readout&#45;vehicle&#45;approach</text>
</g>
<!-- :app:shared&#45;&gt;:feature:readout&#45;vehicle&#45;approach -->
<g id="edge9" class="edge">
<title>:app:shared&#45;&gt;:feature:readout&#45;vehicle&#45;approach</title>
<path fill="none" stroke="black" d="M528.42,-152.35C601.84,-140.98 732.12,-120.8 823.16,-106.7"/>
<polygon fill="black" stroke="black" points="823.88,-110.13 833.23,-105.14 822.81,-103.21 823.88,-110.13"/>
</g>
<!-- :app:desktopApp -->
<g id="node5" class="node">
<title>:app:desktopApp</title>
<ellipse fill="none" stroke="black" cx="804.55" cy="-234" rx="88.28" ry="18"/>
<text text-anchor="middle" x="804.55" y="-230.3" font-family="Times,serif" font-size="14.00">:app:desktopApp</text>
</g>
<!-- :app:desktopApp&#45;&gt;:core:domain -->
<g id="edge5" class="edge">
<title>:app:desktopApp&#45;&gt;:core:domain</title>
<path fill="none" stroke="black" d="M871.64,-222.22C980.5,-202.08 1176.27,-153.28 1101.55,-72 1065.17,-32.43 715.12,-22.38 553.54,-19.85"/>
<polygon fill="black" stroke="black" points="553.23,-16.34 543.18,-19.69 553.12,-23.34 553.23,-16.34"/>
</g>
<!-- :app:desktopApp&#45;&gt;:app:shared -->
<g id="edge4" class="edge">
<title>:app:desktopApp&#45;&gt;:app:shared</title>
<path fill="none" stroke="black" d="M745.57,-220.57C685.68,-207.94 593.39,-188.48 532.98,-175.74"/>
<polygon fill="black" stroke="black" points="533.34,-172.24 522.83,-173.6 531.89,-179.09 533.34,-172.24"/>
</g>
<!-- :feature:announcer&#45;&gt;:core:domain -->
<g id="edge12" class="edge">
<title>:feature:announcer&#45;&gt;:core:domain</title>
<path fill="none" stroke="black" d="M322.68,-73.64C352.69,-62.7 393.09,-47.97 424.38,-36.56"/>
<polygon fill="black" stroke="black" points="425.58,-39.85 433.78,-33.14 423.18,-33.27 425.58,-39.85"/>
</g>
<!-- :feature:other&#45;&gt;:core:domain -->
<g id="edge13" class="edge">
<title>:feature:other&#45;&gt;:core:domain</title>
<path fill="none" stroke="black" d="M472.55,-71.7C472.55,-63.98 472.55,-54.71 472.55,-46.11"/>
<polygon fill="black" stroke="black" points="476.05,-46.1 472.55,-36.1 469.05,-46.1 476.05,-46.1"/>
</g>
<!-- :feature:readout&#45;&gt;:core:domain -->
<g id="edge14" class="edge">
<title>:feature:readout&#45;&gt;:core:domain</title>
<path fill="none" stroke="black" d="M613.49,-73.81C585.81,-63.05 548.53,-48.55 519.27,-37.17"/>
<polygon fill="black" stroke="black" points="520.27,-33.8 509.68,-33.44 517.73,-40.33 520.27,-33.8"/>
</g>
<!-- :feature:readout&#45;vehicle&#45;approach&#45;&gt;:core:domain -->
<g id="edge15" class="edge">
<title>:feature:readout&#45;vehicle&#45;approach&#45;&gt;:core:domain</title>
<path fill="none" stroke="black" d="M833.35,-74.88C747.09,-61.52 619.55,-41.77 541.48,-29.68"/>
<polygon fill="black" stroke="black" points="541.69,-26.17 531.27,-28.09 540.62,-33.08 541.69,-26.17"/>
</g>
<!-- :core:data -->
<g id="node10" class="node">
<title>:core:data</title>
<ellipse fill="none" stroke="black" cx="1205.55" cy="-90" rx="57.39" ry="18"/>
<text text-anchor="middle" x="1205.55" y="-86.3" font-family="Times,serif" font-size="14.00">:core:data</text>
</g>
<!-- :core:data&#45;&gt;:core:domain -->
<g id="edge11" class="edge">
<title>:core:data&#45;&gt;:core:domain</title>
<path fill="none" stroke="black" d="M1163.34,-77.76C1153.92,-75.57 1143.93,-73.49 1134.55,-72 926.32,-38.94 677.8,-26.07 552.79,-21.41"/>
<polygon fill="black" stroke="black" points="552.66,-17.9 542.54,-21.04 552.41,-24.9 552.66,-17.9"/>
</g>
</g>
</svg>
