<?xml version="1.0" encoding="UTF-8" standalone="no"?>
<!DOCTYPE svg PUBLIC "-//W3C//DTD SVG 1.1//EN"
 "http://www.w3.org/Graphics/SVG/1.1/DTD/svg11.dtd">
<!-- Generated by graphviz version 2.43.0 (0)
 -->
<!-- Title: G Pages: 1 -->
<svg width="286pt" height="116pt"
 viewBox="0.00 0.00 285.99 116.00" xmlns="http://www.w3.org/2000/svg" xmlns:xlink="http://www.w3.org/1999/xlink">
<g id="graph0" class="graph" transform="scale(1 1) rotate(0) translate(4 112)">
<title>G</title>
<polygon fill="white" stroke="transparent" points="-4,4 -4,-112 281.99,-112 281.99,4 -4,4"/>
<!-- :server -->
<g id="node1" class="node">
<title>:server</title>
<ellipse fill="none" stroke="black" cx="43.55" cy="-90" rx="43.59" ry="18"/>
<text text-anchor="middle" x="43.55" y="-86.3" font-family="Times,serif" font-size="14.00">:server</text>
</g>
<!-- :core -->
<g id="node2" class="node">
<title>:core</title>
<ellipse fill="none" stroke="black" cx="117.55" cy="-18" rx="33.6" ry="18"/>
<text text-anchor="middle" x="117.55" y="-14.3" font-family="Times,serif" font-size="14.00">:core</text>
</g>
<!-- :server&#45;&gt;:core -->
<g id="edge1" class="edge">
<title>:server&#45;&gt;:core</title>
<path fill="none" stroke="black" d="M60.34,-73.12C70.22,-63.77 82.88,-51.79 93.77,-41.49"/>
<polygon fill="black" stroke="black" points="96.47,-43.75 101.33,-34.34 91.66,-38.67 96.47,-43.75"/>
</g>
<!-- :feature:readout -->
<g id="node3" class="node">
<title>:feature:readout</title>
<ellipse fill="none" stroke="black" cx="191.55" cy="-90" rx="86.38" ry="18"/>
<text text-anchor="middle" x="191.55" y="-86.3" font-family="Times,serif" font-size="14.00">:feature:readout</text>
</g>
<!-- :feature:readout&#45;&gt;:core -->
<g id="edge2" class="edge">
<title>:feature:readout&#45;&gt;:core</title>
<path fill="none" stroke="black" d="M173.63,-72.05C163.79,-62.74 151.46,-51.08 140.87,-41.07"/>
<polygon fill="black" stroke="black" points="143.2,-38.45 133.53,-34.12 138.39,-43.54 143.2,-38.45"/>
</g>
</g>
</svg>
