<?xml version="1.0" encoding="UTF-8" standalone="no"?>
<!DOCTYPE svg PUBLIC "-//W3C//DTD SVG 1.1//EN"
 "http://www.w3.org/Graphics/SVG/1.1/DTD/svg11.dtd">
<!-- Generated by graphviz version 2.43.0 (0)
 -->
<!-- Title: G Pages: 1 -->
<svg width="1812pt" height="116pt"
 viewBox="0.00 0.00 1812.02 116.00" xmlns="http://www.w3.org/2000/svg" xmlns:xlink="http://www.w3.org/1999/xlink">
<g id="graph0" class="graph" transform="scale(1 1) rotate(0) translate(4 112)">
<title>G</title>
<polygon fill="white" stroke="transparent" points="-4,4 -4,-112 1808.02,-112 1808.02,4 -4,4"/>
<!-- :feature:lmu&#45;readout&#45;flag&#45;detail -->
<g id="node1" class="node">
<title>:feature:lmu&#45;readout&#45;flag&#45;detail</title>
<ellipse fill="none" stroke="black" cx="155.99" cy="-90" rx="155.97" ry="18"/>
<text text-anchor="middle" x="155.99" y="-86.3" font-family="Times,serif" font-size="14.00">:feature:lmu&#45;readout&#45;flag&#45;detail</text>
</g>
<!-- :core:designsystem -->
<g id="node2" class="node">
<title>:core:designsystem</title>
<ellipse fill="none" stroke="black" cx="994.99" cy="-18" rx="100.98" ry="18"/>
<text text-anchor="middle" x="994.99" y="-14.3" font-family="Times,serif" font-size="14.00">:core:designsystem</text>
</g>
<!-- :feature:lmu&#45;readout&#45;flag&#45;detail&#45;&gt;:core:designsystem -->
<g id="edge1" class="edge">
<title>:feature:lmu&#45;readout&#45;flag&#45;detail&#45;&gt;:core:designsystem</title>
<path fill="none" stroke="black" d="M266.45,-77.25C284.66,-75.42 303.35,-73.6 320.99,-72 523.77,-53.58 761.24,-35.79 893.25,-26.23"/>
<polygon fill="black" stroke="black" points="893.63,-29.71 903.35,-25.5 893.13,-22.73 893.63,-29.71"/>
</g>
<!-- :feature:lmu&#45;readout&#45;vehicle&#45;approach&#45;detail -->
<g id="node3" class="node">
<title>:feature:lmu&#45;readout&#45;vehicle&#45;approach&#45;detail</title>
<ellipse fill="none" stroke="black" cx="547.99" cy="-90" rx="217.96" ry="18"/>
<text text-anchor="middle" x="547.99" y="-86.3" font-family="Times,serif" font-size="14.00">:feature:lmu&#45;readout&#45;vehicle&#45;approach&#45;detail</text>
</g>
<!-- :feature:lmu&#45;readout&#45;vehicle&#45;approach&#45;detail&#45;&gt;:core:designsystem -->
<g id="edge2" class="edge">
<title>:feature:lmu&#45;readout&#45;vehicle&#45;approach&#45;detail&#45;&gt;:core:designsystem</title>
<path fill="none" stroke="black" d="M644.7,-73.85C724.43,-61.37 836.31,-43.85 912.01,-31.99"/>
<polygon fill="black" stroke="black" points="912.64,-35.44 921.98,-30.43 911.56,-28.52 912.64,-35.44"/>
</g>
<!-- :feature:lmu&#45;readout&#45;vehicle&#45;damage&#45;detail -->
<g id="node4" class="node">
<title>:feature:lmu&#45;readout&#45;vehicle&#45;damage&#45;detail</title>
<ellipse fill="none" stroke="black" cx="994.99" cy="-90" rx="211.46" ry="18"/>
<text text-anchor="middle" x="994.99" y="-86.3" font-family="Times,serif" font-size="14.00">:feature:lmu&#45;readout&#45;vehicle&#45;damage&#45;detail</text>
</g>
<!-- :feature:lmu&#45;readout&#45;vehicle&#45;damage&#45;detail&#45;&gt;:core:designsystem -->
<g id="edge3" class="edge">
<title>:feature:lmu&#45;readout&#45;vehicle&#45;damage&#45;detail&#45;&gt;:core:designsystem</title>
<path fill="none" stroke="black" d="M994.99,-71.7C994.99,-63.98 994.99,-54.71 994.99,-46.11"/>
<polygon fill="black" stroke="black" points="998.49,-46.1 994.99,-36.1 991.49,-46.1 998.49,-46.1"/>
</g>
<!-- :feature:other&#45;license&#45;detail -->
<g id="node5" class="node">
<title>:feature:other&#45;license&#45;detail</title>
<ellipse fill="none" stroke="black" cx="1363.99" cy="-90" rx="139.98" ry="18"/>
<text text-anchor="middle" x="1363.99" y="-86.3" font-family="Times,serif" font-size="14.00">:feature:other&#45;license&#45;detail</text>
</g>
<!-- :feature:other&#45;license&#45;detail&#45;&gt;:core:designsystem -->
<g id="edge4" class="edge">
<title>:feature:other&#45;license&#45;detail&#45;&gt;:core:designsystem</title>
<path fill="none" stroke="black" d="M1288.87,-74.75C1225.46,-62.72 1135.08,-45.58 1071.33,-33.48"/>
<polygon fill="black" stroke="black" points="1071.81,-30.01 1061.33,-31.59 1070.51,-36.89 1071.81,-30.01"/>
</g>
<!-- :feature:other&#45;volume&#45;detail -->
<g id="node6" class="node">
<title>:feature:other&#45;volume&#45;detail</title>
<ellipse fill="none" stroke="black" cx="1662.99" cy="-90" rx="141.07" ry="18"/>
<text text-anchor="middle" x="1662.99" y="-86.3" font-family="Times,serif" font-size="14.00">:feature:other&#45;volume&#45;detail</text>
</g>
<!-- :feature:other&#45;volume&#45;detail&#45;&gt;:core:designsystem -->
<g id="edge5" class="edge">
<title>:feature:other&#45;volume&#45;detail&#45;&gt;:core:designsystem</title>
<path fill="none" stroke="black" d="M1561.74,-77.37C1545.44,-75.55 1528.75,-73.7 1512.99,-72 1365.77,-56.13 1194.88,-38.87 1090.88,-28.5"/>
<polygon fill="black" stroke="black" points="1091.01,-24.99 1080.72,-27.48 1090.32,-31.96 1091.01,-24.99"/>
</g>
</g>
</svg>
