<?xml version="1.0" encoding="UTF-8" standalone="no"?>
<!DOCTYPE svg PUBLIC "-//W3C//DTD SVG 1.1//EN"
 "http://www.w3.org/Graphics/SVG/1.1/DTD/svg11.dtd">
<!-- Generated by graphviz version 2.43.0 (0)
 -->
<!-- Title: G Pages: 1 -->
<svg width="6970pt" height="116pt"
 viewBox="0.00 0.00 6969.78 116.00" xmlns="http://www.w3.org/2000/svg" xmlns:xlink="http://www.w3.org/1999/xlink">
<g id="graph0" class="graph" transform="scale(1 1) rotate(0) translate(4 112)">
<title>G</title>
<polygon fill="white" stroke="transparent" points="-4,4 -4,-112 6965.78,-112 6965.78,4 -4,4"/>
<!-- :server -->
<g id="node1" class="node">
<title>:server</title>
<ellipse fill="none" stroke="black" cx="43.55" cy="-90" rx="43.59" ry="18"/>
<text text-anchor="middle" x="43.55" y="-86.3" font-family="Times,serif" font-size="14.00">:server</text>
</g>
<!-- :core:domain -->
<g id="node2" class="node">
<title>:core:domain</title>
<ellipse fill="none" stroke="black" cx="3327.55" cy="-18" rx="70.69" ry="18"/>
<text text-anchor="middle" x="3327.55" y="-14.3" font-family="Times,serif" font-size="14.00">:core:domain</text>
</g>
<!-- :server&#45;&gt;:core:domain -->
<g id="edge1" class="edge">
<title>:server&#45;&gt;:core:domain</title>
<path fill="none" stroke="black" d="M74.84,-77.29C81.89,-75.13 89.4,-73.18 96.55,-72 415.33,-19.44 2776.66,-18.56 3246.42,-18.91"/>
<polygon fill="black" stroke="black" points="3246.5,-22.41 3256.5,-18.91 3246.51,-15.41 3246.5,-22.41"/>
</g>
<!-- :core:data -->
<g id="node3" class="node">
<title>:core:data</title>
<ellipse fill="none" stroke="black" cx="162.55" cy="-90" rx="57.39" ry="18"/>
<text text-anchor="middle" x="162.55" y="-86.3" font-family="Times,serif" font-size="14.00">:core:data</text>
</g>
<!-- :core:data&#45;&gt;:core:domain -->
<g id="edge2" class="edge">
<title>:core:data&#45;&gt;:core:domain</title>
<path fill="none" stroke="black" d="M202.74,-77.05C211.19,-74.99 220.1,-73.14 228.55,-72 534.9,-30.51 2788.58,-20.8 3246.5,-19.25"/>
<polygon fill="black" stroke="black" points="3246.67,-22.75 3256.66,-19.21 3246.65,-15.75 3246.67,-22.75"/>
</g>
<!-- :core:gt7&#45;ps5&#45;data -->
<g id="node4" class="node">
<title>:core:gt7&#45;ps5&#45;data</title>
<ellipse fill="none" stroke="black" cx="332.55" cy="-90" rx="94.78" ry="18"/>
<text text-anchor="middle" x="332.55" y="-86.3" font-family="Times,serif" font-size="14.00">:core:gt7&#45;ps5&#45;data</text>
</g>
<!-- :core:gt7&#45;ps5&#45;data&#45;&gt;:core:domain -->
<g id="edge3" class="edge">
<title>:core:gt7&#45;ps5&#45;data&#45;&gt;:core:domain</title>
<path fill="none" stroke="black" d="M397.83,-76.86C410.62,-74.9 423.97,-73.14 436.55,-72 1003.95,-20.69 2837.91,-18.7 3246.4,-18.91"/>
<polygon fill="black" stroke="black" points="3246.64,-22.41 3256.64,-18.92 3246.64,-15.41 3246.64,-22.41"/>
</g>
<!-- :core:lmu&#45;windows&#45;data -->
<g id="node5" class="node">
<title>:core:lmu&#45;windows&#45;data</title>
<ellipse fill="none" stroke="black" cx="566.55" cy="-90" rx="120.78" ry="18"/>
<text text-anchor="middle" x="566.55" y="-86.3" font-family="Times,serif" font-size="14.00">:core:lmu&#45;windows&#45;data</text>
</g>
<!-- :core:lmu&#45;windows&#45;data&#45;&gt;:core:domain -->
<g id="edge4" class="edge">
<title>:core:lmu&#45;windows&#45;data&#45;&gt;:core:domain</title>
<path fill="none" stroke="black" d="M649.28,-76.8C664.95,-74.88 681.23,-73.15 696.55,-72 1210.37,-33.35 2861.38,-21.66 3246.63,-19.43"/>
<polygon fill="black" stroke="black" points="3246.87,-22.93 3256.85,-19.37 3246.83,-15.93 3246.87,-22.93"/>
</g>
<!-- :feature:gt7&#45;ps5&#45;connection -->
<g id="node6" class="node">
<title>:feature:gt7&#45;ps5&#45;connection</title>
<ellipse fill="none" stroke="black" cx="843.55" cy="-90" rx="138.38" ry="18"/>
<text text-anchor="middle" x="843.55" y="-86.3" font-family="Times,serif" font-size="14.00">:feature:gt7&#45;ps5&#45;connection</text>
</g>
<!-- :feature:gt7&#45;ps5&#45;connection&#45;&gt;:core:domain -->
<g id="edge5" class="edge">
<title>:feature:gt7&#45;ps5&#45;connection&#45;&gt;:core:domain</title>
<path fill="none" stroke="black" d="M938.17,-76.82C955.88,-74.92 974.26,-73.19 991.55,-72 1444.14,-40.94 2889,-23.7 3246.81,-19.84"/>
<polygon fill="black" stroke="black" points="3246.86,-23.34 3256.82,-19.73 3246.78,-16.34 3246.86,-23.34"/>
</g>
<!-- :feature:gt7&#45;ps5&#45;narrator -->
<g id="node7" class="node">
<title>:feature:gt7&#45;ps5&#45;narrator</title>
<ellipse fill="none" stroke="black" cx="1127.55" cy="-90" rx="127.28" ry="18"/>
<text text-anchor="middle" x="1127.55" y="-86.3" font-family="Times,serif" font-size="14.00">:feature:gt7&#45;ps5&#45;narrator</text>
</g>
<!-- :feature:gt7&#45;ps5&#45;narrator&#45;&gt;:core:domain -->
<g id="edge6" class="edge">
<title>:feature:gt7&#45;ps5&#45;narrator&#45;&gt;:core:domain</title>
<path fill="none" stroke="black" d="M1214.48,-76.84C1230.76,-74.93 1247.65,-73.19 1263.55,-72 1659.25,-42.26 2914.38,-24.32 3246.35,-20.01"/>
<polygon fill="black" stroke="black" points="3246.88,-23.51 3256.83,-19.88 3246.79,-16.51 3246.88,-23.51"/>
</g>
<!-- :feature:gt7&#45;ps5&#45;readout&#45;my&#45;bestlap&#45;detail -->
<g id="node8" class="node">
<title>:feature:gt7&#45;ps5&#45;readout&#45;my&#45;bestlap&#45;detail</title>
<ellipse fill="none" stroke="black" cx="1480.55" cy="-90" rx="207.96" ry="18"/>
<text text-anchor="middle" x="1480.55" y="-86.3" font-family="Times,serif" font-size="14.00">:feature:gt7&#45;ps5&#45;readout&#45;my&#45;bestlap&#45;detail</text>
</g>
<!-- :feature:gt7&#45;ps5&#45;readout&#45;my&#45;bestlap&#45;detail&#45;&gt;:core:domain -->
<g id="edge7" class="edge">
<title>:feature:gt7&#45;ps5&#45;readout&#45;my&#45;bestlap&#45;detail&#45;&gt;:core:domain</title>
<path fill="none" stroke="black" d="M1623.18,-76.89C1647.96,-75.06 1673.49,-73.33 1697.55,-72 2291.93,-39.07 3009.45,-24.48 3246.93,-20.32"/>
<polygon fill="black" stroke="black" points="3247.26,-23.81 3257.2,-20.14 3247.14,-16.81 3247.26,-23.81"/>
</g>
<!-- :feature:gt7&#45;ps5&#45;readout&#45;remaining&#45;fuel&#45;laps&#45;detail -->
<g id="node9" class="node">
<title>:feature:gt7&#45;ps5&#45;readout&#45;remaining&#45;fuel&#45;laps&#45;detail</title>
<ellipse fill="none" stroke="black" cx="1952.55" cy="-90" rx="246.16" ry="18"/>
<text text-anchor="middle" x="1952.55" y="-86.3" font-family="Times,serif" font-size="14.00">:feature:gt7&#45;ps5&#45;readout&#45;remaining&#45;fuel&#45;laps&#45;detail</text>
</g>
<!-- :feature:gt7&#45;ps5&#45;readout&#45;remaining&#45;fuel&#45;laps&#45;detail&#45;&gt;:core:domain -->
<g id="edge8" class="edge">
<title>:feature:gt7&#45;ps5&#45;readout&#45;remaining&#45;fuel&#45;laps&#45;detail&#45;&gt;:core:domain</title>
<path fill="none" stroke="black" d="M2124.65,-77.12C2152.68,-75.32 2181.42,-73.54 2208.55,-72 2598.27,-49.83 3064.71,-29.85 3248.03,-22.25"/>
<polygon fill="black" stroke="black" points="3248.27,-25.74 3258.12,-21.83 3247.98,-18.75 3248.27,-25.74"/>
</g>
<!-- :feature:lmu&#45;windows&#45;connection -->
<g id="node10" class="node">
<title>:feature:lmu&#45;windows&#45;connection</title>
<ellipse fill="none" stroke="black" cx="2381.55" cy="-90" rx="164.37" ry="18"/>
<text text-anchor="middle" x="2381.55" y="-86.3" font-family="Times,serif" font-size="14.00">:feature:lmu&#45;windows&#45;connection</text>
</g>
<!-- :feature:lmu&#45;windows&#45;connection&#45;&gt;:core:domain -->
<g id="edge9" class="edge">
<title>:feature:lmu&#45;windows&#45;connection&#45;&gt;:core:domain</title>
<path fill="none" stroke="black" d="M2497.56,-77.2C2516.92,-75.36 2536.79,-73.56 2555.55,-72 2808.93,-50.93 3109.62,-32.04 3249.17,-23.63"/>
<polygon fill="black" stroke="black" points="3249.57,-27.11 3259.34,-23.02 3249.15,-20.13 3249.57,-27.11"/>
</g>
<!-- :feature:lmu&#45;windows&#45;narrator -->
<g id="node11" class="node">
<title>:feature:lmu&#45;windows&#45;narrator</title>
<ellipse fill="none" stroke="black" cx="2717.55" cy="-90" rx="153.27" ry="18"/>
<text text-anchor="middle" x="2717.55" y="-86.3" font-family="Times,serif" font-size="14.00">:feature:lmu&#45;windows&#45;narrator</text>
</g>
<!-- :feature:lmu&#45;windows&#45;narrator&#45;&gt;:core:domain -->
<g id="edge10" class="edge">
<title>:feature:lmu&#45;windows&#45;narrator&#45;&gt;:core:domain</title>
<path fill="none" stroke="black" d="M2823.1,-76.89C2946.32,-62.75 3146.87,-39.73 3254.23,-27.41"/>
<polygon fill="black" stroke="black" points="3254.78,-30.87 3264.32,-26.26 3253.99,-23.92 3254.78,-30.87"/>
</g>
<!-- :feature:lmu&#45;windows&#45;readout&#45;flag&#45;detail -->
<g id="node12" class="node">
<title>:feature:lmu&#45;windows&#45;readout&#45;flag&#45;detail</title>
<ellipse fill="none" stroke="black" cx="3088.55" cy="-90" rx="199.56" ry="18"/>
<text text-anchor="middle" x="3088.55" y="-86.3" font-family="Times,serif" font-size="14.00">:feature:lmu&#45;windows&#45;readout&#45;flag&#45;detail</text>
</g>
<!-- :feature:lmu&#45;windows&#45;readout&#45;flag&#45;detail&#45;&gt;:core:domain -->
<g id="edge11" class="edge">
<title>:feature:lmu&#45;windows&#45;readout&#45;flag&#45;detail&#45;&gt;:core:domain</title>
<path fill="none" stroke="black" d="M3144.28,-72.68C3183.03,-61.33 3234.42,-46.28 3272.92,-35"/>
<polygon fill="black" stroke="black" points="3274.3,-38.24 3282.92,-32.07 3272.33,-31.52 3274.3,-38.24"/>
</g>
<!-- :feature:lmu&#45;windows&#45;readout&#45;vehicle&#45;approach&#45;detail -->
<g id="node13" class="node">
<title>:feature:lmu&#45;windows&#45;readout&#45;vehicle&#45;approach&#45;detail</title>
<ellipse fill="none" stroke="black" cx="3566.55" cy="-90" rx="260.75" ry="18"/>
<text text-anchor="middle" x="3566.55" y="-86.3" font-family="Times,serif" font-size="14.00">:feature:lmu&#45;windows&#45;readout&#45;vehicle&#45;approach&#45;detail</text>
</g>
<!-- :feature:lmu&#45;windows&#45;readout&#45;vehicle&#45;approach&#45;detail&#45;&gt;:core:domain -->
<g id="edge12" class="edge">
<title>:feature:lmu&#45;windows&#45;readout&#45;vehicle&#45;approach&#45;detail&#45;&gt;:core:domain</title>
<path fill="none" stroke="black" d="M3509.91,-72.41C3471.26,-61.09 3420.35,-46.18 3382.14,-34.99"/>
<polygon fill="black" stroke="black" points="3382.8,-31.54 3372.22,-32.08 3380.84,-38.25 3382.8,-31.54"/>
</g>
<!-- :feature:lmu&#45;windows&#45;readout&#45;vehicle&#45;damage&#45;detail -->
<g id="node14" class="node">
<title>:feature:lmu&#45;windows&#45;readout&#45;vehicle&#45;damage&#45;detail</title>
<ellipse fill="none" stroke="black" cx="4099.55" cy="-90" rx="254.55" ry="18"/>
<text text-anchor="middle" x="4099.55" y="-86.3" font-family="Times,serif" font-size="14.00">:feature:lmu&#45;windows&#45;readout&#45;vehicle&#45;damage&#45;detail</text>
</g>
<!-- :feature:lmu&#45;windows&#45;readout&#45;vehicle&#45;damage&#45;detail&#45;&gt;:core:domain -->
<g id="edge13" class="edge">
<title>:feature:lmu&#45;windows&#45;readout&#45;vehicle&#45;damage&#45;detail&#45;&gt;:core:domain</title>
<path fill="none" stroke="black" d="M3949.78,-75.42C3785.84,-60.56 3529.54,-37.32 3403.18,-25.86"/>
<polygon fill="black" stroke="black" points="3403.48,-22.37 3393.2,-24.95 3402.84,-29.34 3403.48,-22.37"/>
</g>
<!-- :feature:main -->
<g id="node15" class="node">
<title>:feature:main</title>
<ellipse fill="none" stroke="black" cx="4445.55" cy="-90" rx="73.39" ry="18"/>
<text text-anchor="middle" x="4445.55" y="-86.3" font-family="Times,serif" font-size="14.00">:feature:main</text>
</g>
<!-- :feature:main&#45;&gt;:core:domain -->
<g id="edge14" class="edge">
<title>:feature:main&#45;&gt;:core:domain</title>
<path fill="none" stroke="black" d="M4394.13,-77.09C4384.04,-75.1 4373.5,-73.28 4363.55,-72 4009.98,-26.58 3583.83,-19.71 3408.7,-18.93"/>
<polygon fill="black" stroke="black" points="3408.55,-15.43 3398.54,-18.89 3408.52,-22.43 3408.55,-15.43"/>
</g>
<!-- :feature:other&#45;console&#45;ip&#45;detail -->
<g id="node16" class="node">
<title>:feature:other&#45;console&#45;ip&#45;detail</title>
<ellipse fill="none" stroke="black" cx="4690.55" cy="-90" rx="153.27" ry="18"/>
<text text-anchor="middle" x="4690.55" y="-86.3" font-family="Times,serif" font-size="14.00">:feature:other&#45;console&#45;ip&#45;detail</text>
</g>
<!-- :feature:other&#45;console&#45;ip&#45;detail&#45;&gt;:core:domain -->
<g id="edge15" class="edge">
<title>:feature:other&#45;console&#45;ip&#45;detail&#45;&gt;:core:domain</title>
<path fill="none" stroke="black" d="M4584.1,-76.97C4565.27,-75.11 4545.85,-73.36 4527.55,-72 4106.41,-40.77 3600.67,-25.78 3407.69,-20.88"/>
<polygon fill="black" stroke="black" points="3407.71,-17.38 3397.63,-20.63 3407.54,-24.38 3407.71,-17.38"/>
</g>
<!-- :feature:other&#45;keep&#45;screen&#45;on&#45;detail -->
<g id="node17" class="node">
<title>:feature:other&#45;keep&#45;screen&#45;on&#45;detail</title>
<ellipse fill="none" stroke="black" cx="5038.55" cy="-90" rx="176.57" ry="18"/>
<text text-anchor="middle" x="5038.55" y="-86.3" font-family="Times,serif" font-size="14.00">:feature:other&#45;keep&#45;screen&#45;on&#45;detail</text>
</g>
<!-- :feature:other&#45;keep&#45;screen&#45;on&#45;detail&#45;&gt;:core:domain -->
<g id="edge16" class="edge">
<title>:feature:other&#45;keep&#45;screen&#45;on&#45;detail&#45;&gt;:core:domain</title>
<path fill="none" stroke="black" d="M4917.06,-76.9C4895.58,-75.05 4873.42,-73.32 4852.55,-72 4301.17,-37.25 3636.11,-23.94 3408.49,-20.21"/>
<polygon fill="black" stroke="black" points="3408.36,-16.7 3398.3,-20.04 3408.25,-23.7 3408.36,-16.7"/>
</g>
<!-- :feature:other&#45;list -->
<g id="node18" class="node">
<title>:feature:other&#45;list</title>
<ellipse fill="none" stroke="black" cx="5326.55" cy="-90" rx="92.88" ry="18"/>
<text text-anchor="middle" x="5326.55" y="-86.3" font-family="Times,serif" font-size="14.00">:feature:other&#45;list</text>
</g>
<!-- :feature:other&#45;list&#45;&gt;:core:domain -->
<g id="edge17" class="edge">
<title>:feature:other&#45;list&#45;&gt;:core:domain</title>
<path fill="none" stroke="black" d="M5262.52,-76.95C5249.97,-74.98 5236.88,-73.19 5224.55,-72 4864.02,-37.09 3723.38,-23.05 3408.66,-19.78"/>
<polygon fill="black" stroke="black" points="3408.3,-16.28 3398.26,-19.68 3408.22,-23.28 3408.3,-16.28"/>
</g>
<!-- :feature:other&#45;readout&#45;start&#45;sound&#45;detail -->
<g id="node19" class="node">
<title>:feature:other&#45;readout&#45;start&#45;sound&#45;detail</title>
<ellipse fill="none" stroke="black" cx="5636.55" cy="-90" rx="199.56" ry="18"/>
<text text-anchor="middle" x="5636.55" y="-86.3" font-family="Times,serif" font-size="14.00">:feature:other&#45;readout&#45;start&#45;sound&#45;detail</text>
</g>
<!-- :feature:other&#45;readout&#45;start&#45;sound&#45;detail&#45;&gt;:core:domain -->
<g id="edge18" class="edge">
<title>:feature:other&#45;readout&#45;start&#45;sound&#45;detail&#45;&gt;:core:domain</title>
<path fill="none" stroke="black" d="M5500.68,-76.79C5476.66,-74.94 5451.88,-73.25 5428.55,-72 4642.15,-29.98 3688.35,-21.14 3408.41,-19.4"/>
<polygon fill="black" stroke="black" points="3408.36,-15.9 3398.34,-19.34 3408.32,-22.9 3408.36,-15.9"/>
</g>
<!-- :feature:other&#45;server&#45;ip&#45;detail -->
<g id="node20" class="node">
<title>:feature:other&#45;server&#45;ip&#45;detail</title>
<ellipse fill="none" stroke="black" cx="6002.55" cy="-90" rx="148.67" ry="18"/>
<text text-anchor="middle" x="6002.55" y="-86.3" font-family="Times,serif" font-size="14.00">:feature:other&#45;server&#45;ip&#45;detail</text>
</g>
<!-- :feature:other&#45;server&#45;ip&#45;detail&#45;&gt;:core:domain -->
<g id="edge19" class="edge">
<title>:feature:other&#45;server&#45;ip&#45;detail&#45;&gt;:core:domain</title>
<path fill="none" stroke="black" d="M5901.31,-76.73C5882.79,-74.86 5863.6,-73.17 5845.55,-72 5354.89,-40.33 3783.05,-23.4 3408.31,-19.75"/>
<polygon fill="black" stroke="black" points="3408.13,-16.25 3398.1,-19.66 3408.06,-23.25 3408.13,-16.25"/>
</g>
<!-- :feature:other&#45;volume&#45;detail -->
<g id="node21" class="node">
<title>:feature:other&#45;volume&#45;detail</title>
<ellipse fill="none" stroke="black" cx="6310.55" cy="-90" rx="141.07" ry="18"/>
<text text-anchor="middle" x="6310.55" y="-86.3" font-family="Times,serif" font-size="14.00">:feature:other&#45;volume&#45;detail</text>
</g>
<!-- :feature:other&#45;volume&#45;detail&#45;&gt;:core:domain -->
<g id="edge20" class="edge">
<title>:feature:other&#45;volume&#45;detail&#45;&gt;:core:domain</title>
<path fill="none" stroke="black" d="M6214.64,-76.77C6196.69,-74.87 6178.07,-73.15 6160.55,-72 5604.07,-35.34 3811.04,-22.04 3408.34,-19.48"/>
<polygon fill="black" stroke="black" points="3408.26,-15.98 3398.24,-19.42 3408.22,-22.98 3408.26,-15.98"/>
</g>
<!-- :feature:readout&#45;list -->
<g id="node22" class="node">
<title>:feature:readout&#45;list</title>
<ellipse fill="none" stroke="black" cx="6573.55" cy="-90" rx="103.98" ry="18"/>
<text text-anchor="middle" x="6573.55" y="-86.3" font-family="Times,serif" font-size="14.00">:feature:readout&#45;list</text>
</g>
<!-- :feature:readout&#45;list&#45;&gt;:core:domain -->
<g id="edge21" class="edge">
<title>:feature:readout&#45;list&#45;&gt;:core:domain</title>
<path fill="none" stroke="black" d="M6502.28,-76.82C6488.47,-74.87 6474.09,-73.13 6460.55,-72 5841.96,-20.47 3836.55,-18.69 3408.43,-18.92"/>
<polygon fill="black" stroke="black" points="3408.31,-15.42 3398.31,-18.92 3408.31,-22.42 3408.31,-15.42"/>
</g>
<!-- :feature:server&#45;connection -->
<g id="node23" class="node">
<title>:feature:server&#45;connection</title>
<ellipse fill="none" stroke="black" cx="6828.55" cy="-90" rx="133.48" ry="18"/>
<text text-anchor="middle" x="6828.55" y="-86.3" font-family="Times,serif" font-size="14.00">:feature:server&#45;connection</text>
</g>
<!-- :feature:server&#45;connection&#45;&gt;:core:domain -->
<g id="edge22" class="edge">
<title>:feature:server&#45;connection&#45;&gt;:core:domain</title>
<path fill="none" stroke="black" d="M6738.15,-76.76C6721.04,-74.85 6703.27,-73.13 6686.55,-72 6019.88,-26.96 3855.66,-20.09 3408.74,-19.14"/>
<polygon fill="black" stroke="black" points="3408.51,-15.64 3398.51,-19.12 3408.5,-22.64 3408.51,-15.64"/>
</g>
</g>
</svg>
