<?xml version="1.0" encoding="UTF-8" standalone="no"?>
<!DOCTYPE svg PUBLIC "-//W3C//DTD SVG 1.1//EN"
 "http://www.w3.org/Graphics/SVG/1.1/DTD/svg11.dtd">
<!-- Generated by graphviz version 2.43.0 (0)
 -->
<!-- Title: G Pages: 1 -->
<svg width="2427pt" height="188pt"
 viewBox="0.00 0.00 2427.23 188.00" xmlns="http://www.w3.org/2000/svg" xmlns:xlink="http://www.w3.org/1999/xlink">
<g id="graph0" class="graph" transform="scale(1 1) rotate(0) translate(4 184)">
<title>G</title>
<polygon fill="white" stroke="transparent" points="-4,4 -4,-184 2423.23,-184 2423.23,4 -4,4"/>
<!-- :server -->
<g id="node1" class="node">
<title>:server</title>
<ellipse fill="none" stroke="black" cx="43.55" cy="-90" rx="43.59" ry="18"/>
<text text-anchor="middle" x="43.55" y="-86.3" font-family="Times,serif" font-size="14.00">:server</text>
</g>
<!-- :core:domain -->
<g id="node2" class="node">
<title>:core:domain</title>
<ellipse fill="none" stroke="black" cx="1064.55" cy="-18" rx="70.69" ry="18"/>
<text text-anchor="middle" x="1064.55" y="-14.3" font-family="Times,serif" font-size="14.00">:core:domain</text>
</g>
<!-- :server&#45;&gt;:core:domain -->
<g id="edge1" class="edge">
<title>:server&#45;&gt;:core:domain</title>
<path fill="none" stroke="black" d="M76.36,-77.96C84.51,-75.61 93.27,-73.42 101.55,-72 270.44,-43 784.91,-26.49 984.35,-21.04"/>
<polygon fill="black" stroke="black" points="984.57,-24.53 994.47,-20.76 984.38,-17.54 984.57,-24.53"/>
</g>
<!-- :app:desktopApp -->
<g id="node3" class="node">
<title>:app:desktopApp</title>
<ellipse fill="none" stroke="black" cx="157.55" cy="-162" rx="88.28" ry="18"/>
<text text-anchor="middle" x="157.55" y="-158.3" font-family="Times,serif" font-size="14.00">:app:desktopApp</text>
</g>
<!-- :app:desktopApp&#45;&gt;:core:domain -->
<g id="edge3" class="edge">
<title>:app:desktopApp&#45;&gt;:core:domain</title>
<path fill="none" stroke="black" d="M144.97,-143.94C131.98,-124.11 116.03,-91.61 134.55,-72 163.52,-41.33 763.26,-25.44 983.96,-20.62"/>
<polygon fill="black" stroke="black" points="984.26,-24.11 994.18,-20.4 984.11,-17.12 984.26,-24.11"/>
</g>
<!-- :core:data -->
<g id="node4" class="node">
<title>:core:data</title>
<ellipse fill="none" stroke="black" cx="200.55" cy="-90" rx="57.39" ry="18"/>
<text text-anchor="middle" x="200.55" y="-86.3" font-family="Times,serif" font-size="14.00">:core:data</text>
</g>
<!-- :app:desktopApp&#45;&gt;:core:data -->
<g id="edge2" class="edge">
<title>:app:desktopApp&#45;&gt;:core:data</title>
<path fill="none" stroke="black" d="M167.96,-144.05C173.03,-135.8 179.23,-125.7 184.86,-116.54"/>
<polygon fill="black" stroke="black" points="187.98,-118.14 190.23,-107.79 182.02,-114.48 187.98,-118.14"/>
</g>
<!-- :core:data&#45;&gt;:core:domain -->
<g id="edge4" class="edge">
<title>:core:data&#45;&gt;:core:domain</title>
<path fill="none" stroke="black" d="M241.14,-77.28C249.48,-75.23 258.25,-73.33 266.55,-72 526.44,-30.27 839.02,-21.28 983.74,-19.42"/>
<polygon fill="black" stroke="black" points="983.91,-22.92 993.87,-19.3 983.83,-15.92 983.91,-22.92"/>
</g>
<!-- :feature:lmu&#45;connection -->
<g id="node5" class="node">
<title>:feature:lmu&#45;connection</title>
<ellipse fill="none" stroke="black" cx="396.55" cy="-90" rx="120.78" ry="18"/>
<text text-anchor="middle" x="396.55" y="-86.3" font-family="Times,serif" font-size="14.00">:feature:lmu&#45;connection</text>
</g>
<!-- :feature:lmu&#45;connection&#45;&gt;:core:domain -->
<g id="edge5" class="edge">
<title>:feature:lmu&#45;connection&#45;&gt;:core:domain</title>
<path fill="none" stroke="black" d="M482.86,-77.32C497.43,-75.46 512.41,-73.62 526.55,-72 691.01,-53.15 884.23,-35.12 988.51,-25.72"/>
<polygon fill="black" stroke="black" points="988.99,-29.19 998.63,-24.81 988.36,-22.22 988.99,-29.19"/>
</g>
<!-- :feature:lmu&#45;readout&#45;vehicle&#45;damage&#45;detail -->
<g id="node6" class="node">
<title>:feature:lmu&#45;readout&#45;vehicle&#45;damage&#45;detail</title>
<ellipse fill="none" stroke="black" cx="746.55" cy="-90" rx="211.46" ry="18"/>
<text text-anchor="middle" x="746.55" y="-86.3" font-family="Times,serif" font-size="14.00">:feature:lmu&#45;readout&#45;vehicle&#45;damage&#45;detail</text>
</g>
<!-- :feature:lmu&#45;readout&#45;vehicle&#45;damage&#45;detail&#45;&gt;:core:domain -->
<g id="edge6" class="edge">
<title>:feature:lmu&#45;readout&#45;vehicle&#45;damage&#45;detail&#45;&gt;:core:domain</title>
<path fill="none" stroke="black" d="M819.1,-73.03C874.56,-60.82 950.16,-44.18 1002.75,-32.6"/>
<polygon fill="black" stroke="black" points="1003.6,-36 1012.62,-30.43 1002.1,-29.16 1003.6,-36"/>
</g>
<!-- :feature:narrator -->
<g id="node7" class="node">
<title>:feature:narrator</title>
<ellipse fill="none" stroke="black" cx="1064.55" cy="-90" rx="89.08" ry="18"/>
<text text-anchor="middle" x="1064.55" y="-86.3" font-family="Times,serif" font-size="14.00">:feature:narrator</text>
</g>
<!-- :feature:narrator&#45;&gt;:core:domain -->
<g id="edge7" class="edge">
<title>:feature:narrator&#45;&gt;:core:domain</title>
<path fill="none" stroke="black" d="M1064.55,-71.7C1064.55,-63.98 1064.55,-54.71 1064.55,-46.11"/>
<polygon fill="black" stroke="black" points="1068.05,-46.1 1064.55,-36.1 1061.05,-46.1 1068.05,-46.1"/>
</g>
<!-- :feature:other&#45;detail -->
<g id="node8" class="node">
<title>:feature:other&#45;detail</title>
<ellipse fill="none" stroke="black" cx="1276.55" cy="-90" rx="104.78" ry="18"/>
<text text-anchor="middle" x="1276.55" y="-86.3" font-family="Times,serif" font-size="14.00">:feature:other&#45;detail</text>
</g>
<!-- :feature:other&#45;detail&#45;&gt;:core:domain -->
<g id="edge8" class="edge">
<title>:feature:other&#45;detail&#45;&gt;:core:domain</title>
<path fill="none" stroke="black" d="M1230.55,-73.81C1196.71,-62.64 1150.7,-47.45 1115.71,-35.89"/>
<polygon fill="black" stroke="black" points="1116.74,-32.55 1106.15,-32.74 1114.54,-39.19 1116.74,-32.55"/>
</g>
<!-- :feature:other&#45;list -->
<g id="node9" class="node">
<title>:feature:other&#45;list</title>
<ellipse fill="none" stroke="black" cx="1492.55" cy="-90" rx="92.88" ry="18"/>
<text text-anchor="middle" x="1492.55" y="-86.3" font-family="Times,serif" font-size="14.00">:feature:other&#45;list</text>
</g>
<!-- :feature:other&#45;list&#45;&gt;:core:domain -->
<g id="edge9" class="edge">
<title>:feature:other&#45;list&#45;&gt;:core:domain</title>
<path fill="none" stroke="black" d="M1424.79,-77.67C1413.36,-75.77 1401.62,-73.82 1390.55,-72 1301.53,-57.35 1198.79,-40.69 1132.83,-30.02"/>
<polygon fill="black" stroke="black" points="1132.99,-26.5 1122.56,-28.36 1131.88,-33.41 1132.99,-26.5"/>
</g>
<!-- :feature:readout -->
<g id="node10" class="node">
<title>:feature:readout</title>
<ellipse fill="none" stroke="black" cx="1689.55" cy="-90" rx="86.38" ry="18"/>
<text text-anchor="middle" x="1689.55" y="-86.3" font-family="Times,serif" font-size="14.00">:feature:readout</text>
</g>
<!-- :feature:readout&#45;&gt;:core:domain -->
<g id="edge10" class="edge">
<title>:feature:readout&#45;&gt;:core:domain</title>
<path fill="none" stroke="black" d="M1628.08,-77.28C1616.94,-75.37 1605.42,-73.51 1594.55,-72 1434.11,-49.66 1245.09,-33.08 1141.71,-24.83"/>
<polygon fill="black" stroke="black" points="1141.92,-21.34 1131.68,-24.04 1141.37,-28.32 1141.92,-21.34"/>
</g>
<!-- :feature:readout&#45;flag&#45;detail -->
<g id="node11" class="node">
<title>:feature:readout&#45;flag&#45;detail</title>
<ellipse fill="none" stroke="black" cx="1929.55" cy="-90" rx="135.68" ry="18"/>
<text text-anchor="middle" x="1929.55" y="-86.3" font-family="Times,serif" font-size="14.00">:feature:readout&#45;flag&#45;detail</text>
</g>
<!-- :feature:readout&#45;flag&#45;detail&#45;&gt;:core:domain -->
<g id="edge11" class="edge">
<title>:feature:readout&#45;flag&#45;detail&#45;&gt;:core:domain</title>
<path fill="none" stroke="black" d="M1833.67,-77.17C1817.3,-75.32 1800.44,-73.52 1784.55,-72 1551.37,-49.76 1274.94,-31.75 1142.67,-23.64"/>
<polygon fill="black" stroke="black" points="1142.82,-20.14 1132.63,-23.03 1142.4,-27.13 1142.82,-20.14"/>
</g>
<!-- :feature:readout&#45;vehicle&#45;approach -->
<g id="node12" class="node">
<title>:feature:readout&#45;vehicle&#45;approach</title>
<ellipse fill="none" stroke="black" cx="2251.55" cy="-90" rx="167.87" ry="18"/>
<text text-anchor="middle" x="2251.55" y="-86.3" font-family="Times,serif" font-size="14.00">:feature:readout&#45;vehicle&#45;approach</text>
</g>
<!-- :feature:readout&#45;vehicle&#45;approach&#45;&gt;:core:domain -->
<g id="edge12" class="edge">
<title>:feature:readout&#45;vehicle&#45;approach&#45;&gt;:core:domain</title>
<path fill="none" stroke="black" d="M2134.5,-77.04C2114.51,-75.2 2093.94,-73.44 2074.55,-72 1728.56,-46.32 1314.98,-28.71 1144.26,-22.01"/>
<polygon fill="black" stroke="black" points="1144.23,-18.5 1134.1,-21.61 1143.96,-25.5 1144.23,-18.5"/>
</g>
</g>
</svg>
