<?xml version="1.0" encoding="UTF-8" standalone="no"?>
<!DOCTYPE svg PUBLIC "-//W3C//DTD SVG 1.1//EN"
 "http://www.w3.org/Graphics/SVG/1.1/DTD/svg11.dtd">
<!-- Generated by graphviz version 2.43.0 (0)
 -->
<!-- Title: G Pages: 1 -->
<svg width="1233pt" height="188pt"
 viewBox="0.00 0.00 1233.23 188.00" xmlns="http://www.w3.org/2000/svg" xmlns:xlink="http://www.w3.org/1999/xlink">
<g id="graph0" class="graph" transform="scale(1 1) rotate(0) translate(4 184)">
<title>G</title>
<polygon fill="white" stroke="transparent" points="-4,4 -4,-184 1229.23,-184 1229.23,4 -4,4"/>
<!-- :server -->
<g id="node1" class="node">
<title>:server</title>
<ellipse fill="none" stroke="black" cx="43.55" cy="-90" rx="43.59" ry="18"/>
<text text-anchor="middle" x="43.55" y="-86.3" font-family="Times,serif" font-size="14.00">:server</text>
</g>
<!-- :core:domain -->
<g id="node2" class="node">
<title>:core:domain</title>
<ellipse fill="none" stroke="black" cx="426.55" cy="-18" rx="70.69" ry="18"/>
<text text-anchor="middle" x="426.55" y="-14.3" font-family="Times,serif" font-size="14.00">:core:domain</text>
</g>
<!-- :server&#45;&gt;:core:domain -->
<g id="edge1" class="edge">
<title>:server&#45;&gt;:core:domain</title>
<path fill="none" stroke="black" d="M77.1,-78.4C85.06,-76.1 93.56,-73.81 101.55,-72 187.71,-52.42 288.31,-37.17 354.49,-28.15"/>
<polygon fill="black" stroke="black" points="354.97,-31.62 364.41,-26.81 354.03,-24.68 354.97,-31.62"/>
</g>
<!-- :app:androidApp -->
<g id="node3" class="node">
<title>:app:androidApp</title>
<ellipse fill="none" stroke="black" cx="146.55" cy="-162" rx="87.18" ry="18"/>
<text text-anchor="middle" x="146.55" y="-158.3" font-family="Times,serif" font-size="14.00">:app:androidApp</text>
</g>
<!-- :app:androidApp&#45;&gt;:core:domain -->
<g id="edge2" class="edge">
<title>:app:androidApp&#45;&gt;:core:domain</title>
<path fill="none" stroke="black" d="M137.32,-143.81C128.17,-124.15 117.76,-92.11 134.55,-72 161.13,-40.16 269.79,-27.4 346.77,-22.32"/>
<polygon fill="black" stroke="black" points="347.17,-25.8 356.93,-21.68 346.73,-18.82 347.17,-25.8"/>
</g>
<!-- :feature:announcer -->
<g id="node4" class="node">
<title>:feature:announcer</title>
<ellipse fill="none" stroke="black" cx="242.55" cy="-90" rx="98.58" ry="18"/>
<text text-anchor="middle" x="242.55" y="-86.3" font-family="Times,serif" font-size="14.00">:feature:announcer</text>
</g>
<!-- :app:androidApp&#45;&gt;:feature:announcer -->
<g id="edge3" class="edge">
<title>:app:androidApp&#45;&gt;:feature:announcer</title>
<path fill="none" stroke="black" d="M169.3,-144.41C181.88,-135.24 197.69,-123.7 211.41,-113.71"/>
<polygon fill="black" stroke="black" points="213.61,-116.43 219.63,-107.71 209.48,-110.78 213.61,-116.43"/>
</g>
<!-- :feature:announcer&#45;&gt;:core:domain -->
<g id="edge8" class="edge">
<title>:feature:announcer&#45;&gt;:core:domain</title>
<path fill="none" stroke="black" d="M283.38,-73.46C311.73,-62.68 349.58,-48.28 379.24,-37"/>
<polygon fill="black" stroke="black" points="380.86,-40.13 388.96,-33.3 378.37,-33.58 380.86,-40.13"/>
</g>
<!-- :app:desktopApp -->
<g id="node5" class="node">
<title>:app:desktopApp</title>
<ellipse fill="none" stroke="black" cx="369.55" cy="-162" rx="88.28" ry="18"/>
<text text-anchor="middle" x="369.55" y="-158.3" font-family="Times,serif" font-size="14.00">:app:desktopApp</text>
</g>
<!-- :app:desktopApp&#45;&gt;:core:domain -->
<g id="edge4" class="edge">
<title>:app:desktopApp&#45;&gt;:core:domain</title>
<path fill="none" stroke="black" d="M371.09,-143.96C373.22,-125.56 378.07,-95.7 388.55,-72 392.87,-62.21 399.18,-52.43 405.42,-43.98"/>
<polygon fill="black" stroke="black" points="408.22,-46.08 411.56,-36.03 402.68,-41.8 408.22,-46.08"/>
</g>
<!-- :app:desktopApp&#45;&gt;:feature:announcer -->
<g id="edge6" class="edge">
<title>:app:desktopApp&#45;&gt;:feature:announcer</title>
<path fill="none" stroke="black" d="M340.41,-144.94C322.71,-135.18 299.91,-122.62 280.77,-112.07"/>
<polygon fill="black" stroke="black" points="282.43,-108.99 271.99,-107.23 279.06,-115.12 282.43,-108.99"/>
</g>
<!-- :feature:readout -->
<g id="node6" class="node">
<title>:feature:readout</title>
<ellipse fill="none" stroke="black" cx="483.55" cy="-90" rx="86.38" ry="18"/>
<text text-anchor="middle" x="483.55" y="-86.3" font-family="Times,serif" font-size="14.00">:feature:readout</text>
</g>
<!-- :app:desktopApp&#45;&gt;:feature:readout -->
<g id="edge5" class="edge">
<title>:app:desktopApp&#45;&gt;:feature:readout</title>
<path fill="none" stroke="black" d="M395.99,-144.76C411.67,-135.13 431.74,-122.81 448.7,-112.4"/>
<polygon fill="black" stroke="black" points="450.56,-115.36 457.25,-107.15 446.9,-109.4 450.56,-115.36"/>
</g>
<!-- :feature:readout&#45;&gt;:core:domain -->
<g id="edge10" class="edge">
<title>:feature:readout&#45;&gt;:core:domain</title>
<path fill="none" stroke="black" d="M469.75,-72.05C462.82,-63.54 454.29,-53.07 446.64,-43.68"/>
<polygon fill="black" stroke="black" points="449.25,-41.33 440.22,-35.79 443.82,-45.75 449.25,-41.33"/>
</g>
<!-- :core:data -->
<g id="node7" class="node">
<title>:core:data</title>
<ellipse fill="none" stroke="black" cx="645.55" cy="-90" rx="57.39" ry="18"/>
<text text-anchor="middle" x="645.55" y="-86.3" font-family="Times,serif" font-size="14.00">:core:data</text>
</g>
<!-- :core:data&#45;&gt;:core:domain -->
<g id="edge7" class="edge">
<title>:core:data&#45;&gt;:core:domain</title>
<path fill="none" stroke="black" d="M606.9,-76.65C571.24,-65.25 518.01,-48.24 478.62,-35.64"/>
<polygon fill="black" stroke="black" points="479.51,-32.26 468.92,-32.54 477.38,-38.92 479.51,-32.26"/>
</g>
<!-- :feature:other -->
<g id="node8" class="node">
<title>:feature:other</title>
<ellipse fill="none" stroke="black" cx="796.55" cy="-90" rx="75.29" ry="18"/>
<text text-anchor="middle" x="796.55" y="-86.3" font-family="Times,serif" font-size="14.00">:feature:other</text>
</g>
<!-- :feature:other&#45;&gt;:core:domain -->
<g id="edge9" class="edge">
<title>:feature:other&#45;&gt;:core:domain</title>
<path fill="none" stroke="black" d="M740.79,-77.74C731.04,-75.8 721,-73.82 711.55,-72 636.49,-57.52 550.18,-41.56 492.38,-30.98"/>
<polygon fill="black" stroke="black" points="492.76,-27.49 482.29,-29.14 491.5,-34.38 492.76,-27.49"/>
</g>
<!-- :feature:readout&#45;vehicle&#45;approach -->
<g id="node9" class="node">
<title>:feature:readout&#45;vehicle&#45;approach</title>
<ellipse fill="none" stroke="black" cx="1057.55" cy="-90" rx="167.87" ry="18"/>
<text text-anchor="middle" x="1057.55" y="-86.3" font-family="Times,serif" font-size="14.00">:feature:readout&#45;vehicle&#45;approach</text>
</g>
<!-- :feature:readout&#45;vehicle&#45;approach&#45;&gt;:core:domain -->
<g id="edge11" class="edge">
<title>:feature:readout&#45;vehicle&#45;approach&#45;&gt;:core:domain</title>
<path fill="none" stroke="black" d="M945.46,-76.57C816.85,-62.3 609.62,-39.31 500,-27.15"/>
<polygon fill="black" stroke="black" points="500.35,-23.67 490.02,-26.04 499.58,-30.62 500.35,-23.67"/>
</g>
</g>
</svg>
