<?xml version="1.0" encoding="UTF-8" standalone="no"?>
<!DOCTYPE svg PUBLIC "-//W3C//DTD SVG 1.1//EN"
 "http://www.w3.org/Graphics/SVG/1.1/DTD/svg11.dtd">
<!-- Generated by graphviz version 2.43.0 (0)
 -->
<!-- Title: G Pages: 1 -->
<svg width="1251pt" height="260pt"
 viewBox="0.00 0.00 1250.74 260.00" xmlns="http://www.w3.org/2000/svg" xmlns:xlink="http://www.w3.org/1999/xlink">
<g id="graph0" class="graph" transform="scale(1 1) rotate(0) translate(4 256)">
<title>G</title>
<polygon fill="white" stroke="transparent" points="-4,4 -4,-256 1246.74,-256 1246.74,4 -4,4"/>
<!-- :server -->
<g id="node1" class="node">
<title>:server</title>
<ellipse fill="none" stroke="black" cx="43.55" cy="-90" rx="43.59" ry="18"/>
<text text-anchor="middle" x="43.55" y="-86.3" font-family="Times,serif" font-size="14.00">:server</text>
</g>
<!-- :core:domain -->
<g id="node2" class="node">
<title>:core:domain</title>
<ellipse fill="none" stroke="black" cx="452.55" cy="-18" rx="70.69" ry="18"/>
<text text-anchor="middle" x="452.55" y="-14.3" font-family="Times,serif" font-size="14.00">:core:domain</text>
</g>
<!-- :server&#45;&gt;:core:domain -->
<g id="edge1" class="edge">
<title>:server&#45;&gt;:core:domain</title>
<path fill="none" stroke="black" d="M77.08,-78.33C85.05,-76.03 93.55,-73.77 101.55,-72 196.33,-51.05 307.34,-35.82 378.74,-27.2"/>
<polygon fill="black" stroke="black" points="379.47,-30.64 388.98,-25.97 378.64,-23.69 379.47,-30.64"/>
</g>
<!-- :app:androidApp -->
<g id="node3" class="node">
<title>:app:androidApp</title>
<ellipse fill="none" stroke="black" cx="284.55" cy="-234" rx="87.18" ry="18"/>
<text text-anchor="middle" x="284.55" y="-230.3" font-family="Times,serif" font-size="14.00">:app:androidApp</text>
</g>
<!-- :app:androidApp&#45;&gt;:core:domain -->
<g id="edge3" class="edge">
<title>:app:androidApp&#45;&gt;:core:domain</title>
<path fill="none" stroke="black" d="M255.12,-217.02C205.09,-187.85 112.89,-124.17 156.55,-72 183.64,-39.62 294.65,-27 372.73,-22.1"/>
<polygon fill="black" stroke="black" points="373.26,-25.57 383.03,-21.48 372.84,-18.58 373.26,-25.57"/>
</g>
<!-- :app:shared -->
<g id="node4" class="node">
<title>:app:shared</title>
<ellipse fill="none" stroke="black" cx="452.55" cy="-162" rx="65.79" ry="18"/>
<text text-anchor="middle" x="452.55" y="-158.3" font-family="Times,serif" font-size="14.00">:app:shared</text>
</g>
<!-- :app:androidApp&#45;&gt;:app:shared -->
<g id="edge2" class="edge">
<title>:app:androidApp&#45;&gt;:app:shared</title>
<path fill="none" stroke="black" d="M321.41,-217.64C347.16,-206.91 381.65,-192.54 408.79,-181.23"/>
<polygon fill="black" stroke="black" points="410.17,-184.45 418.06,-177.37 407.48,-177.99 410.17,-184.45"/>
</g>
<!-- :app:shared&#45;&gt;:core:domain -->
<g id="edge10" class="edge">
<title>:app:shared&#45;&gt;:core:domain</title>
<path fill="none" stroke="black" d="M388.39,-158.06C314.38,-153.17 199.41,-140.43 172.55,-108 115.21,-38.79 269.44,-22.69 371.17,-19.38"/>
<polygon fill="black" stroke="black" points="371.56,-22.87 381.45,-19.08 371.36,-15.87 371.56,-22.87"/>
</g>
<!-- :feature:narrator -->
<g id="node6" class="node">
<title>:feature:narrator</title>
<ellipse fill="none" stroke="black" cx="270.55" cy="-90" rx="89.08" ry="18"/>
<text text-anchor="middle" x="270.55" y="-86.3" font-family="Times,serif" font-size="14.00">:feature:narrator</text>
</g>
<!-- :app:shared&#45;&gt;:feature:narrator -->
<g id="edge6" class="edge">
<title>:app:shared&#45;&gt;:feature:narrator</title>
<path fill="none" stroke="black" d="M416.15,-147C388.45,-136.35 350.02,-121.57 319.6,-109.87"/>
<polygon fill="black" stroke="black" points="320.62,-106.51 310.03,-106.19 318.11,-113.04 320.62,-106.51"/>
</g>
<!-- :feature:other -->
<g id="node7" class="node">
<title>:feature:other</title>
<ellipse fill="none" stroke="black" cx="452.55" cy="-90" rx="75.29" ry="18"/>
<text text-anchor="middle" x="452.55" y="-86.3" font-family="Times,serif" font-size="14.00">:feature:other</text>
</g>
<!-- :app:shared&#45;&gt;:feature:other -->
<g id="edge7" class="edge">
<title>:app:shared&#45;&gt;:feature:other</title>
<path fill="none" stroke="black" d="M452.55,-143.7C452.55,-135.98 452.55,-126.71 452.55,-118.11"/>
<polygon fill="black" stroke="black" points="456.05,-118.1 452.55,-108.1 449.05,-118.1 456.05,-118.1"/>
</g>
<!-- :feature:readout -->
<g id="node8" class="node">
<title>:feature:readout</title>
<ellipse fill="none" stroke="black" cx="632.55" cy="-90" rx="86.38" ry="18"/>
<text text-anchor="middle" x="632.55" y="-86.3" font-family="Times,serif" font-size="14.00">:feature:readout</text>
</g>
<!-- :app:shared&#45;&gt;:feature:readout -->
<g id="edge8" class="edge">
<title>:app:shared&#45;&gt;:feature:readout</title>
<path fill="none" stroke="black" d="M488.97,-146.83C516.41,-136.16 554.29,-121.43 584.26,-109.78"/>
<polygon fill="black" stroke="black" points="585.63,-113 593.68,-106.11 583.09,-106.48 585.63,-113"/>
</g>
<!-- :feature:readout&#45;vehicle&#45;approach -->
<g id="node9" class="node">
<title>:feature:readout&#45;vehicle&#45;approach</title>
<ellipse fill="none" stroke="black" cx="904.55" cy="-90" rx="167.87" ry="18"/>
<text text-anchor="middle" x="904.55" y="-86.3" font-family="Times,serif" font-size="14.00">:feature:readout&#45;vehicle&#45;approach</text>
</g>
<!-- :app:shared&#45;&gt;:feature:readout&#45;vehicle&#45;approach -->
<g id="edge9" class="edge">
<title>:app:shared&#45;&gt;:feature:readout&#45;vehicle&#45;approach</title>
<path fill="none" stroke="black" d="M508.42,-152.35C581.84,-140.98 712.12,-120.8 803.16,-106.7"/>
<polygon fill="black" stroke="black" points="803.88,-110.13 813.23,-105.14 802.81,-103.21 803.88,-110.13"/>
</g>
<!-- :app:desktopApp -->
<g id="node5" class="node">
<title>:app:desktopApp</title>
<ellipse fill="none" stroke="black" cx="789.55" cy="-234" rx="88.28" ry="18"/>
<text text-anchor="middle" x="789.55" y="-230.3" font-family="Times,serif" font-size="14.00">:app:desktopApp</text>
</g>
<!-- :app:desktopApp&#45;&gt;:core:domain -->
<g id="edge5" class="edge">
<title>:app:desktopApp&#45;&gt;:core:domain</title>
<path fill="none" stroke="black" d="M855.57,-222C962.69,-201.52 1155.3,-152.23 1081.55,-72 1045.17,-32.43 695.12,-22.38 533.54,-19.85"/>
<polygon fill="black" stroke="black" points="533.23,-16.34 523.18,-19.69 533.12,-23.34 533.23,-16.34"/>
</g>
<!-- :app:desktopApp&#45;&gt;:app:shared -->
<g id="edge4" class="edge">
<title>:app:desktopApp&#45;&gt;:app:shared</title>
<path fill="none" stroke="black" d="M730.07,-220.65C669.04,-207.97 574.55,-188.34 513.12,-175.58"/>
<polygon fill="black" stroke="black" points="513.68,-172.12 503.18,-173.52 512.26,-178.98 513.68,-172.12"/>
</g>
<!-- :feature:narrator&#45;&gt;:core:domain -->
<g id="edge12" class="edge">
<title>:feature:narrator&#45;&gt;:core:domain</title>
<path fill="none" stroke="black" d="M310.04,-73.81C338.12,-63.01 375.97,-48.45 405.6,-37.06"/>
<polygon fill="black" stroke="black" points="407.23,-40.18 415.31,-33.32 404.72,-33.65 407.23,-40.18"/>
</g>
<!-- :feature:other&#45;&gt;:core:domain -->
<g id="edge13" class="edge">
<title>:feature:other&#45;&gt;:core:domain</title>
<path fill="none" stroke="black" d="M452.55,-71.7C452.55,-63.98 452.55,-54.71 452.55,-46.11"/>
<polygon fill="black" stroke="black" points="456.05,-46.1 452.55,-36.1 449.05,-46.1 456.05,-46.1"/>
</g>
<!-- :feature:readout&#45;&gt;:core:domain -->
<g id="edge14" class="edge">
<title>:feature:readout&#45;&gt;:core:domain</title>
<path fill="none" stroke="black" d="M593.49,-73.81C565.81,-63.05 528.53,-48.55 499.27,-37.17"/>
<polygon fill="black" stroke="black" points="500.27,-33.8 489.68,-33.44 497.73,-40.33 500.27,-33.8"/>
</g>
<!-- :feature:readout&#45;vehicle&#45;approach&#45;&gt;:core:domain -->
<g id="edge15" class="edge">
<title>:feature:readout&#45;vehicle&#45;approach&#45;&gt;:core:domain</title>
<path fill="none" stroke="black" d="M813.35,-74.88C727.09,-61.52 599.55,-41.77 521.48,-29.68"/>
<polygon fill="black" stroke="black" points="521.69,-26.17 511.27,-28.09 520.62,-33.08 521.69,-26.17"/>
</g>
<!-- :core:data -->
<g id="node10" class="node">
<title>:core:data</title>
<ellipse fill="none" stroke="black" cx="1185.55" cy="-90" rx="57.39" ry="18"/>
<text text-anchor="middle" x="1185.55" y="-86.3" font-family="Times,serif" font-size="14.00">:core:data</text>
</g>
<!-- :core:data&#45;&gt;:core:domain -->
<g id="edge11" class="edge">
<title>:core:data&#45;&gt;:core:domain</title>
<path fill="none" stroke="black" d="M1143.34,-77.76C1133.92,-75.57 1123.93,-73.49 1114.55,-72 906.32,-38.94 657.8,-26.07 532.79,-21.41"/>
<polygon fill="black" stroke="black" points="532.66,-17.9 522.54,-21.04 532.41,-24.9 532.66,-17.9"/>
</g>
</g>
</svg>
