<?xml version="1.0" encoding="UTF-8" standalone="no"?>
<!DOCTYPE svg PUBLIC "-//W3C//DTD SVG 1.1//EN"
 "http://www.w3.org/Graphics/SVG/1.1/DTD/svg11.dtd">
<!-- Generated by graphviz version 2.43.0 (0)
 -->
<!-- Title: G Pages: 1 -->
<svg width="2269pt" height="188pt"
 viewBox="0.00 0.00 2268.73 188.00" xmlns="http://www.w3.org/2000/svg" xmlns:xlink="http://www.w3.org/1999/xlink">
<g id="graph0" class="graph" transform="scale(1 1) rotate(0) translate(4 184)">
<title>G</title>
<polygon fill="white" stroke="transparent" points="-4,4 -4,-184 2264.73,-184 2264.73,4 -4,4"/>
<!-- :server -->
<g id="node1" class="node">
<title>:server</title>
<ellipse fill="none" stroke="black" cx="43.55" cy="-90" rx="43.59" ry="18"/>
<text text-anchor="middle" x="43.55" y="-86.3" font-family="Times,serif" font-size="14.00">:server</text>
</g>
<!-- :core:domain -->
<g id="node2" class="node">
<title>:core:domain</title>
<ellipse fill="none" stroke="black" cx="836.55" cy="-18" rx="70.69" ry="18"/>
<text text-anchor="middle" x="836.55" y="-14.3" font-family="Times,serif" font-size="14.00">:core:domain</text>
</g>
<!-- :server&#45;&gt;:core:domain -->
<g id="edge1" class="edge">
<title>:server&#45;&gt;:core:domain</title>
<path fill="none" stroke="black" d="M76.38,-78.06C84.52,-75.71 93.29,-73.49 101.55,-72 336.37,-29.62 619.18,-20.86 755.4,-19.23"/>
<polygon fill="black" stroke="black" points="755.78,-22.72 765.74,-19.11 755.7,-15.72 755.78,-22.72"/>
</g>
<!-- :app:desktopApp -->
<g id="node3" class="node">
<title>:app:desktopApp</title>
<ellipse fill="none" stroke="black" cx="157.55" cy="-162" rx="88.28" ry="18"/>
<text text-anchor="middle" x="157.55" y="-158.3" font-family="Times,serif" font-size="14.00">:app:desktopApp</text>
</g>
<!-- :app:desktopApp&#45;&gt;:core:domain -->
<g id="edge3" class="edge">
<title>:app:desktopApp&#45;&gt;:core:domain</title>
<path fill="none" stroke="black" d="M145.03,-144C132.1,-124.23 116.21,-91.78 134.55,-72 176.03,-27.27 579.77,-20.07 755.5,-19.07"/>
<polygon fill="black" stroke="black" points="755.75,-22.57 765.73,-19.02 755.71,-15.57 755.75,-22.57"/>
</g>
<!-- :core:data -->
<g id="node4" class="node">
<title>:core:data</title>
<ellipse fill="none" stroke="black" cx="200.55" cy="-90" rx="57.39" ry="18"/>
<text text-anchor="middle" x="200.55" y="-86.3" font-family="Times,serif" font-size="14.00">:core:data</text>
</g>
<!-- :app:desktopApp&#45;&gt;:core:data -->
<g id="edge2" class="edge">
<title>:app:desktopApp&#45;&gt;:core:data</title>
<path fill="none" stroke="black" d="M167.96,-144.05C173.03,-135.8 179.23,-125.7 184.86,-116.54"/>
<polygon fill="black" stroke="black" points="187.98,-118.14 190.23,-107.79 182.02,-114.48 187.98,-118.14"/>
</g>
<!-- :core:data&#45;&gt;:core:domain -->
<g id="edge4" class="edge">
<title>:core:data&#45;&gt;:core:domain</title>
<path fill="none" stroke="black" d="M241.52,-77.37C249.75,-75.34 258.39,-73.42 266.55,-72 440.06,-41.78 646.5,-28 757.12,-22.38"/>
<polygon fill="black" stroke="black" points="757.39,-25.88 767.2,-21.88 757.04,-18.88 757.39,-25.88"/>
</g>
<!-- :feature:lmu&#45;connection -->
<g id="node5" class="node">
<title>:feature:lmu&#45;connection</title>
<ellipse fill="none" stroke="black" cx="396.55" cy="-90" rx="120.78" ry="18"/>
<text text-anchor="middle" x="396.55" y="-86.3" font-family="Times,serif" font-size="14.00">:feature:lmu&#45;connection</text>
</g>
<!-- :feature:lmu&#45;connection&#45;&gt;:core:domain -->
<g id="edge5" class="edge">
<title>:feature:lmu&#45;connection&#45;&gt;:core:domain</title>
<path fill="none" stroke="black" d="M475.97,-76.36C559.24,-63.12 688.74,-42.51 767.78,-29.94"/>
<polygon fill="black" stroke="black" points="768.79,-33.32 778.11,-28.3 767.69,-26.41 768.79,-33.32"/>
</g>
<!-- :feature:narrator -->
<g id="node6" class="node">
<title>:feature:narrator</title>
<ellipse fill="none" stroke="black" cx="624.55" cy="-90" rx="89.08" ry="18"/>
<text text-anchor="middle" x="624.55" y="-86.3" font-family="Times,serif" font-size="14.00">:feature:narrator</text>
</g>
<!-- :feature:narrator&#45;&gt;:core:domain -->
<g id="edge6" class="edge">
<title>:feature:narrator&#45;&gt;:core:domain</title>
<path fill="none" stroke="black" d="M668.99,-74.33C702.95,-63.11 749.81,-47.64 785.34,-35.91"/>
<polygon fill="black" stroke="black" points="786.64,-39.16 795.04,-32.7 784.45,-32.52 786.64,-39.16"/>
</g>
<!-- :feature:other&#45;detail -->
<g id="node7" class="node">
<title>:feature:other&#45;detail</title>
<ellipse fill="none" stroke="black" cx="836.55" cy="-90" rx="104.78" ry="18"/>
<text text-anchor="middle" x="836.55" y="-86.3" font-family="Times,serif" font-size="14.00">:feature:other&#45;detail</text>
</g>
<!-- :feature:other&#45;detail&#45;&gt;:core:domain -->
<g id="edge7" class="edge">
<title>:feature:other&#45;detail&#45;&gt;:core:domain</title>
<path fill="none" stroke="black" d="M836.55,-71.7C836.55,-63.98 836.55,-54.71 836.55,-46.11"/>
<polygon fill="black" stroke="black" points="840.05,-46.1 836.55,-36.1 833.05,-46.1 840.05,-46.1"/>
</g>
<!-- :feature:other&#45;list -->
<g id="node8" class="node">
<title>:feature:other&#45;list</title>
<ellipse fill="none" stroke="black" cx="1052.55" cy="-90" rx="92.88" ry="18"/>
<text text-anchor="middle" x="1052.55" y="-86.3" font-family="Times,serif" font-size="14.00">:feature:other&#45;list</text>
</g>
<!-- :feature:other&#45;list&#45;&gt;:core:domain -->
<g id="edge8" class="edge">
<title>:feature:other&#45;list&#45;&gt;:core:domain</title>
<path fill="none" stroke="black" d="M1007,-74.24C972.27,-62.98 924.41,-47.47 888.24,-35.75"/>
<polygon fill="black" stroke="black" points="888.96,-32.31 878.37,-32.55 886.8,-38.97 888.96,-32.31"/>
</g>
<!-- :feature:readout -->
<g id="node9" class="node">
<title>:feature:readout</title>
<ellipse fill="none" stroke="black" cx="1249.55" cy="-90" rx="86.38" ry="18"/>
<text text-anchor="middle" x="1249.55" y="-86.3" font-family="Times,serif" font-size="14.00">:feature:readout</text>
</g>
<!-- :feature:readout&#45;&gt;:core:domain -->
<g id="edge9" class="edge">
<title>:feature:readout&#45;&gt;:core:domain</title>
<path fill="none" stroke="black" d="M1186.46,-77.6C1175.81,-75.71 1164.87,-73.78 1154.55,-72 1068.43,-57.12 969.06,-40.67 904.64,-30.11"/>
<polygon fill="black" stroke="black" points="905.04,-26.63 894.61,-28.46 903.91,-33.54 905.04,-26.63"/>
</g>
<!-- :feature:readout&#45;flag -->
<g id="node10" class="node">
<title>:feature:readout&#45;flag</title>
<ellipse fill="none" stroke="black" cx="1460.55" cy="-90" rx="106.68" ry="18"/>
<text text-anchor="middle" x="1460.55" y="-86.3" font-family="Times,serif" font-size="14.00">:feature:readout&#45;flag</text>
</g>
<!-- :feature:readout&#45;flag&#45;&gt;:core:domain -->
<g id="edge10" class="edge">
<title>:feature:readout&#45;flag&#45;&gt;:core:domain</title>
<path fill="none" stroke="black" d="M1384.17,-77.35C1370.97,-75.46 1357.37,-73.61 1344.55,-72 1191.38,-52.79 1011.6,-35.2 912.24,-25.91"/>
<polygon fill="black" stroke="black" points="912.28,-22.4 902,-24.95 911.63,-29.37 912.28,-22.4"/>
</g>
<!-- :feature:readout&#45;vehicle&#45;approach -->
<g id="node11" class="node">
<title>:feature:readout&#45;vehicle&#45;approach</title>
<ellipse fill="none" stroke="black" cx="1752.55" cy="-90" rx="167.87" ry="18"/>
<text text-anchor="middle" x="1752.55" y="-86.3" font-family="Times,serif" font-size="14.00">:feature:readout&#45;vehicle&#45;approach</text>
</g>
<!-- :feature:readout&#45;vehicle&#45;approach&#45;&gt;:core:domain -->
<g id="edge11" class="edge">
<title>:feature:readout&#45;vehicle&#45;approach&#45;&gt;:core:domain</title>
<path fill="none" stroke="black" d="M1634.24,-77.17C1614.97,-75.36 1595.21,-73.57 1576.55,-72 1335.44,-51.72 1049.71,-32.67 914.68,-23.96"/>
<polygon fill="black" stroke="black" points="914.64,-20.45 904.44,-23.3 914.19,-27.43 914.64,-20.45"/>
</g>
<!-- :feature:readout&#45;vehicle&#45;damage -->
<g id="node12" class="node">
<title>:feature:readout&#45;vehicle&#45;damage</title>
<ellipse fill="none" stroke="black" cx="2099.55" cy="-90" rx="161.37" ry="18"/>
<text text-anchor="middle" x="2099.55" y="-86.3" font-family="Times,serif" font-size="14.00">:feature:readout&#45;vehicle&#45;damage</text>
</g>
<!-- :feature:readout&#45;vehicle&#45;damage&#45;&gt;:core:domain -->
<g id="edge12" class="edge">
<title>:feature:readout&#45;vehicle&#45;damage&#45;&gt;:core:domain</title>
<path fill="none" stroke="black" d="M1987.6,-76.98C1968.25,-75.14 1948.33,-73.39 1929.55,-72 1550.87,-43.9 1097.25,-27.37 916.53,-21.47"/>
<polygon fill="black" stroke="black" points="916.42,-17.97 906.31,-21.14 916.19,-24.97 916.42,-17.97"/>
</g>
</g>
</svg>
