<?xml version="1.0" encoding="UTF-8" standalone="no"?>
<!DOCTYPE svg PUBLIC "-//W3C//DTD SVG 1.1//EN"
 "http://www.w3.org/Graphics/SVG/1.1/DTD/svg11.dtd">
<!-- Generated by graphviz version 2.43.0 (0)
 -->
<!-- Title: G Pages: 1 -->
<svg width="7514pt" height="188pt"
 viewBox="0.00 0.00 7513.53 188.00" xmlns="http://www.w3.org/2000/svg" xmlns:xlink="http://www.w3.org/1999/xlink">
<g id="graph0" class="graph" transform="scale(1 1) rotate(0) translate(4 184)">
<title>G</title>
<polygon fill="white" stroke="transparent" points="-4,4 -4,-184 7509.53,-184 7509.53,4 -4,4"/>
<!-- :server -->
<g id="node1" class="node">
<title>:server</title>
<ellipse fill="none" stroke="black" cx="43.55" cy="-90" rx="43.59" ry="18"/>
<text text-anchor="middle" x="43.55" y="-86.3" font-family="Times,serif" font-size="14.00">:server</text>
</g>
<!-- :core:domain -->
<g id="node2" class="node">
<title>:core:domain</title>
<ellipse fill="none" stroke="black" cx="3604.55" cy="-18" rx="70.69" ry="18"/>
<text text-anchor="middle" x="3604.55" y="-14.3" font-family="Times,serif" font-size="14.00">:core:domain</text>
</g>
<!-- :server&#45;&gt;:core:domain -->
<g id="edge1" class="edge">
<title>:server&#45;&gt;:core:domain</title>
<path fill="none" stroke="black" d="M76.02,-77.81C84.25,-75.44 93.14,-73.27 101.55,-72 449.47,-19.37 3030.8,-18.58 3523.44,-18.92"/>
<polygon fill="black" stroke="black" points="3523.66,-22.42 3533.66,-18.92 3523.66,-15.42 3523.66,-22.42"/>
</g>
<!-- :app:androidApp -->
<g id="node3" class="node">
<title>:app:androidApp</title>
<ellipse fill="none" stroke="black" cx="200.55" cy="-162" rx="87.18" ry="18"/>
<text text-anchor="middle" x="200.55" y="-158.3" font-family="Times,serif" font-size="14.00">:app:androidApp</text>
</g>
<!-- :app:androidApp&#45;&gt;:core:domain -->
<g id="edge2" class="edge">
<title>:app:androidApp&#45;&gt;:core:domain</title>
<path fill="none" stroke="black" d="M173.99,-144.51C146.96,-125.79 112,-94.89 134.55,-72 165.27,-40.8 3004.35,-22.54 3523.52,-19.47"/>
<polygon fill="black" stroke="black" points="3523.57,-22.97 3533.54,-19.41 3523.52,-15.97 3523.57,-22.97"/>
</g>
<!-- :core:data -->
<g id="node4" class="node">
<title>:core:data</title>
<ellipse fill="none" stroke="black" cx="200.55" cy="-90" rx="57.39" ry="18"/>
<text text-anchor="middle" x="200.55" y="-86.3" font-family="Times,serif" font-size="14.00">:core:data</text>
</g>
<!-- :app:androidApp&#45;&gt;:core:data -->
<g id="edge3" class="edge">
<title>:app:androidApp&#45;&gt;:core:data</title>
<path fill="none" stroke="black" d="M200.55,-143.7C200.55,-135.98 200.55,-126.71 200.55,-118.11"/>
<polygon fill="black" stroke="black" points="204.05,-118.1 200.55,-108.1 197.05,-118.1 204.05,-118.1"/>
</g>
<!-- :core:gt7&#45;ps5&#45;data -->
<g id="node5" class="node">
<title>:core:gt7&#45;ps5&#45;data</title>
<ellipse fill="none" stroke="black" cx="370.55" cy="-90" rx="94.78" ry="18"/>
<text text-anchor="middle" x="370.55" y="-86.3" font-family="Times,serif" font-size="14.00">:core:gt7&#45;ps5&#45;data</text>
</g>
<!-- :app:androidApp&#45;&gt;:core:gt7&#45;ps5&#45;data -->
<g id="edge4" class="edge">
<title>:app:androidApp&#45;&gt;:core:gt7&#45;ps5&#45;data</title>
<path fill="none" stroke="black" d="M237.85,-145.64C263.03,-135.27 296.47,-121.5 323.48,-110.38"/>
<polygon fill="black" stroke="black" points="324.82,-113.61 332.74,-106.57 322.16,-107.14 324.82,-113.61"/>
</g>
<!-- :core:data&#45;&gt;:core:domain -->
<g id="edge5" class="edge">
<title>:core:data&#45;&gt;:core:domain</title>
<path fill="none" stroke="black" d="M240.74,-77.04C249.19,-74.98 258.1,-73.14 266.55,-72 597.97,-27.33 3044.91,-20.13 3523.5,-19.14"/>
<polygon fill="black" stroke="black" points="3523.77,-22.64 3533.77,-19.12 3523.76,-15.64 3523.77,-22.64"/>
</g>
<!-- :core:gt7&#45;ps5&#45;data&#45;&gt;:core:domain -->
<g id="edge6" class="edge">
<title>:core:gt7&#45;ps5&#45;data&#45;&gt;:core:domain</title>
<path fill="none" stroke="black" d="M435.83,-76.85C448.62,-74.88 461.97,-73.13 474.55,-72 1092.03,-16.6 3094.87,-17.85 3523.38,-18.78"/>
<polygon fill="black" stroke="black" points="3523.5,-22.28 3533.51,-18.8 3523.52,-15.28 3523.5,-22.28"/>
</g>
<!-- :core:lmu&#45;windows&#45;data -->
<g id="node6" class="node">
<title>:core:lmu&#45;windows&#45;data</title>
<ellipse fill="none" stroke="black" cx="604.55" cy="-90" rx="120.78" ry="18"/>
<text text-anchor="middle" x="604.55" y="-86.3" font-family="Times,serif" font-size="14.00">:core:lmu&#45;windows&#45;data</text>
</g>
<!-- :core:lmu&#45;windows&#45;data&#45;&gt;:core:domain -->
<g id="edge7" class="edge">
<title>:core:lmu&#45;windows&#45;data&#45;&gt;:core:domain</title>
<path fill="none" stroke="black" d="M686.93,-76.82C702.7,-74.89 719.11,-73.15 734.55,-72 1298.41,-30.06 3117.64,-20.83 3523.68,-19.27"/>
<polygon fill="black" stroke="black" points="3523.88,-22.77 3533.87,-19.23 3523.85,-15.77 3523.88,-22.77"/>
</g>
<!-- :feature:gt7&#45;ps5&#45;connection -->
<g id="node7" class="node">
<title>:feature:gt7&#45;ps5&#45;connection</title>
<ellipse fill="none" stroke="black" cx="881.55" cy="-90" rx="138.38" ry="18"/>
<text text-anchor="middle" x="881.55" y="-86.3" font-family="Times,serif" font-size="14.00">:feature:gt7&#45;ps5&#45;connection</text>
</g>
<!-- :feature:gt7&#45;ps5&#45;connection&#45;&gt;:core:domain -->
<g id="edge8" class="edge">
<title>:feature:gt7&#45;ps5&#45;connection&#45;&gt;:core:domain</title>
<path fill="none" stroke="black" d="M976.17,-76.79C993.88,-74.89 1012.26,-73.17 1029.55,-72 1532.02,-38.05 3143.93,-22.81 3523.81,-19.64"/>
<polygon fill="black" stroke="black" points="3523.92,-23.14 3533.89,-19.56 3523.86,-16.14 3523.92,-23.14"/>
</g>
<!-- :feature:gt7&#45;ps5&#45;narrator -->
<g id="node8" class="node">
<title>:feature:gt7&#45;ps5&#45;narrator</title>
<ellipse fill="none" stroke="black" cx="1165.55" cy="-90" rx="127.28" ry="18"/>
<text text-anchor="middle" x="1165.55" y="-86.3" font-family="Times,serif" font-size="14.00">:feature:gt7&#45;ps5&#45;narrator</text>
</g>
<!-- :feature:gt7&#45;ps5&#45;narrator&#45;&gt;:core:domain -->
<g id="edge9" class="edge">
<title>:feature:gt7&#45;ps5&#45;narrator&#45;&gt;:core:domain</title>
<path fill="none" stroke="black" d="M1252.48,-76.8C1268.75,-74.9 1285.65,-73.17 1301.55,-72 1747.1,-39.11 3169.09,-23.26 3523.8,-19.76"/>
<polygon fill="black" stroke="black" points="3524.01,-23.26 3533.98,-19.66 3523.94,-16.26 3524.01,-23.26"/>
</g>
<!-- :feature:gt7&#45;ps5&#45;readout&#45;my&#45;bestlap&#45;detail -->
<g id="node9" class="node">
<title>:feature:gt7&#45;ps5&#45;readout&#45;my&#45;bestlap&#45;detail</title>
<ellipse fill="none" stroke="black" cx="1518.55" cy="-90" rx="207.96" ry="18"/>
<text text-anchor="middle" x="1518.55" y="-86.3" font-family="Times,serif" font-size="14.00">:feature:gt7&#45;ps5&#45;readout&#45;my&#45;bestlap&#45;detail</text>
</g>
<!-- :feature:gt7&#45;ps5&#45;readout&#45;my&#45;bestlap&#45;detail&#45;&gt;:core:domain -->
<g id="edge10" class="edge">
<title>:feature:gt7&#45;ps5&#45;readout&#45;my&#45;bestlap&#45;detail&#45;&gt;:core:domain</title>
<path fill="none" stroke="black" d="M1660.59,-76.85C1685.56,-75.01 1711.3,-73.29 1735.55,-72 2426.88,-35.14 3263.52,-22.91 3523.52,-19.86"/>
<polygon fill="black" stroke="black" points="3523.67,-23.35 3533.63,-19.74 3523.59,-16.36 3523.67,-23.35"/>
</g>
<!-- :feature:gt7&#45;ps5&#45;readout&#45;remaining&#45;fuel&#45;laps&#45;detail -->
<g id="node10" class="node">
<title>:feature:gt7&#45;ps5&#45;readout&#45;remaining&#45;fuel&#45;laps&#45;detail</title>
<ellipse fill="none" stroke="black" cx="1990.55" cy="-90" rx="246.16" ry="18"/>
<text text-anchor="middle" x="1990.55" y="-86.3" font-family="Times,serif" font-size="14.00">:feature:gt7&#45;ps5&#45;readout&#45;remaining&#45;fuel&#45;laps&#45;detail</text>
</g>
<!-- :feature:gt7&#45;ps5&#45;readout&#45;remaining&#45;fuel&#45;laps&#45;detail&#45;&gt;:core:domain -->
<g id="edge11" class="edge">
<title>:feature:gt7&#45;ps5&#45;readout&#45;remaining&#45;fuel&#45;laps&#45;detail&#45;&gt;:core:domain</title>
<path fill="none" stroke="black" d="M2161.26,-77.01C2189.73,-75.2 2218.97,-73.45 2246.55,-72 2731.63,-46.43 3314.79,-27.71 3524.55,-21.36"/>
<polygon fill="black" stroke="black" points="3524.66,-24.86 3534.55,-21.06 3524.45,-17.86 3524.66,-24.86"/>
</g>
<!-- :feature:lmu&#45;windows&#45;connection -->
<g id="node11" class="node">
<title>:feature:lmu&#45;windows&#45;connection</title>
<ellipse fill="none" stroke="black" cx="2419.55" cy="-90" rx="164.37" ry="18"/>
<text text-anchor="middle" x="2419.55" y="-86.3" font-family="Times,serif" font-size="14.00">:feature:lmu&#45;windows&#45;connection</text>
</g>
<!-- :feature:lmu&#45;windows&#45;connection&#45;&gt;:core:domain -->
<g id="edge12" class="edge">
<title>:feature:lmu&#45;windows&#45;connection&#45;&gt;:core:domain</title>
<path fill="none" stroke="black" d="M2534.14,-77.06C2553.94,-75.21 2574.33,-73.44 2593.55,-72 2939.86,-46.02 3353.86,-28.57 3524.75,-21.96"/>
<polygon fill="black" stroke="black" points="3525.06,-25.45 3534.92,-21.57 3524.79,-18.46 3525.06,-25.45"/>
</g>
<!-- :feature:lmu&#45;windows&#45;narrator -->
<g id="node12" class="node">
<title>:feature:lmu&#45;windows&#45;narrator</title>
<ellipse fill="none" stroke="black" cx="2755.55" cy="-90" rx="153.27" ry="18"/>
<text text-anchor="middle" x="2755.55" y="-86.3" font-family="Times,serif" font-size="14.00">:feature:lmu&#45;windows&#45;narrator</text>
</g>
<!-- :feature:lmu&#45;windows&#45;narrator&#45;&gt;:core:domain -->
<g id="edge13" class="edge">
<title>:feature:lmu&#45;windows&#45;narrator&#45;&gt;:core:domain</title>
<path fill="none" stroke="black" d="M2864,-77.2C2881.88,-75.38 2900.23,-73.58 2917.55,-72 3138.22,-51.91 3399.23,-33.15 3526.67,-24.31"/>
<polygon fill="black" stroke="black" points="3526.99,-27.79 3536.72,-23.61 3526.51,-20.81 3526.99,-27.79"/>
</g>
<!-- :feature:lmu&#45;windows&#45;readout&#45;flag&#45;detail -->
<g id="node13" class="node">
<title>:feature:lmu&#45;windows&#45;readout&#45;flag&#45;detail</title>
<ellipse fill="none" stroke="black" cx="3126.55" cy="-90" rx="199.56" ry="18"/>
<text text-anchor="middle" x="3126.55" y="-86.3" font-family="Times,serif" font-size="14.00">:feature:lmu&#45;windows&#45;readout&#45;flag&#45;detail</text>
</g>
<!-- :feature:lmu&#45;windows&#45;readout&#45;flag&#45;detail&#45;&gt;:core:domain -->
<g id="edge14" class="edge">
<title>:feature:lmu&#45;windows&#45;readout&#45;flag&#45;detail&#45;&gt;:core:domain</title>
<path fill="none" stroke="black" d="M3226.46,-74.37C3318.71,-60.86 3453.37,-41.14 3534.62,-29.24"/>
<polygon fill="black" stroke="black" points="3535.35,-32.67 3544.74,-27.76 3534.34,-25.74 3535.35,-32.67"/>
</g>
<!-- :feature:lmu&#45;windows&#45;readout&#45;vehicle&#45;approach&#45;detail -->
<g id="node14" class="node">
<title>:feature:lmu&#45;windows&#45;readout&#45;vehicle&#45;approach&#45;detail</title>
<ellipse fill="none" stroke="black" cx="3604.55" cy="-90" rx="260.75" ry="18"/>
<text text-anchor="middle" x="3604.55" y="-86.3" font-family="Times,serif" font-size="14.00">:feature:lmu&#45;windows&#45;readout&#45;vehicle&#45;approach&#45;detail</text>
</g>
<!-- :feature:lmu&#45;windows&#45;readout&#45;vehicle&#45;approach&#45;detail&#45;&gt;:core:domain -->
<g id="edge15" class="edge">
<title>:feature:lmu&#45;windows&#45;readout&#45;vehicle&#45;approach&#45;detail&#45;&gt;:core:domain</title>
<path fill="none" stroke="black" d="M3604.55,-71.7C3604.55,-63.98 3604.55,-54.71 3604.55,-46.11"/>
<polygon fill="black" stroke="black" points="3608.05,-46.1 3604.55,-36.1 3601.05,-46.1 3608.05,-46.1"/>
</g>
<!-- :feature:lmu&#45;windows&#45;readout&#45;vehicle&#45;damage&#45;detail -->
<g id="node15" class="node">
<title>:feature:lmu&#45;windows&#45;readout&#45;vehicle&#45;damage&#45;detail</title>
<ellipse fill="none" stroke="black" cx="4137.55" cy="-90" rx="254.55" ry="18"/>
<text text-anchor="middle" x="4137.55" y="-86.3" font-family="Times,serif" font-size="14.00">:feature:lmu&#45;windows&#45;readout&#45;vehicle&#45;damage&#45;detail</text>
</g>
<!-- :feature:lmu&#45;windows&#45;readout&#45;vehicle&#45;damage&#45;detail&#45;&gt;:core:domain -->
<g id="edge16" class="edge">
<title>:feature:lmu&#45;windows&#45;readout&#45;vehicle&#45;damage&#45;detail&#45;&gt;:core:domain</title>
<path fill="none" stroke="black" d="M4022.55,-73.9C3917.2,-60.06 3764.56,-40.02 3675.84,-28.36"/>
<polygon fill="black" stroke="black" points="3676.25,-24.89 3665.88,-27.05 3675.33,-31.83 3676.25,-24.89"/>
</g>
<!-- :feature:main -->
<g id="node16" class="node">
<title>:feature:main</title>
<ellipse fill="none" stroke="black" cx="4483.55" cy="-90" rx="73.39" ry="18"/>
<text text-anchor="middle" x="4483.55" y="-86.3" font-family="Times,serif" font-size="14.00">:feature:main</text>
</g>
<!-- :feature:main&#45;&gt;:core:domain -->
<g id="edge17" class="edge">
<title>:feature:main&#45;&gt;:core:domain</title>
<path fill="none" stroke="black" d="M4431.68,-77.12C4421.72,-75.16 4411.34,-73.33 4401.55,-72 4141.06,-36.51 3829.31,-24.52 3685.06,-20.68"/>
<polygon fill="black" stroke="black" points="3685.06,-17.18 3674.97,-20.42 3684.88,-24.18 3685.06,-17.18"/>
</g>
<!-- :feature:other&#45;console&#45;ip&#45;detail -->
<g id="node17" class="node">
<title>:feature:other&#45;console&#45;ip&#45;detail</title>
<ellipse fill="none" stroke="black" cx="4728.55" cy="-90" rx="153.27" ry="18"/>
<text text-anchor="middle" x="4728.55" y="-86.3" font-family="Times,serif" font-size="14.00">:feature:other&#45;console&#45;ip&#45;detail</text>
</g>
<!-- :feature:other&#45;console&#45;ip&#45;detail&#45;&gt;:core:domain -->
<g id="edge18" class="edge">
<title>:feature:other&#45;console&#45;ip&#45;detail&#45;&gt;:core:domain</title>
<path fill="none" stroke="black" d="M4621.21,-77.05C4602.66,-75.2 4583.56,-73.43 4565.55,-72 4238.84,-45.97 3848.62,-28.71 3684.01,-22.07"/>
<polygon fill="black" stroke="black" points="3684.1,-18.57 3673.97,-21.66 3683.82,-25.56 3684.1,-18.57"/>
</g>
<!-- :feature:other&#45;license&#45;detail -->
<g id="node18" class="node">
<title>:feature:other&#45;license&#45;detail</title>
<ellipse fill="none" stroke="black" cx="5039.55" cy="-90" rx="139.98" ry="18"/>
<text text-anchor="middle" x="5039.55" y="-86.3" font-family="Times,serif" font-size="14.00">:feature:other&#45;license&#45;detail</text>
</g>
<!-- :feature:other&#45;license&#45;detail&#45;&gt;:core:domain -->
<g id="edge19" class="edge">
<title>:feature:other&#45;license&#45;detail&#45;&gt;:core:domain</title>
<path fill="none" stroke="black" d="M4943.06,-76.96C4925.6,-75.08 4907.55,-73.32 4890.55,-72 4435.62,-36.72 3888.22,-24 3685.32,-20.3"/>
<polygon fill="black" stroke="black" points="3685.11,-16.79 3675.05,-20.11 3684.99,-23.79 3685.11,-16.79"/>
</g>
<!-- :feature:other&#45;list -->
<g id="node19" class="node">
<title>:feature:other&#45;list</title>
<ellipse fill="none" stroke="black" cx="5290.55" cy="-90" rx="92.88" ry="18"/>
<text text-anchor="middle" x="5290.55" y="-86.3" font-family="Times,serif" font-size="14.00">:feature:other&#45;list</text>
</g>
<!-- :feature:other&#45;list&#45;&gt;:core:domain -->
<g id="edge20" class="edge">
<title>:feature:other&#45;list&#45;&gt;:core:domain</title>
<path fill="none" stroke="black" d="M5226.24,-76.96C5213.77,-75 5200.78,-73.22 5188.55,-72 4892.23,-42.48 3964.61,-24.99 3685.07,-20.29"/>
<polygon fill="black" stroke="black" points="3685.06,-16.79 3675,-20.12 3684.94,-23.79 3685.06,-16.79"/>
</g>
<!-- :feature:other&#45;readout&#45;start&#45;sound&#45;detail -->
<g id="node20" class="node">
<title>:feature:other&#45;readout&#45;start&#45;sound&#45;detail</title>
<ellipse fill="none" stroke="black" cx="5600.55" cy="-90" rx="199.56" ry="18"/>
<text text-anchor="middle" x="5600.55" y="-86.3" font-family="Times,serif" font-size="14.00">:feature:other&#45;readout&#45;start&#45;sound&#45;detail</text>
</g>
<!-- :feature:other&#45;readout&#45;start&#45;sound&#45;detail&#45;&gt;:core:domain -->
<g id="edge21" class="edge">
<title>:feature:other&#45;readout&#45;start&#45;sound&#45;detail&#45;&gt;:core:domain</title>
<path fill="none" stroke="black" d="M5464.12,-76.83C5440.27,-75 5415.7,-73.29 5392.55,-72 4734.24,-35.37 3938.08,-23.04 3685.49,-19.9"/>
<polygon fill="black" stroke="black" points="3685.34,-16.4 3675.3,-19.78 3685.26,-23.4 3685.34,-16.4"/>
</g>
<!-- :feature:other&#45;server&#45;ip&#45;detail -->
<g id="node21" class="node">
<title>:feature:other&#45;server&#45;ip&#45;detail</title>
<ellipse fill="none" stroke="black" cx="5966.55" cy="-90" rx="148.67" ry="18"/>
<text text-anchor="middle" x="5966.55" y="-86.3" font-family="Times,serif" font-size="14.00">:feature:other&#45;server&#45;ip&#45;detail</text>
</g>
<!-- :feature:other&#45;server&#45;ip&#45;detail&#45;&gt;:core:domain -->
<g id="edge22" class="edge">
<title>:feature:other&#45;server&#45;ip&#45;detail&#45;&gt;:core:domain</title>
<path fill="none" stroke="black" d="M5865.31,-76.78C5846.78,-74.9 5827.6,-73.19 5809.55,-72 4981.57,-17.32 3975.39,-17.23 3685.96,-18.5"/>
<polygon fill="black" stroke="black" points="3685.54,-15 3675.56,-18.54 3685.57,-22 3685.54,-15"/>
</g>
<!-- :feature:other&#45;volume&#45;detail -->
<g id="node22" class="node">
<title>:feature:other&#45;volume&#45;detail</title>
<ellipse fill="none" stroke="black" cx="6274.55" cy="-90" rx="141.07" ry="18"/>
<text text-anchor="middle" x="6274.55" y="-86.3" font-family="Times,serif" font-size="14.00">:feature:other&#45;volume&#45;detail</text>
</g>
<!-- :feature:other&#45;volume&#45;detail&#45;&gt;:core:domain -->
<g id="edge23" class="edge">
<title>:feature:other&#45;volume&#45;detail&#45;&gt;:core:domain</title>
<path fill="none" stroke="black" d="M6178.24,-76.76C6160.41,-74.87 6141.94,-73.17 6124.55,-72 5633.58,-39.09 4060.43,-23.1 3685.38,-19.7"/>
<polygon fill="black" stroke="black" points="3685.19,-16.2 3675.16,-19.61 3685.12,-23.2 3685.19,-16.2"/>
</g>
<!-- :feature:readout&#45;list -->
<g id="node23" class="node">
<title>:feature:readout&#45;list</title>
<ellipse fill="none" stroke="black" cx="6537.55" cy="-90" rx="103.98" ry="18"/>
<text text-anchor="middle" x="6537.55" y="-86.3" font-family="Times,serif" font-size="14.00">:feature:readout&#45;list</text>
</g>
<!-- :feature:readout&#45;list&#45;&gt;:core:domain -->
<g id="edge24" class="edge">
<title>:feature:readout&#45;list&#45;&gt;:core:domain</title>
<path fill="none" stroke="black" d="M6466.28,-76.84C6452.47,-74.89 6438.09,-73.14 6424.55,-72 5871.69,-25.42 4087.94,-19.78 3685.66,-19.09"/>
<polygon fill="black" stroke="black" points="3685.57,-15.59 3675.57,-19.08 3685.56,-22.59 3685.57,-15.59"/>
</g>
<!-- :feature:server&#45;connection -->
<g id="node24" class="node">
<title>:feature:server&#45;connection</title>
<ellipse fill="none" stroke="black" cx="6792.55" cy="-90" rx="133.48" ry="18"/>
<text text-anchor="middle" x="6792.55" y="-86.3" font-family="Times,serif" font-size="14.00">:feature:server&#45;connection</text>
</g>
<!-- :feature:server&#45;connection&#45;&gt;:core:domain -->
<g id="edge25" class="edge">
<title>:feature:server&#45;connection&#45;&gt;:core:domain</title>
<path fill="none" stroke="black" d="M6701.77,-76.74C6684.78,-74.84 6667.14,-73.13 6650.55,-72 6049.58,-30.91 4106.57,-20.98 3685.51,-19.29"/>
<polygon fill="black" stroke="black" points="3685.28,-15.79 3675.26,-19.25 3685.25,-22.79 3685.28,-15.79"/>
</g>
<!-- :feature:telemetry&#45;log&#45;detail -->
<g id="node25" class="node">
<title>:feature:telemetry&#45;log&#45;detail</title>
<ellipse fill="none" stroke="black" cx="7085.55" cy="-90" rx="141.88" ry="18"/>
<text text-anchor="middle" x="7085.55" y="-86.3" font-family="Times,serif" font-size="14.00">:feature:telemetry&#45;log&#45;detail</text>
</g>
<!-- :feature:telemetry&#45;log&#45;detail&#45;&gt;:core:domain -->
<g id="edge26" class="edge">
<title>:feature:telemetry&#45;log&#45;detail&#45;&gt;:core:domain</title>
<path fill="none" stroke="black" d="M6989.41,-76.78C6971.21,-74.86 6952.32,-73.14 6934.55,-72 6273.84,-29.65 4130.39,-20.66 3685.76,-19.23"/>
<polygon fill="black" stroke="black" points="3685.58,-15.73 3675.57,-19.2 3685.56,-22.73 3685.58,-15.73"/>
</g>
<!-- :feature:telemetry&#45;log&#45;list -->
<g id="node26" class="node">
<title>:feature:telemetry&#45;log&#45;list</title>
<ellipse fill="none" stroke="black" cx="7375.55" cy="-90" rx="129.98" ry="18"/>
<text text-anchor="middle" x="7375.55" y="-86.3" font-family="Times,serif" font-size="14.00">:feature:telemetry&#45;log&#45;list</text>
</g>
<!-- :feature:telemetry&#45;log&#45;list&#45;&gt;:core:domain -->
<g id="edge27" class="edge">
<title>:feature:telemetry&#45;log&#45;list&#45;&gt;:core:domain</title>
<path fill="none" stroke="black" d="M7287.07,-76.74C7270.32,-74.83 7252.92,-73.12 7236.55,-72 6512.26,-22.57 4152.97,-19.18 3685.48,-19"/>
<polygon fill="black" stroke="black" points="3685.44,-15.5 3675.44,-19 3685.44,-22.5 3685.44,-15.5"/>
</g>
</g>
</svg>
