<?xml version="1.0" encoding="UTF-8" standalone="no"?>
<!DOCTYPE svg PUBLIC "-//W3C//DTD SVG 1.1//EN"
 "http://www.w3.org/Graphics/SVG/1.1/DTD/svg11.dtd">
<!-- Generated by graphviz version 2.43.0 (0)
 -->
<!-- Title: G Pages: 1 -->
<svg width="1405pt" height="188pt"
 viewBox="0.00 0.00 1405.23 188.00" xmlns="http://www.w3.org/2000/svg" xmlns:xlink="http://www.w3.org/1999/xlink">
<g id="graph0" class="graph" transform="scale(1 1) rotate(0) translate(4 184)">
<title>G</title>
<polygon fill="white" stroke="transparent" points="-4,4 -4,-184 1401.23,-184 1401.23,4 -4,4"/>
<!-- :server -->
<g id="node1" class="node">
<title>:server</title>
<ellipse fill="none" stroke="black" cx="43.55" cy="-90" rx="43.59" ry="18"/>
<text text-anchor="middle" x="43.55" y="-86.3" font-family="Times,serif" font-size="14.00">:server</text>
</g>
<!-- :core:domain -->
<g id="node2" class="node">
<title>:core:domain</title>
<ellipse fill="none" stroke="black" cx="455.55" cy="-18" rx="70.69" ry="18"/>
<text text-anchor="middle" x="455.55" y="-14.3" font-family="Times,serif" font-size="14.00">:core:domain</text>
</g>
<!-- :server&#45;&gt;:core:domain -->
<g id="edge1" class="edge">
<title>:server&#45;&gt;:core:domain</title>
<path fill="none" stroke="black" d="M77.08,-78.33C85.05,-76.03 93.55,-73.76 101.55,-72 197.28,-50.91 309.44,-35.69 381.44,-27.11"/>
<polygon fill="black" stroke="black" points="382.24,-30.54 391.76,-25.89 381.42,-23.59 382.24,-30.54"/>
</g>
<!-- :app:desktopApp -->
<g id="node3" class="node">
<title>:app:desktopApp</title>
<ellipse fill="none" stroke="black" cx="157.55" cy="-162" rx="88.28" ry="18"/>
<text text-anchor="middle" x="157.55" y="-158.3" font-family="Times,serif" font-size="14.00">:app:desktopApp</text>
</g>
<!-- :app:desktopApp&#45;&gt;:core:domain -->
<g id="edge3" class="edge">
<title>:app:desktopApp&#45;&gt;:core:domain</title>
<path fill="none" stroke="black" d="M145.11,-143.93C132.53,-124.38 117.2,-92.44 134.55,-72 164.79,-36.35 290.12,-24.65 374.93,-20.82"/>
<polygon fill="black" stroke="black" points="375.22,-24.31 385.06,-20.4 374.92,-17.32 375.22,-24.31"/>
</g>
<!-- :core:data -->
<g id="node4" class="node">
<title>:core:data</title>
<ellipse fill="none" stroke="black" cx="200.55" cy="-90" rx="57.39" ry="18"/>
<text text-anchor="middle" x="200.55" y="-86.3" font-family="Times,serif" font-size="14.00">:core:data</text>
</g>
<!-- :app:desktopApp&#45;&gt;:core:data -->
<g id="edge2" class="edge">
<title>:app:desktopApp&#45;&gt;:core:data</title>
<path fill="none" stroke="black" d="M167.96,-144.05C173.03,-135.8 179.23,-125.7 184.86,-116.54"/>
<polygon fill="black" stroke="black" points="187.98,-118.14 190.23,-107.79 182.02,-114.48 187.98,-118.14"/>
</g>
<!-- :core:data&#45;&gt;:core:domain -->
<g id="edge4" class="edge">
<title>:core:data&#45;&gt;:core:domain</title>
<path fill="none" stroke="black" d="M242.08,-77.6C284.9,-65.84 351.94,-47.44 399.45,-34.4"/>
<polygon fill="black" stroke="black" points="400.56,-37.72 409.28,-31.7 398.71,-30.97 400.56,-37.72"/>
</g>
<!-- :feature:narrator -->
<g id="node5" class="node">
<title>:feature:narrator</title>
<ellipse fill="none" stroke="black" cx="364.55" cy="-90" rx="89.08" ry="18"/>
<text text-anchor="middle" x="364.55" y="-86.3" font-family="Times,serif" font-size="14.00">:feature:narrator</text>
</g>
<!-- :feature:narrator&#45;&gt;:core:domain -->
<g id="edge5" class="edge">
<title>:feature:narrator&#45;&gt;:core:domain</title>
<path fill="none" stroke="black" d="M386.11,-72.41C398.1,-63.19 413.18,-51.59 426.23,-41.55"/>
<polygon fill="black" stroke="black" points="428.66,-44.1 434.45,-35.23 424.39,-38.55 428.66,-44.1"/>
</g>
<!-- :feature:other -->
<g id="node6" class="node">
<title>:feature:other</title>
<ellipse fill="none" stroke="black" cx="546.55" cy="-90" rx="75.29" ry="18"/>
<text text-anchor="middle" x="546.55" y="-86.3" font-family="Times,serif" font-size="14.00">:feature:other</text>
</g>
<!-- :feature:other&#45;&gt;:core:domain -->
<g id="edge6" class="edge">
<title>:feature:other&#45;&gt;:core:domain</title>
<path fill="none" stroke="black" d="M524.98,-72.41C512.99,-63.19 497.91,-51.59 484.87,-41.55"/>
<polygon fill="black" stroke="black" points="486.7,-38.55 476.64,-35.23 482.44,-44.1 486.7,-38.55"/>
</g>
<!-- :feature:readout -->
<g id="node7" class="node">
<title>:feature:readout</title>
<ellipse fill="none" stroke="black" cx="726.55" cy="-90" rx="86.38" ry="18"/>
<text text-anchor="middle" x="726.55" y="-86.3" font-family="Times,serif" font-size="14.00">:feature:readout</text>
</g>
<!-- :feature:readout&#45;&gt;:core:domain -->
<g id="edge7" class="edge">
<title>:feature:readout&#45;&gt;:core:domain</title>
<path fill="none" stroke="black" d="M674.62,-75.59C628.56,-63.69 561.36,-46.33 513.56,-33.98"/>
<polygon fill="black" stroke="black" points="514.22,-30.54 503.66,-31.43 512.47,-37.32 514.22,-30.54"/>
</g>
<!-- :feature:readout&#45;flag -->
<g id="node8" class="node">
<title>:feature:readout&#45;flag</title>
<ellipse fill="none" stroke="black" cx="937.55" cy="-90" rx="106.68" ry="18"/>
<text text-anchor="middle" x="937.55" y="-86.3" font-family="Times,serif" font-size="14.00">:feature:readout&#45;flag</text>
</g>
<!-- :feature:readout&#45;flag&#45;&gt;:core:domain -->
<g id="edge8" class="edge">
<title>:feature:readout&#45;flag&#45;&gt;:core:domain</title>
<path fill="none" stroke="black" d="M859.86,-77.6C847.06,-75.72 833.93,-73.8 821.55,-72 718.54,-56.99 599.21,-39.74 525.55,-29.1"/>
<polygon fill="black" stroke="black" points="525.86,-25.61 515.46,-27.64 524.86,-32.54 525.86,-25.61"/>
</g>
<!-- :feature:readout&#45;vehicle&#45;approach -->
<g id="node9" class="node">
<title>:feature:readout&#45;vehicle&#45;approach</title>
<ellipse fill="none" stroke="black" cx="1229.55" cy="-90" rx="167.87" ry="18"/>
<text text-anchor="middle" x="1229.55" y="-86.3" font-family="Times,serif" font-size="14.00">:feature:readout&#45;vehicle&#45;approach</text>
</g>
<!-- :feature:readout&#45;vehicle&#45;approach&#45;&gt;:core:domain -->
<g id="edge9" class="edge">
<title>:feature:readout&#45;vehicle&#45;approach&#45;&gt;:core:domain</title>
<path fill="none" stroke="black" d="M1109.8,-77.31C1090.97,-75.5 1071.73,-73.68 1053.55,-72 865.91,-54.62 645.05,-35.36 531.47,-25.54"/>
<polygon fill="black" stroke="black" points="531.75,-22.05 521.49,-24.67 531.15,-29.02 531.75,-22.05"/>
</g>
</g>
</svg>
