<?xml version="1.0" encoding="UTF-8" standalone="no"?>
<!DOCTYPE svg PUBLIC "-//W3C//DTD SVG 1.1//EN"
 "http://www.w3.org/Graphics/SVG/1.1/DTD/svg11.dtd">
<!-- Generated by graphviz version 2.43.0 (0)
 -->
<!-- Title: G Pages: 1 -->
<svg width="7268pt" height="116pt"
 viewBox="0.00 0.00 7267.58 116.00" xmlns="http://www.w3.org/2000/svg" xmlns:xlink="http://www.w3.org/1999/xlink">
<g id="graph0" class="graph" transform="scale(1 1) rotate(0) translate(4 112)">
<title>G</title>
<polygon fill="white" stroke="transparent" points="-4,4 -4,-112 7263.58,-112 7263.58,4 -4,4"/>
<!-- :feature:desktop&#45;splash -->
<g id="node1" class="node">
<title>:feature:desktop&#45;splash</title>
<ellipse fill="none" stroke="black" cx="119.59" cy="-90" rx="119.68" ry="18"/>
<text text-anchor="middle" x="119.59" y="-86.3" font-family="Times,serif" font-size="14.00">:feature:desktop&#45;splash</text>
</g>
<!-- :core:designsystem -->
<g id="node2" class="node">
<title>:core:designsystem</title>
<ellipse fill="none" stroke="black" cx="4262.59" cy="-18" rx="100.98" ry="18"/>
<text text-anchor="middle" x="4262.59" y="-14.3" font-family="Times,serif" font-size="14.00">:core:designsystem</text>
</g>
<!-- :feature:desktop&#45;splash&#45;&gt;:core:designsystem -->
<g id="edge1" class="edge">
<title>:feature:desktop&#45;splash&#45;&gt;:core:designsystem</title>
<path fill="none" stroke="black" d="M200.99,-76.79C216.75,-74.85 233.16,-73.11 248.59,-72 1038.14,-14.96 3587.19,-17.42 4151.35,-18.69"/>
<polygon fill="black" stroke="black" points="4151.51,-22.2 4161.52,-18.72 4151.53,-15.2 4151.51,-22.2"/>
</g>
<!-- :feature:gt7&#45;ps5&#45;narrator -->
<g id="node3" class="node">
<title>:feature:gt7&#45;ps5&#45;narrator</title>
<ellipse fill="none" stroke="black" cx="384.59" cy="-90" rx="127.28" ry="18"/>
<text text-anchor="middle" x="384.59" y="-86.3" font-family="Times,serif" font-size="14.00">:feature:gt7&#45;ps5&#45;narrator</text>
</g>
<!-- :feature:gt7&#45;ps5&#45;narrator&#45;&gt;:core:designsystem -->
<g id="edge2" class="edge">
<title>:feature:gt7&#45;ps5&#45;narrator&#45;&gt;:core:designsystem</title>
<path fill="none" stroke="black" d="M471.15,-76.73C487.54,-74.82 504.57,-73.11 520.59,-72 1253.39,-21.17 3611.07,-18.78 4151.49,-18.92"/>
<polygon fill="black" stroke="black" points="4151.62,-22.42 4161.62,-18.92 4151.63,-15.42 4151.62,-22.42"/>
</g>
<!-- :feature:gt7&#45;ps5&#45;readout&#45;my&#45;best&#45;lap&#45;detail -->
<g id="node4" class="node">
<title>:feature:gt7&#45;ps5&#45;readout&#45;my&#45;best&#45;lap&#45;detail</title>
<ellipse fill="none" stroke="black" cx="740.59" cy="-90" rx="210.66" ry="18"/>
<text text-anchor="middle" x="740.59" y="-86.3" font-family="Times,serif" font-size="14.00">:feature:gt7&#45;ps5&#45;readout&#45;my&#45;best&#45;lap&#45;detail</text>
</g>
<!-- :feature:gt7&#45;ps5&#45;readout&#45;my&#45;best&#45;lap&#45;detail&#45;&gt;:core:designsystem -->
<g id="edge3" class="edge">
<title>:feature:gt7&#45;ps5&#45;readout&#45;my&#45;best&#45;lap&#45;detail&#45;&gt;:core:designsystem</title>
<path fill="none" stroke="black" d="M883.11,-76.71C908.88,-74.85 935.52,-73.17 960.59,-72 1602.62,-42.07 3652.82,-23.91 4152.16,-19.86"/>
<polygon fill="black" stroke="black" points="4152.28,-23.36 4162.25,-19.78 4152.22,-16.36 4152.28,-23.36"/>
</g>
<!-- :feature:gt7&#45;ps5&#45;readout&#45;remaining&#45;fuel&#45;laps&#45;detail -->
<g id="node5" class="node">
<title>:feature:gt7&#45;ps5&#45;readout&#45;remaining&#45;fuel&#45;laps&#45;detail</title>
<ellipse fill="none" stroke="black" cx="1215.59" cy="-90" rx="246.16" ry="18"/>
<text text-anchor="middle" x="1215.59" y="-86.3" font-family="Times,serif" font-size="14.00">:feature:gt7&#45;ps5&#45;readout&#45;remaining&#45;fuel&#45;laps&#45;detail</text>
</g>
<!-- :feature:gt7&#45;ps5&#45;readout&#45;remaining&#45;fuel&#45;laps&#45;detail&#45;&gt;:core:designsystem -->
<g id="edge4" class="edge">
<title>:feature:gt7&#45;ps5&#45;readout&#45;remaining&#45;fuel&#45;laps&#45;detail&#45;&gt;:core:designsystem</title>
<path fill="none" stroke="black" d="M1382.84,-76.75C1412.4,-74.91 1442.89,-73.22 1471.59,-72 2513.4,-27.54 3775.56,-20.38 4151.72,-19.22"/>
<polygon fill="black" stroke="black" points="4151.79,-22.72 4161.78,-19.19 4151.77,-15.72 4151.79,-22.72"/>
</g>
<!-- :feature:lmu&#45;windows&#45;narrator -->
<g id="node6" class="node">
<title>:feature:lmu&#45;windows&#45;narrator</title>
<ellipse fill="none" stroke="black" cx="1633.59" cy="-90" rx="153.27" ry="18"/>
<text text-anchor="middle" x="1633.59" y="-86.3" font-family="Times,serif" font-size="14.00">:feature:lmu&#45;windows&#45;narrator</text>
</g>
<!-- :feature:lmu&#45;windows&#45;narrator&#45;&gt;:core:designsystem -->
<g id="edge5" class="edge">
<title>:feature:lmu&#45;windows&#45;narrator&#45;&gt;:core:designsystem</title>
<path fill="none" stroke="black" d="M1738.06,-76.75C1757.17,-74.87 1776.96,-73.18 1795.59,-72 2263.71,-42.46 3736.06,-24.68 4152.11,-20.15"/>
<polygon fill="black" stroke="black" points="4152.37,-23.65 4162.33,-20.04 4152.29,-16.65 4152.37,-23.65"/>
</g>
<!-- :feature:lmu&#45;windows&#45;readout&#45;flag&#45;detail -->
<g id="node7" class="node">
<title>:feature:lmu&#45;windows&#45;readout&#45;flag&#45;detail</title>
<ellipse fill="none" stroke="black" cx="2004.59" cy="-90" rx="199.56" ry="18"/>
<text text-anchor="middle" x="2004.59" y="-86.3" font-family="Times,serif" font-size="14.00">:feature:lmu&#45;windows&#45;readout&#45;flag&#45;detail</text>
</g>
<!-- :feature:lmu&#45;windows&#45;readout&#45;flag&#45;detail&#45;&gt;:core:designsystem -->
<g id="edge6" class="edge">
<title>:feature:lmu&#45;windows&#45;readout&#45;flag&#45;detail&#45;&gt;:core:designsystem</title>
<path fill="none" stroke="black" d="M2140.46,-76.8C2164.47,-74.96 2189.25,-73.25 2212.59,-72 2952.53,-32.23 3844.37,-22.09 4152,-19.69"/>
<polygon fill="black" stroke="black" points="4152.28,-23.19 4162.25,-19.62 4152.23,-16.19 4152.28,-23.19"/>
</g>
<!-- :feature:lmu&#45;windows&#45;readout&#45;my&#45;best&#45;lap&#45;detail -->
<g id="node8" class="node">
<title>:feature:lmu&#45;windows&#45;readout&#45;my&#45;best&#45;lap&#45;detail</title>
<ellipse fill="none" stroke="black" cx="2458.59" cy="-90" rx="236.66" ry="18"/>
<text text-anchor="middle" x="2458.59" y="-86.3" font-family="Times,serif" font-size="14.00">:feature:lmu&#45;windows&#45;readout&#45;my&#45;best&#45;lap&#45;detail</text>
</g>
<!-- :feature:lmu&#45;windows&#45;readout&#45;my&#45;best&#45;lap&#45;detail&#45;&gt;:core:designsystem -->
<g id="edge7" class="edge">
<title>:feature:lmu&#45;windows&#45;readout&#45;my&#45;best&#45;lap&#45;detail&#45;&gt;:core:designsystem</title>
<path fill="none" stroke="black" d="M2621.3,-76.9C2648.76,-75.09 2676.98,-73.38 2703.59,-72 3247.11,-43.91 3898.02,-27.26 4152.77,-21.4"/>
<polygon fill="black" stroke="black" points="4153.22,-24.89 4163.13,-21.16 4153.06,-17.89 4153.22,-24.89"/>
</g>
<!-- :feature:lmu&#45;windows&#45;readout&#45;tyre&#45;temperature&#45;detail -->
<g id="node9" class="node">
<title>:feature:lmu&#45;windows&#45;readout&#45;tyre&#45;temperature&#45;detail</title>
<ellipse fill="none" stroke="black" cx="2975.59" cy="-90" rx="262.65" ry="18"/>
<text text-anchor="middle" x="2975.59" y="-86.3" font-family="Times,serif" font-size="14.00">:feature:lmu&#45;windows&#45;readout&#45;tyre&#45;temperature&#45;detail</text>
</g>
<!-- :feature:lmu&#45;windows&#45;readout&#45;tyre&#45;temperature&#45;detail&#45;&gt;:core:designsystem -->
<g id="edge8" class="edge">
<title>:feature:lmu&#45;windows&#45;readout&#45;tyre&#45;temperature&#45;detail&#45;&gt;:core:designsystem</title>
<path fill="none" stroke="black" d="M3159.98,-77.17C3188.96,-75.39 3218.59,-73.61 3246.59,-72 3578.44,-52.94 3971.44,-33.26 4156.35,-24.17"/>
<polygon fill="black" stroke="black" points="4156.8,-27.66 4166.62,-23.67 4156.46,-20.66 4156.8,-27.66"/>
</g>
<!-- :feature:lmu&#45;windows&#45;readout&#45;vehicle&#45;approach&#45;detail -->
<g id="node10" class="node">
<title>:feature:lmu&#45;windows&#45;readout&#45;vehicle&#45;approach&#45;detail</title>
<ellipse fill="none" stroke="black" cx="3516.59" cy="-90" rx="260.75" ry="18"/>
<text text-anchor="middle" x="3516.59" y="-86.3" font-family="Times,serif" font-size="14.00">:feature:lmu&#45;windows&#45;readout&#45;vehicle&#45;approach&#45;detail</text>
</g>
<!-- :feature:lmu&#45;windows&#45;readout&#45;vehicle&#45;approach&#45;detail&#45;&gt;:core:designsystem -->
<g id="edge9" class="edge">
<title>:feature:lmu&#45;windows&#45;readout&#45;vehicle&#45;approach&#45;detail&#45;&gt;:core:designsystem</title>
<path fill="none" stroke="black" d="M3664.42,-75.13C3813.1,-61.18 4038.05,-40.07 4165.51,-28.11"/>
<polygon fill="black" stroke="black" points="4166.01,-31.58 4175.64,-27.16 4165.36,-24.61 4166.01,-31.58"/>
</g>
<!-- :feature:lmu&#45;windows&#45;readout&#45;vehicle&#45;damage&#45;detail -->
<g id="node11" class="node">
<title>:feature:lmu&#45;windows&#45;readout&#45;vehicle&#45;damage&#45;detail</title>
<ellipse fill="none" stroke="black" cx="4049.59" cy="-90" rx="254.55" ry="18"/>
<text text-anchor="middle" x="4049.59" y="-86.3" font-family="Times,serif" font-size="14.00">:feature:lmu&#45;windows&#45;readout&#45;vehicle&#45;damage&#45;detail</text>
</g>
<!-- :feature:lmu&#45;windows&#45;readout&#45;vehicle&#45;damage&#45;detail&#45;&gt;:core:designsystem -->
<g id="edge10" class="edge">
<title>:feature:lmu&#45;windows&#45;readout&#45;vehicle&#45;damage&#45;detail&#45;&gt;:core:designsystem</title>
<path fill="none" stroke="black" d="M4100.34,-72.32C4132.48,-61.76 4174.06,-48.1 4207.08,-37.24"/>
<polygon fill="black" stroke="black" points="4208.18,-40.57 4216.59,-34.12 4205.99,-33.92 4208.18,-40.57"/>
</g>
<!-- :feature:other&#45;console&#45;ip&#45;detail -->
<g id="node12" class="node">
<title>:feature:other&#45;console&#45;ip&#45;detail</title>
<ellipse fill="none" stroke="black" cx="4475.59" cy="-90" rx="153.27" ry="18"/>
<text text-anchor="middle" x="4475.59" y="-86.3" font-family="Times,serif" font-size="14.00">:feature:other&#45;console&#45;ip&#45;detail</text>
</g>
<!-- :feature:other&#45;console&#45;ip&#45;detail&#45;&gt;:core:designsystem -->
<g id="edge11" class="edge">
<title>:feature:other&#45;console&#45;ip&#45;detail&#45;&gt;:core:designsystem</title>
<path fill="none" stroke="black" d="M4426.46,-72.85C4394.14,-62.23 4351.78,-48.31 4318.22,-37.28"/>
<polygon fill="black" stroke="black" points="4319.15,-33.91 4308.56,-34.11 4316.97,-40.56 4319.15,-33.91"/>
</g>
<!-- :feature:other&#45;license&#45;detail -->
<g id="node13" class="node">
<title>:feature:other&#45;license&#45;detail</title>
<ellipse fill="none" stroke="black" cx="4786.59" cy="-90" rx="139.98" ry="18"/>
<text text-anchor="middle" x="4786.59" y="-86.3" font-family="Times,serif" font-size="14.00">:feature:other&#45;license&#45;detail</text>
</g>
<!-- :feature:other&#45;license&#45;detail&#45;&gt;:core:designsystem -->
<g id="edge12" class="edge">
<title>:feature:other&#45;license&#45;detail&#45;&gt;:core:designsystem</title>
<path fill="none" stroke="black" d="M4693.51,-76.57C4596.61,-63.62 4445.96,-43.5 4350.88,-30.79"/>
<polygon fill="black" stroke="black" points="4351.09,-27.29 4340.71,-29.44 4350.16,-34.23 4351.09,-27.29"/>
</g>
<!-- :feature:other&#45;list -->
<g id="node14" class="node">
<title>:feature:other&#45;list</title>
<ellipse fill="none" stroke="black" cx="5037.59" cy="-90" rx="92.88" ry="18"/>
<text text-anchor="middle" x="5037.59" y="-86.3" font-family="Times,serif" font-size="14.00">:feature:other&#45;list</text>
</g>
<!-- :feature:other&#45;list&#45;&gt;:core:designsystem -->
<g id="edge13" class="edge">
<title>:feature:other&#45;list&#45;&gt;:core:designsystem</title>
<path fill="none" stroke="black" d="M4971.87,-77.19C4959.83,-75.27 4947.35,-73.44 4935.59,-72 4735.62,-47.51 4500.76,-32.01 4368.03,-24.47"/>
<polygon fill="black" stroke="black" points="4368.04,-20.97 4357.86,-23.9 4367.65,-27.96 4368.04,-20.97"/>
</g>
<!-- :feature:other&#45;readout&#45;start&#45;sound&#45;detail -->
<g id="node15" class="node">
<title>:feature:other&#45;readout&#45;start&#45;sound&#45;detail</title>
<ellipse fill="none" stroke="black" cx="5347.59" cy="-90" rx="199.56" ry="18"/>
<text text-anchor="middle" x="5347.59" y="-86.3" font-family="Times,serif" font-size="14.00">:feature:other&#45;readout&#45;start&#45;sound&#45;detail</text>
</g>
<!-- :feature:other&#45;readout&#45;start&#45;sound&#45;detail&#45;&gt;:core:designsystem -->
<g id="edge14" class="edge">
<title>:feature:other&#45;readout&#45;start&#45;sound&#45;detail&#45;&gt;:core:designsystem</title>
<path fill="none" stroke="black" d="M5207.48,-77.14C5184.79,-75.34 5161.54,-73.56 5139.59,-72 4861.09,-52.21 4532.49,-33.62 4367.82,-24.64"/>
<polygon fill="black" stroke="black" points="4367.87,-21.13 4357.69,-24.09 4367.49,-28.12 4367.87,-21.13"/>
</g>
<!-- :feature:other&#45;server&#45;ip&#45;detail -->
<g id="node16" class="node">
<title>:feature:other&#45;server&#45;ip&#45;detail</title>
<ellipse fill="none" stroke="black" cx="5713.59" cy="-90" rx="148.67" ry="18"/>
<text text-anchor="middle" x="5713.59" y="-86.3" font-family="Times,serif" font-size="14.00">:feature:other&#45;server&#45;ip&#45;detail</text>
</g>
<!-- :feature:other&#45;server&#45;ip&#45;detail&#45;&gt;:core:designsystem -->
<g id="edge15" class="edge">
<title>:feature:other&#45;server&#45;ip&#45;detail&#45;&gt;:core:designsystem</title>
<path fill="none" stroke="black" d="M5611.07,-76.9C5592.94,-75.05 5574.22,-73.31 5556.59,-72 5118.53,-39.35 4595.43,-25.67 4372.23,-21.02"/>
<polygon fill="black" stroke="black" points="4372.23,-17.52 4362.16,-20.81 4372.08,-24.51 4372.23,-17.52"/>
</g>
<!-- :feature:other&#45;theme&#45;detail -->
<g id="node17" class="node">
<title>:feature:other&#45;theme&#45;detail</title>
<ellipse fill="none" stroke="black" cx="6016.59" cy="-90" rx="136.48" ry="18"/>
<text text-anchor="middle" x="6016.59" y="-86.3" font-family="Times,serif" font-size="14.00">:feature:other&#45;theme&#45;detail</text>
</g>
<!-- :feature:other&#45;theme&#45;detail&#45;&gt;:core:designsystem -->
<g id="edge16" class="edge">
<title>:feature:other&#45;theme&#45;detail&#45;&gt;:core:designsystem</title>
<path fill="none" stroke="black" d="M5923.1,-76.87C5905.99,-74.99 5888.27,-73.25 5871.59,-72 5309.83,-29.89 4635.25,-21.24 4373.73,-19.46"/>
<polygon fill="black" stroke="black" points="4373.49,-15.96 4363.47,-19.39 4373.45,-22.96 4373.49,-15.96"/>
</g>
<!-- :feature:other&#45;volume&#45;detail -->
<g id="node18" class="node">
<title>:feature:other&#45;volume&#45;detail</title>
<ellipse fill="none" stroke="black" cx="6312.59" cy="-90" rx="141.07" ry="18"/>
<text text-anchor="middle" x="6312.59" y="-86.3" font-family="Times,serif" font-size="14.00">:feature:other&#45;volume&#45;detail</text>
</g>
<!-- :feature:other&#45;volume&#45;detail&#45;&gt;:core:designsystem -->
<g id="edge17" class="edge">
<title>:feature:other&#45;volume&#45;detail&#45;&gt;:core:designsystem</title>
<path fill="none" stroke="black" d="M6215.63,-76.86C6197.69,-74.96 6179.09,-73.23 6161.59,-72 5483.44,-24.45 4666.26,-19.11 4373.55,-18.84"/>
<polygon fill="black" stroke="black" points="4373.36,-15.34 4363.36,-18.83 4373.35,-22.34 4373.36,-15.34"/>
</g>
<!-- :feature:readout&#45;list -->
<g id="node19" class="node">
<title>:feature:readout&#45;list</title>
<ellipse fill="none" stroke="black" cx="6575.59" cy="-90" rx="103.98" ry="18"/>
<text text-anchor="middle" x="6575.59" y="-86.3" font-family="Times,serif" font-size="14.00">:feature:readout&#45;list</text>
</g>
<!-- :feature:readout&#45;list&#45;&gt;:core:designsystem -->
<g id="edge18" class="edge">
<title>:feature:readout&#45;list&#45;&gt;:core:designsystem</title>
<path fill="none" stroke="black" d="M6504.02,-76.85C6490.3,-74.92 6476.03,-73.17 6462.59,-72 6050.18,-36.15 4759.55,-23.02 4373.04,-19.83"/>
<polygon fill="black" stroke="black" points="4373,-16.33 4362.97,-19.75 4372.94,-23.33 4373,-16.33"/>
</g>
<!-- :feature:telemetry&#45;log&#45;detail -->
<g id="node20" class="node">
<title>:feature:telemetry&#45;log&#45;detail</title>
<ellipse fill="none" stroke="black" cx="6839.59" cy="-90" rx="141.88" ry="18"/>
<text text-anchor="middle" x="6839.59" y="-86.3" font-family="Times,serif" font-size="14.00">:feature:telemetry&#45;log&#45;detail</text>
</g>
<!-- :feature:telemetry&#45;log&#45;detail&#45;&gt;:core:designsystem -->
<g id="edge19" class="edge">
<title>:feature:telemetry&#45;log&#45;detail&#45;&gt;:core:designsystem</title>
<path fill="none" stroke="black" d="M6743.04,-76.82C6724.97,-74.91 6706.22,-73.18 6688.59,-72 6229.02,-41.17 4784.5,-24.34 4372.99,-20.09"/>
<polygon fill="black" stroke="black" points="4372.91,-16.58 4362.87,-19.98 4372.83,-23.58 4372.91,-16.58"/>
</g>
<!-- :feature:telemetry&#45;log&#45;list -->
<g id="node21" class="node">
<title>:feature:telemetry&#45;log&#45;list</title>
<ellipse fill="none" stroke="black" cx="7129.59" cy="-90" rx="129.98" ry="18"/>
<text text-anchor="middle" x="7129.59" y="-86.3" font-family="Times,serif" font-size="14.00">:feature:telemetry&#45;log&#45;list</text>
</g>
<!-- :feature:telemetry&#45;log&#45;list&#45;&gt;:core:designsystem -->
<g id="edge20" class="edge">
<title>:feature:telemetry&#45;log&#45;list&#45;&gt;:core:designsystem</title>
<path fill="none" stroke="black" d="M7041.11,-76.8C7024.36,-74.89 7006.96,-73.16 6990.59,-72 6468.87,-35.13 4817.4,-22.43 4373.4,-19.64"/>
<polygon fill="black" stroke="black" points="4373.16,-16.14 4363.14,-19.57 4373.12,-23.14 4373.16,-16.14"/>
</g>
</g>
</svg>
