<?xml version="1.0" encoding="UTF-8" standalone="no"?>
<!DOCTYPE svg PUBLIC "-//W3C//DTD SVG 1.1//EN"
 "http://www.w3.org/Graphics/SVG/1.1/DTD/svg11.dtd">
<!-- Generated by graphviz version 2.43.0 (0)
 -->
<!-- Title: G Pages: 1 -->
<svg width="3540pt" height="116pt"
 viewBox="0.00 0.00 3539.78 116.00" xmlns="http://www.w3.org/2000/svg" xmlns:xlink="http://www.w3.org/1999/xlink">
<g id="graph0" class="graph" transform="scale(1 1) rotate(0) translate(4 112)">
<title>G</title>
<polygon fill="white" stroke="transparent" points="-4,4 -4,-112 3535.78,-112 3535.78,4 -4,4"/>
<!-- :server -->
<g id="node1" class="node">
<title>:server</title>
<ellipse fill="none" stroke="black" cx="43.55" cy="-90" rx="43.59" ry="18"/>
<text text-anchor="middle" x="43.55" y="-86.3" font-family="Times,serif" font-size="14.00">:server</text>
</g>
<!-- :core:domain -->
<g id="node2" class="node">
<title>:core:domain</title>
<ellipse fill="none" stroke="black" cx="1724.55" cy="-18" rx="70.69" ry="18"/>
<text text-anchor="middle" x="1724.55" y="-14.3" font-family="Times,serif" font-size="14.00">:core:domain</text>
</g>
<!-- :server&#45;&gt;:core:domain -->
<g id="edge1" class="edge">
<title>:server&#45;&gt;:core:domain</title>
<path fill="none" stroke="black" d="M74.86,-77.38C81.9,-75.21 89.41,-73.24 96.55,-72 398.62,-19.69 1356.83,-17.97 1643.05,-18.67"/>
<polygon fill="black" stroke="black" points="1643.34,-22.17 1653.35,-18.7 1643.36,-15.17 1643.34,-22.17"/>
</g>
<!-- :core:data -->
<g id="node3" class="node">
<title>:core:data</title>
<ellipse fill="none" stroke="black" cx="162.55" cy="-90" rx="57.39" ry="18"/>
<text text-anchor="middle" x="162.55" y="-86.3" font-family="Times,serif" font-size="14.00">:core:data</text>
</g>
<!-- :core:data&#45;&gt;:core:domain -->
<g id="edge2" class="edge">
<title>:core:data&#45;&gt;:core:domain</title>
<path fill="none" stroke="black" d="M202.75,-77.17C211.21,-75.1 220.11,-73.22 228.55,-72 505.18,-31.96 1373.18,-21.79 1643.41,-19.56"/>
<polygon fill="black" stroke="black" points="1643.56,-23.06 1653.53,-19.48 1643.5,-16.06 1643.56,-23.06"/>
</g>
<!-- :feature:lmu&#45;readout&#45;flag&#45;detail -->
<g id="node4" class="node">
<title>:feature:lmu&#45;readout&#45;flag&#45;detail</title>
<ellipse fill="none" stroke="black" cx="393.55" cy="-90" rx="155.97" ry="18"/>
<text text-anchor="middle" x="393.55" y="-86.3" font-family="Times,serif" font-size="14.00">:feature:lmu&#45;readout&#45;flag&#45;detail</text>
</g>
<!-- :feature:lmu&#45;readout&#45;flag&#45;detail&#45;&gt;:core:domain -->
<g id="edge3" class="edge">
<title>:feature:lmu&#45;readout&#45;flag&#45;detail&#45;&gt;:core:domain</title>
<path fill="none" stroke="black" d="M501.75,-76.96C520.66,-75.11 540.17,-73.36 558.55,-72 966.08,-41.77 1455.11,-26.28 1644.34,-21.06"/>
<polygon fill="black" stroke="black" points="1644.58,-24.56 1654.48,-20.79 1644.39,-17.56 1644.58,-24.56"/>
</g>
<!-- :feature:lmu&#45;readout&#45;vehicle&#45;damage&#45;detail -->
<g id="node5" class="node">
<title>:feature:lmu&#45;readout&#45;vehicle&#45;damage&#45;detail</title>
<ellipse fill="none" stroke="black" cx="778.55" cy="-90" rx="211.46" ry="18"/>
<text text-anchor="middle" x="778.55" y="-86.3" font-family="Times,serif" font-size="14.00">:feature:lmu&#45;readout&#45;vehicle&#45;damage&#45;detail</text>
</g>
<!-- :feature:lmu&#45;readout&#45;vehicle&#45;damage&#45;detail&#45;&gt;:core:domain -->
<g id="edge4" class="edge">
<title>:feature:lmu&#45;readout&#45;vehicle&#45;damage&#45;detail&#45;&gt;:core:domain</title>
<path fill="none" stroke="black" d="M928.92,-77.36C952.56,-75.55 976.71,-73.71 999.55,-72 1235.35,-54.31 1514.36,-34.12 1647.01,-24.57"/>
<polygon fill="black" stroke="black" points="1647.35,-28.06 1657.07,-23.85 1646.85,-21.07 1647.35,-28.06"/>
</g>
<!-- :feature:lmu&#45;windows&#45;connection -->
<g id="node6" class="node">
<title>:feature:lmu&#45;windows&#45;connection</title>
<ellipse fill="none" stroke="black" cx="1172.55" cy="-90" rx="164.37" ry="18"/>
<text text-anchor="middle" x="1172.55" y="-86.3" font-family="Times,serif" font-size="14.00">:feature:lmu&#45;windows&#45;connection</text>
</g>
<!-- :feature:lmu&#45;windows&#45;connection&#45;&gt;:core:domain -->
<g id="edge5" class="edge">
<title>:feature:lmu&#45;windows&#45;connection&#45;&gt;:core:domain</title>
<path fill="none" stroke="black" d="M1275.73,-75.92C1385.47,-62 1556.21,-40.35 1652.37,-28.15"/>
<polygon fill="black" stroke="black" points="1653.1,-31.59 1662.58,-26.86 1652.22,-24.64 1653.1,-31.59"/>
</g>
<!-- :feature:lmu&#45;windows&#45;narrator -->
<g id="node7" class="node">
<title>:feature:lmu&#45;windows&#45;narrator</title>
<ellipse fill="none" stroke="black" cx="1508.55" cy="-90" rx="153.27" ry="18"/>
<text text-anchor="middle" x="1508.55" y="-86.3" font-family="Times,serif" font-size="14.00">:feature:lmu&#45;windows&#45;narrator</text>
</g>
<!-- :feature:lmu&#45;windows&#45;narrator&#45;&gt;:core:domain -->
<g id="edge6" class="edge">
<title>:feature:lmu&#45;windows&#45;narrator&#45;&gt;:core:domain</title>
<path fill="none" stroke="black" d="M1558.1,-72.94C1592.34,-61.85 1637.78,-47.12 1672.54,-35.85"/>
<polygon fill="black" stroke="black" points="1674.06,-39.04 1682.5,-32.63 1671.9,-32.38 1674.06,-39.04"/>
</g>
<!-- :feature:lmu&#45;windows&#45;readout&#45;vehicle&#45;approach&#45;detail -->
<g id="node8" class="node">
<title>:feature:lmu&#45;windows&#45;readout&#45;vehicle&#45;approach&#45;detail</title>
<ellipse fill="none" stroke="black" cx="1940.55" cy="-90" rx="260.75" ry="18"/>
<text text-anchor="middle" x="1940.55" y="-86.3" font-family="Times,serif" font-size="14.00">:feature:lmu&#45;windows&#45;readout&#45;vehicle&#45;approach&#45;detail</text>
</g>
<!-- :feature:lmu&#45;windows&#45;readout&#45;vehicle&#45;approach&#45;detail&#45;&gt;:core:domain -->
<g id="edge7" class="edge">
<title>:feature:lmu&#45;windows&#45;readout&#45;vehicle&#45;approach&#45;detail&#45;&gt;:core:domain</title>
<path fill="none" stroke="black" d="M1889.08,-72.32C1855.01,-61.28 1810.49,-46.85 1776.35,-35.79"/>
<polygon fill="black" stroke="black" points="1777.15,-32.37 1766.56,-32.62 1774.99,-39.03 1777.15,-32.37"/>
</g>
<!-- :feature:other&#45;list -->
<g id="node9" class="node">
<title>:feature:other&#45;list</title>
<ellipse fill="none" stroke="black" cx="2312.55" cy="-90" rx="92.88" ry="18"/>
<text text-anchor="middle" x="2312.55" y="-86.3" font-family="Times,serif" font-size="14.00">:feature:other&#45;list</text>
</g>
<!-- :feature:other&#45;list&#45;&gt;:core:domain -->
<g id="edge8" class="edge">
<title>:feature:other&#45;list&#45;&gt;:core:domain</title>
<path fill="none" stroke="black" d="M2245.97,-77.35C2234.18,-75.44 2222.02,-73.58 2210.55,-72 2065.74,-52.05 1895.81,-34.96 1800.1,-25.9"/>
<polygon fill="black" stroke="black" points="1800.22,-22.4 1789.94,-24.95 1799.56,-29.37 1800.22,-22.4"/>
</g>
<!-- :feature:other&#45;server&#45;ip&#45;detail -->
<g id="node10" class="node">
<title>:feature:other&#45;server&#45;ip&#45;detail</title>
<ellipse fill="none" stroke="black" cx="2572.55" cy="-90" rx="148.67" ry="18"/>
<text text-anchor="middle" x="2572.55" y="-86.3" font-family="Times,serif" font-size="14.00">:feature:other&#45;server&#45;ip&#45;detail</text>
</g>
<!-- :feature:other&#45;server&#45;ip&#45;detail&#45;&gt;:core:domain -->
<g id="edge9" class="edge">
<title>:feature:other&#45;server&#45;ip&#45;detail&#45;&gt;:core:domain</title>
<path fill="none" stroke="black" d="M2467.2,-77.21C2449.63,-75.38 2431.58,-73.57 2414.55,-72 2192.65,-51.54 1930.09,-32.91 1802.27,-24.19"/>
<polygon fill="black" stroke="black" points="1802.4,-20.69 1792.18,-23.51 1801.92,-27.68 1802.4,-20.69"/>
</g>
<!-- :feature:other&#45;volume&#45;detail -->
<g id="node11" class="node">
<title>:feature:other&#45;volume&#45;detail</title>
<ellipse fill="none" stroke="black" cx="2880.55" cy="-90" rx="141.07" ry="18"/>
<text text-anchor="middle" x="2880.55" y="-86.3" font-family="Times,serif" font-size="14.00">:feature:other&#45;volume&#45;detail</text>
</g>
<!-- :feature:other&#45;volume&#45;detail&#45;&gt;:core:domain -->
<g id="edge10" class="edge">
<title>:feature:other&#45;volume&#45;detail&#45;&gt;:core:domain</title>
<path fill="none" stroke="black" d="M2782.59,-77.04C2765.27,-75.17 2747.39,-73.4 2730.55,-72 2386.58,-43.47 1975.11,-27.43 1804.61,-21.58"/>
<polygon fill="black" stroke="black" points="1804.58,-18.08 1794.47,-21.23 1804.34,-25.07 1804.58,-18.08"/>
</g>
<!-- :feature:readout&#45;list -->
<g id="node12" class="node">
<title>:feature:readout&#45;list</title>
<ellipse fill="none" stroke="black" cx="3143.55" cy="-90" rx="103.98" ry="18"/>
<text text-anchor="middle" x="3143.55" y="-86.3" font-family="Times,serif" font-size="14.00">:feature:readout&#45;list</text>
</g>
<!-- :feature:readout&#45;list&#45;&gt;:core:domain -->
<g id="edge11" class="edge">
<title>:feature:readout&#45;list&#45;&gt;:core:domain</title>
<path fill="none" stroke="black" d="M3071.65,-76.99C3058.03,-75.05 3043.88,-73.27 3030.55,-72 2568.47,-28 2011.03,-20.48 1805.61,-19.23"/>
<polygon fill="black" stroke="black" points="1805.53,-15.73 1795.51,-19.17 1805.49,-22.73 1805.53,-15.73"/>
</g>
<!-- :feature:server&#45;connection -->
<g id="node13" class="node">
<title>:feature:server&#45;connection</title>
<ellipse fill="none" stroke="black" cx="3398.55" cy="-90" rx="133.48" ry="18"/>
<text text-anchor="middle" x="3398.55" y="-86.3" font-family="Times,serif" font-size="14.00">:feature:server&#45;connection</text>
</g>
<!-- :feature:server&#45;connection&#45;&gt;:core:domain -->
<g id="edge12" class="edge">
<title>:feature:server&#45;connection&#45;&gt;:core:domain</title>
<path fill="none" stroke="black" d="M3306.99,-76.89C3290.24,-75 3272.88,-73.26 3256.55,-72 2702.86,-29.36 2033.94,-21.02 1805.51,-19.39"/>
<polygon fill="black" stroke="black" points="1805.32,-15.89 1795.29,-19.32 1805.27,-22.89 1805.32,-15.89"/>
</g>
</g>
</svg>
