<?xml version="1.0" encoding="UTF-8" standalone="no"?>
<!DOCTYPE svg PUBLIC "-//W3C//DTD SVG 1.1//EN"
 "http://www.w3.org/Graphics/SVG/1.1/DTD/svg11.dtd">
<!-- Generated by graphviz version 2.43.0 (0)
 -->
<!-- Title: G Pages: 1 -->
<svg width="975pt" height="116pt"
 viewBox="0.00 0.00 974.99 116.00" xmlns="http://www.w3.org/2000/svg" xmlns:xlink="http://www.w3.org/1999/xlink">
<g id="graph0" class="graph" transform="scale(1 1) rotate(0) translate(4 112)">
<title>G</title>
<polygon fill="white" stroke="transparent" points="-4,4 -4,-112 970.99,-112 970.99,4 -4,4"/>
<!-- :server -->
<g id="node1" class="node">
<title>:server</title>
<ellipse fill="none" stroke="black" cx="43.55" cy="-90" rx="43.59" ry="18"/>
<text text-anchor="middle" x="43.55" y="-86.3" font-family="Times,serif" font-size="14.00">:server</text>
</g>
<!-- :core:domain -->
<g id="node2" class="node">
<title>:core:domain</title>
<ellipse fill="none" stroke="black" cx="467.55" cy="-18" rx="70.69" ry="18"/>
<text text-anchor="middle" x="467.55" y="-14.3" font-family="Times,serif" font-size="14.00">:core:domain</text>
</g>
<!-- :server&#45;&gt;:core:domain -->
<g id="edge1" class="edge">
<title>:server&#45;&gt;:core:domain</title>
<path fill="none" stroke="black" d="M75.54,-77.78C82.41,-75.64 89.67,-73.58 96.55,-72 197.38,-48.8 316.09,-33.97 391.57,-26.07"/>
<polygon fill="black" stroke="black" points="392.34,-29.51 401.93,-25 391.62,-22.54 392.34,-29.51"/>
</g>
<!-- :app:androidApp -->
<g id="node3" class="node">
<title>:app:androidApp</title>
<ellipse fill="none" stroke="black" cx="192.55" cy="-90" rx="87.18" ry="18"/>
<text text-anchor="middle" x="192.55" y="-86.3" font-family="Times,serif" font-size="14.00">:app:androidApp</text>
</g>
<!-- :app:androidApp&#45;&gt;:core:domain -->
<g id="edge2" class="edge">
<title>:app:androidApp&#45;&gt;:core:domain</title>
<path fill="none" stroke="black" d="M245.24,-75.59C292.23,-63.63 360.88,-46.15 409.44,-33.79"/>
<polygon fill="black" stroke="black" points="410.35,-37.17 419.17,-31.31 408.62,-30.39 410.35,-37.17"/>
</g>
<!-- :app:desktopApp -->
<g id="node4" class="node">
<title>:app:desktopApp</title>
<ellipse fill="none" stroke="black" cx="385.55" cy="-90" rx="88.28" ry="18"/>
<text text-anchor="middle" x="385.55" y="-86.3" font-family="Times,serif" font-size="14.00">:app:desktopApp</text>
</g>
<!-- :app:desktopApp&#45;&gt;:core:domain -->
<g id="edge3" class="edge">
<title>:app:desktopApp&#45;&gt;:core:domain</title>
<path fill="none" stroke="black" d="M404.98,-72.41C415.6,-63.34 428.92,-51.97 440.54,-42.06"/>
<polygon fill="black" stroke="black" points="442.92,-44.62 448.25,-35.47 438.37,-39.3 442.92,-44.62"/>
</g>
<!-- :core:data -->
<g id="node5" class="node">
<title>:core:data</title>
<ellipse fill="none" stroke="black" cx="549.55" cy="-90" rx="57.39" ry="18"/>
<text text-anchor="middle" x="549.55" y="-86.3" font-family="Times,serif" font-size="14.00">:core:data</text>
</g>
<!-- :core:data&#45;&gt;:core:domain -->
<g id="edge4" class="edge">
<title>:core:data&#45;&gt;:core:domain</title>
<path fill="none" stroke="black" d="M530.53,-72.76C519.84,-63.64 506.33,-52.1 494.56,-42.06"/>
<polygon fill="black" stroke="black" points="496.62,-39.22 486.75,-35.39 492.08,-44.54 496.62,-39.22"/>
</g>
<!-- :feature:other -->
<g id="node6" class="node">
<title>:feature:other</title>
<ellipse fill="none" stroke="black" cx="700.55" cy="-90" rx="75.29" ry="18"/>
<text text-anchor="middle" x="700.55" y="-86.3" font-family="Times,serif" font-size="14.00">:feature:other</text>
</g>
<!-- :feature:other&#45;&gt;:core:domain -->
<g id="edge5" class="edge">
<title>:feature:other&#45;&gt;:core:domain</title>
<path fill="none" stroke="black" d="M655.62,-75.5C617.26,-63.98 562,-47.38 521.3,-35.15"/>
<polygon fill="black" stroke="black" points="522.13,-31.74 511.54,-32.22 520.11,-38.45 522.13,-31.74"/>
</g>
<!-- :feature:readout -->
<g id="node7" class="node">
<title>:feature:readout</title>
<ellipse fill="none" stroke="black" cx="880.55" cy="-90" rx="86.38" ry="18"/>
<text text-anchor="middle" x="880.55" y="-86.3" font-family="Times,serif" font-size="14.00">:feature:readout</text>
</g>
<!-- :feature:readout&#45;&gt;:core:domain -->
<g id="edge6" class="edge">
<title>:feature:readout&#45;&gt;:core:domain</title>
<path fill="none" stroke="black" d="M817.3,-77.71C806.38,-75.79 795.14,-73.82 784.55,-72 698.68,-57.22 599.63,-40.75 535.42,-30.15"/>
<polygon fill="black" stroke="black" points="535.86,-26.68 525.42,-28.5 534.72,-33.59 535.86,-26.68"/>
</g>
</g>
</svg>
