<?xml version="1.0" encoding="UTF-8" standalone="no"?>
<!DOCTYPE svg PUBLIC "-//W3C//DTD SVG 1.1//EN"
 "http://www.w3.org/Graphics/SVG/1.1/DTD/svg11.dtd">
<!-- Generated by graphviz version 2.43.0 (0)
 -->
<!-- Title: G Pages: 1 -->
<svg width="1514pt" height="116pt"
 viewBox="0.00 0.00 1514.02 116.00" xmlns="http://www.w3.org/2000/svg" xmlns:xlink="http://www.w3.org/1999/xlink">
<g id="graph0" class="graph" transform="scale(1 1) rotate(0) translate(4 112)">
<title>G</title>
<polygon fill="white" stroke="transparent" points="-4,4 -4,-112 1510.02,-112 1510.02,4 -4,4"/>
<!-- :feature:lmu&#45;readout&#45;flag&#45;detail -->
<g id="node1" class="node">
<title>:feature:lmu&#45;readout&#45;flag&#45;detail</title>
<ellipse fill="none" stroke="black" cx="155.99" cy="-90" rx="155.97" ry="18"/>
<text text-anchor="middle" x="155.99" y="-86.3" font-family="Times,serif" font-size="14.00">:feature:lmu&#45;readout&#45;flag&#45;detail</text>
</g>
<!-- :core:designsystem -->
<g id="node2" class="node">
<title>:core:designsystem</title>
<ellipse fill="none" stroke="black" cx="770.99" cy="-18" rx="100.98" ry="18"/>
<text text-anchor="middle" x="770.99" y="-14.3" font-family="Times,serif" font-size="14.00">:core:designsystem</text>
</g>
<!-- :feature:lmu&#45;readout&#45;flag&#45;detail&#45;&gt;:core:designsystem -->
<g id="edge1" class="edge">
<title>:feature:lmu&#45;readout&#45;flag&#45;detail&#45;&gt;:core:designsystem</title>
<path fill="none" stroke="black" d="M262.76,-76.85C380.17,-63.48 566.92,-42.23 678.37,-29.54"/>
<polygon fill="black" stroke="black" points="679.04,-32.99 688.58,-28.38 678.25,-26.03 679.04,-32.99"/>
</g>
<!-- :feature:lmu&#45;readout&#45;vehicle&#45;approach&#45;detail -->
<g id="node3" class="node">
<title>:feature:lmu&#45;readout&#45;vehicle&#45;approach&#45;detail</title>
<ellipse fill="none" stroke="black" cx="547.99" cy="-90" rx="217.96" ry="18"/>
<text text-anchor="middle" x="547.99" y="-86.3" font-family="Times,serif" font-size="14.00">:feature:lmu&#45;readout&#45;vehicle&#45;approach&#45;detail</text>
</g>
<!-- :feature:lmu&#45;readout&#45;vehicle&#45;approach&#45;detail&#45;&gt;:core:designsystem -->
<g id="edge2" class="edge">
<title>:feature:lmu&#45;readout&#45;vehicle&#45;approach&#45;detail&#45;&gt;:core:designsystem</title>
<path fill="none" stroke="black" d="M600.55,-72.5C634.57,-61.82 678.85,-47.92 713.75,-36.97"/>
<polygon fill="black" stroke="black" points="714.84,-40.29 723.33,-33.96 712.74,-33.61 714.84,-40.29"/>
</g>
<!-- :feature:lmu&#45;readout&#45;vehicle&#45;damage&#45;detail -->
<g id="node4" class="node">
<title>:feature:lmu&#45;readout&#45;vehicle&#45;damage&#45;detail</title>
<ellipse fill="none" stroke="black" cx="994.99" cy="-90" rx="211.46" ry="18"/>
<text text-anchor="middle" x="994.99" y="-86.3" font-family="Times,serif" font-size="14.00">:feature:lmu&#45;readout&#45;vehicle&#45;damage&#45;detail</text>
</g>
<!-- :feature:lmu&#45;readout&#45;vehicle&#45;damage&#45;detail&#45;&gt;:core:designsystem -->
<g id="edge3" class="edge">
<title>:feature:lmu&#45;readout&#45;vehicle&#45;damage&#45;detail&#45;&gt;:core:designsystem</title>
<path fill="none" stroke="black" d="M942.18,-72.5C908.02,-61.82 863.53,-47.92 828.47,-36.97"/>
<polygon fill="black" stroke="black" points="829.44,-33.6 818.85,-33.96 827.35,-40.28 829.44,-33.6"/>
</g>
<!-- :feature:other&#45;volume&#45;detail -->
<g id="node5" class="node">
<title>:feature:other&#45;volume&#45;detail</title>
<ellipse fill="none" stroke="black" cx="1364.99" cy="-90" rx="141.07" ry="18"/>
<text text-anchor="middle" x="1364.99" y="-86.3" font-family="Times,serif" font-size="14.00">:feature:other&#45;volume&#45;detail</text>
</g>
<!-- :feature:other&#45;volume&#45;detail&#45;&gt;:core:designsystem -->
<g id="edge4" class="edge">
<title>:feature:other&#45;volume&#45;detail&#45;&gt;:core:designsystem</title>
<path fill="none" stroke="black" d="M1265.23,-77.24C1152.75,-63.99 971.39,-42.62 862.44,-29.78"/>
<polygon fill="black" stroke="black" points="862.8,-26.3 852.46,-28.6 861.98,-33.25 862.8,-26.3"/>
</g>
</g>
</svg>
