<?xml version="1.0" encoding="UTF-8" standalone="no"?>
<!DOCTYPE svg PUBLIC "-//W3C//DTD SVG 1.1//EN"
 "http://www.w3.org/Graphics/SVG/1.1/DTD/svg11.dtd">
<!-- Generated by graphviz version 2.43.0 (0)
 -->
<!-- Title: G Pages: 1 -->
<svg width="5699pt" height="188pt"
 viewBox="0.00 0.00 5698.72 188.00" xmlns="http://www.w3.org/2000/svg" xmlns:xlink="http://www.w3.org/1999/xlink">
<g id="graph0" class="graph" transform="scale(1 1) rotate(0) translate(4 184)">
<title>G</title>
<polygon fill="white" stroke="transparent" points="-4,4 -4,-184 5694.72,-184 5694.72,4 -4,4"/>
<!-- :app:shared -->
<g id="node1" class="node">
<title>:app:shared</title>
<ellipse fill="none" stroke="black" cx="2315.39" cy="-162" rx="65.79" ry="18"/>
<text text-anchor="middle" x="2315.39" y="-158.3" font-family="Times,serif" font-size="14.00">:app:shared</text>
</g>
<!-- :core:designsystem -->
<g id="node2" class="node">
<title>:core:designsystem</title>
<ellipse fill="none" stroke="black" cx="2315.39" cy="-18" rx="100.98" ry="18"/>
<text text-anchor="middle" x="2315.39" y="-14.3" font-family="Times,serif" font-size="14.00">:core:designsystem</text>
</g>
<!-- :app:shared&#45;&gt;:core:designsystem -->
<g id="edge1" class="edge">
<title>:app:shared&#45;&gt;:core:designsystem</title>
<path fill="none" stroke="black" d="M2249.77,-160.74C1877.76,-159.14 48.63,-149.18 8.39,-108 -2.8,-96.56 -2.8,-83.44 8.39,-72 47.19,-32.29 1749.71,-21.61 2204.62,-19.46"/>
<polygon fill="black" stroke="black" points="2204.82,-22.96 2214.8,-19.41 2204.79,-15.96 2204.82,-22.96"/>
</g>
<!-- :feature:lmu&#45;windows&#45;narrator -->
<g id="node3" class="node">
<title>:feature:lmu&#45;windows&#45;narrator</title>
<ellipse fill="none" stroke="black" cx="170.39" cy="-90" rx="153.27" ry="18"/>
<text text-anchor="middle" x="170.39" y="-86.3" font-family="Times,serif" font-size="14.00">:feature:lmu&#45;windows&#45;narrator</text>
</g>
<!-- :app:shared&#45;&gt;:feature:lmu&#45;windows&#45;narrator -->
<g id="edge2" class="edge">
<title>:app:shared&#45;&gt;:feature:lmu&#45;windows&#45;narrator</title>
<path fill="none" stroke="black" d="M2249.43,-161.08C1999.22,-161 1084.76,-157.15 333.39,-108 317.87,-106.98 301.55,-105.63 285.47,-104.12"/>
<polygon fill="black" stroke="black" points="285.79,-100.64 275.51,-103.17 285.13,-107.61 285.79,-100.64"/>
</g>
<!-- :feature:gt7&#45;ps5&#45;narrator -->
<g id="node4" class="node">
<title>:feature:gt7&#45;ps5&#45;narrator</title>
<ellipse fill="none" stroke="black" cx="469.39" cy="-90" rx="127.28" ry="18"/>
<text text-anchor="middle" x="469.39" y="-86.3" font-family="Times,serif" font-size="14.00">:feature:gt7&#45;ps5&#45;narrator</text>
</g>
<!-- :app:shared&#45;&gt;:feature:gt7&#45;ps5&#45;narrator -->
<g id="edge3" class="edge">
<title>:app:shared&#45;&gt;:feature:gt7&#45;ps5&#45;narrator</title>
<path fill="none" stroke="black" d="M2249.64,-161.17C2021.74,-161.28 1244.64,-157.75 605.39,-108 592.94,-107.03 579.88,-105.75 566.98,-104.31"/>
<polygon fill="black" stroke="black" points="567.02,-100.79 556.69,-103.14 566.23,-107.75 567.02,-100.79"/>
</g>
<!-- :feature:other&#45;license&#45;detail -->
<g id="node5" class="node">
<title>:feature:other&#45;license&#45;detail</title>
<ellipse fill="none" stroke="black" cx="754.39" cy="-90" rx="139.98" ry="18"/>
<text text-anchor="middle" x="754.39" y="-86.3" font-family="Times,serif" font-size="14.00">:feature:other&#45;license&#45;detail</text>
</g>
<!-- :app:shared&#45;&gt;:feature:other&#45;license&#45;detail -->
<g id="edge4" class="edge">
<title>:app:shared&#45;&gt;:feature:other&#45;license&#45;detail</title>
<path fill="none" stroke="black" d="M2249.84,-160.31C2048.5,-157.82 1421.35,-147.21 903.39,-108 889.7,-106.96 875.34,-105.63 861.15,-104.18"/>
<polygon fill="black" stroke="black" points="861.18,-100.66 850.87,-103.09 860.45,-107.62 861.18,-100.66"/>
</g>
<!-- :feature:other&#45;list -->
<g id="node6" class="node">
<title>:feature:other&#45;list</title>
<ellipse fill="none" stroke="black" cx="1005.39" cy="-90" rx="92.88" ry="18"/>
<text text-anchor="middle" x="1005.39" y="-86.3" font-family="Times,serif" font-size="14.00">:feature:other&#45;list</text>
</g>
<!-- :app:shared&#45;&gt;:feature:other&#45;list -->
<g id="edge5" class="edge">
<title>:app:shared&#45;&gt;:feature:other&#45;list</title>
<path fill="none" stroke="black" d="M2249.71,-160.91C2067.7,-160.07 1541.65,-153.54 1107.39,-108 1098.47,-107.06 1089.15,-105.85 1079.93,-104.49"/>
<polygon fill="black" stroke="black" points="1080.39,-101.02 1069.98,-102.98 1079.34,-107.94 1080.39,-101.02"/>
</g>
<!-- :feature:other&#45;server&#45;ip&#45;detail -->
<g id="node7" class="node">
<title>:feature:other&#45;server&#45;ip&#45;detail</title>
<ellipse fill="none" stroke="black" cx="1265.39" cy="-90" rx="148.67" ry="18"/>
<text text-anchor="middle" x="1265.39" y="-86.3" font-family="Times,serif" font-size="14.00">:feature:other&#45;server&#45;ip&#45;detail</text>
</g>
<!-- :app:shared&#45;&gt;:feature:other&#45;server&#45;ip&#45;detail -->
<g id="edge6" class="edge">
<title>:app:shared&#45;&gt;:feature:other&#45;server&#45;ip&#45;detail</title>
<path fill="none" stroke="black" d="M2250.95,-158.23C2104.02,-151.68 1732.97,-133.84 1423.39,-108 1409.2,-106.82 1394.32,-105.42 1379.59,-103.94"/>
<polygon fill="black" stroke="black" points="1379.73,-100.44 1369.43,-102.91 1379.03,-107.4 1379.73,-100.44"/>
</g>
<!-- :feature:other&#45;console&#45;ip&#45;detail -->
<g id="node8" class="node">
<title>:feature:other&#45;console&#45;ip&#45;detail</title>
<ellipse fill="none" stroke="black" cx="1585.39" cy="-90" rx="153.27" ry="18"/>
<text text-anchor="middle" x="1585.39" y="-86.3" font-family="Times,serif" font-size="14.00">:feature:other&#45;console&#45;ip&#45;detail</text>
</g>
<!-- :app:shared&#45;&gt;:feature:other&#45;console&#45;ip&#45;detail -->
<g id="edge7" class="edge">
<title>:app:shared&#45;&gt;:feature:other&#45;console&#45;ip&#45;detail</title>
<path fill="none" stroke="black" d="M2254.01,-155.51C2149.81,-146.13 1931.69,-126.27 1747.39,-108 1733.69,-106.64 1719.34,-105.19 1705.08,-103.72"/>
<polygon fill="black" stroke="black" points="1705.04,-100.19 1694.73,-102.65 1704.32,-107.16 1705.04,-100.19"/>
</g>
<!-- :feature:other&#45;readout&#45;start&#45;sound&#45;detail -->
<g id="node9" class="node">
<title>:feature:other&#45;readout&#45;start&#45;sound&#45;detail</title>
<ellipse fill="none" stroke="black" cx="1956.39" cy="-90" rx="199.56" ry="18"/>
<text text-anchor="middle" x="1956.39" y="-86.3" font-family="Times,serif" font-size="14.00">:feature:other&#45;readout&#45;start&#45;sound&#45;detail</text>
</g>
<!-- :app:shared&#45;&gt;:feature:other&#45;readout&#45;start&#45;sound&#45;detail -->
<g id="edge8" class="edge">
<title>:app:shared&#45;&gt;:feature:other&#45;readout&#45;start&#45;sound&#45;detail</title>
<path fill="none" stroke="black" d="M2263.57,-150.9C2206.75,-139.82 2114.55,-121.84 2045.96,-108.47"/>
<polygon fill="black" stroke="black" points="2046.5,-105.01 2036.02,-106.53 2045.16,-111.88 2046.5,-105.01"/>
</g>
<!-- :feature:other&#45;volume&#45;detail -->
<g id="node10" class="node">
<title>:feature:other&#45;volume&#45;detail</title>
<ellipse fill="none" stroke="black" cx="2315.39" cy="-90" rx="141.07" ry="18"/>
<text text-anchor="middle" x="2315.39" y="-86.3" font-family="Times,serif" font-size="14.00">:feature:other&#45;volume&#45;detail</text>
</g>
<!-- :app:shared&#45;&gt;:feature:other&#45;volume&#45;detail -->
<g id="edge9" class="edge">
<title>:app:shared&#45;&gt;:feature:other&#45;volume&#45;detail</title>
<path fill="none" stroke="black" d="M2315.39,-143.7C2315.39,-135.98 2315.39,-126.71 2315.39,-118.11"/>
<polygon fill="black" stroke="black" points="2318.89,-118.1 2315.39,-108.1 2311.89,-118.1 2318.89,-118.1"/>
</g>
<!-- :feature:telemetry&#45;log&#45;list -->
<g id="node11" class="node">
<title>:feature:telemetry&#45;log&#45;list</title>
<ellipse fill="none" stroke="black" cx="2604.39" cy="-90" rx="129.98" ry="18"/>
<text text-anchor="middle" x="2604.39" y="-86.3" font-family="Times,serif" font-size="14.00">:feature:telemetry&#45;log&#45;list</text>
</g>
<!-- :app:shared&#45;&gt;:feature:telemetry&#45;log&#45;list -->
<g id="edge10" class="edge">
<title>:app:shared&#45;&gt;:feature:telemetry&#45;log&#45;list</title>
<path fill="none" stroke="black" d="M2362.79,-149.52C2408.97,-138.33 2479.79,-121.18 2532.83,-108.33"/>
<polygon fill="black" stroke="black" points="2533.96,-111.66 2542.85,-105.9 2532.31,-104.86 2533.96,-111.66"/>
</g>
<!-- :feature:telemetry&#45;log&#45;detail -->
<g id="node12" class="node">
<title>:feature:telemetry&#45;log&#45;detail</title>
<ellipse fill="none" stroke="black" cx="2894.39" cy="-90" rx="141.88" ry="18"/>
<text text-anchor="middle" x="2894.39" y="-86.3" font-family="Times,serif" font-size="14.00">:feature:telemetry&#45;log&#45;detail</text>
</g>
<!-- :app:shared&#45;&gt;:feature:telemetry&#45;log&#45;detail -->
<g id="edge11" class="edge">
<title>:app:shared&#45;&gt;:feature:telemetry&#45;log&#45;detail</title>
<path fill="none" stroke="black" d="M2374.09,-153.9C2470.43,-142.26 2663.51,-118.91 2785.46,-104.17"/>
<polygon fill="black" stroke="black" points="2786.06,-107.62 2795.57,-102.95 2785.22,-100.67 2786.06,-107.62"/>
</g>
<!-- :feature:readout&#45;list -->
<g id="node13" class="node">
<title>:feature:readout&#45;list</title>
<ellipse fill="none" stroke="black" cx="3158.39" cy="-90" rx="103.98" ry="18"/>
<text text-anchor="middle" x="3158.39" y="-86.3" font-family="Times,serif" font-size="14.00">:feature:readout&#45;list</text>
</g>
<!-- :app:shared&#45;&gt;:feature:readout&#45;list -->
<g id="edge12" class="edge">
<title>:app:shared&#45;&gt;:feature:readout&#45;list</title>
<path fill="none" stroke="black" d="M2379.5,-158C2506.74,-151.69 2800.07,-135.32 3045.39,-108 3055.07,-106.92 3065.2,-105.63 3075.25,-104.25"/>
<polygon fill="black" stroke="black" points="3075.83,-107.7 3085.25,-102.84 3074.86,-100.77 3075.83,-107.7"/>
</g>
<!-- :feature:lmu&#45;windows&#45;readout&#45;vehicle&#45;approach&#45;detail -->
<g id="node14" class="node">
<title>:feature:lmu&#45;windows&#45;readout&#45;vehicle&#45;approach&#45;detail</title>
<ellipse fill="none" stroke="black" cx="3541.39" cy="-90" rx="260.75" ry="18"/>
<text text-anchor="middle" x="3541.39" y="-86.3" font-family="Times,serif" font-size="14.00">:feature:lmu&#45;windows&#45;readout&#45;vehicle&#45;approach&#45;detail</text>
</g>
<!-- :app:shared&#45;&gt;:feature:lmu&#45;windows&#45;readout&#45;vehicle&#45;approach&#45;detail -->
<g id="edge13" class="edge">
<title>:app:shared&#45;&gt;:feature:lmu&#45;windows&#45;readout&#45;vehicle&#45;approach&#45;detail</title>
<path fill="none" stroke="black" d="M2379.17,-157.63C2532.77,-149.48 2935.37,-127.89 3271.39,-108 3295.91,-106.55 3321.69,-104.98 3347.18,-103.4"/>
<polygon fill="black" stroke="black" points="3347.54,-106.89 3357.31,-102.78 3347.11,-99.9 3347.54,-106.89"/>
</g>
<!-- :feature:lmu&#45;windows&#45;readout&#45;flag&#45;detail -->
<g id="node15" class="node">
<title>:feature:lmu&#45;windows&#45;readout&#45;flag&#45;detail</title>
<ellipse fill="none" stroke="black" cx="4019.39" cy="-90" rx="199.56" ry="18"/>
<text text-anchor="middle" x="4019.39" y="-86.3" font-family="Times,serif" font-size="14.00">:feature:lmu&#45;windows&#45;readout&#45;flag&#45;detail</text>
</g>
<!-- :app:shared&#45;&gt;:feature:lmu&#45;windows&#45;readout&#45;flag&#45;detail -->
<g id="edge14" class="edge">
<title>:app:shared&#45;&gt;:feature:lmu&#45;windows&#45;readout&#45;flag&#45;detail</title>
<path fill="none" stroke="black" d="M2380.69,-159.76C2589.32,-155.58 3258.45,-140.37 3811.39,-108 3831.13,-106.84 3851.9,-105.41 3872.37,-103.87"/>
<polygon fill="black" stroke="black" points="3872.69,-107.35 3882.39,-103.1 3872.15,-100.37 3872.69,-107.35"/>
</g>
<!-- :feature:lmu&#45;windows&#45;readout&#45;vehicle&#45;damage&#45;detail -->
<g id="node16" class="node">
<title>:feature:lmu&#45;windows&#45;readout&#45;vehicle&#45;damage&#45;detail</title>
<ellipse fill="none" stroke="black" cx="4491.39" cy="-90" rx="254.55" ry="18"/>
<text text-anchor="middle" x="4491.39" y="-86.3" font-family="Times,serif" font-size="14.00">:feature:lmu&#45;windows&#45;readout&#45;vehicle&#45;damage&#45;detail</text>
</g>
<!-- :app:shared&#45;&gt;:feature:lmu&#45;windows&#45;readout&#45;vehicle&#45;damage&#45;detail -->
<g id="edge15" class="edge">
<title>:app:shared&#45;&gt;:feature:lmu&#45;windows&#45;readout&#45;vehicle&#45;damage&#45;detail</title>
<path fill="none" stroke="black" d="M2380.66,-160.06C2624.35,-156.38 3504.03,-141.43 4228.39,-108 4253.92,-106.82 4280.83,-105.35 4307.31,-103.76"/>
<polygon fill="black" stroke="black" points="4307.66,-107.25 4317.43,-103.15 4307.24,-100.26 4307.66,-107.25"/>
</g>
<!-- :feature:gt7&#45;ps5&#45;readout&#45;my&#45;bestlap&#45;detail -->
<g id="node17" class="node">
<title>:feature:gt7&#45;ps5&#45;readout&#45;my&#45;bestlap&#45;detail</title>
<ellipse fill="none" stroke="black" cx="4972.39" cy="-90" rx="207.96" ry="18"/>
<text text-anchor="middle" x="4972.39" y="-86.3" font-family="Times,serif" font-size="14.00">:feature:gt7&#45;ps5&#45;readout&#45;my&#45;bestlap&#45;detail</text>
</g>
<!-- :app:shared&#45;&gt;:feature:gt7&#45;ps5&#45;readout&#45;my&#45;bestlap&#45;detail -->
<g id="edge16" class="edge">
<title>:app:shared&#45;&gt;:feature:gt7&#45;ps5&#45;readout&#45;my&#45;bestlap&#45;detail</title>
<path fill="none" stroke="black" d="M2380.95,-160.93C2664.48,-160.36 3813.28,-155.1 4755.39,-108 4776.66,-106.94 4799.09,-105.52 4821.13,-103.95"/>
<polygon fill="black" stroke="black" points="4821.5,-107.43 4831.22,-103.22 4820.99,-100.45 4821.5,-107.43"/>
</g>
<!-- :feature:gt7&#45;ps5&#45;readout&#45;remaining&#45;fuel&#45;laps&#45;detail -->
<g id="node18" class="node">
<title>:feature:gt7&#45;ps5&#45;readout&#45;remaining&#45;fuel&#45;laps&#45;detail</title>
<ellipse fill="none" stroke="black" cx="5444.39" cy="-90" rx="246.16" ry="18"/>
<text text-anchor="middle" x="5444.39" y="-86.3" font-family="Times,serif" font-size="14.00">:feature:gt7&#45;ps5&#45;readout&#45;remaining&#45;fuel&#45;laps&#45;detail</text>
</g>
<!-- :app:shared&#45;&gt;:feature:gt7&#45;ps5&#45;readout&#45;remaining&#45;fuel&#45;laps&#45;detail -->
<g id="edge17" class="edge">
<title>:app:shared&#45;&gt;:feature:gt7&#45;ps5&#45;readout&#45;remaining&#45;fuel&#45;laps&#45;detail</title>
<path fill="none" stroke="black" d="M2380.95,-160.96C2693.79,-160.51 4066,-155.78 5189.39,-108 5214.74,-106.92 5241.49,-105.48 5267.75,-103.88"/>
<polygon fill="black" stroke="black" points="5268.03,-107.37 5277.79,-103.26 5267.6,-100.39 5268.03,-107.37"/>
</g>
<!-- :feature:lmu&#45;windows&#45;narrator&#45;&gt;:core:designsystem -->
<g id="edge21" class="edge">
<title>:feature:lmu&#45;windows&#45;narrator&#45;&gt;:core:designsystem</title>
<path fill="none" stroke="black" d="M275.51,-76.83C294.74,-74.95 314.65,-73.23 333.39,-72 1045.33,-25.42 1903.69,-19.53 2204.67,-18.97"/>
<polygon fill="black" stroke="black" points="2204.72,-22.47 2214.71,-18.95 2204.71,-15.47 2204.72,-22.47"/>
</g>
<!-- :feature:gt7&#45;ps5&#45;narrator&#45;&gt;:core:designsystem -->
<g id="edge18" class="edge">
<title>:feature:gt7&#45;ps5&#45;narrator&#45;&gt;:core:designsystem</title>
<path fill="none" stroke="black" d="M556.69,-76.86C572.85,-74.96 589.61,-73.23 605.39,-72 1207.29,-25.16 1931.4,-19.29 2204.2,-18.86"/>
<polygon fill="black" stroke="black" points="2204.51,-22.36 2214.5,-18.84 2204.5,-15.36 2204.51,-22.36"/>
</g>
<!-- :feature:other&#45;license&#45;detail&#45;&gt;:core:designsystem -->
<g id="edge26" class="edge">
<title>:feature:other&#45;license&#45;detail&#45;&gt;:core:designsystem</title>
<path fill="none" stroke="black" d="M850.87,-76.91C868.33,-75.03 886.38,-73.29 903.39,-72 1387.49,-35.35 1966.97,-23.69 2205.04,-20.29"/>
<polygon fill="black" stroke="black" points="2205.14,-23.79 2215.09,-20.15 2205.04,-16.79 2205.14,-23.79"/>
</g>
<!-- :feature:other&#45;list&#45;&gt;:core:designsystem -->
<g id="edge27" class="edge">
<title>:feature:other&#45;list&#45;&gt;:core:designsystem</title>
<path fill="none" stroke="black" d="M1069.98,-77.02C1082.36,-75.07 1095.25,-73.27 1107.39,-72 1510,-29.77 1991.52,-21.09 2204.6,-19.38"/>
<polygon fill="black" stroke="black" points="2204.88,-22.87 2214.86,-19.3 2204.83,-15.87 2204.88,-22.87"/>
</g>
<!-- :feature:other&#45;server&#45;ip&#45;detail&#45;&gt;:core:designsystem -->
<g id="edge29" class="edge">
<title>:feature:other&#45;server&#45;ip&#45;detail&#45;&gt;:core:designsystem</title>
<path fill="none" stroke="black" d="M1369.43,-77.09C1387.41,-75.24 1405.93,-73.46 1423.39,-72 1706.7,-48.36 2041.49,-31.4 2208.87,-23.68"/>
<polygon fill="black" stroke="black" points="2209.09,-27.17 2218.92,-23.22 2208.77,-20.18 2209.09,-27.17"/>
</g>
<!-- :feature:other&#45;console&#45;ip&#45;detail&#45;&gt;:core:designsystem -->
<g id="edge25" class="edge">
<title>:feature:other&#45;console&#45;ip&#45;detail&#45;&gt;:core:designsystem</title>
<path fill="none" stroke="black" d="M1694.73,-77.35C1712.34,-75.53 1730.36,-73.69 1747.39,-72 1912.18,-55.67 2104.01,-38.06 2217.26,-27.81"/>
<polygon fill="black" stroke="black" points="2217.65,-31.29 2227.3,-26.9 2217.02,-24.32 2217.65,-31.29"/>
</g>
<!-- :feature:other&#45;readout&#45;start&#45;sound&#45;detail&#45;&gt;:core:designsystem -->
<g id="edge28" class="edge">
<title>:feature:other&#45;readout&#45;start&#45;sound&#45;detail&#45;&gt;:core:designsystem</title>
<path fill="none" stroke="black" d="M2036.06,-73.46C2096.89,-61.6 2180.14,-45.37 2239.91,-33.72"/>
<polygon fill="black" stroke="black" points="2240.89,-37.09 2250.03,-31.74 2239.55,-30.22 2240.89,-37.09"/>
</g>
<!-- :feature:other&#45;volume&#45;detail&#45;&gt;:core:designsystem -->
<g id="edge30" class="edge">
<title>:feature:other&#45;volume&#45;detail&#45;&gt;:core:designsystem</title>
<path fill="none" stroke="black" d="M2315.39,-71.7C2315.39,-63.98 2315.39,-54.71 2315.39,-46.11"/>
<polygon fill="black" stroke="black" points="2318.89,-46.1 2315.39,-36.1 2311.89,-46.1 2318.89,-46.1"/>
</g>
<!-- :feature:telemetry&#45;log&#45;list&#45;&gt;:core:designsystem -->
<g id="edge33" class="edge">
<title>:feature:telemetry&#45;log&#45;list&#45;&gt;:core:designsystem</title>
<path fill="none" stroke="black" d="M2542.74,-74.07C2495.6,-62.65 2430.68,-46.92 2382.27,-35.2"/>
<polygon fill="black" stroke="black" points="2383.06,-31.79 2372.52,-32.84 2381.41,-38.59 2383.06,-31.79"/>
</g>
<!-- :feature:telemetry&#45;log&#45;detail&#45;&gt;:core:designsystem -->
<g id="edge32" class="edge">
<title>:feature:telemetry&#45;log&#45;detail&#45;&gt;:core:designsystem</title>
<path fill="none" stroke="black" d="M2795.51,-77.05C2686.47,-63.86 2512.47,-42.83 2406.59,-30.03"/>
<polygon fill="black" stroke="black" points="2406.91,-26.54 2396.56,-28.81 2406.07,-33.49 2406.91,-26.54"/>
</g>
<!-- :feature:readout&#45;list&#45;&gt;:core:designsystem -->
<g id="edge31" class="edge">
<title>:feature:readout&#45;list&#45;&gt;:core:designsystem</title>
<path fill="none" stroke="black" d="M3085.25,-77.16C3072.01,-75.25 3058.3,-73.44 3045.39,-72 2824.01,-47.35 2563.53,-31.61 2421.3,-24.13"/>
<polygon fill="black" stroke="black" points="2421.43,-20.63 2411.26,-23.61 2421.07,-27.62 2421.43,-20.63"/>
</g>
<!-- :feature:lmu&#45;windows&#45;readout&#45;vehicle&#45;approach&#45;detail&#45;&gt;:core:designsystem -->
<g id="edge23" class="edge">
<title>:feature:lmu&#45;windows&#45;readout&#45;vehicle&#45;approach&#45;detail&#45;&gt;:core:designsystem</title>
<path fill="none" stroke="black" d="M3357.31,-77.22C3328.55,-75.44 3299.17,-73.64 3271.39,-72 2962.11,-53.69 2596.43,-33.95 2420.42,-24.56"/>
<polygon fill="black" stroke="black" points="2420.56,-21.07 2410.38,-24.03 2420.18,-28.06 2420.56,-21.07"/>
</g>
<!-- :feature:lmu&#45;windows&#45;readout&#45;flag&#45;detail&#45;&gt;:core:designsystem -->
<g id="edge22" class="edge">
<title>:feature:lmu&#45;windows&#45;readout&#45;flag&#45;detail&#45;&gt;:core:designsystem</title>
<path fill="none" stroke="black" d="M3882.39,-76.9C3858.73,-75.07 3834.35,-73.34 3811.39,-72 3292.88,-41.64 2672.19,-26.38 2424.88,-21.15"/>
<polygon fill="black" stroke="black" points="2424.88,-17.65 2414.81,-20.94 2424.73,-24.65 2424.88,-17.65"/>
</g>
<!-- :feature:lmu&#45;windows&#45;readout&#45;vehicle&#45;damage&#45;detail&#45;&gt;:core:designsystem -->
<g id="edge24" class="edge">
<title>:feature:lmu&#45;windows&#45;readout&#45;vehicle&#45;damage&#45;detail&#45;&gt;:core:designsystem</title>
<path fill="none" stroke="black" d="M4317.43,-76.85C4287.73,-75.03 4257.18,-73.33 4228.39,-72 3543.07,-40.37 2718.7,-25.28 2425.47,-20.63"/>
<polygon fill="black" stroke="black" points="2425.32,-17.13 2415.27,-20.47 2425.21,-24.13 2425.32,-17.13"/>
</g>
<!-- :feature:gt7&#45;ps5&#45;readout&#45;my&#45;bestlap&#45;detail&#45;&gt;:core:designsystem -->
<g id="edge19" class="edge">
<title>:feature:gt7&#45;ps5&#45;readout&#45;my&#45;bestlap&#45;detail&#45;&gt;:core:designsystem</title>
<path fill="none" stroke="black" d="M4831.22,-76.78C4805.98,-74.93 4779.92,-73.23 4755.39,-72 3857.27,-27.1 2771.32,-20.22 2426.22,-19.18"/>
<polygon fill="black" stroke="black" points="2425.99,-15.68 2415.98,-19.15 2425.97,-22.68 2425.99,-15.68"/>
</g>
<!-- :feature:gt7&#45;ps5&#45;readout&#45;remaining&#45;fuel&#45;laps&#45;detail&#45;&gt;:core:designsystem -->
<g id="edge20" class="edge">
<title>:feature:gt7&#45;ps5&#45;readout&#45;remaining&#45;fuel&#45;laps&#45;detail&#45;&gt;:core:designsystem</title>
<path fill="none" stroke="black" d="M5277.79,-76.74C5248.35,-74.9 5217.98,-73.22 5189.39,-72 4113.51,-26.24 2809.42,-19.97 2426.23,-19.13"/>
<polygon fill="black" stroke="black" points="2425.99,-15.62 2415.98,-19.1 2425.98,-22.62 2425.99,-15.62"/>
</g>
</g>
</svg>
