<?xml version="1.0" encoding="UTF-8" standalone="no"?>
<!DOCTYPE svg PUBLIC "-//W3C//DTD SVG 1.1//EN"
 "http://www.w3.org/Graphics/SVG/1.1/DTD/svg11.dtd">
<!-- Generated by graphviz version 2.43.0 (0)
 -->
<!-- Title: G Pages: 1 -->
<svg width="2388pt" height="116pt"
 viewBox="0.00 0.00 2387.57 116.00" xmlns="http://www.w3.org/2000/svg" xmlns:xlink="http://www.w3.org/1999/xlink">
<g id="graph0" class="graph" transform="scale(1 1) rotate(0) translate(4 112)">
<title>G</title>
<polygon fill="white" stroke="transparent" points="-4,4 -4,-112 2383.57,-112 2383.57,4 -4,4"/>
<!-- :feature:lmu&#45;windows&#45;readout&#45;flag&#45;detail -->
<g id="node1" class="node">
<title>:feature:lmu&#45;windows&#45;readout&#45;flag&#45;detail</title>
<ellipse fill="none" stroke="black" cx="199.53" cy="-90" rx="199.56" ry="18"/>
<text text-anchor="middle" x="199.53" y="-86.3" font-family="Times,serif" font-size="14.00">:feature:lmu&#45;windows&#45;readout&#45;flag&#45;detail</text>
</g>
<!-- :core:designsystem -->
<g id="node2" class="node">
<title>:core:designsystem</title>
<ellipse fill="none" stroke="black" cx="1416.53" cy="-18" rx="100.98" ry="18"/>
<text text-anchor="middle" x="1416.53" y="-14.3" font-family="Times,serif" font-size="14.00">:core:designsystem</text>
</g>
<!-- :feature:lmu&#45;windows&#45;readout&#45;flag&#45;detail&#45;&gt;:core:designsystem -->
<g id="edge1" class="edge">
<title>:feature:lmu&#45;windows&#45;readout&#45;flag&#45;detail&#45;&gt;:core:designsystem</title>
<path fill="none" stroke="black" d="M338.51,-77.08C361.55,-75.26 385.21,-73.5 407.53,-72 736.05,-49.95 1125.26,-31.74 1309.55,-23.6"/>
<polygon fill="black" stroke="black" points="1309.94,-27.08 1319.78,-23.15 1309.63,-20.09 1309.94,-27.08"/>
</g>
<!-- :feature:lmu&#45;windows&#45;readout&#45;vehicle&#45;approach&#45;detail -->
<g id="node3" class="node">
<title>:feature:lmu&#45;windows&#45;readout&#45;vehicle&#45;approach&#45;detail</title>
<ellipse fill="none" stroke="black" cx="677.53" cy="-90" rx="260.75" ry="18"/>
<text text-anchor="middle" x="677.53" y="-86.3" font-family="Times,serif" font-size="14.00">:feature:lmu&#45;windows&#45;readout&#45;vehicle&#45;approach&#45;detail</text>
</g>
<!-- :feature:lmu&#45;windows&#45;readout&#45;vehicle&#45;approach&#45;detail&#45;&gt;:core:designsystem -->
<g id="edge2" class="edge">
<title>:feature:lmu&#45;windows&#45;readout&#45;vehicle&#45;approach&#45;detail&#45;&gt;:core:designsystem</title>
<path fill="none" stroke="black" d="M824.42,-75.09C971.44,-61.16 1193.44,-40.13 1319.69,-28.17"/>
<polygon fill="black" stroke="black" points="1320.11,-31.65 1329.73,-27.22 1319.45,-24.68 1320.11,-31.65"/>
</g>
<!-- :feature:lmu&#45;windows&#45;readout&#45;vehicle&#45;damage&#45;detail -->
<g id="node4" class="node">
<title>:feature:lmu&#45;windows&#45;readout&#45;vehicle&#45;damage&#45;detail</title>
<ellipse fill="none" stroke="black" cx="1210.53" cy="-90" rx="254.55" ry="18"/>
<text text-anchor="middle" x="1210.53" y="-86.3" font-family="Times,serif" font-size="14.00">:feature:lmu&#45;windows&#45;readout&#45;vehicle&#45;damage&#45;detail</text>
</g>
<!-- :feature:lmu&#45;windows&#45;readout&#45;vehicle&#45;damage&#45;detail&#45;&gt;:core:designsystem -->
<g id="edge3" class="edge">
<title>:feature:lmu&#45;windows&#45;readout&#45;vehicle&#45;damage&#45;detail&#45;&gt;:core:designsystem</title>
<path fill="none" stroke="black" d="M1259.61,-72.32C1290.46,-61.84 1330.29,-48.31 1362.1,-37.5"/>
<polygon fill="black" stroke="black" points="1363.35,-40.77 1371.7,-34.24 1361.1,-34.14 1363.35,-40.77"/>
</g>
<!-- :feature:other&#45;license&#45;detail -->
<g id="node5" class="node">
<title>:feature:other&#45;license&#45;detail</title>
<ellipse fill="none" stroke="black" cx="1623.53" cy="-90" rx="139.98" ry="18"/>
<text text-anchor="middle" x="1623.53" y="-86.3" font-family="Times,serif" font-size="14.00">:feature:other&#45;license&#45;detail</text>
</g>
<!-- :feature:other&#45;license&#45;detail&#45;&gt;:core:designsystem -->
<g id="edge4" class="edge">
<title>:feature:other&#45;license&#45;detail&#45;&gt;:core:designsystem</title>
<path fill="none" stroke="black" d="M1576.3,-73.03C1545.05,-62.46 1503.96,-48.57 1471.28,-37.51"/>
<polygon fill="black" stroke="black" points="1472.03,-34.07 1461.43,-34.18 1469.78,-40.7 1472.03,-34.07"/>
</g>
<!-- :feature:other&#45;server&#45;ip&#45;detail -->
<g id="node6" class="node">
<title>:feature:other&#45;server&#45;ip&#45;detail</title>
<ellipse fill="none" stroke="black" cx="1930.53" cy="-90" rx="148.67" ry="18"/>
<text text-anchor="middle" x="1930.53" y="-86.3" font-family="Times,serif" font-size="14.00">:feature:other&#45;server&#45;ip&#45;detail</text>
</g>
<!-- :feature:other&#45;server&#45;ip&#45;detail&#45;&gt;:core:designsystem -->
<g id="edge5" class="edge">
<title>:feature:other&#45;server&#45;ip&#45;detail&#45;&gt;:core:designsystem</title>
<path fill="none" stroke="black" d="M1835.66,-76.08C1740.88,-63.17 1596.37,-43.49 1504.21,-30.94"/>
<polygon fill="black" stroke="black" points="1504.45,-27.44 1494.07,-29.56 1503.51,-34.38 1504.45,-27.44"/>
</g>
<!-- :feature:other&#45;volume&#45;detail -->
<g id="node7" class="node">
<title>:feature:other&#45;volume&#45;detail</title>
<ellipse fill="none" stroke="black" cx="2238.53" cy="-90" rx="141.07" ry="18"/>
<text text-anchor="middle" x="2238.53" y="-86.3" font-family="Times,serif" font-size="14.00">:feature:other&#45;volume&#45;detail</text>
</g>
<!-- :feature:other&#45;volume&#45;detail&#45;&gt;:core:designsystem -->
<g id="edge6" class="edge">
<title>:feature:other&#45;volume&#45;detail&#45;&gt;:core:designsystem</title>
<path fill="none" stroke="black" d="M2138.94,-77.23C2122.12,-75.38 2104.84,-73.57 2088.53,-72 1886.87,-52.63 1650.65,-35.22 1518.83,-25.98"/>
<polygon fill="black" stroke="black" points="1518.96,-22.48 1508.74,-25.27 1518.47,-29.46 1518.96,-22.48"/>
</g>
</g>
</svg>
