<?xml version="1.0" encoding="UTF-8" standalone="no"?>
<!DOCTYPE svg PUBLIC "-//W3C//DTD SVG 1.1//EN"
 "http://www.w3.org/Graphics/SVG/1.1/DTD/svg11.dtd">
<!-- Generated by graphviz version 2.43.0 (0)
 -->
<!-- Title: G Pages: 1 -->
<svg width="700pt" height="260pt"
 viewBox="0.00 0.00 699.74 260.00" xmlns="http://www.w3.org/2000/svg" xmlns:xlink="http://www.w3.org/1999/xlink">
<g id="graph0" class="graph" transform="scale(1 1) rotate(0) translate(4 256)">
<title>G</title>
<polygon fill="white" stroke="transparent" points="-4,4 -4,-256 695.74,-256 695.74,4 -4,4"/>
<!-- :server -->
<g id="node1" class="node">
<title>:server</title>
<ellipse fill="none" stroke="black" cx="43.55" cy="-90" rx="43.59" ry="18"/>
<text text-anchor="middle" x="43.55" y="-86.3" font-family="Times,serif" font-size="14.00">:server</text>
</g>
<!-- :core:domain -->
<g id="node2" class="node">
<title>:core:domain</title>
<ellipse fill="none" stroke="black" cx="343.55" cy="-18" rx="70.69" ry="18"/>
<text text-anchor="middle" x="343.55" y="-14.3" font-family="Times,serif" font-size="14.00">:core:domain</text>
</g>
<!-- :server&#45;&gt;:core:domain -->
<g id="edge1" class="edge">
<title>:server&#45;&gt;:core:domain</title>
<path fill="none" stroke="black" d="M77.48,-78.62C85.35,-76.34 93.72,-74 101.55,-72 161.58,-56.65 230.69,-41.79 279.65,-31.73"/>
<polygon fill="black" stroke="black" points="280.37,-35.15 289.47,-29.72 278.97,-28.3 280.37,-35.15"/>
</g>
<!-- :app:androidApp -->
<g id="node3" class="node">
<title>:app:androidApp</title>
<ellipse fill="none" stroke="black" cx="220.55" cy="-234" rx="87.18" ry="18"/>
<text text-anchor="middle" x="220.55" y="-230.3" font-family="Times,serif" font-size="14.00">:app:androidApp</text>
</g>
<!-- :app:androidApp&#45;&gt;:core:domain -->
<g id="edge3" class="edge">
<title>:app:androidApp&#45;&gt;:core:domain</title>
<path fill="none" stroke="black" d="M199.54,-216.37C163.54,-185.88 97.38,-119.77 134.55,-72 151.36,-50.39 217.23,-36.17 270.59,-27.95"/>
<polygon fill="black" stroke="black" points="271.36,-31.37 280.73,-26.43 270.32,-24.45 271.36,-31.37"/>
</g>
<!-- :app:shared -->
<g id="node4" class="node">
<title>:app:shared</title>
<ellipse fill="none" stroke="black" cx="352.55" cy="-162" rx="65.79" ry="18"/>
<text text-anchor="middle" x="352.55" y="-158.3" font-family="Times,serif" font-size="14.00">:app:shared</text>
</g>
<!-- :app:androidApp&#45;&gt;:app:shared -->
<g id="edge2" class="edge">
<title>:app:androidApp&#45;&gt;:app:shared</title>
<path fill="none" stroke="black" d="M250.83,-216.94C269.84,-206.86 294.51,-193.78 314.79,-183.02"/>
<polygon fill="black" stroke="black" points="316.57,-186.04 323.76,-178.26 313.29,-179.86 316.57,-186.04"/>
</g>
<!-- :feature:readout -->
<g id="node5" class="node">
<title>:feature:readout</title>
<ellipse fill="none" stroke="black" cx="229.55" cy="-90" rx="86.38" ry="18"/>
<text text-anchor="middle" x="229.55" y="-86.3" font-family="Times,serif" font-size="14.00">:feature:readout</text>
</g>
<!-- :app:androidApp&#45;&gt;:feature:readout -->
<g id="edge4" class="edge">
<title>:app:androidApp&#45;&gt;:feature:readout</title>
<path fill="none" stroke="black" d="M221.63,-215.87C223.17,-191.67 225.98,-147.21 227.81,-118.39"/>
<polygon fill="black" stroke="black" points="231.32,-118.39 228.46,-108.19 224.33,-117.95 231.32,-118.39"/>
</g>
<!-- :app:shared&#45;&gt;:core:domain -->
<g id="edge11" class="edge">
<title>:app:shared&#45;&gt;:core:domain</title>
<path fill="none" stroke="black" d="M351.46,-143.87C349.93,-119.67 347.11,-75.21 345.28,-46.39"/>
<polygon fill="black" stroke="black" points="348.76,-45.95 344.64,-36.19 341.78,-46.39 348.76,-45.95"/>
</g>
<!-- :app:shared&#45;&gt;:feature:readout -->
<g id="edge10" class="edge">
<title>:app:shared&#45;&gt;:feature:readout</title>
<path fill="none" stroke="black" d="M325.25,-145.46C308.1,-135.7 285.74,-122.98 266.95,-112.29"/>
<polygon fill="black" stroke="black" points="268.47,-109.13 258.05,-107.22 265.01,-115.21 268.47,-109.13"/>
</g>
<!-- :feature:other -->
<g id="node8" class="node">
<title>:feature:other</title>
<ellipse fill="none" stroke="black" cx="446.55" cy="-90" rx="75.29" ry="18"/>
<text text-anchor="middle" x="446.55" y="-86.3" font-family="Times,serif" font-size="14.00">:feature:other</text>
</g>
<!-- :app:shared&#45;&gt;:feature:other -->
<g id="edge9" class="edge">
<title>:app:shared&#45;&gt;:feature:other</title>
<path fill="none" stroke="black" d="M374.35,-144.76C386.83,-135.47 402.69,-123.66 416.36,-113.48"/>
<polygon fill="black" stroke="black" points="418.61,-116.17 424.54,-107.39 414.43,-110.56 418.61,-116.17"/>
</g>
<!-- :feature:readout&#45;&gt;:core:domain -->
<g id="edge14" class="edge">
<title>:feature:readout&#45;&gt;:core:domain</title>
<path fill="none" stroke="black" d="M255.99,-72.76C271.78,-63.07 292.02,-50.64 309.06,-40.17"/>
<polygon fill="black" stroke="black" points="310.95,-43.12 317.64,-34.91 307.29,-37.16 310.95,-43.12"/>
</g>
<!-- :app:desktopApp -->
<g id="node6" class="node">
<title>:app:desktopApp</title>
<ellipse fill="none" stroke="black" cx="485.55" cy="-234" rx="88.28" ry="18"/>
<text text-anchor="middle" x="485.55" y="-230.3" font-family="Times,serif" font-size="14.00">:app:desktopApp</text>
</g>
<!-- :app:desktopApp&#45;&gt;:core:domain -->
<g id="edge7" class="edge">
<title>:app:desktopApp&#45;&gt;:core:domain</title>
<path fill="none" stroke="black" d="M498.88,-216.18C522.04,-184.79 564.15,-116.45 530.55,-72 516.06,-52.84 459.85,-38.6 412.8,-29.73"/>
<polygon fill="black" stroke="black" points="413.39,-26.28 402.92,-27.92 412.13,-33.16 413.39,-26.28"/>
</g>
<!-- :app:desktopApp&#45;&gt;:app:shared -->
<g id="edge5" class="edge">
<title>:app:desktopApp&#45;&gt;:app:shared</title>
<path fill="none" stroke="black" d="M455.03,-216.94C435.88,-206.86 411.03,-193.78 390.59,-183.02"/>
<polygon fill="black" stroke="black" points="392.03,-179.82 381.55,-178.26 388.77,-186.02 392.03,-179.82"/>
</g>
<!-- :app:desktopApp&#45;&gt;:feature:readout -->
<g id="edge8" class="edge">
<title>:app:desktopApp&#45;&gt;:feature:readout</title>
<path fill="none" stroke="black" d="M402.93,-227.52C361.7,-221.16 313.16,-207.8 277.55,-180 257.42,-164.29 244.67,-137.71 237.41,-117.67"/>
<polygon fill="black" stroke="black" points="240.71,-116.52 234.19,-108.17 234.08,-118.76 240.71,-116.52"/>
</g>
<!-- :core:data -->
<g id="node7" class="node">
<title>:core:data</title>
<ellipse fill="none" stroke="black" cx="634.55" cy="-162" rx="57.39" ry="18"/>
<text text-anchor="middle" x="634.55" y="-158.3" font-family="Times,serif" font-size="14.00">:core:data</text>
</g>
<!-- :app:desktopApp&#45;&gt;:core:data -->
<g id="edge6" class="edge">
<title>:app:desktopApp&#45;&gt;:core:data</title>
<path fill="none" stroke="black" d="M518.98,-217.29C541.41,-206.76 571.04,-192.83 594.69,-181.72"/>
<polygon fill="black" stroke="black" points="596.2,-184.88 603.76,-177.46 593.22,-178.55 596.2,-184.88"/>
</g>
<!-- :core:data&#45;&gt;:core:domain -->
<g id="edge12" class="edge">
<title>:core:data&#45;&gt;:core:domain</title>
<path fill="none" stroke="black" d="M625.69,-144.08C614.16,-123.76 592.06,-90.15 563.55,-72 520.96,-44.89 465.7,-31.64 421.22,-25.17"/>
<polygon fill="black" stroke="black" points="421.41,-21.66 411.03,-23.78 420.47,-28.6 421.41,-21.66"/>
</g>
<!-- :feature:other&#45;&gt;:core:domain -->
<g id="edge13" class="edge">
<title>:feature:other&#45;&gt;:core:domain</title>
<path fill="none" stroke="black" d="M422.66,-72.76C408.75,-63.31 391.02,-51.26 375.88,-40.97"/>
<polygon fill="black" stroke="black" points="377.54,-37.87 367.31,-35.15 373.61,-43.66 377.54,-37.87"/>
</g>
</g>
</svg>
