<?xml version="1.0" encoding="UTF-8" standalone="no"?>
<!DOCTYPE svg PUBLIC "-//W3C//DTD SVG 1.1//EN"
 "http://www.w3.org/Graphics/SVG/1.1/DTD/svg11.dtd">
<!-- Generated by graphviz version 2.43.0 (0)
 -->
<!-- Title: G Pages: 1 -->
<svg width="1366pt" height="188pt"
 viewBox="0.00 0.00 1366.23 188.00" xmlns="http://www.w3.org/2000/svg" xmlns:xlink="http://www.w3.org/1999/xlink">
<g id="graph0" class="graph" transform="scale(1 1) rotate(0) translate(4 184)">
<title>G</title>
<polygon fill="white" stroke="transparent" points="-4,4 -4,-184 1362.23,-184 1362.23,4 -4,4"/>
<!-- :server -->
<g id="node1" class="node">
<title>:server</title>
<ellipse fill="none" stroke="black" cx="43.55" cy="-90" rx="43.59" ry="18"/>
<text text-anchor="middle" x="43.55" y="-86.3" font-family="Times,serif" font-size="14.00">:server</text>
</g>
<!-- :core:domain -->
<g id="node2" class="node">
<title>:core:domain</title>
<ellipse fill="none" stroke="black" cx="474.55" cy="-18" rx="70.69" ry="18"/>
<text text-anchor="middle" x="474.55" y="-14.3" font-family="Times,serif" font-size="14.00">:core:domain</text>
</g>
<!-- :server&#45;&gt;:core:domain -->
<g id="edge1" class="edge">
<title>:server&#45;&gt;:core:domain</title>
<path fill="none" stroke="black" d="M75.53,-77.77C82.41,-75.63 89.67,-73.57 96.55,-72 199.95,-48.35 321.82,-33.56 398.64,-25.79"/>
<polygon fill="black" stroke="black" points="399.11,-29.26 408.71,-24.78 398.41,-22.29 399.11,-29.26"/>
</g>
<!-- :app:androidApp -->
<g id="node3" class="node">
<title>:app:androidApp</title>
<ellipse fill="none" stroke="black" cx="192.55" cy="-90" rx="87.18" ry="18"/>
<text text-anchor="middle" x="192.55" y="-86.3" font-family="Times,serif" font-size="14.00">:app:androidApp</text>
</g>
<!-- :app:androidApp&#45;&gt;:core:domain -->
<g id="edge2" class="edge">
<title>:app:androidApp&#45;&gt;:core:domain</title>
<path fill="none" stroke="black" d="M245.92,-75.75C294.42,-63.71 365.84,-45.98 415.92,-33.55"/>
<polygon fill="black" stroke="black" points="416.77,-36.95 425.63,-31.14 415.09,-30.15 416.77,-36.95"/>
</g>
<!-- :app:desktopApp -->
<g id="node4" class="node">
<title>:app:desktopApp</title>
<ellipse fill="none" stroke="black" cx="349.55" cy="-162" rx="88.28" ry="18"/>
<text text-anchor="middle" x="349.55" y="-158.3" font-family="Times,serif" font-size="14.00">:app:desktopApp</text>
</g>
<!-- :app:desktopApp&#45;&gt;:core:domain -->
<g id="edge4" class="edge">
<title>:app:desktopApp&#45;&gt;:core:domain</title>
<path fill="none" stroke="black" d="M337.58,-144.11C325.67,-125.03 311.2,-93.79 326.55,-72 343.41,-48.05 372.16,-34.86 399.85,-27.63"/>
<polygon fill="black" stroke="black" points="400.67,-31.03 409.58,-25.31 399.04,-24.22 400.67,-31.03"/>
</g>
<!-- :core:data -->
<g id="node5" class="node">
<title>:core:data</title>
<ellipse fill="none" stroke="black" cx="392.55" cy="-90" rx="57.39" ry="18"/>
<text text-anchor="middle" x="392.55" y="-86.3" font-family="Times,serif" font-size="14.00">:core:data</text>
</g>
<!-- :app:desktopApp&#45;&gt;:core:data -->
<g id="edge3" class="edge">
<title>:app:desktopApp&#45;&gt;:core:data</title>
<path fill="none" stroke="black" d="M359.96,-144.05C365.03,-135.8 371.23,-125.7 376.86,-116.54"/>
<polygon fill="black" stroke="black" points="379.98,-118.14 382.23,-107.79 374.02,-114.48 379.98,-118.14"/>
</g>
<!-- :core:data&#45;&gt;:core:domain -->
<g id="edge5" class="edge">
<title>:core:data&#45;&gt;:core:domain</title>
<path fill="none" stroke="black" d="M411.56,-72.76C422.25,-63.64 435.77,-52.1 447.53,-42.06"/>
<polygon fill="black" stroke="black" points="450.01,-44.54 455.35,-35.39 445.47,-39.22 450.01,-44.54"/>
</g>
<!-- :feature:narrator -->
<g id="node6" class="node">
<title>:feature:narrator</title>
<ellipse fill="none" stroke="black" cx="556.55" cy="-90" rx="89.08" ry="18"/>
<text text-anchor="middle" x="556.55" y="-86.3" font-family="Times,serif" font-size="14.00">:feature:narrator</text>
</g>
<!-- :feature:narrator&#45;&gt;:core:domain -->
<g id="edge6" class="edge">
<title>:feature:narrator&#45;&gt;:core:domain</title>
<path fill="none" stroke="black" d="M537.11,-72.41C526.49,-63.34 513.17,-51.97 501.56,-42.06"/>
<polygon fill="black" stroke="black" points="503.72,-39.3 493.84,-35.47 499.17,-44.62 503.72,-39.3"/>
</g>
<!-- :feature:other -->
<g id="node7" class="node">
<title>:feature:other</title>
<ellipse fill="none" stroke="black" cx="738.55" cy="-90" rx="75.29" ry="18"/>
<text text-anchor="middle" x="738.55" y="-86.3" font-family="Times,serif" font-size="14.00">:feature:other</text>
</g>
<!-- :feature:other&#45;&gt;:core:domain -->
<g id="edge7" class="edge">
<title>:feature:other&#45;&gt;:core:domain</title>
<path fill="none" stroke="black" d="M690.12,-76.16C645.38,-64.3 578.86,-46.66 531.56,-34.12"/>
<polygon fill="black" stroke="black" points="532.34,-30.7 521.77,-31.52 530.54,-37.47 532.34,-30.7"/>
</g>
<!-- :feature:readout -->
<g id="node8" class="node">
<title>:feature:readout</title>
<ellipse fill="none" stroke="black" cx="918.55" cy="-90" rx="86.38" ry="18"/>
<text text-anchor="middle" x="918.55" y="-86.3" font-family="Times,serif" font-size="14.00">:feature:readout</text>
</g>
<!-- :feature:readout&#45;&gt;:core:domain -->
<g id="edge8" class="edge">
<title>:feature:readout&#45;&gt;:core:domain</title>
<path fill="none" stroke="black" d="M855.58,-77.63C844.58,-75.7 833.23,-73.76 822.55,-72 726.28,-56.15 614.74,-39.45 544.42,-29.14"/>
<polygon fill="black" stroke="black" points="544.75,-25.65 534.35,-27.66 543.73,-32.57 544.75,-25.65"/>
</g>
<!-- :feature:readout&#45;vehicle&#45;approach -->
<g id="node9" class="node">
<title>:feature:readout&#45;vehicle&#45;approach</title>
<ellipse fill="none" stroke="black" cx="1190.55" cy="-90" rx="167.87" ry="18"/>
<text text-anchor="middle" x="1190.55" y="-86.3" font-family="Times,serif" font-size="14.00">:feature:readout&#45;vehicle&#45;approach</text>
</g>
<!-- :feature:readout&#45;vehicle&#45;approach&#45;&gt;:core:domain -->
<g id="edge9" class="edge">
<title>:feature:readout&#45;vehicle&#45;approach&#45;&gt;:core:domain</title>
<path fill="none" stroke="black" d="M1071.11,-77.32C922.69,-62.81 673.89,-38.49 549.75,-26.35"/>
<polygon fill="black" stroke="black" points="549.87,-22.85 539.58,-25.36 549.19,-29.81 549.87,-22.85"/>
</g>
</g>
</svg>
