<?xml version="1.0" encoding="UTF-8" standalone="no"?>
<!DOCTYPE svg PUBLIC "-//W3C//DTD SVG 1.1//EN"
 "http://www.w3.org/Graphics/SVG/1.1/DTD/svg11.dtd">
<!-- Generated by graphviz version 2.43.0 (0)
 -->
<!-- Title: G Pages: 1 -->
<svg width="664pt" height="260pt"
 viewBox="0.00 0.00 663.74 260.00" xmlns="http://www.w3.org/2000/svg" xmlns:xlink="http://www.w3.org/1999/xlink">
<g id="graph0" class="graph" transform="scale(1 1) rotate(0) translate(4 256)">
<title>G</title>
<polygon fill="white" stroke="transparent" points="-4,4 -4,-256 659.74,-256 659.74,4 -4,4"/>
<!-- :server -->
<g id="node1" class="node">
<title>:server</title>
<ellipse fill="none" stroke="black" cx="43.55" cy="-90" rx="43.59" ry="18"/>
<text text-anchor="middle" x="43.55" y="-86.3" font-family="Times,serif" font-size="14.00">:server</text>
</g>
<!-- :core:domain -->
<g id="node2" class="node">
<title>:core:domain</title>
<ellipse fill="none" stroke="black" cx="204.55" cy="-18" rx="70.69" ry="18"/>
<text text-anchor="middle" x="204.55" y="-14.3" font-family="Times,serif" font-size="14.00">:core:domain</text>
</g>
<!-- :server&#45;&gt;:core:domain -->
<g id="edge1" class="edge">
<title>:server&#45;&gt;:core:domain</title>
<path fill="none" stroke="black" d="M72.33,-76.49C97.03,-65.74 133.01,-50.1 161.19,-37.85"/>
<polygon fill="black" stroke="black" points="162.65,-41.03 170.43,-33.83 159.86,-34.61 162.65,-41.03"/>
</g>
<!-- :app:androidApp -->
<g id="node3" class="node">
<title>:app:androidApp</title>
<ellipse fill="none" stroke="black" cx="256.55" cy="-234" rx="87.18" ry="18"/>
<text text-anchor="middle" x="256.55" y="-230.3" font-family="Times,serif" font-size="14.00">:app:androidApp</text>
</g>
<!-- :app:androidApp&#45;&gt;:core:domain -->
<g id="edge3" class="edge">
<title>:app:androidApp&#45;&gt;:core:domain</title>
<path fill="none" stroke="black" d="M224.22,-217.22C209.11,-208.28 192.16,-195.73 181.55,-180 154.36,-139.73 149.11,-118.07 164.55,-72 167.95,-61.83 174.16,-52.06 180.69,-43.73"/>
<polygon fill="black" stroke="black" points="183.49,-45.84 187.23,-35.93 178.12,-41.35 183.49,-45.84"/>
</g>
<!-- :app:shared -->
<g id="node4" class="node">
<title>:app:shared</title>
<ellipse fill="none" stroke="black" cx="256.55" cy="-162" rx="65.79" ry="18"/>
<text text-anchor="middle" x="256.55" y="-158.3" font-family="Times,serif" font-size="14.00">:app:shared</text>
</g>
<!-- :app:androidApp&#45;&gt;:app:shared -->
<g id="edge2" class="edge">
<title>:app:androidApp&#45;&gt;:app:shared</title>
<path fill="none" stroke="black" d="M256.55,-215.7C256.55,-207.98 256.55,-198.71 256.55,-190.11"/>
<polygon fill="black" stroke="black" points="260.05,-190.1 256.55,-180.1 253.05,-190.1 260.05,-190.1"/>
</g>
<!-- :feature:readout -->
<g id="node5" class="node">
<title>:feature:readout</title>
<ellipse fill="none" stroke="black" cx="436.55" cy="-90" rx="86.38" ry="18"/>
<text text-anchor="middle" x="436.55" y="-86.3" font-family="Times,serif" font-size="14.00">:feature:readout</text>
</g>
<!-- :app:androidApp&#45;&gt;:feature:readout -->
<g id="edge4" class="edge">
<title>:app:androidApp&#45;&gt;:feature:readout</title>
<path fill="none" stroke="black" d="M280.92,-216.58C295.78,-206.37 315.04,-192.79 331.55,-180 359.18,-158.59 389.53,-132.58 410.46,-114.22"/>
<polygon fill="black" stroke="black" points="412.8,-116.82 417.99,-107.59 408.17,-111.57 412.8,-116.82"/>
</g>
<!-- :app:shared&#45;&gt;:core:domain -->
<g id="edge7" class="edge">
<title>:app:shared&#45;&gt;:core:domain</title>
<path fill="none" stroke="black" d="M218.64,-147.15C201.3,-138.68 182.46,-125.97 172.55,-108 161.3,-87.61 172.33,-62.5 184.41,-44.16"/>
<polygon fill="black" stroke="black" points="187.44,-45.94 190.33,-35.75 181.71,-41.91 187.44,-45.94"/>
</g>
<!-- :app:shared&#45;&gt;:feature:readout -->
<g id="edge6" class="edge">
<title>:app:shared&#45;&gt;:feature:readout</title>
<path fill="none" stroke="black" d="M292.97,-146.83C320.41,-136.16 358.29,-121.43 388.26,-109.78"/>
<polygon fill="black" stroke="black" points="389.63,-113 397.68,-106.11 387.09,-106.48 389.63,-113"/>
</g>
<!-- :feature:other -->
<g id="node6" class="node">
<title>:feature:other</title>
<ellipse fill="none" stroke="black" cx="256.55" cy="-90" rx="75.29" ry="18"/>
<text text-anchor="middle" x="256.55" y="-86.3" font-family="Times,serif" font-size="14.00">:feature:other</text>
</g>
<!-- :app:shared&#45;&gt;:feature:other -->
<g id="edge5" class="edge">
<title>:app:shared&#45;&gt;:feature:other</title>
<path fill="none" stroke="black" d="M256.55,-143.7C256.55,-135.98 256.55,-126.71 256.55,-118.11"/>
<polygon fill="black" stroke="black" points="260.05,-118.1 256.55,-108.1 253.05,-118.1 260.05,-118.1"/>
</g>
<!-- :feature:readout&#45;&gt;:core:domain -->
<g id="edge10" class="edge">
<title>:feature:readout&#45;&gt;:core:domain</title>
<path fill="none" stroke="black" d="M389.6,-74.83C351.51,-63.34 297.82,-47.14 258.07,-35.15"/>
<polygon fill="black" stroke="black" points="258.87,-31.74 248.29,-32.2 256.85,-38.44 258.87,-31.74"/>
</g>
<!-- :feature:other&#45;&gt;:core:domain -->
<g id="edge9" class="edge">
<title>:feature:other&#45;&gt;:core:domain</title>
<path fill="none" stroke="black" d="M243.96,-72.05C237.7,-63.63 230.01,-53.28 223.09,-43.97"/>
<polygon fill="black" stroke="black" points="225.79,-41.73 217.02,-35.79 220.17,-45.9 225.79,-41.73"/>
</g>
<!-- :core:data -->
<g id="node7" class="node">
<title>:core:data</title>
<ellipse fill="none" stroke="black" cx="598.55" cy="-90" rx="57.39" ry="18"/>
<text text-anchor="middle" x="598.55" y="-86.3" font-family="Times,serif" font-size="14.00">:core:data</text>
</g>
<!-- :core:data&#45;&gt;:core:domain -->
<g id="edge8" class="edge">
<title>:core:data&#45;&gt;:core:domain</title>
<path fill="none" stroke="black" d="M556.5,-77.73C548.26,-75.69 539.65,-73.68 531.55,-72 443.84,-53.8 341.81,-38.13 275.35,-28.64"/>
<polygon fill="black" stroke="black" points="275.8,-25.17 265.41,-27.23 274.82,-32.1 275.8,-25.17"/>
</g>
</g>
</svg>
