<?xml version="1.0" encoding="UTF-8" standalone="no"?>
<!DOCTYPE svg PUBLIC "-//W3C//DTD SVG 1.1//EN"
 "http://www.w3.org/Graphics/SVG/1.1/DTD/svg11.dtd">
<!-- Generated by graphviz version 2.43.0 (0)
 -->
<!-- Title: G Pages: 1 -->
<svg width="7848pt" height="116pt"
 viewBox="0.00 0.00 7847.53 116.00" xmlns="http://www.w3.org/2000/svg" xmlns:xlink="http://www.w3.org/1999/xlink">
<g id="graph0" class="graph" transform="scale(1 1) rotate(0) translate(4 112)">
<title>G</title>
<polygon fill="white" stroke="transparent" points="-4,4 -4,-112 7843.53,-112 7843.53,4 -4,4"/>
<!-- :server -->
<g id="node1" class="node">
<title>:server</title>
<ellipse fill="none" stroke="black" cx="43.55" cy="-90" rx="43.59" ry="18"/>
<text text-anchor="middle" x="43.55" y="-86.3" font-family="Times,serif" font-size="14.00">:server</text>
</g>
<!-- :core:domain -->
<g id="node2" class="node">
<title>:core:domain</title>
<ellipse fill="none" stroke="black" cx="4099.55" cy="-18" rx="70.69" ry="18"/>
<text text-anchor="middle" x="4099.55" y="-14.3" font-family="Times,serif" font-size="14.00">:core:domain</text>
</g>
<!-- :server&#45;&gt;:core:domain -->
<g id="edge1" class="edge">
<title>:server&#45;&gt;:core:domain</title>
<path fill="none" stroke="black" d="M74.56,-77.36C81.68,-75.16 89.3,-73.18 96.55,-72 296.98,-39.28 3468.97,-22.12 4018.68,-19.39"/>
<polygon fill="black" stroke="black" points="4018.91,-22.89 4028.89,-19.34 4018.87,-15.89 4018.91,-22.89"/>
</g>
<!-- :core:data -->
<g id="node3" class="node">
<title>:core:data</title>
<ellipse fill="none" stroke="black" cx="162.55" cy="-90" rx="57.39" ry="18"/>
<text text-anchor="middle" x="162.55" y="-86.3" font-family="Times,serif" font-size="14.00">:core:data</text>
</g>
<!-- :core:data&#45;&gt;:core:domain -->
<g id="edge2" class="edge">
<title>:core:data&#45;&gt;:core:domain</title>
<path fill="none" stroke="black" d="M202.73,-77.03C211.19,-74.97 220.1,-73.13 228.55,-72 616.01,-20.2 3496.12,-18.78 4018.44,-18.95"/>
<polygon fill="black" stroke="black" points="4018.52,-22.45 4028.52,-18.95 4018.52,-15.45 4018.52,-22.45"/>
</g>
<!-- :core:gt7&#45;ps5&#45;data -->
<g id="node4" class="node">
<title>:core:gt7&#45;ps5&#45;data</title>
<ellipse fill="none" stroke="black" cx="332.55" cy="-90" rx="94.78" ry="18"/>
<text text-anchor="middle" x="332.55" y="-86.3" font-family="Times,serif" font-size="14.00">:core:gt7&#45;ps5&#45;data</text>
</g>
<!-- :core:gt7&#45;ps5&#45;data&#45;&gt;:core:domain -->
<g id="edge3" class="edge">
<title>:core:gt7&#45;ps5&#45;data&#45;&gt;:core:domain</title>
<path fill="none" stroke="black" d="M397.55,-76.86C410.43,-74.89 423.88,-73.12 436.55,-72 803.94,-39.49 3513.03,-22.38 4018.47,-19.45"/>
<polygon fill="black" stroke="black" points="4018.61,-22.95 4028.59,-19.4 4018.57,-15.95 4018.61,-22.95"/>
</g>
<!-- :core:lmu&#45;windows&#45;data -->
<g id="node5" class="node">
<title>:core:lmu&#45;windows&#45;data</title>
<ellipse fill="none" stroke="black" cx="566.55" cy="-90" rx="120.78" ry="18"/>
<text text-anchor="middle" x="566.55" y="-86.3" font-family="Times,serif" font-size="14.00">:core:lmu&#45;windows&#45;data</text>
</g>
<!-- :core:lmu&#45;windows&#45;data&#45;&gt;:core:domain -->
<g id="edge4" class="edge">
<title>:core:lmu&#45;windows&#45;data&#45;&gt;:core:domain</title>
<path fill="none" stroke="black" d="M648.93,-76.78C664.7,-74.85 681.11,-73.13 696.55,-72 1372.24,-22.72 3568.02,-19.2 4018.38,-19"/>
<polygon fill="black" stroke="black" points="4018.69,-22.5 4028.69,-19 4018.69,-15.5 4018.69,-22.5"/>
</g>
<!-- :feature:gt7&#45;ps5&#45;connection -->
<g id="node6" class="node">
<title>:feature:gt7&#45;ps5&#45;connection</title>
<ellipse fill="none" stroke="black" cx="843.55" cy="-90" rx="138.38" ry="18"/>
<text text-anchor="middle" x="843.55" y="-86.3" font-family="Times,serif" font-size="14.00">:feature:gt7&#45;ps5&#45;connection</text>
</g>
<!-- :feature:gt7&#45;ps5&#45;connection&#45;&gt;:core:domain -->
<g id="edge5" class="edge">
<title>:feature:gt7&#45;ps5&#45;connection&#45;&gt;:core:domain</title>
<path fill="none" stroke="black" d="M937.77,-76.79C955.6,-74.87 974.13,-73.15 991.55,-72 1605.66,-31.59 3592.62,-21.12 4018.65,-19.31"/>
<polygon fill="black" stroke="black" points="4018.73,-22.81 4028.72,-19.27 4018.7,-15.81 4018.73,-22.81"/>
</g>
<!-- :feature:gt7&#45;ps5&#45;narrator -->
<g id="node7" class="node">
<title>:feature:gt7&#45;ps5&#45;narrator</title>
<ellipse fill="none" stroke="black" cx="1127.55" cy="-90" rx="127.28" ry="18"/>
<text text-anchor="middle" x="1127.55" y="-86.3" font-family="Times,serif" font-size="14.00">:feature:gt7&#45;ps5&#45;narrator</text>
</g>
<!-- :feature:gt7&#45;ps5&#45;narrator&#45;&gt;:core:domain -->
<g id="edge6" class="edge">
<title>:feature:gt7&#45;ps5&#45;narrator&#45;&gt;:core:domain</title>
<path fill="none" stroke="black" d="M1214.11,-76.79C1230.5,-74.87 1247.53,-73.15 1263.55,-72 1820.39,-32.11 3615.49,-21.3 4018.66,-19.36"/>
<polygon fill="black" stroke="black" points="4018.79,-22.86 4028.77,-19.31 4018.75,-15.86 4018.79,-22.86"/>
</g>
<!-- :feature:gt7&#45;ps5&#45;readout&#45;my&#45;bestlap&#45;detail -->
<g id="node8" class="node">
<title>:feature:gt7&#45;ps5&#45;readout&#45;my&#45;bestlap&#45;detail</title>
<ellipse fill="none" stroke="black" cx="1480.55" cy="-90" rx="207.96" ry="18"/>
<text text-anchor="middle" x="1480.55" y="-86.3" font-family="Times,serif" font-size="14.00">:feature:gt7&#45;ps5&#45;readout&#45;my&#45;bestlap&#45;detail</text>
</g>
<!-- :feature:gt7&#45;ps5&#45;readout&#45;my&#45;bestlap&#45;detail&#45;&gt;:core:domain -->
<g id="edge7" class="edge">
<title>:feature:gt7&#45;ps5&#45;readout&#45;my&#45;bestlap&#45;detail&#45;&gt;:core:domain</title>
<path fill="none" stroke="black" d="M1622,-76.77C1647.15,-74.92 1673.11,-73.23 1697.55,-72 2607.87,-26.33 3714.24,-20.01 4018.69,-19.14"/>
<polygon fill="black" stroke="black" points="4018.77,-22.64 4028.76,-19.11 4018.75,-15.64 4018.77,-22.64"/>
</g>
<!-- :feature:gt7&#45;ps5&#45;readout&#45;remaining&#45;fuel&#45;laps&#45;detail -->
<g id="node9" class="node">
<title>:feature:gt7&#45;ps5&#45;readout&#45;remaining&#45;fuel&#45;laps&#45;detail</title>
<ellipse fill="none" stroke="black" cx="1952.55" cy="-90" rx="246.16" ry="18"/>
<text text-anchor="middle" x="1952.55" y="-86.3" font-family="Times,serif" font-size="14.00">:feature:gt7&#45;ps5&#45;readout&#45;remaining&#45;fuel&#45;laps&#45;detail</text>
</g>
<!-- :feature:gt7&#45;ps5&#45;readout&#45;remaining&#45;fuel&#45;laps&#45;detail&#45;&gt;:core:domain -->
<g id="edge8" class="edge">
<title>:feature:gt7&#45;ps5&#45;readout&#45;remaining&#45;fuel&#45;laps&#45;detail&#45;&gt;:core:domain</title>
<path fill="none" stroke="black" d="M2121.53,-76.86C2150.54,-75.04 2180.4,-73.33 2208.55,-72 2909.44,-38.92 3757.51,-24.14 4018.94,-20.16"/>
<polygon fill="black" stroke="black" points="4019.16,-23.65 4029.11,-20 4019.06,-16.65 4019.16,-23.65"/>
</g>
<!-- :feature:lmu&#45;windows&#45;connection -->
<g id="node10" class="node">
<title>:feature:lmu&#45;windows&#45;connection</title>
<ellipse fill="none" stroke="black" cx="2381.55" cy="-90" rx="164.37" ry="18"/>
<text text-anchor="middle" x="2381.55" y="-86.3" font-family="Times,serif" font-size="14.00">:feature:lmu&#45;windows&#45;connection</text>
</g>
<!-- :feature:lmu&#45;windows&#45;connection&#45;&gt;:core:domain -->
<g id="edge9" class="edge">
<title>:feature:lmu&#45;windows&#45;connection&#45;&gt;:core:domain</title>
<path fill="none" stroke="black" d="M2494.71,-76.9C2514.95,-75.03 2535.86,-73.3 2555.55,-72 3114.67,-35.13 3789.48,-23.14 4018.81,-19.98"/>
<polygon fill="black" stroke="black" points="4019.11,-23.47 4029.06,-19.84 4019.01,-16.47 4019.11,-23.47"/>
</g>
<!-- :feature:lmu&#45;windows&#45;narrator -->
<g id="node11" class="node">
<title>:feature:lmu&#45;windows&#45;narrator</title>
<ellipse fill="none" stroke="black" cx="2717.55" cy="-90" rx="153.27" ry="18"/>
<text text-anchor="middle" x="2717.55" y="-86.3" font-family="Times,serif" font-size="14.00">:feature:lmu&#45;windows&#45;narrator</text>
</g>
<!-- :feature:lmu&#45;windows&#45;narrator&#45;&gt;:core:domain -->
<g id="edge10" class="edge">
<title>:feature:lmu&#45;windows&#45;narrator&#45;&gt;:core:domain</title>
<path fill="none" stroke="black" d="M2823.34,-76.96C2842.05,-75.1 2861.36,-73.35 2879.55,-72 3308.46,-40.21 3823.73,-25.52 4019.14,-20.79"/>
<polygon fill="black" stroke="black" points="4019.4,-24.29 4029.32,-20.55 4019.23,-17.29 4019.4,-24.29"/>
</g>
<!-- :feature:lmu&#45;windows&#45;readout&#45;flag&#45;detail -->
<g id="node12" class="node">
<title>:feature:lmu&#45;windows&#45;readout&#45;flag&#45;detail</title>
<ellipse fill="none" stroke="black" cx="3088.55" cy="-90" rx="199.56" ry="18"/>
<text text-anchor="middle" x="3088.55" y="-86.3" font-family="Times,serif" font-size="14.00">:feature:lmu&#45;windows&#45;readout&#45;flag&#45;detail</text>
</g>
<!-- :feature:lmu&#45;windows&#45;readout&#45;flag&#45;detail&#45;&gt;:core:domain -->
<g id="edge11" class="edge">
<title>:feature:lmu&#45;windows&#45;readout&#45;flag&#45;detail&#45;&gt;:core:domain</title>
<path fill="none" stroke="black" d="M3229.22,-77.2C3251.73,-75.4 3274.78,-73.61 3296.55,-72 3562.39,-52.36 3878.01,-32.56 4021.54,-23.74"/>
<polygon fill="black" stroke="black" points="4021.81,-27.23 4031.57,-23.13 4021.38,-20.25 4021.81,-27.23"/>
</g>
<!-- :feature:lmu&#45;windows&#45;readout&#45;vehicle&#45;approach&#45;detail -->
<g id="node13" class="node">
<title>:feature:lmu&#45;windows&#45;readout&#45;vehicle&#45;approach&#45;detail</title>
<ellipse fill="none" stroke="black" cx="3566.55" cy="-90" rx="260.75" ry="18"/>
<text text-anchor="middle" x="3566.55" y="-86.3" font-family="Times,serif" font-size="14.00">:feature:lmu&#45;windows&#45;readout&#45;vehicle&#45;approach&#45;detail</text>
</g>
<!-- :feature:lmu&#45;windows&#45;readout&#45;vehicle&#45;approach&#45;detail&#45;&gt;:core:domain -->
<g id="edge12" class="edge">
<title>:feature:lmu&#45;windows&#45;readout&#45;vehicle&#45;approach&#45;detail&#45;&gt;:core:domain</title>
<path fill="none" stroke="black" d="M3681.87,-73.85C3787.09,-60.04 3939.3,-40.05 4027.97,-28.4"/>
<polygon fill="black" stroke="black" points="4028.47,-31.86 4037.93,-27.09 4027.56,-24.92 4028.47,-31.86"/>
</g>
<!-- :feature:lmu&#45;windows&#45;readout&#45;vehicle&#45;damage&#45;detail -->
<g id="node14" class="node">
<title>:feature:lmu&#45;windows&#45;readout&#45;vehicle&#45;damage&#45;detail</title>
<ellipse fill="none" stroke="black" cx="4099.55" cy="-90" rx="254.55" ry="18"/>
<text text-anchor="middle" x="4099.55" y="-86.3" font-family="Times,serif" font-size="14.00">:feature:lmu&#45;windows&#45;readout&#45;vehicle&#45;damage&#45;detail</text>
</g>
<!-- :feature:lmu&#45;windows&#45;readout&#45;vehicle&#45;damage&#45;detail&#45;&gt;:core:domain -->
<g id="edge13" class="edge">
<title>:feature:lmu&#45;windows&#45;readout&#45;vehicle&#45;damage&#45;detail&#45;&gt;:core:domain</title>
<path fill="none" stroke="black" d="M4099.55,-71.7C4099.55,-63.98 4099.55,-54.71 4099.55,-46.11"/>
<polygon fill="black" stroke="black" points="4103.05,-46.1 4099.55,-36.1 4096.05,-46.1 4103.05,-46.1"/>
</g>
<!-- :feature:main -->
<g id="node15" class="node">
<title>:feature:main</title>
<ellipse fill="none" stroke="black" cx="4445.55" cy="-90" rx="73.39" ry="18"/>
<text text-anchor="middle" x="4445.55" y="-86.3" font-family="Times,serif" font-size="14.00">:feature:main</text>
</g>
<!-- :feature:main&#45;&gt;:core:domain -->
<g id="edge14" class="edge">
<title>:feature:main&#45;&gt;:core:domain</title>
<path fill="none" stroke="black" d="M4391.3,-77.7C4382.04,-75.79 4372.52,-73.83 4363.55,-72 4295.23,-58.06 4216.92,-42.38 4163.44,-31.71"/>
<polygon fill="black" stroke="black" points="4163.91,-28.23 4153.41,-29.71 4162.54,-35.1 4163.91,-28.23"/>
</g>
<!-- :feature:other&#45;console&#45;ip&#45;detail -->
<g id="node16" class="node">
<title>:feature:other&#45;console&#45;ip&#45;detail</title>
<ellipse fill="none" stroke="black" cx="4690.55" cy="-90" rx="153.27" ry="18"/>
<text text-anchor="middle" x="4690.55" y="-86.3" font-family="Times,serif" font-size="14.00">:feature:other&#45;console&#45;ip&#45;detail</text>
</g>
<!-- :feature:other&#45;console&#45;ip&#45;detail&#45;&gt;:core:domain -->
<g id="edge15" class="edge">
<title>:feature:other&#45;console&#45;ip&#45;detail&#45;&gt;:core:domain</title>
<path fill="none" stroke="black" d="M4586.93,-76.73C4468.23,-62.67 4276.75,-39.99 4172.65,-27.66"/>
<polygon fill="black" stroke="black" points="4172.88,-24.16 4162.54,-26.46 4172.06,-31.11 4172.88,-24.16"/>
</g>
<!-- :feature:other&#45;keep&#45;screen&#45;on&#45;detail -->
<g id="node17" class="node">
<title>:feature:other&#45;keep&#45;screen&#45;on&#45;detail</title>
<ellipse fill="none" stroke="black" cx="5038.55" cy="-90" rx="176.57" ry="18"/>
<text text-anchor="middle" x="5038.55" y="-86.3" font-family="Times,serif" font-size="14.00">:feature:other&#45;keep&#45;screen&#45;on&#45;detail</text>
</g>
<!-- :feature:other&#45;keep&#45;screen&#45;on&#45;detail&#45;&gt;:core:domain -->
<g id="edge16" class="edge">
<title>:feature:other&#45;keep&#45;screen&#45;on&#45;detail&#45;&gt;:core:domain</title>
<path fill="none" stroke="black" d="M4913.76,-77.23C4893.31,-75.41 4872.34,-73.6 4852.55,-72 4606.36,-52.09 4314.55,-32.77 4177.71,-23.96"/>
<polygon fill="black" stroke="black" points="4177.54,-20.44 4167.34,-23.3 4177.09,-27.43 4177.54,-20.44"/>
</g>
<!-- :feature:other&#45;license&#45;detail -->
<g id="node18" class="node">
<title>:feature:other&#45;license&#45;detail</title>
<ellipse fill="none" stroke="black" cx="5373.55" cy="-90" rx="139.98" ry="18"/>
<text text-anchor="middle" x="5373.55" y="-86.3" font-family="Times,serif" font-size="14.00">:feature:other&#45;license&#45;detail</text>
</g>
<!-- :feature:other&#45;license&#45;detail&#45;&gt;:core:domain -->
<g id="edge17" class="edge">
<title>:feature:other&#45;license&#45;detail&#45;&gt;:core:domain</title>
<path fill="none" stroke="black" d="M5276.66,-77C5259.32,-75.12 5241.41,-73.36 5224.55,-72 4833.61,-40.52 4364.64,-25.84 4179.92,-20.95"/>
<polygon fill="black" stroke="black" points="4179.84,-17.45 4169.75,-20.68 4179.65,-24.45 4179.84,-17.45"/>
</g>
<!-- :feature:other&#45;list -->
<g id="node19" class="node">
<title>:feature:other&#45;list</title>
<ellipse fill="none" stroke="black" cx="5624.55" cy="-90" rx="92.88" ry="18"/>
<text text-anchor="middle" x="5624.55" y="-86.3" font-family="Times,serif" font-size="14.00">:feature:other&#45;list</text>
</g>
<!-- :feature:other&#45;list&#45;&gt;:core:domain -->
<g id="edge18" class="edge">
<title>:feature:other&#45;list&#45;&gt;:core:domain</title>
<path fill="none" stroke="black" d="M5560.24,-77C5547.77,-75.04 5534.78,-73.24 5522.55,-72 5013.81,-20.35 4398.2,-17.56 4180.53,-18.4"/>
<polygon fill="black" stroke="black" points="4180.45,-14.9 4170.47,-18.44 4180.48,-21.9 4180.45,-14.9"/>
</g>
<!-- :feature:other&#45;readout&#45;start&#45;sound&#45;detail -->
<g id="node20" class="node">
<title>:feature:other&#45;readout&#45;start&#45;sound&#45;detail</title>
<ellipse fill="none" stroke="black" cx="5934.55" cy="-90" rx="199.56" ry="18"/>
<text text-anchor="middle" x="5934.55" y="-86.3" font-family="Times,serif" font-size="14.00">:feature:other&#45;readout&#45;start&#45;sound&#45;detail</text>
</g>
<!-- :feature:other&#45;readout&#45;start&#45;sound&#45;detail&#45;&gt;:core:domain -->
<g id="edge19" class="edge">
<title>:feature:other&#45;readout&#45;start&#45;sound&#45;detail&#45;&gt;:core:domain</title>
<path fill="none" stroke="black" d="M5797.83,-76.87C5774.08,-75.03 5749.61,-73.32 5726.55,-72 5133.66,-38.14 4417.92,-24.16 4180.44,-20.23"/>
<polygon fill="black" stroke="black" points="4180.22,-16.73 4170.17,-20.07 4180.11,-23.73 4180.22,-16.73"/>
</g>
<!-- :feature:other&#45;server&#45;ip&#45;detail -->
<g id="node21" class="node">
<title>:feature:other&#45;server&#45;ip&#45;detail</title>
<ellipse fill="none" stroke="black" cx="6300.55" cy="-90" rx="148.67" ry="18"/>
<text text-anchor="middle" x="6300.55" y="-86.3" font-family="Times,serif" font-size="14.00">:feature:other&#45;server&#45;ip&#45;detail</text>
</g>
<!-- :feature:other&#45;server&#45;ip&#45;detail&#45;&gt;:core:domain -->
<g id="edge20" class="edge">
<title>:feature:other&#45;server&#45;ip&#45;detail&#45;&gt;:core:domain</title>
<path fill="none" stroke="black" d="M6198.89,-76.76C6180.49,-74.9 6161.46,-73.2 6143.55,-72 5381.66,-20.96 4456.98,-18.27 4181.02,-18.72"/>
<polygon fill="black" stroke="black" points="4180.69,-15.22 4170.7,-18.74 4180.71,-22.22 4180.69,-15.22"/>
</g>
<!-- :feature:other&#45;volume&#45;detail -->
<g id="node22" class="node">
<title>:feature:other&#45;volume&#45;detail</title>
<ellipse fill="none" stroke="black" cx="6608.55" cy="-90" rx="141.07" ry="18"/>
<text text-anchor="middle" x="6608.55" y="-86.3" font-family="Times,serif" font-size="14.00">:feature:other&#45;volume&#45;detail</text>
</g>
<!-- :feature:other&#45;volume&#45;detail&#45;&gt;:core:domain -->
<g id="edge21" class="edge">
<title>:feature:other&#45;volume&#45;detail&#45;&gt;:core:domain</title>
<path fill="none" stroke="black" d="M6512.24,-76.78C6494.41,-74.89 6475.93,-73.18 6458.55,-72 6001.1,-41 4539.98,-23.69 4180.18,-19.83"/>
<polygon fill="black" stroke="black" points="4180.15,-16.33 4170.11,-19.72 4180.08,-23.33 4180.15,-16.33"/>
</g>
<!-- :feature:readout&#45;list -->
<g id="node23" class="node">
<title>:feature:readout&#45;list</title>
<ellipse fill="none" stroke="black" cx="6871.55" cy="-90" rx="103.98" ry="18"/>
<text text-anchor="middle" x="6871.55" y="-86.3" font-family="Times,serif" font-size="14.00">:feature:readout&#45;list</text>
</g>
<!-- :feature:readout&#45;list&#45;&gt;:core:domain -->
<g id="edge22" class="edge">
<title>:feature:readout&#45;list&#45;&gt;:core:domain</title>
<path fill="none" stroke="black" d="M6800.28,-76.85C6786.47,-74.9 6772.09,-73.15 6758.55,-72 6239.24,-27.95 4568.11,-20.37 4180.41,-19.2"/>
<polygon fill="black" stroke="black" points="4180.41,-15.7 4170.4,-19.17 4180.39,-22.7 4180.41,-15.7"/>
</g>
<!-- :feature:server&#45;connection -->
<g id="node24" class="node">
<title>:feature:server&#45;connection</title>
<ellipse fill="none" stroke="black" cx="7126.55" cy="-90" rx="133.48" ry="18"/>
<text text-anchor="middle" x="7126.55" y="-86.3" font-family="Times,serif" font-size="14.00">:feature:server&#45;connection</text>
</g>
<!-- :feature:server&#45;connection&#45;&gt;:core:domain -->
<g id="edge23" class="edge">
<title>:feature:server&#45;connection&#45;&gt;:core:domain</title>
<path fill="none" stroke="black" d="M7035.77,-76.75C7018.78,-74.85 7001.14,-73.14 6984.55,-72 6417.36,-32.94 4587.94,-21.48 4180.49,-19.38"/>
<polygon fill="black" stroke="black" points="4180.29,-15.88 4170.27,-19.33 4180.25,-22.88 4180.29,-15.88"/>
</g>
<!-- :feature:telemetry&#45;log&#45;detail -->
<g id="node25" class="node">
<title>:feature:telemetry&#45;log&#45;detail</title>
<ellipse fill="none" stroke="black" cx="7419.55" cy="-90" rx="141.88" ry="18"/>
<text text-anchor="middle" x="7419.55" y="-86.3" font-family="Times,serif" font-size="14.00">:feature:telemetry&#45;log&#45;detail</text>
</g>
<!-- :feature:telemetry&#45;log&#45;detail&#45;&gt;:core:domain -->
<g id="edge24" class="edge">
<title>:feature:telemetry&#45;log&#45;detail&#45;&gt;:core:domain</title>
<path fill="none" stroke="black" d="M7323,-76.74C7304.93,-74.84 7286.18,-73.14 7268.55,-72 6641.65,-31.56 4612,-21.1 4180.62,-19.31"/>
<polygon fill="black" stroke="black" points="4180.44,-15.81 4170.43,-19.26 4180.41,-22.81 4180.44,-15.81"/>
</g>
<!-- :feature:telemetry&#45;log&#45;list -->
<g id="node26" class="node">
<title>:feature:telemetry&#45;log&#45;list</title>
<ellipse fill="none" stroke="black" cx="7709.55" cy="-90" rx="129.98" ry="18"/>
<text text-anchor="middle" x="7709.55" y="-86.3" font-family="Times,serif" font-size="14.00">:feature:telemetry&#45;log&#45;list</text>
</g>
<!-- :feature:telemetry&#45;log&#45;list&#45;&gt;:core:domain -->
<g id="edge25" class="edge">
<title>:feature:telemetry&#45;log&#45;list&#45;&gt;:core:domain</title>
<path fill="none" stroke="black" d="M7621.07,-76.75C7604.32,-74.84 7586.92,-73.12 7570.55,-72 6880.23,-24.65 4635.7,-19.6 4180.51,-19.06"/>
<polygon fill="black" stroke="black" points="4180.41,-15.56 4170.41,-19.05 4180.4,-22.56 4180.41,-15.56"/>
</g>
</g>
</svg>
