<?xml version="1.0" encoding="UTF-8" standalone="no"?>
<!DOCTYPE svg PUBLIC "-//W3C//DTD SVG 1.1//EN"
 "http://www.w3.org/Graphics/SVG/1.1/DTD/svg11.dtd">
<!-- Generated by graphviz version 2.43.0 (0)
 -->
<!-- Title: G Pages: 1 -->
<svg width="3626pt" height="116pt"
 viewBox="0.00 0.00 3625.78 116.00" xmlns="http://www.w3.org/2000/svg" xmlns:xlink="http://www.w3.org/1999/xlink">
<g id="graph0" class="graph" transform="scale(1 1) rotate(0) translate(4 112)">
<title>G</title>
<polygon fill="white" stroke="transparent" points="-4,4 -4,-112 3621.78,-112 3621.78,4 -4,4"/>
<!-- :server -->
<g id="node1" class="node">
<title>:server</title>
<ellipse fill="none" stroke="black" cx="43.55" cy="-90" rx="43.59" ry="18"/>
<text text-anchor="middle" x="43.55" y="-86.3" font-family="Times,serif" font-size="14.00">:server</text>
</g>
<!-- :core:domain -->
<g id="node2" class="node">
<title>:core:domain</title>
<ellipse fill="none" stroke="black" cx="1765.55" cy="-18" rx="70.69" ry="18"/>
<text text-anchor="middle" x="1765.55" y="-14.3" font-family="Times,serif" font-size="14.00">:core:domain</text>
</g>
<!-- :server&#45;&gt;:core:domain -->
<g id="edge1" class="edge">
<title>:server&#45;&gt;:core:domain</title>
<path fill="none" stroke="black" d="M74.85,-77.37C81.9,-75.2 89.4,-73.23 96.55,-72 407.1,-18.35 1394.02,-17.6 1684.42,-18.59"/>
<polygon fill="black" stroke="black" points="1684.44,-22.09 1694.46,-18.63 1684.47,-15.09 1684.44,-22.09"/>
</g>
<!-- :core:data -->
<g id="node3" class="node">
<title>:core:data</title>
<ellipse fill="none" stroke="black" cx="162.55" cy="-90" rx="57.39" ry="18"/>
<text text-anchor="middle" x="162.55" y="-86.3" font-family="Times,serif" font-size="14.00">:core:data</text>
</g>
<!-- :core:data&#45;&gt;:core:domain -->
<g id="edge2" class="edge">
<title>:core:data&#45;&gt;:core:domain</title>
<path fill="none" stroke="black" d="M202.75,-77.16C211.2,-75.09 220.11,-73.22 228.55,-72 513.59,-30.88 1409.67,-21.43 1684.56,-19.47"/>
<polygon fill="black" stroke="black" points="1684.88,-22.97 1694.85,-19.4 1684.83,-15.97 1684.88,-22.97"/>
</g>
<!-- :feature:lmu&#45;readout&#45;flag&#45;detail -->
<g id="node4" class="node">
<title>:feature:lmu&#45;readout&#45;flag&#45;detail</title>
<ellipse fill="none" stroke="black" cx="393.55" cy="-90" rx="155.97" ry="18"/>
<text text-anchor="middle" x="393.55" y="-86.3" font-family="Times,serif" font-size="14.00">:feature:lmu&#45;readout&#45;flag&#45;detail</text>
</g>
<!-- :feature:lmu&#45;readout&#45;flag&#45;detail&#45;&gt;:core:domain -->
<g id="edge3" class="edge">
<title>:feature:lmu&#45;readout&#45;flag&#45;detail&#45;&gt;:core:domain</title>
<path fill="none" stroke="black" d="M501.3,-76.98C520.36,-75.11 540.02,-73.36 558.55,-72 982.41,-40.89 1491.45,-25.82 1685.29,-20.89"/>
<polygon fill="black" stroke="black" points="1685.49,-24.39 1695.39,-20.64 1685.31,-17.39 1685.49,-24.39"/>
</g>
<!-- :feature:lmu&#45;windows&#45;connection -->
<g id="node5" class="node">
<title>:feature:lmu&#45;windows&#45;connection</title>
<ellipse fill="none" stroke="black" cx="731.55" cy="-90" rx="164.37" ry="18"/>
<text text-anchor="middle" x="731.55" y="-86.3" font-family="Times,serif" font-size="14.00">:feature:lmu&#45;windows&#45;connection</text>
</g>
<!-- :feature:lmu&#45;windows&#45;connection&#45;&gt;:core:domain -->
<g id="edge4" class="edge">
<title>:feature:lmu&#45;windows&#45;connection&#45;&gt;:core:domain</title>
<path fill="none" stroke="black" d="M847.09,-77.13C866.59,-75.29 886.64,-73.51 905.55,-72 1192.89,-49.12 1534.92,-30.65 1686.51,-22.92"/>
<polygon fill="black" stroke="black" points="1686.84,-26.41 1696.65,-22.41 1686.49,-19.42 1686.84,-26.41"/>
</g>
<!-- :feature:lmu&#45;windows&#45;narrator -->
<g id="node6" class="node">
<title>:feature:lmu&#45;windows&#45;narrator</title>
<ellipse fill="none" stroke="black" cx="1067.55" cy="-90" rx="153.27" ry="18"/>
<text text-anchor="middle" x="1067.55" y="-86.3" font-family="Times,serif" font-size="14.00">:feature:lmu&#45;windows&#45;narrator</text>
</g>
<!-- :feature:lmu&#45;windows&#45;narrator&#45;&gt;:core:domain -->
<g id="edge5" class="edge">
<title>:feature:lmu&#45;windows&#45;narrator&#45;&gt;:core:domain</title>
<path fill="none" stroke="black" d="M1177.34,-77.39C1194.8,-75.57 1212.67,-73.72 1229.55,-72 1393.85,-55.26 1586.57,-36.39 1690.29,-26.3"/>
<polygon fill="black" stroke="black" points="1690.74,-29.77 1700.35,-25.32 1690.06,-22.8 1690.74,-29.77"/>
</g>
<!-- :feature:lmu&#45;windows&#45;readout&#45;vehicle&#45;approach&#45;detail -->
<g id="node7" class="node">
<title>:feature:lmu&#45;windows&#45;readout&#45;vehicle&#45;approach&#45;detail</title>
<ellipse fill="none" stroke="black" cx="1499.55" cy="-90" rx="260.75" ry="18"/>
<text text-anchor="middle" x="1499.55" y="-86.3" font-family="Times,serif" font-size="14.00">:feature:lmu&#45;windows&#45;readout&#45;vehicle&#45;approach&#45;detail</text>
</g>
<!-- :feature:lmu&#45;windows&#45;readout&#45;vehicle&#45;approach&#45;detail&#45;&gt;:core:domain -->
<g id="edge6" class="edge">
<title>:feature:lmu&#45;windows&#45;readout&#45;vehicle&#45;approach&#45;detail&#45;&gt;:core:domain</title>
<path fill="none" stroke="black" d="M1562.25,-72.5C1606.56,-60.84 1665.49,-45.33 1708.49,-34.01"/>
<polygon fill="black" stroke="black" points="1709.46,-37.38 1718.24,-31.45 1707.68,-30.61 1709.46,-37.38"/>
</g>
<!-- :feature:lmu&#45;windows&#45;readout&#45;vehicle&#45;damage&#45;detail -->
<g id="node8" class="node">
<title>:feature:lmu&#45;windows&#45;readout&#45;vehicle&#45;damage&#45;detail</title>
<ellipse fill="none" stroke="black" cx="2032.55" cy="-90" rx="254.55" ry="18"/>
<text text-anchor="middle" x="2032.55" y="-86.3" font-family="Times,serif" font-size="14.00">:feature:lmu&#45;windows&#45;readout&#45;vehicle&#45;damage&#45;detail</text>
</g>
<!-- :feature:lmu&#45;windows&#45;readout&#45;vehicle&#45;damage&#45;detail&#45;&gt;:core:domain -->
<g id="edge7" class="edge">
<title>:feature:lmu&#45;windows&#45;readout&#45;vehicle&#45;damage&#45;detail&#45;&gt;:core:domain</title>
<path fill="none" stroke="black" d="M1969.61,-72.5C1925.13,-60.84 1865.98,-45.33 1822.81,-34.01"/>
<polygon fill="black" stroke="black" points="1823.59,-30.6 1813.03,-31.45 1821.82,-37.37 1823.59,-30.6"/>
</g>
<!-- :feature:other&#45;list -->
<g id="node9" class="node">
<title>:feature:other&#45;list</title>
<ellipse fill="none" stroke="black" cx="2398.55" cy="-90" rx="92.88" ry="18"/>
<text text-anchor="middle" x="2398.55" y="-86.3" font-family="Times,serif" font-size="14.00">:feature:other&#45;list</text>
</g>
<!-- :feature:other&#45;list&#45;&gt;:core:domain -->
<g id="edge8" class="edge">
<title>:feature:other&#45;list&#45;&gt;:core:domain</title>
<path fill="none" stroke="black" d="M2332.25,-77.3C2320.38,-75.39 2308.11,-73.54 2296.55,-72 2135.46,-50.56 1945.82,-33.62 1842.39,-25.08"/>
<polygon fill="black" stroke="black" points="1842.6,-21.58 1832.35,-24.25 1842.03,-28.56 1842.6,-21.58"/>
</g>
<!-- :feature:other&#45;server&#45;ip&#45;detail -->
<g id="node10" class="node">
<title>:feature:other&#45;server&#45;ip&#45;detail</title>
<ellipse fill="none" stroke="black" cx="2658.55" cy="-90" rx="148.67" ry="18"/>
<text text-anchor="middle" x="2658.55" y="-86.3" font-family="Times,serif" font-size="14.00">:feature:other&#45;server&#45;ip&#45;detail</text>
</g>
<!-- :feature:other&#45;server&#45;ip&#45;detail&#45;&gt;:core:domain -->
<g id="edge9" class="edge">
<title>:feature:other&#45;server&#45;ip&#45;detail&#45;&gt;:core:domain</title>
<path fill="none" stroke="black" d="M2553.64,-77.19C2535.93,-75.35 2517.72,-73.54 2500.55,-72 2261.49,-50.53 1978.06,-32.06 1843.7,-23.73"/>
<polygon fill="black" stroke="black" points="1843.7,-20.22 1833.5,-23.1 1843.27,-27.21 1843.7,-20.22"/>
</g>
<!-- :feature:other&#45;volume&#45;detail -->
<g id="node11" class="node">
<title>:feature:other&#45;volume&#45;detail</title>
<ellipse fill="none" stroke="black" cx="2966.55" cy="-90" rx="141.07" ry="18"/>
<text text-anchor="middle" x="2966.55" y="-86.3" font-family="Times,serif" font-size="14.00">:feature:other&#45;volume&#45;detail</text>
</g>
<!-- :feature:other&#45;volume&#45;detail&#45;&gt;:core:domain -->
<g id="edge10" class="edge">
<title>:feature:other&#45;volume&#45;detail&#45;&gt;:core:domain</title>
<path fill="none" stroke="black" d="M2868.6,-77.01C2851.27,-75.14 2833.39,-73.38 2816.55,-72 2454.79,-42.41 2021.55,-26.83 1845.64,-21.33"/>
<polygon fill="black" stroke="black" points="1845.54,-17.83 1835.44,-21.02 1845.33,-24.82 1845.54,-17.83"/>
</g>
<!-- :feature:readout&#45;list -->
<g id="node12" class="node">
<title>:feature:readout&#45;list</title>
<ellipse fill="none" stroke="black" cx="3229.55" cy="-90" rx="103.98" ry="18"/>
<text text-anchor="middle" x="3229.55" y="-86.3" font-family="Times,serif" font-size="14.00">:feature:readout&#45;list</text>
</g>
<!-- :feature:readout&#45;list&#45;&gt;:core:domain -->
<g id="edge11" class="edge">
<title>:feature:readout&#45;list&#45;&gt;:core:domain</title>
<path fill="none" stroke="black" d="M3157.66,-76.97C3144.04,-75.04 3129.88,-73.26 3116.55,-72 2636.3,-26.59 2056.47,-19.93 1846.43,-19.07"/>
<polygon fill="black" stroke="black" points="1846.42,-15.57 1836.41,-19.04 1846.4,-22.57 1846.42,-15.57"/>
</g>
<!-- :feature:server&#45;connection -->
<g id="node13" class="node">
<title>:feature:server&#45;connection</title>
<ellipse fill="none" stroke="black" cx="3484.55" cy="-90" rx="133.48" ry="18"/>
<text text-anchor="middle" x="3484.55" y="-86.3" font-family="Times,serif" font-size="14.00">:feature:server&#45;connection</text>
</g>
<!-- :feature:server&#45;connection&#45;&gt;:core:domain -->
<g id="edge12" class="edge">
<title>:feature:server&#45;connection&#45;&gt;:core:domain</title>
<path fill="none" stroke="black" d="M3393,-76.87C3376.24,-74.99 3358.89,-73.25 3342.55,-72 2770.62,-28.24 2079.27,-20.61 1846.47,-19.28"/>
<polygon fill="black" stroke="black" points="1846.41,-15.78 1836.4,-19.22 1846.38,-22.78 1846.41,-15.78"/>
</g>
</g>
</svg>
