<?xml version="1.0" encoding="UTF-8" standalone="no"?>
<!DOCTYPE svg PUBLIC "-//W3C//DTD SVG 1.1//EN"
 "http://www.w3.org/Graphics/SVG/1.1/DTD/svg11.dtd">
<!-- Generated by graphviz version 2.43.0 (0)
 -->
<!-- Title: G Pages: 1 -->
<svg width="974pt" height="116pt"
 viewBox="0.00 0.00 974.02 116.00" xmlns="http://www.w3.org/2000/svg" xmlns:xlink="http://www.w3.org/1999/xlink">
<g id="graph0" class="graph" transform="scale(1 1) rotate(0) translate(4 112)">
<title>G</title>
<polygon fill="white" stroke="transparent" points="-4,4 -4,-112 970.02,-112 970.02,4 -4,4"/>
<!-- :feature:readout&#45;flag&#45;detail -->
<g id="node1" class="node">
<title>:feature:readout&#45;flag&#45;detail</title>
<ellipse fill="none" stroke="black" cx="135.84" cy="-90" rx="135.68" ry="18"/>
<text text-anchor="middle" x="135.84" y="-86.3" font-family="Times,serif" font-size="14.00">:feature:readout&#45;flag&#45;detail</text>
</g>
<!-- :core:designsystem -->
<g id="node2" class="node">
<title>:core:designsystem</title>
<ellipse fill="none" stroke="black" cx="457.84" cy="-18" rx="100.98" ry="18"/>
<text text-anchor="middle" x="457.84" y="-14.3" font-family="Times,serif" font-size="14.00">:core:designsystem</text>
</g>
<!-- :feature:readout&#45;flag&#45;detail&#45;&gt;:core:designsystem -->
<g id="edge1" class="edge">
<title>:feature:readout&#45;flag&#45;detail&#45;&gt;:core:designsystem</title>
<path fill="none" stroke="black" d="M203.34,-74.33C256.99,-62.66 331.82,-46.39 386.46,-34.52"/>
<polygon fill="black" stroke="black" points="387.39,-37.9 396.41,-32.35 385.9,-31.06 387.39,-37.9"/>
</g>
<!-- :feature:readout&#45;vehicle&#45;approach -->
<g id="node3" class="node">
<title>:feature:readout&#45;vehicle&#45;approach</title>
<ellipse fill="none" stroke="black" cx="457.84" cy="-90" rx="167.87" ry="18"/>
<text text-anchor="middle" x="457.84" y="-86.3" font-family="Times,serif" font-size="14.00">:feature:readout&#45;vehicle&#45;approach</text>
</g>
<!-- :feature:readout&#45;vehicle&#45;approach&#45;&gt;:core:designsystem -->
<g id="edge2" class="edge">
<title>:feature:readout&#45;vehicle&#45;approach&#45;&gt;:core:designsystem</title>
<path fill="none" stroke="black" d="M457.84,-71.7C457.84,-63.98 457.84,-54.71 457.84,-46.11"/>
<polygon fill="black" stroke="black" points="461.34,-46.1 457.84,-36.1 454.34,-46.1 461.34,-46.1"/>
</g>
<!-- :feature:readout&#45;vehicle&#45;damage -->
<g id="node4" class="node">
<title>:feature:readout&#45;vehicle&#45;damage</title>
<ellipse fill="none" stroke="black" cx="804.84" cy="-90" rx="161.37" ry="18"/>
<text text-anchor="middle" x="804.84" y="-86.3" font-family="Times,serif" font-size="14.00">:feature:readout&#45;vehicle&#45;damage</text>
</g>
<!-- :feature:readout&#45;vehicle&#45;damage&#45;&gt;:core:designsystem -->
<g id="edge3" class="edge">
<title>:feature:readout&#45;vehicle&#45;damage&#45;&gt;:core:designsystem</title>
<path fill="none" stroke="black" d="M730.4,-73.98C671.76,-62.15 590.41,-45.74 531.88,-33.94"/>
<polygon fill="black" stroke="black" points="532.45,-30.48 521.96,-31.93 531.07,-37.34 532.45,-30.48"/>
</g>
</g>
</svg>
