<?xml version="1.0" encoding="UTF-8" standalone="no"?>
<!DOCTYPE svg PUBLIC "-//W3C//DTD SVG 1.1//EN"
 "http://www.w3.org/Graphics/SVG/1.1/DTD/svg11.dtd">
<!-- Generated by graphviz version 2.43.0 (0)
 -->
<!-- Title: G Pages: 1 -->
<svg width="3878pt" height="116pt"
 viewBox="0.00 0.00 3877.78 116.00" xmlns="http://www.w3.org/2000/svg" xmlns:xlink="http://www.w3.org/1999/xlink">
<g id="graph0" class="graph" transform="scale(1 1) rotate(0) translate(4 112)">
<title>G</title>
<polygon fill="white" stroke="transparent" points="-4,4 -4,-112 3873.78,-112 3873.78,4 -4,4"/>
<!-- :server -->
<g id="node1" class="node">
<title>:server</title>
<ellipse fill="none" stroke="black" cx="43.55" cy="-90" rx="43.59" ry="18"/>
<text text-anchor="middle" x="43.55" y="-86.3" font-family="Times,serif" font-size="14.00">:server</text>
</g>
<!-- :core:domain -->
<g id="node2" class="node">
<title>:core:domain</title>
<ellipse fill="none" stroke="black" cx="2120.55" cy="-18" rx="70.69" ry="18"/>
<text text-anchor="middle" x="2120.55" y="-14.3" font-family="Times,serif" font-size="14.00">:core:domain</text>
</g>
<!-- :server&#45;&gt;:core:domain -->
<g id="edge1" class="edge">
<title>:server&#45;&gt;:core:domain</title>
<path fill="none" stroke="black" d="M74.85,-77.34C81.89,-75.18 89.4,-73.21 96.55,-72 290.06,-39.12 1686.67,-23.27 2039.66,-19.76"/>
<polygon fill="black" stroke="black" points="2039.84,-23.26 2049.8,-19.66 2039.77,-16.26 2039.84,-23.26"/>
</g>
<!-- :core:data -->
<g id="node3" class="node">
<title>:core:data</title>
<ellipse fill="none" stroke="black" cx="162.55" cy="-90" rx="57.39" ry="18"/>
<text text-anchor="middle" x="162.55" y="-86.3" font-family="Times,serif" font-size="14.00">:core:data</text>
</g>
<!-- :core:data&#45;&gt;:core:domain -->
<g id="edge2" class="edge">
<title>:core:data&#45;&gt;:core:domain</title>
<path fill="none" stroke="black" d="M203.01,-77.21C211.69,-75.11 220.87,-73.21 229.55,-72 587.07,-22.25 1724.83,-18.86 2039.32,-18.9"/>
<polygon fill="black" stroke="black" points="2039.71,-22.4 2049.71,-18.9 2039.71,-15.4 2039.71,-22.4"/>
</g>
<!-- :feature:lmu&#45;windows&#45;connection -->
<g id="node4" class="node">
<title>:feature:lmu&#45;windows&#45;connection</title>
<ellipse fill="none" stroke="black" cx="402.55" cy="-90" rx="164.37" ry="18"/>
<text text-anchor="middle" x="402.55" y="-86.3" font-family="Times,serif" font-size="14.00">:feature:lmu&#45;windows&#45;connection</text>
</g>
<!-- :feature:lmu&#45;windows&#45;connection&#45;&gt;:core:domain -->
<g id="edge3" class="edge">
<title>:feature:lmu&#45;windows&#45;connection&#45;&gt;:core:domain</title>
<path fill="none" stroke="black" d="M515.71,-76.9C535.95,-75.03 556.86,-73.3 576.55,-72 1135.67,-35.13 1810.48,-23.14 2039.81,-19.98"/>
<polygon fill="black" stroke="black" points="2040.11,-23.47 2050.06,-19.84 2040.01,-16.47 2040.11,-23.47"/>
</g>
<!-- :feature:lmu&#45;windows&#45;narrator -->
<g id="node5" class="node">
<title>:feature:lmu&#45;windows&#45;narrator</title>
<ellipse fill="none" stroke="black" cx="738.55" cy="-90" rx="153.27" ry="18"/>
<text text-anchor="middle" x="738.55" y="-86.3" font-family="Times,serif" font-size="14.00">:feature:lmu&#45;windows&#45;narrator</text>
</g>
<!-- :feature:lmu&#45;windows&#45;narrator&#45;&gt;:core:domain -->
<g id="edge4" class="edge">
<title>:feature:lmu&#45;windows&#45;narrator&#45;&gt;:core:domain</title>
<path fill="none" stroke="black" d="M844.34,-76.96C863.05,-75.1 882.36,-73.35 900.55,-72 1329.46,-40.21 1844.73,-25.52 2040.14,-20.79"/>
<polygon fill="black" stroke="black" points="2040.4,-24.29 2050.32,-20.55 2040.23,-17.29 2040.4,-24.29"/>
</g>
<!-- :feature:lmu&#45;windows&#45;readout&#45;flag&#45;detail -->
<g id="node6" class="node">
<title>:feature:lmu&#45;windows&#45;readout&#45;flag&#45;detail</title>
<ellipse fill="none" stroke="black" cx="1109.55" cy="-90" rx="199.56" ry="18"/>
<text text-anchor="middle" x="1109.55" y="-86.3" font-family="Times,serif" font-size="14.00">:feature:lmu&#45;windows&#45;readout&#45;flag&#45;detail</text>
</g>
<!-- :feature:lmu&#45;windows&#45;readout&#45;flag&#45;detail&#45;&gt;:core:domain -->
<g id="edge5" class="edge">
<title>:feature:lmu&#45;windows&#45;readout&#45;flag&#45;detail&#45;&gt;:core:domain</title>
<path fill="none" stroke="black" d="M1250.22,-77.2C1272.73,-75.4 1295.78,-73.61 1317.55,-72 1583.39,-52.36 1899.01,-32.56 2042.54,-23.74"/>
<polygon fill="black" stroke="black" points="2042.81,-27.23 2052.57,-23.13 2042.38,-20.25 2042.81,-27.23"/>
</g>
<!-- :feature:lmu&#45;windows&#45;readout&#45;vehicle&#45;approach&#45;detail -->
<g id="node7" class="node">
<title>:feature:lmu&#45;windows&#45;readout&#45;vehicle&#45;approach&#45;detail</title>
<ellipse fill="none" stroke="black" cx="1587.55" cy="-90" rx="260.75" ry="18"/>
<text text-anchor="middle" x="1587.55" y="-86.3" font-family="Times,serif" font-size="14.00">:feature:lmu&#45;windows&#45;readout&#45;vehicle&#45;approach&#45;detail</text>
</g>
<!-- :feature:lmu&#45;windows&#45;readout&#45;vehicle&#45;approach&#45;detail&#45;&gt;:core:domain -->
<g id="edge6" class="edge">
<title>:feature:lmu&#45;windows&#45;readout&#45;vehicle&#45;approach&#45;detail&#45;&gt;:core:domain</title>
<path fill="none" stroke="black" d="M1702.87,-73.85C1808.09,-60.04 1960.3,-40.05 2048.97,-28.4"/>
<polygon fill="black" stroke="black" points="2049.47,-31.86 2058.93,-27.09 2048.56,-24.92 2049.47,-31.86"/>
</g>
<!-- :feature:lmu&#45;windows&#45;readout&#45;vehicle&#45;damage&#45;detail -->
<g id="node8" class="node">
<title>:feature:lmu&#45;windows&#45;readout&#45;vehicle&#45;damage&#45;detail</title>
<ellipse fill="none" stroke="black" cx="2120.55" cy="-90" rx="254.55" ry="18"/>
<text text-anchor="middle" x="2120.55" y="-86.3" font-family="Times,serif" font-size="14.00">:feature:lmu&#45;windows&#45;readout&#45;vehicle&#45;damage&#45;detail</text>
</g>
<!-- :feature:lmu&#45;windows&#45;readout&#45;vehicle&#45;damage&#45;detail&#45;&gt;:core:domain -->
<g id="edge7" class="edge">
<title>:feature:lmu&#45;windows&#45;readout&#45;vehicle&#45;damage&#45;detail&#45;&gt;:core:domain</title>
<path fill="none" stroke="black" d="M2120.55,-71.7C2120.55,-63.98 2120.55,-54.71 2120.55,-46.11"/>
<polygon fill="black" stroke="black" points="2124.05,-46.1 2120.55,-36.1 2117.05,-46.1 2124.05,-46.1"/>
</g>
<!-- :feature:main -->
<g id="node9" class="node">
<title>:feature:main</title>
<ellipse fill="none" stroke="black" cx="2466.55" cy="-90" rx="73.39" ry="18"/>
<text text-anchor="middle" x="2466.55" y="-86.3" font-family="Times,serif" font-size="14.00">:feature:main</text>
</g>
<!-- :feature:main&#45;&gt;:core:domain -->
<g id="edge8" class="edge">
<title>:feature:main&#45;&gt;:core:domain</title>
<path fill="none" stroke="black" d="M2412.3,-77.7C2403.04,-75.79 2393.52,-73.83 2384.55,-72 2316.23,-58.06 2237.92,-42.38 2184.44,-31.71"/>
<polygon fill="black" stroke="black" points="2184.91,-28.23 2174.41,-29.71 2183.54,-35.1 2184.91,-28.23"/>
</g>
<!-- :feature:other&#45;list -->
<g id="node10" class="node">
<title>:feature:other&#45;list</title>
<ellipse fill="none" stroke="black" cx="2650.55" cy="-90" rx="92.88" ry="18"/>
<text text-anchor="middle" x="2650.55" y="-86.3" font-family="Times,serif" font-size="14.00">:feature:other&#45;list</text>
</g>
<!-- :feature:other&#45;list&#45;&gt;:core:domain -->
<g id="edge9" class="edge">
<title>:feature:other&#45;list&#45;&gt;:core:domain</title>
<path fill="none" stroke="black" d="M2583.67,-77.44C2571.98,-75.54 2559.92,-73.65 2548.55,-72 2424.48,-53.99 2279.6,-36.86 2194.22,-27.17"/>
<polygon fill="black" stroke="black" points="2194.44,-23.67 2184.11,-26.03 2193.65,-30.63 2194.44,-23.67"/>
</g>
<!-- :feature:other&#45;server&#45;ip&#45;detail -->
<g id="node11" class="node">
<title>:feature:other&#45;server&#45;ip&#45;detail</title>
<ellipse fill="none" stroke="black" cx="2910.55" cy="-90" rx="148.67" ry="18"/>
<text text-anchor="middle" x="2910.55" y="-86.3" font-family="Times,serif" font-size="14.00">:feature:other&#45;server&#45;ip&#45;detail</text>
</g>
<!-- :feature:other&#45;server&#45;ip&#45;detail&#45;&gt;:core:domain -->
<g id="edge10" class="edge">
<title>:feature:other&#45;server&#45;ip&#45;detail&#45;&gt;:core:domain</title>
<path fill="none" stroke="black" d="M2804.77,-77.27C2787.33,-75.44 2769.44,-73.62 2752.55,-72 2552.59,-52.86 2316.67,-34.08 2197.59,-24.87"/>
<polygon fill="black" stroke="black" points="2197.72,-21.37 2187.48,-24.09 2197.18,-28.35 2197.72,-21.37"/>
</g>
<!-- :feature:other&#45;volume&#45;detail -->
<g id="node12" class="node">
<title>:feature:other&#45;volume&#45;detail</title>
<ellipse fill="none" stroke="black" cx="3218.55" cy="-90" rx="141.07" ry="18"/>
<text text-anchor="middle" x="3218.55" y="-86.3" font-family="Times,serif" font-size="14.00">:feature:other&#45;volume&#45;detail</text>
</g>
<!-- :feature:other&#45;volume&#45;detail&#45;&gt;:core:domain -->
<g id="edge11" class="edge">
<title>:feature:other&#45;volume&#45;detail&#45;&gt;:core:domain</title>
<path fill="none" stroke="black" d="M3120.19,-77.04C3102.99,-75.18 3085.26,-73.41 3068.55,-72 2747.5,-44.85 2364.06,-28.26 2200.66,-21.94"/>
<polygon fill="black" stroke="black" points="2200.35,-18.42 2190.22,-21.53 2200.08,-25.42 2200.35,-18.42"/>
</g>
<!-- :feature:readout&#45;list -->
<g id="node13" class="node">
<title>:feature:readout&#45;list</title>
<ellipse fill="none" stroke="black" cx="3481.55" cy="-90" rx="103.98" ry="18"/>
<text text-anchor="middle" x="3481.55" y="-86.3" font-family="Times,serif" font-size="14.00">:feature:readout&#45;list</text>
</g>
<!-- :feature:readout&#45;list&#45;&gt;:core:domain -->
<g id="edge12" class="edge">
<title>:feature:readout&#45;list&#45;&gt;:core:domain</title>
<path fill="none" stroke="black" d="M3409.35,-76.96C3395.82,-75.04 3381.78,-73.27 3368.55,-72 2929.61,-29.78 2400.59,-21.19 2201.53,-19.45"/>
<polygon fill="black" stroke="black" points="2201.47,-15.95 2191.44,-19.36 2201.41,-22.95 2201.47,-15.95"/>
</g>
<!-- :feature:server&#45;connection -->
<g id="node14" class="node">
<title>:feature:server&#45;connection</title>
<ellipse fill="none" stroke="black" cx="3736.55" cy="-90" rx="133.48" ry="18"/>
<text text-anchor="middle" x="3736.55" y="-86.3" font-family="Times,serif" font-size="14.00">:feature:server&#45;connection</text>
</g>
<!-- :feature:server&#45;connection&#45;&gt;:core:domain -->
<g id="edge13" class="edge">
<title>:feature:server&#45;connection&#45;&gt;:core:domain</title>
<path fill="none" stroke="black" d="M3644.99,-76.91C3628.24,-75.01 3610.88,-73.27 3594.55,-72 3064.28,-30.8 2424.17,-21.57 2201.52,-19.55"/>
<polygon fill="black" stroke="black" points="2201.27,-16.05 2191.24,-19.46 2201.2,-23.05 2201.27,-16.05"/>
</g>
</g>
</svg>
