<?xml version="1.0" encoding="UTF-8" standalone="no"?>
<!DOCTYPE svg PUBLIC "-//W3C//DTD SVG 1.1//EN"
 "http://www.w3.org/Graphics/SVG/1.1/DTD/svg11.dtd">
<!-- Generated by graphviz version 2.43.0 (0)
 -->
<!-- Title: G Pages: 1 -->
<svg width="574pt" height="116pt"
 viewBox="0.00 0.00 574.28 116.00" xmlns="http://www.w3.org/2000/svg" xmlns:xlink="http://www.w3.org/1999/xlink">
<g id="graph0" class="graph" transform="scale(1 1) rotate(0) translate(4 112)">
<title>G</title>
<polygon fill="white" stroke="transparent" points="-4,4 -4,-112 570.28,-112 570.28,4 -4,4"/>
<!-- :feature:readout&#45;flag -->
<g id="node1" class="node">
<title>:feature:readout&#45;flag</title>
<ellipse fill="none" stroke="black" cx="106.59" cy="-90" rx="106.68" ry="18"/>
<text text-anchor="middle" x="106.59" y="-86.3" font-family="Times,serif" font-size="14.00">:feature:readout&#45;flag</text>
</g>
<!-- :core:designsystem -->
<g id="node2" class="node">
<title>:core:designsystem</title>
<ellipse fill="none" stroke="black" cx="252.59" cy="-18" rx="100.98" ry="18"/>
<text text-anchor="middle" x="252.59" y="-14.3" font-family="Times,serif" font-size="14.00">:core:designsystem</text>
</g>
<!-- :feature:readout&#45;flag&#45;&gt;:core:designsystem -->
<g id="edge1" class="edge">
<title>:feature:readout&#45;flag&#45;&gt;:core:designsystem</title>
<path fill="none" stroke="black" d="M140.45,-72.76C161.16,-62.83 187.84,-50.04 209.98,-39.43"/>
<polygon fill="black" stroke="black" points="211.66,-42.51 219.16,-35.03 208.63,-36.19 211.66,-42.51"/>
</g>
<!-- :feature:readout&#45;vehicle&#45;approach -->
<g id="node3" class="node">
<title>:feature:readout&#45;vehicle&#45;approach</title>
<ellipse fill="none" stroke="black" cx="398.59" cy="-90" rx="167.87" ry="18"/>
<text text-anchor="middle" x="398.59" y="-86.3" font-family="Times,serif" font-size="14.00">:feature:readout&#45;vehicle&#45;approach</text>
</g>
<!-- :feature:readout&#45;vehicle&#45;approach&#45;&gt;:core:designsystem -->
<g id="edge2" class="edge">
<title>:feature:readout&#45;vehicle&#45;approach&#45;&gt;:core:designsystem</title>
<path fill="none" stroke="black" d="M363.62,-72.23C343.03,-62.36 316.83,-49.8 295.05,-39.36"/>
<polygon fill="black" stroke="black" points="296.55,-36.2 286.02,-35.03 293.52,-42.51 296.55,-36.2"/>
</g>
</g>
</svg>
