<?xml version="1.0" encoding="UTF-8" standalone="no"?>
<!DOCTYPE svg PUBLIC "-//W3C//DTD SVG 1.1//EN"
 "http://www.w3.org/Graphics/SVG/1.1/DTD/svg11.dtd">
<!-- Generated by graphviz version 14.1.5 (20260411.2331)
 -->
<!-- Title: G Pages: 1 -->
<svg width="1879pt" height="188pt"
 viewBox="0.00 0.00 1879.00 188.00" xmlns="http://www.w3.org/2000/svg" xmlns:xlink="http://www.w3.org/1999/xlink">
<g id="graph0" class="graph" transform="scale(1 1) rotate(0) translate(4 184)">
<title>G</title>
<polygon fill="white" stroke="none" points="-4,4 -4,-184 1875.19,-184 1875.19,4 -4,4"/>
<!-- :server -->
<g id="node1" class="node">
<title>:server</title>
<ellipse fill="none" stroke="black" cx="36" cy="-90" rx="36" ry="18"/>
<text xml:space="preserve" text-anchor="middle" x="36" y="-84.95" font-family="Times,serif" font-size="14.00">:server</text>
</g>
<!-- :core:domain -->
<g id="node2" class="node">
<title>:core:domain</title>
<ellipse fill="none" stroke="black" cx="702" cy="-18" rx="60.05" ry="18"/>
<text xml:space="preserve" text-anchor="middle" x="702" y="-12.95" font-family="Times,serif" font-size="14.00">:core:domain</text>
</g>
<!-- :server&#45;&gt;:core:domain -->
<g id="edge1" class="edge">
<title>:server&#45;&gt;:core:domain</title>
<path fill="none" stroke="black" d="M63.96,-78.17C71.05,-75.79 78.73,-73.52 86,-72 279.99,-31.3 514.63,-21.74 630.34,-19.57"/>
<polygon fill="black" stroke="black" points="630.38,-23.07 640.32,-19.4 630.26,-16.07 630.38,-23.07"/>
</g>
<!-- :app:desktopApp -->
<g id="node3" class="node">
<title>:app:desktopApp</title>
<ellipse fill="none" stroke="black" cx="137" cy="-162" rx="73.87" ry="18"/>
<text xml:space="preserve" text-anchor="middle" x="137" y="-156.95" font-family="Times,serif" font-size="14.00">:app:desktopApp</text>
</g>
<!-- :app:desktopApp&#45;&gt;:core:domain -->
<g id="edge3" class="edge">
<title>:app:desktopApp&#45;&gt;:core:domain</title>
<path fill="none" stroke="black" d="M125.95,-143.97C114.63,-124.16 101.03,-91.67 119,-72 152.9,-34.88 482.61,-23.48 630.66,-20.22"/>
<polygon fill="black" stroke="black" points="630.41,-23.72 640.34,-20.01 630.27,-16.72 630.41,-23.72"/>
</g>
<!-- :core:data -->
<g id="node4" class="node">
<title>:core:data</title>
<ellipse fill="none" stroke="black" cx="175" cy="-90" rx="47.26" ry="18"/>
<text xml:space="preserve" text-anchor="middle" x="175" y="-84.95" font-family="Times,serif" font-size="14.00">:core:data</text>
</g>
<!-- :app:desktopApp&#45;&gt;:core:data -->
<g id="edge2" class="edge">
<title>:app:desktopApp&#45;&gt;:core:data</title>
<path fill="none" stroke="black" d="M146.39,-143.7C150.58,-135.98 155.61,-126.71 160.28,-118.11"/>
<polygon fill="black" stroke="black" points="163.29,-119.89 164.99,-109.43 157.14,-116.55 163.29,-119.89"/>
</g>
<!-- :core:data&#45;&gt;:core:domain -->
<g id="edge4" class="edge">
<title>:core:data&#45;&gt;:core:domain</title>
<path fill="none" stroke="black" d="M209.69,-77.39C216.69,-75.36 224.03,-73.44 231,-72 371.46,-43.03 538.99,-28.94 631.61,-22.9"/>
<polygon fill="black" stroke="black" points="631.81,-26.39 641.57,-22.26 631.37,-19.41 631.81,-26.39"/>
</g>
<!-- :feature:lmu&#45;connection -->
<g id="node5" class="node">
<title>:feature:lmu&#45;connection</title>
<ellipse fill="none" stroke="black" cx="340" cy="-90" rx="99.97" ry="18"/>
<text xml:space="preserve" text-anchor="middle" x="340" y="-84.95" font-family="Times,serif" font-size="14.00">:feature:lmu&#45;connection</text>
</g>
<!-- :feature:lmu&#45;connection&#45;&gt;:core:domain -->
<g id="edge5" class="edge">
<title>:feature:lmu&#45;connection&#45;&gt;:core:domain</title>
<path fill="none" stroke="black" d="M406.39,-76.16C473.5,-63.18 576.3,-43.31 641.3,-30.74"/>
<polygon fill="black" stroke="black" points="641.94,-34.18 651.09,-28.84 640.61,-27.31 641.94,-34.18"/>
</g>
<!-- :feature:narrator -->
<g id="node6" class="node">
<title>:feature:narrator</title>
<ellipse fill="none" stroke="black" cx="529" cy="-90" rx="70.8" ry="18"/>
<text xml:space="preserve" text-anchor="middle" x="529" y="-84.95" font-family="Times,serif" font-size="14.00">:feature:narrator</text>
</g>
<!-- :feature:narrator&#45;&gt;:core:domain -->
<g id="edge6" class="edge">
<title>:feature:narrator&#45;&gt;:core:domain</title>
<path fill="none" stroke="black" d="M565.69,-74.15C592.25,-63.41 628.31,-48.81 656.67,-37.34"/>
<polygon fill="black" stroke="black" points="657.77,-40.67 665.73,-33.68 655.15,-34.18 657.77,-40.67"/>
</g>
<!-- :feature:other&#45;detail -->
<g id="node7" class="node">
<title>:feature:other&#45;detail</title>
<ellipse fill="none" stroke="black" cx="702" cy="-90" rx="84.11" ry="18"/>
<text xml:space="preserve" text-anchor="middle" x="702" y="-84.95" font-family="Times,serif" font-size="14.00">:feature:other&#45;detail</text>
</g>
<!-- :feature:other&#45;detail&#45;&gt;:core:domain -->
<g id="edge7" class="edge">
<title>:feature:other&#45;detail&#45;&gt;:core:domain</title>
<path fill="none" stroke="black" d="M702,-71.7C702,-64.41 702,-55.73 702,-47.54"/>
<polygon fill="black" stroke="black" points="705.5,-47.62 702,-37.62 698.5,-47.62 705.5,-47.62"/>
</g>
<!-- :feature:other&#45;list -->
<g id="node8" class="node">
<title>:feature:other&#45;list</title>
<ellipse fill="none" stroke="black" cx="879" cy="-90" rx="74.89" ry="18"/>
<text xml:space="preserve" text-anchor="middle" x="879" y="-84.95" font-family="Times,serif" font-size="14.00">:feature:other&#45;list</text>
</g>
<!-- :feature:other&#45;list&#45;&gt;:core:domain -->
<g id="edge8" class="edge">
<title>:feature:other&#45;list&#45;&gt;:core:domain</title>
<path fill="none" stroke="black" d="M841.46,-74.15C814.08,-63.32 776.81,-48.59 747.7,-37.07"/>
<polygon fill="black" stroke="black" points="749.36,-33.97 738.78,-33.55 746.79,-40.48 749.36,-33.97"/>
</g>
<!-- :feature:readout -->
<g id="node9" class="node">
<title>:feature:readout</title>
<ellipse fill="none" stroke="black" cx="1041" cy="-90" rx="69.26" ry="18"/>
<text xml:space="preserve" text-anchor="middle" x="1041" y="-84.95" font-family="Times,serif" font-size="14.00">:feature:readout</text>
</g>
<!-- :feature:readout&#45;&gt;:core:domain -->
<g id="edge9" class="edge">
<title>:feature:readout&#45;&gt;:core:domain</title>
<path fill="none" stroke="black" d="M989.41,-77.65C980.6,-75.74 971.54,-73.8 963,-72 894.29,-57.54 815.25,-41.58 762.32,-31"/>
<polygon fill="black" stroke="black" points="763.08,-27.58 752.59,-29.05 761.71,-34.44 763.08,-27.58"/>
</g>
<!-- :feature:readout&#45;flag -->
<g id="node10" class="node">
<title>:feature:readout&#45;flag</title>
<ellipse fill="none" stroke="black" cx="1215" cy="-90" rx="86.67" ry="18"/>
<text xml:space="preserve" text-anchor="middle" x="1215" y="-84.95" font-family="Times,serif" font-size="14.00">:feature:readout&#45;flag</text>
</g>
<!-- :feature:readout&#45;flag&#45;&gt;:core:domain -->
<g id="edge10" class="edge">
<title>:feature:readout&#45;flag&#45;&gt;:core:domain</title>
<path fill="none" stroke="black" d="M1151.55,-77.31C1140.71,-75.45 1129.54,-73.6 1119,-72 995.65,-53.25 851.08,-35.91 768.64,-26.45"/>
<polygon fill="black" stroke="black" points="769.26,-23 758.93,-25.34 768.47,-29.96 769.26,-23"/>
</g>
<!-- :feature:readout&#45;vehicle&#45;approach -->
<g id="node11" class="node">
<title>:feature:readout&#45;vehicle&#45;approach</title>
<ellipse fill="none" stroke="black" cx="1455" cy="-90" rx="135.8" ry="18"/>
<text xml:space="preserve" text-anchor="middle" x="1455" y="-84.95" font-family="Times,serif" font-size="14.00">:feature:readout&#45;vehicle&#45;approach</text>
</g>
<!-- :feature:readout&#45;vehicle&#45;approach&#45;&gt;:core:domain -->
<g id="edge11" class="edge">
<title>:feature:readout&#45;vehicle&#45;approach&#45;&gt;:core:domain</title>
<path fill="none" stroke="black" d="M1357.83,-77.12C1342.18,-75.32 1326.15,-73.55 1311,-72 1115.28,-51.94 883.66,-33.14 770.77,-24.29"/>
<polygon fill="black" stroke="black" points="771.32,-20.83 761.08,-23.54 770.77,-27.8 771.32,-20.83"/>
</g>
<!-- :feature:readout&#45;vehicle&#45;damage -->
<g id="node12" class="node">
<title>:feature:readout&#45;vehicle&#45;damage</title>
<ellipse fill="none" stroke="black" cx="1740" cy="-90" rx="131.19" ry="18"/>
<text xml:space="preserve" text-anchor="middle" x="1740" y="-84.95" font-family="Times,serif" font-size="14.00">:feature:readout&#45;vehicle&#45;damage</text>
</g>
<!-- :feature:readout&#45;vehicle&#45;damage&#45;&gt;:core:domain -->
<g id="edge12" class="edge">
<title>:feature:readout&#45;vehicle&#45;damage&#45;&gt;:core:domain</title>
<path fill="none" stroke="black" d="M1647.08,-76.9C1631.38,-75.09 1615.24,-73.37 1600,-72 1292.64,-44.3 924.74,-27.78 772.88,-21.69"/>
<polygon fill="black" stroke="black" points="773.1,-18.2 762.97,-21.3 772.83,-25.19 773.1,-18.2"/>
</g>
</g>
</svg>
