<?xml version="1.0" encoding="UTF-8" standalone="no"?>
<!DOCTYPE svg PUBLIC "-//W3C//DTD SVG 1.1//EN"
 "http://www.w3.org/Graphics/SVG/1.1/DTD/svg11.dtd">
<!-- Generated by graphviz version 2.43.0 (0)
 -->
<!-- Title: G Pages: 1 -->
<svg width="6088pt" height="116pt"
 viewBox="0.00 0.00 6087.78 116.00" xmlns="http://www.w3.org/2000/svg" xmlns:xlink="http://www.w3.org/1999/xlink">
<g id="graph0" class="graph" transform="scale(1 1) rotate(0) translate(4 112)">
<title>G</title>
<polygon fill="white" stroke="transparent" points="-4,4 -4,-112 6083.78,-112 6083.78,4 -4,4"/>
<!-- :server -->
<g id="node1" class="node">
<title>:server</title>
<ellipse fill="none" stroke="black" cx="43.55" cy="-90" rx="43.59" ry="18"/>
<text text-anchor="middle" x="43.55" y="-86.3" font-family="Times,serif" font-size="14.00">:server</text>
</g>
<!-- :core:domain -->
<g id="node2" class="node">
<title>:core:domain</title>
<ellipse fill="none" stroke="black" cx="2816.55" cy="-18" rx="70.69" ry="18"/>
<text text-anchor="middle" x="2816.55" y="-14.3" font-family="Times,serif" font-size="14.00">:core:domain</text>
</g>
<!-- :server&#45;&gt;:core:domain -->
<g id="edge1" class="edge">
<title>:server&#45;&gt;:core:domain</title>
<path fill="none" stroke="black" d="M74.84,-77.31C81.89,-75.14 89.4,-73.19 96.55,-72 362.14,-27.79 2312.57,-20.29 2735.71,-19.18"/>
<polygon fill="black" stroke="black" points="2735.72,-22.68 2745.71,-19.15 2735.7,-15.68 2735.72,-22.68"/>
</g>
<!-- :core:data -->
<g id="node3" class="node">
<title>:core:data</title>
<ellipse fill="none" stroke="black" cx="162.55" cy="-90" rx="57.39" ry="18"/>
<text text-anchor="middle" x="162.55" y="-86.3" font-family="Times,serif" font-size="14.00">:core:data</text>
</g>
<!-- :core:data&#45;&gt;:core:domain -->
<g id="edge2" class="edge">
<title>:core:data&#45;&gt;:core:domain</title>
<path fill="none" stroke="black" d="M202.74,-77.07C211.19,-75.01 220.11,-73.16 228.55,-72 481.53,-37.31 2325.28,-22.44 2735.72,-19.54"/>
<polygon fill="black" stroke="black" points="2735.74,-23.04 2745.72,-19.47 2735.7,-16.04 2735.74,-23.04"/>
</g>
<!-- :core:gt7&#45;ps5&#45;data -->
<g id="node4" class="node">
<title>:core:gt7&#45;ps5&#45;data</title>
<ellipse fill="none" stroke="black" cx="332.55" cy="-90" rx="94.78" ry="18"/>
<text text-anchor="middle" x="332.55" y="-86.3" font-family="Times,serif" font-size="14.00">:core:gt7&#45;ps5&#45;data</text>
</g>
<!-- :core:gt7&#45;ps5&#45;data&#45;&gt;:core:domain -->
<g id="edge3" class="edge">
<title>:core:gt7&#45;ps5&#45;data&#45;&gt;:core:domain</title>
<path fill="none" stroke="black" d="M397.83,-76.9C410.63,-74.93 423.98,-73.16 436.55,-72 897.29,-29.42 2372.78,-20.78 2735.45,-19.28"/>
<polygon fill="black" stroke="black" points="2735.61,-22.78 2745.6,-19.24 2735.58,-15.78 2735.61,-22.78"/>
</g>
<!-- :core:lmu&#45;windows&#45;data -->
<g id="node5" class="node">
<title>:core:lmu&#45;windows&#45;data</title>
<ellipse fill="none" stroke="black" cx="566.55" cy="-90" rx="120.78" ry="18"/>
<text text-anchor="middle" x="566.55" y="-86.3" font-family="Times,serif" font-size="14.00">:core:lmu&#45;windows&#45;data</text>
</g>
<!-- :core:lmu&#45;windows&#45;data&#45;&gt;:core:domain -->
<g id="edge4" class="edge">
<title>:core:lmu&#45;windows&#45;data&#45;&gt;:core:domain</title>
<path fill="none" stroke="black" d="M649.28,-76.86C664.95,-74.93 681.23,-73.19 696.55,-72 1103.9,-40.36 2398.47,-23.74 2735.63,-19.88"/>
<polygon fill="black" stroke="black" points="2735.84,-23.38 2745.8,-19.77 2735.76,-16.38 2735.84,-23.38"/>
</g>
<!-- :feature:gt7&#45;ps5&#45;connection -->
<g id="node6" class="node">
<title>:feature:gt7&#45;ps5&#45;connection</title>
<ellipse fill="none" stroke="black" cx="843.55" cy="-90" rx="138.38" ry="18"/>
<text text-anchor="middle" x="843.55" y="-86.3" font-family="Times,serif" font-size="14.00">:feature:gt7&#45;ps5&#45;connection</text>
</g>
<!-- :feature:gt7&#45;ps5&#45;connection&#45;&gt;:core:domain -->
<g id="edge5" class="edge">
<title>:feature:gt7&#45;ps5&#45;connection&#45;&gt;:core:domain</title>
<path fill="none" stroke="black" d="M938.57,-76.87C956.16,-74.97 974.39,-73.23 991.55,-72 1663.94,-23.71 2478.7,-19.08 2735.21,-18.89"/>
<polygon fill="black" stroke="black" points="2735.55,-22.39 2745.55,-18.89 2735.55,-15.39 2735.55,-22.39"/>
</g>
<!-- :feature:gt7&#45;ps5&#45;narrator -->
<g id="node7" class="node">
<title>:feature:gt7&#45;ps5&#45;narrator</title>
<ellipse fill="none" stroke="black" cx="1127.55" cy="-90" rx="127.28" ry="18"/>
<text text-anchor="middle" x="1127.55" y="-86.3" font-family="Times,serif" font-size="14.00">:feature:gt7&#45;ps5&#45;narrator</text>
</g>
<!-- :feature:gt7&#45;ps5&#45;narrator&#45;&gt;:core:domain -->
<g id="edge6" class="edge">
<title>:feature:gt7&#45;ps5&#45;narrator&#45;&gt;:core:domain</title>
<path fill="none" stroke="black" d="M1215.22,-76.86C1231.27,-74.98 1247.89,-73.24 1263.55,-72 1825.38,-27.39 2504.47,-20.29 2735.28,-19.19"/>
<polygon fill="black" stroke="black" points="2735.62,-22.69 2745.6,-19.15 2735.59,-15.69 2735.62,-22.69"/>
</g>
<!-- :feature:gt7&#45;ps5&#45;readout&#45;my&#45;bestlap&#45;detail -->
<g id="node8" class="node">
<title>:feature:gt7&#45;ps5&#45;readout&#45;my&#45;bestlap&#45;detail</title>
<ellipse fill="none" stroke="black" cx="1480.55" cy="-90" rx="207.96" ry="18"/>
<text text-anchor="middle" x="1480.55" y="-86.3" font-family="Times,serif" font-size="14.00">:feature:gt7&#45;ps5&#45;readout&#45;my&#45;bestlap&#45;detail</text>
</g>
<!-- :feature:gt7&#45;ps5&#45;readout&#45;my&#45;bestlap&#45;detail&#45;&gt;:core:domain -->
<g id="edge7" class="edge">
<title>:feature:gt7&#45;ps5&#45;readout&#45;my&#45;bestlap&#45;detail&#45;&gt;:core:domain</title>
<path fill="none" stroke="black" d="M1625.24,-77.04C1649.38,-75.22 1674.16,-73.47 1697.55,-72 2086.89,-47.53 2553.08,-28.87 2736.67,-21.94"/>
<polygon fill="black" stroke="black" points="2736.92,-25.43 2746.78,-21.56 2736.65,-18.43 2736.92,-25.43"/>
</g>
<!-- :feature:lmu&#45;windows&#45;connection -->
<g id="node9" class="node">
<title>:feature:lmu&#45;windows&#45;connection</title>
<ellipse fill="none" stroke="black" cx="1870.55" cy="-90" rx="164.37" ry="18"/>
<text text-anchor="middle" x="1870.55" y="-86.3" font-family="Times,serif" font-size="14.00">:feature:lmu&#45;windows&#45;connection</text>
</g>
<!-- :feature:lmu&#45;windows&#45;connection&#45;&gt;:core:domain -->
<g id="edge8" class="edge">
<title>:feature:lmu&#45;windows&#45;connection&#45;&gt;:core:domain</title>
<path fill="none" stroke="black" d="M1986.56,-77.2C2005.92,-75.36 2025.79,-73.56 2044.55,-72 2297.93,-50.93 2598.62,-32.04 2738.17,-23.63"/>
<polygon fill="black" stroke="black" points="2738.57,-27.11 2748.34,-23.02 2738.15,-20.13 2738.57,-27.11"/>
</g>
<!-- :feature:lmu&#45;windows&#45;narrator -->
<g id="node10" class="node">
<title>:feature:lmu&#45;windows&#45;narrator</title>
<ellipse fill="none" stroke="black" cx="2206.55" cy="-90" rx="153.27" ry="18"/>
<text text-anchor="middle" x="2206.55" y="-86.3" font-family="Times,serif" font-size="14.00">:feature:lmu&#45;windows&#45;narrator</text>
</g>
<!-- :feature:lmu&#45;windows&#45;narrator&#45;&gt;:core:domain -->
<g id="edge9" class="edge">
<title>:feature:lmu&#45;windows&#45;narrator&#45;&gt;:core:domain</title>
<path fill="none" stroke="black" d="M2312.1,-76.89C2435.32,-62.75 2635.87,-39.73 2743.23,-27.41"/>
<polygon fill="black" stroke="black" points="2743.78,-30.87 2753.32,-26.26 2742.99,-23.92 2743.78,-30.87"/>
</g>
<!-- :feature:lmu&#45;windows&#45;readout&#45;flag&#45;detail -->
<g id="node11" class="node">
<title>:feature:lmu&#45;windows&#45;readout&#45;flag&#45;detail</title>
<ellipse fill="none" stroke="black" cx="2577.55" cy="-90" rx="199.56" ry="18"/>
<text text-anchor="middle" x="2577.55" y="-86.3" font-family="Times,serif" font-size="14.00">:feature:lmu&#45;windows&#45;readout&#45;flag&#45;detail</text>
</g>
<!-- :feature:lmu&#45;windows&#45;readout&#45;flag&#45;detail&#45;&gt;:core:domain -->
<g id="edge10" class="edge">
<title>:feature:lmu&#45;windows&#45;readout&#45;flag&#45;detail&#45;&gt;:core:domain</title>
<path fill="none" stroke="black" d="M2633.28,-72.68C2672.03,-61.33 2723.42,-46.28 2761.92,-35"/>
<polygon fill="black" stroke="black" points="2763.3,-38.24 2771.92,-32.07 2761.33,-31.52 2763.3,-38.24"/>
</g>
<!-- :feature:lmu&#45;windows&#45;readout&#45;vehicle&#45;approach&#45;detail -->
<g id="node12" class="node">
<title>:feature:lmu&#45;windows&#45;readout&#45;vehicle&#45;approach&#45;detail</title>
<ellipse fill="none" stroke="black" cx="3055.55" cy="-90" rx="260.75" ry="18"/>
<text text-anchor="middle" x="3055.55" y="-86.3" font-family="Times,serif" font-size="14.00">:feature:lmu&#45;windows&#45;readout&#45;vehicle&#45;approach&#45;detail</text>
</g>
<!-- :feature:lmu&#45;windows&#45;readout&#45;vehicle&#45;approach&#45;detail&#45;&gt;:core:domain -->
<g id="edge11" class="edge">
<title>:feature:lmu&#45;windows&#45;readout&#45;vehicle&#45;approach&#45;detail&#45;&gt;:core:domain</title>
<path fill="none" stroke="black" d="M2998.91,-72.41C2960.26,-61.09 2909.35,-46.18 2871.14,-34.99"/>
<polygon fill="black" stroke="black" points="2871.8,-31.54 2861.22,-32.08 2869.84,-38.25 2871.8,-31.54"/>
</g>
<!-- :feature:lmu&#45;windows&#45;readout&#45;vehicle&#45;damage&#45;detail -->
<g id="node13" class="node">
<title>:feature:lmu&#45;windows&#45;readout&#45;vehicle&#45;damage&#45;detail</title>
<ellipse fill="none" stroke="black" cx="3588.55" cy="-90" rx="254.55" ry="18"/>
<text text-anchor="middle" x="3588.55" y="-86.3" font-family="Times,serif" font-size="14.00">:feature:lmu&#45;windows&#45;readout&#45;vehicle&#45;damage&#45;detail</text>
</g>
<!-- :feature:lmu&#45;windows&#45;readout&#45;vehicle&#45;damage&#45;detail&#45;&gt;:core:domain -->
<g id="edge12" class="edge">
<title>:feature:lmu&#45;windows&#45;readout&#45;vehicle&#45;damage&#45;detail&#45;&gt;:core:domain</title>
<path fill="none" stroke="black" d="M3438.78,-75.42C3274.84,-60.56 3018.54,-37.32 2892.18,-25.86"/>
<polygon fill="black" stroke="black" points="2892.48,-22.37 2882.2,-24.95 2891.84,-29.34 2892.48,-22.37"/>
</g>
<!-- :feature:main -->
<g id="node14" class="node">
<title>:feature:main</title>
<ellipse fill="none" stroke="black" cx="3934.55" cy="-90" rx="73.39" ry="18"/>
<text text-anchor="middle" x="3934.55" y="-86.3" font-family="Times,serif" font-size="14.00">:feature:main</text>
</g>
<!-- :feature:main&#45;&gt;:core:domain -->
<g id="edge13" class="edge">
<title>:feature:main&#45;&gt;:core:domain</title>
<path fill="none" stroke="black" d="M3883.13,-77.09C3873.04,-75.1 3862.5,-73.28 3852.55,-72 3498.98,-26.58 3072.83,-19.71 2897.7,-18.93"/>
<polygon fill="black" stroke="black" points="2897.55,-15.43 2887.54,-18.89 2897.52,-22.43 2897.55,-15.43"/>
</g>
<!-- :feature:other&#45;gt7&#45;ps5&#45;ip&#45;detail -->
<g id="node15" class="node">
<title>:feature:other&#45;gt7&#45;ps5&#45;ip&#45;detail</title>
<ellipse fill="none" stroke="black" cx="4179.55" cy="-90" rx="154.07" ry="18"/>
<text text-anchor="middle" x="4179.55" y="-86.3" font-family="Times,serif" font-size="14.00">:feature:other&#45;gt7&#45;ps5&#45;ip&#45;detail</text>
</g>
<!-- :feature:other&#45;gt7&#45;ps5&#45;ip&#45;detail&#45;&gt;:core:domain -->
<g id="edge14" class="edge">
<title>:feature:other&#45;gt7&#45;ps5&#45;ip&#45;detail&#45;&gt;:core:domain</title>
<path fill="none" stroke="black" d="M4073.1,-76.97C4054.27,-75.11 4034.85,-73.36 4016.55,-72 3595.41,-40.77 3089.67,-25.78 2896.69,-20.88"/>
<polygon fill="black" stroke="black" points="2896.71,-17.38 2886.63,-20.63 2896.54,-24.38 2896.71,-17.38"/>
</g>
<!-- :feature:other&#45;list -->
<g id="node16" class="node">
<title>:feature:other&#45;list</title>
<ellipse fill="none" stroke="black" cx="4444.55" cy="-90" rx="92.88" ry="18"/>
<text text-anchor="middle" x="4444.55" y="-86.3" font-family="Times,serif" font-size="14.00">:feature:other&#45;list</text>
</g>
<!-- :feature:other&#45;list&#45;&gt;:core:domain -->
<g id="edge15" class="edge">
<title>:feature:other&#45;list&#45;&gt;:core:domain</title>
<path fill="none" stroke="black" d="M4380.24,-76.97C4367.77,-75.01 4354.78,-73.23 4342.55,-72 4058.2,-43.49 3170.42,-25.41 2897.31,-20.41"/>
<polygon fill="black" stroke="black" points="2897.14,-16.91 2887.08,-20.23 2897.02,-23.91 2897.14,-16.91"/>
</g>
<!-- :feature:other&#45;readout&#45;start&#45;sound&#45;detail -->
<g id="node17" class="node">
<title>:feature:other&#45;readout&#45;start&#45;sound&#45;detail</title>
<ellipse fill="none" stroke="black" cx="4754.55" cy="-90" rx="199.56" ry="18"/>
<text text-anchor="middle" x="4754.55" y="-86.3" font-family="Times,serif" font-size="14.00">:feature:other&#45;readout&#45;start&#45;sound&#45;detail</text>
</g>
<!-- :feature:other&#45;readout&#45;start&#45;sound&#45;detail&#45;&gt;:core:domain -->
<g id="edge16" class="edge">
<title>:feature:other&#45;readout&#45;start&#45;sound&#45;detail&#45;&gt;:core:domain</title>
<path fill="none" stroke="black" d="M4618.11,-76.85C4594.27,-75.01 4569.7,-73.3 4546.55,-72 3911.76,-36.36 3144.5,-23.43 2897.37,-20.01"/>
<polygon fill="black" stroke="black" points="2897.1,-16.51 2887.05,-19.87 2897,-23.51 2897.1,-16.51"/>
</g>
<!-- :feature:other&#45;server&#45;ip&#45;detail -->
<g id="node18" class="node">
<title>:feature:other&#45;server&#45;ip&#45;detail</title>
<ellipse fill="none" stroke="black" cx="5120.55" cy="-90" rx="148.67" ry="18"/>
<text text-anchor="middle" x="5120.55" y="-86.3" font-family="Times,serif" font-size="14.00">:feature:other&#45;server&#45;ip&#45;detail</text>
</g>
<!-- :feature:other&#45;server&#45;ip&#45;detail&#45;&gt;:core:domain -->
<g id="edge17" class="edge">
<title>:feature:other&#45;server&#45;ip&#45;detail&#45;&gt;:core:domain</title>
<path fill="none" stroke="black" d="M5019.31,-76.79C5000.78,-74.91 4981.6,-73.2 4963.55,-72 4159.19,-18.62 3182.1,-17.6 2897.76,-18.57"/>
<polygon fill="black" stroke="black" points="2897.52,-15.07 2887.53,-18.61 2897.55,-22.07 2897.52,-15.07"/>
</g>
<!-- :feature:other&#45;volume&#45;detail -->
<g id="node19" class="node">
<title>:feature:other&#45;volume&#45;detail</title>
<ellipse fill="none" stroke="black" cx="5428.55" cy="-90" rx="141.07" ry="18"/>
<text text-anchor="middle" x="5428.55" y="-86.3" font-family="Times,serif" font-size="14.00">:feature:other&#45;volume&#45;detail</text>
</g>
<!-- :feature:other&#45;volume&#45;detail&#45;&gt;:core:domain -->
<g id="edge18" class="edge">
<title>:feature:other&#45;volume&#45;detail&#45;&gt;:core:domain</title>
<path fill="none" stroke="black" d="M5332.24,-76.77C5314.41,-74.88 5295.94,-73.17 5278.55,-72 4799.68,-39.78 3267.01,-23.31 2897.34,-19.75"/>
<polygon fill="black" stroke="black" points="2897.3,-16.24 2887.26,-19.65 2897.23,-23.24 2897.3,-16.24"/>
</g>
<!-- :feature:readout&#45;list -->
<g id="node20" class="node">
<title>:feature:readout&#45;list</title>
<ellipse fill="none" stroke="black" cx="5691.55" cy="-90" rx="103.98" ry="18"/>
<text text-anchor="middle" x="5691.55" y="-86.3" font-family="Times,serif" font-size="14.00">:feature:readout&#45;list</text>
</g>
<!-- :feature:readout&#45;list&#45;&gt;:core:domain -->
<g id="edge19" class="edge">
<title>:feature:readout&#45;list&#45;&gt;:core:domain</title>
<path fill="none" stroke="black" d="M5620.28,-76.84C5606.47,-74.89 5592.09,-73.14 5578.55,-72 5037.79,-26.33 3294.68,-19.99 2897.58,-19.13"/>
<polygon fill="black" stroke="black" points="2897.34,-15.63 2887.34,-19.11 2897.33,-22.63 2897.34,-15.63"/>
</g>
<!-- :feature:server&#45;connection -->
<g id="node21" class="node">
<title>:feature:server&#45;connection</title>
<ellipse fill="none" stroke="black" cx="5946.55" cy="-90" rx="133.48" ry="18"/>
<text text-anchor="middle" x="5946.55" y="-86.3" font-family="Times,serif" font-size="14.00">:feature:server&#45;connection</text>
</g>
<!-- :feature:server&#45;connection&#45;&gt;:core:domain -->
<g id="edge20" class="edge">
<title>:feature:server&#45;connection&#45;&gt;:core:domain</title>
<path fill="none" stroke="black" d="M5855.77,-76.74C5838.78,-74.84 5821.14,-73.14 5804.55,-72 5215.83,-31.64 3314.2,-21.16 2897.67,-19.32"/>
<polygon fill="black" stroke="black" points="2897.54,-15.82 2887.52,-19.28 2897.51,-22.82 2897.54,-15.82"/>
</g>
</g>
</svg>
