<?xml version="1.0" encoding="UTF-8" standalone="no"?>
<!DOCTYPE svg PUBLIC "-//W3C//DTD SVG 1.1//EN"
 "http://www.w3.org/Graphics/SVG/1.1/DTD/svg11.dtd">
<!-- Generated by graphviz version 2.43.0 (0)
 -->
<!-- Title: G Pages: 1 -->
<svg width="1367pt" height="188pt"
 viewBox="0.00 0.00 1367.23 188.00" xmlns="http://www.w3.org/2000/svg" xmlns:xlink="http://www.w3.org/1999/xlink">
<g id="graph0" class="graph" transform="scale(1 1) rotate(0) translate(4 184)">
<title>G</title>
<polygon fill="white" stroke="transparent" points="-4,4 -4,-184 1363.23,-184 1363.23,4 -4,4"/>
<!-- :server -->
<g id="node1" class="node">
<title>:server</title>
<ellipse fill="none" stroke="black" cx="43.55" cy="-90" rx="43.59" ry="18"/>
<text text-anchor="middle" x="43.55" y="-86.3" font-family="Times,serif" font-size="14.00">:server</text>
</g>
<!-- :core:domain -->
<g id="node2" class="node">
<title>:core:domain</title>
<ellipse fill="none" stroke="black" cx="520.55" cy="-18" rx="70.69" ry="18"/>
<text text-anchor="middle" x="520.55" y="-14.3" font-family="Times,serif" font-size="14.00">:core:domain</text>
</g>
<!-- :server&#45;&gt;:core:domain -->
<g id="edge1" class="edge">
<title>:server&#45;&gt;:core:domain</title>
<path fill="none" stroke="black" d="M75.52,-77.69C82.39,-75.56 89.66,-73.52 96.55,-72 215.92,-45.63 357.32,-31.25 442.91,-24.35"/>
<polygon fill="black" stroke="black" points="443.37,-27.82 453.06,-23.54 442.82,-20.84 443.37,-27.82"/>
</g>
<!-- :app:androidApp -->
<g id="node3" class="node">
<title>:app:androidApp</title>
<ellipse fill="none" stroke="black" cx="192.55" cy="-90" rx="87.18" ry="18"/>
<text text-anchor="middle" x="192.55" y="-86.3" font-family="Times,serif" font-size="14.00">:app:androidApp</text>
</g>
<!-- :app:androidApp&#45;&gt;:core:domain -->
<g id="edge2" class="edge">
<title>:app:androidApp&#45;&gt;:core:domain</title>
<path fill="none" stroke="black" d="M250.81,-76.57C309.11,-64.12 398.48,-45.05 458.18,-32.31"/>
<polygon fill="black" stroke="black" points="459.19,-35.67 468.24,-30.16 457.73,-28.83 459.19,-35.67"/>
</g>
<!-- :app:desktopApp -->
<g id="node4" class="node">
<title>:app:desktopApp</title>
<ellipse fill="none" stroke="black" cx="424.55" cy="-162" rx="88.28" ry="18"/>
<text text-anchor="middle" x="424.55" y="-158.3" font-family="Times,serif" font-size="14.00">:app:desktopApp</text>
</g>
<!-- :app:desktopApp&#45;&gt;:core:domain -->
<g id="edge3" class="edge">
<title>:app:desktopApp&#45;&gt;:core:domain</title>
<path fill="none" stroke="black" d="M376.17,-146.89C357.24,-138.74 337.49,-126.36 326.55,-108 318.35,-94.26 316.84,-84.72 326.55,-72 341.76,-52.07 400.95,-37.82 450,-29.15"/>
<polygon fill="black" stroke="black" points="450.71,-32.58 459.97,-27.44 449.52,-25.68 450.71,-32.58"/>
</g>
<!-- :feature:narrator -->
<g id="node5" class="node">
<title>:feature:narrator</title>
<ellipse fill="none" stroke="black" cx="424.55" cy="-90" rx="89.08" ry="18"/>
<text text-anchor="middle" x="424.55" y="-86.3" font-family="Times,serif" font-size="14.00">:feature:narrator</text>
</g>
<!-- :app:desktopApp&#45;&gt;:feature:narrator -->
<g id="edge4" class="edge">
<title>:app:desktopApp&#45;&gt;:feature:narrator</title>
<path fill="none" stroke="black" d="M424.55,-143.7C424.55,-135.98 424.55,-126.71 424.55,-118.11"/>
<polygon fill="black" stroke="black" points="428.05,-118.1 424.55,-108.1 421.05,-118.1 428.05,-118.1"/>
</g>
<!-- :feature:readout -->
<g id="node6" class="node">
<title>:feature:readout</title>
<ellipse fill="none" stroke="black" cx="617.55" cy="-90" rx="86.38" ry="18"/>
<text text-anchor="middle" x="617.55" y="-86.3" font-family="Times,serif" font-size="14.00">:feature:readout</text>
</g>
<!-- :app:desktopApp&#45;&gt;:feature:readout -->
<g id="edge5" class="edge">
<title>:app:desktopApp&#45;&gt;:feature:readout</title>
<path fill="none" stroke="black" d="M465.95,-145.98C495.56,-135.24 535.58,-120.73 567.07,-109.31"/>
<polygon fill="black" stroke="black" points="568.34,-112.57 576.54,-105.87 565.95,-105.99 568.34,-112.57"/>
</g>
<!-- :feature:narrator&#45;&gt;:core:domain -->
<g id="edge7" class="edge">
<title>:feature:narrator&#45;&gt;:core:domain</title>
<path fill="none" stroke="black" d="M447.3,-72.41C460.06,-63.1 476.16,-51.37 490.01,-41.27"/>
<polygon fill="black" stroke="black" points="492.27,-43.95 498.29,-35.23 488.15,-38.29 492.27,-43.95"/>
</g>
<!-- :feature:readout&#45;&gt;:core:domain -->
<g id="edge9" class="edge">
<title>:feature:readout&#45;&gt;:core:domain</title>
<path fill="none" stroke="black" d="M594.56,-72.41C581.66,-63.1 565.4,-51.37 551.4,-41.27"/>
<polygon fill="black" stroke="black" points="553.19,-38.24 543.03,-35.23 549.1,-43.92 553.19,-38.24"/>
</g>
<!-- :core:data -->
<g id="node7" class="node">
<title>:core:data</title>
<ellipse fill="none" stroke="black" cx="779.55" cy="-90" rx="57.39" ry="18"/>
<text text-anchor="middle" x="779.55" y="-86.3" font-family="Times,serif" font-size="14.00">:core:data</text>
</g>
<!-- :core:data&#45;&gt;:core:domain -->
<g id="edge6" class="edge">
<title>:core:data&#45;&gt;:core:domain</title>
<path fill="none" stroke="black" d="M737.65,-77.68C693.98,-65.87 625.3,-47.31 576.9,-34.23"/>
<polygon fill="black" stroke="black" points="577.77,-30.84 567.2,-31.61 575.94,-37.6 577.77,-30.84"/>
</g>
<!-- :feature:other -->
<g id="node8" class="node">
<title>:feature:other</title>
<ellipse fill="none" stroke="black" cx="930.55" cy="-90" rx="75.29" ry="18"/>
<text text-anchor="middle" x="930.55" y="-86.3" font-family="Times,serif" font-size="14.00">:feature:other</text>
</g>
<!-- :feature:other&#45;&gt;:core:domain -->
<g id="edge8" class="edge">
<title>:feature:other&#45;&gt;:core:domain</title>
<path fill="none" stroke="black" d="M875.28,-77.65C865.39,-75.7 855.17,-73.75 845.55,-72 757.58,-56.04 655.81,-39.8 589.92,-29.58"/>
<polygon fill="black" stroke="black" points="590.08,-26.06 579.66,-27.99 589.01,-32.98 590.08,-26.06"/>
</g>
<!-- :feature:readout&#45;vehicle&#45;approach -->
<g id="node9" class="node">
<title>:feature:readout&#45;vehicle&#45;approach</title>
<ellipse fill="none" stroke="black" cx="1191.55" cy="-90" rx="167.87" ry="18"/>
<text text-anchor="middle" x="1191.55" y="-86.3" font-family="Times,serif" font-size="14.00">:feature:readout&#45;vehicle&#45;approach</text>
</g>
<!-- :feature:readout&#45;vehicle&#45;approach&#45;&gt;:core:domain -->
<g id="edge10" class="edge">
<title>:feature:readout&#45;vehicle&#45;approach&#45;&gt;:core:domain</title>
<path fill="none" stroke="black" d="M1075.82,-76.93C937.89,-62.54 711.49,-38.92 594.97,-26.76"/>
<polygon fill="black" stroke="black" points="595.03,-23.25 584.72,-25.69 594.31,-30.21 595.03,-23.25"/>
</g>
</g>
</svg>
