<?xml version="1.0" encoding="UTF-8" standalone="no"?>
<!DOCTYPE svg PUBLIC "-//W3C//DTD SVG 1.1//EN"
 "http://www.w3.org/Graphics/SVG/1.1/DTD/svg11.dtd">
<!-- Generated by graphviz version 2.43.0 (0)
 -->
<!-- Title: G Pages: 1 -->
<svg width="3742pt" height="116pt"
 viewBox="0.00 0.00 3742.43 116.00" xmlns="http://www.w3.org/2000/svg" xmlns:xlink="http://www.w3.org/1999/xlink">
<g id="graph0" class="graph" transform="scale(1 1) rotate(0) translate(4 112)">
<title>G</title>
<polygon fill="white" stroke="transparent" points="-4,4 -4,-112 3738.43,-112 3738.43,4 -4,4"/>
<!-- :feature:gt7&#45;ps5&#45;narrator -->
<g id="node1" class="node">
<title>:feature:gt7&#45;ps5&#45;narrator</title>
<ellipse fill="none" stroke="black" cx="127.39" cy="-90" rx="127.28" ry="18"/>
<text text-anchor="middle" x="127.39" y="-86.3" font-family="Times,serif" font-size="14.00">:feature:gt7&#45;ps5&#45;narrator</text>
</g>
<!-- :core:designsystem -->
<g id="node2" class="node">
<title>:core:designsystem</title>
<ellipse fill="none" stroke="black" cx="1974.39" cy="-18" rx="100.98" ry="18"/>
<text text-anchor="middle" x="1974.39" y="-14.3" font-family="Times,serif" font-size="14.00">:core:designsystem</text>
</g>
<!-- :feature:gt7&#45;ps5&#45;narrator&#45;&gt;:core:designsystem -->
<g id="edge1" class="edge">
<title>:feature:gt7&#45;ps5&#45;narrator&#45;&gt;:core:designsystem</title>
<path fill="none" stroke="black" d="M214.69,-76.86C230.86,-74.96 247.61,-73.23 263.39,-72 865.64,-25.13 1590.18,-19.28 1863.14,-18.85"/>
<polygon fill="black" stroke="black" points="1863.45,-22.35 1873.45,-18.84 1863.44,-15.35 1863.45,-22.35"/>
</g>
<!-- :feature:gt7&#45;ps5&#45;readout&#45;my&#45;bestlap&#45;detail -->
<g id="node3" class="node">
<title>:feature:gt7&#45;ps5&#45;readout&#45;my&#45;bestlap&#45;detail</title>
<ellipse fill="none" stroke="black" cx="480.39" cy="-90" rx="207.96" ry="18"/>
<text text-anchor="middle" x="480.39" y="-86.3" font-family="Times,serif" font-size="14.00">:feature:gt7&#45;ps5&#45;readout&#45;my&#45;bestlap&#45;detail</text>
</g>
<!-- :feature:gt7&#45;ps5&#45;readout&#45;my&#45;bestlap&#45;detail&#45;&gt;:core:designsystem -->
<g id="edge2" class="edge">
<title>:feature:gt7&#45;ps5&#45;readout&#45;my&#45;bestlap&#45;detail&#45;&gt;:core:designsystem</title>
<path fill="none" stroke="black" d="M624.2,-76.99C648.61,-75.16 673.72,-73.42 697.39,-72 1129.64,-46.11 1644.96,-28.89 1865.51,-22.17"/>
<polygon fill="black" stroke="black" points="1865.9,-25.66 1875.79,-21.86 1865.69,-18.66 1865.9,-25.66"/>
</g>
<!-- :feature:lmu&#45;windows&#45;narrator -->
<g id="node4" class="node">
<title>:feature:lmu&#45;windows&#45;narrator</title>
<ellipse fill="none" stroke="black" cx="859.39" cy="-90" rx="153.27" ry="18"/>
<text text-anchor="middle" x="859.39" y="-86.3" font-family="Times,serif" font-size="14.00">:feature:lmu&#45;windows&#45;narrator</text>
</g>
<!-- :feature:lmu&#45;windows&#45;narrator&#45;&gt;:core:designsystem -->
<g id="edge3" class="edge">
<title>:feature:lmu&#45;windows&#45;narrator&#45;&gt;:core:designsystem</title>
<path fill="none" stroke="black" d="M966.07,-77.05C984.5,-75.21 1003.49,-73.44 1021.39,-72 1327.83,-47.41 1690.62,-30.63 1867.15,-23.25"/>
<polygon fill="black" stroke="black" points="1867.37,-26.74 1877.22,-22.83 1867.08,-19.75 1867.37,-26.74"/>
</g>
<!-- :feature:lmu&#45;windows&#45;readout&#45;flag&#45;detail -->
<g id="node5" class="node">
<title>:feature:lmu&#45;windows&#45;readout&#45;flag&#45;detail</title>
<ellipse fill="none" stroke="black" cx="1230.39" cy="-90" rx="199.56" ry="18"/>
<text text-anchor="middle" x="1230.39" y="-86.3" font-family="Times,serif" font-size="14.00">:feature:lmu&#45;windows&#45;readout&#45;flag&#45;detail</text>
</g>
<!-- :feature:lmu&#45;windows&#45;readout&#45;flag&#45;detail&#45;&gt;:core:designsystem -->
<g id="edge4" class="edge">
<title>:feature:lmu&#45;windows&#45;readout&#45;flag&#45;detail&#45;&gt;:core:designsystem</title>
<path fill="none" stroke="black" d="M1362.97,-76.53C1510.67,-62.63 1745.92,-40.5 1877.39,-28.13"/>
<polygon fill="black" stroke="black" points="1877.82,-31.6 1887.45,-27.18 1877.16,-24.63 1877.82,-31.6"/>
</g>
<!-- :feature:lmu&#45;windows&#45;readout&#45;vehicle&#45;approach&#45;detail -->
<g id="node6" class="node">
<title>:feature:lmu&#45;windows&#45;readout&#45;vehicle&#45;approach&#45;detail</title>
<ellipse fill="none" stroke="black" cx="1708.39" cy="-90" rx="260.75" ry="18"/>
<text text-anchor="middle" x="1708.39" y="-86.3" font-family="Times,serif" font-size="14.00">:feature:lmu&#45;windows&#45;readout&#45;vehicle&#45;approach&#45;detail</text>
</g>
<!-- :feature:lmu&#45;windows&#45;readout&#45;vehicle&#45;approach&#45;detail&#45;&gt;:core:designsystem -->
<g id="edge5" class="edge">
<title>:feature:lmu&#45;windows&#45;readout&#45;vehicle&#45;approach&#45;detail&#45;&gt;:core:designsystem</title>
<path fill="none" stroke="black" d="M1771.09,-72.5C1813.04,-61.46 1868.08,-46.98 1910.31,-35.86"/>
<polygon fill="black" stroke="black" points="1911.43,-39.19 1920.21,-33.26 1909.64,-32.42 1911.43,-39.19"/>
</g>
<!-- :feature:lmu&#45;windows&#45;readout&#45;vehicle&#45;damage&#45;detail -->
<g id="node7" class="node">
<title>:feature:lmu&#45;windows&#45;readout&#45;vehicle&#45;damage&#45;detail</title>
<ellipse fill="none" stroke="black" cx="2241.39" cy="-90" rx="254.55" ry="18"/>
<text text-anchor="middle" x="2241.39" y="-86.3" font-family="Times,serif" font-size="14.00">:feature:lmu&#45;windows&#45;readout&#45;vehicle&#45;damage&#45;detail</text>
</g>
<!-- :feature:lmu&#45;windows&#45;readout&#45;vehicle&#45;damage&#45;detail&#45;&gt;:core:designsystem -->
<g id="edge6" class="edge">
<title>:feature:lmu&#45;windows&#45;readout&#45;vehicle&#45;damage&#45;detail&#45;&gt;:core:designsystem</title>
<path fill="none" stroke="black" d="M2178.45,-72.5C2136.35,-61.46 2081.1,-46.98 2038.71,-35.86"/>
<polygon fill="black" stroke="black" points="2039.34,-32.41 2028.78,-33.26 2037.56,-39.18 2039.34,-32.41"/>
</g>
<!-- :feature:other&#45;console&#45;ip&#45;detail -->
<g id="node8" class="node">
<title>:feature:other&#45;console&#45;ip&#45;detail</title>
<ellipse fill="none" stroke="black" cx="2667.39" cy="-90" rx="153.27" ry="18"/>
<text text-anchor="middle" x="2667.39" y="-86.3" font-family="Times,serif" font-size="14.00">:feature:other&#45;console&#45;ip&#45;detail</text>
</g>
<!-- :feature:other&#45;console&#45;ip&#45;detail&#45;&gt;:core:designsystem -->
<g id="edge7" class="edge">
<title>:feature:other&#45;console&#45;ip&#45;detail&#45;&gt;:core:designsystem</title>
<path fill="none" stroke="black" d="M2557.6,-77.4C2540.13,-75.58 2522.27,-73.73 2505.39,-72 2353.38,-56.44 2176.84,-38.93 2070.47,-28.44"/>
<polygon fill="black" stroke="black" points="2070.69,-24.95 2060.39,-27.45 2070,-31.91 2070.69,-24.95"/>
</g>
<!-- :feature:other&#45;license&#45;detail -->
<g id="node9" class="node">
<title>:feature:other&#45;license&#45;detail</title>
<ellipse fill="none" stroke="black" cx="2978.39" cy="-90" rx="139.98" ry="18"/>
<text text-anchor="middle" x="2978.39" y="-86.3" font-family="Times,serif" font-size="14.00">:feature:other&#45;license&#45;detail</text>
</g>
<!-- :feature:other&#45;license&#45;detail&#45;&gt;:core:designsystem -->
<g id="edge8" class="edge">
<title>:feature:other&#45;license&#45;detail&#45;&gt;:core:designsystem</title>
<path fill="none" stroke="black" d="M2880.68,-77.12C2863.6,-75.25 2845.99,-73.46 2829.39,-72 2560.47,-48.34 2243.06,-31.59 2081.12,-23.84"/>
<polygon fill="black" stroke="black" points="2080.83,-20.32 2070.68,-23.34 2080.5,-27.32 2080.83,-20.32"/>
</g>
<!-- :feature:other&#45;server&#45;ip&#45;detail -->
<g id="node10" class="node">
<title>:feature:other&#45;server&#45;ip&#45;detail</title>
<ellipse fill="none" stroke="black" cx="3285.39" cy="-90" rx="148.67" ry="18"/>
<text text-anchor="middle" x="3285.39" y="-86.3" font-family="Times,serif" font-size="14.00">:feature:other&#45;server&#45;ip&#45;detail</text>
</g>
<!-- :feature:other&#45;server&#45;ip&#45;detail&#45;&gt;:core:designsystem -->
<g id="edge9" class="edge">
<title>:feature:other&#45;server&#45;ip&#45;detail&#45;&gt;:core:designsystem</title>
<path fill="none" stroke="black" d="M3182.21,-76.98C3163.96,-75.12 3145.13,-73.36 3127.39,-72 2744.25,-42.61 2288.15,-27.51 2083.38,-21.79"/>
<polygon fill="black" stroke="black" points="2083.32,-18.28 2073.22,-21.5 2083.12,-25.28 2083.32,-18.28"/>
</g>
<!-- :feature:other&#45;volume&#45;detail -->
<g id="node11" class="node">
<title>:feature:other&#45;volume&#45;detail</title>
<ellipse fill="none" stroke="black" cx="3593.39" cy="-90" rx="141.07" ry="18"/>
<text text-anchor="middle" x="3593.39" y="-86.3" font-family="Times,serif" font-size="14.00">:feature:other&#45;volume&#45;detail</text>
</g>
<!-- :feature:other&#45;volume&#45;detail&#45;&gt;:core:designsystem -->
<g id="edge10" class="edge">
<title>:feature:other&#45;volume&#45;detail&#45;&gt;:core:designsystem</title>
<path fill="none" stroke="black" d="M3496.26,-76.89C3478.69,-75.01 3460.51,-73.28 3443.39,-72 2936.9,-34.22 2330.1,-23.15 2085.06,-20.09"/>
<polygon fill="black" stroke="black" points="2084.76,-16.59 2074.72,-19.97 2084.68,-23.59 2084.76,-16.59"/>
</g>
</g>
</svg>
