<?xml version="1.0" encoding="UTF-8" standalone="no"?>
<!DOCTYPE svg PUBLIC "-//W3C//DTD SVG 1.1//EN"
 "http://www.w3.org/Graphics/SVG/1.1/DTD/svg11.dtd">
<!-- Generated by graphviz version 2.43.0 (0)
 -->
<!-- Title: G Pages: 1 -->
<svg width="4761pt" height="116pt"
 viewBox="0.00 0.00 4760.78 116.00" xmlns="http://www.w3.org/2000/svg" xmlns:xlink="http://www.w3.org/1999/xlink">
<g id="graph0" class="graph" transform="scale(1 1) rotate(0) translate(4 112)">
<title>G</title>
<polygon fill="white" stroke="transparent" points="-4,4 -4,-112 4756.78,-112 4756.78,4 -4,4"/>
<!-- :server -->
<g id="node1" class="node">
<title>:server</title>
<ellipse fill="none" stroke="black" cx="43.55" cy="-90" rx="43.59" ry="18"/>
<text text-anchor="middle" x="43.55" y="-86.3" font-family="Times,serif" font-size="14.00">:server</text>
</g>
<!-- :core:domain -->
<g id="node2" class="node">
<title>:core:domain</title>
<ellipse fill="none" stroke="black" cx="2320.55" cy="-18" rx="70.69" ry="18"/>
<text text-anchor="middle" x="2320.55" y="-14.3" font-family="Times,serif" font-size="14.00">:core:domain</text>
</g>
<!-- :server&#45;&gt;:core:domain -->
<g id="edge1" class="edge">
<title>:server&#45;&gt;:core:domain</title>
<path fill="none" stroke="black" d="M74.85,-77.33C81.89,-75.16 89.4,-73.21 96.55,-72 310.67,-35.88 1864.95,-22.32 2239.5,-19.56"/>
<polygon fill="black" stroke="black" points="2239.74,-23.06 2249.71,-19.48 2239.69,-16.06 2239.74,-23.06"/>
</g>
<!-- :core:data -->
<g id="node3" class="node">
<title>:core:data</title>
<ellipse fill="none" stroke="black" cx="162.55" cy="-90" rx="57.39" ry="18"/>
<text text-anchor="middle" x="162.55" y="-86.3" font-family="Times,serif" font-size="14.00">:core:data</text>
</g>
<!-- :core:data&#45;&gt;:core:domain -->
<g id="edge2" class="edge">
<title>:core:data&#45;&gt;:core:domain</title>
<path fill="none" stroke="black" d="M202.74,-77.1C211.2,-75.04 220.11,-73.18 228.55,-72 627.41,-16.31 1904.43,-17.33 2239.44,-18.6"/>
<polygon fill="black" stroke="black" points="2239.53,-22.1 2249.55,-18.64 2239.56,-15.1 2239.53,-22.1"/>
</g>
<!-- :core:gt7&#45;ps5&#45;data -->
<g id="node4" class="node">
<title>:core:gt7&#45;ps5&#45;data</title>
<ellipse fill="none" stroke="black" cx="332.55" cy="-90" rx="94.78" ry="18"/>
<text text-anchor="middle" x="332.55" y="-86.3" font-family="Times,serif" font-size="14.00">:core:gt7&#45;ps5&#45;data</text>
</g>
<!-- :core:gt7&#45;ps5&#45;data&#45;&gt;:core:domain -->
<g id="edge3" class="edge">
<title>:core:gt7&#45;ps5&#45;data&#45;&gt;:core:domain</title>
<path fill="none" stroke="black" d="M398.12,-76.91C410.83,-74.96 424.07,-73.19 436.55,-72 794.45,-37.87 1926.17,-23.28 2239.46,-19.83"/>
<polygon fill="black" stroke="black" points="2239.86,-23.33 2249.82,-19.72 2239.78,-16.33 2239.86,-23.33"/>
</g>
<!-- :core:lmu&#45;windows&#45;data -->
<g id="node5" class="node">
<title>:core:lmu&#45;windows&#45;data</title>
<ellipse fill="none" stroke="black" cx="566.55" cy="-90" rx="120.78" ry="18"/>
<text text-anchor="middle" x="566.55" y="-86.3" font-family="Times,serif" font-size="14.00">:core:lmu&#45;windows&#45;data</text>
</g>
<!-- :core:lmu&#45;windows&#45;data&#45;&gt;:core:domain -->
<g id="edge4" class="edge">
<title>:core:lmu&#45;windows&#45;data&#45;&gt;:core:domain</title>
<path fill="none" stroke="black" d="M649.64,-76.91C665.2,-74.99 681.35,-73.24 696.55,-72 1287,-23.87 2001.57,-19.04 2239.29,-18.86"/>
<polygon fill="black" stroke="black" points="2239.57,-22.36 2249.57,-18.85 2239.57,-15.36 2239.57,-22.36"/>
</g>
<!-- :feature:lmu&#45;windows&#45;connection -->
<g id="node6" class="node">
<title>:feature:lmu&#45;windows&#45;connection</title>
<ellipse fill="none" stroke="black" cx="869.55" cy="-90" rx="164.37" ry="18"/>
<text text-anchor="middle" x="869.55" y="-86.3" font-family="Times,serif" font-size="14.00">:feature:lmu&#45;windows&#45;connection</text>
</g>
<!-- :feature:lmu&#45;windows&#45;connection&#45;&gt;:core:domain -->
<g id="edge5" class="edge">
<title>:feature:lmu&#45;windows&#45;connection&#45;&gt;:core:domain</title>
<path fill="none" stroke="black" d="M983.19,-76.97C1003.28,-75.11 1024.02,-73.36 1043.55,-72 1495.29,-40.58 2038.31,-25.57 2240.01,-20.78"/>
<polygon fill="black" stroke="black" points="2240.3,-24.27 2250.22,-20.54 2240.14,-17.28 2240.3,-24.27"/>
</g>
<!-- :feature:lmu&#45;windows&#45;narrator -->
<g id="node7" class="node">
<title>:feature:lmu&#45;windows&#45;narrator</title>
<ellipse fill="none" stroke="black" cx="1205.55" cy="-90" rx="153.27" ry="18"/>
<text text-anchor="middle" x="1205.55" y="-86.3" font-family="Times,serif" font-size="14.00">:feature:lmu&#45;windows&#45;narrator</text>
</g>
<!-- :feature:lmu&#45;windows&#45;narrator&#45;&gt;:core:domain -->
<g id="edge6" class="edge">
<title>:feature:lmu&#45;windows&#45;narrator&#45;&gt;:core:domain</title>
<path fill="none" stroke="black" d="M1312.23,-77.05C1330.66,-75.21 1349.65,-73.44 1367.55,-72 1690.8,-46.07 2076.76,-28.81 2240.64,-22.12"/>
<polygon fill="black" stroke="black" points="2241.26,-25.6 2251.11,-21.69 2240.98,-18.6 2241.26,-25.6"/>
</g>
<!-- :feature:lmu&#45;windows&#45;readout&#45;flag&#45;detail -->
<g id="node8" class="node">
<title>:feature:lmu&#45;windows&#45;readout&#45;flag&#45;detail</title>
<ellipse fill="none" stroke="black" cx="1576.55" cy="-90" rx="199.56" ry="18"/>
<text text-anchor="middle" x="1576.55" y="-86.3" font-family="Times,serif" font-size="14.00">:feature:lmu&#45;windows&#45;readout&#45;flag&#45;detail</text>
</g>
<!-- :feature:lmu&#45;windows&#45;readout&#45;flag&#45;detail&#45;&gt;:core:domain -->
<g id="edge7" class="edge">
<title>:feature:lmu&#45;windows&#45;readout&#45;flag&#45;detail&#45;&gt;:core:domain</title>
<path fill="none" stroke="black" d="M1709.13,-76.53C1865.17,-61.84 2118.92,-37.97 2244.78,-26.13"/>
<polygon fill="black" stroke="black" points="2245.46,-29.58 2255.09,-25.16 2244.81,-22.61 2245.46,-29.58"/>
</g>
<!-- :feature:lmu&#45;windows&#45;readout&#45;vehicle&#45;approach&#45;detail -->
<g id="node9" class="node">
<title>:feature:lmu&#45;windows&#45;readout&#45;vehicle&#45;approach&#45;detail</title>
<ellipse fill="none" stroke="black" cx="2054.55" cy="-90" rx="260.75" ry="18"/>
<text text-anchor="middle" x="2054.55" y="-86.3" font-family="Times,serif" font-size="14.00">:feature:lmu&#45;windows&#45;readout&#45;vehicle&#45;approach&#45;detail</text>
</g>
<!-- :feature:lmu&#45;windows&#45;readout&#45;vehicle&#45;approach&#45;detail&#45;&gt;:core:domain -->
<g id="edge8" class="edge">
<title>:feature:lmu&#45;windows&#45;readout&#45;vehicle&#45;approach&#45;detail&#45;&gt;:core:domain</title>
<path fill="none" stroke="black" d="M2117.25,-72.5C2161.56,-60.84 2220.49,-45.33 2263.49,-34.01"/>
<polygon fill="black" stroke="black" points="2264.46,-37.38 2273.24,-31.45 2262.68,-30.61 2264.46,-37.38"/>
</g>
<!-- :feature:lmu&#45;windows&#45;readout&#45;vehicle&#45;damage&#45;detail -->
<g id="node10" class="node">
<title>:feature:lmu&#45;windows&#45;readout&#45;vehicle&#45;damage&#45;detail</title>
<ellipse fill="none" stroke="black" cx="2587.55" cy="-90" rx="254.55" ry="18"/>
<text text-anchor="middle" x="2587.55" y="-86.3" font-family="Times,serif" font-size="14.00">:feature:lmu&#45;windows&#45;readout&#45;vehicle&#45;damage&#45;detail</text>
</g>
<!-- :feature:lmu&#45;windows&#45;readout&#45;vehicle&#45;damage&#45;detail&#45;&gt;:core:domain -->
<g id="edge9" class="edge">
<title>:feature:lmu&#45;windows&#45;readout&#45;vehicle&#45;damage&#45;detail&#45;&gt;:core:domain</title>
<path fill="none" stroke="black" d="M2524.61,-72.5C2480.13,-60.84 2420.98,-45.33 2377.81,-34.01"/>
<polygon fill="black" stroke="black" points="2378.59,-30.6 2368.03,-31.45 2376.82,-37.37 2378.59,-30.6"/>
</g>
<!-- :feature:main -->
<g id="node11" class="node">
<title>:feature:main</title>
<ellipse fill="none" stroke="black" cx="2933.55" cy="-90" rx="73.39" ry="18"/>
<text text-anchor="middle" x="2933.55" y="-86.3" font-family="Times,serif" font-size="14.00">:feature:main</text>
</g>
<!-- :feature:main&#45;&gt;:core:domain -->
<g id="edge10" class="edge">
<title>:feature:main&#45;&gt;:core:domain</title>
<path fill="none" stroke="black" d="M2881.2,-77.29C2871.38,-75.34 2861.17,-73.47 2851.55,-72 2691.35,-47.47 2502.16,-31.72 2398.39,-24.2"/>
<polygon fill="black" stroke="black" points="2398.53,-20.7 2388.31,-23.48 2398.03,-27.68 2398.53,-20.7"/>
</g>
<!-- :feature:other&#45;list -->
<g id="node12" class="node">
<title>:feature:other&#45;list</title>
<ellipse fill="none" stroke="black" cx="3117.55" cy="-90" rx="92.88" ry="18"/>
<text text-anchor="middle" x="3117.55" y="-86.3" font-family="Times,serif" font-size="14.00">:feature:other&#45;list</text>
</g>
<!-- :feature:other&#45;list&#45;&gt;:core:domain -->
<g id="edge11" class="edge">
<title>:feature:other&#45;list&#45;&gt;:core:domain</title>
<path fill="none" stroke="black" d="M3052.1,-77.21C3039.98,-75.27 3027.4,-73.44 3015.55,-72 2793.32,-45.06 2529.35,-29.38 2400.01,-22.75"/>
<polygon fill="black" stroke="black" points="2399.96,-19.25 2389.8,-22.23 2399.61,-26.24 2399.96,-19.25"/>
</g>
<!-- :feature:other&#45;readout&#45;start&#45;sound&#45;detail -->
<g id="node13" class="node">
<title>:feature:other&#45;readout&#45;start&#45;sound&#45;detail</title>
<ellipse fill="none" stroke="black" cx="3427.55" cy="-90" rx="199.56" ry="18"/>
<text text-anchor="middle" x="3427.55" y="-86.3" font-family="Times,serif" font-size="14.00">:feature:other&#45;readout&#45;start&#45;sound&#45;detail</text>
</g>
<!-- :feature:other&#45;readout&#45;start&#45;sound&#45;detail&#45;&gt;:core:domain -->
<g id="edge12" class="edge">
<title>:feature:other&#45;readout&#45;start&#45;sound&#45;detail&#45;&gt;:core:domain</title>
<path fill="none" stroke="black" d="M3287.72,-77.13C3264.94,-75.33 3241.59,-73.55 3219.55,-72 2916.61,-50.69 2555.84,-31.21 2399.39,-23.05"/>
<polygon fill="black" stroke="black" points="2399.55,-19.55 2389.38,-22.52 2399.18,-26.54 2399.55,-19.55"/>
</g>
<!-- :feature:other&#45;server&#45;ip&#45;detail -->
<g id="node14" class="node">
<title>:feature:other&#45;server&#45;ip&#45;detail</title>
<ellipse fill="none" stroke="black" cx="3793.55" cy="-90" rx="148.67" ry="18"/>
<text text-anchor="middle" x="3793.55" y="-86.3" font-family="Times,serif" font-size="14.00">:feature:other&#45;server&#45;ip&#45;detail</text>
</g>
<!-- :feature:other&#45;server&#45;ip&#45;detail&#45;&gt;:core:domain -->
<g id="edge13" class="edge">
<title>:feature:other&#45;server&#45;ip&#45;detail&#45;&gt;:core:domain</title>
<path fill="none" stroke="black" d="M3691.03,-76.89C3672.9,-75.04 3654.18,-73.31 3636.55,-72 3169.28,-37.33 2606.87,-24.21 2401.02,-20.35"/>
<polygon fill="black" stroke="black" points="2400.97,-16.85 2390.9,-20.16 2400.84,-23.84 2400.97,-16.85"/>
</g>
<!-- :feature:other&#45;volume&#45;detail -->
<g id="node15" class="node">
<title>:feature:other&#45;volume&#45;detail</title>
<ellipse fill="none" stroke="black" cx="4101.55" cy="-90" rx="141.07" ry="18"/>
<text text-anchor="middle" x="4101.55" y="-86.3" font-family="Times,serif" font-size="14.00">:feature:other&#45;volume&#45;detail</text>
</g>
<!-- :feature:other&#45;volume&#45;detail&#45;&gt;:core:domain -->
<g id="edge14" class="edge">
<title>:feature:other&#45;volume&#45;detail&#45;&gt;:core:domain</title>
<path fill="none" stroke="black" d="M4004.82,-76.88C3987.12,-74.99 3968.8,-73.26 3951.55,-72 3357.81,-28.78 2639.92,-20.8 2401.7,-19.33"/>
<polygon fill="black" stroke="black" points="2401.41,-15.83 2391.39,-19.27 2401.37,-22.83 2401.41,-15.83"/>
</g>
<!-- :feature:readout&#45;list -->
<g id="node16" class="node">
<title>:feature:readout&#45;list</title>
<ellipse fill="none" stroke="black" cx="4364.55" cy="-90" rx="103.98" ry="18"/>
<text text-anchor="middle" x="4364.55" y="-86.3" font-family="Times,serif" font-size="14.00">:feature:readout&#45;list</text>
</g>
<!-- :feature:readout&#45;list&#45;&gt;:core:domain -->
<g id="edge15" class="edge">
<title>:feature:readout&#45;list&#45;&gt;:core:domain</title>
<path fill="none" stroke="black" d="M4292.97,-76.89C4279.26,-74.95 4264.98,-73.19 4251.55,-72 3883.59,-39.39 2718.98,-23.66 2401.28,-19.9"/>
<polygon fill="black" stroke="black" points="2401.27,-16.4 2391.23,-19.78 2401.19,-23.4 2401.27,-16.4"/>
</g>
<!-- :feature:server&#45;connection -->
<g id="node17" class="node">
<title>:feature:server&#45;connection</title>
<ellipse fill="none" stroke="black" cx="4619.55" cy="-90" rx="133.48" ry="18"/>
<text text-anchor="middle" x="4619.55" y="-86.3" font-family="Times,serif" font-size="14.00">:feature:server&#45;connection</text>
</g>
<!-- :feature:server&#45;connection&#45;&gt;:core:domain -->
<g id="edge16" class="edge">
<title>:feature:server&#45;connection&#45;&gt;:core:domain</title>
<path fill="none" stroke="black" d="M4528.39,-76.79C4511.51,-74.9 4494.01,-73.19 4477.55,-72 4062.23,-42.1 2741.55,-24.16 2401.19,-19.96"/>
<polygon fill="black" stroke="black" points="2401.21,-16.46 2391.16,-19.84 2401.12,-23.46 2401.21,-16.46"/>
</g>
</g>
</svg>
