<?xml version="1.0" encoding="UTF-8" standalone="no"?>
<!DOCTYPE svg PUBLIC "-//W3C//DTD SVG 1.1//EN"
 "http://www.w3.org/Graphics/SVG/1.1/DTD/svg11.dtd">
<!-- Generated by graphviz version 2.43.0 (0)
 -->
<!-- Title: G Pages: 1 -->
<svg width="1523pt" height="116pt"
 viewBox="0.00 0.00 1523.23 116.00" xmlns="http://www.w3.org/2000/svg" xmlns:xlink="http://www.w3.org/1999/xlink">
<g id="graph0" class="graph" transform="scale(1 1) rotate(0) translate(4 112)">
<title>G</title>
<polygon fill="white" stroke="transparent" points="-4,4 -4,-112 1519.23,-112 1519.23,4 -4,4"/>
<!-- :server -->
<g id="node1" class="node">
<title>:server</title>
<ellipse fill="none" stroke="black" cx="43.55" cy="-90" rx="43.59" ry="18"/>
<text text-anchor="middle" x="43.55" y="-86.3" font-family="Times,serif" font-size="14.00">:server</text>
</g>
<!-- :core:domain -->
<g id="node2" class="node">
<title>:core:domain</title>
<ellipse fill="none" stroke="black" cx="631.55" cy="-18" rx="70.69" ry="18"/>
<text text-anchor="middle" x="631.55" y="-14.3" font-family="Times,serif" font-size="14.00">:core:domain</text>
</g>
<!-- :server&#45;&gt;:core:domain -->
<g id="edge1" class="edge">
<title>:server&#45;&gt;:core:domain</title>
<path fill="none" stroke="black" d="M75.49,-77.56C82.36,-75.43 89.64,-73.43 96.55,-72 255.75,-38.97 446.01,-26.35 551.35,-21.66"/>
<polygon fill="black" stroke="black" points="551.74,-25.15 561.58,-21.22 551.44,-18.15 551.74,-25.15"/>
</g>
<!-- :app:androidApp -->
<g id="node3" class="node">
<title>:app:androidApp</title>
<ellipse fill="none" stroke="black" cx="192.55" cy="-90" rx="87.18" ry="18"/>
<text text-anchor="middle" x="192.55" y="-86.3" font-family="Times,serif" font-size="14.00">:app:androidApp</text>
</g>
<!-- :app:androidApp&#45;&gt;:core:domain -->
<g id="edge2" class="edge">
<title>:app:androidApp&#45;&gt;:core:domain</title>
<path fill="none" stroke="black" d="M255.77,-77.6C266.69,-75.69 277.94,-73.76 288.55,-72 383.16,-56.31 492.72,-39.64 562.06,-29.28"/>
<polygon fill="black" stroke="black" points="562.62,-32.73 572,-27.8 561.59,-25.81 562.62,-32.73"/>
</g>
<!-- :app:desktopApp -->
<g id="node4" class="node">
<title>:app:desktopApp</title>
<ellipse fill="none" stroke="black" cx="385.55" cy="-90" rx="88.28" ry="18"/>
<text text-anchor="middle" x="385.55" y="-86.3" font-family="Times,serif" font-size="14.00">:app:desktopApp</text>
</g>
<!-- :app:desktopApp&#45;&gt;:core:domain -->
<g id="edge3" class="edge">
<title>:app:desktopApp&#45;&gt;:core:domain</title>
<path fill="none" stroke="black" d="M434.74,-75C475.71,-63.34 534.03,-46.75 576.54,-34.65"/>
<polygon fill="black" stroke="black" points="577.51,-38.01 586.17,-31.91 575.6,-31.28 577.51,-38.01"/>
</g>
<!-- :core:data -->
<g id="node5" class="node">
<title>:core:data</title>
<ellipse fill="none" stroke="black" cx="549.55" cy="-90" rx="57.39" ry="18"/>
<text text-anchor="middle" x="549.55" y="-86.3" font-family="Times,serif" font-size="14.00">:core:data</text>
</g>
<!-- :core:data&#45;&gt;:core:domain -->
<g id="edge4" class="edge">
<title>:core:data&#45;&gt;:core:domain</title>
<path fill="none" stroke="black" d="M568.56,-72.76C579.25,-63.64 592.77,-52.1 604.53,-42.06"/>
<polygon fill="black" stroke="black" points="607.01,-44.54 612.35,-35.39 602.47,-39.22 607.01,-44.54"/>
</g>
<!-- :feature:narrator -->
<g id="node6" class="node">
<title>:feature:narrator</title>
<ellipse fill="none" stroke="black" cx="713.55" cy="-90" rx="89.08" ry="18"/>
<text text-anchor="middle" x="713.55" y="-86.3" font-family="Times,serif" font-size="14.00">:feature:narrator</text>
</g>
<!-- :feature:narrator&#45;&gt;:core:domain -->
<g id="edge5" class="edge">
<title>:feature:narrator&#45;&gt;:core:domain</title>
<path fill="none" stroke="black" d="M694.11,-72.41C683.49,-63.34 670.17,-51.97 658.56,-42.06"/>
<polygon fill="black" stroke="black" points="660.72,-39.3 650.84,-35.47 656.17,-44.62 660.72,-39.3"/>
</g>
<!-- :feature:other -->
<g id="node7" class="node">
<title>:feature:other</title>
<ellipse fill="none" stroke="black" cx="895.55" cy="-90" rx="75.29" ry="18"/>
<text text-anchor="middle" x="895.55" y="-86.3" font-family="Times,serif" font-size="14.00">:feature:other</text>
</g>
<!-- :feature:other&#45;&gt;:core:domain -->
<g id="edge6" class="edge">
<title>:feature:other&#45;&gt;:core:domain</title>
<path fill="none" stroke="black" d="M847.12,-76.16C802.38,-64.3 735.86,-46.66 688.56,-34.12"/>
<polygon fill="black" stroke="black" points="689.34,-30.7 678.77,-31.52 687.54,-37.47 689.34,-30.7"/>
</g>
<!-- :feature:readout -->
<g id="node8" class="node">
<title>:feature:readout</title>
<ellipse fill="none" stroke="black" cx="1075.55" cy="-90" rx="86.38" ry="18"/>
<text text-anchor="middle" x="1075.55" y="-86.3" font-family="Times,serif" font-size="14.00">:feature:readout</text>
</g>
<!-- :feature:readout&#45;&gt;:core:domain -->
<g id="edge7" class="edge">
<title>:feature:readout&#45;&gt;:core:domain</title>
<path fill="none" stroke="black" d="M1012.58,-77.63C1001.58,-75.7 990.23,-73.76 979.55,-72 883.28,-56.15 771.74,-39.45 701.42,-29.14"/>
<polygon fill="black" stroke="black" points="701.75,-25.65 691.35,-27.66 700.73,-32.57 701.75,-25.65"/>
</g>
<!-- :feature:readout&#45;vehicle&#45;approach -->
<g id="node9" class="node">
<title>:feature:readout&#45;vehicle&#45;approach</title>
<ellipse fill="none" stroke="black" cx="1347.55" cy="-90" rx="167.87" ry="18"/>
<text text-anchor="middle" x="1347.55" y="-86.3" font-family="Times,serif" font-size="14.00">:feature:readout&#45;vehicle&#45;approach</text>
</g>
<!-- :feature:readout&#45;vehicle&#45;approach&#45;&gt;:core:domain -->
<g id="edge8" class="edge">
<title>:feature:readout&#45;vehicle&#45;approach&#45;&gt;:core:domain</title>
<path fill="none" stroke="black" d="M1228.11,-77.32C1079.69,-62.81 830.89,-38.49 706.75,-26.35"/>
<polygon fill="black" stroke="black" points="706.87,-22.85 696.58,-25.36 706.19,-29.81 706.87,-22.85"/>
</g>
</g>
</svg>
