<?xml version="1.0" encoding="UTF-8" standalone="no"?>
<!DOCTYPE svg PUBLIC "-//W3C//DTD SVG 1.1//EN"
 "http://www.w3.org/Graphics/SVG/1.1/DTD/svg11.dtd">
<!-- Generated by graphviz version 2.43.0 (0)
 -->
<!-- Title: G Pages: 1 -->
<svg width="3148pt" height="116pt"
 viewBox="0.00 0.00 3148.02 116.00" xmlns="http://www.w3.org/2000/svg" xmlns:xlink="http://www.w3.org/1999/xlink">
<g id="graph0" class="graph" transform="scale(1 1) rotate(0) translate(4 112)">
<title>G</title>
<polygon fill="white" stroke="transparent" points="-4,4 -4,-112 3144.02,-112 3144.02,4 -4,4"/>
<!-- :feature:gt7&#45;ps5&#45;readout&#45;my&#45;bestlap&#45;detail -->
<g id="node1" class="node">
<title>:feature:gt7&#45;ps5&#45;readout&#45;my&#45;bestlap&#45;detail</title>
<ellipse fill="none" stroke="black" cx="207.98" cy="-90" rx="207.96" ry="18"/>
<text text-anchor="middle" x="207.98" y="-86.3" font-family="Times,serif" font-size="14.00">:feature:gt7&#45;ps5&#45;readout&#45;my&#45;bestlap&#45;detail</text>
</g>
<!-- :core:designsystem -->
<g id="node2" class="node">
<title>:core:designsystem</title>
<ellipse fill="none" stroke="black" cx="1857.98" cy="-18" rx="100.98" ry="18"/>
<text text-anchor="middle" x="1857.98" y="-14.3" font-family="Times,serif" font-size="14.00">:core:designsystem</text>
</g>
<!-- :feature:gt7&#45;ps5&#45;readout&#45;my&#45;bestlap&#45;detail&#45;&gt;:core:designsystem -->
<g id="edge1" class="edge">
<title>:feature:gt7&#45;ps5&#45;readout&#45;my&#45;bestlap&#45;detail&#45;&gt;:core:designsystem</title>
<path fill="none" stroke="black" d="M351.21,-76.94C375.8,-75.11 401.12,-73.38 424.98,-72 918.7,-43.54 1509.04,-27.34 1748.78,-21.5"/>
<polygon fill="black" stroke="black" points="1748.98,-25 1758.89,-21.26 1748.81,-18 1748.98,-25"/>
</g>
<!-- :feature:lmu&#45;windows&#45;readout&#45;flag&#45;detail -->
<g id="node3" class="node">
<title>:feature:lmu&#45;windows&#45;readout&#45;flag&#45;detail</title>
<ellipse fill="none" stroke="black" cx="633.98" cy="-90" rx="199.56" ry="18"/>
<text text-anchor="middle" x="633.98" y="-86.3" font-family="Times,serif" font-size="14.00">:feature:lmu&#45;windows&#45;readout&#45;flag&#45;detail</text>
</g>
<!-- :feature:lmu&#45;windows&#45;readout&#45;flag&#45;detail&#45;&gt;:core:designsystem -->
<g id="edge2" class="edge">
<title>:feature:lmu&#45;windows&#45;readout&#45;flag&#45;detail&#45;&gt;:core:designsystem</title>
<path fill="none" stroke="black" d="M772.96,-77.07C796,-75.26 819.66,-73.49 841.98,-72 1173.37,-49.82 1566.1,-31.63 1751.26,-23.53"/>
<polygon fill="black" stroke="black" points="1751.43,-27.03 1761.27,-23.1 1751.12,-20.04 1751.43,-27.03"/>
</g>
<!-- :feature:lmu&#45;windows&#45;readout&#45;vehicle&#45;approach&#45;detail -->
<g id="node4" class="node">
<title>:feature:lmu&#45;windows&#45;readout&#45;vehicle&#45;approach&#45;detail</title>
<ellipse fill="none" stroke="black" cx="1111.98" cy="-90" rx="260.75" ry="18"/>
<text text-anchor="middle" x="1111.98" y="-86.3" font-family="Times,serif" font-size="14.00">:feature:lmu&#45;windows&#45;readout&#45;vehicle&#45;approach&#45;detail</text>
</g>
<!-- :feature:lmu&#45;windows&#45;readout&#45;vehicle&#45;approach&#45;detail&#45;&gt;:core:designsystem -->
<g id="edge3" class="edge">
<title>:feature:lmu&#45;windows&#45;readout&#45;vehicle&#45;approach&#45;detail&#45;&gt;:core:designsystem</title>
<path fill="none" stroke="black" d="M1259.81,-75.13C1408.49,-61.18 1633.44,-40.07 1760.9,-28.11"/>
<polygon fill="black" stroke="black" points="1761.41,-31.58 1771.03,-27.16 1760.75,-24.61 1761.41,-31.58"/>
</g>
<!-- :feature:lmu&#45;windows&#45;readout&#45;vehicle&#45;damage&#45;detail -->
<g id="node5" class="node">
<title>:feature:lmu&#45;windows&#45;readout&#45;vehicle&#45;damage&#45;detail</title>
<ellipse fill="none" stroke="black" cx="1644.98" cy="-90" rx="254.55" ry="18"/>
<text text-anchor="middle" x="1644.98" y="-86.3" font-family="Times,serif" font-size="14.00">:feature:lmu&#45;windows&#45;readout&#45;vehicle&#45;damage&#45;detail</text>
</g>
<!-- :feature:lmu&#45;windows&#45;readout&#45;vehicle&#45;damage&#45;detail&#45;&gt;:core:designsystem -->
<g id="edge4" class="edge">
<title>:feature:lmu&#45;windows&#45;readout&#45;vehicle&#45;damage&#45;detail&#45;&gt;:core:designsystem</title>
<path fill="none" stroke="black" d="M1695.73,-72.32C1727.87,-61.76 1769.45,-48.1 1802.47,-37.24"/>
<polygon fill="black" stroke="black" points="1803.57,-40.57 1811.98,-34.12 1801.39,-33.92 1803.57,-40.57"/>
</g>
<!-- :feature:other&#45;gt7&#45;ps5&#45;ip&#45;detail -->
<g id="node6" class="node">
<title>:feature:other&#45;gt7&#45;ps5&#45;ip&#45;detail</title>
<ellipse fill="none" stroke="black" cx="2071.98" cy="-90" rx="154.07" ry="18"/>
<text text-anchor="middle" x="2071.98" y="-86.3" font-family="Times,serif" font-size="14.00">:feature:other&#45;gt7&#45;ps5&#45;ip&#45;detail</text>
</g>
<!-- :feature:other&#45;gt7&#45;ps5&#45;ip&#45;detail&#45;&gt;:core:designsystem -->
<g id="edge5" class="edge">
<title>:feature:other&#45;gt7&#45;ps5&#45;ip&#45;detail&#45;&gt;:core:designsystem</title>
<path fill="none" stroke="black" d="M2022.62,-72.85C1990.15,-62.23 1947.59,-48.31 1913.88,-37.28"/>
<polygon fill="black" stroke="black" points="1914.76,-33.89 1904.17,-34.11 1912.59,-40.54 1914.76,-33.89"/>
</g>
<!-- :feature:other&#45;license&#45;detail -->
<g id="node7" class="node">
<title>:feature:other&#45;license&#45;detail</title>
<ellipse fill="none" stroke="black" cx="2383.98" cy="-90" rx="139.98" ry="18"/>
<text text-anchor="middle" x="2383.98" y="-86.3" font-family="Times,serif" font-size="14.00">:feature:other&#45;license&#45;detail</text>
</g>
<!-- :feature:other&#45;license&#45;detail&#45;&gt;:core:designsystem -->
<g id="edge6" class="edge">
<title>:feature:other&#45;license&#45;detail&#45;&gt;:core:designsystem</title>
<path fill="none" stroke="black" d="M2290.55,-76.57C2193.18,-63.61 2041.75,-43.46 1946.32,-30.76"/>
<polygon fill="black" stroke="black" points="1946.78,-27.29 1936.4,-29.44 1945.85,-34.22 1946.78,-27.29"/>
</g>
<!-- :feature:other&#45;server&#45;ip&#45;detail -->
<g id="node8" class="node">
<title>:feature:other&#45;server&#45;ip&#45;detail</title>
<ellipse fill="none" stroke="black" cx="2690.98" cy="-90" rx="148.67" ry="18"/>
<text text-anchor="middle" x="2690.98" y="-86.3" font-family="Times,serif" font-size="14.00">:feature:other&#45;server&#45;ip&#45;detail</text>
</g>
<!-- :feature:other&#45;server&#45;ip&#45;detail&#45;&gt;:core:designsystem -->
<g id="edge7" class="edge">
<title>:feature:other&#45;server&#45;ip&#45;detail&#45;&gt;:core:designsystem</title>
<path fill="none" stroke="black" d="M2585.64,-77.24C2568.06,-75.4 2550.01,-73.58 2532.98,-72 2330.08,-53.12 2092.44,-35.51 1960.16,-26.1"/>
<polygon fill="black" stroke="black" points="1960.26,-22.6 1950.04,-25.38 1959.76,-29.58 1960.26,-22.6"/>
</g>
<!-- :feature:other&#45;volume&#45;detail -->
<g id="node9" class="node">
<title>:feature:other&#45;volume&#45;detail</title>
<ellipse fill="none" stroke="black" cx="2998.98" cy="-90" rx="141.07" ry="18"/>
<text text-anchor="middle" x="2998.98" y="-86.3" font-family="Times,serif" font-size="14.00">:feature:other&#45;volume&#45;detail</text>
</g>
<!-- :feature:other&#45;volume&#45;detail&#45;&gt;:core:designsystem -->
<g id="edge8" class="edge">
<title>:feature:other&#45;volume&#45;detail&#45;&gt;:core:designsystem</title>
<path fill="none" stroke="black" d="M2900.63,-77.01C2883.43,-75.15 2865.7,-73.39 2848.98,-72 2528.38,-45.28 2148.26,-29.34 1966,-22.67"/>
<polygon fill="black" stroke="black" points="1965.99,-19.17 1955.87,-22.31 1965.74,-26.17 1965.99,-19.17"/>
</g>
</g>
</svg>
