<?xml version="1.0" encoding="UTF-8" standalone="no"?>
<!DOCTYPE svg PUBLIC "-//W3C//DTD SVG 1.1//EN"
 "http://www.w3.org/Graphics/SVG/1.1/DTD/svg11.dtd">
<!-- Generated by graphviz version 2.43.0 (0)
 -->
<!-- Title: G Pages: 1 -->
<svg width="626pt" height="188pt"
 viewBox="0.00 0.00 625.74 188.00" xmlns="http://www.w3.org/2000/svg" xmlns:xlink="http://www.w3.org/1999/xlink">
<g id="graph0" class="graph" transform="scale(1 1) rotate(0) translate(4 184)">
<title>G</title>
<polygon fill="white" stroke="transparent" points="-4,4 -4,-184 621.74,-184 621.74,4 -4,4"/>
<!-- :server -->
<g id="node1" class="node">
<title>:server</title>
<ellipse fill="none" stroke="black" cx="43.55" cy="-90" rx="43.59" ry="18"/>
<text text-anchor="middle" x="43.55" y="-86.3" font-family="Times,serif" font-size="14.00">:server</text>
</g>
<!-- :core:domain -->
<g id="node2" class="node">
<title>:core:domain</title>
<ellipse fill="none" stroke="black" cx="218.55" cy="-18" rx="70.69" ry="18"/>
<text text-anchor="middle" x="218.55" y="-14.3" font-family="Times,serif" font-size="14.00">:core:domain</text>
</g>
<!-- :server&#45;&gt;:core:domain -->
<g id="edge1" class="edge">
<title>:server&#45;&gt;:core:domain</title>
<path fill="none" stroke="black" d="M73.63,-76.97C100.91,-66.06 141.51,-49.81 172.81,-37.3"/>
<polygon fill="black" stroke="black" points="174.21,-40.5 182.2,-33.54 171.61,-34 174.21,-40.5"/>
</g>
<!-- :app:shared -->
<g id="node3" class="node">
<title>:app:shared</title>
<ellipse fill="none" stroke="black" cx="218.55" cy="-162" rx="65.79" ry="18"/>
<text text-anchor="middle" x="218.55" y="-158.3" font-family="Times,serif" font-size="14.00">:app:shared</text>
</g>
<!-- :app:shared&#45;&gt;:core:domain -->
<g id="edge4" class="edge">
<title>:app:shared&#45;&gt;:core:domain</title>
<path fill="none" stroke="black" d="M180.64,-147.15C163.3,-138.68 144.46,-125.97 134.55,-108 126.82,-93.99 126.82,-86.01 134.55,-72 142.61,-57.37 156.61,-46.22 170.89,-38.02"/>
<polygon fill="black" stroke="black" points="172.59,-41.08 179.76,-33.28 169.29,-34.9 172.59,-41.08"/>
</g>
<!-- :feature:other -->
<g id="node4" class="node">
<title>:feature:other</title>
<ellipse fill="none" stroke="black" cx="218.55" cy="-90" rx="75.29" ry="18"/>
<text text-anchor="middle" x="218.55" y="-86.3" font-family="Times,serif" font-size="14.00">:feature:other</text>
</g>
<!-- :app:shared&#45;&gt;:feature:other -->
<g id="edge2" class="edge">
<title>:app:shared&#45;&gt;:feature:other</title>
<path fill="none" stroke="black" d="M218.55,-143.7C218.55,-135.98 218.55,-126.71 218.55,-118.11"/>
<polygon fill="black" stroke="black" points="222.05,-118.1 218.55,-108.1 215.05,-118.1 222.05,-118.1"/>
</g>
<!-- :feature:readout -->
<g id="node5" class="node">
<title>:feature:readout</title>
<ellipse fill="none" stroke="black" cx="398.55" cy="-90" rx="86.38" ry="18"/>
<text text-anchor="middle" x="398.55" y="-86.3" font-family="Times,serif" font-size="14.00">:feature:readout</text>
</g>
<!-- :app:shared&#45;&gt;:feature:readout -->
<g id="edge3" class="edge">
<title>:app:shared&#45;&gt;:feature:readout</title>
<path fill="none" stroke="black" d="M254.97,-146.83C282.41,-136.16 320.29,-121.43 350.26,-109.78"/>
<polygon fill="black" stroke="black" points="351.63,-113 359.68,-106.11 349.09,-106.48 351.63,-113"/>
</g>
<!-- :feature:other&#45;&gt;:core:domain -->
<g id="edge6" class="edge">
<title>:feature:other&#45;&gt;:core:domain</title>
<path fill="none" stroke="black" d="M218.55,-71.7C218.55,-63.98 218.55,-54.71 218.55,-46.11"/>
<polygon fill="black" stroke="black" points="222.05,-46.1 218.55,-36.1 215.05,-46.1 222.05,-46.1"/>
</g>
<!-- :feature:readout&#45;&gt;:core:domain -->
<g id="edge7" class="edge">
<title>:feature:readout&#45;&gt;:core:domain</title>
<path fill="none" stroke="black" d="M359.49,-73.81C331.81,-63.05 294.53,-48.55 265.27,-37.17"/>
<polygon fill="black" stroke="black" points="266.27,-33.8 255.68,-33.44 263.73,-40.33 266.27,-33.8"/>
</g>
<!-- :core:data -->
<g id="node6" class="node">
<title>:core:data</title>
<ellipse fill="none" stroke="black" cx="560.55" cy="-90" rx="57.39" ry="18"/>
<text text-anchor="middle" x="560.55" y="-86.3" font-family="Times,serif" font-size="14.00">:core:data</text>
</g>
<!-- :core:data&#45;&gt;:core:domain -->
<g id="edge5" class="edge">
<title>:core:data&#45;&gt;:core:domain</title>
<path fill="none" stroke="black" d="M518.1,-77.84C509.97,-75.81 501.51,-73.78 493.55,-72 422.74,-56.21 341.05,-40.82 285.21,-30.73"/>
<polygon fill="black" stroke="black" points="285.56,-27.23 275.1,-28.91 284.32,-34.12 285.56,-27.23"/>
</g>
</g>
</svg>
