<?xml version="1.0" encoding="UTF-8" standalone="no"?>
<!DOCTYPE svg PUBLIC "-//W3C//DTD SVG 1.1//EN"
 "http://www.w3.org/Graphics/SVG/1.1/DTD/svg11.dtd">
<!-- Generated by graphviz version 2.43.0 (0)
 -->
<!-- Title: G Pages: 1 -->
<svg width="1328pt" height="116pt"
 viewBox="0.00 0.00 1328.23 116.00" xmlns="http://www.w3.org/2000/svg" xmlns:xlink="http://www.w3.org/1999/xlink">
<g id="graph0" class="graph" transform="scale(1 1) rotate(0) translate(4 112)">
<title>G</title>
<polygon fill="white" stroke="transparent" points="-4,4 -4,-112 1324.23,-112 1324.23,4 -4,4"/>
<!-- :server -->
<g id="node1" class="node">
<title>:server</title>
<ellipse fill="none" stroke="black" cx="43.55" cy="-90" rx="43.59" ry="18"/>
<text text-anchor="middle" x="43.55" y="-86.3" font-family="Times,serif" font-size="14.00">:server</text>
</g>
<!-- :core:domain -->
<g id="node2" class="node">
<title>:core:domain</title>
<ellipse fill="none" stroke="black" cx="549.55" cy="-18" rx="70.69" ry="18"/>
<text text-anchor="middle" x="549.55" y="-14.3" font-family="Times,serif" font-size="14.00">:core:domain</text>
</g>
<!-- :server&#45;&gt;:core:domain -->
<g id="edge1" class="edge">
<title>:server&#45;&gt;:core:domain</title>
<path fill="none" stroke="black" d="M75.51,-77.65C82.38,-75.52 89.65,-73.49 96.55,-72 226.01,-43.94 379.73,-29.92 470.71,-23.57"/>
<polygon fill="black" stroke="black" points="471.21,-27.05 480.95,-22.87 470.73,-20.06 471.21,-27.05"/>
</g>
<!-- :app:androidApp -->
<g id="node3" class="node">
<title>:app:androidApp</title>
<ellipse fill="none" stroke="black" cx="192.55" cy="-90" rx="87.18" ry="18"/>
<text text-anchor="middle" x="192.55" y="-86.3" font-family="Times,serif" font-size="14.00">:app:androidApp</text>
</g>
<!-- :app:androidApp&#45;&gt;:core:domain -->
<g id="edge2" class="edge">
<title>:app:androidApp&#45;&gt;:core:domain</title>
<path fill="none" stroke="black" d="M253.51,-77.05C318.1,-64.38 419.66,-44.47 485.43,-31.57"/>
<polygon fill="black" stroke="black" points="486.12,-35 495.26,-29.64 484.78,-28.13 486.12,-35"/>
</g>
<!-- :app:desktopApp -->
<g id="node4" class="node">
<title>:app:desktopApp</title>
<ellipse fill="none" stroke="black" cx="385.55" cy="-90" rx="88.28" ry="18"/>
<text text-anchor="middle" x="385.55" y="-86.3" font-family="Times,serif" font-size="14.00">:app:desktopApp</text>
</g>
<!-- :app:desktopApp&#45;&gt;:core:domain -->
<g id="edge3" class="edge">
<title>:app:desktopApp&#45;&gt;:core:domain</title>
<path fill="none" stroke="black" d="M421.94,-73.46C446.65,-62.92 479.46,-48.91 505.62,-37.75"/>
<polygon fill="black" stroke="black" points="507.11,-40.92 514.94,-33.77 504.36,-34.48 507.11,-40.92"/>
</g>
<!-- :core:data -->
<g id="node5" class="node">
<title>:core:data</title>
<ellipse fill="none" stroke="black" cx="549.55" cy="-90" rx="57.39" ry="18"/>
<text text-anchor="middle" x="549.55" y="-86.3" font-family="Times,serif" font-size="14.00">:core:data</text>
</g>
<!-- :core:data&#45;&gt;:core:domain -->
<g id="edge4" class="edge">
<title>:core:data&#45;&gt;:core:domain</title>
<path fill="none" stroke="black" d="M549.55,-71.7C549.55,-63.98 549.55,-54.71 549.55,-46.11"/>
<polygon fill="black" stroke="black" points="553.05,-46.1 549.55,-36.1 546.05,-46.1 553.05,-46.1"/>
</g>
<!-- :feature:other -->
<g id="node6" class="node">
<title>:feature:other</title>
<ellipse fill="none" stroke="black" cx="700.55" cy="-90" rx="75.29" ry="18"/>
<text text-anchor="middle" x="700.55" y="-86.3" font-family="Times,serif" font-size="14.00">:feature:other</text>
</g>
<!-- :feature:other&#45;&gt;:core:domain -->
<g id="edge5" class="edge">
<title>:feature:other&#45;&gt;:core:domain</title>
<path fill="none" stroke="black" d="M667.41,-73.64C645.03,-63.26 615.31,-49.49 591.31,-38.36"/>
<polygon fill="black" stroke="black" points="592.63,-35.12 582.09,-34.09 589.69,-41.47 592.63,-35.12"/>
</g>
<!-- :feature:readout -->
<g id="node7" class="node">
<title>:feature:readout</title>
<ellipse fill="none" stroke="black" cx="880.55" cy="-90" rx="86.38" ry="18"/>
<text text-anchor="middle" x="880.55" y="-86.3" font-family="Times,serif" font-size="14.00">:feature:readout</text>
</g>
<!-- :feature:readout&#45;&gt;:core:domain -->
<g id="edge6" class="edge">
<title>:feature:readout&#45;&gt;:core:domain</title>
<path fill="none" stroke="black" d="M822.13,-76.65C763.15,-64.17 672.36,-44.97 611.98,-32.2"/>
<polygon fill="black" stroke="black" points="612.7,-28.78 602.19,-30.13 611.25,-35.63 612.7,-28.78"/>
</g>
<!-- :feature:readout&#45;vehicle&#45;approach -->
<g id="node8" class="node">
<title>:feature:readout&#45;vehicle&#45;approach</title>
<ellipse fill="none" stroke="black" cx="1152.55" cy="-90" rx="167.87" ry="18"/>
<text text-anchor="middle" x="1152.55" y="-86.3" font-family="Times,serif" font-size="14.00">:feature:readout&#45;vehicle&#45;approach</text>
</g>
<!-- :feature:readout&#45;vehicle&#45;approach&#45;&gt;:core:domain -->
<g id="edge7" class="edge">
<title>:feature:readout&#45;vehicle&#45;approach&#45;&gt;:core:domain</title>
<path fill="none" stroke="black" d="M1043.35,-76.32C921.49,-62.18 727.71,-39.68 622.8,-27.5"/>
<polygon fill="black" stroke="black" points="622.96,-24 612.62,-26.32 622.15,-30.95 622.96,-24"/>
</g>
</g>
</svg>
