<?xml version="1.0" encoding="UTF-8" standalone="no"?>
<!DOCTYPE svg PUBLIC "-//W3C//DTD SVG 1.1//EN"
 "http://www.w3.org/Graphics/SVG/1.1/DTD/svg11.dtd">
<!-- Generated by graphviz version 2.43.0 (0)
 -->
<!-- Title: G Pages: 1 -->
<svg width="5679pt" height="116pt"
 viewBox="0.00 0.00 5679.38 116.00" xmlns="http://www.w3.org/2000/svg" xmlns:xlink="http://www.w3.org/1999/xlink">
<g id="graph0" class="graph" transform="scale(1 1) rotate(0) translate(4 112)">
<title>G</title>
<polygon fill="white" stroke="transparent" points="-4,4 -4,-112 5675.38,-112 5675.38,4 -4,4"/>
<!-- :feature:gt7&#45;ps5&#45;narrator -->
<g id="node1" class="node">
<title>:feature:gt7&#45;ps5&#45;narrator</title>
<ellipse fill="none" stroke="black" cx="127.39" cy="-90" rx="127.28" ry="18"/>
<text text-anchor="middle" x="127.39" y="-86.3" font-family="Times,serif" font-size="14.00">:feature:gt7&#45;ps5&#45;narrator</text>
</g>
<!-- :core:designsystem -->
<g id="node2" class="node">
<title>:core:designsystem</title>
<ellipse fill="none" stroke="black" cx="3333.39" cy="-18" rx="100.98" ry="18"/>
<text text-anchor="middle" x="3333.39" y="-14.3" font-family="Times,serif" font-size="14.00">:core:designsystem</text>
</g>
<!-- :feature:gt7&#45;ps5&#45;narrator&#45;&gt;:core:designsystem -->
<g id="edge1" class="edge">
<title>:feature:gt7&#45;ps5&#45;narrator&#45;&gt;:core:designsystem</title>
<path fill="none" stroke="black" d="M213.95,-76.77C230.34,-74.86 247.37,-73.14 263.39,-72 856.05,-29.96 2744.38,-20.95 3222.53,-19.32"/>
<polygon fill="black" stroke="black" points="3222.89,-22.82 3232.88,-19.29 3222.87,-15.82 3222.89,-22.82"/>
</g>
<!-- :feature:gt7&#45;ps5&#45;readout&#45;my&#45;bestlap&#45;detail -->
<g id="node3" class="node">
<title>:feature:gt7&#45;ps5&#45;readout&#45;my&#45;bestlap&#45;detail</title>
<ellipse fill="none" stroke="black" cx="480.39" cy="-90" rx="207.96" ry="18"/>
<text text-anchor="middle" x="480.39" y="-86.3" font-family="Times,serif" font-size="14.00">:feature:gt7&#45;ps5&#45;readout&#45;my&#45;bestlap&#45;detail</text>
</g>
<!-- :feature:gt7&#45;ps5&#45;readout&#45;my&#45;bestlap&#45;detail&#45;&gt;:core:designsystem -->
<g id="edge2" class="edge">
<title>:feature:gt7&#45;ps5&#45;readout&#45;my&#45;bestlap&#45;detail&#45;&gt;:core:designsystem</title>
<path fill="none" stroke="black" d="M621.55,-76.75C646.79,-74.9 672.86,-73.21 697.39,-72 1675.49,-23.89 2859.8,-19.18 3222.53,-18.93"/>
<polygon fill="black" stroke="black" points="3222.76,-22.43 3232.76,-18.92 3222.76,-15.43 3222.76,-22.43"/>
</g>
<!-- :feature:gt7&#45;ps5&#45;readout&#45;remaining&#45;fuel&#45;laps&#45;detail -->
<g id="node4" class="node">
<title>:feature:gt7&#45;ps5&#45;readout&#45;remaining&#45;fuel&#45;laps&#45;detail</title>
<ellipse fill="none" stroke="black" cx="952.39" cy="-90" rx="246.16" ry="18"/>
<text text-anchor="middle" x="952.39" y="-86.3" font-family="Times,serif" font-size="14.00">:feature:gt7&#45;ps5&#45;readout&#45;remaining&#45;fuel&#45;laps&#45;detail</text>
</g>
<!-- :feature:gt7&#45;ps5&#45;readout&#45;remaining&#45;fuel&#45;laps&#45;detail&#45;&gt;:core:designsystem -->
<g id="edge3" class="edge">
<title>:feature:gt7&#45;ps5&#45;readout&#45;remaining&#45;fuel&#45;laps&#45;detail&#45;&gt;:core:designsystem</title>
<path fill="none" stroke="black" d="M1120.68,-76.83C1149.91,-75 1180.02,-73.3 1208.39,-72 1979.26,-36.81 2908.58,-23.75 3223.19,-20.14"/>
<polygon fill="black" stroke="black" points="3223.26,-23.64 3233.22,-20.03 3223.18,-16.64 3223.26,-23.64"/>
</g>
<!-- :feature:lmu&#45;windows&#45;narrator -->
<g id="node5" class="node">
<title>:feature:lmu&#45;windows&#45;narrator</title>
<ellipse fill="none" stroke="black" cx="1370.39" cy="-90" rx="153.27" ry="18"/>
<text text-anchor="middle" x="1370.39" y="-86.3" font-family="Times,serif" font-size="14.00">:feature:lmu&#45;windows&#45;narrator</text>
</g>
<!-- :feature:lmu&#45;windows&#45;narrator&#45;&gt;:core:designsystem -->
<g id="edge4" class="edge">
<title>:feature:lmu&#45;windows&#45;narrator&#45;&gt;:core:designsystem</title>
<path fill="none" stroke="black" d="M1475.3,-76.83C1494.28,-74.96 1513.91,-73.24 1532.39,-72 2171.34,-29.13 2940.11,-20.93 3222.46,-19.37"/>
<polygon fill="black" stroke="black" points="3222.72,-22.87 3232.7,-19.31 3222.68,-15.87 3222.72,-22.87"/>
</g>
<!-- :feature:lmu&#45;windows&#45;readout&#45;flag&#45;detail -->
<g id="node6" class="node">
<title>:feature:lmu&#45;windows&#45;readout&#45;flag&#45;detail</title>
<ellipse fill="none" stroke="black" cx="1741.39" cy="-90" rx="199.56" ry="18"/>
<text text-anchor="middle" x="1741.39" y="-86.3" font-family="Times,serif" font-size="14.00">:feature:lmu&#45;windows&#45;readout&#45;flag&#45;detail</text>
</g>
<!-- :feature:lmu&#45;windows&#45;readout&#45;flag&#45;detail&#45;&gt;:core:designsystem -->
<g id="edge5" class="edge">
<title>:feature:lmu&#45;windows&#45;readout&#45;flag&#45;detail&#45;&gt;:core:designsystem</title>
<path fill="none" stroke="black" d="M1878.67,-76.93C1902.24,-75.1 1926.51,-73.37 1949.39,-72 2423.58,-43.56 2990.14,-27.45 3224.09,-21.58"/>
<polygon fill="black" stroke="black" points="3224.39,-25.07 3234.3,-21.32 3224.22,-18.07 3224.39,-25.07"/>
</g>
<!-- :feature:lmu&#45;windows&#45;readout&#45;vehicle&#45;approach&#45;detail -->
<g id="node7" class="node">
<title>:feature:lmu&#45;windows&#45;readout&#45;vehicle&#45;approach&#45;detail</title>
<ellipse fill="none" stroke="black" cx="2219.39" cy="-90" rx="260.75" ry="18"/>
<text text-anchor="middle" x="2219.39" y="-86.3" font-family="Times,serif" font-size="14.00">:feature:lmu&#45;windows&#45;readout&#45;vehicle&#45;approach&#45;detail</text>
</g>
<!-- :feature:lmu&#45;windows&#45;readout&#45;vehicle&#45;approach&#45;detail&#45;&gt;:core:designsystem -->
<g id="edge6" class="edge">
<title>:feature:lmu&#45;windows&#45;readout&#45;vehicle&#45;approach&#45;detail&#45;&gt;:core:designsystem</title>
<path fill="none" stroke="black" d="M2404.25,-77.31C2432.43,-75.53 2461.18,-73.71 2488.39,-72 2755.57,-55.18 3070.27,-35.47 3229.65,-25.49"/>
<polygon fill="black" stroke="black" points="3230.16,-28.97 3239.92,-24.85 3229.72,-21.98 3230.16,-28.97"/>
</g>
<!-- :feature:lmu&#45;windows&#45;readout&#45;vehicle&#45;damage&#45;detail -->
<g id="node8" class="node">
<title>:feature:lmu&#45;windows&#45;readout&#45;vehicle&#45;damage&#45;detail</title>
<ellipse fill="none" stroke="black" cx="2752.39" cy="-90" rx="254.55" ry="18"/>
<text text-anchor="middle" x="2752.39" y="-86.3" font-family="Times,serif" font-size="14.00">:feature:lmu&#45;windows&#45;readout&#45;vehicle&#45;damage&#45;detail</text>
</g>
<!-- :feature:lmu&#45;windows&#45;readout&#45;vehicle&#45;damage&#45;detail&#45;&gt;:core:designsystem -->
<g id="edge7" class="edge">
<title>:feature:lmu&#45;windows&#45;readout&#45;vehicle&#45;damage&#45;detail&#45;&gt;:core:designsystem</title>
<path fill="none" stroke="black" d="M2875.25,-74.2C2985.04,-60.97 3143.39,-41.89 3242.24,-29.98"/>
<polygon fill="black" stroke="black" points="3242.7,-33.45 3252.21,-28.78 3241.87,-26.5 3242.7,-33.45"/>
</g>
<!-- :feature:other&#45;console&#45;ip&#45;detail -->
<g id="node9" class="node">
<title>:feature:other&#45;console&#45;ip&#45;detail</title>
<ellipse fill="none" stroke="black" cx="3178.39" cy="-90" rx="153.27" ry="18"/>
<text text-anchor="middle" x="3178.39" y="-86.3" font-family="Times,serif" font-size="14.00">:feature:other&#45;console&#45;ip&#45;detail</text>
</g>
<!-- :feature:other&#45;console&#45;ip&#45;detail&#45;&gt;:core:designsystem -->
<g id="edge8" class="edge">
<title>:feature:other&#45;console&#45;ip&#45;detail&#45;&gt;:core:designsystem</title>
<path fill="none" stroke="black" d="M3215.12,-72.41C3237.15,-62.46 3265.33,-49.74 3288.65,-39.2"/>
<polygon fill="black" stroke="black" points="3290.31,-42.29 3297.99,-34.99 3287.43,-35.91 3290.31,-42.29"/>
</g>
<!-- :feature:other&#45;license&#45;detail -->
<g id="node10" class="node">
<title>:feature:other&#45;license&#45;detail</title>
<ellipse fill="none" stroke="black" cx="3489.39" cy="-90" rx="139.98" ry="18"/>
<text text-anchor="middle" x="3489.39" y="-86.3" font-family="Times,serif" font-size="14.00">:feature:other&#45;license&#45;detail</text>
</g>
<!-- :feature:other&#45;license&#45;detail&#45;&gt;:core:designsystem -->
<g id="edge9" class="edge">
<title>:feature:other&#45;license&#45;detail&#45;&gt;:core:designsystem</title>
<path fill="none" stroke="black" d="M3452.81,-72.59C3430.47,-62.56 3401.75,-49.67 3378.07,-39.05"/>
<polygon fill="black" stroke="black" points="3379.49,-35.85 3368.93,-34.95 3376.62,-42.23 3379.49,-35.85"/>
</g>
<!-- :feature:other&#45;list -->
<g id="node11" class="node">
<title>:feature:other&#45;list</title>
<ellipse fill="none" stroke="black" cx="3740.39" cy="-90" rx="92.88" ry="18"/>
<text text-anchor="middle" x="3740.39" y="-86.3" font-family="Times,serif" font-size="14.00">:feature:other&#45;list</text>
</g>
<!-- :feature:other&#45;list&#45;&gt;:core:designsystem -->
<g id="edge10" class="edge">
<title>:feature:other&#45;list&#45;&gt;:core:designsystem</title>
<path fill="none" stroke="black" d="M3673.18,-77.44C3601.87,-65.18 3489.25,-45.81 3413.41,-32.76"/>
<polygon fill="black" stroke="black" points="3413.88,-29.29 3403.43,-31.05 3412.69,-36.19 3413.88,-29.29"/>
</g>
<!-- :feature:other&#45;readout&#45;start&#45;sound&#45;detail -->
<g id="node12" class="node">
<title>:feature:other&#45;readout&#45;start&#45;sound&#45;detail</title>
<ellipse fill="none" stroke="black" cx="4050.39" cy="-90" rx="199.56" ry="18"/>
<text text-anchor="middle" x="4050.39" y="-86.3" font-family="Times,serif" font-size="14.00">:feature:other&#45;readout&#45;start&#45;sound&#45;detail</text>
</g>
<!-- :feature:other&#45;readout&#45;start&#45;sound&#45;detail&#45;&gt;:core:designsystem -->
<g id="edge11" class="edge">
<title>:feature:other&#45;readout&#45;start&#45;sound&#45;detail&#45;&gt;:core:designsystem</title>
<path fill="none" stroke="black" d="M3920.55,-76.32C3779.1,-62.51 3556.14,-40.75 3429.56,-28.39"/>
<polygon fill="black" stroke="black" points="3429.79,-24.89 3419.5,-27.41 3429.11,-31.86 3429.79,-24.89"/>
</g>
<!-- :feature:other&#45;server&#45;ip&#45;detail -->
<g id="node13" class="node">
<title>:feature:other&#45;server&#45;ip&#45;detail</title>
<ellipse fill="none" stroke="black" cx="4416.39" cy="-90" rx="148.67" ry="18"/>
<text text-anchor="middle" x="4416.39" y="-86.3" font-family="Times,serif" font-size="14.00">:feature:other&#45;server&#45;ip&#45;detail</text>
</g>
<!-- :feature:other&#45;server&#45;ip&#45;detail&#45;&gt;:core:designsystem -->
<g id="edge12" class="edge">
<title>:feature:other&#45;server&#45;ip&#45;detail&#45;&gt;:core:designsystem</title>
<path fill="none" stroke="black" d="M4312.58,-77.01C4294.85,-75.18 4276.6,-73.42 4259.39,-72 3963.38,-47.52 3613.21,-30.8 3440.59,-23.37"/>
<polygon fill="black" stroke="black" points="3440.63,-19.87 3430.49,-22.94 3440.33,-26.86 3440.63,-19.87"/>
</g>
<!-- :feature:other&#45;volume&#45;detail -->
<g id="node14" class="node">
<title>:feature:other&#45;volume&#45;detail</title>
<ellipse fill="none" stroke="black" cx="4724.39" cy="-90" rx="141.07" ry="18"/>
<text text-anchor="middle" x="4724.39" y="-86.3" font-family="Times,serif" font-size="14.00">:feature:other&#45;volume&#45;detail</text>
</g>
<!-- :feature:other&#45;volume&#45;detail&#45;&gt;:core:designsystem -->
<g id="edge13" class="edge">
<title>:feature:other&#45;volume&#45;detail&#45;&gt;:core:designsystem</title>
<path fill="none" stroke="black" d="M4626.85,-76.94C4609.4,-75.07 4591.37,-73.32 4574.39,-72 4157.2,-39.49 3659.45,-25.81 3442.96,-21.1"/>
<polygon fill="black" stroke="black" points="3442.94,-17.6 3432.86,-20.88 3442.79,-24.6 3442.94,-17.6"/>
</g>
<!-- :feature:readout&#45;list -->
<g id="node15" class="node">
<title>:feature:readout&#45;list</title>
<ellipse fill="none" stroke="black" cx="4987.39" cy="-90" rx="103.98" ry="18"/>
<text text-anchor="middle" x="4987.39" y="-86.3" font-family="Times,serif" font-size="14.00">:feature:readout&#45;list</text>
</g>
<!-- :feature:readout&#45;list&#45;&gt;:core:designsystem -->
<g id="edge14" class="edge">
<title>:feature:readout&#45;list&#45;&gt;:core:designsystem</title>
<path fill="none" stroke="black" d="M4915.5,-76.92C4901.88,-74.99 4887.72,-73.23 4874.39,-72 4340.33,-22.81 3698.36,-18.15 3444.49,-18.45"/>
<polygon fill="black" stroke="black" points="3444.15,-14.95 3434.15,-18.47 3444.16,-21.95 3444.15,-14.95"/>
</g>
<!-- :feature:telemetry&#45;log&#45;detail -->
<g id="node16" class="node">
<title>:feature:telemetry&#45;log&#45;detail</title>
<ellipse fill="none" stroke="black" cx="5251.39" cy="-90" rx="141.88" ry="18"/>
<text text-anchor="middle" x="5251.39" y="-86.3" font-family="Times,serif" font-size="14.00">:feature:telemetry&#45;log&#45;detail</text>
</g>
<!-- :feature:telemetry&#45;log&#45;detail&#45;&gt;:core:designsystem -->
<g id="edge15" class="edge">
<title>:feature:telemetry&#45;log&#45;detail&#45;&gt;:core:designsystem</title>
<path fill="none" stroke="black" d="M5154.02,-76.85C5136.21,-74.96 5117.76,-73.24 5100.39,-72 4475.18,-27.51 3722.95,-20.27 3444.26,-19.17"/>
<polygon fill="black" stroke="black" points="3444.16,-15.67 3434.14,-19.13 3444.13,-22.67 3444.16,-15.67"/>
</g>
<!-- :feature:telemetry&#45;log&#45;list -->
<g id="node17" class="node">
<title>:feature:telemetry&#45;log&#45;list</title>
<ellipse fill="none" stroke="black" cx="5541.39" cy="-90" rx="129.98" ry="18"/>
<text text-anchor="middle" x="5541.39" y="-86.3" font-family="Times,serif" font-size="14.00">:feature:telemetry&#45;log&#45;list</text>
</g>
<!-- :feature:telemetry&#45;log&#45;list&#45;&gt;:core:designsystem -->
<g id="edge16" class="edge">
<title>:feature:telemetry&#45;log&#45;list&#45;&gt;:core:designsystem</title>
<path fill="none" stroke="black" d="M5452.53,-76.84C5435.9,-74.93 5418.63,-73.2 5402.39,-72 5016.41,-43.52 3814.97,-25.44 3443.77,-20.43"/>
<polygon fill="black" stroke="black" points="3443.61,-16.92 3433.57,-20.29 3443.52,-23.92 3443.61,-16.92"/>
</g>
</g>
</svg>
