<?xml version="1.0" encoding="UTF-8" standalone="no"?>
<!DOCTYPE svg PUBLIC "-//W3C//DTD SVG 1.1//EN"
 "http://www.w3.org/Graphics/SVG/1.1/DTD/svg11.dtd">
<!-- Generated by graphviz version 2.43.0 (0)
 -->
<!-- Title: G Pages: 1 -->
<svg width="376pt" height="188pt"
 viewBox="0.00 0.00 376.48 188.00" xmlns="http://www.w3.org/2000/svg" xmlns:xlink="http://www.w3.org/1999/xlink">
<g id="graph0" class="graph" transform="scale(1 1) rotate(0) translate(4 184)">
<title>G</title>
<polygon fill="white" stroke="transparent" points="-4,4 -4,-184 372.48,-184 372.48,4 -4,4"/>
<!-- :app:androidApp -->
<g id="node1" class="node">
<title>:app:androidApp</title>
<ellipse fill="none" stroke="black" cx="87.09" cy="-162" rx="87.18" ry="18"/>
<text text-anchor="middle" x="87.09" y="-158.3" font-family="Times,serif" font-size="14.00">:app:androidApp</text>
</g>
<!-- :core:gt7&#45;ps5&#45;data -->
<g id="node2" class="node">
<title>:core:gt7&#45;ps5&#45;data</title>
<ellipse fill="none" stroke="black" cx="183.09" cy="-90" rx="94.78" ry="18"/>
<text text-anchor="middle" x="183.09" y="-86.3" font-family="Times,serif" font-size="14.00">:core:gt7&#45;ps5&#45;data</text>
</g>
<!-- :app:androidApp&#45;&gt;:core:gt7&#45;ps5&#45;data -->
<g id="edge1" class="edge">
<title>:app:androidApp&#45;&gt;:core:gt7&#45;ps5&#45;data</title>
<path fill="none" stroke="black" d="M109.84,-144.41C122.42,-135.24 138.24,-123.7 151.95,-113.71"/>
<polygon fill="black" stroke="black" points="154.15,-116.43 160.17,-107.71 150.03,-110.78 154.15,-116.43"/>
</g>
<!-- :core:domain -->
<g id="node4" class="node">
<title>:core:domain</title>
<ellipse fill="none" stroke="black" cx="183.09" cy="-18" rx="70.69" ry="18"/>
<text text-anchor="middle" x="183.09" y="-14.3" font-family="Times,serif" font-size="14.00">:core:domain</text>
</g>
<!-- :core:gt7&#45;ps5&#45;data&#45;&gt;:core:domain -->
<g id="edge3" class="edge">
<title>:core:gt7&#45;ps5&#45;data&#45;&gt;:core:domain</title>
<path fill="none" stroke="black" d="M183.09,-71.7C183.09,-63.98 183.09,-54.71 183.09,-46.11"/>
<polygon fill="black" stroke="black" points="186.59,-46.1 183.09,-36.1 179.59,-46.1 186.59,-46.1"/>
</g>
<!-- :app:desktopApp -->
<g id="node3" class="node">
<title>:app:desktopApp</title>
<ellipse fill="none" stroke="black" cx="280.09" cy="-162" rx="88.28" ry="18"/>
<text text-anchor="middle" x="280.09" y="-158.3" font-family="Times,serif" font-size="14.00">:app:desktopApp</text>
</g>
<!-- :app:desktopApp&#45;&gt;:core:gt7&#45;ps5&#45;data -->
<g id="edge2" class="edge">
<title>:app:desktopApp&#45;&gt;:core:gt7&#45;ps5&#45;data</title>
<path fill="none" stroke="black" d="M257.1,-144.41C244.39,-135.24 228.41,-123.7 214.56,-113.71"/>
<polygon fill="black" stroke="black" points="216.41,-110.73 206.25,-107.71 212.31,-116.4 216.41,-110.73"/>
</g>
</g>
</svg>
