<?xml version="1.0" encoding="UTF-8" standalone="no"?>
<!DOCTYPE svg PUBLIC "-//W3C//DTD SVG 1.1//EN"
 "http://www.w3.org/Graphics/SVG/1.1/DTD/svg11.dtd">
<!-- Generated by graphviz version 2.43.0 (0)
 -->
<!-- Title: G Pages: 1 -->
<svg width="455pt" height="116pt"
 viewBox="0.00 0.00 454.99 116.00" xmlns="http://www.w3.org/2000/svg" xmlns:xlink="http://www.w3.org/1999/xlink">
<g id="graph0" class="graph" transform="scale(1 1) rotate(0) translate(4 112)">
<title>G</title>
<polygon fill="white" stroke="transparent" points="-4,4 -4,-112 450.99,-112 450.99,4 -4,4"/>
<!-- :server -->
<g id="node1" class="node">
<title>:server</title>
<ellipse fill="none" stroke="black" cx="43.55" cy="-90" rx="43.59" ry="18"/>
<text text-anchor="middle" x="43.55" y="-86.3" font-family="Times,serif" font-size="14.00">:server</text>
</g>
<!-- :core -->
<g id="node2" class="node">
<title>:core</title>
<ellipse fill="none" stroke="black" cx="180.55" cy="-18" rx="33.6" ry="18"/>
<text text-anchor="middle" x="180.55" y="-14.3" font-family="Times,serif" font-size="14.00">:core</text>
</g>
<!-- :server&#45;&gt;:core -->
<g id="edge1" class="edge">
<title>:server&#45;&gt;:core</title>
<path fill="none" stroke="black" d="M69.96,-75.5C92.2,-64.14 124.11,-47.84 147.93,-35.66"/>
<polygon fill="black" stroke="black" points="149.64,-38.72 156.96,-31.05 146.46,-32.49 149.64,-38.72"/>
</g>
<!-- :feature:other -->
<g id="node3" class="node">
<title>:feature:other</title>
<ellipse fill="none" stroke="black" cx="180.55" cy="-90" rx="75.29" ry="18"/>
<text text-anchor="middle" x="180.55" y="-86.3" font-family="Times,serif" font-size="14.00">:feature:other</text>
</g>
<!-- :feature:other&#45;&gt;:core -->
<g id="edge2" class="edge">
<title>:feature:other&#45;&gt;:core</title>
<path fill="none" stroke="black" d="M180.55,-71.7C180.55,-63.98 180.55,-54.71 180.55,-46.11"/>
<polygon fill="black" stroke="black" points="184.05,-46.1 180.55,-36.1 177.05,-46.1 184.05,-46.1"/>
</g>
<!-- :feature:readout -->
<g id="node4" class="node">
<title>:feature:readout</title>
<ellipse fill="none" stroke="black" cx="360.55" cy="-90" rx="86.38" ry="18"/>
<text text-anchor="middle" x="360.55" y="-86.3" font-family="Times,serif" font-size="14.00">:feature:readout</text>
</g>
<!-- :feature:readout&#45;&gt;:core -->
<g id="edge3" class="edge">
<title>:feature:readout&#45;&gt;:core</title>
<path fill="none" stroke="black" d="M321.49,-73.81C290.23,-61.66 246.76,-44.75 216.38,-32.94"/>
<polygon fill="black" stroke="black" points="217.6,-29.66 207.01,-29.29 215.07,-36.18 217.6,-29.66"/>
</g>
</g>
</svg>
