<?xml version="1.0" encoding="UTF-8" standalone="no"?>
<!DOCTYPE svg PUBLIC "-//W3C//DTD SVG 1.1//EN"
 "http://www.w3.org/Graphics/SVG/1.1/DTD/svg11.dtd">
<!-- Generated by graphviz version 2.43.0 (0)
 -->
<!-- Title: G Pages: 1 -->
<svg width="5195pt" height="116pt"
 viewBox="0.00 0.00 5194.78 116.00" xmlns="http://www.w3.org/2000/svg" xmlns:xlink="http://www.w3.org/1999/xlink">
<g id="graph0" class="graph" transform="scale(1 1) rotate(0) translate(4 112)">
<title>G</title>
<polygon fill="white" stroke="transparent" points="-4,4 -4,-112 5190.78,-112 5190.78,4 -4,4"/>
<!-- :server -->
<g id="node1" class="node">
<title>:server</title>
<ellipse fill="none" stroke="black" cx="43.55" cy="-90" rx="43.59" ry="18"/>
<text text-anchor="middle" x="43.55" y="-86.3" font-family="Times,serif" font-size="14.00">:server</text>
</g>
<!-- :core:domain -->
<g id="node2" class="node">
<title>:core:domain</title>
<ellipse fill="none" stroke="black" cx="2488.55" cy="-18" rx="70.69" ry="18"/>
<text text-anchor="middle" x="2488.55" y="-14.3" font-family="Times,serif" font-size="14.00">:core:domain</text>
</g>
<!-- :server&#45;&gt;:core:domain -->
<g id="edge1" class="edge">
<title>:server&#45;&gt;:core:domain</title>
<path fill="none" stroke="black" d="M74.85,-77.32C81.89,-75.16 89.4,-73.2 96.55,-72 328.06,-33.15 2015.88,-21.58 2407.54,-19.41"/>
<polygon fill="black" stroke="black" points="2407.67,-22.91 2417.65,-19.36 2407.63,-15.91 2407.67,-22.91"/>
</g>
<!-- :core:data -->
<g id="node3" class="node">
<title>:core:data</title>
<ellipse fill="none" stroke="black" cx="162.55" cy="-90" rx="57.39" ry="18"/>
<text text-anchor="middle" x="162.55" y="-86.3" font-family="Times,serif" font-size="14.00">:core:data</text>
</g>
<!-- :core:data&#45;&gt;:core:domain -->
<g id="edge2" class="edge">
<title>:core:data&#45;&gt;:core:domain</title>
<path fill="none" stroke="black" d="M202.74,-77.09C211.2,-75.03 220.11,-73.17 228.55,-72 447.41,-41.65 2030.07,-23.68 2407.77,-19.8"/>
<polygon fill="black" stroke="black" points="2407.83,-23.3 2417.79,-19.7 2407.76,-16.3 2407.83,-23.3"/>
</g>
<!-- :core:gt7&#45;ps5&#45;data -->
<g id="node4" class="node">
<title>:core:gt7&#45;ps5&#45;data</title>
<ellipse fill="none" stroke="black" cx="332.55" cy="-90" rx="94.78" ry="18"/>
<text text-anchor="middle" x="332.55" y="-86.3" font-family="Times,serif" font-size="14.00">:core:gt7&#45;ps5&#45;data</text>
</g>
<!-- :core:gt7&#45;ps5&#45;data&#45;&gt;:core:domain -->
<g id="edge3" class="edge">
<title>:core:gt7&#45;ps5&#45;data&#45;&gt;:core:domain</title>
<path fill="none" stroke="black" d="M397.83,-76.93C410.63,-74.96 423.98,-73.18 436.55,-72 829.21,-35.01 2076.91,-22.36 2407.51,-19.62"/>
<polygon fill="black" stroke="black" points="2407.98,-23.11 2417.95,-19.53 2407.92,-16.11 2407.98,-23.11"/>
</g>
<!-- :core:lmu&#45;windows&#45;data -->
<g id="node5" class="node">
<title>:core:lmu&#45;windows&#45;data</title>
<ellipse fill="none" stroke="black" cx="566.55" cy="-90" rx="120.78" ry="18"/>
<text text-anchor="middle" x="566.55" y="-86.3" font-family="Times,serif" font-size="14.00">:core:lmu&#45;windows&#45;data</text>
</g>
<!-- :core:lmu&#45;windows&#45;data&#45;&gt;:core:domain -->
<g id="edge4" class="edge">
<title>:core:lmu&#45;windows&#45;data&#45;&gt;:core:domain</title>
<path fill="none" stroke="black" d="M649.64,-76.87C665.2,-74.96 681.34,-73.22 696.55,-72 1355.24,-19.32 2153.89,-17.57 2407.33,-18.5"/>
<polygon fill="black" stroke="black" points="2407.53,-22 2417.55,-18.54 2407.56,-15 2407.53,-22"/>
</g>
<!-- :feature:gt7&#45;ps5&#45;readout&#45;my&#45;bestlap&#45;detail -->
<g id="node6" class="node">
<title>:feature:gt7&#45;ps5&#45;readout&#45;my&#45;bestlap&#45;detail</title>
<ellipse fill="none" stroke="black" cx="913.55" cy="-90" rx="207.96" ry="18"/>
<text text-anchor="middle" x="913.55" y="-86.3" font-family="Times,serif" font-size="14.00">:feature:gt7&#45;ps5&#45;readout&#45;my&#45;bestlap&#45;detail</text>
</g>
<!-- :feature:gt7&#45;ps5&#45;readout&#45;my&#45;bestlap&#45;detail&#45;&gt;:core:domain -->
<g id="edge5" class="edge">
<title>:feature:gt7&#45;ps5&#45;readout&#45;my&#45;bestlap&#45;detail&#45;&gt;:core:domain</title>
<path fill="none" stroke="black" d="M1057.06,-76.96C1081.57,-75.13 1106.78,-73.39 1130.55,-72 1615.47,-43.55 2198.73,-26.58 2408.53,-21.03"/>
<polygon fill="black" stroke="black" points="2408.63,-24.53 2418.53,-20.76 2408.44,-17.53 2408.63,-24.53"/>
</g>
<!-- :feature:lmu&#45;windows&#45;connection -->
<g id="node7" class="node">
<title>:feature:lmu&#45;windows&#45;connection</title>
<ellipse fill="none" stroke="black" cx="1303.55" cy="-90" rx="164.37" ry="18"/>
<text text-anchor="middle" x="1303.55" y="-86.3" font-family="Times,serif" font-size="14.00">:feature:lmu&#45;windows&#45;connection</text>
</g>
<!-- :feature:lmu&#45;windows&#45;connection&#45;&gt;:core:domain -->
<g id="edge6" class="edge">
<title>:feature:lmu&#45;windows&#45;connection&#45;&gt;:core:domain</title>
<path fill="none" stroke="black" d="M1418.14,-77.06C1437.94,-75.21 1458.33,-73.44 1477.55,-72 1823.86,-46.02 2237.86,-28.57 2408.75,-21.96"/>
<polygon fill="black" stroke="black" points="2409.06,-25.45 2418.92,-21.57 2408.79,-18.46 2409.06,-25.45"/>
</g>
<!-- :feature:lmu&#45;windows&#45;narrator -->
<g id="node8" class="node">
<title>:feature:lmu&#45;windows&#45;narrator</title>
<ellipse fill="none" stroke="black" cx="1639.55" cy="-90" rx="153.27" ry="18"/>
<text text-anchor="middle" x="1639.55" y="-86.3" font-family="Times,serif" font-size="14.00">:feature:lmu&#45;windows&#45;narrator</text>
</g>
<!-- :feature:lmu&#45;windows&#45;narrator&#45;&gt;:core:domain -->
<g id="edge7" class="edge">
<title>:feature:lmu&#45;windows&#45;narrator&#45;&gt;:core:domain</title>
<path fill="none" stroke="black" d="M1748,-77.2C1765.88,-75.38 1784.23,-73.58 1801.55,-72 2022.22,-51.91 2283.23,-33.15 2410.67,-24.31"/>
<polygon fill="black" stroke="black" points="2410.99,-27.79 2420.72,-23.61 2410.51,-20.81 2410.99,-27.79"/>
</g>
<!-- :feature:lmu&#45;windows&#45;readout&#45;flag&#45;detail -->
<g id="node9" class="node">
<title>:feature:lmu&#45;windows&#45;readout&#45;flag&#45;detail</title>
<ellipse fill="none" stroke="black" cx="2010.55" cy="-90" rx="199.56" ry="18"/>
<text text-anchor="middle" x="2010.55" y="-86.3" font-family="Times,serif" font-size="14.00">:feature:lmu&#45;windows&#45;readout&#45;flag&#45;detail</text>
</g>
<!-- :feature:lmu&#45;windows&#45;readout&#45;flag&#45;detail&#45;&gt;:core:domain -->
<g id="edge8" class="edge">
<title>:feature:lmu&#45;windows&#45;readout&#45;flag&#45;detail&#45;&gt;:core:domain</title>
<path fill="none" stroke="black" d="M2110.46,-74.37C2202.71,-60.86 2337.37,-41.14 2418.62,-29.24"/>
<polygon fill="black" stroke="black" points="2419.35,-32.67 2428.74,-27.76 2418.34,-25.74 2419.35,-32.67"/>
</g>
<!-- :feature:lmu&#45;windows&#45;readout&#45;vehicle&#45;approach&#45;detail -->
<g id="node10" class="node">
<title>:feature:lmu&#45;windows&#45;readout&#45;vehicle&#45;approach&#45;detail</title>
<ellipse fill="none" stroke="black" cx="2488.55" cy="-90" rx="260.75" ry="18"/>
<text text-anchor="middle" x="2488.55" y="-86.3" font-family="Times,serif" font-size="14.00">:feature:lmu&#45;windows&#45;readout&#45;vehicle&#45;approach&#45;detail</text>
</g>
<!-- :feature:lmu&#45;windows&#45;readout&#45;vehicle&#45;approach&#45;detail&#45;&gt;:core:domain -->
<g id="edge9" class="edge">
<title>:feature:lmu&#45;windows&#45;readout&#45;vehicle&#45;approach&#45;detail&#45;&gt;:core:domain</title>
<path fill="none" stroke="black" d="M2488.55,-71.7C2488.55,-63.98 2488.55,-54.71 2488.55,-46.11"/>
<polygon fill="black" stroke="black" points="2492.05,-46.1 2488.55,-36.1 2485.05,-46.1 2492.05,-46.1"/>
</g>
<!-- :feature:lmu&#45;windows&#45;readout&#45;vehicle&#45;damage&#45;detail -->
<g id="node11" class="node">
<title>:feature:lmu&#45;windows&#45;readout&#45;vehicle&#45;damage&#45;detail</title>
<ellipse fill="none" stroke="black" cx="3021.55" cy="-90" rx="254.55" ry="18"/>
<text text-anchor="middle" x="3021.55" y="-86.3" font-family="Times,serif" font-size="14.00">:feature:lmu&#45;windows&#45;readout&#45;vehicle&#45;damage&#45;detail</text>
</g>
<!-- :feature:lmu&#45;windows&#45;readout&#45;vehicle&#45;damage&#45;detail&#45;&gt;:core:domain -->
<g id="edge10" class="edge">
<title>:feature:lmu&#45;windows&#45;readout&#45;vehicle&#45;damage&#45;detail&#45;&gt;:core:domain</title>
<path fill="none" stroke="black" d="M2906.55,-73.9C2801.2,-60.06 2648.56,-40.02 2559.84,-28.36"/>
<polygon fill="black" stroke="black" points="2560.25,-24.89 2549.88,-27.05 2559.33,-31.83 2560.25,-24.89"/>
</g>
<!-- :feature:main -->
<g id="node12" class="node">
<title>:feature:main</title>
<ellipse fill="none" stroke="black" cx="3367.55" cy="-90" rx="73.39" ry="18"/>
<text text-anchor="middle" x="3367.55" y="-86.3" font-family="Times,serif" font-size="14.00">:feature:main</text>
</g>
<!-- :feature:main&#45;&gt;:core:domain -->
<g id="edge11" class="edge">
<title>:feature:main&#45;&gt;:core:domain</title>
<path fill="none" stroke="black" d="M3315.68,-77.12C3305.72,-75.16 3295.34,-73.33 3285.55,-72 3025.06,-36.51 2713.31,-24.52 2569.06,-20.68"/>
<polygon fill="black" stroke="black" points="2569.06,-17.18 2558.97,-20.42 2568.88,-24.18 2569.06,-17.18"/>
</g>
<!-- :feature:other&#45;list -->
<g id="node13" class="node">
<title>:feature:other&#45;list</title>
<ellipse fill="none" stroke="black" cx="3551.55" cy="-90" rx="92.88" ry="18"/>
<text text-anchor="middle" x="3551.55" y="-86.3" font-family="Times,serif" font-size="14.00">:feature:other&#45;list</text>
</g>
<!-- :feature:other&#45;list&#45;&gt;:core:domain -->
<g id="edge12" class="edge">
<title>:feature:other&#45;list&#45;&gt;:core:domain</title>
<path fill="none" stroke="black" d="M3486.67,-77.09C3474.38,-75.14 3461.59,-73.33 3449.55,-72 3124.4,-36.05 2734.53,-24.09 2569.09,-20.45"/>
<polygon fill="black" stroke="black" points="2569.07,-16.95 2559,-20.23 2568.92,-23.95 2569.07,-16.95"/>
</g>
<!-- :feature:other&#45;readout&#45;start&#45;sound&#45;detail -->
<g id="node14" class="node">
<title>:feature:other&#45;readout&#45;start&#45;sound&#45;detail</title>
<ellipse fill="none" stroke="black" cx="3861.55" cy="-90" rx="199.56" ry="18"/>
<text text-anchor="middle" x="3861.55" y="-86.3" font-family="Times,serif" font-size="14.00">:feature:other&#45;readout&#45;start&#45;sound&#45;detail</text>
</g>
<!-- :feature:other&#45;readout&#45;start&#45;sound&#45;detail&#45;&gt;:core:domain -->
<g id="edge13" class="edge">
<title>:feature:other&#45;readout&#45;start&#45;sound&#45;detail&#45;&gt;:core:domain</title>
<path fill="none" stroke="black" d="M3723.42,-77.01C3700.11,-75.19 3676.15,-73.44 3653.55,-72 3246.07,-46.09 2757.63,-28.11 2568.64,-21.65"/>
<polygon fill="black" stroke="black" points="2568.63,-18.14 2558.52,-21.3 2568.39,-25.14 2568.63,-18.14"/>
</g>
<!-- :feature:other&#45;server&#45;ip&#45;detail -->
<g id="node15" class="node">
<title>:feature:other&#45;server&#45;ip&#45;detail</title>
<ellipse fill="none" stroke="black" cx="4227.55" cy="-90" rx="148.67" ry="18"/>
<text text-anchor="middle" x="4227.55" y="-86.3" font-family="Times,serif" font-size="14.00">:feature:other&#45;server&#45;ip&#45;detail</text>
</g>
<!-- :feature:other&#45;server&#45;ip&#45;detail&#45;&gt;:core:domain -->
<g id="edge14" class="edge">
<title>:feature:other&#45;server&#45;ip&#45;detail&#45;&gt;:core:domain</title>
<path fill="none" stroke="black" d="M4125.46,-76.83C4107.19,-74.97 4088.32,-73.26 4070.55,-72 3496.23,-31.34 2802.37,-21.74 2569.29,-19.59"/>
<polygon fill="black" stroke="black" points="2569.24,-16.09 2559.21,-19.5 2569.17,-23.09 2569.24,-16.09"/>
</g>
<!-- :feature:other&#45;volume&#45;detail -->
<g id="node16" class="node">
<title>:feature:other&#45;volume&#45;detail</title>
<ellipse fill="none" stroke="black" cx="4535.55" cy="-90" rx="141.07" ry="18"/>
<text text-anchor="middle" x="4535.55" y="-86.3" font-family="Times,serif" font-size="14.00">:feature:other&#45;volume&#45;detail</text>
</g>
<!-- :feature:other&#45;volume&#45;detail&#45;&gt;:core:domain -->
<g id="edge15" class="edge">
<title>:feature:other&#45;volume&#45;detail&#45;&gt;:core:domain</title>
<path fill="none" stroke="black" d="M4438.83,-76.82C4421.13,-74.94 4402.8,-73.22 4385.55,-72 3683.8,-22.52 2832.97,-18.71 2569.94,-18.81"/>
<polygon fill="black" stroke="black" points="2569.71,-15.31 2559.71,-18.81 2569.71,-22.31 2569.71,-15.31"/>
</g>
<!-- :feature:readout&#45;list -->
<g id="node17" class="node">
<title>:feature:readout&#45;list</title>
<ellipse fill="none" stroke="black" cx="4798.55" cy="-90" rx="103.98" ry="18"/>
<text text-anchor="middle" x="4798.55" y="-86.3" font-family="Times,serif" font-size="14.00">:feature:readout&#45;list</text>
</g>
<!-- :feature:readout&#45;list&#45;&gt;:core:domain -->
<g id="edge16" class="edge">
<title>:feature:readout&#45;list&#45;&gt;:core:domain</title>
<path fill="none" stroke="black" d="M4726.97,-76.85C4713.26,-74.92 4698.99,-73.17 4685.55,-72 4262.57,-35.23 2914.5,-22.33 2569.55,-19.59"/>
<polygon fill="black" stroke="black" points="2569.43,-16.09 2559.4,-19.51 2569.37,-23.09 2569.43,-16.09"/>
</g>
<!-- :feature:server&#45;connection -->
<g id="node18" class="node">
<title>:feature:server&#45;connection</title>
<ellipse fill="none" stroke="black" cx="5053.55" cy="-90" rx="133.48" ry="18"/>
<text text-anchor="middle" x="5053.55" y="-86.3" font-family="Times,serif" font-size="14.00">:feature:server&#45;connection</text>
</g>
<!-- :feature:server&#45;connection&#45;&gt;:core:domain -->
<g id="edge17" class="edge">
<title>:feature:server&#45;connection&#45;&gt;:core:domain</title>
<path fill="none" stroke="black" d="M4962.77,-76.8C4945.77,-74.89 4928.14,-73.17 4911.55,-72 4441,-38.77 2935.97,-23.09 2569.54,-19.71"/>
<polygon fill="black" stroke="black" points="2569.33,-16.21 2559.29,-19.62 2569.26,-23.21 2569.33,-16.21"/>
</g>
</g>
</svg>
