<?xml version="1.0" encoding="UTF-8" standalone="no"?>
<!DOCTYPE svg PUBLIC "-//W3C//DTD SVG 1.1//EN"
 "http://www.w3.org/Graphics/SVG/1.1/DTD/svg11.dtd">
<!-- Generated by graphviz version 2.43.0 (0)
 -->
<!-- Title: G Pages: 1 -->
<svg width="376pt" height="188pt"
 viewBox="0.00 0.00 376.48 188.00" xmlns="http://www.w3.org/2000/svg" xmlns:xlink="http://www.w3.org/1999/xlink">
<g id="graph0" class="graph" transform="scale(1 1) rotate(0) translate(4 184)">
<title>G</title>
<polygon fill="white" stroke="transparent" points="-4,4 -4,-184 372.48,-184 372.48,4 -4,4"/>
<!-- :app:androidApp -->
<g id="node1" class="node">
<title>:app:androidApp</title>
<ellipse fill="none" stroke="black" cx="87.09" cy="-162" rx="87.18" ry="18"/>
<text text-anchor="middle" x="87.09" y="-158.3" font-family="Times,serif" font-size="14.00">:app:androidApp</text>
</g>
<!-- :core:domain -->
<g id="node2" class="node">
<title>:core:domain</title>
<ellipse fill="none" stroke="black" cx="129.09" cy="-18" rx="70.69" ry="18"/>
<text text-anchor="middle" x="129.09" y="-14.3" font-family="Times,serif" font-size="14.00">:core:domain</text>
</g>
<!-- :app:androidApp&#45;&gt;:core:domain -->
<g id="edge1" class="edge">
<title>:app:androidApp&#45;&gt;:core:domain</title>
<path fill="none" stroke="black" d="M89.68,-144.01C92.68,-125.9 98.24,-96.53 106.09,-72 108.91,-63.21 112.67,-53.89 116.33,-45.56"/>
<polygon fill="black" stroke="black" points="119.58,-46.88 120.53,-36.33 113.21,-43.99 119.58,-46.88"/>
</g>
<!-- :core:data -->
<g id="node3" class="node">
<title>:core:data</title>
<ellipse fill="none" stroke="black" cx="172.09" cy="-90" rx="57.39" ry="18"/>
<text text-anchor="middle" x="172.09" y="-86.3" font-family="Times,serif" font-size="14.00">:core:data</text>
</g>
<!-- :app:androidApp&#45;&gt;:core:data -->
<g id="edge2" class="edge">
<title>:app:androidApp&#45;&gt;:core:data</title>
<path fill="none" stroke="black" d="M107.24,-144.41C118.4,-135.21 132.45,-123.64 144.62,-113.63"/>
<polygon fill="black" stroke="black" points="147.18,-116.05 152.68,-106.99 142.73,-110.64 147.18,-116.05"/>
</g>
<!-- :core:data&#45;&gt;:core:domain -->
<g id="edge4" class="edge">
<title>:core:data&#45;&gt;:core:domain</title>
<path fill="none" stroke="black" d="M161.68,-72.05C156.69,-63.92 150.59,-54 145.03,-44.94"/>
<polygon fill="black" stroke="black" points="147.92,-42.96 139.7,-36.28 141.96,-46.63 147.92,-42.96"/>
</g>
<!-- :app:desktopApp -->
<g id="node4" class="node">
<title>:app:desktopApp</title>
<ellipse fill="none" stroke="black" cx="280.09" cy="-162" rx="88.28" ry="18"/>
<text text-anchor="middle" x="280.09" y="-158.3" font-family="Times,serif" font-size="14.00">:app:desktopApp</text>
</g>
<!-- :app:desktopApp&#45;&gt;:core:data -->
<g id="edge3" class="edge">
<title>:app:desktopApp&#45;&gt;:core:data</title>
<path fill="none" stroke="black" d="M254.77,-144.59C239.83,-134.9 220.77,-122.55 204.71,-112.14"/>
<polygon fill="black" stroke="black" points="206.44,-109.09 196.14,-106.59 202.63,-114.96 206.44,-109.09"/>
</g>
</g>
</svg>
