<?xml version="1.0" encoding="UTF-8" standalone="no"?>
<!DOCTYPE svg PUBLIC "-//W3C//DTD SVG 1.1//EN"
 "http://www.w3.org/Graphics/SVG/1.1/DTD/svg11.dtd">
<!-- Generated by graphviz version 2.43.0 (0)
 -->
<!-- Title: G Pages: 1 -->
<svg width="3454pt" height="116pt"
 viewBox="0.00 0.00 3453.78 116.00" xmlns="http://www.w3.org/2000/svg" xmlns:xlink="http://www.w3.org/1999/xlink">
<g id="graph0" class="graph" transform="scale(1 1) rotate(0) translate(4 112)">
<title>G</title>
<polygon fill="white" stroke="transparent" points="-4,4 -4,-112 3449.78,-112 3449.78,4 -4,4"/>
<!-- :server -->
<g id="node1" class="node">
<title>:server</title>
<ellipse fill="none" stroke="black" cx="43.55" cy="-90" rx="43.59" ry="18"/>
<text text-anchor="middle" x="43.55" y="-86.3" font-family="Times,serif" font-size="14.00">:server</text>
</g>
<!-- :core:domain -->
<g id="node2" class="node">
<title>:core:domain</title>
<ellipse fill="none" stroke="black" cx="1794.55" cy="-18" rx="70.69" ry="18"/>
<text text-anchor="middle" x="1794.55" y="-14.3" font-family="Times,serif" font-size="14.00">:core:domain</text>
</g>
<!-- :server&#45;&gt;:core:domain -->
<g id="edge1" class="edge">
<title>:server&#45;&gt;:core:domain</title>
<path fill="none" stroke="black" d="M74.85,-77.37C81.9,-75.2 89.4,-73.23 96.55,-72 413.05,-17.41 1420,-17.35 1713.52,-18.54"/>
<polygon fill="black" stroke="black" points="1713.64,-22.04 1723.66,-18.58 1713.67,-15.04 1713.64,-22.04"/>
</g>
<!-- :core:data -->
<g id="node3" class="node">
<title>:core:data</title>
<ellipse fill="none" stroke="black" cx="162.55" cy="-90" rx="57.39" ry="18"/>
<text text-anchor="middle" x="162.55" y="-86.3" font-family="Times,serif" font-size="14.00">:core:data</text>
</g>
<!-- :core:data&#45;&gt;:core:domain -->
<g id="edge2" class="edge">
<title>:core:data&#45;&gt;:core:domain</title>
<path fill="none" stroke="black" d="M202.75,-77.16C211.2,-75.09 220.11,-73.21 228.55,-72 519.62,-30.1 1436,-21.17 1713.88,-19.41"/>
<polygon fill="black" stroke="black" points="1713.91,-22.91 1723.89,-19.34 1713.87,-15.91 1713.91,-22.91"/>
</g>
<!-- :feature:lmu&#45;readout&#45;flag&#45;detail -->
<g id="node4" class="node">
<title>:feature:lmu&#45;readout&#45;flag&#45;detail</title>
<ellipse fill="none" stroke="black" cx="393.55" cy="-90" rx="155.97" ry="18"/>
<text text-anchor="middle" x="393.55" y="-86.3" font-family="Times,serif" font-size="14.00">:feature:lmu&#45;readout&#45;flag&#45;detail</text>
</g>
<!-- :feature:lmu&#45;readout&#45;flag&#45;detail&#45;&gt;:core:domain -->
<g id="edge3" class="edge">
<title>:feature:lmu&#45;readout&#45;flag&#45;detail&#45;&gt;:core:domain</title>
<path fill="none" stroke="black" d="M501.3,-76.96C520.36,-75.1 540.02,-73.35 558.55,-72 993.64,-40.29 1516.39,-25.53 1713.8,-20.79"/>
<polygon fill="black" stroke="black" points="1714.17,-24.28 1724.09,-20.55 1714,-17.28 1714.17,-24.28"/>
</g>
<!-- :feature:lmu&#45;readout&#45;vehicle&#45;approach&#45;detail -->
<g id="node5" class="node">
<title>:feature:lmu&#45;readout&#45;vehicle&#45;approach&#45;detail</title>
<ellipse fill="none" stroke="black" cx="785.55" cy="-90" rx="217.96" ry="18"/>
<text text-anchor="middle" x="785.55" y="-86.3" font-family="Times,serif" font-size="14.00">:feature:lmu&#45;readout&#45;vehicle&#45;approach&#45;detail</text>
</g>
<!-- :feature:lmu&#45;readout&#45;vehicle&#45;approach&#45;detail&#45;&gt;:core:domain -->
<g id="edge4" class="edge">
<title>:feature:lmu&#45;readout&#45;vehicle&#45;approach&#45;detail&#45;&gt;:core:domain</title>
<path fill="none" stroke="black" d="M940,-77.29C964.28,-75.49 989.09,-73.67 1012.55,-72 1270.26,-53.62 1575.87,-33.35 1716.56,-24.1"/>
<polygon fill="black" stroke="black" points="1717.06,-27.58 1726.81,-23.43 1716.6,-20.59 1717.06,-27.58"/>
</g>
<!-- :feature:lmu&#45;readout&#45;vehicle&#45;damage&#45;detail -->
<g id="node6" class="node">
<title>:feature:lmu&#45;readout&#45;vehicle&#45;damage&#45;detail</title>
<ellipse fill="none" stroke="black" cx="1232.55" cy="-90" rx="211.46" ry="18"/>
<text text-anchor="middle" x="1232.55" y="-86.3" font-family="Times,serif" font-size="14.00">:feature:lmu&#45;readout&#45;vehicle&#45;damage&#45;detail</text>
</g>
<!-- :feature:lmu&#45;readout&#45;vehicle&#45;damage&#45;detail&#45;&gt;:core:domain -->
<g id="edge5" class="edge">
<title>:feature:lmu&#45;readout&#45;vehicle&#45;damage&#45;detail&#45;&gt;:core:domain</title>
<path fill="none" stroke="black" d="M1346.61,-74.79C1458.98,-60.8 1627.22,-39.84 1722.31,-28"/>
<polygon fill="black" stroke="black" points="1722.92,-31.45 1732.41,-26.74 1722.05,-24.5 1722.92,-31.45"/>
</g>
<!-- :feature:lmu&#45;windows&#45;connection -->
<g id="node7" class="node">
<title>:feature:lmu&#45;windows&#45;connection</title>
<ellipse fill="none" stroke="black" cx="1626.55" cy="-90" rx="164.37" ry="18"/>
<text text-anchor="middle" x="1626.55" y="-86.3" font-family="Times,serif" font-size="14.00">:feature:lmu&#45;windows&#45;connection</text>
</g>
<!-- :feature:lmu&#45;windows&#45;connection&#45;&gt;:core:domain -->
<g id="edge6" class="edge">
<title>:feature:lmu&#45;windows&#45;connection&#45;&gt;:core:domain</title>
<path fill="none" stroke="black" d="M1666.36,-72.41C1691.51,-61.93 1724.04,-48.38 1750.04,-37.54"/>
<polygon fill="black" stroke="black" points="1751.41,-40.76 1759.3,-33.69 1748.72,-34.3 1751.41,-40.76"/>
</g>
<!-- :feature:lmu&#45;windows&#45;narrator -->
<g id="node8" class="node">
<title>:feature:lmu&#45;windows&#45;narrator</title>
<ellipse fill="none" stroke="black" cx="1962.55" cy="-90" rx="153.27" ry="18"/>
<text text-anchor="middle" x="1962.55" y="-86.3" font-family="Times,serif" font-size="14.00">:feature:lmu&#45;windows&#45;narrator</text>
</g>
<!-- :feature:lmu&#45;windows&#45;narrator&#45;&gt;:core:domain -->
<g id="edge7" class="edge">
<title>:feature:lmu&#45;windows&#45;narrator&#45;&gt;:core:domain</title>
<path fill="none" stroke="black" d="M1923.16,-72.59C1897.94,-62.08 1865.15,-48.42 1839,-37.52"/>
<polygon fill="black" stroke="black" points="1840.27,-34.26 1829.69,-33.64 1837.58,-40.72 1840.27,-34.26"/>
</g>
<!-- :feature:other&#45;list -->
<g id="node9" class="node">
<title>:feature:other&#45;list</title>
<ellipse fill="none" stroke="black" cx="2226.55" cy="-90" rx="92.88" ry="18"/>
<text text-anchor="middle" x="2226.55" y="-86.3" font-family="Times,serif" font-size="14.00">:feature:other&#45;list</text>
</g>
<!-- :feature:other&#45;list&#45;&gt;:core:domain -->
<g id="edge8" class="edge">
<title>:feature:other&#45;list&#45;&gt;:core:domain</title>
<path fill="none" stroke="black" d="M2158.8,-77.65C2147.37,-75.75 2135.62,-73.81 2124.55,-72 2034.13,-57.2 1929.71,-40.5 1862.96,-29.87"/>
<polygon fill="black" stroke="black" points="1863.41,-26.39 1852.98,-28.28 1862.31,-33.31 1863.41,-26.39"/>
</g>
<!-- :feature:other&#45;server&#45;ip&#45;detail -->
<g id="node10" class="node">
<title>:feature:other&#45;server&#45;ip&#45;detail</title>
<ellipse fill="none" stroke="black" cx="2486.55" cy="-90" rx="148.67" ry="18"/>
<text text-anchor="middle" x="2486.55" y="-86.3" font-family="Times,serif" font-size="14.00">:feature:other&#45;server&#45;ip&#45;detail</text>
</g>
<!-- :feature:other&#45;server&#45;ip&#45;detail&#45;&gt;:core:domain -->
<g id="edge9" class="edge">
<title>:feature:other&#45;server&#45;ip&#45;detail&#45;&gt;:core:domain</title>
<path fill="none" stroke="black" d="M2379.9,-77.4C2362.73,-75.57 2345.15,-73.72 2328.55,-72 2164.87,-55.07 1972.87,-36.28 1869.53,-26.25"/>
<polygon fill="black" stroke="black" points="1869.79,-22.75 1859.5,-25.27 1869.12,-29.72 1869.79,-22.75"/>
</g>
<!-- :feature:other&#45;volume&#45;detail -->
<g id="node11" class="node">
<title>:feature:other&#45;volume&#45;detail</title>
<ellipse fill="none" stroke="black" cx="2794.55" cy="-90" rx="141.07" ry="18"/>
<text text-anchor="middle" x="2794.55" y="-86.3" font-family="Times,serif" font-size="14.00">:feature:other&#45;volume&#45;detail</text>
</g>
<!-- :feature:other&#45;volume&#45;detail&#45;&gt;:core:domain -->
<g id="edge10" class="edge">
<title>:feature:other&#45;volume&#45;detail&#45;&gt;:core:domain</title>
<path fill="none" stroke="black" d="M2695.78,-77.09C2678.71,-75.23 2661.12,-73.46 2644.55,-72 2361.44,-47.15 2024.29,-29.74 1873.84,-22.6"/>
<polygon fill="black" stroke="black" points="1873.93,-19.1 1863.77,-22.13 1873.6,-26.1 1873.93,-19.1"/>
</g>
<!-- :feature:readout&#45;list -->
<g id="node12" class="node">
<title>:feature:readout&#45;list</title>
<ellipse fill="none" stroke="black" cx="3057.55" cy="-90" rx="103.98" ry="18"/>
<text text-anchor="middle" x="3057.55" y="-86.3" font-family="Times,serif" font-size="14.00">:feature:readout&#45;list</text>
</g>
<!-- :feature:readout&#45;list&#45;&gt;:core:domain -->
<g id="edge11" class="edge">
<title>:feature:readout&#45;list&#45;&gt;:core:domain</title>
<path fill="none" stroke="black" d="M2985.35,-77C2971.82,-75.08 2957.77,-73.3 2944.55,-72 2544.63,-32.81 2063.57,-22.49 1875.48,-19.86"/>
<polygon fill="black" stroke="black" points="1875.44,-16.36 1865.39,-19.72 1875.35,-23.36 1875.44,-16.36"/>
</g>
<!-- :feature:server&#45;connection -->
<g id="node13" class="node">
<title>:feature:server&#45;connection</title>
<ellipse fill="none" stroke="black" cx="3312.55" cy="-90" rx="133.48" ry="18"/>
<text text-anchor="middle" x="3312.55" y="-86.3" font-family="Times,serif" font-size="14.00">:feature:server&#45;connection</text>
</g>
<!-- :feature:server&#45;connection&#45;&gt;:core:domain -->
<g id="edge12" class="edge">
<title>:feature:server&#45;connection&#45;&gt;:core:domain</title>
<path fill="none" stroke="black" d="M3220.61,-76.9C3203.97,-75.02 3186.76,-73.28 3170.55,-72 2679.6,-33.22 2087.77,-22.53 1875.32,-19.84"/>
<polygon fill="black" stroke="black" points="1875.24,-16.34 1865.19,-19.71 1875.15,-23.34 1875.24,-16.34"/>
</g>
</g>
</svg>
