<?xml version="1.0" encoding="UTF-8" standalone="no"?>
<!DOCTYPE svg PUBLIC "-//W3C//DTD SVG 1.1//EN"
 "http://www.w3.org/Graphics/SVG/1.1/DTD/svg11.dtd">
<!-- Generated by graphviz version 2.43.0 (0)
 -->
<!-- Title: G Pages: 1 -->
<svg width="2568pt" height="188pt"
 viewBox="0.00 0.00 2567.99 188.00" xmlns="http://www.w3.org/2000/svg" xmlns:xlink="http://www.w3.org/1999/xlink">
<g id="graph0" class="graph" transform="scale(1 1) rotate(0) translate(4 184)">
<title>G</title>
<polygon fill="white" stroke="transparent" points="-4,4 -4,-184 2563.99,-184 2563.99,4 -4,4"/>
<!-- :server -->
<g id="node1" class="node">
<title>:server</title>
<ellipse fill="none" stroke="black" cx="43.55" cy="-90" rx="43.59" ry="18"/>
<text text-anchor="middle" x="43.55" y="-86.3" font-family="Times,serif" font-size="14.00">:server</text>
</g>
<!-- :core:domain -->
<g id="node2" class="node">
<title>:core:domain</title>
<ellipse fill="none" stroke="black" cx="1083.55" cy="-18" rx="70.69" ry="18"/>
<text text-anchor="middle" x="1083.55" y="-14.3" font-family="Times,serif" font-size="14.00">:core:domain</text>
</g>
<!-- :server&#45;&gt;:core:domain -->
<g id="edge1" class="edge">
<title>:server&#45;&gt;:core:domain</title>
<path fill="none" stroke="black" d="M76.36,-77.95C84.51,-75.61 93.27,-73.42 101.55,-72 274.19,-42.45 800.92,-26.22 1003.23,-20.94"/>
<polygon fill="black" stroke="black" points="1003.58,-24.44 1013.49,-20.68 1003.4,-17.44 1003.58,-24.44"/>
</g>
<!-- :app:desktopApp -->
<g id="node3" class="node">
<title>:app:desktopApp</title>
<ellipse fill="none" stroke="black" cx="157.55" cy="-162" rx="88.28" ry="18"/>
<text text-anchor="middle" x="157.55" y="-158.3" font-family="Times,serif" font-size="14.00">:app:desktopApp</text>
</g>
<!-- :app:desktopApp&#45;&gt;:core:domain -->
<g id="edge3" class="edge">
<title>:app:desktopApp&#45;&gt;:core:domain</title>
<path fill="none" stroke="black" d="M144.96,-143.94C131.97,-124.11 116.01,-91.6 134.55,-72 164.21,-40.64 779.62,-25.13 1003.23,-20.52"/>
<polygon fill="black" stroke="black" points="1003.34,-24.02 1013.26,-20.31 1003.19,-17.02 1003.34,-24.02"/>
</g>
<!-- :core:data -->
<g id="node4" class="node">
<title>:core:data</title>
<ellipse fill="none" stroke="black" cx="200.55" cy="-90" rx="57.39" ry="18"/>
<text text-anchor="middle" x="200.55" y="-86.3" font-family="Times,serif" font-size="14.00">:core:data</text>
</g>
<!-- :app:desktopApp&#45;&gt;:core:data -->
<g id="edge2" class="edge">
<title>:app:desktopApp&#45;&gt;:core:data</title>
<path fill="none" stroke="black" d="M167.96,-144.05C173.03,-135.8 179.23,-125.7 184.86,-116.54"/>
<polygon fill="black" stroke="black" points="187.98,-118.14 190.23,-107.79 182.02,-114.48 187.98,-118.14"/>
</g>
<!-- :core:data&#45;&gt;:core:domain -->
<g id="edge4" class="edge">
<title>:core:data&#45;&gt;:core:domain</title>
<path fill="none" stroke="black" d="M241.14,-77.27C249.48,-75.22 258.25,-73.33 266.55,-72 533.66,-29.32 855.13,-20.81 1002.53,-19.25"/>
<polygon fill="black" stroke="black" points="1002.87,-22.74 1012.84,-19.15 1002.8,-15.75 1002.87,-22.74"/>
</g>
<!-- :feature:lmu&#45;connection -->
<g id="node5" class="node">
<title>:feature:lmu&#45;connection</title>
<ellipse fill="none" stroke="black" cx="396.55" cy="-90" rx="120.78" ry="18"/>
<text text-anchor="middle" x="396.55" y="-86.3" font-family="Times,serif" font-size="14.00">:feature:lmu&#45;connection</text>
</g>
<!-- :feature:lmu&#45;connection&#45;&gt;:core:domain -->
<g id="edge5" class="edge">
<title>:feature:lmu&#45;connection&#45;&gt;:core:domain</title>
<path fill="none" stroke="black" d="M482.51,-77.33C497.19,-75.46 512.3,-73.61 526.55,-72 698.13,-52.62 900,-34.6 1007.36,-25.4"/>
<polygon fill="black" stroke="black" points="1007.78,-28.87 1017.45,-24.53 1007.18,-21.9 1007.78,-28.87"/>
</g>
<!-- :feature:lmu&#45;readout&#45;flag&#45;detail -->
<g id="node6" class="node">
<title>:feature:lmu&#45;readout&#45;flag&#45;detail</title>
<ellipse fill="none" stroke="black" cx="691.55" cy="-90" rx="155.97" ry="18"/>
<text text-anchor="middle" x="691.55" y="-86.3" font-family="Times,serif" font-size="14.00">:feature:lmu&#45;readout&#45;flag&#45;detail</text>
</g>
<!-- :feature:lmu&#45;readout&#45;flag&#45;detail&#45;&gt;:core:domain -->
<g id="edge6" class="edge">
<title>:feature:lmu&#45;readout&#45;flag&#45;detail&#45;&gt;:core:domain</title>
<path fill="none" stroke="black" d="M772.29,-74.58C844.67,-61.66 949.56,-42.93 1017.17,-30.85"/>
<polygon fill="black" stroke="black" points="1018.04,-34.25 1027.27,-29.05 1016.81,-27.36 1018.04,-34.25"/>
</g>
<!-- :feature:lmu&#45;readout&#45;vehicle&#45;approach&#45;detail -->
<g id="node7" class="node">
<title>:feature:lmu&#45;readout&#45;vehicle&#45;approach&#45;detail</title>
<ellipse fill="none" stroke="black" cx="1083.55" cy="-90" rx="217.96" ry="18"/>
<text text-anchor="middle" x="1083.55" y="-86.3" font-family="Times,serif" font-size="14.00">:feature:lmu&#45;readout&#45;vehicle&#45;approach&#45;detail</text>
</g>
<!-- :feature:lmu&#45;readout&#45;vehicle&#45;approach&#45;detail&#45;&gt;:core:domain -->
<g id="edge7" class="edge">
<title>:feature:lmu&#45;readout&#45;vehicle&#45;approach&#45;detail&#45;&gt;:core:domain</title>
<path fill="none" stroke="black" d="M1083.55,-71.7C1083.55,-63.98 1083.55,-54.71 1083.55,-46.11"/>
<polygon fill="black" stroke="black" points="1087.05,-46.1 1083.55,-36.1 1080.05,-46.1 1087.05,-46.1"/>
</g>
<!-- :feature:lmu&#45;readout&#45;vehicle&#45;damage&#45;detail -->
<g id="node8" class="node">
<title>:feature:lmu&#45;readout&#45;vehicle&#45;damage&#45;detail</title>
<ellipse fill="none" stroke="black" cx="1530.55" cy="-90" rx="211.46" ry="18"/>
<text text-anchor="middle" x="1530.55" y="-86.3" font-family="Times,serif" font-size="14.00">:feature:lmu&#45;readout&#45;vehicle&#45;damage&#45;detail</text>
</g>
<!-- :feature:lmu&#45;readout&#45;vehicle&#45;damage&#45;detail&#45;&gt;:core:domain -->
<g id="edge8" class="edge">
<title>:feature:lmu&#45;readout&#45;vehicle&#45;damage&#45;detail&#45;&gt;:core:domain</title>
<path fill="none" stroke="black" d="M1434.38,-73.94C1349.59,-60.66 1228.1,-41.64 1152.61,-29.82"/>
<polygon fill="black" stroke="black" points="1152.69,-26.29 1142.27,-28.2 1151.61,-33.2 1152.69,-26.29"/>
</g>
<!-- :feature:narrator -->
<g id="node9" class="node">
<title>:feature:narrator</title>
<ellipse fill="none" stroke="black" cx="1848.55" cy="-90" rx="89.08" ry="18"/>
<text text-anchor="middle" x="1848.55" y="-86.3" font-family="Times,serif" font-size="14.00">:feature:narrator</text>
</g>
<!-- :feature:narrator&#45;&gt;:core:domain -->
<g id="edge9" class="edge">
<title>:feature:narrator&#45;&gt;:core:domain</title>
<path fill="none" stroke="black" d="M1785.68,-77.21C1774.03,-75.28 1761.94,-73.44 1750.55,-72 1538.96,-45.3 1287.81,-29.64 1162.67,-22.91"/>
<polygon fill="black" stroke="black" points="1162.59,-19.4 1152.41,-22.37 1162.21,-26.39 1162.59,-19.4"/>
</g>
<!-- :feature:other&#45;detail -->
<g id="node10" class="node">
<title>:feature:other&#45;detail</title>
<ellipse fill="none" stroke="black" cx="2060.55" cy="-90" rx="104.78" ry="18"/>
<text text-anchor="middle" x="2060.55" y="-86.3" font-family="Times,serif" font-size="14.00">:feature:other&#45;detail</text>
</g>
<!-- :feature:other&#45;detail&#45;&gt;:core:domain -->
<g id="edge10" class="edge">
<title>:feature:other&#45;detail&#45;&gt;:core:domain</title>
<path fill="none" stroke="black" d="M1987.38,-77.13C1973.83,-75.21 1959.78,-73.39 1946.55,-72 1659.24,-41.81 1316.18,-27.06 1163.57,-21.6"/>
<polygon fill="black" stroke="black" points="1163.47,-18.09 1153.35,-21.23 1163.22,-25.09 1163.47,-18.09"/>
</g>
<!-- :feature:other&#45;list -->
<g id="node11" class="node">
<title>:feature:other&#45;list</title>
<ellipse fill="none" stroke="black" cx="2276.55" cy="-90" rx="92.88" ry="18"/>
<text text-anchor="middle" x="2276.55" y="-86.3" font-family="Times,serif" font-size="14.00">:feature:other&#45;list</text>
</g>
<!-- :feature:other&#45;list&#45;&gt;:core:domain -->
<g id="edge11" class="edge">
<title>:feature:other&#45;list&#45;&gt;:core:domain</title>
<path fill="none" stroke="black" d="M2211.68,-77.02C2199.38,-75.08 2186.6,-73.29 2174.55,-72 1798.38,-31.66 1345.93,-22 1164.54,-19.71"/>
<polygon fill="black" stroke="black" points="1164.33,-16.21 1154.29,-19.58 1164.24,-23.21 1164.33,-16.21"/>
</g>
<!-- :feature:readout -->
<g id="node12" class="node">
<title>:feature:readout</title>
<ellipse fill="none" stroke="black" cx="2473.55" cy="-90" rx="86.38" ry="18"/>
<text text-anchor="middle" x="2473.55" y="-86.3" font-family="Times,serif" font-size="14.00">:feature:readout</text>
</g>
<!-- :feature:readout&#45;&gt;:core:domain -->
<g id="edge12" class="edge">
<title>:feature:readout&#45;&gt;:core:domain</title>
<path fill="none" stroke="black" d="M2413.67,-77.01C2402.06,-75.05 2389.96,-73.25 2378.55,-72 1921.57,-22 1369.21,-18.05 1164.75,-18.49"/>
<polygon fill="black" stroke="black" points="1164.68,-14.99 1154.69,-18.52 1164.7,-21.99 1164.68,-14.99"/>
</g>
</g>
</svg>
