<?xml version="1.0" encoding="UTF-8" standalone="no"?>
<!DOCTYPE svg PUBLIC "-//W3C//DTD SVG 1.1//EN"
 "http://www.w3.org/Graphics/SVG/1.1/DTD/svg11.dtd">
<!-- Generated by graphviz version 14.1.5 (20260411.2331)
 -->
<!-- Title: G Pages: 1 -->
<svg width="422pt" height="116pt"
 viewBox="0.00 0.00 422.00 116.00" xmlns="http://www.w3.org/2000/svg" xmlns:xlink="http://www.w3.org/1999/xlink">
<g id="graph0" class="graph" transform="scale(1 1) rotate(0) translate(4 112)">
<title>G</title>
<polygon fill="white" stroke="none" points="-4,4 -4,-112 418.26,-112 418.26,4 -4,4"/>
<!-- :server -->
<g id="node1" class="node">
<title>:server</title>
<ellipse fill="none" stroke="black" cx="36" cy="-90" rx="36" ry="18"/>
<text xml:space="preserve" text-anchor="middle" x="36" y="-84.95" font-family="Times,serif" font-size="14.00">:server</text>
</g>
<!-- :core -->
<g id="node2" class="node">
<title>:core</title>
<ellipse fill="none" stroke="black" cx="174" cy="-18" rx="29.34" ry="18"/>
<text xml:space="preserve" text-anchor="middle" x="174" y="-12.95" font-family="Times,serif" font-size="14.00">:core</text>
</g>
<!-- :server&#45;&gt;:core -->
<g id="edge1" class="edge">
<title>:server&#45;&gt;:core</title>
<path fill="none" stroke="black" d="M60.67,-76.49C83.33,-64.99 117.04,-47.89 141.81,-35.33"/>
<polygon fill="black" stroke="black" points="143.13,-38.58 150.47,-30.94 139.97,-32.34 143.13,-38.58"/>
</g>
<!-- :feature:other&#45;detail -->
<g id="node3" class="node">
<title>:feature:other&#45;detail</title>
<ellipse fill="none" stroke="black" cx="174" cy="-90" rx="84.11" ry="18"/>
<text xml:space="preserve" text-anchor="middle" x="174" y="-84.95" font-family="Times,serif" font-size="14.00">:feature:other&#45;detail</text>
</g>
<!-- :feature:other&#45;detail&#45;&gt;:core -->
<g id="edge2" class="edge">
<title>:feature:other&#45;detail&#45;&gt;:core</title>
<path fill="none" stroke="black" d="M174,-71.7C174,-64.41 174,-55.73 174,-47.54"/>
<polygon fill="black" stroke="black" points="177.5,-47.62 174,-37.62 170.5,-47.62 177.5,-47.62"/>
</g>
<!-- :feature:readout -->
<g id="node4" class="node">
<title>:feature:readout</title>
<ellipse fill="none" stroke="black" cx="345" cy="-90" rx="69.26" ry="18"/>
<text xml:space="preserve" text-anchor="middle" x="345" y="-84.95" font-family="Times,serif" font-size="14.00">:feature:readout</text>
</g>
<!-- :feature:readout&#45;&gt;:core -->
<g id="edge3" class="edge">
<title>:feature:readout&#45;&gt;:core</title>
<path fill="none" stroke="black" d="M309.15,-74.33C279.54,-62.2 237.76,-45.1 208.52,-33.13"/>
<polygon fill="black" stroke="black" points="209.96,-29.94 199.38,-29.39 207.31,-36.42 209.96,-29.94"/>
</g>
</g>
</svg>
