<?xml version="1.0" encoding="UTF-8" standalone="no"?>
<!DOCTYPE svg PUBLIC "-//W3C//DTD SVG 1.1//EN"
 "http://www.w3.org/Graphics/SVG/1.1/DTD/svg11.dtd">
<!-- Generated by graphviz version 2.43.0 (0)
 -->
<!-- Title: G Pages: 1 -->
<svg width="2301pt" height="116pt"
 viewBox="0.00 0.00 2301.02 116.00" xmlns="http://www.w3.org/2000/svg" xmlns:xlink="http://www.w3.org/1999/xlink">
<g id="graph0" class="graph" transform="scale(1 1) rotate(0) translate(4 112)">
<title>G</title>
<polygon fill="white" stroke="transparent" points="-4,4 -4,-112 2297.02,-112 2297.02,4 -4,4"/>
<!-- :feature:lmu&#45;readout&#45;flag&#45;detail -->
<g id="node1" class="node">
<title>:feature:lmu&#45;readout&#45;flag&#45;detail</title>
<ellipse fill="none" stroke="black" cx="155.99" cy="-90" rx="155.97" ry="18"/>
<text text-anchor="middle" x="155.99" y="-86.3" font-family="Times,serif" font-size="14.00">:feature:lmu&#45;readout&#45;flag&#45;detail</text>
</g>
<!-- :core:designsystem -->
<g id="node2" class="node">
<title>:core:designsystem</title>
<ellipse fill="none" stroke="black" cx="1329.99" cy="-18" rx="100.98" ry="18"/>
<text text-anchor="middle" x="1329.99" y="-14.3" font-family="Times,serif" font-size="14.00">:core:designsystem</text>
</g>
<!-- :feature:lmu&#45;readout&#45;flag&#45;detail&#45;&gt;:core:designsystem -->
<g id="edge1" class="edge">
<title>:feature:lmu&#45;readout&#45;flag&#45;detail&#45;&gt;:core:designsystem</title>
<path fill="none" stroke="black" d="M264.64,-77.02C283.42,-75.18 302.75,-73.42 320.99,-72 648.61,-46.53 1037.05,-29.96 1221.86,-22.9"/>
<polygon fill="black" stroke="black" points="1222.26,-26.38 1232.12,-22.51 1222,-19.39 1222.26,-26.38"/>
</g>
<!-- :feature:lmu&#45;windows&#45;readout&#45;vehicle&#45;approach&#45;detail -->
<g id="node3" class="node">
<title>:feature:lmu&#45;windows&#45;readout&#45;vehicle&#45;approach&#45;detail</title>
<ellipse fill="none" stroke="black" cx="590.99" cy="-90" rx="260.75" ry="18"/>
<text text-anchor="middle" x="590.99" y="-86.3" font-family="Times,serif" font-size="14.00">:feature:lmu&#45;windows&#45;readout&#45;vehicle&#45;approach&#45;detail</text>
</g>
<!-- :feature:lmu&#45;windows&#45;readout&#45;vehicle&#45;approach&#45;detail&#45;&gt;:core:designsystem -->
<g id="edge2" class="edge">
<title>:feature:lmu&#45;windows&#45;readout&#45;vehicle&#45;approach&#45;detail&#45;&gt;:core:designsystem</title>
<path fill="none" stroke="black" d="M737.87,-75.09C884.9,-61.16 1106.89,-40.13 1233.14,-28.17"/>
<polygon fill="black" stroke="black" points="1233.56,-31.65 1243.19,-27.22 1232.9,-24.68 1233.56,-31.65"/>
</g>
<!-- :feature:lmu&#45;windows&#45;readout&#45;vehicle&#45;damage&#45;detail -->
<g id="node4" class="node">
<title>:feature:lmu&#45;windows&#45;readout&#45;vehicle&#45;damage&#45;detail</title>
<ellipse fill="none" stroke="black" cx="1123.99" cy="-90" rx="254.55" ry="18"/>
<text text-anchor="middle" x="1123.99" y="-86.3" font-family="Times,serif" font-size="14.00">:feature:lmu&#45;windows&#45;readout&#45;vehicle&#45;damage&#45;detail</text>
</g>
<!-- :feature:lmu&#45;windows&#45;readout&#45;vehicle&#45;damage&#45;detail&#45;&gt;:core:designsystem -->
<g id="edge3" class="edge">
<title>:feature:lmu&#45;windows&#45;readout&#45;vehicle&#45;damage&#45;detail&#45;&gt;:core:designsystem</title>
<path fill="none" stroke="black" d="M1173.07,-72.32C1203.91,-61.84 1243.74,-48.31 1275.55,-37.5"/>
<polygon fill="black" stroke="black" points="1276.81,-40.77 1285.15,-34.24 1274.55,-34.14 1276.81,-40.77"/>
</g>
<!-- :feature:other&#45;license&#45;detail -->
<g id="node5" class="node">
<title>:feature:other&#45;license&#45;detail</title>
<ellipse fill="none" stroke="black" cx="1536.99" cy="-90" rx="139.98" ry="18"/>
<text text-anchor="middle" x="1536.99" y="-86.3" font-family="Times,serif" font-size="14.00">:feature:other&#45;license&#45;detail</text>
</g>
<!-- :feature:other&#45;license&#45;detail&#45;&gt;:core:designsystem -->
<g id="edge4" class="edge">
<title>:feature:other&#45;license&#45;detail&#45;&gt;:core:designsystem</title>
<path fill="none" stroke="black" d="M1489.76,-73.03C1458.5,-62.46 1417.42,-48.57 1384.74,-37.51"/>
<polygon fill="black" stroke="black" points="1385.48,-34.07 1374.88,-34.18 1383.24,-40.7 1385.48,-34.07"/>
</g>
<!-- :feature:other&#45;server&#45;ip&#45;detail -->
<g id="node6" class="node">
<title>:feature:other&#45;server&#45;ip&#45;detail</title>
<ellipse fill="none" stroke="black" cx="1843.99" cy="-90" rx="148.67" ry="18"/>
<text text-anchor="middle" x="1843.99" y="-86.3" font-family="Times,serif" font-size="14.00">:feature:other&#45;server&#45;ip&#45;detail</text>
</g>
<!-- :feature:other&#45;server&#45;ip&#45;detail&#45;&gt;:core:designsystem -->
<g id="edge5" class="edge">
<title>:feature:other&#45;server&#45;ip&#45;detail&#45;&gt;:core:designsystem</title>
<path fill="none" stroke="black" d="M1749.11,-76.08C1654.33,-63.17 1509.82,-43.49 1417.66,-30.94"/>
<polygon fill="black" stroke="black" points="1417.9,-27.44 1407.52,-29.56 1416.96,-34.38 1417.9,-27.44"/>
</g>
<!-- :feature:other&#45;volume&#45;detail -->
<g id="node7" class="node">
<title>:feature:other&#45;volume&#45;detail</title>
<ellipse fill="none" stroke="black" cx="2151.99" cy="-90" rx="141.07" ry="18"/>
<text text-anchor="middle" x="2151.99" y="-86.3" font-family="Times,serif" font-size="14.00">:feature:other&#45;volume&#45;detail</text>
</g>
<!-- :feature:other&#45;volume&#45;detail&#45;&gt;:core:designsystem -->
<g id="edge6" class="edge">
<title>:feature:other&#45;volume&#45;detail&#45;&gt;:core:designsystem</title>
<path fill="none" stroke="black" d="M2052.39,-77.23C2035.58,-75.38 2018.29,-73.57 2001.99,-72 1800.32,-52.63 1564.1,-35.22 1432.28,-25.98"/>
<polygon fill="black" stroke="black" points="1432.41,-22.48 1422.19,-25.27 1431.93,-29.46 1432.41,-22.48"/>
</g>
</g>
</svg>
