<?xml version="1.0" encoding="UTF-8" standalone="no"?>
<!DOCTYPE svg PUBLIC "-//W3C//DTD SVG 1.1//EN"
 "http://www.w3.org/Graphics/SVG/1.1/DTD/svg11.dtd">
<!-- Generated by graphviz version 2.43.0 (0)
 -->
<!-- Title: G Pages: 1 -->
<svg width="7268pt" height="116pt"
 viewBox="0.00 0.00 7267.78 116.00" xmlns="http://www.w3.org/2000/svg" xmlns:xlink="http://www.w3.org/1999/xlink">
<g id="graph0" class="graph" transform="scale(1 1) rotate(0) translate(4 112)">
<title>G</title>
<polygon fill="white" stroke="transparent" points="-4,4 -4,-112 7263.78,-112 7263.78,4 -4,4"/>
<!-- :server -->
<g id="node1" class="node">
<title>:server</title>
<ellipse fill="none" stroke="black" cx="43.55" cy="-90" rx="43.59" ry="18"/>
<text text-anchor="middle" x="43.55" y="-86.3" font-family="Times,serif" font-size="14.00">:server</text>
</g>
<!-- :core:domain -->
<g id="node2" class="node">
<title>:core:domain</title>
<ellipse fill="none" stroke="black" cx="3566.55" cy="-18" rx="70.69" ry="18"/>
<text text-anchor="middle" x="3566.55" y="-14.3" font-family="Times,serif" font-size="14.00">:core:domain</text>
</g>
<!-- :server&#45;&gt;:core:domain -->
<g id="edge1" class="edge">
<title>:server&#45;&gt;:core:domain</title>
<path fill="none" stroke="black" d="M74.84,-77.28C81.88,-75.12 89.39,-73.17 96.55,-72 440.32,-15.52 2995.33,-17.84 3485.4,-18.81"/>
<polygon fill="black" stroke="black" points="3485.56,-22.31 3495.56,-18.83 3485.57,-15.31 3485.56,-22.31"/>
</g>
<!-- :core:data -->
<g id="node3" class="node">
<title>:core:data</title>
<ellipse fill="none" stroke="black" cx="162.55" cy="-90" rx="57.39" ry="18"/>
<text text-anchor="middle" x="162.55" y="-86.3" font-family="Times,serif" font-size="14.00">:core:data</text>
</g>
<!-- :core:data&#45;&gt;:core:domain -->
<g id="edge2" class="edge">
<title>:core:data&#45;&gt;:core:domain</title>
<path fill="none" stroke="black" d="M202.74,-77.04C211.19,-74.98 220.1,-73.14 228.55,-72 559.97,-27.33 3006.91,-20.13 3485.5,-19.14"/>
<polygon fill="black" stroke="black" points="3485.77,-22.64 3495.77,-19.12 3485.76,-15.64 3485.77,-22.64"/>
</g>
<!-- :core:gt7&#45;ps5&#45;data -->
<g id="node4" class="node">
<title>:core:gt7&#45;ps5&#45;data</title>
<ellipse fill="none" stroke="black" cx="332.55" cy="-90" rx="94.78" ry="18"/>
<text text-anchor="middle" x="332.55" y="-86.3" font-family="Times,serif" font-size="14.00">:core:gt7&#45;ps5&#45;data</text>
</g>
<!-- :core:gt7&#45;ps5&#45;data&#45;&gt;:core:domain -->
<g id="edge3" class="edge">
<title>:core:gt7&#45;ps5&#45;data&#45;&gt;:core:domain</title>
<path fill="none" stroke="black" d="M397.83,-76.85C410.62,-74.88 423.97,-73.13 436.55,-72 1054.03,-16.6 3056.87,-17.85 3485.38,-18.78"/>
<polygon fill="black" stroke="black" points="3485.5,-22.28 3495.51,-18.8 3485.52,-15.28 3485.5,-22.28"/>
</g>
<!-- :core:lmu&#45;windows&#45;data -->
<g id="node5" class="node">
<title>:core:lmu&#45;windows&#45;data</title>
<ellipse fill="none" stroke="black" cx="566.55" cy="-90" rx="120.78" ry="18"/>
<text text-anchor="middle" x="566.55" y="-86.3" font-family="Times,serif" font-size="14.00">:core:lmu&#45;windows&#45;data</text>
</g>
<!-- :core:lmu&#45;windows&#45;data&#45;&gt;:core:domain -->
<g id="edge4" class="edge">
<title>:core:lmu&#45;windows&#45;data&#45;&gt;:core:domain</title>
<path fill="none" stroke="black" d="M648.93,-76.82C664.7,-74.89 681.11,-73.15 696.55,-72 1260.41,-30.06 3079.64,-20.83 3485.68,-19.27"/>
<polygon fill="black" stroke="black" points="3485.88,-22.77 3495.87,-19.23 3485.85,-15.77 3485.88,-22.77"/>
</g>
<!-- :feature:gt7&#45;ps5&#45;connection -->
<g id="node6" class="node">
<title>:feature:gt7&#45;ps5&#45;connection</title>
<ellipse fill="none" stroke="black" cx="843.55" cy="-90" rx="138.38" ry="18"/>
<text text-anchor="middle" x="843.55" y="-86.3" font-family="Times,serif" font-size="14.00">:feature:gt7&#45;ps5&#45;connection</text>
</g>
<!-- :feature:gt7&#45;ps5&#45;connection&#45;&gt;:core:domain -->
<g id="edge5" class="edge">
<title>:feature:gt7&#45;ps5&#45;connection&#45;&gt;:core:domain</title>
<path fill="none" stroke="black" d="M938.17,-76.79C955.88,-74.89 974.26,-73.17 991.55,-72 1494.02,-38.05 3105.93,-22.81 3485.81,-19.64"/>
<polygon fill="black" stroke="black" points="3485.92,-23.14 3495.89,-19.56 3485.86,-16.14 3485.92,-23.14"/>
</g>
<!-- :feature:gt7&#45;ps5&#45;narrator -->
<g id="node7" class="node">
<title>:feature:gt7&#45;ps5&#45;narrator</title>
<ellipse fill="none" stroke="black" cx="1127.55" cy="-90" rx="127.28" ry="18"/>
<text text-anchor="middle" x="1127.55" y="-86.3" font-family="Times,serif" font-size="14.00">:feature:gt7&#45;ps5&#45;narrator</text>
</g>
<!-- :feature:gt7&#45;ps5&#45;narrator&#45;&gt;:core:domain -->
<g id="edge6" class="edge">
<title>:feature:gt7&#45;ps5&#45;narrator&#45;&gt;:core:domain</title>
<path fill="none" stroke="black" d="M1214.48,-76.8C1230.75,-74.9 1247.65,-73.17 1263.55,-72 1709.1,-39.11 3131.09,-23.26 3485.8,-19.76"/>
<polygon fill="black" stroke="black" points="3486.01,-23.26 3495.98,-19.66 3485.94,-16.26 3486.01,-23.26"/>
</g>
<!-- :feature:gt7&#45;ps5&#45;readout&#45;my&#45;bestlap&#45;detail -->
<g id="node8" class="node">
<title>:feature:gt7&#45;ps5&#45;readout&#45;my&#45;bestlap&#45;detail</title>
<ellipse fill="none" stroke="black" cx="1480.55" cy="-90" rx="207.96" ry="18"/>
<text text-anchor="middle" x="1480.55" y="-86.3" font-family="Times,serif" font-size="14.00">:feature:gt7&#45;ps5&#45;readout&#45;my&#45;bestlap&#45;detail</text>
</g>
<!-- :feature:gt7&#45;ps5&#45;readout&#45;my&#45;bestlap&#45;detail&#45;&gt;:core:domain -->
<g id="edge7" class="edge">
<title>:feature:gt7&#45;ps5&#45;readout&#45;my&#45;bestlap&#45;detail&#45;&gt;:core:domain</title>
<path fill="none" stroke="black" d="M1622.59,-76.85C1647.56,-75.01 1673.3,-73.29 1697.55,-72 2388.88,-35.14 3225.52,-22.91 3485.52,-19.86"/>
<polygon fill="black" stroke="black" points="3485.67,-23.35 3495.63,-19.74 3485.59,-16.36 3485.67,-23.35"/>
</g>
<!-- :feature:gt7&#45;ps5&#45;readout&#45;remaining&#45;fuel&#45;laps&#45;detail -->
<g id="node9" class="node">
<title>:feature:gt7&#45;ps5&#45;readout&#45;remaining&#45;fuel&#45;laps&#45;detail</title>
<ellipse fill="none" stroke="black" cx="1952.55" cy="-90" rx="246.16" ry="18"/>
<text text-anchor="middle" x="1952.55" y="-86.3" font-family="Times,serif" font-size="14.00">:feature:gt7&#45;ps5&#45;readout&#45;remaining&#45;fuel&#45;laps&#45;detail</text>
</g>
<!-- :feature:gt7&#45;ps5&#45;readout&#45;remaining&#45;fuel&#45;laps&#45;detail&#45;&gt;:core:domain -->
<g id="edge8" class="edge">
<title>:feature:gt7&#45;ps5&#45;readout&#45;remaining&#45;fuel&#45;laps&#45;detail&#45;&gt;:core:domain</title>
<path fill="none" stroke="black" d="M2123.26,-77.01C2151.73,-75.2 2180.97,-73.45 2208.55,-72 2693.63,-46.43 3276.79,-27.71 3486.55,-21.36"/>
<polygon fill="black" stroke="black" points="3486.66,-24.86 3496.55,-21.06 3486.45,-17.86 3486.66,-24.86"/>
</g>
<!-- :feature:lmu&#45;windows&#45;connection -->
<g id="node10" class="node">
<title>:feature:lmu&#45;windows&#45;connection</title>
<ellipse fill="none" stroke="black" cx="2381.55" cy="-90" rx="164.37" ry="18"/>
<text text-anchor="middle" x="2381.55" y="-86.3" font-family="Times,serif" font-size="14.00">:feature:lmu&#45;windows&#45;connection</text>
</g>
<!-- :feature:lmu&#45;windows&#45;connection&#45;&gt;:core:domain -->
<g id="edge9" class="edge">
<title>:feature:lmu&#45;windows&#45;connection&#45;&gt;:core:domain</title>
<path fill="none" stroke="black" d="M2496.14,-77.06C2515.94,-75.21 2536.33,-73.44 2555.55,-72 2901.86,-46.02 3315.86,-28.57 3486.75,-21.96"/>
<polygon fill="black" stroke="black" points="3487.06,-25.45 3496.92,-21.57 3486.79,-18.46 3487.06,-25.45"/>
</g>
<!-- :feature:lmu&#45;windows&#45;narrator -->
<g id="node11" class="node">
<title>:feature:lmu&#45;windows&#45;narrator</title>
<ellipse fill="none" stroke="black" cx="2717.55" cy="-90" rx="153.27" ry="18"/>
<text text-anchor="middle" x="2717.55" y="-86.3" font-family="Times,serif" font-size="14.00">:feature:lmu&#45;windows&#45;narrator</text>
</g>
<!-- :feature:lmu&#45;windows&#45;narrator&#45;&gt;:core:domain -->
<g id="edge10" class="edge">
<title>:feature:lmu&#45;windows&#45;narrator&#45;&gt;:core:domain</title>
<path fill="none" stroke="black" d="M2826,-77.2C2843.88,-75.38 2862.23,-73.58 2879.55,-72 3100.22,-51.91 3361.23,-33.15 3488.67,-24.31"/>
<polygon fill="black" stroke="black" points="3488.99,-27.79 3498.72,-23.61 3488.51,-20.81 3488.99,-27.79"/>
</g>
<!-- :feature:lmu&#45;windows&#45;readout&#45;flag&#45;detail -->
<g id="node12" class="node">
<title>:feature:lmu&#45;windows&#45;readout&#45;flag&#45;detail</title>
<ellipse fill="none" stroke="black" cx="3088.55" cy="-90" rx="199.56" ry="18"/>
<text text-anchor="middle" x="3088.55" y="-86.3" font-family="Times,serif" font-size="14.00">:feature:lmu&#45;windows&#45;readout&#45;flag&#45;detail</text>
</g>
<!-- :feature:lmu&#45;windows&#45;readout&#45;flag&#45;detail&#45;&gt;:core:domain -->
<g id="edge11" class="edge">
<title>:feature:lmu&#45;windows&#45;readout&#45;flag&#45;detail&#45;&gt;:core:domain</title>
<path fill="none" stroke="black" d="M3188.46,-74.37C3280.71,-60.86 3415.37,-41.14 3496.62,-29.24"/>
<polygon fill="black" stroke="black" points="3497.35,-32.67 3506.74,-27.76 3496.34,-25.74 3497.35,-32.67"/>
</g>
<!-- :feature:lmu&#45;windows&#45;readout&#45;vehicle&#45;approach&#45;detail -->
<g id="node13" class="node">
<title>:feature:lmu&#45;windows&#45;readout&#45;vehicle&#45;approach&#45;detail</title>
<ellipse fill="none" stroke="black" cx="3566.55" cy="-90" rx="260.75" ry="18"/>
<text text-anchor="middle" x="3566.55" y="-86.3" font-family="Times,serif" font-size="14.00">:feature:lmu&#45;windows&#45;readout&#45;vehicle&#45;approach&#45;detail</text>
</g>
<!-- :feature:lmu&#45;windows&#45;readout&#45;vehicle&#45;approach&#45;detail&#45;&gt;:core:domain -->
<g id="edge12" class="edge">
<title>:feature:lmu&#45;windows&#45;readout&#45;vehicle&#45;approach&#45;detail&#45;&gt;:core:domain</title>
<path fill="none" stroke="black" d="M3566.55,-71.7C3566.55,-63.98 3566.55,-54.71 3566.55,-46.11"/>
<polygon fill="black" stroke="black" points="3570.05,-46.1 3566.55,-36.1 3563.05,-46.1 3570.05,-46.1"/>
</g>
<!-- :feature:lmu&#45;windows&#45;readout&#45;vehicle&#45;damage&#45;detail -->
<g id="node14" class="node">
<title>:feature:lmu&#45;windows&#45;readout&#45;vehicle&#45;damage&#45;detail</title>
<ellipse fill="none" stroke="black" cx="4099.55" cy="-90" rx="254.55" ry="18"/>
<text text-anchor="middle" x="4099.55" y="-86.3" font-family="Times,serif" font-size="14.00">:feature:lmu&#45;windows&#45;readout&#45;vehicle&#45;damage&#45;detail</text>
</g>
<!-- :feature:lmu&#45;windows&#45;readout&#45;vehicle&#45;damage&#45;detail&#45;&gt;:core:domain -->
<g id="edge13" class="edge">
<title>:feature:lmu&#45;windows&#45;readout&#45;vehicle&#45;damage&#45;detail&#45;&gt;:core:domain</title>
<path fill="none" stroke="black" d="M3984.55,-73.9C3879.2,-60.06 3726.56,-40.02 3637.84,-28.36"/>
<polygon fill="black" stroke="black" points="3638.25,-24.89 3627.88,-27.05 3637.33,-31.83 3638.25,-24.89"/>
</g>
<!-- :feature:main -->
<g id="node15" class="node">
<title>:feature:main</title>
<ellipse fill="none" stroke="black" cx="4445.55" cy="-90" rx="73.39" ry="18"/>
<text text-anchor="middle" x="4445.55" y="-86.3" font-family="Times,serif" font-size="14.00">:feature:main</text>
</g>
<!-- :feature:main&#45;&gt;:core:domain -->
<g id="edge14" class="edge">
<title>:feature:main&#45;&gt;:core:domain</title>
<path fill="none" stroke="black" d="M4393.68,-77.12C4383.72,-75.16 4373.34,-73.33 4363.55,-72 4103.06,-36.51 3791.31,-24.52 3647.06,-20.68"/>
<polygon fill="black" stroke="black" points="3647.06,-17.18 3636.97,-20.42 3646.88,-24.18 3647.06,-17.18"/>
</g>
<!-- :feature:other&#45;console&#45;ip&#45;detail -->
<g id="node16" class="node">
<title>:feature:other&#45;console&#45;ip&#45;detail</title>
<ellipse fill="none" stroke="black" cx="4690.55" cy="-90" rx="153.27" ry="18"/>
<text text-anchor="middle" x="4690.55" y="-86.3" font-family="Times,serif" font-size="14.00">:feature:other&#45;console&#45;ip&#45;detail</text>
</g>
<!-- :feature:other&#45;console&#45;ip&#45;detail&#45;&gt;:core:domain -->
<g id="edge15" class="edge">
<title>:feature:other&#45;console&#45;ip&#45;detail&#45;&gt;:core:domain</title>
<path fill="none" stroke="black" d="M4583.21,-77.05C4564.66,-75.2 4545.56,-73.43 4527.55,-72 4200.84,-45.97 3810.62,-28.71 3646.01,-22.07"/>
<polygon fill="black" stroke="black" points="3646.1,-18.57 3635.97,-21.66 3645.82,-25.56 3646.1,-18.57"/>
</g>
<!-- :feature:other&#45;keep&#45;screen&#45;on&#45;detail -->
<g id="node17" class="node">
<title>:feature:other&#45;keep&#45;screen&#45;on&#45;detail</title>
<ellipse fill="none" stroke="black" cx="5038.55" cy="-90" rx="176.57" ry="18"/>
<text text-anchor="middle" x="5038.55" y="-86.3" font-family="Times,serif" font-size="14.00">:feature:other&#45;keep&#45;screen&#45;on&#45;detail</text>
</g>
<!-- :feature:other&#45;keep&#45;screen&#45;on&#45;detail&#45;&gt;:core:domain -->
<g id="edge16" class="edge">
<title>:feature:other&#45;keep&#45;screen&#45;on&#45;detail&#45;&gt;:core:domain</title>
<path fill="none" stroke="black" d="M4916.55,-76.97C4895.23,-75.12 4873.25,-73.37 4852.55,-72 4396.98,-41.81 3849.41,-26.05 3646.91,-20.92"/>
<polygon fill="black" stroke="black" points="3646.75,-17.41 3636.66,-20.66 3646.57,-24.41 3646.75,-17.41"/>
</g>
<!-- :feature:other&#45;license&#45;detail -->
<g id="node18" class="node">
<title>:feature:other&#45;license&#45;detail</title>
<ellipse fill="none" stroke="black" cx="5373.55" cy="-90" rx="139.98" ry="18"/>
<text text-anchor="middle" x="5373.55" y="-86.3" font-family="Times,serif" font-size="14.00">:feature:other&#45;license&#45;detail</text>
</g>
<!-- :feature:other&#45;license&#45;detail&#45;&gt;:core:domain -->
<g id="edge17" class="edge">
<title>:feature:other&#45;license&#45;detail&#45;&gt;:core:domain</title>
<path fill="none" stroke="black" d="M5277.47,-76.87C5259.89,-74.98 5241.68,-73.25 5224.55,-72 4619.64,-27.9 3887.92,-20.49 3647.41,-19.25"/>
<polygon fill="black" stroke="black" points="3647.37,-15.75 3637.35,-19.2 3647.34,-22.75 3647.37,-15.75"/>
</g>
<!-- :feature:other&#45;list -->
<g id="node19" class="node">
<title>:feature:other&#45;list</title>
<ellipse fill="none" stroke="black" cx="5624.55" cy="-90" rx="92.88" ry="18"/>
<text text-anchor="middle" x="5624.55" y="-86.3" font-family="Times,serif" font-size="14.00">:feature:other&#45;list</text>
</g>
<!-- :feature:other&#45;list&#45;&gt;:core:domain -->
<g id="edge18" class="edge">
<title>:feature:other&#45;list&#45;&gt;:core:domain</title>
<path fill="none" stroke="black" d="M5560.52,-76.94C5547.97,-74.97 5534.88,-73.19 5522.55,-72 5149.67,-36.05 3967.57,-22.71 3647.26,-19.7"/>
<polygon fill="black" stroke="black" points="3647.17,-16.2 3637.14,-19.61 3647.1,-23.2 3647.17,-16.2"/>
</g>
<!-- :feature:other&#45;readout&#45;start&#45;sound&#45;detail -->
<g id="node20" class="node">
<title>:feature:other&#45;readout&#45;start&#45;sound&#45;detail</title>
<ellipse fill="none" stroke="black" cx="5934.55" cy="-90" rx="199.56" ry="18"/>
<text text-anchor="middle" x="5934.55" y="-86.3" font-family="Times,serif" font-size="14.00">:feature:other&#45;readout&#45;start&#45;sound&#45;detail</text>
</g>
<!-- :feature:other&#45;readout&#45;start&#45;sound&#45;detail&#45;&gt;:core:domain -->
<g id="edge19" class="edge">
<title>:feature:other&#45;readout&#45;start&#45;sound&#45;detail&#45;&gt;:core:domain</title>
<path fill="none" stroke="black" d="M5798.68,-76.77C5774.66,-74.93 5749.88,-73.24 5726.55,-72 4916.22,-28.98 3933,-20.82 3647.71,-19.32"/>
<polygon fill="black" stroke="black" points="3647.47,-15.82 3637.46,-19.27 3647.44,-22.82 3647.47,-15.82"/>
</g>
<!-- :feature:other&#45;server&#45;ip&#45;detail -->
<g id="node21" class="node">
<title>:feature:other&#45;server&#45;ip&#45;detail</title>
<ellipse fill="none" stroke="black" cx="6300.55" cy="-90" rx="148.67" ry="18"/>
<text text-anchor="middle" x="6300.55" y="-86.3" font-family="Times,serif" font-size="14.00">:feature:other&#45;server&#45;ip&#45;detail</text>
</g>
<!-- :feature:other&#45;server&#45;ip&#45;detail&#45;&gt;:core:domain -->
<g id="edge20" class="edge">
<title>:feature:other&#45;server&#45;ip&#45;detail&#45;&gt;:core:domain</title>
<path fill="none" stroke="black" d="M6199.31,-76.73C6180.79,-74.85 6161.6,-73.16 6143.55,-72 5640.58,-39.66 4027.49,-23.2 3647.34,-19.71"/>
<polygon fill="black" stroke="black" points="3647.29,-16.21 3637.26,-19.62 3647.22,-23.21 3647.29,-16.21"/>
</g>
<!-- :feature:other&#45;volume&#45;detail -->
<g id="node22" class="node">
<title>:feature:other&#45;volume&#45;detail</title>
<ellipse fill="none" stroke="black" cx="6608.55" cy="-90" rx="141.07" ry="18"/>
<text text-anchor="middle" x="6608.55" y="-86.3" font-family="Times,serif" font-size="14.00">:feature:other&#45;volume&#45;detail</text>
</g>
<!-- :feature:other&#45;volume&#45;detail&#45;&gt;:core:domain -->
<g id="edge21" class="edge">
<title>:feature:other&#45;volume&#45;detail&#45;&gt;:core:domain</title>
<path fill="none" stroke="black" d="M6512.64,-76.77C6494.69,-74.86 6476.07,-73.15 6458.55,-72 5889.86,-34.65 4056.1,-21.87 3647.68,-19.45"/>
<polygon fill="black" stroke="black" points="3647.46,-15.95 3637.44,-19.39 3647.42,-22.95 3647.46,-15.95"/>
</g>
<!-- :feature:readout&#45;list -->
<g id="node23" class="node">
<title>:feature:readout&#45;list</title>
<ellipse fill="none" stroke="black" cx="6871.55" cy="-90" rx="103.98" ry="18"/>
<text text-anchor="middle" x="6871.55" y="-86.3" font-family="Times,serif" font-size="14.00">:feature:readout&#45;list</text>
</g>
<!-- :feature:readout&#45;list&#45;&gt;:core:domain -->
<g id="edge22" class="edge">
<title>:feature:readout&#45;list&#45;&gt;:core:domain</title>
<path fill="none" stroke="black" d="M6800.28,-76.81C6786.47,-74.87 6772.09,-73.13 6758.55,-72 6127.79,-19.55 4081.8,-18.5 3647.89,-18.89"/>
<polygon fill="black" stroke="black" points="3647.63,-15.39 3637.63,-18.9 3647.64,-22.39 3647.63,-15.39"/>
</g>
<!-- :feature:server&#45;connection -->
<g id="node24" class="node">
<title>:feature:server&#45;connection</title>
<ellipse fill="none" stroke="black" cx="7126.55" cy="-90" rx="133.48" ry="18"/>
<text text-anchor="middle" x="7126.55" y="-86.3" font-family="Times,serif" font-size="14.00">:feature:server&#45;connection</text>
</g>
<!-- :feature:server&#45;connection&#45;&gt;:core:domain -->
<g id="edge23" class="edge">
<title>:feature:server&#45;connection&#45;&gt;:core:domain</title>
<path fill="none" stroke="black" d="M7036.15,-76.76C7019.04,-74.84 7001.27,-73.13 6984.55,-72 6305.26,-26.2 4098.08,-19.92 3647.36,-19.11"/>
<polygon fill="black" stroke="black" points="3647.37,-15.61 3637.36,-19.1 3647.35,-22.61 3647.37,-15.61"/>
</g>
</g>
</svg>
