<?xml version="1.0" encoding="UTF-8" standalone="no"?>
<!DOCTYPE svg PUBLIC "-//W3C//DTD SVG 1.1//EN"
 "http://www.w3.org/Graphics/SVG/1.1/DTD/svg11.dtd">
<!-- Generated by graphviz version 2.43.0 (0)
 -->
<!-- Title: G Pages: 1 -->
<svg width="3280pt" height="116pt"
 viewBox="0.00 0.00 3279.78 116.00" xmlns="http://www.w3.org/2000/svg" xmlns:xlink="http://www.w3.org/1999/xlink">
<g id="graph0" class="graph" transform="scale(1 1) rotate(0) translate(4 112)">
<title>G</title>
<polygon fill="white" stroke="transparent" points="-4,4 -4,-112 3275.78,-112 3275.78,4 -4,4"/>
<!-- :server -->
<g id="node1" class="node">
<title>:server</title>
<ellipse fill="none" stroke="black" cx="43.55" cy="-90" rx="43.59" ry="18"/>
<text text-anchor="middle" x="43.55" y="-86.3" font-family="Times,serif" font-size="14.00">:server</text>
</g>
<!-- :core:domain -->
<g id="node2" class="node">
<title>:core:domain</title>
<ellipse fill="none" stroke="black" cx="1506.55" cy="-18" rx="70.69" ry="18"/>
<text text-anchor="middle" x="1506.55" y="-14.3" font-family="Times,serif" font-size="14.00">:core:domain</text>
</g>
<!-- :server&#45;&gt;:core:domain -->
<g id="edge1" class="edge">
<title>:server&#45;&gt;:core:domain</title>
<path fill="none" stroke="black" d="M74.86,-77.4C81.9,-75.23 89.41,-73.25 96.55,-72 354.57,-26.65 1165.73,-20.08 1425.6,-19.15"/>
<polygon fill="black" stroke="black" points="1425.73,-22.65 1435.71,-19.11 1425.7,-15.65 1425.73,-22.65"/>
</g>
<!-- :core:data -->
<g id="node3" class="node">
<title>:core:data</title>
<ellipse fill="none" stroke="black" cx="162.55" cy="-90" rx="57.39" ry="18"/>
<text text-anchor="middle" x="162.55" y="-86.3" font-family="Times,serif" font-size="14.00">:core:data</text>
</g>
<!-- :core:data&#45;&gt;:core:domain -->
<g id="edge2" class="edge">
<title>:core:data&#45;&gt;:core:domain</title>
<path fill="none" stroke="black" d="M203.11,-77.12C211.46,-75.08 220.24,-73.23 228.55,-72 461.09,-37.62 1183.05,-23.86 1425.9,-20.12"/>
<polygon fill="black" stroke="black" points="1426.12,-23.62 1436.07,-19.97 1426.02,-16.62 1426.12,-23.62"/>
</g>
<!-- :feature:lmu&#45;connection -->
<g id="node4" class="node">
<title>:feature:lmu&#45;connection</title>
<ellipse fill="none" stroke="black" cx="358.55" cy="-90" rx="120.78" ry="18"/>
<text text-anchor="middle" x="358.55" y="-86.3" font-family="Times,serif" font-size="14.00">:feature:lmu&#45;connection</text>
</g>
<!-- :feature:lmu&#45;connection&#45;&gt;:core:domain -->
<g id="edge3" class="edge">
<title>:feature:lmu&#45;connection&#45;&gt;:core:domain</title>
<path fill="none" stroke="black" d="M442.71,-77.02C457.94,-75.13 473.7,-73.36 488.55,-72 836.78,-40.21 1253.9,-25.92 1426.12,-21.05"/>
<polygon fill="black" stroke="black" points="1426.47,-24.55 1436.37,-20.77 1426.28,-17.55 1426.47,-24.55"/>
</g>
<!-- :feature:lmu&#45;narrator -->
<g id="node5" class="node">
<title>:feature:lmu&#45;narrator</title>
<ellipse fill="none" stroke="black" cx="607.55" cy="-90" rx="109.68" ry="18"/>
<text text-anchor="middle" x="607.55" y="-86.3" font-family="Times,serif" font-size="14.00">:feature:lmu&#45;narrator</text>
</g>
<!-- :feature:lmu&#45;narrator&#45;&gt;:core:domain -->
<g id="edge4" class="edge">
<title>:feature:lmu&#45;narrator&#45;&gt;:core:domain</title>
<path fill="none" stroke="black" d="M684.58,-77.15C698.52,-75.24 712.95,-73.43 726.55,-72 981.86,-45.13 1285.69,-29.03 1426.97,-22.46"/>
<polygon fill="black" stroke="black" points="1427.44,-25.94 1437.27,-21.98 1427.12,-18.95 1427.44,-25.94"/>
</g>
<!-- :feature:lmu&#45;readout&#45;flag&#45;detail -->
<g id="node6" class="node">
<title>:feature:lmu&#45;readout&#45;flag&#45;detail</title>
<ellipse fill="none" stroke="black" cx="891.55" cy="-90" rx="155.97" ry="18"/>
<text text-anchor="middle" x="891.55" y="-86.3" font-family="Times,serif" font-size="14.00">:feature:lmu&#45;readout&#45;flag&#45;detail</text>
</g>
<!-- :feature:lmu&#45;readout&#45;flag&#45;detail&#45;&gt;:core:domain -->
<g id="edge5" class="edge">
<title>:feature:lmu&#45;readout&#45;flag&#45;detail&#45;&gt;:core:domain</title>
<path fill="none" stroke="black" d="M998.32,-76.85C1122.78,-62.68 1325.15,-39.65 1433.15,-27.35"/>
<polygon fill="black" stroke="black" points="1433.76,-30.81 1443.3,-26.2 1432.97,-23.85 1433.76,-30.81"/>
</g>
<!-- :feature:lmu&#45;readout&#45;vehicle&#45;approach&#45;detail -->
<g id="node7" class="node">
<title>:feature:lmu&#45;readout&#45;vehicle&#45;approach&#45;detail</title>
<ellipse fill="none" stroke="black" cx="1283.55" cy="-90" rx="217.96" ry="18"/>
<text text-anchor="middle" x="1283.55" y="-86.3" font-family="Times,serif" font-size="14.00">:feature:lmu&#45;readout&#45;vehicle&#45;approach&#45;detail</text>
</g>
<!-- :feature:lmu&#45;readout&#45;vehicle&#45;approach&#45;detail&#45;&gt;:core:domain -->
<g id="edge6" class="edge">
<title>:feature:lmu&#45;readout&#45;vehicle&#45;approach&#45;detail&#45;&gt;:core:domain</title>
<path fill="none" stroke="black" d="M1336.11,-72.5C1371.66,-61.34 1418.42,-46.66 1453.97,-35.51"/>
<polygon fill="black" stroke="black" points="1455.18,-38.79 1463.68,-32.46 1453.09,-32.11 1455.18,-38.79"/>
</g>
<!-- :feature:lmu&#45;readout&#45;vehicle&#45;damage&#45;detail -->
<g id="node8" class="node">
<title>:feature:lmu&#45;readout&#45;vehicle&#45;damage&#45;detail</title>
<ellipse fill="none" stroke="black" cx="1730.55" cy="-90" rx="211.46" ry="18"/>
<text text-anchor="middle" x="1730.55" y="-86.3" font-family="Times,serif" font-size="14.00">:feature:lmu&#45;readout&#45;vehicle&#45;damage&#45;detail</text>
</g>
<!-- :feature:lmu&#45;readout&#45;vehicle&#45;damage&#45;detail&#45;&gt;:core:domain -->
<g id="edge7" class="edge">
<title>:feature:lmu&#45;readout&#45;vehicle&#45;damage&#45;detail&#45;&gt;:core:domain</title>
<path fill="none" stroke="black" d="M1677.74,-72.5C1642.04,-61.34 1595.07,-46.66 1559.36,-35.51"/>
<polygon fill="black" stroke="black" points="1560.2,-32.1 1549.61,-32.46 1558.11,-38.78 1560.2,-32.1"/>
</g>
<!-- :feature:other&#45;list -->
<g id="node9" class="node">
<title>:feature:other&#45;list</title>
<ellipse fill="none" stroke="black" cx="2052.55" cy="-90" rx="92.88" ry="18"/>
<text text-anchor="middle" x="2052.55" y="-86.3" font-family="Times,serif" font-size="14.00">:feature:other&#45;list</text>
</g>
<!-- :feature:other&#45;list&#45;&gt;:core:domain -->
<g id="edge8" class="edge">
<title>:feature:other&#45;list&#45;&gt;:core:domain</title>
<path fill="none" stroke="black" d="M1985.68,-77.4C1973.98,-75.5 1961.92,-73.63 1950.55,-72 1820.81,-53.46 1669.1,-36.32 1580.82,-26.8"/>
<polygon fill="black" stroke="black" points="1580.95,-23.3 1570.64,-25.71 1580.2,-30.26 1580.95,-23.3"/>
</g>
<!-- :feature:other&#45;server&#45;ip&#45;detail -->
<g id="node10" class="node">
<title>:feature:other&#45;server&#45;ip&#45;detail</title>
<ellipse fill="none" stroke="black" cx="2312.55" cy="-90" rx="148.67" ry="18"/>
<text text-anchor="middle" x="2312.55" y="-86.3" font-family="Times,serif" font-size="14.00">:feature:other&#45;server&#45;ip&#45;detail</text>
</g>
<!-- :feature:other&#45;server&#45;ip&#45;detail&#45;&gt;:core:domain -->
<g id="edge9" class="edge">
<title>:feature:other&#45;server&#45;ip&#45;detail&#45;&gt;:core:domain</title>
<path fill="none" stroke="black" d="M2206.77,-77.24C2189.33,-75.41 2171.44,-73.6 2154.55,-72 1948.72,-52.51 1705.71,-33.78 1584.08,-24.7"/>
<polygon fill="black" stroke="black" points="1583.99,-21.18 1573.76,-23.93 1583.47,-28.16 1583.99,-21.18"/>
</g>
<!-- :feature:other&#45;volume&#45;detail -->
<g id="node11" class="node">
<title>:feature:other&#45;volume&#45;detail</title>
<ellipse fill="none" stroke="black" cx="2620.55" cy="-90" rx="141.07" ry="18"/>
<text text-anchor="middle" x="2620.55" y="-86.3" font-family="Times,serif" font-size="14.00">:feature:other&#45;volume&#45;detail</text>
</g>
<!-- :feature:other&#45;volume&#45;detail&#45;&gt;:core:domain -->
<g id="edge10" class="edge">
<title>:feature:other&#45;volume&#45;detail&#45;&gt;:core:domain</title>
<path fill="none" stroke="black" d="M2522.19,-77.03C2504.99,-75.17 2487.26,-73.41 2470.55,-72 2142.94,-44.45 1751.44,-28.01 1586.28,-21.82"/>
<polygon fill="black" stroke="black" points="1586.32,-18.32 1576.2,-21.44 1586.06,-25.31 1586.32,-18.32"/>
</g>
<!-- :feature:readout&#45;list -->
<g id="node12" class="node">
<title>:feature:readout&#45;list</title>
<ellipse fill="none" stroke="black" cx="2883.55" cy="-90" rx="103.98" ry="18"/>
<text text-anchor="middle" x="2883.55" y="-86.3" font-family="Times,serif" font-size="14.00">:feature:readout&#45;list</text>
</g>
<!-- :feature:readout&#45;list&#45;&gt;:core:domain -->
<g id="edge11" class="edge">
<title>:feature:readout&#45;list&#45;&gt;:core:domain</title>
<path fill="none" stroke="black" d="M2811.35,-76.96C2797.82,-75.04 2783.78,-73.27 2770.55,-72 2325.17,-29.29 1788.24,-20.99 1587.47,-19.38"/>
<polygon fill="black" stroke="black" points="1587.33,-15.88 1577.3,-19.31 1587.28,-22.88 1587.33,-15.88"/>
</g>
<!-- :feature:server&#45;connection -->
<g id="node13" class="node">
<title>:feature:server&#45;connection</title>
<ellipse fill="none" stroke="black" cx="3138.55" cy="-90" rx="133.48" ry="18"/>
<text text-anchor="middle" x="3138.55" y="-86.3" font-family="Times,serif" font-size="14.00">:feature:server&#45;connection</text>
</g>
<!-- :feature:server&#45;connection&#45;&gt;:core:domain -->
<g id="edge12" class="edge">
<title>:feature:server&#45;connection&#45;&gt;:core:domain</title>
<path fill="none" stroke="black" d="M3046.99,-76.9C3030.24,-75.01 3012.88,-73.27 2996.55,-72 2459.63,-30.38 1811.29,-21.41 1587.27,-19.5"/>
<polygon fill="black" stroke="black" points="1587.27,-16 1577.24,-19.42 1587.21,-23 1587.27,-16"/>
</g>
</g>
</svg>
