<?xml version="1.0" encoding="UTF-8" standalone="no"?>
<!DOCTYPE svg PUBLIC "-//W3C//DTD SVG 1.1//EN"
 "http://www.w3.org/Graphics/SVG/1.1/DTD/svg11.dtd">
<!-- Generated by graphviz version 2.43.0 (0)
 -->
<!-- Title: G Pages: 1 -->
<svg width="376pt" height="188pt"
 viewBox="0.00 0.00 376.48 188.00" xmlns="http://www.w3.org/2000/svg" xmlns:xlink="http://www.w3.org/1999/xlink">
<g id="graph0" class="graph" transform="scale(1 1) rotate(0) translate(4 184)">
<title>G</title>
<polygon fill="white" stroke="transparent" points="-4,4 -4,-184 372.48,-184 372.48,4 -4,4"/>
<!-- :app:androidApp -->
<g id="node1" class="node">
<title>:app:androidApp</title>
<ellipse fill="none" stroke="black" cx="87.09" cy="-162" rx="87.18" ry="18"/>
<text text-anchor="middle" x="87.09" y="-158.3" font-family="Times,serif" font-size="14.00">:app:androidApp</text>
</g>
<!-- :core:domain -->
<g id="node2" class="node">
<title>:core:domain</title>
<ellipse fill="none" stroke="black" cx="148.09" cy="-18" rx="70.69" ry="18"/>
<text text-anchor="middle" x="148.09" y="-14.3" font-family="Times,serif" font-size="14.00">:core:domain</text>
</g>
<!-- :app:androidApp&#45;&gt;:core:domain -->
<g id="edge1" class="edge">
<title>:app:androidApp&#45;&gt;:core:domain</title>
<path fill="none" stroke="black" d="M88.41,-143.86C90.36,-125.37 95.05,-95.44 106.09,-72 110.87,-61.86 117.93,-51.91 124.9,-43.42"/>
<polygon fill="black" stroke="black" points="127.61,-45.63 131.48,-35.77 122.3,-41.07 127.61,-45.63"/>
</g>
<!-- :core:gt7&#45;ps5&#45;data -->
<g id="node3" class="node">
<title>:core:gt7&#45;ps5&#45;data</title>
<ellipse fill="none" stroke="black" cx="210.09" cy="-90" rx="94.78" ry="18"/>
<text text-anchor="middle" x="210.09" y="-86.3" font-family="Times,serif" font-size="14.00">:core:gt7&#45;ps5&#45;data</text>
</g>
<!-- :app:androidApp&#45;&gt;:core:gt7&#45;ps5&#45;data -->
<g id="edge2" class="edge">
<title>:app:androidApp&#45;&gt;:core:gt7&#45;ps5&#45;data</title>
<path fill="none" stroke="black" d="M115.31,-144.94C132.38,-135.23 154.34,-122.73 172.82,-112.21"/>
<polygon fill="black" stroke="black" points="174.62,-115.22 181.58,-107.23 171.16,-109.13 174.62,-115.22"/>
</g>
<!-- :core:gt7&#45;ps5&#45;data&#45;&gt;:core:domain -->
<g id="edge4" class="edge">
<title>:core:gt7&#45;ps5&#45;data&#45;&gt;:core:domain</title>
<path fill="none" stroke="black" d="M195.08,-72.05C187.47,-63.46 178.08,-52.86 169.7,-43.4"/>
<polygon fill="black" stroke="black" points="172.21,-40.95 162.96,-35.79 166.97,-45.6 172.21,-40.95"/>
</g>
<!-- :app:desktopApp -->
<g id="node4" class="node">
<title>:app:desktopApp</title>
<ellipse fill="none" stroke="black" cx="280.09" cy="-162" rx="88.28" ry="18"/>
<text text-anchor="middle" x="280.09" y="-158.3" font-family="Times,serif" font-size="14.00">:app:desktopApp</text>
</g>
<!-- :app:desktopApp&#45;&gt;:core:gt7&#45;ps5&#45;data -->
<g id="edge3" class="edge">
<title>:app:desktopApp&#45;&gt;:core:gt7&#45;ps5&#45;data</title>
<path fill="none" stroke="black" d="M263.15,-144.05C254.46,-135.37 243.74,-124.64 234.21,-115.11"/>
<polygon fill="black" stroke="black" points="236.43,-112.39 226.88,-107.79 231.48,-117.33 236.43,-112.39"/>
</g>
</g>
</svg>
