<?xml version="1.0" encoding="UTF-8" standalone="no"?>
<!DOCTYPE svg PUBLIC "-//W3C//DTD SVG 1.1//EN"
 "http://www.w3.org/Graphics/SVG/1.1/DTD/svg11.dtd">
<!-- Generated by graphviz version 2.43.0 (0)
 -->
<!-- Title: G Pages: 1 -->
<svg width="7476pt" height="116pt"
 viewBox="0.00 0.00 7475.53 116.00" xmlns="http://www.w3.org/2000/svg" xmlns:xlink="http://www.w3.org/1999/xlink">
<g id="graph0" class="graph" transform="scale(1 1) rotate(0) translate(4 112)">
<title>G</title>
<polygon fill="white" stroke="transparent" points="-4,4 -4,-112 7471.53,-112 7471.53,4 -4,4"/>
<!-- :server -->
<g id="node1" class="node">
<title>:server</title>
<ellipse fill="none" stroke="black" cx="43.55" cy="-90" rx="43.59" ry="18"/>
<text text-anchor="middle" x="43.55" y="-86.3" font-family="Times,serif" font-size="14.00">:server</text>
</g>
<!-- :core:domain -->
<g id="node2" class="node">
<title>:core:domain</title>
<ellipse fill="none" stroke="black" cx="3832.55" cy="-18" rx="70.69" ry="18"/>
<text text-anchor="middle" x="3832.55" y="-14.3" font-family="Times,serif" font-size="14.00">:core:domain</text>
</g>
<!-- :server&#45;&gt;:core:domain -->
<g id="edge1" class="edge">
<title>:server&#45;&gt;:core:domain</title>
<path fill="none" stroke="black" d="M74.84,-77.28C81.88,-75.11 89.39,-73.17 96.55,-72 282.95,-41.48 3223.74,-22.62 3751.7,-19.47"/>
<polygon fill="black" stroke="black" points="3751.91,-22.97 3761.89,-19.41 3751.87,-15.97 3751.91,-22.97"/>
</g>
<!-- :core:data -->
<g id="node3" class="node">
<title>:core:data</title>
<ellipse fill="none" stroke="black" cx="162.55" cy="-90" rx="57.39" ry="18"/>
<text text-anchor="middle" x="162.55" y="-86.3" font-family="Times,serif" font-size="14.00">:core:data</text>
</g>
<!-- :core:data&#45;&gt;:core:domain -->
<g id="edge2" class="edge">
<title>:core:data&#45;&gt;:core:domain</title>
<path fill="none" stroke="black" d="M202.73,-77.03C211.19,-74.97 220.1,-73.13 228.55,-72 587.92,-23.77 3250.85,-19.43 3751.52,-19.04"/>
<polygon fill="black" stroke="black" points="3751.55,-22.54 3761.55,-19.03 3751.55,-15.54 3751.55,-22.54"/>
</g>
<!-- :core:gt7&#45;ps5&#45;data -->
<g id="node4" class="node">
<title>:core:gt7&#45;ps5&#45;data</title>
<ellipse fill="none" stroke="black" cx="332.55" cy="-90" rx="94.78" ry="18"/>
<text text-anchor="middle" x="332.55" y="-86.3" font-family="Times,serif" font-size="14.00">:core:gt7&#45;ps5&#45;data</text>
</g>
<!-- :core:gt7&#45;ps5&#45;data&#45;&gt;:core:domain -->
<g id="edge3" class="edge">
<title>:core:gt7&#45;ps5&#45;data&#45;&gt;:core:domain</title>
<path fill="none" stroke="black" d="M397.55,-76.87C410.43,-74.9 423.88,-73.13 436.55,-72 775.79,-41.79 3268.76,-22.94 3751.67,-19.55"/>
<polygon fill="black" stroke="black" points="3751.71,-23.05 3761.69,-19.48 3751.66,-16.05 3751.71,-23.05"/>
</g>
<!-- :core:lmu&#45;windows&#45;data -->
<g id="node5" class="node">
<title>:core:lmu&#45;windows&#45;data</title>
<ellipse fill="none" stroke="black" cx="566.55" cy="-90" rx="120.78" ry="18"/>
<text text-anchor="middle" x="566.55" y="-86.3" font-family="Times,serif" font-size="14.00">:core:lmu&#45;windows&#45;data</text>
</g>
<!-- :core:lmu&#45;windows&#45;data&#45;&gt;:core:domain -->
<g id="edge4" class="edge">
<title>:core:lmu&#45;windows&#45;data&#45;&gt;:core:domain</title>
<path fill="none" stroke="black" d="M648.93,-76.8C664.7,-74.87 681.11,-73.14 696.55,-72 1316.19,-26.4 3323.16,-19.98 3751.6,-19.13"/>
<polygon fill="black" stroke="black" points="3751.74,-22.63 3761.73,-19.11 3751.72,-15.63 3751.74,-22.63"/>
</g>
<!-- :feature:gt7&#45;ps5&#45;connection -->
<g id="node6" class="node">
<title>:feature:gt7&#45;ps5&#45;connection</title>
<ellipse fill="none" stroke="black" cx="843.55" cy="-90" rx="138.38" ry="18"/>
<text text-anchor="middle" x="843.55" y="-86.3" font-family="Times,serif" font-size="14.00">:feature:gt7&#45;ps5&#45;connection</text>
</g>
<!-- :feature:gt7&#45;ps5&#45;connection&#45;&gt;:core:domain -->
<g id="edge5" class="edge">
<title>:feature:gt7&#45;ps5&#45;connection&#45;&gt;:core:domain</title>
<path fill="none" stroke="black" d="M937.77,-76.81C955.6,-74.89 974.13,-73.16 991.55,-72 1549.56,-34.83 3347.68,-21.93 3751.52,-19.46"/>
<polygon fill="black" stroke="black" points="3751.67,-22.96 3761.65,-19.4 3751.63,-15.96 3751.67,-22.96"/>
</g>
<!-- :feature:gt7&#45;ps5&#45;narrator -->
<g id="node7" class="node">
<title>:feature:gt7&#45;ps5&#45;narrator</title>
<ellipse fill="none" stroke="black" cx="1127.55" cy="-90" rx="127.28" ry="18"/>
<text text-anchor="middle" x="1127.55" y="-86.3" font-family="Times,serif" font-size="14.00">:feature:gt7&#45;ps5&#45;narrator</text>
</g>
<!-- :feature:gt7&#45;ps5&#45;narrator&#45;&gt;:core:domain -->
<g id="edge6" class="edge">
<title>:feature:gt7&#45;ps5&#45;narrator&#45;&gt;:core:domain</title>
<path fill="none" stroke="black" d="M1214.48,-76.77C1230.75,-74.87 1247.65,-73.15 1263.55,-72 1764.53,-35.62 3372.08,-22.23 3751.68,-19.54"/>
<polygon fill="black" stroke="black" points="3751.77,-23.04 3761.75,-19.47 3751.72,-16.04 3751.77,-23.04"/>
</g>
<!-- :feature:gt7&#45;ps5&#45;readout&#45;my&#45;bestlap&#45;detail -->
<g id="node8" class="node">
<title>:feature:gt7&#45;ps5&#45;readout&#45;my&#45;bestlap&#45;detail</title>
<ellipse fill="none" stroke="black" cx="1480.55" cy="-90" rx="207.96" ry="18"/>
<text text-anchor="middle" x="1480.55" y="-86.3" font-family="Times,serif" font-size="14.00">:feature:gt7&#45;ps5&#45;readout&#45;my&#45;bestlap&#45;detail</text>
</g>
<!-- :feature:gt7&#45;ps5&#45;readout&#45;my&#45;bestlap&#45;detail&#45;&gt;:core:domain -->
<g id="edge7" class="edge">
<title>:feature:gt7&#45;ps5&#45;readout&#45;my&#45;bestlap&#45;detail&#45;&gt;:core:domain</title>
<path fill="none" stroke="black" d="M1622.3,-76.8C1647.35,-74.96 1673.2,-73.25 1697.55,-72 2497.65,-30.76 3468.14,-21.38 3751.36,-19.46"/>
<polygon fill="black" stroke="black" points="3751.56,-22.95 3761.54,-19.39 3751.52,-15.95 3751.56,-22.95"/>
</g>
<!-- :feature:gt7&#45;ps5&#45;readout&#45;remaining&#45;fuel&#45;laps&#45;detail -->
<g id="node9" class="node">
<title>:feature:gt7&#45;ps5&#45;readout&#45;remaining&#45;fuel&#45;laps&#45;detail</title>
<ellipse fill="none" stroke="black" cx="1952.55" cy="-90" rx="246.16" ry="18"/>
<text text-anchor="middle" x="1952.55" y="-86.3" font-family="Times,serif" font-size="14.00">:feature:gt7&#45;ps5&#45;readout&#45;remaining&#45;fuel&#45;laps&#45;detail</text>
</g>
<!-- :feature:gt7&#45;ps5&#45;readout&#45;remaining&#45;fuel&#45;laps&#45;detail&#45;&gt;:core:domain -->
<g id="edge8" class="edge">
<title>:feature:gt7&#45;ps5&#45;readout&#45;remaining&#45;fuel&#45;laps&#45;detail&#45;&gt;:core:domain</title>
<path fill="none" stroke="black" d="M2122.22,-76.93C2151.02,-75.11 2180.63,-73.38 2208.55,-72 2800.58,-42.69 3514.85,-25.79 3751.82,-20.67"/>
<polygon fill="black" stroke="black" points="3752.15,-24.17 3762.07,-20.45 3752,-17.17 3752.15,-24.17"/>
</g>
<!-- :feature:lmu&#45;windows&#45;connection -->
<g id="node10" class="node">
<title>:feature:lmu&#45;windows&#45;connection</title>
<ellipse fill="none" stroke="black" cx="2381.55" cy="-90" rx="164.37" ry="18"/>
<text text-anchor="middle" x="2381.55" y="-86.3" font-family="Times,serif" font-size="14.00">:feature:lmu&#45;windows&#45;connection</text>
</g>
<!-- :feature:lmu&#45;windows&#45;connection&#45;&gt;:core:domain -->
<g id="edge9" class="edge">
<title>:feature:lmu&#45;windows&#45;connection&#45;&gt;:core:domain</title>
<path fill="none" stroke="black" d="M2495.19,-76.97C2515.28,-75.11 2536.02,-73.36 2555.55,-72 3007.29,-40.58 3550.31,-25.57 3752.01,-20.78"/>
<polygon fill="black" stroke="black" points="3752.3,-24.27 3762.22,-20.54 3752.14,-17.28 3752.3,-24.27"/>
</g>
<!-- :feature:lmu&#45;windows&#45;narrator -->
<g id="node11" class="node">
<title>:feature:lmu&#45;windows&#45;narrator</title>
<ellipse fill="none" stroke="black" cx="2717.55" cy="-90" rx="153.27" ry="18"/>
<text text-anchor="middle" x="2717.55" y="-86.3" font-family="Times,serif" font-size="14.00">:feature:lmu&#45;windows&#45;narrator</text>
</g>
<!-- :feature:lmu&#45;windows&#45;narrator&#45;&gt;:core:domain -->
<g id="edge10" class="edge">
<title>:feature:lmu&#45;windows&#45;narrator&#45;&gt;:core:domain</title>
<path fill="none" stroke="black" d="M2824.23,-77.05C2842.66,-75.21 2861.65,-73.44 2879.55,-72 3202.8,-46.07 3588.76,-28.81 3752.64,-22.12"/>
<polygon fill="black" stroke="black" points="3753.26,-25.6 3763.11,-21.69 3752.98,-18.6 3753.26,-25.6"/>
</g>
<!-- :feature:lmu&#45;windows&#45;readout&#45;flag&#45;detail -->
<g id="node12" class="node">
<title>:feature:lmu&#45;windows&#45;readout&#45;flag&#45;detail</title>
<ellipse fill="none" stroke="black" cx="3088.55" cy="-90" rx="199.56" ry="18"/>
<text text-anchor="middle" x="3088.55" y="-86.3" font-family="Times,serif" font-size="14.00">:feature:lmu&#45;windows&#45;readout&#45;flag&#45;detail</text>
</g>
<!-- :feature:lmu&#45;windows&#45;readout&#45;flag&#45;detail&#45;&gt;:core:domain -->
<g id="edge11" class="edge">
<title>:feature:lmu&#45;windows&#45;readout&#45;flag&#45;detail&#45;&gt;:core:domain</title>
<path fill="none" stroke="black" d="M3221.13,-76.53C3377.17,-61.84 3630.92,-37.97 3756.78,-26.13"/>
<polygon fill="black" stroke="black" points="3757.46,-29.58 3767.09,-25.16 3756.81,-22.61 3757.46,-29.58"/>
</g>
<!-- :feature:lmu&#45;windows&#45;readout&#45;vehicle&#45;approach&#45;detail -->
<g id="node13" class="node">
<title>:feature:lmu&#45;windows&#45;readout&#45;vehicle&#45;approach&#45;detail</title>
<ellipse fill="none" stroke="black" cx="3566.55" cy="-90" rx="260.75" ry="18"/>
<text text-anchor="middle" x="3566.55" y="-86.3" font-family="Times,serif" font-size="14.00">:feature:lmu&#45;windows&#45;readout&#45;vehicle&#45;approach&#45;detail</text>
</g>
<!-- :feature:lmu&#45;windows&#45;readout&#45;vehicle&#45;approach&#45;detail&#45;&gt;:core:domain -->
<g id="edge12" class="edge">
<title>:feature:lmu&#45;windows&#45;readout&#45;vehicle&#45;approach&#45;detail&#45;&gt;:core:domain</title>
<path fill="none" stroke="black" d="M3629.25,-72.5C3673.56,-60.84 3732.49,-45.33 3775.49,-34.01"/>
<polygon fill="black" stroke="black" points="3776.46,-37.38 3785.24,-31.45 3774.68,-30.61 3776.46,-37.38"/>
</g>
<!-- :feature:lmu&#45;windows&#45;readout&#45;vehicle&#45;damage&#45;detail -->
<g id="node14" class="node">
<title>:feature:lmu&#45;windows&#45;readout&#45;vehicle&#45;damage&#45;detail</title>
<ellipse fill="none" stroke="black" cx="4099.55" cy="-90" rx="254.55" ry="18"/>
<text text-anchor="middle" x="4099.55" y="-86.3" font-family="Times,serif" font-size="14.00">:feature:lmu&#45;windows&#45;readout&#45;vehicle&#45;damage&#45;detail</text>
</g>
<!-- :feature:lmu&#45;windows&#45;readout&#45;vehicle&#45;damage&#45;detail&#45;&gt;:core:domain -->
<g id="edge13" class="edge">
<title>:feature:lmu&#45;windows&#45;readout&#45;vehicle&#45;damage&#45;detail&#45;&gt;:core:domain</title>
<path fill="none" stroke="black" d="M4036.61,-72.5C3992.13,-60.84 3932.98,-45.33 3889.81,-34.01"/>
<polygon fill="black" stroke="black" points="3890.59,-30.6 3880.03,-31.45 3888.82,-37.37 3890.59,-30.6"/>
</g>
<!-- :feature:main -->
<g id="node15" class="node">
<title>:feature:main</title>
<ellipse fill="none" stroke="black" cx="4445.55" cy="-90" rx="73.39" ry="18"/>
<text text-anchor="middle" x="4445.55" y="-86.3" font-family="Times,serif" font-size="14.00">:feature:main</text>
</g>
<!-- :feature:main&#45;&gt;:core:domain -->
<g id="edge14" class="edge">
<title>:feature:main&#45;&gt;:core:domain</title>
<path fill="none" stroke="black" d="M4393.2,-77.29C4383.38,-75.34 4373.17,-73.47 4363.55,-72 4203.35,-47.47 4014.16,-31.72 3910.39,-24.2"/>
<polygon fill="black" stroke="black" points="3910.53,-20.7 3900.31,-23.48 3910.03,-27.68 3910.53,-20.7"/>
</g>
<!-- :feature:other&#45;console&#45;ip&#45;detail -->
<g id="node16" class="node">
<title>:feature:other&#45;console&#45;ip&#45;detail</title>
<ellipse fill="none" stroke="black" cx="4690.55" cy="-90" rx="153.27" ry="18"/>
<text text-anchor="middle" x="4690.55" y="-86.3" font-family="Times,serif" font-size="14.00">:feature:other&#45;console&#45;ip&#45;detail</text>
</g>
<!-- :feature:other&#45;console&#45;ip&#45;detail&#45;&gt;:core:domain -->
<g id="edge15" class="edge">
<title>:feature:other&#45;console&#45;ip&#45;detail&#45;&gt;:core:domain</title>
<path fill="none" stroke="black" d="M4581.87,-77.24C4563.73,-75.4 4545.12,-73.59 4527.55,-72 4303.72,-51.8 4038.87,-33.01 3910.32,-24.22"/>
<polygon fill="black" stroke="black" points="3910.39,-20.72 3900.18,-23.53 3909.92,-27.7 3910.39,-20.72"/>
</g>
<!-- :feature:other&#45;license&#45;detail -->
<g id="node17" class="node">
<title>:feature:other&#45;license&#45;detail</title>
<ellipse fill="none" stroke="black" cx="5001.55" cy="-90" rx="139.98" ry="18"/>
<text text-anchor="middle" x="5001.55" y="-86.3" font-family="Times,serif" font-size="14.00">:feature:other&#45;license&#45;detail</text>
</g>
<!-- :feature:other&#45;license&#45;detail&#45;&gt;:core:domain -->
<g id="edge16" class="edge">
<title>:feature:other&#45;license&#45;detail&#45;&gt;:core:domain</title>
<path fill="none" stroke="black" d="M4904.25,-77.02C4887.04,-75.16 4869.28,-73.39 4852.55,-72 4503.16,-43.02 4085.05,-27.19 3912.77,-21.48"/>
<polygon fill="black" stroke="black" points="3912.63,-17.98 3902.52,-21.15 3912.4,-24.97 3912.63,-17.98"/>
</g>
<!-- :feature:other&#45;list -->
<g id="node18" class="node">
<title>:feature:other&#45;list</title>
<ellipse fill="none" stroke="black" cx="5252.55" cy="-90" rx="92.88" ry="18"/>
<text text-anchor="middle" x="5252.55" y="-86.3" font-family="Times,serif" font-size="14.00">:feature:other&#45;list</text>
</g>
<!-- :feature:other&#45;list&#45;&gt;:core:domain -->
<g id="edge17" class="edge">
<title>:feature:other&#45;list&#45;&gt;:core:domain</title>
<path fill="none" stroke="black" d="M5187.96,-76.99C5175.58,-75.04 5162.69,-73.25 5150.55,-72 4684.03,-23.93 4120.45,-18.85 3913.66,-18.74"/>
<polygon fill="black" stroke="black" points="3913.49,-15.24 3903.49,-18.74 3913.49,-22.24 3913.49,-15.24"/>
</g>
<!-- :feature:other&#45;readout&#45;start&#45;sound&#45;detail -->
<g id="node19" class="node">
<title>:feature:other&#45;readout&#45;start&#45;sound&#45;detail</title>
<ellipse fill="none" stroke="black" cx="5562.55" cy="-90" rx="199.56" ry="18"/>
<text text-anchor="middle" x="5562.55" y="-86.3" font-family="Times,serif" font-size="14.00">:feature:other&#45;readout&#45;start&#45;sound&#45;detail</text>
</g>
<!-- :feature:other&#45;readout&#45;start&#45;sound&#45;detail&#45;&gt;:core:domain -->
<g id="edge18" class="edge">
<title>:feature:other&#45;readout&#45;start&#45;sound&#45;detail&#45;&gt;:core:domain</title>
<path fill="none" stroke="black" d="M5425.55,-76.89C5401.89,-75.06 5377.51,-73.34 5354.55,-72 4804.09,-39.94 4140.44,-24.94 3913.31,-20.48"/>
<polygon fill="black" stroke="black" points="3913.22,-16.98 3903.15,-20.29 3913.08,-23.98 3913.22,-16.98"/>
</g>
<!-- :feature:other&#45;server&#45;ip&#45;detail -->
<g id="node20" class="node">
<title>:feature:other&#45;server&#45;ip&#45;detail</title>
<ellipse fill="none" stroke="black" cx="5928.55" cy="-90" rx="148.67" ry="18"/>
<text text-anchor="middle" x="5928.55" y="-86.3" font-family="Times,serif" font-size="14.00">:feature:other&#45;server&#45;ip&#45;detail</text>
</g>
<!-- :feature:other&#45;server&#45;ip&#45;detail&#45;&gt;:core:domain -->
<g id="edge19" class="edge">
<title>:feature:other&#45;server&#45;ip&#45;detail&#45;&gt;:core:domain</title>
<path fill="none" stroke="black" d="M5826.88,-76.78C5808.49,-74.92 5789.46,-73.21 5771.55,-72 5052.48,-23.32 4180.53,-18.99 3913.87,-18.88"/>
<polygon fill="black" stroke="black" points="3913.51,-15.38 3903.51,-18.88 3913.51,-22.38 3913.51,-15.38"/>
</g>
<!-- :feature:other&#45;volume&#45;detail -->
<g id="node21" class="node">
<title>:feature:other&#45;volume&#45;detail</title>
<ellipse fill="none" stroke="black" cx="6236.55" cy="-90" rx="141.07" ry="18"/>
<text text-anchor="middle" x="6236.55" y="-86.3" font-family="Times,serif" font-size="14.00">:feature:other&#45;volume&#45;detail</text>
</g>
<!-- :feature:other&#45;volume&#45;detail&#45;&gt;:core:domain -->
<g id="edge20" class="edge">
<title>:feature:other&#45;volume&#45;detail&#45;&gt;:core:domain</title>
<path fill="none" stroke="black" d="M6140.24,-76.8C6122.41,-74.9 6103.93,-73.19 6086.55,-72 5651.02,-42.26 4263.32,-24.11 3913.31,-19.93"/>
<polygon fill="black" stroke="black" points="3913.3,-16.43 3903.26,-19.81 3913.22,-23.43 3913.3,-16.43"/>
</g>
<!-- :feature:readout&#45;list -->
<g id="node22" class="node">
<title>:feature:readout&#45;list</title>
<ellipse fill="none" stroke="black" cx="6499.55" cy="-90" rx="103.98" ry="18"/>
<text text-anchor="middle" x="6499.55" y="-86.3" font-family="Times,serif" font-size="14.00">:feature:readout&#45;list</text>
</g>
<!-- :feature:readout&#45;list&#45;&gt;:core:domain -->
<g id="edge21" class="edge">
<title>:feature:readout&#45;list&#45;&gt;:core:domain</title>
<path fill="none" stroke="black" d="M6428.28,-76.86C6414.47,-74.91 6400.09,-73.15 6386.55,-72 5889.11,-29.6 4291.32,-20.79 3913.28,-19.28"/>
<polygon fill="black" stroke="black" points="3913.26,-15.78 3903.24,-19.24 3913.23,-22.78 3913.26,-15.78"/>
</g>
<!-- :feature:server&#45;connection -->
<g id="node23" class="node">
<title>:feature:server&#45;connection</title>
<ellipse fill="none" stroke="black" cx="6754.55" cy="-90" rx="133.48" ry="18"/>
<text text-anchor="middle" x="6754.55" y="-86.3" font-family="Times,serif" font-size="14.00">:feature:server&#45;connection</text>
</g>
<!-- :feature:server&#45;connection&#45;&gt;:core:domain -->
<g id="edge22" class="edge">
<title>:feature:server&#45;connection&#45;&gt;:core:domain</title>
<path fill="none" stroke="black" d="M6663.77,-76.76C6646.78,-74.86 6629.14,-73.15 6612.55,-72 6067.48,-34.27 4312.69,-21.83 3913.76,-19.45"/>
<polygon fill="black" stroke="black" points="3913.49,-15.95 3903.47,-19.39 3913.44,-22.95 3913.49,-15.95"/>
</g>
<!-- :feature:telemetry&#45;log&#45;detail -->
<g id="node24" class="node">
<title>:feature:telemetry&#45;log&#45;detail</title>
<ellipse fill="none" stroke="black" cx="7047.55" cy="-90" rx="141.88" ry="18"/>
<text text-anchor="middle" x="7047.55" y="-86.3" font-family="Times,serif" font-size="14.00">:feature:telemetry&#45;log&#45;detail</text>
</g>
<!-- :feature:telemetry&#45;log&#45;detail&#45;&gt;:core:domain -->
<g id="edge23" class="edge">
<title>:feature:telemetry&#45;log&#45;detail&#45;&gt;:core:domain</title>
<path fill="none" stroke="black" d="M6951,-76.75C6932.93,-74.85 6914.18,-73.14 6896.55,-72 6291.72,-32.81 4336.44,-21.4 3913.64,-19.36"/>
<polygon fill="black" stroke="black" points="3913.37,-15.86 3903.35,-19.31 3913.33,-22.86 3913.37,-15.86"/>
</g>
<!-- :feature:telemetry&#45;log&#45;list -->
<g id="node25" class="node">
<title>:feature:telemetry&#45;log&#45;list</title>
<ellipse fill="none" stroke="black" cx="7337.55" cy="-90" rx="129.98" ry="18"/>
<text text-anchor="middle" x="7337.55" y="-86.3" font-family="Times,serif" font-size="14.00">:feature:telemetry&#45;log&#45;list</text>
</g>
<!-- :feature:telemetry&#45;log&#45;list&#45;&gt;:core:domain -->
<g id="edge24" class="edge">
<title>:feature:telemetry&#45;log&#45;list&#45;&gt;:core:domain</title>
<path fill="none" stroke="black" d="M7249.07,-76.76C7232.32,-74.84 7214.92,-73.13 7198.55,-72 6530.36,-26.01 4360.6,-19.89 3913.55,-19.11"/>
<polygon fill="black" stroke="black" points="3913.32,-15.61 3903.31,-19.09 3913.31,-22.61 3913.32,-15.61"/>
</g>
</g>
</svg>
