<?xml version="1.0" encoding="UTF-8" standalone="no"?>
<!DOCTYPE svg PUBLIC "-//W3C//DTD SVG 1.1//EN"
 "http://www.w3.org/Graphics/SVG/1.1/DTD/svg11.dtd">
<!-- Generated by graphviz version 2.43.0 (0)
 -->
<!-- Title: G Pages: 1 -->
<svg width="8807pt" height="116pt"
 viewBox="0.00 0.00 8806.53 116.00" xmlns="http://www.w3.org/2000/svg" xmlns:xlink="http://www.w3.org/1999/xlink">
<g id="graph0" class="graph" transform="scale(1 1) rotate(0) translate(4 112)">
<title>G</title>
<polygon fill="white" stroke="transparent" points="-4,4 -4,-112 8802.53,-112 8802.53,4 -4,4"/>
<!-- :server -->
<g id="node1" class="node">
<title>:server</title>
<ellipse fill="none" stroke="black" cx="43.55" cy="-90" rx="43.59" ry="18"/>
<text text-anchor="middle" x="43.55" y="-86.3" font-family="Times,serif" font-size="14.00">:server</text>
</g>
<!-- :core:domain -->
<g id="node2" class="node">
<title>:core:domain</title>
<ellipse fill="none" stroke="black" cx="4606.55" cy="-18" rx="70.69" ry="18"/>
<text text-anchor="middle" x="4606.55" y="-14.3" font-family="Times,serif" font-size="14.00">:core:domain</text>
</g>
<!-- :server&#45;&gt;:core:domain -->
<g id="edge1" class="edge">
<title>:server&#45;&gt;:core:domain</title>
<path fill="none" stroke="black" d="M74.55,-77.35C81.68,-75.15 89.3,-73.18 96.55,-72 323.64,-35.1 3935.82,-21.28 4525.46,-19.27"/>
<polygon fill="black" stroke="black" points="4525.58,-22.77 4535.57,-19.23 4525.55,-15.77 4525.58,-22.77"/>
</g>
<!-- :core:data -->
<g id="node3" class="node">
<title>:core:data</title>
<ellipse fill="none" stroke="black" cx="162.55" cy="-90" rx="57.39" ry="18"/>
<text text-anchor="middle" x="162.55" y="-86.3" font-family="Times,serif" font-size="14.00">:core:data</text>
</g>
<!-- :core:data&#45;&gt;:core:domain -->
<g id="edge2" class="edge">
<title>:core:data&#45;&gt;:core:domain</title>
<path fill="none" stroke="black" d="M202.73,-77.02C211.19,-74.96 220.1,-73.12 228.55,-72 669.58,-13.4 3965.68,-17.66 4525.77,-18.81"/>
<polygon fill="black" stroke="black" points="4525.77,-22.31 4535.78,-18.83 4525.78,-15.31 4525.77,-22.31"/>
</g>
<!-- :core:gt7&#45;ps5&#45;data -->
<g id="node4" class="node">
<title>:core:gt7&#45;ps5&#45;data</title>
<ellipse fill="none" stroke="black" cx="332.55" cy="-90" rx="94.78" ry="18"/>
<text text-anchor="middle" x="332.55" y="-86.3" font-family="Times,serif" font-size="14.00">:core:gt7&#45;ps5&#45;data</text>
</g>
<!-- :core:gt7&#45;ps5&#45;data&#45;&gt;:core:domain -->
<g id="edge3" class="edge">
<title>:core:gt7&#45;ps5&#45;data&#45;&gt;:core:domain</title>
<path fill="none" stroke="black" d="M397.54,-76.85C410.43,-74.87 423.88,-73.11 436.55,-72 857.59,-35.12 3979.98,-21.42 4525.39,-19.3"/>
<polygon fill="black" stroke="black" points="4525.54,-22.8 4535.52,-19.26 4525.51,-15.8 4525.54,-22.8"/>
</g>
<!-- :core:lmu&#45;windows&#45;data -->
<g id="node5" class="node">
<title>:core:lmu&#45;windows&#45;data</title>
<ellipse fill="none" stroke="black" cx="566.55" cy="-90" rx="120.78" ry="18"/>
<text text-anchor="middle" x="566.55" y="-86.3" font-family="Times,serif" font-size="14.00">:core:lmu&#45;windows&#45;data</text>
</g>
<!-- :core:lmu&#45;windows&#45;data&#45;&gt;:core:domain -->
<g id="edge4" class="edge">
<title>:core:lmu&#45;windows&#45;data&#45;&gt;:core:domain</title>
<path fill="none" stroke="black" d="M648.92,-76.76C664.7,-74.83 681.11,-73.11 696.55,-72 1479.19,-15.72 4036.55,-17.86 4525.38,-18.81"/>
<polygon fill="black" stroke="black" points="4525.52,-22.31 4535.52,-18.83 4525.53,-15.31 4525.52,-22.31"/>
</g>
<!-- :feature:gt7&#45;ps5&#45;connection -->
<g id="node6" class="node">
<title>:feature:gt7&#45;ps5&#45;connection</title>
<ellipse fill="none" stroke="black" cx="843.55" cy="-90" rx="138.38" ry="18"/>
<text text-anchor="middle" x="843.55" y="-86.3" font-family="Times,serif" font-size="14.00">:feature:gt7&#45;ps5&#45;connection</text>
</g>
<!-- :feature:gt7&#45;ps5&#45;connection&#45;&gt;:core:domain -->
<g id="edge5" class="edge">
<title>:feature:gt7&#45;ps5&#45;connection&#45;&gt;:core:domain</title>
<path fill="none" stroke="black" d="M937.77,-76.75C955.6,-74.84 974.12,-73.13 991.55,-72 1712.42,-25.43 4059.46,-19.76 4525.62,-19.09"/>
<polygon fill="black" stroke="black" points="4525.64,-22.59 4535.63,-19.07 4525.63,-15.59 4525.64,-22.59"/>
</g>
<!-- :feature:gt7&#45;ps5&#45;narrator -->
<g id="node7" class="node">
<title>:feature:gt7&#45;ps5&#45;narrator</title>
<ellipse fill="none" stroke="black" cx="1127.55" cy="-90" rx="127.28" ry="18"/>
<text text-anchor="middle" x="1127.55" y="-86.3" font-family="Times,serif" font-size="14.00">:feature:gt7&#45;ps5&#45;narrator</text>
</g>
<!-- :feature:gt7&#45;ps5&#45;narrator&#45;&gt;:core:domain -->
<g id="edge6" class="edge">
<title>:feature:gt7&#45;ps5&#45;narrator&#45;&gt;:core:domain</title>
<path fill="none" stroke="black" d="M1214.11,-76.75C1230.5,-74.84 1247.52,-73.13 1263.55,-72 1926.74,-25.43 4079.76,-19.77 4525.37,-19.09"/>
<polygon fill="black" stroke="black" points="4525.58,-22.59 4535.58,-19.08 4525.57,-15.59 4525.58,-22.59"/>
</g>
<!-- :feature:gt7&#45;ps5&#45;readout&#45;my&#45;best&#45;lap&#45;detail -->
<g id="node8" class="node">
<title>:feature:gt7&#45;ps5&#45;readout&#45;my&#45;best&#45;lap&#45;detail</title>
<ellipse fill="none" stroke="black" cx="1483.55" cy="-90" rx="210.66" ry="18"/>
<text text-anchor="middle" x="1483.55" y="-86.3" font-family="Times,serif" font-size="14.00">:feature:gt7&#45;ps5&#45;readout&#45;my&#45;best&#45;lap&#45;detail</text>
</g>
<!-- :feature:gt7&#45;ps5&#45;readout&#45;my&#45;best&#45;lap&#45;detail&#45;&gt;:core:domain -->
<g id="edge7" class="edge">
<title>:feature:gt7&#45;ps5&#45;readout&#45;my&#45;best&#45;lap&#45;detail&#45;&gt;:core:domain</title>
<path fill="none" stroke="black" d="M1626.37,-76.73C1652.05,-74.88 1678.58,-73.19 1703.55,-72 2821.04,-18.67 4182.86,-17.97 4525.42,-18.73"/>
<polygon fill="black" stroke="black" points="4525.49,-22.23 4535.49,-18.76 4525.5,-15.23 4525.49,-22.23"/>
</g>
<!-- :feature:gt7&#45;ps5&#45;readout&#45;remaining&#45;fuel&#45;laps&#45;detail -->
<g id="node9" class="node">
<title>:feature:gt7&#45;ps5&#45;readout&#45;remaining&#45;fuel&#45;laps&#45;detail</title>
<ellipse fill="none" stroke="black" cx="1958.55" cy="-90" rx="246.16" ry="18"/>
<text text-anchor="middle" x="1958.55" y="-86.3" font-family="Times,serif" font-size="14.00">:feature:gt7&#45;ps5&#45;readout&#45;remaining&#45;fuel&#45;laps&#45;detail</text>
</g>
<!-- :feature:gt7&#45;ps5&#45;readout&#45;remaining&#45;fuel&#45;laps&#45;detail&#45;&gt;:core:domain -->
<g id="edge8" class="edge">
<title>:feature:gt7&#45;ps5&#45;readout&#45;remaining&#45;fuel&#45;laps&#45;detail&#45;&gt;:core:domain</title>
<path fill="none" stroke="black" d="M2126.14,-76.8C2155.59,-74.97 2185.96,-73.27 2214.55,-72 3120.83,-31.89 4221.67,-21.64 4525.53,-19.5"/>
<polygon fill="black" stroke="black" points="4525.6,-23 4535.58,-19.43 4525.55,-16 4525.6,-23"/>
</g>
<!-- :feature:lmu&#45;windows&#45;connection -->
<g id="node10" class="node">
<title>:feature:lmu&#45;windows&#45;connection</title>
<ellipse fill="none" stroke="black" cx="2387.55" cy="-90" rx="164.37" ry="18"/>
<text text-anchor="middle" x="2387.55" y="-86.3" font-family="Times,serif" font-size="14.00">:feature:lmu&#45;windows&#45;connection</text>
</g>
<!-- :feature:lmu&#45;windows&#45;connection&#45;&gt;:core:domain -->
<g id="edge9" class="edge">
<title>:feature:lmu&#45;windows&#45;connection&#45;&gt;:core:domain</title>
<path fill="none" stroke="black" d="M2500.24,-76.8C2520.62,-74.94 2541.7,-73.22 2561.55,-72 3324.06,-24.93 4249.02,-19.54 4525.05,-19.02"/>
<polygon fill="black" stroke="black" points="4525.38,-22.52 4535.38,-19 4525.37,-15.52 4525.38,-22.52"/>
</g>
<!-- :feature:lmu&#45;windows&#45;narrator -->
<g id="node11" class="node">
<title>:feature:lmu&#45;windows&#45;narrator</title>
<ellipse fill="none" stroke="black" cx="2723.55" cy="-90" rx="153.27" ry="18"/>
<text text-anchor="middle" x="2723.55" y="-86.3" font-family="Times,serif" font-size="14.00">:feature:lmu&#45;windows&#45;narrator</text>
</g>
<!-- :feature:lmu&#45;windows&#45;narrator&#45;&gt;:core:domain -->
<g id="edge10" class="edge">
<title>:feature:lmu&#45;windows&#45;narrator&#45;&gt;:core:domain</title>
<path fill="none" stroke="black" d="M2828.46,-76.85C2847.44,-74.98 2867.07,-73.25 2885.55,-72 3515.85,-29.28 4278.37,-20.97 4525.24,-19.38"/>
<polygon fill="black" stroke="black" points="4525.58,-22.87 4535.55,-19.31 4525.53,-15.87 4525.58,-22.87"/>
</g>
<!-- :feature:lmu&#45;windows&#45;readout&#45;flag&#45;detail -->
<g id="node12" class="node">
<title>:feature:lmu&#45;windows&#45;readout&#45;flag&#45;detail</title>
<ellipse fill="none" stroke="black" cx="3094.55" cy="-90" rx="199.56" ry="18"/>
<text text-anchor="middle" x="3094.55" y="-86.3" font-family="Times,serif" font-size="14.00">:feature:lmu&#45;windows&#45;readout&#45;flag&#45;detail</text>
</g>
<!-- :feature:lmu&#45;windows&#45;readout&#45;flag&#45;detail&#45;&gt;:core:domain -->
<g id="edge11" class="edge">
<title>:feature:lmu&#45;windows&#45;readout&#45;flag&#45;detail&#45;&gt;:core:domain</title>
<path fill="none" stroke="black" d="M3232.11,-76.96C3255.6,-75.13 3279.76,-73.39 3302.55,-72 3765.69,-43.67 4322.33,-26.75 4526.49,-21.11"/>
<polygon fill="black" stroke="black" points="4526.62,-24.61 4536.52,-20.84 4526.43,-17.61 4526.62,-24.61"/>
</g>
<!-- :feature:lmu&#45;windows&#45;readout&#45;my&#45;best&#45;lap&#45;detail -->
<g id="node13" class="node">
<title>:feature:lmu&#45;windows&#45;readout&#45;my&#45;best&#45;lap&#45;detail</title>
<ellipse fill="none" stroke="black" cx="3548.55" cy="-90" rx="236.66" ry="18"/>
<text text-anchor="middle" x="3548.55" y="-86.3" font-family="Times,serif" font-size="14.00">:feature:lmu&#45;windows&#45;readout&#45;my&#45;best&#45;lap&#45;detail</text>
</g>
<!-- :feature:lmu&#45;windows&#45;readout&#45;my&#45;best&#45;lap&#45;detail&#45;&gt;:core:domain -->
<g id="edge12" class="edge">
<title>:feature:lmu&#45;windows&#45;readout&#45;my&#45;best&#45;lap&#45;detail&#45;&gt;:core:domain</title>
<path fill="none" stroke="black" d="M3716.25,-77.27C3742.13,-75.49 3768.55,-73.68 3793.55,-72 4063.5,-53.84 4383.94,-33.23 4528.7,-23.97"/>
<polygon fill="black" stroke="black" points="4529.06,-27.45 4538.82,-23.32 4528.62,-20.46 4529.06,-27.45"/>
</g>
<!-- :feature:lmu&#45;windows&#45;readout&#45;tyre&#45;temperature&#45;detail -->
<g id="node14" class="node">
<title>:feature:lmu&#45;windows&#45;readout&#45;tyre&#45;temperature&#45;detail</title>
<ellipse fill="none" stroke="black" cx="4065.55" cy="-90" rx="262.65" ry="18"/>
<text text-anchor="middle" x="4065.55" y="-86.3" font-family="Times,serif" font-size="14.00">:feature:lmu&#45;windows&#45;readout&#45;tyre&#45;temperature&#45;detail</text>
</g>
<!-- :feature:lmu&#45;windows&#45;readout&#45;tyre&#45;temperature&#45;detail&#45;&gt;:core:domain -->
<g id="edge13" class="edge">
<title>:feature:lmu&#45;windows&#45;readout&#45;tyre&#45;temperature&#45;detail&#45;&gt;:core:domain</title>
<path fill="none" stroke="black" d="M4182.6,-73.85C4289.7,-60 4444.76,-39.93 4534.65,-28.3"/>
<polygon fill="black" stroke="black" points="4535.28,-31.75 4544.74,-27 4534.38,-24.81 4535.28,-31.75"/>
</g>
<!-- :feature:lmu&#45;windows&#45;readout&#45;vehicle&#45;approach&#45;detail -->
<g id="node15" class="node">
<title>:feature:lmu&#45;windows&#45;readout&#45;vehicle&#45;approach&#45;detail</title>
<ellipse fill="none" stroke="black" cx="4606.55" cy="-90" rx="260.75" ry="18"/>
<text text-anchor="middle" x="4606.55" y="-86.3" font-family="Times,serif" font-size="14.00">:feature:lmu&#45;windows&#45;readout&#45;vehicle&#45;approach&#45;detail</text>
</g>
<!-- :feature:lmu&#45;windows&#45;readout&#45;vehicle&#45;approach&#45;detail&#45;&gt;:core:domain -->
<g id="edge14" class="edge">
<title>:feature:lmu&#45;windows&#45;readout&#45;vehicle&#45;approach&#45;detail&#45;&gt;:core:domain</title>
<path fill="none" stroke="black" d="M4606.55,-71.7C4606.55,-63.98 4606.55,-54.71 4606.55,-46.11"/>
<polygon fill="black" stroke="black" points="4610.05,-46.1 4606.55,-36.1 4603.05,-46.1 4610.05,-46.1"/>
</g>
<!-- :feature:lmu&#45;windows&#45;readout&#45;vehicle&#45;damage&#45;detail -->
<g id="node16" class="node">
<title>:feature:lmu&#45;windows&#45;readout&#45;vehicle&#45;damage&#45;detail</title>
<ellipse fill="none" stroke="black" cx="5139.55" cy="-90" rx="254.55" ry="18"/>
<text text-anchor="middle" x="5139.55" y="-86.3" font-family="Times,serif" font-size="14.00">:feature:lmu&#45;windows&#45;readout&#45;vehicle&#45;damage&#45;detail</text>
</g>
<!-- :feature:lmu&#45;windows&#45;readout&#45;vehicle&#45;damage&#45;detail&#45;&gt;:core:domain -->
<g id="edge15" class="edge">
<title>:feature:lmu&#45;windows&#45;readout&#45;vehicle&#45;damage&#45;detail&#45;&gt;:core:domain</title>
<path fill="none" stroke="black" d="M5024.55,-73.9C4919.2,-60.06 4766.56,-40.02 4677.84,-28.36"/>
<polygon fill="black" stroke="black" points="4678.25,-24.89 4667.88,-27.05 4677.33,-31.83 4678.25,-24.89"/>
</g>
<!-- :feature:main -->
<g id="node17" class="node">
<title>:feature:main</title>
<ellipse fill="none" stroke="black" cx="5485.55" cy="-90" rx="73.39" ry="18"/>
<text text-anchor="middle" x="5485.55" y="-86.3" font-family="Times,serif" font-size="14.00">:feature:main</text>
</g>
<!-- :feature:main&#45;&gt;:core:domain -->
<g id="edge16" class="edge">
<title>:feature:main&#45;&gt;:core:domain</title>
<path fill="none" stroke="black" d="M5433.68,-77.12C5423.72,-75.16 5413.34,-73.33 5403.55,-72 5143.06,-36.51 4831.31,-24.52 4687.06,-20.68"/>
<polygon fill="black" stroke="black" points="4687.06,-17.18 4676.97,-20.42 4686.88,-24.18 4687.06,-17.18"/>
</g>
<!-- :feature:other&#45;console&#45;ip&#45;detail -->
<g id="node18" class="node">
<title>:feature:other&#45;console&#45;ip&#45;detail</title>
<ellipse fill="none" stroke="black" cx="5730.55" cy="-90" rx="153.27" ry="18"/>
<text text-anchor="middle" x="5730.55" y="-86.3" font-family="Times,serif" font-size="14.00">:feature:other&#45;console&#45;ip&#45;detail</text>
</g>
<!-- :feature:other&#45;console&#45;ip&#45;detail&#45;&gt;:core:domain -->
<g id="edge17" class="edge">
<title>:feature:other&#45;console&#45;ip&#45;detail&#45;&gt;:core:domain</title>
<path fill="none" stroke="black" d="M5623.21,-77.05C5604.66,-75.2 5585.56,-73.43 5567.55,-72 5240.84,-45.97 4850.62,-28.71 4686.01,-22.07"/>
<polygon fill="black" stroke="black" points="4686.1,-18.57 4675.97,-21.66 4685.82,-25.56 4686.1,-18.57"/>
</g>
<!-- :feature:other&#45;license&#45;detail -->
<g id="node19" class="node">
<title>:feature:other&#45;license&#45;detail</title>
<ellipse fill="none" stroke="black" cx="6041.55" cy="-90" rx="139.98" ry="18"/>
<text text-anchor="middle" x="6041.55" y="-86.3" font-family="Times,serif" font-size="14.00">:feature:other&#45;license&#45;detail</text>
</g>
<!-- :feature:other&#45;license&#45;detail&#45;&gt;:core:domain -->
<g id="edge18" class="edge">
<title>:feature:other&#45;license&#45;detail&#45;&gt;:core:domain</title>
<path fill="none" stroke="black" d="M5945.06,-76.96C5927.6,-75.08 5909.55,-73.32 5892.55,-72 5437.62,-36.72 4890.22,-24 4687.32,-20.3"/>
<polygon fill="black" stroke="black" points="4687.11,-16.79 4677.05,-20.11 4686.99,-23.79 4687.11,-16.79"/>
</g>
<!-- :feature:other&#45;list -->
<g id="node20" class="node">
<title>:feature:other&#45;list</title>
<ellipse fill="none" stroke="black" cx="6292.55" cy="-90" rx="92.88" ry="18"/>
<text text-anchor="middle" x="6292.55" y="-86.3" font-family="Times,serif" font-size="14.00">:feature:other&#45;list</text>
</g>
<!-- :feature:other&#45;list&#45;&gt;:core:domain -->
<g id="edge19" class="edge">
<title>:feature:other&#45;list&#45;&gt;:core:domain</title>
<path fill="none" stroke="black" d="M6228.24,-76.96C6215.77,-75 6202.78,-73.22 6190.55,-72 5894.23,-42.48 4966.61,-24.99 4687.07,-20.29"/>
<polygon fill="black" stroke="black" points="4687.06,-16.79 4677,-20.12 4686.94,-23.79 4687.06,-16.79"/>
</g>
<!-- :feature:other&#45;readout&#45;start&#45;sound&#45;detail -->
<g id="node21" class="node">
<title>:feature:other&#45;readout&#45;start&#45;sound&#45;detail</title>
<ellipse fill="none" stroke="black" cx="6602.55" cy="-90" rx="199.56" ry="18"/>
<text text-anchor="middle" x="6602.55" y="-86.3" font-family="Times,serif" font-size="14.00">:feature:other&#45;readout&#45;start&#45;sound&#45;detail</text>
</g>
<!-- :feature:other&#45;readout&#45;start&#45;sound&#45;detail&#45;&gt;:core:domain -->
<g id="edge20" class="edge">
<title>:feature:other&#45;readout&#45;start&#45;sound&#45;detail&#45;&gt;:core:domain</title>
<path fill="none" stroke="black" d="M6466.12,-76.83C6442.27,-75 6417.7,-73.29 6394.55,-72 5736.24,-35.37 4940.08,-23.04 4687.49,-19.9"/>
<polygon fill="black" stroke="black" points="4687.34,-16.4 4677.3,-19.78 4687.26,-23.4 4687.34,-16.4"/>
</g>
<!-- :feature:other&#45;server&#45;ip&#45;detail -->
<g id="node22" class="node">
<title>:feature:other&#45;server&#45;ip&#45;detail</title>
<ellipse fill="none" stroke="black" cx="6968.55" cy="-90" rx="148.67" ry="18"/>
<text text-anchor="middle" x="6968.55" y="-86.3" font-family="Times,serif" font-size="14.00">:feature:other&#45;server&#45;ip&#45;detail</text>
</g>
<!-- :feature:other&#45;server&#45;ip&#45;detail&#45;&gt;:core:domain -->
<g id="edge21" class="edge">
<title>:feature:other&#45;server&#45;ip&#45;detail&#45;&gt;:core:domain</title>
<path fill="none" stroke="black" d="M6867.31,-76.78C6848.78,-74.9 6829.6,-73.19 6811.55,-72 5983.57,-17.32 4977.39,-17.23 4687.96,-18.5"/>
<polygon fill="black" stroke="black" points="4687.54,-15 4677.56,-18.54 4687.57,-22 4687.54,-15"/>
</g>
<!-- :feature:other&#45;theme&#45;detail -->
<g id="node23" class="node">
<title>:feature:other&#45;theme&#45;detail</title>
<ellipse fill="none" stroke="black" cx="7271.55" cy="-90" rx="136.48" ry="18"/>
<text text-anchor="middle" x="7271.55" y="-86.3" font-family="Times,serif" font-size="14.00">:feature:other&#45;theme&#45;detail</text>
</g>
<!-- :feature:other&#45;theme&#45;detail&#45;&gt;:core:domain -->
<g id="edge22" class="edge">
<title>:feature:other&#45;theme&#45;detail&#45;&gt;:core:domain</title>
<path fill="none" stroke="black" d="M7178.46,-76.75C7161.22,-74.86 7143.36,-73.16 7126.55,-72 6635.65,-38.14 5062.44,-22.87 4687.38,-19.66"/>
<polygon fill="black" stroke="black" points="4687.19,-16.16 4677.16,-19.57 4687.13,-23.16 4687.19,-16.16"/>
</g>
<!-- :feature:other&#45;volume&#45;detail -->
<g id="node24" class="node">
<title>:feature:other&#45;volume&#45;detail</title>
<ellipse fill="none" stroke="black" cx="7567.55" cy="-90" rx="141.07" ry="18"/>
<text text-anchor="middle" x="7567.55" y="-86.3" font-family="Times,serif" font-size="14.00">:feature:other&#45;volume&#45;detail</text>
</g>
<!-- :feature:other&#45;volume&#45;detail&#45;&gt;:core:domain -->
<g id="edge23" class="edge">
<title>:feature:other&#45;volume&#45;detail&#45;&gt;:core:domain</title>
<path fill="none" stroke="black" d="M7471.41,-76.82C7453.21,-74.9 7434.32,-73.17 7416.55,-72 6864.88,-35.82 5088.05,-22.16 4687.34,-19.5"/>
<polygon fill="black" stroke="black" points="4687.31,-16 4677.29,-19.44 4687.26,-23 4687.31,-16"/>
</g>
<!-- :feature:readout&#45;list -->
<g id="node25" class="node">
<title>:feature:readout&#45;list</title>
<ellipse fill="none" stroke="black" cx="7830.55" cy="-90" rx="103.98" ry="18"/>
<text text-anchor="middle" x="7830.55" y="-86.3" font-family="Times,serif" font-size="14.00">:feature:readout&#45;list</text>
</g>
<!-- :feature:readout&#45;list&#45;&gt;:core:domain -->
<g id="edge24" class="edge">
<title>:feature:readout&#45;list&#45;&gt;:core:domain</title>
<path fill="none" stroke="black" d="M7759.28,-76.82C7745.47,-74.87 7731.09,-73.13 7717.55,-72 7103.64,-20.82 5114.14,-18.77 4687.55,-18.93"/>
<polygon fill="black" stroke="black" points="4687.47,-15.43 4677.47,-18.93 4687.47,-22.43 4687.47,-15.43"/>
</g>
<!-- :feature:server&#45;connection -->
<g id="node26" class="node">
<title>:feature:server&#45;connection</title>
<ellipse fill="none" stroke="black" cx="8085.55" cy="-90" rx="133.48" ry="18"/>
<text text-anchor="middle" x="8085.55" y="-86.3" font-family="Times,serif" font-size="14.00">:feature:server&#45;connection</text>
</g>
<!-- :feature:server&#45;connection&#45;&gt;:core:domain -->
<g id="edge25" class="edge">
<title>:feature:server&#45;connection&#45;&gt;:core:domain</title>
<path fill="none" stroke="black" d="M7995.15,-76.76C7978.04,-74.85 7960.27,-73.13 7943.55,-72 7281.42,-27.23 5132.36,-20.14 4687.57,-19.15"/>
<polygon fill="black" stroke="black" points="4687.39,-15.65 4677.38,-19.13 4687.37,-22.65 4687.39,-15.65"/>
</g>
<!-- :feature:telemetry&#45;log&#45;detail -->
<g id="node27" class="node">
<title>:feature:telemetry&#45;log&#45;detail</title>
<ellipse fill="none" stroke="black" cx="8378.55" cy="-90" rx="141.88" ry="18"/>
<text text-anchor="middle" x="8378.55" y="-86.3" font-family="Times,serif" font-size="14.00">:feature:telemetry&#45;log&#45;detail</text>
</g>
<!-- :feature:telemetry&#45;log&#45;detail&#45;&gt;:core:domain -->
<g id="edge26" class="edge">
<title>:feature:telemetry&#45;log&#45;detail&#45;&gt;:core:domain</title>
<path fill="none" stroke="black" d="M8282.41,-76.76C8264.22,-74.84 8245.32,-73.13 8227.55,-72 7505.42,-26.18 5154.53,-19.91 4687.6,-19.11"/>
<polygon fill="black" stroke="black" points="4687.58,-15.61 4677.58,-19.09 4687.57,-22.61 4687.58,-15.61"/>
</g>
<!-- :feature:telemetry&#45;log&#45;list -->
<g id="node28" class="node">
<title>:feature:telemetry&#45;log&#45;list</title>
<ellipse fill="none" stroke="black" cx="8668.55" cy="-90" rx="129.98" ry="18"/>
<text text-anchor="middle" x="8668.55" y="-86.3" font-family="Times,serif" font-size="14.00">:feature:telemetry&#45;log&#45;list</text>
</g>
<!-- :feature:telemetry&#45;log&#45;list&#45;&gt;:core:domain -->
<g id="edge27" class="edge">
<title>:feature:telemetry&#45;log&#45;list&#45;&gt;:core:domain</title>
<path fill="none" stroke="black" d="M8580.07,-76.73C8563.32,-74.81 8545.92,-73.11 8529.55,-72 7743.86,-18.8 5177.02,-18.47 4687.58,-18.9"/>
<polygon fill="black" stroke="black" points="4687.42,-15.4 4677.43,-18.91 4687.43,-22.4 4687.42,-15.4"/>
</g>
</g>
</svg>
