<?xml version="1.0" encoding="UTF-8" standalone="no"?>
<!DOCTYPE svg PUBLIC "-//W3C//DTD SVG 1.1//EN"
 "http://www.w3.org/Graphics/SVG/1.1/DTD/svg11.dtd">
<!-- Generated by graphviz version 2.43.0 (0)
 -->
<!-- Title: G Pages: 1 -->
<svg width="1074pt" height="116pt"
 viewBox="0.00 0.00 1073.92 116.00" xmlns="http://www.w3.org/2000/svg" xmlns:xlink="http://www.w3.org/1999/xlink">
<g id="graph0" class="graph" transform="scale(1 1) rotate(0) translate(4 112)">
<title>G</title>
<polygon fill="white" stroke="transparent" points="-4,4 -4,-112 1069.92,-112 1069.92,4 -4,4"/>
<!-- :feature:lmu&#45;readout&#45;vehicle&#45;damage&#45;detail -->
<g id="node1" class="node">
<title>:feature:lmu&#45;readout&#45;vehicle&#45;damage&#45;detail</title>
<ellipse fill="none" stroke="black" cx="211.23" cy="-90" rx="211.46" ry="18"/>
<text text-anchor="middle" x="211.23" y="-86.3" font-family="Times,serif" font-size="14.00">:feature:lmu&#45;readout&#45;vehicle&#45;damage&#45;detail</text>
</g>
<!-- :core:designsystem -->
<g id="node2" class="node">
<title>:core:designsystem</title>
<ellipse fill="none" stroke="black" cx="576.23" cy="-18" rx="100.98" ry="18"/>
<text text-anchor="middle" x="576.23" y="-14.3" font-family="Times,serif" font-size="14.00">:core:designsystem</text>
</g>
<!-- :feature:lmu&#45;readout&#45;vehicle&#45;damage&#45;detail&#45;&gt;:core:designsystem -->
<g id="edge1" class="edge">
<title>:feature:lmu&#45;readout&#45;vehicle&#45;damage&#45;detail&#45;&gt;:core:designsystem</title>
<path fill="none" stroke="black" d="M292.69,-73.38C354.79,-61.47 439.67,-45.19 500.34,-33.55"/>
<polygon fill="black" stroke="black" points="501.08,-36.98 510.24,-31.65 499.76,-30.1 501.08,-36.98"/>
</g>
<!-- :feature:readout&#45;flag&#45;detail -->
<g id="node3" class="node">
<title>:feature:readout&#45;flag&#45;detail</title>
<ellipse fill="none" stroke="black" cx="576.23" cy="-90" rx="135.68" ry="18"/>
<text text-anchor="middle" x="576.23" y="-86.3" font-family="Times,serif" font-size="14.00">:feature:readout&#45;flag&#45;detail</text>
</g>
<!-- :feature:readout&#45;flag&#45;detail&#45;&gt;:core:designsystem -->
<g id="edge2" class="edge">
<title>:feature:readout&#45;flag&#45;detail&#45;&gt;:core:designsystem</title>
<path fill="none" stroke="black" d="M576.23,-71.7C576.23,-63.98 576.23,-54.71 576.23,-46.11"/>
<polygon fill="black" stroke="black" points="579.73,-46.1 576.23,-36.1 572.73,-46.1 579.73,-46.1"/>
</g>
<!-- :feature:readout&#45;vehicle&#45;approach -->
<g id="node4" class="node">
<title>:feature:readout&#45;vehicle&#45;approach</title>
<ellipse fill="none" stroke="black" cx="898.23" cy="-90" rx="167.87" ry="18"/>
<text text-anchor="middle" x="898.23" y="-86.3" font-family="Times,serif" font-size="14.00">:feature:readout&#45;vehicle&#45;approach</text>
</g>
<!-- :feature:readout&#45;vehicle&#45;approach&#45;&gt;:core:designsystem -->
<g id="edge3" class="edge">
<title>:feature:readout&#45;vehicle&#45;approach&#45;&gt;:core:designsystem</title>
<path fill="none" stroke="black" d="M827.57,-73.64C774.17,-62.03 701.18,-46.16 647.61,-34.52"/>
<polygon fill="black" stroke="black" points="648.02,-31.03 637.51,-32.32 646.54,-37.87 648.02,-31.03"/>
</g>
</g>
</svg>
