<?xml version="1.0" encoding="UTF-8" standalone="no"?>
<!DOCTYPE svg PUBLIC "-//W3C//DTD SVG 1.1//EN"
 "http://www.w3.org/Graphics/SVG/1.1/DTD/svg11.dtd">
<!-- Generated by graphviz version 2.43.0 (0)
 -->
<!-- Title: G Pages: 1 -->
<svg width="2213pt" height="116pt"
 viewBox="0.00 0.00 2213.02 116.00" xmlns="http://www.w3.org/2000/svg" xmlns:xlink="http://www.w3.org/1999/xlink">
<g id="graph0" class="graph" transform="scale(1 1) rotate(0) translate(4 112)">
<title>G</title>
<polygon fill="white" stroke="transparent" points="-4,4 -4,-112 2209.02,-112 2209.02,4 -4,4"/>
<!-- :feature:lmu&#45;readout&#45;flag&#45;detail -->
<g id="node1" class="node">
<title>:feature:lmu&#45;readout&#45;flag&#45;detail</title>
<ellipse fill="none" stroke="black" cx="155.99" cy="-90" rx="155.97" ry="18"/>
<text text-anchor="middle" x="155.99" y="-86.3" font-family="Times,serif" font-size="14.00">:feature:lmu&#45;readout&#45;flag&#45;detail</text>
</g>
<!-- :core:designsystem -->
<g id="node2" class="node">
<title>:core:designsystem</title>
<ellipse fill="none" stroke="black" cx="1239.99" cy="-18" rx="100.98" ry="18"/>
<text text-anchor="middle" x="1239.99" y="-14.3" font-family="Times,serif" font-size="14.00">:core:designsystem</text>
</g>
<!-- :feature:lmu&#45;readout&#45;flag&#45;detail&#45;&gt;:core:designsystem -->
<g id="edge1" class="edge">
<title>:feature:lmu&#45;readout&#45;flag&#45;detail&#45;&gt;:core:designsystem</title>
<path fill="none" stroke="black" d="M265.09,-77.06C283.73,-75.22 302.9,-73.45 320.99,-72 614.62,-48.42 961.86,-31.32 1133.27,-23.59"/>
<polygon fill="black" stroke="black" points="1133.47,-27.09 1143.3,-23.14 1133.15,-20.09 1133.47,-27.09"/>
</g>
<!-- :feature:lmu&#45;readout&#45;vehicle&#45;damage&#45;detail -->
<g id="node3" class="node">
<title>:feature:lmu&#45;readout&#45;vehicle&#45;damage&#45;detail</title>
<ellipse fill="none" stroke="black" cx="540.99" cy="-90" rx="211.46" ry="18"/>
<text text-anchor="middle" x="540.99" y="-86.3" font-family="Times,serif" font-size="14.00">:feature:lmu&#45;readout&#45;vehicle&#45;damage&#45;detail</text>
</g>
<!-- :feature:lmu&#45;readout&#45;vehicle&#45;damage&#45;detail&#45;&gt;:core:designsystem -->
<g id="edge2" class="edge">
<title>:feature:lmu&#45;readout&#45;vehicle&#45;damage&#45;detail&#45;&gt;:core:designsystem</title>
<path fill="none" stroke="black" d="M672.05,-75.87C809.42,-62.12 1021.92,-40.84 1144.3,-28.58"/>
<polygon fill="black" stroke="black" points="1144.8,-32.05 1154.41,-27.57 1144.11,-25.08 1144.8,-32.05"/>
</g>
<!-- :feature:lmu&#45;windows&#45;readout&#45;vehicle&#45;approach&#45;detail -->
<g id="node4" class="node">
<title>:feature:lmu&#45;windows&#45;readout&#45;vehicle&#45;approach&#45;detail</title>
<ellipse fill="none" stroke="black" cx="1030.99" cy="-90" rx="260.75" ry="18"/>
<text text-anchor="middle" x="1030.99" y="-86.3" font-family="Times,serif" font-size="14.00">:feature:lmu&#45;windows&#45;readout&#45;vehicle&#45;approach&#45;detail</text>
</g>
<!-- :feature:lmu&#45;windows&#45;readout&#45;vehicle&#45;approach&#45;detail&#45;&gt;:core:designsystem -->
<g id="edge3" class="edge">
<title>:feature:lmu&#45;windows&#45;readout&#45;vehicle&#45;approach&#45;detail&#45;&gt;:core:designsystem</title>
<path fill="none" stroke="black" d="M1080.78,-72.32C1112.18,-61.8 1152.77,-48.21 1185.1,-37.38"/>
<polygon fill="black" stroke="black" points="1186.48,-40.61 1194.85,-34.12 1184.25,-33.98 1186.48,-40.61"/>
</g>
<!-- :feature:other&#45;license&#45;detail -->
<g id="node5" class="node">
<title>:feature:other&#45;license&#45;detail</title>
<ellipse fill="none" stroke="black" cx="1448.99" cy="-90" rx="139.98" ry="18"/>
<text text-anchor="middle" x="1448.99" y="-86.3" font-family="Times,serif" font-size="14.00">:feature:other&#45;license&#45;detail</text>
</g>
<!-- :feature:other&#45;license&#45;detail&#45;&gt;:core:designsystem -->
<g id="edge4" class="edge">
<title>:feature:other&#45;license&#45;detail&#45;&gt;:core:designsystem</title>
<path fill="none" stroke="black" d="M1401.3,-73.03C1369.61,-62.41 1327.91,-48.45 1294.84,-37.37"/>
<polygon fill="black" stroke="black" points="1295.91,-34.04 1285.32,-34.18 1293.69,-40.68 1295.91,-34.04"/>
</g>
<!-- :feature:other&#45;server&#45;ip&#45;detail -->
<g id="node6" class="node">
<title>:feature:other&#45;server&#45;ip&#45;detail</title>
<ellipse fill="none" stroke="black" cx="1755.99" cy="-90" rx="148.67" ry="18"/>
<text text-anchor="middle" x="1755.99" y="-86.3" font-family="Times,serif" font-size="14.00">:feature:other&#45;server&#45;ip&#45;detail</text>
</g>
<!-- :feature:other&#45;server&#45;ip&#45;detail&#45;&gt;:core:designsystem -->
<g id="edge5" class="edge">
<title>:feature:other&#45;server&#45;ip&#45;detail&#45;&gt;:core:designsystem</title>
<path fill="none" stroke="black" d="M1661.04,-76.12C1565.79,-63.2 1420.3,-43.46 1327.7,-30.9"/>
<polygon fill="black" stroke="black" points="1327.89,-27.39 1317.51,-29.52 1326.95,-34.33 1327.89,-27.39"/>
</g>
<!-- :feature:other&#45;volume&#45;detail -->
<g id="node7" class="node">
<title>:feature:other&#45;volume&#45;detail</title>
<ellipse fill="none" stroke="black" cx="2063.99" cy="-90" rx="141.07" ry="18"/>
<text text-anchor="middle" x="2063.99" y="-86.3" font-family="Times,serif" font-size="14.00">:feature:other&#45;volume&#45;detail</text>
</g>
<!-- :feature:other&#45;volume&#45;detail&#45;&gt;:core:designsystem -->
<g id="edge6" class="edge">
<title>:feature:other&#45;volume&#45;detail&#45;&gt;:core:designsystem</title>
<path fill="none" stroke="black" d="M1964.39,-77.23C1947.58,-75.38 1930.29,-73.56 1913.99,-72 1711.72,-52.59 1474.8,-35.2 1342.59,-25.97"/>
<polygon fill="black" stroke="black" points="1342.69,-22.46 1332.47,-25.26 1342.2,-29.45 1342.69,-22.46"/>
</g>
</g>
</svg>
