<?xml version="1.0" encoding="UTF-8" standalone="no"?>
<!DOCTYPE svg PUBLIC "-//W3C//DTD SVG 1.1//EN"
 "http://www.w3.org/Graphics/SVG/1.1/DTD/svg11.dtd">
<!-- Generated by graphviz version 2.43.0 (0)
 -->
<!-- Title: G Pages: 1 -->
<svg width="2718pt" height="188pt"
 viewBox="0.00 0.00 2717.54 188.00" xmlns="http://www.w3.org/2000/svg" xmlns:xlink="http://www.w3.org/1999/xlink">
<g id="graph0" class="graph" transform="scale(1 1) rotate(0) translate(4 184)">
<title>G</title>
<polygon fill="white" stroke="transparent" points="-4,4 -4,-184 2713.54,-184 2713.54,4 -4,4"/>
<!-- :server -->
<g id="node1" class="node">
<title>:server</title>
<ellipse fill="none" stroke="black" cx="43.55" cy="-90" rx="43.59" ry="18"/>
<text text-anchor="middle" x="43.55" y="-86.3" font-family="Times,serif" font-size="14.00">:server</text>
</g>
<!-- :core:domain -->
<g id="node2" class="node">
<title>:core:domain</title>
<ellipse fill="none" stroke="black" cx="929.55" cy="-18" rx="70.69" ry="18"/>
<text text-anchor="middle" x="929.55" y="-14.3" font-family="Times,serif" font-size="14.00">:core:domain</text>
</g>
<!-- :server&#45;&gt;:core:domain -->
<g id="edge1" class="edge">
<title>:server&#45;&gt;:core:domain</title>
<path fill="none" stroke="black" d="M76.37,-78.01C84.52,-75.66 93.28,-73.46 101.55,-72 372.03,-24.31 698.93,-18.26 848.15,-18.28"/>
<polygon fill="black" stroke="black" points="848.58,-21.78 858.59,-18.29 848.59,-14.78 848.58,-21.78"/>
</g>
<!-- :app:desktopApp -->
<g id="node3" class="node">
<title>:app:desktopApp</title>
<ellipse fill="none" stroke="black" cx="157.55" cy="-162" rx="88.28" ry="18"/>
<text text-anchor="middle" x="157.55" y="-158.3" font-family="Times,serif" font-size="14.00">:app:desktopApp</text>
</g>
<!-- :app:desktopApp&#45;&gt;:core:domain -->
<g id="edge3" class="edge">
<title>:app:desktopApp&#45;&gt;:core:domain</title>
<path fill="none" stroke="black" d="M145,-143.97C132.05,-124.17 116.12,-91.7 134.55,-72 182.59,-20.64 655.98,-17.44 848.63,-18.29"/>
<polygon fill="black" stroke="black" points="848.68,-21.79 858.69,-18.34 848.71,-14.79 848.68,-21.79"/>
</g>
<!-- :core:data -->
<g id="node4" class="node">
<title>:core:data</title>
<ellipse fill="none" stroke="black" cx="200.55" cy="-90" rx="57.39" ry="18"/>
<text text-anchor="middle" x="200.55" y="-86.3" font-family="Times,serif" font-size="14.00">:core:data</text>
</g>
<!-- :app:desktopApp&#45;&gt;:core:data -->
<g id="edge2" class="edge">
<title>:app:desktopApp&#45;&gt;:core:data</title>
<path fill="none" stroke="black" d="M167.96,-144.05C173.03,-135.8 179.23,-125.7 184.86,-116.54"/>
<polygon fill="black" stroke="black" points="187.98,-118.14 190.23,-107.79 182.02,-114.48 187.98,-118.14"/>
</g>
<!-- :core:data&#45;&gt;:core:domain -->
<g id="edge4" class="edge">
<title>:core:data&#45;&gt;:core:domain</title>
<path fill="none" stroke="black" d="M241.5,-77.28C249.74,-75.26 258.38,-73.37 266.55,-72 474.8,-37.12 723.82,-25.03 849.11,-20.97"/>
<polygon fill="black" stroke="black" points="849.5,-24.46 859.38,-20.64 849.27,-17.46 849.5,-24.46"/>
</g>
<!-- :feature:lmu&#45;connection -->
<g id="node5" class="node">
<title>:feature:lmu&#45;connection</title>
<ellipse fill="none" stroke="black" cx="396.55" cy="-90" rx="120.78" ry="18"/>
<text text-anchor="middle" x="396.55" y="-86.3" font-family="Times,serif" font-size="14.00">:feature:lmu&#45;connection</text>
</g>
<!-- :feature:lmu&#45;connection&#45;&gt;:core:domain -->
<g id="edge5" class="edge">
<title>:feature:lmu&#45;connection&#45;&gt;:core:domain</title>
<path fill="none" stroke="black" d="M483.96,-77.52C588.5,-63.79 761.47,-41.07 858.28,-28.36"/>
<polygon fill="black" stroke="black" points="858.81,-31.82 868.27,-27.05 857.9,-24.88 858.81,-31.82"/>
</g>
<!-- :feature:lmu&#45;narrator -->
<g id="node6" class="node">
<title>:feature:lmu&#45;narrator</title>
<ellipse fill="none" stroke="black" cx="645.55" cy="-90" rx="109.68" ry="18"/>
<text text-anchor="middle" x="645.55" y="-86.3" font-family="Times,serif" font-size="14.00">:feature:lmu&#45;narrator</text>
</g>
<!-- :feature:lmu&#45;narrator&#45;&gt;:core:domain -->
<g id="edge6" class="edge">
<title>:feature:lmu&#45;narrator&#45;&gt;:core:domain</title>
<path fill="none" stroke="black" d="M703.7,-74.67C752.44,-62.65 821.7,-45.58 870.64,-33.52"/>
<polygon fill="black" stroke="black" points="871.58,-36.89 880.46,-31.1 869.91,-30.09 871.58,-36.89"/>
</g>
<!-- :feature:lmu&#45;readout&#45;flag&#45;detail -->
<g id="node7" class="node">
<title>:feature:lmu&#45;readout&#45;flag&#45;detail</title>
<ellipse fill="none" stroke="black" cx="929.55" cy="-90" rx="155.97" ry="18"/>
<text text-anchor="middle" x="929.55" y="-86.3" font-family="Times,serif" font-size="14.00">:feature:lmu&#45;readout&#45;flag&#45;detail</text>
</g>
<!-- :feature:lmu&#45;readout&#45;flag&#45;detail&#45;&gt;:core:domain -->
<g id="edge7" class="edge">
<title>:feature:lmu&#45;readout&#45;flag&#45;detail&#45;&gt;:core:domain</title>
<path fill="none" stroke="black" d="M929.55,-71.7C929.55,-63.98 929.55,-54.71 929.55,-46.11"/>
<polygon fill="black" stroke="black" points="933.05,-46.1 929.55,-36.1 926.05,-46.1 933.05,-46.1"/>
</g>
<!-- :feature:lmu&#45;readout&#45;vehicle&#45;approach&#45;detail -->
<g id="node8" class="node">
<title>:feature:lmu&#45;readout&#45;vehicle&#45;approach&#45;detail</title>
<ellipse fill="none" stroke="black" cx="1321.55" cy="-90" rx="217.96" ry="18"/>
<text text-anchor="middle" x="1321.55" y="-86.3" font-family="Times,serif" font-size="14.00">:feature:lmu&#45;readout&#45;vehicle&#45;approach&#45;detail</text>
</g>
<!-- :feature:lmu&#45;readout&#45;vehicle&#45;approach&#45;detail&#45;&gt;:core:domain -->
<g id="edge8" class="edge">
<title>:feature:lmu&#45;readout&#45;vehicle&#45;approach&#45;detail&#45;&gt;:core:domain</title>
<path fill="none" stroke="black" d="M1234.55,-73.46C1162.5,-60.6 1061.64,-42.59 995.96,-30.86"/>
<polygon fill="black" stroke="black" points="996.19,-27.35 985.73,-29.03 994.96,-34.24 996.19,-27.35"/>
</g>
<!-- :feature:lmu&#45;readout&#45;vehicle&#45;damage&#45;detail -->
<g id="node9" class="node">
<title>:feature:lmu&#45;readout&#45;vehicle&#45;damage&#45;detail</title>
<ellipse fill="none" stroke="black" cx="1768.55" cy="-90" rx="211.46" ry="18"/>
<text text-anchor="middle" x="1768.55" y="-86.3" font-family="Times,serif" font-size="14.00">:feature:lmu&#45;readout&#45;vehicle&#45;damage&#45;detail</text>
</g>
<!-- :feature:lmu&#45;readout&#45;vehicle&#45;damage&#45;detail&#45;&gt;:core:domain -->
<g id="edge9" class="edge">
<title>:feature:lmu&#45;readout&#45;vehicle&#45;damage&#45;detail&#45;&gt;:core:domain</title>
<path fill="none" stroke="black" d="M1623.36,-76.89C1444,-61.92 1145.49,-37.02 1005.9,-25.37"/>
<polygon fill="black" stroke="black" points="1005.98,-21.86 995.72,-24.52 1005.39,-28.84 1005.98,-21.86"/>
</g>
<!-- :feature:other&#45;list -->
<g id="node10" class="node">
<title>:feature:other&#45;list</title>
<ellipse fill="none" stroke="black" cx="2090.55" cy="-90" rx="92.88" ry="18"/>
<text text-anchor="middle" x="2090.55" y="-86.3" font-family="Times,serif" font-size="14.00">:feature:other&#45;list</text>
</g>
<!-- :feature:other&#45;list&#45;&gt;:core:domain -->
<g id="edge10" class="edge">
<title>:feature:other&#45;list&#45;&gt;:core:domain</title>
<path fill="none" stroke="black" d="M2025.68,-77.04C2013.38,-75.1 2000.59,-73.3 1988.55,-72 1624.76,-32.71 1187.47,-22.48 1010.13,-19.87"/>
<polygon fill="black" stroke="black" points="1010.14,-16.37 1000.09,-19.73 1010.04,-23.37 1010.14,-16.37"/>
</g>
<!-- :feature:other&#45;volume&#45;detail -->
<g id="node11" class="node">
<title>:feature:other&#45;volume&#45;detail</title>
<ellipse fill="none" stroke="black" cx="2342.55" cy="-90" rx="141.07" ry="18"/>
<text text-anchor="middle" x="2342.55" y="-86.3" font-family="Times,serif" font-size="14.00">:feature:other&#45;volume&#45;detail</text>
</g>
<!-- :feature:other&#45;volume&#45;detail&#45;&gt;:core:domain -->
<g id="edge11" class="edge">
<title>:feature:other&#45;volume&#45;detail&#45;&gt;:core:domain</title>
<path fill="none" stroke="black" d="M2245.01,-76.93C2227.56,-75.06 2209.53,-73.32 2192.55,-72 1746.82,-37.43 1210.73,-24.32 1010.32,-20.4"/>
<polygon fill="black" stroke="black" points="1010.24,-16.9 1000.17,-20.21 1010.1,-23.9 1010.24,-16.9"/>
</g>
<!-- :feature:readout&#45;list -->
<g id="node12" class="node">
<title>:feature:readout&#45;list</title>
<ellipse fill="none" stroke="black" cx="2605.55" cy="-90" rx="103.98" ry="18"/>
<text text-anchor="middle" x="2605.55" y="-86.3" font-family="Times,serif" font-size="14.00">:feature:readout&#45;list</text>
</g>
<!-- :feature:readout&#45;list&#45;&gt;:core:domain -->
<g id="edge12" class="edge">
<title>:feature:readout&#45;list&#45;&gt;:core:domain</title>
<path fill="none" stroke="black" d="M2533.66,-76.91C2520.04,-74.99 2505.88,-73.23 2492.55,-72 1927.09,-20.05 1242.37,-17.61 1010.64,-18.46"/>
<polygon fill="black" stroke="black" points="1010.6,-14.96 1000.61,-18.5 1010.62,-21.96 1010.6,-14.96"/>
</g>
</g>
</svg>
