<?xml version="1.0" encoding="UTF-8" standalone="no"?>
<!DOCTYPE svg PUBLIC "-//W3C//DTD SVG 1.1//EN"
 "http://www.w3.org/Graphics/SVG/1.1/DTD/svg11.dtd">
<!-- Generated by graphviz version 2.43.0 (0)
 -->
<!-- Title: G Pages: 1 -->
<svg width="3367pt" height="116pt"
 viewBox="0.00 0.00 3366.78 116.00" xmlns="http://www.w3.org/2000/svg" xmlns:xlink="http://www.w3.org/1999/xlink">
<g id="graph0" class="graph" transform="scale(1 1) rotate(0) translate(4 112)">
<title>G</title>
<polygon fill="white" stroke="transparent" points="-4,4 -4,-112 3362.78,-112 3362.78,4 -4,4"/>
<!-- :server -->
<g id="node1" class="node">
<title>:server</title>
<ellipse fill="none" stroke="black" cx="43.55" cy="-90" rx="43.59" ry="18"/>
<text text-anchor="middle" x="43.55" y="-86.3" font-family="Times,serif" font-size="14.00">:server</text>
</g>
<!-- :core:domain -->
<g id="node2" class="node">
<title>:core:domain</title>
<ellipse fill="none" stroke="black" cx="1667.55" cy="-18" rx="70.69" ry="18"/>
<text text-anchor="middle" x="1667.55" y="-14.3" font-family="Times,serif" font-size="14.00">:core:domain</text>
</g>
<!-- :server&#45;&gt;:core:domain -->
<g id="edge1" class="edge">
<title>:server&#45;&gt;:core:domain</title>
<path fill="none" stroke="black" d="M74.86,-77.38C81.9,-75.21 89.41,-73.24 96.55,-72 387.2,-21.49 1307.44,-18.49 1586.52,-18.78"/>
<polygon fill="black" stroke="black" points="1586.57,-22.28 1596.58,-18.79 1586.58,-15.28 1586.57,-22.28"/>
</g>
<!-- :core:data -->
<g id="node3" class="node">
<title>:core:data</title>
<ellipse fill="none" stroke="black" cx="162.55" cy="-90" rx="57.39" ry="18"/>
<text text-anchor="middle" x="162.55" y="-86.3" font-family="Times,serif" font-size="14.00">:core:data</text>
</g>
<!-- :core:data&#45;&gt;:core:domain -->
<g id="edge2" class="edge">
<title>:core:data&#45;&gt;:core:domain</title>
<path fill="none" stroke="black" d="M202.75,-77.18C211.21,-75.11 220.12,-73.23 228.55,-72 493.58,-33.45 1323,-22.3 1586.4,-19.69"/>
<polygon fill="black" stroke="black" points="1586.69,-23.19 1596.65,-19.59 1586.62,-16.19 1586.69,-23.19"/>
</g>
<!-- :feature:lmu&#45;narrator -->
<g id="node4" class="node">
<title>:feature:lmu&#45;narrator</title>
<ellipse fill="none" stroke="black" cx="347.55" cy="-90" rx="109.68" ry="18"/>
<text text-anchor="middle" x="347.55" y="-86.3" font-family="Times,serif" font-size="14.00">:feature:lmu&#45;narrator</text>
</g>
<!-- :feature:lmu&#45;narrator&#45;&gt;:core:domain -->
<g id="edge3" class="edge">
<title>:feature:lmu&#45;narrator&#45;&gt;:core:domain</title>
<path fill="none" stroke="black" d="M423.59,-77.01C437.84,-75.08 452.62,-73.3 466.55,-72 887.11,-32.78 1393.3,-22.45 1586.9,-19.84"/>
<polygon fill="black" stroke="black" points="1587.04,-23.34 1596.99,-19.71 1586.94,-16.34 1587.04,-23.34"/>
</g>
<!-- :feature:lmu&#45;readout&#45;flag&#45;detail -->
<g id="node5" class="node">
<title>:feature:lmu&#45;readout&#45;flag&#45;detail</title>
<ellipse fill="none" stroke="black" cx="631.55" cy="-90" rx="155.97" ry="18"/>
<text text-anchor="middle" x="631.55" y="-86.3" font-family="Times,serif" font-size="14.00">:feature:lmu&#45;readout&#45;flag&#45;detail</text>
</g>
<!-- :feature:lmu&#45;readout&#45;flag&#45;detail&#45;&gt;:core:domain -->
<g id="edge4" class="edge">
<title>:feature:lmu&#45;readout&#45;flag&#45;detail&#45;&gt;:core:domain</title>
<path fill="none" stroke="black" d="M740.65,-77.11C759.29,-75.26 778.46,-73.48 796.55,-72 1088.05,-48.12 1435.26,-30.12 1588.36,-22.71"/>
<polygon fill="black" stroke="black" points="1588.78,-26.19 1598.6,-22.21 1588.44,-19.2 1588.78,-26.19"/>
</g>
<!-- :feature:lmu&#45;readout&#45;vehicle&#45;approach&#45;detail -->
<g id="node6" class="node">
<title>:feature:lmu&#45;readout&#45;vehicle&#45;approach&#45;detail</title>
<ellipse fill="none" stroke="black" cx="1023.55" cy="-90" rx="217.96" ry="18"/>
<text text-anchor="middle" x="1023.55" y="-86.3" font-family="Times,serif" font-size="14.00">:feature:lmu&#45;readout&#45;vehicle&#45;approach&#45;detail</text>
</g>
<!-- :feature:lmu&#45;readout&#45;vehicle&#45;approach&#45;detail&#45;&gt;:core:domain -->
<g id="edge5" class="edge">
<title>:feature:lmu&#45;readout&#45;vehicle&#45;approach&#45;detail&#45;&gt;:core:domain</title>
<path fill="none" stroke="black" d="M1149.63,-75.3C1281.77,-60.93 1484.92,-38.85 1593.34,-27.07"/>
<polygon fill="black" stroke="black" points="1593.97,-30.52 1603.53,-25.96 1593.21,-23.56 1593.97,-30.52"/>
</g>
<!-- :feature:lmu&#45;readout&#45;vehicle&#45;damage&#45;detail -->
<g id="node7" class="node">
<title>:feature:lmu&#45;readout&#45;vehicle&#45;damage&#45;detail</title>
<ellipse fill="none" stroke="black" cx="1470.55" cy="-90" rx="211.46" ry="18"/>
<text text-anchor="middle" x="1470.55" y="-86.3" font-family="Times,serif" font-size="14.00">:feature:lmu&#45;readout&#45;vehicle&#45;damage&#45;detail</text>
</g>
<!-- :feature:lmu&#45;readout&#45;vehicle&#45;damage&#45;detail&#45;&gt;:core:domain -->
<g id="edge6" class="edge">
<title>:feature:lmu&#45;readout&#45;vehicle&#45;damage&#45;detail&#45;&gt;:core:domain</title>
<path fill="none" stroke="black" d="M1517.23,-72.41C1547.73,-61.58 1587.48,-47.45 1618.44,-36.45"/>
<polygon fill="black" stroke="black" points="1619.92,-39.64 1628.17,-32.99 1617.57,-33.04 1619.92,-39.64"/>
</g>
<!-- :feature:lmu&#45;windows&#45;connection -->
<g id="node8" class="node">
<title>:feature:lmu&#45;windows&#45;connection</title>
<ellipse fill="none" stroke="black" cx="1864.55" cy="-90" rx="164.37" ry="18"/>
<text text-anchor="middle" x="1864.55" y="-86.3" font-family="Times,serif" font-size="14.00">:feature:lmu&#45;windows&#45;connection</text>
</g>
<!-- :feature:lmu&#45;windows&#45;connection&#45;&gt;:core:domain -->
<g id="edge7" class="edge">
<title>:feature:lmu&#45;windows&#45;connection&#45;&gt;:core:domain</title>
<path fill="none" stroke="black" d="M1818.36,-72.59C1787.88,-61.76 1747.99,-47.58 1716.89,-36.53"/>
<polygon fill="black" stroke="black" points="1717.72,-33.11 1707.12,-33.06 1715.38,-39.71 1717.72,-33.11"/>
</g>
<!-- :feature:other&#45;list -->
<g id="node9" class="node">
<title>:feature:other&#45;list</title>
<ellipse fill="none" stroke="black" cx="2139.55" cy="-90" rx="92.88" ry="18"/>
<text text-anchor="middle" x="2139.55" y="-86.3" font-family="Times,serif" font-size="14.00">:feature:other&#45;list</text>
</g>
<!-- :feature:other&#45;list&#45;&gt;:core:domain -->
<g id="edge8" class="edge">
<title>:feature:other&#45;list&#45;&gt;:core:domain</title>
<path fill="none" stroke="black" d="M2072.1,-77.53C2060.58,-75.64 2048.72,-73.73 2037.55,-72 1933.73,-55.92 1813.26,-38.98 1738.71,-28.7"/>
<polygon fill="black" stroke="black" points="1738.88,-25.19 1728.5,-27.3 1737.93,-32.13 1738.88,-25.19"/>
</g>
<!-- :feature:other&#45;server&#45;ip&#45;detail -->
<g id="node10" class="node">
<title>:feature:other&#45;server&#45;ip&#45;detail</title>
<ellipse fill="none" stroke="black" cx="2399.55" cy="-90" rx="148.67" ry="18"/>
<text text-anchor="middle" x="2399.55" y="-86.3" font-family="Times,serif" font-size="14.00">:feature:other&#45;server&#45;ip&#45;detail</text>
</g>
<!-- :feature:other&#45;server&#45;ip&#45;detail&#45;&gt;:core:domain -->
<g id="edge9" class="edge">
<title>:feature:other&#45;server&#45;ip&#45;detail&#45;&gt;:core:domain</title>
<path fill="none" stroke="black" d="M2293.33,-77.35C2276.03,-75.52 2258.29,-73.67 2241.55,-72 2063.14,-54.17 1853.32,-35.34 1743.43,-25.64"/>
<polygon fill="black" stroke="black" points="1743.7,-22.15 1733.43,-24.76 1743.09,-29.12 1743.7,-22.15"/>
</g>
<!-- :feature:other&#45;volume&#45;detail -->
<g id="node11" class="node">
<title>:feature:other&#45;volume&#45;detail</title>
<ellipse fill="none" stroke="black" cx="2707.55" cy="-90" rx="141.07" ry="18"/>
<text text-anchor="middle" x="2707.55" y="-86.3" font-family="Times,serif" font-size="14.00">:feature:other&#45;volume&#45;detail</text>
</g>
<!-- :feature:other&#45;volume&#45;detail&#45;&gt;:core:domain -->
<g id="edge10" class="edge">
<title>:feature:other&#45;volume&#45;detail&#45;&gt;:core:domain</title>
<path fill="none" stroke="black" d="M2609.18,-77.09C2591.99,-75.23 2574.26,-73.44 2557.55,-72 2259.06,-46.22 1903.17,-29.12 1747.3,-22.32"/>
<polygon fill="black" stroke="black" points="1747.02,-18.8 1736.88,-21.87 1746.72,-25.8 1747.02,-18.8"/>
</g>
<!-- :feature:readout&#45;list -->
<g id="node12" class="node">
<title>:feature:readout&#45;list</title>
<ellipse fill="none" stroke="black" cx="2970.55" cy="-90" rx="103.98" ry="18"/>
<text text-anchor="middle" x="2970.55" y="-86.3" font-family="Times,serif" font-size="14.00">:feature:readout&#45;list</text>
</g>
<!-- :feature:readout&#45;list&#45;&gt;:core:domain -->
<g id="edge11" class="edge">
<title>:feature:readout&#45;list&#45;&gt;:core:domain</title>
<path fill="none" stroke="black" d="M2898.35,-76.99C2884.82,-75.06 2870.78,-73.29 2857.55,-72 2441.49,-31.55 1940.56,-21.94 1748.17,-19.68"/>
<polygon fill="black" stroke="black" points="1748.18,-16.18 1738.14,-19.57 1748.1,-23.18 1748.18,-16.18"/>
</g>
<!-- :feature:server&#45;connection -->
<g id="node13" class="node">
<title>:feature:server&#45;connection</title>
<ellipse fill="none" stroke="black" cx="3225.55" cy="-90" rx="133.48" ry="18"/>
<text text-anchor="middle" x="3225.55" y="-86.3" font-family="Times,serif" font-size="14.00">:feature:server&#45;connection</text>
</g>
<!-- :feature:server&#45;connection&#45;&gt;:core:domain -->
<g id="edge12" class="edge">
<title>:feature:server&#45;connection&#45;&gt;:core:domain</title>
<path fill="none" stroke="black" d="M3133.61,-76.88C3116.97,-75.01 3099.76,-73.27 3083.55,-72 2576.56,-32.23 1965.05,-22.13 1748.4,-19.71"/>
<polygon fill="black" stroke="black" points="1748.42,-16.21 1738.39,-19.61 1748.35,-23.21 1748.42,-16.21"/>
</g>
</g>
</svg>
