<?xml version="1.0" encoding="UTF-8" standalone="no"?>
<!DOCTYPE svg PUBLIC "-//W3C//DTD SVG 1.1//EN"
 "http://www.w3.org/Graphics/SVG/1.1/DTD/svg11.dtd">
<!-- Generated by graphviz version 2.43.0 (0)
 -->
<!-- Title: G Pages: 1 -->
<svg width="2209pt" height="188pt"
 viewBox="0.00 0.00 2208.73 188.00" xmlns="http://www.w3.org/2000/svg" xmlns:xlink="http://www.w3.org/1999/xlink">
<g id="graph0" class="graph" transform="scale(1 1) rotate(0) translate(4 184)">
<title>G</title>
<polygon fill="white" stroke="transparent" points="-4,4 -4,-184 2204.73,-184 2204.73,4 -4,4"/>
<!-- :server -->
<g id="node1" class="node">
<title>:server</title>
<ellipse fill="none" stroke="black" cx="43.55" cy="-90" rx="43.59" ry="18"/>
<text text-anchor="middle" x="43.55" y="-86.3" font-family="Times,serif" font-size="14.00">:server</text>
</g>
<!-- :core:domain -->
<g id="node2" class="node">
<title>:core:domain</title>
<ellipse fill="none" stroke="black" cx="806.55" cy="-18" rx="70.69" ry="18"/>
<text text-anchor="middle" x="806.55" y="-14.3" font-family="Times,serif" font-size="14.00">:core:domain</text>
</g>
<!-- :server&#45;&gt;:core:domain -->
<g id="edge1" class="edge">
<title>:server&#45;&gt;:core:domain</title>
<path fill="none" stroke="black" d="M76.38,-78.07C84.53,-75.73 93.29,-73.5 101.55,-72 325.16,-31.29 594.15,-21.74 725.87,-19.58"/>
<polygon fill="black" stroke="black" points="725.94,-23.08 735.88,-19.42 725.83,-16.08 725.94,-23.08"/>
</g>
<!-- :app:desktopApp -->
<g id="node3" class="node">
<title>:app:desktopApp</title>
<ellipse fill="none" stroke="black" cx="157.55" cy="-162" rx="88.28" ry="18"/>
<text text-anchor="middle" x="157.55" y="-158.3" font-family="Times,serif" font-size="14.00">:app:desktopApp</text>
</g>
<!-- :app:desktopApp&#45;&gt;:core:domain -->
<g id="edge3" class="edge">
<title>:app:desktopApp&#45;&gt;:core:domain</title>
<path fill="none" stroke="black" d="M145.04,-144.01C132.13,-124.25 116.24,-91.81 134.55,-72 173.93,-29.39 555.6,-20.99 725.58,-19.37"/>
<polygon fill="black" stroke="black" points="725.76,-22.87 735.73,-19.28 725.7,-15.87 725.76,-22.87"/>
</g>
<!-- :core:data -->
<g id="node4" class="node">
<title>:core:data</title>
<ellipse fill="none" stroke="black" cx="200.55" cy="-90" rx="57.39" ry="18"/>
<text text-anchor="middle" x="200.55" y="-86.3" font-family="Times,serif" font-size="14.00">:core:data</text>
</g>
<!-- :app:desktopApp&#45;&gt;:core:data -->
<g id="edge2" class="edge">
<title>:app:desktopApp&#45;&gt;:core:data</title>
<path fill="none" stroke="black" d="M167.96,-144.05C173.03,-135.8 179.23,-125.7 184.86,-116.54"/>
<polygon fill="black" stroke="black" points="187.98,-118.14 190.23,-107.79 182.02,-114.48 187.98,-118.14"/>
</g>
<!-- :core:data&#45;&gt;:core:domain -->
<g id="edge4" class="edge">
<title>:core:data&#45;&gt;:core:domain</title>
<path fill="none" stroke="black" d="M241.52,-77.4C249.76,-75.37 258.39,-73.44 266.55,-72 428.81,-43.32 621.45,-29.09 727.19,-22.95"/>
<polygon fill="black" stroke="black" points="727.68,-26.43 737.46,-22.36 727.28,-19.44 727.68,-26.43"/>
</g>
<!-- :feature:lmu&#45;connection -->
<g id="node5" class="node">
<title>:feature:lmu&#45;connection</title>
<ellipse fill="none" stroke="black" cx="396.55" cy="-90" rx="120.78" ry="18"/>
<text text-anchor="middle" x="396.55" y="-86.3" font-family="Times,serif" font-size="14.00">:feature:lmu&#45;connection</text>
</g>
<!-- :feature:lmu&#45;connection&#45;&gt;:core:domain -->
<g id="edge5" class="edge">
<title>:feature:lmu&#45;connection&#45;&gt;:core:domain</title>
<path fill="none" stroke="black" d="M472.7,-76C549.34,-62.91 666.38,-42.93 739.58,-30.43"/>
<polygon fill="black" stroke="black" points="740.34,-33.85 749.6,-28.72 739.16,-26.95 740.34,-33.85"/>
</g>
<!-- :feature:narrator -->
<g id="node6" class="node">
<title>:feature:narrator</title>
<ellipse fill="none" stroke="black" cx="624.55" cy="-90" rx="89.08" ry="18"/>
<text text-anchor="middle" x="624.55" y="-86.3" font-family="Times,serif" font-size="14.00">:feature:narrator</text>
</g>
<!-- :feature:narrator&#45;&gt;:core:domain -->
<g id="edge6" class="edge">
<title>:feature:narrator&#45;&gt;:core:domain</title>
<path fill="none" stroke="black" d="M664.04,-73.81C692.12,-63.01 729.97,-48.45 759.6,-37.06"/>
<polygon fill="black" stroke="black" points="761.23,-40.18 769.31,-33.32 758.72,-33.65 761.23,-40.18"/>
</g>
<!-- :feature:other -->
<g id="node7" class="node">
<title>:feature:other</title>
<ellipse fill="none" stroke="black" cx="806.55" cy="-90" rx="75.29" ry="18"/>
<text text-anchor="middle" x="806.55" y="-86.3" font-family="Times,serif" font-size="14.00">:feature:other</text>
</g>
<!-- :feature:other&#45;&gt;:core:domain -->
<g id="edge7" class="edge">
<title>:feature:other&#45;&gt;:core:domain</title>
<path fill="none" stroke="black" d="M806.55,-71.7C806.55,-63.98 806.55,-54.71 806.55,-46.11"/>
<polygon fill="black" stroke="black" points="810.05,-46.1 806.55,-36.1 803.05,-46.1 810.05,-46.1"/>
</g>
<!-- :feature:other&#45;list -->
<g id="node8" class="node">
<title>:feature:other&#45;list</title>
<ellipse fill="none" stroke="black" cx="992.55" cy="-90" rx="92.88" ry="18"/>
<text text-anchor="middle" x="992.55" y="-86.3" font-family="Times,serif" font-size="14.00">:feature:other&#45;list</text>
</g>
<!-- :feature:other&#45;list&#45;&gt;:core:domain -->
<g id="edge8" class="edge">
<title>:feature:other&#45;list&#45;&gt;:core:domain</title>
<path fill="none" stroke="black" d="M951.73,-73.64C922.88,-62.78 884.12,-48.19 853.9,-36.82"/>
<polygon fill="black" stroke="black" points="855.01,-33.5 844.42,-33.25 852.54,-40.05 855.01,-33.5"/>
</g>
<!-- :feature:readout -->
<g id="node9" class="node">
<title>:feature:readout</title>
<ellipse fill="none" stroke="black" cx="1189.55" cy="-90" rx="86.38" ry="18"/>
<text text-anchor="middle" x="1189.55" y="-86.3" font-family="Times,serif" font-size="14.00">:feature:readout</text>
</g>
<!-- :feature:readout&#45;&gt;:core:domain -->
<g id="edge9" class="edge">
<title>:feature:readout&#45;&gt;:core:domain</title>
<path fill="none" stroke="black" d="M1126.73,-77.52C1056.64,-64.71 943.75,-44.08 872.44,-31.04"/>
<polygon fill="black" stroke="black" points="872.7,-27.53 862.23,-29.18 871.44,-34.42 872.7,-27.53"/>
</g>
<!-- :feature:readout&#45;flag -->
<g id="node10" class="node">
<title>:feature:readout&#45;flag</title>
<ellipse fill="none" stroke="black" cx="1400.55" cy="-90" rx="106.68" ry="18"/>
<text text-anchor="middle" x="1400.55" y="-86.3" font-family="Times,serif" font-size="14.00">:feature:readout&#45;flag</text>
</g>
<!-- :feature:readout&#45;flag&#45;&gt;:core:domain -->
<g id="edge10" class="edge">
<title>:feature:readout&#45;flag&#45;&gt;:core:domain</title>
<path fill="none" stroke="black" d="M1324.16,-77.42C1310.96,-75.53 1297.37,-73.65 1284.55,-72 1142.12,-53.67 975.33,-36.05 881.19,-26.46"/>
<polygon fill="black" stroke="black" points="881.49,-22.97 871.19,-25.44 880.78,-29.93 881.49,-22.97"/>
</g>
<!-- :feature:readout&#45;vehicle&#45;approach -->
<g id="node11" class="node">
<title>:feature:readout&#45;vehicle&#45;approach</title>
<ellipse fill="none" stroke="black" cx="1692.55" cy="-90" rx="167.87" ry="18"/>
<text text-anchor="middle" x="1692.55" y="-86.3" font-family="Times,serif" font-size="14.00">:feature:readout&#45;vehicle&#45;approach</text>
</g>
<!-- :feature:readout&#45;vehicle&#45;approach&#45;&gt;:core:domain -->
<g id="edge11" class="edge">
<title>:feature:readout&#45;vehicle&#45;approach&#45;&gt;:core:domain</title>
<path fill="none" stroke="black" d="M1574.24,-77.22C1554.96,-75.4 1535.2,-73.6 1516.55,-72 1286.92,-52.34 1015.16,-33.2 884.44,-24.26"/>
<polygon fill="black" stroke="black" points="884.35,-20.74 874.13,-23.55 883.87,-27.73 884.35,-20.74"/>
</g>
<!-- :feature:readout&#45;vehicle&#45;damage -->
<g id="node12" class="node">
<title>:feature:readout&#45;vehicle&#45;damage</title>
<ellipse fill="none" stroke="black" cx="2039.55" cy="-90" rx="161.37" ry="18"/>
<text text-anchor="middle" x="2039.55" y="-86.3" font-family="Times,serif" font-size="14.00">:feature:readout&#45;vehicle&#45;damage</text>
</g>
<!-- :feature:readout&#45;vehicle&#45;damage&#45;&gt;:core:domain -->
<g id="edge12" class="edge">
<title>:feature:readout&#45;vehicle&#45;damage&#45;&gt;:core:domain</title>
<path fill="none" stroke="black" d="M1927.6,-77C1908.25,-75.16 1888.33,-73.41 1869.55,-72 1502.62,-44.52 1063.33,-27.72 886.28,-21.62"/>
<polygon fill="black" stroke="black" points="886.38,-18.12 876.27,-21.27 886.14,-25.11 886.38,-18.12"/>
</g>
</g>
</svg>
