<?xml version="1.0" encoding="UTF-8" standalone="no"?>
<!DOCTYPE svg PUBLIC "-//W3C//DTD SVG 1.1//EN"
 "http://www.w3.org/Graphics/SVG/1.1/DTD/svg11.dtd">
<!-- Generated by graphviz version 2.43.0 (0)
 -->
<!-- Title: G Pages: 1 -->
<svg width="2996pt" height="116pt"
 viewBox="0.00 0.00 2995.54 116.00" xmlns="http://www.w3.org/2000/svg" xmlns:xlink="http://www.w3.org/1999/xlink">
<g id="graph0" class="graph" transform="scale(1 1) rotate(0) translate(4 112)">
<title>G</title>
<polygon fill="white" stroke="transparent" points="-4,4 -4,-112 2991.54,-112 2991.54,4 -4,4"/>
<!-- :server -->
<g id="node1" class="node">
<title>:server</title>
<ellipse fill="none" stroke="black" cx="43.55" cy="-90" rx="43.59" ry="18"/>
<text text-anchor="middle" x="43.55" y="-86.3" font-family="Times,serif" font-size="14.00">:server</text>
</g>
<!-- :core:domain -->
<g id="node2" class="node">
<title>:core:domain</title>
<ellipse fill="none" stroke="black" cx="1283.55" cy="-18" rx="70.69" ry="18"/>
<text text-anchor="middle" x="1283.55" y="-14.3" font-family="Times,serif" font-size="14.00">:core:domain</text>
</g>
<!-- :server&#45;&gt;:core:domain -->
<g id="edge1" class="edge">
<title>:server&#45;&gt;:core:domain</title>
<path fill="none" stroke="black" d="M74.87,-77.44C81.91,-75.27 89.41,-73.28 96.55,-72 309.62,-33.78 971.15,-22.6 1202.6,-19.82"/>
<polygon fill="black" stroke="black" points="1202.67,-23.32 1212.63,-19.7 1202.59,-16.32 1202.67,-23.32"/>
</g>
<!-- :core:data -->
<g id="node3" class="node">
<title>:core:data</title>
<ellipse fill="none" stroke="black" cx="162.55" cy="-90" rx="57.39" ry="18"/>
<text text-anchor="middle" x="162.55" y="-86.3" font-family="Times,serif" font-size="14.00">:core:data</text>
</g>
<!-- :core:data&#45;&gt;:core:domain -->
<g id="edge2" class="edge">
<title>:core:data&#45;&gt;:core:domain</title>
<path fill="none" stroke="black" d="M203.12,-77.18C211.47,-75.14 220.24,-73.26 228.55,-72 416.18,-43.42 990.08,-26.41 1202.97,-20.94"/>
<polygon fill="black" stroke="black" points="1203.22,-24.44 1213.13,-20.68 1203.05,-17.44 1203.22,-24.44"/>
</g>
<!-- :feature:lmu&#45;connection -->
<g id="node4" class="node">
<title>:feature:lmu&#45;connection</title>
<ellipse fill="none" stroke="black" cx="358.55" cy="-90" rx="120.78" ry="18"/>
<text text-anchor="middle" x="358.55" y="-86.3" font-family="Times,serif" font-size="14.00">:feature:lmu&#45;connection</text>
</g>
<!-- :feature:lmu&#45;connection&#45;&gt;:core:domain -->
<g id="edge3" class="edge">
<title>:feature:lmu&#45;connection&#45;&gt;:core:domain</title>
<path fill="none" stroke="black" d="M443.42,-77.11C458.44,-75.23 473.94,-73.44 488.55,-72 750.19,-46.2 1061.54,-29.49 1204.57,-22.6"/>
<polygon fill="black" stroke="black" points="1204.75,-26.1 1214.57,-22.12 1204.41,-19.11 1204.75,-26.1"/>
</g>
<!-- :feature:lmu&#45;narrator -->
<g id="node5" class="node">
<title>:feature:lmu&#45;narrator</title>
<ellipse fill="none" stroke="black" cx="607.55" cy="-90" rx="109.68" ry="18"/>
<text text-anchor="middle" x="607.55" y="-86.3" font-family="Times,serif" font-size="14.00">:feature:lmu&#45;narrator</text>
</g>
<!-- :feature:lmu&#45;narrator&#45;&gt;:core:domain -->
<g id="edge4" class="edge">
<title>:feature:lmu&#45;narrator&#45;&gt;:core:domain</title>
<path fill="none" stroke="black" d="M685.57,-77.32C699.21,-75.43 713.28,-73.58 726.55,-72 897.78,-51.63 1099.38,-34.03 1206.88,-25.15"/>
<polygon fill="black" stroke="black" points="1207.31,-28.62 1216.99,-24.31 1206.74,-21.65 1207.31,-28.62"/>
</g>
<!-- :feature:lmu&#45;readout&#45;flag&#45;detail -->
<g id="node6" class="node">
<title>:feature:lmu&#45;readout&#45;flag&#45;detail</title>
<ellipse fill="none" stroke="black" cx="891.55" cy="-90" rx="155.97" ry="18"/>
<text text-anchor="middle" x="891.55" y="-86.3" font-family="Times,serif" font-size="14.00">:feature:lmu&#45;readout&#45;flag&#45;detail</text>
</g>
<!-- :feature:lmu&#45;readout&#45;flag&#45;detail&#45;&gt;:core:domain -->
<g id="edge5" class="edge">
<title>:feature:lmu&#45;readout&#45;flag&#45;detail&#45;&gt;:core:domain</title>
<path fill="none" stroke="black" d="M972.29,-74.58C1044.67,-61.66 1149.56,-42.93 1217.17,-30.85"/>
<polygon fill="black" stroke="black" points="1218.04,-34.25 1227.27,-29.05 1216.81,-27.36 1218.04,-34.25"/>
</g>
<!-- :feature:lmu&#45;readout&#45;vehicle&#45;approach&#45;detail -->
<g id="node7" class="node">
<title>:feature:lmu&#45;readout&#45;vehicle&#45;approach&#45;detail</title>
<ellipse fill="none" stroke="black" cx="1283.55" cy="-90" rx="217.96" ry="18"/>
<text text-anchor="middle" x="1283.55" y="-86.3" font-family="Times,serif" font-size="14.00">:feature:lmu&#45;readout&#45;vehicle&#45;approach&#45;detail</text>
</g>
<!-- :feature:lmu&#45;readout&#45;vehicle&#45;approach&#45;detail&#45;&gt;:core:domain -->
<g id="edge6" class="edge">
<title>:feature:lmu&#45;readout&#45;vehicle&#45;approach&#45;detail&#45;&gt;:core:domain</title>
<path fill="none" stroke="black" d="M1283.55,-71.7C1283.55,-63.98 1283.55,-54.71 1283.55,-46.11"/>
<polygon fill="black" stroke="black" points="1287.05,-46.1 1283.55,-36.1 1280.05,-46.1 1287.05,-46.1"/>
</g>
<!-- :feature:lmu&#45;readout&#45;vehicle&#45;damage&#45;detail -->
<g id="node8" class="node">
<title>:feature:lmu&#45;readout&#45;vehicle&#45;damage&#45;detail</title>
<ellipse fill="none" stroke="black" cx="1730.55" cy="-90" rx="211.46" ry="18"/>
<text text-anchor="middle" x="1730.55" y="-86.3" font-family="Times,serif" font-size="14.00">:feature:lmu&#45;readout&#45;vehicle&#45;damage&#45;detail</text>
</g>
<!-- :feature:lmu&#45;readout&#45;vehicle&#45;damage&#45;detail&#45;&gt;:core:domain -->
<g id="edge7" class="edge">
<title>:feature:lmu&#45;readout&#45;vehicle&#45;damage&#45;detail&#45;&gt;:core:domain</title>
<path fill="none" stroke="black" d="M1634.38,-73.94C1549.59,-60.66 1428.1,-41.64 1352.61,-29.82"/>
<polygon fill="black" stroke="black" points="1352.69,-26.29 1342.27,-28.2 1351.61,-33.2 1352.69,-26.29"/>
</g>
<!-- :feature:other&#45;list -->
<g id="node9" class="node">
<title>:feature:other&#45;list</title>
<ellipse fill="none" stroke="black" cx="2052.55" cy="-90" rx="92.88" ry="18"/>
<text text-anchor="middle" x="2052.55" y="-86.3" font-family="Times,serif" font-size="14.00">:feature:other&#45;list</text>
</g>
<!-- :feature:other&#45;list&#45;&gt;:core:domain -->
<g id="edge8" class="edge">
<title>:feature:other&#45;list&#45;&gt;:core:domain</title>
<path fill="none" stroke="black" d="M1986.82,-77.19C1974.78,-75.27 1962.31,-73.44 1950.55,-72 1738.87,-46 1487.77,-30.03 1362.65,-23.08"/>
<polygon fill="black" stroke="black" points="1362.57,-19.57 1352.4,-22.52 1362.19,-26.56 1362.57,-19.57"/>
</g>
<!-- :feature:other&#45;server&#45;ip&#45;detail -->
<g id="node10" class="node">
<title>:feature:other&#45;server&#45;ip&#45;detail</title>
<ellipse fill="none" stroke="black" cx="2312.55" cy="-90" rx="148.67" ry="18"/>
<text text-anchor="middle" x="2312.55" y="-86.3" font-family="Times,serif" font-size="14.00">:feature:other&#45;server&#45;ip&#45;detail</text>
</g>
<!-- :feature:other&#45;server&#45;ip&#45;detail&#45;&gt;:core:domain -->
<g id="edge9" class="edge">
<title>:feature:other&#45;server&#45;ip&#45;detail&#45;&gt;:core:domain</title>
<path fill="none" stroke="black" d="M2208.5,-77.11C2190.52,-75.26 2172,-73.47 2154.55,-72 1863.28,-47.48 1516.3,-29.82 1363.04,-22.6"/>
<polygon fill="black" stroke="black" points="1362.93,-19.09 1352.78,-22.12 1362.61,-26.08 1362.93,-19.09"/>
</g>
<!-- :feature:other&#45;volume&#45;detail -->
<g id="node11" class="node">
<title>:feature:other&#45;volume&#45;detail</title>
<ellipse fill="none" stroke="black" cx="2620.55" cy="-90" rx="141.07" ry="18"/>
<text text-anchor="middle" x="2620.55" y="-86.3" font-family="Times,serif" font-size="14.00">:feature:other&#45;volume&#45;detail</text>
</g>
<!-- :feature:other&#45;volume&#45;detail&#45;&gt;:core:domain -->
<g id="edge10" class="edge">
<title>:feature:other&#45;volume&#45;detail&#45;&gt;:core:domain</title>
<path fill="none" stroke="black" d="M2523.01,-76.97C2505.56,-75.1 2487.53,-73.34 2470.55,-72 2055.08,-39.22 1556.09,-25.17 1364.17,-20.7"/>
<polygon fill="black" stroke="black" points="1363.97,-17.2 1353.89,-20.47 1363.81,-24.2 1363.97,-17.2"/>
</g>
<!-- :feature:readout&#45;list -->
<g id="node12" class="node">
<title>:feature:readout&#45;list</title>
<ellipse fill="none" stroke="black" cx="2883.55" cy="-90" rx="103.98" ry="18"/>
<text text-anchor="middle" x="2883.55" y="-86.3" font-family="Times,serif" font-size="14.00">:feature:readout&#45;list</text>
</g>
<!-- :feature:readout&#45;list&#45;&gt;:core:domain -->
<g id="edge11" class="edge">
<title>:feature:readout&#45;list&#45;&gt;:core:domain</title>
<path fill="none" stroke="black" d="M2811.66,-76.93C2798.04,-75 2783.88,-73.24 2770.55,-72 2235.71,-22.4 1588.7,-18.41 1364.58,-18.66"/>
<polygon fill="black" stroke="black" points="1364.54,-15.16 1354.54,-18.67 1364.55,-22.16 1364.54,-15.16"/>
</g>
</g>
</svg>
