<?xml version="1.0" encoding="UTF-8" standalone="no"?>
<!DOCTYPE svg PUBLIC "-//W3C//DTD SVG 1.1//EN"
 "http://www.w3.org/Graphics/SVG/1.1/DTD/svg11.dtd">
<!-- Generated by graphviz version 2.43.0 (0)
 -->
<!-- Title: G Pages: 1 -->
<svg width="1665pt" height="188pt"
 viewBox="0.00 0.00 1665.23 188.00" xmlns="http://www.w3.org/2000/svg" xmlns:xlink="http://www.w3.org/1999/xlink">
<g id="graph0" class="graph" transform="scale(1 1) rotate(0) translate(4 184)">
<title>G</title>
<polygon fill="white" stroke="transparent" points="-4,4 -4,-184 1661.23,-184 1661.23,4 -4,4"/>
<!-- :server -->
<g id="node1" class="node">
<title>:server</title>
<ellipse fill="none" stroke="black" cx="43.55" cy="-90" rx="43.59" ry="18"/>
<text text-anchor="middle" x="43.55" y="-86.3" font-family="Times,serif" font-size="14.00">:server</text>
</g>
<!-- :core:domain -->
<g id="node2" class="node">
<title>:core:domain</title>
<ellipse fill="none" stroke="black" cx="624.55" cy="-18" rx="70.69" ry="18"/>
<text text-anchor="middle" x="624.55" y="-14.3" font-family="Times,serif" font-size="14.00">:core:domain</text>
</g>
<!-- :server&#45;&gt;:core:domain -->
<g id="edge1" class="edge">
<title>:server&#45;&gt;:core:domain</title>
<path fill="none" stroke="black" d="M76.72,-78.14C84.77,-75.82 93.41,-73.59 101.55,-72 257.14,-41.58 442.39,-28.04 545.41,-22.48"/>
<polygon fill="black" stroke="black" points="545.62,-25.97 555.42,-21.95 545.25,-18.98 545.62,-25.97"/>
</g>
<!-- :app:desktopApp -->
<g id="node3" class="node">
<title>:app:desktopApp</title>
<ellipse fill="none" stroke="black" cx="157.55" cy="-162" rx="88.28" ry="18"/>
<text text-anchor="middle" x="157.55" y="-158.3" font-family="Times,serif" font-size="14.00">:app:desktopApp</text>
</g>
<!-- :app:desktopApp&#45;&gt;:core:domain -->
<g id="edge3" class="edge">
<title>:app:desktopApp&#45;&gt;:core:domain</title>
<path fill="none" stroke="black" d="M145.14,-144.1C132.32,-124.43 116.53,-92.07 134.55,-72 161.41,-42.08 413.02,-27.52 544.83,-21.9"/>
<polygon fill="black" stroke="black" points="545.04,-25.39 554.89,-21.48 544.75,-18.4 545.04,-25.39"/>
</g>
<!-- :core:data -->
<g id="node4" class="node">
<title>:core:data</title>
<ellipse fill="none" stroke="black" cx="200.55" cy="-90" rx="57.39" ry="18"/>
<text text-anchor="middle" x="200.55" y="-86.3" font-family="Times,serif" font-size="14.00">:core:data</text>
</g>
<!-- :app:desktopApp&#45;&gt;:core:data -->
<g id="edge2" class="edge">
<title>:app:desktopApp&#45;&gt;:core:data</title>
<path fill="none" stroke="black" d="M167.96,-144.05C173.03,-135.8 179.23,-125.7 184.86,-116.54"/>
<polygon fill="black" stroke="black" points="187.98,-118.14 190.23,-107.79 182.02,-114.48 187.98,-118.14"/>
</g>
<!-- :core:data&#45;&gt;:core:domain -->
<g id="edge4" class="edge">
<title>:core:data&#45;&gt;:core:domain</title>
<path fill="none" stroke="black" d="M242.29,-77.54C250.31,-75.54 258.66,-73.59 266.55,-72 364.48,-52.2 478.88,-36.54 551.5,-27.53"/>
<polygon fill="black" stroke="black" points="551.97,-31 561.47,-26.3 551.12,-24.05 551.97,-31"/>
</g>
<!-- :feature:lmu&#45;connection -->
<g id="node5" class="node">
<title>:feature:lmu&#45;connection</title>
<ellipse fill="none" stroke="black" cx="396.55" cy="-90" rx="120.78" ry="18"/>
<text text-anchor="middle" x="396.55" y="-86.3" font-family="Times,serif" font-size="14.00">:feature:lmu&#45;connection</text>
</g>
<!-- :feature:lmu&#45;connection&#45;&gt;:core:domain -->
<g id="edge5" class="edge">
<title>:feature:lmu&#45;connection&#45;&gt;:core:domain</title>
<path fill="none" stroke="black" d="M446.86,-73.55C483.82,-62.2 533.93,-46.82 571.51,-35.28"/>
<polygon fill="black" stroke="black" points="572.73,-38.57 581.26,-32.29 570.68,-31.88 572.73,-38.57"/>
</g>
<!-- :feature:narrator -->
<g id="node6" class="node">
<title>:feature:narrator</title>
<ellipse fill="none" stroke="black" cx="624.55" cy="-90" rx="89.08" ry="18"/>
<text text-anchor="middle" x="624.55" y="-86.3" font-family="Times,serif" font-size="14.00">:feature:narrator</text>
</g>
<!-- :feature:narrator&#45;&gt;:core:domain -->
<g id="edge6" class="edge">
<title>:feature:narrator&#45;&gt;:core:domain</title>
<path fill="none" stroke="black" d="M624.55,-71.7C624.55,-63.98 624.55,-54.71 624.55,-46.11"/>
<polygon fill="black" stroke="black" points="628.05,-46.1 624.55,-36.1 621.05,-46.1 628.05,-46.1"/>
</g>
<!-- :feature:other -->
<g id="node7" class="node">
<title>:feature:other</title>
<ellipse fill="none" stroke="black" cx="806.55" cy="-90" rx="75.29" ry="18"/>
<text text-anchor="middle" x="806.55" y="-86.3" font-family="Times,serif" font-size="14.00">:feature:other</text>
</g>
<!-- :feature:other&#45;&gt;:core:domain -->
<g id="edge7" class="edge">
<title>:feature:other&#45;&gt;:core:domain</title>
<path fill="none" stroke="black" d="M768.39,-74.33C740.18,-63.47 701.59,-48.63 671.48,-37.05"/>
<polygon fill="black" stroke="black" points="672.62,-33.74 662.03,-33.42 670.1,-40.27 672.62,-33.74"/>
</g>
<!-- :feature:readout -->
<g id="node8" class="node">
<title>:feature:readout</title>
<ellipse fill="none" stroke="black" cx="986.55" cy="-90" rx="86.38" ry="18"/>
<text text-anchor="middle" x="986.55" y="-86.3" font-family="Times,serif" font-size="14.00">:feature:readout</text>
</g>
<!-- :feature:readout&#45;&gt;:core:domain -->
<g id="edge8" class="edge">
<title>:feature:readout&#45;&gt;:core:domain</title>
<path fill="none" stroke="black" d="M925.55,-77.2C859.9,-64.51 755.93,-44.41 688.99,-31.46"/>
<polygon fill="black" stroke="black" points="689.46,-27.99 678.98,-29.53 688.13,-34.86 689.46,-27.99"/>
</g>
<!-- :feature:readout&#45;flag -->
<g id="node9" class="node">
<title>:feature:readout&#45;flag</title>
<ellipse fill="none" stroke="black" cx="1197.55" cy="-90" rx="106.68" ry="18"/>
<text text-anchor="middle" x="1197.55" y="-86.3" font-family="Times,serif" font-size="14.00">:feature:readout&#45;flag</text>
</g>
<!-- :feature:readout&#45;flag&#45;&gt;:core:domain -->
<g id="edge9" class="edge">
<title>:feature:readout&#45;flag&#45;&gt;:core:domain</title>
<path fill="none" stroke="black" d="M1120.84,-77.43C1107.74,-75.55 1094.26,-73.67 1081.55,-72 946.77,-54.31 789.21,-36.72 698.73,-26.91"/>
<polygon fill="black" stroke="black" points="698.89,-23.41 688.58,-25.81 698.14,-30.37 698.89,-23.41"/>
</g>
<!-- :feature:readout&#45;vehicle&#45;approach -->
<g id="node10" class="node">
<title>:feature:readout&#45;vehicle&#45;approach</title>
<ellipse fill="none" stroke="black" cx="1489.55" cy="-90" rx="167.87" ry="18"/>
<text text-anchor="middle" x="1489.55" y="-86.3" font-family="Times,serif" font-size="14.00">:feature:readout&#45;vehicle&#45;approach</text>
</g>
<!-- :feature:readout&#45;vehicle&#45;approach&#45;&gt;:core:domain -->
<g id="edge10" class="edge">
<title>:feature:readout&#45;vehicle&#45;approach&#45;&gt;:core:domain</title>
<path fill="none" stroke="black" d="M1370.76,-77.21C1351.64,-75.4 1332.05,-73.61 1313.55,-72 1091.86,-52.77 829.73,-33.58 702.13,-24.47"/>
<polygon fill="black" stroke="black" points="702.29,-20.97 692.06,-23.75 701.79,-27.96 702.29,-20.97"/>
</g>
</g>
</svg>
