<?xml version="1.0" encoding="UTF-8" standalone="no"?>
<!DOCTYPE svg PUBLIC "-//W3C//DTD SVG 1.1//EN"
 "http://www.w3.org/Graphics/SVG/1.1/DTD/svg11.dtd">
<!-- Generated by graphviz version 2.43.0 (0)
 -->
<!-- Title: G Pages: 1 -->
<svg width="1174pt" height="188pt"
 viewBox="0.00 0.00 1174.23 188.00" xmlns="http://www.w3.org/2000/svg" xmlns:xlink="http://www.w3.org/1999/xlink">
<g id="graph0" class="graph" transform="scale(1 1) rotate(0) translate(4 184)">
<title>G</title>
<polygon fill="white" stroke="transparent" points="-4,4 -4,-184 1170.23,-184 1170.23,4 -4,4"/>
<!-- :server -->
<g id="node1" class="node">
<title>:server</title>
<ellipse fill="none" stroke="black" cx="43.55" cy="-90" rx="43.59" ry="18"/>
<text text-anchor="middle" x="43.55" y="-86.3" font-family="Times,serif" font-size="14.00">:server</text>
</g>
<!-- :core:domain -->
<g id="node2" class="node">
<title>:core:domain</title>
<ellipse fill="none" stroke="black" cx="364.55" cy="-18" rx="70.69" ry="18"/>
<text text-anchor="middle" x="364.55" y="-14.3" font-family="Times,serif" font-size="14.00">:core:domain</text>
</g>
<!-- :server&#45;&gt;:core:domain -->
<g id="edge1" class="edge">
<title>:server&#45;&gt;:core:domain</title>
<path fill="none" stroke="black" d="M77.46,-78.53C85.33,-76.25 93.7,-73.94 101.55,-72 167.93,-55.62 244.65,-40.6 298.03,-30.76"/>
<polygon fill="black" stroke="black" points="298.85,-34.17 308.06,-28.93 297.59,-27.29 298.85,-34.17"/>
</g>
<!-- :app:desktopApp -->
<g id="node3" class="node">
<title>:app:desktopApp</title>
<ellipse fill="none" stroke="black" cx="157.55" cy="-162" rx="88.28" ry="18"/>
<text text-anchor="middle" x="157.55" y="-158.3" font-family="Times,serif" font-size="14.00">:app:desktopApp</text>
</g>
<!-- :app:desktopApp&#45;&gt;:core:domain -->
<g id="edge3" class="edge">
<title>:app:desktopApp&#45;&gt;:core:domain</title>
<path fill="none" stroke="black" d="M145.34,-144.12C132.97,-124.75 117.85,-92.98 134.55,-72 153.72,-47.9 229.67,-33.83 289.11,-26.32"/>
<polygon fill="black" stroke="black" points="289.74,-29.77 299.24,-25.08 288.89,-22.82 289.74,-29.77"/>
</g>
<!-- :core:data -->
<g id="node4" class="node">
<title>:core:data</title>
<ellipse fill="none" stroke="black" cx="200.55" cy="-90" rx="57.39" ry="18"/>
<text text-anchor="middle" x="200.55" y="-86.3" font-family="Times,serif" font-size="14.00">:core:data</text>
</g>
<!-- :app:desktopApp&#45;&gt;:core:data -->
<g id="edge2" class="edge">
<title>:app:desktopApp&#45;&gt;:core:data</title>
<path fill="none" stroke="black" d="M167.96,-144.05C173.03,-135.8 179.23,-125.7 184.86,-116.54"/>
<polygon fill="black" stroke="black" points="187.98,-118.14 190.23,-107.79 182.02,-114.48 187.98,-118.14"/>
</g>
<!-- :core:data&#45;&gt;:core:domain -->
<g id="edge4" class="edge">
<title>:core:data&#45;&gt;:core:domain</title>
<path fill="none" stroke="black" d="M233.34,-75C258.34,-64.33 293.03,-49.53 320.46,-37.82"/>
<polygon fill="black" stroke="black" points="322,-40.96 329.83,-33.82 319.26,-34.53 322,-40.96"/>
</g>
<!-- :feature:narrator -->
<g id="node5" class="node">
<title>:feature:narrator</title>
<ellipse fill="none" stroke="black" cx="364.55" cy="-90" rx="89.08" ry="18"/>
<text text-anchor="middle" x="364.55" y="-86.3" font-family="Times,serif" font-size="14.00">:feature:narrator</text>
</g>
<!-- :feature:narrator&#45;&gt;:core:domain -->
<g id="edge5" class="edge">
<title>:feature:narrator&#45;&gt;:core:domain</title>
<path fill="none" stroke="black" d="M364.55,-71.7C364.55,-63.98 364.55,-54.71 364.55,-46.11"/>
<polygon fill="black" stroke="black" points="368.05,-46.1 364.55,-36.1 361.05,-46.1 368.05,-46.1"/>
</g>
<!-- :feature:other -->
<g id="node6" class="node">
<title>:feature:other</title>
<ellipse fill="none" stroke="black" cx="546.55" cy="-90" rx="75.29" ry="18"/>
<text text-anchor="middle" x="546.55" y="-86.3" font-family="Times,serif" font-size="14.00">:feature:other</text>
</g>
<!-- :feature:other&#45;&gt;:core:domain -->
<g id="edge6" class="edge">
<title>:feature:other&#45;&gt;:core:domain</title>
<path fill="none" stroke="black" d="M508.39,-74.33C480.18,-63.47 441.59,-48.63 411.48,-37.05"/>
<polygon fill="black" stroke="black" points="412.62,-33.74 402.03,-33.42 410.1,-40.27 412.62,-33.74"/>
</g>
<!-- :feature:readout -->
<g id="node7" class="node">
<title>:feature:readout</title>
<ellipse fill="none" stroke="black" cx="726.55" cy="-90" rx="86.38" ry="18"/>
<text text-anchor="middle" x="726.55" y="-86.3" font-family="Times,serif" font-size="14.00">:feature:readout</text>
</g>
<!-- :feature:readout&#45;&gt;:core:domain -->
<g id="edge7" class="edge">
<title>:feature:readout&#45;&gt;:core:domain</title>
<path fill="none" stroke="black" d="M665.55,-77.2C599.9,-64.51 495.93,-44.41 428.99,-31.46"/>
<polygon fill="black" stroke="black" points="429.46,-27.99 418.98,-29.53 428.13,-34.86 429.46,-27.99"/>
</g>
<!-- :feature:readout&#45;vehicle&#45;approach -->
<g id="node8" class="node">
<title>:feature:readout&#45;vehicle&#45;approach</title>
<ellipse fill="none" stroke="black" cx="998.55" cy="-90" rx="167.87" ry="18"/>
<text text-anchor="middle" x="998.55" y="-86.3" font-family="Times,serif" font-size="14.00">:feature:readout&#45;vehicle&#45;approach</text>
</g>
<!-- :feature:readout&#45;vehicle&#45;approach&#45;&gt;:core:domain -->
<g id="edge8" class="edge">
<title>:feature:readout&#45;vehicle&#45;approach&#45;&gt;:core:domain</title>
<path fill="none" stroke="black" d="M886.29,-76.61C757.13,-62.35 548.7,-39.33 438.44,-27.16"/>
<polygon fill="black" stroke="black" points="438.73,-23.67 428.4,-26.05 437.96,-30.63 438.73,-23.67"/>
</g>
</g>
</svg>
