<?xml version="1.0" encoding="UTF-8" standalone="no"?>
<!DOCTYPE svg PUBLIC "-//W3C//DTD SVG 1.1//EN"
 "http://www.w3.org/Graphics/SVG/1.1/DTD/svg11.dtd">
<!-- Generated by graphviz version 2.43.0 (0)
 -->
<!-- Title: G Pages: 1 -->
<svg width="1270pt" height="260pt"
 viewBox="0.00 0.00 1269.74 260.00" xmlns="http://www.w3.org/2000/svg" xmlns:xlink="http://www.w3.org/1999/xlink">
<g id="graph0" class="graph" transform="scale(1 1) rotate(0) translate(4 256)">
<title>G</title>
<polygon fill="white" stroke="transparent" points="-4,4 -4,-256 1265.74,-256 1265.74,4 -4,4"/>
<!-- :server -->
<g id="node1" class="node">
<title>:server</title>
<ellipse fill="none" stroke="black" cx="43.55" cy="-90" rx="43.59" ry="18"/>
<text text-anchor="middle" x="43.55" y="-86.3" font-family="Times,serif" font-size="14.00">:server</text>
</g>
<!-- :core:domain -->
<g id="node2" class="node">
<title>:core:domain</title>
<ellipse fill="none" stroke="black" cx="472.55" cy="-18" rx="70.69" ry="18"/>
<text text-anchor="middle" x="472.55" y="-14.3" font-family="Times,serif" font-size="14.00">:core:domain</text>
</g>
<!-- :server&#45;&gt;:core:domain -->
<g id="edge1" class="edge">
<title>:server&#45;&gt;:core:domain</title>
<path fill="none" stroke="black" d="M77.07,-78.29C85.04,-75.99 93.55,-73.73 101.55,-72 202.97,-50.01 322.02,-34.85 397.37,-26.54"/>
<polygon fill="black" stroke="black" points="398.14,-29.98 407.71,-25.42 397.39,-23.02 398.14,-29.98"/>
</g>
<!-- :app:androidApp -->
<g id="node3" class="node">
<title>:app:androidApp</title>
<ellipse fill="none" stroke="black" cx="294.55" cy="-234" rx="87.18" ry="18"/>
<text text-anchor="middle" x="294.55" y="-230.3" font-family="Times,serif" font-size="14.00">:app:androidApp</text>
</g>
<!-- :app:androidApp&#45;&gt;:core:domain -->
<g id="edge3" class="edge">
<title>:app:androidApp&#45;&gt;:core:domain</title>
<path fill="none" stroke="black" d="M263.72,-216.91C211.9,-187.83 117.12,-124.64 161.55,-72 190.54,-37.65 310.22,-25.56 392.37,-21.31"/>
<polygon fill="black" stroke="black" points="392.63,-24.8 402.45,-20.81 392.29,-17.81 392.63,-24.8"/>
</g>
<!-- :app:shared -->
<g id="node4" class="node">
<title>:app:shared</title>
<ellipse fill="none" stroke="black" cx="472.55" cy="-162" rx="65.79" ry="18"/>
<text text-anchor="middle" x="472.55" y="-158.3" font-family="Times,serif" font-size="14.00">:app:shared</text>
</g>
<!-- :app:androidApp&#45;&gt;:app:shared -->
<g id="edge2" class="edge">
<title>:app:androidApp&#45;&gt;:app:shared</title>
<path fill="none" stroke="black" d="M333.17,-217.81C360.82,-206.94 398.14,-192.26 427.21,-180.83"/>
<polygon fill="black" stroke="black" points="428.7,-184 436.72,-177.09 426.14,-177.49 428.7,-184"/>
</g>
<!-- :app:shared&#45;&gt;:core:domain -->
<g id="edge11" class="edge">
<title>:app:shared&#45;&gt;:core:domain</title>
<path fill="none" stroke="black" d="M407.66,-158.95C328.62,-154.93 201.95,-143.05 172.55,-108 162.26,-95.74 162.26,-84.26 172.55,-72 200.12,-39.13 313.2,-26.64 392.36,-21.89"/>
<polygon fill="black" stroke="black" points="393.02,-25.36 402.81,-21.3 392.62,-18.37 393.02,-25.36"/>
</g>
<!-- :feature:readout -->
<g id="node6" class="node">
<title>:feature:readout</title>
<ellipse fill="none" stroke="black" cx="1005.55" cy="-90" rx="86.38" ry="18"/>
<text text-anchor="middle" x="1005.55" y="-86.3" font-family="Times,serif" font-size="14.00">:feature:readout</text>
</g>
<!-- :app:shared&#45;&gt;:feature:readout -->
<g id="edge9" class="edge">
<title>:app:shared&#45;&gt;:feature:readout</title>
<path fill="none" stroke="black" d="M532.91,-154.79C617.52,-145.84 776.09,-128.15 910.55,-108 917.98,-106.89 925.72,-105.64 933.44,-104.34"/>
<polygon fill="black" stroke="black" points="934.27,-107.75 943.54,-102.62 933.09,-100.85 934.27,-107.75"/>
</g>
<!-- :feature:announcer -->
<g id="node7" class="node">
<title>:feature:announcer</title>
<ellipse fill="none" stroke="black" cx="280.55" cy="-90" rx="98.58" ry="18"/>
<text text-anchor="middle" x="280.55" y="-86.3" font-family="Times,serif" font-size="14.00">:feature:announcer</text>
</g>
<!-- :app:shared&#45;&gt;:feature:announcer -->
<g id="edge7" class="edge">
<title>:app:shared&#45;&gt;:feature:announcer</title>
<path fill="none" stroke="black" d="M434.61,-147.17C405.4,-136.52 364.68,-121.68 332.45,-109.92"/>
<polygon fill="black" stroke="black" points="333.33,-106.52 322.74,-106.38 330.94,-113.1 333.33,-106.52"/>
</g>
<!-- :feature:other -->
<g id="node8" class="node">
<title>:feature:other</title>
<ellipse fill="none" stroke="black" cx="472.55" cy="-90" rx="75.29" ry="18"/>
<text text-anchor="middle" x="472.55" y="-86.3" font-family="Times,serif" font-size="14.00">:feature:other</text>
</g>
<!-- :app:shared&#45;&gt;:feature:other -->
<g id="edge8" class="edge">
<title>:app:shared&#45;&gt;:feature:other</title>
<path fill="none" stroke="black" d="M472.55,-143.7C472.55,-135.98 472.55,-126.71 472.55,-118.11"/>
<polygon fill="black" stroke="black" points="476.05,-118.1 472.55,-108.1 469.05,-118.1 476.05,-118.1"/>
</g>
<!-- :feature:readout&#45;vehicle&#45;approach -->
<g id="node9" class="node">
<title>:feature:readout&#45;vehicle&#45;approach</title>
<ellipse fill="none" stroke="black" cx="733.55" cy="-90" rx="167.87" ry="18"/>
<text text-anchor="middle" x="733.55" y="-86.3" font-family="Times,serif" font-size="14.00">:feature:readout&#45;vehicle&#45;approach</text>
</g>
<!-- :app:shared&#45;&gt;:feature:readout&#45;vehicle&#45;approach -->
<g id="edge10" class="edge">
<title>:app:shared&#45;&gt;:feature:readout&#45;vehicle&#45;approach</title>
<path fill="none" stroke="black" d="M517.71,-148.89C558.17,-138.04 618.1,-121.96 664.56,-109.5"/>
<polygon fill="black" stroke="black" points="665.5,-112.87 674.26,-106.9 663.69,-106.11 665.5,-112.87"/>
</g>
<!-- :app:desktopApp -->
<g id="node5" class="node">
<title>:app:desktopApp</title>
<ellipse fill="none" stroke="black" cx="1005.55" cy="-234" rx="88.28" ry="18"/>
<text text-anchor="middle" x="1005.55" y="-230.3" font-family="Times,serif" font-size="14.00">:app:desktopApp</text>
</g>
<!-- :app:desktopApp&#45;&gt;:core:domain -->
<g id="edge5" class="edge">
<title>:app:desktopApp&#45;&gt;:core:domain</title>
<path fill="none" stroke="black" d="M1028.3,-216.45C1068.19,-185.5 1142.71,-117.88 1100.55,-72 1064.25,-32.51 715.17,-22.42 553.71,-19.86"/>
<polygon fill="black" stroke="black" points="553.41,-16.36 543.36,-19.7 553.3,-23.36 553.41,-16.36"/>
</g>
<!-- :app:desktopApp&#45;&gt;:app:shared -->
<g id="edge4" class="edge">
<title>:app:desktopApp&#45;&gt;:app:shared</title>
<path fill="none" stroke="black" d="M933.39,-223.52C830.14,-209.96 641.62,-185.21 540.66,-171.95"/>
<polygon fill="black" stroke="black" points="540.95,-168.45 530.58,-170.62 540.03,-175.39 540.95,-168.45"/>
</g>
<!-- :app:desktopApp&#45;&gt;:feature:readout -->
<g id="edge6" class="edge">
<title>:app:desktopApp&#45;&gt;:feature:readout</title>
<path fill="none" stroke="black" d="M1005.55,-215.87C1005.55,-191.67 1005.55,-147.21 1005.55,-118.39"/>
<polygon fill="black" stroke="black" points="1009.05,-118.19 1005.55,-108.19 1002.05,-118.19 1009.05,-118.19"/>
</g>
<!-- :feature:readout&#45;&gt;:core:domain -->
<g id="edge15" class="edge">
<title>:feature:readout&#45;&gt;:core:domain</title>
<path fill="none" stroke="black" d="M943.54,-77.38C932.57,-75.48 921.23,-73.6 910.55,-72 783.21,-52.92 634.26,-36.04 546.97,-26.71"/>
<polygon fill="black" stroke="black" points="547.21,-23.21 536.9,-25.63 546.47,-30.17 547.21,-23.21"/>
</g>
<!-- :feature:announcer&#45;&gt;:core:domain -->
<g id="edge13" class="edge">
<title>:feature:announcer&#45;&gt;:core:domain</title>
<path fill="none" stroke="black" d="M322.68,-73.64C352.69,-62.7 393.09,-47.97 424.38,-36.56"/>
<polygon fill="black" stroke="black" points="425.58,-39.85 433.78,-33.14 423.18,-33.27 425.58,-39.85"/>
</g>
<!-- :feature:other&#45;&gt;:core:domain -->
<g id="edge14" class="edge">
<title>:feature:other&#45;&gt;:core:domain</title>
<path fill="none" stroke="black" d="M472.55,-71.7C472.55,-63.98 472.55,-54.71 472.55,-46.11"/>
<polygon fill="black" stroke="black" points="476.05,-46.1 472.55,-36.1 469.05,-46.1 476.05,-46.1"/>
</g>
<!-- :feature:readout&#45;vehicle&#45;approach&#45;&gt;:core:domain -->
<g id="edge16" class="edge">
<title>:feature:readout&#45;vehicle&#45;approach&#45;&gt;:core:domain</title>
<path fill="none" stroke="black" d="M674.32,-73.12C630.79,-61.44 571.99,-45.67 529.1,-34.17"/>
<polygon fill="black" stroke="black" points="529.94,-30.77 519.38,-31.56 528.13,-37.53 529.94,-30.77"/>
</g>
<!-- :core:data -->
<g id="node10" class="node">
<title>:core:data</title>
<ellipse fill="none" stroke="black" cx="1204.55" cy="-90" rx="57.39" ry="18"/>
<text text-anchor="middle" x="1204.55" y="-86.3" font-family="Times,serif" font-size="14.00">:core:data</text>
</g>
<!-- :core:data&#45;&gt;:core:domain -->
<g id="edge12" class="edge">
<title>:core:data&#45;&gt;:core:domain</title>
<path fill="none" stroke="black" d="M1162.34,-77.76C1152.92,-75.57 1142.93,-73.49 1133.55,-72 925.63,-38.98 677.49,-26.09 552.67,-21.42"/>
<polygon fill="black" stroke="black" points="552.56,-17.91 542.44,-21.05 552.3,-24.91 552.56,-17.91"/>
</g>
</g>
</svg>
