<?xml version="1.0" encoding="UTF-8" standalone="no"?>
<!DOCTYPE svg PUBLIC "-//W3C//DTD SVG 1.1//EN"
 "http://www.w3.org/Graphics/SVG/1.1/DTD/svg11.dtd">
<!-- Generated by graphviz version 2.43.0 (0)
 -->
<!-- Title: G Pages: 1 -->
<svg width="5467pt" height="116pt"
 viewBox="0.00 0.00 5466.78 116.00" xmlns="http://www.w3.org/2000/svg" xmlns:xlink="http://www.w3.org/1999/xlink">
<g id="graph0" class="graph" transform="scale(1 1) rotate(0) translate(4 112)">
<title>G</title>
<polygon fill="white" stroke="transparent" points="-4,4 -4,-112 5462.78,-112 5462.78,4 -4,4"/>
<!-- :server -->
<g id="node1" class="node">
<title>:server</title>
<ellipse fill="none" stroke="black" cx="43.55" cy="-90" rx="43.59" ry="18"/>
<text text-anchor="middle" x="43.55" y="-86.3" font-family="Times,serif" font-size="14.00">:server</text>
</g>
<!-- :core:domain -->
<g id="node2" class="node">
<title>:core:domain</title>
<ellipse fill="none" stroke="black" cx="2521.55" cy="-18" rx="70.69" ry="18"/>
<text text-anchor="middle" x="2521.55" y="-14.3" font-family="Times,serif" font-size="14.00">:core:domain</text>
</g>
<!-- :server&#45;&gt;:core:domain -->
<g id="edge1" class="edge">
<title>:server&#45;&gt;:core:domain</title>
<path fill="none" stroke="black" d="M74.85,-77.32C81.89,-75.15 89.4,-73.2 96.55,-72 331.45,-32.61 2045.18,-21.45 2440.39,-19.39"/>
<polygon fill="black" stroke="black" points="2440.61,-22.88 2450.59,-19.33 2440.58,-15.88 2440.61,-22.88"/>
</g>
<!-- :core:data -->
<g id="node3" class="node">
<title>:core:data</title>
<ellipse fill="none" stroke="black" cx="162.55" cy="-90" rx="57.39" ry="18"/>
<text text-anchor="middle" x="162.55" y="-86.3" font-family="Times,serif" font-size="14.00">:core:data</text>
</g>
<!-- :core:data&#45;&gt;:core:domain -->
<g id="edge2" class="edge">
<title>:core:data&#45;&gt;:core:domain</title>
<path fill="none" stroke="black" d="M202.74,-77.09C211.19,-75.02 220.11,-73.17 228.55,-72 450.85,-41.22 2059.91,-23.55 2440.85,-19.77"/>
<polygon fill="black" stroke="black" points="2440.99,-23.27 2450.96,-19.67 2440.92,-16.27 2440.99,-23.27"/>
</g>
<!-- :core:gt7&#45;ps5&#45;data -->
<g id="node4" class="node">
<title>:core:gt7&#45;ps5&#45;data</title>
<ellipse fill="none" stroke="black" cx="332.55" cy="-90" rx="94.78" ry="18"/>
<text text-anchor="middle" x="332.55" y="-86.3" font-family="Times,serif" font-size="14.00">:core:gt7&#45;ps5&#45;data</text>
</g>
<!-- :core:gt7&#45;ps5&#45;data&#45;&gt;:core:domain -->
<g id="edge3" class="edge">
<title>:core:gt7&#45;ps5&#45;data&#45;&gt;:core:domain</title>
<path fill="none" stroke="black" d="M397.83,-76.93C410.63,-74.96 423.98,-73.18 436.55,-72 836.17,-34.44 2107.38,-22.18 2440.82,-19.58"/>
<polygon fill="black" stroke="black" points="2440.91,-23.08 2450.88,-19.5 2440.86,-16.08 2440.91,-23.08"/>
</g>
<!-- :core:lmu&#45;windows&#45;data -->
<g id="node5" class="node">
<title>:core:lmu&#45;windows&#45;data</title>
<ellipse fill="none" stroke="black" cx="566.55" cy="-90" rx="120.78" ry="18"/>
<text text-anchor="middle" x="566.55" y="-86.3" font-family="Times,serif" font-size="14.00">:core:lmu&#45;windows&#45;data</text>
</g>
<!-- :core:lmu&#45;windows&#45;data&#45;&gt;:core:domain -->
<g id="edge4" class="edge">
<title>:core:lmu&#45;windows&#45;data&#45;&gt;:core:domain</title>
<path fill="none" stroke="black" d="M649.64,-76.87C665.19,-74.95 681.34,-73.21 696.55,-72 1368.55,-18.44 2183.57,-17.29 2440.17,-18.44"/>
<polygon fill="black" stroke="black" points="2440.5,-21.94 2450.52,-18.49 2440.54,-14.94 2440.5,-21.94"/>
</g>
<!-- :feature:gt7&#45;ps5&#45;narrator -->
<g id="node6" class="node">
<title>:feature:gt7&#45;ps5&#45;narrator</title>
<ellipse fill="none" stroke="black" cx="832.55" cy="-90" rx="127.28" ry="18"/>
<text text-anchor="middle" x="832.55" y="-86.3" font-family="Times,serif" font-size="14.00">:feature:gt7&#45;ps5&#45;narrator</text>
</g>
<!-- :feature:gt7&#45;ps5&#45;narrator&#45;&gt;:core:domain -->
<g id="edge5" class="edge">
<title>:feature:gt7&#45;ps5&#45;narrator&#45;&gt;:core:domain</title>
<path fill="none" stroke="black" d="M920.22,-76.86C936.27,-74.98 952.89,-73.24 968.55,-72 1530.38,-27.39 2209.47,-20.29 2440.28,-19.19"/>
<polygon fill="black" stroke="black" points="2440.62,-22.69 2450.6,-19.15 2440.59,-15.69 2440.62,-22.69"/>
</g>
<!-- :feature:gt7&#45;ps5&#45;readout&#45;my&#45;bestlap&#45;detail -->
<g id="node7" class="node">
<title>:feature:gt7&#45;ps5&#45;readout&#45;my&#45;bestlap&#45;detail</title>
<ellipse fill="none" stroke="black" cx="1185.55" cy="-90" rx="207.96" ry="18"/>
<text text-anchor="middle" x="1185.55" y="-86.3" font-family="Times,serif" font-size="14.00">:feature:gt7&#45;ps5&#45;readout&#45;my&#45;bestlap&#45;detail</text>
</g>
<!-- :feature:gt7&#45;ps5&#45;readout&#45;my&#45;bestlap&#45;detail&#45;&gt;:core:domain -->
<g id="edge6" class="edge">
<title>:feature:gt7&#45;ps5&#45;readout&#45;my&#45;bestlap&#45;detail&#45;&gt;:core:domain</title>
<path fill="none" stroke="black" d="M1330.24,-77.04C1354.38,-75.22 1379.16,-73.47 1402.55,-72 1791.89,-47.53 2258.08,-28.87 2441.67,-21.94"/>
<polygon fill="black" stroke="black" points="2441.92,-25.43 2451.78,-21.56 2441.65,-18.43 2441.92,-25.43"/>
</g>
<!-- :feature:lmu&#45;windows&#45;connection -->
<g id="node8" class="node">
<title>:feature:lmu&#45;windows&#45;connection</title>
<ellipse fill="none" stroke="black" cx="1575.55" cy="-90" rx="164.37" ry="18"/>
<text text-anchor="middle" x="1575.55" y="-86.3" font-family="Times,serif" font-size="14.00">:feature:lmu&#45;windows&#45;connection</text>
</g>
<!-- :feature:lmu&#45;windows&#45;connection&#45;&gt;:core:domain -->
<g id="edge7" class="edge">
<title>:feature:lmu&#45;windows&#45;connection&#45;&gt;:core:domain</title>
<path fill="none" stroke="black" d="M1691.56,-77.2C1710.92,-75.36 1730.79,-73.56 1749.55,-72 2002.93,-50.93 2303.62,-32.04 2443.17,-23.63"/>
<polygon fill="black" stroke="black" points="2443.57,-27.11 2453.34,-23.02 2443.15,-20.13 2443.57,-27.11"/>
</g>
<!-- :feature:lmu&#45;windows&#45;narrator -->
<g id="node9" class="node">
<title>:feature:lmu&#45;windows&#45;narrator</title>
<ellipse fill="none" stroke="black" cx="1911.55" cy="-90" rx="153.27" ry="18"/>
<text text-anchor="middle" x="1911.55" y="-86.3" font-family="Times,serif" font-size="14.00">:feature:lmu&#45;windows&#45;narrator</text>
</g>
<!-- :feature:lmu&#45;windows&#45;narrator&#45;&gt;:core:domain -->
<g id="edge8" class="edge">
<title>:feature:lmu&#45;windows&#45;narrator&#45;&gt;:core:domain</title>
<path fill="none" stroke="black" d="M2017.1,-76.89C2140.32,-62.75 2340.87,-39.73 2448.23,-27.41"/>
<polygon fill="black" stroke="black" points="2448.78,-30.87 2458.32,-26.26 2447.99,-23.92 2448.78,-30.87"/>
</g>
<!-- :feature:lmu&#45;windows&#45;readout&#45;flag&#45;detail -->
<g id="node10" class="node">
<title>:feature:lmu&#45;windows&#45;readout&#45;flag&#45;detail</title>
<ellipse fill="none" stroke="black" cx="2282.55" cy="-90" rx="199.56" ry="18"/>
<text text-anchor="middle" x="2282.55" y="-86.3" font-family="Times,serif" font-size="14.00">:feature:lmu&#45;windows&#45;readout&#45;flag&#45;detail</text>
</g>
<!-- :feature:lmu&#45;windows&#45;readout&#45;flag&#45;detail&#45;&gt;:core:domain -->
<g id="edge9" class="edge">
<title>:feature:lmu&#45;windows&#45;readout&#45;flag&#45;detail&#45;&gt;:core:domain</title>
<path fill="none" stroke="black" d="M2338.28,-72.68C2377.03,-61.33 2428.42,-46.28 2466.92,-35"/>
<polygon fill="black" stroke="black" points="2468.3,-38.24 2476.92,-32.07 2466.33,-31.52 2468.3,-38.24"/>
</g>
<!-- :feature:lmu&#45;windows&#45;readout&#45;vehicle&#45;approach&#45;detail -->
<g id="node11" class="node">
<title>:feature:lmu&#45;windows&#45;readout&#45;vehicle&#45;approach&#45;detail</title>
<ellipse fill="none" stroke="black" cx="2760.55" cy="-90" rx="260.75" ry="18"/>
<text text-anchor="middle" x="2760.55" y="-86.3" font-family="Times,serif" font-size="14.00">:feature:lmu&#45;windows&#45;readout&#45;vehicle&#45;approach&#45;detail</text>
</g>
<!-- :feature:lmu&#45;windows&#45;readout&#45;vehicle&#45;approach&#45;detail&#45;&gt;:core:domain -->
<g id="edge10" class="edge">
<title>:feature:lmu&#45;windows&#45;readout&#45;vehicle&#45;approach&#45;detail&#45;&gt;:core:domain</title>
<path fill="none" stroke="black" d="M2703.91,-72.41C2665.26,-61.09 2614.35,-46.18 2576.14,-34.99"/>
<polygon fill="black" stroke="black" points="2576.8,-31.54 2566.22,-32.08 2574.84,-38.25 2576.8,-31.54"/>
</g>
<!-- :feature:lmu&#45;windows&#45;readout&#45;vehicle&#45;damage&#45;detail -->
<g id="node12" class="node">
<title>:feature:lmu&#45;windows&#45;readout&#45;vehicle&#45;damage&#45;detail</title>
<ellipse fill="none" stroke="black" cx="3293.55" cy="-90" rx="254.55" ry="18"/>
<text text-anchor="middle" x="3293.55" y="-86.3" font-family="Times,serif" font-size="14.00">:feature:lmu&#45;windows&#45;readout&#45;vehicle&#45;damage&#45;detail</text>
</g>
<!-- :feature:lmu&#45;windows&#45;readout&#45;vehicle&#45;damage&#45;detail&#45;&gt;:core:domain -->
<g id="edge11" class="edge">
<title>:feature:lmu&#45;windows&#45;readout&#45;vehicle&#45;damage&#45;detail&#45;&gt;:core:domain</title>
<path fill="none" stroke="black" d="M3143.78,-75.42C2979.84,-60.56 2723.54,-37.32 2597.18,-25.86"/>
<polygon fill="black" stroke="black" points="2597.48,-22.37 2587.2,-24.95 2596.84,-29.34 2597.48,-22.37"/>
</g>
<!-- :feature:main -->
<g id="node13" class="node">
<title>:feature:main</title>
<ellipse fill="none" stroke="black" cx="3639.55" cy="-90" rx="73.39" ry="18"/>
<text text-anchor="middle" x="3639.55" y="-86.3" font-family="Times,serif" font-size="14.00">:feature:main</text>
</g>
<!-- :feature:main&#45;&gt;:core:domain -->
<g id="edge12" class="edge">
<title>:feature:main&#45;&gt;:core:domain</title>
<path fill="none" stroke="black" d="M3588.13,-77.09C3578.04,-75.1 3567.5,-73.28 3557.55,-72 3203.98,-26.58 2777.83,-19.71 2602.7,-18.93"/>
<polygon fill="black" stroke="black" points="2602.55,-15.43 2592.54,-18.89 2602.52,-22.43 2602.55,-15.43"/>
</g>
<!-- :feature:other&#45;list -->
<g id="node14" class="node">
<title>:feature:other&#45;list</title>
<ellipse fill="none" stroke="black" cx="3823.55" cy="-90" rx="92.88" ry="18"/>
<text text-anchor="middle" x="3823.55" y="-86.3" font-family="Times,serif" font-size="14.00">:feature:other&#45;list</text>
</g>
<!-- :feature:other&#45;list&#45;&gt;:core:domain -->
<g id="edge13" class="edge">
<title>:feature:other&#45;list&#45;&gt;:core:domain</title>
<path fill="none" stroke="black" d="M3758.96,-77.02C3746.57,-75.07 3733.69,-73.28 3721.55,-72 3302.08,-27.94 2796.38,-20.42 2602.54,-19.2"/>
<polygon fill="black" stroke="black" points="2602.46,-15.7 2592.44,-19.14 2602.42,-22.7 2602.46,-15.7"/>
</g>
<!-- :feature:other&#45;readout&#45;start&#45;sound&#45;detail -->
<g id="node15" class="node">
<title>:feature:other&#45;readout&#45;start&#45;sound&#45;detail</title>
<ellipse fill="none" stroke="black" cx="4133.55" cy="-90" rx="199.56" ry="18"/>
<text text-anchor="middle" x="4133.55" y="-86.3" font-family="Times,serif" font-size="14.00">:feature:other&#45;readout&#45;start&#45;sound&#45;detail</text>
</g>
<!-- :feature:other&#45;readout&#45;start&#45;sound&#45;detail&#45;&gt;:core:domain -->
<g id="edge14" class="edge">
<title>:feature:other&#45;readout&#45;start&#45;sound&#45;detail&#45;&gt;:core:domain</title>
<path fill="none" stroke="black" d="M3996.27,-76.92C3972.69,-75.09 3948.42,-73.37 3925.55,-72 3422.46,-41.96 2816.88,-25.89 2601.96,-20.8"/>
<polygon fill="black" stroke="black" points="2601.8,-17.3 2591.72,-20.56 2601.64,-24.3 2601.8,-17.3"/>
</g>
<!-- :feature:other&#45;server&#45;ip&#45;detail -->
<g id="node16" class="node">
<title>:feature:other&#45;server&#45;ip&#45;detail</title>
<ellipse fill="none" stroke="black" cx="4499.55" cy="-90" rx="148.67" ry="18"/>
<text text-anchor="middle" x="4499.55" y="-86.3" font-family="Times,serif" font-size="14.00">:feature:other&#45;server&#45;ip&#45;detail</text>
</g>
<!-- :feature:other&#45;server&#45;ip&#45;detail&#45;&gt;:core:domain -->
<g id="edge15" class="edge">
<title>:feature:other&#45;server&#45;ip&#45;detail&#45;&gt;:core:domain</title>
<path fill="none" stroke="black" d="M4397.88,-76.81C4379.49,-74.94 4360.46,-73.23 4342.55,-72 3671.47,-25.97 2858.6,-19.84 2602.69,-19.09"/>
<polygon fill="black" stroke="black" points="2602.38,-15.58 2592.37,-19.06 2602.36,-22.58 2602.38,-15.58"/>
</g>
<!-- :feature:other&#45;volume&#45;detail -->
<g id="node17" class="node">
<title>:feature:other&#45;volume&#45;detail</title>
<ellipse fill="none" stroke="black" cx="4807.55" cy="-90" rx="141.07" ry="18"/>
<text text-anchor="middle" x="4807.55" y="-86.3" font-family="Times,serif" font-size="14.00">:feature:other&#45;volume&#45;detail</text>
</g>
<!-- :feature:other&#45;volume&#45;detail&#45;&gt;:core:domain -->
<g id="edge16" class="edge">
<title>:feature:other&#45;volume&#45;detail&#45;&gt;:core:domain</title>
<path fill="none" stroke="black" d="M4711.23,-76.82C4693.41,-74.92 4674.93,-73.2 4657.55,-72 3857.9,-16.87 2886.38,-17.05 2602.83,-18.44"/>
<polygon fill="black" stroke="black" points="2602.62,-14.94 2592.64,-18.5 2602.66,-21.94 2602.62,-14.94"/>
</g>
<!-- :feature:readout&#45;list -->
<g id="node18" class="node">
<title>:feature:readout&#45;list</title>
<ellipse fill="none" stroke="black" cx="5070.55" cy="-90" rx="103.98" ry="18"/>
<text text-anchor="middle" x="5070.55" y="-86.3" font-family="Times,serif" font-size="14.00">:feature:readout&#45;list</text>
</g>
<!-- :feature:readout&#45;list&#45;&gt;:core:domain -->
<g id="edge17" class="edge">
<title>:feature:readout&#45;list&#45;&gt;:core:domain</title>
<path fill="none" stroke="black" d="M4999.28,-76.87C4985.47,-74.92 4971.09,-73.16 4957.55,-72 4484.79,-31.46 2969.93,-21.27 2602.43,-19.37"/>
<polygon fill="black" stroke="black" points="2602.43,-15.87 2592.41,-19.32 2602.39,-22.87 2602.43,-15.87"/>
</g>
<!-- :feature:server&#45;connection -->
<g id="node19" class="node">
<title>:feature:server&#45;connection</title>
<ellipse fill="none" stroke="black" cx="5325.55" cy="-90" rx="133.48" ry="18"/>
<text text-anchor="middle" x="5325.55" y="-86.3" font-family="Times,serif" font-size="14.00">:feature:server&#45;connection</text>
</g>
<!-- :feature:server&#45;connection&#45;&gt;:core:domain -->
<g id="edge18" class="edge">
<title>:feature:server&#45;connection&#45;&gt;:core:domain</title>
<path fill="none" stroke="black" d="M5234.77,-76.77C5217.78,-74.87 5200.14,-73.16 5183.55,-72 4663.05,-35.75 2990.5,-22.22 2602.47,-19.53"/>
<polygon fill="black" stroke="black" points="2602.48,-16.03 2592.46,-19.46 2602.43,-23.03 2602.48,-16.03"/>
</g>
</g>
</svg>
