<?xml version="1.0" encoding="UTF-8" standalone="no"?>
<!DOCTYPE svg PUBLIC "-//W3C//DTD SVG 1.1//EN"
 "http://www.w3.org/Graphics/SVG/1.1/DTD/svg11.dtd">
<!-- Generated by graphviz version 2.43.0 (0)
 -->
<!-- Title: G Pages: 1 -->
<svg width="915pt" height="116pt"
 viewBox="0.00 0.00 914.78 116.00" xmlns="http://www.w3.org/2000/svg" xmlns:xlink="http://www.w3.org/1999/xlink">
<g id="graph0" class="graph" transform="scale(1 1) rotate(0) translate(4 112)">
<title>G</title>
<polygon fill="white" stroke="transparent" points="-4,4 -4,-112 910.78,-112 910.78,4 -4,4"/>
<!-- :feature:readout&#45;flag -->
<g id="node1" class="node">
<title>:feature:readout&#45;flag</title>
<ellipse fill="none" stroke="black" cx="106.59" cy="-90" rx="106.68" ry="18"/>
<text text-anchor="middle" x="106.59" y="-86.3" font-family="Times,serif" font-size="14.00">:feature:readout&#45;flag</text>
</g>
<!-- :core:designsystem -->
<g id="node2" class="node">
<title>:core:designsystem</title>
<ellipse fill="none" stroke="black" cx="398.59" cy="-18" rx="100.98" ry="18"/>
<text text-anchor="middle" x="398.59" y="-14.3" font-family="Times,serif" font-size="14.00">:core:designsystem</text>
</g>
<!-- :feature:readout&#45;flag&#45;&gt;:core:designsystem -->
<g id="edge1" class="edge">
<title>:feature:readout&#45;flag&#45;&gt;:core:designsystem</title>
<path fill="none" stroke="black" d="M165.33,-74.92C213.26,-63.43 281.01,-47.19 331.16,-35.17"/>
<polygon fill="black" stroke="black" points="332.03,-38.55 340.94,-32.82 330.4,-31.75 332.03,-38.55"/>
</g>
<!-- :feature:readout&#45;vehicle&#45;approach -->
<g id="node3" class="node">
<title>:feature:readout&#45;vehicle&#45;approach</title>
<ellipse fill="none" stroke="black" cx="398.59" cy="-90" rx="167.87" ry="18"/>
<text text-anchor="middle" x="398.59" y="-86.3" font-family="Times,serif" font-size="14.00">:feature:readout&#45;vehicle&#45;approach</text>
</g>
<!-- :feature:readout&#45;vehicle&#45;approach&#45;&gt;:core:designsystem -->
<g id="edge2" class="edge">
<title>:feature:readout&#45;vehicle&#45;approach&#45;&gt;:core:designsystem</title>
<path fill="none" stroke="black" d="M398.59,-71.7C398.59,-63.98 398.59,-54.71 398.59,-46.11"/>
<polygon fill="black" stroke="black" points="402.09,-46.1 398.59,-36.1 395.09,-46.1 402.09,-46.1"/>
</g>
<!-- :feature:readout&#45;vehicle&#45;damage -->
<g id="node4" class="node">
<title>:feature:readout&#45;vehicle&#45;damage</title>
<ellipse fill="none" stroke="black" cx="745.59" cy="-90" rx="161.37" ry="18"/>
<text text-anchor="middle" x="745.59" y="-86.3" font-family="Times,serif" font-size="14.00">:feature:readout&#45;vehicle&#45;damage</text>
</g>
<!-- :feature:readout&#45;vehicle&#45;damage&#45;&gt;:core:designsystem -->
<g id="edge3" class="edge">
<title>:feature:readout&#45;vehicle&#45;damage&#45;&gt;:core:designsystem</title>
<path fill="none" stroke="black" d="M671.15,-73.98C612.51,-62.15 531.17,-45.74 472.63,-33.94"/>
<polygon fill="black" stroke="black" points="473.2,-30.48 462.71,-31.93 471.82,-37.34 473.2,-30.48"/>
</g>
</g>
</svg>
