<?xml version="1.0" encoding="UTF-8" standalone="no"?>
<!DOCTYPE svg PUBLIC "-//W3C//DTD SVG 1.1//EN"
 "http://www.w3.org/Graphics/SVG/1.1/DTD/svg11.dtd">
<!-- Generated by graphviz version 2.43.0 (0)
 -->
<!-- Title: G Pages: 1 -->
<svg width="701pt" height="260pt"
 viewBox="0.00 0.00 700.74 260.00" xmlns="http://www.w3.org/2000/svg" xmlns:xlink="http://www.w3.org/1999/xlink">
<g id="graph0" class="graph" transform="scale(1 1) rotate(0) translate(4 256)">
<title>G</title>
<polygon fill="white" stroke="transparent" points="-4,4 -4,-256 696.74,-256 696.74,4 -4,4"/>
<!-- :server -->
<g id="node1" class="node">
<title>:server</title>
<ellipse fill="none" stroke="black" cx="43.55" cy="-90" rx="43.59" ry="18"/>
<text text-anchor="middle" x="43.55" y="-86.3" font-family="Times,serif" font-size="14.00">:server</text>
</g>
<!-- :core:domain -->
<g id="node2" class="node">
<title>:core:domain</title>
<ellipse fill="none" stroke="black" cx="256.55" cy="-18" rx="70.69" ry="18"/>
<text text-anchor="middle" x="256.55" y="-14.3" font-family="Times,serif" font-size="14.00">:core:domain</text>
</g>
<!-- :server&#45;&gt;:core:domain -->
<g id="edge1" class="edge">
<title>:server&#45;&gt;:core:domain</title>
<path fill="none" stroke="black" d="M76.83,-78.06C111.31,-66.73 165.64,-48.88 205.54,-35.76"/>
<polygon fill="black" stroke="black" points="206.69,-39.07 215.1,-32.62 204.51,-32.42 206.69,-39.07"/>
</g>
<!-- :app:androidApp -->
<g id="node3" class="node">
<title>:app:androidApp</title>
<ellipse fill="none" stroke="black" cx="186.55" cy="-234" rx="87.18" ry="18"/>
<text text-anchor="middle" x="186.55" y="-230.3" font-family="Times,serif" font-size="14.00">:app:androidApp</text>
</g>
<!-- :app:androidApp&#45;&gt;:core:domain -->
<g id="edge3" class="edge">
<title>:app:androidApp&#45;&gt;:core:domain</title>
<path fill="none" stroke="black" d="M177.37,-215.66C162.32,-184.6 136.59,-118.38 163.55,-72 172.6,-56.42 188.14,-45.04 203.95,-36.91"/>
<polygon fill="black" stroke="black" points="205.71,-39.95 213.24,-32.49 202.71,-33.62 205.71,-39.95"/>
</g>
<!-- :app:shared -->
<g id="node4" class="node">
<title>:app:shared</title>
<ellipse fill="none" stroke="black" cx="256.55" cy="-162" rx="65.79" ry="18"/>
<text text-anchor="middle" x="256.55" y="-158.3" font-family="Times,serif" font-size="14.00">:app:shared</text>
</g>
<!-- :app:androidApp&#45;&gt;:app:shared -->
<g id="edge2" class="edge">
<title>:app:androidApp&#45;&gt;:app:shared</title>
<path fill="none" stroke="black" d="M203.49,-216.05C212.18,-207.37 222.9,-196.64 232.43,-187.11"/>
<polygon fill="black" stroke="black" points="235.16,-189.33 239.76,-179.79 230.21,-184.39 235.16,-189.33"/>
</g>
<!-- :app:shared&#45;&gt;:core:domain -->
<g id="edge8" class="edge">
<title>:app:shared&#45;&gt;:core:domain</title>
<path fill="none" stroke="black" d="M218.64,-147.15C201.3,-138.68 182.46,-125.97 172.55,-108 164.82,-93.99 164.82,-86.01 172.55,-72 180.61,-57.37 194.61,-46.22 208.89,-38.02"/>
<polygon fill="black" stroke="black" points="210.59,-41.08 217.76,-33.28 207.29,-34.9 210.59,-41.08"/>
</g>
<!-- :feature:other -->
<g id="node6" class="node">
<title>:feature:other</title>
<ellipse fill="none" stroke="black" cx="256.55" cy="-90" rx="75.29" ry="18"/>
<text text-anchor="middle" x="256.55" y="-86.3" font-family="Times,serif" font-size="14.00">:feature:other</text>
</g>
<!-- :app:shared&#45;&gt;:feature:other -->
<g id="edge6" class="edge">
<title>:app:shared&#45;&gt;:feature:other</title>
<path fill="none" stroke="black" d="M256.55,-143.7C256.55,-135.98 256.55,-126.71 256.55,-118.11"/>
<polygon fill="black" stroke="black" points="260.05,-118.1 256.55,-108.1 253.05,-118.1 260.05,-118.1"/>
</g>
<!-- :feature:readout -->
<g id="node7" class="node">
<title>:feature:readout</title>
<ellipse fill="none" stroke="black" cx="436.55" cy="-90" rx="86.38" ry="18"/>
<text text-anchor="middle" x="436.55" y="-86.3" font-family="Times,serif" font-size="14.00">:feature:readout</text>
</g>
<!-- :app:shared&#45;&gt;:feature:readout -->
<g id="edge7" class="edge">
<title>:app:shared&#45;&gt;:feature:readout</title>
<path fill="none" stroke="black" d="M292.97,-146.83C320.41,-136.16 358.29,-121.43 388.26,-109.78"/>
<polygon fill="black" stroke="black" points="389.63,-113 397.68,-106.11 387.09,-106.48 389.63,-113"/>
</g>
<!-- :app:desktopApp -->
<g id="node5" class="node">
<title>:app:desktopApp</title>
<ellipse fill="none" stroke="black" cx="465.55" cy="-234" rx="88.28" ry="18"/>
<text text-anchor="middle" x="465.55" y="-230.3" font-family="Times,serif" font-size="14.00">:app:desktopApp</text>
</g>
<!-- :app:desktopApp&#45;&gt;:core:domain -->
<g id="edge5" class="edge">
<title>:app:desktopApp&#45;&gt;:core:domain</title>
<path fill="none" stroke="black" d="M482.78,-216.23C512.89,-184.93 568.47,-116.73 531.55,-72 507.04,-42.32 407.69,-29.08 335.42,-23.3"/>
<polygon fill="black" stroke="black" points="335.65,-19.81 325.42,-22.53 335.12,-26.79 335.65,-19.81"/>
</g>
<!-- :app:desktopApp&#45;&gt;:app:shared -->
<g id="edge4" class="edge">
<title>:app:desktopApp&#45;&gt;:app:shared</title>
<path fill="none" stroke="black" d="M421.73,-218.33C387.92,-207 341.15,-191.34 306,-179.56"/>
<polygon fill="black" stroke="black" points="307.01,-176.21 296.41,-176.35 304.78,-182.85 307.01,-176.21"/>
</g>
<!-- :feature:other&#45;&gt;:core:domain -->
<g id="edge10" class="edge">
<title>:feature:other&#45;&gt;:core:domain</title>
<path fill="none" stroke="black" d="M256.55,-71.7C256.55,-63.98 256.55,-54.71 256.55,-46.11"/>
<polygon fill="black" stroke="black" points="260.05,-46.1 256.55,-36.1 253.05,-46.1 260.05,-46.1"/>
</g>
<!-- :feature:readout&#45;&gt;:core:domain -->
<g id="edge11" class="edge">
<title>:feature:readout&#45;&gt;:core:domain</title>
<path fill="none" stroke="black" d="M397.49,-73.81C369.81,-63.05 332.53,-48.55 303.27,-37.17"/>
<polygon fill="black" stroke="black" points="304.27,-33.8 293.68,-33.44 301.73,-40.33 304.27,-33.8"/>
</g>
<!-- :core:data -->
<g id="node8" class="node">
<title>:core:data</title>
<ellipse fill="none" stroke="black" cx="635.55" cy="-90" rx="57.39" ry="18"/>
<text text-anchor="middle" x="635.55" y="-86.3" font-family="Times,serif" font-size="14.00">:core:data</text>
</g>
<!-- :core:data&#45;&gt;:core:domain -->
<g id="edge9" class="edge">
<title>:core:data&#45;&gt;:core:domain</title>
<path fill="none" stroke="black" d="M592.09,-78.13C583.01,-75.99 573.49,-73.84 564.55,-72 482.86,-55.21 388.24,-39.48 325.66,-29.58"/>
<polygon fill="black" stroke="black" points="325.94,-26.08 315.52,-27.99 324.85,-33 325.94,-26.08"/>
</g>
</g>
</svg>
