<?xml version="1.0" encoding="UTF-8" standalone="no"?>
<!DOCTYPE svg PUBLIC "-//W3C//DTD SVG 1.1//EN"
 "http://www.w3.org/Graphics/SVG/1.1/DTD/svg11.dtd">
<!-- Generated by graphviz version 2.43.0 (0)
 -->
<!-- Title: G Pages: 1 -->
<svg width="4253pt" height="116pt"
 viewBox="0.00 0.00 4253.43 116.00" xmlns="http://www.w3.org/2000/svg" xmlns:xlink="http://www.w3.org/1999/xlink">
<g id="graph0" class="graph" transform="scale(1 1) rotate(0) translate(4 112)">
<title>G</title>
<polygon fill="white" stroke="transparent" points="-4,4 -4,-112 4249.43,-112 4249.43,4 -4,4"/>
<!-- :feature:gt7&#45;ps5&#45;narrator -->
<g id="node1" class="node">
<title>:feature:gt7&#45;ps5&#45;narrator</title>
<ellipse fill="none" stroke="black" cx="127.39" cy="-90" rx="127.28" ry="18"/>
<text text-anchor="middle" x="127.39" y="-86.3" font-family="Times,serif" font-size="14.00">:feature:gt7&#45;ps5&#45;narrator</text>
</g>
<!-- :core:designsystem -->
<g id="node2" class="node">
<title>:core:designsystem</title>
<ellipse fill="none" stroke="black" cx="2219.39" cy="-18" rx="100.98" ry="18"/>
<text text-anchor="middle" x="2219.39" y="-14.3" font-family="Times,serif" font-size="14.00">:core:designsystem</text>
</g>
<!-- :feature:gt7&#45;ps5&#45;narrator&#45;&gt;:core:designsystem -->
<g id="edge1" class="edge">
<title>:feature:gt7&#45;ps5&#45;narrator&#45;&gt;:core:designsystem</title>
<path fill="none" stroke="black" d="M214.69,-76.81C230.85,-74.92 247.61,-73.2 263.39,-72 626.26,-44.47 1751.81,-25.9 2109.25,-20.57"/>
<polygon fill="black" stroke="black" points="2109.4,-24.07 2119.35,-20.42 2109.3,-17.07 2109.4,-24.07"/>
</g>
<!-- :feature:gt7&#45;ps5&#45;readout&#45;my&#45;bestlap&#45;detail -->
<g id="node3" class="node">
<title>:feature:gt7&#45;ps5&#45;readout&#45;my&#45;bestlap&#45;detail</title>
<ellipse fill="none" stroke="black" cx="480.39" cy="-90" rx="207.96" ry="18"/>
<text text-anchor="middle" x="480.39" y="-86.3" font-family="Times,serif" font-size="14.00">:feature:gt7&#45;ps5&#45;readout&#45;my&#45;bestlap&#45;detail</text>
</g>
<!-- :feature:gt7&#45;ps5&#45;readout&#45;my&#45;bestlap&#45;detail&#45;&gt;:core:designsystem -->
<g id="edge2" class="edge">
<title>:feature:gt7&#45;ps5&#45;readout&#45;my&#45;bestlap&#45;detail&#45;&gt;:core:designsystem</title>
<path fill="none" stroke="black" d="M623.32,-76.92C648.01,-75.08 673.43,-73.35 697.39,-72 1225.93,-42.11 1858.74,-26.55 2109.4,-21.19"/>
<polygon fill="black" stroke="black" points="2109.67,-24.69 2119.6,-20.98 2109.53,-17.69 2109.67,-24.69"/>
</g>
<!-- :feature:gt7&#45;ps5&#45;readout&#45;remaining&#45;fuel&#45;laps&#45;detail -->
<g id="node4" class="node">
<title>:feature:gt7&#45;ps5&#45;readout&#45;remaining&#45;fuel&#45;laps&#45;detail</title>
<ellipse fill="none" stroke="black" cx="952.39" cy="-90" rx="246.16" ry="18"/>
<text text-anchor="middle" x="952.39" y="-86.3" font-family="Times,serif" font-size="14.00">:feature:gt7&#45;ps5&#45;readout&#45;remaining&#45;fuel&#45;laps&#45;detail</text>
</g>
<!-- :feature:gt7&#45;ps5&#45;readout&#45;remaining&#45;fuel&#45;laps&#45;detail&#45;&gt;:core:designsystem -->
<g id="edge3" class="edge">
<title>:feature:gt7&#45;ps5&#45;readout&#45;remaining&#45;fuel&#45;laps&#45;detail&#45;&gt;:core:designsystem</title>
<path fill="none" stroke="black" d="M1125.53,-77.17C1153.24,-75.38 1181.6,-73.59 1208.39,-72 1538.36,-52.4 1929.15,-32.99 2113.31,-24.07"/>
<polygon fill="black" stroke="black" points="2113.71,-27.56 2123.53,-23.58 2113.37,-20.57 2113.71,-27.56"/>
</g>
<!-- :feature:lmu&#45;windows&#45;narrator -->
<g id="node5" class="node">
<title>:feature:lmu&#45;windows&#45;narrator</title>
<ellipse fill="none" stroke="black" cx="1370.39" cy="-90" rx="153.27" ry="18"/>
<text text-anchor="middle" x="1370.39" y="-86.3" font-family="Times,serif" font-size="14.00">:feature:lmu&#45;windows&#45;narrator</text>
</g>
<!-- :feature:lmu&#45;windows&#45;narrator&#45;&gt;:core:designsystem -->
<g id="edge4" class="edge">
<title>:feature:lmu&#45;windows&#45;narrator&#45;&gt;:core:designsystem</title>
<path fill="none" stroke="black" d="M1478.84,-77.2C1496.72,-75.38 1515.07,-73.58 1532.39,-72 1739.64,-53.13 1982.47,-35.43 2116.81,-26.03"/>
<polygon fill="black" stroke="black" points="2117.36,-29.5 2127.09,-25.31 2116.87,-22.51 2117.36,-29.5"/>
</g>
<!-- :feature:lmu&#45;windows&#45;readout&#45;flag&#45;detail -->
<g id="node6" class="node">
<title>:feature:lmu&#45;windows&#45;readout&#45;flag&#45;detail</title>
<ellipse fill="none" stroke="black" cx="1741.39" cy="-90" rx="199.56" ry="18"/>
<text text-anchor="middle" x="1741.39" y="-86.3" font-family="Times,serif" font-size="14.00">:feature:lmu&#45;windows&#45;readout&#45;flag&#45;detail</text>
</g>
<!-- :feature:lmu&#45;windows&#45;readout&#45;flag&#45;detail&#45;&gt;:core:designsystem -->
<g id="edge5" class="edge">
<title>:feature:lmu&#45;windows&#45;readout&#45;flag&#45;detail&#45;&gt;:core:designsystem</title>
<path fill="none" stroke="black" d="M1841.3,-74.37C1928,-61.67 2052.15,-43.49 2134.22,-31.47"/>
<polygon fill="black" stroke="black" points="2134.88,-34.91 2144.27,-30 2133.87,-27.99 2134.88,-34.91"/>
</g>
<!-- :feature:lmu&#45;windows&#45;readout&#45;vehicle&#45;approach&#45;detail -->
<g id="node7" class="node">
<title>:feature:lmu&#45;windows&#45;readout&#45;vehicle&#45;approach&#45;detail</title>
<ellipse fill="none" stroke="black" cx="2219.39" cy="-90" rx="260.75" ry="18"/>
<text text-anchor="middle" x="2219.39" y="-86.3" font-family="Times,serif" font-size="14.00">:feature:lmu&#45;windows&#45;readout&#45;vehicle&#45;approach&#45;detail</text>
</g>
<!-- :feature:lmu&#45;windows&#45;readout&#45;vehicle&#45;approach&#45;detail&#45;&gt;:core:designsystem -->
<g id="edge6" class="edge">
<title>:feature:lmu&#45;windows&#45;readout&#45;vehicle&#45;approach&#45;detail&#45;&gt;:core:designsystem</title>
<path fill="none" stroke="black" d="M2219.39,-71.7C2219.39,-63.98 2219.39,-54.71 2219.39,-46.11"/>
<polygon fill="black" stroke="black" points="2222.89,-46.1 2219.39,-36.1 2215.89,-46.1 2222.89,-46.1"/>
</g>
<!-- :feature:lmu&#45;windows&#45;readout&#45;vehicle&#45;damage&#45;detail -->
<g id="node8" class="node">
<title>:feature:lmu&#45;windows&#45;readout&#45;vehicle&#45;damage&#45;detail</title>
<ellipse fill="none" stroke="black" cx="2752.39" cy="-90" rx="254.55" ry="18"/>
<text text-anchor="middle" x="2752.39" y="-86.3" font-family="Times,serif" font-size="14.00">:feature:lmu&#45;windows&#45;readout&#45;vehicle&#45;damage&#45;detail</text>
</g>
<!-- :feature:lmu&#45;windows&#45;readout&#45;vehicle&#45;damage&#45;detail&#45;&gt;:core:designsystem -->
<g id="edge7" class="edge">
<title>:feature:lmu&#45;windows&#45;readout&#45;vehicle&#45;damage&#45;detail&#45;&gt;:core:designsystem</title>
<path fill="none" stroke="black" d="M2637.39,-73.9C2538.58,-60.92 2398.15,-42.48 2307.89,-30.62"/>
<polygon fill="black" stroke="black" points="2308.33,-27.15 2297.96,-29.32 2307.42,-34.09 2308.33,-27.15"/>
</g>
<!-- :feature:other&#45;console&#45;ip&#45;detail -->
<g id="node9" class="node">
<title>:feature:other&#45;console&#45;ip&#45;detail</title>
<ellipse fill="none" stroke="black" cx="3178.39" cy="-90" rx="153.27" ry="18"/>
<text text-anchor="middle" x="3178.39" y="-86.3" font-family="Times,serif" font-size="14.00">:feature:other&#45;console&#45;ip&#45;detail</text>
</g>
<!-- :feature:other&#45;console&#45;ip&#45;detail&#45;&gt;:core:designsystem -->
<g id="edge8" class="edge">
<title>:feature:other&#45;console&#45;ip&#45;detail&#45;&gt;:core:designsystem</title>
<path fill="none" stroke="black" d="M3070.82,-77.13C3052.67,-75.29 3034,-73.51 3016.39,-72 2768.72,-50.78 2477.12,-33.29 2324.55,-24.71"/>
<polygon fill="black" stroke="black" points="2324.43,-21.2 2314.25,-24.13 2324.04,-28.19 2324.43,-21.2"/>
</g>
<!-- :feature:other&#45;license&#45;detail -->
<g id="node10" class="node">
<title>:feature:other&#45;license&#45;detail</title>
<ellipse fill="none" stroke="black" cx="3489.39" cy="-90" rx="139.98" ry="18"/>
<text text-anchor="middle" x="3489.39" y="-86.3" font-family="Times,serif" font-size="14.00">:feature:other&#45;license&#45;detail</text>
</g>
<!-- :feature:other&#45;license&#45;detail&#45;&gt;:core:designsystem -->
<g id="edge9" class="edge">
<title>:feature:other&#45;license&#45;detail&#45;&gt;:core:designsystem</title>
<path fill="none" stroke="black" d="M3392.5,-77C3375.17,-75.12 3357.26,-73.36 3340.39,-72 2970.07,-42.15 2529.47,-27.36 2328.75,-21.76"/>
<polygon fill="black" stroke="black" points="2328.59,-18.26 2318.5,-21.48 2328.4,-25.25 2328.59,-18.26"/>
</g>
<!-- :feature:other&#45;server&#45;ip&#45;detail -->
<g id="node11" class="node">
<title>:feature:other&#45;server&#45;ip&#45;detail</title>
<ellipse fill="none" stroke="black" cx="3796.39" cy="-90" rx="148.67" ry="18"/>
<text text-anchor="middle" x="3796.39" y="-86.3" font-family="Times,serif" font-size="14.00">:feature:other&#45;server&#45;ip&#45;detail</text>
</g>
<!-- :feature:other&#45;server&#45;ip&#45;detail&#45;&gt;:core:designsystem -->
<g id="edge10" class="edge">
<title>:feature:other&#45;server&#45;ip&#45;detail&#45;&gt;:core:designsystem</title>
<path fill="none" stroke="black" d="M3693.64,-76.89C3675.26,-75.03 3656.27,-73.29 3638.39,-72 3151.16,-36.73 2568.03,-24.31 2329.37,-20.49"/>
<polygon fill="black" stroke="black" points="2329.36,-16.99 2319.3,-20.33 2329.25,-23.99 2329.36,-16.99"/>
</g>
<!-- :feature:other&#45;volume&#45;detail -->
<g id="node12" class="node">
<title>:feature:other&#45;volume&#45;detail</title>
<ellipse fill="none" stroke="black" cx="4104.39" cy="-90" rx="141.07" ry="18"/>
<text text-anchor="middle" x="4104.39" y="-86.3" font-family="Times,serif" font-size="14.00">:feature:other&#45;volume&#45;detail</text>
</g>
<!-- :feature:other&#45;volume&#45;detail&#45;&gt;:core:designsystem -->
<g id="edge11" class="edge">
<title>:feature:other&#45;volume&#45;detail&#45;&gt;:core:designsystem</title>
<path fill="none" stroke="black" d="M4007.67,-76.85C3989.97,-74.97 3971.64,-73.24 3954.39,-72 3342.31,-28.04 2606.2,-20.48 2330.66,-19.23"/>
<polygon fill="black" stroke="black" points="2330.27,-15.73 2320.26,-19.18 2330.24,-22.73 2330.27,-15.73"/>
</g>
</g>
</svg>
