<?xml version="1.0" encoding="UTF-8" standalone="no"?>
<!DOCTYPE svg PUBLIC "-//W3C//DTD SVG 1.1//EN"
 "http://www.w3.org/Graphics/SVG/1.1/DTD/svg11.dtd">
<!-- Generated by graphviz version 2.43.0 (0)
 -->
<!-- Title: G Pages: 1 -->
<svg width="2822pt" height="116pt"
 viewBox="0.00 0.00 2822.02 116.00" xmlns="http://www.w3.org/2000/svg" xmlns:xlink="http://www.w3.org/1999/xlink">
<g id="graph0" class="graph" transform="scale(1 1) rotate(0) translate(4 112)">
<title>G</title>
<polygon fill="white" stroke="transparent" points="-4,4 -4,-112 2818.02,-112 2818.02,4 -4,4"/>
<!-- :feature:gt7&#45;ps5&#45;readout&#45;my&#45;bestlap&#45;detail -->
<g id="node1" class="node">
<title>:feature:gt7&#45;ps5&#45;readout&#45;my&#45;bestlap&#45;detail</title>
<ellipse fill="none" stroke="black" cx="207.98" cy="-90" rx="207.96" ry="18"/>
<text text-anchor="middle" x="207.98" y="-86.3" font-family="Times,serif" font-size="14.00">:feature:gt7&#45;ps5&#45;readout&#45;my&#45;bestlap&#45;detail</text>
</g>
<!-- :core:designsystem -->
<g id="node2" class="node">
<title>:core:designsystem</title>
<ellipse fill="none" stroke="black" cx="1644.98" cy="-18" rx="100.98" ry="18"/>
<text text-anchor="middle" x="1644.98" y="-14.3" font-family="Times,serif" font-size="14.00">:core:designsystem</text>
</g>
<!-- :feature:gt7&#45;ps5&#45;readout&#45;my&#45;bestlap&#45;detail&#45;&gt;:core:designsystem -->
<g id="edge1" class="edge">
<title>:feature:gt7&#45;ps5&#45;readout&#45;my&#45;bestlap&#45;detail&#45;&gt;:core:designsystem</title>
<path fill="none" stroke="black" d="M352.09,-77C376.41,-75.18 401.41,-73.44 424.98,-72 835.14,-47.03 1323.57,-29.49 1536.63,-22.44"/>
<polygon fill="black" stroke="black" points="1537,-25.93 1546.88,-22.1 1536.77,-18.94 1537,-25.93"/>
</g>
<!-- :feature:lmu&#45;windows&#45;readout&#45;flag&#45;detail -->
<g id="node3" class="node">
<title>:feature:lmu&#45;windows&#45;readout&#45;flag&#45;detail</title>
<ellipse fill="none" stroke="black" cx="633.98" cy="-90" rx="199.56" ry="18"/>
<text text-anchor="middle" x="633.98" y="-86.3" font-family="Times,serif" font-size="14.00">:feature:lmu&#45;windows&#45;readout&#45;flag&#45;detail</text>
</g>
<!-- :feature:lmu&#45;windows&#45;readout&#45;flag&#45;detail&#45;&gt;:core:designsystem -->
<g id="edge2" class="edge">
<title>:feature:lmu&#45;windows&#45;readout&#45;flag&#45;detail&#45;&gt;:core:designsystem</title>
<path fill="none" stroke="black" d="M774.65,-77.2C797.17,-75.4 820.21,-73.61 841.98,-72 1092.77,-53.48 1387.85,-34.8 1540.97,-25.34"/>
<polygon fill="black" stroke="black" points="1541.53,-28.82 1551.3,-24.71 1541.1,-21.83 1541.53,-28.82"/>
</g>
<!-- :feature:lmu&#45;windows&#45;readout&#45;vehicle&#45;approach&#45;detail -->
<g id="node4" class="node">
<title>:feature:lmu&#45;windows&#45;readout&#45;vehicle&#45;approach&#45;detail</title>
<ellipse fill="none" stroke="black" cx="1111.98" cy="-90" rx="260.75" ry="18"/>
<text text-anchor="middle" x="1111.98" y="-86.3" font-family="Times,serif" font-size="14.00">:feature:lmu&#45;windows&#45;readout&#45;vehicle&#45;approach&#45;detail</text>
</g>
<!-- :feature:lmu&#45;windows&#45;readout&#45;vehicle&#45;approach&#45;detail&#45;&gt;:core:designsystem -->
<g id="edge3" class="edge">
<title>:feature:lmu&#45;windows&#45;readout&#45;vehicle&#45;approach&#45;detail&#45;&gt;:core:designsystem</title>
<path fill="none" stroke="black" d="M1227.31,-73.85C1326.15,-60.87 1466.44,-42.45 1556.59,-30.61"/>
<polygon fill="black" stroke="black" points="1557.05,-34.08 1566.51,-29.31 1556.14,-27.14 1557.05,-34.08"/>
</g>
<!-- :feature:lmu&#45;windows&#45;readout&#45;vehicle&#45;damage&#45;detail -->
<g id="node5" class="node">
<title>:feature:lmu&#45;windows&#45;readout&#45;vehicle&#45;damage&#45;detail</title>
<ellipse fill="none" stroke="black" cx="1644.98" cy="-90" rx="254.55" ry="18"/>
<text text-anchor="middle" x="1644.98" y="-86.3" font-family="Times,serif" font-size="14.00">:feature:lmu&#45;windows&#45;readout&#45;vehicle&#45;damage&#45;detail</text>
</g>
<!-- :feature:lmu&#45;windows&#45;readout&#45;vehicle&#45;damage&#45;detail&#45;&gt;:core:designsystem -->
<g id="edge4" class="edge">
<title>:feature:lmu&#45;windows&#45;readout&#45;vehicle&#45;damage&#45;detail&#45;&gt;:core:designsystem</title>
<path fill="none" stroke="black" d="M1644.98,-71.7C1644.98,-63.98 1644.98,-54.71 1644.98,-46.11"/>
<polygon fill="black" stroke="black" points="1648.48,-46.1 1644.98,-36.1 1641.48,-46.1 1648.48,-46.1"/>
</g>
<!-- :feature:other&#45;license&#45;detail -->
<g id="node6" class="node">
<title>:feature:other&#45;license&#45;detail</title>
<ellipse fill="none" stroke="black" cx="2057.98" cy="-90" rx="139.98" ry="18"/>
<text text-anchor="middle" x="2057.98" y="-86.3" font-family="Times,serif" font-size="14.00">:feature:other&#45;license&#45;detail</text>
</g>
<!-- :feature:other&#45;license&#45;detail&#45;&gt;:core:designsystem -->
<g id="edge5" class="edge">
<title>:feature:other&#45;license&#45;detail&#45;&gt;:core:designsystem</title>
<path fill="none" stroke="black" d="M1976.88,-75.25C1904.07,-62.91 1797.8,-44.9 1725.25,-32.6"/>
<polygon fill="black" stroke="black" points="1725.69,-29.13 1715.24,-30.91 1724.52,-36.03 1725.69,-29.13"/>
</g>
<!-- :feature:other&#45;server&#45;ip&#45;detail -->
<g id="node7" class="node">
<title>:feature:other&#45;server&#45;ip&#45;detail</title>
<ellipse fill="none" stroke="black" cx="2364.98" cy="-90" rx="148.67" ry="18"/>
<text text-anchor="middle" x="2364.98" y="-86.3" font-family="Times,serif" font-size="14.00">:feature:other&#45;server&#45;ip&#45;detail</text>
</g>
<!-- :feature:other&#45;server&#45;ip&#45;detail&#45;&gt;:core:designsystem -->
<g id="edge6" class="edge">
<title>:feature:other&#45;server&#45;ip&#45;detail&#45;&gt;:core:designsystem</title>
<path fill="none" stroke="black" d="M2258.76,-77.38C2241.46,-75.54 2223.73,-73.69 2206.98,-72 2044.35,-55.58 1855.07,-38.06 1742.9,-27.84"/>
<polygon fill="black" stroke="black" points="1742.9,-24.33 1732.63,-26.91 1742.27,-31.3 1742.9,-24.33"/>
</g>
<!-- :feature:other&#45;volume&#45;detail -->
<g id="node8" class="node">
<title>:feature:other&#45;volume&#45;detail</title>
<ellipse fill="none" stroke="black" cx="2672.98" cy="-90" rx="141.07" ry="18"/>
<text text-anchor="middle" x="2672.98" y="-86.3" font-family="Times,serif" font-size="14.00">:feature:other&#45;volume&#45;detail</text>
</g>
<!-- :feature:other&#45;volume&#45;detail&#45;&gt;:core:designsystem -->
<g id="edge7" class="edge">
<title>:feature:other&#45;volume&#45;detail&#45;&gt;:core:designsystem</title>
<path fill="none" stroke="black" d="M2574.21,-77.06C2557.15,-75.21 2539.56,-73.44 2522.98,-72 2245.25,-47.9 1917.15,-31.22 1751.74,-23.63"/>
<polygon fill="black" stroke="black" points="1751.72,-20.13 1741.57,-23.17 1751.4,-27.12 1751.72,-20.13"/>
</g>
</g>
</svg>
