<?xml version="1.0" encoding="UTF-8" standalone="no"?>
<!DOCTYPE svg PUBLIC "-//W3C//DTD SVG 1.1//EN"
 "http://www.w3.org/Graphics/SVG/1.1/DTD/svg11.dtd">
<!-- Generated by graphviz version 2.43.0 (0)
 -->
<!-- Title: G Pages: 1 -->
<svg width="2006pt" height="188pt"
 viewBox="0.00 0.00 2005.73 188.00" xmlns="http://www.w3.org/2000/svg" xmlns:xlink="http://www.w3.org/1999/xlink">
<g id="graph0" class="graph" transform="scale(1 1) rotate(0) translate(4 184)">
<title>G</title>
<polygon fill="white" stroke="transparent" points="-4,4 -4,-184 2001.73,-184 2001.73,4 -4,4"/>
<!-- :server -->
<g id="node1" class="node">
<title>:server</title>
<ellipse fill="none" stroke="black" cx="43.55" cy="-90" rx="43.59" ry="18"/>
<text text-anchor="middle" x="43.55" y="-86.3" font-family="Times,serif" font-size="14.00">:server</text>
</g>
<!-- :core:domain -->
<g id="node2" class="node">
<title>:core:domain</title>
<ellipse fill="none" stroke="black" cx="715.55" cy="-18" rx="70.69" ry="18"/>
<text text-anchor="middle" x="715.55" y="-14.3" font-family="Times,serif" font-size="14.00">:core:domain</text>
</g>
<!-- :server&#45;&gt;:core:domain -->
<g id="edge1" class="edge">
<title>:server&#45;&gt;:core:domain</title>
<path fill="none" stroke="black" d="M76.4,-78.14C84.54,-75.79 93.3,-73.55 101.55,-72 290.58,-36.51 516.88,-24.73 634.91,-20.86"/>
<polygon fill="black" stroke="black" points="635.06,-24.35 644.95,-20.54 634.84,-17.36 635.06,-24.35"/>
</g>
<!-- :app:desktopApp -->
<g id="node3" class="node">
<title>:app:desktopApp</title>
<ellipse fill="none" stroke="black" cx="157.55" cy="-162" rx="88.28" ry="18"/>
<text text-anchor="middle" x="157.55" y="-158.3" font-family="Times,serif" font-size="14.00">:app:desktopApp</text>
</g>
<!-- :app:desktopApp&#45;&gt;:core:domain -->
<g id="edge3" class="edge">
<title>:app:desktopApp&#45;&gt;:core:domain</title>
<path fill="none" stroke="black" d="M145.08,-144.05C132.21,-124.33 116.36,-91.92 134.55,-72 167.61,-35.78 483.19,-24.03 634.88,-20.45"/>
<polygon fill="black" stroke="black" points="635.16,-23.95 645.07,-20.22 635,-16.95 635.16,-23.95"/>
</g>
<!-- :core:data -->
<g id="node4" class="node">
<title>:core:data</title>
<ellipse fill="none" stroke="black" cx="200.55" cy="-90" rx="57.39" ry="18"/>
<text text-anchor="middle" x="200.55" y="-86.3" font-family="Times,serif" font-size="14.00">:core:data</text>
</g>
<!-- :app:desktopApp&#45;&gt;:core:data -->
<g id="edge2" class="edge">
<title>:app:desktopApp&#45;&gt;:core:data</title>
<path fill="none" stroke="black" d="M167.96,-144.05C173.03,-135.8 179.23,-125.7 184.86,-116.54"/>
<polygon fill="black" stroke="black" points="187.98,-118.14 190.23,-107.79 182.02,-114.48 187.98,-118.14"/>
</g>
<!-- :core:data&#45;&gt;:core:domain -->
<g id="edge4" class="edge">
<title>:core:data&#45;&gt;:core:domain</title>
<path fill="none" stroke="black" d="M241.9,-77.44C250.03,-75.43 258.52,-73.5 266.55,-72 396,-47.8 548.64,-32.56 638.46,-24.92"/>
<polygon fill="black" stroke="black" points="638.89,-28.4 648.56,-24.07 638.3,-21.42 638.89,-28.4"/>
</g>
<!-- :feature:lmu&#45;connection -->
<g id="node5" class="node">
<title>:feature:lmu&#45;connection</title>
<ellipse fill="none" stroke="black" cx="396.55" cy="-90" rx="120.78" ry="18"/>
<text text-anchor="middle" x="396.55" y="-86.3" font-family="Times,serif" font-size="14.00">:feature:lmu&#45;connection</text>
</g>
<!-- :feature:lmu&#45;connection&#45;&gt;:core:domain -->
<g id="edge5" class="edge">
<title>:feature:lmu&#45;connection&#45;&gt;:core:domain</title>
<path fill="none" stroke="black" d="M461.49,-74.75C517.74,-62.41 598.54,-44.67 653.83,-32.54"/>
<polygon fill="black" stroke="black" points="654.83,-35.91 663.84,-30.35 653.33,-29.07 654.83,-35.91"/>
</g>
<!-- :feature:narrator -->
<g id="node6" class="node">
<title>:feature:narrator</title>
<ellipse fill="none" stroke="black" cx="624.55" cy="-90" rx="89.08" ry="18"/>
<text text-anchor="middle" x="624.55" y="-86.3" font-family="Times,serif" font-size="14.00">:feature:narrator</text>
</g>
<!-- :feature:narrator&#45;&gt;:core:domain -->
<g id="edge6" class="edge">
<title>:feature:narrator&#45;&gt;:core:domain</title>
<path fill="none" stroke="black" d="M646.11,-72.41C658.1,-63.19 673.18,-51.59 686.23,-41.55"/>
<polygon fill="black" stroke="black" points="688.66,-44.1 694.45,-35.23 684.39,-38.55 688.66,-44.1"/>
</g>
<!-- :feature:other -->
<g id="node7" class="node">
<title>:feature:other</title>
<ellipse fill="none" stroke="black" cx="806.55" cy="-90" rx="75.29" ry="18"/>
<text text-anchor="middle" x="806.55" y="-86.3" font-family="Times,serif" font-size="14.00">:feature:other</text>
</g>
<!-- :feature:other&#45;&gt;:core:domain -->
<g id="edge7" class="edge">
<title>:feature:other&#45;&gt;:core:domain</title>
<path fill="none" stroke="black" d="M784.98,-72.41C772.99,-63.19 757.91,-51.59 744.87,-41.55"/>
<polygon fill="black" stroke="black" points="746.7,-38.55 736.64,-35.23 742.44,-44.1 746.7,-38.55"/>
</g>
<!-- :feature:readout -->
<g id="node8" class="node">
<title>:feature:readout</title>
<ellipse fill="none" stroke="black" cx="986.55" cy="-90" rx="86.38" ry="18"/>
<text text-anchor="middle" x="986.55" y="-86.3" font-family="Times,serif" font-size="14.00">:feature:readout</text>
</g>
<!-- :feature:readout&#45;&gt;:core:domain -->
<g id="edge8" class="edge">
<title>:feature:readout&#45;&gt;:core:domain</title>
<path fill="none" stroke="black" d="M934.62,-75.59C888.56,-63.69 821.36,-46.33 773.56,-33.98"/>
<polygon fill="black" stroke="black" points="774.22,-30.54 763.66,-31.43 772.47,-37.32 774.22,-30.54"/>
</g>
<!-- :feature:readout&#45;flag -->
<g id="node9" class="node">
<title>:feature:readout&#45;flag</title>
<ellipse fill="none" stroke="black" cx="1197.55" cy="-90" rx="106.68" ry="18"/>
<text text-anchor="middle" x="1197.55" y="-86.3" font-family="Times,serif" font-size="14.00">:feature:readout&#45;flag</text>
</g>
<!-- :feature:readout&#45;flag&#45;&gt;:core:domain -->
<g id="edge9" class="edge">
<title>:feature:readout&#45;flag&#45;&gt;:core:domain</title>
<path fill="none" stroke="black" d="M1119.86,-77.6C1107.06,-75.72 1093.93,-73.8 1081.55,-72 978.54,-56.99 859.21,-39.74 785.55,-29.1"/>
<polygon fill="black" stroke="black" points="785.86,-25.61 775.46,-27.64 784.86,-32.54 785.86,-25.61"/>
</g>
<!-- :feature:readout&#45;vehicle&#45;approach -->
<g id="node10" class="node">
<title>:feature:readout&#45;vehicle&#45;approach</title>
<ellipse fill="none" stroke="black" cx="1489.55" cy="-90" rx="167.87" ry="18"/>
<text text-anchor="middle" x="1489.55" y="-86.3" font-family="Times,serif" font-size="14.00">:feature:readout&#45;vehicle&#45;approach</text>
</g>
<!-- :feature:readout&#45;vehicle&#45;approach&#45;&gt;:core:domain -->
<g id="edge10" class="edge">
<title>:feature:readout&#45;vehicle&#45;approach&#45;&gt;:core:domain</title>
<path fill="none" stroke="black" d="M1369.8,-77.31C1350.97,-75.5 1331.73,-73.68 1313.55,-72 1125.91,-54.62 905.05,-35.36 791.47,-25.54"/>
<polygon fill="black" stroke="black" points="791.75,-22.05 781.49,-24.67 791.15,-29.02 791.75,-22.05"/>
</g>
<!-- :feature:readout&#45;vehicle&#45;damage -->
<g id="node11" class="node">
<title>:feature:readout&#45;vehicle&#45;damage</title>
<ellipse fill="none" stroke="black" cx="1836.55" cy="-90" rx="161.37" ry="18"/>
<text text-anchor="middle" x="1836.55" y="-86.3" font-family="Times,serif" font-size="14.00">:feature:readout&#45;vehicle&#45;damage</text>
</g>
<!-- :feature:readout&#45;vehicle&#45;damage&#45;&gt;:core:domain -->
<g id="edge11" class="edge">
<title>:feature:readout&#45;vehicle&#45;damage&#45;&gt;:core:domain</title>
<path fill="none" stroke="black" d="M1724.13,-77.05C1704.93,-75.22 1685.18,-73.45 1666.55,-72 1343.91,-46.89 958.79,-29.2 795.27,-22.26"/>
<polygon fill="black" stroke="black" points="794.96,-18.74 784.82,-21.82 794.67,-25.73 794.96,-18.74"/>
</g>
</g>
</svg>
