<?xml version="1.0" encoding="UTF-8" standalone="no"?>
<!DOCTYPE svg PUBLIC "-//W3C//DTD SVG 1.1//EN"
 "http://www.w3.org/Graphics/SVG/1.1/DTD/svg11.dtd">
<!-- Generated by graphviz version 2.43.0 (0)
 -->
<!-- Title: G Pages: 1 -->
<svg width="420pt" height="188pt"
 viewBox="0.00 0.00 420.43 188.00" xmlns="http://www.w3.org/2000/svg" xmlns:xlink="http://www.w3.org/1999/xlink">
<g id="graph0" class="graph" transform="scale(1 1) rotate(0) translate(4 184)">
<title>G</title>
<polygon fill="white" stroke="transparent" points="-4,4 -4,-184 416.43,-184 416.43,4 -4,4"/>
<!-- :app:shared -->
<g id="node1" class="node">
<title>:app:shared</title>
<ellipse fill="none" stroke="black" cx="185.74" cy="-162" rx="65.79" ry="18"/>
<text text-anchor="middle" x="185.74" y="-158.3" font-family="Times,serif" font-size="14.00">:app:shared</text>
</g>
<!-- :core:designsystem -->
<g id="node2" class="node">
<title>:core:designsystem</title>
<ellipse fill="none" stroke="black" cx="100.74" cy="-18" rx="100.98" ry="18"/>
<text text-anchor="middle" x="100.74" y="-14.3" font-family="Times,serif" font-size="14.00">:core:designsystem</text>
</g>
<!-- :app:shared&#45;&gt;:core:designsystem -->
<g id="edge1" class="edge">
<title>:app:shared&#45;&gt;:core:designsystem</title>
<path fill="none" stroke="black" d="M158.49,-145.41C144.83,-136.22 129.22,-123.39 119.74,-108 108.31,-89.45 103.68,-65.05 101.84,-46.49"/>
<polygon fill="black" stroke="black" points="105.32,-46.03 101.05,-36.33 98.34,-46.57 105.32,-46.03"/>
</g>
<!-- :feature:telemetry&#45;log&#45;detail -->
<g id="node3" class="node">
<title>:feature:telemetry&#45;log&#45;detail</title>
<ellipse fill="none" stroke="black" cx="270.74" cy="-90" rx="141.88" ry="18"/>
<text text-anchor="middle" x="270.74" y="-86.3" font-family="Times,serif" font-size="14.00">:feature:telemetry&#45;log&#45;detail</text>
</g>
<!-- :app:shared&#45;&gt;:feature:telemetry&#45;log&#45;detail -->
<g id="edge2" class="edge">
<title>:app:shared&#45;&gt;:feature:telemetry&#45;log&#45;detail</title>
<path fill="none" stroke="black" d="M205.46,-144.76C216.37,-135.77 230.14,-124.44 242.21,-114.49"/>
<polygon fill="black" stroke="black" points="244.75,-116.94 250.25,-107.88 240.3,-111.53 244.75,-116.94"/>
</g>
<!-- :feature:telemetry&#45;log&#45;detail&#45;&gt;:core:designsystem -->
<g id="edge4" class="edge">
<title>:feature:telemetry&#45;log&#45;detail&#45;&gt;:core:designsystem</title>
<path fill="none" stroke="black" d="M230.88,-72.59C206.15,-62.4 174.23,-49.26 148.19,-38.54"/>
<polygon fill="black" stroke="black" points="149.47,-35.28 138.89,-34.71 146.8,-41.75 149.47,-35.28"/>
</g>
<!-- :core:domain -->
<g id="node4" class="node">
<title>:core:domain</title>
<ellipse fill="none" stroke="black" cx="290.74" cy="-18" rx="70.69" ry="18"/>
<text text-anchor="middle" x="290.74" y="-14.3" font-family="Times,serif" font-size="14.00">:core:domain</text>
</g>
<!-- :feature:telemetry&#45;log&#45;detail&#45;&gt;:core:domain -->
<g id="edge3" class="edge">
<title>:feature:telemetry&#45;log&#45;detail&#45;&gt;:core:domain</title>
<path fill="none" stroke="black" d="M275.68,-71.7C277.91,-63.9 280.6,-54.51 283.08,-45.83"/>
<polygon fill="black" stroke="black" points="286.47,-46.68 285.85,-36.1 279.74,-44.76 286.47,-46.68"/>
</g>
</g>
</svg>
