<?xml version="1.0" encoding="UTF-8" standalone="no"?>
<!DOCTYPE svg PUBLIC "-//W3C//DTD SVG 1.1//EN"
 "http://www.w3.org/Graphics/SVG/1.1/DTD/svg11.dtd">
<!-- Generated by graphviz version 2.43.0 (0)
 -->
<!-- Title: G Pages: 1 -->
<svg width="254pt" height="260pt"
 viewBox="0.00 0.00 254.09 260.00" xmlns="http://www.w3.org/2000/svg" xmlns:xlink="http://www.w3.org/1999/xlink">
<g id="graph0" class="graph" transform="scale(1 1) rotate(0) translate(4 256)">
<title>G</title>
<polygon fill="white" stroke="transparent" points="-4,4 -4,-256 250.09,-256 250.09,4 -4,4"/>
<!-- :app:desktopApp -->
<g id="node1" class="node">
<title>:app:desktopApp</title>
<ellipse fill="none" stroke="black" cx="133.44" cy="-234" rx="88.28" ry="18"/>
<text text-anchor="middle" x="133.44" y="-230.3" font-family="Times,serif" font-size="14.00">:app:desktopApp</text>
</g>
<!-- :app:shared -->
<g id="node2" class="node">
<title>:app:shared</title>
<ellipse fill="none" stroke="black" cx="180.44" cy="-162" rx="65.79" ry="18"/>
<text text-anchor="middle" x="180.44" y="-158.3" font-family="Times,serif" font-size="14.00">:app:shared</text>
</g>
<!-- :app:desktopApp&#45;&gt;:app:shared -->
<g id="edge1" class="edge">
<title>:app:desktopApp&#45;&gt;:app:shared</title>
<path fill="none" stroke="black" d="M144.82,-216.05C150.42,-207.71 157.28,-197.49 163.49,-188.25"/>
<polygon fill="black" stroke="black" points="166.5,-190.04 169.17,-179.79 160.69,-186.14 166.5,-190.04"/>
</g>
<!-- :feature:readout -->
<g id="node3" class="node">
<title>:feature:readout</title>
<ellipse fill="none" stroke="black" cx="86.44" cy="-90" rx="86.38" ry="18"/>
<text text-anchor="middle" x="86.44" y="-86.3" font-family="Times,serif" font-size="14.00">:feature:readout</text>
</g>
<!-- :app:desktopApp&#45;&gt;:feature:readout -->
<g id="edge2" class="edge">
<title>:app:desktopApp&#45;&gt;:feature:readout</title>
<path fill="none" stroke="black" d="M122.85,-215.89C116.99,-205.77 109.99,-192.52 105.44,-180 98.13,-159.86 93.23,-136.08 90.25,-118.17"/>
<polygon fill="black" stroke="black" points="93.68,-117.45 88.66,-108.12 86.76,-118.54 93.68,-117.45"/>
</g>
<!-- :app:shared&#45;&gt;:feature:readout -->
<g id="edge3" class="edge">
<title>:app:shared&#45;&gt;:feature:readout</title>
<path fill="none" stroke="black" d="M158.64,-144.76C146.24,-135.53 130.53,-123.83 116.93,-113.7"/>
<polygon fill="black" stroke="black" points="118.89,-110.8 108.78,-107.63 114.71,-116.41 118.89,-110.8"/>
</g>
<!-- :core:domain -->
<g id="node4" class="node">
<title>:core:domain</title>
<ellipse fill="none" stroke="black" cx="143.44" cy="-18" rx="70.69" ry="18"/>
<text text-anchor="middle" x="143.44" y="-14.3" font-family="Times,serif" font-size="14.00">:core:domain</text>
</g>
<!-- :app:shared&#45;&gt;:core:domain -->
<g id="edge4" class="edge">
<title>:app:shared&#45;&gt;:core:domain</title>
<path fill="none" stroke="black" d="M183.79,-143.79C186.64,-125.5 189.15,-95.98 181.44,-72 178.17,-61.81 172.13,-51.93 165.82,-43.5"/>
<polygon fill="black" stroke="black" points="168.49,-41.24 159.51,-35.61 163.02,-45.61 168.49,-41.24"/>
</g>
<!-- :feature:readout&#45;&gt;:core:domain -->
<g id="edge5" class="edge">
<title>:feature:readout&#45;&gt;:core:domain</title>
<path fill="none" stroke="black" d="M100.24,-72.05C107.17,-63.54 115.7,-53.07 123.34,-43.68"/>
<polygon fill="black" stroke="black" points="126.17,-45.75 129.77,-35.79 120.74,-41.33 126.17,-45.75"/>
</g>
</g>
</svg>
