<?xml version="1.0" encoding="UTF-8" standalone="no"?>
<!DOCTYPE svg PUBLIC "-//W3C//DTD SVG 1.1//EN"
 "http://www.w3.org/Graphics/SVG/1.1/DTD/svg11.dtd">
<!-- Generated by graphviz version 2.43.0 (0)
 -->
<!-- Title: G Pages: 1 -->
<svg width="435pt" height="188pt"
 viewBox="0.00 0.00 434.58 188.00" xmlns="http://www.w3.org/2000/svg" xmlns:xlink="http://www.w3.org/1999/xlink">
<g id="graph0" class="graph" transform="scale(1 1) rotate(0) translate(4 184)">
<title>G</title>
<polygon fill="white" stroke="transparent" points="-4,4 -4,-184 430.58,-184 430.58,4 -4,4"/>
<!-- :app:shared -->
<g id="node1" class="node">
<title>:app:shared</title>
<ellipse fill="none" stroke="black" cx="188.74" cy="-162" rx="65.79" ry="18"/>
<text text-anchor="middle" x="188.74" y="-158.3" font-family="Times,serif" font-size="14.00">:app:shared</text>
</g>
<!-- :core:designsystem -->
<g id="node2" class="node">
<title>:core:designsystem</title>
<ellipse fill="none" stroke="black" cx="100.74" cy="-18" rx="100.98" ry="18"/>
<text text-anchor="middle" x="100.74" y="-14.3" font-family="Times,serif" font-size="14.00">:core:designsystem</text>
</g>
<!-- :app:shared&#45;&gt;:core:designsystem -->
<g id="edge1" class="edge">
<title>:app:shared&#45;&gt;:core:designsystem</title>
<path fill="none" stroke="black" d="M160.25,-145.67C145.97,-136.56 129.66,-123.71 119.74,-108 108.04,-89.46 103.44,-64.87 101.68,-46.23"/>
<polygon fill="black" stroke="black" points="105.16,-45.76 100.94,-36.04 98.18,-46.27 105.16,-45.76"/>
</g>
<!-- :feature:other&#45;server&#45;ip&#45;detail -->
<g id="node3" class="node">
<title>:feature:other&#45;server&#45;ip&#45;detail</title>
<ellipse fill="none" stroke="black" cx="277.74" cy="-90" rx="148.67" ry="18"/>
<text text-anchor="middle" x="277.74" y="-86.3" font-family="Times,serif" font-size="14.00">:feature:other&#45;server&#45;ip&#45;detail</text>
</g>
<!-- :app:shared&#45;&gt;:feature:other&#45;server&#45;ip&#45;detail -->
<g id="edge2" class="edge">
<title>:app:shared&#45;&gt;:feature:other&#45;server&#45;ip&#45;detail</title>
<path fill="none" stroke="black" d="M209.38,-144.76C220.92,-135.69 235.51,-124.22 248.24,-114.21"/>
<polygon fill="black" stroke="black" points="250.59,-116.81 256.28,-107.88 246.26,-111.31 250.59,-116.81"/>
</g>
<!-- :feature:other&#45;server&#45;ip&#45;detail&#45;&gt;:core:designsystem -->
<g id="edge4" class="edge">
<title>:feature:other&#45;server&#45;ip&#45;detail&#45;&gt;:core:designsystem</title>
<path fill="none" stroke="black" d="M236.24,-72.59C210.28,-62.32 176.73,-49.05 149.5,-38.28"/>
<polygon fill="black" stroke="black" points="150.74,-35.01 140.16,-34.59 148.17,-41.52 150.74,-35.01"/>
</g>
<!-- :core:domain -->
<g id="node4" class="node">
<title>:core:domain</title>
<ellipse fill="none" stroke="black" cx="290.74" cy="-18" rx="70.69" ry="18"/>
<text text-anchor="middle" x="290.74" y="-14.3" font-family="Times,serif" font-size="14.00">:core:domain</text>
</g>
<!-- :feature:other&#45;server&#45;ip&#45;detail&#45;&gt;:core:domain -->
<g id="edge3" class="edge">
<title>:feature:other&#45;server&#45;ip&#45;detail&#45;&gt;:core:domain</title>
<path fill="none" stroke="black" d="M280.95,-71.7C282.39,-63.98 284.11,-54.71 285.71,-46.11"/>
<polygon fill="black" stroke="black" points="289.18,-46.58 287.56,-36.1 282.3,-45.3 289.18,-46.58"/>
</g>
</g>
</svg>
