<?xml version="1.0" encoding="UTF-8" standalone="no"?>
<!DOCTYPE svg PUBLIC "-//W3C//DTD SVG 1.1//EN"
 "http://www.w3.org/Graphics/SVG/1.1/DTD/svg11.dtd">
<!-- Generated by graphviz version 2.43.0 (0)
 -->
<!-- Title: G Pages: 1 -->
<svg width="376pt" height="260pt"
 viewBox="0.00 0.00 376.48 260.00" xmlns="http://www.w3.org/2000/svg" xmlns:xlink="http://www.w3.org/1999/xlink">
<g id="graph0" class="graph" transform="scale(1 1) rotate(0) translate(4 256)">
<title>G</title>
<polygon fill="white" stroke="transparent" points="-4,4 -4,-256 372.48,-256 372.48,4 -4,4"/>
<!-- :app:androidApp -->
<g id="node1" class="node">
<title>:app:androidApp</title>
<ellipse fill="none" stroke="black" cx="87.09" cy="-234" rx="87.18" ry="18"/>
<text text-anchor="middle" x="87.09" y="-230.3" font-family="Times,serif" font-size="14.00">:app:androidApp</text>
</g>
<!-- :app:shared -->
<g id="node2" class="node">
<title>:app:shared</title>
<ellipse fill="none" stroke="black" cx="184.09" cy="-162" rx="65.79" ry="18"/>
<text text-anchor="middle" x="184.09" y="-158.3" font-family="Times,serif" font-size="14.00">:app:shared</text>
</g>
<!-- :app:androidApp&#45;&gt;:app:shared -->
<g id="edge1" class="edge">
<title>:app:androidApp&#45;&gt;:app:shared</title>
<path fill="none" stroke="black" d="M110.08,-216.41C123.07,-207.04 139.47,-195.2 153.54,-185.05"/>
<polygon fill="black" stroke="black" points="155.88,-187.68 161.94,-178.99 151.78,-182 155.88,-187.68"/>
</g>
<!-- :core:domain -->
<g id="node3" class="node">
<title>:core:domain</title>
<ellipse fill="none" stroke="black" cx="184.09" cy="-18" rx="70.69" ry="18"/>
<text text-anchor="middle" x="184.09" y="-14.3" font-family="Times,serif" font-size="14.00">:core:domain</text>
</g>
<!-- :app:androidApp&#45;&gt;:core:domain -->
<g id="edge2" class="edge">
<title>:app:androidApp&#45;&gt;:core:domain</title>
<path fill="none" stroke="black" d="M79.85,-215.92C67.84,-184.68 47.79,-117.41 76.09,-72 87.05,-54.41 105.75,-42.49 124.53,-34.49"/>
<polygon fill="black" stroke="black" points="125.99,-37.68 134.02,-30.77 123.43,-31.16 125.99,-37.68"/>
</g>
<!-- :feature:announcer -->
<g id="node4" class="node">
<title>:feature:announcer</title>
<ellipse fill="none" stroke="black" cx="184.09" cy="-90" rx="98.58" ry="18"/>
<text text-anchor="middle" x="184.09" y="-86.3" font-family="Times,serif" font-size="14.00">:feature:announcer</text>
</g>
<!-- :app:androidApp&#45;&gt;:feature:announcer -->
<g id="edge3" class="edge">
<title>:app:androidApp&#45;&gt;:feature:announcer</title>
<path fill="none" stroke="black" d="M87.81,-215.83C89.37,-196.77 94.2,-165.82 109.09,-144 117.71,-131.37 130.39,-120.77 142.89,-112.45"/>
<polygon fill="black" stroke="black" points="144.86,-115.34 151.45,-107.05 141.13,-109.42 144.86,-115.34"/>
</g>
<!-- :app:shared&#45;&gt;:feature:announcer -->
<g id="edge7" class="edge">
<title>:app:shared&#45;&gt;:feature:announcer</title>
<path fill="none" stroke="black" d="M184.09,-143.7C184.09,-135.98 184.09,-126.71 184.09,-118.11"/>
<polygon fill="black" stroke="black" points="187.59,-118.1 184.09,-108.1 180.59,-118.1 187.59,-118.1"/>
</g>
<!-- :feature:announcer&#45;&gt;:core:domain -->
<g id="edge8" class="edge">
<title>:feature:announcer&#45;&gt;:core:domain</title>
<path fill="none" stroke="black" d="M184.09,-71.7C184.09,-63.98 184.09,-54.71 184.09,-46.11"/>
<polygon fill="black" stroke="black" points="187.59,-46.1 184.09,-36.1 180.59,-46.1 187.59,-46.1"/>
</g>
<!-- :app:desktopApp -->
<g id="node5" class="node">
<title>:app:desktopApp</title>
<ellipse fill="none" stroke="black" cx="280.09" cy="-234" rx="88.28" ry="18"/>
<text text-anchor="middle" x="280.09" y="-230.3" font-family="Times,serif" font-size="14.00">:app:desktopApp</text>
</g>
<!-- :app:desktopApp&#45;&gt;:app:shared -->
<g id="edge4" class="edge">
<title>:app:desktopApp&#45;&gt;:app:shared</title>
<path fill="none" stroke="black" d="M257.34,-216.41C244.49,-207.04 228.25,-195.2 214.33,-185.05"/>
<polygon fill="black" stroke="black" points="216.16,-182.05 206.02,-178.99 212.04,-187.71 216.16,-182.05"/>
</g>
<!-- :app:desktopApp&#45;&gt;:core:domain -->
<g id="edge5" class="edge">
<title>:app:desktopApp&#45;&gt;:core:domain</title>
<path fill="none" stroke="black" d="M287.5,-215.92C299.79,-184.69 320.41,-117.43 292.09,-72 281.13,-54.41 262.44,-42.49 243.66,-34.49"/>
<polygon fill="black" stroke="black" points="244.75,-31.16 234.17,-30.77 242.2,-37.68 244.75,-31.16"/>
</g>
<!-- :app:desktopApp&#45;&gt;:feature:announcer -->
<g id="edge6" class="edge">
<title>:app:desktopApp&#45;&gt;:feature:announcer</title>
<path fill="none" stroke="black" d="M279.6,-215.83C278.29,-196.78 273.83,-165.84 259.09,-144 250.54,-131.33 237.88,-120.72 225.38,-112.4"/>
<polygon fill="black" stroke="black" points="227.13,-109.36 216.8,-107 223.41,-115.29 227.13,-109.36"/>
</g>
</g>
</svg>
