<?xml version="1.0" encoding="UTF-8" standalone="no"?>
<!DOCTYPE svg PUBLIC "-//W3C//DTD SVG 1.1//EN"
 "http://www.w3.org/Graphics/SVG/1.1/DTD/svg11.dtd">
<!-- Generated by graphviz version 2.43.0 (0)
 -->
<!-- Title: G Pages: 1 -->
<svg width="370pt" height="188pt"
 viewBox="0.00 0.00 369.58 188.00" xmlns="http://www.w3.org/2000/svg" xmlns:xlink="http://www.w3.org/1999/xlink">
<g id="graph0" class="graph" transform="scale(1 1) rotate(0) translate(4 184)">
<title>G</title>
<polygon fill="white" stroke="transparent" points="-4,4 -4,-184 365.58,-184 365.58,4 -4,4"/>
<!-- :app:shared -->
<g id="node1" class="node">
<title>:app:shared</title>
<ellipse fill="none" stroke="black" cx="166.74" cy="-162" rx="65.79" ry="18"/>
<text text-anchor="middle" x="166.74" y="-158.3" font-family="Times,serif" font-size="14.00">:app:shared</text>
</g>
<!-- :core:designsystem -->
<g id="node2" class="node">
<title>:core:designsystem</title>
<ellipse fill="none" stroke="black" cx="100.74" cy="-18" rx="100.98" ry="18"/>
<text text-anchor="middle" x="100.74" y="-14.3" font-family="Times,serif" font-size="14.00">:core:designsystem</text>
</g>
<!-- :app:shared&#45;&gt;:core:designsystem -->
<g id="edge1" class="edge">
<title>:app:shared&#45;&gt;:core:designsystem</title>
<path fill="none" stroke="black" d="M148.1,-144.58C138.22,-134.89 126.73,-121.83 119.74,-108 109.97,-88.67 105.22,-64.52 102.91,-46.25"/>
<polygon fill="black" stroke="black" points="106.38,-45.82 101.81,-36.26 99.42,-46.58 106.38,-45.82"/>
</g>
<!-- :feature:readout&#45;list -->
<g id="node3" class="node">
<title>:feature:readout&#45;list</title>
<ellipse fill="none" stroke="black" cx="232.74" cy="-90" rx="103.98" ry="18"/>
<text text-anchor="middle" x="232.74" y="-86.3" font-family="Times,serif" font-size="14.00">:feature:readout&#45;list</text>
</g>
<!-- :app:shared&#45;&gt;:feature:readout&#45;list -->
<g id="edge2" class="edge">
<title>:app:shared&#45;&gt;:feature:readout&#45;list</title>
<path fill="none" stroke="black" d="M182.38,-144.41C190.56,-135.73 200.73,-124.95 209.79,-115.34"/>
<polygon fill="black" stroke="black" points="212.44,-117.63 216.75,-107.96 207.35,-112.83 212.44,-117.63"/>
</g>
<!-- :feature:readout&#45;list&#45;&gt;:core:designsystem -->
<g id="edge4" class="edge">
<title>:feature:readout&#45;list&#45;&gt;:core:designsystem</title>
<path fill="none" stroke="black" d="M202.13,-72.76C183.85,-63.07 160.43,-50.65 140.71,-40.19"/>
<polygon fill="black" stroke="black" points="142.12,-36.98 131.65,-35.39 138.84,-43.17 142.12,-36.98"/>
</g>
<!-- :core:domain -->
<g id="node4" class="node">
<title>:core:domain</title>
<ellipse fill="none" stroke="black" cx="290.74" cy="-18" rx="70.69" ry="18"/>
<text text-anchor="middle" x="290.74" y="-14.3" font-family="Times,serif" font-size="14.00">:core:domain</text>
</g>
<!-- :feature:readout&#45;list&#45;&gt;:core:domain -->
<g id="edge3" class="edge">
<title>:feature:readout&#45;list&#45;&gt;:core:domain</title>
<path fill="none" stroke="black" d="M246.78,-72.05C253.83,-63.54 262.51,-53.07 270.29,-43.68"/>
<polygon fill="black" stroke="black" points="273.15,-45.72 276.83,-35.79 267.75,-41.26 273.15,-45.72"/>
</g>
</g>
</svg>
