<?xml version="1.0" encoding="UTF-8" standalone="no"?>
<!DOCTYPE svg PUBLIC "-//W3C//DTD SVG 1.1//EN"
 "http://www.w3.org/Graphics/SVG/1.1/DTD/svg11.dtd">
<!-- Generated by graphviz version 2.43.0 (0)
 -->
<!-- Title: G Pages: 1 -->
<svg width="186pt" height="188pt"
 viewBox="0.00 0.00 186.08 188.00" xmlns="http://www.w3.org/2000/svg" xmlns:xlink="http://www.w3.org/1999/xlink">
<g id="graph0" class="graph" transform="scale(1 1) rotate(0) translate(4 184)">
<title>G</title>
<polygon fill="white" stroke="transparent" points="-4,4 -4,-184 182.08,-184 182.08,4 -4,4"/>
<!-- :app:shared -->
<g id="node1" class="node">
<title>:app:shared</title>
<ellipse fill="none" stroke="black" cx="89.04" cy="-162" rx="65.79" ry="18"/>
<text text-anchor="middle" x="89.04" y="-158.3" font-family="Times,serif" font-size="14.00">:app:shared</text>
</g>
<!-- :feature:narrator -->
<g id="node2" class="node">
<title>:feature:narrator</title>
<ellipse fill="none" stroke="black" cx="89.04" cy="-90" rx="89.08" ry="18"/>
<text text-anchor="middle" x="89.04" y="-86.3" font-family="Times,serif" font-size="14.00">:feature:narrator</text>
</g>
<!-- :app:shared&#45;&gt;:feature:narrator -->
<g id="edge1" class="edge">
<title>:app:shared&#45;&gt;:feature:narrator</title>
<path fill="none" stroke="black" d="M89.04,-143.7C89.04,-135.98 89.04,-126.71 89.04,-118.11"/>
<polygon fill="black" stroke="black" points="92.54,-118.1 89.04,-108.1 85.54,-118.1 92.54,-118.1"/>
</g>
<!-- :core:domain -->
<g id="node3" class="node">
<title>:core:domain</title>
<ellipse fill="none" stroke="black" cx="89.04" cy="-18" rx="70.69" ry="18"/>
<text text-anchor="middle" x="89.04" y="-14.3" font-family="Times,serif" font-size="14.00">:core:domain</text>
</g>
<!-- :feature:narrator&#45;&gt;:core:domain -->
<g id="edge2" class="edge">
<title>:feature:narrator&#45;&gt;:core:domain</title>
<path fill="none" stroke="black" d="M89.04,-71.7C89.04,-63.98 89.04,-54.71 89.04,-46.11"/>
<polygon fill="black" stroke="black" points="92.54,-46.1 89.04,-36.1 85.54,-46.1 92.54,-46.1"/>
</g>
</g>
</svg>
