<?xml version="1.0" encoding="UTF-8" standalone="no"?>
<!DOCTYPE svg PUBLIC "-//W3C//DTD SVG 1.1//EN"
 "http://www.w3.org/Graphics/SVG/1.1/DTD/svg11.dtd">
<!-- Generated by graphviz version 2.43.0 (0)
 -->
<!-- Title: G Pages: 1 -->
<svg width="443pt" height="188pt"
 viewBox="0.00 0.00 443.46 188.00" xmlns="http://www.w3.org/2000/svg" xmlns:xlink="http://www.w3.org/1999/xlink">
<g id="graph0" class="graph" transform="scale(1 1) rotate(0) translate(4 184)">
<title>G</title>
<polygon fill="white" stroke="transparent" points="-4,4 -4,-184 439.46,-184 439.46,4 -4,4"/>
<!-- :app:shared -->
<g id="node1" class="node">
<title>:app:shared</title>
<ellipse fill="none" stroke="black" cx="217.73" cy="-162" rx="65.79" ry="18"/>
<text text-anchor="middle" x="217.73" y="-158.3" font-family="Times,serif" font-size="14.00">:app:shared</text>
</g>
<!-- :feature:lmu&#45;readout&#45;vehicle&#45;approach&#45;detail -->
<g id="node2" class="node">
<title>:feature:lmu&#45;readout&#45;vehicle&#45;approach&#45;detail</title>
<ellipse fill="none" stroke="black" cx="217.73" cy="-90" rx="217.96" ry="18"/>
<text text-anchor="middle" x="217.73" y="-86.3" font-family="Times,serif" font-size="14.00">:feature:lmu&#45;readout&#45;vehicle&#45;approach&#45;detail</text>
</g>
<!-- :app:shared&#45;&gt;:feature:lmu&#45;readout&#45;vehicle&#45;approach&#45;detail -->
<g id="edge1" class="edge">
<title>:app:shared&#45;&gt;:feature:lmu&#45;readout&#45;vehicle&#45;approach&#45;detail</title>
<path fill="none" stroke="black" d="M217.73,-143.7C217.73,-135.98 217.73,-126.71 217.73,-118.11"/>
<polygon fill="black" stroke="black" points="221.23,-118.1 217.73,-108.1 214.23,-118.1 221.23,-118.1"/>
</g>
<!-- :core:domain -->
<g id="node3" class="node">
<title>:core:domain</title>
<ellipse fill="none" stroke="black" cx="122.73" cy="-18" rx="70.69" ry="18"/>
<text text-anchor="middle" x="122.73" y="-14.3" font-family="Times,serif" font-size="14.00">:core:domain</text>
</g>
<!-- :feature:lmu&#45;readout&#45;vehicle&#45;approach&#45;detail&#45;&gt;:core:domain -->
<g id="edge2" class="edge">
<title>:feature:lmu&#45;readout&#45;vehicle&#45;approach&#45;detail&#45;&gt;:core:domain</title>
<path fill="none" stroke="black" d="M194.73,-72.05C182.18,-62.81 166.49,-51.24 152.96,-41.27"/>
<polygon fill="black" stroke="black" points="154.99,-38.42 144.86,-35.31 150.84,-44.06 154.99,-38.42"/>
</g>
<!-- :core:designsystem -->
<g id="node4" class="node">
<title>:core:designsystem</title>
<ellipse fill="none" stroke="black" cx="312.73" cy="-18" rx="100.98" ry="18"/>
<text text-anchor="middle" x="312.73" y="-14.3" font-family="Times,serif" font-size="14.00">:core:designsystem</text>
</g>
<!-- :feature:lmu&#45;readout&#45;vehicle&#45;approach&#45;detail&#45;&gt;:core:designsystem -->
<g id="edge3" class="edge">
<title>:feature:lmu&#45;readout&#45;vehicle&#45;approach&#45;detail&#45;&gt;:core:designsystem</title>
<path fill="none" stroke="black" d="M240.73,-72.05C253.19,-62.87 268.75,-51.41 282.21,-41.49"/>
<polygon fill="black" stroke="black" points="284.3,-44.3 290.27,-35.55 280.15,-38.66 284.3,-44.3"/>
</g>
</g>
</svg>
