<?xml version="1.0" encoding="UTF-8" standalone="no"?>
<!DOCTYPE svg PUBLIC "-//W3C//DTD SVG 1.1//EN"
 "http://www.w3.org/Graphics/SVG/1.1/DTD/svg11.dtd">
<!-- Generated by graphviz version 2.43.0 (0)
 -->
<!-- Title: G Pages: 1 -->
<svg width="241pt" height="188pt"
 viewBox="0.00 0.00 240.63 188.00" xmlns="http://www.w3.org/2000/svg" xmlns:xlink="http://www.w3.org/1999/xlink">
<g id="graph0" class="graph" transform="scale(1 1) rotate(0) translate(4 184)">
<title>G</title>
<polygon fill="white" stroke="transparent" points="-4,4 -4,-184 236.63,-184 236.63,4 -4,4"/>
<!-- :app:shared -->
<g id="node1" class="node">
<title>:app:shared</title>
<ellipse fill="none" stroke="black" cx="161.79" cy="-162" rx="65.79" ry="18"/>
<text text-anchor="middle" x="161.79" y="-158.3" font-family="Times,serif" font-size="14.00">:app:shared</text>
</g>
<!-- :feature:announcer -->
<g id="node2" class="node">
<title>:feature:announcer</title>
<ellipse fill="none" stroke="black" cx="98.79" cy="-90" rx="98.58" ry="18"/>
<text text-anchor="middle" x="98.79" y="-86.3" font-family="Times,serif" font-size="14.00">:feature:announcer</text>
</g>
<!-- :app:shared&#45;&gt;:feature:announcer -->
<g id="edge1" class="edge">
<title>:app:shared&#45;&gt;:feature:announcer</title>
<path fill="none" stroke="black" d="M146.86,-144.41C139.13,-135.82 129.53,-125.16 120.96,-115.63"/>
<polygon fill="black" stroke="black" points="123.34,-113.05 114.05,-107.96 118.14,-117.73 123.34,-113.05"/>
</g>
<!-- :core:domain -->
<g id="node3" class="node">
<title>:core:domain</title>
<ellipse fill="none" stroke="black" cx="161.79" cy="-18" rx="70.69" ry="18"/>
<text text-anchor="middle" x="161.79" y="-14.3" font-family="Times,serif" font-size="14.00">:core:domain</text>
</g>
<!-- :app:shared&#45;&gt;:core:domain -->
<g id="edge2" class="edge">
<title>:app:shared&#45;&gt;:core:domain</title>
<path fill="none" stroke="black" d="M181.23,-144.46C190.91,-134.92 201.63,-122.05 206.79,-108 212.31,-92.98 212.31,-87.02 206.79,-72 202.88,-61.35 195.78,-51.38 188.35,-43.02"/>
<polygon fill="black" stroke="black" points="190.66,-40.37 181.23,-35.54 185.59,-45.19 190.66,-40.37"/>
</g>
<!-- :feature:announcer&#45;&gt;:core:domain -->
<g id="edge3" class="edge">
<title>:feature:announcer&#45;&gt;:core:domain</title>
<path fill="none" stroke="black" d="M114.04,-72.05C121.78,-63.46 131.32,-52.86 139.83,-43.4"/>
<polygon fill="black" stroke="black" points="142.59,-45.56 146.68,-35.79 137.39,-40.88 142.59,-45.56"/>
</g>
</g>
</svg>
