<?xml version="1.0" encoding="UTF-8" standalone="no"?>
<!DOCTYPE svg PUBLIC "-//W3C//DTD SVG 1.1//EN"
 "http://www.w3.org/Graphics/SVG/1.1/DTD/svg11.dtd">
<!-- Generated by graphviz version 2.43.0 (0)
 -->
<!-- Title: G Pages: 1 -->
<svg width="391pt" height="188pt"
 viewBox="0.00 0.00 391.13 188.00" xmlns="http://www.w3.org/2000/svg" xmlns:xlink="http://www.w3.org/1999/xlink">
<g id="graph0" class="graph" transform="scale(1 1) rotate(0) translate(4 184)">
<title>G</title>
<polygon fill="white" stroke="transparent" points="-4,4 -4,-184 387.13,-184 387.13,4 -4,4"/>
<!-- :app:shared -->
<g id="node1" class="node">
<title>:app:shared</title>
<ellipse fill="none" stroke="black" cx="177.74" cy="-162" rx="65.79" ry="18"/>
<text text-anchor="middle" x="177.74" y="-158.3" font-family="Times,serif" font-size="14.00">:app:shared</text>
</g>
<!-- :core:designsystem -->
<g id="node2" class="node">
<title>:core:designsystem</title>
<ellipse fill="none" stroke="black" cx="100.74" cy="-18" rx="100.98" ry="18"/>
<text text-anchor="middle" x="100.74" y="-14.3" font-family="Times,serif" font-size="14.00">:core:designsystem</text>
</g>
<!-- :app:shared&#45;&gt;:core:designsystem -->
<g id="edge1" class="edge">
<title>:app:shared&#45;&gt;:core:designsystem</title>
<path fill="none" stroke="black" d="M154.09,-144.96C142.02,-135.57 128.15,-122.68 119.74,-108 108.91,-89.09 104.23,-64.72 102.22,-46.27"/>
<polygon fill="black" stroke="black" points="105.7,-45.82 101.32,-36.17 98.73,-46.44 105.7,-45.82"/>
</g>
<!-- :feature:gt7&#45;ps5&#45;narrator -->
<g id="node3" class="node">
<title>:feature:gt7&#45;ps5&#45;narrator</title>
<ellipse fill="none" stroke="black" cx="255.74" cy="-90" rx="127.28" ry="18"/>
<text text-anchor="middle" x="255.74" y="-86.3" font-family="Times,serif" font-size="14.00">:feature:gt7&#45;ps5&#45;narrator</text>
</g>
<!-- :app:shared&#45;&gt;:feature:gt7&#45;ps5&#45;narrator -->
<g id="edge2" class="edge">
<title>:app:shared&#45;&gt;:feature:gt7&#45;ps5&#45;narrator</title>
<path fill="none" stroke="black" d="M196.23,-144.41C206.09,-135.56 218.39,-124.52 229.25,-114.77"/>
<polygon fill="black" stroke="black" points="231.74,-117.24 236.85,-107.96 227.07,-112.03 231.74,-117.24"/>
</g>
<!-- :feature:gt7&#45;ps5&#45;narrator&#45;&gt;:core:designsystem -->
<g id="edge4" class="edge">
<title>:feature:gt7&#45;ps5&#45;narrator&#45;&gt;:core:designsystem</title>
<path fill="none" stroke="black" d="M219.4,-72.59C197.3,-62.61 168.91,-49.79 145.44,-39.19"/>
<polygon fill="black" stroke="black" points="146.61,-35.87 136.05,-34.95 143.73,-42.25 146.61,-35.87"/>
</g>
<!-- :core:domain -->
<g id="node4" class="node">
<title>:core:domain</title>
<ellipse fill="none" stroke="black" cx="290.74" cy="-18" rx="70.69" ry="18"/>
<text text-anchor="middle" x="290.74" y="-14.3" font-family="Times,serif" font-size="14.00">:core:domain</text>
</g>
<!-- :feature:gt7&#45;ps5&#45;narrator&#45;&gt;:core:domain -->
<g id="edge3" class="edge">
<title>:feature:gt7&#45;ps5&#45;narrator&#45;&gt;:core:domain</title>
<path fill="none" stroke="black" d="M264.39,-71.7C268.38,-63.73 273.19,-54.1 277.61,-45.26"/>
<polygon fill="black" stroke="black" points="280.85,-46.61 282.19,-36.1 274.59,-43.48 280.85,-46.61"/>
</g>
</g>
</svg>
