<?xml version="1.0" encoding="UTF-8" standalone="no"?>
<!DOCTYPE svg PUBLIC "-//W3C//DTD SVG 1.1//EN"
 "http://www.w3.org/Graphics/SVG/1.1/DTD/svg11.dtd">
<!-- Generated by graphviz version 2.43.0 (0)
 -->
<!-- Title: G Pages: 1 -->
<svg width="233pt" height="188pt"
 viewBox="0.00 0.00 232.79 188.00" xmlns="http://www.w3.org/2000/svg" xmlns:xlink="http://www.w3.org/1999/xlink">
<g id="graph0" class="graph" transform="scale(1 1) rotate(0) translate(4 184)">
<title>G</title>
<polygon fill="white" stroke="transparent" points="-4,4 -4,-184 228.79,-184 228.79,4 -4,4"/>
<!-- :app:shared -->
<g id="node1" class="node">
<title>:app:shared</title>
<ellipse fill="none" stroke="black" cx="70.84" cy="-162" rx="65.79" ry="18"/>
<text text-anchor="middle" x="70.84" y="-158.3" font-family="Times,serif" font-size="14.00">:app:shared</text>
</g>
<!-- :core:domain -->
<g id="node2" class="node">
<title>:core:domain</title>
<ellipse fill="none" stroke="black" cx="70.84" cy="-18" rx="70.69" ry="18"/>
<text text-anchor="middle" x="70.84" y="-14.3" font-family="Times,serif" font-size="14.00">:core:domain</text>
</g>
<!-- :app:shared&#45;&gt;:core:domain -->
<g id="edge1" class="edge">
<title>:app:shared&#45;&gt;:core:domain</title>
<path fill="none" stroke="black" d="M53.53,-144.61C44.59,-134.93 34.58,-121.87 29.84,-108 24.67,-92.86 24.67,-87.14 29.84,-72 33.34,-61.76 39.71,-51.97 46.4,-43.65"/>
<polygon fill="black" stroke="black" points="49.23,-45.72 53.1,-35.85 43.93,-41.15 49.23,-45.72"/>
</g>
<!-- :feature:other&#45;list -->
<g id="node3" class="node">
<title>:feature:other&#45;list</title>
<ellipse fill="none" stroke="black" cx="131.84" cy="-90" rx="92.88" ry="18"/>
<text text-anchor="middle" x="131.84" y="-86.3" font-family="Times,serif" font-size="14.00">:feature:other&#45;list</text>
</g>
<!-- :app:shared&#45;&gt;:feature:other&#45;list -->
<g id="edge2" class="edge">
<title>:app:shared&#45;&gt;:feature:other&#45;list</title>
<path fill="none" stroke="black" d="M85.3,-144.41C92.79,-135.82 102.08,-125.16 110.38,-115.63"/>
<polygon fill="black" stroke="black" points="113.14,-117.79 117.07,-107.96 107.86,-113.2 113.14,-117.79"/>
</g>
<!-- :feature:other&#45;list&#45;&gt;:core:domain -->
<g id="edge3" class="edge">
<title>:feature:other&#45;list&#45;&gt;:core:domain</title>
<path fill="none" stroke="black" d="M117.08,-72.05C109.58,-63.46 100.35,-52.86 92.1,-43.4"/>
<polygon fill="black" stroke="black" points="94.68,-41.03 85.47,-35.79 89.41,-45.63 94.68,-41.03"/>
</g>
</g>
</svg>
