<?xml version="1.0" encoding="UTF-8" standalone="no"?>
<!DOCTYPE svg PUBLIC "-//W3C//DTD SVG 1.1//EN"
 "http://www.w3.org/Graphics/SVG/1.1/DTD/svg11.dtd">
<!-- Generated by graphviz version 2.43.0 (0)
 -->
<!-- Title: G Pages: 1 -->
<svg width="370pt" height="188pt"
 viewBox="0.00 0.00 369.58 188.00" xmlns="http://www.w3.org/2000/svg" xmlns:xlink="http://www.w3.org/1999/xlink">
<g id="graph0" class="graph" transform="scale(1 1) rotate(0) translate(4 184)">
<title>G</title>
<polygon fill="white" stroke="transparent" points="-4,4 -4,-184 365.58,-184 365.58,4 -4,4"/>
<!-- :app:shared -->
<g id="node1" class="node">
<title>:app:shared</title>
<ellipse fill="none" stroke="black" cx="160.74" cy="-162" rx="65.79" ry="18"/>
<text text-anchor="middle" x="160.74" y="-158.3" font-family="Times,serif" font-size="14.00">:app:shared</text>
</g>
<!-- :core:designsystem -->
<g id="node2" class="node">
<title>:core:designsystem</title>
<ellipse fill="none" stroke="black" cx="100.74" cy="-18" rx="100.98" ry="18"/>
<text text-anchor="middle" x="100.74" y="-14.3" font-family="Times,serif" font-size="14.00">:core:designsystem</text>
</g>
<!-- :app:shared&#45;&gt;:core:designsystem -->
<g id="edge1" class="edge">
<title>:app:shared&#45;&gt;:core:designsystem</title>
<path fill="none" stroke="black" d="M144.53,-144.17C135.94,-134.34 125.91,-121.3 119.74,-108 110.63,-88.35 105.82,-64.22 103.33,-46.05"/>
<polygon fill="black" stroke="black" points="106.8,-45.61 102.11,-36.11 99.86,-46.47 106.8,-45.61"/>
</g>
<!-- :feature:other&#45;list -->
<g id="node3" class="node">
<title>:feature:other&#45;list</title>
<ellipse fill="none" stroke="black" cx="221.74" cy="-90" rx="92.88" ry="18"/>
<text text-anchor="middle" x="221.74" y="-86.3" font-family="Times,serif" font-size="14.00">:feature:other&#45;list</text>
</g>
<!-- :app:shared&#45;&gt;:feature:other&#45;list -->
<g id="edge2" class="edge">
<title>:app:shared&#45;&gt;:feature:other&#45;list</title>
<path fill="none" stroke="black" d="M175.2,-144.41C182.68,-135.82 191.97,-125.16 200.28,-115.63"/>
<polygon fill="black" stroke="black" points="203.03,-117.79 206.96,-107.96 197.76,-113.2 203.03,-117.79"/>
</g>
<!-- :feature:other&#45;list&#45;&gt;:core:designsystem -->
<g id="edge4" class="edge">
<title>:feature:other&#45;list&#45;&gt;:core:designsystem</title>
<path fill="none" stroke="black" d="M193.68,-72.76C177.15,-63.2 156.04,-50.99 138.11,-40.62"/>
<polygon fill="black" stroke="black" points="139.48,-37.37 129.07,-35.39 135.98,-43.43 139.48,-37.37"/>
</g>
<!-- :core:domain -->
<g id="node4" class="node">
<title>:core:domain</title>
<ellipse fill="none" stroke="black" cx="290.74" cy="-18" rx="70.69" ry="18"/>
<text text-anchor="middle" x="290.74" y="-14.3" font-family="Times,serif" font-size="14.00">:core:domain</text>
</g>
<!-- :feature:other&#45;list&#45;&gt;:core:domain -->
<g id="edge3" class="edge">
<title>:feature:other&#45;list&#45;&gt;:core:domain</title>
<path fill="none" stroke="black" d="M238.44,-72.05C247,-63.37 257.58,-52.64 266.97,-43.11"/>
<polygon fill="black" stroke="black" points="269.66,-45.37 274.19,-35.79 264.68,-40.45 269.66,-45.37"/>
</g>
</g>
</svg>
