<?xml version="1.0" encoding="UTF-8" standalone="no"?>
<!DOCTYPE svg PUBLIC "-//W3C//DTD SVG 1.1//EN"
 "http://www.w3.org/Graphics/SVG/1.1/DTD/svg11.dtd">
<!-- Generated by graphviz version 2.43.0 (0)
 -->
<!-- Title: G Pages: 1 -->
<svg width="517pt" height="188pt"
 viewBox="0.00 0.00 517.27 188.00" xmlns="http://www.w3.org/2000/svg" xmlns:xlink="http://www.w3.org/1999/xlink">
<g id="graph0" class="graph" transform="scale(1 1) rotate(0) translate(4 184)">
<title>G</title>
<polygon fill="white" stroke="transparent" points="-4,4 -4,-184 513.27,-184 513.27,4 -4,4"/>
<!-- :app:shared -->
<g id="node1" class="node">
<title>:app:shared</title>
<ellipse fill="none" stroke="black" cx="195.74" cy="-162" rx="65.79" ry="18"/>
<text text-anchor="middle" x="195.74" y="-158.3" font-family="Times,serif" font-size="14.00">:app:shared</text>
</g>
<!-- :core:designsystem -->
<g id="node2" class="node">
<title>:core:designsystem</title>
<ellipse fill="none" stroke="black" cx="100.74" cy="-18" rx="100.98" ry="18"/>
<text text-anchor="middle" x="100.74" y="-14.3" font-family="Times,serif" font-size="14.00">:core:designsystem</text>
</g>
<!-- :app:shared&#45;&gt;:core:designsystem -->
<g id="edge1" class="edge">
<title>:app:shared&#45;&gt;:core:designsystem</title>
<path fill="none" stroke="black" d="M152.52,-148.15C133.09,-139.98 112.03,-127.22 100.74,-108 89.83,-89.42 90.81,-64.69 93.95,-46.01"/>
<polygon fill="black" stroke="black" points="97.41,-46.55 95.93,-36.06 90.55,-45.19 97.41,-46.55"/>
</g>
<!-- :feature:other&#45;readout&#45;start&#45;sound&#45;detail -->
<g id="node3" class="node">
<title>:feature:other&#45;readout&#45;start&#45;sound&#45;detail</title>
<ellipse fill="none" stroke="black" cx="309.74" cy="-90" rx="199.56" ry="18"/>
<text text-anchor="middle" x="309.74" y="-86.3" font-family="Times,serif" font-size="14.00">:feature:other&#45;readout&#45;start&#45;sound&#45;detail</text>
</g>
<!-- :app:shared&#45;&gt;:feature:other&#45;readout&#45;start&#45;sound&#45;detail -->
<g id="edge2" class="edge">
<title>:app:shared&#45;&gt;:feature:other&#45;readout&#45;start&#45;sound&#45;detail</title>
<path fill="none" stroke="black" d="M221.32,-145.29C236.75,-135.82 256.65,-123.6 273.66,-113.16"/>
<polygon fill="black" stroke="black" points="275.56,-116.09 282.25,-107.88 271.9,-110.13 275.56,-116.09"/>
</g>
<!-- :feature:other&#45;readout&#45;start&#45;sound&#45;detail&#45;&gt;:core:designsystem -->
<g id="edge4" class="edge">
<title>:feature:other&#45;readout&#45;start&#45;sound&#45;detail&#45;&gt;:core:designsystem</title>
<path fill="none" stroke="black" d="M260.48,-72.5C229.09,-61.99 188.37,-48.35 155.9,-37.47"/>
<polygon fill="black" stroke="black" points="156.7,-34.05 146.11,-34.19 154.48,-40.69 156.7,-34.05"/>
</g>
<!-- :core:domain -->
<g id="node4" class="node">
<title>:core:domain</title>
<ellipse fill="none" stroke="black" cx="309.74" cy="-18" rx="70.69" ry="18"/>
<text text-anchor="middle" x="309.74" y="-14.3" font-family="Times,serif" font-size="14.00">:core:domain</text>
</g>
<!-- :feature:other&#45;readout&#45;start&#45;sound&#45;detail&#45;&gt;:core:domain -->
<g id="edge3" class="edge">
<title>:feature:other&#45;readout&#45;start&#45;sound&#45;detail&#45;&gt;:core:domain</title>
<path fill="none" stroke="black" d="M309.74,-71.7C309.74,-63.98 309.74,-54.71 309.74,-46.11"/>
<polygon fill="black" stroke="black" points="313.24,-46.1 309.74,-36.1 306.24,-46.1 313.24,-46.1"/>
</g>
</g>
</svg>
