<?xml version="1.0" encoding="UTF-8" standalone="no"?>
<!DOCTYPE svg PUBLIC "-//W3C//DTD SVG 1.1//EN"
 "http://www.w3.org/Graphics/SVG/1.1/DTD/svg11.dtd">
<!-- Generated by graphviz version 2.43.0 (0)
 -->
<!-- Title: G Pages: 1 -->
<svg width="505pt" height="188pt"
 viewBox="0.00 0.00 504.56 188.00" xmlns="http://www.w3.org/2000/svg" xmlns:xlink="http://www.w3.org/1999/xlink">
<g id="graph0" class="graph" transform="scale(1 1) rotate(0) translate(4 184)">
<title>G</title>
<polygon fill="white" stroke="transparent" points="-4,4 -4,-184 500.56,-184 500.56,4 -4,4"/>
<!-- :app:shared -->
<g id="node1" class="node">
<title>:app:shared</title>
<ellipse fill="none" stroke="black" cx="248.28" cy="-162" rx="65.79" ry="18"/>
<text text-anchor="middle" x="248.28" y="-158.3" font-family="Times,serif" font-size="14.00">:app:shared</text>
</g>
<!-- :feature:ace&#45;windows&#45;readout&#45;remaining&#45;fuel&#45;detail -->
<g id="node2" class="node">
<title>:feature:ace&#45;windows&#45;readout&#45;remaining&#45;fuel&#45;detail</title>
<ellipse fill="none" stroke="black" cx="248.28" cy="-90" rx="248.06" ry="18"/>
<text text-anchor="middle" x="248.28" y="-86.3" font-family="Times,serif" font-size="14.00">:feature:ace&#45;windows&#45;readout&#45;remaining&#45;fuel&#45;detail</text>
</g>
<!-- :app:shared&#45;&gt;:feature:ace&#45;windows&#45;readout&#45;remaining&#45;fuel&#45;detail -->
<g id="edge1" class="edge">
<title>:app:shared&#45;&gt;:feature:ace&#45;windows&#45;readout&#45;remaining&#45;fuel&#45;detail</title>
<path fill="none" stroke="black" d="M248.28,-143.7C248.28,-135.98 248.28,-126.71 248.28,-118.11"/>
<polygon fill="black" stroke="black" points="251.78,-118.1 248.28,-108.1 244.78,-118.1 251.78,-118.1"/>
</g>
<!-- :core:domain -->
<g id="node3" class="node">
<title>:core:domain</title>
<ellipse fill="none" stroke="black" cx="153.28" cy="-18" rx="70.69" ry="18"/>
<text text-anchor="middle" x="153.28" y="-14.3" font-family="Times,serif" font-size="14.00">:core:domain</text>
</g>
<!-- :feature:ace&#45;windows&#45;readout&#45;remaining&#45;fuel&#45;detail&#45;&gt;:core:domain -->
<g id="edge2" class="edge">
<title>:feature:ace&#45;windows&#45;readout&#45;remaining&#45;fuel&#45;detail&#45;&gt;:core:domain</title>
<path fill="none" stroke="black" d="M225.28,-72.05C212.73,-62.81 197.04,-51.24 183.51,-41.27"/>
<polygon fill="black" stroke="black" points="185.54,-38.42 175.41,-35.31 181.38,-44.06 185.54,-38.42"/>
</g>
<!-- :core:designsystem -->
<g id="node4" class="node">
<title>:core:designsystem</title>
<ellipse fill="none" stroke="black" cx="343.28" cy="-18" rx="100.98" ry="18"/>
<text text-anchor="middle" x="343.28" y="-14.3" font-family="Times,serif" font-size="14.00">:core:designsystem</text>
</g>
<!-- :feature:ace&#45;windows&#45;readout&#45;remaining&#45;fuel&#45;detail&#45;&gt;:core:designsystem -->
<g id="edge3" class="edge">
<title>:feature:ace&#45;windows&#45;readout&#45;remaining&#45;fuel&#45;detail&#45;&gt;:core:designsystem</title>
<path fill="none" stroke="black" d="M271.27,-72.05C283.73,-62.87 299.29,-51.41 312.76,-41.49"/>
<polygon fill="black" stroke="black" points="314.85,-44.3 320.82,-35.55 310.69,-38.66 314.85,-44.3"/>
</g>
</g>
</svg>
