<?xml version="1.0" encoding="UTF-8" standalone="no"?>
<!DOCTYPE svg PUBLIC "-//W3C//DTD SVG 1.1//EN"
 "http://www.w3.org/Graphics/SVG/1.1/DTD/svg11.dtd">
<!-- Generated by graphviz version 2.43.0 (0)
 -->
<!-- Title: G Pages: 1 -->
<svg width="371pt" height="188pt"
 viewBox="0.00 0.00 371.43 188.00" xmlns="http://www.w3.org/2000/svg" xmlns:xlink="http://www.w3.org/1999/xlink">
<g id="graph0" class="graph" transform="scale(1 1) rotate(0) translate(4 184)">
<title>G</title>
<polygon fill="white" stroke="transparent" points="-4,4 -4,-184 367.43,-184 367.43,4 -4,4"/>
<!-- :app:shared -->
<g id="node1" class="node">
<title>:app:shared</title>
<ellipse fill="none" stroke="black" cx="167.69" cy="-162" rx="65.79" ry="18"/>
<text text-anchor="middle" x="167.69" y="-158.3" font-family="Times,serif" font-size="14.00">:app:shared</text>
</g>
<!-- :feature:readout&#45;vehicle&#45;approach -->
<g id="node2" class="node">
<title>:feature:readout&#45;vehicle&#45;approach</title>
<ellipse fill="none" stroke="black" cx="167.69" cy="-90" rx="167.87" ry="18"/>
<text text-anchor="middle" x="167.69" y="-86.3" font-family="Times,serif" font-size="14.00">:feature:readout&#45;vehicle&#45;approach</text>
</g>
<!-- :app:shared&#45;&gt;:feature:readout&#45;vehicle&#45;approach -->
<g id="edge1" class="edge">
<title>:app:shared&#45;&gt;:feature:readout&#45;vehicle&#45;approach</title>
<path fill="none" stroke="black" d="M167.69,-143.7C167.69,-135.98 167.69,-126.71 167.69,-118.11"/>
<polygon fill="black" stroke="black" points="171.19,-118.1 167.69,-108.1 164.19,-118.1 171.19,-118.1"/>
</g>
<!-- :core:domain -->
<g id="node3" class="node">
<title>:core:domain</title>
<ellipse fill="none" stroke="black" cx="72.69" cy="-18" rx="70.69" ry="18"/>
<text text-anchor="middle" x="72.69" y="-14.3" font-family="Times,serif" font-size="14.00">:core:domain</text>
</g>
<!-- :feature:readout&#45;vehicle&#45;approach&#45;&gt;:core:domain -->
<g id="edge2" class="edge">
<title>:feature:readout&#45;vehicle&#45;approach&#45;&gt;:core:domain</title>
<path fill="none" stroke="black" d="M144.69,-72.05C132.14,-62.81 116.44,-51.24 102.91,-41.27"/>
<polygon fill="black" stroke="black" points="104.94,-38.42 94.82,-35.31 100.79,-44.06 104.94,-38.42"/>
</g>
<!-- :core:designsystem -->
<g id="node4" class="node">
<title>:core:designsystem</title>
<ellipse fill="none" stroke="black" cx="262.69" cy="-18" rx="100.98" ry="18"/>
<text text-anchor="middle" x="262.69" y="-14.3" font-family="Times,serif" font-size="14.00">:core:designsystem</text>
</g>
<!-- :feature:readout&#45;vehicle&#45;approach&#45;&gt;:core:designsystem -->
<g id="edge3" class="edge">
<title>:feature:readout&#45;vehicle&#45;approach&#45;&gt;:core:designsystem</title>
<path fill="none" stroke="black" d="M190.68,-72.05C203.14,-62.87 218.7,-51.41 232.16,-41.49"/>
<polygon fill="black" stroke="black" points="234.25,-44.3 240.23,-35.55 230.1,-38.66 234.25,-44.3"/>
</g>
</g>
</svg>
