<?xml version="1.0" encoding="UTF-8" standalone="no"?>
<!DOCTYPE svg PUBLIC "-//W3C//DTD SVG 1.1//EN"
 "http://www.w3.org/Graphics/SVG/1.1/DTD/svg11.dtd">
<!-- Generated by graphviz version 2.43.0 (0)
 -->
<!-- Title: G Pages: 1 -->
<svg width="217pt" height="188pt"
 viewBox="0.00 0.00 217.28 188.00" xmlns="http://www.w3.org/2000/svg" xmlns:xlink="http://www.w3.org/1999/xlink">
<g id="graph0" class="graph" transform="scale(1 1) rotate(0) translate(4 184)">
<title>G</title>
<polygon fill="white" stroke="transparent" points="-4,4 -4,-184 213.28,-184 213.28,4 -4,4"/>
<!-- :app:shared -->
<g id="node1" class="node">
<title>:app:shared</title>
<ellipse fill="none" stroke="black" cx="104.64" cy="-162" rx="65.79" ry="18"/>
<text text-anchor="middle" x="104.64" y="-158.3" font-family="Times,serif" font-size="14.00">:app:shared</text>
</g>
<!-- :feature:other&#45;detail -->
<g id="node2" class="node">
<title>:feature:other&#45;detail</title>
<ellipse fill="none" stroke="black" cx="104.64" cy="-90" rx="104.78" ry="18"/>
<text text-anchor="middle" x="104.64" y="-86.3" font-family="Times,serif" font-size="14.00">:feature:other&#45;detail</text>
</g>
<!-- :app:shared&#45;&gt;:feature:other&#45;detail -->
<g id="edge1" class="edge">
<title>:app:shared&#45;&gt;:feature:other&#45;detail</title>
<path fill="none" stroke="black" d="M104.64,-143.7C104.64,-135.98 104.64,-126.71 104.64,-118.11"/>
<polygon fill="black" stroke="black" points="108.14,-118.1 104.64,-108.1 101.14,-118.1 108.14,-118.1"/>
</g>
<!-- :core:domain -->
<g id="node3" class="node">
<title>:core:domain</title>
<ellipse fill="none" stroke="black" cx="104.64" cy="-18" rx="70.69" ry="18"/>
<text text-anchor="middle" x="104.64" y="-14.3" font-family="Times,serif" font-size="14.00">:core:domain</text>
</g>
<!-- :feature:other&#45;detail&#45;&gt;:core:domain -->
<g id="edge2" class="edge">
<title>:feature:other&#45;detail&#45;&gt;:core:domain</title>
<path fill="none" stroke="black" d="M104.64,-71.7C104.64,-63.98 104.64,-54.71 104.64,-46.11"/>
<polygon fill="black" stroke="black" points="108.14,-46.1 104.64,-36.1 101.14,-46.1 108.14,-46.1"/>
</g>
</g>
</svg>
