<?xml version="1.0" encoding="UTF-8" standalone="no"?>
<!DOCTYPE svg PUBLIC "-//W3C//DTD SVG 1.1//EN"
 "http://www.w3.org/Graphics/SVG/1.1/DTD/svg11.dtd">
<!-- Generated by graphviz version 2.43.0 (0)
 -->
<!-- Title: G Pages: 1 -->
<svg width="329pt" height="188pt"
 viewBox="0.00 0.00 328.77 188.00" xmlns="http://www.w3.org/2000/svg" xmlns:xlink="http://www.w3.org/1999/xlink">
<g id="graph0" class="graph" transform="scale(1 1) rotate(0) translate(4 184)">
<title>G</title>
<polygon fill="white" stroke="transparent" points="-4,4 -4,-184 324.77,-184 324.77,4 -4,4"/>
<!-- :app:shared -->
<g id="node1" class="node">
<title>:app:shared</title>
<ellipse fill="none" stroke="black" cx="76.38" cy="-162" rx="65.79" ry="18"/>
<text text-anchor="middle" x="76.38" y="-158.3" font-family="Times,serif" font-size="14.00">:app:shared</text>
</g>
<!-- :core:domain -->
<g id="node2" class="node">
<title>:core:domain</title>
<ellipse fill="none" stroke="black" cx="76.38" cy="-18" rx="70.69" ry="18"/>
<text text-anchor="middle" x="76.38" y="-14.3" font-family="Times,serif" font-size="14.00">:core:domain</text>
</g>
<!-- :app:shared&#45;&gt;:core:domain -->
<g id="edge1" class="edge">
<title>:app:shared&#45;&gt;:core:domain</title>
<path fill="none" stroke="black" d="M44.56,-145.99C29.77,-137.18 13.65,-124.5 5.38,-108 -1.79,-93.7 -1.79,-86.3 5.38,-72 11.98,-58.83 23.58,-48.1 35.51,-39.82"/>
<polygon fill="black" stroke="black" points="37.68,-42.59 44.19,-34.23 33.89,-36.71 37.68,-42.59"/>
</g>
<!-- :feature:lmu&#45;windows&#45;narrator -->
<g id="node3" class="node">
<title>:feature:lmu&#45;windows&#45;narrator</title>
<ellipse fill="none" stroke="black" cx="167.38" cy="-90" rx="153.27" ry="18"/>
<text text-anchor="middle" x="167.38" y="-86.3" font-family="Times,serif" font-size="14.00">:feature:lmu&#45;windows&#45;narrator</text>
</g>
<!-- :app:shared&#45;&gt;:feature:lmu&#45;windows&#45;narrator -->
<g id="edge2" class="edge">
<title>:app:shared&#45;&gt;:feature:lmu&#45;windows&#45;narrator</title>
<path fill="none" stroke="black" d="M97.48,-144.76C109.29,-135.69 124.2,-124.22 137.21,-114.21"/>
<polygon fill="black" stroke="black" points="139.64,-116.75 145.44,-107.88 135.38,-111.2 139.64,-116.75"/>
</g>
<!-- :feature:lmu&#45;windows&#45;narrator&#45;&gt;:core:domain -->
<g id="edge3" class="edge">
<title>:feature:lmu&#45;windows&#45;narrator&#45;&gt;:core:domain</title>
<path fill="none" stroke="black" d="M145.35,-72.05C133.44,-62.89 118.58,-51.46 105.7,-41.56"/>
<polygon fill="black" stroke="black" points="107.64,-38.63 97.58,-35.31 103.37,-44.18 107.64,-38.63"/>
</g>
</g>
</svg>
