<?xml version="1.0" encoding="UTF-8" standalone="no"?>
<!DOCTYPE svg PUBLIC "-//W3C//DTD SVG 1.1//EN"
 "http://www.w3.org/Graphics/SVG/1.1/DTD/svg11.dtd">
<!-- Generated by graphviz version 14.1.5 (20260411.2331)
 -->
<!-- Title: G Pages: 1 -->
<svg width="176pt" height="188pt"
 viewBox="0.00 0.00 176.00 188.00" xmlns="http://www.w3.org/2000/svg" xmlns:xlink="http://www.w3.org/1999/xlink">
<g id="graph0" class="graph" transform="scale(1 1) rotate(0) translate(4 184)">
<title>G</title>
<polygon fill="white" stroke="none" points="-4,4 -4,-184 172.21,-184 172.21,4 -4,4"/>
<!-- :app:shared -->
<g id="node1" class="node">
<title>:app:shared</title>
<ellipse fill="none" stroke="black" cx="84.11" cy="-162" rx="53.4" ry="18"/>
<text xml:space="preserve" text-anchor="middle" x="84.11" y="-156.95" font-family="Times,serif" font-size="14.00">:app:shared</text>
</g>
<!-- :feature:other&#45;detail -->
<g id="node2" class="node">
<title>:feature:other&#45;detail</title>
<ellipse fill="none" stroke="black" cx="84.11" cy="-90" rx="84.11" ry="18"/>
<text xml:space="preserve" text-anchor="middle" x="84.11" y="-84.95" font-family="Times,serif" font-size="14.00">:feature:other&#45;detail</text>
</g>
<!-- :app:shared&#45;&gt;:feature:other&#45;detail -->
<g id="edge1" class="edge">
<title>:app:shared&#45;&gt;:feature:other&#45;detail</title>
<path fill="none" stroke="black" d="M84.11,-143.7C84.11,-136.41 84.11,-127.73 84.11,-119.54"/>
<polygon fill="black" stroke="black" points="87.61,-119.62 84.11,-109.62 80.61,-119.62 87.61,-119.62"/>
</g>
<!-- :core:domain -->
<g id="node3" class="node">
<title>:core:domain</title>
<ellipse fill="none" stroke="black" cx="84.11" cy="-18" rx="60.05" ry="18"/>
<text xml:space="preserve" text-anchor="middle" x="84.11" y="-12.95" font-family="Times,serif" font-size="14.00">:core:domain</text>
</g>
<!-- :feature:other&#45;detail&#45;&gt;:core:domain -->
<g id="edge2" class="edge">
<title>:feature:other&#45;detail&#45;&gt;:core:domain</title>
<path fill="none" stroke="black" d="M84.11,-71.7C84.11,-64.41 84.11,-55.73 84.11,-47.54"/>
<polygon fill="black" stroke="black" points="87.61,-47.62 84.11,-37.62 80.61,-47.62 87.61,-47.62"/>
</g>
</g>
</svg>
