<?xml version="1.0" encoding="UTF-8" standalone="no"?>
<!DOCTYPE svg PUBLIC "-//W3C//DTD SVG 1.1//EN"
 "http://www.w3.org/Graphics/SVG/1.1/DTD/svg11.dtd">
<!-- Generated by graphviz version 2.43.0 (0)
 -->
<!-- Title: G Pages: 1 -->
<svg width="389pt" height="188pt"
 viewBox="0.00 0.00 388.88 188.00" xmlns="http://www.w3.org/2000/svg" xmlns:xlink="http://www.w3.org/1999/xlink">
<g id="graph0" class="graph" transform="scale(1 1) rotate(0) translate(4 184)">
<title>G</title>
<polygon fill="white" stroke="transparent" points="-4,4 -4,-184 384.88,-184 384.88,4 -4,4"/>
<!-- :app:shared -->
<g id="node1" class="node">
<title>:app:shared</title>
<ellipse fill="none" stroke="black" cx="154.84" cy="-162" rx="65.79" ry="18"/>
<text text-anchor="middle" x="154.84" y="-158.3" font-family="Times,serif" font-size="14.00">:app:shared</text>
</g>
<!-- :core:domain -->
<g id="node2" class="node">
<title>:core:domain</title>
<ellipse fill="none" stroke="black" cx="70.84" cy="-18" rx="70.69" ry="18"/>
<text text-anchor="middle" x="70.84" y="-14.3" font-family="Times,serif" font-size="14.00">:core:domain</text>
</g>
<!-- :app:shared&#45;&gt;:core:domain -->
<g id="edge1" class="edge">
<title>:app:shared&#45;&gt;:core:domain</title>
<path fill="none" stroke="black" d="M128,-145.32C114.55,-136.11 99.18,-123.28 89.84,-108 78.48,-89.4 73.85,-65.01 71.99,-46.47"/>
<polygon fill="black" stroke="black" points="75.46,-46 71.19,-36.31 68.49,-46.55 75.46,-46"/>
</g>
<!-- :feature:other&#45;volume&#45;detail -->
<g id="node3" class="node">
<title>:feature:other&#45;volume&#45;detail</title>
<ellipse fill="none" stroke="black" cx="239.84" cy="-90" rx="141.07" ry="18"/>
<text text-anchor="middle" x="239.84" y="-86.3" font-family="Times,serif" font-size="14.00">:feature:other&#45;volume&#45;detail</text>
</g>
<!-- :app:shared&#45;&gt;:feature:other&#45;volume&#45;detail -->
<g id="edge2" class="edge">
<title>:app:shared&#45;&gt;:feature:other&#45;volume&#45;detail</title>
<path fill="none" stroke="black" d="M174.56,-144.76C185.48,-135.77 199.24,-124.44 211.32,-114.49"/>
<polygon fill="black" stroke="black" points="213.85,-116.94 219.35,-107.88 209.4,-111.53 213.85,-116.94"/>
</g>
<!-- :feature:other&#45;volume&#45;detail&#45;&gt;:core:domain -->
<g id="edge3" class="edge">
<title>:feature:other&#45;volume&#45;detail&#45;&gt;:core:domain</title>
<path fill="none" stroke="black" d="M200.22,-72.59C174.85,-62.08 141.87,-48.42 115.56,-37.52"/>
<polygon fill="black" stroke="black" points="116.78,-34.24 106.2,-33.64 114.1,-40.7 116.78,-34.24"/>
</g>
<!-- :core:designsystem -->
<g id="node4" class="node">
<title>:core:designsystem</title>
<ellipse fill="none" stroke="black" cx="260.84" cy="-18" rx="100.98" ry="18"/>
<text text-anchor="middle" x="260.84" y="-14.3" font-family="Times,serif" font-size="14.00">:core:designsystem</text>
</g>
<!-- :feature:other&#45;volume&#45;detail&#45;&gt;:core:designsystem -->
<g id="edge4" class="edge">
<title>:feature:other&#45;volume&#45;detail&#45;&gt;:core:designsystem</title>
<path fill="none" stroke="black" d="M245.03,-71.7C247.37,-63.9 250.19,-54.51 252.79,-45.83"/>
<polygon fill="black" stroke="black" points="256.19,-46.69 255.71,-36.1 249.49,-44.68 256.19,-46.69"/>
</g>
</g>
</svg>
