<?xml version="1.0" encoding="UTF-8" standalone="no"?>
<!DOCTYPE svg PUBLIC "-//W3C//DTD SVG 1.1//EN"
 "http://www.w3.org/Graphics/SVG/1.1/DTD/svg11.dtd">
<!-- Generated by graphviz version 2.43.0 (0)
 -->
<!-- Title: G Pages: 1 -->
<svg width="264pt" height="260pt"
 viewBox="0.00 0.00 264.43 260.00" xmlns="http://www.w3.org/2000/svg" xmlns:xlink="http://www.w3.org/1999/xlink">
<g id="graph0" class="graph" transform="scale(1 1) rotate(0) translate(4 256)">
<title>G</title>
<polygon fill="white" stroke="transparent" points="-4,4 -4,-256 260.43,-256 260.43,4 -4,4"/>
<!-- :app:desktopApp -->
<g id="node1" class="node">
<title>:app:desktopApp</title>
<ellipse fill="none" stroke="black" cx="168.04" cy="-234" rx="88.28" ry="18"/>
<text text-anchor="middle" x="168.04" y="-230.3" font-family="Times,serif" font-size="14.00">:app:desktopApp</text>
</g>
<!-- :app:shared -->
<g id="node2" class="node">
<title>:app:shared</title>
<ellipse fill="none" stroke="black" cx="74.04" cy="-162" rx="65.79" ry="18"/>
<text text-anchor="middle" x="74.04" y="-158.3" font-family="Times,serif" font-size="14.00">:app:shared</text>
</g>
<!-- :app:desktopApp&#45;&gt;:app:shared -->
<g id="edge1" class="edge">
<title>:app:desktopApp&#45;&gt;:app:shared</title>
<path fill="none" stroke="black" d="M145.77,-216.41C133.27,-207.1 117.51,-195.37 103.95,-185.27"/>
<polygon fill="black" stroke="black" points="105.95,-182.39 95.83,-179.23 101.76,-188.01 105.95,-182.39"/>
</g>
<!-- :core:domain -->
<g id="node3" class="node">
<title>:core:domain</title>
<ellipse fill="none" stroke="black" cx="147.04" cy="-18" rx="70.69" ry="18"/>
<text text-anchor="middle" x="147.04" y="-14.3" font-family="Times,serif" font-size="14.00">:core:domain</text>
</g>
<!-- :app:desktopApp&#45;&gt;:core:domain -->
<g id="edge2" class="edge">
<title>:app:desktopApp&#45;&gt;:core:domain</title>
<path fill="none" stroke="black" d="M174.91,-215.58C185.72,-185.48 203.85,-122.17 187.04,-72 183.64,-61.83 177.43,-52.06 170.9,-43.73"/>
<polygon fill="black" stroke="black" points="173.46,-41.35 164.36,-35.93 168.1,-45.84 173.46,-41.35"/>
</g>
<!-- :feature:narrator -->
<g id="node4" class="node">
<title>:feature:narrator</title>
<ellipse fill="none" stroke="black" cx="89.04" cy="-90" rx="89.08" ry="18"/>
<text text-anchor="middle" x="89.04" y="-86.3" font-family="Times,serif" font-size="14.00">:feature:narrator</text>
</g>
<!-- :app:desktopApp&#45;&gt;:feature:narrator -->
<g id="edge3" class="edge">
<title>:app:desktopApp&#45;&gt;:feature:narrator</title>
<path fill="none" stroke="black" d="M167.53,-215.79C166.29,-196.97 162.19,-166.51 149.04,-144 142.29,-132.45 132.13,-122.09 122.09,-113.66"/>
<polygon fill="black" stroke="black" points="124.12,-110.81 114.12,-107.33 119.77,-116.29 124.12,-110.81"/>
</g>
<!-- :app:shared&#45;&gt;:feature:narrator -->
<g id="edge4" class="edge">
<title>:app:shared&#45;&gt;:feature:narrator</title>
<path fill="none" stroke="black" d="M77.75,-143.7C79.4,-135.98 81.39,-126.71 83.23,-118.11"/>
<polygon fill="black" stroke="black" points="86.7,-118.62 85.38,-108.1 79.86,-117.15 86.7,-118.62"/>
</g>
<!-- :feature:narrator&#45;&gt;:core:domain -->
<g id="edge5" class="edge">
<title>:feature:narrator&#45;&gt;:core:domain</title>
<path fill="none" stroke="black" d="M103.08,-72.05C110.14,-63.54 118.81,-53.07 126.59,-43.68"/>
<polygon fill="black" stroke="black" points="129.45,-45.72 133.13,-35.79 124.06,-41.26 129.45,-45.72"/>
</g>
</g>
</svg>
