<?xml version="1.0" encoding="UTF-8" standalone="no"?>
<!DOCTYPE svg PUBLIC "-//W3C//DTD SVG 1.1//EN"
 "http://www.w3.org/Graphics/SVG/1.1/DTD/svg11.dtd">
<!-- Generated by graphviz version 2.43.0 (0)
 -->
<!-- Title: G Pages: 1 -->
<svg width="443pt" height="188pt"
 viewBox="0.00 0.00 443.13 188.00" xmlns="http://www.w3.org/2000/svg" xmlns:xlink="http://www.w3.org/1999/xlink">
<g id="graph0" class="graph" transform="scale(1 1) rotate(0) translate(4 184)">
<title>G</title>
<polygon fill="white" stroke="transparent" points="-4,4 -4,-184 439.13,-184 439.13,4 -4,4"/>
<!-- :app:shared -->
<g id="node1" class="node">
<title>:app:shared</title>
<ellipse fill="none" stroke="black" cx="190.74" cy="-162" rx="65.79" ry="18"/>
<text text-anchor="middle" x="190.74" y="-158.3" font-family="Times,serif" font-size="14.00">:app:shared</text>
</g>
<!-- :core:designsystem -->
<g id="node2" class="node">
<title>:core:designsystem</title>
<ellipse fill="none" stroke="black" cx="100.74" cy="-18" rx="100.98" ry="18"/>
<text text-anchor="middle" x="100.74" y="-14.3" font-family="Times,serif" font-size="14.00">:core:designsystem</text>
</g>
<!-- :app:shared&#45;&gt;:core:designsystem -->
<g id="edge1" class="edge">
<title>:app:shared&#45;&gt;:core:designsystem</title>
<path fill="none" stroke="black" d="M161.43,-145.85C146.74,-136.79 129.95,-123.93 119.74,-108 107.91,-89.54 103.32,-64.94 101.6,-46.29"/>
<polygon fill="black" stroke="black" points="105.08,-45.81 100.89,-36.08 98.09,-46.3 105.08,-45.81"/>
</g>
<!-- :feature:other&#45;console&#45;ip&#45;detail -->
<g id="node3" class="node">
<title>:feature:other&#45;console&#45;ip&#45;detail</title>
<ellipse fill="none" stroke="black" cx="281.74" cy="-90" rx="153.27" ry="18"/>
<text text-anchor="middle" x="281.74" y="-86.3" font-family="Times,serif" font-size="14.00">:feature:other&#45;console&#45;ip&#45;detail</text>
</g>
<!-- :app:shared&#45;&gt;:feature:other&#45;console&#45;ip&#45;detail -->
<g id="edge2" class="edge">
<title>:app:shared&#45;&gt;:feature:other&#45;console&#45;ip&#45;detail</title>
<path fill="none" stroke="black" d="M211.85,-144.76C223.65,-135.69 238.56,-124.22 251.57,-114.21"/>
<polygon fill="black" stroke="black" points="254.01,-116.75 259.8,-107.88 249.74,-111.2 254.01,-116.75"/>
</g>
<!-- :feature:other&#45;console&#45;ip&#45;detail&#45;&gt;:core:designsystem -->
<g id="edge4" class="edge">
<title>:feature:other&#45;console&#45;ip&#45;detail&#45;&gt;:core:designsystem</title>
<path fill="none" stroke="black" d="M239.3,-72.59C212.76,-62.32 178.44,-49.05 150.6,-38.28"/>
<polygon fill="black" stroke="black" points="151.64,-34.93 141.05,-34.59 149.11,-41.46 151.64,-34.93"/>
</g>
<!-- :core:domain -->
<g id="node4" class="node">
<title>:core:domain</title>
<ellipse fill="none" stroke="black" cx="290.74" cy="-18" rx="70.69" ry="18"/>
<text text-anchor="middle" x="290.74" y="-14.3" font-family="Times,serif" font-size="14.00">:core:domain</text>
</g>
<!-- :feature:other&#45;console&#45;ip&#45;detail&#45;&gt;:core:domain -->
<g id="edge3" class="edge">
<title>:feature:other&#45;console&#45;ip&#45;detail&#45;&gt;:core:domain</title>
<path fill="none" stroke="black" d="M283.97,-71.7C284.96,-63.98 286.15,-54.71 287.26,-46.11"/>
<polygon fill="black" stroke="black" points="290.74,-46.47 288.54,-36.1 283.8,-45.58 290.74,-46.47"/>
</g>
</g>
</svg>
