<?xml version="1.0" encoding="UTF-8" standalone="no"?>
<!DOCTYPE svg PUBLIC "-//W3C//DTD SVG 1.1//EN"
 "http://www.w3.org/Graphics/SVG/1.1/DTD/svg11.dtd">
<!-- Generated by graphviz version 2.43.0 (0)
 -->
<!-- Title: G Pages: 1 -->
<svg width="376pt" height="260pt"
 viewBox="0.00 0.00 376.48 260.00" xmlns="http://www.w3.org/2000/svg" xmlns:xlink="http://www.w3.org/1999/xlink">
<g id="graph0" class="graph" transform="scale(1 1) rotate(0) translate(4 256)">
<title>G</title>
<polygon fill="white" stroke="transparent" points="-4,4 -4,-256 372.48,-256 372.48,4 -4,4"/>
<!-- :app:androidApp -->
<g id="node1" class="node">
<title>:app:androidApp</title>
<ellipse fill="none" stroke="black" cx="87.09" cy="-234" rx="87.18" ry="18"/>
<text text-anchor="middle" x="87.09" y="-230.3" font-family="Times,serif" font-size="14.00">:app:androidApp</text>
</g>
<!-- :app:shared -->
<g id="node2" class="node">
<title>:app:shared</title>
<ellipse fill="none" stroke="black" cx="186.09" cy="-162" rx="65.79" ry="18"/>
<text text-anchor="middle" x="186.09" y="-158.3" font-family="Times,serif" font-size="14.00">:app:shared</text>
</g>
<!-- :app:androidApp&#45;&gt;:app:shared -->
<g id="edge1" class="edge">
<title>:app:androidApp&#45;&gt;:app:shared</title>
<path fill="none" stroke="black" d="M110.3,-216.59C123.68,-207.13 140.67,-195.12 155.16,-184.87"/>
<polygon fill="black" stroke="black" points="157.22,-187.7 163.37,-179.07 153.18,-181.98 157.22,-187.7"/>
</g>
<!-- :core:domain -->
<g id="node3" class="node">
<title>:core:domain</title>
<ellipse fill="none" stroke="black" cx="92.09" cy="-18" rx="70.69" ry="18"/>
<text text-anchor="middle" x="92.09" y="-14.3" font-family="Times,serif" font-size="14.00">:core:domain</text>
</g>
<!-- :app:androidApp&#45;&gt;:core:domain -->
<g id="edge2" class="edge">
<title>:app:androidApp&#45;&gt;:core:domain</title>
<path fill="none" stroke="black" d="M87.49,-215.85C88.36,-178.83 90.41,-91.18 91.45,-46.39"/>
<polygon fill="black" stroke="black" points="94.96,-46.31 91.69,-36.23 87.96,-46.15 94.96,-46.31"/>
</g>
<!-- :feature:readout -->
<g id="node4" class="node">
<title>:feature:readout</title>
<ellipse fill="none" stroke="black" cx="206.09" cy="-90" rx="86.38" ry="18"/>
<text text-anchor="middle" x="206.09" y="-86.3" font-family="Times,serif" font-size="14.00">:feature:readout</text>
</g>
<!-- :app:androidApp&#45;&gt;:feature:readout -->
<g id="edge3" class="edge">
<title>:app:androidApp&#45;&gt;:feature:readout</title>
<path fill="none" stroke="black" d="M87.82,-215.85C89.45,-196.52 94.65,-165.07 111.09,-144 122.26,-129.69 138.44,-118.65 154.29,-110.45"/>
<polygon fill="black" stroke="black" points="156.08,-113.47 163.54,-105.94 153.02,-107.17 156.08,-113.47"/>
</g>
<!-- :app:shared&#45;&gt;:core:domain -->
<g id="edge7" class="edge">
<title>:app:shared&#45;&gt;:core:domain</title>
<path fill="none" stroke="black" d="M154.76,-145.99C139.34,-137.04 121.8,-124.24 111.09,-108 99.02,-89.7 94.46,-65.09 92.8,-46.38"/>
<polygon fill="black" stroke="black" points="96.28,-45.9 92.13,-36.15 89.29,-46.35 96.28,-45.9"/>
</g>
<!-- :app:shared&#45;&gt;:feature:readout -->
<g id="edge6" class="edge">
<title>:app:shared&#45;&gt;:feature:readout</title>
<path fill="none" stroke="black" d="M191.04,-143.7C193.26,-135.9 195.95,-126.51 198.43,-117.83"/>
<polygon fill="black" stroke="black" points="201.82,-118.68 201.21,-108.1 195.09,-116.76 201.82,-118.68"/>
</g>
<!-- :feature:readout&#45;&gt;:core:domain -->
<g id="edge8" class="edge">
<title>:feature:readout&#45;&gt;:core:domain</title>
<path fill="none" stroke="black" d="M179.65,-72.76C163.86,-63.07 143.62,-50.64 126.58,-40.17"/>
<polygon fill="black" stroke="black" points="128.35,-37.16 118,-34.91 124.69,-43.12 128.35,-37.16"/>
</g>
<!-- :app:desktopApp -->
<g id="node5" class="node">
<title>:app:desktopApp</title>
<ellipse fill="none" stroke="black" cx="280.09" cy="-234" rx="88.28" ry="18"/>
<text text-anchor="middle" x="280.09" y="-230.3" font-family="Times,serif" font-size="14.00">:app:desktopApp</text>
</g>
<!-- :app:desktopApp&#45;&gt;:app:shared -->
<g id="edge4" class="edge">
<title>:app:desktopApp&#45;&gt;:app:shared</title>
<path fill="none" stroke="black" d="M257.82,-216.41C245.32,-207.1 229.56,-195.37 216,-185.27"/>
<polygon fill="black" stroke="black" points="218,-182.39 207.88,-179.23 213.81,-188.01 218,-182.39"/>
</g>
<!-- :app:desktopApp&#45;&gt;:feature:readout -->
<g id="edge5" class="edge">
<title>:app:desktopApp&#45;&gt;:feature:readout</title>
<path fill="none" stroke="black" d="M279.4,-215.9C277.99,-197.17 273.75,-166.79 261.09,-144 254.9,-132.86 245.61,-122.62 236.42,-114.17"/>
<polygon fill="black" stroke="black" points="238.62,-111.45 228.79,-107.51 234.02,-116.72 238.62,-111.45"/>
</g>
</g>
</svg>
