<?xml version="1.0" encoding="UTF-8" standalone="no"?>
<!DOCTYPE svg PUBLIC "-//W3C//DTD SVG 1.1//EN"
 "http://www.w3.org/Graphics/SVG/1.1/DTD/svg11.dtd">
<!-- Generated by graphviz version 2.43.0 (0)
 -->
<!-- Title: G Pages: 1 -->
<svg width="159pt" height="188pt"
 viewBox="0.00 0.00 158.79 188.00" xmlns="http://www.w3.org/2000/svg" xmlns:xlink="http://www.w3.org/1999/xlink">
<g id="graph0" class="graph" transform="scale(1 1) rotate(0) translate(4 184)">
<title>G</title>
<polygon fill="white" stroke="transparent" points="-4,4 -4,-184 154.79,-184 154.79,4 -4,4"/>
<!-- :app:shared -->
<g id="node1" class="node">
<title>:app:shared</title>
<ellipse fill="none" stroke="black" cx="75.39" cy="-162" rx="65.79" ry="18"/>
<text text-anchor="middle" x="75.39" y="-158.3" font-family="Times,serif" font-size="14.00">:app:shared</text>
</g>
<!-- :feature:other -->
<g id="node2" class="node">
<title>:feature:other</title>
<ellipse fill="none" stroke="black" cx="75.39" cy="-90" rx="75.29" ry="18"/>
<text text-anchor="middle" x="75.39" y="-86.3" font-family="Times,serif" font-size="14.00">:feature:other</text>
</g>
<!-- :app:shared&#45;&gt;:feature:other -->
<g id="edge1" class="edge">
<title>:app:shared&#45;&gt;:feature:other</title>
<path fill="none" stroke="black" d="M75.39,-143.7C75.39,-135.98 75.39,-126.71 75.39,-118.11"/>
<polygon fill="black" stroke="black" points="78.89,-118.1 75.39,-108.1 71.89,-118.1 78.89,-118.1"/>
</g>
<!-- :core -->
<g id="node3" class="node">
<title>:core</title>
<ellipse fill="none" stroke="black" cx="75.39" cy="-18" rx="33.6" ry="18"/>
<text text-anchor="middle" x="75.39" y="-14.3" font-family="Times,serif" font-size="14.00">:core</text>
</g>
<!-- :feature:other&#45;&gt;:core -->
<g id="edge2" class="edge">
<title>:feature:other&#45;&gt;:core</title>
<path fill="none" stroke="black" d="M75.39,-71.7C75.39,-63.98 75.39,-54.71 75.39,-46.11"/>
<polygon fill="black" stroke="black" points="78.89,-46.1 75.39,-36.1 71.89,-46.1 78.89,-46.1"/>
</g>
</g>
</svg>
