<?xml version="1.0" encoding="UTF-8" standalone="no"?>
<!DOCTYPE svg PUBLIC "-//W3C//DTD SVG 1.1//EN"
 "http://www.w3.org/Graphics/SVG/1.1/DTD/svg11.dtd">
<!-- Generated by graphviz version 2.43.0 (0)
 -->
<!-- Title: G Pages: 1 -->
<svg width="430pt" height="188pt"
 viewBox="0.00 0.00 430.46 188.00" xmlns="http://www.w3.org/2000/svg" xmlns:xlink="http://www.w3.org/1999/xlink">
<g id="graph0" class="graph" transform="scale(1 1) rotate(0) translate(4 184)">
<title>G</title>
<polygon fill="white" stroke="transparent" points="-4,4 -4,-184 426.46,-184 426.46,4 -4,4"/>
<!-- :app:shared -->
<g id="node1" class="node">
<title>:app:shared</title>
<ellipse fill="none" stroke="black" cx="211.23" cy="-162" rx="65.79" ry="18"/>
<text text-anchor="middle" x="211.23" y="-158.3" font-family="Times,serif" font-size="14.00">:app:shared</text>
</g>
<!-- :feature:lmu&#45;readout&#45;vehicle&#45;damage&#45;detail -->
<g id="node2" class="node">
<title>:feature:lmu&#45;readout&#45;vehicle&#45;damage&#45;detail</title>
<ellipse fill="none" stroke="black" cx="211.23" cy="-90" rx="211.46" ry="18"/>
<text text-anchor="middle" x="211.23" y="-86.3" font-family="Times,serif" font-size="14.00">:feature:lmu&#45;readout&#45;vehicle&#45;damage&#45;detail</text>
</g>
<!-- :app:shared&#45;&gt;:feature:lmu&#45;readout&#45;vehicle&#45;damage&#45;detail -->
<g id="edge1" class="edge">
<title>:app:shared&#45;&gt;:feature:lmu&#45;readout&#45;vehicle&#45;damage&#45;detail</title>
<path fill="none" stroke="black" d="M211.23,-143.7C211.23,-135.98 211.23,-126.71 211.23,-118.11"/>
<polygon fill="black" stroke="black" points="214.73,-118.1 211.23,-108.1 207.73,-118.1 214.73,-118.1"/>
</g>
<!-- :core:domain -->
<g id="node3" class="node">
<title>:core:domain</title>
<ellipse fill="none" stroke="black" cx="116.23" cy="-18" rx="70.69" ry="18"/>
<text text-anchor="middle" x="116.23" y="-14.3" font-family="Times,serif" font-size="14.00">:core:domain</text>
</g>
<!-- :feature:lmu&#45;readout&#45;vehicle&#45;damage&#45;detail&#45;&gt;:core:domain -->
<g id="edge2" class="edge">
<title>:feature:lmu&#45;readout&#45;vehicle&#45;damage&#45;detail&#45;&gt;:core:domain</title>
<path fill="none" stroke="black" d="M188.23,-72.05C175.68,-62.81 159.99,-51.24 146.46,-41.27"/>
<polygon fill="black" stroke="black" points="148.49,-38.42 138.36,-35.31 144.34,-44.06 148.49,-38.42"/>
</g>
<!-- :core:designsystem -->
<g id="node4" class="node">
<title>:core:designsystem</title>
<ellipse fill="none" stroke="black" cx="306.23" cy="-18" rx="100.98" ry="18"/>
<text text-anchor="middle" x="306.23" y="-14.3" font-family="Times,serif" font-size="14.00">:core:designsystem</text>
</g>
<!-- :feature:lmu&#45;readout&#45;vehicle&#45;damage&#45;detail&#45;&gt;:core:designsystem -->
<g id="edge3" class="edge">
<title>:feature:lmu&#45;readout&#45;vehicle&#45;damage&#45;detail&#45;&gt;:core:designsystem</title>
<path fill="none" stroke="black" d="M234.23,-72.05C246.69,-62.87 262.25,-51.41 275.71,-41.49"/>
<polygon fill="black" stroke="black" points="277.8,-44.3 283.77,-35.55 273.65,-38.66 277.8,-44.3"/>
</g>
</g>
</svg>
