<?xml version="1.0" encoding="UTF-8" standalone="no"?>
<!DOCTYPE svg PUBLIC "-//W3C//DTD SVG 1.1//EN"
 "http://www.w3.org/Graphics/SVG/1.1/DTD/svg11.dtd">
<!-- Generated by graphviz version 2.43.0 (0)
 -->
<!-- Title: G Pages: 1 -->
<svg width="222pt" height="188pt"
 viewBox="0.00 0.00 222.29 188.00" xmlns="http://www.w3.org/2000/svg" xmlns:xlink="http://www.w3.org/1999/xlink">
<g id="graph0" class="graph" transform="scale(1 1) rotate(0) translate(4 184)">
<title>G</title>
<polygon fill="white" stroke="transparent" points="-4,4 -4,-184 218.29,-184 218.29,4 -4,4"/>
<!-- :app:shared -->
<g id="node1" class="node">
<title>:app:shared</title>
<ellipse fill="none" stroke="black" cx="143.44" cy="-162" rx="65.79" ry="18"/>
<text text-anchor="middle" x="143.44" y="-158.3" font-family="Times,serif" font-size="14.00">:app:shared</text>
</g>
<!-- :feature:readout -->
<g id="node2" class="node">
<title>:feature:readout</title>
<ellipse fill="none" stroke="black" cx="86.44" cy="-90" rx="86.38" ry="18"/>
<text text-anchor="middle" x="86.44" y="-86.3" font-family="Times,serif" font-size="14.00">:feature:readout</text>
</g>
<!-- :app:shared&#45;&gt;:feature:readout -->
<g id="edge1" class="edge">
<title>:app:shared&#45;&gt;:feature:readout</title>
<path fill="none" stroke="black" d="M129.64,-144.05C122.71,-135.54 114.18,-125.07 106.54,-115.68"/>
<polygon fill="black" stroke="black" points="109.14,-113.33 100.11,-107.79 103.71,-117.75 109.14,-113.33"/>
</g>
<!-- :core:domain -->
<g id="node3" class="node">
<title>:core:domain</title>
<ellipse fill="none" stroke="black" cx="143.44" cy="-18" rx="70.69" ry="18"/>
<text text-anchor="middle" x="143.44" y="-14.3" font-family="Times,serif" font-size="14.00">:core:domain</text>
</g>
<!-- :app:shared&#45;&gt;:core:domain -->
<g id="edge2" class="edge">
<title>:app:shared&#45;&gt;:core:domain</title>
<path fill="none" stroke="black" d="M159.51,-144.39C167.8,-134.63 177.08,-121.58 181.44,-108 186.34,-92.77 186.34,-87.23 181.44,-72 178.17,-61.81 172.13,-51.93 165.82,-43.5"/>
<polygon fill="black" stroke="black" points="168.49,-41.24 159.51,-35.61 163.02,-45.61 168.49,-41.24"/>
</g>
<!-- :feature:readout&#45;&gt;:core:domain -->
<g id="edge3" class="edge">
<title>:feature:readout&#45;&gt;:core:domain</title>
<path fill="none" stroke="black" d="M100.24,-72.05C107.17,-63.54 115.7,-53.07 123.34,-43.68"/>
<polygon fill="black" stroke="black" points="126.17,-45.75 129.77,-35.79 120.74,-41.33 126.17,-45.75"/>
</g>
</g>
</svg>
