<?xml version="1.0" encoding="UTF-8" standalone="no"?>
<!DOCTYPE svg PUBLIC "-//W3C//DTD SVG 1.1//EN"
 "http://www.w3.org/Graphics/SVG/1.1/DTD/svg11.dtd">
<!-- Generated by graphviz version 2.43.0 (0)
 -->
<!-- Title: G Pages: 1 -->
<svg width="249pt" height="188pt"
 viewBox="0.00 0.00 248.83 188.00" xmlns="http://www.w3.org/2000/svg" xmlns:xlink="http://www.w3.org/1999/xlink">
<g id="graph0" class="graph" transform="scale(1 1) rotate(0) translate(4 184)">
<title>G</title>
<polygon fill="white" stroke="transparent" points="-4,4 -4,-184 244.83,-184 244.83,4 -4,4"/>
<!-- :app:shared -->
<g id="node1" class="node">
<title>:app:shared</title>
<ellipse fill="none" stroke="black" cx="70.84" cy="-162" rx="65.79" ry="18"/>
<text text-anchor="middle" x="70.84" y="-158.3" font-family="Times,serif" font-size="14.00">:app:shared</text>
</g>
<!-- :core:domain -->
<g id="node2" class="node">
<title>:core:domain</title>
<ellipse fill="none" stroke="black" cx="70.84" cy="-18" rx="70.69" ry="18"/>
<text text-anchor="middle" x="70.84" y="-14.3" font-family="Times,serif" font-size="14.00">:core:domain</text>
</g>
<!-- :app:shared&#45;&gt;:core:domain -->
<g id="edge1" class="edge">
<title>:app:shared&#45;&gt;:core:domain</title>
<path fill="none" stroke="black" d="M50.56,-144.63C40.45,-135.14 29.25,-122.26 23.84,-108 18.17,-93.04 18.17,-86.96 23.84,-72 27.99,-61.08 35.52,-50.98 43.36,-42.58"/>
<polygon fill="black" stroke="black" points="45.97,-44.92 50.56,-35.37 41.02,-39.97 45.97,-44.92"/>
</g>
<!-- :feature:readout&#45;list -->
<g id="node3" class="node">
<title>:feature:readout&#45;list</title>
<ellipse fill="none" stroke="black" cx="136.84" cy="-90" rx="103.98" ry="18"/>
<text text-anchor="middle" x="136.84" y="-86.3" font-family="Times,serif" font-size="14.00">:feature:readout&#45;list</text>
</g>
<!-- :app:shared&#45;&gt;:feature:readout&#45;list -->
<g id="edge2" class="edge">
<title>:app:shared&#45;&gt;:feature:readout&#45;list</title>
<path fill="none" stroke="black" d="M86.48,-144.41C94.67,-135.73 104.84,-124.95 113.89,-115.34"/>
<polygon fill="black" stroke="black" points="116.54,-117.63 120.86,-107.96 111.45,-112.83 116.54,-117.63"/>
</g>
<!-- :feature:readout&#45;list&#45;&gt;:core:domain -->
<g id="edge3" class="edge">
<title>:feature:readout&#45;list&#45;&gt;:core:domain</title>
<path fill="none" stroke="black" d="M120.87,-72.05C112.68,-63.37 102.57,-52.64 93.58,-43.11"/>
<polygon fill="black" stroke="black" points="96.08,-40.66 86.67,-35.79 90.99,-45.47 96.08,-40.66"/>
</g>
</g>
</svg>
