<?xml version="1.0" encoding="UTF-8" standalone="no"?>
<!DOCTYPE svg PUBLIC "-//W3C//DTD SVG 1.1//EN"
 "http://www.w3.org/Graphics/SVG/1.1/DTD/svg11.dtd">
<!-- Generated by graphviz version 2.43.0 (0)
 -->
<!-- Title: G Pages: 1 -->
<svg width="358pt" height="188pt"
 viewBox="0.00 0.00 358.33 188.00" xmlns="http://www.w3.org/2000/svg" xmlns:xlink="http://www.w3.org/1999/xlink">
<g id="graph0" class="graph" transform="scale(1 1) rotate(0) translate(4 184)">
<title>G</title>
<polygon fill="white" stroke="transparent" points="-4,4 -4,-184 354.33,-184 354.33,4 -4,4"/>
<!-- :app:shared -->
<g id="node1" class="node">
<title>:app:shared</title>
<ellipse fill="none" stroke="black" cx="265.69" cy="-162" rx="65.79" ry="18"/>
<text text-anchor="middle" x="265.69" y="-158.3" font-family="Times,serif" font-size="14.00">:app:shared</text>
</g>
<!-- :feature:readout&#45;vehicle&#45;approach -->
<g id="node2" class="node">
<title>:feature:readout&#45;vehicle&#45;approach</title>
<ellipse fill="none" stroke="black" cx="167.69" cy="-90" rx="167.87" ry="18"/>
<text text-anchor="middle" x="167.69" y="-86.3" font-family="Times,serif" font-size="14.00">:feature:readout&#45;vehicle&#45;approach</text>
</g>
<!-- :app:shared&#45;&gt;:feature:readout&#45;vehicle&#45;approach -->
<g id="edge1" class="edge">
<title>:app:shared&#45;&gt;:feature:readout&#45;vehicle&#45;approach</title>
<path fill="none" stroke="black" d="M242.96,-144.76C230.13,-135.6 213.88,-124 199.77,-113.92"/>
<polygon fill="black" stroke="black" points="201.49,-110.84 191.31,-107.88 197.42,-116.54 201.49,-110.84"/>
</g>
<!-- :core:domain -->
<g id="node3" class="node">
<title>:core:domain</title>
<ellipse fill="none" stroke="black" cx="265.69" cy="-18" rx="70.69" ry="18"/>
<text text-anchor="middle" x="265.69" y="-14.3" font-family="Times,serif" font-size="14.00">:core:domain</text>
</g>
<!-- :app:shared&#45;&gt;:core:domain -->
<g id="edge2" class="edge">
<title>:app:shared&#45;&gt;:core:domain</title>
<path fill="none" stroke="black" d="M301.4,-146.61C317.72,-138.01 335.44,-125.34 344.69,-108 352.21,-93.88 352.21,-86.12 344.69,-72 337.16,-57.89 324.03,-46.88 310.61,-38.63"/>
<polygon fill="black" stroke="black" points="312.23,-35.52 301.81,-33.61 308.76,-41.6 312.23,-35.52"/>
</g>
<!-- :feature:readout&#45;vehicle&#45;approach&#45;&gt;:core:domain -->
<g id="edge3" class="edge">
<title>:feature:readout&#45;vehicle&#45;approach&#45;&gt;:core:domain</title>
<path fill="none" stroke="black" d="M191.41,-72.05C204.36,-62.81 220.55,-51.24 234.5,-41.27"/>
<polygon fill="black" stroke="black" points="236.75,-43.97 242.86,-35.31 232.68,-38.27 236.75,-43.97"/>
</g>
</g>
</svg>
