<?xml version="1.0" encoding="UTF-8" standalone="no"?>
<!DOCTYPE svg PUBLIC "-//W3C//DTD SVG 1.1//EN"
 "http://www.w3.org/Graphics/SVG/1.1/DTD/svg11.dtd">
<!-- Generated by graphviz version 2.43.0 (0)
 -->
<!-- Title: G Pages: 1 -->
<svg width="376pt" height="260pt"
 viewBox="0.00 0.00 376.48 260.00" xmlns="http://www.w3.org/2000/svg" xmlns:xlink="http://www.w3.org/1999/xlink">
<g id="graph0" class="graph" transform="scale(1 1) rotate(0) translate(4 256)">
<title>G</title>
<polygon fill="white" stroke="transparent" points="-4,4 -4,-256 372.48,-256 372.48,4 -4,4"/>
<!-- :app:androidApp -->
<g id="node1" class="node">
<title>:app:androidApp</title>
<ellipse fill="none" stroke="black" cx="87.09" cy="-234" rx="87.18" ry="18"/>
<text text-anchor="middle" x="87.09" y="-230.3" font-family="Times,serif" font-size="14.00">:app:androidApp</text>
</g>
<!-- :app:shared -->
<g id="node2" class="node">
<title>:app:shared</title>
<ellipse fill="none" stroke="black" cx="184.09" cy="-162" rx="65.79" ry="18"/>
<text text-anchor="middle" x="184.09" y="-158.3" font-family="Times,serif" font-size="14.00">:app:shared</text>
</g>
<!-- :app:androidApp&#45;&gt;:app:shared -->
<g id="edge1" class="edge">
<title>:app:androidApp&#45;&gt;:app:shared</title>
<path fill="none" stroke="black" d="M110.08,-216.41C123.07,-207.04 139.47,-195.2 153.54,-185.05"/>
<polygon fill="black" stroke="black" points="155.88,-187.68 161.94,-178.99 151.78,-182 155.88,-187.68"/>
</g>
<!-- :core:domain -->
<g id="node3" class="node">
<title>:core:domain</title>
<ellipse fill="none" stroke="black" cx="222.09" cy="-18" rx="70.69" ry="18"/>
<text text-anchor="middle" x="222.09" y="-14.3" font-family="Times,serif" font-size="14.00">:core:domain</text>
</g>
<!-- :app:androidApp&#45;&gt;:core:domain -->
<g id="edge2" class="edge">
<title>:app:androidApp&#45;&gt;:core:domain</title>
<path fill="none" stroke="black" d="M78.46,-215.85C63.9,-184.2 38.92,-115.88 70.09,-72 87.61,-47.34 117.49,-34.06 146.14,-26.94"/>
<polygon fill="black" stroke="black" points="147.22,-30.29 156.2,-24.67 145.68,-23.46 147.22,-30.29"/>
</g>
<!-- :feature:readout -->
<g id="node4" class="node">
<title>:feature:readout</title>
<ellipse fill="none" stroke="black" cx="165.09" cy="-90" rx="86.38" ry="18"/>
<text text-anchor="middle" x="165.09" y="-86.3" font-family="Times,serif" font-size="14.00">:feature:readout</text>
</g>
<!-- :app:androidApp&#45;&gt;:feature:readout -->
<g id="edge3" class="edge">
<title>:app:androidApp&#45;&gt;:feature:readout</title>
<path fill="none" stroke="black" d="M88.44,-215.86C90.55,-197.1 95.87,-166.69 109.09,-144 115.57,-132.89 125.07,-122.65 134.42,-114.19"/>
<polygon fill="black" stroke="black" points="136.87,-116.71 142.17,-107.53 132.3,-111.4 136.87,-116.71"/>
</g>
<!-- :app:shared&#45;&gt;:core:domain -->
<g id="edge8" class="edge">
<title>:app:shared&#45;&gt;:core:domain</title>
<path fill="none" stroke="black" d="M218.09,-146.51C233.91,-137.83 251.16,-125.11 260.09,-108 271.15,-86.82 258.19,-61.7 244.49,-43.56"/>
<polygon fill="black" stroke="black" points="247.22,-41.37 238.23,-35.76 241.76,-45.75 247.22,-41.37"/>
</g>
<!-- :app:shared&#45;&gt;:feature:readout -->
<g id="edge7" class="edge">
<title>:app:shared&#45;&gt;:feature:readout</title>
<path fill="none" stroke="black" d="M179.4,-143.7C177.28,-135.9 174.73,-126.51 172.37,-117.83"/>
<polygon fill="black" stroke="black" points="175.73,-116.84 169.73,-108.1 168.98,-118.67 175.73,-116.84"/>
</g>
<!-- :feature:readout&#45;&gt;:core:domain -->
<g id="edge9" class="edge">
<title>:feature:readout&#45;&gt;:core:domain</title>
<path fill="none" stroke="black" d="M178.89,-72.05C185.82,-63.54 194.35,-53.07 201.99,-43.68"/>
<polygon fill="black" stroke="black" points="204.82,-45.75 208.42,-35.79 199.39,-41.33 204.82,-45.75"/>
</g>
<!-- :app:desktopApp -->
<g id="node5" class="node">
<title>:app:desktopApp</title>
<ellipse fill="none" stroke="black" cx="280.09" cy="-234" rx="88.28" ry="18"/>
<text text-anchor="middle" x="280.09" y="-230.3" font-family="Times,serif" font-size="14.00">:app:desktopApp</text>
</g>
<!-- :app:desktopApp&#45;&gt;:app:shared -->
<g id="edge4" class="edge">
<title>:app:desktopApp&#45;&gt;:app:shared</title>
<path fill="none" stroke="black" d="M257.34,-216.41C244.49,-207.04 228.25,-195.2 214.33,-185.05"/>
<polygon fill="black" stroke="black" points="216.16,-182.05 206.02,-178.99 212.04,-187.71 216.16,-182.05"/>
</g>
<!-- :app:desktopApp&#45;&gt;:core:domain -->
<g id="edge5" class="edge">
<title>:app:desktopApp&#45;&gt;:core:domain</title>
<path fill="none" stroke="black" d="M284.11,-215.56C290.25,-184.9 299.1,-120.03 277.09,-72 271.78,-60.42 262.71,-50.06 253.45,-41.64"/>
<polygon fill="black" stroke="black" points="255.58,-38.87 245.7,-35.05 251.04,-44.19 255.58,-38.87"/>
</g>
<!-- :app:desktopApp&#45;&gt;:feature:readout -->
<g id="edge6" class="edge">
<title>:app:desktopApp&#45;&gt;:feature:readout</title>
<path fill="none" stroke="black" d="M280.02,-215.89C279.11,-196.61 275.02,-165.19 259.09,-144 248.27,-129.6 232.32,-118.55 216.62,-110.35"/>
<polygon fill="black" stroke="black" points="217.97,-107.11 207.45,-105.85 214.88,-113.4 217.97,-107.11"/>
</g>
</g>
</svg>
