<?xml version="1.0" encoding="UTF-8" standalone="no"?>
<!DOCTYPE svg PUBLIC "-//W3C//DTD SVG 1.1//EN"
 "http://www.w3.org/Graphics/SVG/1.1/DTD/svg11.dtd">
<!-- Generated by graphviz version 2.43.0 (0)
 -->
<!-- Title: G Pages: 1 -->
<svg width="578pt" height="188pt"
 viewBox="0.00 0.00 578.47 188.00" xmlns="http://www.w3.org/2000/svg" xmlns:xlink="http://www.w3.org/1999/xlink">
<g id="graph0" class="graph" transform="scale(1 1) rotate(0) translate(4 184)">
<title>G</title>
<polygon fill="white" stroke="transparent" points="-4,4 -4,-184 574.47,-184 574.47,4 -4,4"/>
<!-- :app:shared -->
<g id="node1" class="node">
<title>:app:shared</title>
<ellipse fill="none" stroke="black" cx="164.84" cy="-162" rx="65.79" ry="18"/>
<text text-anchor="middle" x="164.84" y="-158.3" font-family="Times,serif" font-size="14.00">:app:shared</text>
</g>
<!-- :core:domain -->
<g id="node2" class="node">
<title>:core:domain</title>
<ellipse fill="none" stroke="black" cx="70.84" cy="-18" rx="70.69" ry="18"/>
<text text-anchor="middle" x="70.84" y="-14.3" font-family="Times,serif" font-size="14.00">:core:domain</text>
</g>
<!-- :app:shared&#45;&gt;:core:domain -->
<g id="edge1" class="edge">
<title>:app:shared&#45;&gt;:core:domain</title>
<path fill="none" stroke="black" d="M110.04,-152.08C84.14,-144.81 55.53,-131.68 39.84,-108 26.9,-88.45 38.16,-62.9 50.58,-44.19"/>
<polygon fill="black" stroke="black" points="53.56,-46.05 56.48,-35.87 47.84,-42 53.56,-46.05"/>
</g>
<!-- :feature:lmu&#45;windows&#45;readout&#45;vehicle&#45;approach&#45;detail -->
<g id="node3" class="node">
<title>:feature:lmu&#45;windows&#45;readout&#45;vehicle&#45;approach&#45;detail</title>
<ellipse fill="none" stroke="black" cx="309.84" cy="-90" rx="260.75" ry="18"/>
<text text-anchor="middle" x="309.84" y="-86.3" font-family="Times,serif" font-size="14.00">:feature:lmu&#45;windows&#45;readout&#45;vehicle&#45;approach&#45;detail</text>
</g>
<!-- :app:shared&#45;&gt;:feature:lmu&#45;windows&#45;readout&#45;vehicle&#45;approach&#45;detail -->
<g id="edge2" class="edge">
<title>:app:shared&#45;&gt;:feature:lmu&#45;windows&#45;readout&#45;vehicle&#45;approach&#45;detail</title>
<path fill="none" stroke="black" d="M195.95,-145.98C216.28,-136.17 243.15,-123.2 265.68,-112.32"/>
<polygon fill="black" stroke="black" points="267.23,-115.46 274.72,-107.96 264.19,-109.15 267.23,-115.46"/>
</g>
<!-- :feature:lmu&#45;windows&#45;readout&#45;vehicle&#45;approach&#45;detail&#45;&gt;:core:domain -->
<g id="edge3" class="edge">
<title>:feature:lmu&#45;windows&#45;readout&#45;vehicle&#45;approach&#45;detail&#45;&gt;:core:domain</title>
<path fill="none" stroke="black" d="M253.2,-72.41C214.56,-61.09 163.65,-46.18 125.44,-34.99"/>
<polygon fill="black" stroke="black" points="126.1,-31.54 115.52,-32.08 124.13,-38.25 126.1,-31.54"/>
</g>
<!-- :core:designsystem -->
<g id="node4" class="node">
<title>:core:designsystem</title>
<ellipse fill="none" stroke="black" cx="309.84" cy="-18" rx="100.98" ry="18"/>
<text text-anchor="middle" x="309.84" y="-14.3" font-family="Times,serif" font-size="14.00">:core:designsystem</text>
</g>
<!-- :feature:lmu&#45;windows&#45;readout&#45;vehicle&#45;approach&#45;detail&#45;&gt;:core:designsystem -->
<g id="edge4" class="edge">
<title>:feature:lmu&#45;windows&#45;readout&#45;vehicle&#45;approach&#45;detail&#45;&gt;:core:designsystem</title>
<path fill="none" stroke="black" d="M309.84,-71.7C309.84,-63.98 309.84,-54.71 309.84,-46.11"/>
<polygon fill="black" stroke="black" points="313.34,-46.1 309.84,-36.1 306.34,-46.1 313.34,-46.1"/>
</g>
</g>
</svg>
