<?xml version="1.0" encoding="UTF-8" standalone="no"?>
<!DOCTYPE svg PUBLIC "-//W3C//DTD SVG 1.1//EN"
 "http://www.w3.org/Graphics/SVG/1.1/DTD/svg11.dtd">
<!-- Generated by graphviz version 2.43.0 (0)
 -->
<!-- Title: G Pages: 1 -->
<svg width="226pt" height="188pt"
 viewBox="0.00 0.00 225.89 188.00" xmlns="http://www.w3.org/2000/svg" xmlns:xlink="http://www.w3.org/1999/xlink">
<g id="graph0" class="graph" transform="scale(1 1) rotate(0) translate(4 184)">
<title>G</title>
<polygon fill="white" stroke="transparent" points="-4,4 -4,-184 221.89,-184 221.89,4 -4,4"/>
<!-- :app:shared -->
<g id="node1" class="node">
<title>:app:shared</title>
<ellipse fill="none" stroke="black" cx="147.04" cy="-162" rx="65.79" ry="18"/>
<text text-anchor="middle" x="147.04" y="-158.3" font-family="Times,serif" font-size="14.00">:app:shared</text>
</g>
<!-- :feature:narrator -->
<g id="node2" class="node">
<title>:feature:narrator</title>
<ellipse fill="none" stroke="black" cx="89.04" cy="-90" rx="89.08" ry="18"/>
<text text-anchor="middle" x="89.04" y="-86.3" font-family="Times,serif" font-size="14.00">:feature:narrator</text>
</g>
<!-- :app:shared&#45;&gt;:feature:narrator -->
<g id="edge1" class="edge">
<title>:app:shared&#45;&gt;:feature:narrator</title>
<path fill="none" stroke="black" d="M133,-144.05C125.95,-135.54 117.27,-125.07 109.49,-115.68"/>
<polygon fill="black" stroke="black" points="112.03,-113.26 102.95,-107.79 106.64,-117.72 112.03,-113.26"/>
</g>
<!-- :core:domain -->
<g id="node3" class="node">
<title>:core:domain</title>
<ellipse fill="none" stroke="black" cx="147.04" cy="-18" rx="70.69" ry="18"/>
<text text-anchor="middle" x="147.04" y="-14.3" font-family="Times,serif" font-size="14.00">:core:domain</text>
</g>
<!-- :app:shared&#45;&gt;:core:domain -->
<g id="edge2" class="edge">
<title>:app:shared&#45;&gt;:core:domain</title>
<path fill="none" stroke="black" d="M163.94,-144.53C172.67,-134.83 182.43,-121.77 187.04,-108 192.12,-92.83 192.12,-87.17 187.04,-72 183.64,-61.83 177.43,-52.06 170.9,-43.73"/>
<polygon fill="black" stroke="black" points="173.46,-41.35 164.36,-35.93 168.1,-45.84 173.46,-41.35"/>
</g>
<!-- :feature:narrator&#45;&gt;:core:domain -->
<g id="edge3" class="edge">
<title>:feature:narrator&#45;&gt;:core:domain</title>
<path fill="none" stroke="black" d="M103.08,-72.05C110.14,-63.54 118.81,-53.07 126.59,-43.68"/>
<polygon fill="black" stroke="black" points="129.45,-45.72 133.13,-35.79 124.06,-41.26 129.45,-45.72"/>
</g>
</g>
</svg>
