<?xml version="1.0" encoding="UTF-8" standalone="no"?>
<!DOCTYPE svg PUBLIC "-//W3C//DTD SVG 1.1//EN"
 "http://www.w3.org/Graphics/SVG/1.1/DTD/svg11.dtd">
<!-- Generated by graphviz version 2.43.0 (0)
 -->
<!-- Title: G Pages: 1 -->
<svg width="287pt" height="188pt"
 viewBox="0.00 0.00 287.48 188.00" xmlns="http://www.w3.org/2000/svg" xmlns:xlink="http://www.w3.org/1999/xlink">
<g id="graph0" class="graph" transform="scale(1 1) rotate(0) translate(4 184)">
<title>G</title>
<polygon fill="white" stroke="transparent" points="-4,4 -4,-184 283.48,-184 283.48,4 -4,4"/>
<!-- :app:shared -->
<g id="node1" class="node">
<title>:app:shared</title>
<ellipse fill="none" stroke="black" cx="139.74" cy="-162" rx="65.79" ry="18"/>
<text text-anchor="middle" x="139.74" y="-158.3" font-family="Times,serif" font-size="14.00">:app:shared</text>
</g>
<!-- :feature:other&#45;license&#45;detail -->
<g id="node2" class="node">
<title>:feature:other&#45;license&#45;detail</title>
<ellipse fill="none" stroke="black" cx="139.74" cy="-90" rx="139.98" ry="18"/>
<text text-anchor="middle" x="139.74" y="-86.3" font-family="Times,serif" font-size="14.00">:feature:other&#45;license&#45;detail</text>
</g>
<!-- :app:shared&#45;&gt;:feature:other&#45;license&#45;detail -->
<g id="edge1" class="edge">
<title>:app:shared&#45;&gt;:feature:other&#45;license&#45;detail</title>
<path fill="none" stroke="black" d="M139.74,-143.7C139.74,-135.98 139.74,-126.71 139.74,-118.11"/>
<polygon fill="black" stroke="black" points="143.24,-118.1 139.74,-108.1 136.24,-118.1 143.24,-118.1"/>
</g>
<!-- :core:designsystem -->
<g id="node3" class="node">
<title>:core:designsystem</title>
<ellipse fill="none" stroke="black" cx="139.74" cy="-18" rx="100.98" ry="18"/>
<text text-anchor="middle" x="139.74" y="-14.3" font-family="Times,serif" font-size="14.00">:core:designsystem</text>
</g>
<!-- :feature:other&#45;license&#45;detail&#45;&gt;:core:designsystem -->
<g id="edge2" class="edge">
<title>:feature:other&#45;license&#45;detail&#45;&gt;:core:designsystem</title>
<path fill="none" stroke="black" d="M139.74,-71.7C139.74,-63.98 139.74,-54.71 139.74,-46.11"/>
<polygon fill="black" stroke="black" points="143.24,-46.1 139.74,-36.1 136.24,-46.1 143.24,-46.1"/>
</g>
</g>
</svg>
