<?xml version="1.0" encoding="UTF-8" standalone="no"?>
<!DOCTYPE svg PUBLIC "-//W3C//DTD SVG 1.1//EN"
 "http://www.w3.org/Graphics/SVG/1.1/DTD/svg11.dtd">
<!-- Generated by graphviz version 2.43.0 (0)
 -->
<!-- Title: G Pages: 1 -->
<svg width="397pt" height="188pt"
 viewBox="0.00 0.00 396.73 188.00" xmlns="http://www.w3.org/2000/svg" xmlns:xlink="http://www.w3.org/1999/xlink">
<g id="graph0" class="graph" transform="scale(1 1) rotate(0) translate(4 184)">
<title>G</title>
<polygon fill="white" stroke="transparent" points="-4,4 -4,-184 392.73,-184 392.73,4 -4,4"/>
<!-- :app:shared -->
<g id="node1" class="node">
<title>:app:shared</title>
<ellipse fill="none" stroke="black" cx="179.74" cy="-162" rx="65.79" ry="18"/>
<text text-anchor="middle" x="179.74" y="-158.3" font-family="Times,serif" font-size="14.00">:app:shared</text>
</g>
<!-- :core:designsystem -->
<g id="node2" class="node">
<title>:core:designsystem</title>
<ellipse fill="none" stroke="black" cx="100.74" cy="-18" rx="100.98" ry="18"/>
<text text-anchor="middle" x="100.74" y="-14.3" font-family="Times,serif" font-size="14.00">:core:designsystem</text>
</g>
<!-- :app:shared&#45;&gt;:core:designsystem -->
<g id="edge1" class="edge">
<title>:app:shared&#45;&gt;:core:designsystem</title>
<path fill="none" stroke="black" d="M155.27,-145.13C142.78,-135.78 128.44,-122.88 119.74,-108 108.75,-89.18 104.08,-64.81 102.12,-46.32"/>
<polygon fill="black" stroke="black" points="105.6,-45.87 101.25,-36.21 98.62,-46.47 105.6,-45.87"/>
</g>
<!-- :feature:telemetry&#45;log&#45;list -->
<g id="node3" class="node">
<title>:feature:telemetry&#45;log&#45;list</title>
<ellipse fill="none" stroke="black" cx="258.74" cy="-90" rx="129.98" ry="18"/>
<text text-anchor="middle" x="258.74" y="-86.3" font-family="Times,serif" font-size="14.00">:feature:telemetry&#45;log&#45;list</text>
</g>
<!-- :app:shared&#45;&gt;:feature:telemetry&#45;log&#45;list -->
<g id="edge2" class="edge">
<title>:app:shared&#45;&gt;:feature:telemetry&#45;log&#45;list</title>
<path fill="none" stroke="black" d="M198.46,-144.41C208.45,-135.56 220.91,-124.52 231.91,-114.77"/>
<polygon fill="black" stroke="black" points="234.44,-117.21 239.6,-107.96 229.8,-111.97 234.44,-117.21"/>
</g>
<!-- :feature:telemetry&#45;log&#45;list&#45;&gt;:core:designsystem -->
<g id="edge4" class="edge">
<title>:feature:telemetry&#45;log&#45;list&#45;&gt;:core:designsystem</title>
<path fill="none" stroke="black" d="M221.7,-72.59C199.07,-62.56 169.97,-49.67 145.99,-39.05"/>
<polygon fill="black" stroke="black" points="147.3,-35.8 136.74,-34.95 144.46,-42.2 147.3,-35.8"/>
</g>
<!-- :core:domain -->
<g id="node4" class="node">
<title>:core:domain</title>
<ellipse fill="none" stroke="black" cx="290.74" cy="-18" rx="70.69" ry="18"/>
<text text-anchor="middle" x="290.74" y="-14.3" font-family="Times,serif" font-size="14.00">:core:domain</text>
</g>
<!-- :feature:telemetry&#45;log&#45;list&#45;&gt;:core:domain -->
<g id="edge3" class="edge">
<title>:feature:telemetry&#45;log&#45;list&#45;&gt;:core:domain</title>
<path fill="none" stroke="black" d="M266.65,-71.7C270.29,-63.73 274.7,-54.1 278.73,-45.26"/>
<polygon fill="black" stroke="black" points="281.95,-46.65 282.92,-36.1 275.58,-43.74 281.95,-46.65"/>
</g>
</g>
</svg>
