<?xml version="1.0" encoding="UTF-8" standalone="no"?>
<!DOCTYPE svg PUBLIC "-//W3C//DTD SVG 1.1//EN"
 "http://www.w3.org/Graphics/SVG/1.1/DTD/svg11.dtd">
<!-- Generated by graphviz version 2.43.0 (0)
 -->
<!-- Title: G Pages: 1 -->
<svg width="405pt" height="188pt"
 viewBox="0.00 0.00 404.68 188.00" xmlns="http://www.w3.org/2000/svg" xmlns:xlink="http://www.w3.org/1999/xlink">
<g id="graph0" class="graph" transform="scale(1 1) rotate(0) translate(4 184)">
<title>G</title>
<polygon fill="white" stroke="transparent" points="-4,4 -4,-184 400.68,-184 400.68,4 -4,4"/>
<!-- :app:shared -->
<g id="node1" class="node">
<title>:app:shared</title>
<ellipse fill="none" stroke="black" cx="158.84" cy="-162" rx="65.79" ry="18"/>
<text text-anchor="middle" x="158.84" y="-158.3" font-family="Times,serif" font-size="14.00">:app:shared</text>
</g>
<!-- :core:domain -->
<g id="node2" class="node">
<title>:core:domain</title>
<ellipse fill="none" stroke="black" cx="70.84" cy="-18" rx="70.69" ry="18"/>
<text text-anchor="middle" x="70.84" y="-14.3" font-family="Times,serif" font-size="14.00">:core:domain</text>
</g>
<!-- :app:shared&#45;&gt;:core:domain -->
<g id="edge1" class="edge">
<title>:app:shared&#45;&gt;:core:domain</title>
<path fill="none" stroke="black" d="M130.35,-145.67C116.08,-136.56 99.76,-123.71 89.84,-108 78.14,-89.46 73.54,-64.87 71.79,-46.23"/>
<polygon fill="black" stroke="black" points="75.26,-45.76 71.05,-36.04 68.28,-46.27 75.26,-45.76"/>
</g>
<!-- :feature:other&#45;server&#45;ip&#45;detail -->
<g id="node3" class="node">
<title>:feature:other&#45;server&#45;ip&#45;detail</title>
<ellipse fill="none" stroke="black" cx="247.84" cy="-90" rx="148.67" ry="18"/>
<text text-anchor="middle" x="247.84" y="-86.3" font-family="Times,serif" font-size="14.00">:feature:other&#45;server&#45;ip&#45;detail</text>
</g>
<!-- :app:shared&#45;&gt;:feature:other&#45;server&#45;ip&#45;detail -->
<g id="edge2" class="edge">
<title>:app:shared&#45;&gt;:feature:other&#45;server&#45;ip&#45;detail</title>
<path fill="none" stroke="black" d="M179.49,-144.76C191.03,-135.69 205.61,-124.22 218.34,-114.21"/>
<polygon fill="black" stroke="black" points="220.69,-116.81 226.38,-107.88 216.36,-111.31 220.69,-116.81"/>
</g>
<!-- :feature:other&#45;server&#45;ip&#45;detail&#45;&gt;:core:domain -->
<g id="edge3" class="edge">
<title>:feature:other&#45;server&#45;ip&#45;detail&#45;&gt;:core:domain</title>
<path fill="none" stroke="black" d="M206.35,-72.59C179.56,-62 144.69,-48.21 117.03,-37.27"/>
<polygon fill="black" stroke="black" points="118.16,-33.95 107.58,-33.53 115.59,-40.46 118.16,-33.95"/>
</g>
<!-- :core:designsystem -->
<g id="node4" class="node">
<title>:core:designsystem</title>
<ellipse fill="none" stroke="black" cx="260.84" cy="-18" rx="100.98" ry="18"/>
<text text-anchor="middle" x="260.84" y="-14.3" font-family="Times,serif" font-size="14.00">:core:designsystem</text>
</g>
<!-- :feature:other&#45;server&#45;ip&#45;detail&#45;&gt;:core:designsystem -->
<g id="edge4" class="edge">
<title>:feature:other&#45;server&#45;ip&#45;detail&#45;&gt;:core:designsystem</title>
<path fill="none" stroke="black" d="M251.06,-71.7C252.49,-63.98 254.21,-54.71 255.81,-46.11"/>
<polygon fill="black" stroke="black" points="259.28,-46.58 257.67,-36.1 252.4,-45.3 259.28,-46.58"/>
</g>
</g>
</svg>
