<?xml version="1.0" encoding="UTF-8" standalone="no"?>
<!DOCTYPE svg PUBLIC "-//W3C//DTD SVG 1.1//EN"
 "http://www.w3.org/Graphics/SVG/1.1/DTD/svg11.dtd">
<!-- Generated by graphviz version 2.43.0 (0)
 -->
<!-- Title: G Pages: 1 -->
<svg width="317pt" height="188pt"
 viewBox="0.00 0.00 317.00 188.00" xmlns="http://www.w3.org/2000/svg" xmlns:xlink="http://www.w3.org/1999/xlink">
<g id="graph0" class="graph" transform="scale(1 1) rotate(0) translate(4 184)">
<title>G</title>
<polygon fill="white" stroke="transparent" points="-4,4 -4,-184 313,-184 313,4 -4,4"/>
<!-- :app:shared -->
<g id="node1" class="node">
<title>:app:shared</title>
<path fill="#ffe0b2" stroke="#fb8c00" d="M193,-180C193,-180 116,-180 116,-180 110,-180 104,-174 104,-168 104,-168 104,-156 104,-156 104,-150 110,-144 116,-144 116,-144 193,-144 193,-144 199,-144 205,-150 205,-156 205,-156 205,-168 205,-168 205,-174 199,-180 193,-180"/>
<text text-anchor="middle" x="154.5" y="-158.3" font-family="Times,serif" font-size="14.00">:app:shared</text>
</g>
<!-- :feature:lmu&#45;windows&#45;readout&#45;rain&#45;detail -->
<g id="node4" class="node">
<title>:feature:lmu&#45;windows&#45;readout&#45;rain&#45;detail</title>
<path fill="#c8e6c9" stroke="#43a047" stroke-width="2.5" d="M297,-108C297,-108 12,-108 12,-108 6,-108 0,-102 0,-96 0,-96 0,-84 0,-84 0,-78 6,-72 12,-72 12,-72 297,-72 297,-72 303,-72 309,-78 309,-84 309,-84 309,-96 309,-96 309,-102 303,-108 297,-108"/>
<text text-anchor="middle" x="154.5" y="-86.3" font-family="Times,serif" font-size="14.00">:feature:lmu&#45;windows&#45;readout&#45;rain&#45;detail</text>
</g>
<!-- :app:shared&#45;&gt;:feature:lmu&#45;windows&#45;readout&#45;rain&#45;detail -->
<g id="edge1" class="edge">
<title>:app:shared&#45;&gt;:feature:lmu&#45;windows&#45;readout&#45;rain&#45;detail</title>
<path fill="none" stroke="black" d="M154.5,-143.7C154.5,-135.98 154.5,-126.71 154.5,-118.11"/>
<polygon fill="black" stroke="black" points="158,-118.1 154.5,-108.1 151,-118.1 158,-118.1"/>
</g>
<!-- :core:designsystem -->
<g id="node2" class="node">
<title>:core:designsystem</title>
<path fill="#bbdefb" stroke="#1e88e5" d="M145,-36C145,-36 14,-36 14,-36 8,-36 2,-30 2,-24 2,-24 2,-12 2,-12 2,-6 8,0 14,0 14,0 145,0 145,0 151,0 157,-6 157,-12 157,-12 157,-24 157,-24 157,-30 151,-36 145,-36"/>
<text text-anchor="middle" x="79.5" y="-14.3" font-family="Times,serif" font-size="14.00">:core:designsystem</text>
</g>
<!-- :core:domain -->
<g id="node3" class="node">
<title>:core:domain</title>
<path fill="#bbdefb" stroke="#1e88e5" d="M272,-36C272,-36 187,-36 187,-36 181,-36 175,-30 175,-24 175,-24 175,-12 175,-12 175,-6 181,0 187,0 187,0 272,0 272,0 278,0 284,-6 284,-12 284,-12 284,-24 284,-24 284,-30 278,-36 272,-36"/>
<text text-anchor="middle" x="229.5" y="-14.3" font-family="Times,serif" font-size="14.00">:core:domain</text>
</g>
<!-- :feature:lmu&#45;windows&#45;readout&#45;rain&#45;detail&#45;&gt;:core:designsystem -->
<g id="edge3" class="edge">
<title>:feature:lmu&#45;windows&#45;readout&#45;rain&#45;detail&#45;&gt;:core:designsystem</title>
<path fill="none" stroke="black" d="M135.96,-71.7C126.7,-63.05 115.34,-52.45 105.24,-43.03"/>
<polygon fill="black" stroke="black" points="107.52,-40.37 97.83,-36.1 102.75,-45.49 107.52,-40.37"/>
</g>
<!-- :feature:lmu&#45;windows&#45;readout&#45;rain&#45;detail&#45;&gt;:core:domain -->
<g id="edge2" class="edge">
<title>:feature:lmu&#45;windows&#45;readout&#45;rain&#45;detail&#45;&gt;:core:domain</title>
<path fill="none" stroke="black" d="M173.04,-71.7C182.3,-63.05 193.66,-52.45 203.76,-43.03"/>
<polygon fill="black" stroke="black" points="206.25,-45.49 211.17,-36.1 201.48,-40.37 206.25,-45.49"/>
</g>
</g>
</svg>
