<?xml version="1.0" encoding="UTF-8" standalone="no"?>
<!DOCTYPE svg PUBLIC "-//W3C//DTD SVG 1.1//EN"
 "http://www.w3.org/Graphics/SVG/1.1/DTD/svg11.dtd">
<!-- Generated by graphviz version 2.43.0 (0)
 -->
<!-- Title: G Pages: 1 -->
<svg width="256pt" height="260pt"
 viewBox="0.00 0.00 256.04 260.00" xmlns="http://www.w3.org/2000/svg" xmlns:xlink="http://www.w3.org/1999/xlink">
<g id="graph0" class="graph" transform="scale(1 1) rotate(0) translate(4 256)">
<title>G</title>
<polygon fill="white" stroke="transparent" points="-4,4 -4,-256 252.04,-256 252.04,4 -4,4"/>
<!-- :app:desktopApp -->
<g id="node1" class="node">
<title>:app:desktopApp</title>
<ellipse fill="none" stroke="black" cx="159.64" cy="-234" rx="88.28" ry="18"/>
<text text-anchor="middle" x="159.64" y="-230.3" font-family="Times,serif" font-size="14.00">:app:desktopApp</text>
</g>
<!-- :app:shared -->
<g id="node2" class="node">
<title>:app:shared</title>
<ellipse fill="none" stroke="black" cx="65.64" cy="-162" rx="65.79" ry="18"/>
<text text-anchor="middle" x="65.64" y="-158.3" font-family="Times,serif" font-size="14.00">:app:shared</text>
</g>
<!-- :app:desktopApp&#45;&gt;:app:shared -->
<g id="edge1" class="edge">
<title>:app:desktopApp&#45;&gt;:app:shared</title>
<path fill="none" stroke="black" d="M137.37,-216.41C124.87,-207.1 109.11,-195.37 95.55,-185.27"/>
<polygon fill="black" stroke="black" points="97.55,-182.39 87.44,-179.23 93.37,-188.01 97.55,-182.39"/>
</g>
<!-- :core:domain -->
<g id="node3" class="node">
<title>:core:domain</title>
<ellipse fill="none" stroke="black" cx="121.64" cy="-18" rx="70.69" ry="18"/>
<text text-anchor="middle" x="121.64" y="-14.3" font-family="Times,serif" font-size="14.00">:core:domain</text>
</g>
<!-- :app:desktopApp&#45;&gt;:core:domain -->
<g id="edge2" class="edge">
<title>:app:desktopApp&#45;&gt;:core:domain</title>
<path fill="none" stroke="black" d="M174.74,-216.1C199.96,-185.74 245.17,-120.58 216.64,-72 207.37,-56.21 191.49,-44.77 175.34,-36.66"/>
<polygon fill="black" stroke="black" points="176.4,-33.3 165.85,-32.27 173.45,-39.65 176.4,-33.3"/>
</g>
<!-- :feature:readout -->
<g id="node4" class="node">
<title>:feature:readout</title>
<ellipse fill="none" stroke="black" cx="121.64" cy="-90" rx="86.38" ry="18"/>
<text text-anchor="middle" x="121.64" y="-86.3" font-family="Times,serif" font-size="14.00">:feature:readout</text>
</g>
<!-- :app:desktopApp&#45;&gt;:feature:readout -->
<g id="edge3" class="edge">
<title>:app:desktopApp&#45;&gt;:feature:readout</title>
<path fill="none" stroke="black" d="M156.67,-215.77C153.4,-197.72 147.65,-168.62 140.64,-144 138.17,-135.31 135.01,-125.99 131.97,-117.62"/>
<polygon fill="black" stroke="black" points="135.16,-116.15 128.39,-108 128.6,-118.59 135.16,-116.15"/>
</g>
<!-- :app:shared&#45;&gt;:core:domain -->
<g id="edge5" class="edge">
<title>:app:shared&#45;&gt;:core:domain</title>
<path fill="none" stroke="black" d="M49.02,-144.36C32.83,-126.04 12.55,-96 26.64,-72 35.92,-56.21 51.8,-44.77 67.95,-36.66"/>
<polygon fill="black" stroke="black" points="69.84,-39.65 77.44,-32.27 66.89,-33.3 69.84,-39.65"/>
</g>
<!-- :app:shared&#45;&gt;:feature:readout -->
<g id="edge4" class="edge">
<title>:app:shared&#45;&gt;:feature:readout</title>
<path fill="none" stroke="black" d="M79.2,-144.05C86.01,-135.54 94.39,-125.07 101.9,-115.68"/>
<polygon fill="black" stroke="black" points="104.7,-117.78 108.21,-107.79 99.23,-113.41 104.7,-117.78"/>
</g>
<!-- :feature:readout&#45;&gt;:core:domain -->
<g id="edge6" class="edge">
<title>:feature:readout&#45;&gt;:core:domain</title>
<path fill="none" stroke="black" d="M121.64,-71.7C121.64,-63.98 121.64,-54.71 121.64,-46.11"/>
<polygon fill="black" stroke="black" points="125.14,-46.1 121.64,-36.1 118.14,-46.1 125.14,-46.1"/>
</g>
</g>
</svg>
