<?xml version="1.0" encoding="UTF-8" standalone="no"?>
<!DOCTYPE svg PUBLIC "-//W3C//DTD SVG 1.1//EN"
 "http://www.w3.org/Graphics/SVG/1.1/DTD/svg11.dtd">
<!-- Generated by graphviz version 2.43.0 (0)
 -->
<!-- Title: G Pages: 1 -->
<svg width="259pt" height="260pt"
 viewBox="0.00 0.00 258.83 260.00" xmlns="http://www.w3.org/2000/svg" xmlns:xlink="http://www.w3.org/1999/xlink">
<g id="graph0" class="graph" transform="scale(1 1) rotate(0) translate(4 256)">
<title>G</title>
<polygon fill="white" stroke="transparent" points="-4,4 -4,-256 254.83,-256 254.83,4 -4,4"/>
<!-- :app:desktopApp -->
<g id="node1" class="node">
<title>:app:desktopApp</title>
<ellipse fill="none" stroke="black" cx="162.44" cy="-234" rx="88.28" ry="18"/>
<text text-anchor="middle" x="162.44" y="-230.3" font-family="Times,serif" font-size="14.00">:app:desktopApp</text>
</g>
<!-- :app:shared -->
<g id="node2" class="node">
<title>:app:shared</title>
<ellipse fill="none" stroke="black" cx="68.44" cy="-162" rx="65.79" ry="18"/>
<text text-anchor="middle" x="68.44" y="-158.3" font-family="Times,serif" font-size="14.00">:app:shared</text>
</g>
<!-- :app:desktopApp&#45;&gt;:app:shared -->
<g id="edge1" class="edge">
<title>:app:desktopApp&#45;&gt;:app:shared</title>
<path fill="none" stroke="black" d="M140.17,-216.41C127.67,-207.1 111.91,-195.37 98.35,-185.27"/>
<polygon fill="black" stroke="black" points="100.35,-182.39 90.23,-179.23 96.16,-188.01 100.35,-182.39"/>
</g>
<!-- :core:domain -->
<g id="node3" class="node">
<title>:core:domain</title>
<ellipse fill="none" stroke="black" cx="143.44" cy="-18" rx="70.69" ry="18"/>
<text text-anchor="middle" x="143.44" y="-14.3" font-family="Times,serif" font-size="14.00">:core:domain</text>
</g>
<!-- :app:desktopApp&#45;&gt;:core:domain -->
<g id="edge2" class="edge">
<title>:app:desktopApp&#45;&gt;:core:domain</title>
<path fill="none" stroke="black" d="M169.18,-215.62C179.8,-185.59 197.64,-122.37 181.44,-72 178.17,-61.81 172.13,-51.93 165.82,-43.5"/>
<polygon fill="black" stroke="black" points="168.49,-41.24 159.51,-35.61 163.02,-45.61 168.49,-41.24"/>
</g>
<!-- :feature:readout -->
<g id="node4" class="node">
<title>:feature:readout</title>
<ellipse fill="none" stroke="black" cx="86.44" cy="-90" rx="86.38" ry="18"/>
<text text-anchor="middle" x="86.44" y="-86.3" font-family="Times,serif" font-size="14.00">:feature:readout</text>
</g>
<!-- :app:desktopApp&#45;&gt;:feature:readout -->
<g id="edge3" class="edge">
<title>:app:desktopApp&#45;&gt;:feature:readout</title>
<path fill="none" stroke="black" d="M161.82,-215.85C160.48,-197.09 156.31,-166.67 143.44,-144 137.04,-132.71 127.41,-122.42 117.88,-113.98"/>
<polygon fill="black" stroke="black" points="119.88,-111.09 109.97,-107.35 115.38,-116.46 119.88,-111.09"/>
</g>
<!-- :app:shared&#45;&gt;:feature:readout -->
<g id="edge4" class="edge">
<title>:app:shared&#45;&gt;:feature:readout</title>
<path fill="none" stroke="black" d="M72.89,-143.7C74.9,-135.9 77.31,-126.51 79.54,-117.83"/>
<polygon fill="black" stroke="black" points="82.94,-118.66 82.04,-108.1 76.16,-116.92 82.94,-118.66"/>
</g>
<!-- :feature:readout&#45;&gt;:core:domain -->
<g id="edge5" class="edge">
<title>:feature:readout&#45;&gt;:core:domain</title>
<path fill="none" stroke="black" d="M100.24,-72.05C107.17,-63.54 115.7,-53.07 123.34,-43.68"/>
<polygon fill="black" stroke="black" points="126.17,-45.75 129.77,-35.79 120.74,-41.33 126.17,-45.75"/>
</g>
</g>
</svg>
