<?xml version="1.0" encoding="UTF-8" standalone="no"?>
<!DOCTYPE svg PUBLIC "-//W3C//DTD SVG 1.1//EN"
 "http://www.w3.org/Graphics/SVG/1.1/DTD/svg11.dtd">
<!-- Generated by graphviz version 2.43.0 (0)
 -->
<!-- Title: G Pages: 1 -->
<svg width="181pt" height="188pt"
 viewBox="0.00 0.00 180.88 188.00" xmlns="http://www.w3.org/2000/svg" xmlns:xlink="http://www.w3.org/1999/xlink">
<g id="graph0" class="graph" transform="scale(1 1) rotate(0) translate(4 184)">
<title>G</title>
<polygon fill="white" stroke="transparent" points="-4,4 -4,-184 176.88,-184 176.88,4 -4,4"/>
<!-- :app:shared -->
<g id="node1" class="node">
<title>:app:shared</title>
<ellipse fill="none" stroke="black" cx="86.44" cy="-162" rx="65.79" ry="18"/>
<text text-anchor="middle" x="86.44" y="-158.3" font-family="Times,serif" font-size="14.00">:app:shared</text>
</g>
<!-- :feature:readout -->
<g id="node2" class="node">
<title>:feature:readout</title>
<ellipse fill="none" stroke="black" cx="86.44" cy="-90" rx="86.38" ry="18"/>
<text text-anchor="middle" x="86.44" y="-86.3" font-family="Times,serif" font-size="14.00">:feature:readout</text>
</g>
<!-- :app:shared&#45;&gt;:feature:readout -->
<g id="edge1" class="edge">
<title>:app:shared&#45;&gt;:feature:readout</title>
<path fill="none" stroke="black" d="M86.44,-143.7C86.44,-135.98 86.44,-126.71 86.44,-118.11"/>
<polygon fill="black" stroke="black" points="89.94,-118.1 86.44,-108.1 82.94,-118.1 89.94,-118.1"/>
</g>
<!-- :core -->
<g id="node3" class="node">
<title>:core</title>
<ellipse fill="none" stroke="black" cx="86.44" cy="-18" rx="33.6" ry="18"/>
<text text-anchor="middle" x="86.44" y="-14.3" font-family="Times,serif" font-size="14.00">:core</text>
</g>
<!-- :feature:readout&#45;&gt;:core -->
<g id="edge2" class="edge">
<title>:feature:readout&#45;&gt;:core</title>
<path fill="none" stroke="black" d="M86.44,-71.7C86.44,-63.98 86.44,-54.71 86.44,-46.11"/>
<polygon fill="black" stroke="black" points="89.94,-46.1 86.44,-36.1 82.94,-46.1 89.94,-46.1"/>
</g>
</g>
</svg>
