<?xml version="1.0" encoding="UTF-8" standalone="no"?>
<!DOCTYPE svg PUBLIC "-//W3C//DTD SVG 1.1//EN"
 "http://www.w3.org/Graphics/SVG/1.1/DTD/svg11.dtd">
<!-- Generated by graphviz version 2.43.0 (0)
 -->
<!-- Title: G Pages: 1 -->
<svg width="351pt" height="188pt"
 viewBox="0.00 0.00 351.02 188.00" xmlns="http://www.w3.org/2000/svg" xmlns:xlink="http://www.w3.org/1999/xlink">
<g id="graph0" class="graph" transform="scale(1 1) rotate(0) translate(4 184)">
<title>G</title>
<polygon fill="white" stroke="transparent" points="-4,4 -4,-184 347.02,-184 347.02,4 -4,4"/>
<!-- :app:shared -->
<g id="node1" class="node">
<title>:app:shared</title>
<ellipse fill="none" stroke="black" cx="82.58" cy="-162" rx="65.79" ry="18"/>
<text text-anchor="middle" x="82.58" y="-158.3" font-family="Times,serif" font-size="14.00">:app:shared</text>
</g>
<!-- :core:domain -->
<g id="node2" class="node">
<title>:core:domain</title>
<ellipse fill="none" stroke="black" cx="82.58" cy="-18" rx="70.69" ry="18"/>
<text text-anchor="middle" x="82.58" y="-14.3" font-family="Times,serif" font-size="14.00">:core:domain</text>
</g>
<!-- :app:shared&#45;&gt;:core:domain -->
<g id="edge1" class="edge">
<title>:app:shared&#45;&gt;:core:domain</title>
<path fill="none" stroke="black" d="M48.15,-146.61C32.13,-137.96 14.65,-125.24 5.58,-108 -1.86,-93.84 -1.86,-86.16 5.58,-72 12.82,-58.23 25.44,-47.34 38.39,-39.1"/>
<polygon fill="black" stroke="black" points="40.51,-41.92 47.35,-33.82 36.96,-35.89 40.51,-41.92"/>
</g>
<!-- :feature:lmu&#45;windows&#45;connection -->
<g id="node3" class="node">
<title>:feature:lmu&#45;windows&#45;connection</title>
<ellipse fill="none" stroke="black" cx="178.58" cy="-90" rx="164.37" ry="18"/>
<text text-anchor="middle" x="178.58" y="-86.3" font-family="Times,serif" font-size="14.00">:feature:lmu&#45;windows&#45;connection</text>
</g>
<!-- :app:shared&#45;&gt;:feature:lmu&#45;windows&#45;connection -->
<g id="edge2" class="edge">
<title>:app:shared&#45;&gt;:feature:lmu&#45;windows&#45;connection</title>
<path fill="none" stroke="black" d="M104.85,-144.76C117.42,-135.6 133.33,-124 147.15,-113.92"/>
<polygon fill="black" stroke="black" points="149.42,-116.6 155.44,-107.88 145.29,-110.94 149.42,-116.6"/>
</g>
<!-- :feature:lmu&#45;windows&#45;connection&#45;&gt;:core:domain -->
<g id="edge3" class="edge">
<title>:feature:lmu&#45;windows&#45;connection&#45;&gt;:core:domain</title>
<path fill="none" stroke="black" d="M155.34,-72.05C142.66,-62.81 126.8,-51.24 113.13,-41.27"/>
<polygon fill="black" stroke="black" points="115.09,-38.37 104.95,-35.31 110.97,-44.03 115.09,-38.37"/>
</g>
</g>
</svg>
