<?xml version="1.0" encoding="UTF-8" standalone="no"?>
<!DOCTYPE svg PUBLIC "-//W3C//DTD SVG 1.1//EN"
 "http://www.w3.org/Graphics/SVG/1.1/DTD/svg11.dtd">
<!-- Generated by graphviz version 2.43.0 (0)
 -->
<!-- Title: G Pages: 1 -->
<svg width="416pt" height="188pt"
 viewBox="0.00 0.00 416.48 188.00" xmlns="http://www.w3.org/2000/svg" xmlns:xlink="http://www.w3.org/1999/xlink">
<g id="graph0" class="graph" transform="scale(1 1) rotate(0) translate(4 184)">
<title>G</title>
<polygon fill="white" stroke="transparent" points="-4,4 -4,-184 412.48,-184 412.48,4 -4,4"/>
<!-- :app:shared -->
<g id="node1" class="node">
<title>:app:shared</title>
<ellipse fill="none" stroke="black" cx="184.74" cy="-162" rx="65.79" ry="18"/>
<text text-anchor="middle" x="184.74" y="-158.3" font-family="Times,serif" font-size="14.00">:app:shared</text>
</g>
<!-- :core:designsystem -->
<g id="node2" class="node">
<title>:core:designsystem</title>
<ellipse fill="none" stroke="black" cx="100.74" cy="-18" rx="100.98" ry="18"/>
<text text-anchor="middle" x="100.74" y="-14.3" font-family="Times,serif" font-size="14.00">:core:designsystem</text>
</g>
<!-- :app:shared&#45;&gt;:core:designsystem -->
<g id="edge1" class="edge">
<title>:app:shared&#45;&gt;:core:designsystem</title>
<path fill="none" stroke="black" d="M157.9,-145.32C144.45,-136.11 129.08,-123.28 119.74,-108 108.38,-89.4 103.74,-65.01 101.89,-46.47"/>
<polygon fill="black" stroke="black" points="105.36,-46 101.08,-36.31 98.38,-46.55 105.36,-46"/>
</g>
<!-- :feature:other&#45;license&#45;detail -->
<g id="node3" class="node">
<title>:feature:other&#45;license&#45;detail</title>
<ellipse fill="none" stroke="black" cx="268.74" cy="-90" rx="139.98" ry="18"/>
<text text-anchor="middle" x="268.74" y="-86.3" font-family="Times,serif" font-size="14.00">:feature:other&#45;license&#45;detail</text>
</g>
<!-- :app:shared&#45;&gt;:feature:other&#45;license&#45;detail -->
<g id="edge2" class="edge">
<title>:app:shared&#45;&gt;:feature:other&#45;license&#45;detail</title>
<path fill="none" stroke="black" d="M204.22,-144.76C215.01,-135.77 228.62,-124.44 240.55,-114.49"/>
<polygon fill="black" stroke="black" points="243.05,-116.97 248.49,-107.88 238.56,-111.59 243.05,-116.97"/>
</g>
<!-- :feature:other&#45;license&#45;detail&#45;&gt;:core:designsystem -->
<g id="edge4" class="edge">
<title>:feature:other&#45;license&#45;detail&#45;&gt;:core:designsystem</title>
<path fill="none" stroke="black" d="M229.35,-72.59C205.02,-62.45 173.64,-49.37 147.97,-38.68"/>
<polygon fill="black" stroke="black" points="149.02,-35.32 138.44,-34.71 146.32,-41.78 149.02,-35.32"/>
</g>
<!-- :core:domain -->
<g id="node4" class="node">
<title>:core:domain</title>
<ellipse fill="none" stroke="black" cx="290.74" cy="-18" rx="70.69" ry="18"/>
<text text-anchor="middle" x="290.74" y="-14.3" font-family="Times,serif" font-size="14.00">:core:domain</text>
</g>
<!-- :feature:other&#45;license&#45;detail&#45;&gt;:core:domain -->
<g id="edge3" class="edge">
<title>:feature:other&#45;license&#45;detail&#45;&gt;:core:domain</title>
<path fill="none" stroke="black" d="M274.18,-71.7C276.63,-63.9 279.58,-54.51 282.31,-45.83"/>
<polygon fill="black" stroke="black" points="285.71,-46.69 285.37,-36.1 279.03,-44.59 285.71,-46.69"/>
</g>
</g>
</svg>
