<?xml version="1.0" encoding="UTF-8" standalone="no"?>
<!DOCTYPE svg PUBLIC "-//W3C//DTD SVG 1.1//EN"
 "http://www.w3.org/Graphics/SVG/1.1/DTD/svg11.dtd">
<!-- Generated by graphviz version 2.43.0 (0)
 -->
<!-- Title: G Pages: 1 -->
<svg width="228pt" height="188pt"
 viewBox="0.00 0.00 227.68 188.00" xmlns="http://www.w3.org/2000/svg" xmlns:xlink="http://www.w3.org/1999/xlink">
<g id="graph0" class="graph" transform="scale(1 1) rotate(0) translate(4 184)">
<title>G</title>
<polygon fill="white" stroke="transparent" points="-4,4 -4,-184 223.68,-184 223.68,4 -4,4"/>
<!-- :app:shared -->
<g id="node1" class="node">
<title>:app:shared</title>
<ellipse fill="none" stroke="black" cx="109.84" cy="-162" rx="65.79" ry="18"/>
<text text-anchor="middle" x="109.84" y="-158.3" font-family="Times,serif" font-size="14.00">:app:shared</text>
</g>
<!-- :feature:lmu&#45;narrator -->
<g id="node2" class="node">
<title>:feature:lmu&#45;narrator</title>
<ellipse fill="none" stroke="black" cx="109.84" cy="-90" rx="109.68" ry="18"/>
<text text-anchor="middle" x="109.84" y="-86.3" font-family="Times,serif" font-size="14.00">:feature:lmu&#45;narrator</text>
</g>
<!-- :app:shared&#45;&gt;:feature:lmu&#45;narrator -->
<g id="edge1" class="edge">
<title>:app:shared&#45;&gt;:feature:lmu&#45;narrator</title>
<path fill="none" stroke="black" d="M109.84,-143.7C109.84,-135.98 109.84,-126.71 109.84,-118.11"/>
<polygon fill="black" stroke="black" points="113.34,-118.1 109.84,-108.1 106.34,-118.1 113.34,-118.1"/>
</g>
<!-- :core:domain -->
<g id="node3" class="node">
<title>:core:domain</title>
<ellipse fill="none" stroke="black" cx="109.84" cy="-18" rx="70.69" ry="18"/>
<text text-anchor="middle" x="109.84" y="-14.3" font-family="Times,serif" font-size="14.00">:core:domain</text>
</g>
<!-- :feature:lmu&#45;narrator&#45;&gt;:core:domain -->
<g id="edge2" class="edge">
<title>:feature:lmu&#45;narrator&#45;&gt;:core:domain</title>
<path fill="none" stroke="black" d="M109.84,-71.7C109.84,-63.98 109.84,-54.71 109.84,-46.11"/>
<polygon fill="black" stroke="black" points="113.34,-46.1 109.84,-36.1 106.34,-46.1 113.34,-46.1"/>
</g>
</g>
</svg>
