<?xml version="1.0" encoding="UTF-8" standalone="no"?>
<!DOCTYPE svg PUBLIC "-//W3C//DTD SVG 1.1//EN"
 "http://www.w3.org/Graphics/SVG/1.1/DTD/svg11.dtd">
<!-- Generated by graphviz version 2.43.0 (0)
 -->
<!-- Title: G Pages: 1 -->
<svg width="293pt" height="188pt"
 viewBox="0.00 0.00 293.08 188.00" xmlns="http://www.w3.org/2000/svg" xmlns:xlink="http://www.w3.org/1999/xlink">
<g id="graph0" class="graph" transform="scale(1 1) rotate(0) translate(4 184)">
<title>G</title>
<polygon fill="white" stroke="transparent" points="-4,4 -4,-184 289.08,-184 289.08,4 -4,4"/>
<!-- :app:shared -->
<g id="node1" class="node">
<title>:app:shared</title>
<ellipse fill="none" stroke="black" cx="70.84" cy="-162" rx="65.79" ry="18"/>
<text text-anchor="middle" x="70.84" y="-158.3" font-family="Times,serif" font-size="14.00">:app:shared</text>
</g>
<!-- :core:domain -->
<g id="node2" class="node">
<title>:core:domain</title>
<ellipse fill="none" stroke="black" cx="70.84" cy="-18" rx="70.69" ry="18"/>
<text text-anchor="middle" x="70.84" y="-14.3" font-family="Times,serif" font-size="14.00">:core:domain</text>
</g>
<!-- :app:shared&#45;&gt;:core:domain -->
<g id="edge1" class="edge">
<title>:app:shared&#45;&gt;:core:domain</title>
<path fill="none" stroke="black" d="M44.04,-145.44C31.13,-136.34 16.94,-123.57 9.84,-108 3.21,-93.44 3.21,-86.56 9.84,-72 15.4,-59.81 25.3,-49.34 35.52,-41.01"/>
<polygon fill="black" stroke="black" points="37.87,-43.62 43.72,-34.79 33.64,-38.04 37.87,-43.62"/>
</g>
<!-- :feature:server&#45;connection -->
<g id="node3" class="node">
<title>:feature:server&#45;connection</title>
<ellipse fill="none" stroke="black" cx="151.84" cy="-90" rx="133.48" ry="18"/>
<text text-anchor="middle" x="151.84" y="-86.3" font-family="Times,serif" font-size="14.00">:feature:server&#45;connection</text>
</g>
<!-- :app:shared&#45;&gt;:feature:server&#45;connection -->
<g id="edge2" class="edge">
<title>:app:shared&#45;&gt;:feature:server&#45;connection</title>
<path fill="none" stroke="black" d="M90.04,-144.41C100.28,-135.56 113.06,-124.52 124.34,-114.77"/>
<polygon fill="black" stroke="black" points="126.95,-117.14 132.22,-107.96 122.37,-111.85 126.95,-117.14"/>
</g>
<!-- :feature:server&#45;connection&#45;&gt;:core:domain -->
<g id="edge3" class="edge">
<title>:feature:server&#45;connection&#45;&gt;:core:domain</title>
<path fill="none" stroke="black" d="M132.24,-72.05C121.91,-63.13 109.1,-52.06 97.85,-42.34"/>
<polygon fill="black" stroke="black" points="99.85,-39.44 89.99,-35.55 95.27,-44.73 99.85,-39.44"/>
</g>
</g>
</svg>
