<?xml version="1.0" encoding="UTF-8" standalone="no"?>
<!DOCTYPE svg PUBLIC "-//W3C//DTD SVG 1.1//EN"
 "http://www.w3.org/Graphics/SVG/1.1/DTD/svg11.dtd">
<!-- Generated by graphviz version 2.43.0 (0)
 -->
<!-- Title: G Pages: 1 -->
<svg width="285pt" height="188pt"
 viewBox="0.00 0.00 284.88 188.00" xmlns="http://www.w3.org/2000/svg" xmlns:xlink="http://www.w3.org/1999/xlink">
<g id="graph0" class="graph" transform="scale(1 1) rotate(0) translate(4 184)">
<title>G</title>
<polygon fill="white" stroke="transparent" points="-4,4 -4,-184 280.88,-184 280.88,4 -4,4"/>
<!-- :app:shared -->
<g id="node1" class="node">
<title>:app:shared</title>
<ellipse fill="none" stroke="black" cx="138.44" cy="-162" rx="65.79" ry="18"/>
<text text-anchor="middle" x="138.44" y="-158.3" font-family="Times,serif" font-size="14.00">:app:shared</text>
</g>
<!-- :feature:gt7&#45;ps5&#45;connection -->
<g id="node2" class="node">
<title>:feature:gt7&#45;ps5&#45;connection</title>
<ellipse fill="none" stroke="black" cx="138.44" cy="-90" rx="138.38" ry="18"/>
<text text-anchor="middle" x="138.44" y="-86.3" font-family="Times,serif" font-size="14.00">:feature:gt7&#45;ps5&#45;connection</text>
</g>
<!-- :app:shared&#45;&gt;:feature:gt7&#45;ps5&#45;connection -->
<g id="edge1" class="edge">
<title>:app:shared&#45;&gt;:feature:gt7&#45;ps5&#45;connection</title>
<path fill="none" stroke="black" d="M138.44,-143.7C138.44,-135.98 138.44,-126.71 138.44,-118.11"/>
<polygon fill="black" stroke="black" points="141.94,-118.1 138.44,-108.1 134.94,-118.1 141.94,-118.1"/>
</g>
<!-- :core:domain -->
<g id="node3" class="node">
<title>:core:domain</title>
<ellipse fill="none" stroke="black" cx="138.44" cy="-18" rx="70.69" ry="18"/>
<text text-anchor="middle" x="138.44" y="-14.3" font-family="Times,serif" font-size="14.00">:core:domain</text>
</g>
<!-- :feature:gt7&#45;ps5&#45;connection&#45;&gt;:core:domain -->
<g id="edge2" class="edge">
<title>:feature:gt7&#45;ps5&#45;connection&#45;&gt;:core:domain</title>
<path fill="none" stroke="black" d="M138.44,-71.7C138.44,-63.98 138.44,-54.71 138.44,-46.11"/>
<polygon fill="black" stroke="black" points="141.94,-46.1 138.44,-36.1 134.94,-46.1 141.94,-46.1"/>
</g>
</g>
</svg>
