<?xml version="1.0" encoding="UTF-8" standalone="no"?>
<!DOCTYPE svg PUBLIC "-//W3C//DTD SVG 1.1//EN"
 "http://www.w3.org/Graphics/SVG/1.1/DTD/svg11.dtd">
<!-- Generated by graphviz version 2.43.0 (0)
 -->
<!-- Title: G Pages: 1 -->
<svg width="1213pt" height="260pt"
 viewBox="0.00 0.00 1212.74 260.00" xmlns="http://www.w3.org/2000/svg" xmlns:xlink="http://www.w3.org/1999/xlink">
<g id="graph0" class="graph" transform="scale(1 1) rotate(0) translate(4 256)">
<title>G</title>
<polygon fill="white" stroke="transparent" points="-4,4 -4,-256 1208.74,-256 1208.74,4 -4,4"/>
<!-- :server -->
<g id="node1" class="node">
<title>:server</title>
<ellipse fill="none" stroke="black" cx="43.55" cy="-90" rx="43.59" ry="18"/>
<text text-anchor="middle" x="43.55" y="-86.3" font-family="Times,serif" font-size="14.00">:server</text>
</g>
<!-- :core:domain -->
<g id="node2" class="node">
<title>:core:domain</title>
<ellipse fill="none" stroke="black" cx="504.55" cy="-18" rx="70.69" ry="18"/>
<text text-anchor="middle" x="504.55" y="-14.3" font-family="Times,serif" font-size="14.00">:core:domain</text>
</g>
<!-- :server&#45;&gt;:core:domain -->
<g id="edge1" class="edge">
<title>:server&#45;&gt;:core:domain</title>
<path fill="none" stroke="black" d="M76.75,-78.31C84.81,-75.99 93.44,-73.71 101.55,-72 214.11,-48.25 346.74,-33.25 428.23,-25.5"/>
<polygon fill="black" stroke="black" points="428.77,-28.96 438.4,-24.54 428.12,-21.99 428.77,-28.96"/>
</g>
<!-- :app:androidApp -->
<g id="node3" class="node">
<title>:app:androidApp</title>
<ellipse fill="none" stroke="black" cx="267.55" cy="-234" rx="87.18" ry="18"/>
<text text-anchor="middle" x="267.55" y="-230.3" font-family="Times,serif" font-size="14.00">:app:androidApp</text>
</g>
<!-- :app:androidApp&#45;&gt;:core:domain -->
<g id="edge3" class="edge">
<title>:app:androidApp&#45;&gt;:core:domain</title>
<path fill="none" stroke="black" d="M237,-217.02C185.04,-187.86 89.3,-124.18 134.55,-72 171.14,-29.79 325.84,-20.39 423.25,-18.75"/>
<polygon fill="black" stroke="black" points="423.43,-22.25 433.37,-18.6 423.32,-15.25 423.43,-22.25"/>
</g>
<!-- :app:shared -->
<g id="node4" class="node">
<title>:app:shared</title>
<ellipse fill="none" stroke="black" cx="504.55" cy="-162" rx="65.79" ry="18"/>
<text text-anchor="middle" x="504.55" y="-158.3" font-family="Times,serif" font-size="14.00">:app:shared</text>
</g>
<!-- :app:androidApp&#45;&gt;:app:shared -->
<g id="edge2" class="edge">
<title>:app:androidApp&#45;&gt;:app:shared</title>
<path fill="none" stroke="black" d="M315.22,-218.92C354.81,-207.23 411.05,-190.62 451.94,-178.54"/>
<polygon fill="black" stroke="black" points="453.13,-181.84 461.72,-175.65 451.14,-175.12 453.13,-181.84"/>
</g>
<!-- :feature:narrator -->
<g id="node6" class="node">
<title>:feature:narrator</title>
<ellipse fill="none" stroke="black" cx="232.55" cy="-90" rx="89.08" ry="18"/>
<text text-anchor="middle" x="232.55" y="-86.3" font-family="Times,serif" font-size="14.00">:feature:narrator</text>
</g>
<!-- :app:shared&#45;&gt;:feature:narrator -->
<g id="edge6" class="edge">
<title>:app:shared&#45;&gt;:feature:narrator</title>
<path fill="none" stroke="black" d="M458.41,-149.13C413.5,-137.57 344.95,-119.93 295.14,-107.11"/>
<polygon fill="black" stroke="black" points="296,-103.72 285.44,-104.61 294.26,-110.5 296,-103.72"/>
</g>
<!-- :feature:other -->
<g id="node7" class="node">
<title>:feature:other</title>
<ellipse fill="none" stroke="black" cx="414.55" cy="-90" rx="75.29" ry="18"/>
<text text-anchor="middle" x="414.55" y="-86.3" font-family="Times,serif" font-size="14.00">:feature:other</text>
</g>
<!-- :app:shared&#45;&gt;:feature:other -->
<g id="edge7" class="edge">
<title>:app:shared&#45;&gt;:feature:other</title>
<path fill="none" stroke="black" d="M483.67,-144.76C471.83,-135.55 456.82,-123.88 443.82,-113.77"/>
<polygon fill="black" stroke="black" points="445.66,-110.77 435.62,-107.39 441.36,-116.29 445.66,-110.77"/>
</g>
<!-- :feature:readout -->
<g id="node8" class="node">
<title>:feature:readout</title>
<ellipse fill="none" stroke="black" cx="594.55" cy="-90" rx="86.38" ry="18"/>
<text text-anchor="middle" x="594.55" y="-86.3" font-family="Times,serif" font-size="14.00">:feature:readout</text>
</g>
<!-- :app:shared&#45;&gt;:feature:readout -->
<g id="edge8" class="edge">
<title>:app:shared&#45;&gt;:feature:readout</title>
<path fill="none" stroke="black" d="M525.42,-144.76C537.18,-135.62 552.05,-124.05 564.99,-113.99"/>
<polygon fill="black" stroke="black" points="567.42,-116.54 573.16,-107.63 563.12,-111.01 567.42,-116.54"/>
</g>
<!-- :feature:readout&#45;vehicle&#45;approach -->
<g id="node9" class="node">
<title>:feature:readout&#45;vehicle&#45;approach</title>
<ellipse fill="none" stroke="black" cx="866.55" cy="-90" rx="167.87" ry="18"/>
<text text-anchor="middle" x="866.55" y="-86.3" font-family="Times,serif" font-size="14.00">:feature:readout&#45;vehicle&#45;approach</text>
</g>
<!-- :app:shared&#45;&gt;:feature:readout&#45;vehicle&#45;approach -->
<g id="edge9" class="edge">
<title>:app:shared&#45;&gt;:feature:readout&#45;vehicle&#45;approach</title>
<path fill="none" stroke="black" d="M556.8,-150.9C614.84,-139.67 709.49,-121.37 778.92,-107.94"/>
<polygon fill="black" stroke="black" points="779.82,-111.34 788.97,-106 778.49,-104.46 779.82,-111.34"/>
</g>
<!-- :app:desktopApp -->
<g id="node5" class="node">
<title>:app:desktopApp</title>
<ellipse fill="none" stroke="black" cx="872.55" cy="-234" rx="88.28" ry="18"/>
<text text-anchor="middle" x="872.55" y="-230.3" font-family="Times,serif" font-size="14.00">:app:desktopApp</text>
</g>
<!-- :app:desktopApp&#45;&gt;:core:domain -->
<g id="edge5" class="edge">
<title>:app:desktopApp&#45;&gt;:core:domain</title>
<path fill="none" stroke="black" d="M911.42,-217.75C976.5,-190.12 1095.51,-129.32 1043.55,-72 1013.35,-38.69 727.35,-25.57 584.68,-21.06"/>
<polygon fill="black" stroke="black" points="584.76,-17.56 574.66,-20.75 584.55,-24.56 584.76,-17.56"/>
</g>
<!-- :app:desktopApp&#45;&gt;:app:shared -->
<g id="edge4" class="edge">
<title>:app:desktopApp&#45;&gt;:app:shared</title>
<path fill="none" stroke="black" d="M810.12,-221.13C742.34,-208.23 634.72,-187.76 566.95,-174.87"/>
<polygon fill="black" stroke="black" points="567.32,-171.38 556.84,-172.95 566.01,-178.25 567.32,-171.38"/>
</g>
<!-- :feature:narrator&#45;&gt;:core:domain -->
<g id="edge12" class="edge">
<title>:feature:narrator&#45;&gt;:core:domain</title>
<path fill="none" stroke="black" d="M285.31,-75.42C331.61,-63.51 398.82,-46.21 446.6,-33.91"/>
<polygon fill="black" stroke="black" points="447.67,-37.25 456.48,-31.37 445.93,-30.47 447.67,-37.25"/>
</g>
<!-- :feature:other&#45;&gt;:core:domain -->
<g id="edge13" class="edge">
<title>:feature:other&#45;&gt;:core:domain</title>
<path fill="none" stroke="black" d="M435.87,-72.41C447.73,-63.19 462.65,-51.59 475.55,-41.55"/>
<polygon fill="black" stroke="black" points="477.94,-44.13 483.68,-35.23 473.64,-38.61 477.94,-44.13"/>
</g>
<!-- :feature:readout&#45;&gt;:core:domain -->
<g id="edge14" class="edge">
<title>:feature:readout&#45;&gt;:core:domain</title>
<path fill="none" stroke="black" d="M573.22,-72.41C561.36,-63.19 546.45,-51.59 533.55,-41.55"/>
<polygon fill="black" stroke="black" points="535.45,-38.61 525.41,-35.23 531.16,-44.13 535.45,-38.61"/>
</g>
<!-- :feature:readout&#45;vehicle&#45;approach&#45;&gt;:core:domain -->
<g id="edge15" class="edge">
<title>:feature:readout&#45;vehicle&#45;approach&#45;&gt;:core:domain</title>
<path fill="none" stroke="black" d="M788.89,-73.98C723.36,-61.31 630.64,-43.38 569.12,-31.49"/>
<polygon fill="black" stroke="black" points="569.62,-28.02 559.14,-29.56 568.29,-34.89 569.62,-28.02"/>
</g>
<!-- :app:webApp -->
<g id="node10" class="node">
<title>:app:webApp</title>
<ellipse fill="none" stroke="black" cx="504.55" cy="-234" rx="70.69" ry="18"/>
<text text-anchor="middle" x="504.55" y="-230.3" font-family="Times,serif" font-size="14.00">:app:webApp</text>
</g>
<!-- :app:webApp&#45;&gt;:app:shared -->
<g id="edge10" class="edge">
<title>:app:webApp&#45;&gt;:app:shared</title>
<path fill="none" stroke="black" d="M504.55,-215.7C504.55,-207.98 504.55,-198.71 504.55,-190.11"/>
<polygon fill="black" stroke="black" points="508.05,-190.1 504.55,-180.1 501.05,-190.1 508.05,-190.1"/>
</g>
<!-- :core:data -->
<g id="node11" class="node">
<title>:core:data</title>
<ellipse fill="none" stroke="black" cx="1147.55" cy="-90" rx="57.39" ry="18"/>
<text text-anchor="middle" x="1147.55" y="-86.3" font-family="Times,serif" font-size="14.00">:core:data</text>
</g>
<!-- :core:data&#45;&gt;:core:domain -->
<g id="edge11" class="edge">
<title>:core:data&#45;&gt;:core:domain</title>
<path fill="none" stroke="black" d="M1105.32,-77.85C1095.9,-75.65 1085.93,-73.55 1076.55,-72 901.93,-43.16 694.54,-28.83 583.72,-22.76"/>
<polygon fill="black" stroke="black" points="583.8,-19.26 573.63,-22.22 583.43,-26.25 583.8,-19.26"/>
</g>
</g>
</svg>
