<?xml version="1.0" encoding="UTF-8" standalone="no"?>
<!DOCTYPE svg PUBLIC "-//W3C//DTD SVG 1.1//EN"
 "http://www.w3.org/Graphics/SVG/1.1/DTD/svg11.dtd">
<!-- Generated by graphviz version 2.43.0 (0)
 -->
<!-- Title: G Pages: 1 -->
<svg width="6855pt" height="260pt"
 viewBox="0.00 0.00 6855.28 260.00" xmlns="http://www.w3.org/2000/svg" xmlns:xlink="http://www.w3.org/1999/xlink">
<g id="graph0" class="graph" transform="scale(1 1) rotate(0) translate(4 256)">
<title>G</title>
<polygon fill="white" stroke="transparent" points="-4,4 -4,-256 6851.28,-256 6851.28,4 -4,4"/>
<!-- :server -->
<g id="node1" class="node">
<title>:server</title>
<ellipse fill="none" stroke="black" cx="43.55" cy="-162" rx="43.59" ry="18"/>
<text text-anchor="middle" x="43.55" y="-158.3" font-family="Times,serif" font-size="14.00">:server</text>
</g>
<!-- :core:domain -->
<g id="node2" class="node">
<title>:core:domain</title>
<ellipse fill="none" stroke="black" cx="2160.55" cy="-18" rx="70.69" ry="18"/>
<text text-anchor="middle" x="2160.55" y="-14.3" font-family="Times,serif" font-size="14.00">:core:domain</text>
</g>
<!-- :server&#45;&gt;:core:domain -->
<g id="edge1" class="edge">
<title>:server&#45;&gt;:core:domain</title>
<path fill="none" stroke="black" d="M66.26,-146.48C100.65,-125.4 168.69,-87.21 232.55,-72 413.79,-28.84 1737.13,-20.67 2079.74,-19.27"/>
<polygon fill="black" stroke="black" points="2079.84,-22.77 2089.83,-19.23 2079.81,-15.77 2079.84,-22.77"/>
</g>
<!-- :app:androidApp -->
<g id="node3" class="node">
<title>:app:androidApp</title>
<ellipse fill="none" stroke="black" cx="602.55" cy="-234" rx="87.18" ry="18"/>
<text text-anchor="middle" x="602.55" y="-230.3" font-family="Times,serif" font-size="14.00">:app:androidApp</text>
</g>
<!-- :app:shared -->
<g id="node4" class="node">
<title>:app:shared</title>
<ellipse fill="none" stroke="black" cx="2801.55" cy="-162" rx="65.79" ry="18"/>
<text text-anchor="middle" x="2801.55" y="-158.3" font-family="Times,serif" font-size="14.00">:app:shared</text>
</g>
<!-- :app:androidApp&#45;&gt;:app:shared -->
<g id="edge2" class="edge">
<title>:app:androidApp&#45;&gt;:app:shared</title>
<path fill="none" stroke="black" d="M688.07,-230.28C1042.54,-218.99 2393.28,-176 2726.77,-165.38"/>
<polygon fill="black" stroke="black" points="2726.92,-168.88 2736.81,-165.06 2726.7,-161.88 2726.92,-168.88"/>
</g>
<!-- :core:data -->
<g id="node5" class="node">
<title>:core:data</title>
<ellipse fill="none" stroke="black" cx="421.55" cy="-162" rx="57.39" ry="18"/>
<text text-anchor="middle" x="421.55" y="-158.3" font-family="Times,serif" font-size="14.00">:core:data</text>
</g>
<!-- :app:androidApp&#45;&gt;:core:data -->
<g id="edge3" class="edge">
<title>:app:androidApp&#45;&gt;:core:data</title>
<path fill="none" stroke="black" d="M563.27,-217.81C534.47,-206.67 495.35,-191.54 465.5,-180"/>
<polygon fill="black" stroke="black" points="466.75,-176.73 456.16,-176.39 464.23,-183.26 466.75,-176.73"/>
</g>
<!-- :core:gt7&#45;ps5&#45;data -->
<g id="node6" class="node">
<title>:core:gt7&#45;ps5&#45;data</title>
<ellipse fill="none" stroke="black" cx="591.55" cy="-162" rx="94.78" ry="18"/>
<text text-anchor="middle" x="591.55" y="-158.3" font-family="Times,serif" font-size="14.00">:core:gt7&#45;ps5&#45;data</text>
</g>
<!-- :app:androidApp&#45;&gt;:core:gt7&#45;ps5&#45;data -->
<g id="edge4" class="edge">
<title>:app:androidApp&#45;&gt;:core:gt7&#45;ps5&#45;data</title>
<path fill="none" stroke="black" d="M599.83,-215.7C598.61,-207.98 597.16,-198.71 595.81,-190.11"/>
<polygon fill="black" stroke="black" points="599.24,-189.44 594.23,-180.1 592.33,-190.53 599.24,-189.44"/>
</g>
<!-- :feature:main -->
<g id="node9" class="node">
<title>:feature:main</title>
<ellipse fill="none" stroke="black" cx="366.55" cy="-90" rx="73.39" ry="18"/>
<text text-anchor="middle" x="366.55" y="-86.3" font-family="Times,serif" font-size="14.00">:feature:main</text>
</g>
<!-- :app:shared&#45;&gt;:feature:main -->
<g id="edge10" class="edge">
<title>:app:shared&#45;&gt;:feature:main</title>
<path fill="none" stroke="black" d="M2735.85,-161.11C2404.04,-161.44 910.33,-159.95 449.55,-108 442.41,-107.2 434.98,-106.08 427.62,-104.8"/>
<polygon fill="black" stroke="black" points="428.14,-101.34 417.68,-102.97 426.88,-108.22 428.14,-101.34"/>
</g>
<!-- :feature:lmu&#45;windows&#45;connection -->
<g id="node10" class="node">
<title>:feature:lmu&#45;windows&#45;connection</title>
<ellipse fill="none" stroke="black" cx="622.55" cy="-90" rx="164.37" ry="18"/>
<text text-anchor="middle" x="622.55" y="-86.3" font-family="Times,serif" font-size="14.00">:feature:lmu&#45;windows&#45;connection</text>
</g>
<!-- :app:shared&#45;&gt;:feature:lmu&#45;windows&#45;connection -->
<g id="edge11" class="edge">
<title>:app:shared&#45;&gt;:feature:lmu&#45;windows&#45;connection</title>
<path fill="none" stroke="black" d="M2735.67,-160.97C2483.71,-160.49 1557.04,-155.41 795.55,-108 779.05,-106.97 761.7,-105.61 744.61,-104.1"/>
<polygon fill="black" stroke="black" points="744.87,-100.6 734.59,-103.19 744.24,-107.58 744.87,-100.6"/>
</g>
<!-- :feature:gt7&#45;ps5&#45;connection -->
<g id="node11" class="node">
<title>:feature:gt7&#45;ps5&#45;connection</title>
<ellipse fill="none" stroke="black" cx="2160.55" cy="-90" rx="138.38" ry="18"/>
<text text-anchor="middle" x="2160.55" y="-86.3" font-family="Times,serif" font-size="14.00">:feature:gt7&#45;ps5&#45;connection</text>
</g>
<!-- :app:shared&#45;&gt;:feature:gt7&#45;ps5&#45;connection -->
<g id="edge12" class="edge">
<title>:app:shared&#45;&gt;:feature:gt7&#45;ps5&#45;connection</title>
<path fill="none" stroke="black" d="M2741.2,-154.65C2648.25,-144.85 2464.47,-125.34 2308.55,-108 2296.17,-106.62 2283.22,-105.17 2270.35,-103.7"/>
<polygon fill="black" stroke="black" points="2270.38,-100.18 2260.05,-102.53 2269.59,-107.14 2270.38,-100.18"/>
</g>
<!-- :feature:server&#45;connection -->
<g id="node12" class="node">
<title>:feature:server&#45;connection</title>
<ellipse fill="none" stroke="black" cx="2450.55" cy="-90" rx="133.48" ry="18"/>
<text text-anchor="middle" x="2450.55" y="-86.3" font-family="Times,serif" font-size="14.00">:feature:server&#45;connection</text>
</g>
<!-- :app:shared&#45;&gt;:feature:server&#45;connection -->
<g id="edge13" class="edge">
<title>:app:shared&#45;&gt;:feature:server&#45;connection</title>
<path fill="none" stroke="black" d="M2750.13,-150.75C2692.81,-139.31 2599.32,-120.67 2532.02,-107.25"/>
<polygon fill="black" stroke="black" points="2532.36,-103.75 2521.87,-105.22 2530.99,-110.61 2532.36,-103.75"/>
</g>
<!-- :feature:lmu&#45;windows&#45;narrator -->
<g id="node13" class="node">
<title>:feature:lmu&#45;windows&#45;narrator</title>
<ellipse fill="none" stroke="black" cx="4944.55" cy="-90" rx="153.27" ry="18"/>
<text text-anchor="middle" x="4944.55" y="-86.3" font-family="Times,serif" font-size="14.00">:feature:lmu&#45;windows&#45;narrator</text>
</g>
<!-- :app:shared&#45;&gt;:feature:lmu&#45;windows&#45;narrator -->
<g id="edge14" class="edge">
<title>:app:shared&#45;&gt;:feature:lmu&#45;windows&#45;narrator</title>
<path fill="none" stroke="black" d="M2867.47,-161.1C3117.56,-161.07 4031.57,-157.37 4782.55,-108 4797.71,-107 4813.64,-105.68 4829.36,-104.2"/>
<polygon fill="black" stroke="black" points="4830.02,-107.65 4839.64,-103.21 4829.35,-100.69 4830.02,-107.65"/>
</g>
<!-- :feature:gt7&#45;ps5&#45;narrator -->
<g id="node14" class="node">
<title>:feature:gt7&#45;ps5&#45;narrator</title>
<ellipse fill="none" stroke="black" cx="5243.55" cy="-90" rx="127.28" ry="18"/>
<text text-anchor="middle" x="5243.55" y="-86.3" font-family="Times,serif" font-size="14.00">:feature:gt7&#45;ps5&#45;narrator</text>
</g>
<!-- :app:shared&#45;&gt;:feature:gt7&#45;ps5&#45;narrator -->
<g id="edge15" class="edge">
<title>:app:shared&#45;&gt;:feature:gt7&#45;ps5&#45;narrator</title>
<path fill="none" stroke="black" d="M2866.95,-160.39C3193.95,-157.18 4653.82,-141.21 5106.55,-108 5119.4,-107.06 5132.91,-105.76 5146.21,-104.3"/>
<polygon fill="black" stroke="black" points="5146.8,-107.76 5156.34,-103.15 5146.01,-100.8 5146.8,-107.76"/>
</g>
<!-- :feature:other&#45;license&#45;detail -->
<g id="node15" class="node">
<title>:feature:other&#45;license&#45;detail</title>
<ellipse fill="none" stroke="black" cx="6707.55" cy="-90" rx="139.98" ry="18"/>
<text text-anchor="middle" x="6707.55" y="-86.3" font-family="Times,serif" font-size="14.00">:feature:other&#45;license&#45;detail</text>
</g>
<!-- :app:shared&#45;&gt;:feature:other&#45;license&#45;detail -->
<g id="edge16" class="edge">
<title>:app:shared&#45;&gt;:feature:other&#45;license&#45;detail</title>
<path fill="none" stroke="black" d="M2867.3,-160.97C3304.68,-160.63 5799.33,-156.55 6558.55,-108 6572.8,-107.09 6587.78,-105.79 6602.53,-104.31"/>
<polygon fill="black" stroke="black" points="6603.1,-107.77 6612.69,-103.25 6602.38,-100.8 6603.1,-107.77"/>
</g>
<!-- :feature:other&#45;list -->
<g id="node16" class="node">
<title>:feature:other&#45;list</title>
<ellipse fill="none" stroke="black" cx="897.55" cy="-90" rx="92.88" ry="18"/>
<text text-anchor="middle" x="897.55" y="-86.3" font-family="Times,serif" font-size="14.00">:feature:other&#45;list</text>
</g>
<!-- :app:shared&#45;&gt;:feature:other&#45;list -->
<g id="edge17" class="edge">
<title>:app:shared&#45;&gt;:feature:other&#45;list</title>
<path fill="none" stroke="black" d="M2735.77,-160.28C2453.77,-157 1345.65,-142.15 998.55,-108 989.8,-107.14 980.67,-105.98 971.63,-104.66"/>
<polygon fill="black" stroke="black" points="971.9,-101.16 961.48,-103.12 970.85,-108.09 971.9,-101.16"/>
</g>
<!-- :feature:other&#45;server&#45;ip&#45;detail -->
<g id="node17" class="node">
<title>:feature:other&#45;server&#45;ip&#45;detail</title>
<ellipse fill="none" stroke="black" cx="6076.55" cy="-90" rx="148.67" ry="18"/>
<text text-anchor="middle" x="6076.55" y="-86.3" font-family="Times,serif" font-size="14.00">:feature:other&#45;server&#45;ip&#45;detail</text>
</g>
<!-- :app:shared&#45;&gt;:feature:other&#45;server&#45;ip&#45;detail -->
<g id="edge18" class="edge">
<title>:app:shared&#45;&gt;:feature:other&#45;server&#45;ip&#45;detail</title>
<path fill="none" stroke="black" d="M2867.09,-160.7C3258.9,-158.77 5295.45,-147.01 5919.55,-108 5934.47,-107.07 5950.17,-105.76 5965.62,-104.28"/>
<polygon fill="black" stroke="black" points="5966.13,-107.75 5975.74,-103.28 5965.44,-100.78 5966.13,-107.75"/>
</g>
<!-- :feature:other&#45;console&#45;ip&#45;detail -->
<g id="node18" class="node">
<title>:feature:other&#45;console&#45;ip&#45;detail</title>
<ellipse fill="none" stroke="black" cx="6396.55" cy="-90" rx="153.27" ry="18"/>
<text text-anchor="middle" x="6396.55" y="-86.3" font-family="Times,serif" font-size="14.00">:feature:other&#45;console&#45;ip&#45;detail</text>
</g>
<!-- :app:shared&#45;&gt;:feature:other&#45;console&#45;ip&#45;detail -->
<g id="edge19" class="edge">
<title>:app:shared&#45;&gt;:feature:other&#45;console&#45;ip&#45;detail</title>
<path fill="none" stroke="black" d="M2867.2,-160.79C3282,-159.32 5543.78,-149.49 6234.55,-108 6250.09,-107.07 6266.45,-105.75 6282.54,-104.25"/>
<polygon fill="black" stroke="black" points="6282.9,-107.73 6292.52,-103.3 6282.23,-100.77 6282.9,-107.73"/>
</g>
<!-- :feature:other&#45;readout&#45;start&#45;sound&#45;detail -->
<g id="node19" class="node">
<title>:feature:other&#45;readout&#45;start&#45;sound&#45;detail</title>
<ellipse fill="none" stroke="black" cx="1207.55" cy="-90" rx="199.56" ry="18"/>
<text text-anchor="middle" x="1207.55" y="-86.3" font-family="Times,serif" font-size="14.00">:feature:other&#45;readout&#45;start&#45;sound&#45;detail</text>
</g>
<!-- :app:shared&#45;&gt;:feature:other&#45;readout&#45;start&#45;sound&#45;detail -->
<g id="edge20" class="edge">
<title>:app:shared&#45;&gt;:feature:other&#45;readout&#45;start&#45;sound&#45;detail</title>
<path fill="none" stroke="black" d="M2736.2,-159.51C2537.59,-154.75 1923.63,-138.46 1415.55,-108 1395.89,-106.82 1375.2,-105.38 1354.81,-103.83"/>
<polygon fill="black" stroke="black" points="1355.06,-100.34 1344.82,-103.07 1354.53,-107.32 1355.06,-100.34"/>
</g>
<!-- :feature:other&#45;volume&#45;detail -->
<g id="node20" class="node">
<title>:feature:other&#45;volume&#45;detail</title>
<ellipse fill="none" stroke="black" cx="3160.55" cy="-90" rx="141.07" ry="18"/>
<text text-anchor="middle" x="3160.55" y="-86.3" font-family="Times,serif" font-size="14.00">:feature:other&#45;volume&#45;detail</text>
</g>
<!-- :app:shared&#45;&gt;:feature:other&#45;volume&#45;detail -->
<g id="edge21" class="edge">
<title>:app:shared&#45;&gt;:feature:other&#45;volume&#45;detail</title>
<path fill="none" stroke="black" d="M2853.36,-150.9C2911.76,-139.51 3007.52,-120.84 3076.62,-107.37"/>
<polygon fill="black" stroke="black" points="3077.46,-110.77 3086.61,-105.42 3076.12,-103.9 3077.46,-110.77"/>
</g>
<!-- :feature:other&#45;keep&#45;screen&#45;on&#45;detail -->
<g id="node21" class="node">
<title>:feature:other&#45;keep&#45;screen&#45;on&#45;detail</title>
<ellipse fill="none" stroke="black" cx="1601.55" cy="-90" rx="176.57" ry="18"/>
<text text-anchor="middle" x="1601.55" y="-86.3" font-family="Times,serif" font-size="14.00">:feature:other&#45;keep&#45;screen&#45;on&#45;detail</text>
</g>
<!-- :app:shared&#45;&gt;:feature:other&#45;keep&#45;screen&#45;on&#45;detail -->
<g id="edge22" class="edge">
<title>:app:shared&#45;&gt;:feature:other&#45;keep&#45;screen&#45;on&#45;detail</title>
<path fill="none" stroke="black" d="M2737.13,-158.5C2576.64,-152.1 2146.02,-133.74 1787.55,-108 1770.58,-106.78 1752.76,-105.35 1735.14,-103.84"/>
<polygon fill="black" stroke="black" points="1735.07,-100.32 1724.8,-102.95 1734.46,-107.3 1735.07,-100.32"/>
</g>
<!-- :feature:readout&#45;list -->
<g id="node22" class="node">
<title>:feature:readout&#45;list</title>
<ellipse fill="none" stroke="black" cx="1900.55" cy="-90" rx="103.98" ry="18"/>
<text text-anchor="middle" x="1900.55" y="-86.3" font-family="Times,serif" font-size="14.00">:feature:readout&#45;list</text>
</g>
<!-- :app:shared&#45;&gt;:feature:readout&#45;list -->
<g id="edge23" class="edge">
<title>:app:shared&#45;&gt;:feature:readout&#45;list</title>
<path fill="none" stroke="black" d="M2737.04,-158.46C2602.33,-152.76 2281.4,-137.11 2013.55,-108 2003.78,-106.94 1993.57,-105.65 1983.45,-104.27"/>
<polygon fill="black" stroke="black" points="1983.76,-100.78 1973.38,-102.86 1982.79,-107.71 1983.76,-100.78"/>
</g>
<!-- :feature:lmu&#45;windows&#45;readout&#45;vehicle&#45;approach&#45;detail -->
<g id="node23" class="node">
<title>:feature:lmu&#45;windows&#45;readout&#45;vehicle&#45;approach&#45;detail</title>
<ellipse fill="none" stroke="black" cx="5649.55" cy="-90" rx="260.75" ry="18"/>
<text text-anchor="middle" x="5649.55" y="-86.3" font-family="Times,serif" font-size="14.00">:feature:lmu&#45;windows&#45;readout&#45;vehicle&#45;approach&#45;detail</text>
</g>
<!-- :app:shared&#45;&gt;:feature:lmu&#45;windows&#45;readout&#45;vehicle&#45;approach&#45;detail -->
<g id="edge24" class="edge">
<title>:app:shared&#45;&gt;:feature:lmu&#45;windows&#45;readout&#45;vehicle&#45;approach&#45;detail</title>
<path fill="none" stroke="black" d="M2867.31,-160.67C3160.75,-158.99 4379.89,-149.73 5379.55,-108 5406.29,-106.88 5434.52,-105.42 5462.23,-103.82"/>
<polygon fill="black" stroke="black" points="5462.64,-107.31 5472.41,-103.23 5462.23,-100.32 5462.64,-107.31"/>
</g>
<!-- :feature:lmu&#45;windows&#45;readout&#45;flag&#45;detail -->
<g id="node24" class="node">
<title>:feature:lmu&#45;windows&#45;readout&#45;flag&#45;detail</title>
<ellipse fill="none" stroke="black" cx="2801.55" cy="-90" rx="199.56" ry="18"/>
<text text-anchor="middle" x="2801.55" y="-86.3" font-family="Times,serif" font-size="14.00">:feature:lmu&#45;windows&#45;readout&#45;flag&#45;detail</text>
</g>
<!-- :app:shared&#45;&gt;:feature:lmu&#45;windows&#45;readout&#45;flag&#45;detail -->
<g id="edge25" class="edge">
<title>:app:shared&#45;&gt;:feature:lmu&#45;windows&#45;readout&#45;flag&#45;detail</title>
<path fill="none" stroke="black" d="M2801.55,-143.7C2801.55,-135.98 2801.55,-126.71 2801.55,-118.11"/>
<polygon fill="black" stroke="black" points="2805.05,-118.1 2801.55,-108.1 2798.05,-118.1 2805.05,-118.1"/>
</g>
<!-- :feature:lmu&#45;windows&#45;readout&#45;vehicle&#45;damage&#45;detail -->
<g id="node25" class="node">
<title>:feature:lmu&#45;windows&#45;readout&#45;vehicle&#45;damage&#45;detail</title>
<ellipse fill="none" stroke="black" cx="4084.55" cy="-90" rx="254.55" ry="18"/>
<text text-anchor="middle" x="4084.55" y="-86.3" font-family="Times,serif" font-size="14.00">:feature:lmu&#45;windows&#45;readout&#45;vehicle&#45;damage&#45;detail</text>
</g>
<!-- :app:shared&#45;&gt;:feature:lmu&#45;windows&#45;readout&#45;vehicle&#45;damage&#45;detail -->
<g id="edge26" class="edge">
<title>:app:shared&#45;&gt;:feature:lmu&#45;windows&#45;readout&#45;vehicle&#45;damage&#45;detail</title>
<path fill="none" stroke="black" d="M2865.65,-157.94C3026.38,-150.21 3459.55,-129.01 3820.55,-108 3844.83,-106.59 3870.37,-105.03 3895.6,-103.45"/>
<polygon fill="black" stroke="black" points="3895.87,-106.94 3905.63,-102.82 3895.43,-99.95 3895.87,-106.94"/>
</g>
<!-- :feature:gt7&#45;ps5&#45;readout&#45;my&#45;bestlap&#45;detail -->
<g id="node26" class="node">
<title>:feature:gt7&#45;ps5&#45;readout&#45;my&#45;bestlap&#45;detail</title>
<ellipse fill="none" stroke="black" cx="4565.55" cy="-90" rx="207.96" ry="18"/>
<text text-anchor="middle" x="4565.55" y="-86.3" font-family="Times,serif" font-size="14.00">:feature:gt7&#45;ps5&#45;readout&#45;my&#45;bestlap&#45;detail</text>
</g>
<!-- :app:shared&#45;&gt;:feature:gt7&#45;ps5&#45;readout&#45;my&#45;bestlap&#45;detail -->
<g id="edge27" class="edge">
<title>:app:shared&#45;&gt;:feature:gt7&#45;ps5&#45;readout&#45;my&#45;bestlap&#45;detail</title>
<path fill="none" stroke="black" d="M2866.81,-159.79C3079.92,-155.62 3774.7,-140.29 4348.55,-108 4369.23,-106.84 4391,-105.39 4412.46,-103.84"/>
<polygon fill="black" stroke="black" points="4412.9,-107.32 4422.62,-103.09 4412.39,-100.33 4412.9,-107.32"/>
</g>
<!-- :feature:gt7&#45;ps5&#45;readout&#45;remaining&#45;fuel&#45;laps&#45;detail -->
<g id="node27" class="node">
<title>:feature:gt7&#45;ps5&#45;readout&#45;remaining&#45;fuel&#45;laps&#45;detail</title>
<ellipse fill="none" stroke="black" cx="3565.55" cy="-90" rx="246.16" ry="18"/>
<text text-anchor="middle" x="3565.55" y="-86.3" font-family="Times,serif" font-size="14.00">:feature:gt7&#45;ps5&#45;readout&#45;remaining&#45;fuel&#45;laps&#45;detail</text>
</g>
<!-- :app:shared&#45;&gt;:feature:gt7&#45;ps5&#45;readout&#45;remaining&#45;fuel&#45;laps&#45;detail -->
<g id="edge28" class="edge">
<title>:app:shared&#45;&gt;:feature:gt7&#45;ps5&#45;readout&#45;remaining&#45;fuel&#45;laps&#45;detail</title>
<path fill="none" stroke="black" d="M2862.78,-155.39C2980.12,-144.64 3239.98,-120.83 3408.71,-105.37"/>
<polygon fill="black" stroke="black" points="3409.05,-108.85 3418.68,-104.46 3408.41,-101.88 3409.05,-108.85"/>
</g>
<!-- :core:data&#45;&gt;:core:domain -->
<g id="edge30" class="edge">
<title>:core:data&#45;&gt;:core:domain</title>
<path fill="none" stroke="black" d="M380.92,-149.18C339.09,-136.6 279.08,-117.25 272.55,-108 263.32,-94.93 261.39,-83.47 272.55,-72 304.51,-39.13 1722.64,-23.23 2079.64,-19.75"/>
<polygon fill="black" stroke="black" points="2079.92,-23.24 2089.89,-19.65 2079.86,-16.24 2079.92,-23.24"/>
</g>
<!-- :core:gt7&#45;ps5&#45;data&#45;&gt;:core:domain -->
<g id="edge31" class="edge">
<title>:core:gt7&#45;ps5&#45;data&#45;&gt;:core:domain</title>
<path fill="none" stroke="black" d="M522.43,-149.63C432.49,-134.75 286.47,-110.29 284.55,-108 274.24,-95.76 273.39,-83.47 284.55,-72 316.29,-39.35 1723.86,-23.3 2079.56,-19.76"/>
<polygon fill="black" stroke="black" points="2079.81,-23.26 2089.78,-19.66 2079.74,-16.26 2079.81,-23.26"/>
</g>
<!-- :app:desktopApp -->
<g id="node7" class="node">
<title>:app:desktopApp</title>
<ellipse fill="none" stroke="black" cx="409.55" cy="-234" rx="88.28" ry="18"/>
<text text-anchor="middle" x="409.55" y="-230.3" font-family="Times,serif" font-size="14.00">:app:desktopApp</text>
</g>
<!-- :app:desktopApp&#45;&gt;:server -->
<g id="edge9" class="edge">
<title>:app:desktopApp&#45;&gt;:server</title>
<path fill="none" stroke="black" d="M336.58,-223.82C272.54,-215.02 177.14,-200.1 95.55,-180 92.17,-179.17 88.7,-178.23 85.22,-177.22"/>
<polygon fill="black" stroke="black" points="86.09,-173.83 75.51,-174.27 84.06,-180.53 86.09,-173.83"/>
</g>
<!-- :app:desktopApp&#45;&gt;:app:shared -->
<g id="edge5" class="edge">
<title>:app:desktopApp&#45;&gt;:app:shared</title>
<path fill="none" stroke="black" d="M470.41,-220.89C482.35,-218.93 494.81,-217.16 506.55,-216 951.59,-172.11 2380.03,-164.44 2725.7,-163.22"/>
<polygon fill="black" stroke="black" points="2725.86,-166.72 2735.85,-163.18 2725.84,-159.72 2725.86,-166.72"/>
</g>
<!-- :app:desktopApp&#45;&gt;:core:data -->
<g id="edge6" class="edge">
<title>:app:desktopApp&#45;&gt;:core:data</title>
<path fill="none" stroke="black" d="M412.51,-215.7C413.83,-207.98 415.42,-198.71 416.9,-190.11"/>
<polygon fill="black" stroke="black" points="420.37,-190.55 418.61,-180.1 413.47,-189.37 420.37,-190.55"/>
</g>
<!-- :app:desktopApp&#45;&gt;:core:gt7&#45;ps5&#45;data -->
<g id="edge8" class="edge">
<title>:app:desktopApp&#45;&gt;:core:gt7&#45;ps5&#45;data</title>
<path fill="none" stroke="black" d="M449.04,-217.81C476.28,-207.33 512.7,-193.33 541.9,-182.09"/>
<polygon fill="black" stroke="black" points="543.43,-185.26 551.5,-178.4 540.91,-178.72 543.43,-185.26"/>
</g>
<!-- :core:lmu&#45;windows&#45;data -->
<g id="node8" class="node">
<title>:core:lmu&#45;windows&#45;data</title>
<ellipse fill="none" stroke="black" cx="225.55" cy="-162" rx="120.78" ry="18"/>
<text text-anchor="middle" x="225.55" y="-158.3" font-family="Times,serif" font-size="14.00">:core:lmu&#45;windows&#45;data</text>
</g>
<!-- :app:desktopApp&#45;&gt;:core:lmu&#45;windows&#45;data -->
<g id="edge7" class="edge">
<title>:app:desktopApp&#45;&gt;:core:lmu&#45;windows&#45;data</title>
<path fill="none" stroke="black" d="M369.62,-217.81C342.56,-207.52 306.53,-193.81 277.27,-182.68"/>
<polygon fill="black" stroke="black" points="278.22,-179.3 267.63,-179.01 275.73,-185.84 278.22,-179.3"/>
</g>
<!-- :core:lmu&#45;windows&#45;data&#45;&gt;:core:domain -->
<g id="edge32" class="edge">
<title>:core:lmu&#45;windows&#45;data&#45;&gt;:core:domain</title>
<path fill="none" stroke="black" d="M227.03,-143.82C229.84,-122.91 238,-88.36 261.55,-72 337.17,-19.46 1726.45,-18.26 2079.49,-18.8"/>
<polygon fill="black" stroke="black" points="2079.63,-22.3 2089.63,-18.82 2079.64,-15.3 2079.63,-22.3"/>
</g>
<!-- :feature:main&#45;&gt;:core:domain -->
<g id="edge47" class="edge">
<title>:feature:main&#45;&gt;:core:domain</title>
<path fill="none" stroke="black" d="M418.13,-77.01C428.48,-75.01 439.32,-73.2 449.55,-72 771.16,-34.36 1785.03,-22.4 2079.57,-19.67"/>
<polygon fill="black" stroke="black" points="2079.77,-23.17 2089.74,-19.58 2079.71,-16.17 2079.77,-23.17"/>
</g>
<!-- :feature:lmu&#45;windows&#45;connection&#45;&gt;:core:domain -->
<g id="edge38" class="edge">
<title>:feature:lmu&#45;windows&#45;connection&#45;&gt;:core:domain</title>
<path fill="none" stroke="black" d="M736,-76.88C755.83,-75.04 776.28,-73.32 795.55,-72 1282.66,-38.64 1869.11,-24.66 2080.08,-20.46"/>
<polygon fill="black" stroke="black" points="2080.21,-23.96 2090.14,-20.26 2080.07,-16.96 2080.21,-23.96"/>
</g>
<!-- :feature:gt7&#45;ps5&#45;connection&#45;&gt;:core:domain -->
<g id="edge33" class="edge">
<title>:feature:gt7&#45;ps5&#45;connection&#45;&gt;:core:domain</title>
<path fill="none" stroke="black" d="M2160.55,-71.7C2160.55,-63.98 2160.55,-54.71 2160.55,-46.11"/>
<polygon fill="black" stroke="black" points="2164.05,-46.1 2160.55,-36.1 2157.05,-46.1 2164.05,-46.1"/>
</g>
<!-- :feature:server&#45;connection&#45;&gt;:core:domain -->
<g id="edge59" class="edge">
<title>:feature:server&#45;connection&#45;&gt;:core:domain</title>
<path fill="none" stroke="black" d="M2388.33,-73.98C2338.51,-61.96 2269.07,-45.2 2219.99,-33.35"/>
<polygon fill="black" stroke="black" points="2220.69,-29.92 2210.15,-30.97 2219.05,-36.72 2220.69,-29.92"/>
</g>
<!-- :feature:lmu&#45;windows&#45;narrator&#45;&gt;:core:domain -->
<g id="edge39" class="edge">
<title>:feature:lmu&#45;windows&#45;narrator&#45;&gt;:core:domain</title>
<path fill="none" stroke="black" d="M4840.51,-76.77C4821.26,-74.88 4801.32,-73.17 4782.55,-72 4270.18,-40 2625.92,-23.25 2241.48,-19.71"/>
<polygon fill="black" stroke="black" points="2241.31,-16.21 2231.28,-19.62 2241.25,-23.21 2241.31,-16.21"/>
</g>
<!-- :core:designsystem -->
<g id="node29" class="node">
<title>:core:designsystem</title>
<ellipse fill="none" stroke="black" cx="5093.55" cy="-18" rx="100.98" ry="18"/>
<text text-anchor="middle" x="5093.55" y="-14.3" font-family="Times,serif" font-size="14.00">:core:designsystem</text>
</g>
<!-- :feature:lmu&#45;windows&#45;narrator&#45;&gt;:core:designsystem -->
<g id="edge40" class="edge">
<title>:feature:lmu&#45;windows&#45;narrator&#45;&gt;:core:designsystem</title>
<path fill="none" stroke="black" d="M4979.86,-72.41C5000.94,-62.51 5027.88,-49.85 5050.24,-39.34"/>
<polygon fill="black" stroke="black" points="5051.95,-42.41 5059.51,-34.99 5048.98,-36.07 5051.95,-42.41"/>
</g>
<!-- :feature:gt7&#45;ps5&#45;narrator&#45;&gt;:core:domain -->
<g id="edge34" class="edge">
<title>:feature:gt7&#45;ps5&#45;narrator&#45;&gt;:core:domain</title>
<path fill="none" stroke="black" d="M5156.71,-76.82C5140.09,-74.89 5122.8,-73.15 5106.55,-72 4526.67,-30.92 2654.29,-21.01 2241.54,-19.3"/>
<polygon fill="black" stroke="black" points="2241.5,-15.8 2231.48,-19.26 2241.47,-22.8 2241.5,-15.8"/>
</g>
<!-- :feature:gt7&#45;ps5&#45;narrator&#45;&gt;:core:designsystem -->
<g id="edge35" class="edge">
<title>:feature:gt7&#45;ps5&#45;narrator&#45;&gt;:core:designsystem</title>
<path fill="none" stroke="black" d="M5208.38,-72.59C5186.99,-62.61 5159.52,-49.79 5136.81,-39.19"/>
<polygon fill="black" stroke="black" points="5138.26,-36 5127.72,-34.95 5135.3,-42.35 5138.26,-36"/>
</g>
<!-- :feature:other&#45;license&#45;detail&#45;&gt;:core:designsystem -->
<g id="edge51" class="edge">
<title>:feature:other&#45;license&#45;detail&#45;&gt;:core:designsystem</title>
<path fill="none" stroke="black" d="M6611.07,-76.89C6593.61,-75.01 6575.55,-73.28 6558.55,-72 6053.77,-34.13 5449.05,-23.11 5204.37,-20.08"/>
<polygon fill="black" stroke="black" points="5204.09,-16.58 5194.05,-19.96 5204.01,-23.58 5204.09,-16.58"/>
</g>
<!-- :feature:other&#45;list&#45;&gt;:core:domain -->
<g id="edge52" class="edge">
<title>:feature:other&#45;list&#45;&gt;:core:domain</title>
<path fill="none" stroke="black" d="M962.04,-76.95C974.14,-75.03 986.7,-73.26 998.55,-72 1402.77,-28.92 1889.75,-20.82 2079.42,-19.33"/>
<polygon fill="black" stroke="black" points="2079.61,-22.82 2089.58,-19.25 2079.56,-15.82 2079.61,-22.82"/>
</g>
<!-- :feature:other&#45;server&#45;ip&#45;detail&#45;&gt;:core:domain -->
<g id="edge54" class="edge">
<title>:feature:other&#45;server&#45;ip&#45;detail&#45;&gt;:core:domain</title>
<path fill="none" stroke="black" d="M5975.74,-76.67C5957.08,-74.79 5937.74,-73.11 5919.55,-72 5168.18,-26.13 2718.86,-19.89 2241.58,-19.11"/>
<polygon fill="black" stroke="black" points="2241.35,-15.61 2231.34,-19.09 2241.33,-22.61 2241.35,-15.61"/>
</g>
<!-- :feature:other&#45;server&#45;ip&#45;detail&#45;&gt;:core:designsystem -->
<g id="edge55" class="edge">
<title>:feature:other&#45;server&#45;ip&#45;detail&#45;&gt;:core:designsystem</title>
<path fill="none" stroke="black" d="M5972.31,-77.07C5954.71,-75.24 5936.62,-73.47 5919.55,-72 5661.08,-49.72 5356.37,-32.51 5199.18,-24.29"/>
<polygon fill="black" stroke="black" points="5199.21,-20.79 5189.04,-23.77 5198.84,-27.78 5199.21,-20.79"/>
</g>
<!-- :feature:other&#45;console&#45;ip&#45;detail&#45;&gt;:core:domain -->
<g id="edge48" class="edge">
<title>:feature:other&#45;console&#45;ip&#45;detail&#45;&gt;:core:domain</title>
<path fill="none" stroke="black" d="M6292.96,-76.7C6273.57,-74.81 6253.46,-73.11 6234.55,-72 5416.43,-23.85 2741.55,-19.44 2241.47,-19.04"/>
<polygon fill="black" stroke="black" points="2241.46,-15.54 2231.46,-19.03 2241.45,-22.54 2241.46,-15.54"/>
</g>
<!-- :feature:other&#45;console&#45;ip&#45;detail&#45;&gt;:core:designsystem -->
<g id="edge49" class="edge">
<title>:feature:other&#45;console&#45;ip&#45;detail&#45;&gt;:core:designsystem</title>
<path fill="none" stroke="black" d="M6290.31,-76.96C6271.74,-75.11 6252.59,-73.36 6234.55,-72 5856.09,-43.38 5405.76,-27.93 5202.56,-21.95"/>
<polygon fill="black" stroke="black" points="5202.58,-18.45 5192.49,-21.66 5202.38,-25.45 5202.58,-18.45"/>
</g>
<!-- :feature:other&#45;readout&#45;start&#45;sound&#45;detail&#45;&gt;:core:domain -->
<g id="edge53" class="edge">
<title>:feature:other&#45;readout&#45;start&#45;sound&#45;detail&#45;&gt;:core:domain</title>
<path fill="none" stroke="black" d="M1348.79,-77.25C1371.12,-75.46 1393.96,-73.65 1415.55,-72 1658.9,-53.4 1947.14,-33.5 2082.71,-24.27"/>
<polygon fill="black" stroke="black" points="2083.25,-27.74 2092.99,-23.57 2082.77,-20.75 2083.25,-27.74"/>
</g>
<!-- :feature:other&#45;volume&#45;detail&#45;&gt;:core:domain -->
<g id="edge56" class="edge">
<title>:feature:other&#45;volume&#45;detail&#45;&gt;:core:domain</title>
<path fill="none" stroke="black" d="M3061.78,-77.09C3044.71,-75.23 3027.12,-73.46 3010.55,-72 2727.44,-47.15 2390.29,-29.74 2239.84,-22.6"/>
<polygon fill="black" stroke="black" points="2239.93,-19.1 2229.77,-22.13 2239.6,-26.1 2239.93,-19.1"/>
</g>
<!-- :feature:other&#45;volume&#45;detail&#45;&gt;:core:designsystem -->
<g id="edge57" class="edge">
<title>:feature:other&#45;volume&#45;detail&#45;&gt;:core:designsystem</title>
<path fill="none" stroke="black" d="M3257.26,-76.84C3274.97,-74.96 3293.29,-73.23 3310.55,-72 3942.16,-26.9 4702.29,-20.03 4982.69,-19.1"/>
<polygon fill="black" stroke="black" points="4982.87,-22.6 4992.86,-19.06 4982.85,-15.6 4982.87,-22.6"/>
</g>
<!-- :feature:other&#45;keep&#45;screen&#45;on&#45;detail&#45;&gt;:core:domain -->
<g id="edge50" class="edge">
<title>:feature:other&#45;keep&#45;screen&#45;on&#45;detail&#45;&gt;:core:domain</title>
<path fill="none" stroke="black" d="M1708.34,-75.63C1819.9,-61.66 1991.83,-40.13 2088.38,-28.04"/>
<polygon fill="black" stroke="black" points="2088.85,-31.51 2098.34,-26.79 2087.98,-24.56 2088.85,-31.51"/>
</g>
<!-- :feature:readout&#45;list&#45;&gt;:core:domain -->
<g id="edge58" class="edge">
<title>:feature:readout&#45;list&#45;&gt;:core:domain</title>
<path fill="none" stroke="black" d="M1954.42,-74.5C1998.12,-62.73 2059.53,-46.2 2103.95,-34.24"/>
<polygon fill="black" stroke="black" points="2104.97,-37.59 2113.72,-31.61 2103.15,-30.83 2104.97,-37.59"/>
</g>
<!-- :feature:lmu&#45;windows&#45;readout&#45;vehicle&#45;approach&#45;detail&#45;&gt;:core:domain -->
<g id="edge43" class="edge">
<title>:feature:lmu&#45;windows&#45;readout&#45;vehicle&#45;approach&#45;detail&#45;&gt;:core:domain</title>
<path fill="none" stroke="black" d="M5473.14,-76.71C5441.97,-74.88 5409.82,-73.2 5379.55,-72 4130.07,-22.41 2606,-19.02 2241.56,-18.95"/>
<polygon fill="black" stroke="black" points="2241.38,-15.45 2231.38,-18.95 2241.38,-22.45 2241.38,-15.45"/>
</g>
<!-- :feature:lmu&#45;windows&#45;readout&#45;vehicle&#45;approach&#45;detail&#45;&gt;:core:designsystem -->
<g id="edge44" class="edge">
<title>:feature:lmu&#45;windows&#45;readout&#45;vehicle&#45;approach&#45;detail&#45;&gt;:core:designsystem</title>
<path fill="none" stroke="black" d="M5530.27,-73.98C5426.21,-60.88 5277.53,-42.16 5183.29,-30.3"/>
<polygon fill="black" stroke="black" points="5183.57,-26.81 5173.21,-29.03 5182.7,-33.75 5183.57,-26.81"/>
</g>
<!-- :feature:lmu&#45;windows&#45;readout&#45;flag&#45;detail&#45;&gt;:core:domain -->
<g id="edge41" class="edge">
<title>:feature:lmu&#45;windows&#45;readout&#45;flag&#45;detail&#45;&gt;:core:domain</title>
<path fill="none" stroke="black" d="M2679.85,-75.71C2548.47,-61.36 2343.43,-38.97 2234.46,-27.07"/>
<polygon fill="black" stroke="black" points="2234.54,-23.56 2224.22,-25.95 2233.78,-30.52 2234.54,-23.56"/>
</g>
<!-- :feature:lmu&#45;windows&#45;readout&#45;flag&#45;detail&#45;&gt;:core:designsystem -->
<g id="edge42" class="edge">
<title>:feature:lmu&#45;windows&#45;readout&#45;flag&#45;detail&#45;&gt;:core:designsystem</title>
<path fill="none" stroke="black" d="M2937.79,-76.82C2962.01,-74.96 2987.01,-73.26 3010.55,-72 3763.52,-31.83 4671.29,-21.94 4982.56,-19.65"/>
<polygon fill="black" stroke="black" points="4982.96,-23.15 4992.94,-19.57 4982.91,-16.15 4982.96,-23.15"/>
</g>
<!-- :feature:lmu&#45;windows&#45;readout&#45;vehicle&#45;damage&#45;detail&#45;&gt;:core:domain -->
<g id="edge45" class="edge">
<title>:feature:lmu&#45;windows&#45;readout&#45;vehicle&#45;damage&#45;detail&#45;&gt;:core:domain</title>
<path fill="none" stroke="black" d="M3909.21,-76.91C3879.63,-75.1 3849.22,-73.38 3820.55,-72 3213.65,-42.78 2481.13,-25.75 2241,-20.65"/>
<polygon fill="black" stroke="black" points="2241.03,-17.14 2230.96,-20.43 2240.89,-24.14 2241.03,-17.14"/>
</g>
<!-- :feature:lmu&#45;windows&#45;readout&#45;vehicle&#45;damage&#45;detail&#45;&gt;:core:designsystem -->
<g id="edge46" class="edge">
<title>:feature:lmu&#45;windows&#45;readout&#45;vehicle&#45;damage&#45;detail&#45;&gt;:core:designsystem</title>
<path fill="none" stroke="black" d="M4259.15,-76.89C4470.54,-62.22 4819.55,-38.01 4991.43,-26.08"/>
<polygon fill="black" stroke="black" points="4991.75,-29.57 5001.49,-25.39 4991.27,-22.59 4991.75,-29.57"/>
</g>
<!-- :feature:gt7&#45;ps5&#45;readout&#45;my&#45;bestlap&#45;detail&#45;&gt;:core:domain -->
<g id="edge36" class="edge">
<title>:feature:gt7&#45;ps5&#45;readout&#45;my&#45;bestlap&#45;detail&#45;&gt;:core:domain</title>
<path fill="none" stroke="black" d="M4423.79,-76.79C4398.74,-74.95 4372.89,-73.25 4348.55,-72 3526.7,-29.89 2529.45,-21.1 2241.77,-19.39"/>
<polygon fill="black" stroke="black" points="2241.45,-15.89 2231.43,-19.33 2241.41,-22.89 2241.45,-15.89"/>
</g>
<!-- :feature:gt7&#45;ps5&#45;readout&#45;my&#45;bestlap&#45;detail&#45;&gt;:core:designsystem -->
<g id="edge37" class="edge">
<title>:feature:gt7&#45;ps5&#45;readout&#45;my&#45;bestlap&#45;detail&#45;&gt;:core:designsystem</title>
<path fill="none" stroke="black" d="M4673.99,-74.62C4771.87,-61.65 4914.11,-42.79 5005.22,-30.71"/>
<polygon fill="black" stroke="black" points="5005.8,-34.16 5015.25,-29.38 5004.88,-27.22 5005.8,-34.16"/>
</g>
<!-- :app:webApp -->
<g id="node28" class="node">
<title>:app:webApp</title>
<ellipse fill="none" stroke="black" cx="2801.55" cy="-234" rx="70.69" ry="18"/>
<text text-anchor="middle" x="2801.55" y="-230.3" font-family="Times,serif" font-size="14.00">:app:webApp</text>
</g>
<!-- :app:webApp&#45;&gt;:app:shared -->
<g id="edge29" class="edge">
<title>:app:webApp&#45;&gt;:app:shared</title>
<path fill="none" stroke="black" d="M2801.55,-215.7C2801.55,-207.98 2801.55,-198.71 2801.55,-190.11"/>
<polygon fill="black" stroke="black" points="2805.05,-190.1 2801.55,-180.1 2798.05,-190.1 2805.05,-190.1"/>
</g>
</g>
</svg>
