<?xml version="1.0" encoding="UTF-8" standalone="no"?>
<!DOCTYPE svg PUBLIC "-//W3C//DTD SVG 1.1//EN"
 "http://www.w3.org/Graphics/SVG/1.1/DTD/svg11.dtd">
<!-- Generated by graphviz version 2.43.0 (0)
 -->
<!-- Title: G Pages: 1 -->
<svg width="1082pt" height="260pt"
 viewBox="0.00 0.00 1082.08 260.00" xmlns="http://www.w3.org/2000/svg" xmlns:xlink="http://www.w3.org/1999/xlink">
<g id="graph0" class="graph" transform="scale(1 1) rotate(0) translate(4 256)">
<title>G</title>
<polygon fill="white" stroke="transparent" points="-4,4 -4,-256 1078.08,-256 1078.08,4 -4,4"/>
<!-- :server -->
<g id="node1" class="node">
<title>:server</title>
<ellipse fill="none" stroke="black" cx="952.69" cy="-90" rx="43.59" ry="18"/>
<text text-anchor="middle" x="952.69" y="-86.3" font-family="Times,serif" font-size="14.00">:server</text>
</g>
<!-- :core:domain -->
<g id="node2" class="node">
<title>:core:domain</title>
<ellipse fill="none" stroke="black" cx="804.69" cy="-18" rx="70.69" ry="18"/>
<text text-anchor="middle" x="804.69" y="-14.3" font-family="Times,serif" font-size="14.00">:core:domain</text>
</g>
<!-- :server&#45;&gt;:core:domain -->
<g id="edge1" class="edge">
<title>:server&#45;&gt;:core:domain</title>
<path fill="none" stroke="black" d="M925.19,-76C902.96,-65.48 871.3,-50.51 846.01,-38.54"/>
<polygon fill="black" stroke="black" points="847.2,-35.23 836.66,-34.12 844.2,-41.56 847.2,-35.23"/>
</g>
<!-- :app:androidApp -->
<g id="node3" class="node">
<title>:app:androidApp</title>
<ellipse fill="none" stroke="black" cx="792.69" cy="-234" rx="87.18" ry="18"/>
<text text-anchor="middle" x="792.69" y="-230.3" font-family="Times,serif" font-size="14.00">:app:androidApp</text>
</g>
<!-- :app:shared -->
<g id="node4" class="node">
<title>:app:shared</title>
<ellipse fill="none" stroke="black" cx="624.69" cy="-162" rx="65.79" ry="18"/>
<text text-anchor="middle" x="624.69" y="-158.3" font-family="Times,serif" font-size="14.00">:app:shared</text>
</g>
<!-- :app:androidApp&#45;&gt;:app:shared -->
<g id="edge2" class="edge">
<title>:app:androidApp&#45;&gt;:app:shared</title>
<path fill="none" stroke="black" d="M755.82,-217.64C730.07,-206.91 695.59,-192.54 668.44,-181.23"/>
<polygon fill="black" stroke="black" points="669.75,-177.99 659.18,-177.37 667.06,-184.45 669.75,-177.99"/>
</g>
<!-- :core:data -->
<g id="node5" class="node">
<title>:core:data</title>
<ellipse fill="none" stroke="black" cx="977.69" cy="-162" rx="57.39" ry="18"/>
<text text-anchor="middle" x="977.69" y="-158.3" font-family="Times,serif" font-size="14.00">:core:data</text>
</g>
<!-- :app:androidApp&#45;&gt;:core:data -->
<g id="edge3" class="edge">
<title>:app:androidApp&#45;&gt;:core:data</title>
<path fill="none" stroke="black" d="M832.83,-217.81C862.36,-206.64 902.52,-191.44 933.06,-179.89"/>
<polygon fill="black" stroke="black" points="934.5,-183.08 942.61,-176.27 932.02,-176.54 934.5,-183.08"/>
</g>
<!-- :feature:narrator -->
<g id="node7" class="node">
<title>:feature:narrator</title>
<ellipse fill="none" stroke="black" cx="442.69" cy="-90" rx="89.08" ry="18"/>
<text text-anchor="middle" x="442.69" y="-86.3" font-family="Times,serif" font-size="14.00">:feature:narrator</text>
</g>
<!-- :app:shared&#45;&gt;:feature:narrator -->
<g id="edge7" class="edge">
<title>:app:shared&#45;&gt;:feature:narrator</title>
<path fill="none" stroke="black" d="M588.29,-147C560.59,-136.35 522.16,-121.57 491.74,-109.87"/>
<polygon fill="black" stroke="black" points="492.76,-106.51 482.17,-106.19 490.25,-113.04 492.76,-106.51"/>
</g>
<!-- :feature:other -->
<g id="node8" class="node">
<title>:feature:other</title>
<ellipse fill="none" stroke="black" cx="624.69" cy="-90" rx="75.29" ry="18"/>
<text text-anchor="middle" x="624.69" y="-86.3" font-family="Times,serif" font-size="14.00">:feature:other</text>
</g>
<!-- :app:shared&#45;&gt;:feature:other -->
<g id="edge8" class="edge">
<title>:app:shared&#45;&gt;:feature:other</title>
<path fill="none" stroke="black" d="M624.69,-143.7C624.69,-135.98 624.69,-126.71 624.69,-118.11"/>
<polygon fill="black" stroke="black" points="628.19,-118.1 624.69,-108.1 621.19,-118.1 628.19,-118.1"/>
</g>
<!-- :feature:readout -->
<g id="node9" class="node">
<title>:feature:readout</title>
<ellipse fill="none" stroke="black" cx="804.69" cy="-90" rx="86.38" ry="18"/>
<text text-anchor="middle" x="804.69" y="-86.3" font-family="Times,serif" font-size="14.00">:feature:readout</text>
</g>
<!-- :app:shared&#45;&gt;:feature:readout -->
<g id="edge9" class="edge">
<title>:app:shared&#45;&gt;:feature:readout</title>
<path fill="none" stroke="black" d="M661.11,-146.83C688.55,-136.16 726.43,-121.43 756.39,-109.78"/>
<polygon fill="black" stroke="black" points="757.77,-113 765.82,-106.11 755.23,-106.48 757.77,-113"/>
</g>
<!-- :feature:readout&#45;vehicle&#45;approach -->
<g id="node10" class="node">
<title>:feature:readout&#45;vehicle&#45;approach</title>
<ellipse fill="none" stroke="black" cx="167.69" cy="-90" rx="167.87" ry="18"/>
<text text-anchor="middle" x="167.69" y="-86.3" font-family="Times,serif" font-size="14.00">:feature:readout&#45;vehicle&#45;approach</text>
</g>
<!-- :app:shared&#45;&gt;:feature:readout&#45;vehicle&#45;approach -->
<g id="edge10" class="edge">
<title>:app:shared&#45;&gt;:feature:readout&#45;vehicle&#45;approach</title>
<path fill="none" stroke="black" d="M568.65,-152.42C494.37,-141.04 361.96,-120.76 269.71,-106.63"/>
<polygon fill="black" stroke="black" points="270.2,-103.16 259.79,-105.11 269.14,-110.08 270.2,-103.16"/>
</g>
<!-- :core:data&#45;&gt;:core:domain -->
<g id="edge12" class="edge">
<title>:core:data&#45;&gt;:core:domain</title>
<path fill="none" stroke="black" d="M991.22,-144.32C1005.05,-125.15 1022.29,-93.56 1005.69,-72 989.73,-51.3 927.49,-37.05 876.44,-28.59"/>
<polygon fill="black" stroke="black" points="876.83,-25.11 866.4,-26.97 875.71,-32.02 876.83,-25.11"/>
</g>
<!-- :app:desktopApp -->
<g id="node6" class="node">
<title>:app:desktopApp</title>
<ellipse fill="none" stroke="black" cx="985.69" cy="-234" rx="88.28" ry="18"/>
<text text-anchor="middle" x="985.69" y="-230.3" font-family="Times,serif" font-size="14.00">:app:desktopApp</text>
</g>
<!-- :app:desktopApp&#45;&gt;:core:domain -->
<g id="edge6" class="edge">
<title>:app:desktopApp&#45;&gt;:core:domain</title>
<path fill="none" stroke="black" d="M1011.81,-216.7C1023.93,-207.56 1037.08,-194.98 1043.69,-180 1063.41,-135.26 1058.04,-105.78 1022.69,-72 1001.74,-51.99 931.54,-37.34 876.39,-28.58"/>
<polygon fill="black" stroke="black" points="876.71,-25.08 866.29,-27.01 875.63,-32 876.71,-25.08"/>
</g>
<!-- :app:desktopApp&#45;&gt;:app:shared -->
<g id="edge4" class="edge">
<title>:app:desktopApp&#45;&gt;:app:shared</title>
<path fill="none" stroke="black" d="M924.04,-221.05C857.76,-208.2 753,-187.88 686.62,-175.01"/>
<polygon fill="black" stroke="black" points="687.19,-171.56 676.71,-173.09 685.86,-178.43 687.19,-171.56"/>
</g>
<!-- :app:desktopApp&#45;&gt;:core:data -->
<g id="edge5" class="edge">
<title>:app:desktopApp&#45;&gt;:core:data</title>
<path fill="none" stroke="black" d="M983.71,-215.7C982.83,-207.98 981.77,-198.71 980.78,-190.11"/>
<polygon fill="black" stroke="black" points="984.25,-189.64 979.64,-180.1 977.3,-190.44 984.25,-189.64"/>
</g>
<!-- :feature:narrator&#45;&gt;:core:domain -->
<g id="edge13" class="edge">
<title>:feature:narrator&#45;&gt;:core:domain</title>
<path fill="none" stroke="black" d="M504.92,-76.97C570.58,-64.27 673.58,-44.35 740.12,-31.49"/>
<polygon fill="black" stroke="black" points="740.91,-34.9 750.06,-29.56 739.58,-28.02 740.91,-34.9"/>
</g>
<!-- :feature:other&#45;&gt;:core:domain -->
<g id="edge14" class="edge">
<title>:feature:other&#45;&gt;:core:domain</title>
<path fill="none" stroke="black" d="M662.42,-74.33C690.33,-63.47 728.49,-48.63 758.27,-37.05"/>
<polygon fill="black" stroke="black" points="759.57,-40.3 767.62,-33.42 757.03,-33.78 759.57,-40.3"/>
</g>
<!-- :feature:readout&#45;&gt;:core:domain -->
<g id="edge15" class="edge">
<title>:feature:readout&#45;&gt;:core:domain</title>
<path fill="none" stroke="black" d="M804.69,-71.7C804.69,-63.98 804.69,-54.71 804.69,-46.11"/>
<polygon fill="black" stroke="black" points="808.19,-46.1 804.69,-36.1 801.19,-46.1 808.19,-46.1"/>
</g>
<!-- :feature:readout&#45;vehicle&#45;approach&#45;&gt;:core:domain -->
<g id="edge16" class="edge">
<title>:feature:readout&#45;vehicle&#45;approach&#45;&gt;:core:domain</title>
<path fill="none" stroke="black" d="M280.47,-76.61C410.41,-62.33 620.22,-39.27 730.89,-27.11"/>
<polygon fill="black" stroke="black" points="731.4,-30.57 740.96,-26 730.63,-23.62 731.4,-30.57"/>
</g>
<!-- :core:designsystem -->
<g id="node12" class="node">
<title>:core:designsystem</title>
<ellipse fill="none" stroke="black" cx="167.69" cy="-18" rx="100.98" ry="18"/>
<text text-anchor="middle" x="167.69" y="-14.3" font-family="Times,serif" font-size="14.00">:core:designsystem</text>
</g>
<!-- :feature:readout&#45;vehicle&#45;approach&#45;&gt;:core:designsystem -->
<g id="edge17" class="edge">
<title>:feature:readout&#45;vehicle&#45;approach&#45;&gt;:core:designsystem</title>
<path fill="none" stroke="black" d="M167.69,-71.7C167.69,-63.98 167.69,-54.71 167.69,-46.11"/>
<polygon fill="black" stroke="black" points="171.19,-46.1 167.69,-36.1 164.19,-46.1 171.19,-46.1"/>
</g>
<!-- :app:webApp -->
<g id="node11" class="node">
<title>:app:webApp</title>
<ellipse fill="none" stroke="black" cx="616.69" cy="-234" rx="70.69" ry="18"/>
<text text-anchor="middle" x="616.69" y="-230.3" font-family="Times,serif" font-size="14.00">:app:webApp</text>
</g>
<!-- :app:webApp&#45;&gt;:app:shared -->
<g id="edge11" class="edge">
<title>:app:webApp&#45;&gt;:app:shared</title>
<path fill="none" stroke="black" d="M618.66,-215.7C619.54,-207.98 620.6,-198.71 621.59,-190.11"/>
<polygon fill="black" stroke="black" points="625.07,-190.44 622.73,-180.1 618.12,-189.64 625.07,-190.44"/>
</g>
</g>
</svg>
