<?xml version="1.0" encoding="UTF-8" standalone="no"?>
<!DOCTYPE svg PUBLIC "-//W3C//DTD SVG 1.1//EN"
 "http://www.w3.org/Graphics/SVG/1.1/DTD/svg11.dtd">
<!-- Generated by graphviz version 2.43.0 (0)
 -->
<!-- Title: G Pages: 1 -->
<svg width="536pt" height="260pt"
 viewBox="0.00 0.00 535.94 260.00" xmlns="http://www.w3.org/2000/svg" xmlns:xlink="http://www.w3.org/1999/xlink">
<g id="graph0" class="graph" transform="scale(1 1) rotate(0) translate(4 256)">
<title>G</title>
<polygon fill="white" stroke="transparent" points="-4,4 -4,-256 531.94,-256 531.94,4 -4,4"/>
<!-- :server -->
<g id="node1" class="node">
<title>:server</title>
<ellipse fill="none" stroke="black" cx="132.09" cy="-90" rx="43.59" ry="18"/>
<text text-anchor="middle" x="132.09" y="-86.3" font-family="Times,serif" font-size="14.00">:server</text>
</g>
<!-- :core -->
<g id="node2" class="node">
<title>:core</title>
<ellipse fill="none" stroke="black" cx="206.09" cy="-18" rx="33.6" ry="18"/>
<text text-anchor="middle" x="206.09" y="-14.3" font-family="Times,serif" font-size="14.00">:core</text>
</g>
<!-- :server&#45;&gt;:core -->
<g id="edge1" class="edge">
<title>:server&#45;&gt;:core</title>
<path fill="none" stroke="black" d="M148.88,-73.12C158.77,-63.77 171.42,-51.79 182.32,-41.49"/>
<polygon fill="black" stroke="black" points="185.02,-43.75 189.88,-34.34 180.21,-38.67 185.02,-43.75"/>
</g>
<!-- :app:androidApp -->
<g id="node3" class="node">
<title>:app:androidApp</title>
<ellipse fill="none" stroke="black" cx="87.09" cy="-234" rx="87.18" ry="18"/>
<text text-anchor="middle" x="87.09" y="-230.3" font-family="Times,serif" font-size="14.00">:app:androidApp</text>
</g>
<!-- :app:shared -->
<g id="node4" class="node">
<title>:app:shared</title>
<ellipse fill="none" stroke="black" cx="280.09" cy="-162" rx="65.79" ry="18"/>
<text text-anchor="middle" x="280.09" y="-158.3" font-family="Times,serif" font-size="14.00">:app:shared</text>
</g>
<!-- :app:androidApp&#45;&gt;:app:shared -->
<g id="edge2" class="edge">
<title>:app:androidApp&#45;&gt;:app:shared</title>
<path fill="none" stroke="black" d="M128.5,-217.98C159.01,-206.92 200.58,-191.84 232.47,-180.27"/>
<polygon fill="black" stroke="black" points="233.83,-183.5 242.03,-176.8 231.44,-176.92 233.83,-183.5"/>
</g>
<!-- :feature:readout -->
<g id="node6" class="node">
<title>:feature:readout</title>
<ellipse fill="none" stroke="black" cx="280.09" cy="-90" rx="86.38" ry="18"/>
<text text-anchor="middle" x="280.09" y="-86.3" font-family="Times,serif" font-size="14.00">:feature:readout</text>
</g>
<!-- :app:shared&#45;&gt;:feature:readout -->
<g id="edge4" class="edge">
<title>:app:shared&#45;&gt;:feature:readout</title>
<path fill="none" stroke="black" d="M280.09,-143.7C280.09,-135.98 280.09,-126.71 280.09,-118.11"/>
<polygon fill="black" stroke="black" points="283.59,-118.1 280.09,-108.1 276.59,-118.1 283.59,-118.1"/>
</g>
<!-- :app:desktopApp -->
<g id="node5" class="node">
<title>:app:desktopApp</title>
<ellipse fill="none" stroke="black" cx="280.09" cy="-234" rx="88.28" ry="18"/>
<text text-anchor="middle" x="280.09" y="-230.3" font-family="Times,serif" font-size="14.00">:app:desktopApp</text>
</g>
<!-- :app:desktopApp&#45;&gt;:app:shared -->
<g id="edge3" class="edge">
<title>:app:desktopApp&#45;&gt;:app:shared</title>
<path fill="none" stroke="black" d="M280.09,-215.7C280.09,-207.98 280.09,-198.71 280.09,-190.11"/>
<polygon fill="black" stroke="black" points="283.59,-190.1 280.09,-180.1 276.59,-190.1 283.59,-190.1"/>
</g>
<!-- :feature:readout&#45;&gt;:core -->
<g id="edge6" class="edge">
<title>:feature:readout&#45;&gt;:core</title>
<path fill="none" stroke="black" d="M262.18,-72.05C252.33,-62.74 240.01,-51.08 229.42,-41.07"/>
<polygon fill="black" stroke="black" points="231.75,-38.45 222.08,-34.12 226.94,-43.54 231.75,-38.45"/>
</g>
<!-- :app:webApp -->
<g id="node7" class="node">
<title>:app:webApp</title>
<ellipse fill="none" stroke="black" cx="457.09" cy="-234" rx="70.69" ry="18"/>
<text text-anchor="middle" x="457.09" y="-230.3" font-family="Times,serif" font-size="14.00">:app:webApp</text>
</g>
<!-- :app:webApp&#45;&gt;:app:shared -->
<g id="edge5" class="edge">
<title>:app:webApp&#45;&gt;:app:shared</title>
<path fill="none" stroke="black" d="M420.42,-218.5C392.85,-207.59 354.93,-192.6 325.46,-180.94"/>
<polygon fill="black" stroke="black" points="326.4,-177.55 315.81,-177.13 323.82,-184.06 326.4,-177.55"/>
</g>
</g>
</svg>
