<?xml version="1.0" encoding="UTF-8" standalone="no"?>
<!DOCTYPE svg PUBLIC "-//W3C//DTD SVG 1.1//EN"
 "http://www.w3.org/Graphics/SVG/1.1/DTD/svg11.dtd">
<!-- Generated by graphviz version 2.43.0 (0)
 -->
<!-- Title: G Pages: 1 -->
<svg width="7212pt" height="260pt"
 viewBox="0.00 0.00 7212.28 260.00" xmlns="http://www.w3.org/2000/svg" xmlns:xlink="http://www.w3.org/1999/xlink">
<g id="graph0" class="graph" transform="scale(1 1) rotate(0) translate(4 256)">
<title>G</title>
<polygon fill="white" stroke="transparent" points="-4,4 -4,-256 7208.28,-256 7208.28,4 -4,4"/>
<!-- :server -->
<g id="node1" class="node">
<title>:server</title>
<ellipse fill="none" stroke="black" cx="302.89" cy="-162" rx="43.59" ry="18"/>
<text text-anchor="middle" x="302.89" y="-158.3" font-family="Times,serif" font-size="14.00">:server</text>
</g>
<!-- :core:domain -->
<g id="node2" class="node">
<title>:core:domain</title>
<ellipse fill="none" stroke="black" cx="2769.89" cy="-18" rx="70.69" ry="18"/>
<text text-anchor="middle" x="2769.89" y="-14.3" font-family="Times,serif" font-size="14.00">:core:domain</text>
</g>
<!-- :server&#45;&gt;:core:domain -->
<g id="edge1" class="edge">
<title>:server&#45;&gt;:core:domain</title>
<path fill="none" stroke="black" d="M303.16,-143.91C304.52,-123.07 310.29,-88.61 332.89,-72 381.42,-36.34 2271.91,-22.18 2689.01,-19.49"/>
<polygon fill="black" stroke="black" points="2689.2,-22.99 2699.17,-19.43 2689.15,-15.99 2689.2,-22.99"/>
</g>
<!-- :app:androidApp -->
<g id="node3" class="node">
<title>:app:androidApp</title>
<ellipse fill="none" stroke="black" cx="639.89" cy="-234" rx="87.18" ry="18"/>
<text text-anchor="middle" x="639.89" y="-230.3" font-family="Times,serif" font-size="14.00">:app:androidApp</text>
</g>
<!-- :app:shared -->
<g id="node4" class="node">
<title>:app:shared</title>
<ellipse fill="none" stroke="black" cx="3085.89" cy="-162" rx="65.79" ry="18"/>
<text text-anchor="middle" x="3085.89" y="-158.3" font-family="Times,serif" font-size="14.00">:app:shared</text>
</g>
<!-- :app:androidApp&#45;&gt;:app:shared -->
<g id="edge2" class="edge">
<title>:app:androidApp&#45;&gt;:app:shared</title>
<path fill="none" stroke="black" d="M725.51,-230.55C1107.31,-219.62 2651.48,-175.43 3010.88,-165.15"/>
<polygon fill="black" stroke="black" points="3011.02,-168.64 3020.91,-164.86 3010.82,-161.65 3011.02,-168.64"/>
</g>
<!-- :core:data -->
<g id="node5" class="node">
<title>:core:data</title>
<ellipse fill="none" stroke="black" cx="628.89" cy="-162" rx="57.39" ry="18"/>
<text text-anchor="middle" x="628.89" y="-158.3" font-family="Times,serif" font-size="14.00">:core:data</text>
</g>
<!-- :app:androidApp&#45;&gt;:core:data -->
<g id="edge3" class="edge">
<title>:app:androidApp&#45;&gt;:core:data</title>
<path fill="none" stroke="black" d="M637.17,-215.7C635.96,-207.98 634.5,-198.71 633.15,-190.11"/>
<polygon fill="black" stroke="black" points="636.59,-189.44 631.58,-180.1 629.67,-190.53 636.59,-189.44"/>
</g>
<!-- :core:gt7&#45;ps5&#45;data -->
<g id="node6" class="node">
<title>:core:gt7&#45;ps5&#45;data</title>
<ellipse fill="none" stroke="black" cx="458.89" cy="-162" rx="94.78" ry="18"/>
<text text-anchor="middle" x="458.89" y="-158.3" font-family="Times,serif" font-size="14.00">:core:gt7&#45;ps5&#45;data</text>
</g>
<!-- :app:androidApp&#45;&gt;:core:gt7&#45;ps5&#45;data -->
<g id="edge4" class="edge">
<title>:app:androidApp&#45;&gt;:core:gt7&#45;ps5&#45;data</title>
<path fill="none" stroke="black" d="M600.61,-217.81C573.53,-207.33 537.31,-193.33 508.26,-182.09"/>
<polygon fill="black" stroke="black" points="509.3,-178.74 498.71,-178.4 506.78,-185.27 509.3,-178.74"/>
</g>
<!-- :feature:main -->
<g id="node9" class="node">
<title>:feature:main</title>
<ellipse fill="none" stroke="black" cx="2866.89" cy="-90" rx="73.39" ry="18"/>
<text text-anchor="middle" x="2866.89" y="-86.3" font-family="Times,serif" font-size="14.00">:feature:main</text>
</g>
<!-- :app:shared&#45;&gt;:feature:main -->
<g id="edge10" class="edge">
<title>:app:shared&#45;&gt;:feature:main</title>
<path fill="none" stroke="black" d="M3044.95,-147.92C3009.61,-136.62 2958.32,-120.22 2919.85,-107.93"/>
<polygon fill="black" stroke="black" points="2920.46,-104.45 2909.87,-104.74 2918.33,-111.12 2920.46,-104.45"/>
</g>
<!-- :feature:lmu&#45;windows&#45;connection -->
<g id="node10" class="node">
<title>:feature:lmu&#45;windows&#45;connection</title>
<ellipse fill="none" stroke="black" cx="534.89" cy="-90" rx="164.37" ry="18"/>
<text text-anchor="middle" x="534.89" y="-86.3" font-family="Times,serif" font-size="14.00">:feature:lmu&#45;windows&#45;connection</text>
</g>
<!-- :app:shared&#45;&gt;:feature:lmu&#45;windows&#45;connection -->
<g id="edge11" class="edge">
<title>:app:shared&#45;&gt;:feature:lmu&#45;windows&#45;connection</title>
<path fill="none" stroke="black" d="M3020.12,-161.34C2740.66,-162.41 1624.13,-162.84 708.89,-108 692.17,-107 674.58,-105.64 657.27,-104.12"/>
<polygon fill="black" stroke="black" points="657.38,-100.62 647.11,-103.21 656.76,-107.59 657.38,-100.62"/>
</g>
<!-- :feature:gt7&#45;ps5&#45;connection -->
<g id="node11" class="node">
<title>:feature:gt7&#45;ps5&#45;connection</title>
<ellipse fill="none" stroke="black" cx="855.89" cy="-90" rx="138.38" ry="18"/>
<text text-anchor="middle" x="855.89" y="-86.3" font-family="Times,serif" font-size="14.00">:feature:gt7&#45;ps5&#45;connection</text>
</g>
<!-- :app:shared&#45;&gt;:feature:gt7&#45;ps5&#45;connection -->
<g id="edge12" class="edge">
<title>:app:shared&#45;&gt;:feature:gt7&#45;ps5&#45;connection</title>
<path fill="none" stroke="black" d="M3020.15,-161.45C2762.48,-162.77 1796.51,-163.5 1003.89,-108 989.95,-107.02 975.3,-105.7 960.86,-104.23"/>
<polygon fill="black" stroke="black" points="961.22,-100.74 950.91,-103.18 960.49,-107.71 961.22,-100.74"/>
</g>
<!-- :feature:server&#45;connection -->
<g id="node12" class="node">
<title>:feature:server&#45;connection</title>
<ellipse fill="none" stroke="black" cx="1145.89" cy="-90" rx="133.48" ry="18"/>
<text text-anchor="middle" x="1145.89" y="-86.3" font-family="Times,serif" font-size="14.00">:feature:server&#45;connection</text>
</g>
<!-- :app:shared&#45;&gt;:feature:server&#45;connection -->
<g id="edge13" class="edge">
<title>:app:shared&#45;&gt;:feature:server&#45;connection</title>
<path fill="none" stroke="black" d="M3020.06,-161.19C2784.75,-161.41 1963.3,-158.28 1287.89,-108 1274.64,-107.01 1260.72,-105.7 1247,-104.23"/>
<polygon fill="black" stroke="black" points="1247.38,-100.75 1237.05,-103.14 1246.61,-107.71 1247.38,-100.75"/>
</g>
<!-- :feature:lmu&#45;windows&#45;narrator -->
<g id="node13" class="node">
<title>:feature:lmu&#45;windows&#45;narrator</title>
<ellipse fill="none" stroke="black" cx="7050.89" cy="-90" rx="153.27" ry="18"/>
<text text-anchor="middle" x="7050.89" y="-86.3" font-family="Times,serif" font-size="14.00">:feature:lmu&#45;windows&#45;narrator</text>
</g>
<!-- :app:shared&#45;&gt;:feature:lmu&#45;windows&#45;narrator -->
<g id="edge14" class="edge">
<title>:app:shared&#45;&gt;:feature:lmu&#45;windows&#45;narrator</title>
<path fill="none" stroke="black" d="M3151.71,-160.89C3592.31,-160.06 6118.93,-153.37 6887.89,-108 6903.65,-107.07 6920.23,-105.74 6936.55,-104.24"/>
<polygon fill="black" stroke="black" points="6937.03,-107.71 6946.66,-103.28 6936.37,-100.74 6937.03,-107.71"/>
</g>
<!-- :feature:gt7&#45;ps5&#45;narrator -->
<g id="node14" class="node">
<title>:feature:gt7&#45;ps5&#45;narrator</title>
<ellipse fill="none" stroke="black" cx="3085.89" cy="-90" rx="127.28" ry="18"/>
<text text-anchor="middle" x="3085.89" y="-86.3" font-family="Times,serif" font-size="14.00">:feature:gt7&#45;ps5&#45;narrator</text>
</g>
<!-- :app:shared&#45;&gt;:feature:gt7&#45;ps5&#45;narrator -->
<g id="edge15" class="edge">
<title>:app:shared&#45;&gt;:feature:gt7&#45;ps5&#45;narrator</title>
<path fill="none" stroke="black" d="M3085.89,-143.7C3085.89,-135.98 3085.89,-126.71 3085.89,-118.11"/>
<polygon fill="black" stroke="black" points="3089.39,-118.1 3085.89,-108.1 3082.39,-118.1 3089.39,-118.1"/>
</g>
<!-- :feature:other&#45;license&#45;detail -->
<g id="node15" class="node">
<title>:feature:other&#45;license&#45;detail</title>
<ellipse fill="none" stroke="black" cx="3370.89" cy="-90" rx="139.98" ry="18"/>
<text text-anchor="middle" x="3370.89" y="-86.3" font-family="Times,serif" font-size="14.00">:feature:other&#45;license&#45;detail</text>
</g>
<!-- :app:shared&#45;&gt;:feature:other&#45;license&#45;detail -->
<g id="edge16" class="edge">
<title>:app:shared&#45;&gt;:feature:other&#45;license&#45;detail</title>
<path fill="none" stroke="black" d="M3132.95,-149.44C3178.18,-138.33 3247.14,-121.39 3299.2,-108.61"/>
<polygon fill="black" stroke="black" points="3300.17,-111.97 3309.05,-106.19 3298.5,-105.18 3300.17,-111.97"/>
</g>
<!-- :feature:other&#45;list -->
<g id="node16" class="node">
<title>:feature:other&#45;list</title>
<ellipse fill="none" stroke="black" cx="1389.89" cy="-90" rx="92.88" ry="18"/>
<text text-anchor="middle" x="1389.89" y="-86.3" font-family="Times,serif" font-size="14.00">:feature:other&#45;list</text>
</g>
<!-- :app:shared&#45;&gt;:feature:other&#45;list -->
<g id="edge17" class="edge">
<title>:app:shared&#45;&gt;:feature:other&#45;list</title>
<path fill="none" stroke="black" d="M3020.36,-159.99C2759.59,-155.8 1795,-138.51 1490.89,-108 1482.15,-107.12 1473.02,-105.95 1463.98,-104.63"/>
<polygon fill="black" stroke="black" points="1464.24,-101.13 1453.83,-103.09 1463.19,-108.05 1464.24,-101.13"/>
</g>
<!-- :feature:other&#45;server&#45;ip&#45;detail -->
<g id="node17" class="node">
<title>:feature:other&#45;server&#45;ip&#45;detail</title>
<ellipse fill="none" stroke="black" cx="3677.89" cy="-90" rx="148.67" ry="18"/>
<text text-anchor="middle" x="3677.89" y="-86.3" font-family="Times,serif" font-size="14.00">:feature:other&#45;server&#45;ip&#45;detail</text>
</g>
<!-- :app:shared&#45;&gt;:feature:other&#45;server&#45;ip&#45;detail -->
<g id="edge18" class="edge">
<title>:app:shared&#45;&gt;:feature:other&#45;server&#45;ip&#45;detail</title>
<path fill="none" stroke="black" d="M3144.82,-154.03C3242.7,-142.46 3440.4,-119.08 3565.59,-104.28"/>
<polygon fill="black" stroke="black" points="3566.08,-107.75 3575.6,-103.1 3565.26,-100.79 3566.08,-107.75"/>
</g>
<!-- :feature:other&#45;console&#45;ip&#45;detail -->
<g id="node18" class="node">
<title>:feature:other&#45;console&#45;ip&#45;detail</title>
<ellipse fill="none" stroke="black" cx="3997.89" cy="-90" rx="153.27" ry="18"/>
<text text-anchor="middle" x="3997.89" y="-86.3" font-family="Times,serif" font-size="14.00">:feature:other&#45;console&#45;ip&#45;detail</text>
</g>
<!-- :app:shared&#45;&gt;:feature:other&#45;console&#45;ip&#45;detail -->
<g id="edge19" class="edge">
<title>:app:shared&#45;&gt;:feature:other&#45;console&#45;ip&#45;detail</title>
<path fill="none" stroke="black" d="M3149.66,-157.23C3279.11,-149.41 3582,-130.29 3835.89,-108 3850.08,-106.75 3864.96,-105.34 3879.71,-103.87"/>
<polygon fill="black" stroke="black" points="3880.28,-107.33 3889.88,-102.85 3879.58,-100.37 3880.28,-107.33"/>
</g>
<!-- :feature:other&#45;readout&#45;start&#45;sound&#45;detail -->
<g id="node19" class="node">
<title>:feature:other&#45;readout&#45;start&#45;sound&#45;detail</title>
<ellipse fill="none" stroke="black" cx="1699.89" cy="-90" rx="199.56" ry="18"/>
<text text-anchor="middle" x="1699.89" y="-86.3" font-family="Times,serif" font-size="14.00">:feature:other&#45;readout&#45;start&#45;sound&#45;detail</text>
</g>
<!-- :app:shared&#45;&gt;:feature:other&#45;readout&#45;start&#45;sound&#45;detail -->
<g id="edge20" class="edge">
<title>:app:shared&#45;&gt;:feature:other&#45;readout&#45;start&#45;sound&#45;detail</title>
<path fill="none" stroke="black" d="M3021.09,-158.91C2843.28,-152.98 2332.74,-134.77 1908.89,-108 1889.39,-106.77 1868.87,-105.31 1848.63,-103.76"/>
<polygon fill="black" stroke="black" points="1848.64,-100.25 1838.4,-102.97 1848.1,-107.23 1848.64,-100.25"/>
</g>
<!-- :feature:other&#45;volume&#45;detail -->
<g id="node20" class="node">
<title>:feature:other&#45;volume&#45;detail</title>
<ellipse fill="none" stroke="black" cx="4309.89" cy="-90" rx="141.07" ry="18"/>
<text text-anchor="middle" x="4309.89" y="-86.3" font-family="Times,serif" font-size="14.00">:feature:other&#45;volume&#45;detail</text>
</g>
<!-- :app:shared&#45;&gt;:feature:other&#45;volume&#45;detail -->
<g id="edge21" class="edge">
<title>:app:shared&#45;&gt;:feature:other&#45;volume&#45;detail</title>
<path fill="none" stroke="black" d="M3151.06,-159.23C3318.64,-154.35 3778.21,-139.01 4159.89,-108 4173.45,-106.9 4187.67,-105.54 4201.74,-104.09"/>
<polygon fill="black" stroke="black" points="4202.37,-107.54 4211.94,-103.01 4201.63,-100.58 4202.37,-107.54"/>
</g>
<!-- :feature:other&#45;keep&#45;screen&#45;on&#45;detail -->
<g id="node21" class="node">
<title>:feature:other&#45;keep&#45;screen&#45;on&#45;detail</title>
<ellipse fill="none" stroke="black" cx="2372.89" cy="-90" rx="176.57" ry="18"/>
<text text-anchor="middle" x="2372.89" y="-86.3" font-family="Times,serif" font-size="14.00">:feature:other&#45;keep&#45;screen&#45;on&#45;detail</text>
</g>
<!-- :app:shared&#45;&gt;:feature:other&#45;keep&#45;screen&#45;on&#45;detail -->
<g id="edge22" class="edge">
<title>:app:shared&#45;&gt;:feature:other&#45;keep&#45;screen&#45;on&#45;detail</title>
<path fill="none" stroke="black" d="M3025.1,-155.03C2910.59,-143.79 2660.51,-119.24 2505.44,-104.01"/>
<polygon fill="black" stroke="black" points="2505.66,-100.52 2495.36,-103.02 2504.97,-107.48 2505.66,-100.52"/>
</g>
<!-- :feature:readout&#45;list -->
<g id="node22" class="node">
<title>:feature:readout&#45;list</title>
<ellipse fill="none" stroke="black" cx="2671.89" cy="-90" rx="103.98" ry="18"/>
<text text-anchor="middle" x="2671.89" y="-86.3" font-family="Times,serif" font-size="14.00">:feature:readout&#45;list</text>
</g>
<!-- :app:shared&#45;&gt;:feature:readout&#45;list -->
<g id="edge23" class="edge">
<title>:app:shared&#45;&gt;:feature:readout&#45;list</title>
<path fill="none" stroke="black" d="M3031.34,-151.78C2960.41,-139.78 2835.9,-118.73 2753.66,-104.83"/>
<polygon fill="black" stroke="black" points="2754.04,-101.34 2743.59,-103.12 2752.87,-108.24 2754.04,-101.34"/>
</g>
<!-- :feature:lmu&#45;windows&#45;readout&#45;vehicle&#45;approach&#45;detail -->
<g id="node23" class="node">
<title>:feature:lmu&#45;windows&#45;readout&#45;vehicle&#45;approach&#45;detail</title>
<ellipse fill="none" stroke="black" cx="4729.89" cy="-90" rx="260.75" ry="18"/>
<text text-anchor="middle" x="4729.89" y="-86.3" font-family="Times,serif" font-size="14.00">:feature:lmu&#45;windows&#45;readout&#45;vehicle&#45;approach&#45;detail</text>
</g>
<!-- :app:shared&#45;&gt;:feature:lmu&#45;windows&#45;readout&#45;vehicle&#45;approach&#45;detail -->
<g id="edge24" class="edge">
<title>:app:shared&#45;&gt;:feature:lmu&#45;windows&#45;readout&#45;vehicle&#45;approach&#45;detail</title>
<path fill="none" stroke="black" d="M3151,-159.05C3348.19,-153.03 3956.24,-133.57 4459.89,-108 4485.47,-106.7 4512.4,-105.18 4538.95,-103.6"/>
<polygon fill="black" stroke="black" points="4539.33,-107.09 4549.11,-102.99 4538.91,-100.1 4539.33,-107.09"/>
</g>
<!-- :feature:lmu&#45;windows&#45;readout&#45;flag&#45;detail -->
<g id="node24" class="node">
<title>:feature:lmu&#45;windows&#45;readout&#45;flag&#45;detail</title>
<ellipse fill="none" stroke="black" cx="5207.89" cy="-90" rx="199.56" ry="18"/>
<text text-anchor="middle" x="5207.89" y="-86.3" font-family="Times,serif" font-size="14.00">:feature:lmu&#45;windows&#45;readout&#45;flag&#45;detail</text>
</g>
<!-- :app:shared&#45;&gt;:feature:lmu&#45;windows&#45;readout&#45;flag&#45;detail -->
<g id="edge25" class="edge">
<title>:app:shared&#45;&gt;:feature:lmu&#45;windows&#45;readout&#45;flag&#45;detail</title>
<path fill="none" stroke="black" d="M3151.64,-160.46C3396.11,-158.19 4275.88,-147.58 4999.89,-108 5019.86,-106.91 5040.9,-105.5 5061.61,-103.95"/>
<polygon fill="black" stroke="black" points="5062.03,-107.43 5071.74,-103.19 5061.5,-100.45 5062.03,-107.43"/>
</g>
<!-- :feature:lmu&#45;windows&#45;readout&#45;vehicle&#45;damage&#45;detail -->
<g id="node25" class="node">
<title>:feature:lmu&#45;windows&#45;readout&#45;vehicle&#45;damage&#45;detail</title>
<ellipse fill="none" stroke="black" cx="5679.89" cy="-90" rx="254.55" ry="18"/>
<text text-anchor="middle" x="5679.89" y="-86.3" font-family="Times,serif" font-size="14.00">:feature:lmu&#45;windows&#45;readout&#45;vehicle&#45;damage&#45;detail</text>
</g>
<!-- :app:shared&#45;&gt;:feature:lmu&#45;windows&#45;readout&#45;vehicle&#45;damage&#45;detail -->
<g id="edge26" class="edge">
<title>:app:shared&#45;&gt;:feature:lmu&#45;windows&#45;readout&#45;vehicle&#45;damage&#45;detail</title>
<path fill="none" stroke="black" d="M3151.74,-160.51C3427.93,-158.25 4520.12,-147.16 5416.89,-108 5442.63,-106.88 5469.77,-105.42 5496.45,-103.84"/>
<polygon fill="black" stroke="black" points="5496.87,-107.32 5506.64,-103.23 5496.45,-100.34 5496.87,-107.32"/>
</g>
<!-- :feature:gt7&#45;ps5&#45;readout&#45;my&#45;bestlap&#45;detail -->
<g id="node26" class="node">
<title>:feature:gt7&#45;ps5&#45;readout&#45;my&#45;bestlap&#45;detail</title>
<ellipse fill="none" stroke="black" cx="6160.89" cy="-90" rx="207.96" ry="18"/>
<text text-anchor="middle" x="6160.89" y="-86.3" font-family="Times,serif" font-size="14.00">:feature:gt7&#45;ps5&#45;readout&#45;my&#45;bestlap&#45;detail</text>
</g>
<!-- :app:shared&#45;&gt;:feature:gt7&#45;ps5&#45;readout&#45;my&#45;bestlap&#45;detail -->
<g id="edge27" class="edge">
<title>:app:shared&#45;&gt;:feature:gt7&#45;ps5&#45;readout&#45;my&#45;bestlap&#45;detail</title>
<path fill="none" stroke="black" d="M3151.62,-161.23C3463.77,-162.01 4827.67,-162.02 5943.89,-108 5965.25,-106.97 5987.76,-105.56 6009.89,-103.99"/>
<polygon fill="black" stroke="black" points="6010.29,-107.47 6020.02,-103.26 6009.79,-100.49 6010.29,-107.47"/>
</g>
<!-- :feature:gt7&#45;ps5&#45;readout&#45;remaining&#45;fuel&#45;laps&#45;detail -->
<g id="node27" class="node">
<title>:feature:gt7&#45;ps5&#45;readout&#45;remaining&#45;fuel&#45;laps&#45;detail</title>
<ellipse fill="none" stroke="black" cx="6632.89" cy="-90" rx="246.16" ry="18"/>
<text text-anchor="middle" x="6632.89" y="-86.3" font-family="Times,serif" font-size="14.00">:feature:gt7&#45;ps5&#45;readout&#45;remaining&#45;fuel&#45;laps&#45;detail</text>
</g>
<!-- :app:shared&#45;&gt;:feature:gt7&#45;ps5&#45;readout&#45;remaining&#45;fuel&#45;laps&#45;detail -->
<g id="edge28" class="edge">
<title>:app:shared&#45;&gt;:feature:gt7&#45;ps5&#45;readout&#45;remaining&#45;fuel&#45;laps&#45;detail</title>
<path fill="none" stroke="black" d="M3151.74,-161.18C3491.4,-161.82 5079.68,-161.69 6377.89,-108 6403.34,-106.95 6430.2,-105.51 6456.56,-103.92"/>
<polygon fill="black" stroke="black" points="6456.87,-107.41 6466.64,-103.3 6456.44,-100.42 6456.87,-107.41"/>
</g>
<!-- :core:data&#45;&gt;:core:domain -->
<g id="edge30" class="edge">
<title>:core:data&#45;&gt;:core:domain</title>
<path fill="none" stroke="black" d="M586.75,-149.65C578.85,-147.66 570.63,-145.69 562.89,-144 470.18,-123.79 295.53,-139.83 361.89,-72 403.48,-29.48 2274.4,-20.67 2689.07,-19.24"/>
<polygon fill="black" stroke="black" points="2689.18,-22.74 2699.17,-19.21 2689.16,-15.74 2689.18,-22.74"/>
</g>
<!-- :core:gt7&#45;ps5&#45;data&#45;&gt;:core:domain -->
<g id="edge31" class="edge">
<title>:core:gt7&#45;ps5&#45;data&#45;&gt;:core:domain</title>
<path fill="none" stroke="black" d="M399.35,-147.84C378.12,-139.97 356.39,-127.53 343.89,-108 335.26,-94.53 332.7,-83.44 343.89,-72 385.81,-29.15 2271.72,-20.6 2688.8,-19.23"/>
<polygon fill="black" stroke="black" points="2688.98,-22.73 2698.97,-19.2 2688.95,-15.73 2688.98,-22.73"/>
</g>
<!-- :app:desktopApp -->
<g id="node7" class="node">
<title>:app:desktopApp</title>
<ellipse fill="none" stroke="black" cx="446.89" cy="-234" rx="88.28" ry="18"/>
<text text-anchor="middle" x="446.89" y="-230.3" font-family="Times,serif" font-size="14.00">:app:desktopApp</text>
</g>
<!-- :app:desktopApp&#45;&gt;:server -->
<g id="edge9" class="edge">
<title>:app:desktopApp&#45;&gt;:server</title>
<path fill="none" stroke="black" d="M414.21,-217.12C391.9,-206.27 362.31,-191.88 339.24,-180.67"/>
<polygon fill="black" stroke="black" points="340.64,-177.46 330.12,-176.24 337.58,-183.76 340.64,-177.46"/>
</g>
<!-- :app:desktopApp&#45;&gt;:app:shared -->
<g id="edge5" class="edge">
<title>:app:desktopApp&#45;&gt;:app:shared</title>
<path fill="none" stroke="black" d="M507.75,-220.87C519.69,-218.91 532.15,-217.14 543.89,-216 1040.49,-167.59 2642.37,-163.35 3010.14,-163.02"/>
<polygon fill="black" stroke="black" points="3010.15,-166.52 3020.15,-163.01 3010.14,-159.52 3010.15,-166.52"/>
</g>
<!-- :app:desktopApp&#45;&gt;:core:data -->
<g id="edge6" class="edge">
<title>:app:desktopApp&#45;&gt;:core:data</title>
<path fill="none" stroke="black" d="M486.38,-217.81C515.34,-206.67 554.68,-191.54 584.69,-180"/>
<polygon fill="black" stroke="black" points="586.01,-183.24 594.08,-176.39 583.49,-176.71 586.01,-183.24"/>
</g>
<!-- :app:desktopApp&#45;&gt;:core:gt7&#45;ps5&#45;data -->
<g id="edge8" class="edge">
<title>:app:desktopApp&#45;&gt;:core:gt7&#45;ps5&#45;data</title>
<path fill="none" stroke="black" d="M449.86,-215.7C451.18,-207.98 452.77,-198.71 454.24,-190.11"/>
<polygon fill="black" stroke="black" points="457.72,-190.55 455.96,-180.1 450.82,-189.37 457.72,-190.55"/>
</g>
<!-- :core:lmu&#45;windows&#45;data -->
<g id="node8" class="node">
<title>:core:lmu&#45;windows&#45;data</title>
<ellipse fill="none" stroke="black" cx="120.89" cy="-162" rx="120.78" ry="18"/>
<text text-anchor="middle" x="120.89" y="-158.3" font-family="Times,serif" font-size="14.00">:core:lmu&#45;windows&#45;data</text>
</g>
<!-- :app:desktopApp&#45;&gt;:core:lmu&#45;windows&#45;data -->
<g id="edge7" class="edge">
<title>:app:desktopApp&#45;&gt;:core:lmu&#45;windows&#45;data</title>
<path fill="none" stroke="black" d="M388.23,-220.4C334.6,-208.89 254.96,-191.79 196.56,-179.25"/>
<polygon fill="black" stroke="black" points="197.15,-175.8 186.64,-177.12 195.68,-182.64 197.15,-175.8"/>
</g>
<!-- :core:lmu&#45;windows&#45;data&#45;&gt;:core:domain -->
<g id="edge32" class="edge">
<title>:core:lmu&#45;windows&#45;data&#45;&gt;:core:domain</title>
<path fill="none" stroke="black" d="M146.67,-144.27C181.41,-122.78 245.95,-86.52 306.89,-72 542.53,-15.85 2289.98,-17.57 2688.95,-18.71"/>
<polygon fill="black" stroke="black" points="2688.95,-22.21 2698.96,-18.74 2688.97,-15.21 2688.95,-22.21"/>
</g>
<!-- :feature:main&#45;&gt;:core:domain -->
<g id="edge49" class="edge">
<title>:feature:main&#45;&gt;:core:domain</title>
<path fill="none" stroke="black" d="M2844.39,-72.76C2831.41,-63.4 2814.91,-51.49 2800.74,-41.26"/>
<polygon fill="black" stroke="black" points="2802.42,-38.16 2792.26,-35.15 2798.33,-43.84 2802.42,-38.16"/>
</g>
<!-- :feature:lmu&#45;windows&#45;connection&#45;&gt;:core:domain -->
<g id="edge40" class="edge">
<title>:feature:lmu&#45;windows&#45;connection&#45;&gt;:core:domain</title>
<path fill="none" stroke="black" d="M647.12,-76.84C667.64,-74.96 688.89,-73.23 708.89,-72 1478.25,-24.58 2411.7,-19.44 2688.71,-19"/>
<polygon fill="black" stroke="black" points="2689.08,-22.5 2699.07,-18.98 2689.07,-15.5 2689.08,-22.5"/>
</g>
<!-- :feature:gt7&#45;ps5&#45;connection&#45;&gt;:core:domain -->
<g id="edge33" class="edge">
<title>:feature:gt7&#45;ps5&#45;connection&#45;&gt;:core:domain</title>
<path fill="none" stroke="black" d="M950.92,-76.88C968.51,-74.98 986.73,-73.24 1003.89,-72 1652.66,-25.09 2438.4,-19.53 2689.01,-19"/>
<polygon fill="black" stroke="black" points="2689.13,-22.5 2699.12,-18.98 2689.11,-15.5 2689.13,-22.5"/>
</g>
<!-- :feature:server&#45;connection&#45;&gt;:core:domain -->
<g id="edge62" class="edge">
<title>:feature:server&#45;connection&#45;&gt;:core:domain</title>
<path fill="none" stroke="black" d="M1237.44,-76.9C1254.2,-75.01 1271.55,-73.27 1287.89,-72 1821.35,-30.6 2465.38,-21.49 2688.87,-19.53"/>
<polygon fill="black" stroke="black" points="2689.23,-23.02 2699.2,-19.44 2689.17,-16.02 2689.23,-23.02"/>
</g>
<!-- :feature:lmu&#45;windows&#45;narrator&#45;&gt;:core:domain -->
<g id="edge41" class="edge">
<title>:feature:lmu&#45;windows&#45;narrator&#45;&gt;:core:domain</title>
<path fill="none" stroke="black" d="M6947.09,-76.75C6927.46,-74.83 6907.06,-73.12 6887.89,-72 6679.05,-59.79 3409.5,-25.6 2850.79,-19.83"/>
<polygon fill="black" stroke="black" points="2850.45,-16.33 2840.42,-19.72 2850.38,-23.33 2850.45,-16.33"/>
</g>
<!-- :core:designsystem -->
<g id="node29" class="node">
<title>:core:designsystem</title>
<ellipse fill="none" stroke="black" cx="4729.89" cy="-18" rx="100.98" ry="18"/>
<text text-anchor="middle" x="4729.89" y="-14.3" font-family="Times,serif" font-size="14.00">:core:designsystem</text>
</g>
<!-- :feature:lmu&#45;windows&#45;narrator&#45;&gt;:core:designsystem -->
<g id="edge42" class="edge">
<title>:feature:lmu&#45;windows&#45;narrator&#45;&gt;:core:designsystem</title>
<path fill="none" stroke="black" d="M6946.21,-76.84C6926.84,-74.95 6906.77,-73.21 6887.89,-72 6104.93,-21.64 5159.35,-18.2 4840.75,-18.62"/>
<polygon fill="black" stroke="black" points="4840.58,-15.12 4830.59,-18.64 4840.6,-22.12 4840.58,-15.12"/>
</g>
<!-- :feature:gt7&#45;ps5&#45;narrator&#45;&gt;:core:domain -->
<g id="edge34" class="edge">
<title>:feature:gt7&#45;ps5&#45;narrator&#45;&gt;:core:domain</title>
<path fill="none" stroke="black" d="M3020.41,-74.5C2964.93,-62.21 2885.95,-44.71 2831.58,-32.67"/>
<polygon fill="black" stroke="black" points="2832.24,-29.23 2821.72,-30.48 2830.73,-36.06 2832.24,-29.23"/>
</g>
<!-- :feature:gt7&#45;ps5&#45;narrator&#45;&gt;:core:designsystem -->
<g id="edge35" class="edge">
<title>:feature:gt7&#45;ps5&#45;narrator&#45;&gt;:core:designsystem</title>
<path fill="none" stroke="black" d="M3173.56,-76.87C3189.61,-74.99 3206.23,-73.25 3221.89,-72 3743.46,-30.32 4369.11,-21.42 4618.95,-19.52"/>
<polygon fill="black" stroke="black" points="4619.14,-23.01 4629.12,-19.44 4619.09,-16.01 4619.14,-23.01"/>
</g>
<!-- :feature:other&#45;license&#45;detail&#45;&gt;:core:domain -->
<g id="edge53" class="edge">
<title>:feature:other&#45;license&#45;detail&#45;&gt;:core:domain</title>
<path fill="none" stroke="black" d="M3270.97,-77.36C3150.36,-63.31 2950.41,-40.03 2843.18,-27.54"/>
<polygon fill="black" stroke="black" points="2843.44,-24.04 2833.1,-26.36 2842.63,-31 2843.44,-24.04"/>
</g>
<!-- :feature:other&#45;license&#45;detail&#45;&gt;:core:designsystem -->
<g id="edge54" class="edge">
<title>:feature:other&#45;license&#45;detail&#45;&gt;:core:designsystem</title>
<path fill="none" stroke="black" d="M3467.78,-76.95C3485.11,-75.08 3503.02,-73.33 3519.89,-72 3924.9,-40.06 4407.8,-26.14 4620.32,-21.24"/>
<polygon fill="black" stroke="black" points="4620.62,-24.73 4630.54,-21 4620.46,-17.73 4620.62,-24.73"/>
</g>
<!-- :feature:other&#45;list&#45;&gt;:core:domain -->
<g id="edge55" class="edge">
<title>:feature:other&#45;list&#45;&gt;:core:domain</title>
<path fill="none" stroke="black" d="M1454.11,-76.95C1466.29,-75.02 1478.95,-73.25 1490.89,-72 1941.7,-24.91 2486,-19.21 2688.69,-18.84"/>
<polygon fill="black" stroke="black" points="2688.96,-22.34 2698.95,-18.83 2688.95,-15.34 2688.96,-22.34"/>
</g>
<!-- :feature:other&#45;server&#45;ip&#45;detail&#45;&gt;:core:domain -->
<g id="edge57" class="edge">
<title>:feature:other&#45;server&#45;ip&#45;detail&#45;&gt;:core:domain</title>
<path fill="none" stroke="black" d="M3572.98,-77.17C3555.27,-75.33 3537.06,-73.53 3519.89,-72 3275.33,-50.21 2985.25,-31.83 2848.57,-23.61"/>
<polygon fill="black" stroke="black" points="2848.4,-20.09 2838.21,-22.99 2847.98,-27.08 2848.4,-20.09"/>
</g>
<!-- :feature:other&#45;server&#45;ip&#45;detail&#45;&gt;:core:designsystem -->
<g id="edge58" class="edge">
<title>:feature:other&#45;server&#45;ip&#45;detail&#45;&gt;:core:designsystem</title>
<path fill="none" stroke="black" d="M3781.93,-77.09C3799.91,-75.24 3818.43,-73.46 3835.89,-72 4119.83,-48.32 4455.37,-31.38 4623.14,-23.67"/>
<polygon fill="black" stroke="black" points="4623.38,-27.16 4633.21,-23.21 4623.06,-20.17 4623.38,-27.16"/>
</g>
<!-- :feature:other&#45;console&#45;ip&#45;detail&#45;&gt;:core:domain -->
<g id="edge50" class="edge">
<title>:feature:other&#45;console&#45;ip&#45;detail&#45;&gt;:core:domain</title>
<path fill="none" stroke="black" d="M3891.65,-77.01C3873.08,-75.15 3853.93,-73.39 3835.89,-72 3467.99,-43.57 3027.43,-27.3 2849.86,-21.48"/>
<polygon fill="black" stroke="black" points="2849.93,-17.98 2839.82,-21.15 2849.7,-24.97 2849.93,-17.98"/>
</g>
<!-- :feature:other&#45;console&#45;ip&#45;detail&#45;&gt;:core:designsystem -->
<g id="edge51" class="edge">
<title>:feature:other&#45;console&#45;ip&#45;detail&#45;&gt;:core:designsystem</title>
<path fill="none" stroke="black" d="M4107.23,-77.35C4124.84,-75.52 4142.86,-73.68 4159.89,-72 4325.5,-55.61 4518.32,-37.99 4631.91,-27.76"/>
<polygon fill="black" stroke="black" points="4632.33,-31.23 4641.98,-26.85 4631.7,-24.26 4632.33,-31.23"/>
</g>
<!-- :feature:other&#45;readout&#45;start&#45;sound&#45;detail&#45;&gt;:core:domain -->
<g id="edge56" class="edge">
<title>:feature:other&#45;readout&#45;start&#45;sound&#45;detail&#45;&gt;:core:domain</title>
<path fill="none" stroke="black" d="M1840.39,-77.19C1863.28,-75.38 1886.74,-73.58 1908.89,-72 2197.11,-51.41 2539.95,-31.75 2691.37,-23.32"/>
<polygon fill="black" stroke="black" points="2691.71,-26.8 2701.5,-22.75 2691.32,-19.81 2691.71,-26.8"/>
</g>
<!-- :feature:other&#45;volume&#45;detail&#45;&gt;:core:domain -->
<g id="edge59" class="edge">
<title>:feature:other&#45;volume&#45;detail&#45;&gt;:core:domain</title>
<path fill="none" stroke="black" d="M4212.76,-76.92C4195.18,-75.04 4177.01,-73.29 4159.89,-72 3663.23,-34.44 3064.62,-23 2850.71,-19.97"/>
<polygon fill="black" stroke="black" points="2850.56,-16.47 2840.51,-19.83 2850.46,-23.47 2850.56,-16.47"/>
</g>
<!-- :feature:other&#45;volume&#45;detail&#45;&gt;:core:designsystem -->
<g id="edge60" class="edge">
<title>:feature:other&#45;volume&#45;detail&#45;&gt;:core:designsystem</title>
<path fill="none" stroke="black" d="M4391.87,-75.34C4466.08,-62.97 4574.79,-44.85 4648.75,-32.52"/>
<polygon fill="black" stroke="black" points="4649.66,-35.92 4658.94,-30.82 4648.5,-29.02 4649.66,-35.92"/>
</g>
<!-- :feature:other&#45;keep&#45;screen&#45;on&#45;detail&#45;&gt;:core:domain -->
<g id="edge52" class="edge">
<title>:feature:other&#45;keep&#45;screen&#45;on&#45;detail&#45;&gt;:core:domain</title>
<path fill="none" stroke="black" d="M2457.08,-74.15C2530.47,-61.21 2635.49,-42.7 2703.19,-30.76"/>
<polygon fill="black" stroke="black" points="2704.07,-34.16 2713.31,-28.98 2702.86,-27.27 2704.07,-34.16"/>
</g>
<!-- :feature:readout&#45;list&#45;&gt;:core:domain -->
<g id="edge61" class="edge">
<title>:feature:readout&#45;list&#45;&gt;:core:domain</title>
<path fill="none" stroke="black" d="M2695.11,-72.41C2708.14,-63.1 2724.58,-51.37 2738.71,-41.27"/>
<polygon fill="black" stroke="black" points="2741.07,-43.89 2747.17,-35.23 2737,-38.19 2741.07,-43.89"/>
</g>
<!-- :feature:lmu&#45;windows&#45;readout&#45;vehicle&#45;approach&#45;detail&#45;&gt;:core:domain -->
<g id="edge45" class="edge">
<title>:feature:lmu&#45;windows&#45;readout&#45;vehicle&#45;approach&#45;detail&#45;&gt;:core:domain</title>
<path fill="none" stroke="black" d="M4550.57,-76.91C4520.31,-75.1 4489.21,-73.38 4459.89,-72 3840.92,-42.82 3093.64,-25.72 2850.52,-20.63"/>
<polygon fill="black" stroke="black" points="2850.42,-17.12 2840.35,-20.41 2850.28,-24.12 2850.42,-17.12"/>
</g>
<!-- :feature:lmu&#45;windows&#45;readout&#45;vehicle&#45;approach&#45;detail&#45;&gt;:core:designsystem -->
<g id="edge46" class="edge">
<title>:feature:lmu&#45;windows&#45;readout&#45;vehicle&#45;approach&#45;detail&#45;&gt;:core:designsystem</title>
<path fill="none" stroke="black" d="M4729.89,-71.7C4729.89,-63.98 4729.89,-54.71 4729.89,-46.11"/>
<polygon fill="black" stroke="black" points="4733.39,-46.1 4729.89,-36.1 4726.39,-46.1 4733.39,-46.1"/>
</g>
<!-- :feature:lmu&#45;windows&#45;readout&#45;flag&#45;detail&#45;&gt;:core:domain -->
<g id="edge43" class="edge">
<title>:feature:lmu&#45;windows&#45;readout&#45;flag&#45;detail&#45;&gt;:core:domain</title>
<path fill="none" stroke="black" d="M5072.3,-76.78C5048.2,-74.93 5023.32,-73.23 4999.89,-72 4160.5,-27.76 3141.41,-20.44 2850.75,-19.24"/>
<polygon fill="black" stroke="black" points="2850.73,-15.74 2840.72,-19.19 2850.7,-22.73 2850.73,-15.74"/>
</g>
<!-- :feature:lmu&#45;windows&#45;readout&#45;flag&#45;detail&#45;&gt;:core:designsystem -->
<g id="edge44" class="edge">
<title>:feature:lmu&#45;windows&#45;readout&#45;flag&#45;detail&#45;&gt;:core:designsystem</title>
<path fill="none" stroke="black" d="M5107.98,-74.37C5021.28,-61.67 4897.12,-43.49 4815.05,-31.47"/>
<polygon fill="black" stroke="black" points="4815.41,-27.99 4805.01,-30 4814.4,-34.91 4815.41,-27.99"/>
</g>
<!-- :feature:lmu&#45;windows&#45;readout&#45;vehicle&#45;damage&#45;detail&#45;&gt;:core:domain -->
<g id="edge47" class="edge">
<title>:feature:lmu&#45;windows&#45;readout&#45;vehicle&#45;damage&#45;detail&#45;&gt;:core:domain</title>
<path fill="none" stroke="black" d="M5507.35,-76.75C5477.21,-74.92 5446.15,-73.24 5416.89,-72 4405.23,-29.2 3174.56,-20.81 2850.96,-19.31"/>
<polygon fill="black" stroke="black" points="2850.76,-15.81 2840.74,-19.26 2850.72,-22.81 2850.76,-15.81"/>
</g>
<!-- :feature:lmu&#45;windows&#45;readout&#45;vehicle&#45;damage&#45;detail&#45;&gt;:core:designsystem -->
<g id="edge48" class="edge">
<title>:feature:lmu&#45;windows&#45;readout&#45;vehicle&#45;damage&#45;detail&#45;&gt;:core:designsystem</title>
<path fill="none" stroke="black" d="M5510.6,-76.53C5313.22,-61.98 4993.4,-38.42 4831.18,-26.46"/>
<polygon fill="black" stroke="black" points="4831.44,-22.97 4821.21,-25.73 4830.92,-29.95 4831.44,-22.97"/>
</g>
<!-- :feature:gt7&#45;ps5&#45;readout&#45;my&#45;bestlap&#45;detail&#45;&gt;:core:domain -->
<g id="edge36" class="edge">
<title>:feature:gt7&#45;ps5&#45;readout&#45;my&#45;bestlap&#45;detail&#45;&gt;:core:domain</title>
<path fill="none" stroke="black" d="M6020.31,-76.72C5994.89,-74.86 5968.61,-73.17 5943.89,-72 5315.23,-42.15 3281.92,-23.38 2850.72,-19.67"/>
<polygon fill="black" stroke="black" points="2850.56,-16.17 2840.53,-19.59 2850.5,-23.17 2850.56,-16.17"/>
</g>
<!-- :feature:gt7&#45;ps5&#45;readout&#45;my&#45;bestlap&#45;detail&#45;&gt;:core:designsystem -->
<g id="edge37" class="edge">
<title>:feature:gt7&#45;ps5&#45;readout&#45;my&#45;bestlap&#45;detail&#45;&gt;:core:designsystem</title>
<path fill="none" stroke="black" d="M6016.78,-77.01C5992.46,-75.19 5967.46,-73.44 5943.89,-72 5536.26,-47.14 5050.95,-29.57 4838.52,-22.48"/>
<polygon fill="black" stroke="black" points="4838.41,-18.98 4828.3,-22.14 4838.18,-25.97 4838.41,-18.98"/>
</g>
<!-- :feature:gt7&#45;ps5&#45;readout&#45;remaining&#45;fuel&#45;laps&#45;detail&#45;&gt;:core:domain -->
<g id="edge38" class="edge">
<title>:feature:gt7&#45;ps5&#45;readout&#45;remaining&#45;fuel&#45;laps&#45;detail&#45;&gt;:core:domain</title>
<path fill="none" stroke="black" d="M6466.98,-76.69C6437.33,-74.84 6406.71,-73.17 6377.89,-72 5657.68,-42.72 3316.89,-23.25 2850.97,-19.62"/>
<polygon fill="black" stroke="black" points="2850.67,-16.12 2840.64,-19.54 2850.61,-23.12 2850.67,-16.12"/>
</g>
<!-- :feature:gt7&#45;ps5&#45;readout&#45;remaining&#45;fuel&#45;laps&#45;detail&#45;&gt;:core:designsystem -->
<g id="edge39" class="edge">
<title>:feature:gt7&#45;ps5&#45;readout&#45;remaining&#45;fuel&#45;laps&#45;detail&#45;&gt;:core:designsystem</title>
<path fill="none" stroke="black" d="M6463.54,-76.89C6434.96,-75.08 6405.59,-73.37 6377.89,-72 5798.79,-43.39 5104.43,-26.88 4839.7,-21.23"/>
<polygon fill="black" stroke="black" points="4839.39,-17.72 4829.32,-21.01 4839.25,-24.72 4839.39,-17.72"/>
</g>
<!-- :app:webApp -->
<g id="node28" class="node">
<title>:app:webApp</title>
<ellipse fill="none" stroke="black" cx="3085.89" cy="-234" rx="70.69" ry="18"/>
<text text-anchor="middle" x="3085.89" y="-230.3" font-family="Times,serif" font-size="14.00">:app:webApp</text>
</g>
<!-- :app:webApp&#45;&gt;:app:shared -->
<g id="edge29" class="edge">
<title>:app:webApp&#45;&gt;:app:shared</title>
<path fill="none" stroke="black" d="M3085.89,-215.7C3085.89,-207.98 3085.89,-198.71 3085.89,-190.11"/>
<polygon fill="black" stroke="black" points="3089.39,-190.1 3085.89,-180.1 3082.39,-190.1 3089.39,-190.1"/>
</g>
<!-- :feature:telemetry&#45;log&#45;list -->
<g id="node30" class="node">
<title>:feature:telemetry&#45;log&#45;list</title>
<ellipse fill="none" stroke="black" cx="2047.89" cy="-90" rx="129.98" ry="18"/>
<text text-anchor="middle" x="2047.89" y="-86.3" font-family="Times,serif" font-size="14.00">:feature:telemetry&#45;log&#45;list</text>
</g>
<!-- :feature:telemetry&#45;log&#45;list&#45;&gt;:core:domain -->
<g id="edge63" class="edge">
<title>:feature:telemetry&#45;log&#45;list&#45;&gt;:core:domain</title>
<path fill="none" stroke="black" d="M2140.18,-77.31C2155.76,-75.45 2171.78,-73.61 2186.89,-72 2368.19,-52.68 2581.69,-34.41 2693.23,-25.21"/>
<polygon fill="black" stroke="black" points="2693.7,-28.68 2703.37,-24.37 2693.12,-21.7 2693.7,-28.68"/>
</g>
</g>
</svg>
