<?xml version="1.0" encoding="UTF-8" standalone="no"?>
<!DOCTYPE svg PUBLIC "-//W3C//DTD SVG 1.1//EN"
 "http://www.w3.org/Graphics/SVG/1.1/DTD/svg11.dtd">
<!-- Generated by graphviz version 2.43.0 (0)
 -->
<!-- Title: G Pages: 1 -->
<svg width="7212pt" height="260pt"
 viewBox="0.00 0.00 7212.28 260.00" xmlns="http://www.w3.org/2000/svg" xmlns:xlink="http://www.w3.org/1999/xlink">
<g id="graph0" class="graph" transform="scale(1 1) rotate(0) translate(4 256)">
<title>G</title>
<polygon fill="white" stroke="transparent" points="-4,4 -4,-256 7208.28,-256 7208.28,4 -4,4"/>
<!-- :server -->
<g id="node1" class="node">
<title>:server</title>
<ellipse fill="none" stroke="black" cx="302.89" cy="-162" rx="43.59" ry="18"/>
<text text-anchor="middle" x="302.89" y="-158.3" font-family="Times,serif" font-size="14.00">:server</text>
</g>
<!-- :core:domain -->
<g id="node2" class="node">
<title>:core:domain</title>
<ellipse fill="none" stroke="black" cx="2585.89" cy="-18" rx="70.69" ry="18"/>
<text text-anchor="middle" x="2585.89" y="-14.3" font-family="Times,serif" font-size="14.00">:core:domain</text>
</g>
<!-- :server&#45;&gt;:core:domain -->
<g id="edge1" class="edge">
<title>:server&#45;&gt;:core:domain</title>
<path fill="none" stroke="black" d="M303.16,-143.91C304.53,-123.09 310.3,-88.63 332.89,-72 377.49,-39.16 2106.71,-22.94 2504.76,-19.64"/>
<polygon fill="black" stroke="black" points="2505.07,-23.14 2515.04,-19.56 2505.01,-16.14 2505.07,-23.14"/>
</g>
<!-- :app:androidApp -->
<g id="node3" class="node">
<title>:app:androidApp</title>
<ellipse fill="none" stroke="black" cx="639.89" cy="-234" rx="87.18" ry="18"/>
<text text-anchor="middle" x="639.89" y="-230.3" font-family="Times,serif" font-size="14.00">:app:androidApp</text>
</g>
<!-- :app:shared -->
<g id="node4" class="node">
<title>:app:shared</title>
<ellipse fill="none" stroke="black" cx="2912.89" cy="-162" rx="65.79" ry="18"/>
<text text-anchor="middle" x="2912.89" y="-158.3" font-family="Times,serif" font-size="14.00">:app:shared</text>
</g>
<!-- :app:androidApp&#45;&gt;:app:shared -->
<g id="edge2" class="edge">
<title>:app:androidApp&#45;&gt;:app:shared</title>
<path fill="none" stroke="black" d="M725.53,-230.36C1088.49,-219.18 2496.79,-175.81 2838.08,-165.3"/>
<polygon fill="black" stroke="black" points="2838.22,-168.8 2848.11,-165 2838,-161.8 2838.22,-168.8"/>
</g>
<!-- :core:data -->
<g id="node5" class="node">
<title>:core:data</title>
<ellipse fill="none" stroke="black" cx="628.89" cy="-162" rx="57.39" ry="18"/>
<text text-anchor="middle" x="628.89" y="-158.3" font-family="Times,serif" font-size="14.00">:core:data</text>
</g>
<!-- :app:androidApp&#45;&gt;:core:data -->
<g id="edge3" class="edge">
<title>:app:androidApp&#45;&gt;:core:data</title>
<path fill="none" stroke="black" d="M637.17,-215.7C635.96,-207.98 634.5,-198.71 633.15,-190.11"/>
<polygon fill="black" stroke="black" points="636.59,-189.44 631.58,-180.1 629.67,-190.53 636.59,-189.44"/>
</g>
<!-- :core:gt7&#45;ps5&#45;data -->
<g id="node6" class="node">
<title>:core:gt7&#45;ps5&#45;data</title>
<ellipse fill="none" stroke="black" cx="458.89" cy="-162" rx="94.78" ry="18"/>
<text text-anchor="middle" x="458.89" y="-158.3" font-family="Times,serif" font-size="14.00">:core:gt7&#45;ps5&#45;data</text>
</g>
<!-- :app:androidApp&#45;&gt;:core:gt7&#45;ps5&#45;data -->
<g id="edge4" class="edge">
<title>:app:androidApp&#45;&gt;:core:gt7&#45;ps5&#45;data</title>
<path fill="none" stroke="black" d="M600.61,-217.81C573.53,-207.33 537.31,-193.33 508.26,-182.09"/>
<polygon fill="black" stroke="black" points="509.3,-178.74 498.71,-178.4 506.78,-185.27 509.3,-178.74"/>
</g>
<!-- :feature:main -->
<g id="node9" class="node">
<title>:feature:main</title>
<ellipse fill="none" stroke="black" cx="1319.89" cy="-90" rx="73.39" ry="18"/>
<text text-anchor="middle" x="1319.89" y="-86.3" font-family="Times,serif" font-size="14.00">:feature:main</text>
</g>
<!-- :app:shared&#45;&gt;:feature:main -->
<g id="edge10" class="edge">
<title>:app:shared&#45;&gt;:feature:main</title>
<path fill="none" stroke="black" d="M2847.42,-160.16C2595.55,-156.69 1688.92,-142.07 1402.89,-108 1396.02,-107.18 1388.87,-106.09 1381.78,-104.85"/>
<polygon fill="black" stroke="black" points="1381.94,-101.32 1371.47,-102.95 1380.67,-108.21 1381.94,-101.32"/>
</g>
<!-- :feature:lmu&#45;windows&#45;connection -->
<g id="node10" class="node">
<title>:feature:lmu&#45;windows&#45;connection</title>
<ellipse fill="none" stroke="black" cx="1575.89" cy="-90" rx="164.37" ry="18"/>
<text text-anchor="middle" x="1575.89" y="-86.3" font-family="Times,serif" font-size="14.00">:feature:lmu&#45;windows&#45;connection</text>
</g>
<!-- :app:shared&#45;&gt;:feature:lmu&#45;windows&#45;connection -->
<g id="edge11" class="edge">
<title>:app:shared&#45;&gt;:feature:lmu&#45;windows&#45;connection</title>
<path fill="none" stroke="black" d="M2847.88,-159.22C2671.26,-154.13 2167.71,-137.91 1749.89,-108 1733.84,-106.85 1716.98,-105.45 1700.34,-103.95"/>
<polygon fill="black" stroke="black" points="1700.28,-100.43 1690.01,-103 1699.64,-107.4 1700.28,-100.43"/>
</g>
<!-- :feature:gt7&#45;ps5&#45;connection -->
<g id="node11" class="node">
<title>:feature:gt7&#45;ps5&#45;connection</title>
<ellipse fill="none" stroke="black" cx="1896.89" cy="-90" rx="138.38" ry="18"/>
<text text-anchor="middle" x="1896.89" y="-86.3" font-family="Times,serif" font-size="14.00">:feature:gt7&#45;ps5&#45;connection</text>
</g>
<!-- :app:shared&#45;&gt;:feature:gt7&#45;ps5&#45;connection -->
<g id="edge12" class="edge">
<title>:app:shared&#45;&gt;:feature:gt7&#45;ps5&#45;connection</title>
<path fill="none" stroke="black" d="M2848.56,-158.25C2704.47,-151.83 2344.93,-134.37 2044.89,-108 2031.62,-106.83 2017.7,-105.45 2003.93,-103.98"/>
<polygon fill="black" stroke="black" points="2004.26,-100.5 1993.94,-102.9 2003.5,-107.45 2004.26,-100.5"/>
</g>
<!-- :feature:server&#45;connection -->
<g id="node12" class="node">
<title>:feature:server&#45;connection</title>
<ellipse fill="none" stroke="black" cx="2186.89" cy="-90" rx="133.48" ry="18"/>
<text text-anchor="middle" x="2186.89" y="-86.3" font-family="Times,serif" font-size="14.00">:feature:server&#45;connection</text>
</g>
<!-- :app:shared&#45;&gt;:feature:server&#45;connection -->
<g id="edge13" class="edge">
<title>:app:shared&#45;&gt;:feature:server&#45;connection</title>
<path fill="none" stroke="black" d="M2851.03,-155.97C2744.36,-147.17 2518.98,-128 2328.89,-108 2316.81,-106.73 2304.16,-105.32 2291.6,-103.88"/>
<polygon fill="black" stroke="black" points="2291.9,-100.39 2281.56,-102.72 2291.09,-107.34 2291.9,-100.39"/>
</g>
<!-- :feature:lmu&#45;windows&#45;narrator -->
<g id="node13" class="node">
<title>:feature:lmu&#45;windows&#45;narrator</title>
<ellipse fill="none" stroke="black" cx="7050.89" cy="-90" rx="153.27" ry="18"/>
<text text-anchor="middle" x="7050.89" y="-86.3" font-family="Times,serif" font-size="14.00">:feature:lmu&#45;windows&#45;narrator</text>
</g>
<!-- :app:shared&#45;&gt;:feature:lmu&#45;windows&#45;narrator -->
<g id="edge14" class="edge">
<title>:app:shared&#45;&gt;:feature:lmu&#45;windows&#45;narrator</title>
<path fill="none" stroke="black" d="M2978.78,-160.94C3431.02,-160.41 6082.21,-155.29 6887.89,-108 6903.65,-107.08 6920.23,-105.75 6936.55,-104.25"/>
<polygon fill="black" stroke="black" points="6937.03,-107.72 6946.66,-103.29 6936.37,-100.75 6937.03,-107.72"/>
</g>
<!-- :feature:gt7&#45;ps5&#45;narrator -->
<g id="node14" class="node">
<title>:feature:gt7&#45;ps5&#45;narrator</title>
<ellipse fill="none" stroke="black" cx="3085.89" cy="-90" rx="127.28" ry="18"/>
<text text-anchor="middle" x="3085.89" y="-86.3" font-family="Times,serif" font-size="14.00">:feature:gt7&#45;ps5&#45;narrator</text>
</g>
<!-- :app:shared&#45;&gt;:feature:gt7&#45;ps5&#45;narrator -->
<g id="edge15" class="edge">
<title>:app:shared&#45;&gt;:feature:gt7&#45;ps5&#45;narrator</title>
<path fill="none" stroke="black" d="M2948.32,-146.67C2973.81,-136.35 3008.51,-122.31 3036.69,-110.91"/>
<polygon fill="black" stroke="black" points="3038.02,-114.15 3045.97,-107.15 3035.39,-107.66 3038.02,-114.15"/>
</g>
<!-- :feature:other&#45;license&#45;detail -->
<g id="node15" class="node">
<title>:feature:other&#45;license&#45;detail</title>
<ellipse fill="none" stroke="black" cx="3370.89" cy="-90" rx="139.98" ry="18"/>
<text text-anchor="middle" x="3370.89" y="-86.3" font-family="Times,serif" font-size="14.00">:feature:other&#45;license&#45;detail</text>
</g>
<!-- :app:shared&#45;&gt;:feature:other&#45;license&#45;detail -->
<g id="edge16" class="edge">
<title>:app:shared&#45;&gt;:feature:other&#45;license&#45;detail</title>
<path fill="none" stroke="black" d="M2969.05,-152.42C3045.1,-140.79 3181.97,-119.87 3274.6,-105.72"/>
<polygon fill="black" stroke="black" points="3275.18,-109.17 3284.54,-104.2 3274.13,-102.25 3275.18,-109.17"/>
</g>
<!-- :feature:other&#45;list -->
<g id="node16" class="node">
<title>:feature:other&#45;list</title>
<ellipse fill="none" stroke="black" cx="2430.89" cy="-90" rx="92.88" ry="18"/>
<text text-anchor="middle" x="2430.89" y="-86.3" font-family="Times,serif" font-size="14.00">:feature:other&#45;list</text>
</g>
<!-- :app:shared&#45;&gt;:feature:other&#45;list -->
<g id="edge17" class="edge">
<title>:app:shared&#45;&gt;:feature:other&#45;list</title>
<path fill="none" stroke="black" d="M2855.04,-153.48C2780.32,-143.64 2646.25,-125.57 2531.89,-108 2524.08,-106.8 2515.94,-105.5 2507.82,-104.18"/>
<polygon fill="black" stroke="black" points="2508.38,-100.73 2497.94,-102.56 2507.24,-107.64 2508.38,-100.73"/>
</g>
<!-- :feature:other&#45;server&#45;ip&#45;detail -->
<g id="node17" class="node">
<title>:feature:other&#45;server&#45;ip&#45;detail</title>
<ellipse fill="none" stroke="black" cx="3677.89" cy="-90" rx="148.67" ry="18"/>
<text text-anchor="middle" x="3677.89" y="-86.3" font-family="Times,serif" font-size="14.00">:feature:other&#45;server&#45;ip&#45;detail</text>
</g>
<!-- :app:shared&#45;&gt;:feature:other&#45;server&#45;ip&#45;detail -->
<g id="edge18" class="edge">
<title>:app:shared&#45;&gt;:feature:other&#45;server&#45;ip&#45;detail</title>
<path fill="none" stroke="black" d="M2974.97,-155.99C3084.88,-147.04 3320.9,-127.39 3519.89,-108 3533.48,-106.68 3547.72,-105.23 3561.85,-103.75"/>
<polygon fill="black" stroke="black" points="3562.53,-107.2 3572.11,-102.68 3561.8,-100.24 3562.53,-107.2"/>
</g>
<!-- :feature:other&#45;console&#45;ip&#45;detail -->
<g id="node18" class="node">
<title>:feature:other&#45;console&#45;ip&#45;detail</title>
<ellipse fill="none" stroke="black" cx="3997.89" cy="-90" rx="153.27" ry="18"/>
<text text-anchor="middle" x="3997.89" y="-86.3" font-family="Times,serif" font-size="14.00">:feature:other&#45;console&#45;ip&#45;detail</text>
</g>
<!-- :app:shared&#45;&gt;:feature:other&#45;console&#45;ip&#45;detail -->
<g id="edge19" class="edge">
<title>:app:shared&#45;&gt;:feature:other&#45;console&#45;ip&#45;detail</title>
<path fill="none" stroke="black" d="M2977.3,-158.35C3127.76,-151.93 3513.93,-134.12 3835.89,-108 3850.32,-106.83 3865.45,-105.45 3880.44,-103.98"/>
<polygon fill="black" stroke="black" points="3881.17,-107.43 3890.77,-102.96 3880.48,-100.46 3881.17,-107.43"/>
</g>
<!-- :feature:other&#45;readout&#45;start&#45;sound&#45;detail -->
<g id="node19" class="node">
<title>:feature:other&#45;readout&#45;start&#45;sound&#45;detail</title>
<ellipse fill="none" stroke="black" cx="2740.89" cy="-90" rx="199.56" ry="18"/>
<text text-anchor="middle" x="2740.89" y="-86.3" font-family="Times,serif" font-size="14.00">:feature:other&#45;readout&#45;start&#45;sound&#45;detail</text>
</g>
<!-- :app:shared&#45;&gt;:feature:other&#45;readout&#45;start&#45;sound&#45;detail -->
<g id="edge20" class="edge">
<title>:app:shared&#45;&gt;:feature:other&#45;readout&#45;start&#45;sound&#45;detail</title>
<path fill="none" stroke="black" d="M2877.67,-146.67C2852.79,-136.54 2819.07,-122.82 2791.34,-111.53"/>
<polygon fill="black" stroke="black" points="2792.39,-108.18 2781.81,-107.65 2789.75,-114.66 2792.39,-108.18"/>
</g>
<!-- :feature:other&#45;volume&#45;detail -->
<g id="node20" class="node">
<title>:feature:other&#45;volume&#45;detail</title>
<ellipse fill="none" stroke="black" cx="4309.89" cy="-90" rx="141.07" ry="18"/>
<text text-anchor="middle" x="4309.89" y="-86.3" font-family="Times,serif" font-size="14.00">:feature:other&#45;volume&#45;detail</text>
</g>
<!-- :app:shared&#45;&gt;:feature:other&#45;volume&#45;detail -->
<g id="edge21" class="edge">
<title>:app:shared&#45;&gt;:feature:other&#45;volume&#45;detail</title>
<path fill="none" stroke="black" d="M2978.23,-159.84C3163.6,-156.21 3708.65,-143.12 4159.89,-108 4173.56,-106.94 4187.9,-105.6 4202.07,-104.14"/>
<polygon fill="black" stroke="black" points="4202.77,-107.59 4212.35,-103.06 4202.04,-100.63 4202.77,-107.59"/>
</g>
<!-- :feature:other&#45;keep&#45;screen&#45;on&#45;detail -->
<g id="node21" class="node">
<title>:feature:other&#45;keep&#45;screen&#45;on&#45;detail</title>
<ellipse fill="none" stroke="black" cx="547.89" cy="-90" rx="176.57" ry="18"/>
<text text-anchor="middle" x="547.89" y="-86.3" font-family="Times,serif" font-size="14.00">:feature:other&#45;keep&#45;screen&#45;on&#45;detail</text>
</g>
<!-- :app:shared&#45;&gt;:feature:other&#45;keep&#45;screen&#45;on&#45;detail -->
<g id="edge22" class="edge">
<title>:app:shared&#45;&gt;:feature:other&#45;keep&#45;screen&#45;on&#45;detail</title>
<path fill="none" stroke="black" d="M2847.31,-161C2582.64,-160.68 1567.37,-156.17 733.89,-108 715.92,-106.96 696.99,-105.57 678.37,-104.04"/>
<polygon fill="black" stroke="black" points="678.62,-100.55 668.37,-103.19 678.04,-107.52 678.62,-100.55"/>
</g>
<!-- :feature:telemetry&#45;log&#45;list -->
<g id="node22" class="node">
<title>:feature:telemetry&#45;log&#45;list</title>
<ellipse fill="none" stroke="black" cx="872.89" cy="-90" rx="129.98" ry="18"/>
<text text-anchor="middle" x="872.89" y="-86.3" font-family="Times,serif" font-size="14.00">:feature:telemetry&#45;log&#45;list</text>
</g>
<!-- :app:shared&#45;&gt;:feature:telemetry&#45;log&#45;list -->
<g id="edge23" class="edge">
<title>:app:shared&#45;&gt;:feature:telemetry&#45;log&#45;list</title>
<path fill="none" stroke="black" d="M2847.11,-161.4C2603.5,-162.4 1729.63,-161.78 1011.89,-108 999.04,-107.04 985.56,-105.74 972.25,-104.3"/>
<polygon fill="black" stroke="black" points="972.45,-100.8 962.12,-103.17 971.67,-107.76 972.45,-100.8"/>
</g>
<!-- :feature:readout&#45;list -->
<g id="node23" class="node">
<title>:feature:readout&#45;list</title>
<ellipse fill="none" stroke="black" cx="1124.89" cy="-90" rx="103.98" ry="18"/>
<text text-anchor="middle" x="1124.89" y="-86.3" font-family="Times,serif" font-size="14.00">:feature:readout&#45;list</text>
</g>
<!-- :app:shared&#45;&gt;:feature:readout&#45;list -->
<g id="edge24" class="edge">
<title>:app:shared&#45;&gt;:feature:readout&#45;list</title>
<path fill="none" stroke="black" d="M2847.31,-159.96C2578.34,-155.52 1558.79,-137.11 1237.89,-108 1227.71,-107.08 1217.05,-105.84 1206.51,-104.44"/>
<polygon fill="black" stroke="black" points="1206.85,-100.96 1196.47,-103.07 1205.9,-107.89 1206.85,-100.96"/>
</g>
<!-- :feature:lmu&#45;windows&#45;readout&#45;vehicle&#45;approach&#45;detail -->
<g id="node24" class="node">
<title>:feature:lmu&#45;windows&#45;readout&#45;vehicle&#45;approach&#45;detail</title>
<ellipse fill="none" stroke="black" cx="4729.89" cy="-90" rx="260.75" ry="18"/>
<text text-anchor="middle" x="4729.89" y="-86.3" font-family="Times,serif" font-size="14.00">:feature:lmu&#45;windows&#45;readout&#45;vehicle&#45;approach&#45;detail</text>
</g>
<!-- :app:shared&#45;&gt;:feature:lmu&#45;windows&#45;readout&#45;vehicle&#45;approach&#45;detail -->
<g id="edge25" class="edge">
<title>:app:shared&#45;&gt;:feature:lmu&#45;windows&#45;readout&#45;vehicle&#45;approach&#45;detail</title>
<path fill="none" stroke="black" d="M2978.14,-159.43C3191.19,-154.17 3885.81,-135.9 4459.89,-108 4485.68,-106.75 4512.85,-105.25 4539.61,-103.67"/>
<polygon fill="black" stroke="black" points="4540.06,-107.14 4549.84,-103.06 4539.65,-100.16 4540.06,-107.14"/>
</g>
<!-- :feature:lmu&#45;windows&#45;readout&#45;flag&#45;detail -->
<g id="node25" class="node">
<title>:feature:lmu&#45;windows&#45;readout&#45;flag&#45;detail</title>
<ellipse fill="none" stroke="black" cx="5207.89" cy="-90" rx="199.56" ry="18"/>
<text text-anchor="middle" x="5207.89" y="-86.3" font-family="Times,serif" font-size="14.00">:feature:lmu&#45;windows&#45;readout&#45;flag&#45;detail</text>
</g>
<!-- :app:shared&#45;&gt;:feature:lmu&#45;windows&#45;readout&#45;flag&#45;detail -->
<g id="edge26" class="edge">
<title>:app:shared&#45;&gt;:feature:lmu&#45;windows&#45;readout&#45;flag&#45;detail</title>
<path fill="none" stroke="black" d="M2978.74,-160.67C3236.85,-159.11 4204.56,-150.57 4999.89,-108 5019.94,-106.93 5041.06,-105.52 5061.85,-103.98"/>
<polygon fill="black" stroke="black" points="5062.31,-107.45 5072.02,-103.21 5061.79,-100.47 5062.31,-107.45"/>
</g>
<!-- :feature:lmu&#45;windows&#45;readout&#45;vehicle&#45;damage&#45;detail -->
<g id="node26" class="node">
<title>:feature:lmu&#45;windows&#45;readout&#45;vehicle&#45;damage&#45;detail</title>
<ellipse fill="none" stroke="black" cx="5679.89" cy="-90" rx="254.55" ry="18"/>
<text text-anchor="middle" x="5679.89" y="-86.3" font-family="Times,serif" font-size="14.00">:feature:lmu&#45;windows&#45;readout&#45;vehicle&#45;damage&#45;detail</text>
</g>
<!-- :app:shared&#45;&gt;:feature:lmu&#45;windows&#45;readout&#45;vehicle&#45;damage&#45;detail -->
<g id="edge27" class="edge">
<title>:app:shared&#45;&gt;:feature:lmu&#45;windows&#45;readout&#45;vehicle&#45;damage&#45;detail</title>
<path fill="none" stroke="black" d="M2978.69,-160.66C3267.09,-158.93 4448.13,-149.54 5416.89,-108 5442.73,-106.89 5469.98,-105.44 5496.76,-103.86"/>
<polygon fill="black" stroke="black" points="5497.23,-107.34 5507,-103.25 5496.81,-100.35 5497.23,-107.34"/>
</g>
<!-- :feature:gt7&#45;ps5&#45;readout&#45;my&#45;bestlap&#45;detail -->
<g id="node27" class="node">
<title>:feature:gt7&#45;ps5&#45;readout&#45;my&#45;bestlap&#45;detail</title>
<ellipse fill="none" stroke="black" cx="6160.89" cy="-90" rx="207.96" ry="18"/>
<text text-anchor="middle" x="6160.89" y="-86.3" font-family="Times,serif" font-size="14.00">:feature:gt7&#45;ps5&#45;readout&#45;my&#45;bestlap&#45;detail</text>
</g>
<!-- :app:shared&#45;&gt;:feature:gt7&#45;ps5&#45;readout&#45;my&#45;bestlap&#45;detail -->
<g id="edge28" class="edge">
<title>:app:shared&#45;&gt;:feature:gt7&#45;ps5&#45;readout&#45;my&#45;bestlap&#45;detail</title>
<path fill="none" stroke="black" d="M2978.52,-161.33C3301.6,-162.63 4755.16,-164.9 5943.89,-108 5965.25,-106.98 5987.77,-105.58 6009.89,-104.01"/>
<polygon fill="black" stroke="black" points="6010.29,-107.49 6020.02,-103.29 6009.79,-100.51 6010.29,-107.49"/>
</g>
<!-- :feature:gt7&#45;ps5&#45;readout&#45;remaining&#45;fuel&#45;laps&#45;detail -->
<g id="node28" class="node">
<title>:feature:gt7&#45;ps5&#45;readout&#45;remaining&#45;fuel&#45;laps&#45;detail</title>
<ellipse fill="none" stroke="black" cx="6632.89" cy="-90" rx="246.16" ry="18"/>
<text text-anchor="middle" x="6632.89" y="-86.3" font-family="Times,serif" font-size="14.00">:feature:gt7&#45;ps5&#45;readout&#45;remaining&#45;fuel&#45;laps&#45;detail</text>
</g>
<!-- :app:shared&#45;&gt;:feature:gt7&#45;ps5&#45;readout&#45;remaining&#45;fuel&#45;laps&#45;detail -->
<g id="edge29" class="edge">
<title>:app:shared&#45;&gt;:feature:gt7&#45;ps5&#45;readout&#45;remaining&#45;fuel&#45;laps&#45;detail</title>
<path fill="none" stroke="black" d="M2978.7,-161.25C3328.67,-162.32 5006.94,-164.15 6377.89,-108 6403.34,-106.96 6430.21,-105.53 6456.56,-103.94"/>
<polygon fill="black" stroke="black" points="6456.87,-107.42 6466.64,-103.32 6456.44,-100.44 6456.87,-107.42"/>
</g>
<!-- :core:data&#45;&gt;:core:domain -->
<g id="edge31" class="edge">
<title>:core:data&#45;&gt;:core:domain</title>
<path fill="none" stroke="black" d="M586.75,-149.65C578.85,-147.66 570.63,-145.69 562.89,-144 470.18,-123.79 295.59,-139.89 361.89,-72 400.06,-32.9 2109.67,-21.51 2504.93,-19.39"/>
<polygon fill="black" stroke="black" points="2505.15,-22.89 2515.13,-19.34 2505.11,-15.89 2505.15,-22.89"/>
</g>
<!-- :core:gt7&#45;ps5&#45;data&#45;&gt;:core:domain -->
<g id="edge32" class="edge">
<title>:core:gt7&#45;ps5&#45;data&#45;&gt;:core:domain</title>
<path fill="none" stroke="black" d="M399.35,-147.84C378.12,-139.97 356.39,-127.53 343.89,-108 335.26,-94.53 332.71,-83.45 343.89,-72 382.4,-32.57 2107.7,-21.42 2504.93,-19.38"/>
<polygon fill="black" stroke="black" points="2505.2,-22.88 2515.18,-19.33 2505.16,-15.88 2505.2,-22.88"/>
</g>
<!-- :app:desktopApp -->
<g id="node7" class="node">
<title>:app:desktopApp</title>
<ellipse fill="none" stroke="black" cx="446.89" cy="-234" rx="88.28" ry="18"/>
<text text-anchor="middle" x="446.89" y="-230.3" font-family="Times,serif" font-size="14.00">:app:desktopApp</text>
</g>
<!-- :app:desktopApp&#45;&gt;:server -->
<g id="edge9" class="edge">
<title>:app:desktopApp&#45;&gt;:server</title>
<path fill="none" stroke="black" d="M414.21,-217.12C391.9,-206.27 362.31,-191.88 339.24,-180.67"/>
<polygon fill="black" stroke="black" points="340.64,-177.46 330.12,-176.24 337.58,-183.76 340.64,-177.46"/>
</g>
<!-- :app:desktopApp&#45;&gt;:app:shared -->
<g id="edge5" class="edge">
<title>:app:desktopApp&#45;&gt;:app:shared</title>
<path fill="none" stroke="black" d="M507.75,-220.89C519.69,-218.92 532.15,-217.15 543.89,-216 1004.42,-170.75 2485.03,-164.1 2837.2,-163.15"/>
<polygon fill="black" stroke="black" points="2837.3,-166.65 2847.29,-163.13 2837.28,-159.65 2837.3,-166.65"/>
</g>
<!-- :app:desktopApp&#45;&gt;:core:data -->
<g id="edge6" class="edge">
<title>:app:desktopApp&#45;&gt;:core:data</title>
<path fill="none" stroke="black" d="M486.38,-217.81C515.34,-206.67 554.68,-191.54 584.69,-180"/>
<polygon fill="black" stroke="black" points="586.01,-183.24 594.08,-176.39 583.49,-176.71 586.01,-183.24"/>
</g>
<!-- :app:desktopApp&#45;&gt;:core:gt7&#45;ps5&#45;data -->
<g id="edge8" class="edge">
<title>:app:desktopApp&#45;&gt;:core:gt7&#45;ps5&#45;data</title>
<path fill="none" stroke="black" d="M449.86,-215.7C451.18,-207.98 452.77,-198.71 454.24,-190.11"/>
<polygon fill="black" stroke="black" points="457.72,-190.55 455.96,-180.1 450.82,-189.37 457.72,-190.55"/>
</g>
<!-- :core:lmu&#45;windows&#45;data -->
<g id="node8" class="node">
<title>:core:lmu&#45;windows&#45;data</title>
<ellipse fill="none" stroke="black" cx="120.89" cy="-162" rx="120.78" ry="18"/>
<text text-anchor="middle" x="120.89" y="-158.3" font-family="Times,serif" font-size="14.00">:core:lmu&#45;windows&#45;data</text>
</g>
<!-- :app:desktopApp&#45;&gt;:core:lmu&#45;windows&#45;data -->
<g id="edge7" class="edge">
<title>:app:desktopApp&#45;&gt;:core:lmu&#45;windows&#45;data</title>
<path fill="none" stroke="black" d="M388.23,-220.4C334.6,-208.89 254.96,-191.79 196.56,-179.25"/>
<polygon fill="black" stroke="black" points="197.15,-175.8 186.64,-177.12 195.68,-182.64 197.15,-175.8"/>
</g>
<!-- :core:lmu&#45;windows&#45;data&#45;&gt;:core:domain -->
<g id="edge33" class="edge">
<title>:core:lmu&#45;windows&#45;data&#45;&gt;:core:domain</title>
<path fill="none" stroke="black" d="M146.67,-144.29C181.42,-122.81 245.96,-86.57 306.89,-72 523.71,-20.14 2124.36,-18.51 2504.89,-18.87"/>
<polygon fill="black" stroke="black" points="2504.98,-22.37 2514.99,-18.88 2504.99,-15.37 2504.98,-22.37"/>
</g>
<!-- :feature:main&#45;&gt;:core:domain -->
<g id="edge50" class="edge">
<title>:feature:main&#45;&gt;:core:domain</title>
<path fill="none" stroke="black" d="M1371.48,-77.13C1381.84,-75.11 1392.67,-73.27 1402.89,-72 1814.79,-20.91 2312.76,-17.44 2504.88,-18.26"/>
<polygon fill="black" stroke="black" points="2504.88,-21.76 2514.89,-18.3 2504.91,-14.76 2504.88,-21.76"/>
</g>
<!-- :feature:lmu&#45;windows&#45;connection&#45;&gt;:core:domain -->
<g id="edge41" class="edge">
<title>:feature:lmu&#45;windows&#45;connection&#45;&gt;:core:domain</title>
<path fill="none" stroke="black" d="M1691.43,-77.15C1710.93,-75.32 1730.98,-73.52 1749.89,-72 2027.88,-49.61 2358.52,-31.03 2506.92,-23.11"/>
<polygon fill="black" stroke="black" points="2507.49,-26.58 2517.29,-22.56 2507.12,-19.59 2507.49,-26.58"/>
</g>
<!-- :feature:gt7&#45;ps5&#45;connection&#45;&gt;:core:domain -->
<g id="edge34" class="edge">
<title>:feature:gt7&#45;ps5&#45;connection&#45;&gt;:core:domain</title>
<path fill="none" stroke="black" d="M1995.98,-77.39C2012.31,-75.54 2029.07,-73.68 2044.89,-72 2210.86,-54.34 2405.72,-35.78 2510.33,-26"/>
<polygon fill="black" stroke="black" points="2510.85,-29.47 2520.48,-25.05 2510.2,-22.5 2510.85,-29.47"/>
</g>
<!-- :feature:server&#45;connection&#45;&gt;:core:domain -->
<g id="edge63" class="edge">
<title>:feature:server&#45;connection&#45;&gt;:core:domain</title>
<path fill="none" stroke="black" d="M2264.77,-75.34C2338.91,-62.33 2449.29,-42.96 2519.41,-30.66"/>
<polygon fill="black" stroke="black" points="2520.21,-34.08 2529.45,-28.9 2519,-27.18 2520.21,-34.08"/>
</g>
<!-- :feature:lmu&#45;windows&#45;narrator&#45;&gt;:core:domain -->
<g id="edge42" class="edge">
<title>:feature:lmu&#45;windows&#45;narrator&#45;&gt;:core:domain</title>
<path fill="none" stroke="black" d="M6947.1,-76.74C6927.46,-74.82 6907.06,-73.12 6887.89,-72 6669.26,-59.28 3239.69,-25.38 2666.76,-19.79"/>
<polygon fill="black" stroke="black" points="2666.56,-16.28 2656.53,-19.69 2666.5,-23.28 2666.56,-16.28"/>
</g>
<!-- :core:designsystem -->
<g id="node30" class="node">
<title>:core:designsystem</title>
<ellipse fill="none" stroke="black" cx="4729.89" cy="-18" rx="100.98" ry="18"/>
<text text-anchor="middle" x="4729.89" y="-14.3" font-family="Times,serif" font-size="14.00">:core:designsystem</text>
</g>
<!-- :feature:lmu&#45;windows&#45;narrator&#45;&gt;:core:designsystem -->
<g id="edge43" class="edge">
<title>:feature:lmu&#45;windows&#45;narrator&#45;&gt;:core:designsystem</title>
<path fill="none" stroke="black" d="M6946.21,-76.84C6926.84,-74.95 6906.77,-73.21 6887.89,-72 6104.93,-21.64 5159.35,-18.2 4840.75,-18.62"/>
<polygon fill="black" stroke="black" points="4840.58,-15.12 4830.59,-18.64 4840.6,-22.12 4840.58,-15.12"/>
</g>
<!-- :feature:gt7&#45;ps5&#45;narrator&#45;&gt;:core:domain -->
<g id="edge35" class="edge">
<title>:feature:gt7&#45;ps5&#45;narrator&#45;&gt;:core:domain</title>
<path fill="none" stroke="black" d="M2998.8,-76.81C2901.67,-63.21 2746.45,-41.48 2656.55,-28.89"/>
<polygon fill="black" stroke="black" points="2656.85,-25.4 2646.46,-27.48 2655.88,-32.33 2656.85,-25.4"/>
</g>
<!-- :feature:gt7&#45;ps5&#45;narrator&#45;&gt;:core:designsystem -->
<g id="edge36" class="edge">
<title>:feature:gt7&#45;ps5&#45;narrator&#45;&gt;:core:designsystem</title>
<path fill="none" stroke="black" d="M3173.56,-76.87C3189.61,-74.99 3206.23,-73.25 3221.89,-72 3743.46,-30.32 4369.11,-21.42 4618.95,-19.52"/>
<polygon fill="black" stroke="black" points="4619.14,-23.01 4629.12,-19.44 4619.09,-16.01 4619.14,-23.01"/>
</g>
<!-- :feature:other&#45;license&#45;detail&#45;&gt;:core:domain -->
<g id="edge54" class="edge">
<title>:feature:other&#45;license&#45;detail&#45;&gt;:core:domain</title>
<path fill="none" stroke="black" d="M3271.95,-77.28C3255.25,-75.43 3238.08,-73.6 3221.89,-72 3020.73,-52.15 2783.29,-33.67 2663.43,-24.7"/>
<polygon fill="black" stroke="black" points="2663.49,-21.19 2653.26,-23.94 2662.97,-28.17 2663.49,-21.19"/>
</g>
<!-- :feature:other&#45;license&#45;detail&#45;&gt;:core:designsystem -->
<g id="edge55" class="edge">
<title>:feature:other&#45;license&#45;detail&#45;&gt;:core:designsystem</title>
<path fill="none" stroke="black" d="M3467.78,-76.95C3485.11,-75.08 3503.02,-73.33 3519.89,-72 3924.9,-40.06 4407.8,-26.14 4620.32,-21.24"/>
<polygon fill="black" stroke="black" points="4620.62,-24.73 4630.54,-21 4620.46,-17.73 4620.62,-24.73"/>
</g>
<!-- :feature:other&#45;list&#45;&gt;:core:domain -->
<g id="edge56" class="edge">
<title>:feature:other&#45;list&#45;&gt;:core:domain</title>
<path fill="none" stroke="black" d="M2465.67,-73.29C2488.68,-62.9 2519,-49.21 2543.43,-38.18"/>
<polygon fill="black" stroke="black" points="2545.14,-41.24 2552.81,-33.94 2542.26,-34.86 2545.14,-41.24"/>
</g>
<!-- :feature:other&#45;server&#45;ip&#45;detail&#45;&gt;:core:domain -->
<g id="edge58" class="edge">
<title>:feature:other&#45;server&#45;ip&#45;detail&#45;&gt;:core:domain</title>
<path fill="none" stroke="black" d="M3573.85,-77.05C3555.87,-75.2 3537.35,-73.43 3519.89,-72 3204.1,-46.07 2827.19,-28.88 2665.72,-22.17"/>
<polygon fill="black" stroke="black" points="2665.53,-18.66 2655.39,-21.74 2665.24,-25.65 2665.53,-18.66"/>
</g>
<!-- :feature:other&#45;server&#45;ip&#45;detail&#45;&gt;:core:designsystem -->
<g id="edge59" class="edge">
<title>:feature:other&#45;server&#45;ip&#45;detail&#45;&gt;:core:designsystem</title>
<path fill="none" stroke="black" d="M3781.93,-77.09C3799.91,-75.24 3818.43,-73.46 3835.89,-72 4119.83,-48.32 4455.37,-31.38 4623.14,-23.67"/>
<polygon fill="black" stroke="black" points="4623.38,-27.16 4633.21,-23.21 4623.06,-20.17 4623.38,-27.16"/>
</g>
<!-- :feature:other&#45;console&#45;ip&#45;detail&#45;&gt;:core:domain -->
<g id="edge51" class="edge">
<title>:feature:other&#45;console&#45;ip&#45;detail&#45;&gt;:core:domain</title>
<path fill="none" stroke="black" d="M3892.1,-76.94C3873.39,-75.08 3854.08,-73.34 3835.89,-72 3394.88,-39.54 2864.76,-25.19 2666.17,-20.67"/>
<polygon fill="black" stroke="black" points="2666.19,-17.17 2656.12,-20.45 2666.03,-24.17 2666.19,-17.17"/>
</g>
<!-- :feature:other&#45;console&#45;ip&#45;detail&#45;&gt;:core:designsystem -->
<g id="edge52" class="edge">
<title>:feature:other&#45;console&#45;ip&#45;detail&#45;&gt;:core:designsystem</title>
<path fill="none" stroke="black" d="M4107.23,-77.35C4124.84,-75.52 4142.86,-73.68 4159.89,-72 4325.5,-55.61 4518.32,-37.99 4631.91,-27.76"/>
<polygon fill="black" stroke="black" points="4632.33,-31.23 4641.98,-26.85 4631.7,-24.26 4632.33,-31.23"/>
</g>
<!-- :feature:other&#45;readout&#45;start&#45;sound&#45;detail&#45;&gt;:core:domain -->
<g id="edge57" class="edge">
<title>:feature:other&#45;readout&#45;start&#45;sound&#45;detail&#45;&gt;:core:domain</title>
<path fill="none" stroke="black" d="M2703.76,-72.23C2681.09,-62 2652.03,-48.87 2628.43,-38.21"/>
<polygon fill="black" stroke="black" points="2629.58,-34.89 2619.02,-33.96 2626.69,-41.27 2629.58,-34.89"/>
</g>
<!-- :feature:other&#45;volume&#45;detail&#45;&gt;:core:domain -->
<g id="edge60" class="edge">
<title>:feature:other&#45;volume&#45;detail&#45;&gt;:core:domain</title>
<path fill="none" stroke="black" d="M4213.17,-76.9C4195.47,-75.01 4177.14,-73.27 4159.89,-72 3588.92,-30.1 2898.97,-21.28 2666.65,-19.46"/>
<polygon fill="black" stroke="black" points="2666.62,-15.96 2656.59,-19.39 2666.57,-22.96 2666.62,-15.96"/>
</g>
<!-- :feature:other&#45;volume&#45;detail&#45;&gt;:core:designsystem -->
<g id="edge61" class="edge">
<title>:feature:other&#45;volume&#45;detail&#45;&gt;:core:designsystem</title>
<path fill="none" stroke="black" d="M4391.87,-75.34C4466.08,-62.97 4574.79,-44.85 4648.75,-32.52"/>
<polygon fill="black" stroke="black" points="4649.66,-35.92 4658.94,-30.82 4648.5,-29.02 4649.66,-35.92"/>
</g>
<!-- :feature:other&#45;keep&#45;screen&#45;on&#45;detail&#45;&gt;:core:domain -->
<g id="edge53" class="edge">
<title>:feature:other&#45;keep&#45;screen&#45;on&#45;detail&#45;&gt;:core:domain</title>
<path fill="none" stroke="black" d="M668.87,-76.84C690.5,-74.98 712.85,-73.26 733.89,-72 1418.29,-30.97 2246.92,-21.52 2505.13,-19.51"/>
<polygon fill="black" stroke="black" points="2505.2,-23.01 2515.17,-19.43 2505.14,-16.01 2505.2,-23.01"/>
</g>
<!-- :feature:telemetry&#45;log&#45;list&#45;&gt;:core:domain -->
<g id="edge64" class="edge">
<title>:feature:telemetry&#45;log&#45;list&#45;&gt;:core:domain</title>
<path fill="none" stroke="black" d="M962.13,-76.91C978.65,-75 995.77,-73.25 1011.89,-72 1582.67,-27.57 2272.74,-20.36 2505.11,-19.21"/>
<polygon fill="black" stroke="black" points="2505.19,-22.71 2515.17,-19.17 2505.15,-15.71 2505.19,-22.71"/>
</g>
<!-- :feature:readout&#45;list&#45;&gt;:core:domain -->
<g id="edge62" class="edge">
<title>:feature:readout&#45;list&#45;&gt;:core:domain</title>
<path fill="none" stroke="black" d="M1196.78,-76.97C1210.4,-75.04 1224.56,-73.26 1237.89,-72 1716.78,-26.7 2294.92,-19.97 2504.81,-19.08"/>
<polygon fill="black" stroke="black" points="2504.83,-22.58 2514.82,-19.04 2504.81,-15.58 2504.83,-22.58"/>
</g>
<!-- :feature:lmu&#45;windows&#45;readout&#45;vehicle&#45;approach&#45;detail&#45;&gt;:core:domain -->
<g id="edge46" class="edge">
<title>:feature:lmu&#45;windows&#45;readout&#45;vehicle&#45;approach&#45;detail&#45;&gt;:core:domain</title>
<path fill="none" stroke="black" d="M4551.3,-76.88C4520.81,-75.06 4489.45,-73.35 4459.89,-72 3766.05,-40.35 2926.77,-24.64 2666.66,-20.29"/>
<polygon fill="black" stroke="black" points="2666.6,-16.78 2656.55,-20.12 2666.49,-23.78 2666.6,-16.78"/>
</g>
<!-- :feature:lmu&#45;windows&#45;readout&#45;vehicle&#45;approach&#45;detail&#45;&gt;:core:designsystem -->
<g id="edge47" class="edge">
<title>:feature:lmu&#45;windows&#45;readout&#45;vehicle&#45;approach&#45;detail&#45;&gt;:core:designsystem</title>
<path fill="none" stroke="black" d="M4729.89,-71.7C4729.89,-63.98 4729.89,-54.71 4729.89,-46.11"/>
<polygon fill="black" stroke="black" points="4733.39,-46.1 4729.89,-36.1 4726.39,-46.1 4733.39,-46.1"/>
</g>
<!-- :feature:lmu&#45;windows&#45;readout&#45;flag&#45;detail&#45;&gt;:core:domain -->
<g id="edge44" class="edge">
<title>:feature:lmu&#45;windows&#45;readout&#45;flag&#45;detail&#45;&gt;:core:domain</title>
<path fill="none" stroke="black" d="M5072.58,-76.77C5048.39,-74.91 5023.41,-73.22 4999.89,-72 4085.09,-24.62 2973.15,-19.51 2667.15,-19.03"/>
<polygon fill="black" stroke="black" points="2667.04,-15.53 2657.04,-19.01 2667.03,-22.53 2667.04,-15.53"/>
</g>
<!-- :feature:lmu&#45;windows&#45;readout&#45;flag&#45;detail&#45;&gt;:core:designsystem -->
<g id="edge45" class="edge">
<title>:feature:lmu&#45;windows&#45;readout&#45;flag&#45;detail&#45;&gt;:core:designsystem</title>
<path fill="none" stroke="black" d="M5107.98,-74.37C5021.28,-61.67 4897.12,-43.49 4815.05,-31.47"/>
<polygon fill="black" stroke="black" points="4815.41,-27.99 4805.01,-30 4814.4,-34.91 4815.41,-27.99"/>
</g>
<!-- :feature:lmu&#45;windows&#45;readout&#45;vehicle&#45;damage&#45;detail&#45;&gt;:core:domain -->
<g id="edge48" class="edge">
<title>:feature:lmu&#45;windows&#45;readout&#45;vehicle&#45;damage&#45;detail&#45;&gt;:core:domain</title>
<path fill="none" stroke="black" d="M5507.36,-76.71C5477.21,-74.89 5446.15,-73.22 5416.89,-72 4328.9,-26.68 3004.08,-20.11 2666.92,-19.16"/>
<polygon fill="black" stroke="black" points="2666.77,-15.66 2656.76,-19.13 2666.75,-22.66 2666.77,-15.66"/>
</g>
<!-- :feature:lmu&#45;windows&#45;readout&#45;vehicle&#45;damage&#45;detail&#45;&gt;:core:designsystem -->
<g id="edge49" class="edge">
<title>:feature:lmu&#45;windows&#45;readout&#45;vehicle&#45;damage&#45;detail&#45;&gt;:core:designsystem</title>
<path fill="none" stroke="black" d="M5510.6,-76.53C5313.22,-61.98 4993.4,-38.42 4831.18,-26.46"/>
<polygon fill="black" stroke="black" points="4831.44,-22.97 4821.21,-25.73 4830.92,-29.95 4831.44,-22.97"/>
</g>
<!-- :feature:gt7&#45;ps5&#45;readout&#45;my&#45;bestlap&#45;detail&#45;&gt;:core:domain -->
<g id="edge37" class="edge">
<title>:feature:gt7&#45;ps5&#45;readout&#45;my&#45;bestlap&#45;detail&#45;&gt;:core:domain</title>
<path fill="none" stroke="black" d="M6020.31,-76.7C5994.89,-74.84 5968.61,-73.16 5943.89,-72 5276.64,-40.63 3113.68,-22.96 2667.03,-19.59"/>
<polygon fill="black" stroke="black" points="2666.83,-16.09 2656.8,-19.52 2666.78,-23.09 2666.83,-16.09"/>
</g>
<!-- :feature:gt7&#45;ps5&#45;readout&#45;my&#45;bestlap&#45;detail&#45;&gt;:core:designsystem -->
<g id="edge38" class="edge">
<title>:feature:gt7&#45;ps5&#45;readout&#45;my&#45;bestlap&#45;detail&#45;&gt;:core:designsystem</title>
<path fill="none" stroke="black" d="M6016.78,-77.01C5992.46,-75.19 5967.46,-73.44 5943.89,-72 5536.26,-47.14 5050.95,-29.57 4838.52,-22.48"/>
<polygon fill="black" stroke="black" points="4838.41,-18.98 4828.3,-22.14 4838.18,-25.97 4838.41,-18.98"/>
</g>
<!-- :feature:gt7&#45;ps5&#45;readout&#45;remaining&#45;fuel&#45;laps&#45;detail&#45;&gt;:core:domain -->
<g id="edge39" class="edge">
<title>:feature:gt7&#45;ps5&#45;readout&#45;remaining&#45;fuel&#45;laps&#45;detail&#45;&gt;:core:domain</title>
<path fill="none" stroke="black" d="M6466.98,-76.67C6437.33,-74.83 6406.71,-73.16 6377.89,-72 5618.72,-41.41 3146.29,-22.9 2666.84,-19.55"/>
<polygon fill="black" stroke="black" points="2666.58,-16.05 2656.55,-19.48 2666.53,-23.05 2666.58,-16.05"/>
</g>
<!-- :feature:gt7&#45;ps5&#45;readout&#45;remaining&#45;fuel&#45;laps&#45;detail&#45;&gt;:core:designsystem -->
<g id="edge40" class="edge">
<title>:feature:gt7&#45;ps5&#45;readout&#45;remaining&#45;fuel&#45;laps&#45;detail&#45;&gt;:core:designsystem</title>
<path fill="none" stroke="black" d="M6463.54,-76.89C6434.96,-75.08 6405.59,-73.37 6377.89,-72 5798.79,-43.39 5104.43,-26.88 4839.7,-21.23"/>
<polygon fill="black" stroke="black" points="4839.39,-17.72 4829.32,-21.01 4839.25,-24.72 4839.39,-17.72"/>
</g>
<!-- :app:webApp -->
<g id="node29" class="node">
<title>:app:webApp</title>
<ellipse fill="none" stroke="black" cx="2912.89" cy="-234" rx="70.69" ry="18"/>
<text text-anchor="middle" x="2912.89" y="-230.3" font-family="Times,serif" font-size="14.00">:app:webApp</text>
</g>
<!-- :app:webApp&#45;&gt;:app:shared -->
<g id="edge30" class="edge">
<title>:app:webApp&#45;&gt;:app:shared</title>
<path fill="none" stroke="black" d="M2912.89,-215.7C2912.89,-207.98 2912.89,-198.71 2912.89,-190.11"/>
<polygon fill="black" stroke="black" points="2916.39,-190.1 2912.89,-180.1 2909.39,-190.1 2916.39,-190.1"/>
</g>
</g>
</svg>
