<?xml version="1.0" encoding="UTF-8" standalone="no"?>
<!DOCTYPE svg PUBLIC "-//W3C//DTD SVG 1.1//EN"
 "http://www.w3.org/Graphics/SVG/1.1/DTD/svg11.dtd">
<!-- Generated by graphviz version 2.43.0 (0)
 -->
<!-- Title: G Pages: 1 -->
<svg width="1347pt" height="260pt"
 viewBox="0.00 0.00 1347.08 260.00" xmlns="http://www.w3.org/2000/svg" xmlns:xlink="http://www.w3.org/1999/xlink">
<g id="graph0" class="graph" transform="scale(1 1) rotate(0) translate(4 256)">
<title>G</title>
<polygon fill="white" stroke="transparent" points="-4,4 -4,-256 1343.08,-256 1343.08,4 -4,4"/>
<!-- :server -->
<g id="node1" class="node">
<title>:server</title>
<ellipse fill="none" stroke="black" cx="627.69" cy="-90" rx="43.59" ry="18"/>
<text text-anchor="middle" x="627.69" y="-86.3" font-family="Times,serif" font-size="14.00">:server</text>
</g>
<!-- :core:domain -->
<g id="node2" class="node">
<title>:core:domain</title>
<ellipse fill="none" stroke="black" cx="854.69" cy="-18" rx="70.69" ry="18"/>
<text text-anchor="middle" x="854.69" y="-14.3" font-family="Times,serif" font-size="14.00">:core:domain</text>
</g>
<!-- :server&#45;&gt;:core:domain -->
<g id="edge1" class="edge">
<title>:server&#45;&gt;:core:domain</title>
<path fill="none" stroke="black" d="M661.02,-78.22C667.54,-76.14 674.32,-73.99 680.69,-72 720.87,-59.43 766.4,-45.58 800.8,-35.19"/>
<polygon fill="black" stroke="black" points="802.09,-38.46 810.65,-32.22 800.07,-31.76 802.09,-38.46"/>
</g>
<!-- :app:androidApp -->
<g id="node3" class="node">
<title>:app:androidApp</title>
<ellipse fill="none" stroke="black" cx="1057.69" cy="-234" rx="87.18" ry="18"/>
<text text-anchor="middle" x="1057.69" y="-230.3" font-family="Times,serif" font-size="14.00">:app:androidApp</text>
</g>
<!-- :app:shared -->
<g id="node4" class="node">
<title>:app:shared</title>
<ellipse fill="none" stroke="black" cx="891.69" cy="-162" rx="65.79" ry="18"/>
<text text-anchor="middle" x="891.69" y="-158.3" font-family="Times,serif" font-size="14.00">:app:shared</text>
</g>
<!-- :app:androidApp&#45;&gt;:app:shared -->
<g id="edge2" class="edge">
<title>:app:androidApp&#45;&gt;:app:shared</title>
<path fill="none" stroke="black" d="M1021.26,-217.64C996.01,-206.99 962.27,-192.76 935.54,-181.49"/>
<polygon fill="black" stroke="black" points="936.62,-178.15 926.05,-177.49 933.9,-184.6 936.62,-178.15"/>
</g>
<!-- :core:data -->
<g id="node5" class="node">
<title>:core:data</title>
<ellipse fill="none" stroke="black" cx="1207.69" cy="-162" rx="57.39" ry="18"/>
<text text-anchor="middle" x="1207.69" y="-158.3" font-family="Times,serif" font-size="14.00">:core:data</text>
</g>
<!-- :app:androidApp&#45;&gt;:core:data -->
<g id="edge3" class="edge">
<title>:app:androidApp&#45;&gt;:core:data</title>
<path fill="none" stroke="black" d="M1091.35,-217.29C1114.07,-206.69 1144.16,-192.65 1168.04,-181.5"/>
<polygon fill="black" stroke="black" points="1169.61,-184.63 1177.19,-177.23 1166.65,-178.29 1169.61,-184.63"/>
</g>
<!-- :feature:narrator -->
<g id="node7" class="node">
<title>:feature:narrator</title>
<ellipse fill="none" stroke="black" cx="1137.69" cy="-90" rx="89.08" ry="18"/>
<text text-anchor="middle" x="1137.69" y="-86.3" font-family="Times,serif" font-size="14.00">:feature:narrator</text>
</g>
<!-- :app:shared&#45;&gt;:feature:narrator -->
<g id="edge7" class="edge">
<title>:app:shared&#45;&gt;:feature:narrator</title>
<path fill="none" stroke="black" d="M935.38,-148.57C975.17,-137.24 1034.27,-120.43 1078.33,-107.89"/>
<polygon fill="black" stroke="black" points="1079.39,-111.23 1088.05,-105.12 1077.47,-104.49 1079.39,-111.23"/>
</g>
<!-- :feature:other -->
<g id="node8" class="node">
<title>:feature:other</title>
<ellipse fill="none" stroke="black" cx="764.69" cy="-90" rx="75.29" ry="18"/>
<text text-anchor="middle" x="764.69" y="-86.3" font-family="Times,serif" font-size="14.00">:feature:other</text>
</g>
<!-- :app:shared&#45;&gt;:feature:other -->
<g id="edge8" class="edge">
<title>:app:shared&#45;&gt;:feature:other</title>
<path fill="none" stroke="black" d="M863.81,-145.64C845.79,-135.7 822.09,-122.64 802.39,-111.78"/>
<polygon fill="black" stroke="black" points="803.82,-108.57 793.37,-106.81 800.44,-114.7 803.82,-108.57"/>
</g>
<!-- :feature:readout -->
<g id="node9" class="node">
<title>:feature:readout</title>
<ellipse fill="none" stroke="black" cx="944.69" cy="-90" rx="86.38" ry="18"/>
<text text-anchor="middle" x="944.69" y="-86.3" font-family="Times,serif" font-size="14.00">:feature:readout</text>
</g>
<!-- :app:shared&#45;&gt;:feature:readout -->
<g id="edge9" class="edge">
<title>:app:shared&#45;&gt;:feature:readout</title>
<path fill="none" stroke="black" d="M904.51,-144.05C910.8,-135.75 918.5,-125.58 925.47,-116.38"/>
<polygon fill="black" stroke="black" points="928.36,-118.36 931.61,-108.28 922.78,-114.14 928.36,-118.36"/>
</g>
<!-- :feature:readout&#45;vehicle&#45;approach -->
<g id="node10" class="node">
<title>:feature:readout&#45;vehicle&#45;approach</title>
<ellipse fill="none" stroke="black" cx="167.69" cy="-90" rx="167.87" ry="18"/>
<text text-anchor="middle" x="167.69" y="-86.3" font-family="Times,serif" font-size="14.00">:feature:readout&#45;vehicle&#45;approach</text>
</g>
<!-- :app:shared&#45;&gt;:feature:readout&#45;vehicle&#45;approach -->
<g id="edge10" class="edge">
<title>:app:shared&#45;&gt;:feature:readout&#45;vehicle&#45;approach</title>
<path fill="none" stroke="black" d="M830.89,-155.12C713.98,-143.82 455.48,-118.83 297.96,-103.6"/>
<polygon fill="black" stroke="black" points="298.03,-100.09 287.74,-102.61 297.35,-107.05 298.03,-100.09"/>
</g>
<!-- :feature:readout&#45;flag -->
<g id="node11" class="node">
<title>:feature:readout&#45;flag</title>
<ellipse fill="none" stroke="black" cx="459.69" cy="-90" rx="106.68" ry="18"/>
<text text-anchor="middle" x="459.69" y="-86.3" font-family="Times,serif" font-size="14.00">:feature:readout&#45;flag</text>
</g>
<!-- :app:shared&#45;&gt;:feature:readout&#45;flag -->
<g id="edge11" class="edge">
<title>:app:shared&#45;&gt;:feature:readout&#45;flag</title>
<path fill="none" stroke="black" d="M836.53,-152.06C762.47,-140.06 630.2,-118.63 543.71,-104.61"/>
<polygon fill="black" stroke="black" points="544.08,-101.13 533.65,-102.99 542.97,-108.04 544.08,-101.13"/>
</g>
<!-- :core:data&#45;&gt;:core:domain -->
<g id="edge13" class="edge">
<title>:core:data&#45;&gt;:core:domain</title>
<path fill="none" stroke="black" d="M1221.42,-144.3C1235.7,-124.82 1253.66,-92.65 1235.69,-72 1197.64,-28.29 1036.09,-19.49 935.97,-18.35"/>
<polygon fill="black" stroke="black" points="935.91,-14.85 925.88,-18.26 935.84,-21.85 935.91,-14.85"/>
</g>
<!-- :app:desktopApp -->
<g id="node6" class="node">
<title>:app:desktopApp</title>
<ellipse fill="none" stroke="black" cx="1250.69" cy="-234" rx="88.28" ry="18"/>
<text text-anchor="middle" x="1250.69" y="-230.3" font-family="Times,serif" font-size="14.00">:app:desktopApp</text>
</g>
<!-- :app:desktopApp&#45;&gt;:core:domain -->
<g id="edge6" class="edge">
<title>:app:desktopApp&#45;&gt;:core:domain</title>
<path fill="none" stroke="black" d="M1260.23,-215.93C1265.33,-205.82 1271.08,-192.57 1273.69,-180 1283.63,-132.12 1289.78,-103.86 1252.69,-72 1206.5,-32.33 1038.03,-22.12 935.67,-19.64"/>
<polygon fill="black" stroke="black" points="935.74,-16.14 925.67,-19.41 935.59,-23.14 935.74,-16.14"/>
</g>
<!-- :app:desktopApp&#45;&gt;:app:shared -->
<g id="edge4" class="edge">
<title>:app:desktopApp&#45;&gt;:app:shared</title>
<path fill="none" stroke="black" d="M1188.97,-220.97C1123.09,-208.12 1019.3,-187.88 953.42,-175.04"/>
<polygon fill="black" stroke="black" points="954.06,-171.6 943.58,-173.12 952.72,-178.47 954.06,-171.6"/>
</g>
<!-- :app:desktopApp&#45;&gt;:core:data -->
<g id="edge5" class="edge">
<title>:app:desktopApp&#45;&gt;:core:data</title>
<path fill="none" stroke="black" d="M1240.28,-216.05C1235.21,-207.8 1229,-197.7 1223.37,-188.54"/>
<polygon fill="black" stroke="black" points="1226.21,-186.48 1218,-179.79 1220.25,-190.14 1226.21,-186.48"/>
</g>
<!-- :feature:narrator&#45;&gt;:core:domain -->
<g id="edge14" class="edge">
<title>:feature:narrator&#45;&gt;:core:domain</title>
<path fill="none" stroke="black" d="M1083.79,-75.67C1035.08,-63.62 963.53,-45.92 913.38,-33.52"/>
<polygon fill="black" stroke="black" points="914.2,-30.12 903.65,-31.11 912.52,-36.91 914.2,-30.12"/>
</g>
<!-- :feature:other&#45;&gt;:core:domain -->
<g id="edge15" class="edge">
<title>:feature:other&#45;&gt;:core:domain</title>
<path fill="none" stroke="black" d="M786.01,-72.41C797.87,-63.19 812.79,-51.59 825.69,-41.55"/>
<polygon fill="black" stroke="black" points="828.08,-44.13 833.82,-35.23 823.78,-38.61 828.08,-44.13"/>
</g>
<!-- :feature:readout&#45;&gt;:core:domain -->
<g id="edge16" class="edge">
<title>:feature:readout&#45;&gt;:core:domain</title>
<path fill="none" stroke="black" d="M923.36,-72.41C911.5,-63.19 896.58,-51.59 883.68,-41.55"/>
<polygon fill="black" stroke="black" points="885.59,-38.61 875.55,-35.23 881.3,-44.13 885.59,-38.61"/>
</g>
<!-- :feature:readout&#45;vehicle&#45;approach&#45;&gt;:core:domain -->
<g id="edge19" class="edge">
<title>:feature:readout&#45;vehicle&#45;approach&#45;&gt;:core:domain</title>
<path fill="none" stroke="black" d="M284.61,-77.09C426.23,-62.66 660.58,-38.78 779.9,-26.62"/>
<polygon fill="black" stroke="black" points="780.44,-30.08 790.03,-25.59 779.73,-23.12 780.44,-30.08"/>
</g>
<!-- :core:designsystem -->
<g id="node13" class="node">
<title>:core:designsystem</title>
<ellipse fill="none" stroke="black" cx="313.69" cy="-18" rx="100.98" ry="18"/>
<text text-anchor="middle" x="313.69" y="-14.3" font-family="Times,serif" font-size="14.00">:core:designsystem</text>
</g>
<!-- :feature:readout&#45;vehicle&#45;approach&#45;&gt;:core:designsystem -->
<g id="edge20" class="edge">
<title>:feature:readout&#45;vehicle&#45;approach&#45;&gt;:core:designsystem</title>
<path fill="none" stroke="black" d="M202.66,-72.23C223.25,-62.36 249.45,-49.8 271.22,-39.36"/>
<polygon fill="black" stroke="black" points="272.75,-42.51 280.25,-35.03 269.72,-36.2 272.75,-42.51"/>
</g>
<!-- :feature:readout&#45;flag&#45;&gt;:core:domain -->
<g id="edge17" class="edge">
<title>:feature:readout&#45;flag&#45;&gt;:core:domain</title>
<path fill="none" stroke="black" d="M530.3,-76.49C603.38,-63.54 716.64,-43.46 788.17,-30.79"/>
<polygon fill="black" stroke="black" points="789.17,-34.16 798.41,-28.97 787.95,-27.27 789.17,-34.16"/>
</g>
<!-- :feature:readout&#45;flag&#45;&gt;:core:designsystem -->
<g id="edge18" class="edge">
<title>:feature:readout&#45;flag&#45;&gt;:core:designsystem</title>
<path fill="none" stroke="black" d="M425.82,-72.76C405.11,-62.83 378.43,-50.04 356.29,-39.43"/>
<polygon fill="black" stroke="black" points="357.64,-36.19 347.11,-35.03 354.62,-42.51 357.64,-36.19"/>
</g>
<!-- :app:webApp -->
<g id="node12" class="node">
<title>:app:webApp</title>
<ellipse fill="none" stroke="black" cx="881.69" cy="-234" rx="70.69" ry="18"/>
<text text-anchor="middle" x="881.69" y="-230.3" font-family="Times,serif" font-size="14.00">:app:webApp</text>
</g>
<!-- :app:webApp&#45;&gt;:app:shared -->
<g id="edge12" class="edge">
<title>:app:webApp&#45;&gt;:app:shared</title>
<path fill="none" stroke="black" d="M884.16,-215.7C885.26,-207.98 886.58,-198.71 887.81,-190.11"/>
<polygon fill="black" stroke="black" points="891.29,-190.5 889.24,-180.1 884.36,-189.51 891.29,-190.5"/>
</g>
</g>
</svg>
