<?xml version="1.0" encoding="UTF-8" standalone="no"?>
<!DOCTYPE svg PUBLIC "-//W3C//DTD SVG 1.1//EN"
 "http://www.w3.org/Graphics/SVG/1.1/DTD/svg11.dtd">
<!-- Generated by graphviz version 2.43.0 (0)
 -->
<!-- Title: G Pages: 1 -->
<svg width="1017pt" height="260pt"
 viewBox="0.00 0.00 1016.74 260.00" xmlns="http://www.w3.org/2000/svg" xmlns:xlink="http://www.w3.org/1999/xlink">
<g id="graph0" class="graph" transform="scale(1 1) rotate(0) translate(4 256)">
<title>G</title>
<polygon fill="white" stroke="transparent" points="-4,4 -4,-256 1012.74,-256 1012.74,4 -4,4"/>
<!-- :server -->
<g id="node1" class="node">
<title>:server</title>
<ellipse fill="none" stroke="black" cx="43.55" cy="-90" rx="43.59" ry="18"/>
<text text-anchor="middle" x="43.55" y="-86.3" font-family="Times,serif" font-size="14.00">:server</text>
</g>
<!-- :core:domain -->
<g id="node2" class="node">
<title>:core:domain</title>
<ellipse fill="none" stroke="black" cx="398.55" cy="-18" rx="70.69" ry="18"/>
<text text-anchor="middle" x="398.55" y="-14.3" font-family="Times,serif" font-size="14.00">:core:domain</text>
</g>
<!-- :server&#45;&gt;:core:domain -->
<g id="edge1" class="edge">
<title>:server&#45;&gt;:core:domain</title>
<path fill="none" stroke="black" d="M77.12,-78.49C85.08,-76.18 93.58,-73.87 101.55,-72 178.54,-53.9 268.05,-38.71 328.51,-29.3"/>
<polygon fill="black" stroke="black" points="329.36,-32.71 338.71,-27.72 328.29,-25.79 329.36,-32.71"/>
</g>
<!-- :app:androidApp -->
<g id="node3" class="node">
<title>:app:androidApp</title>
<ellipse fill="none" stroke="black" cx="169.55" cy="-234" rx="87.18" ry="18"/>
<text text-anchor="middle" x="169.55" y="-230.3" font-family="Times,serif" font-size="14.00">:app:androidApp</text>
</g>
<!-- :app:androidApp&#45;&gt;:core:domain -->
<g id="edge3" class="edge">
<title>:app:androidApp&#45;&gt;:core:domain</title>
<path fill="none" stroke="black" d="M157.55,-215.81C136.83,-183.8 99.74,-114.48 134.55,-72 157.73,-43.69 251.29,-30.19 320.48,-23.97"/>
<polygon fill="black" stroke="black" points="320.83,-27.45 330.5,-23.1 320.23,-20.47 320.83,-27.45"/>
</g>
<!-- :app:shared -->
<g id="node4" class="node">
<title>:app:shared</title>
<ellipse fill="none" stroke="black" cx="398.55" cy="-162" rx="65.79" ry="18"/>
<text text-anchor="middle" x="398.55" y="-158.3" font-family="Times,serif" font-size="14.00">:app:shared</text>
</g>
<!-- :app:androidApp&#45;&gt;:app:shared -->
<g id="edge2" class="edge">
<title>:app:androidApp&#45;&gt;:app:shared</title>
<path fill="none" stroke="black" d="M216.16,-218.75C254.02,-207.18 307.37,-190.87 346.59,-178.88"/>
<polygon fill="black" stroke="black" points="347.7,-182.2 356.24,-175.93 345.65,-175.51 347.7,-182.2"/>
</g>
<!-- :feature:other -->
<g id="node6" class="node">
<title>:feature:other</title>
<ellipse fill="none" stroke="black" cx="218.55" cy="-90" rx="75.29" ry="18"/>
<text text-anchor="middle" x="218.55" y="-86.3" font-family="Times,serif" font-size="14.00">:feature:other</text>
</g>
<!-- :app:shared&#45;&gt;:feature:other -->
<g id="edge6" class="edge">
<title>:app:shared&#45;&gt;:feature:other</title>
<path fill="none" stroke="black" d="M362.12,-146.83C334.31,-136.02 295.77,-121.03 265.63,-109.31"/>
<polygon fill="black" stroke="black" points="266.75,-105.99 256.16,-105.63 264.21,-112.51 266.75,-105.99"/>
</g>
<!-- :feature:readout -->
<g id="node7" class="node">
<title>:feature:readout</title>
<ellipse fill="none" stroke="black" cx="398.55" cy="-90" rx="86.38" ry="18"/>
<text text-anchor="middle" x="398.55" y="-86.3" font-family="Times,serif" font-size="14.00">:feature:readout</text>
</g>
<!-- :app:shared&#45;&gt;:feature:readout -->
<g id="edge7" class="edge">
<title>:app:shared&#45;&gt;:feature:readout</title>
<path fill="none" stroke="black" d="M398.55,-143.7C398.55,-135.98 398.55,-126.71 398.55,-118.11"/>
<polygon fill="black" stroke="black" points="402.05,-118.1 398.55,-108.1 395.05,-118.1 402.05,-118.1"/>
</g>
<!-- :feature:readout&#45;vehicle&#45;approach -->
<g id="node8" class="node">
<title>:feature:readout&#45;vehicle&#45;approach</title>
<ellipse fill="none" stroke="black" cx="670.55" cy="-90" rx="167.87" ry="18"/>
<text text-anchor="middle" x="670.55" y="-86.3" font-family="Times,serif" font-size="14.00">:feature:readout&#45;vehicle&#45;approach</text>
</g>
<!-- :app:shared&#45;&gt;:feature:readout&#45;vehicle&#45;approach -->
<g id="edge8" class="edge">
<title>:app:shared&#45;&gt;:feature:readout&#45;vehicle&#45;approach</title>
<path fill="none" stroke="black" d="M444.69,-149.13C487.01,-138.23 550.36,-121.93 599.2,-109.36"/>
<polygon fill="black" stroke="black" points="600.27,-112.7 609.08,-106.82 598.52,-105.92 600.27,-112.7"/>
</g>
<!-- :app:desktopApp -->
<g id="node5" class="node">
<title>:app:desktopApp</title>
<ellipse fill="none" stroke="black" cx="721.55" cy="-234" rx="88.28" ry="18"/>
<text text-anchor="middle" x="721.55" y="-230.3" font-family="Times,serif" font-size="14.00">:app:desktopApp</text>
</g>
<!-- :app:desktopApp&#45;&gt;:core:domain -->
<g id="edge5" class="edge">
<title>:app:desktopApp&#45;&gt;:core:domain</title>
<path fill="none" stroke="black" d="M750.5,-216.93C800.28,-187.35 892.59,-122.67 847.55,-72 823.45,-44.9 600.16,-29.3 477.82,-22.73"/>
<polygon fill="black" stroke="black" points="477.92,-19.23 467.75,-22.2 477.55,-26.22 477.92,-19.23"/>
</g>
<!-- :app:desktopApp&#45;&gt;:app:shared -->
<g id="edge4" class="edge">
<title>:app:desktopApp&#45;&gt;:app:shared</title>
<path fill="none" stroke="black" d="M663.43,-220.4C605.39,-207.83 516.64,-188.59 458.1,-175.91"/>
<polygon fill="black" stroke="black" points="458.77,-172.47 448.26,-173.77 457.29,-179.31 458.77,-172.47"/>
</g>
<!-- :feature:other&#45;&gt;:core:domain -->
<g id="edge11" class="edge">
<title>:feature:other&#45;&gt;:core:domain</title>
<path fill="none" stroke="black" d="M256.28,-74.33C284.19,-63.47 322.35,-48.63 352.13,-37.05"/>
<polygon fill="black" stroke="black" points="353.43,-40.3 361.48,-33.42 350.89,-33.78 353.43,-40.3"/>
</g>
<!-- :feature:readout&#45;&gt;:core:domain -->
<g id="edge12" class="edge">
<title>:feature:readout&#45;&gt;:core:domain</title>
<path fill="none" stroke="black" d="M398.55,-71.7C398.55,-63.98 398.55,-54.71 398.55,-46.11"/>
<polygon fill="black" stroke="black" points="402.05,-46.1 398.55,-36.1 395.05,-46.1 402.05,-46.1"/>
</g>
<!-- :feature:readout&#45;vehicle&#45;approach&#45;&gt;:core:domain -->
<g id="edge13" class="edge">
<title>:feature:readout&#45;vehicle&#45;approach&#45;&gt;:core:domain</title>
<path fill="none" stroke="black" d="M609.16,-73.2C563.42,-61.43 501.37,-45.46 456.48,-33.91"/>
<polygon fill="black" stroke="black" points="457.16,-30.47 446.61,-31.37 455.42,-37.25 457.16,-30.47"/>
</g>
<!-- :app:webApp -->
<g id="node9" class="node">
<title>:app:webApp</title>
<ellipse fill="none" stroke="black" cx="398.55" cy="-234" rx="70.69" ry="18"/>
<text text-anchor="middle" x="398.55" y="-230.3" font-family="Times,serif" font-size="14.00">:app:webApp</text>
</g>
<!-- :app:webApp&#45;&gt;:app:shared -->
<g id="edge9" class="edge">
<title>:app:webApp&#45;&gt;:app:shared</title>
<path fill="none" stroke="black" d="M398.55,-215.7C398.55,-207.98 398.55,-198.71 398.55,-190.11"/>
<polygon fill="black" stroke="black" points="402.05,-190.1 398.55,-180.1 395.05,-190.1 402.05,-190.1"/>
</g>
<!-- :core:data -->
<g id="node10" class="node">
<title>:core:data</title>
<ellipse fill="none" stroke="black" cx="951.55" cy="-90" rx="57.39" ry="18"/>
<text text-anchor="middle" x="951.55" y="-86.3" font-family="Times,serif" font-size="14.00">:core:data</text>
</g>
<!-- :core:data&#45;&gt;:core:domain -->
<g id="edge10" class="edge">
<title>:core:data&#45;&gt;:core:domain</title>
<path fill="none" stroke="black" d="M908.93,-77.88C899.62,-75.71 889.79,-73.61 880.55,-72 738.91,-47.36 571.74,-32.01 476.14,-24.52"/>
<polygon fill="black" stroke="black" points="476.22,-21.01 465.98,-23.73 475.68,-27.99 476.22,-21.01"/>
</g>
</g>
</svg>
