<?xml version="1.0" encoding="UTF-8" standalone="no"?>
<!DOCTYPE svg PUBLIC "-//W3C//DTD SVG 1.1//EN"
 "http://www.w3.org/Graphics/SVG/1.1/DTD/svg11.dtd">
<!-- Generated by graphviz version 2.43.0 (0)
 -->
<!-- Title: G Pages: 1 -->
<svg width="597pt" height="260pt"
 viewBox="0.00 0.00 597.29 260.00" xmlns="http://www.w3.org/2000/svg" xmlns:xlink="http://www.w3.org/1999/xlink">
<g id="graph0" class="graph" transform="scale(1 1) rotate(0) translate(4 256)">
<title>G</title>
<polygon fill="white" stroke="transparent" points="-4,4 -4,-256 593.29,-256 593.29,4 -4,4"/>
<!-- :server -->
<g id="node1" class="node">
<title>:server</title>
<ellipse fill="none" stroke="black" cx="53.09" cy="-90" rx="43.59" ry="18"/>
<text text-anchor="middle" x="53.09" y="-86.3" font-family="Times,serif" font-size="14.00">:server</text>
</g>
<!-- :core:domain -->
<g id="node2" class="node">
<title>:core:domain</title>
<ellipse fill="none" stroke="black" cx="280.09" cy="-18" rx="70.69" ry="18"/>
<text text-anchor="middle" x="280.09" y="-14.3" font-family="Times,serif" font-size="14.00">:core:domain</text>
</g>
<!-- :server&#45;&gt;:core:domain -->
<g id="edge1" class="edge">
<title>:server&#45;&gt;:core:domain</title>
<path fill="none" stroke="black" d="M86.43,-78.22C92.94,-76.14 99.73,-73.99 106.09,-72 146.28,-59.43 191.81,-45.58 226.21,-35.19"/>
<polygon fill="black" stroke="black" points="227.5,-38.46 236.06,-32.22 225.47,-31.76 227.5,-38.46"/>
</g>
<!-- :app:androidApp -->
<g id="node3" class="node">
<title>:app:androidApp</title>
<ellipse fill="none" stroke="black" cx="87.09" cy="-234" rx="87.18" ry="18"/>
<text text-anchor="middle" x="87.09" y="-230.3" font-family="Times,serif" font-size="14.00">:app:androidApp</text>
</g>
<!-- :app:shared -->
<g id="node4" class="node">
<title>:app:shared</title>
<ellipse fill="none" stroke="black" cx="280.09" cy="-162" rx="65.79" ry="18"/>
<text text-anchor="middle" x="280.09" y="-158.3" font-family="Times,serif" font-size="14.00">:app:shared</text>
</g>
<!-- :app:androidApp&#45;&gt;:app:shared -->
<g id="edge2" class="edge">
<title>:app:androidApp&#45;&gt;:app:shared</title>
<path fill="none" stroke="black" d="M128.5,-217.98C159.01,-206.92 200.58,-191.84 232.47,-180.27"/>
<polygon fill="black" stroke="black" points="233.83,-183.5 242.03,-176.8 231.44,-176.92 233.83,-183.5"/>
</g>
<!-- :feature:other -->
<g id="node6" class="node">
<title>:feature:other</title>
<ellipse fill="none" stroke="black" cx="190.09" cy="-90" rx="75.29" ry="18"/>
<text text-anchor="middle" x="190.09" y="-86.3" font-family="Times,serif" font-size="14.00">:feature:other</text>
</g>
<!-- :app:shared&#45;&gt;:feature:other -->
<g id="edge4" class="edge">
<title>:app:shared&#45;&gt;:feature:other</title>
<path fill="none" stroke="black" d="M259.22,-144.76C247.38,-135.55 232.37,-123.88 219.37,-113.77"/>
<polygon fill="black" stroke="black" points="221.21,-110.77 211.16,-107.39 216.91,-116.29 221.21,-110.77"/>
</g>
<!-- :feature:readout -->
<g id="node7" class="node">
<title>:feature:readout</title>
<ellipse fill="none" stroke="black" cx="370.09" cy="-90" rx="86.38" ry="18"/>
<text text-anchor="middle" x="370.09" y="-86.3" font-family="Times,serif" font-size="14.00">:feature:readout</text>
</g>
<!-- :app:shared&#45;&gt;:feature:readout -->
<g id="edge5" class="edge">
<title>:app:shared&#45;&gt;:feature:readout</title>
<path fill="none" stroke="black" d="M300.97,-144.76C312.72,-135.62 327.6,-124.05 340.54,-113.99"/>
<polygon fill="black" stroke="black" points="342.96,-116.54 348.71,-107.63 338.66,-111.01 342.96,-116.54"/>
</g>
<!-- :app:desktopApp -->
<g id="node5" class="node">
<title>:app:desktopApp</title>
<ellipse fill="none" stroke="black" cx="280.09" cy="-234" rx="88.28" ry="18"/>
<text text-anchor="middle" x="280.09" y="-230.3" font-family="Times,serif" font-size="14.00">:app:desktopApp</text>
</g>
<!-- :app:desktopApp&#45;&gt;:app:shared -->
<g id="edge3" class="edge">
<title>:app:desktopApp&#45;&gt;:app:shared</title>
<path fill="none" stroke="black" d="M280.09,-215.7C280.09,-207.98 280.09,-198.71 280.09,-190.11"/>
<polygon fill="black" stroke="black" points="283.59,-190.1 280.09,-180.1 276.59,-190.1 283.59,-190.1"/>
</g>
<!-- :feature:other&#45;&gt;:core:domain -->
<g id="edge8" class="edge">
<title>:feature:other&#45;&gt;:core:domain</title>
<path fill="none" stroke="black" d="M211.42,-72.41C223.28,-63.19 238.19,-51.59 251.09,-41.55"/>
<polygon fill="black" stroke="black" points="253.48,-44.13 259.23,-35.23 249.18,-38.61 253.48,-44.13"/>
</g>
<!-- :feature:readout&#45;&gt;:core:domain -->
<g id="edge9" class="edge">
<title>:feature:readout&#45;&gt;:core:domain</title>
<path fill="none" stroke="black" d="M348.76,-72.41C336.91,-63.19 321.99,-51.59 309.09,-41.55"/>
<polygon fill="black" stroke="black" points="311,-38.61 300.96,-35.23 306.7,-44.13 311,-38.61"/>
</g>
<!-- :app:webApp -->
<g id="node8" class="node">
<title>:app:webApp</title>
<ellipse fill="none" stroke="black" cx="457.09" cy="-234" rx="70.69" ry="18"/>
<text text-anchor="middle" x="457.09" y="-230.3" font-family="Times,serif" font-size="14.00">:app:webApp</text>
</g>
<!-- :app:webApp&#45;&gt;:app:shared -->
<g id="edge6" class="edge">
<title>:app:webApp&#45;&gt;:app:shared</title>
<path fill="none" stroke="black" d="M420.42,-218.5C392.85,-207.59 354.93,-192.6 325.46,-180.94"/>
<polygon fill="black" stroke="black" points="326.4,-177.55 315.81,-177.13 323.82,-184.06 326.4,-177.55"/>
</g>
<!-- :core:data -->
<g id="node9" class="node">
<title>:core:data</title>
<ellipse fill="none" stroke="black" cx="532.09" cy="-90" rx="57.39" ry="18"/>
<text text-anchor="middle" x="532.09" y="-86.3" font-family="Times,serif" font-size="14.00">:core:data</text>
</g>
<!-- :core:data&#45;&gt;:core:domain -->
<g id="edge7" class="edge">
<title>:core:data&#45;&gt;:core:domain</title>
<path fill="none" stroke="black" d="M490.76,-77.52C448.53,-65.79 382.66,-47.49 335.83,-34.48"/>
<polygon fill="black" stroke="black" points="336.72,-31.1 326.15,-31.79 334.84,-37.84 336.72,-31.1"/>
</g>
</g>
</svg>
