<?xml version="1.0" encoding="UTF-8" standalone="no"?>
<!DOCTYPE svg PUBLIC "-//W3C//DTD SVG 1.1//EN"
 "http://www.w3.org/Graphics/SVG/1.1/DTD/svg11.dtd">
<!-- Generated by graphviz version 2.43.0 (0)
 -->
<!-- Title: G Pages: 1 -->
<svg width="5223pt" height="260pt"
 viewBox="0.00 0.00 5222.63 260.00" xmlns="http://www.w3.org/2000/svg" xmlns:xlink="http://www.w3.org/1999/xlink">
<g id="graph0" class="graph" transform="scale(1 1) rotate(0) translate(4 256)">
<title>G</title>
<polygon fill="white" stroke="transparent" points="-4,4 -4,-256 5218.63,-256 5218.63,4 -4,4"/>
<!-- :server -->
<g id="node1" class="node">
<title>:server</title>
<ellipse fill="none" stroke="black" cx="302.89" cy="-162" rx="43.59" ry="18"/>
<text text-anchor="middle" x="302.89" y="-158.3" font-family="Times,serif" font-size="14.00">:server</text>
</g>
<!-- :core:domain -->
<g id="node2" class="node">
<title>:core:domain</title>
<ellipse fill="none" stroke="black" cx="1748.89" cy="-18" rx="70.69" ry="18"/>
<text text-anchor="middle" x="1748.89" y="-14.3" font-family="Times,serif" font-size="14.00">:core:domain</text>
</g>
<!-- :server&#45;&gt;:core:domain -->
<g id="edge1" class="edge">
<title>:server&#45;&gt;:core:domain</title>
<path fill="none" stroke="black" d="M273,-148.88C247.09,-137.7 212.59,-120.92 204.89,-108 196.7,-94.26 193.77,-83.51 204.89,-72 256.07,-19.03 1356.5,-17.94 1667.61,-18.7"/>
<polygon fill="black" stroke="black" points="1667.9,-22.2 1677.91,-18.73 1667.92,-15.2 1667.9,-22.2"/>
</g>
<!-- :app:androidApp -->
<g id="node3" class="node">
<title>:app:androidApp</title>
<ellipse fill="none" stroke="black" cx="1225.89" cy="-234" rx="87.18" ry="18"/>
<text text-anchor="middle" x="1225.89" y="-230.3" font-family="Times,serif" font-size="14.00">:app:androidApp</text>
</g>
<!-- :app:shared -->
<g id="node4" class="node">
<title>:app:shared</title>
<ellipse fill="none" stroke="black" cx="1909.89" cy="-162" rx="65.79" ry="18"/>
<text text-anchor="middle" x="1909.89" y="-158.3" font-family="Times,serif" font-size="14.00">:app:shared</text>
</g>
<!-- :app:androidApp&#45;&gt;:app:shared -->
<g id="edge2" class="edge">
<title>:app:androidApp&#45;&gt;:app:shared</title>
<path fill="none" stroke="black" d="M1302.03,-225.21C1435.44,-211.55 1709.56,-183.5 1839.1,-170.24"/>
<polygon fill="black" stroke="black" points="1839.71,-173.7 1849.3,-169.2 1838.99,-166.74 1839.71,-173.7"/>
</g>
<!-- :core:data -->
<g id="node5" class="node">
<title>:core:data</title>
<ellipse fill="none" stroke="black" cx="421.89" cy="-162" rx="57.39" ry="18"/>
<text text-anchor="middle" x="421.89" y="-158.3" font-family="Times,serif" font-size="14.00">:core:data</text>
</g>
<!-- :app:androidApp&#45;&gt;:core:data -->
<g id="edge3" class="edge">
<title>:app:androidApp&#45;&gt;:core:data</title>
<path fill="none" stroke="black" d="M1147.33,-226.16C988.65,-212.34 632.56,-181.34 486.38,-168.62"/>
<polygon fill="black" stroke="black" points="486.49,-165.11 476.23,-167.73 485.89,-172.09 486.49,-165.11"/>
</g>
<!-- :feature:main -->
<g id="node8" class="node">
<title>:feature:main</title>
<ellipse fill="none" stroke="black" cx="297.89" cy="-90" rx="73.39" ry="18"/>
<text text-anchor="middle" x="297.89" y="-86.3" font-family="Times,serif" font-size="14.00">:feature:main</text>
</g>
<!-- :app:shared&#45;&gt;:feature:main -->
<g id="edge8" class="edge">
<title>:app:shared&#45;&gt;:feature:main</title>
<path fill="none" stroke="black" d="M1844.46,-160.19C1590.65,-156.83 670.85,-142.47 380.89,-108 374.02,-107.18 366.87,-106.09 359.78,-104.86"/>
<polygon fill="black" stroke="black" points="359.94,-101.33 349.47,-102.96 358.67,-108.21 359.94,-101.33"/>
</g>
<!-- :feature:lmu&#45;windows&#45;connection -->
<g id="node9" class="node">
<title>:feature:lmu&#45;windows&#45;connection</title>
<ellipse fill="none" stroke="black" cx="553.89" cy="-90" rx="164.37" ry="18"/>
<text text-anchor="middle" x="553.89" y="-86.3" font-family="Times,serif" font-size="14.00">:feature:lmu&#45;windows&#45;connection</text>
</g>
<!-- :app:shared&#45;&gt;:feature:lmu&#45;windows&#45;connection -->
<g id="edge9" class="edge">
<title>:app:shared&#45;&gt;:feature:lmu&#45;windows&#45;connection</title>
<path fill="none" stroke="black" d="M1844.79,-159.28C1666.16,-154.31 1153.3,-138.3 727.89,-108 711.84,-106.86 694.98,-105.46 678.33,-103.96"/>
<polygon fill="black" stroke="black" points="678.28,-100.44 668,-103.02 677.64,-107.41 678.28,-100.44"/>
</g>
<!-- :feature:server&#45;connection -->
<g id="node10" class="node">
<title>:feature:server&#45;connection</title>
<ellipse fill="none" stroke="black" cx="869.89" cy="-90" rx="133.48" ry="18"/>
<text text-anchor="middle" x="869.89" y="-86.3" font-family="Times,serif" font-size="14.00">:feature:server&#45;connection</text>
</g>
<!-- :app:shared&#45;&gt;:feature:server&#45;connection -->
<g id="edge10" class="edge">
<title>:app:shared&#45;&gt;:feature:server&#45;connection</title>
<path fill="none" stroke="black" d="M1845.34,-158.5C1697.74,-152.5 1324.25,-135.68 1012.89,-108 1000.09,-106.86 986.67,-105.5 973.38,-104.04"/>
<polygon fill="black" stroke="black" points="973.59,-100.54 963.27,-102.91 972.82,-107.5 973.59,-100.54"/>
</g>
<!-- :feature:lmu&#45;windows&#45;narrator -->
<g id="node11" class="node">
<title>:feature:lmu&#45;windows&#45;narrator</title>
<ellipse fill="none" stroke="black" cx="1174.89" cy="-90" rx="153.27" ry="18"/>
<text text-anchor="middle" x="1174.89" y="-86.3" font-family="Times,serif" font-size="14.00">:feature:lmu&#45;windows&#45;narrator</text>
</g>
<!-- :app:shared&#45;&gt;:feature:lmu&#45;windows&#45;narrator -->
<g id="edge11" class="edge">
<title>:app:shared&#45;&gt;:feature:lmu&#45;windows&#45;narrator</title>
<path fill="none" stroke="black" d="M1848.39,-155.56C1743.44,-146.23 1523.05,-126.38 1336.89,-108 1323.19,-106.65 1308.84,-105.19 1294.59,-103.73"/>
<polygon fill="black" stroke="black" points="1294.54,-100.21 1284.23,-102.66 1293.82,-107.17 1294.54,-100.21"/>
</g>
<!-- :feature:other&#45;license&#45;detail -->
<g id="node12" class="node">
<title>:feature:other&#45;license&#45;detail</title>
<ellipse fill="none" stroke="black" cx="5074.89" cy="-90" rx="139.98" ry="18"/>
<text text-anchor="middle" x="5074.89" y="-86.3" font-family="Times,serif" font-size="14.00">:feature:other&#45;license&#45;detail</text>
</g>
<!-- :app:shared&#45;&gt;:feature:other&#45;license&#45;detail -->
<g id="edge12" class="edge">
<title>:app:shared&#45;&gt;:feature:other&#45;license&#45;detail</title>
<path fill="none" stroke="black" d="M1975.46,-160.71C2359.76,-158.85 4323.47,-147.57 4925.89,-108 4940.03,-107.07 4954.9,-105.77 4969.54,-104.29"/>
<polygon fill="black" stroke="black" points="4970.04,-107.76 4979.63,-103.25 4969.32,-100.8 4970.04,-107.76"/>
</g>
<!-- :feature:other&#45;list -->
<g id="node13" class="node">
<title>:feature:other&#45;list</title>
<ellipse fill="none" stroke="black" cx="1438.89" cy="-90" rx="92.88" ry="18"/>
<text text-anchor="middle" x="1438.89" y="-86.3" font-family="Times,serif" font-size="14.00">:feature:other&#45;list</text>
</g>
<!-- :app:shared&#45;&gt;:feature:other&#45;list -->
<g id="edge13" class="edge">
<title>:app:shared&#45;&gt;:feature:other&#45;list</title>
<path fill="none" stroke="black" d="M1852.46,-153.22C1779.66,-143.25 1650.33,-125.2 1539.89,-108 1532.08,-106.78 1523.94,-105.48 1515.82,-104.15"/>
<polygon fill="black" stroke="black" points="1516.38,-100.7 1505.95,-102.52 1515.25,-107.6 1516.38,-100.7"/>
</g>
<!-- :feature:other&#45;server&#45;ip&#45;detail -->
<g id="node14" class="node">
<title>:feature:other&#45;server&#45;ip&#45;detail</title>
<ellipse fill="none" stroke="black" cx="2549.89" cy="-90" rx="148.67" ry="18"/>
<text text-anchor="middle" x="2549.89" y="-86.3" font-family="Times,serif" font-size="14.00">:feature:other&#45;server&#45;ip&#45;detail</text>
</g>
<!-- :app:shared&#45;&gt;:feature:other&#45;server&#45;ip&#45;detail -->
<g id="edge14" class="edge">
<title>:app:shared&#45;&gt;:feature:other&#45;server&#45;ip&#45;detail</title>
<path fill="none" stroke="black" d="M1969.81,-154.45C2075.54,-142.88 2296.91,-118.67 2433.53,-103.73"/>
<polygon fill="black" stroke="black" points="2434.07,-107.19 2443.63,-102.62 2433.31,-100.23 2434.07,-107.19"/>
</g>
<!-- :feature:other&#45;readout&#45;start&#45;sound&#45;detail -->
<g id="node15" class="node">
<title>:feature:other&#45;readout&#45;start&#45;sound&#45;detail</title>
<ellipse fill="none" stroke="black" cx="1748.89" cy="-90" rx="199.56" ry="18"/>
<text text-anchor="middle" x="1748.89" y="-86.3" font-family="Times,serif" font-size="14.00">:feature:other&#45;readout&#45;start&#45;sound&#45;detail</text>
</g>
<!-- :app:shared&#45;&gt;:feature:other&#45;readout&#45;start&#45;sound&#45;detail -->
<g id="edge15" class="edge">
<title>:app:shared&#45;&gt;:feature:other&#45;readout&#45;start&#45;sound&#45;detail</title>
<path fill="none" stroke="black" d="M1876.53,-146.5C1853.4,-136.44 1822.25,-122.89 1796.51,-111.7"/>
<polygon fill="black" stroke="black" points="1797.86,-108.48 1787.3,-107.7 1795.07,-114.9 1797.86,-108.48"/>
</g>
<!-- :feature:other&#45;volume&#45;detail -->
<g id="node16" class="node">
<title>:feature:other&#45;volume&#45;detail</title>
<ellipse fill="none" stroke="black" cx="2857.89" cy="-90" rx="141.07" ry="18"/>
<text text-anchor="middle" x="2857.89" y="-86.3" font-family="Times,serif" font-size="14.00">:feature:other&#45;volume&#45;detail</text>
</g>
<!-- :app:shared&#45;&gt;:feature:other&#45;volume&#45;detail -->
<g id="edge16" class="edge">
<title>:app:shared&#45;&gt;:feature:other&#45;volume&#45;detail</title>
<path fill="none" stroke="black" d="M1973.84,-157.77C2109.34,-150.69 2435.28,-132.49 2707.89,-108 2721.23,-106.8 2735.22,-105.4 2749.07,-103.94"/>
<polygon fill="black" stroke="black" points="2749.55,-107.4 2759.12,-102.86 2748.8,-100.44 2749.55,-107.4"/>
</g>
<!-- :feature:readout&#45;list -->
<g id="node17" class="node">
<title>:feature:readout&#45;list</title>
<ellipse fill="none" stroke="black" cx="2070.89" cy="-90" rx="103.98" ry="18"/>
<text text-anchor="middle" x="2070.89" y="-86.3" font-family="Times,serif" font-size="14.00">:feature:readout&#45;list</text>
</g>
<!-- :app:shared&#45;&gt;:feature:readout&#45;list -->
<g id="edge17" class="edge">
<title>:app:shared&#45;&gt;:feature:readout&#45;list</title>
<path fill="none" stroke="black" d="M1943.25,-146.5C1966.87,-136.22 1998.86,-122.32 2024.91,-110.99"/>
<polygon fill="black" stroke="black" points="2026.43,-114.15 2034.2,-106.95 2023.64,-107.73 2026.43,-114.15"/>
</g>
<!-- :feature:lmu&#45;windows&#45;readout&#45;vehicle&#45;approach&#45;detail -->
<g id="node18" class="node">
<title>:feature:lmu&#45;windows&#45;readout&#45;vehicle&#45;approach&#45;detail</title>
<ellipse fill="none" stroke="black" cx="3277.89" cy="-90" rx="260.75" ry="18"/>
<text text-anchor="middle" x="3277.89" y="-86.3" font-family="Times,serif" font-size="14.00">:feature:lmu&#45;windows&#45;readout&#45;vehicle&#45;approach&#45;detail</text>
</g>
<!-- :app:shared&#45;&gt;:feature:lmu&#45;windows&#45;readout&#45;vehicle&#45;approach&#45;detail -->
<g id="edge18" class="edge">
<title>:app:shared&#45;&gt;:feature:lmu&#45;windows&#45;readout&#45;vehicle&#45;approach&#45;detail</title>
<path fill="none" stroke="black" d="M1974.26,-158.22C2143.57,-150.85 2615.35,-129.83 3007.89,-108 3032.83,-106.61 3059.07,-105.07 3084.98,-103.49"/>
<polygon fill="black" stroke="black" points="3085.51,-106.97 3095.28,-102.86 3085.08,-99.98 3085.51,-106.97"/>
</g>
<!-- :feature:lmu&#45;windows&#45;readout&#45;flag&#45;detail -->
<g id="node19" class="node">
<title>:feature:lmu&#45;windows&#45;readout&#45;flag&#45;detail</title>
<ellipse fill="none" stroke="black" cx="3755.89" cy="-90" rx="199.56" ry="18"/>
<text text-anchor="middle" x="3755.89" y="-86.3" font-family="Times,serif" font-size="14.00">:feature:lmu&#45;windows&#45;readout&#45;flag&#45;detail</text>
</g>
<!-- :app:shared&#45;&gt;:feature:lmu&#45;windows&#45;readout&#45;flag&#45;detail -->
<g id="edge19" class="edge">
<title>:app:shared&#45;&gt;:feature:lmu&#45;windows&#45;readout&#45;flag&#45;detail</title>
<path fill="none" stroke="black" d="M1975.48,-160.04C2196.92,-156.54 2937.15,-142.82 3547.89,-108 3567.71,-106.87 3588.57,-105.45 3609.12,-103.9"/>
<polygon fill="black" stroke="black" points="3609.47,-107.39 3619.18,-103.14 3608.94,-100.41 3609.47,-107.39"/>
</g>
<!-- :feature:lmu&#45;windows&#45;readout&#45;vehicle&#45;damage&#45;detail -->
<g id="node20" class="node">
<title>:feature:lmu&#45;windows&#45;readout&#45;vehicle&#45;damage&#45;detail</title>
<ellipse fill="none" stroke="black" cx="4227.89" cy="-90" rx="254.55" ry="18"/>
<text text-anchor="middle" x="4227.89" y="-86.3" font-family="Times,serif" font-size="14.00">:feature:lmu&#45;windows&#45;readout&#45;vehicle&#45;damage&#45;detail</text>
</g>
<!-- :app:shared&#45;&gt;:feature:lmu&#45;windows&#45;readout&#45;vehicle&#45;damage&#45;detail -->
<g id="edge20" class="edge">
<title>:app:shared&#45;&gt;:feature:lmu&#45;windows&#45;readout&#45;vehicle&#45;damage&#45;detail</title>
<path fill="none" stroke="black" d="M1975.58,-160.23C2230.95,-157.05 3182.32,-143.37 3964.89,-108 3990.52,-106.84 4017.55,-105.37 4044.13,-103.79"/>
<polygon fill="black" stroke="black" points="4044.52,-107.27 4054.29,-103.18 4044.1,-100.29 4044.52,-107.27"/>
</g>
<!-- :feature:gt7&#45;ps5&#45;readout&#45;my&#45;bestlap&#45;detail -->
<g id="node21" class="node">
<title>:feature:gt7&#45;ps5&#45;readout&#45;my&#45;bestlap&#45;detail</title>
<ellipse fill="none" stroke="black" cx="4708.89" cy="-90" rx="207.96" ry="18"/>
<text text-anchor="middle" x="4708.89" y="-86.3" font-family="Times,serif" font-size="14.00">:feature:gt7&#45;ps5&#45;readout&#45;my&#45;bestlap&#45;detail</text>
</g>
<!-- :app:shared&#45;&gt;:feature:gt7&#45;ps5&#45;readout&#45;my&#45;bestlap&#45;detail -->
<g id="edge21" class="edge">
<title>:app:shared&#45;&gt;:feature:gt7&#45;ps5&#45;readout&#45;my&#45;bestlap&#45;detail</title>
<path fill="none" stroke="black" d="M1975.77,-161.04C2269.74,-160.95 3491.03,-157.44 4491.89,-108 4513.16,-106.95 4535.59,-105.54 4557.63,-103.97"/>
<polygon fill="black" stroke="black" points="4558,-107.46 4567.72,-103.25 4557.5,-100.47 4558,-107.46"/>
</g>
<!-- :core:data&#45;&gt;:core:domain -->
<g id="edge23" class="edge">
<title>:core:data&#45;&gt;:core:domain</title>
<path fill="none" stroke="black" d="M378.93,-149.93C371.26,-147.96 363.34,-145.92 355.89,-144 293.67,-127.99 255.26,-158.77 215.89,-108 206.09,-95.36 204.77,-83.51 215.89,-72 266.66,-19.45 1357.45,-18.05 1667.41,-18.72"/>
<polygon fill="black" stroke="black" points="1667.66,-22.22 1677.67,-18.74 1667.67,-15.22 1667.66,-22.22"/>
</g>
<!-- :app:desktopApp -->
<g id="node6" class="node">
<title>:app:desktopApp</title>
<ellipse fill="none" stroke="black" cx="362.89" cy="-234" rx="88.28" ry="18"/>
<text text-anchor="middle" x="362.89" y="-230.3" font-family="Times,serif" font-size="14.00">:app:desktopApp</text>
</g>
<!-- :app:desktopApp&#45;&gt;:server -->
<g id="edge7" class="edge">
<title>:app:desktopApp&#45;&gt;:server</title>
<path fill="none" stroke="black" d="M348.36,-216.05C340.89,-207.33 331.64,-196.54 323.44,-186.98"/>
<polygon fill="black" stroke="black" points="326.03,-184.62 316.87,-179.31 320.72,-189.18 326.03,-184.62"/>
</g>
<!-- :app:desktopApp&#45;&gt;:app:shared -->
<g id="edge4" class="edge">
<title>:app:desktopApp&#45;&gt;:app:shared</title>
<path fill="none" stroke="black" d="M448.27,-229.14C722.52,-216.73 1578.14,-178.01 1835.76,-166.35"/>
<polygon fill="black" stroke="black" points="1835.93,-169.85 1845.76,-165.9 1835.62,-162.86 1835.93,-169.85"/>
</g>
<!-- :app:desktopApp&#45;&gt;:core:data -->
<g id="edge5" class="edge">
<title>:app:desktopApp&#45;&gt;:core:data</title>
<path fill="none" stroke="black" d="M377.17,-216.05C384.35,-207.54 393.17,-197.07 401.09,-187.68"/>
<polygon fill="black" stroke="black" points="403.97,-189.69 407.74,-179.79 398.62,-185.18 403.97,-189.69"/>
</g>
<!-- :core:lmu&#45;windows&#45;data -->
<g id="node7" class="node">
<title>:core:lmu&#45;windows&#45;data</title>
<ellipse fill="none" stroke="black" cx="120.89" cy="-162" rx="120.78" ry="18"/>
<text text-anchor="middle" x="120.89" y="-158.3" font-family="Times,serif" font-size="14.00">:core:lmu&#45;windows&#45;data</text>
</g>
<!-- :app:desktopApp&#45;&gt;:core:lmu&#45;windows&#45;data -->
<g id="edge6" class="edge">
<title>:app:desktopApp&#45;&gt;:core:lmu&#45;windows&#45;data</title>
<path fill="none" stroke="black" d="M314.21,-218.92C276.59,-208.04 224.25,-192.9 183.51,-181.11"/>
<polygon fill="black" stroke="black" points="184.27,-177.69 173.69,-178.27 182.32,-184.41 184.27,-177.69"/>
</g>
<!-- :core:lmu&#45;windows&#45;data&#45;&gt;:core:domain -->
<g id="edge25" class="edge">
<title>:core:lmu&#45;windows&#45;data&#45;&gt;:core:domain</title>
<path fill="none" stroke="black" d="M129.16,-143.83C140.45,-122.58 162.89,-87.32 193.89,-72 260.37,-39.15 1357.33,-23.65 1667.68,-19.92"/>
<polygon fill="black" stroke="black" points="1667.99,-23.41 1677.94,-19.79 1667.9,-16.41 1667.99,-23.41"/>
</g>
<!-- :feature:main&#45;&gt;:core:domain -->
<g id="edge36" class="edge">
<title>:feature:main&#45;&gt;:core:domain</title>
<path fill="none" stroke="black" d="M349.48,-77.08C359.83,-75.07 370.67,-73.24 380.89,-72 632.39,-41.58 1413.59,-25.07 1667.95,-20.4"/>
<polygon fill="black" stroke="black" points="1668.28,-23.89 1678.22,-20.21 1668.16,-16.9 1668.28,-23.89"/>
</g>
<!-- :feature:lmu&#45;windows&#45;connection&#45;&gt;:core:domain -->
<g id="edge28" class="edge">
<title>:feature:lmu&#45;windows&#45;connection&#45;&gt;:core:domain</title>
<path fill="none" stroke="black" d="M668.48,-77.06C688.28,-75.21 708.67,-73.44 727.89,-72 1078.06,-45.82 1496.76,-28.45 1668.95,-21.91"/>
<polygon fill="black" stroke="black" points="1669.33,-25.4 1679.19,-21.52 1669.06,-18.4 1669.33,-25.4"/>
</g>
<!-- :feature:server&#45;connection&#45;&gt;:core:domain -->
<g id="edge45" class="edge">
<title>:feature:server&#45;connection&#45;&gt;:core:domain</title>
<path fill="none" stroke="black" d="M964.05,-77.18C980.32,-75.31 997.09,-73.51 1012.89,-72 1252,-49.19 1535.65,-31.36 1670.34,-23.45"/>
<polygon fill="black" stroke="black" points="1670.78,-26.94 1680.56,-22.86 1670.38,-19.95 1670.78,-26.94"/>
</g>
<!-- :feature:lmu&#45;windows&#45;narrator&#45;&gt;:core:domain -->
<g id="edge29" class="edge">
<title>:feature:lmu&#45;windows&#45;narrator&#45;&gt;:core:domain</title>
<path fill="none" stroke="black" d="M1277.18,-76.53C1392.01,-62.52 1575.43,-40.15 1676.38,-27.84"/>
<polygon fill="black" stroke="black" points="1676.98,-31.29 1686.49,-26.61 1676.14,-24.35 1676.98,-31.29"/>
</g>
<!-- :core:designsystem -->
<g id="node24" class="node">
<title>:core:designsystem</title>
<ellipse fill="none" stroke="black" cx="3755.89" cy="-18" rx="100.98" ry="18"/>
<text text-anchor="middle" x="3755.89" y="-14.3" font-family="Times,serif" font-size="14.00">:core:designsystem</text>
</g>
<!-- :feature:other&#45;license&#45;detail&#45;&gt;:core:designsystem -->
<g id="edge37" class="edge">
<title>:feature:other&#45;license&#45;detail&#45;&gt;:core:designsystem</title>
<path fill="none" stroke="black" d="M4978,-76.97C4960.67,-75.1 4942.76,-73.34 4925.89,-72 4536.45,-41 4072.54,-26.68 3865.31,-21.46"/>
<polygon fill="black" stroke="black" points="3865.12,-17.96 3855.03,-21.21 3864.94,-24.95 3865.12,-17.96"/>
</g>
<!-- :feature:other&#45;list&#45;&gt;:core:domain -->
<g id="edge38" class="edge">
<title>:feature:other&#45;list&#45;&gt;:core:domain</title>
<path fill="none" stroke="black" d="M1496.83,-75.92C1551.28,-63.62 1632.45,-45.29 1687.87,-32.78"/>
<polygon fill="black" stroke="black" points="1688.92,-36.13 1697.91,-30.51 1687.38,-29.3 1688.92,-36.13"/>
</g>
<!-- :feature:other&#45;server&#45;ip&#45;detail&#45;&gt;:core:domain -->
<g id="edge40" class="edge">
<title>:feature:other&#45;server&#45;ip&#45;detail&#45;&gt;:core:domain</title>
<path fill="none" stroke="black" d="M2444.11,-77.25C2426.67,-75.42 2408.78,-73.6 2391.89,-72 2187.92,-52.62 1947.15,-33.88 1826.31,-24.75"/>
<polygon fill="black" stroke="black" points="1826.29,-21.24 1816.05,-23.98 1825.76,-28.22 1826.29,-21.24"/>
</g>
<!-- :feature:other&#45;server&#45;ip&#45;detail&#45;&gt;:core:designsystem -->
<g id="edge41" class="edge">
<title>:feature:other&#45;server&#45;ip&#45;detail&#45;&gt;:core:designsystem</title>
<path fill="none" stroke="black" d="M2653.5,-77C2671.61,-75.15 2690.29,-73.39 2707.89,-72 3050.45,-44.93 3457.16,-28.98 3647.51,-22.46"/>
<polygon fill="black" stroke="black" points="3647.64,-25.95 3657.52,-22.11 3647.41,-18.96 3647.64,-25.95"/>
</g>
<!-- :feature:other&#45;readout&#45;start&#45;sound&#45;detail&#45;&gt;:core:domain -->
<g id="edge39" class="edge">
<title>:feature:other&#45;readout&#45;start&#45;sound&#45;detail&#45;&gt;:core:domain</title>
<path fill="none" stroke="black" d="M1748.89,-71.7C1748.89,-63.98 1748.89,-54.71 1748.89,-46.11"/>
<polygon fill="black" stroke="black" points="1752.39,-46.1 1748.89,-36.1 1745.39,-46.1 1752.39,-46.1"/>
</g>
<!-- :feature:other&#45;volume&#45;detail&#45;&gt;:core:domain -->
<g id="edge42" class="edge">
<title>:feature:other&#45;volume&#45;detail&#45;&gt;:core:domain</title>
<path fill="none" stroke="black" d="M2759.53,-77.03C2742.34,-75.17 2724.6,-73.41 2707.89,-72 2382.18,-44.57 1993,-28.07 1828.51,-21.85"/>
<polygon fill="black" stroke="black" points="1828.6,-18.35 1818.48,-21.47 1828.34,-25.34 1828.6,-18.35"/>
</g>
<!-- :feature:other&#45;volume&#45;detail&#45;&gt;:core:designsystem -->
<g id="edge43" class="edge">
<title>:feature:other&#45;volume&#45;detail&#45;&gt;:core:designsystem</title>
<path fill="none" stroke="black" d="M2957.07,-77.16C2974.01,-75.31 2991.45,-73.51 3007.89,-72 3237.19,-50.89 3506.72,-33.65 3651.42,-25.01"/>
<polygon fill="black" stroke="black" points="3651.84,-28.49 3661.62,-24.4 3651.43,-21.5 3651.84,-28.49"/>
</g>
<!-- :feature:readout&#45;list&#45;&gt;:core:domain -->
<g id="edge44" class="edge">
<title>:feature:readout&#45;list&#45;&gt;:core:domain</title>
<path fill="none" stroke="black" d="M2008.8,-75.5C1951.83,-63.12 1867.86,-44.86 1810.9,-32.48"/>
<polygon fill="black" stroke="black" points="1811.46,-29.02 1800.95,-30.32 1809.98,-35.86 1811.46,-29.02"/>
</g>
<!-- :feature:lmu&#45;windows&#45;readout&#45;vehicle&#45;approach&#45;detail&#45;&gt;:core:domain -->
<g id="edge32" class="edge">
<title>:feature:lmu&#45;windows&#45;readout&#45;vehicle&#45;approach&#45;detail&#45;&gt;:core:domain</title>
<path fill="none" stroke="black" d="M3096.38,-77.05C3066.81,-75.25 3036.5,-73.5 3007.89,-72 2562.31,-48.6 2027.6,-28.84 1828.59,-21.78"/>
<polygon fill="black" stroke="black" points="1828.64,-18.28 1818.52,-21.42 1828.39,-25.27 1828.64,-18.28"/>
</g>
<!-- :feature:lmu&#45;windows&#45;readout&#45;vehicle&#45;approach&#45;detail&#45;&gt;:core:designsystem -->
<g id="edge33" class="edge">
<title>:feature:lmu&#45;windows&#45;readout&#45;vehicle&#45;approach&#45;detail&#45;&gt;:core:designsystem</title>
<path fill="none" stroke="black" d="M3383.68,-73.51C3469.91,-60.88 3590.14,-43.27 3670.37,-31.52"/>
<polygon fill="black" stroke="black" points="3671.05,-34.96 3680.44,-30.05 3670.04,-28.03 3671.05,-34.96"/>
</g>
<!-- :feature:lmu&#45;windows&#45;readout&#45;flag&#45;detail&#45;&gt;:core:domain -->
<g id="edge30" class="edge">
<title>:feature:lmu&#45;windows&#45;readout&#45;flag&#45;detail&#45;&gt;:core:domain</title>
<path fill="none" stroke="black" d="M3619.46,-76.83C3595.62,-74.99 3571.04,-73.29 3547.89,-72 2885.15,-35.18 2083.55,-22.97 1829.89,-19.88"/>
<polygon fill="black" stroke="black" points="1829.7,-16.38 1819.66,-19.76 1829.62,-23.38 1829.7,-16.38"/>
</g>
<!-- :feature:lmu&#45;windows&#45;readout&#45;flag&#45;detail&#45;&gt;:core:designsystem -->
<g id="edge31" class="edge">
<title>:feature:lmu&#45;windows&#45;readout&#45;flag&#45;detail&#45;&gt;:core:designsystem</title>
<path fill="none" stroke="black" d="M3755.89,-71.7C3755.89,-63.98 3755.89,-54.71 3755.89,-46.11"/>
<polygon fill="black" stroke="black" points="3759.39,-46.1 3755.89,-36.1 3752.39,-46.1 3759.39,-46.1"/>
</g>
<!-- :feature:lmu&#45;windows&#45;readout&#45;vehicle&#45;damage&#45;detail&#45;&gt;:core:domain -->
<g id="edge34" class="edge">
<title>:feature:lmu&#45;windows&#45;readout&#45;vehicle&#45;damage&#45;detail&#45;&gt;:core:domain</title>
<path fill="none" stroke="black" d="M4054.64,-76.8C4024.72,-74.98 3993.92,-73.28 3964.89,-72 3131.31,-35.11 2120.13,-22.69 1830.14,-19.75"/>
<polygon fill="black" stroke="black" points="1829.76,-16.25 1819.72,-19.65 1829.69,-23.25 1829.76,-16.25"/>
</g>
<!-- :feature:lmu&#45;windows&#45;readout&#45;vehicle&#45;damage&#45;detail&#45;&gt;:core:designsystem -->
<g id="edge35" class="edge">
<title>:feature:lmu&#45;windows&#45;readout&#45;vehicle&#45;damage&#45;detail&#45;&gt;:core:designsystem</title>
<path fill="none" stroke="black" d="M4123.72,-73.55C4038.72,-60.95 3920.12,-43.36 3840.8,-31.59"/>
<polygon fill="black" stroke="black" points="3841.25,-28.12 3830.85,-30.12 3840.23,-35.05 3841.25,-28.12"/>
</g>
<!-- :feature:gt7&#45;ps5&#45;readout&#45;my&#45;bestlap&#45;detail&#45;&gt;:core:domain -->
<g id="edge26" class="edge">
<title>:feature:gt7&#45;ps5&#45;readout&#45;my&#45;bestlap&#45;detail&#45;&gt;:core:domain</title>
<path fill="none" stroke="black" d="M4568.02,-76.75C4542.69,-74.9 4516.52,-73.2 4491.89,-72 3440.92,-20.72 2161.17,-18.48 1830.12,-18.82"/>
<polygon fill="black" stroke="black" points="1829.67,-15.32 1819.67,-18.84 1829.67,-22.32 1829.67,-15.32"/>
</g>
<!-- :feature:gt7&#45;ps5&#45;readout&#45;my&#45;bestlap&#45;detail&#45;&gt;:core:designsystem -->
<g id="edge27" class="edge">
<title>:feature:gt7&#45;ps5&#45;readout&#45;my&#45;bestlap&#45;detail&#45;&gt;:core:designsystem</title>
<path fill="none" stroke="black" d="M4561.24,-77.31C4538.03,-75.51 4514.31,-73.69 4491.89,-72 4265.46,-54.98 3999.76,-36.12 3857.71,-26.13"/>
<polygon fill="black" stroke="black" points="3857.92,-22.63 3847.7,-25.42 3857.43,-29.62 3857.92,-22.63"/>
</g>
<!-- :app:webApp -->
<g id="node22" class="node">
<title>:app:webApp</title>
<ellipse fill="none" stroke="black" cx="1909.89" cy="-234" rx="70.69" ry="18"/>
<text text-anchor="middle" x="1909.89" y="-230.3" font-family="Times,serif" font-size="14.00">:app:webApp</text>
</g>
<!-- :app:webApp&#45;&gt;:app:shared -->
<g id="edge22" class="edge">
<title>:app:webApp&#45;&gt;:app:shared</title>
<path fill="none" stroke="black" d="M1909.89,-215.7C1909.89,-207.98 1909.89,-198.71 1909.89,-190.11"/>
<polygon fill="black" stroke="black" points="1913.39,-190.1 1909.89,-180.1 1906.39,-190.1 1913.39,-190.1"/>
</g>
<!-- :core:gt7&#45;ps5&#45;data -->
<g id="node23" class="node">
<title>:core:gt7&#45;ps5&#45;data</title>
<ellipse fill="none" stroke="black" cx="2287.89" cy="-90" rx="94.78" ry="18"/>
<text text-anchor="middle" x="2287.89" y="-86.3" font-family="Times,serif" font-size="14.00">:core:gt7&#45;ps5&#45;data</text>
</g>
<!-- :core:gt7&#45;ps5&#45;data&#45;&gt;:core:domain -->
<g id="edge24" class="edge">
<title>:core:gt7&#45;ps5&#45;data&#45;&gt;:core:domain</title>
<path fill="none" stroke="black" d="M2219.7,-77.45C2207.78,-75.54 2195.48,-73.65 2183.89,-72 2057.28,-53.95 1909.39,-36.75 1822.75,-27.07"/>
<polygon fill="black" stroke="black" points="1823.08,-23.59 1812.76,-25.96 1822.31,-30.54 1823.08,-23.59"/>
</g>
</g>
</svg>
