<?xml version="1.0" encoding="UTF-8" standalone="no"?>
<!DOCTYPE svg PUBLIC "-//W3C//DTD SVG 1.1//EN"
 "http://www.w3.org/Graphics/SVG/1.1/DTD/svg11.dtd">
<!-- Generated by graphviz version 2.43.0 (0)
 -->
<!-- Title: G Pages: 1 -->
<svg width="6005pt" height="260pt"
 viewBox="0.00 0.00 6004.63 260.00" xmlns="http://www.w3.org/2000/svg" xmlns:xlink="http://www.w3.org/1999/xlink">
<g id="graph0" class="graph" transform="scale(1 1) rotate(0) translate(4 256)">
<title>G</title>
<polygon fill="white" stroke="transparent" points="-4,4 -4,-256 6000.63,-256 6000.63,4 -4,4"/>
<!-- :server -->
<g id="node1" class="node">
<title>:server</title>
<ellipse fill="none" stroke="black" cx="250.89" cy="-162" rx="43.59" ry="18"/>
<text text-anchor="middle" x="250.89" y="-158.3" font-family="Times,serif" font-size="14.00">:server</text>
</g>
<!-- :core:domain -->
<g id="node2" class="node">
<title>:core:domain</title>
<ellipse fill="none" stroke="black" cx="1951.89" cy="-18" rx="70.69" ry="18"/>
<text text-anchor="middle" x="1951.89" y="-14.3" font-family="Times,serif" font-size="14.00">:core:domain</text>
</g>
<!-- :server&#45;&gt;:core:domain -->
<g id="edge1" class="edge">
<title>:server&#45;&gt;:core:domain</title>
<path fill="none" stroke="black" d="M251.79,-143.89C253.9,-123.04 260.88,-88.56 283.89,-72 348.87,-25.24 1545.14,-19.72 1870.69,-19.08"/>
<polygon fill="black" stroke="black" points="1870.99,-22.58 1880.98,-19.06 1870.98,-15.58 1870.99,-22.58"/>
</g>
<!-- :app:androidApp -->
<g id="node3" class="node">
<title>:app:androidApp</title>
<ellipse fill="none" stroke="black" cx="1456.89" cy="-234" rx="87.18" ry="18"/>
<text text-anchor="middle" x="1456.89" y="-230.3" font-family="Times,serif" font-size="14.00">:app:androidApp</text>
</g>
<!-- :app:shared -->
<g id="node4" class="node">
<title>:app:shared</title>
<ellipse fill="none" stroke="black" cx="2461.89" cy="-162" rx="65.79" ry="18"/>
<text text-anchor="middle" x="2461.89" y="-158.3" font-family="Times,serif" font-size="14.00">:app:shared</text>
</g>
<!-- :app:androidApp&#45;&gt;:app:shared -->
<g id="edge2" class="edge">
<title>:app:androidApp&#45;&gt;:app:shared</title>
<path fill="none" stroke="black" d="M1537.86,-227.36C1729.03,-214.05 2206.04,-180.82 2388.93,-168.08"/>
<polygon fill="black" stroke="black" points="2389.25,-171.57 2398.98,-167.38 2388.76,-164.59 2389.25,-171.57"/>
</g>
<!-- :core:data -->
<g id="node5" class="node">
<title>:core:data</title>
<ellipse fill="none" stroke="black" cx="628.89" cy="-162" rx="57.39" ry="18"/>
<text text-anchor="middle" x="628.89" y="-158.3" font-family="Times,serif" font-size="14.00">:core:data</text>
</g>
<!-- :app:androidApp&#45;&gt;:core:data -->
<g id="edge3" class="edge">
<title>:app:androidApp&#45;&gt;:core:data</title>
<path fill="none" stroke="black" d="M1377.87,-226.32C1214.68,-212.52 843.16,-181.11 693.32,-168.45"/>
<polygon fill="black" stroke="black" points="693.61,-164.96 683.35,-167.6 693.02,-171.93 693.61,-164.96"/>
</g>
<!-- :feature:main -->
<g id="node9" class="node">
<title>:feature:main</title>
<ellipse fill="none" stroke="black" cx="1823.89" cy="-90" rx="73.39" ry="18"/>
<text text-anchor="middle" x="1823.89" y="-86.3" font-family="Times,serif" font-size="14.00">:feature:main</text>
</g>
<!-- :app:shared&#45;&gt;:feature:main -->
<g id="edge9" class="edge">
<title>:app:shared&#45;&gt;:feature:main</title>
<path fill="none" stroke="black" d="M2398.37,-157.15C2294.96,-150.39 2083.98,-134.51 1906.89,-108 1900.25,-107 1893.33,-105.82 1886.45,-104.55"/>
<polygon fill="black" stroke="black" points="1886.91,-101.08 1876.43,-102.64 1885.6,-107.96 1886.91,-101.08"/>
</g>
<!-- :feature:lmu&#45;windows&#45;connection -->
<g id="node10" class="node">
<title>:feature:lmu&#45;windows&#45;connection</title>
<ellipse fill="none" stroke="black" cx="2079.89" cy="-90" rx="164.37" ry="18"/>
<text text-anchor="middle" x="2079.89" y="-86.3" font-family="Times,serif" font-size="14.00">:feature:lmu&#45;windows&#45;connection</text>
</g>
<!-- :app:shared&#45;&gt;:feature:lmu&#45;windows&#45;connection -->
<g id="edge10" class="edge">
<title>:app:shared&#45;&gt;:feature:lmu&#45;windows&#45;connection</title>
<path fill="none" stroke="black" d="M2408.78,-151.27C2347.2,-139.98 2244.68,-121.2 2170.45,-107.59"/>
<polygon fill="black" stroke="black" points="2170.63,-104.07 2160.17,-105.71 2169.37,-110.96 2170.63,-104.07"/>
</g>
<!-- :feature:gt7&#45;ps5&#45;connection -->
<g id="node11" class="node">
<title>:feature:gt7&#45;ps5&#45;connection</title>
<ellipse fill="none" stroke="black" cx="462.89" cy="-90" rx="138.38" ry="18"/>
<text text-anchor="middle" x="462.89" y="-86.3" font-family="Times,serif" font-size="14.00">:feature:gt7&#45;ps5&#45;connection</text>
</g>
<!-- :app:shared&#45;&gt;:feature:gt7&#45;ps5&#45;connection -->
<g id="edge11" class="edge">
<title>:app:shared&#45;&gt;:feature:gt7&#45;ps5&#45;connection</title>
<path fill="none" stroke="black" d="M2396.21,-161.15C2156.79,-161.28 1308.34,-157.95 610.89,-108 596.95,-107 582.31,-105.67 567.87,-104.18"/>
<polygon fill="black" stroke="black" points="568.23,-100.7 557.92,-103.13 567.5,-107.66 568.23,-100.7"/>
</g>
<!-- :feature:server&#45;connection -->
<g id="node12" class="node">
<title>:feature:server&#45;connection</title>
<ellipse fill="none" stroke="black" cx="752.89" cy="-90" rx="133.48" ry="18"/>
<text text-anchor="middle" x="752.89" y="-86.3" font-family="Times,serif" font-size="14.00">:feature:server&#45;connection</text>
</g>
<!-- :app:shared&#45;&gt;:feature:server&#45;connection -->
<g id="edge12" class="edge">
<title>:app:shared&#45;&gt;:feature:server&#45;connection</title>
<path fill="none" stroke="black" d="M2396.1,-160.78C2180.48,-159.64 1475.71,-152.51 894.89,-108 881.87,-107 868.21,-105.7 854.71,-104.25"/>
<polygon fill="black" stroke="black" points="854.76,-100.74 844.44,-103.12 854,-107.7 854.76,-100.74"/>
</g>
<!-- :feature:lmu&#45;windows&#45;narrator -->
<g id="node13" class="node">
<title>:feature:lmu&#45;windows&#45;narrator</title>
<ellipse fill="none" stroke="black" cx="3793.89" cy="-90" rx="153.27" ry="18"/>
<text text-anchor="middle" x="3793.89" y="-86.3" font-family="Times,serif" font-size="14.00">:feature:lmu&#45;windows&#45;narrator</text>
</g>
<!-- :app:shared&#45;&gt;:feature:lmu&#45;windows&#45;narrator -->
<g id="edge13" class="edge">
<title>:app:shared&#45;&gt;:feature:lmu&#45;windows&#45;narrator</title>
<path fill="none" stroke="black" d="M2526.98,-159.41C2704.41,-154.77 3211.41,-139.56 3631.89,-108 3646.7,-106.89 3662.24,-105.52 3677.6,-104.04"/>
<polygon fill="black" stroke="black" points="3678.05,-107.52 3687.66,-103.06 3677.37,-100.55 3678.05,-107.52"/>
</g>
<!-- :feature:gt7&#45;ps5&#45;narrator -->
<g id="node14" class="node">
<title>:feature:gt7&#45;ps5&#45;narrator</title>
<ellipse fill="none" stroke="black" cx="4092.89" cy="-90" rx="127.28" ry="18"/>
<text text-anchor="middle" x="4092.89" y="-86.3" font-family="Times,serif" font-size="14.00">:feature:gt7&#45;ps5&#45;narrator</text>
</g>
<!-- :app:shared&#45;&gt;:feature:gt7&#45;ps5&#45;narrator -->
<g id="edge14" class="edge">
<title>:app:shared&#45;&gt;:feature:gt7&#45;ps5&#45;narrator</title>
<path fill="none" stroke="black" d="M2527.54,-160.73C2736.51,-159.43 3404.82,-151.88 3955.89,-108 3968.55,-106.99 3981.84,-105.67 3994.96,-104.21"/>
<polygon fill="black" stroke="black" points="3995.4,-107.69 4004.94,-103.07 3994.61,-100.73 3995.4,-107.69"/>
</g>
<!-- :feature:other&#45;license&#45;detail -->
<g id="node15" class="node">
<title>:feature:other&#45;license&#45;detail</title>
<ellipse fill="none" stroke="black" cx="5856.89" cy="-90" rx="139.98" ry="18"/>
<text text-anchor="middle" x="5856.89" y="-86.3" font-family="Times,serif" font-size="14.00">:feature:other&#45;license&#45;detail</text>
</g>
<!-- :app:shared&#45;&gt;:feature:other&#45;license&#45;detail -->
<g id="edge15" class="edge">
<title>:app:shared&#45;&gt;:feature:other&#45;license&#45;detail</title>
<path fill="none" stroke="black" d="M2527.52,-160.81C2929.01,-159.5 5057.7,-150.61 5708.89,-108 5722.94,-107.08 5737.71,-105.78 5752.25,-104.31"/>
<polygon fill="black" stroke="black" points="5752.69,-107.78 5762.27,-103.27 5751.96,-100.82 5752.69,-107.78"/>
</g>
<!-- :feature:other&#45;list -->
<g id="node16" class="node">
<title>:feature:other&#45;list</title>
<ellipse fill="none" stroke="black" cx="996.89" cy="-90" rx="92.88" ry="18"/>
<text text-anchor="middle" x="996.89" y="-86.3" font-family="Times,serif" font-size="14.00">:feature:other&#45;list</text>
</g>
<!-- :app:shared&#45;&gt;:feature:other&#45;list -->
<g id="edge16" class="edge">
<title>:app:shared&#45;&gt;:feature:other&#45;list</title>
<path fill="none" stroke="black" d="M2396.03,-161.42C2198.66,-162.04 1594.99,-159.28 1097.89,-108 1089.22,-107.11 1080.16,-105.93 1071.18,-104.61"/>
<polygon fill="black" stroke="black" points="1071.52,-101.12 1061.11,-103.07 1070.47,-108.04 1071.52,-101.12"/>
</g>
<!-- :feature:other&#45;server&#45;ip&#45;detail -->
<g id="node17" class="node">
<title>:feature:other&#45;server&#45;ip&#45;detail</title>
<ellipse fill="none" stroke="black" cx="4386.89" cy="-90" rx="148.67" ry="18"/>
<text text-anchor="middle" x="4386.89" y="-86.3" font-family="Times,serif" font-size="14.00">:feature:other&#45;server&#45;ip&#45;detail</text>
</g>
<!-- :app:shared&#45;&gt;:feature:other&#45;server&#45;ip&#45;detail -->
<g id="edge17" class="edge">
<title>:app:shared&#45;&gt;:feature:other&#45;server&#45;ip&#45;detail</title>
<path fill="none" stroke="black" d="M2527.77,-160.86C2760.54,-159.96 3566,-153.54 4228.89,-108 4243.79,-106.98 4259.46,-105.63 4274.9,-104.13"/>
<polygon fill="black" stroke="black" points="4275.4,-107.6 4285,-103.13 4274.71,-100.63 4275.4,-107.6"/>
</g>
<!-- :feature:other&#45;console&#45;ip&#45;detail -->
<g id="node18" class="node">
<title>:feature:other&#45;console&#45;ip&#45;detail</title>
<ellipse fill="none" stroke="black" cx="4706.89" cy="-90" rx="153.27" ry="18"/>
<text text-anchor="middle" x="4706.89" y="-86.3" font-family="Times,serif" font-size="14.00">:feature:other&#45;console&#45;ip&#45;detail</text>
</g>
<!-- :app:shared&#45;&gt;:feature:other&#45;console&#45;ip&#45;detail -->
<g id="edge18" class="edge">
<title>:app:shared&#45;&gt;:feature:other&#45;console&#45;ip&#45;detail</title>
<path fill="none" stroke="black" d="M2527.64,-161.22C2785.38,-161.68 3751.63,-159.63 4544.89,-108 4560.17,-107.01 4576.23,-105.67 4592.06,-104.19"/>
<polygon fill="black" stroke="black" points="4592.8,-107.63 4602.42,-103.19 4592.13,-100.66 4592.8,-107.63"/>
</g>
<!-- :feature:other&#45;readout&#45;start&#45;sound&#45;detail -->
<g id="node19" class="node">
<title>:feature:other&#45;readout&#45;start&#45;sound&#45;detail</title>
<ellipse fill="none" stroke="black" cx="1306.89" cy="-90" rx="199.56" ry="18"/>
<text text-anchor="middle" x="1306.89" y="-86.3" font-family="Times,serif" font-size="14.00">:feature:other&#45;readout&#45;start&#45;sound&#45;detail</text>
</g>
<!-- :app:shared&#45;&gt;:feature:other&#45;readout&#45;start&#45;sound&#45;detail -->
<g id="edge19" class="edge">
<title>:app:shared&#45;&gt;:feature:other&#45;readout&#45;start&#45;sound&#45;detail</title>
<path fill="none" stroke="black" d="M2397.91,-157.97C2245.23,-150.63 1847.59,-130.78 1515.89,-108 1496.78,-106.69 1476.7,-105.2 1456.85,-103.66"/>
<polygon fill="black" stroke="black" points="1457.06,-100.16 1446.82,-102.87 1456.52,-107.14 1457.06,-100.16"/>
</g>
<!-- :feature:other&#45;volume&#45;detail -->
<g id="node20" class="node">
<title>:feature:other&#45;volume&#45;detail</title>
<ellipse fill="none" stroke="black" cx="5018.89" cy="-90" rx="141.07" ry="18"/>
<text text-anchor="middle" x="5018.89" y="-86.3" font-family="Times,serif" font-size="14.00">:feature:other&#45;volume&#45;detail</text>
</g>
<!-- :app:shared&#45;&gt;:feature:other&#45;volume&#45;detail -->
<g id="edge20" class="edge">
<title>:app:shared&#45;&gt;:feature:other&#45;volume&#45;detail</title>
<path fill="none" stroke="black" d="M2527.38,-160.36C2863.21,-156.98 4394.65,-140.03 4868.89,-108 4883.02,-107.05 4897.87,-105.74 4912.5,-104.27"/>
<polygon fill="black" stroke="black" points="4913,-107.73 4922.58,-103.22 4912.28,-100.77 4913,-107.73"/>
</g>
<!-- :feature:readout&#45;list -->
<g id="node21" class="node">
<title>:feature:readout&#45;list</title>
<ellipse fill="none" stroke="black" cx="1628.89" cy="-90" rx="103.98" ry="18"/>
<text text-anchor="middle" x="1628.89" y="-86.3" font-family="Times,serif" font-size="14.00">:feature:readout&#45;list</text>
</g>
<!-- :app:shared&#45;&gt;:feature:readout&#45;list -->
<g id="edge21" class="edge">
<title>:app:shared&#45;&gt;:feature:readout&#45;list</title>
<path fill="none" stroke="black" d="M2397.69,-157.91C2271.68,-151.49 1983.23,-135 1741.89,-108 1732.21,-106.92 1722.08,-105.62 1712.03,-104.24"/>
<polygon fill="black" stroke="black" points="1712.42,-100.76 1702.03,-102.83 1711.45,-107.69 1712.42,-100.76"/>
</g>
<!-- :feature:lmu&#45;windows&#45;readout&#45;vehicle&#45;approach&#45;detail -->
<g id="node22" class="node">
<title>:feature:lmu&#45;windows&#45;readout&#45;vehicle&#45;approach&#45;detail</title>
<ellipse fill="none" stroke="black" cx="5438.89" cy="-90" rx="260.75" ry="18"/>
<text text-anchor="middle" x="5438.89" y="-86.3" font-family="Times,serif" font-size="14.00">:feature:lmu&#45;windows&#45;readout&#45;vehicle&#45;approach&#45;detail</text>
</g>
<!-- :app:shared&#45;&gt;:feature:lmu&#45;windows&#45;readout&#45;vehicle&#45;approach&#45;detail -->
<g id="edge22" class="edge">
<title>:app:shared&#45;&gt;:feature:lmu&#45;windows&#45;readout&#45;vehicle&#45;approach&#45;detail</title>
<path fill="none" stroke="black" d="M2527.63,-160.76C2829.76,-159.45 4115.39,-151.46 5168.89,-108 5195.74,-106.89 5224.08,-105.43 5251.9,-103.83"/>
<polygon fill="black" stroke="black" points="5252.34,-107.31 5262.12,-103.23 5251.94,-100.32 5252.34,-107.31"/>
</g>
<!-- :feature:lmu&#45;windows&#45;readout&#45;flag&#45;detail -->
<g id="node23" class="node">
<title>:feature:lmu&#45;windows&#45;readout&#45;flag&#45;detail</title>
<ellipse fill="none" stroke="black" cx="2461.89" cy="-90" rx="199.56" ry="18"/>
<text text-anchor="middle" x="2461.89" y="-86.3" font-family="Times,serif" font-size="14.00">:feature:lmu&#45;windows&#45;readout&#45;flag&#45;detail</text>
</g>
<!-- :app:shared&#45;&gt;:feature:lmu&#45;windows&#45;readout&#45;flag&#45;detail -->
<g id="edge23" class="edge">
<title>:app:shared&#45;&gt;:feature:lmu&#45;windows&#45;readout&#45;flag&#45;detail</title>
<path fill="none" stroke="black" d="M2461.89,-143.7C2461.89,-135.98 2461.89,-126.71 2461.89,-118.11"/>
<polygon fill="black" stroke="black" points="2465.39,-118.1 2461.89,-108.1 2458.39,-118.1 2465.39,-118.1"/>
</g>
<!-- :feature:lmu&#45;windows&#45;readout&#45;vehicle&#45;damage&#45;detail -->
<g id="node24" class="node">
<title>:feature:lmu&#45;windows&#45;readout&#45;vehicle&#45;damage&#45;detail</title>
<ellipse fill="none" stroke="black" cx="2933.89" cy="-90" rx="254.55" ry="18"/>
<text text-anchor="middle" x="2933.89" y="-86.3" font-family="Times,serif" font-size="14.00">:feature:lmu&#45;windows&#45;readout&#45;vehicle&#45;damage&#45;detail</text>
</g>
<!-- :app:shared&#45;&gt;:feature:lmu&#45;windows&#45;readout&#45;vehicle&#45;damage&#45;detail -->
<g id="edge24" class="edge">
<title>:app:shared&#45;&gt;:feature:lmu&#45;windows&#45;readout&#45;vehicle&#45;damage&#45;detail</title>
<path fill="none" stroke="black" d="M2518.36,-152.63C2592.45,-141.64 2724.23,-122.09 2819.56,-107.96"/>
<polygon fill="black" stroke="black" points="2820.16,-111.41 2829.54,-106.48 2819.13,-104.48 2820.16,-111.41"/>
</g>
<!-- :feature:gt7&#45;ps5&#45;readout&#45;my&#45;bestlap&#45;detail -->
<g id="node25" class="node">
<title>:feature:gt7&#45;ps5&#45;readout&#45;my&#45;bestlap&#45;detail</title>
<ellipse fill="none" stroke="black" cx="3414.89" cy="-90" rx="207.96" ry="18"/>
<text text-anchor="middle" x="3414.89" y="-86.3" font-family="Times,serif" font-size="14.00">:feature:gt7&#45;ps5&#45;readout&#45;my&#45;bestlap&#45;detail</text>
</g>
<!-- :app:shared&#45;&gt;:feature:gt7&#45;ps5&#45;readout&#45;my&#45;bestlap&#45;detail -->
<g id="edge25" class="edge">
<title>:app:shared&#45;&gt;:feature:gt7&#45;ps5&#45;readout&#45;my&#45;bestlap&#45;detail</title>
<path fill="none" stroke="black" d="M2524.91,-156.6C2652.14,-147.68 2948.78,-126.73 3197.89,-108 3217.07,-106.56 3237.2,-105.02 3257.15,-103.47"/>
<polygon fill="black" stroke="black" points="3257.54,-106.95 3267.24,-102.69 3257,-99.98 3257.54,-106.95"/>
</g>
<!-- :core:data&#45;&gt;:core:domain -->
<g id="edge27" class="edge">
<title>:core:data&#45;&gt;:core:domain</title>
<path fill="none" stroke="black" d="M587.15,-149.53C579.13,-147.53 570.78,-145.59 562.89,-144 450.79,-121.46 236.36,-154.15 315.89,-72 370.44,-15.65 1547.82,-17.08 1870.66,-18.53"/>
<polygon fill="black" stroke="black" points="1870.85,-22.04 1880.87,-18.58 1870.88,-15.04 1870.85,-22.04"/>
</g>
<!-- :app:desktopApp -->
<g id="node6" class="node">
<title>:app:desktopApp</title>
<ellipse fill="none" stroke="black" cx="432.89" cy="-234" rx="88.28" ry="18"/>
<text text-anchor="middle" x="432.89" y="-230.3" font-family="Times,serif" font-size="14.00">:app:desktopApp</text>
</g>
<!-- :app:desktopApp&#45;&gt;:server -->
<g id="edge8" class="edge">
<title>:app:desktopApp&#45;&gt;:server</title>
<path fill="none" stroke="black" d="M393.4,-217.81C363.12,-206.16 321.49,-190.15 291.04,-178.44"/>
<polygon fill="black" stroke="black" points="292.17,-175.13 281.58,-174.8 289.66,-181.66 292.17,-175.13"/>
</g>
<!-- :app:desktopApp&#45;&gt;:app:shared -->
<g id="edge4" class="edge">
<title>:app:desktopApp&#45;&gt;:app:shared</title>
<path fill="none" stroke="black" d="M519.1,-230.03C854.81,-218.44 2071.66,-176.46 2386.9,-165.59"/>
<polygon fill="black" stroke="black" points="2387.41,-169.07 2397.29,-165.23 2387.17,-162.08 2387.41,-169.07"/>
</g>
<!-- :app:desktopApp&#45;&gt;:core:data -->
<g id="edge5" class="edge">
<title>:app:desktopApp&#45;&gt;:core:data</title>
<path fill="none" stroke="black" d="M474.94,-217.98C506.64,-206.66 550.09,-191.14 582.75,-179.48"/>
<polygon fill="black" stroke="black" points="584.27,-182.65 592.51,-175.99 581.92,-176.06 584.27,-182.65"/>
</g>
<!-- :core:lmu&#45;windows&#45;data -->
<g id="node7" class="node">
<title>:core:lmu&#45;windows&#45;data</title>
<ellipse fill="none" stroke="black" cx="432.89" cy="-162" rx="120.78" ry="18"/>
<text text-anchor="middle" x="432.89" y="-158.3" font-family="Times,serif" font-size="14.00">:core:lmu&#45;windows&#45;data</text>
</g>
<!-- :app:desktopApp&#45;&gt;:core:lmu&#45;windows&#45;data -->
<g id="edge6" class="edge">
<title>:app:desktopApp&#45;&gt;:core:lmu&#45;windows&#45;data</title>
<path fill="none" stroke="black" d="M432.89,-215.7C432.89,-207.98 432.89,-198.71 432.89,-190.11"/>
<polygon fill="black" stroke="black" points="436.39,-190.1 432.89,-180.1 429.39,-190.1 436.39,-190.1"/>
</g>
<!-- :core:gt7&#45;ps5&#45;data -->
<g id="node8" class="node">
<title>:core:gt7&#45;ps5&#45;data</title>
<ellipse fill="none" stroke="black" cx="94.89" cy="-162" rx="94.78" ry="18"/>
<text text-anchor="middle" x="94.89" y="-158.3" font-family="Times,serif" font-size="14.00">:core:gt7&#45;ps5&#45;data</text>
</g>
<!-- :app:desktopApp&#45;&gt;:core:gt7&#45;ps5&#45;data -->
<g id="edge7" class="edge">
<title>:app:desktopApp&#45;&gt;:core:gt7&#45;ps5&#45;data</title>
<path fill="none" stroke="black" d="M373.24,-220.65C315.53,-208.69 227.99,-190.56 166.53,-177.84"/>
<polygon fill="black" stroke="black" points="167.02,-174.36 156.51,-175.76 165.6,-181.22 167.02,-174.36"/>
</g>
<!-- :core:lmu&#45;windows&#45;data&#45;&gt;:core:domain -->
<g id="edge29" class="edge">
<title>:core:lmu&#45;windows&#45;data&#45;&gt;:core:domain</title>
<path fill="none" stroke="black" d="M354.18,-148.32C331.26,-140.57 308.7,-128.09 294.89,-108 285.83,-94.81 283.76,-83.49 294.89,-72 322.6,-43.39 1541.83,-24.62 1870.82,-20.07"/>
<polygon fill="black" stroke="black" points="1871.27,-23.57 1881.22,-19.93 1871.18,-16.57 1871.27,-23.57"/>
</g>
<!-- :core:gt7&#45;ps5&#45;data&#45;&gt;:core:domain -->
<g id="edge28" class="edge">
<title>:core:gt7&#45;ps5&#45;data&#45;&gt;:core:domain</title>
<path fill="none" stroke="black" d="M116.86,-144.36C146.55,-122.96 202,-86.81 255.89,-72 412.29,-29.03 1554.79,-20.77 1870.98,-19.3"/>
<polygon fill="black" stroke="black" points="1871.01,-22.8 1880.99,-19.25 1870.97,-15.8 1871.01,-22.8"/>
</g>
<!-- :feature:main&#45;&gt;:core:domain -->
<g id="edge44" class="edge">
<title>:feature:main&#45;&gt;:core:domain</title>
<path fill="none" stroke="black" d="M1852.62,-73.29C1870.82,-63.34 1894.55,-50.36 1914.25,-39.59"/>
<polygon fill="black" stroke="black" points="1916.17,-42.53 1923.26,-34.66 1912.81,-36.38 1916.17,-42.53"/>
</g>
<!-- :feature:lmu&#45;windows&#45;connection&#45;&gt;:core:domain -->
<g id="edge35" class="edge">
<title>:feature:lmu&#45;windows&#45;connection&#45;&gt;:core:domain</title>
<path fill="none" stroke="black" d="M2049.23,-72.23C2031.31,-62.43 2008.54,-49.98 1989.54,-39.59"/>
<polygon fill="black" stroke="black" points="1991,-36.4 1980.55,-34.67 1987.64,-42.54 1991,-36.4"/>
</g>
<!-- :feature:gt7&#45;ps5&#45;connection&#45;&gt;:core:domain -->
<g id="edge30" class="edge">
<title>:feature:gt7&#45;ps5&#45;connection&#45;&gt;:core:domain</title>
<path fill="none" stroke="black" d="M558.72,-76.93C576.07,-75.05 594,-73.3 610.89,-72 1087.78,-35.24 1662.15,-23.35 1871,-20.09"/>
<polygon fill="black" stroke="black" points="1871.32,-23.58 1881.27,-19.93 1871.21,-16.58 1871.32,-23.58"/>
</g>
<!-- :feature:server&#45;connection&#45;&gt;:core:domain -->
<g id="edge55" class="edge">
<title>:feature:server&#45;connection&#45;&gt;:core:domain</title>
<path fill="none" stroke="black" d="M845.22,-77.01C861.74,-75.13 878.81,-73.36 894.89,-72 1258.84,-41.13 1694.92,-26.24 1871.65,-21.13"/>
<polygon fill="black" stroke="black" points="1872,-24.62 1881.9,-20.84 1871.8,-17.63 1872,-24.62"/>
</g>
<!-- :feature:lmu&#45;windows&#45;narrator&#45;&gt;:core:domain -->
<g id="edge36" class="edge">
<title>:feature:lmu&#45;windows&#45;narrator&#45;&gt;:core:domain</title>
<path fill="none" stroke="black" d="M3688.98,-76.86C3670,-74.99 3650.37,-73.26 3631.89,-72 3018.04,-30.17 2275.72,-21.29 2032.96,-19.46"/>
<polygon fill="black" stroke="black" points="2032.83,-15.96 2022.81,-19.39 2032.78,-22.96 2032.83,-15.96"/>
</g>
<!-- :core:designsystem -->
<g id="node27" class="node">
<title>:core:designsystem</title>
<ellipse fill="none" stroke="black" cx="4239.89" cy="-18" rx="100.98" ry="18"/>
<text text-anchor="middle" x="4239.89" y="-14.3" font-family="Times,serif" font-size="14.00">:core:designsystem</text>
</g>
<!-- :feature:lmu&#45;windows&#45;narrator&#45;&gt;:core:designsystem -->
<g id="edge37" class="edge">
<title>:feature:lmu&#45;windows&#45;narrator&#45;&gt;:core:designsystem</title>
<path fill="none" stroke="black" d="M3881.74,-75.21C3961.52,-62.69 4078.36,-44.35 4156.67,-32.06"/>
<polygon fill="black" stroke="black" points="4157.64,-35.45 4166.98,-30.44 4156.56,-28.54 4157.64,-35.45"/>
</g>
<!-- :feature:gt7&#45;ps5&#45;narrator&#45;&gt;:core:domain -->
<g id="edge31" class="edge">
<title>:feature:gt7&#45;ps5&#45;narrator&#45;&gt;:core:domain</title>
<path fill="none" stroke="black" d="M4005.32,-76.85C3988.92,-74.94 3971.9,-73.2 3955.89,-72 3572.43,-43.21 2357.81,-24.63 2032.63,-20.09"/>
<polygon fill="black" stroke="black" points="2032.4,-16.58 2022.35,-19.94 2032.3,-23.58 2032.4,-16.58"/>
</g>
<!-- :feature:gt7&#45;ps5&#45;narrator&#45;&gt;:core:designsystem -->
<g id="edge32" class="edge">
<title>:feature:gt7&#45;ps5&#45;narrator&#45;&gt;:core:designsystem</title>
<path fill="none" stroke="black" d="M4127.36,-72.59C4148.15,-62.69 4174.81,-49.99 4196.96,-39.44"/>
<polygon fill="black" stroke="black" points="4198.63,-42.53 4206.15,-35.07 4195.62,-36.21 4198.63,-42.53"/>
</g>
<!-- :feature:other&#45;license&#45;detail&#45;&gt;:core:designsystem -->
<g id="edge47" class="edge">
<title>:feature:other&#45;license&#45;detail&#45;&gt;:core:designsystem</title>
<path fill="none" stroke="black" d="M5761.06,-76.88C5743.72,-75.01 5725.78,-73.27 5708.89,-72 5202.44,-33.84 4595.62,-22.98 4350.56,-20.04"/>
<polygon fill="black" stroke="black" points="4350.27,-16.53 4340.23,-19.91 4350.19,-23.53 4350.27,-16.53"/>
</g>
<!-- :feature:other&#45;list&#45;&gt;:core:domain -->
<g id="edge48" class="edge">
<title>:feature:other&#45;list&#45;&gt;:core:domain</title>
<path fill="none" stroke="black" d="M1061.68,-77.06C1073.68,-75.14 1086.14,-73.35 1097.89,-72 1381.37,-39.44 1720.25,-25.9 1871.79,-21.17"/>
<polygon fill="black" stroke="black" points="1872.05,-24.67 1881.93,-20.86 1871.83,-17.67 1872.05,-24.67"/>
</g>
<!-- :feature:other&#45;server&#45;ip&#45;detail&#45;&gt;:core:domain -->
<g id="edge50" class="edge">
<title>:feature:other&#45;server&#45;ip&#45;detail&#45;&gt;:core:domain</title>
<path fill="none" stroke="black" d="M4285.43,-76.81C4266.66,-74.92 4247.2,-73.2 4228.89,-72 3788.47,-43.23 2384.7,-24.33 2032.59,-19.97"/>
<polygon fill="black" stroke="black" points="2032.53,-16.47 2022.49,-19.84 2032.44,-23.47 2032.53,-16.47"/>
</g>
<!-- :feature:other&#45;server&#45;ip&#45;detail&#45;&gt;:core:designsystem -->
<g id="edge51" class="edge">
<title>:feature:other&#45;server&#45;ip&#45;detail&#45;&gt;:core:designsystem</title>
<path fill="none" stroke="black" d="M4352.05,-72.41C4331.25,-62.51 4304.68,-49.85 4282.62,-39.34"/>
<polygon fill="black" stroke="black" points="4284,-36.13 4273.47,-34.99 4280.99,-42.45 4284,-36.13"/>
</g>
<!-- :feature:other&#45;console&#45;ip&#45;detail&#45;&gt;:core:domain -->
<g id="edge45" class="edge">
<title>:feature:other&#45;console&#45;ip&#45;detail&#45;&gt;:core:domain</title>
<path fill="none" stroke="black" d="M4602.43,-76.73C4583.31,-74.86 4563.52,-73.17 4544.89,-72 4038.61,-40.32 2414.79,-23.35 2032.87,-19.74"/>
<polygon fill="black" stroke="black" points="2032.77,-16.24 2022.74,-19.64 2032.7,-23.23 2032.77,-16.24"/>
</g>
<!-- :feature:other&#45;console&#45;ip&#45;detail&#45;&gt;:core:designsystem -->
<g id="edge46" class="edge">
<title>:feature:other&#45;console&#45;ip&#45;detail&#45;&gt;:core:designsystem</title>
<path fill="none" stroke="black" d="M4616.3,-75.42C4531.89,-62.77 4407,-44.05 4324.55,-31.69"/>
<polygon fill="black" stroke="black" points="4324.87,-28.2 4314.47,-30.18 4323.84,-35.12 4324.87,-28.2"/>
</g>
<!-- :feature:other&#45;readout&#45;start&#45;sound&#45;detail&#45;&gt;:core:domain -->
<g id="edge49" class="edge">
<title>:feature:other&#45;readout&#45;start&#45;sound&#45;detail&#45;&gt;:core:domain</title>
<path fill="none" stroke="black" d="M1428.97,-75.75C1561.43,-61.38 1768.62,-38.89 1878.2,-27"/>
<polygon fill="black" stroke="black" points="1878.61,-30.47 1888.17,-25.92 1877.85,-23.51 1878.61,-30.47"/>
</g>
<!-- :feature:other&#45;volume&#45;detail&#45;&gt;:core:domain -->
<g id="edge52" class="edge">
<title>:feature:other&#45;volume&#45;detail&#45;&gt;:core:domain</title>
<path fill="none" stroke="black" d="M4922.99,-76.76C4905.04,-74.86 4886.41,-73.15 4868.89,-72 4294.97,-34.35 2443.66,-21.79 2033.05,-19.43"/>
<polygon fill="black" stroke="black" points="2032.78,-15.93 2022.76,-19.38 2032.74,-22.93 2032.78,-15.93"/>
</g>
<!-- :feature:other&#45;volume&#45;detail&#45;&gt;:core:designsystem -->
<g id="edge53" class="edge">
<title>:feature:other&#45;volume&#45;detail&#45;&gt;:core:designsystem</title>
<path fill="none" stroke="black" d="M4918.88,-77.26C4902.2,-75.42 4885.06,-73.6 4868.89,-72 4682.86,-53.62 4465.47,-36.21 4341.11,-26.63"/>
<polygon fill="black" stroke="black" points="4341.09,-23.11 4330.85,-25.84 4340.55,-30.09 4341.09,-23.11"/>
</g>
<!-- :feature:readout&#45;list&#45;&gt;:core:domain -->
<g id="edge54" class="edge">
<title>:feature:readout&#45;list&#45;&gt;:core:domain</title>
<path fill="none" stroke="black" d="M1691.17,-75.5C1748.41,-63.1 1832.81,-44.81 1889.94,-32.43"/>
<polygon fill="black" stroke="black" points="1890.9,-35.8 1899.93,-30.26 1889.41,-28.96 1890.9,-35.8"/>
</g>
<!-- :feature:lmu&#45;windows&#45;readout&#45;vehicle&#45;approach&#45;detail&#45;&gt;:core:domain -->
<g id="edge40" class="edge">
<title>:feature:lmu&#45;windows&#45;readout&#45;vehicle&#45;approach&#45;detail&#45;&gt;:core:domain</title>
<path fill="none" stroke="black" d="M5262.49,-76.71C5231.32,-74.88 5199.16,-73.2 5168.89,-72 3920.19,-22.43 2397.07,-19.02 2032.86,-18.95"/>
<polygon fill="black" stroke="black" points="2032.68,-15.45 2022.68,-18.95 2032.68,-22.45 2032.68,-15.45"/>
</g>
<!-- :feature:lmu&#45;windows&#45;readout&#45;vehicle&#45;approach&#45;detail&#45;&gt;:core:designsystem -->
<g id="edge41" class="edge">
<title>:feature:lmu&#45;windows&#45;readout&#45;vehicle&#45;approach&#45;detail&#45;&gt;:core:designsystem</title>
<path fill="none" stroke="black" d="M5254.45,-77.24C5225.81,-75.46 5196.55,-73.66 5168.89,-72 4869.87,-54.06 4516.62,-34.3 4344.59,-24.77"/>
<polygon fill="black" stroke="black" points="4344.7,-21.27 4334.52,-24.21 4344.31,-28.26 4344.7,-21.27"/>
</g>
<!-- :feature:lmu&#45;windows&#45;readout&#45;flag&#45;detail&#45;&gt;:core:domain -->
<g id="edge38" class="edge">
<title>:feature:lmu&#45;windows&#45;readout&#45;flag&#45;detail&#45;&gt;:core:domain</title>
<path fill="none" stroke="black" d="M2357.15,-74.62C2257.18,-60.9 2109.33,-40.61 2022.58,-28.7"/>
<polygon fill="black" stroke="black" points="2022.95,-25.22 2012.57,-27.33 2022,-32.16 2022.95,-25.22"/>
</g>
<!-- :feature:lmu&#45;windows&#45;readout&#45;flag&#45;detail&#45;&gt;:core:designsystem -->
<g id="edge39" class="edge">
<title>:feature:lmu&#45;windows&#45;readout&#45;flag&#45;detail&#45;&gt;:core:designsystem</title>
<path fill="none" stroke="black" d="M2598.61,-76.89C2622.36,-75.05 2646.83,-73.33 2669.89,-72 3217.67,-40.39 3874.12,-25.73 4130.12,-20.9"/>
<polygon fill="black" stroke="black" points="4130.24,-24.4 4140.17,-20.71 4130.1,-17.4 4130.24,-24.4"/>
</g>
<!-- :feature:lmu&#45;windows&#45;readout&#45;vehicle&#45;damage&#45;detail&#45;&gt;:core:domain -->
<g id="edge42" class="edge">
<title>:feature:lmu&#45;windows&#45;readout&#45;vehicle&#45;damage&#45;detail&#45;&gt;:core:domain</title>
<path fill="none" stroke="black" d="M2761.72,-76.73C2546.15,-61.36 2186.13,-35.7 2029.09,-24.5"/>
<polygon fill="black" stroke="black" points="2029.26,-21.01 2019.04,-23.79 2028.76,-27.99 2029.26,-21.01"/>
</g>
<!-- :feature:lmu&#45;windows&#45;readout&#45;vehicle&#45;damage&#45;detail&#45;&gt;:core:designsystem -->
<g id="edge43" class="edge">
<title>:feature:lmu&#45;windows&#45;readout&#45;vehicle&#45;damage&#45;detail&#45;&gt;:core:designsystem</title>
<path fill="none" stroke="black" d="M3112.8,-77.15C3141.26,-75.36 3170.38,-73.59 3197.89,-72 3539.71,-52.3 3944.84,-32.8 4133.43,-23.94"/>
<polygon fill="black" stroke="black" points="4133.79,-27.43 4143.62,-23.46 4133.46,-20.43 4133.79,-27.43"/>
</g>
<!-- :feature:gt7&#45;ps5&#45;readout&#45;my&#45;bestlap&#45;detail&#45;&gt;:core:domain -->
<g id="edge33" class="edge">
<title>:feature:gt7&#45;ps5&#45;readout&#45;my&#45;bestlap&#45;detail&#45;&gt;:core:domain</title>
<path fill="none" stroke="black" d="M3270.79,-76.99C3246.46,-75.17 3221.47,-73.42 3197.89,-72 2757.9,-45.42 2229.71,-27.6 2031.87,-21.41"/>
<polygon fill="black" stroke="black" points="2031.95,-17.91 2021.85,-21.1 2031.74,-24.91 2031.95,-17.91"/>
</g>
<!-- :feature:gt7&#45;ps5&#45;readout&#45;my&#45;bestlap&#45;detail&#45;&gt;:core:designsystem -->
<g id="edge34" class="edge">
<title>:feature:gt7&#45;ps5&#45;readout&#45;my&#45;bestlap&#45;detail&#45;&gt;:core:designsystem</title>
<path fill="none" stroke="black" d="M3557.65,-76.89C3724.29,-62.75 3995.51,-39.74 4140.71,-27.42"/>
<polygon fill="black" stroke="black" points="4141.28,-30.88 4150.94,-26.55 4140.68,-23.91 4141.28,-30.88"/>
</g>
<!-- :app:webApp -->
<g id="node26" class="node">
<title>:app:webApp</title>
<ellipse fill="none" stroke="black" cx="2461.89" cy="-234" rx="70.69" ry="18"/>
<text text-anchor="middle" x="2461.89" y="-230.3" font-family="Times,serif" font-size="14.00">:app:webApp</text>
</g>
<!-- :app:webApp&#45;&gt;:app:shared -->
<g id="edge26" class="edge">
<title>:app:webApp&#45;&gt;:app:shared</title>
<path fill="none" stroke="black" d="M2461.89,-215.7C2461.89,-207.98 2461.89,-198.71 2461.89,-190.11"/>
<polygon fill="black" stroke="black" points="2465.39,-190.1 2461.89,-180.1 2458.39,-190.1 2465.39,-190.1"/>
</g>
</g>
</svg>
