<?xml version="1.0" encoding="UTF-8" standalone="no"?>
<!DOCTYPE svg PUBLIC "-//W3C//DTD SVG 1.1//EN"
 "http://www.w3.org/Graphics/SVG/1.1/DTD/svg11.dtd">
<!-- Generated by graphviz version 2.43.0 (0)
 -->
<!-- Title: G Pages: 1 -->
<svg width="1545pt" height="260pt"
 viewBox="0.00 0.00 1544.98 260.00" xmlns="http://www.w3.org/2000/svg" xmlns:xlink="http://www.w3.org/1999/xlink">
<g id="graph0" class="graph" transform="scale(1 1) rotate(0) translate(4 256)">
<title>G</title>
<polygon fill="white" stroke="transparent" points="-4,4 -4,-256 1540.98,-256 1540.98,4 -4,4"/>
<!-- :server -->
<g id="node1" class="node">
<title>:server</title>
<ellipse fill="none" stroke="black" cx="796.59" cy="-90" rx="43.59" ry="18"/>
<text text-anchor="middle" x="796.59" y="-86.3" font-family="Times,serif" font-size="14.00">:server</text>
</g>
<!-- :core:domain -->
<g id="node2" class="node">
<title>:core:domain</title>
<ellipse fill="none" stroke="black" cx="944.59" cy="-18" rx="70.69" ry="18"/>
<text text-anchor="middle" x="944.59" y="-14.3" font-family="Times,serif" font-size="14.00">:core:domain</text>
</g>
<!-- :server&#45;&gt;:core:domain -->
<g id="edge1" class="edge">
<title>:server&#45;&gt;:core:domain</title>
<path fill="none" stroke="black" d="M824.08,-76C846.32,-65.48 877.98,-50.51 903.27,-38.54"/>
<polygon fill="black" stroke="black" points="905.07,-41.56 912.62,-34.12 902.08,-35.23 905.07,-41.56"/>
</g>
<!-- :app:androidApp -->
<g id="node3" class="node">
<title>:app:androidApp</title>
<ellipse fill="none" stroke="black" cx="1178.59" cy="-234" rx="87.18" ry="18"/>
<text text-anchor="middle" x="1178.59" y="-230.3" font-family="Times,serif" font-size="14.00">:app:androidApp</text>
</g>
<!-- :app:shared -->
<g id="node4" class="node">
<title>:app:shared</title>
<ellipse fill="none" stroke="black" cx="982.59" cy="-162" rx="65.79" ry="18"/>
<text text-anchor="middle" x="982.59" y="-158.3" font-family="Times,serif" font-size="14.00">:app:shared</text>
</g>
<!-- :app:androidApp&#45;&gt;:app:shared -->
<g id="edge2" class="edge">
<title>:app:androidApp&#45;&gt;:app:shared</title>
<path fill="none" stroke="black" d="M1137.02,-218.15C1105.96,-207.06 1063.43,-191.87 1030.86,-180.24"/>
<polygon fill="black" stroke="black" points="1031.7,-176.82 1021.1,-176.75 1029.34,-183.41 1031.7,-176.82"/>
</g>
<!-- :core:data -->
<g id="node5" class="node">
<title>:core:data</title>
<ellipse fill="none" stroke="black" cx="1448.59" cy="-162" rx="57.39" ry="18"/>
<text text-anchor="middle" x="1448.59" y="-158.3" font-family="Times,serif" font-size="14.00">:core:data</text>
</g>
<!-- :app:androidApp&#45;&gt;:core:data -->
<g id="edge3" class="edge">
<title>:app:androidApp&#45;&gt;:core:data</title>
<path fill="none" stroke="black" d="M1230.65,-219.5C1278.29,-207.15 1348.43,-188.97 1396.18,-176.59"/>
<polygon fill="black" stroke="black" points="1397.21,-179.94 1406.01,-174.04 1395.45,-173.16 1397.21,-179.94"/>
</g>
<!-- :feature:lmu&#45;connection -->
<g id="node7" class="node">
<title>:feature:lmu&#45;connection</title>
<ellipse fill="none" stroke="black" cx="1169.59" cy="-90" rx="120.78" ry="18"/>
<text text-anchor="middle" x="1169.59" y="-86.3" font-family="Times,serif" font-size="14.00">:feature:lmu&#45;connection</text>
</g>
<!-- :app:shared&#45;&gt;:feature:lmu&#45;connection -->
<g id="edge7" class="edge">
<title>:app:shared&#45;&gt;:feature:lmu&#45;connection</title>
<path fill="none" stroke="black" d="M1019.98,-147C1047.87,-136.56 1086.34,-122.17 1117.28,-110.58"/>
<polygon fill="black" stroke="black" points="1118.9,-113.71 1127.03,-106.93 1116.44,-107.16 1118.9,-113.71"/>
</g>
<!-- :feature:narrator -->
<g id="node8" class="node">
<title>:feature:narrator</title>
<ellipse fill="none" stroke="black" cx="1397.59" cy="-90" rx="89.08" ry="18"/>
<text text-anchor="middle" x="1397.59" y="-86.3" font-family="Times,serif" font-size="14.00">:feature:narrator</text>
</g>
<!-- :app:shared&#45;&gt;:feature:narrator -->
<g id="edge8" class="edge">
<title>:app:shared&#45;&gt;:feature:narrator</title>
<path fill="none" stroke="black" d="M1037.3,-151.96C1100.5,-141.49 1207.59,-123.67 1299.59,-108 1306.99,-106.74 1314.7,-105.42 1322.4,-104.09"/>
<polygon fill="black" stroke="black" points="1323.24,-107.5 1332.5,-102.35 1322.05,-100.6 1323.24,-107.5"/>
</g>
<!-- :feature:other -->
<g id="node9" class="node">
<title>:feature:other</title>
<ellipse fill="none" stroke="black" cx="659.59" cy="-90" rx="75.29" ry="18"/>
<text text-anchor="middle" x="659.59" y="-86.3" font-family="Times,serif" font-size="14.00">:feature:other</text>
</g>
<!-- :app:shared&#45;&gt;:feature:other -->
<g id="edge9" class="edge">
<title>:app:shared&#45;&gt;:feature:other</title>
<path fill="none" stroke="black" d="M932.83,-150.22C876.59,-138.03 784.89,-118.16 723.42,-104.83"/>
<polygon fill="black" stroke="black" points="723.96,-101.37 713.45,-102.67 722.48,-108.21 723.96,-101.37"/>
</g>
<!-- :feature:readout -->
<g id="node10" class="node">
<title>:feature:readout</title>
<ellipse fill="none" stroke="black" cx="944.59" cy="-90" rx="86.38" ry="18"/>
<text text-anchor="middle" x="944.59" y="-86.3" font-family="Times,serif" font-size="14.00">:feature:readout</text>
</g>
<!-- :app:shared&#45;&gt;:feature:readout -->
<g id="edge10" class="edge">
<title>:app:shared&#45;&gt;:feature:readout</title>
<path fill="none" stroke="black" d="M973.39,-144.05C969.02,-136.01 963.7,-126.2 958.83,-117.23"/>
<polygon fill="black" stroke="black" points="961.82,-115.39 953.97,-108.28 955.66,-118.73 961.82,-115.39"/>
</g>
<!-- :feature:readout&#45;vehicle&#45;approach -->
<g id="node11" class="node">
<title>:feature:readout&#45;vehicle&#45;approach</title>
<ellipse fill="none" stroke="black" cx="398.59" cy="-90" rx="167.87" ry="18"/>
<text text-anchor="middle" x="398.59" y="-86.3" font-family="Times,serif" font-size="14.00">:feature:readout&#45;vehicle&#45;approach</text>
</g>
<!-- :app:shared&#45;&gt;:feature:readout&#45;vehicle&#45;approach -->
<g id="edge11" class="edge">
<title>:app:shared&#45;&gt;:feature:readout&#45;vehicle&#45;approach</title>
<path fill="none" stroke="black" d="M923.65,-153.94C828.58,-142.54 639.58,-119.89 516.17,-105.09"/>
<polygon fill="black" stroke="black" points="516.27,-101.58 505.93,-103.87 515.44,-108.53 516.27,-101.58"/>
</g>
<!-- :feature:readout&#45;flag -->
<g id="node12" class="node">
<title>:feature:readout&#45;flag</title>
<ellipse fill="none" stroke="black" cx="106.59" cy="-90" rx="106.68" ry="18"/>
<text text-anchor="middle" x="106.59" y="-86.3" font-family="Times,serif" font-size="14.00">:feature:readout&#45;flag</text>
</g>
<!-- :app:shared&#45;&gt;:feature:readout&#45;flag -->
<g id="edge12" class="edge">
<title>:app:shared&#45;&gt;:feature:readout&#45;flag</title>
<path fill="none" stroke="black" d="M918.3,-158.2C787.07,-152.12 478.99,-135.95 221.59,-108 211.81,-106.94 201.58,-105.66 191.44,-104.3"/>
<polygon fill="black" stroke="black" points="191.72,-100.8 181.33,-102.9 190.76,-107.74 191.72,-100.8"/>
</g>
<!-- :core:data&#45;&gt;:core:domain -->
<g id="edge14" class="edge">
<title>:core:data&#45;&gt;:core:domain</title>
<path fill="none" stroke="black" d="M1468.07,-144.72C1488.6,-125.64 1515.45,-93.86 1495.59,-72 1464.59,-37.88 1170.47,-25.13 1025.11,-20.89"/>
<polygon fill="black" stroke="black" points="1025,-17.38 1014.9,-20.6 1024.8,-24.38 1025,-17.38"/>
</g>
<!-- :app:desktopApp -->
<g id="node6" class="node">
<title>:app:desktopApp</title>
<ellipse fill="none" stroke="black" cx="1448.59" cy="-234" rx="88.28" ry="18"/>
<text text-anchor="middle" x="1448.59" y="-230.3" font-family="Times,serif" font-size="14.00">:app:desktopApp</text>
</g>
<!-- :app:desktopApp&#45;&gt;:core:domain -->
<g id="edge6" class="edge">
<title>:app:desktopApp&#45;&gt;:core:domain</title>
<path fill="none" stroke="black" d="M1478.91,-217.03C1492.48,-208.12 1507.09,-195.64 1514.59,-180 1522.74,-163 1525.79,-86.09 1512.59,-72 1479.94,-37.15 1174.08,-24.73 1025.22,-20.72"/>
<polygon fill="black" stroke="black" points="1024.87,-17.21 1014.78,-20.45 1024.68,-24.21 1024.87,-17.21"/>
</g>
<!-- :app:desktopApp&#45;&gt;:app:shared -->
<g id="edge4" class="edge">
<title>:app:desktopApp&#45;&gt;:app:shared</title>
<path fill="none" stroke="black" d="M1379.83,-222.67C1290.82,-209.3 1136.74,-186.16 1048.93,-172.97"/>
<polygon fill="black" stroke="black" points="1049.23,-169.47 1038.82,-171.45 1048.19,-176.39 1049.23,-169.47"/>
</g>
<!-- :app:desktopApp&#45;&gt;:core:data -->
<g id="edge5" class="edge">
<title>:app:desktopApp&#45;&gt;:core:data</title>
<path fill="none" stroke="black" d="M1448.59,-215.7C1448.59,-207.98 1448.59,-198.71 1448.59,-190.11"/>
<polygon fill="black" stroke="black" points="1452.09,-190.1 1448.59,-180.1 1445.09,-190.1 1452.09,-190.1"/>
</g>
<!-- :feature:lmu&#45;connection&#45;&gt;:core:domain -->
<g id="edge15" class="edge">
<title>:feature:lmu&#45;connection&#45;&gt;:core:domain</title>
<path fill="none" stroke="black" d="M1119.93,-73.55C1083.58,-62.24 1034.34,-46.92 997.29,-35.4"/>
<polygon fill="black" stroke="black" points="998.26,-32.03 987.67,-32.4 996.18,-38.72 998.26,-32.03"/>
</g>
<!-- :feature:narrator&#45;&gt;:core:domain -->
<g id="edge16" class="edge">
<title>:feature:narrator&#45;&gt;:core:domain</title>
<path fill="none" stroke="black" d="M1333.05,-77.58C1321.9,-75.67 1310.42,-73.75 1299.59,-72 1201.08,-56.1 1086.92,-39.36 1015.22,-29.04"/>
<polygon fill="black" stroke="black" points="1015.35,-25.53 1004.96,-27.57 1014.36,-32.46 1015.35,-25.53"/>
</g>
<!-- :feature:other&#45;&gt;:core:domain -->
<g id="edge17" class="edge">
<title>:feature:other&#45;&gt;:core:domain</title>
<path fill="none" stroke="black" d="M710.21,-76.57C759.35,-64.5 833.9,-46.19 885.68,-33.47"/>
<polygon fill="black" stroke="black" points="886.51,-36.87 895.39,-31.08 884.85,-30.07 886.51,-36.87"/>
</g>
<!-- :feature:readout&#45;&gt;:core:domain -->
<g id="edge18" class="edge">
<title>:feature:readout&#45;&gt;:core:domain</title>
<path fill="none" stroke="black" d="M944.59,-71.7C944.59,-63.98 944.59,-54.71 944.59,-46.11"/>
<polygon fill="black" stroke="black" points="948.09,-46.1 944.59,-36.1 941.09,-46.1 948.09,-46.1"/>
</g>
<!-- :feature:readout&#45;vehicle&#45;approach&#45;&gt;:core:domain -->
<g id="edge21" class="edge">
<title>:feature:readout&#45;vehicle&#45;approach&#45;&gt;:core:domain</title>
<path fill="none" stroke="black" d="M501.61,-75.79C610,-61.9 777.75,-40.39 872.68,-28.22"/>
<polygon fill="black" stroke="black" points="873.29,-31.67 882.76,-26.93 872.4,-24.73 873.29,-31.67"/>
</g>
<!-- :core:designsystem -->
<g id="node14" class="node">
<title>:core:designsystem</title>
<ellipse fill="none" stroke="black" cx="252.59" cy="-18" rx="100.98" ry="18"/>
<text text-anchor="middle" x="252.59" y="-14.3" font-family="Times,serif" font-size="14.00">:core:designsystem</text>
</g>
<!-- :feature:readout&#45;vehicle&#45;approach&#45;&gt;:core:designsystem -->
<g id="edge22" class="edge">
<title>:feature:readout&#45;vehicle&#45;approach&#45;&gt;:core:designsystem</title>
<path fill="none" stroke="black" d="M363.62,-72.23C343.03,-62.36 316.83,-49.8 295.05,-39.36"/>
<polygon fill="black" stroke="black" points="296.55,-36.2 286.02,-35.03 293.52,-42.51 296.55,-36.2"/>
</g>
<!-- :feature:readout&#45;flag&#45;&gt;:core:domain -->
<g id="edge19" class="edge">
<title>:feature:readout&#45;flag&#45;&gt;:core:domain</title>
<path fill="none" stroke="black" d="M181.34,-77.14C194.72,-75.24 208.55,-73.44 221.59,-72 455.07,-46.22 732.4,-29.86 865.54,-22.89"/>
<polygon fill="black" stroke="black" points="865.85,-26.38 875.65,-22.36 865.48,-19.38 865.85,-26.38"/>
</g>
<!-- :feature:readout&#45;flag&#45;&gt;:core:designsystem -->
<g id="edge20" class="edge">
<title>:feature:readout&#45;flag&#45;&gt;:core:designsystem</title>
<path fill="none" stroke="black" d="M140.45,-72.76C161.16,-62.83 187.84,-50.04 209.98,-39.43"/>
<polygon fill="black" stroke="black" points="211.66,-42.51 219.16,-35.03 208.63,-36.19 211.66,-42.51"/>
</g>
<!-- :app:webApp -->
<g id="node13" class="node">
<title>:app:webApp</title>
<ellipse fill="none" stroke="black" cx="982.59" cy="-234" rx="70.69" ry="18"/>
<text text-anchor="middle" x="982.59" y="-230.3" font-family="Times,serif" font-size="14.00">:app:webApp</text>
</g>
<!-- :app:webApp&#45;&gt;:app:shared -->
<g id="edge13" class="edge">
<title>:app:webApp&#45;&gt;:app:shared</title>
<path fill="none" stroke="black" d="M982.59,-215.7C982.59,-207.98 982.59,-198.71 982.59,-190.11"/>
<polygon fill="black" stroke="black" points="986.09,-190.1 982.59,-180.1 979.09,-190.1 986.09,-190.1"/>
</g>
</g>
</svg>
