<?xml version="1.0" encoding="UTF-8" standalone="no"?>
<!DOCTYPE svg PUBLIC "-//W3C//DTD SVG 1.1//EN"
 "http://www.w3.org/Graphics/SVG/1.1/DTD/svg11.dtd">
<!-- Generated by graphviz version 2.43.0 (0)
 -->
<!-- Title: G Pages: 1 -->
<svg width="2139pt" height="260pt"
 viewBox="0.00 0.00 2138.50 260.00" xmlns="http://www.w3.org/2000/svg" xmlns:xlink="http://www.w3.org/1999/xlink">
<g id="graph0" class="graph" transform="scale(1 1) rotate(0) translate(4 256)">
<title>G</title>
<polygon fill="white" stroke="transparent" points="-4,4 -4,-256 2134.5,-256 2134.5,4 -4,4"/>
<!-- :server -->
<g id="node1" class="node">
<title>:server</title>
<ellipse fill="none" stroke="black" cx="2047.59" cy="-90" rx="43.59" ry="18"/>
<text text-anchor="middle" x="2047.59" y="-86.3" font-family="Times,serif" font-size="14.00">:server</text>
</g>
<!-- :core:domain -->
<g id="node2" class="node">
<title>:core:domain</title>
<ellipse fill="none" stroke="black" cx="1486.59" cy="-18" rx="70.69" ry="18"/>
<text text-anchor="middle" x="1486.59" y="-14.3" font-family="Times,serif" font-size="14.00">:core:domain</text>
</g>
<!-- :server&#45;&gt;:core:domain -->
<g id="edge1" class="edge">
<title>:server&#45;&gt;:core:domain</title>
<path fill="none" stroke="black" d="M2015.64,-77.58C2008.77,-75.46 2001.49,-73.45 1994.59,-72 1845.26,-40.61 1667.14,-27.47 1566.41,-22.23"/>
<polygon fill="black" stroke="black" points="1566.48,-18.73 1556.31,-21.72 1566.12,-25.72 1566.48,-18.73"/>
</g>
<!-- :app:androidApp -->
<g id="node3" class="node">
<title>:app:androidApp</title>
<ellipse fill="none" stroke="black" cx="1611.59" cy="-234" rx="87.18" ry="18"/>
<text text-anchor="middle" x="1611.59" y="-230.3" font-family="Times,serif" font-size="14.00">:app:androidApp</text>
</g>
<!-- :app:shared -->
<g id="node4" class="node">
<title>:app:shared</title>
<ellipse fill="none" stroke="black" cx="1380.59" cy="-162" rx="65.79" ry="18"/>
<text text-anchor="middle" x="1380.59" y="-158.3" font-family="Times,serif" font-size="14.00">:app:shared</text>
</g>
<!-- :app:androidApp&#45;&gt;:app:shared -->
<g id="edge2" class="edge">
<title>:app:androidApp&#45;&gt;:app:shared</title>
<path fill="none" stroke="black" d="M1564.57,-218.75C1526.26,-207.14 1472.22,-190.77 1432.62,-178.77"/>
<polygon fill="black" stroke="black" points="1433.47,-175.37 1422.89,-175.82 1431.44,-182.07 1433.47,-175.37"/>
</g>
<!-- :core:data -->
<g id="node5" class="node">
<title>:core:data</title>
<ellipse fill="none" stroke="black" cx="2018.59" cy="-162" rx="57.39" ry="18"/>
<text text-anchor="middle" x="2018.59" y="-158.3" font-family="Times,serif" font-size="14.00">:core:data</text>
</g>
<!-- :app:androidApp&#45;&gt;:core:data -->
<g id="edge3" class="edge">
<title>:app:androidApp&#45;&gt;:core:data</title>
<path fill="none" stroke="black" d="M1676.53,-221.83C1754.45,-208.43 1883.97,-186.15 1959.29,-173.2"/>
<polygon fill="black" stroke="black" points="1960.28,-176.58 1969.55,-171.44 1959.1,-169.68 1960.28,-176.58"/>
</g>
<!-- :feature:lmu&#45;connection -->
<g id="node7" class="node">
<title>:feature:lmu&#45;connection</title>
<ellipse fill="none" stroke="black" cx="1046.59" cy="-90" rx="120.78" ry="18"/>
<text text-anchor="middle" x="1046.59" y="-86.3" font-family="Times,serif" font-size="14.00">:feature:lmu&#45;connection</text>
</g>
<!-- :app:shared&#45;&gt;:feature:lmu&#45;connection -->
<g id="edge7" class="edge">
<title>:app:shared&#45;&gt;:feature:lmu&#45;connection</title>
<path fill="none" stroke="black" d="M1330.23,-150.44C1275.39,-138.95 1187.04,-120.44 1123.51,-107.12"/>
<polygon fill="black" stroke="black" points="1124.05,-103.66 1113.54,-105.03 1122.61,-110.51 1124.05,-103.66"/>
</g>
<!-- :feature:narrator -->
<g id="node8" class="node">
<title>:feature:narrator</title>
<ellipse fill="none" stroke="black" cx="1274.59" cy="-90" rx="89.08" ry="18"/>
<text text-anchor="middle" x="1274.59" y="-86.3" font-family="Times,serif" font-size="14.00">:feature:narrator</text>
</g>
<!-- :app:shared&#45;&gt;:feature:narrator -->
<g id="edge8" class="edge">
<title>:app:shared&#45;&gt;:feature:narrator</title>
<path fill="none" stroke="black" d="M1356.54,-145.12C1342.11,-135.59 1323.55,-123.33 1307.74,-112.89"/>
<polygon fill="black" stroke="black" points="1309.56,-109.9 1299.28,-107.31 1305.7,-115.74 1309.56,-109.9"/>
</g>
<!-- :feature:other&#45;detail -->
<g id="node9" class="node">
<title>:feature:other&#45;detail</title>
<ellipse fill="none" stroke="black" cx="1486.59" cy="-90" rx="104.78" ry="18"/>
<text text-anchor="middle" x="1486.59" y="-86.3" font-family="Times,serif" font-size="14.00">:feature:other&#45;detail</text>
</g>
<!-- :app:shared&#45;&gt;:feature:other&#45;detail -->
<g id="edge9" class="edge">
<title>:app:shared&#45;&gt;:feature:other&#45;detail</title>
<path fill="none" stroke="black" d="M1404.64,-145.12C1418.97,-135.65 1437.37,-123.5 1453.1,-113.11"/>
<polygon fill="black" stroke="black" points="1455.11,-115.98 1461.53,-107.55 1451.25,-110.14 1455.11,-115.98"/>
</g>
<!-- :feature:other&#45;list -->
<g id="node10" class="node">
<title>:feature:other&#45;list</title>
<ellipse fill="none" stroke="black" cx="1702.59" cy="-90" rx="92.88" ry="18"/>
<text text-anchor="middle" x="1702.59" y="-86.3" font-family="Times,serif" font-size="14.00">:feature:other&#45;list</text>
</g>
<!-- :app:shared&#45;&gt;:feature:other&#45;list -->
<g id="edge10" class="edge">
<title>:app:shared&#45;&gt;:feature:other&#45;list</title>
<path fill="none" stroke="black" d="M1430.55,-150.14C1484.93,-138.32 1572.27,-119.33 1633.27,-106.07"/>
<polygon fill="black" stroke="black" points="1634.18,-109.45 1643.21,-103.91 1632.69,-102.61 1634.18,-109.45"/>
</g>
<!-- :feature:readout -->
<g id="node11" class="node">
<title>:feature:readout</title>
<ellipse fill="none" stroke="black" cx="1899.59" cy="-90" rx="86.38" ry="18"/>
<text text-anchor="middle" x="1899.59" y="-86.3" font-family="Times,serif" font-size="14.00">:feature:readout</text>
</g>
<!-- :app:shared&#45;&gt;:feature:readout -->
<g id="edge11" class="edge">
<title>:app:shared&#45;&gt;:feature:readout</title>
<path fill="none" stroke="black" d="M1440.41,-154.53C1522.64,-145.4 1675.14,-127.66 1804.59,-108 1812.02,-106.87 1819.76,-105.62 1827.48,-104.31"/>
<polygon fill="black" stroke="black" points="1828.32,-107.72 1837.58,-102.58 1827.13,-100.82 1828.32,-107.72"/>
</g>
<!-- :feature:readout&#45;vehicle&#45;approach -->
<g id="node12" class="node">
<title>:feature:readout&#45;vehicle&#45;approach</title>
<ellipse fill="none" stroke="black" cx="739.59" cy="-90" rx="167.87" ry="18"/>
<text text-anchor="middle" x="739.59" y="-86.3" font-family="Times,serif" font-size="14.00">:feature:readout&#45;vehicle&#45;approach</text>
</g>
<!-- :app:shared&#45;&gt;:feature:readout&#45;vehicle&#45;approach -->
<g id="edge12" class="edge">
<title>:app:shared&#45;&gt;:feature:readout&#45;vehicle&#45;approach</title>
<path fill="none" stroke="black" d="M1320.86,-154.48C1216.79,-143.11 1000.2,-119.46 862.8,-104.45"/>
<polygon fill="black" stroke="black" points="862.95,-100.95 852.63,-103.34 862.19,-107.91 862.95,-100.95"/>
</g>
<!-- :feature:readout&#45;flag -->
<g id="node13" class="node">
<title>:feature:readout&#45;flag</title>
<ellipse fill="none" stroke="black" cx="106.59" cy="-90" rx="106.68" ry="18"/>
<text text-anchor="middle" x="106.59" y="-86.3" font-family="Times,serif" font-size="14.00">:feature:readout&#45;flag</text>
</g>
<!-- :app:shared&#45;&gt;:feature:readout&#45;flag -->
<g id="edge13" class="edge">
<title>:app:shared&#45;&gt;:feature:readout&#45;flag</title>
<path fill="none" stroke="black" d="M1315.13,-160.29C1138.47,-157.88 637.28,-147.78 222.59,-108 212.3,-107.01 201.53,-105.75 190.88,-104.36"/>
<polygon fill="black" stroke="black" points="191.09,-100.85 180.72,-102.99 190.16,-107.79 191.09,-100.85"/>
</g>
<!-- :feature:readout&#45;vehicle&#45;damage -->
<g id="node14" class="node">
<title>:feature:readout&#45;vehicle&#45;damage</title>
<ellipse fill="none" stroke="black" cx="392.59" cy="-90" rx="161.37" ry="18"/>
<text text-anchor="middle" x="392.59" y="-86.3" font-family="Times,serif" font-size="14.00">:feature:readout&#45;vehicle&#45;damage</text>
</g>
<!-- :app:shared&#45;&gt;:feature:readout&#45;vehicle&#45;damage -->
<g id="edge14" class="edge">
<title>:app:shared&#45;&gt;:feature:readout&#45;vehicle&#45;damage</title>
<path fill="none" stroke="black" d="M1316.9,-157.63C1179.17,-150.19 843.42,-131.13 562.59,-108 547.56,-106.76 531.79,-105.34 516.16,-103.87"/>
<polygon fill="black" stroke="black" points="516.22,-100.36 505.93,-102.89 515.55,-107.33 516.22,-100.36"/>
</g>
<!-- :core:data&#45;&gt;:core:domain -->
<g id="edge16" class="edge">
<title>:core:data&#45;&gt;:core:domain</title>
<path fill="none" stroke="black" d="M2053.92,-147.78C2071.3,-139.26 2090.62,-126.31 2100.59,-108 2108.24,-93.95 2111.41,-83.79 2100.59,-72 2065.25,-33.47 1725.94,-22.88 1567.44,-20.03"/>
<polygon fill="black" stroke="black" points="1567.32,-16.52 1557.26,-19.85 1567.2,-23.52 1567.32,-16.52"/>
</g>
<!-- :app:desktopApp -->
<g id="node6" class="node">
<title>:app:desktopApp</title>
<ellipse fill="none" stroke="black" cx="2018.59" cy="-234" rx="88.28" ry="18"/>
<text text-anchor="middle" x="2018.59" y="-230.3" font-family="Times,serif" font-size="14.00">:app:desktopApp</text>
</g>
<!-- :app:desktopApp&#45;&gt;:core:domain -->
<g id="edge6" class="edge">
<title>:app:desktopApp&#45;&gt;:core:domain</title>
<path fill="none" stroke="black" d="M2042.05,-216.54C2083.22,-185.75 2160.23,-118.38 2117.59,-72 2081.07,-32.28 1729.49,-22.31 1567.54,-19.82"/>
<polygon fill="black" stroke="black" points="1567.2,-16.32 1557.15,-19.67 1567.1,-23.32 1567.2,-16.32"/>
</g>
<!-- :app:desktopApp&#45;&gt;:app:shared -->
<g id="edge4" class="edge">
<title>:app:desktopApp&#45;&gt;:app:shared</title>
<path fill="none" stroke="black" d="M1942.9,-224.7C1818.29,-211.02 1571.75,-183.97 1450.82,-170.71"/>
<polygon fill="black" stroke="black" points="1450.9,-167.19 1440.57,-169.58 1450.13,-174.15 1450.9,-167.19"/>
</g>
<!-- :app:desktopApp&#45;&gt;:core:data -->
<g id="edge5" class="edge">
<title>:app:desktopApp&#45;&gt;:core:data</title>
<path fill="none" stroke="black" d="M2018.59,-215.7C2018.59,-207.98 2018.59,-198.71 2018.59,-190.11"/>
<polygon fill="black" stroke="black" points="2022.09,-190.1 2018.59,-180.1 2015.09,-190.1 2022.09,-190.1"/>
</g>
<!-- :feature:lmu&#45;connection&#45;&gt;:core:domain -->
<g id="edge17" class="edge">
<title>:feature:lmu&#45;connection&#45;&gt;:core:domain</title>
<path fill="none" stroke="black" d="M1126.02,-76.36C1209.29,-63.12 1338.79,-42.51 1417.83,-29.94"/>
<polygon fill="black" stroke="black" points="1418.83,-33.32 1428.16,-28.3 1417.73,-26.41 1418.83,-33.32"/>
</g>
<!-- :feature:narrator&#45;&gt;:core:domain -->
<g id="edge18" class="edge">
<title>:feature:narrator&#45;&gt;:core:domain</title>
<path fill="none" stroke="black" d="M1319.03,-74.33C1352.99,-63.11 1399.85,-47.64 1435.39,-35.91"/>
<polygon fill="black" stroke="black" points="1436.69,-39.16 1445.09,-32.7 1434.49,-32.52 1436.69,-39.16"/>
</g>
<!-- :feature:other&#45;detail&#45;&gt;:core:domain -->
<g id="edge19" class="edge">
<title>:feature:other&#45;detail&#45;&gt;:core:domain</title>
<path fill="none" stroke="black" d="M1486.59,-71.7C1486.59,-63.98 1486.59,-54.71 1486.59,-46.11"/>
<polygon fill="black" stroke="black" points="1490.09,-46.1 1486.59,-36.1 1483.09,-46.1 1490.09,-46.1"/>
</g>
<!-- :feature:other&#45;list&#45;&gt;:core:domain -->
<g id="edge20" class="edge">
<title>:feature:other&#45;list&#45;&gt;:core:domain</title>
<path fill="none" stroke="black" d="M1657.05,-74.24C1622.31,-62.98 1574.45,-47.47 1538.28,-35.75"/>
<polygon fill="black" stroke="black" points="1539,-32.31 1528.41,-32.55 1536.85,-38.97 1539,-32.31"/>
</g>
<!-- :feature:readout&#45;&gt;:core:domain -->
<g id="edge21" class="edge">
<title>:feature:readout&#45;&gt;:core:domain</title>
<path fill="none" stroke="black" d="M1836.5,-77.6C1825.85,-75.71 1814.91,-73.78 1804.59,-72 1718.47,-57.12 1619.1,-40.67 1554.68,-30.11"/>
<polygon fill="black" stroke="black" points="1555.09,-26.63 1544.65,-28.46 1553.96,-33.54 1555.09,-26.63"/>
</g>
<!-- :feature:readout&#45;vehicle&#45;approach&#45;&gt;:core:domain -->
<g id="edge24" class="edge">
<title>:feature:readout&#45;vehicle&#45;approach&#45;&gt;:core:domain</title>
<path fill="none" stroke="black" d="M860.03,-77.38C878.96,-75.57 898.3,-73.73 916.59,-72 1093.68,-55.26 1301.76,-36.02 1410.94,-25.96"/>
<polygon fill="black" stroke="black" points="1411.55,-29.42 1421.19,-25.02 1410.91,-22.45 1411.55,-29.42"/>
</g>
<!-- :core:designsystem -->
<g id="node16" class="node">
<title>:core:designsystem</title>
<ellipse fill="none" stroke="black" cx="392.59" cy="-18" rx="100.98" ry="18"/>
<text text-anchor="middle" x="392.59" y="-14.3" font-family="Times,serif" font-size="14.00">:core:designsystem</text>
</g>
<!-- :feature:readout&#45;vehicle&#45;approach&#45;&gt;:core:designsystem -->
<g id="edge25" class="edge">
<title>:feature:readout&#45;vehicle&#45;approach&#45;&gt;:core:designsystem</title>
<path fill="none" stroke="black" d="M664.3,-73.81C605.7,-61.99 524.81,-45.67 466.55,-33.92"/>
<polygon fill="black" stroke="black" points="467.17,-30.47 456.67,-31.93 465.79,-37.34 467.17,-30.47"/>
</g>
<!-- :feature:readout&#45;flag&#45;&gt;:core:domain -->
<g id="edge22" class="edge">
<title>:feature:readout&#45;flag&#45;&gt;:core:domain</title>
<path fill="none" stroke="black" d="M180.4,-77.01C194.38,-75.08 208.91,-73.29 222.59,-72 668.05,-30.13 1204.93,-21.34 1405.68,-19.49"/>
<polygon fill="black" stroke="black" points="1405.87,-22.99 1415.84,-19.4 1405.81,-15.99 1405.87,-22.99"/>
</g>
<!-- :feature:readout&#45;flag&#45;&gt;:core:designsystem -->
<g id="edge23" class="edge">
<title>:feature:readout&#45;flag&#45;&gt;:core:designsystem</title>
<path fill="none" stroke="black" d="M164.47,-74.83C211.19,-63.4 276.99,-47.29 325.92,-35.32"/>
<polygon fill="black" stroke="black" points="326.9,-38.68 335.78,-32.91 325.23,-31.88 326.9,-38.68"/>
</g>
<!-- :feature:readout&#45;vehicle&#45;damage&#45;&gt;:core:domain -->
<g id="edge26" class="edge">
<title>:feature:readout&#45;vehicle&#45;damage&#45;&gt;:core:domain</title>
<path fill="none" stroke="black" d="M505.01,-77.08C524.21,-75.24 543.96,-73.47 562.59,-72 874.71,-47.45 1246.98,-29.57 1407.03,-22.43"/>
<polygon fill="black" stroke="black" points="1407.43,-25.91 1417.27,-21.97 1407.12,-18.92 1407.43,-25.91"/>
</g>
<!-- :feature:readout&#45;vehicle&#45;damage&#45;&gt;:core:designsystem -->
<g id="edge27" class="edge">
<title>:feature:readout&#45;vehicle&#45;damage&#45;&gt;:core:designsystem</title>
<path fill="none" stroke="black" d="M392.59,-71.7C392.59,-63.98 392.59,-54.71 392.59,-46.11"/>
<polygon fill="black" stroke="black" points="396.09,-46.1 392.59,-36.1 389.09,-46.1 396.09,-46.1"/>
</g>
<!-- :app:webApp -->
<g id="node15" class="node">
<title>:app:webApp</title>
<ellipse fill="none" stroke="black" cx="1380.59" cy="-234" rx="70.69" ry="18"/>
<text text-anchor="middle" x="1380.59" y="-230.3" font-family="Times,serif" font-size="14.00">:app:webApp</text>
</g>
<!-- :app:webApp&#45;&gt;:app:shared -->
<g id="edge15" class="edge">
<title>:app:webApp&#45;&gt;:app:shared</title>
<path fill="none" stroke="black" d="M1380.59,-215.7C1380.59,-207.98 1380.59,-198.71 1380.59,-190.11"/>
<polygon fill="black" stroke="black" points="1384.09,-190.1 1380.59,-180.1 1377.09,-190.1 1384.09,-190.1"/>
</g>
</g>
</svg>
