<?xml version="1.0" encoding="UTF-8" standalone="no"?>
<!DOCTYPE svg PUBLIC "-//W3C//DTD SVG 1.1//EN"
 "http://www.w3.org/Graphics/SVG/1.1/DTD/svg11.dtd">
<!-- Generated by graphviz version 2.43.0 (0)
 -->
<!-- Title: G Pages: 1 -->
<svg width="5683pt" height="260pt"
 viewBox="0.00 0.00 5682.63 260.00" xmlns="http://www.w3.org/2000/svg" xmlns:xlink="http://www.w3.org/1999/xlink">
<g id="graph0" class="graph" transform="scale(1 1) rotate(0) translate(4 256)">
<title>G</title>
<polygon fill="white" stroke="transparent" points="-4,4 -4,-256 5678.63,-256 5678.63,4 -4,4"/>
<!-- :server -->
<g id="node1" class="node">
<title>:server</title>
<ellipse fill="none" stroke="black" cx="250.89" cy="-162" rx="43.59" ry="18"/>
<text text-anchor="middle" x="250.89" y="-158.3" font-family="Times,serif" font-size="14.00">:server</text>
</g>
<!-- :core:domain -->
<g id="node2" class="node">
<title>:core:domain</title>
<ellipse fill="none" stroke="black" cx="1908.89" cy="-18" rx="70.69" ry="18"/>
<text text-anchor="middle" x="1908.89" y="-14.3" font-family="Times,serif" font-size="14.00">:core:domain</text>
</g>
<!-- :server&#45;&gt;:core:domain -->
<g id="edge1" class="edge">
<title>:server&#45;&gt;:core:domain</title>
<path fill="none" stroke="black" d="M251.79,-143.89C253.9,-123.05 260.89,-88.57 283.89,-72 347.05,-26.51 1508.07,-20.06 1827.91,-19.15"/>
<polygon fill="black" stroke="black" points="1828.04,-22.65 1838.03,-19.12 1828.02,-15.65 1828.04,-22.65"/>
</g>
<!-- :app:androidApp -->
<g id="node3" class="node">
<title>:app:androidApp</title>
<ellipse fill="none" stroke="black" cx="1332.89" cy="-234" rx="87.18" ry="18"/>
<text text-anchor="middle" x="1332.89" y="-230.3" font-family="Times,serif" font-size="14.00">:app:androidApp</text>
</g>
<!-- :app:shared -->
<g id="node4" class="node">
<title>:app:shared</title>
<ellipse fill="none" stroke="black" cx="2213.89" cy="-162" rx="65.79" ry="18"/>
<text text-anchor="middle" x="2213.89" y="-158.3" font-family="Times,serif" font-size="14.00">:app:shared</text>
</g>
<!-- :app:androidApp&#45;&gt;:app:shared -->
<g id="edge2" class="edge">
<title>:app:androidApp&#45;&gt;:app:shared</title>
<path fill="none" stroke="black" d="M1412.63,-226.66C1582.56,-213.16 1978.15,-181.73 2141.42,-168.76"/>
<polygon fill="black" stroke="black" points="2142.15,-172.21 2151.84,-167.93 2141.59,-165.23 2142.15,-172.21"/>
</g>
<!-- :core:data -->
<g id="node5" class="node">
<title>:core:data</title>
<ellipse fill="none" stroke="black" cx="628.89" cy="-162" rx="57.39" ry="18"/>
<text text-anchor="middle" x="628.89" y="-158.3" font-family="Times,serif" font-size="14.00">:core:data</text>
</g>
<!-- :app:androidApp&#45;&gt;:core:data -->
<g id="edge3" class="edge">
<title>:app:androidApp&#45;&gt;:core:data</title>
<path fill="none" stroke="black" d="M1256.21,-225.38C1116.38,-211.47 822.44,-182.25 692.72,-169.35"/>
<polygon fill="black" stroke="black" points="692.85,-165.84 682.55,-168.34 692.16,-172.81 692.85,-165.84"/>
</g>
<!-- :feature:main -->
<g id="node9" class="node">
<title>:feature:main</title>
<ellipse fill="none" stroke="black" cx="1041.89" cy="-90" rx="73.39" ry="18"/>
<text text-anchor="middle" x="1041.89" y="-86.3" font-family="Times,serif" font-size="14.00">:feature:main</text>
</g>
<!-- :app:shared&#45;&gt;:feature:main -->
<g id="edge9" class="edge">
<title>:app:shared&#45;&gt;:feature:main</title>
<path fill="none" stroke="black" d="M2148.22,-161.3C1978.32,-161.33 1510.59,-156.59 1124.89,-108 1118.03,-107.14 1110.89,-106.01 1103.8,-104.76"/>
<polygon fill="black" stroke="black" points="1103.96,-101.23 1093.49,-102.84 1102.68,-108.11 1103.96,-101.23"/>
</g>
<!-- :feature:lmu&#45;windows&#45;connection -->
<g id="node10" class="node">
<title>:feature:lmu&#45;windows&#45;connection</title>
<ellipse fill="none" stroke="black" cx="1297.89" cy="-90" rx="164.37" ry="18"/>
<text text-anchor="middle" x="1297.89" y="-86.3" font-family="Times,serif" font-size="14.00">:feature:lmu&#45;windows&#45;connection</text>
</g>
<!-- :app:shared&#45;&gt;:feature:lmu&#45;windows&#45;connection -->
<g id="edge10" class="edge">
<title>:app:shared&#45;&gt;:feature:lmu&#45;windows&#45;connection</title>
<path fill="none" stroke="black" d="M2150.33,-157.02C2022,-148.86 1722.83,-129.22 1471.89,-108 1456.36,-106.69 1440.06,-105.22 1423.93,-103.71"/>
<polygon fill="black" stroke="black" points="1424.2,-100.22 1413.91,-102.76 1423.54,-107.18 1424.2,-100.22"/>
</g>
<!-- :feature:gt7&#45;ps5&#45;connection -->
<g id="node11" class="node">
<title>:feature:gt7&#45;ps5&#45;connection</title>
<ellipse fill="none" stroke="black" cx="1618.89" cy="-90" rx="138.38" ry="18"/>
<text text-anchor="middle" x="1618.89" y="-86.3" font-family="Times,serif" font-size="14.00">:feature:gt7&#45;ps5&#45;connection</text>
</g>
<!-- :app:shared&#45;&gt;:feature:gt7&#45;ps5&#45;connection -->
<g id="edge11" class="edge">
<title>:app:shared&#45;&gt;:feature:gt7&#45;ps5&#45;connection</title>
<path fill="none" stroke="black" d="M2154.94,-154.06C2055.62,-142.38 1853.48,-118.6 1727.79,-103.81"/>
<polygon fill="black" stroke="black" points="1728.09,-100.32 1717.75,-102.63 1727.27,-107.27 1728.09,-100.32"/>
</g>
<!-- :feature:server&#45;connection -->
<g id="node12" class="node">
<title>:feature:server&#45;connection</title>
<ellipse fill="none" stroke="black" cx="1908.89" cy="-90" rx="133.48" ry="18"/>
<text text-anchor="middle" x="1908.89" y="-86.3" font-family="Times,serif" font-size="14.00">:feature:server&#45;connection</text>
</g>
<!-- :app:shared&#45;&gt;:feature:server&#45;connection -->
<g id="edge12" class="edge">
<title>:app:shared&#45;&gt;:feature:server&#45;connection</title>
<path fill="none" stroke="black" d="M2165.23,-149.83C2116.2,-138.58 2039.91,-121.07 1983.29,-108.08"/>
<polygon fill="black" stroke="black" points="1983.85,-104.61 1973.32,-105.79 1982.28,-111.43 1983.85,-104.61"/>
</g>
<!-- :feature:lmu&#45;windows&#45;narrator -->
<g id="node13" class="node">
<title>:feature:lmu&#45;windows&#45;narrator</title>
<ellipse fill="none" stroke="black" cx="2213.89" cy="-90" rx="153.27" ry="18"/>
<text text-anchor="middle" x="2213.89" y="-86.3" font-family="Times,serif" font-size="14.00">:feature:lmu&#45;windows&#45;narrator</text>
</g>
<!-- :app:shared&#45;&gt;:feature:lmu&#45;windows&#45;narrator -->
<g id="edge13" class="edge">
<title>:app:shared&#45;&gt;:feature:lmu&#45;windows&#45;narrator</title>
<path fill="none" stroke="black" d="M2213.89,-143.7C2213.89,-135.98 2213.89,-126.71 2213.89,-118.11"/>
<polygon fill="black" stroke="black" points="2217.39,-118.1 2213.89,-108.1 2210.39,-118.1 2217.39,-118.1"/>
</g>
<!-- :feature:other&#45;license&#45;detail -->
<g id="node14" class="node">
<title>:feature:other&#45;license&#45;detail</title>
<ellipse fill="none" stroke="black" cx="5534.89" cy="-90" rx="139.98" ry="18"/>
<text text-anchor="middle" x="5534.89" y="-86.3" font-family="Times,serif" font-size="14.00">:feature:other&#45;license&#45;detail</text>
</g>
<!-- :app:shared&#45;&gt;:feature:other&#45;license&#45;detail -->
<g id="edge14" class="edge">
<title>:app:shared&#45;&gt;:feature:other&#45;license&#45;detail</title>
<path fill="none" stroke="black" d="M2279.61,-160.77C2675.83,-159.26 4750.59,-149.45 5385.89,-108 5400.03,-107.08 5414.9,-105.78 5429.54,-104.3"/>
<polygon fill="black" stroke="black" points="5430.05,-107.77 5439.63,-103.26 5429.32,-100.81 5430.05,-107.77"/>
</g>
<!-- :feature:other&#45;list -->
<g id="node15" class="node">
<title>:feature:other&#45;list</title>
<ellipse fill="none" stroke="black" cx="2477.89" cy="-90" rx="92.88" ry="18"/>
<text text-anchor="middle" x="2477.89" y="-86.3" font-family="Times,serif" font-size="14.00">:feature:other&#45;list</text>
</g>
<!-- :app:shared&#45;&gt;:feature:other&#45;list -->
<g id="edge15" class="edge">
<title>:app:shared&#45;&gt;:feature:other&#45;list</title>
<path fill="none" stroke="black" d="M2259.27,-148.97C2302.35,-137.54 2367.47,-120.28 2415.44,-107.56"/>
<polygon fill="black" stroke="black" points="2416.63,-110.86 2425.4,-104.92 2414.84,-104.1 2416.63,-110.86"/>
</g>
<!-- :feature:other&#45;server&#45;ip&#45;detail -->
<g id="node16" class="node">
<title>:feature:other&#45;server&#45;ip&#45;detail</title>
<ellipse fill="none" stroke="black" cx="3009.89" cy="-90" rx="148.67" ry="18"/>
<text text-anchor="middle" x="3009.89" y="-86.3" font-family="Times,serif" font-size="14.00">:feature:other&#45;server&#45;ip&#45;detail</text>
</g>
<!-- :app:shared&#45;&gt;:feature:other&#45;server&#45;ip&#45;detail -->
<g id="edge16" class="edge">
<title>:app:shared&#45;&gt;:feature:other&#45;server&#45;ip&#45;detail</title>
<path fill="none" stroke="black" d="M2276.42,-156.31C2390.74,-147.63 2641.11,-128.09 2851.89,-108 2865.48,-106.7 2879.72,-105.27 2893.86,-103.81"/>
<polygon fill="black" stroke="black" points="2894.53,-107.26 2904.12,-102.74 2893.81,-100.3 2894.53,-107.26"/>
</g>
<!-- :feature:other&#45;readout&#45;start&#45;sound&#45;detail -->
<g id="node17" class="node">
<title>:feature:other&#45;readout&#45;start&#45;sound&#45;detail</title>
<ellipse fill="none" stroke="black" cx="524.89" cy="-90" rx="199.56" ry="18"/>
<text text-anchor="middle" x="524.89" y="-86.3" font-family="Times,serif" font-size="14.00">:feature:other&#45;readout&#45;start&#45;sound&#45;detail</text>
</g>
<!-- :app:shared&#45;&gt;:feature:other&#45;readout&#45;start&#45;sound&#45;detail -->
<g id="edge17" class="edge">
<title>:app:shared&#45;&gt;:feature:other&#45;readout&#45;start&#45;sound&#45;detail</title>
<path fill="none" stroke="black" d="M2148.56,-159.72C1941.34,-155.42 1280.28,-139.99 733.89,-108 713.98,-106.83 693.02,-105.39 672.37,-103.84"/>
<polygon fill="black" stroke="black" points="672.5,-100.34 662.27,-103.07 671.97,-107.32 672.5,-100.34"/>
</g>
<!-- :feature:other&#45;volume&#45;detail -->
<g id="node18" class="node">
<title>:feature:other&#45;volume&#45;detail</title>
<ellipse fill="none" stroke="black" cx="3317.89" cy="-90" rx="141.07" ry="18"/>
<text text-anchor="middle" x="3317.89" y="-86.3" font-family="Times,serif" font-size="14.00">:feature:other&#45;volume&#45;detail</text>
</g>
<!-- :app:shared&#45;&gt;:feature:other&#45;volume&#45;detail -->
<g id="edge18" class="edge">
<title>:app:shared&#45;&gt;:feature:other&#45;volume&#45;detail</title>
<path fill="none" stroke="black" d="M2278.47,-158.69C2432.56,-152.9 2833.79,-136.19 3167.89,-108 3181.34,-106.87 3195.45,-105.5 3209.41,-104.04"/>
<polygon fill="black" stroke="black" points="3209.96,-107.5 3219.53,-102.96 3209.22,-100.54 3209.96,-107.5"/>
</g>
<!-- :feature:readout&#45;list -->
<g id="node19" class="node">
<title>:feature:readout&#45;list</title>
<ellipse fill="none" stroke="black" cx="846.89" cy="-90" rx="103.98" ry="18"/>
<text text-anchor="middle" x="846.89" y="-86.3" font-family="Times,serif" font-size="14.00">:feature:readout&#45;list</text>
</g>
<!-- :app:shared&#45;&gt;:feature:readout&#45;list -->
<g id="edge19" class="edge">
<title>:app:shared&#45;&gt;:feature:readout&#45;list</title>
<path fill="none" stroke="black" d="M2148.11,-160.7C1961.51,-159.31 1412.95,-151.53 959.89,-108 949.97,-107.05 939.59,-105.81 929.31,-104.44"/>
<polygon fill="black" stroke="black" points="929.47,-100.93 919.09,-103.04 928.52,-107.87 929.47,-100.93"/>
</g>
<!-- :feature:lmu&#45;windows&#45;readout&#45;vehicle&#45;approach&#45;detail -->
<g id="node20" class="node">
<title>:feature:lmu&#45;windows&#45;readout&#45;vehicle&#45;approach&#45;detail</title>
<ellipse fill="none" stroke="black" cx="3737.89" cy="-90" rx="260.75" ry="18"/>
<text text-anchor="middle" x="3737.89" y="-86.3" font-family="Times,serif" font-size="14.00">:feature:lmu&#45;windows&#45;readout&#45;vehicle&#45;approach&#45;detail</text>
</g>
<!-- :app:shared&#45;&gt;:feature:lmu&#45;windows&#45;readout&#45;vehicle&#45;approach&#45;detail -->
<g id="edge20" class="edge">
<title>:app:shared&#45;&gt;:feature:lmu&#45;windows&#45;readout&#45;vehicle&#45;approach&#45;detail</title>
<path fill="none" stroke="black" d="M2278.52,-158.74C2463.77,-152.16 3012.56,-131.95 3467.89,-108 3493.26,-106.67 3519.96,-105.14 3546.3,-103.55"/>
<polygon fill="black" stroke="black" points="3546.61,-107.04 3556.38,-102.94 3546.18,-100.05 3546.61,-107.04"/>
</g>
<!-- :feature:lmu&#45;windows&#45;readout&#45;flag&#45;detail -->
<g id="node21" class="node">
<title>:feature:lmu&#45;windows&#45;readout&#45;flag&#45;detail</title>
<ellipse fill="none" stroke="black" cx="4215.89" cy="-90" rx="199.56" ry="18"/>
<text text-anchor="middle" x="4215.89" y="-86.3" font-family="Times,serif" font-size="14.00">:feature:lmu&#45;windows&#45;readout&#45;flag&#45;detail</text>
</g>
<!-- :app:shared&#45;&gt;:feature:lmu&#45;windows&#45;readout&#45;flag&#45;detail -->
<g id="edge21" class="edge">
<title>:app:shared&#45;&gt;:feature:lmu&#45;windows&#45;readout&#45;flag&#45;detail</title>
<path fill="none" stroke="black" d="M2279.51,-160.29C2514.11,-157.5 3333.16,-145.51 4007.89,-108 4027.79,-106.89 4048.74,-105.48 4069.37,-103.94"/>
<polygon fill="black" stroke="black" points="4069.75,-107.42 4079.46,-103.17 4069.23,-100.44 4069.75,-107.42"/>
</g>
<!-- :feature:lmu&#45;windows&#45;readout&#45;vehicle&#45;damage&#45;detail -->
<g id="node22" class="node">
<title>:feature:lmu&#45;windows&#45;readout&#45;vehicle&#45;damage&#45;detail</title>
<ellipse fill="none" stroke="black" cx="4687.89" cy="-90" rx="254.55" ry="18"/>
<text text-anchor="middle" x="4687.89" y="-86.3" font-family="Times,serif" font-size="14.00">:feature:lmu&#45;windows&#45;readout&#45;vehicle&#45;damage&#45;detail</text>
</g>
<!-- :app:shared&#45;&gt;:feature:lmu&#45;windows&#45;readout&#45;vehicle&#45;damage&#45;detail -->
<g id="edge22" class="edge">
<title>:app:shared&#45;&gt;:feature:lmu&#45;windows&#45;readout&#45;vehicle&#45;damage&#45;detail</title>
<path fill="none" stroke="black" d="M2279.49,-160.4C2546.5,-157.75 3577.64,-145.52 4424.89,-108 4450.63,-106.86 4477.77,-105.4 4504.45,-103.81"/>
<polygon fill="black" stroke="black" points="4504.87,-107.29 4514.65,-103.2 4504.45,-100.31 4504.87,-107.29"/>
</g>
<!-- :feature:gt7&#45;ps5&#45;readout&#45;my&#45;bestlap&#45;detail -->
<g id="node23" class="node">
<title>:feature:gt7&#45;ps5&#45;readout&#45;my&#45;bestlap&#45;detail</title>
<ellipse fill="none" stroke="black" cx="5168.89" cy="-90" rx="207.96" ry="18"/>
<text text-anchor="middle" x="5168.89" y="-86.3" font-family="Times,serif" font-size="14.00">:feature:gt7&#45;ps5&#45;readout&#45;my&#45;bestlap&#45;detail</text>
</g>
<!-- :app:shared&#45;&gt;:feature:gt7&#45;ps5&#45;readout&#45;my&#45;bestlap&#45;detail -->
<g id="edge23" class="edge">
<title>:app:shared&#45;&gt;:feature:gt7&#45;ps5&#45;readout&#45;my&#45;bestlap&#45;detail</title>
<path fill="none" stroke="black" d="M2279.63,-161.15C2583.88,-161.56 3885.81,-160.03 4951.89,-108 4973.25,-106.96 4995.77,-105.55 5017.89,-103.98"/>
<polygon fill="black" stroke="black" points="5018.3,-107.46 5028.02,-103.25 5017.79,-100.48 5018.3,-107.46"/>
</g>
<!-- :core:data&#45;&gt;:core:domain -->
<g id="edge25" class="edge">
<title>:core:data&#45;&gt;:core:domain</title>
<path fill="none" stroke="black" d="M587.15,-149.53C579.13,-147.53 570.78,-145.59 562.89,-144 450.79,-121.46 236.39,-154.19 315.89,-72 368.88,-17.22 1510.94,-17.48 1827.93,-18.61"/>
<polygon fill="black" stroke="black" points="1827.95,-22.11 1837.96,-18.65 1827.98,-15.11 1827.95,-22.11"/>
</g>
<!-- :app:desktopApp -->
<g id="node6" class="node">
<title>:app:desktopApp</title>
<ellipse fill="none" stroke="black" cx="432.89" cy="-234" rx="88.28" ry="18"/>
<text text-anchor="middle" x="432.89" y="-230.3" font-family="Times,serif" font-size="14.00">:app:desktopApp</text>
</g>
<!-- :app:desktopApp&#45;&gt;:server -->
<g id="edge8" class="edge">
<title>:app:desktopApp&#45;&gt;:server</title>
<path fill="none" stroke="black" d="M393.4,-217.81C363.12,-206.16 321.49,-190.15 291.04,-178.44"/>
<polygon fill="black" stroke="black" points="292.17,-175.13 281.58,-174.8 289.66,-181.66 292.17,-175.13"/>
</g>
<!-- :app:desktopApp&#45;&gt;:app:shared -->
<g id="edge4" class="edge">
<title>:app:desktopApp&#45;&gt;:app:shared</title>
<path fill="none" stroke="black" d="M518.79,-229.62C823.88,-217.63 1852.31,-177.21 2139.09,-165.94"/>
<polygon fill="black" stroke="black" points="2139.52,-169.43 2149.38,-165.54 2139.25,-162.43 2139.52,-169.43"/>
</g>
<!-- :app:desktopApp&#45;&gt;:core:data -->
<g id="edge5" class="edge">
<title>:app:desktopApp&#45;&gt;:core:data</title>
<path fill="none" stroke="black" d="M474.94,-217.98C506.64,-206.66 550.09,-191.14 582.75,-179.48"/>
<polygon fill="black" stroke="black" points="584.27,-182.65 592.51,-175.99 581.92,-176.06 584.27,-182.65"/>
</g>
<!-- :core:lmu&#45;windows&#45;data -->
<g id="node7" class="node">
<title>:core:lmu&#45;windows&#45;data</title>
<ellipse fill="none" stroke="black" cx="432.89" cy="-162" rx="120.78" ry="18"/>
<text text-anchor="middle" x="432.89" y="-158.3" font-family="Times,serif" font-size="14.00">:core:lmu&#45;windows&#45;data</text>
</g>
<!-- :app:desktopApp&#45;&gt;:core:lmu&#45;windows&#45;data -->
<g id="edge6" class="edge">
<title>:app:desktopApp&#45;&gt;:core:lmu&#45;windows&#45;data</title>
<path fill="none" stroke="black" d="M432.89,-215.7C432.89,-207.98 432.89,-198.71 432.89,-190.11"/>
<polygon fill="black" stroke="black" points="436.39,-190.1 432.89,-180.1 429.39,-190.1 436.39,-190.1"/>
</g>
<!-- :core:gt7&#45;ps5&#45;data -->
<g id="node8" class="node">
<title>:core:gt7&#45;ps5&#45;data</title>
<ellipse fill="none" stroke="black" cx="94.89" cy="-162" rx="94.78" ry="18"/>
<text text-anchor="middle" x="94.89" y="-158.3" font-family="Times,serif" font-size="14.00">:core:gt7&#45;ps5&#45;data</text>
</g>
<!-- :app:desktopApp&#45;&gt;:core:gt7&#45;ps5&#45;data -->
<g id="edge7" class="edge">
<title>:app:desktopApp&#45;&gt;:core:gt7&#45;ps5&#45;data</title>
<path fill="none" stroke="black" d="M373.24,-220.65C315.53,-208.69 227.99,-190.56 166.53,-177.84"/>
<polygon fill="black" stroke="black" points="167.02,-174.36 156.51,-175.76 165.6,-181.22 167.02,-174.36"/>
</g>
<!-- :core:lmu&#45;windows&#45;data&#45;&gt;:core:domain -->
<g id="edge27" class="edge">
<title>:core:lmu&#45;windows&#45;data&#45;&gt;:core:domain</title>
<path fill="none" stroke="black" d="M354.18,-148.32C331.26,-140.57 308.7,-128.09 294.89,-108 285.83,-94.81 283.77,-83.5 294.89,-72 348.65,-16.44 1508.3,-17.28 1827.94,-18.57"/>
<polygon fill="black" stroke="black" points="1828.04,-22.07 1838.06,-18.62 1828.07,-15.07 1828.04,-22.07"/>
</g>
<!-- :core:gt7&#45;ps5&#45;data&#45;&gt;:core:domain -->
<g id="edge26" class="edge">
<title>:core:gt7&#45;ps5&#45;data&#45;&gt;:core:domain</title>
<path fill="none" stroke="black" d="M116.86,-144.36C146.55,-122.97 202,-86.83 255.89,-72 407.94,-30.16 1516.39,-21.1 1827.75,-19.37"/>
<polygon fill="black" stroke="black" points="1828.07,-22.87 1838.05,-19.32 1828.03,-15.87 1828.07,-22.87"/>
</g>
<!-- :feature:main&#45;&gt;:core:domain -->
<g id="edge40" class="edge">
<title>:feature:main&#45;&gt;:core:domain</title>
<path fill="none" stroke="black" d="M1093.95,-77.22C1104.17,-75.23 1114.83,-73.36 1124.89,-72 1380.25,-37.38 1685.63,-24.99 1828.17,-20.88"/>
<polygon fill="black" stroke="black" points="1828.66,-24.37 1838.56,-20.59 1828.47,-17.37 1828.66,-24.37"/>
</g>
<!-- :feature:lmu&#45;windows&#45;connection&#45;&gt;:core:domain -->
<g id="edge32" class="edge">
<title>:feature:lmu&#45;windows&#45;connection&#45;&gt;:core:domain</title>
<path fill="none" stroke="black" d="M1407.13,-76.49C1530.83,-62.31 1728.97,-39.61 1835.49,-27.41"/>
<polygon fill="black" stroke="black" points="1835.96,-30.88 1845.5,-26.26 1835.17,-23.92 1835.96,-30.88"/>
</g>
<!-- :feature:gt7&#45;ps5&#45;connection&#45;&gt;:core:domain -->
<g id="edge28" class="edge">
<title>:feature:gt7&#45;ps5&#45;connection&#45;&gt;:core:domain</title>
<path fill="none" stroke="black" d="M1681.46,-73.9C1731.31,-61.86 1800.62,-45.13 1849.59,-33.31"/>
<polygon fill="black" stroke="black" points="1850.51,-36.69 1859.41,-30.94 1848.87,-29.89 1850.51,-36.69"/>
</g>
<!-- :feature:server&#45;connection&#45;&gt;:core:domain -->
<g id="edge49" class="edge">
<title>:feature:server&#45;connection&#45;&gt;:core:domain</title>
<path fill="none" stroke="black" d="M1908.89,-71.7C1908.89,-63.98 1908.89,-54.71 1908.89,-46.11"/>
<polygon fill="black" stroke="black" points="1912.39,-46.1 1908.89,-36.1 1905.39,-46.1 1912.39,-46.1"/>
</g>
<!-- :feature:lmu&#45;windows&#45;narrator&#45;&gt;:core:domain -->
<g id="edge33" class="edge">
<title>:feature:lmu&#45;windows&#45;narrator&#45;&gt;:core:domain</title>
<path fill="none" stroke="black" d="M2147.33,-73.72C2094.42,-61.58 2021.01,-44.73 1969.67,-32.95"/>
<polygon fill="black" stroke="black" points="1970.24,-29.49 1959.71,-30.66 1968.68,-36.31 1970.24,-29.49"/>
</g>
<!-- :core:designsystem -->
<g id="node26" class="node">
<title>:core:designsystem</title>
<ellipse fill="none" stroke="black" cx="4215.89" cy="-18" rx="100.98" ry="18"/>
<text text-anchor="middle" x="4215.89" y="-14.3" font-family="Times,serif" font-size="14.00">:core:designsystem</text>
</g>
<!-- :feature:other&#45;license&#45;detail&#45;&gt;:core:designsystem -->
<g id="edge41" class="edge">
<title>:feature:other&#45;license&#45;detail&#45;&gt;:core:designsystem</title>
<path fill="none" stroke="black" d="M5438,-76.97C5420.67,-75.1 5402.76,-73.34 5385.89,-72 4996.46,-41 4532.55,-26.68 4325.31,-21.46"/>
<polygon fill="black" stroke="black" points="4325.12,-17.96 4315.03,-21.21 4324.94,-24.95 4325.12,-17.96"/>
</g>
<!-- :feature:other&#45;list&#45;&gt;:core:domain -->
<g id="edge42" class="edge">
<title>:feature:other&#45;list&#45;&gt;:core:domain</title>
<path fill="none" stroke="black" d="M2411.3,-77.39C2399.52,-75.48 2387.36,-73.61 2375.89,-72 2238.03,-52.7 2076.51,-35.59 1984.1,-26.32"/>
<polygon fill="black" stroke="black" points="1984.3,-22.82 1974,-25.31 1983.6,-29.78 1984.3,-22.82"/>
</g>
<!-- :feature:other&#45;server&#45;ip&#45;detail&#45;&gt;:core:domain -->
<g id="edge44" class="edge">
<title>:feature:other&#45;server&#45;ip&#45;detail&#45;&gt;:core:domain</title>
<path fill="none" stroke="black" d="M2905.85,-77.04C2887.87,-75.2 2869.35,-73.43 2851.89,-72 2532.66,-45.87 2151.56,-28.76 1988.88,-22.12"/>
<polygon fill="black" stroke="black" points="1988.61,-18.6 1978.48,-21.69 1988.33,-25.6 1988.61,-18.6"/>
</g>
<!-- :feature:other&#45;server&#45;ip&#45;detail&#45;&gt;:core:designsystem -->
<g id="edge45" class="edge">
<title>:feature:other&#45;server&#45;ip&#45;detail&#45;&gt;:core:designsystem</title>
<path fill="none" stroke="black" d="M3113.5,-77C3131.61,-75.15 3150.29,-73.39 3167.89,-72 3510.46,-44.93 3917.16,-28.98 4107.51,-22.46"/>
<polygon fill="black" stroke="black" points="4107.65,-25.95 4117.52,-22.11 4107.41,-18.96 4107.65,-25.95"/>
</g>
<!-- :feature:other&#45;readout&#45;start&#45;sound&#45;detail&#45;&gt;:core:domain -->
<g id="edge43" class="edge">
<title>:feature:other&#45;readout&#45;start&#45;sound&#45;detail&#45;&gt;:core:domain</title>
<path fill="none" stroke="black" d="M663.4,-77.03C686.91,-75.2 711.09,-73.44 733.89,-72 1145.37,-45.99 1638.7,-28.04 1828.8,-21.62"/>
<polygon fill="black" stroke="black" points="1829.11,-25.11 1838.98,-21.27 1828.87,-18.11 1829.11,-25.11"/>
</g>
<!-- :feature:other&#45;volume&#45;detail&#45;&gt;:core:domain -->
<g id="edge46" class="edge">
<title>:feature:other&#45;volume&#45;detail&#45;&gt;:core:domain</title>
<path fill="none" stroke="black" d="M3220.36,-76.93C3202.91,-75.06 3184.88,-73.32 3167.89,-72 2723.58,-37.51 2189.18,-24.35 1989.41,-20.41"/>
<polygon fill="black" stroke="black" points="1989.36,-16.91 1979.29,-20.22 1989.22,-23.91 1989.36,-16.91"/>
</g>
<!-- :feature:other&#45;volume&#45;detail&#45;&gt;:core:designsystem -->
<g id="edge47" class="edge">
<title>:feature:other&#45;volume&#45;detail&#45;&gt;:core:designsystem</title>
<path fill="none" stroke="black" d="M3417.07,-77.16C3434.02,-75.31 3451.45,-73.51 3467.89,-72 3697.2,-50.89 3966.72,-33.65 4111.42,-25.01"/>
<polygon fill="black" stroke="black" points="4111.84,-28.49 4121.62,-24.4 4111.43,-21.5 4111.84,-28.49"/>
</g>
<!-- :feature:readout&#45;list&#45;&gt;:core:domain -->
<g id="edge48" class="edge">
<title>:feature:readout&#45;list&#45;&gt;:core:domain</title>
<path fill="none" stroke="black" d="M919.4,-77.07C932.84,-75.15 946.77,-73.35 959.89,-72 1280.53,-39 1664.38,-25.5 1828.29,-20.96"/>
<polygon fill="black" stroke="black" points="1828.87,-24.44 1838.77,-20.67 1828.68,-17.45 1828.87,-24.44"/>
</g>
<!-- :feature:lmu&#45;windows&#45;readout&#45;vehicle&#45;approach&#45;detail&#45;&gt;:core:domain -->
<g id="edge36" class="edge">
<title>:feature:lmu&#45;windows&#45;readout&#45;vehicle&#45;approach&#45;detail&#45;&gt;:core:domain</title>
<path fill="none" stroke="black" d="M3558.2,-76.96C3528.06,-75.15 3497.09,-73.42 3467.89,-72 2902.12,-44.58 2220.16,-26.59 1989.54,-20.92"/>
<polygon fill="black" stroke="black" points="1989.32,-17.41 1979.23,-20.67 1989.14,-24.41 1989.32,-17.41"/>
</g>
<!-- :feature:lmu&#45;windows&#45;readout&#45;vehicle&#45;approach&#45;detail&#45;&gt;:core:designsystem -->
<g id="edge37" class="edge">
<title>:feature:lmu&#45;windows&#45;readout&#45;vehicle&#45;approach&#45;detail&#45;&gt;:core:designsystem</title>
<path fill="none" stroke="black" d="M3843.68,-73.51C3929.91,-60.88 4050.14,-43.27 4130.37,-31.52"/>
<polygon fill="black" stroke="black" points="4131.06,-34.96 4140.44,-30.05 4130.04,-28.03 4131.06,-34.96"/>
</g>
<!-- :feature:lmu&#45;windows&#45;readout&#45;flag&#45;detail&#45;&gt;:core:domain -->
<g id="edge34" class="edge">
<title>:feature:lmu&#45;windows&#45;readout&#45;flag&#45;detail&#45;&gt;:core:domain</title>
<path fill="none" stroke="black" d="M4080.02,-76.79C4056.01,-74.95 4031.23,-73.25 4007.89,-72 3222.25,-30.01 2269.36,-21.15 1989.67,-19.4"/>
<polygon fill="black" stroke="black" points="1989.64,-15.9 1979.62,-19.34 1989.59,-22.9 1989.64,-15.9"/>
</g>
<!-- :feature:lmu&#45;windows&#45;readout&#45;flag&#45;detail&#45;&gt;:core:designsystem -->
<g id="edge35" class="edge">
<title>:feature:lmu&#45;windows&#45;readout&#45;flag&#45;detail&#45;&gt;:core:designsystem</title>
<path fill="none" stroke="black" d="M4215.89,-71.7C4215.89,-63.98 4215.89,-54.71 4215.89,-46.11"/>
<polygon fill="black" stroke="black" points="4219.39,-46.1 4215.89,-36.1 4212.39,-46.1 4219.39,-46.1"/>
</g>
<!-- :feature:lmu&#45;windows&#45;readout&#45;vehicle&#45;damage&#45;detail&#45;&gt;:core:domain -->
<g id="edge38" class="edge">
<title>:feature:lmu&#45;windows&#45;readout&#45;vehicle&#45;damage&#45;detail&#45;&gt;:core:domain</title>
<path fill="none" stroke="black" d="M4515,-76.75C4484.97,-74.93 4454.03,-73.25 4424.89,-72 3467.55,-31 2303.88,-21.35 1990.08,-19.43"/>
<polygon fill="black" stroke="black" points="1989.74,-15.92 1979.72,-19.36 1989.7,-22.92 1989.74,-15.92"/>
</g>
<!-- :feature:lmu&#45;windows&#45;readout&#45;vehicle&#45;damage&#45;detail&#45;&gt;:core:designsystem -->
<g id="edge39" class="edge">
<title>:feature:lmu&#45;windows&#45;readout&#45;vehicle&#45;damage&#45;detail&#45;&gt;:core:designsystem</title>
<path fill="none" stroke="black" d="M4583.72,-73.55C4498.72,-60.95 4380.12,-43.36 4300.81,-31.59"/>
<polygon fill="black" stroke="black" points="4301.26,-28.12 4290.85,-30.12 4300.23,-35.05 4301.26,-28.12"/>
</g>
<!-- :feature:gt7&#45;ps5&#45;readout&#45;my&#45;bestlap&#45;detail&#45;&gt;:core:domain -->
<g id="edge30" class="edge">
<title>:feature:gt7&#45;ps5&#45;readout&#45;my&#45;bestlap&#45;detail&#45;&gt;:core:domain</title>
<path fill="none" stroke="black" d="M5028.31,-76.73C5002.89,-74.87 4976.62,-73.18 4951.89,-72 3775.99,-15.75 2341.96,-17.27 1989.81,-18.6"/>
<polygon fill="black" stroke="black" points="1989.7,-15.11 1979.71,-18.64 1989.72,-22.11 1989.7,-15.11"/>
</g>
<!-- :feature:gt7&#45;ps5&#45;readout&#45;my&#45;bestlap&#45;detail&#45;&gt;:core:designsystem -->
<g id="edge31" class="edge">
<title>:feature:gt7&#45;ps5&#45;readout&#45;my&#45;bestlap&#45;detail&#45;&gt;:core:designsystem</title>
<path fill="none" stroke="black" d="M5021.24,-77.31C4998.03,-75.51 4974.31,-73.69 4951.89,-72 4725.46,-54.98 4459.76,-36.12 4317.71,-26.13"/>
<polygon fill="black" stroke="black" points="4317.92,-22.63 4307.7,-25.42 4317.43,-29.62 4317.92,-22.63"/>
</g>
<!-- :app:webApp -->
<g id="node24" class="node">
<title>:app:webApp</title>
<ellipse fill="none" stroke="black" cx="2213.89" cy="-234" rx="70.69" ry="18"/>
<text text-anchor="middle" x="2213.89" y="-230.3" font-family="Times,serif" font-size="14.00">:app:webApp</text>
</g>
<!-- :app:webApp&#45;&gt;:app:shared -->
<g id="edge24" class="edge">
<title>:app:webApp&#45;&gt;:app:shared</title>
<path fill="none" stroke="black" d="M2213.89,-215.7C2213.89,-207.98 2213.89,-198.71 2213.89,-190.11"/>
<polygon fill="black" stroke="black" points="2217.39,-190.1 2213.89,-180.1 2210.39,-190.1 2217.39,-190.1"/>
</g>
<!-- :feature:gt7&#45;ps5&#45;narrator -->
<g id="node25" class="node">
<title>:feature:gt7&#45;ps5&#45;narrator</title>
<ellipse fill="none" stroke="black" cx="2715.89" cy="-90" rx="127.28" ry="18"/>
<text text-anchor="middle" x="2715.89" y="-86.3" font-family="Times,serif" font-size="14.00">:feature:gt7&#45;ps5&#45;narrator</text>
</g>
<!-- :feature:gt7&#45;ps5&#45;narrator&#45;&gt;:core:domain -->
<g id="edge29" class="edge">
<title>:feature:gt7&#45;ps5&#45;narrator&#45;&gt;:core:domain</title>
<path fill="none" stroke="black" d="M2625.98,-77.17C2610.61,-75.32 2594.81,-73.52 2579.89,-72 2365.62,-50.16 2112.05,-32.29 1986.86,-24"/>
<polygon fill="black" stroke="black" points="1986.81,-20.49 1976.61,-23.32 1986.35,-27.48 1986.81,-20.49"/>
</g>
</g>
</svg>
