<?xml version="1.0" encoding="UTF-8" standalone="no"?>
<!DOCTYPE svg PUBLIC "-//W3C//DTD SVG 1.1//EN"
 "http://www.w3.org/Graphics/SVG/1.1/DTD/svg11.dtd">
<!-- Generated by graphviz version 2.43.0 (0)
 -->
<!-- Title: G Pages: 1 -->
<svg width="4384pt" height="260pt"
 viewBox="0.00 0.00 4384.06 260.00" xmlns="http://www.w3.org/2000/svg" xmlns:xlink="http://www.w3.org/1999/xlink">
<g id="graph0" class="graph" transform="scale(1 1) rotate(0) translate(4 256)">
<title>G</title>
<polygon fill="white" stroke="transparent" points="-4,4 -4,-256 4380.06,-256 4380.06,4 -4,4"/>
<!-- :server -->
<g id="node1" class="node">
<title>:server</title>
<ellipse fill="none" stroke="black" cx="96.32" cy="-162" rx="43.59" ry="18"/>
<text text-anchor="middle" x="96.32" y="-158.3" font-family="Times,serif" font-size="14.00">:server</text>
</g>
<!-- :core:domain -->
<g id="node2" class="node">
<title>:core:domain</title>
<ellipse fill="none" stroke="black" cx="1362.32" cy="-18" rx="70.69" ry="18"/>
<text text-anchor="middle" x="1362.32" y="-14.3" font-family="Times,serif" font-size="14.00">:core:domain</text>
</g>
<!-- :server&#45;&gt;:core:domain -->
<g id="edge1" class="edge">
<title>:server&#45;&gt;:core:domain</title>
<path fill="none" stroke="black" d="M62.61,-150.45C42.7,-142.29 19.14,-128.79 7.32,-108 -0.58,-94.09 -3.77,-83.53 7.32,-72 51.6,-25.96 994.99,-19.89 1280.91,-19.11"/>
<polygon fill="black" stroke="black" points="1281.22,-22.61 1291.21,-19.08 1281.2,-15.61 1281.22,-22.61"/>
</g>
<!-- :app:androidApp -->
<g id="node3" class="node">
<title>:app:androidApp</title>
<ellipse fill="none" stroke="black" cx="1210.32" cy="-234" rx="87.18" ry="18"/>
<text text-anchor="middle" x="1210.32" y="-230.3" font-family="Times,serif" font-size="14.00">:app:androidApp</text>
</g>
<!-- :app:shared -->
<g id="node4" class="node">
<title>:app:shared</title>
<ellipse fill="none" stroke="black" cx="1520.32" cy="-162" rx="65.79" ry="18"/>
<text text-anchor="middle" x="1520.32" y="-158.3" font-family="Times,serif" font-size="14.00">:app:shared</text>
</g>
<!-- :app:androidApp&#45;&gt;:app:shared -->
<g id="edge2" class="edge">
<title>:app:androidApp&#45;&gt;:app:shared</title>
<path fill="none" stroke="black" d="M1266.82,-220.24C1322.01,-207.78 1405.65,-188.89 1461.59,-176.26"/>
<polygon fill="black" stroke="black" points="1462.37,-179.67 1471.36,-174.06 1460.83,-172.85 1462.37,-179.67"/>
</g>
<!-- :core:data -->
<g id="node5" class="node">
<title>:core:data</title>
<ellipse fill="none" stroke="black" cx="750.32" cy="-162" rx="57.39" ry="18"/>
<text text-anchor="middle" x="750.32" y="-158.3" font-family="Times,serif" font-size="14.00">:core:data</text>
</g>
<!-- :app:androidApp&#45;&gt;:core:data -->
<g id="edge3" class="edge">
<title>:app:androidApp&#45;&gt;:core:data</title>
<path fill="none" stroke="black" d="M1142.45,-222.67C1052.87,-209.04 896.54,-185.25 810.82,-172.21"/>
<polygon fill="black" stroke="black" points="811.13,-168.71 800.72,-170.67 810.08,-175.63 811.13,-168.71"/>
</g>
<!-- :feature:main -->
<g id="node7" class="node">
<title>:feature:main</title>
<ellipse fill="none" stroke="black" cx="948.32" cy="-90" rx="73.39" ry="18"/>
<text text-anchor="middle" x="948.32" y="-86.3" font-family="Times,serif" font-size="14.00">:feature:main</text>
</g>
<!-- :app:shared&#45;&gt;:feature:main -->
<g id="edge7" class="edge">
<title>:app:shared&#45;&gt;:feature:main</title>
<path fill="none" stroke="black" d="M1457.94,-156.13C1364.75,-148.43 1183.82,-131.83 1031.32,-108 1024.78,-106.98 1017.97,-105.79 1011.2,-104.53"/>
<polygon fill="black" stroke="black" points="1011.8,-101.08 1001.32,-102.63 1010.48,-107.95 1011.8,-101.08"/>
</g>
<!-- :feature:lmu&#45;windows&#45;connection -->
<g id="node8" class="node">
<title>:feature:lmu&#45;windows&#45;connection</title>
<ellipse fill="none" stroke="black" cx="1204.32" cy="-90" rx="164.37" ry="18"/>
<text text-anchor="middle" x="1204.32" y="-86.3" font-family="Times,serif" font-size="14.00">:feature:lmu&#45;windows&#45;connection</text>
</g>
<!-- :app:shared&#45;&gt;:feature:lmu&#45;windows&#45;connection -->
<g id="edge8" class="edge">
<title>:app:shared&#45;&gt;:feature:lmu&#45;windows&#45;connection</title>
<path fill="none" stroke="black" d="M1470.95,-150.06C1420.82,-138.96 1342.41,-121.59 1283.58,-108.56"/>
<polygon fill="black" stroke="black" points="1284.09,-105.09 1273.57,-106.34 1282.58,-111.92 1284.09,-105.09"/>
</g>
<!-- :feature:server&#45;connection -->
<g id="node9" class="node">
<title>:feature:server&#45;connection</title>
<ellipse fill="none" stroke="black" cx="1520.32" cy="-90" rx="133.48" ry="18"/>
<text text-anchor="middle" x="1520.32" y="-86.3" font-family="Times,serif" font-size="14.00">:feature:server&#45;connection</text>
</g>
<!-- :app:shared&#45;&gt;:feature:server&#45;connection -->
<g id="edge9" class="edge">
<title>:app:shared&#45;&gt;:feature:server&#45;connection</title>
<path fill="none" stroke="black" d="M1520.32,-143.7C1520.32,-135.98 1520.32,-126.71 1520.32,-118.11"/>
<polygon fill="black" stroke="black" points="1523.82,-118.1 1520.32,-108.1 1516.82,-118.1 1523.82,-118.1"/>
</g>
<!-- :feature:lmu&#45;windows&#45;narrator -->
<g id="node10" class="node">
<title>:feature:lmu&#45;windows&#45;narrator</title>
<ellipse fill="none" stroke="black" cx="1825.32" cy="-90" rx="153.27" ry="18"/>
<text text-anchor="middle" x="1825.32" y="-86.3" font-family="Times,serif" font-size="14.00">:feature:lmu&#45;windows&#45;narrator</text>
</g>
<!-- :app:shared&#45;&gt;:feature:lmu&#45;windows&#45;narrator -->
<g id="edge10" class="edge">
<title>:app:shared&#45;&gt;:feature:lmu&#45;windows&#45;narrator</title>
<path fill="none" stroke="black" d="M1568.99,-149.83C1617.46,-138.71 1692.58,-121.47 1748.99,-108.52"/>
<polygon fill="black" stroke="black" points="1749.98,-111.88 1758.94,-106.24 1748.41,-105.06 1749.98,-111.88"/>
</g>
<!-- :feature:other&#45;license&#45;detail -->
<g id="node11" class="node">
<title>:feature:other&#45;license&#45;detail</title>
<ellipse fill="none" stroke="black" cx="4236.32" cy="-90" rx="139.98" ry="18"/>
<text text-anchor="middle" x="4236.32" y="-86.3" font-family="Times,serif" font-size="14.00">:feature:other&#45;license&#45;detail</text>
</g>
<!-- :app:shared&#45;&gt;:feature:other&#45;license&#45;detail -->
<g id="edge11" class="edge">
<title>:app:shared&#45;&gt;:feature:other&#45;license&#45;detail</title>
<path fill="none" stroke="black" d="M1585.81,-160.47C1934.84,-157.55 3579.47,-142.14 4087.32,-108 4101.46,-107.05 4116.33,-105.73 4130.97,-104.25"/>
<polygon fill="black" stroke="black" points="4131.47,-107.72 4141.06,-103.2 4130.75,-100.76 4131.47,-107.72"/>
</g>
<!-- :feature:other&#45;list -->
<g id="node12" class="node">
<title>:feature:other&#45;list</title>
<ellipse fill="none" stroke="black" cx="121.32" cy="-90" rx="92.88" ry="18"/>
<text text-anchor="middle" x="121.32" y="-86.3" font-family="Times,serif" font-size="14.00">:feature:other&#45;list</text>
</g>
<!-- :app:shared&#45;&gt;:feature:other&#45;list -->
<g id="edge12" class="edge">
<title>:app:shared&#45;&gt;:feature:other&#45;list</title>
<path fill="none" stroke="black" d="M1455.29,-159.43C1227.36,-153.76 465.43,-133.32 222.32,-108 213.65,-107.1 204.59,-105.92 195.62,-104.6"/>
<polygon fill="black" stroke="black" points="195.96,-101.11 185.54,-103.06 194.9,-108.03 195.96,-101.11"/>
</g>
<!-- :feature:other&#45;server&#45;ip&#45;detail -->
<g id="node13" class="node">
<title>:feature:other&#45;server&#45;ip&#45;detail</title>
<ellipse fill="none" stroke="black" cx="3929.32" cy="-90" rx="148.67" ry="18"/>
<text text-anchor="middle" x="3929.32" y="-86.3" font-family="Times,serif" font-size="14.00">:feature:other&#45;server&#45;ip&#45;detail</text>
</g>
<!-- :app:shared&#45;&gt;:feature:other&#45;server&#45;ip&#45;detail -->
<g id="edge13" class="edge">
<title>:app:shared&#45;&gt;:feature:other&#45;server&#45;ip&#45;detail</title>
<path fill="none" stroke="black" d="M1586.24,-161.46C1856.85,-162.93 2908.78,-164.46 3771.32,-108 3786.34,-107.02 3802.13,-105.68 3817.69,-104.19"/>
<polygon fill="black" stroke="black" points="3818.25,-107.65 3827.86,-103.18 3817.57,-100.68 3818.25,-107.65"/>
</g>
<!-- :feature:other&#45;readout&#45;start&#45;sound&#45;detail -->
<g id="node14" class="node">
<title>:feature:other&#45;readout&#45;start&#45;sound&#45;detail</title>
<ellipse fill="none" stroke="black" cx="431.32" cy="-90" rx="199.56" ry="18"/>
<text text-anchor="middle" x="431.32" y="-86.3" font-family="Times,serif" font-size="14.00">:feature:other&#45;readout&#45;start&#45;sound&#45;detail</text>
</g>
<!-- :app:shared&#45;&gt;:feature:other&#45;readout&#45;start&#45;sound&#45;detail -->
<g id="edge14" class="edge">
<title>:app:shared&#45;&gt;:feature:other&#45;readout&#45;start&#45;sound&#45;detail</title>
<path fill="none" stroke="black" d="M1456.52,-157.62C1311.48,-149.83 945.86,-129.62 640.32,-108 621.3,-106.65 601.3,-105.15 581.53,-103.6"/>
<polygon fill="black" stroke="black" points="581.78,-100.11 571.54,-102.81 581.23,-107.09 581.78,-100.11"/>
</g>
<!-- :feature:other&#45;volume&#45;detail -->
<g id="node15" class="node">
<title>:feature:other&#45;volume&#45;detail</title>
<ellipse fill="none" stroke="black" cx="2137.32" cy="-90" rx="141.07" ry="18"/>
<text text-anchor="middle" x="2137.32" y="-86.3" font-family="Times,serif" font-size="14.00">:feature:other&#45;volume&#45;detail</text>
</g>
<!-- :app:shared&#45;&gt;:feature:other&#45;volume&#45;detail -->
<g id="edge15" class="edge">
<title>:app:shared&#45;&gt;:feature:other&#45;volume&#45;detail</title>
<path fill="none" stroke="black" d="M1579.76,-154.26C1682.49,-142.6 1894.8,-118.51 2025.76,-103.66"/>
<polygon fill="black" stroke="black" points="2026.28,-107.12 2035.82,-102.52 2025.49,-100.17 2026.28,-107.12"/>
</g>
<!-- :feature:readout&#45;list -->
<g id="node16" class="node">
<title>:feature:readout&#45;list</title>
<ellipse fill="none" stroke="black" cx="753.32" cy="-90" rx="103.98" ry="18"/>
<text text-anchor="middle" x="753.32" y="-86.3" font-family="Times,serif" font-size="14.00">:feature:readout&#45;list</text>
</g>
<!-- :app:shared&#45;&gt;:feature:readout&#45;list -->
<g id="edge16" class="edge">
<title>:app:shared&#45;&gt;:feature:readout&#45;list</title>
<path fill="none" stroke="black" d="M1456.59,-157.29C1339.46,-150.15 1082.18,-132.95 866.32,-108 856.72,-106.89 846.67,-105.59 836.7,-104.2"/>
<polygon fill="black" stroke="black" points="837.17,-100.73 826.78,-102.8 836.19,-107.66 837.17,-100.73"/>
</g>
<!-- :feature:lmu&#45;windows&#45;readout&#45;vehicle&#45;approach&#45;detail -->
<g id="node17" class="node">
<title>:feature:lmu&#45;windows&#45;readout&#45;vehicle&#45;approach&#45;detail</title>
<ellipse fill="none" stroke="black" cx="2557.32" cy="-90" rx="260.75" ry="18"/>
<text text-anchor="middle" x="2557.32" y="-86.3" font-family="Times,serif" font-size="14.00">:feature:lmu&#45;windows&#45;readout&#45;vehicle&#45;approach&#45;detail</text>
</g>
<!-- :app:shared&#45;&gt;:feature:lmu&#45;windows&#45;readout&#45;vehicle&#45;approach&#45;detail -->
<g id="edge17" class="edge">
<title>:app:shared&#45;&gt;:feature:lmu&#45;windows&#45;readout&#45;vehicle&#45;approach&#45;detail</title>
<path fill="none" stroke="black" d="M1583.24,-156.75C1735.84,-146.45 2130.52,-119.81 2368.03,-103.78"/>
<polygon fill="black" stroke="black" points="2368.42,-107.26 2378.16,-103.09 2367.95,-100.28 2368.42,-107.26"/>
</g>
<!-- :feature:lmu&#45;windows&#45;readout&#45;flag&#45;detail -->
<g id="node18" class="node">
<title>:feature:lmu&#45;windows&#45;readout&#45;flag&#45;detail</title>
<ellipse fill="none" stroke="black" cx="3035.32" cy="-90" rx="199.56" ry="18"/>
<text text-anchor="middle" x="3035.32" y="-86.3" font-family="Times,serif" font-size="14.00">:feature:lmu&#45;windows&#45;readout&#45;flag&#45;detail</text>
</g>
<!-- :app:shared&#45;&gt;:feature:lmu&#45;windows&#45;readout&#45;flag&#45;detail -->
<g id="edge18" class="edge">
<title>:app:shared&#45;&gt;:feature:lmu&#45;windows&#45;readout&#45;flag&#45;detail</title>
<path fill="none" stroke="black" d="M1585.31,-159.31C1776.07,-154.14 2351.03,-137.11 2827.32,-108 2846.81,-106.81 2867.32,-105.37 2887.54,-103.83"/>
<polygon fill="black" stroke="black" points="2888.06,-107.3 2897.76,-103.04 2887.52,-100.32 2888.06,-107.3"/>
</g>
<!-- :feature:lmu&#45;windows&#45;readout&#45;vehicle&#45;damage&#45;detail -->
<g id="node19" class="node">
<title>:feature:lmu&#45;windows&#45;readout&#45;vehicle&#45;damage&#45;detail</title>
<ellipse fill="none" stroke="black" cx="3507.32" cy="-90" rx="254.55" ry="18"/>
<text text-anchor="middle" x="3507.32" y="-86.3" font-family="Times,serif" font-size="14.00">:feature:lmu&#45;windows&#45;readout&#45;vehicle&#45;damage&#45;detail</text>
</g>
<!-- :app:shared&#45;&gt;:feature:lmu&#45;windows&#45;readout&#45;vehicle&#45;damage&#45;detail -->
<g id="edge19" class="edge">
<title>:app:shared&#45;&gt;:feature:lmu&#45;windows&#45;readout&#45;vehicle&#45;damage&#45;detail</title>
<path fill="none" stroke="black" d="M1585.72,-159.79C1814.18,-155.38 2597.88,-138.82 3244.32,-108 3269.65,-106.79 3296.34,-105.31 3322.61,-103.73"/>
<polygon fill="black" stroke="black" points="3322.89,-107.22 3332.66,-103.12 3322.46,-100.23 3322.89,-107.22"/>
</g>
<!-- :core:data&#45;&gt;:core:domain -->
<g id="edge21" class="edge">
<title>:core:data&#45;&gt;:core:domain</title>
<path fill="none" stroke="black" d="M692.99,-161.22C528.67,-161.25 64.87,-156.97 19.32,-108 8.43,-96.28 8.23,-83.53 19.32,-72 63.18,-26.38 997.18,-20.02 1281.15,-19.14"/>
<polygon fill="black" stroke="black" points="1281.38,-22.64 1291.37,-19.11 1281.36,-15.64 1281.38,-22.64"/>
</g>
<!-- :app:desktopApp -->
<g id="node6" class="node">
<title>:app:desktopApp</title>
<ellipse fill="none" stroke="black" cx="750.32" cy="-234" rx="88.28" ry="18"/>
<text text-anchor="middle" x="750.32" y="-230.3" font-family="Times,serif" font-size="14.00">:app:desktopApp</text>
</g>
<!-- :app:desktopApp&#45;&gt;:server -->
<g id="edge6" class="edge">
<title>:app:desktopApp&#45;&gt;:server</title>
<path fill="none" stroke="black" d="M674.02,-224.83C539.4,-210.42 263.11,-180.85 148.22,-168.55"/>
<polygon fill="black" stroke="black" points="148.26,-165.04 137.94,-167.45 147.51,-172 148.26,-165.04"/>
</g>
<!-- :app:desktopApp&#45;&gt;:app:shared -->
<g id="edge4" class="edge">
<title>:app:desktopApp&#45;&gt;:app:shared</title>
<path fill="none" stroke="black" d="M829.11,-225.84C979.39,-212.18 1304.86,-182.59 1449.07,-169.48"/>
<polygon fill="black" stroke="black" points="1449.49,-172.95 1459.14,-168.56 1448.86,-165.98 1449.49,-172.95"/>
</g>
<!-- :app:desktopApp&#45;&gt;:core:data -->
<g id="edge5" class="edge">
<title>:app:desktopApp&#45;&gt;:core:data</title>
<path fill="none" stroke="black" d="M750.32,-215.7C750.32,-207.98 750.32,-198.71 750.32,-190.11"/>
<polygon fill="black" stroke="black" points="753.82,-190.1 750.32,-180.1 746.82,-190.1 753.82,-190.1"/>
</g>
<!-- :feature:main&#45;&gt;:core:domain -->
<g id="edge30" class="edge">
<title>:feature:main&#45;&gt;:core:domain</title>
<path fill="none" stroke="black" d="M1002.28,-77.6C1011.94,-75.66 1021.92,-73.72 1031.32,-72 1121.31,-55.59 1225.58,-39.35 1292.66,-29.26"/>
<polygon fill="black" stroke="black" points="1293.33,-32.7 1302.7,-27.75 1292.29,-25.78 1293.33,-32.7"/>
</g>
<!-- :feature:lmu&#45;windows&#45;connection&#45;&gt;:core:domain -->
<g id="edge22" class="edge">
<title>:feature:lmu&#45;windows&#45;connection&#45;&gt;:core:domain</title>
<path fill="none" stroke="black" d="M1241.77,-72.41C1265.05,-62.1 1295.06,-48.8 1319.32,-38.05"/>
<polygon fill="black" stroke="black" points="1320.92,-41.17 1328.64,-33.92 1318.08,-34.77 1320.92,-41.17"/>
</g>
<!-- :feature:server&#45;connection&#45;&gt;:core:domain -->
<g id="edge39" class="edge">
<title>:feature:server&#45;connection&#45;&gt;:core:domain</title>
<path fill="none" stroke="black" d="M1483.28,-72.59C1459.93,-62.24 1429.69,-48.84 1405.28,-38.03"/>
<polygon fill="black" stroke="black" points="1406.47,-34.73 1395.9,-33.88 1403.63,-41.13 1406.47,-34.73"/>
</g>
<!-- :feature:lmu&#45;windows&#45;narrator&#45;&gt;:core:domain -->
<g id="edge23" class="edge">
<title>:feature:lmu&#45;windows&#45;narrator&#45;&gt;:core:domain</title>
<path fill="none" stroke="black" d="M1735.23,-75.38C1646.42,-61.95 1512.62,-41.72 1431.76,-29.5"/>
<polygon fill="black" stroke="black" points="1432.09,-26.01 1421.68,-27.97 1431.05,-32.93 1432.09,-26.01"/>
</g>
<!-- :core:designsystem -->
<g id="node21" class="node">
<title>:core:designsystem</title>
<ellipse fill="none" stroke="black" cx="3271.32" cy="-18" rx="100.98" ry="18"/>
<text text-anchor="middle" x="3271.32" y="-14.3" font-family="Times,serif" font-size="14.00">:core:designsystem</text>
</g>
<!-- :feature:other&#45;license&#45;detail&#45;&gt;:core:designsystem -->
<g id="edge31" class="edge">
<title>:feature:other&#45;license&#45;detail&#45;&gt;:core:designsystem</title>
<path fill="none" stroke="black" d="M4138.21,-77.12C4121.26,-75.26 4103.79,-73.47 4087.32,-72 3832.74,-49.22 3532.63,-32.27 3376.96,-24.21"/>
<polygon fill="black" stroke="black" points="3377.08,-20.71 3366.91,-23.7 3376.72,-27.71 3377.08,-20.71"/>
</g>
<!-- :feature:other&#45;list&#45;&gt;:core:domain -->
<g id="edge32" class="edge">
<title>:feature:other&#45;list&#45;&gt;:core:domain</title>
<path fill="none" stroke="black" d="M185.82,-76.96C197.91,-75.04 210.48,-73.27 222.32,-72 617.92,-29.67 1094.32,-21.14 1281.36,-19.43"/>
<polygon fill="black" stroke="black" points="1281.42,-22.92 1291.39,-19.34 1281.36,-15.93 1281.42,-22.92"/>
</g>
<!-- :feature:other&#45;server&#45;ip&#45;detail&#45;&gt;:core:domain -->
<g id="edge34" class="edge">
<title>:feature:other&#45;server&#45;ip&#45;detail&#45;&gt;:core:domain</title>
<path fill="none" stroke="black" d="M3827.86,-76.79C3809.09,-74.9 3789.63,-73.18 3771.32,-72 3303.44,-41.74 1807.94,-23.84 1443.15,-19.85"/>
<polygon fill="black" stroke="black" points="1442.98,-16.35 1432.94,-19.74 1442.9,-23.35 1442.98,-16.35"/>
</g>
<!-- :feature:other&#45;server&#45;ip&#45;detail&#45;&gt;:core:designsystem -->
<g id="edge35" class="edge">
<title>:feature:other&#45;server&#45;ip&#45;detail&#45;&gt;:core:designsystem</title>
<path fill="none" stroke="black" d="M3822.24,-77.46C3805.21,-75.63 3787.78,-73.76 3771.32,-72 3630.13,-56.92 3466.5,-39.61 3365.95,-28.99"/>
<polygon fill="black" stroke="black" points="3366.13,-25.48 3355.81,-27.92 3365.39,-32.45 3366.13,-25.48"/>
</g>
<!-- :feature:other&#45;readout&#45;start&#45;sound&#45;detail&#45;&gt;:core:domain -->
<g id="edge33" class="edge">
<title>:feature:other&#45;readout&#45;start&#45;sound&#45;detail&#45;&gt;:core:domain</title>
<path fill="none" stroke="black" d="M573.25,-77.3C595.69,-75.5 618.64,-73.68 640.32,-72 875.11,-53.83 1152.98,-33.87 1285.1,-24.47"/>
<polygon fill="black" stroke="black" points="1285.39,-27.96 1295.12,-23.76 1284.9,-20.97 1285.39,-27.96"/>
</g>
<!-- :feature:other&#45;volume&#45;detail&#45;&gt;:core:domain -->
<g id="edge36" class="edge">
<title>:feature:other&#45;volume&#45;detail&#45;&gt;:core:domain</title>
<path fill="none" stroke="black" d="M2037.31,-77.27C2020.63,-75.42 2003.49,-73.6 1987.32,-72 1790.15,-52.47 1557.54,-33.93 1439.46,-24.84"/>
<polygon fill="black" stroke="black" points="1439.68,-21.34 1429.44,-24.07 1439.14,-28.32 1439.68,-21.34"/>
</g>
<!-- :feature:other&#45;volume&#45;detail&#45;&gt;:core:designsystem -->
<g id="edge37" class="edge">
<title>:feature:other&#45;volume&#45;detail&#45;&gt;:core:designsystem</title>
<path fill="none" stroke="black" d="M2235.68,-77.01C2252.88,-75.16 2270.61,-73.4 2287.32,-72 2605.24,-45.45 2982.11,-29.46 3163.36,-22.73"/>
<polygon fill="black" stroke="black" points="3163.56,-26.22 3173.43,-22.36 3163.3,-19.23 3163.56,-26.22"/>
</g>
<!-- :feature:readout&#45;list&#45;&gt;:core:domain -->
<g id="edge38" class="edge">
<title>:feature:readout&#45;list&#45;&gt;:core:domain</title>
<path fill="none" stroke="black" d="M827.72,-77.34C840.58,-75.46 853.83,-73.61 866.32,-72 1015.03,-52.88 1189.44,-35.38 1286.78,-26.06"/>
<polygon fill="black" stroke="black" points="1287.2,-29.53 1296.83,-25.1 1286.54,-22.56 1287.2,-29.53"/>
</g>
<!-- :feature:lmu&#45;windows&#45;readout&#45;vehicle&#45;approach&#45;detail&#45;&gt;:core:domain -->
<g id="edge26" class="edge">
<title>:feature:lmu&#45;windows&#45;readout&#45;vehicle&#45;approach&#45;detail&#45;&gt;:core:domain</title>
<path fill="none" stroke="black" d="M2372.88,-77.25C2344.24,-75.46 2314.98,-73.66 2287.32,-72 1973.88,-53.15 1600.59,-32.23 1441,-23.36"/>
<polygon fill="black" stroke="black" points="1440.97,-19.85 1430.8,-22.79 1440.59,-26.84 1440.97,-19.85"/>
</g>
<!-- :feature:lmu&#45;windows&#45;readout&#45;vehicle&#45;approach&#45;detail&#45;&gt;:core:designsystem -->
<g id="edge27" class="edge">
<title>:feature:lmu&#45;windows&#45;readout&#45;vehicle&#45;approach&#45;detail&#45;&gt;:core:designsystem</title>
<path fill="none" stroke="black" d="M2700.95,-74.92C2842.06,-61.08 3053.41,-40.36 3175.3,-28.41"/>
<polygon fill="black" stroke="black" points="3175.76,-31.89 3185.37,-27.43 3175.07,-24.92 3175.76,-31.89"/>
</g>
<!-- :feature:lmu&#45;windows&#45;readout&#45;flag&#45;detail&#45;&gt;:core:domain -->
<g id="edge24" class="edge">
<title>:feature:lmu&#45;windows&#45;readout&#45;flag&#45;detail&#45;&gt;:core:domain</title>
<path fill="none" stroke="black" d="M2898.05,-76.89C2874.47,-75.07 2850.2,-73.35 2827.32,-72 2299.93,-40.92 1664.59,-25.4 1443.12,-20.64"/>
<polygon fill="black" stroke="black" points="1442.97,-17.13 1432.89,-20.42 1442.82,-24.13 1442.97,-17.13"/>
</g>
<!-- :feature:lmu&#45;windows&#45;readout&#45;flag&#45;detail&#45;&gt;:core:designsystem -->
<g id="edge25" class="edge">
<title>:feature:lmu&#45;windows&#45;readout&#45;flag&#45;detail&#45;&gt;:core:designsystem</title>
<path fill="none" stroke="black" d="M3090.36,-72.68C3126.87,-61.85 3174.75,-47.65 3212.09,-36.57"/>
<polygon fill="black" stroke="black" points="3213.24,-39.88 3221.83,-33.68 3211.25,-33.17 3213.24,-39.88"/>
</g>
<!-- :feature:lmu&#45;windows&#45;readout&#45;vehicle&#45;damage&#45;detail&#45;&gt;:core:domain -->
<g id="edge28" class="edge">
<title>:feature:lmu&#45;windows&#45;readout&#45;vehicle&#45;damage&#45;detail&#45;&gt;:core:domain</title>
<path fill="none" stroke="black" d="M3333.01,-76.84C3303.43,-75.03 3273,-73.33 3244.32,-72 2547.14,-39.66 1703.7,-24.4 1442.99,-20.22"/>
<polygon fill="black" stroke="black" points="1442.91,-16.72 1432.85,-20.06 1442.8,-23.72 1442.91,-16.72"/>
</g>
<!-- :feature:lmu&#45;windows&#45;readout&#45;vehicle&#45;damage&#45;detail&#45;&gt;:core:designsystem -->
<g id="edge29" class="edge">
<title>:feature:lmu&#45;windows&#45;readout&#45;vehicle&#45;damage&#45;detail&#45;&gt;:core:designsystem</title>
<path fill="none" stroke="black" d="M3451.39,-72.41C3414.98,-61.61 3367.55,-47.54 3330.51,-36.55"/>
<polygon fill="black" stroke="black" points="3331.42,-33.18 3320.84,-33.69 3329.43,-39.89 3331.42,-33.18"/>
</g>
<!-- :app:webApp -->
<g id="node20" class="node">
<title>:app:webApp</title>
<ellipse fill="none" stroke="black" cx="1520.32" cy="-234" rx="70.69" ry="18"/>
<text text-anchor="middle" x="1520.32" y="-230.3" font-family="Times,serif" font-size="14.00">:app:webApp</text>
</g>
<!-- :app:webApp&#45;&gt;:app:shared -->
<g id="edge20" class="edge">
<title>:app:webApp&#45;&gt;:app:shared</title>
<path fill="none" stroke="black" d="M1520.32,-215.7C1520.32,-207.98 1520.32,-198.71 1520.32,-190.11"/>
<polygon fill="black" stroke="black" points="1523.82,-190.1 1520.32,-180.1 1516.82,-190.1 1523.82,-190.1"/>
</g>
</g>
</svg>
