<?xml version="1.0" encoding="UTF-8" standalone="no"?>
<!DOCTYPE svg PUBLIC "-//W3C//DTD SVG 1.1//EN"
 "http://www.w3.org/Graphics/SVG/1.1/DTD/svg11.dtd">
<!-- Generated by graphviz version 2.43.0 (0)
 -->
<!-- Title: G Pages: 1 -->
<svg width="7514pt" height="260pt"
 viewBox="0.00 0.00 7513.73 260.00" xmlns="http://www.w3.org/2000/svg" xmlns:xlink="http://www.w3.org/1999/xlink">
<g id="graph0" class="graph" transform="scale(1 1) rotate(0) translate(4 256)">
<title>G</title>
<polygon fill="white" stroke="transparent" points="-4,4 -4,-256 7509.73,-256 7509.73,4 -4,4"/>
<!-- :server -->
<g id="node1" class="node">
<title>:server</title>
<ellipse fill="none" stroke="black" cx="302.89" cy="-162" rx="43.59" ry="18"/>
<text text-anchor="middle" x="302.89" y="-158.3" font-family="Times,serif" font-size="14.00">:server</text>
</g>
<!-- :core:domain -->
<g id="node2" class="node">
<title>:core:domain</title>
<ellipse fill="none" stroke="black" cx="2781.89" cy="-18" rx="70.69" ry="18"/>
<text text-anchor="middle" x="2781.89" y="-14.3" font-family="Times,serif" font-size="14.00">:core:domain</text>
</g>
<!-- :server&#45;&gt;:core:domain -->
<g id="edge1" class="edge">
<title>:server&#45;&gt;:core:domain</title>
<path fill="none" stroke="black" d="M303.16,-143.91C304.51,-123.07 310.29,-88.61 332.89,-72 381.68,-36.15 2282.49,-22.14 2700.96,-19.48"/>
<polygon fill="black" stroke="black" points="2701.17,-22.98 2711.15,-19.42 2701.13,-15.98 2701.17,-22.98"/>
</g>
<!-- :app:androidApp -->
<g id="node3" class="node">
<title>:app:androidApp</title>
<ellipse fill="none" stroke="black" cx="639.89" cy="-234" rx="87.18" ry="18"/>
<text text-anchor="middle" x="639.89" y="-230.3" font-family="Times,serif" font-size="14.00">:app:androidApp</text>
</g>
<!-- :app:shared -->
<g id="node4" class="node">
<title>:app:shared</title>
<ellipse fill="none" stroke="black" cx="3102.89" cy="-162" rx="65.79" ry="18"/>
<text text-anchor="middle" x="3102.89" y="-158.3" font-family="Times,serif" font-size="14.00">:app:shared</text>
</g>
<!-- :app:androidApp&#45;&gt;:app:shared -->
<g id="edge2" class="edge">
<title>:app:androidApp&#45;&gt;:app:shared</title>
<path fill="none" stroke="black" d="M725.39,-230.57C1108.8,-219.67 2666.71,-175.4 3027.87,-165.13"/>
<polygon fill="black" stroke="black" points="3028.06,-168.63 3037.95,-164.85 3027.86,-161.63 3028.06,-168.63"/>
</g>
<!-- :core:data -->
<g id="node5" class="node">
<title>:core:data</title>
<ellipse fill="none" stroke="black" cx="628.89" cy="-162" rx="57.39" ry="18"/>
<text text-anchor="middle" x="628.89" y="-158.3" font-family="Times,serif" font-size="14.00">:core:data</text>
</g>
<!-- :app:androidApp&#45;&gt;:core:data -->
<g id="edge3" class="edge">
<title>:app:androidApp&#45;&gt;:core:data</title>
<path fill="none" stroke="black" d="M637.17,-215.7C635.96,-207.98 634.5,-198.71 633.15,-190.11"/>
<polygon fill="black" stroke="black" points="636.59,-189.44 631.58,-180.1 629.67,-190.53 636.59,-189.44"/>
</g>
<!-- :core:gt7&#45;ps5&#45;data -->
<g id="node6" class="node">
<title>:core:gt7&#45;ps5&#45;data</title>
<ellipse fill="none" stroke="black" cx="458.89" cy="-162" rx="94.78" ry="18"/>
<text text-anchor="middle" x="458.89" y="-158.3" font-family="Times,serif" font-size="14.00">:core:gt7&#45;ps5&#45;data</text>
</g>
<!-- :app:androidApp&#45;&gt;:core:gt7&#45;ps5&#45;data -->
<g id="edge4" class="edge">
<title>:app:androidApp&#45;&gt;:core:gt7&#45;ps5&#45;data</title>
<path fill="none" stroke="black" d="M600.61,-217.81C573.53,-207.33 537.31,-193.33 508.26,-182.09"/>
<polygon fill="black" stroke="black" points="509.3,-178.74 498.71,-178.4 506.78,-185.27 509.3,-178.74"/>
</g>
<!-- :feature:main -->
<g id="node9" class="node">
<title>:feature:main</title>
<ellipse fill="none" stroke="black" cx="2525.89" cy="-90" rx="73.39" ry="18"/>
<text text-anchor="middle" x="2525.89" y="-86.3" font-family="Times,serif" font-size="14.00">:feature:main</text>
</g>
<!-- :app:shared&#45;&gt;:feature:main -->
<g id="edge10" class="edge">
<title>:app:shared&#45;&gt;:feature:main</title>
<path fill="none" stroke="black" d="M3040.64,-156.23C2946.73,-148.61 2763.37,-132.05 2608.89,-108 2602.35,-106.98 2595.54,-105.8 2588.76,-104.53"/>
<polygon fill="black" stroke="black" points="2589.37,-101.08 2578.89,-102.64 2588.05,-107.96 2589.37,-101.08"/>
</g>
<!-- :feature:lmu&#45;windows&#45;connection -->
<g id="node10" class="node">
<title>:feature:lmu&#45;windows&#45;connection</title>
<ellipse fill="none" stroke="black" cx="2781.89" cy="-90" rx="164.37" ry="18"/>
<text text-anchor="middle" x="2781.89" y="-86.3" font-family="Times,serif" font-size="14.00">:feature:lmu&#45;windows&#45;connection</text>
</g>
<!-- :app:shared&#45;&gt;:feature:lmu&#45;windows&#45;connection -->
<g id="edge11" class="edge">
<title>:app:shared&#45;&gt;:feature:lmu&#45;windows&#45;connection</title>
<path fill="none" stroke="black" d="M3053.09,-150.14C3002.04,-139.01 2921.87,-121.53 2861.91,-108.45"/>
<polygon fill="black" stroke="black" points="2862.61,-105.02 2852.1,-106.31 2861.12,-111.86 2862.61,-105.02"/>
</g>
<!-- :feature:gt7&#45;ps5&#45;connection -->
<g id="node11" class="node">
<title>:feature:gt7&#45;ps5&#45;connection</title>
<ellipse fill="none" stroke="black" cx="3102.89" cy="-90" rx="138.38" ry="18"/>
<text text-anchor="middle" x="3102.89" y="-86.3" font-family="Times,serif" font-size="14.00">:feature:gt7&#45;ps5&#45;connection</text>
</g>
<!-- :app:shared&#45;&gt;:feature:gt7&#45;ps5&#45;connection -->
<g id="edge12" class="edge">
<title>:app:shared&#45;&gt;:feature:gt7&#45;ps5&#45;connection</title>
<path fill="none" stroke="black" d="M3102.89,-143.7C3102.89,-135.98 3102.89,-126.71 3102.89,-118.11"/>
<polygon fill="black" stroke="black" points="3106.39,-118.1 3102.89,-108.1 3099.39,-118.1 3106.39,-118.1"/>
</g>
<!-- :feature:server&#45;connection -->
<g id="node12" class="node">
<title>:feature:server&#45;connection</title>
<ellipse fill="none" stroke="black" cx="503.89" cy="-90" rx="133.48" ry="18"/>
<text text-anchor="middle" x="503.89" y="-86.3" font-family="Times,serif" font-size="14.00">:feature:server&#45;connection</text>
</g>
<!-- :app:shared&#45;&gt;:feature:server&#45;connection -->
<g id="edge13" class="edge">
<title>:app:shared&#45;&gt;:feature:server&#45;connection</title>
<path fill="none" stroke="black" d="M3037.44,-160.45C2697.51,-157.49 1130.55,-142.16 645.89,-108 632.54,-107.06 618.51,-105.76 604.68,-104.3"/>
<polygon fill="black" stroke="black" points="604.99,-100.81 594.67,-103.2 604.23,-107.77 604.99,-100.81"/>
</g>
<!-- :feature:lmu&#45;windows&#45;narrator -->
<g id="node13" class="node">
<title>:feature:lmu&#45;windows&#45;narrator</title>
<ellipse fill="none" stroke="black" cx="6465.89" cy="-90" rx="153.27" ry="18"/>
<text text-anchor="middle" x="6465.89" y="-86.3" font-family="Times,serif" font-size="14.00">:feature:lmu&#45;windows&#45;narrator</text>
</g>
<!-- :app:shared&#45;&gt;:feature:lmu&#45;windows&#45;narrator -->
<g id="edge14" class="edge">
<title>:app:shared&#45;&gt;:feature:lmu&#45;windows&#45;narrator</title>
<path fill="none" stroke="black" d="M3168.53,-160.7C3566.6,-158.73 5661.43,-146.69 6302.89,-108 6318.65,-107.05 6335.23,-105.71 6351.54,-104.2"/>
<polygon fill="black" stroke="black" points="6352.03,-107.67 6361.65,-103.24 6351.37,-100.7 6352.03,-107.67"/>
</g>
<!-- :feature:gt7&#45;ps5&#45;narrator -->
<g id="node14" class="node">
<title>:feature:gt7&#45;ps5&#45;narrator</title>
<ellipse fill="none" stroke="black" cx="6764.89" cy="-90" rx="127.28" ry="18"/>
<text text-anchor="middle" x="6764.89" y="-86.3" font-family="Times,serif" font-size="14.00">:feature:gt7&#45;ps5&#45;narrator</text>
</g>
<!-- :app:shared&#45;&gt;:feature:gt7&#45;ps5&#45;narrator -->
<g id="edge15" class="edge">
<title>:app:shared&#45;&gt;:feature:gt7&#45;ps5&#45;narrator</title>
<path fill="none" stroke="black" d="M3168.6,-160.99C3590.04,-160.75 5918.09,-157.23 6627.89,-108 6640.85,-107.1 6654.45,-105.82 6667.86,-104.36"/>
<polygon fill="black" stroke="black" points="6668.51,-107.81 6678.06,-103.21 6667.73,-100.85 6668.51,-107.81"/>
</g>
<!-- :feature:other&#45;license&#45;detail -->
<g id="node15" class="node">
<title>:feature:other&#45;license&#45;detail</title>
<ellipse fill="none" stroke="black" cx="7049.89" cy="-90" rx="139.98" ry="18"/>
<text text-anchor="middle" x="7049.89" y="-86.3" font-family="Times,serif" font-size="14.00">:feature:other&#45;license&#45;detail</text>
</g>
<!-- :app:shared&#45;&gt;:feature:other&#45;license&#45;detail -->
<g id="edge16" class="edge">
<title>:app:shared&#45;&gt;:feature:other&#45;license&#45;detail</title>
<path fill="none" stroke="black" d="M3168.65,-160.98C3608.81,-160.71 6132.97,-157.04 6900.89,-108 6915.14,-107.09 6930.12,-105.79 6944.87,-104.31"/>
<polygon fill="black" stroke="black" points="6945.44,-107.77 6955.03,-103.26 6944.72,-100.8 6945.44,-107.77"/>
</g>
<!-- :feature:other&#45;list -->
<g id="node16" class="node">
<title>:feature:other&#45;list</title>
<ellipse fill="none" stroke="black" cx="747.89" cy="-90" rx="92.88" ry="18"/>
<text text-anchor="middle" x="747.89" y="-86.3" font-family="Times,serif" font-size="14.00">:feature:other&#45;list</text>
</g>
<!-- :app:shared&#45;&gt;:feature:other&#45;list -->
<g id="edge17" class="edge">
<title>:app:shared&#45;&gt;:feature:other&#45;list</title>
<path fill="none" stroke="black" d="M3037.31,-160.73C2714.26,-159.19 1290.05,-150.1 848.89,-108 839.98,-107.15 830.68,-105.98 821.48,-104.64"/>
<polygon fill="black" stroke="black" points="821.96,-101.18 811.55,-103.14 820.91,-108.1 821.96,-101.18"/>
</g>
<!-- :feature:other&#45;server&#45;ip&#45;detail -->
<g id="node17" class="node">
<title>:feature:other&#45;server&#45;ip&#45;detail</title>
<ellipse fill="none" stroke="black" cx="7356.89" cy="-90" rx="148.67" ry="18"/>
<text text-anchor="middle" x="7356.89" y="-86.3" font-family="Times,serif" font-size="14.00">:feature:other&#45;server&#45;ip&#45;detail</text>
</g>
<!-- :app:shared&#45;&gt;:feature:other&#45;server&#45;ip&#45;detail -->
<g id="edge18" class="edge">
<title>:app:shared&#45;&gt;:feature:other&#45;server&#45;ip&#45;detail</title>
<path fill="none" stroke="black" d="M3168.56,-161C3628.04,-160.87 6367.43,-158 7198.89,-108 7214.03,-107.09 7229.94,-105.79 7245.61,-104.3"/>
<polygon fill="black" stroke="black" points="7246.25,-107.76 7255.86,-103.3 7245.57,-100.79 7246.25,-107.76"/>
</g>
<!-- :feature:other&#45;console&#45;ip&#45;detail -->
<g id="node18" class="node">
<title>:feature:other&#45;console&#45;ip&#45;detail</title>
<ellipse fill="none" stroke="black" cx="3412.89" cy="-90" rx="153.27" ry="18"/>
<text text-anchor="middle" x="3412.89" y="-86.3" font-family="Times,serif" font-size="14.00">:feature:other&#45;console&#45;ip&#45;detail</text>
</g>
<!-- :app:shared&#45;&gt;:feature:other&#45;console&#45;ip&#45;detail -->
<g id="edge19" class="edge">
<title>:app:shared&#45;&gt;:feature:other&#45;console&#45;ip&#45;detail</title>
<path fill="none" stroke="black" d="M3152.01,-149.91C3201.39,-138.76 3278.25,-121.4 3335.77,-108.41"/>
<polygon fill="black" stroke="black" points="3336.57,-111.82 3345.55,-106.21 3335.02,-104.99 3336.57,-111.82"/>
</g>
<!-- :feature:other&#45;readout&#45;start&#45;sound&#45;detail -->
<g id="node19" class="node">
<title>:feature:other&#45;readout&#45;start&#45;sound&#45;detail</title>
<ellipse fill="none" stroke="black" cx="1057.89" cy="-90" rx="199.56" ry="18"/>
<text text-anchor="middle" x="1057.89" y="-86.3" font-family="Times,serif" font-size="14.00">:feature:other&#45;readout&#45;start&#45;sound&#45;detail</text>
</g>
<!-- :app:shared&#45;&gt;:feature:other&#45;readout&#45;start&#45;sound&#45;detail -->
<g id="edge20" class="edge">
<title>:app:shared&#45;&gt;:feature:other&#45;readout&#45;start&#45;sound&#45;detail</title>
<path fill="none" stroke="black" d="M3037.35,-160.36C2799.34,-157.76 1958.38,-146.26 1265.89,-108 1245.91,-106.9 1224.88,-105.48 1204.17,-103.93"/>
<polygon fill="black" stroke="black" points="1204.28,-100.43 1194.04,-103.16 1203.75,-107.41 1204.28,-100.43"/>
</g>
<!-- :feature:other&#45;volume&#45;detail -->
<g id="node20" class="node">
<title>:feature:other&#45;volume&#45;detail</title>
<ellipse fill="none" stroke="black" cx="3724.89" cy="-90" rx="141.07" ry="18"/>
<text text-anchor="middle" x="3724.89" y="-86.3" font-family="Times,serif" font-size="14.00">:feature:other&#45;volume&#45;detail</text>
</g>
<!-- :app:shared&#45;&gt;:feature:other&#45;volume&#45;detail -->
<g id="edge21" class="edge">
<title>:app:shared&#45;&gt;:feature:other&#45;volume&#45;detail</title>
<path fill="none" stroke="black" d="M3162.5,-154.33C3252.04,-144.3 3426.58,-124.73 3574.89,-108 3587.22,-106.61 3600.12,-105.15 3612.96,-103.7"/>
<polygon fill="black" stroke="black" points="3613.68,-107.14 3623.22,-102.54 3612.89,-100.18 3613.68,-107.14"/>
</g>
<!-- :feature:other&#45;keep&#45;screen&#45;on&#45;detail -->
<g id="node21" class="node">
<title>:feature:other&#45;keep&#45;screen&#45;on&#45;detail</title>
<ellipse fill="none" stroke="black" cx="1451.89" cy="-90" rx="176.57" ry="18"/>
<text text-anchor="middle" x="1451.89" y="-86.3" font-family="Times,serif" font-size="14.00">:feature:other&#45;keep&#45;screen&#45;on&#45;detail</text>
</g>
<!-- :app:shared&#45;&gt;:feature:other&#45;keep&#45;screen&#45;on&#45;detail -->
<g id="edge22" class="edge">
<title>:app:shared&#45;&gt;:feature:other&#45;keep&#45;screen&#45;on&#45;detail</title>
<path fill="none" stroke="black" d="M3037.48,-159.92C2831.51,-156.23 2177.94,-142.42 1637.89,-108 1620.41,-106.89 1602.04,-105.49 1583.91,-103.97"/>
<polygon fill="black" stroke="black" points="1584.14,-100.48 1573.88,-103.12 1583.54,-107.45 1584.14,-100.48"/>
</g>
<!-- :feature:telemetry&#45;log&#45;list -->
<g id="node22" class="node">
<title>:feature:telemetry&#45;log&#45;list</title>
<ellipse fill="none" stroke="black" cx="1776.89" cy="-90" rx="129.98" ry="18"/>
<text text-anchor="middle" x="1776.89" y="-86.3" font-family="Times,serif" font-size="14.00">:feature:telemetry&#45;log&#45;list</text>
</g>
<!-- :app:shared&#45;&gt;:feature:telemetry&#45;log&#45;list -->
<g id="edge23" class="edge">
<title>:app:shared&#45;&gt;:feature:telemetry&#45;log&#45;list</title>
<path fill="none" stroke="black" d="M3037.47,-159.85C2857.98,-156.31 2342.7,-143.58 1915.89,-108 1903.24,-106.95 1889.98,-105.62 1876.87,-104.16"/>
<polygon fill="black" stroke="black" points="1877.22,-100.68 1866.88,-103.03 1876.43,-107.64 1877.22,-100.68"/>
</g>
<!-- :feature:telemetry&#45;log&#45;detail -->
<g id="node23" class="node">
<title>:feature:telemetry&#45;log&#45;detail</title>
<ellipse fill="none" stroke="black" cx="2066.89" cy="-90" rx="141.88" ry="18"/>
<text text-anchor="middle" x="2066.89" y="-86.3" font-family="Times,serif" font-size="14.00">:feature:telemetry&#45;log&#45;detail</text>
</g>
<!-- :app:shared&#45;&gt;:feature:telemetry&#45;log&#45;detail -->
<g id="edge24" class="edge">
<title>:app:shared&#45;&gt;:feature:telemetry&#45;log&#45;detail</title>
<path fill="none" stroke="black" d="M3038.4,-158.3C2892.23,-151.91 2524.59,-134.43 2217.89,-108 2204.35,-106.83 2190.15,-105.45 2176.1,-103.98"/>
<polygon fill="black" stroke="black" points="2176.22,-100.47 2165.91,-102.9 2175.48,-107.43 2176.22,-100.47"/>
</g>
<!-- :feature:readout&#45;list -->
<g id="node24" class="node">
<title>:feature:readout&#45;list</title>
<ellipse fill="none" stroke="black" cx="2330.89" cy="-90" rx="103.98" ry="18"/>
<text text-anchor="middle" x="2330.89" y="-86.3" font-family="Times,serif" font-size="14.00">:feature:readout&#45;list</text>
</g>
<!-- :app:shared&#45;&gt;:feature:readout&#45;list -->
<g id="edge25" class="edge">
<title>:app:shared&#45;&gt;:feature:readout&#45;list</title>
<path fill="none" stroke="black" d="M3039.13,-157.34C2921.32,-150.25 2661.67,-133.11 2443.89,-108 2434.28,-106.89 2424.24,-105.59 2414.27,-104.21"/>
<polygon fill="black" stroke="black" points="2414.73,-100.74 2404.34,-102.8 2413.75,-107.67 2414.73,-100.74"/>
</g>
<!-- :feature:lmu&#45;windows&#45;readout&#45;vehicle&#45;approach&#45;detail -->
<g id="node25" class="node">
<title>:feature:lmu&#45;windows&#45;readout&#45;vehicle&#45;approach&#45;detail</title>
<ellipse fill="none" stroke="black" cx="4144.89" cy="-90" rx="260.75" ry="18"/>
<text text-anchor="middle" x="4144.89" y="-86.3" font-family="Times,serif" font-size="14.00">:feature:lmu&#45;windows&#45;readout&#45;vehicle&#45;approach&#45;detail</text>
</g>
<!-- :app:shared&#45;&gt;:feature:lmu&#45;windows&#45;readout&#45;vehicle&#45;approach&#45;detail -->
<g id="edge26" class="edge">
<title>:app:shared&#45;&gt;:feature:lmu&#45;windows&#45;readout&#45;vehicle&#45;approach&#45;detail</title>
<path fill="none" stroke="black" d="M3165.72,-156.78C3318.9,-146.49 3716.45,-119.78 3955.25,-103.74"/>
<polygon fill="black" stroke="black" points="3955.7,-107.22 3965.44,-103.06 3955.23,-100.23 3955.7,-107.22"/>
</g>
<!-- :feature:lmu&#45;windows&#45;readout&#45;flag&#45;detail -->
<g id="node26" class="node">
<title>:feature:lmu&#45;windows&#45;readout&#45;flag&#45;detail</title>
<ellipse fill="none" stroke="black" cx="4622.89" cy="-90" rx="199.56" ry="18"/>
<text text-anchor="middle" x="4622.89" y="-86.3" font-family="Times,serif" font-size="14.00">:feature:lmu&#45;windows&#45;readout&#45;flag&#45;detail</text>
</g>
<!-- :app:shared&#45;&gt;:feature:lmu&#45;windows&#45;readout&#45;flag&#45;detail -->
<g id="edge27" class="edge">
<title>:app:shared&#45;&gt;:feature:lmu&#45;windows&#45;readout&#45;flag&#45;detail</title>
<path fill="none" stroke="black" d="M3168.12,-159.32C3359.62,-154.17 3936.77,-137.18 4414.89,-108 4434.38,-106.81 4454.88,-105.37 4475.11,-103.83"/>
<polygon fill="black" stroke="black" points="4475.63,-107.3 4485.33,-103.05 4475.09,-100.32 4475.63,-107.3"/>
</g>
<!-- :feature:lmu&#45;windows&#45;readout&#45;vehicle&#45;damage&#45;detail -->
<g id="node27" class="node">
<title>:feature:lmu&#45;windows&#45;readout&#45;vehicle&#45;damage&#45;detail</title>
<ellipse fill="none" stroke="black" cx="5094.89" cy="-90" rx="254.55" ry="18"/>
<text text-anchor="middle" x="5094.89" y="-86.3" font-family="Times,serif" font-size="14.00">:feature:lmu&#45;windows&#45;readout&#45;vehicle&#45;damage&#45;detail</text>
</g>
<!-- :app:shared&#45;&gt;:feature:lmu&#45;windows&#45;readout&#45;vehicle&#45;damage&#45;detail -->
<g id="edge28" class="edge">
<title>:app:shared&#45;&gt;:feature:lmu&#45;windows&#45;readout&#45;vehicle&#45;damage&#45;detail</title>
<path fill="none" stroke="black" d="M3168.08,-159.8C3396.69,-155.41 4183.19,-138.9 4831.89,-108 4857.22,-106.79 4883.91,-105.31 4910.18,-103.73"/>
<polygon fill="black" stroke="black" points="4910.45,-107.22 4920.22,-103.12 4910.03,-100.24 4910.45,-107.22"/>
</g>
<!-- :feature:gt7&#45;ps5&#45;readout&#45;my&#45;bestlap&#45;detail -->
<g id="node28" class="node">
<title>:feature:gt7&#45;ps5&#45;readout&#45;my&#45;bestlap&#45;detail</title>
<ellipse fill="none" stroke="black" cx="5575.89" cy="-90" rx="207.96" ry="18"/>
<text text-anchor="middle" x="5575.89" y="-86.3" font-family="Times,serif" font-size="14.00">:feature:gt7&#45;ps5&#45;readout&#45;my&#45;bestlap&#45;detail</text>
</g>
<!-- :app:shared&#45;&gt;:feature:gt7&#45;ps5&#45;readout&#45;my&#45;bestlap&#45;detail -->
<g id="edge29" class="edge">
<title>:app:shared&#45;&gt;:feature:gt7&#45;ps5&#45;readout&#45;my&#45;bestlap&#45;detail</title>
<path fill="none" stroke="black" d="M3168.46,-160.77C3438.77,-159.55 4493.21,-152.04 5358.89,-108 5380.08,-106.92 5402.42,-105.5 5424.37,-103.93"/>
<polygon fill="black" stroke="black" points="5424.71,-107.42 5434.43,-103.21 5424.2,-100.44 5424.71,-107.42"/>
</g>
<!-- :feature:gt7&#45;ps5&#45;readout&#45;remaining&#45;fuel&#45;laps&#45;detail -->
<g id="node29" class="node">
<title>:feature:gt7&#45;ps5&#45;readout&#45;remaining&#45;fuel&#45;laps&#45;detail</title>
<ellipse fill="none" stroke="black" cx="6047.89" cy="-90" rx="246.16" ry="18"/>
<text text-anchor="middle" x="6047.89" y="-86.3" font-family="Times,serif" font-size="14.00">:feature:gt7&#45;ps5&#45;readout&#45;remaining&#45;fuel&#45;laps&#45;detail</text>
</g>
<!-- :app:shared&#45;&gt;:feature:gt7&#45;ps5&#45;readout&#45;remaining&#45;fuel&#45;laps&#45;detail -->
<g id="edge30" class="edge">
<title>:app:shared&#45;&gt;:feature:gt7&#45;ps5&#45;readout&#45;remaining&#45;fuel&#45;laps&#45;detail</title>
<path fill="none" stroke="black" d="M3168.47,-160.84C3469.18,-159.87 4746.38,-153.17 5792.89,-108 5818.14,-106.91 5844.79,-105.46 5870.95,-103.87"/>
<polygon fill="black" stroke="black" points="5871.18,-107.36 5880.95,-103.26 5870.75,-100.38 5871.18,-107.36"/>
</g>
<!-- :core:data&#45;&gt;:core:domain -->
<g id="edge32" class="edge">
<title>:core:data&#45;&gt;:core:domain</title>
<path fill="none" stroke="black" d="M586.75,-149.65C578.85,-147.66 570.63,-145.69 562.89,-144 470.18,-123.79 295.53,-139.83 361.89,-72 403.7,-29.26 2284.95,-20.62 2701,-19.23"/>
<polygon fill="black" stroke="black" points="2701.15,-22.73 2711.14,-19.2 2701.13,-15.73 2701.15,-22.73"/>
</g>
<!-- :core:gt7&#45;ps5&#45;data&#45;&gt;:core:domain -->
<g id="edge33" class="edge">
<title>:core:gt7&#45;ps5&#45;data&#45;&gt;:core:domain</title>
<path fill="none" stroke="black" d="M399.35,-147.84C378.12,-139.97 356.39,-127.53 343.89,-108 335.26,-94.53 332.7,-83.44 343.89,-72 386.03,-28.93 2282.29,-20.55 2700.74,-19.22"/>
<polygon fill="black" stroke="black" points="2700.95,-22.72 2710.94,-19.19 2700.93,-15.72 2700.95,-22.72"/>
</g>
<!-- :app:desktopApp -->
<g id="node7" class="node">
<title>:app:desktopApp</title>
<ellipse fill="none" stroke="black" cx="446.89" cy="-234" rx="88.28" ry="18"/>
<text text-anchor="middle" x="446.89" y="-230.3" font-family="Times,serif" font-size="14.00">:app:desktopApp</text>
</g>
<!-- :app:desktopApp&#45;&gt;:server -->
<g id="edge9" class="edge">
<title>:app:desktopApp&#45;&gt;:server</title>
<path fill="none" stroke="black" d="M414.21,-217.12C391.9,-206.27 362.31,-191.88 339.24,-180.67"/>
<polygon fill="black" stroke="black" points="340.64,-177.46 330.12,-176.24 337.58,-183.76 340.64,-177.46"/>
</g>
<!-- :app:desktopApp&#45;&gt;:app:shared -->
<g id="edge5" class="edge">
<title>:app:desktopApp&#45;&gt;:app:shared</title>
<path fill="none" stroke="black" d="M507.75,-220.87C519.69,-218.91 532.15,-217.14 543.89,-216 1044.09,-167.28 2658.17,-163.28 3027.24,-163.01"/>
<polygon fill="black" stroke="black" points="3027.28,-166.51 3037.28,-163 3027.28,-159.51 3027.28,-166.51"/>
</g>
<!-- :app:desktopApp&#45;&gt;:core:data -->
<g id="edge6" class="edge">
<title>:app:desktopApp&#45;&gt;:core:data</title>
<path fill="none" stroke="black" d="M486.38,-217.81C515.34,-206.67 554.68,-191.54 584.69,-180"/>
<polygon fill="black" stroke="black" points="586.01,-183.24 594.08,-176.39 583.49,-176.71 586.01,-183.24"/>
</g>
<!-- :app:desktopApp&#45;&gt;:core:gt7&#45;ps5&#45;data -->
<g id="edge8" class="edge">
<title>:app:desktopApp&#45;&gt;:core:gt7&#45;ps5&#45;data</title>
<path fill="none" stroke="black" d="M449.86,-215.7C451.18,-207.98 452.77,-198.71 454.24,-190.11"/>
<polygon fill="black" stroke="black" points="457.72,-190.55 455.96,-180.1 450.82,-189.37 457.72,-190.55"/>
</g>
<!-- :core:lmu&#45;windows&#45;data -->
<g id="node8" class="node">
<title>:core:lmu&#45;windows&#45;data</title>
<ellipse fill="none" stroke="black" cx="120.89" cy="-162" rx="120.78" ry="18"/>
<text text-anchor="middle" x="120.89" y="-158.3" font-family="Times,serif" font-size="14.00">:core:lmu&#45;windows&#45;data</text>
</g>
<!-- :app:desktopApp&#45;&gt;:core:lmu&#45;windows&#45;data -->
<g id="edge7" class="edge">
<title>:app:desktopApp&#45;&gt;:core:lmu&#45;windows&#45;data</title>
<path fill="none" stroke="black" d="M388.23,-220.4C334.6,-208.89 254.96,-191.79 196.56,-179.25"/>
<polygon fill="black" stroke="black" points="197.15,-175.8 186.64,-177.12 195.68,-182.64 197.15,-175.8"/>
</g>
<!-- :core:lmu&#45;windows&#45;data&#45;&gt;:core:domain -->
<g id="edge34" class="edge">
<title>:core:lmu&#45;windows&#45;data&#45;&gt;:core:domain</title>
<path fill="none" stroke="black" d="M146.67,-144.27C181.41,-122.78 245.95,-86.52 306.89,-72 543.75,-15.58 2300.6,-17.52 2700.88,-18.7"/>
<polygon fill="black" stroke="black" points="2700.91,-22.2 2710.92,-18.73 2700.94,-15.2 2700.91,-22.2"/>
</g>
<!-- :feature:main&#45;&gt;:core:domain -->
<g id="edge51" class="edge">
<title>:feature:main&#45;&gt;:core:domain</title>
<path fill="none" stroke="black" d="M2573.14,-76.08C2616.21,-64.3 2679.9,-46.89 2725.59,-34.39"/>
<polygon fill="black" stroke="black" points="2726.62,-37.74 2735.34,-31.73 2724.77,-30.99 2726.62,-37.74"/>
</g>
<!-- :feature:lmu&#45;windows&#45;connection&#45;&gt;:core:domain -->
<g id="edge42" class="edge">
<title>:feature:lmu&#45;windows&#45;connection&#45;&gt;:core:domain</title>
<path fill="none" stroke="black" d="M2781.89,-71.7C2781.89,-63.98 2781.89,-54.71 2781.89,-46.11"/>
<polygon fill="black" stroke="black" points="2785.39,-46.1 2781.89,-36.1 2778.39,-46.1 2785.39,-46.1"/>
</g>
<!-- :feature:gt7&#45;ps5&#45;connection&#45;&gt;:core:domain -->
<g id="edge35" class="edge">
<title>:feature:gt7&#45;ps5&#45;connection&#45;&gt;:core:domain</title>
<path fill="none" stroke="black" d="M3035.21,-74.24C2978.67,-61.91 2898.72,-44.48 2843.84,-32.51"/>
<polygon fill="black" stroke="black" points="2844.42,-29.05 2833.9,-30.34 2842.92,-35.89 2844.42,-29.05"/>
</g>
<!-- :feature:server&#45;connection&#45;&gt;:core:domain -->
<g id="edge64" class="edge">
<title>:feature:server&#45;connection&#45;&gt;:core:domain</title>
<path fill="none" stroke="black" d="M595.05,-76.8C611.93,-74.91 629.42,-73.19 645.89,-72 1056.71,-42.38 2362.15,-24.27 2700.94,-19.99"/>
<polygon fill="black" stroke="black" points="2701.2,-23.48 2711.15,-19.86 2701.11,-16.48 2701.2,-23.48"/>
</g>
<!-- :feature:lmu&#45;windows&#45;narrator&#45;&gt;:core:domain -->
<g id="edge43" class="edge">
<title>:feature:lmu&#45;windows&#45;narrator&#45;&gt;:core:domain</title>
<path fill="none" stroke="black" d="M6361.66,-76.74C6342.15,-74.84 6321.92,-73.13 6302.89,-72 5601.66,-30.24 3321.99,-20.74 2862.89,-19.24"/>
<polygon fill="black" stroke="black" points="2862.71,-15.74 2852.7,-19.21 2862.69,-22.74 2862.71,-15.74"/>
</g>
<!-- :core:designsystem -->
<g id="node31" class="node">
<title>:core:designsystem</title>
<ellipse fill="none" stroke="black" cx="5575.89" cy="-18" rx="100.98" ry="18"/>
<text text-anchor="middle" x="5575.89" y="-14.3" font-family="Times,serif" font-size="14.00">:core:designsystem</text>
</g>
<!-- :feature:lmu&#45;windows&#45;narrator&#45;&gt;:core:designsystem -->
<g id="edge44" class="edge">
<title>:feature:lmu&#45;windows&#45;narrator&#45;&gt;:core:designsystem</title>
<path fill="none" stroke="black" d="M6357.65,-77.23C6339.38,-75.39 6320.6,-73.57 6302.89,-72 6081.07,-52.35 5820.69,-34.67 5679.58,-25.54"/>
<polygon fill="black" stroke="black" points="5679.41,-22.02 5669.21,-24.87 5678.96,-29.01 5679.41,-22.02"/>
</g>
<!-- :feature:gt7&#45;ps5&#45;narrator&#45;&gt;:core:domain -->
<g id="edge36" class="edge">
<title>:feature:gt7&#45;ps5&#45;narrator&#45;&gt;:core:domain</title>
<path fill="none" stroke="black" d="M6678.06,-76.77C6661.44,-74.84 6644.15,-73.12 6627.89,-72 6240.52,-45.38 3382.48,-23.38 2862.83,-19.58"/>
<polygon fill="black" stroke="black" points="2862.82,-16.08 2852.79,-19.51 2862.77,-23.08 2862.82,-16.08"/>
</g>
<!-- :feature:gt7&#45;ps5&#45;narrator&#45;&gt;:core:designsystem -->
<g id="edge37" class="edge">
<title>:feature:gt7&#45;ps5&#45;narrator&#45;&gt;:core:designsystem</title>
<path fill="none" stroke="black" d="M6676.19,-77.03C6660.13,-75.14 6643.53,-73.36 6627.89,-72 6284.25,-42.06 5875.88,-27.47 5684.73,-21.86"/>
<polygon fill="black" stroke="black" points="5684.78,-18.36 5674.68,-21.57 5684.57,-25.36 5684.78,-18.36"/>
</g>
<!-- :feature:other&#45;license&#45;detail&#45;&gt;:core:domain -->
<g id="edge55" class="edge">
<title>:feature:other&#45;license&#45;detail&#45;&gt;:core:domain</title>
<path fill="none" stroke="black" d="M6955.03,-76.73C6937.08,-74.82 6918.43,-73.11 6900.89,-72 6484.45,-45.63 3403.94,-23.29 2862.9,-19.55"/>
<polygon fill="black" stroke="black" points="2862.87,-16.05 2852.84,-19.48 2862.82,-23.05 2862.87,-16.05"/>
</g>
<!-- :feature:other&#45;license&#45;detail&#45;&gt;:core:designsystem -->
<g id="edge56" class="edge">
<title>:feature:other&#45;license&#45;detail&#45;&gt;:core:designsystem</title>
<path fill="none" stroke="black" d="M6953.41,-76.94C6935.95,-75.06 6917.89,-73.31 6900.89,-72 6451.02,-37.39 5913.38,-24.71 5686.03,-20.67"/>
<polygon fill="black" stroke="black" points="5685.82,-17.16 5675.76,-20.49 5685.7,-24.16 5685.82,-17.16"/>
</g>
<!-- :feature:other&#45;list&#45;&gt;:core:domain -->
<g id="edge57" class="edge">
<title>:feature:other&#45;list&#45;&gt;:core:domain</title>
<path fill="none" stroke="black" d="M811.83,-76.86C824.09,-74.92 836.85,-73.17 848.89,-72 1216.93,-36.16 2382.96,-22.75 2701.05,-19.71"/>
<polygon fill="black" stroke="black" points="2701.15,-23.21 2711.11,-19.62 2701.08,-16.21 2701.15,-23.21"/>
</g>
<!-- :feature:other&#45;server&#45;ip&#45;detail&#45;&gt;:core:domain -->
<g id="edge59" class="edge">
<title>:feature:other&#45;server&#45;ip&#45;detail&#45;&gt;:core:domain</title>
<path fill="none" stroke="black" d="M7256.29,-76.73C7237.25,-74.82 7217.48,-73.11 7198.89,-72 6750.69,-45.26 3426.16,-23.09 2862.87,-19.51"/>
<polygon fill="black" stroke="black" points="2862.83,-16.01 2852.8,-19.44 2862.78,-23.01 2862.83,-16.01"/>
</g>
<!-- :feature:other&#45;server&#45;ip&#45;detail&#45;&gt;:core:designsystem -->
<g id="edge60" class="edge">
<title>:feature:other&#45;server&#45;ip&#45;detail&#45;&gt;:core:designsystem</title>
<path fill="none" stroke="black" d="M7254.57,-76.87C7236.06,-74.99 7216.92,-73.26 7198.89,-72 6631,-32.23 5949.21,-22.23 5686.52,-19.77"/>
<polygon fill="black" stroke="black" points="5686.25,-16.27 5676.22,-19.68 5686.19,-23.27 5686.25,-16.27"/>
</g>
<!-- :feature:other&#45;console&#45;ip&#45;detail&#45;&gt;:core:domain -->
<g id="edge52" class="edge">
<title>:feature:other&#45;console&#45;ip&#45;detail&#45;&gt;:core:domain</title>
<path fill="none" stroke="black" d="M3305.49,-77.09C3177.39,-62.87 2966.66,-39.5 2855.63,-27.18"/>
<polygon fill="black" stroke="black" points="2855.85,-23.68 2845.52,-26.06 2855.08,-30.64 2855.85,-23.68"/>
</g>
<!-- :feature:other&#45;console&#45;ip&#45;detail&#45;&gt;:core:designsystem -->
<g id="edge53" class="edge">
<title>:feature:other&#45;console&#45;ip&#45;detail&#45;&gt;:core:designsystem</title>
<path fill="none" stroke="black" d="M3517.8,-76.78C3536.78,-74.92 3556.41,-73.21 3574.89,-72 4294.29,-24.8 5161.8,-19.29 5464.93,-18.9"/>
<polygon fill="black" stroke="black" points="5465.04,-22.4 5475.04,-18.89 5465.03,-15.4 5465.04,-22.4"/>
</g>
<!-- :feature:other&#45;readout&#45;start&#45;sound&#45;detail&#45;&gt;:core:domain -->
<g id="edge58" class="edge">
<title>:feature:other&#45;readout&#45;start&#45;sound&#45;detail&#45;&gt;:core:domain</title>
<path fill="none" stroke="black" d="M1194.88,-76.89C1218.55,-75.06 1242.92,-73.34 1265.89,-72 1814.17,-40.03 2475.21,-24.97 2701.44,-20.49"/>
<polygon fill="black" stroke="black" points="2701.63,-23.99 2711.56,-20.29 2701.5,-16.99 2701.63,-23.99"/>
</g>
<!-- :feature:other&#45;volume&#45;detail&#45;&gt;:core:domain -->
<g id="edge61" class="edge">
<title>:feature:other&#45;volume&#45;detail&#45;&gt;:core:domain</title>
<path fill="none" stroke="black" d="M3626.11,-77.15C3609.05,-75.29 3591.46,-73.49 3574.89,-72 3313.96,-48.51 3003.85,-30.71 2861.06,-23.08"/>
<polygon fill="black" stroke="black" points="2860.83,-19.56 2850.65,-22.53 2860.45,-26.55 2860.83,-19.56"/>
</g>
<!-- :feature:other&#45;volume&#45;detail&#45;&gt;:core:designsystem -->
<g id="edge62" class="edge">
<title>:feature:other&#45;volume&#45;detail&#45;&gt;:core:designsystem</title>
<path fill="none" stroke="black" d="M3821.61,-76.86C3839.31,-74.98 3857.64,-73.24 3874.89,-72 4473.52,-28.82 5193.16,-20.8 5464.83,-19.32"/>
<polygon fill="black" stroke="black" points="5465.11,-22.82 5475.09,-19.27 5465.07,-15.82 5465.11,-22.82"/>
</g>
<!-- :feature:other&#45;keep&#45;screen&#45;on&#45;detail&#45;&gt;:core:domain -->
<g id="edge54" class="edge">
<title>:feature:other&#45;keep&#45;screen&#45;on&#45;detail&#45;&gt;:core:domain</title>
<path fill="none" stroke="black" d="M1574.39,-77.02C1595.55,-75.17 1617.35,-73.41 1637.89,-72 2036.93,-44.53 2515.27,-27.51 2701.86,-21.47"/>
<polygon fill="black" stroke="black" points="2701.98,-24.97 2711.86,-21.15 2701.75,-17.97 2701.98,-24.97"/>
</g>
<!-- :feature:telemetry&#45;log&#45;list&#45;&gt;:core:domain -->
<g id="edge66" class="edge">
<title>:feature:telemetry&#45;log&#45;list&#45;&gt;:core:domain</title>
<path fill="none" stroke="black" d="M1867.65,-77.1C1883.7,-75.22 1900.27,-73.43 1915.89,-72 2204.93,-45.5 2549.51,-28.87 2702.24,-22.26"/>
<polygon fill="black" stroke="black" points="2702.62,-25.75 2712.46,-21.82 2702.32,-18.75 2702.62,-25.75"/>
</g>
<!-- :feature:telemetry&#45;log&#45;detail&#45;&gt;:core:domain -->
<g id="edge65" class="edge">
<title>:feature:telemetry&#45;log&#45;detail&#45;&gt;:core:domain</title>
<path fill="none" stroke="black" d="M2167.99,-77.36C2184.65,-75.51 2201.75,-73.67 2217.89,-72 2392.27,-53.99 2597.25,-35.37 2705.67,-25.71"/>
<polygon fill="black" stroke="black" points="2706.21,-29.18 2715.86,-24.81 2705.59,-22.21 2706.21,-29.18"/>
</g>
<!-- :feature:readout&#45;list&#45;&gt;:core:domain -->
<g id="edge63" class="edge">
<title>:feature:readout&#45;list&#45;&gt;:core:domain</title>
<path fill="none" stroke="black" d="M2405.62,-77.4C2491.17,-64.12 2630.15,-42.55 2713.12,-29.67"/>
<polygon fill="black" stroke="black" points="2713.86,-33.1 2723.2,-28.11 2712.78,-26.18 2713.86,-33.1"/>
</g>
<!-- :feature:lmu&#45;windows&#45;readout&#45;vehicle&#45;approach&#45;detail&#45;&gt;:core:domain -->
<g id="edge47" class="edge">
<title>:feature:lmu&#45;windows&#45;readout&#45;vehicle&#45;approach&#45;detail&#45;&gt;:core:domain</title>
<path fill="none" stroke="black" d="M3962.28,-77.14C3933.05,-75.35 3903.14,-73.57 3874.89,-72 3495.3,-50.85 3041.28,-30.38 2861.14,-22.45"/>
<polygon fill="black" stroke="black" points="2861.11,-18.95 2850.96,-22 2860.8,-25.94 2861.11,-18.95"/>
</g>
<!-- :feature:lmu&#45;windows&#45;readout&#45;vehicle&#45;approach&#45;detail&#45;&gt;:core:designsystem -->
<g id="edge48" class="edge">
<title>:feature:lmu&#45;windows&#45;readout&#45;vehicle&#45;approach&#45;detail&#45;&gt;:core:designsystem</title>
<path fill="none" stroke="black" d="M4326.82,-77.07C4355.94,-75.28 4385.74,-73.53 4413.89,-72 4802.06,-50.88 5263.49,-31.56 5468.52,-23.27"/>
<polygon fill="black" stroke="black" points="5468.84,-26.76 5478.69,-22.86 5468.55,-19.76 5468.84,-26.76"/>
</g>
<!-- :feature:lmu&#45;windows&#45;readout&#45;flag&#45;detail&#45;&gt;:core:domain -->
<g id="edge45" class="edge">
<title>:feature:lmu&#45;windows&#45;readout&#45;flag&#45;detail&#45;&gt;:core:domain</title>
<path fill="none" stroke="black" d="M4486.18,-76.86C4462.42,-75.03 4437.95,-73.32 4414.89,-72 3819.47,-38.03 3100.59,-24.11 2862.66,-20.22"/>
<polygon fill="black" stroke="black" points="2862.43,-16.71 2852.37,-20.05 2862.32,-23.71 2862.43,-16.71"/>
</g>
<!-- :feature:lmu&#45;windows&#45;readout&#45;flag&#45;detail&#45;&gt;:core:designsystem -->
<g id="edge46" class="edge">
<title>:feature:lmu&#45;windows&#45;readout&#45;flag&#45;detail&#45;&gt;:core:designsystem</title>
<path fill="none" stroke="black" d="M4764.13,-77.25C4786.46,-75.46 4809.3,-73.65 4830.89,-72 5060.37,-54.46 5329.76,-35.77 5473.41,-25.95"/>
<polygon fill="black" stroke="black" points="5473.79,-29.43 5483.53,-25.26 5473.32,-22.45 5473.79,-29.43"/>
</g>
<!-- :feature:lmu&#45;windows&#45;readout&#45;vehicle&#45;damage&#45;detail&#45;&gt;:core:domain -->
<g id="edge49" class="edge">
<title>:feature:lmu&#45;windows&#45;readout&#45;vehicle&#45;damage&#45;detail&#45;&gt;:core:domain</title>
<path fill="none" stroke="black" d="M4921.29,-76.82C4891.48,-75.01 4860.8,-73.31 4831.89,-72 4066.4,-37.38 3139.01,-23.51 2863.06,-19.97"/>
<polygon fill="black" stroke="black" points="2862.78,-16.47 2852.74,-19.84 2862.69,-23.47 2862.78,-16.47"/>
</g>
<!-- :feature:lmu&#45;windows&#45;readout&#45;vehicle&#45;damage&#45;detail&#45;&gt;:core:designsystem -->
<g id="edge50" class="edge">
<title>:feature:lmu&#45;windows&#45;readout&#45;vehicle&#45;damage&#45;detail&#45;&gt;:core:designsystem</title>
<path fill="none" stroke="black" d="M5200.74,-73.59C5287.75,-60.93 5409.44,-43.22 5490.36,-31.45"/>
<polygon fill="black" stroke="black" points="5491.12,-34.87 5500.51,-29.97 5490.11,-27.95 5491.12,-34.87"/>
</g>
<!-- :feature:gt7&#45;ps5&#45;readout&#45;my&#45;bestlap&#45;detail&#45;&gt;:core:domain -->
<g id="edge38" class="edge">
<title>:feature:gt7&#45;ps5&#45;readout&#45;my&#45;bestlap&#45;detail&#45;&gt;:core:domain</title>
<path fill="none" stroke="black" d="M5434.72,-76.76C5409.49,-74.9 5383.42,-73.21 5358.89,-72 4376.22,-23.44 3180.66,-19.2 2862.7,-18.97"/>
<polygon fill="black" stroke="black" points="2862.66,-15.47 2852.66,-18.96 2862.65,-22.47 2862.66,-15.47"/>
</g>
<!-- :feature:gt7&#45;ps5&#45;readout&#45;my&#45;bestlap&#45;detail&#45;&gt;:core:designsystem -->
<g id="edge39" class="edge">
<title>:feature:gt7&#45;ps5&#45;readout&#45;my&#45;bestlap&#45;detail&#45;&gt;:core:designsystem</title>
<path fill="none" stroke="black" d="M5575.89,-71.7C5575.89,-63.98 5575.89,-54.71 5575.89,-46.11"/>
<polygon fill="black" stroke="black" points="5579.39,-46.1 5575.89,-36.1 5572.39,-46.1 5579.39,-46.1"/>
</g>
<!-- :feature:gt7&#45;ps5&#45;readout&#45;remaining&#45;fuel&#45;laps&#45;detail&#45;&gt;:core:domain -->
<g id="edge40" class="edge">
<title>:feature:gt7&#45;ps5&#45;readout&#45;remaining&#45;fuel&#45;laps&#45;detail&#45;&gt;:core:domain</title>
<path fill="none" stroke="black" d="M5881.29,-76.71C5851.85,-74.88 5821.48,-73.2 5792.89,-72 4630.02,-23.03 3212.69,-19.15 2862.82,-18.97"/>
<polygon fill="black" stroke="black" points="2862.78,-15.47 2852.78,-18.97 2862.78,-22.47 2862.78,-15.47"/>
</g>
<!-- :feature:gt7&#45;ps5&#45;readout&#45;remaining&#45;fuel&#45;laps&#45;detail&#45;&gt;:core:designsystem -->
<g id="edge41" class="edge">
<title>:feature:gt7&#45;ps5&#45;readout&#45;remaining&#45;fuel&#45;laps&#45;detail&#45;&gt;:core:designsystem</title>
<path fill="none" stroke="black" d="M5944.31,-73.64C5859.21,-61.02 5740.15,-43.36 5660.65,-31.57"/>
<polygon fill="black" stroke="black" points="5661.08,-28.1 5650.67,-30.09 5660.05,-35.02 5661.08,-28.1"/>
</g>
<!-- :app:webApp -->
<g id="node30" class="node">
<title>:app:webApp</title>
<ellipse fill="none" stroke="black" cx="3102.89" cy="-234" rx="70.69" ry="18"/>
<text text-anchor="middle" x="3102.89" y="-230.3" font-family="Times,serif" font-size="14.00">:app:webApp</text>
</g>
<!-- :app:webApp&#45;&gt;:app:shared -->
<g id="edge31" class="edge">
<title>:app:webApp&#45;&gt;:app:shared</title>
<path fill="none" stroke="black" d="M3102.89,-215.7C3102.89,-207.98 3102.89,-198.71 3102.89,-190.11"/>
<polygon fill="black" stroke="black" points="3106.39,-190.1 3102.89,-180.1 3099.39,-190.1 3106.39,-190.1"/>
</g>
</g>
</svg>
