<?xml version="1.0" encoding="UTF-8" standalone="no"?>
<!DOCTYPE svg PUBLIC "-//W3C//DTD SVG 1.1//EN"
 "http://www.w3.org/Graphics/SVG/1.1/DTD/svg11.dtd">
<!-- Generated by graphviz version 14.1.5 (20260411.2331)
 -->
<!-- Title: G Pages: 1 -->
<svg width="1770pt" height="260pt"
 viewBox="0.00 0.00 1770.00 260.00" xmlns="http://www.w3.org/2000/svg" xmlns:xlink="http://www.w3.org/1999/xlink">
<g id="graph0" class="graph" transform="scale(1 1) rotate(0) translate(4 256)">
<title>G</title>
<polygon fill="white" stroke="none" points="-4,4 -4,-256 1766.5,-256 1766.5,4 -4,4"/>
<!-- :server -->
<g id="node1" class="node">
<title>:server</title>
<ellipse fill="none" stroke="black" cx="1685.67" cy="-90" rx="36" ry="18"/>
<text xml:space="preserve" text-anchor="middle" x="1685.67" y="-84.95" font-family="Times,serif" font-size="14.00">:server</text>
</g>
<!-- :core:domain -->
<g id="node2" class="node">
<title>:core:domain</title>
<ellipse fill="none" stroke="black" cx="1223.67" cy="-18" rx="60.05" ry="18"/>
<text xml:space="preserve" text-anchor="middle" x="1223.67" y="-12.95" font-family="Times,serif" font-size="14.00">:core:domain</text>
</g>
<!-- :server&#45;&gt;:core:domain -->
<g id="edge1" class="edge">
<title>:server&#45;&gt;:core:domain</title>
<path fill="none" stroke="black" d="M1658.87,-77.7C1652.95,-75.54 1646.66,-73.49 1640.67,-72 1520.95,-42.22 1377.5,-28.66 1293.87,-22.88"/>
<polygon fill="black" stroke="black" points="1294.2,-19.4 1283.99,-22.22 1293.73,-26.38 1294.2,-19.4"/>
</g>
<!-- :app:androidApp -->
<g id="node3" class="node">
<title>:app:androidApp</title>
<ellipse fill="none" stroke="black" cx="1332.67" cy="-234" rx="73.36" ry="18"/>
<text xml:space="preserve" text-anchor="middle" x="1332.67" y="-228.95" font-family="Times,serif" font-size="14.00">:app:androidApp</text>
</g>
<!-- :app:shared -->
<g id="node4" class="node">
<title>:app:shared</title>
<ellipse fill="none" stroke="black" cx="1136.67" cy="-162" rx="53.4" ry="18"/>
<text xml:space="preserve" text-anchor="middle" x="1136.67" y="-156.95" font-family="Times,serif" font-size="14.00">:app:shared</text>
</g>
<!-- :app:androidApp&#45;&gt;:app:shared -->
<g id="edge2" class="edge">
<title>:app:androidApp&#45;&gt;:app:shared</title>
<path fill="none" stroke="black" d="M1292.53,-218.67C1260.83,-207.35 1216.56,-191.53 1183.29,-179.65"/>
<polygon fill="black" stroke="black" points="1184.49,-176.36 1173.89,-176.29 1182.13,-182.95 1184.49,-176.36"/>
</g>
<!-- :core:data -->
<g id="node5" class="node">
<title>:core:data</title>
<ellipse fill="none" stroke="black" cx="1669.67" cy="-162" rx="47.26" ry="18"/>
<text xml:space="preserve" text-anchor="middle" x="1669.67" y="-156.95" font-family="Times,serif" font-size="14.00">:core:data</text>
</g>
<!-- :app:androidApp&#45;&gt;:core:data -->
<g id="edge3" class="edge">
<title>:app:androidApp&#45;&gt;:core:data</title>
<path fill="none" stroke="black" d="M1387.19,-221.68C1450.76,-208.47 1555.08,-186.8 1617.59,-173.82"/>
<polygon fill="black" stroke="black" points="1618.19,-177.27 1627.27,-171.81 1616.77,-170.41 1618.19,-177.27"/>
</g>
<!-- :feature:lmu&#45;connection -->
<g id="node7" class="node">
<title>:feature:lmu&#45;connection</title>
<ellipse fill="none" stroke="black" cx="861.67" cy="-90" rx="99.97" ry="18"/>
<text xml:space="preserve" text-anchor="middle" x="861.67" y="-84.95" font-family="Times,serif" font-size="14.00">:feature:lmu&#45;connection</text>
</g>
<!-- :app:shared&#45;&gt;:feature:lmu&#45;connection -->
<g id="edge7" class="edge">
<title>:app:shared&#45;&gt;:feature:lmu&#45;connection</title>
<path fill="none" stroke="black" d="M1094.9,-150.37C1050.87,-139.16 980.86,-121.34 929.01,-108.14"/>
<polygon fill="black" stroke="black" points="929.93,-104.77 919.38,-105.69 928.21,-111.55 929.93,-104.77"/>
</g>
<!-- :feature:narrator -->
<g id="node8" class="node">
<title>:feature:narrator</title>
<ellipse fill="none" stroke="black" cx="1050.67" cy="-90" rx="70.8" ry="18"/>
<text xml:space="preserve" text-anchor="middle" x="1050.67" y="-84.95" font-family="Times,serif" font-size="14.00">:feature:narrator</text>
</g>
<!-- :app:shared&#45;&gt;:feature:narrator -->
<g id="edge8" class="edge">
<title>:app:shared&#45;&gt;:feature:narrator</title>
<path fill="none" stroke="black" d="M1117.15,-145.12C1106.07,-136.09 1091.97,-124.62 1079.62,-114.57"/>
<polygon fill="black" stroke="black" points="1082.14,-112.11 1072.17,-108.51 1077.72,-117.53 1082.14,-112.11"/>
</g>
<!-- :feature:other&#45;detail -->
<g id="node9" class="node">
<title>:feature:other&#45;detail</title>
<ellipse fill="none" stroke="black" cx="1223.67" cy="-90" rx="84.11" ry="18"/>
<text xml:space="preserve" text-anchor="middle" x="1223.67" y="-84.95" font-family="Times,serif" font-size="14.00">:feature:other&#45;detail</text>
</g>
<!-- :app:shared&#45;&gt;:feature:other&#45;detail -->
<g id="edge9" class="edge">
<title>:app:shared&#45;&gt;:feature:other&#45;detail</title>
<path fill="none" stroke="black" d="M1156.41,-145.12C1167.54,-136.16 1181.67,-124.79 1194.1,-114.79"/>
<polygon fill="black" stroke="black" points="1196.01,-117.74 1201.61,-108.75 1191.62,-112.29 1196.01,-117.74"/>
</g>
<!-- :feature:other&#45;list -->
<g id="node10" class="node">
<title>:feature:other&#45;list</title>
<ellipse fill="none" stroke="black" cx="1400.67" cy="-90" rx="74.89" ry="18"/>
<text xml:space="preserve" text-anchor="middle" x="1400.67" y="-84.95" font-family="Times,serif" font-size="14.00">:feature:other&#45;list</text>
</g>
<!-- :app:shared&#45;&gt;:feature:other&#45;list -->
<g id="edge10" class="edge">
<title>:app:shared&#45;&gt;:feature:other&#45;list</title>
<path fill="none" stroke="black" d="M1177.63,-150.14C1221.39,-138.54 1291.17,-120.03 1341.03,-106.81"/>
<polygon fill="black" stroke="black" points="1341.75,-110.24 1350.52,-104.3 1339.95,-103.48 1341.75,-110.24"/>
</g>
<!-- :feature:readout -->
<g id="node11" class="node">
<title>:feature:readout</title>
<ellipse fill="none" stroke="black" cx="1562.67" cy="-90" rx="69.26" ry="18"/>
<text xml:space="preserve" text-anchor="middle" x="1562.67" y="-84.95" font-family="Times,serif" font-size="14.00">:feature:readout</text>
</g>
<!-- :app:shared&#45;&gt;:feature:readout -->
<g id="edge11" class="edge">
<title>:app:shared&#45;&gt;:feature:readout</title>
<path fill="none" stroke="black" d="M1185.82,-154.52C1253.37,-145.38 1378.6,-127.62 1484.67,-108 1489.93,-107.03 1495.37,-105.96 1500.83,-104.85"/>
<polygon fill="black" stroke="black" points="1501.43,-108.3 1510.51,-102.84 1500.01,-101.45 1501.43,-108.3"/>
</g>
<!-- :feature:readout&#45;vehicle&#45;approach -->
<g id="node12" class="node">
<title>:feature:readout&#45;vehicle&#45;approach</title>
<ellipse fill="none" stroke="black" cx="607.67" cy="-90" rx="135.8" ry="18"/>
<text xml:space="preserve" text-anchor="middle" x="607.67" y="-84.95" font-family="Times,serif" font-size="14.00">:feature:readout&#45;vehicle&#45;approach</text>
</g>
<!-- :app:shared&#45;&gt;:feature:readout&#45;vehicle&#45;approach -->
<g id="edge12" class="edge">
<title>:app:shared&#45;&gt;:feature:readout&#45;vehicle&#45;approach</title>
<path fill="none" stroke="black" d="M1087.85,-154.54C1002.94,-143.31 826.29,-119.93 712.55,-104.88"/>
<polygon fill="black" stroke="black" points="713.28,-101.44 702.9,-103.6 712.36,-108.38 713.28,-101.44"/>
</g>
<!-- :feature:readout&#45;flag -->
<g id="node13" class="node">
<title>:feature:readout&#45;flag</title>
<ellipse fill="none" stroke="black" cx="86.67" cy="-90" rx="86.67" ry="18"/>
<text xml:space="preserve" text-anchor="middle" x="86.67" y="-84.95" font-family="Times,serif" font-size="14.00">:feature:readout&#45;flag</text>
</g>
<!-- :app:shared&#45;&gt;:feature:readout&#45;flag -->
<g id="edge13" class="edge">
<title>:app:shared&#45;&gt;:feature:readout&#45;flag</title>
<path fill="none" stroke="black" d="M1083.21,-160.27C937.99,-157.81 524.17,-147.58 182.67,-108 175.15,-107.13 167.34,-106.04 159.56,-104.85"/>
<polygon fill="black" stroke="black" points="160.14,-101.4 149.71,-103.26 159.03,-108.31 160.14,-101.4"/>
</g>
<!-- :feature:readout&#45;vehicle&#45;damage -->
<g id="node14" class="node">
<title>:feature:readout&#45;vehicle&#45;damage</title>
<ellipse fill="none" stroke="black" cx="322.67" cy="-90" rx="131.19" ry="18"/>
<text xml:space="preserve" text-anchor="middle" x="322.67" y="-84.95" font-family="Times,serif" font-size="14.00">:feature:readout&#45;vehicle&#45;damage</text>
</g>
<!-- :app:shared&#45;&gt;:feature:readout&#45;vehicle&#45;damage -->
<g id="edge14" class="edge">
<title>:app:shared&#45;&gt;:feature:readout&#45;vehicle&#45;damage</title>
<path fill="none" stroke="black" d="M1084.59,-157.66C971.34,-150.23 694.21,-131.15 462.67,-108 451.31,-106.86 439.45,-105.58 427.65,-104.24"/>
<polygon fill="black" stroke="black" points="428.2,-100.78 417.87,-103.11 427.4,-107.73 428.2,-100.78"/>
</g>
<!-- :core:data&#45;&gt;:core:domain -->
<g id="edge16" class="edge">
<title>:core:data&#45;&gt;:core:domain</title>
<path fill="none" stroke="black" d="M1692.47,-145.95C1717.69,-127.51 1752.11,-95.8 1730.67,-72 1702.03,-40.21 1427.4,-26.21 1294.72,-21.26"/>
<polygon fill="black" stroke="black" points="1295.13,-17.77 1285.01,-20.9 1294.87,-24.77 1295.13,-17.77"/>
</g>
<!-- :app:desktopApp -->
<g id="node6" class="node">
<title>:app:desktopApp</title>
<ellipse fill="none" stroke="black" cx="1669.67" cy="-234" rx="73.87" ry="18"/>
<text xml:space="preserve" text-anchor="middle" x="1669.67" y="-228.95" font-family="Times,serif" font-size="14.00">:app:desktopApp</text>
</g>
<!-- :app:desktopApp&#45;&gt;:core:domain -->
<g id="edge6" class="edge">
<title>:app:desktopApp&#45;&gt;:core:domain</title>
<path fill="none" stroke="black" d="M1692,-216.51C1703.51,-206.99 1716.92,-194.11 1725.67,-180 1751.47,-138.36 1780.52,-108.34 1747.67,-72 1717.85,-39.01 1430.77,-25.55 1294.63,-20.99"/>
<polygon fill="black" stroke="black" points="1295.14,-17.51 1285.03,-20.68 1294.91,-24.51 1295.14,-17.51"/>
</g>
<!-- :app:desktopApp&#45;&gt;:app:shared -->
<g id="edge4" class="edge">
<title>:app:desktopApp&#45;&gt;:app:shared</title>
<path fill="none" stroke="black" d="M1605.64,-224.59C1501.9,-210.97 1298.5,-184.25 1197.11,-170.94"/>
<polygon fill="black" stroke="black" points="1197.73,-167.49 1187.36,-169.66 1196.82,-174.43 1197.73,-167.49"/>
</g>
<!-- :app:desktopApp&#45;&gt;:core:data -->
<g id="edge5" class="edge">
<title>:app:desktopApp&#45;&gt;:core:data</title>
<path fill="none" stroke="black" d="M1669.67,-215.7C1669.67,-208.41 1669.67,-199.73 1669.67,-191.54"/>
<polygon fill="black" stroke="black" points="1673.17,-191.62 1669.67,-181.62 1666.17,-191.62 1673.17,-191.62"/>
</g>
<!-- :feature:lmu&#45;connection&#45;&gt;:core:domain -->
<g id="edge17" class="edge">
<title>:feature:lmu&#45;connection&#45;&gt;:core:domain</title>
<path fill="none" stroke="black" d="M928.06,-76.16C995.17,-63.18 1097.97,-43.31 1162.97,-30.74"/>
<polygon fill="black" stroke="black" points="1163.61,-34.18 1172.76,-28.84 1162.28,-27.31 1163.61,-34.18"/>
</g>
<!-- :feature:narrator&#45;&gt;:core:domain -->
<g id="edge18" class="edge">
<title>:feature:narrator&#45;&gt;:core:domain</title>
<path fill="none" stroke="black" d="M1087.36,-74.15C1113.92,-63.41 1149.98,-48.81 1178.34,-37.34"/>
<polygon fill="black" stroke="black" points="1179.44,-40.67 1187.4,-33.68 1176.81,-34.18 1179.44,-40.67"/>
</g>
<!-- :feature:other&#45;detail&#45;&gt;:core:domain -->
<g id="edge19" class="edge">
<title>:feature:other&#45;detail&#45;&gt;:core:domain</title>
<path fill="none" stroke="black" d="M1223.67,-71.7C1223.67,-64.41 1223.67,-55.73 1223.67,-47.54"/>
<polygon fill="black" stroke="black" points="1227.17,-47.62 1223.67,-37.62 1220.17,-47.62 1227.17,-47.62"/>
</g>
<!-- :feature:other&#45;list&#45;&gt;:core:domain -->
<g id="edge20" class="edge">
<title>:feature:other&#45;list&#45;&gt;:core:domain</title>
<path fill="none" stroke="black" d="M1363.13,-74.15C1335.74,-63.32 1298.48,-48.59 1269.37,-37.07"/>
<polygon fill="black" stroke="black" points="1271.03,-33.97 1260.45,-33.55 1268.46,-40.48 1271.03,-33.97"/>
</g>
<!-- :feature:readout&#45;&gt;:core:domain -->
<g id="edge21" class="edge">
<title>:feature:readout&#45;&gt;:core:domain</title>
<path fill="none" stroke="black" d="M1511.08,-77.65C1502.27,-75.74 1493.21,-73.8 1484.67,-72 1415.96,-57.54 1336.92,-41.58 1283.99,-31"/>
<polygon fill="black" stroke="black" points="1284.75,-27.58 1274.26,-29.05 1283.38,-34.44 1284.75,-27.58"/>
</g>
<!-- :feature:readout&#45;vehicle&#45;approach&#45;&gt;:core:domain -->
<g id="edge24" class="edge">
<title>:feature:readout&#45;vehicle&#45;approach&#45;&gt;:core:domain</title>
<path fill="none" stroke="black" d="M706.72,-77.32C722.1,-75.53 737.81,-73.71 752.67,-72 896.72,-55.45 1065.62,-36.57 1156.91,-26.41"/>
<polygon fill="black" stroke="black" points="1157.13,-29.91 1166.68,-25.33 1156.36,-22.95 1157.13,-29.91"/>
</g>
<!-- :core:designsystem -->
<g id="node16" class="node">
<title>:core:designsystem</title>
<ellipse fill="none" stroke="black" cx="322.67" cy="-18" rx="82.06" ry="18"/>
<text xml:space="preserve" text-anchor="middle" x="322.67" y="-12.95" font-family="Times,serif" font-size="14.00">:core:designsystem</text>
</g>
<!-- :feature:readout&#45;vehicle&#45;approach&#45;&gt;:core:designsystem -->
<g id="edge25" class="edge">
<title>:feature:readout&#45;vehicle&#45;approach&#45;&gt;:core:designsystem</title>
<path fill="none" stroke="black" d="M545.12,-73.64C498.25,-62.13 434.31,-46.42 387.01,-34.8"/>
<polygon fill="black" stroke="black" points="387.98,-31.44 377.44,-32.45 386.31,-38.24 387.98,-31.44"/>
</g>
<!-- :feature:readout&#45;flag&#45;&gt;:core:domain -->
<g id="edge22" class="edge">
<title>:feature:readout&#45;flag&#45;&gt;:core:domain</title>
<path fill="none" stroke="black" d="M148.21,-76.93C159.63,-75.03 171.48,-73.27 182.67,-72 545.23,-30.83 982.48,-21.63 1151.83,-19.59"/>
<polygon fill="black" stroke="black" points="1151.84,-23.09 1161.8,-19.47 1151.76,-16.09 1151.84,-23.09"/>
</g>
<!-- :feature:readout&#45;flag&#45;&gt;:core:designsystem -->
<g id="edge23" class="edge">
<title>:feature:readout&#45;flag&#45;&gt;:core:designsystem</title>
<path fill="none" stroke="black" d="M134.99,-74.67C172.47,-63.55 224.54,-48.1 264.33,-36.3"/>
<polygon fill="black" stroke="black" points="265.17,-39.71 273.76,-33.51 263.18,-32.99 265.17,-39.71"/>
</g>
<!-- :feature:readout&#45;vehicle&#45;damage&#45;&gt;:core:domain -->
<g id="edge26" class="edge">
<title>:feature:readout&#45;vehicle&#45;damage&#45;&gt;:core:domain</title>
<path fill="none" stroke="black" d="M415.97,-76.99C431.55,-75.18 447.55,-73.44 462.67,-72 716.63,-47.75 1019.29,-29.99 1153.56,-22.68"/>
<polygon fill="black" stroke="black" points="1153.55,-26.18 1163.35,-22.15 1153.18,-19.19 1153.55,-26.18"/>
</g>
<!-- :feature:readout&#45;vehicle&#45;damage&#45;&gt;:core:designsystem -->
<g id="edge27" class="edge">
<title>:feature:readout&#45;vehicle&#45;damage&#45;&gt;:core:designsystem</title>
<path fill="none" stroke="black" d="M322.67,-71.7C322.67,-64.41 322.67,-55.73 322.67,-47.54"/>
<polygon fill="black" stroke="black" points="326.17,-47.62 322.67,-37.62 319.17,-47.62 326.17,-47.62"/>
</g>
<!-- :app:webApp -->
<g id="node15" class="node">
<title>:app:webApp</title>
<ellipse fill="none" stroke="black" cx="1136.67" cy="-234" rx="60.56" ry="18"/>
<text xml:space="preserve" text-anchor="middle" x="1136.67" y="-228.95" font-family="Times,serif" font-size="14.00">:app:webApp</text>
</g>
<!-- :app:webApp&#45;&gt;:app:shared -->
<g id="edge15" class="edge">
<title>:app:webApp&#45;&gt;:app:shared</title>
<path fill="none" stroke="black" d="M1136.67,-215.7C1136.67,-208.41 1136.67,-199.73 1136.67,-191.54"/>
<polygon fill="black" stroke="black" points="1140.17,-191.62 1136.67,-181.62 1133.17,-191.62 1140.17,-191.62"/>
</g>
</g>
</svg>
