<?xml version="1.0" encoding="UTF-8" standalone="no"?>
<!DOCTYPE svg PUBLIC "-//W3C//DTD SVG 1.1//EN"
 "http://www.w3.org/Graphics/SVG/1.1/DTD/svg11.dtd">
<!-- Generated by graphviz version 2.43.0 (0)
 -->
<!-- Title: G Pages: 1 -->
<svg width="663pt" height="260pt"
 viewBox="0.00 0.00 662.74 260.00" xmlns="http://www.w3.org/2000/svg" xmlns:xlink="http://www.w3.org/1999/xlink">
<g id="graph0" class="graph" transform="scale(1 1) rotate(0) translate(4 256)">
<title>G</title>
<polygon fill="white" stroke="transparent" points="-4,4 -4,-256 658.74,-256 658.74,4 -4,4"/>
<!-- :server -->
<g id="node1" class="node">
<title>:server</title>
<ellipse fill="none" stroke="black" cx="43.55" cy="-90" rx="43.59" ry="18"/>
<text text-anchor="middle" x="43.55" y="-86.3" font-family="Times,serif" font-size="14.00">:server</text>
</g>
<!-- :core:domain -->
<g id="node2" class="node">
<title>:core:domain</title>
<ellipse fill="none" stroke="black" cx="308.55" cy="-18" rx="70.69" ry="18"/>
<text text-anchor="middle" x="308.55" y="-14.3" font-family="Times,serif" font-size="14.00">:core:domain</text>
</g>
<!-- :server&#45;&gt;:core:domain -->
<g id="edge1" class="edge">
<title>:server&#45;&gt;:core:domain</title>
<path fill="none" stroke="black" d="M77.84,-78.74C85.62,-76.47 93.86,-74.11 101.55,-72 151.28,-58.35 208.05,-43.89 249.55,-33.53"/>
<polygon fill="black" stroke="black" points="250.63,-36.87 259.49,-31.06 248.94,-30.08 250.63,-36.87"/>
</g>
<!-- :app:androidApp -->
<g id="node3" class="node">
<title>:app:androidApp</title>
<ellipse fill="none" stroke="black" cx="121.55" cy="-234" rx="87.18" ry="18"/>
<text text-anchor="middle" x="121.55" y="-230.3" font-family="Times,serif" font-size="14.00">:app:androidApp</text>
</g>
<!-- :app:androidApp&#45;&gt;:core:domain -->
<g id="edge3" class="edge">
<title>:app:androidApp&#45;&gt;:core:domain</title>
<path fill="none" stroke="black" d="M117.25,-215.71C110.35,-183.53 100.78,-113.94 134.55,-72 157.35,-43.68 194.83,-30.11 229.18,-23.76"/>
<polygon fill="black" stroke="black" points="229.96,-27.18 239.25,-22.08 228.81,-20.27 229.96,-27.18"/>
</g>
<!-- :app:shared -->
<g id="node4" class="node">
<title>:app:shared</title>
<ellipse fill="none" stroke="black" cx="319.55" cy="-162" rx="65.79" ry="18"/>
<text text-anchor="middle" x="319.55" y="-158.3" font-family="Times,serif" font-size="14.00">:app:shared</text>
</g>
<!-- :app:androidApp&#45;&gt;:app:shared -->
<g id="edge2" class="edge">
<title>:app:androidApp&#45;&gt;:app:shared</title>
<path fill="none" stroke="black" d="M163.54,-218.15C195.15,-206.98 238.53,-191.64 271.53,-179.98"/>
<polygon fill="black" stroke="black" points="272.71,-183.27 280.97,-176.64 270.38,-176.67 272.71,-183.27"/>
</g>
<!-- :feature:other -->
<g id="node6" class="node">
<title>:feature:other</title>
<ellipse fill="none" stroke="black" cx="218.55" cy="-90" rx="75.29" ry="18"/>
<text text-anchor="middle" x="218.55" y="-86.3" font-family="Times,serif" font-size="14.00">:feature:other</text>
</g>
<!-- :app:shared&#45;&gt;:feature:other -->
<g id="edge6" class="edge">
<title>:app:shared&#45;&gt;:feature:other</title>
<path fill="none" stroke="black" d="M296.63,-145.12C283,-135.67 265.52,-123.56 250.55,-113.18"/>
<polygon fill="black" stroke="black" points="252.29,-110.13 242.07,-107.31 248.3,-115.88 252.29,-110.13"/>
</g>
<!-- :feature:readout -->
<g id="node7" class="node">
<title>:feature:readout</title>
<ellipse fill="none" stroke="black" cx="398.55" cy="-90" rx="86.38" ry="18"/>
<text text-anchor="middle" x="398.55" y="-86.3" font-family="Times,serif" font-size="14.00">:feature:readout</text>
</g>
<!-- :app:shared&#45;&gt;:feature:readout -->
<g id="edge7" class="edge">
<title>:app:shared&#45;&gt;:feature:readout</title>
<path fill="none" stroke="black" d="M338.27,-144.41C348.33,-135.5 360.9,-124.36 371.96,-114.56"/>
<polygon fill="black" stroke="black" points="374.52,-116.96 379.68,-107.71 369.88,-111.72 374.52,-116.96"/>
</g>
<!-- :app:desktopApp -->
<g id="node5" class="node">
<title>:app:desktopApp</title>
<ellipse fill="none" stroke="black" cx="507.55" cy="-234" rx="88.28" ry="18"/>
<text text-anchor="middle" x="507.55" y="-230.3" font-family="Times,serif" font-size="14.00">:app:desktopApp</text>
</g>
<!-- :app:desktopApp&#45;&gt;:core:domain -->
<g id="edge5" class="edge">
<title>:app:desktopApp&#45;&gt;:core:domain</title>
<path fill="none" stroke="black" d="M511.78,-215.64C518.55,-183.35 527.81,-113.57 493.55,-72 478.45,-53.68 423.13,-39.37 376.88,-30.26"/>
<polygon fill="black" stroke="black" points="377.35,-26.79 366.87,-28.34 376.03,-33.67 377.35,-26.79"/>
</g>
<!-- :app:desktopApp&#45;&gt;:app:shared -->
<g id="edge4" class="edge">
<title>:app:desktopApp&#45;&gt;:app:shared</title>
<path fill="none" stroke="black" d="M466.75,-217.81C437.23,-206.82 397.26,-191.93 366.42,-180.45"/>
<polygon fill="black" stroke="black" points="367.34,-177.06 356.75,-176.85 364.9,-183.62 367.34,-177.06"/>
</g>
<!-- :feature:other&#45;&gt;:core:domain -->
<g id="edge10" class="edge">
<title>:feature:other&#45;&gt;:core:domain</title>
<path fill="none" stroke="black" d="M239.87,-72.41C251.73,-63.19 266.65,-51.59 279.55,-41.55"/>
<polygon fill="black" stroke="black" points="281.94,-44.13 287.68,-35.23 277.64,-38.61 281.94,-44.13"/>
</g>
<!-- :feature:readout&#45;&gt;:core:domain -->
<g id="edge11" class="edge">
<title>:feature:readout&#45;&gt;:core:domain</title>
<path fill="none" stroke="black" d="M377.22,-72.41C365.36,-63.19 350.45,-51.59 337.55,-41.55"/>
<polygon fill="black" stroke="black" points="339.45,-38.61 329.41,-35.23 335.16,-44.13 339.45,-38.61"/>
</g>
<!-- :app:webApp -->
<g id="node8" class="node">
<title>:app:webApp</title>
<ellipse fill="none" stroke="black" cx="319.55" cy="-234" rx="70.69" ry="18"/>
<text text-anchor="middle" x="319.55" y="-230.3" font-family="Times,serif" font-size="14.00">:app:webApp</text>
</g>
<!-- :app:webApp&#45;&gt;:app:shared -->
<g id="edge8" class="edge">
<title>:app:webApp&#45;&gt;:app:shared</title>
<path fill="none" stroke="black" d="M319.55,-215.7C319.55,-207.98 319.55,-198.71 319.55,-190.11"/>
<polygon fill="black" stroke="black" points="323.05,-190.1 319.55,-180.1 316.05,-190.1 323.05,-190.1"/>
</g>
<!-- :core:data -->
<g id="node9" class="node">
<title>:core:data</title>
<ellipse fill="none" stroke="black" cx="597.55" cy="-90" rx="57.39" ry="18"/>
<text text-anchor="middle" x="597.55" y="-86.3" font-family="Times,serif" font-size="14.00">:core:data</text>
</g>
<!-- :core:data&#45;&gt;:core:domain -->
<g id="edge9" class="edge">
<title>:core:data&#45;&gt;:core:domain</title>
<path fill="none" stroke="black" d="M553.65,-78.37C504.15,-66.38 423.38,-46.81 368.19,-33.45"/>
<polygon fill="black" stroke="black" points="368.74,-29.98 358.19,-31.03 367.09,-36.78 368.74,-29.98"/>
</g>
</g>
</svg>
