<?xml version="1.0" encoding="UTF-8" standalone="no"?>
<!DOCTYPE svg PUBLIC "-//W3C//DTD SVG 1.1//EN"
 "http://www.w3.org/Graphics/SVG/1.1/DTD/svg11.dtd">
<!-- Generated by graphviz version 2.43.0 (0)
 -->
<!-- Title: G Pages: 1 -->
<svg width="7843pt" height="260pt"
 viewBox="0.00 0.00 7843.03 260.00" xmlns="http://www.w3.org/2000/svg" xmlns:xlink="http://www.w3.org/1999/xlink">
<g id="graph0" class="graph" transform="scale(1 1) rotate(0) translate(4 256)">
<title>G</title>
<polygon fill="white" stroke="transparent" points="-4,4 -4,-256 7839.03,-256 7839.03,4 -4,4"/>
<!-- :server -->
<g id="node1" class="node">
<title>:server</title>
<ellipse fill="none" stroke="black" cx="43.55" cy="-162" rx="43.59" ry="18"/>
<text text-anchor="middle" x="43.55" y="-158.3" font-family="Times,serif" font-size="14.00">:server</text>
</g>
<!-- :core:domain -->
<g id="node2" class="node">
<title>:core:domain</title>
<ellipse fill="none" stroke="black" cx="2906.55" cy="-18" rx="70.69" ry="18"/>
<text text-anchor="middle" x="2906.55" y="-14.3" font-family="Times,serif" font-size="14.00">:core:domain</text>
</g>
<!-- :server&#45;&gt;:core:domain -->
<g id="edge1" class="edge">
<title>:server&#45;&gt;:core:domain</title>
<path fill="none" stroke="black" d="M66.25,-146.41C100.61,-125.26 168.63,-86.96 232.55,-72 361.72,-41.76 2392.09,-23.27 2825.54,-19.65"/>
<polygon fill="black" stroke="black" points="2825.81,-23.15 2835.78,-19.57 2825.75,-16.15 2825.81,-23.15"/>
</g>
<!-- :app:androidApp -->
<g id="node3" class="node">
<title>:app:androidApp</title>
<ellipse fill="none" stroke="black" cx="602.55" cy="-234" rx="87.18" ry="18"/>
<text text-anchor="middle" x="602.55" y="-230.3" font-family="Times,serif" font-size="14.00">:app:androidApp</text>
</g>
<!-- :app:shared -->
<g id="node4" class="node">
<title>:app:shared</title>
<ellipse fill="none" stroke="black" cx="3085.55" cy="-162" rx="65.79" ry="18"/>
<text text-anchor="middle" x="3085.55" y="-158.3" font-family="Times,serif" font-size="14.00">:app:shared</text>
</g>
<!-- :app:androidApp&#45;&gt;:app:shared -->
<g id="edge2" class="edge">
<title>:app:androidApp&#45;&gt;:app:shared</title>
<path fill="none" stroke="black" d="M688.38,-230.58C1074.48,-219.7 2647.32,-175.35 3010.48,-165.12"/>
<polygon fill="black" stroke="black" points="3010.72,-168.61 3020.61,-164.83 3010.52,-161.61 3010.72,-168.61"/>
</g>
<!-- :core:data -->
<g id="node5" class="node">
<title>:core:data</title>
<ellipse fill="none" stroke="black" cx="421.55" cy="-162" rx="57.39" ry="18"/>
<text text-anchor="middle" x="421.55" y="-158.3" font-family="Times,serif" font-size="14.00">:core:data</text>
</g>
<!-- :app:androidApp&#45;&gt;:core:data -->
<g id="edge3" class="edge">
<title>:app:androidApp&#45;&gt;:core:data</title>
<path fill="none" stroke="black" d="M563.27,-217.81C534.47,-206.67 495.35,-191.54 465.5,-180"/>
<polygon fill="black" stroke="black" points="466.75,-176.73 456.16,-176.39 464.23,-183.26 466.75,-176.73"/>
</g>
<!-- :core:gt7&#45;ps5&#45;data -->
<g id="node6" class="node">
<title>:core:gt7&#45;ps5&#45;data</title>
<ellipse fill="none" stroke="black" cx="591.55" cy="-162" rx="94.78" ry="18"/>
<text text-anchor="middle" x="591.55" y="-158.3" font-family="Times,serif" font-size="14.00">:core:gt7&#45;ps5&#45;data</text>
</g>
<!-- :app:androidApp&#45;&gt;:core:gt7&#45;ps5&#45;data -->
<g id="edge4" class="edge">
<title>:app:androidApp&#45;&gt;:core:gt7&#45;ps5&#45;data</title>
<path fill="none" stroke="black" d="M599.83,-215.7C598.61,-207.98 597.16,-198.71 595.81,-190.11"/>
<polygon fill="black" stroke="black" points="599.24,-189.44 594.23,-180.1 592.33,-190.53 599.24,-189.44"/>
</g>
<!-- :feature:main -->
<g id="node9" class="node">
<title>:feature:main</title>
<ellipse fill="none" stroke="black" cx="366.55" cy="-90" rx="73.39" ry="18"/>
<text text-anchor="middle" x="366.55" y="-86.3" font-family="Times,serif" font-size="14.00">:feature:main</text>
</g>
<!-- :app:shared&#45;&gt;:feature:main -->
<g id="edge10" class="edge">
<title>:app:shared&#45;&gt;:feature:main</title>
<path fill="none" stroke="black" d="M3019.7,-161.3C2664.08,-162.67 969.71,-166.01 449.55,-108 442.41,-107.2 434.98,-106.09 427.62,-104.82"/>
<polygon fill="black" stroke="black" points="428.14,-101.35 417.67,-102.99 426.88,-108.24 428.14,-101.35"/>
</g>
<!-- :feature:lmu&#45;windows&#45;connection -->
<g id="node10" class="node">
<title>:feature:lmu&#45;windows&#45;connection</title>
<ellipse fill="none" stroke="black" cx="622.55" cy="-90" rx="164.37" ry="18"/>
<text text-anchor="middle" x="622.55" y="-86.3" font-family="Times,serif" font-size="14.00">:feature:lmu&#45;windows&#45;connection</text>
</g>
<!-- :app:shared&#45;&gt;:feature:lmu&#45;windows&#45;connection -->
<g id="edge11" class="edge">
<title>:app:shared&#45;&gt;:feature:lmu&#45;windows&#45;connection</title>
<path fill="none" stroke="black" d="M3019.92,-161.26C2747.04,-161.97 1675.42,-161.03 796.55,-108 779.83,-106.99 762.24,-105.63 744.92,-104.11"/>
<polygon fill="black" stroke="black" points="745.04,-100.61 734.77,-103.2 744.42,-107.58 745.04,-100.61"/>
</g>
<!-- :feature:gt7&#45;ps5&#45;connection -->
<g id="node11" class="node">
<title>:feature:gt7&#45;ps5&#45;connection</title>
<ellipse fill="none" stroke="black" cx="943.55" cy="-90" rx="138.38" ry="18"/>
<text text-anchor="middle" x="943.55" y="-86.3" font-family="Times,serif" font-size="14.00">:feature:gt7&#45;ps5&#45;connection</text>
</g>
<!-- :app:shared&#45;&gt;:feature:gt7&#45;ps5&#45;connection -->
<g id="edge12" class="edge">
<title>:app:shared&#45;&gt;:feature:gt7&#45;ps5&#45;connection</title>
<path fill="none" stroke="black" d="M3019.61,-161.35C2768.44,-162.22 1847.64,-161.37 1091.55,-108 1077.61,-107.02 1062.96,-105.69 1048.52,-104.21"/>
<polygon fill="black" stroke="black" points="1048.88,-100.73 1038.57,-103.16 1048.15,-107.69 1048.88,-100.73"/>
</g>
<!-- :feature:server&#45;connection -->
<g id="node12" class="node">
<title>:feature:server&#45;connection</title>
<ellipse fill="none" stroke="black" cx="1233.55" cy="-90" rx="133.48" ry="18"/>
<text text-anchor="middle" x="1233.55" y="-86.3" font-family="Times,serif" font-size="14.00">:feature:server&#45;connection</text>
</g>
<!-- :app:shared&#45;&gt;:feature:server&#45;connection -->
<g id="edge13" class="edge">
<title>:app:shared&#45;&gt;:feature:server&#45;connection</title>
<path fill="none" stroke="black" d="M3019.81,-161.05C2791.94,-160.76 2014.93,-156.09 1375.55,-108 1362.52,-107.02 1348.86,-105.73 1335.37,-104.29"/>
<polygon fill="black" stroke="black" points="1335.42,-100.77 1325.09,-103.16 1334.65,-107.73 1335.42,-100.77"/>
</g>
<!-- :feature:lmu&#45;windows&#45;narrator -->
<g id="node13" class="node">
<title>:feature:lmu&#45;windows&#45;narrator</title>
<ellipse fill="none" stroke="black" cx="7117.55" cy="-90" rx="153.27" ry="18"/>
<text text-anchor="middle" x="7117.55" y="-86.3" font-family="Times,serif" font-size="14.00">:feature:lmu&#45;windows&#45;narrator</text>
</g>
<!-- :app:shared&#45;&gt;:feature:lmu&#45;windows&#45;narrator -->
<g id="edge14" class="edge">
<title>:app:shared&#45;&gt;:feature:lmu&#45;windows&#45;narrator</title>
<path fill="none" stroke="black" d="M3151.1,-160.91C3595.38,-160.2 6171.2,-154.12 6954.55,-108 6970.31,-107.07 6986.89,-105.75 7003.2,-104.24"/>
<polygon fill="black" stroke="black" points="7003.69,-107.71 7013.31,-103.28 7003.03,-100.74 7003.69,-107.71"/>
</g>
<!-- :feature:gt7&#45;ps5&#45;narrator -->
<g id="node14" class="node">
<title>:feature:gt7&#45;ps5&#45;narrator</title>
<ellipse fill="none" stroke="black" cx="7416.55" cy="-90" rx="127.28" ry="18"/>
<text text-anchor="middle" x="7416.55" y="-86.3" font-family="Times,serif" font-size="14.00">:feature:gt7&#45;ps5&#45;narrator</text>
</g>
<!-- :app:shared&#45;&gt;:feature:gt7&#45;ps5&#45;narrator -->
<g id="edge15" class="edge">
<title>:app:shared&#45;&gt;:feature:gt7&#45;ps5&#45;narrator</title>
<path fill="none" stroke="black" d="M3151.3,-161.17C3617.35,-162.22 6427.73,-166.05 7279.55,-108 7292.5,-107.12 7306.11,-105.85 7319.52,-104.39"/>
<polygon fill="black" stroke="black" points="7320.17,-107.84 7329.72,-103.25 7319.39,-100.88 7320.17,-107.84"/>
</g>
<!-- :feature:other&#45;license&#45;detail -->
<g id="node15" class="node">
<title>:feature:other&#45;license&#45;detail</title>
<ellipse fill="none" stroke="black" cx="1524.55" cy="-90" rx="139.98" ry="18"/>
<text text-anchor="middle" x="1524.55" y="-86.3" font-family="Times,serif" font-size="14.00">:feature:other&#45;license&#45;detail</text>
</g>
<!-- :app:shared&#45;&gt;:feature:other&#45;license&#45;detail -->
<g id="edge16" class="edge">
<title>:app:shared&#45;&gt;:feature:other&#45;license&#45;detail</title>
<path fill="none" stroke="black" d="M3020,-160.31C2818.66,-157.82 2191.51,-147.21 1673.55,-108 1659.86,-106.96 1645.5,-105.63 1631.31,-104.18"/>
<polygon fill="black" stroke="black" points="1631.34,-100.66 1621.03,-103.09 1630.6,-107.62 1631.34,-100.66"/>
</g>
<!-- :feature:other&#45;list -->
<g id="node16" class="node">
<title>:feature:other&#45;list</title>
<ellipse fill="none" stroke="black" cx="1775.55" cy="-90" rx="92.88" ry="18"/>
<text text-anchor="middle" x="1775.55" y="-86.3" font-family="Times,serif" font-size="14.00">:feature:other&#45;list</text>
</g>
<!-- :app:shared&#45;&gt;:feature:other&#45;list -->
<g id="edge17" class="edge">
<title>:app:shared&#45;&gt;:feature:other&#45;list</title>
<path fill="none" stroke="black" d="M3019.87,-160.91C2837.86,-160.07 2311.81,-153.54 1877.55,-108 1868.63,-107.06 1859.31,-105.85 1850.09,-104.49"/>
<polygon fill="black" stroke="black" points="1850.55,-101.02 1840.14,-102.98 1849.49,-107.94 1850.55,-101.02"/>
</g>
<!-- :feature:other&#45;server&#45;ip&#45;detail -->
<g id="node17" class="node">
<title>:feature:other&#45;server&#45;ip&#45;detail</title>
<ellipse fill="none" stroke="black" cx="2035.55" cy="-90" rx="148.67" ry="18"/>
<text text-anchor="middle" x="2035.55" y="-86.3" font-family="Times,serif" font-size="14.00">:feature:other&#45;server&#45;ip&#45;detail</text>
</g>
<!-- :app:shared&#45;&gt;:feature:other&#45;server&#45;ip&#45;detail -->
<g id="edge18" class="edge">
<title>:app:shared&#45;&gt;:feature:other&#45;server&#45;ip&#45;detail</title>
<path fill="none" stroke="black" d="M3021.11,-158.23C2874.18,-151.68 2503.13,-133.84 2193.55,-108 2179.36,-106.82 2164.48,-105.42 2149.75,-103.94"/>
<polygon fill="black" stroke="black" points="2149.89,-100.44 2139.59,-102.91 2149.19,-107.4 2149.89,-100.44"/>
</g>
<!-- :feature:other&#45;console&#45;ip&#45;detail -->
<g id="node18" class="node">
<title>:feature:other&#45;console&#45;ip&#45;detail</title>
<ellipse fill="none" stroke="black" cx="2355.55" cy="-90" rx="153.27" ry="18"/>
<text text-anchor="middle" x="2355.55" y="-86.3" font-family="Times,serif" font-size="14.00">:feature:other&#45;console&#45;ip&#45;detail</text>
</g>
<!-- :app:shared&#45;&gt;:feature:other&#45;console&#45;ip&#45;detail -->
<g id="edge19" class="edge">
<title>:app:shared&#45;&gt;:feature:other&#45;console&#45;ip&#45;detail</title>
<path fill="none" stroke="black" d="M3024.17,-155.51C2919.97,-146.13 2701.85,-126.27 2517.55,-108 2503.85,-106.64 2489.5,-105.19 2475.24,-103.72"/>
<polygon fill="black" stroke="black" points="2475.2,-100.19 2464.89,-102.65 2474.48,-107.16 2475.2,-100.19"/>
</g>
<!-- :feature:other&#45;readout&#45;start&#45;sound&#45;detail -->
<g id="node19" class="node">
<title>:feature:other&#45;readout&#45;start&#45;sound&#45;detail</title>
<ellipse fill="none" stroke="black" cx="2726.55" cy="-90" rx="199.56" ry="18"/>
<text text-anchor="middle" x="2726.55" y="-86.3" font-family="Times,serif" font-size="14.00">:feature:other&#45;readout&#45;start&#45;sound&#45;detail</text>
</g>
<!-- :app:shared&#45;&gt;:feature:other&#45;readout&#45;start&#45;sound&#45;detail -->
<g id="edge20" class="edge">
<title>:app:shared&#45;&gt;:feature:other&#45;readout&#45;start&#45;sound&#45;detail</title>
<path fill="none" stroke="black" d="M3033.73,-150.9C2976.91,-139.82 2884.71,-121.84 2816.12,-108.47"/>
<polygon fill="black" stroke="black" points="2816.66,-105.01 2806.18,-106.53 2815.32,-111.88 2816.66,-105.01"/>
</g>
<!-- :feature:other&#45;volume&#45;detail -->
<g id="node20" class="node">
<title>:feature:other&#45;volume&#45;detail</title>
<ellipse fill="none" stroke="black" cx="3085.55" cy="-90" rx="141.07" ry="18"/>
<text text-anchor="middle" x="3085.55" y="-86.3" font-family="Times,serif" font-size="14.00">:feature:other&#45;volume&#45;detail</text>
</g>
<!-- :app:shared&#45;&gt;:feature:other&#45;volume&#45;detail -->
<g id="edge21" class="edge">
<title>:app:shared&#45;&gt;:feature:other&#45;volume&#45;detail</title>
<path fill="none" stroke="black" d="M3085.55,-143.7C3085.55,-135.98 3085.55,-126.71 3085.55,-118.11"/>
<polygon fill="black" stroke="black" points="3089.05,-118.1 3085.55,-108.1 3082.05,-118.1 3089.05,-118.1"/>
</g>
<!-- :feature:telemetry&#45;log&#45;list -->
<g id="node21" class="node">
<title>:feature:telemetry&#45;log&#45;list</title>
<ellipse fill="none" stroke="black" cx="3374.55" cy="-90" rx="129.98" ry="18"/>
<text text-anchor="middle" x="3374.55" y="-86.3" font-family="Times,serif" font-size="14.00">:feature:telemetry&#45;log&#45;list</text>
</g>
<!-- :app:shared&#45;&gt;:feature:telemetry&#45;log&#45;list -->
<g id="edge22" class="edge">
<title>:app:shared&#45;&gt;:feature:telemetry&#45;log&#45;list</title>
<path fill="none" stroke="black" d="M3132.94,-149.52C3179.13,-138.33 3249.95,-121.18 3302.99,-108.33"/>
<polygon fill="black" stroke="black" points="3304.12,-111.66 3313.01,-105.9 3302.47,-104.86 3304.12,-111.66"/>
</g>
<!-- :feature:telemetry&#45;log&#45;detail -->
<g id="node22" class="node">
<title>:feature:telemetry&#45;log&#45;detail</title>
<ellipse fill="none" stroke="black" cx="3664.55" cy="-90" rx="141.88" ry="18"/>
<text text-anchor="middle" x="3664.55" y="-86.3" font-family="Times,serif" font-size="14.00">:feature:telemetry&#45;log&#45;detail</text>
</g>
<!-- :app:shared&#45;&gt;:feature:telemetry&#45;log&#45;detail -->
<g id="edge23" class="edge">
<title>:app:shared&#45;&gt;:feature:telemetry&#45;log&#45;detail</title>
<path fill="none" stroke="black" d="M3144.25,-153.9C3240.58,-142.26 3433.67,-118.91 3555.61,-104.17"/>
<polygon fill="black" stroke="black" points="3556.22,-107.62 3565.73,-102.95 3555.38,-100.67 3556.22,-107.62"/>
</g>
<!-- :feature:readout&#45;list -->
<g id="node23" class="node">
<title>:feature:readout&#45;list</title>
<ellipse fill="none" stroke="black" cx="3928.55" cy="-90" rx="103.98" ry="18"/>
<text text-anchor="middle" x="3928.55" y="-86.3" font-family="Times,serif" font-size="14.00">:feature:readout&#45;list</text>
</g>
<!-- :app:shared&#45;&gt;:feature:readout&#45;list -->
<g id="edge24" class="edge">
<title>:app:shared&#45;&gt;:feature:readout&#45;list</title>
<path fill="none" stroke="black" d="M3149.66,-158C3276.89,-151.69 3570.23,-135.32 3815.55,-108 3825.23,-106.92 3835.36,-105.63 3845.41,-104.25"/>
<polygon fill="black" stroke="black" points="3845.99,-107.7 3855.41,-102.84 3845.02,-100.77 3845.99,-107.7"/>
</g>
<!-- :feature:lmu&#45;windows&#45;readout&#45;vehicle&#45;approach&#45;detail -->
<g id="node24" class="node">
<title>:feature:lmu&#45;windows&#45;readout&#45;vehicle&#45;approach&#45;detail</title>
<ellipse fill="none" stroke="black" cx="4311.55" cy="-90" rx="260.75" ry="18"/>
<text text-anchor="middle" x="4311.55" y="-86.3" font-family="Times,serif" font-size="14.00">:feature:lmu&#45;windows&#45;readout&#45;vehicle&#45;approach&#45;detail</text>
</g>
<!-- :app:shared&#45;&gt;:feature:lmu&#45;windows&#45;readout&#45;vehicle&#45;approach&#45;detail -->
<g id="edge25" class="edge">
<title>:app:shared&#45;&gt;:feature:lmu&#45;windows&#45;readout&#45;vehicle&#45;approach&#45;detail</title>
<path fill="none" stroke="black" d="M3149.33,-157.63C3302.92,-149.48 3705.52,-127.89 4041.55,-108 4066.07,-106.55 4091.84,-104.98 4117.33,-103.4"/>
<polygon fill="black" stroke="black" points="4117.7,-106.89 4127.47,-102.78 4117.27,-99.9 4117.7,-106.89"/>
</g>
<!-- :feature:lmu&#45;windows&#45;readout&#45;flag&#45;detail -->
<g id="node25" class="node">
<title>:feature:lmu&#45;windows&#45;readout&#45;flag&#45;detail</title>
<ellipse fill="none" stroke="black" cx="4789.55" cy="-90" rx="199.56" ry="18"/>
<text text-anchor="middle" x="4789.55" y="-86.3" font-family="Times,serif" font-size="14.00">:feature:lmu&#45;windows&#45;readout&#45;flag&#45;detail</text>
</g>
<!-- :app:shared&#45;&gt;:feature:lmu&#45;windows&#45;readout&#45;flag&#45;detail -->
<g id="edge26" class="edge">
<title>:app:shared&#45;&gt;:feature:lmu&#45;windows&#45;readout&#45;flag&#45;detail</title>
<path fill="none" stroke="black" d="M3150.85,-159.76C3359.47,-155.58 4028.61,-140.37 4581.55,-108 4601.28,-106.84 4622.06,-105.41 4642.53,-103.87"/>
<polygon fill="black" stroke="black" points="4642.85,-107.35 4652.55,-103.1 4642.31,-100.37 4642.85,-107.35"/>
</g>
<!-- :feature:lmu&#45;windows&#45;readout&#45;my&#45;bestlap&#45;detail -->
<g id="node26" class="node">
<title>:feature:lmu&#45;windows&#45;readout&#45;my&#45;bestlap&#45;detail</title>
<ellipse fill="none" stroke="black" cx="5240.55" cy="-90" rx="233.16" ry="18"/>
<text text-anchor="middle" x="5240.55" y="-86.3" font-family="Times,serif" font-size="14.00">:feature:lmu&#45;windows&#45;readout&#45;my&#45;bestlap&#45;detail</text>
</g>
<!-- :app:shared&#45;&gt;:feature:lmu&#45;windows&#45;readout&#45;my&#45;bestlap&#45;detail -->
<g id="edge27" class="edge">
<title>:app:shared&#45;&gt;:feature:lmu&#45;windows&#45;readout&#45;my&#45;bestlap&#45;detail</title>
<path fill="none" stroke="black" d="M3151.24,-160.19C3395.54,-156.96 4274.7,-143.44 4998.55,-108 5022.02,-106.85 5046.77,-105.39 5071.11,-103.82"/>
<polygon fill="black" stroke="black" points="5071.39,-107.31 5081.14,-103.16 5070.93,-100.32 5071.39,-107.31"/>
</g>
<!-- :feature:lmu&#45;windows&#45;readout&#45;vehicle&#45;damage&#45;detail -->
<g id="node27" class="node">
<title>:feature:lmu&#45;windows&#45;readout&#45;vehicle&#45;damage&#45;detail</title>
<ellipse fill="none" stroke="black" cx="5746.55" cy="-90" rx="254.55" ry="18"/>
<text text-anchor="middle" x="5746.55" y="-86.3" font-family="Times,serif" font-size="14.00">:feature:lmu&#45;windows&#45;readout&#45;vehicle&#45;damage&#45;detail</text>
</g>
<!-- :app:shared&#45;&gt;:feature:lmu&#45;windows&#45;readout&#45;vehicle&#45;damage&#45;detail -->
<g id="edge28" class="edge">
<title>:app:shared&#45;&gt;:feature:lmu&#45;windows&#45;readout&#45;vehicle&#45;damage&#45;detail</title>
<path fill="none" stroke="black" d="M3151.35,-160.56C3432.21,-158.48 4558.3,-147.96 5482.55,-108 5508.48,-106.88 5535.84,-105.42 5562.72,-103.84"/>
<polygon fill="black" stroke="black" points="5563.22,-107.31 5573,-103.22 5562.81,-100.33 5563.22,-107.31"/>
</g>
<!-- :feature:gt7&#45;ps5&#45;readout&#45;my&#45;bestlap&#45;detail -->
<g id="node28" class="node">
<title>:feature:gt7&#45;ps5&#45;readout&#45;my&#45;bestlap&#45;detail</title>
<ellipse fill="none" stroke="black" cx="6227.55" cy="-90" rx="207.96" ry="18"/>
<text text-anchor="middle" x="6227.55" y="-86.3" font-family="Times,serif" font-size="14.00">:feature:gt7&#45;ps5&#45;readout&#45;my&#45;bestlap&#45;detail</text>
</g>
<!-- :app:shared&#45;&gt;:feature:gt7&#45;ps5&#45;readout&#45;my&#45;bestlap&#45;detail -->
<g id="edge29" class="edge">
<title>:app:shared&#45;&gt;:feature:gt7&#45;ps5&#45;readout&#45;my&#45;bestlap&#45;detail</title>
<path fill="none" stroke="black" d="M3151.23,-161.27C3467.64,-162.26 4866.25,-163.14 6010.55,-108 6031.9,-106.97 6054.42,-105.57 6076.54,-104"/>
<polygon fill="black" stroke="black" points="6076.95,-107.48 6086.67,-103.27 6076.45,-100.5 6076.95,-107.48"/>
</g>
<!-- :feature:gt7&#45;ps5&#45;readout&#45;remaining&#45;fuel&#45;laps&#45;detail -->
<g id="node29" class="node">
<title>:feature:gt7&#45;ps5&#45;readout&#45;remaining&#45;fuel&#45;laps&#45;detail</title>
<ellipse fill="none" stroke="black" cx="6699.55" cy="-90" rx="246.16" ry="18"/>
<text text-anchor="middle" x="6699.55" y="-86.3" font-family="Times,serif" font-size="14.00">:feature:gt7&#45;ps5&#45;readout&#45;remaining&#45;fuel&#45;laps&#45;detail</text>
</g>
<!-- :app:shared&#45;&gt;:feature:gt7&#45;ps5&#45;readout&#45;remaining&#45;fuel&#45;laps&#45;detail -->
<g id="edge30" class="edge">
<title>:app:shared&#45;&gt;:feature:gt7&#45;ps5&#45;readout&#45;remaining&#45;fuel&#45;laps&#45;detail</title>
<path fill="none" stroke="black" d="M3151.31,-161.2C3494.85,-162.02 5118.09,-162.64 6444.55,-108 6470,-106.95 6496.86,-105.52 6523.22,-103.93"/>
<polygon fill="black" stroke="black" points="6523.53,-107.41 6533.3,-103.31 6523.1,-100.43 6523.53,-107.41"/>
</g>
<!-- :core:data&#45;&gt;:core:domain -->
<g id="edge32" class="edge">
<title>:core:data&#45;&gt;:core:domain</title>
<path fill="none" stroke="black" d="M380.92,-149.18C339.09,-136.6 279.08,-117.25 272.55,-108 263.32,-94.93 261.35,-83.43 272.55,-72 318.34,-25.27 2387.83,-19.73 2825.7,-19.09"/>
<polygon fill="black" stroke="black" points="2825.74,-22.59 2835.74,-19.07 2825.73,-15.59 2825.74,-22.59"/>
</g>
<!-- :core:gt7&#45;ps5&#45;data&#45;&gt;:core:domain -->
<g id="edge33" class="edge">
<title>:core:gt7&#45;ps5&#45;data&#45;&gt;:core:domain</title>
<path fill="none" stroke="black" d="M522.43,-149.63C432.49,-134.75 286.47,-110.29 284.55,-108 274.24,-95.76 273.35,-83.43 284.55,-72 330.12,-25.49 2389.07,-19.78 2825.71,-19.09"/>
<polygon fill="black" stroke="black" points="2825.73,-22.59 2835.72,-19.08 2825.72,-15.59 2825.73,-22.59"/>
</g>
<!-- :app:desktopApp -->
<g id="node7" class="node">
<title>:app:desktopApp</title>
<ellipse fill="none" stroke="black" cx="409.55" cy="-234" rx="88.28" ry="18"/>
<text text-anchor="middle" x="409.55" y="-230.3" font-family="Times,serif" font-size="14.00">:app:desktopApp</text>
</g>
<!-- :app:desktopApp&#45;&gt;:server -->
<g id="edge9" class="edge">
<title>:app:desktopApp&#45;&gt;:server</title>
<path fill="none" stroke="black" d="M336.58,-223.82C272.54,-215.02 177.14,-200.1 95.55,-180 92.17,-179.17 88.7,-178.23 85.22,-177.22"/>
<polygon fill="black" stroke="black" points="86.09,-173.83 75.51,-174.27 84.06,-180.53 86.09,-173.83"/>
</g>
<!-- :app:desktopApp&#45;&gt;:app:shared -->
<g id="edge5" class="edge">
<title>:app:desktopApp&#45;&gt;:app:shared</title>
<path fill="none" stroke="black" d="M470.41,-220.87C482.35,-218.9 494.8,-217.14 506.55,-216 1010.79,-166.92 2638.24,-163.2 3009.61,-162.99"/>
<polygon fill="black" stroke="black" points="3009.72,-166.49 3019.71,-162.99 3009.71,-159.49 3009.72,-166.49"/>
</g>
<!-- :app:desktopApp&#45;&gt;:core:data -->
<g id="edge6" class="edge">
<title>:app:desktopApp&#45;&gt;:core:data</title>
<path fill="none" stroke="black" d="M412.51,-215.7C413.83,-207.98 415.42,-198.71 416.9,-190.11"/>
<polygon fill="black" stroke="black" points="420.37,-190.55 418.61,-180.1 413.47,-189.37 420.37,-190.55"/>
</g>
<!-- :app:desktopApp&#45;&gt;:core:gt7&#45;ps5&#45;data -->
<g id="edge8" class="edge">
<title>:app:desktopApp&#45;&gt;:core:gt7&#45;ps5&#45;data</title>
<path fill="none" stroke="black" d="M449.04,-217.81C476.28,-207.33 512.7,-193.33 541.9,-182.09"/>
<polygon fill="black" stroke="black" points="543.43,-185.26 551.5,-178.4 540.91,-178.72 543.43,-185.26"/>
</g>
<!-- :core:lmu&#45;windows&#45;data -->
<g id="node8" class="node">
<title>:core:lmu&#45;windows&#45;data</title>
<ellipse fill="none" stroke="black" cx="225.55" cy="-162" rx="120.78" ry="18"/>
<text text-anchor="middle" x="225.55" y="-158.3" font-family="Times,serif" font-size="14.00">:core:lmu&#45;windows&#45;data</text>
</g>
<!-- :app:desktopApp&#45;&gt;:core:lmu&#45;windows&#45;data -->
<g id="edge7" class="edge">
<title>:app:desktopApp&#45;&gt;:core:lmu&#45;windows&#45;data</title>
<path fill="none" stroke="black" d="M369.62,-217.81C342.56,-207.52 306.53,-193.81 277.27,-182.68"/>
<polygon fill="black" stroke="black" points="278.22,-179.3 267.63,-179.01 275.73,-185.84 278.22,-179.3"/>
</g>
<!-- :core:lmu&#45;windows&#45;data&#45;&gt;:core:domain -->
<g id="edge34" class="edge">
<title>:core:lmu&#45;windows&#45;data&#45;&gt;:core:domain</title>
<path fill="none" stroke="black" d="M227,-143.79C229.8,-122.85 237.94,-88.26 261.55,-72 315.65,-34.73 2387.38,-21.74 2825.63,-19.4"/>
<polygon fill="black" stroke="black" points="2825.7,-22.9 2835.68,-19.35 2825.66,-15.9 2825.7,-22.9"/>
</g>
<!-- :feature:main&#45;&gt;:core:domain -->
<g id="edge53" class="edge">
<title>:feature:main&#45;&gt;:core:domain</title>
<path fill="none" stroke="black" d="M417.68,-77.02C428.16,-74.99 439.17,-73.17 449.55,-72 925.4,-18.58 2455.68,-18.09 2825.52,-18.78"/>
<polygon fill="black" stroke="black" points="2825.6,-22.28 2835.61,-18.8 2825.61,-15.28 2825.6,-22.28"/>
</g>
<!-- :feature:lmu&#45;windows&#45;connection&#45;&gt;:core:domain -->
<g id="edge42" class="edge">
<title>:feature:lmu&#45;windows&#45;connection&#45;&gt;:core:domain</title>
<path fill="none" stroke="black" d="M734.77,-76.83C755.3,-74.95 776.55,-73.23 796.55,-72 1585.95,-23.59 2544.08,-19.13 2825.31,-18.93"/>
<polygon fill="black" stroke="black" points="2825.43,-22.43 2835.43,-18.92 2825.43,-15.43 2825.43,-22.43"/>
</g>
<!-- :feature:gt7&#45;ps5&#45;connection&#45;&gt;:core:domain -->
<g id="edge35" class="edge">
<title>:feature:gt7&#45;ps5&#45;connection&#45;&gt;:core:domain</title>
<path fill="none" stroke="black" d="M1038.57,-76.87C1056.16,-74.97 1074.39,-73.23 1091.55,-72 1759.87,-23.95 2569.61,-19.15 2825.21,-18.91"/>
<polygon fill="black" stroke="black" points="2825.52,-22.41 2835.52,-18.9 2825.51,-15.41 2825.52,-22.41"/>
</g>
<!-- :feature:server&#45;connection&#45;&gt;:core:domain -->
<g id="edge70" class="edge">
<title>:feature:server&#45;connection&#45;&gt;:core:domain</title>
<path fill="none" stroke="black" d="M1325.1,-76.89C1341.86,-75 1359.21,-73.26 1375.55,-72 1928.88,-29.38 2597.36,-21.03 2825.64,-19.39"/>
<polygon fill="black" stroke="black" points="2825.87,-22.89 2835.85,-19.32 2825.82,-15.89 2825.87,-22.89"/>
</g>
<!-- :feature:lmu&#45;windows&#45;narrator&#45;&gt;:core:domain -->
<g id="edge43" class="edge">
<title>:feature:lmu&#45;windows&#45;narrator&#45;&gt;:core:domain</title>
<path fill="none" stroke="black" d="M7013.75,-76.74C6994.11,-74.82 6973.72,-73.11 6954.55,-72 6301.16,-34.01 4663.98,-45.04 4009.55,-36 3626.84,-30.71 3169.47,-23.32 2987.23,-20.33"/>
<polygon fill="black" stroke="black" points="2987.25,-16.83 2977.2,-20.17 2987.14,-23.83 2987.25,-16.83"/>
</g>
<!-- :core:designsystem -->
<g id="node31" class="node">
<title>:core:designsystem</title>
<ellipse fill="none" stroke="black" cx="4119.55" cy="-18" rx="100.98" ry="18"/>
<text text-anchor="middle" x="4119.55" y="-14.3" font-family="Times,serif" font-size="14.00">:core:designsystem</text>
</g>
<!-- :feature:lmu&#45;windows&#45;narrator&#45;&gt;:core:designsystem -->
<g id="edge44" class="edge">
<title>:feature:lmu&#45;windows&#45;narrator&#45;&gt;:core:designsystem</title>
<path fill="none" stroke="black" d="M7013.31,-76.79C6993.81,-74.89 6973.57,-73.17 6954.55,-72 6410.23,-38.59 4684.57,-23.31 4230.11,-19.81"/>
<polygon fill="black" stroke="black" points="4229.97,-16.3 4219.94,-19.73 4229.91,-23.3 4229.97,-16.3"/>
</g>
<!-- :feature:gt7&#45;ps5&#45;narrator&#45;&gt;:core:domain -->
<g id="edge36" class="edge">
<title>:feature:gt7&#45;ps5&#45;narrator&#45;&gt;:core:domain</title>
<path fill="none" stroke="black" d="M7330.09,-76.78C7313.35,-74.83 7295.93,-73.1 7279.55,-72 6554.48,-23.18 4736.19,-45.6 4009.55,-36 3626.61,-30.94 3168.91,-23.41 2986.9,-20.36"/>
<polygon fill="black" stroke="black" points="2986.93,-16.86 2976.87,-20.19 2986.81,-23.86 2986.93,-16.86"/>
</g>
<!-- :feature:gt7&#45;ps5&#45;narrator&#45;&gt;:core:designsystem -->
<g id="edge37" class="edge">
<title>:feature:gt7&#45;ps5&#45;narrator&#45;&gt;:core:designsystem</title>
<path fill="none" stroke="black" d="M7329.71,-76.81C7313.09,-74.88 7295.8,-73.14 7279.55,-72 6668.15,-29.06 4717.28,-20.7 4230.44,-19.27"/>
<polygon fill="black" stroke="black" points="4230.26,-15.77 4220.25,-19.24 4230.24,-22.77 4230.26,-15.77"/>
</g>
<!-- :feature:other&#45;license&#45;detail&#45;&gt;:core:domain -->
<g id="edge56" class="edge">
<title>:feature:other&#45;license&#45;detail&#45;&gt;:core:domain</title>
<path fill="none" stroke="black" d="M1621.43,-76.94C1638.76,-75.07 1656.67,-73.32 1673.55,-72 2107.41,-37.97 2628.99,-24.57 2825.98,-20.49"/>
<polygon fill="black" stroke="black" points="2826.31,-23.99 2836.24,-20.28 2826.17,-16.99 2826.31,-23.99"/>
</g>
<!-- :feature:other&#45;license&#45;detail&#45;&gt;:core:designsystem -->
<g id="edge57" class="edge">
<title>:feature:other&#45;license&#45;detail&#45;&gt;:core:designsystem</title>
<path fill="none" stroke="black" d="M1619.81,-76.81C1637.64,-74.91 1656.14,-73.18 1673.55,-72 1907.96,-56.12 3564.32,-28.1 4009.58,-20.79"/>
<polygon fill="black" stroke="black" points="4009.93,-24.28 4019.87,-20.62 4009.81,-17.28 4009.93,-24.28"/>
</g>
<!-- :feature:other&#45;list&#45;&gt;:core:domain -->
<g id="edge58" class="edge">
<title>:feature:other&#45;list&#45;&gt;:core:domain</title>
<path fill="none" stroke="black" d="M1840.42,-77.05C1852.71,-75.11 1865.5,-73.31 1877.55,-72 2229.32,-33.75 2651.84,-22.97 2825.74,-20.04"/>
<polygon fill="black" stroke="black" points="2825.9,-23.54 2835.84,-19.88 2825.78,-16.54 2825.9,-23.54"/>
</g>
<!-- :feature:other&#45;list&#45;&gt;:core:designsystem -->
<g id="edge59" class="edge">
<title>:feature:other&#45;list&#45;&gt;:core:designsystem</title>
<path fill="none" stroke="black" d="M1839.57,-76.91C1852.12,-74.94 1865.21,-73.17 1877.55,-72 2090.4,-51.85 3588.55,-27.26 4009.67,-20.68"/>
<polygon fill="black" stroke="black" points="4009.77,-24.18 4019.72,-20.53 4009.66,-17.18 4009.77,-24.18"/>
</g>
<!-- :feature:other&#45;server&#45;ip&#45;detail&#45;&gt;:core:domain -->
<g id="edge62" class="edge">
<title>:feature:other&#45;server&#45;ip&#45;detail&#45;&gt;:core:domain</title>
<path fill="none" stroke="black" d="M2140.46,-77.22C2158.17,-75.37 2176.37,-73.56 2193.55,-72 2424.03,-51.04 2696.99,-32.5 2828.3,-23.97"/>
<polygon fill="black" stroke="black" points="2828.9,-27.44 2838.65,-23.3 2828.45,-20.45 2828.9,-27.44"/>
</g>
<!-- :feature:other&#45;server&#45;ip&#45;detail&#45;&gt;:core:designsystem -->
<g id="edge63" class="edge">
<title>:feature:other&#45;server&#45;ip&#45;detail&#45;&gt;:core:designsystem</title>
<path fill="none" stroke="black" d="M2137.43,-76.83C2156.08,-74.95 2175.38,-73.23 2193.55,-72 2550.57,-47.92 3656.1,-27.07 4009.63,-20.87"/>
<polygon fill="black" stroke="black" points="4009.94,-24.37 4019.87,-20.69 4009.81,-17.37 4009.94,-24.37"/>
</g>
<!-- :feature:other&#45;console&#45;ip&#45;detail&#45;&gt;:core:domain -->
<g id="edge54" class="edge">
<title>:feature:other&#45;console&#45;ip&#45;detail&#45;&gt;:core:domain</title>
<path fill="none" stroke="black" d="M2455.33,-76.32C2564.8,-62.42 2737.81,-40.44 2834.71,-28.13"/>
<polygon fill="black" stroke="black" points="2835.22,-31.59 2844.7,-26.86 2834.34,-24.65 2835.22,-31.59"/>
</g>
<!-- :feature:other&#45;console&#45;ip&#45;detail&#45;&gt;:core:designsystem -->
<g id="edge55" class="edge">
<title>:feature:other&#45;console&#45;ip&#45;detail&#45;&gt;:core:designsystem</title>
<path fill="none" stroke="black" d="M2460.89,-76.84C2479.74,-74.98 2499.21,-73.26 2517.55,-72 3077.11,-33.43 3748.62,-22.74 4008.92,-19.94"/>
<polygon fill="black" stroke="black" points="4009.17,-23.44 4019.13,-19.83 4009.1,-16.44 4009.17,-23.44"/>
</g>
<!-- :feature:other&#45;readout&#45;start&#45;sound&#45;detail&#45;&gt;:core:domain -->
<g id="edge60" class="edge">
<title>:feature:other&#45;readout&#45;start&#45;sound&#45;detail&#45;&gt;:core:domain</title>
<path fill="none" stroke="black" d="M2769.2,-72.41C2796.45,-61.81 2831.79,-48.07 2859.8,-37.18"/>
<polygon fill="black" stroke="black" points="2861.33,-40.34 2869.38,-33.45 2858.79,-33.82 2861.33,-40.34"/>
</g>
<!-- :feature:other&#45;readout&#45;start&#45;sound&#45;detail&#45;&gt;:core:designsystem -->
<g id="edge61" class="edge">
<title>:feature:other&#45;readout&#45;start&#45;sound&#45;detail&#45;&gt;:core:designsystem</title>
<path fill="none" stroke="black" d="M2865.06,-77.02C2888.57,-75.19 2912.75,-73.44 2935.55,-72 3331.55,-47.04 3802.8,-29.61 4011.22,-22.53"/>
<polygon fill="black" stroke="black" points="4011.37,-26.03 4021.24,-22.19 4011.13,-19.03 4011.37,-26.03"/>
</g>
<!-- :feature:other&#45;volume&#45;detail&#45;&gt;:core:domain -->
<g id="edge66" class="edge">
<title>:feature:other&#45;volume&#45;detail&#45;&gt;:core:domain</title>
<path fill="none" stroke="black" d="M3044.03,-72.76C3016.87,-62.14 2981.34,-48.25 2953.2,-37.24"/>
<polygon fill="black" stroke="black" points="2954.17,-33.87 2943.58,-33.48 2951.62,-40.38 2954.17,-33.87"/>
</g>
<!-- :feature:other&#45;volume&#45;detail&#45;&gt;:core:designsystem -->
<g id="edge67" class="edge">
<title>:feature:other&#45;volume&#45;detail&#45;&gt;:core:designsystem</title>
<path fill="none" stroke="black" d="M3183.91,-77.1C3201.1,-75.23 3218.84,-73.45 3235.55,-72 3515.55,-47.76 3846.4,-31.11 4012.72,-23.58"/>
<polygon fill="black" stroke="black" points="4013.12,-27.06 4022.95,-23.11 4012.8,-20.07 4013.12,-27.06"/>
</g>
<!-- :feature:telemetry&#45;log&#45;list&#45;&gt;:core:domain -->
<g id="edge73" class="edge">
<title>:feature:telemetry&#45;log&#45;list&#45;&gt;:core:domain</title>
<path fill="none" stroke="black" d="M3289.79,-76.32C3199.81,-62.86 3059.29,-41.85 2975.73,-29.35"/>
<polygon fill="black" stroke="black" points="2976.24,-25.89 2965.83,-27.87 2975.2,-32.81 2976.24,-25.89"/>
</g>
<!-- :feature:telemetry&#45;log&#45;list&#45;&gt;:core:designsystem -->
<g id="edge74" class="edge">
<title>:feature:telemetry&#45;log&#45;list&#45;&gt;:core:designsystem</title>
<path fill="none" stroke="black" d="M3466.83,-77.26C3482.42,-75.41 3498.43,-73.58 3513.55,-72 3691.13,-53.38 3898.47,-36.24 4018.81,-26.74"/>
<polygon fill="black" stroke="black" points="4019.41,-30.21 4029.1,-25.93 4018.86,-23.23 4019.41,-30.21"/>
</g>
<!-- :feature:telemetry&#45;log&#45;detail&#45;&gt;:core:domain -->
<g id="edge71" class="edge">
<title>:feature:telemetry&#45;log&#45;detail&#45;&gt;:core:domain</title>
<path fill="none" stroke="black" d="M3563.87,-77.31C3547.07,-75.46 3529.82,-73.63 3513.55,-72 3322.99,-52.96 3098.39,-34.34 2983.19,-25.07"/>
<polygon fill="black" stroke="black" points="2983.31,-21.57 2973.06,-24.26 2982.75,-28.55 2983.31,-21.57"/>
</g>
<!-- :feature:telemetry&#45;log&#45;detail&#45;&gt;:core:designsystem -->
<g id="edge72" class="edge">
<title>:feature:telemetry&#45;log&#45;detail&#45;&gt;:core:designsystem</title>
<path fill="none" stroke="black" d="M3750.93,-75.71C3832.74,-63.12 3954.79,-44.35 4035.75,-31.89"/>
<polygon fill="black" stroke="black" points="4036.55,-35.31 4045.9,-30.33 4035.48,-28.39 4036.55,-35.31"/>
</g>
<!-- :feature:readout&#45;list&#45;&gt;:core:domain -->
<g id="edge68" class="edge">
<title>:feature:readout&#45;list&#45;&gt;:core:domain</title>
<path fill="none" stroke="black" d="M3856.03,-77.09C3842.6,-75.17 3828.67,-73.37 3815.55,-72 3510.34,-40.21 3145.35,-26.16 2986.72,-21.22"/>
<polygon fill="black" stroke="black" points="2986.68,-17.72 2976.57,-20.91 2986.46,-24.72 2986.68,-17.72"/>
</g>
<!-- :feature:readout&#45;list&#45;&gt;:core:designsystem -->
<g id="edge69" class="edge">
<title>:feature:readout&#45;list&#45;&gt;:core:designsystem</title>
<path fill="none" stroke="black" d="M3970.94,-73.46C3999.6,-62.96 4037.61,-49.03 4068.02,-37.88"/>
<polygon fill="black" stroke="black" points="4069.42,-41.1 4077.6,-34.37 4067.01,-34.53 4069.42,-41.1"/>
</g>
<!-- :feature:lmu&#45;windows&#45;readout&#45;vehicle&#45;approach&#45;detail&#45;&gt;:core:domain -->
<g id="edge49" class="edge">
<title>:feature:lmu&#45;windows&#45;readout&#45;vehicle&#45;approach&#45;detail&#45;&gt;:core:domain</title>
<path fill="none" stroke="black" d="M4129.3,-77.12C4099.96,-75.33 4069.92,-73.56 4041.55,-72 3645.5,-50.29 3171.39,-29.99 2986.18,-22.27"/>
<polygon fill="black" stroke="black" points="2986.12,-18.77 2975.98,-21.85 2985.83,-25.76 2986.12,-18.77"/>
</g>
<!-- :feature:lmu&#45;windows&#45;readout&#45;vehicle&#45;approach&#45;detail&#45;&gt;:core:designsystem -->
<g id="edge50" class="edge">
<title>:feature:lmu&#45;windows&#45;readout&#45;vehicle&#45;approach&#45;detail&#45;&gt;:core:designsystem</title>
<path fill="none" stroke="black" d="M4265.56,-72.23C4237.25,-61.91 4200.89,-48.66 4171.54,-37.96"/>
<polygon fill="black" stroke="black" points="4172.47,-34.57 4161.88,-34.43 4170.07,-41.15 4172.47,-34.57"/>
</g>
<!-- :feature:lmu&#45;windows&#45;readout&#45;flag&#45;detail&#45;&gt;:core:domain -->
<g id="edge45" class="edge">
<title>:feature:lmu&#45;windows&#45;readout&#45;flag&#45;detail&#45;&gt;:core:domain</title>
<path fill="none" stroke="black" d="M4652.83,-76.85C4629.08,-75.02 4604.61,-73.31 4581.55,-72 3969.08,-37.3 3229.26,-23.81 2987.33,-20.13"/>
<polygon fill="black" stroke="black" points="2987.27,-16.63 2977.22,-19.97 2987.16,-23.62 2987.27,-16.63"/>
</g>
<!-- :feature:lmu&#45;windows&#45;readout&#45;flag&#45;detail&#45;&gt;:core:designsystem -->
<g id="edge46" class="edge">
<title>:feature:lmu&#45;windows&#45;readout&#45;flag&#45;detail&#45;&gt;:core:designsystem</title>
<path fill="none" stroke="black" d="M4664.7,-75.96C4534.11,-62.31 4332.03,-41.2 4214.07,-28.88"/>
<polygon fill="black" stroke="black" points="4214.29,-25.38 4203.98,-27.82 4213.56,-32.34 4214.29,-25.38"/>
</g>
<!-- :feature:lmu&#45;windows&#45;readout&#45;my&#45;bestlap&#45;detail&#45;&gt;:core:domain -->
<g id="edge47" class="edge">
<title>:feature:lmu&#45;windows&#45;readout&#45;my&#45;bestlap&#45;detail&#45;&gt;:core:domain</title>
<path fill="none" stroke="black" d="M5081.47,-76.81C5053.83,-74.98 5025.37,-73.28 4998.55,-72 4215.74,-34.61 3266.82,-22.6 2987.52,-19.75"/>
<polygon fill="black" stroke="black" points="2987.51,-16.25 2977.48,-19.64 2987.44,-23.25 2987.51,-16.25"/>
</g>
<!-- :feature:lmu&#45;windows&#45;readout&#45;my&#45;bestlap&#45;detail&#45;&gt;:core:designsystem -->
<g id="edge48" class="edge">
<title>:feature:lmu&#45;windows&#45;readout&#45;my&#45;bestlap&#45;detail&#45;&gt;:core:designsystem</title>
<path fill="none" stroke="black" d="M5075.89,-77.21C5050.01,-75.42 5023.55,-73.63 4998.55,-72 4718.74,-53.74 4388.68,-34.44 4224,-24.96"/>
<polygon fill="black" stroke="black" points="4224.06,-21.46 4213.87,-24.38 4223.66,-28.45 4224.06,-21.46"/>
</g>
<!-- :feature:lmu&#45;windows&#45;readout&#45;vehicle&#45;damage&#45;detail&#45;&gt;:core:domain -->
<g id="edge51" class="edge">
<title>:feature:lmu&#45;windows&#45;readout&#45;vehicle&#45;damage&#45;detail&#45;&gt;:core:domain</title>
<path fill="none" stroke="black" d="M5573.35,-76.76C5543.1,-74.93 5511.91,-73.25 5482.55,-72 4979.19,-50.63 3367.17,-25.83 2987.29,-20.18"/>
<polygon fill="black" stroke="black" points="2987.26,-16.68 2977.21,-20.03 2987.15,-23.68 2987.26,-16.68"/>
</g>
<!-- :feature:lmu&#45;windows&#45;readout&#45;vehicle&#45;damage&#45;detail&#45;&gt;:core:designsystem -->
<g id="edge52" class="edge">
<title>:feature:lmu&#45;windows&#45;readout&#45;vehicle&#45;damage&#45;detail&#45;&gt;:core:designsystem</title>
<path fill="none" stroke="black" d="M5569.78,-76.99C5540.65,-75.19 5510.75,-73.46 5482.55,-72 5015.9,-47.91 4458.87,-29.47 4228.01,-22.28"/>
<polygon fill="black" stroke="black" points="4228.04,-18.78 4217.93,-21.97 4227.82,-25.78 4228.04,-18.78"/>
</g>
<!-- :feature:gt7&#45;ps5&#45;readout&#45;my&#45;bestlap&#45;detail&#45;&gt;:core:domain -->
<g id="edge38" class="edge">
<title>:feature:gt7&#45;ps5&#45;readout&#45;my&#45;bestlap&#45;detail&#45;&gt;:core:domain</title>
<path fill="none" stroke="black" d="M6086.97,-76.73C6061.55,-74.87 6035.27,-73.18 6010.55,-72 5855.32,-64.6 3459.63,-27.5 2987.12,-20.24"/>
<polygon fill="black" stroke="black" points="2987.03,-16.73 2976.98,-20.08 2986.92,-23.73 2987.03,-16.73"/>
</g>
<!-- :feature:gt7&#45;ps5&#45;readout&#45;my&#45;bestlap&#45;detail&#45;&gt;:core:designsystem -->
<g id="edge39" class="edge">
<title>:feature:gt7&#45;ps5&#45;readout&#45;my&#45;bestlap&#45;detail&#45;&gt;:core:designsystem</title>
<path fill="none" stroke="black" d="M6085.5,-76.84C6060.54,-75 6034.79,-73.29 6010.55,-72 5334.55,-36.07 4521.24,-23.64 4229.96,-20.16"/>
<polygon fill="black" stroke="black" points="4229.86,-16.66 4219.82,-20.04 4229.77,-23.66 4229.86,-16.66"/>
</g>
<!-- :feature:gt7&#45;ps5&#45;readout&#45;remaining&#45;fuel&#45;laps&#45;detail&#45;&gt;:core:domain -->
<g id="edge40" class="edge">
<title>:feature:gt7&#45;ps5&#45;readout&#45;remaining&#45;fuel&#45;laps&#45;detail&#45;&gt;:core:domain</title>
<path fill="none" stroke="black" d="M6533.64,-76.69C6503.98,-74.85 6473.36,-73.17 6444.55,-72 5363.1,-27.99 5091.76,-52.34 4009.55,-36 3626.85,-30.22 3169.47,-23.11 2987.23,-20.26"/>
<polygon fill="black" stroke="black" points="2987.25,-16.76 2977.2,-20.1 2987.14,-23.76 2987.25,-16.76"/>
</g>
<!-- :feature:gt7&#45;ps5&#45;readout&#45;remaining&#45;fuel&#45;laps&#45;detail&#45;&gt;:core:designsystem -->
<g id="edge41" class="edge">
<title>:feature:gt7&#45;ps5&#45;readout&#45;remaining&#45;fuel&#45;laps&#45;detail&#45;&gt;:core:designsystem</title>
<path fill="none" stroke="black" d="M6531.92,-76.78C6502.8,-74.95 6472.8,-73.26 6444.55,-72 5592.73,-33.92 4564.06,-22.6 4230.03,-19.8"/>
<polygon fill="black" stroke="black" points="4229.9,-16.3 4219.87,-19.72 4229.84,-23.3 4229.9,-16.3"/>
</g>
<!-- :app:webApp -->
<g id="node30" class="node">
<title>:app:webApp</title>
<ellipse fill="none" stroke="black" cx="3085.55" cy="-234" rx="70.69" ry="18"/>
<text text-anchor="middle" x="3085.55" y="-230.3" font-family="Times,serif" font-size="14.00">:app:webApp</text>
</g>
<!-- :app:webApp&#45;&gt;:app:shared -->
<g id="edge31" class="edge">
<title>:app:webApp&#45;&gt;:app:shared</title>
<path fill="none" stroke="black" d="M3085.55,-215.7C3085.55,-207.98 3085.55,-198.71 3085.55,-190.11"/>
<polygon fill="black" stroke="black" points="3089.05,-190.1 3085.55,-180.1 3082.05,-190.1 3089.05,-190.1"/>
</g>
<!-- :feature:other&#45;theme&#45;detail -->
<g id="node32" class="node">
<title>:feature:other&#45;theme&#45;detail</title>
<ellipse fill="none" stroke="black" cx="7698.55" cy="-90" rx="136.48" ry="18"/>
<text text-anchor="middle" x="7698.55" y="-86.3" font-family="Times,serif" font-size="14.00">:feature:other&#45;theme&#45;detail</text>
</g>
<!-- :feature:other&#45;theme&#45;detail&#45;&gt;:core:domain -->
<g id="edge64" class="edge">
<title>:feature:other&#45;theme&#45;detail&#45;&gt;:core:domain</title>
<path fill="none" stroke="black" d="M7606,-76.73C7588.28,-74.81 7569.86,-73.09 7552.55,-72 6766.74,-22.4 4796.86,-46.07 4009.55,-36 3626.6,-31.1 3168.91,-23.48 2986.9,-20.38"/>
<polygon fill="black" stroke="black" points="2986.93,-16.88 2976.87,-20.21 2986.81,-23.88 2986.93,-16.88"/>
</g>
<!-- :feature:other&#45;theme&#45;detail&#45;&gt;:core:designsystem -->
<g id="edge65" class="edge">
<title>:feature:other&#45;theme&#45;detail&#45;&gt;:core:designsystem</title>
<path fill="none" stroke="black" d="M7605.6,-76.76C7588.01,-74.85 7569.73,-73.13 7552.55,-72 6884.1,-28.04 4743.05,-20.42 4230.54,-19.21"/>
<polygon fill="black" stroke="black" points="4230.2,-15.71 4220.19,-19.19 4230.18,-22.71 4230.2,-15.71"/>
</g>
</g>
</svg>
