<?xml version="1.0" encoding="UTF-8" standalone="no"?>
<!DOCTYPE svg PUBLIC "-//W3C//DTD SVG 1.1//EN"
 "http://www.w3.org/Graphics/SVG/1.1/DTD/svg11.dtd">
<!-- Generated by graphviz version 2.43.0 (0)
 -->
<!-- Title: G Pages: 1 -->
<svg width="4581pt" height="260pt"
 viewBox="0.00 0.00 4580.63 260.00" xmlns="http://www.w3.org/2000/svg" xmlns:xlink="http://www.w3.org/1999/xlink">
<g id="graph0" class="graph" transform="scale(1 1) rotate(0) translate(4 256)">
<title>G</title>
<polygon fill="white" stroke="transparent" points="-4,4 -4,-256 4576.63,-256 4576.63,4 -4,4"/>
<!-- :server -->
<g id="node1" class="node">
<title>:server</title>
<ellipse fill="none" stroke="black" cx="302.89" cy="-162" rx="43.59" ry="18"/>
<text text-anchor="middle" x="302.89" y="-158.3" font-family="Times,serif" font-size="14.00">:server</text>
</g>
<!-- :core:domain -->
<g id="node2" class="node">
<title>:core:domain</title>
<ellipse fill="none" stroke="black" cx="1400.89" cy="-18" rx="70.69" ry="18"/>
<text text-anchor="middle" x="1400.89" y="-14.3" font-family="Times,serif" font-size="14.00">:core:domain</text>
</g>
<!-- :server&#45;&gt;:core:domain -->
<g id="edge1" class="edge">
<title>:server&#45;&gt;:core:domain</title>
<path fill="none" stroke="black" d="M273,-148.88C247.09,-137.7 212.59,-120.92 204.89,-108 196.7,-94.26 193.83,-83.56 204.89,-72 243.41,-31.73 1057.11,-21.73 1319.86,-19.55"/>
<polygon fill="black" stroke="black" points="1320.12,-23.05 1330.09,-19.47 1320.06,-16.05 1320.12,-23.05"/>
</g>
<!-- :app:androidApp -->
<g id="node3" class="node">
<title>:app:androidApp</title>
<ellipse fill="none" stroke="black" cx="1048.89" cy="-234" rx="87.18" ry="18"/>
<text text-anchor="middle" x="1048.89" y="-230.3" font-family="Times,serif" font-size="14.00">:app:androidApp</text>
</g>
<!-- :app:shared -->
<g id="node4" class="node">
<title>:app:shared</title>
<ellipse fill="none" stroke="black" cx="1716.89" cy="-162" rx="65.79" ry="18"/>
<text text-anchor="middle" x="1716.89" y="-158.3" font-family="Times,serif" font-size="14.00">:app:shared</text>
</g>
<!-- :app:androidApp&#45;&gt;:app:shared -->
<g id="edge2" class="edge">
<title>:app:androidApp&#45;&gt;:app:shared</title>
<path fill="none" stroke="black" d="M1124.54,-225.07C1254.91,-211.41 1520.07,-183.62 1646.62,-170.36"/>
<polygon fill="black" stroke="black" points="1647.01,-173.84 1656.59,-169.32 1646.28,-166.88 1647.01,-173.84"/>
</g>
<!-- :core:data -->
<g id="node5" class="node">
<title>:core:data</title>
<ellipse fill="none" stroke="black" cx="421.89" cy="-162" rx="57.39" ry="18"/>
<text text-anchor="middle" x="421.89" y="-158.3" font-family="Times,serif" font-size="14.00">:core:data</text>
</g>
<!-- :app:androidApp&#45;&gt;:core:data -->
<g id="edge3" class="edge">
<title>:app:androidApp&#45;&gt;:core:data</title>
<path fill="none" stroke="black" d="M974.19,-224.66C849.69,-210.76 601.92,-183.1 485.33,-170.08"/>
<polygon fill="black" stroke="black" points="485.46,-166.58 475.14,-168.94 484.69,-173.53 485.46,-166.58"/>
</g>
<!-- :feature:main -->
<g id="node8" class="node">
<title>:feature:main</title>
<ellipse fill="none" stroke="black" cx="1144.89" cy="-90" rx="73.39" ry="18"/>
<text text-anchor="middle" x="1144.89" y="-86.3" font-family="Times,serif" font-size="14.00">:feature:main</text>
</g>
<!-- :app:shared&#45;&gt;:feature:main -->
<g id="edge8" class="edge">
<title>:app:shared&#45;&gt;:feature:main</title>
<path fill="none" stroke="black" d="M1654.5,-156.13C1561.31,-148.43 1380.39,-131.83 1227.89,-108 1221.35,-106.98 1214.54,-105.79 1207.76,-104.53"/>
<polygon fill="black" stroke="black" points="1208.37,-101.08 1197.89,-102.63 1207.05,-107.95 1208.37,-101.08"/>
</g>
<!-- :feature:lmu&#45;windows&#45;connection -->
<g id="node9" class="node">
<title>:feature:lmu&#45;windows&#45;connection</title>
<ellipse fill="none" stroke="black" cx="1400.89" cy="-90" rx="164.37" ry="18"/>
<text text-anchor="middle" x="1400.89" y="-86.3" font-family="Times,serif" font-size="14.00">:feature:lmu&#45;windows&#45;connection</text>
</g>
<!-- :app:shared&#45;&gt;:feature:lmu&#45;windows&#45;connection -->
<g id="edge9" class="edge">
<title>:app:shared&#45;&gt;:feature:lmu&#45;windows&#45;connection</title>
<path fill="none" stroke="black" d="M1667.51,-150.06C1617.38,-138.96 1538.98,-121.59 1480.14,-108.56"/>
<polygon fill="black" stroke="black" points="1480.66,-105.09 1470.14,-106.34 1479.15,-111.92 1480.66,-105.09"/>
</g>
<!-- :feature:server&#45;connection -->
<g id="node10" class="node">
<title>:feature:server&#45;connection</title>
<ellipse fill="none" stroke="black" cx="1716.89" cy="-90" rx="133.48" ry="18"/>
<text text-anchor="middle" x="1716.89" y="-86.3" font-family="Times,serif" font-size="14.00">:feature:server&#45;connection</text>
</g>
<!-- :app:shared&#45;&gt;:feature:server&#45;connection -->
<g id="edge10" class="edge">
<title>:app:shared&#45;&gt;:feature:server&#45;connection</title>
<path fill="none" stroke="black" d="M1716.89,-143.7C1716.89,-135.98 1716.89,-126.71 1716.89,-118.11"/>
<polygon fill="black" stroke="black" points="1720.39,-118.1 1716.89,-108.1 1713.39,-118.1 1720.39,-118.1"/>
</g>
<!-- :feature:lmu&#45;windows&#45;narrator -->
<g id="node11" class="node">
<title>:feature:lmu&#45;windows&#45;narrator</title>
<ellipse fill="none" stroke="black" cx="2021.89" cy="-90" rx="153.27" ry="18"/>
<text text-anchor="middle" x="2021.89" y="-86.3" font-family="Times,serif" font-size="14.00">:feature:lmu&#45;windows&#45;narrator</text>
</g>
<!-- :app:shared&#45;&gt;:feature:lmu&#45;windows&#45;narrator -->
<g id="edge11" class="edge">
<title>:app:shared&#45;&gt;:feature:lmu&#45;windows&#45;narrator</title>
<path fill="none" stroke="black" d="M1765.55,-149.83C1814.02,-138.71 1889.15,-121.47 1945.56,-108.52"/>
<polygon fill="black" stroke="black" points="1946.54,-111.88 1955.51,-106.24 1944.98,-105.06 1946.54,-111.88"/>
</g>
<!-- :feature:other&#45;license&#45;detail -->
<g id="node12" class="node">
<title>:feature:other&#45;license&#45;detail</title>
<ellipse fill="none" stroke="black" cx="4432.89" cy="-90" rx="139.98" ry="18"/>
<text text-anchor="middle" x="4432.89" y="-86.3" font-family="Times,serif" font-size="14.00">:feature:other&#45;license&#45;detail</text>
</g>
<!-- :app:shared&#45;&gt;:feature:other&#45;license&#45;detail -->
<g id="edge12" class="edge">
<title>:app:shared&#45;&gt;:feature:other&#45;license&#45;detail</title>
<path fill="none" stroke="black" d="M1782.4,-160.48C2131.57,-157.59 3776.85,-142.34 4284.89,-108 4298.83,-107.06 4313.48,-105.76 4327.92,-104.29"/>
<polygon fill="black" stroke="black" points="4328.29,-107.77 4337.87,-103.25 4327.56,-100.81 4328.29,-107.77"/>
</g>
<!-- :feature:other&#45;list -->
<g id="node13" class="node">
<title>:feature:other&#45;list</title>
<ellipse fill="none" stroke="black" cx="317.89" cy="-90" rx="92.88" ry="18"/>
<text text-anchor="middle" x="317.89" y="-86.3" font-family="Times,serif" font-size="14.00">:feature:other&#45;list</text>
</g>
<!-- :app:shared&#45;&gt;:feature:other&#45;list -->
<g id="edge13" class="edge">
<title>:app:shared&#45;&gt;:feature:other&#45;list</title>
<path fill="none" stroke="black" d="M1651.17,-161.23C1460.26,-161.29 889.4,-157.01 418.89,-108 410.22,-107.1 401.16,-105.92 392.18,-104.6"/>
<polygon fill="black" stroke="black" points="392.52,-101.11 382.11,-103.06 391.47,-108.03 392.52,-101.11"/>
</g>
<!-- :feature:other&#45;server&#45;ip&#45;detail -->
<g id="node14" class="node">
<title>:feature:other&#45;server&#45;ip&#45;detail</title>
<ellipse fill="none" stroke="black" cx="2869.89" cy="-90" rx="148.67" ry="18"/>
<text text-anchor="middle" x="2869.89" y="-86.3" font-family="Times,serif" font-size="14.00">:feature:other&#45;server&#45;ip&#45;detail</text>
</g>
<!-- :app:shared&#45;&gt;:feature:other&#45;server&#45;ip&#45;detail -->
<g id="edge14" class="edge">
<title>:app:shared&#45;&gt;:feature:other&#45;server&#45;ip&#45;detail</title>
<path fill="none" stroke="black" d="M1781.58,-158.76C1940.26,-153.02 2361.42,-136.17 2711.89,-108 2726.19,-106.85 2741.2,-105.47 2756.04,-103.99"/>
<polygon fill="black" stroke="black" points="2756.68,-107.44 2766.28,-102.96 2755.98,-100.48 2756.68,-107.44"/>
</g>
<!-- :feature:other&#45;readout&#45;start&#45;sound&#45;detail -->
<g id="node15" class="node">
<title>:feature:other&#45;readout&#45;start&#45;sound&#45;detail</title>
<ellipse fill="none" stroke="black" cx="627.89" cy="-90" rx="199.56" ry="18"/>
<text text-anchor="middle" x="627.89" y="-86.3" font-family="Times,serif" font-size="14.00">:feature:other&#45;readout&#45;start&#45;sound&#45;detail</text>
</g>
<!-- :app:shared&#45;&gt;:feature:other&#45;readout&#45;start&#45;sound&#45;detail -->
<g id="edge15" class="edge">
<title>:app:shared&#45;&gt;:feature:other&#45;readout&#45;start&#45;sound&#45;detail</title>
<path fill="none" stroke="black" d="M1653.09,-157.62C1508.04,-149.83 1142.43,-129.62 836.89,-108 817.86,-106.65 797.87,-105.15 778.1,-103.6"/>
<polygon fill="black" stroke="black" points="778.35,-100.11 768.11,-102.81 777.8,-107.09 778.35,-100.11"/>
</g>
<!-- :feature:other&#45;volume&#45;detail -->
<g id="node16" class="node">
<title>:feature:other&#45;volume&#45;detail</title>
<ellipse fill="none" stroke="black" cx="3177.89" cy="-90" rx="141.07" ry="18"/>
<text text-anchor="middle" x="3177.89" y="-86.3" font-family="Times,serif" font-size="14.00">:feature:other&#45;volume&#45;detail</text>
</g>
<!-- :app:shared&#45;&gt;:feature:other&#45;volume&#45;detail -->
<g id="edge16" class="edge">
<title>:app:shared&#45;&gt;:feature:other&#45;volume&#45;detail</title>
<path fill="none" stroke="black" d="M1782.47,-160.03C1974.3,-156.82 2550.93,-144.62 3027.89,-108 3041.56,-106.95 3055.9,-105.62 3070.08,-104.17"/>
<polygon fill="black" stroke="black" points="3070.77,-107.61 3080.35,-103.09 3070.04,-100.65 3070.77,-107.61"/>
</g>
<!-- :feature:readout&#45;list -->
<g id="node17" class="node">
<title>:feature:readout&#45;list</title>
<ellipse fill="none" stroke="black" cx="949.89" cy="-90" rx="103.98" ry="18"/>
<text text-anchor="middle" x="949.89" y="-86.3" font-family="Times,serif" font-size="14.00">:feature:readout&#45;list</text>
</g>
<!-- :app:shared&#45;&gt;:feature:readout&#45;list -->
<g id="edge17" class="edge">
<title>:app:shared&#45;&gt;:feature:readout&#45;list</title>
<path fill="none" stroke="black" d="M1653.15,-157.29C1536.02,-150.15 1278.74,-132.95 1062.89,-108 1053.28,-106.89 1043.24,-105.59 1033.27,-104.2"/>
<polygon fill="black" stroke="black" points="1033.73,-100.73 1023.34,-102.8 1032.75,-107.66 1033.73,-100.73"/>
</g>
<!-- :feature:lmu&#45;windows&#45;readout&#45;vehicle&#45;approach&#45;detail -->
<g id="node18" class="node">
<title>:feature:lmu&#45;windows&#45;readout&#45;vehicle&#45;approach&#45;detail</title>
<ellipse fill="none" stroke="black" cx="3597.89" cy="-90" rx="260.75" ry="18"/>
<text text-anchor="middle" x="3597.89" y="-86.3" font-family="Times,serif" font-size="14.00">:feature:lmu&#45;windows&#45;readout&#45;vehicle&#45;approach&#45;detail</text>
</g>
<!-- :app:shared&#45;&gt;:feature:lmu&#45;windows&#45;readout&#45;vehicle&#45;approach&#45;detail -->
<g id="edge18" class="edge">
<title>:app:shared&#45;&gt;:feature:lmu&#45;windows&#45;readout&#45;vehicle&#45;approach&#45;detail</title>
<path fill="none" stroke="black" d="M1782.14,-159.56C2000.79,-154.57 2727.62,-136.76 3327.89,-108 3353.78,-106.76 3381.07,-105.26 3407.93,-103.68"/>
<polygon fill="black" stroke="black" points="3408.43,-107.16 3418.2,-103.07 3408.01,-100.17 3408.43,-107.16"/>
</g>
<!-- :feature:lmu&#45;windows&#45;readout&#45;flag&#45;detail -->
<g id="node19" class="node">
<title>:feature:lmu&#45;windows&#45;readout&#45;flag&#45;detail</title>
<ellipse fill="none" stroke="black" cx="4075.89" cy="-90" rx="199.56" ry="18"/>
<text text-anchor="middle" x="4075.89" y="-86.3" font-family="Times,serif" font-size="14.00">:feature:lmu&#45;windows&#45;readout&#45;flag&#45;detail</text>
</g>
<!-- :app:shared&#45;&gt;:feature:lmu&#45;windows&#45;readout&#45;flag&#45;detail -->
<g id="edge19" class="edge">
<title>:app:shared&#45;&gt;:feature:lmu&#45;windows&#45;readout&#45;flag&#45;detail</title>
<path fill="none" stroke="black" d="M1782.5,-160.74C2045.11,-159.43 3045.84,-151.69 3867.89,-108 3887.94,-106.93 3909.07,-105.53 3929.85,-103.99"/>
<polygon fill="black" stroke="black" points="3930.31,-107.47 3940.02,-103.22 3929.79,-100.49 3930.31,-107.47"/>
</g>
<!-- :feature:lmu&#45;windows&#45;readout&#45;vehicle&#45;damage&#45;detail -->
<g id="node20" class="node">
<title>:feature:lmu&#45;windows&#45;readout&#45;vehicle&#45;damage&#45;detail</title>
<ellipse fill="none" stroke="black" cx="2447.89" cy="-90" rx="254.55" ry="18"/>
<text text-anchor="middle" x="2447.89" y="-86.3" font-family="Times,serif" font-size="14.00">:feature:lmu&#45;windows&#45;readout&#45;vehicle&#45;damage&#45;detail</text>
</g>
<!-- :app:shared&#45;&gt;:feature:lmu&#45;windows&#45;readout&#45;vehicle&#45;damage&#45;detail -->
<g id="edge20" class="edge">
<title>:app:shared&#45;&gt;:feature:lmu&#45;windows&#45;readout&#45;vehicle&#45;damage&#45;detail</title>
<path fill="none" stroke="black" d="M1777.64,-155.18C1889.9,-144.43 2132.95,-121.16 2293.43,-105.79"/>
<polygon fill="black" stroke="black" points="2293.78,-109.27 2303.4,-104.84 2293.11,-102.31 2293.78,-109.27"/>
</g>
<!-- :core:data&#45;&gt;:core:domain -->
<g id="edge22" class="edge">
<title>:core:data&#45;&gt;:core:domain</title>
<path fill="none" stroke="black" d="M378.93,-149.93C371.26,-147.96 363.34,-145.92 355.89,-144 293.67,-127.99 255.26,-158.77 215.89,-108 206.09,-95.36 204.83,-83.56 215.89,-72 254.01,-32.14 1058.42,-21.88 1319.7,-19.59"/>
<polygon fill="black" stroke="black" points="1319.91,-23.09 1329.88,-19.5 1319.85,-16.09 1319.91,-23.09"/>
</g>
<!-- :app:desktopApp -->
<g id="node6" class="node">
<title>:app:desktopApp</title>
<ellipse fill="none" stroke="black" cx="362.89" cy="-234" rx="88.28" ry="18"/>
<text text-anchor="middle" x="362.89" y="-230.3" font-family="Times,serif" font-size="14.00">:app:desktopApp</text>
</g>
<!-- :app:desktopApp&#45;&gt;:server -->
<g id="edge7" class="edge">
<title>:app:desktopApp&#45;&gt;:server</title>
<path fill="none" stroke="black" d="M348.36,-216.05C340.89,-207.33 331.64,-196.54 323.44,-186.98"/>
<polygon fill="black" stroke="black" points="326.03,-184.62 316.87,-179.31 320.72,-189.18 326.03,-184.62"/>
</g>
<!-- :app:desktopApp&#45;&gt;:app:shared -->
<g id="edge4" class="edge">
<title>:app:desktopApp&#45;&gt;:app:shared</title>
<path fill="none" stroke="black" d="M447.33,-228.63C693.95,-215.88 1410.36,-178.85 1642.99,-166.82"/>
<polygon fill="black" stroke="black" points="1643.24,-170.31 1653.04,-166.3 1642.88,-163.32 1643.24,-170.31"/>
</g>
<!-- :app:desktopApp&#45;&gt;:core:data -->
<g id="edge5" class="edge">
<title>:app:desktopApp&#45;&gt;:core:data</title>
<path fill="none" stroke="black" d="M377.17,-216.05C384.35,-207.54 393.17,-197.07 401.09,-187.68"/>
<polygon fill="black" stroke="black" points="403.97,-189.69 407.74,-179.79 398.62,-185.18 403.97,-189.69"/>
</g>
<!-- :core:lmu&#45;windows&#45;data -->
<g id="node7" class="node">
<title>:core:lmu&#45;windows&#45;data</title>
<ellipse fill="none" stroke="black" cx="120.89" cy="-162" rx="120.78" ry="18"/>
<text text-anchor="middle" x="120.89" y="-158.3" font-family="Times,serif" font-size="14.00">:core:lmu&#45;windows&#45;data</text>
</g>
<!-- :app:desktopApp&#45;&gt;:core:lmu&#45;windows&#45;data -->
<g id="edge6" class="edge">
<title>:app:desktopApp&#45;&gt;:core:lmu&#45;windows&#45;data</title>
<path fill="none" stroke="black" d="M314.21,-218.92C276.59,-208.04 224.25,-192.9 183.51,-181.11"/>
<polygon fill="black" stroke="black" points="184.27,-177.69 173.69,-178.27 182.32,-184.41 184.27,-177.69"/>
</g>
<!-- :core:lmu&#45;windows&#45;data&#45;&gt;:core:domain -->
<g id="edge23" class="edge">
<title>:core:lmu&#45;windows&#45;data&#45;&gt;:core:domain</title>
<path fill="none" stroke="black" d="M129.18,-143.88C140.5,-122.67 162.97,-87.47 193.89,-72 293.92,-21.96 1065.14,-18.51 1319.68,-18.75"/>
<polygon fill="black" stroke="black" points="1319.96,-22.26 1329.96,-18.77 1319.96,-15.26 1319.96,-22.26"/>
</g>
<!-- :feature:main&#45;&gt;:core:domain -->
<g id="edge32" class="edge">
<title>:feature:main&#45;&gt;:core:domain</title>
<path fill="none" stroke="black" d="M1192.14,-76.08C1235.21,-64.3 1298.9,-46.89 1344.59,-34.39"/>
<polygon fill="black" stroke="black" points="1345.62,-37.74 1354.34,-31.73 1343.77,-30.99 1345.62,-37.74"/>
</g>
<!-- :feature:lmu&#45;windows&#45;connection&#45;&gt;:core:domain -->
<g id="edge24" class="edge">
<title>:feature:lmu&#45;windows&#45;connection&#45;&gt;:core:domain</title>
<path fill="none" stroke="black" d="M1400.89,-71.7C1400.89,-63.98 1400.89,-54.71 1400.89,-46.11"/>
<polygon fill="black" stroke="black" points="1404.39,-46.1 1400.89,-36.1 1397.39,-46.1 1404.39,-46.1"/>
</g>
<!-- :feature:server&#45;connection&#45;&gt;:core:domain -->
<g id="edge41" class="edge">
<title>:feature:server&#45;connection&#45;&gt;:core:domain</title>
<path fill="none" stroke="black" d="M1650.65,-74.33C1595.1,-62.02 1516.41,-44.59 1462.28,-32.6"/>
<polygon fill="black" stroke="black" points="1462.99,-29.17 1452.47,-30.43 1461.47,-36.01 1462.99,-29.17"/>
</g>
<!-- :feature:lmu&#45;windows&#45;narrator&#45;&gt;:core:domain -->
<g id="edge25" class="edge">
<title>:feature:lmu&#45;windows&#45;narrator&#45;&gt;:core:domain</title>
<path fill="none" stroke="black" d="M1915.49,-77.01C1789.62,-62.82 1583.41,-39.57 1474.15,-27.26"/>
<polygon fill="black" stroke="black" points="1474.54,-23.78 1464.21,-26.14 1473.76,-30.74 1474.54,-23.78"/>
</g>
<!-- :core:designsystem -->
<g id="node22" class="node">
<title>:core:designsystem</title>
<ellipse fill="none" stroke="black" cx="3387.89" cy="-18" rx="100.98" ry="18"/>
<text text-anchor="middle" x="3387.89" y="-14.3" font-family="Times,serif" font-size="14.00">:core:designsystem</text>
</g>
<!-- :feature:other&#45;license&#45;detail&#45;&gt;:core:designsystem -->
<g id="edge33" class="edge">
<title>:feature:other&#45;license&#45;detail&#45;&gt;:core:designsystem</title>
<path fill="none" stroke="black" d="M4335.44,-77.03C4318.6,-75.18 4301.25,-73.42 4284.89,-72 4000.08,-47.25 3663.38,-30.77 3495.02,-23.41"/>
<polygon fill="black" stroke="black" points="3495.06,-19.91 3484.92,-22.97 3494.75,-26.9 3495.06,-19.91"/>
</g>
<!-- :feature:other&#45;list&#45;&gt;:core:domain -->
<g id="edge34" class="edge">
<title>:feature:other&#45;list&#45;&gt;:core:domain</title>
<path fill="none" stroke="black" d="M382.39,-77.03C394.49,-75.1 407.05,-73.31 418.89,-72 752.32,-35.06 1152.41,-23.6 1320.41,-20.27"/>
<polygon fill="black" stroke="black" points="1320.48,-23.77 1330.41,-20.08 1320.35,-16.77 1320.48,-23.77"/>
</g>
<!-- :feature:other&#45;server&#45;ip&#45;detail&#45;&gt;:core:domain -->
<g id="edge36" class="edge">
<title>:feature:other&#45;server&#45;ip&#45;detail&#45;&gt;:core:domain</title>
<path fill="none" stroke="black" d="M2767.14,-76.94C2748.76,-75.07 2729.77,-73.32 2711.89,-72 2246.66,-37.61 1686.79,-24.32 1481.43,-20.39"/>
<polygon fill="black" stroke="black" points="1481.39,-16.88 1471.33,-20.19 1481.26,-23.88 1481.39,-16.88"/>
</g>
<!-- :feature:other&#45;server&#45;ip&#45;detail&#45;&gt;:core:designsystem -->
<g id="edge37" class="edge">
<title>:feature:other&#45;server&#45;ip&#45;detail&#45;&gt;:core:designsystem</title>
<path fill="none" stroke="black" d="M2965.2,-76.12C3060.92,-63.19 3207.17,-43.42 3300.12,-30.86"/>
<polygon fill="black" stroke="black" points="3300.62,-34.32 3310.06,-29.52 3299.68,-27.39 3300.62,-34.32"/>
</g>
<!-- :feature:other&#45;readout&#45;start&#45;sound&#45;detail&#45;&gt;:core:domain -->
<g id="edge35" class="edge">
<title>:feature:other&#45;readout&#45;start&#45;sound&#45;detail&#45;&gt;:core:domain</title>
<path fill="none" stroke="black" d="M763.42,-76.73C926.57,-61.95 1194.83,-37.66 1325.14,-25.86"/>
<polygon fill="black" stroke="black" points="1325.77,-29.32 1335.42,-24.93 1325.14,-22.35 1325.77,-29.32"/>
</g>
<!-- :feature:other&#45;volume&#45;detail&#45;&gt;:core:domain -->
<g id="edge38" class="edge">
<title>:feature:other&#45;volume&#45;detail&#45;&gt;:core:domain</title>
<path fill="none" stroke="black" d="M3081.17,-76.88C3063.47,-75 3045.14,-73.26 3027.89,-72 2435.61,-28.86 1719.48,-20.83 1481.84,-19.34"/>
<polygon fill="black" stroke="black" points="1481.58,-15.84 1471.56,-19.28 1481.54,-22.84 1481.58,-15.84"/>
</g>
<!-- :feature:other&#45;volume&#45;detail&#45;&gt;:core:designsystem -->
<g id="edge39" class="edge">
<title>:feature:other&#45;volume&#45;detail&#45;&gt;:core:designsystem</title>
<path fill="none" stroke="black" d="M3225.8,-73.03C3257.65,-62.41 3299.55,-48.45 3332.77,-37.37"/>
<polygon fill="black" stroke="black" points="3333.96,-40.67 3342.34,-34.18 3331.75,-34.03 3333.96,-40.67"/>
</g>
<!-- :feature:readout&#45;list&#45;&gt;:core:domain -->
<g id="edge40" class="edge">
<title>:feature:readout&#45;list&#45;&gt;:core:domain</title>
<path fill="none" stroke="black" d="M1024.62,-77.4C1110.17,-64.12 1249.15,-42.55 1332.12,-29.67"/>
<polygon fill="black" stroke="black" points="1332.86,-33.1 1342.2,-28.11 1331.78,-26.18 1332.86,-33.1"/>
</g>
<!-- :feature:lmu&#45;windows&#45;readout&#45;vehicle&#45;approach&#45;detail&#45;&gt;:core:domain -->
<g id="edge28" class="edge">
<title>:feature:lmu&#45;windows&#45;readout&#45;vehicle&#45;approach&#45;detail&#45;&gt;:core:domain</title>
<path fill="none" stroke="black" d="M3419.3,-76.86C3388.81,-75.04 3357.45,-73.34 3327.89,-72 2612.36,-39.64 1746.43,-24.35 1481.64,-20.2"/>
<polygon fill="black" stroke="black" points="1481.41,-16.69 1471.35,-20.04 1481.3,-23.69 1481.41,-16.69"/>
</g>
<!-- :feature:lmu&#45;windows&#45;readout&#45;vehicle&#45;approach&#45;detail&#45;&gt;:core:designsystem -->
<g id="edge29" class="edge">
<title>:feature:lmu&#45;windows&#45;readout&#45;vehicle&#45;approach&#45;detail&#45;&gt;:core:designsystem</title>
<path fill="none" stroke="black" d="M3547.86,-72.32C3516.3,-61.8 3475.53,-48.21 3443.04,-37.38"/>
<polygon fill="black" stroke="black" points="3443.84,-33.96 3433.24,-34.12 3441.62,-40.6 3443.84,-33.96"/>
</g>
<!-- :feature:lmu&#45;windows&#45;readout&#45;flag&#45;detail&#45;&gt;:core:domain -->
<g id="edge26" class="edge">
<title>:feature:lmu&#45;windows&#45;readout&#45;flag&#45;detail&#45;&gt;:core:domain</title>
<path fill="none" stroke="black" d="M3940.58,-76.76C3916.39,-74.91 3891.41,-73.21 3867.89,-72 2931.15,-23.7 1792.15,-19.25 1482.09,-18.97"/>
<polygon fill="black" stroke="black" points="1481.85,-15.47 1471.84,-18.97 1481.84,-22.47 1481.85,-15.47"/>
</g>
<!-- :feature:lmu&#45;windows&#45;readout&#45;flag&#45;detail&#45;&gt;:core:designsystem -->
<g id="edge27" class="edge">
<title>:feature:lmu&#45;windows&#45;readout&#45;flag&#45;detail&#45;&gt;:core:designsystem</title>
<path fill="none" stroke="black" d="M3948.9,-76.08C3814.17,-62.37 3604.38,-41.03 3483.16,-28.69"/>
<polygon fill="black" stroke="black" points="3483.45,-25.2 3473.15,-27.67 3482.74,-32.17 3483.45,-25.2"/>
</g>
<!-- :feature:lmu&#45;windows&#45;readout&#45;vehicle&#45;damage&#45;detail&#45;&gt;:core:domain -->
<g id="edge30" class="edge">
<title>:feature:lmu&#45;windows&#45;readout&#45;vehicle&#45;damage&#45;detail&#45;&gt;:core:domain</title>
<path fill="none" stroke="black" d="M2269.98,-77.11C2038.77,-61.65 1644.96,-35.32 1478.66,-24.2"/>
<polygon fill="black" stroke="black" points="1478.73,-20.7 1468.52,-23.52 1478.26,-27.68 1478.73,-20.7"/>
</g>
<!-- :feature:lmu&#45;windows&#45;readout&#45;vehicle&#45;damage&#45;detail&#45;&gt;:core:designsystem -->
<g id="edge31" class="edge">
<title>:feature:lmu&#45;windows&#45;readout&#45;vehicle&#45;damage&#45;detail&#45;&gt;:core:designsystem</title>
<path fill="none" stroke="black" d="M2616.21,-76.47C2811.07,-61.95 3125.74,-38.52 3286.41,-26.56"/>
<polygon fill="black" stroke="black" points="3287.05,-30.02 3296.77,-25.79 3286.53,-23.04 3287.05,-30.02"/>
</g>
<!-- :app:webApp -->
<g id="node21" class="node">
<title>:app:webApp</title>
<ellipse fill="none" stroke="black" cx="1716.89" cy="-234" rx="70.69" ry="18"/>
<text text-anchor="middle" x="1716.89" y="-230.3" font-family="Times,serif" font-size="14.00">:app:webApp</text>
</g>
<!-- :app:webApp&#45;&gt;:app:shared -->
<g id="edge21" class="edge">
<title>:app:webApp&#45;&gt;:app:shared</title>
<path fill="none" stroke="black" d="M1716.89,-215.7C1716.89,-207.98 1716.89,-198.71 1716.89,-190.11"/>
<polygon fill="black" stroke="black" points="1720.39,-190.1 1716.89,-180.1 1713.39,-190.1 1720.39,-190.1"/>
</g>
</g>
</svg>
