<?xml version="1.0" encoding="UTF-8" standalone="no"?>
<!DOCTYPE svg PUBLIC "-//W3C//DTD SVG 1.1//EN"
 "http://www.w3.org/Graphics/SVG/1.1/DTD/svg11.dtd">
<!-- Generated by graphviz version 2.43.0 (0)
 -->
<!-- Title: G Pages: 1 -->
<svg width="7515pt" height="260pt"
 viewBox="0.00 0.00 7514.73 260.00" xmlns="http://www.w3.org/2000/svg" xmlns:xlink="http://www.w3.org/1999/xlink">
<g id="graph0" class="graph" transform="scale(1 1) rotate(0) translate(4 256)">
<title>G</title>
<polygon fill="white" stroke="transparent" points="-4,4 -4,-256 7510.73,-256 7510.73,4 -4,4"/>
<!-- :server -->
<g id="node1" class="node">
<title>:server</title>
<ellipse fill="none" stroke="black" cx="302.89" cy="-162" rx="43.59" ry="18"/>
<text text-anchor="middle" x="302.89" y="-158.3" font-family="Times,serif" font-size="14.00">:server</text>
</g>
<!-- :core:domain -->
<g id="node2" class="node">
<title>:core:domain</title>
<ellipse fill="none" stroke="black" cx="2732.89" cy="-18" rx="70.69" ry="18"/>
<text text-anchor="middle" x="2732.89" y="-14.3" font-family="Times,serif" font-size="14.00">:core:domain</text>
</g>
<!-- :server&#45;&gt;:core:domain -->
<g id="edge1" class="edge">
<title>:server&#45;&gt;:core:domain</title>
<path fill="none" stroke="black" d="M303.16,-143.91C304.52,-123.08 310.29,-88.61 332.89,-72 380.63,-36.91 2238.42,-22.33 2651.89,-19.52"/>
<polygon fill="black" stroke="black" points="2651.99,-23.02 2661.97,-19.45 2651.95,-16.02 2651.99,-23.02"/>
</g>
<!-- :app:androidApp -->
<g id="node3" class="node">
<title>:app:androidApp</title>
<ellipse fill="none" stroke="black" cx="639.89" cy="-234" rx="87.18" ry="18"/>
<text text-anchor="middle" x="639.89" y="-230.3" font-family="Times,serif" font-size="14.00">:app:androidApp</text>
</g>
<!-- :app:shared -->
<g id="node4" class="node">
<title>:app:shared</title>
<ellipse fill="none" stroke="black" cx="3227.89" cy="-162" rx="65.79" ry="18"/>
<text text-anchor="middle" x="3227.89" y="-158.3" font-family="Times,serif" font-size="14.00">:app:shared</text>
</g>
<!-- :app:androidApp&#45;&gt;:app:shared -->
<g id="edge2" class="edge">
<title>:app:androidApp&#45;&gt;:app:shared</title>
<path fill="none" stroke="black" d="M725.63,-230.68C1122.6,-219.94 2778.61,-175.15 3152.61,-165.04"/>
<polygon fill="black" stroke="black" points="3152.87,-168.53 3162.77,-164.76 3152.68,-161.53 3152.87,-168.53"/>
</g>
<!-- :core:data -->
<g id="node5" class="node">
<title>:core:data</title>
<ellipse fill="none" stroke="black" cx="628.89" cy="-162" rx="57.39" ry="18"/>
<text text-anchor="middle" x="628.89" y="-158.3" font-family="Times,serif" font-size="14.00">:core:data</text>
</g>
<!-- :app:androidApp&#45;&gt;:core:data -->
<g id="edge3" class="edge">
<title>:app:androidApp&#45;&gt;:core:data</title>
<path fill="none" stroke="black" d="M637.17,-215.7C635.96,-207.98 634.5,-198.71 633.15,-190.11"/>
<polygon fill="black" stroke="black" points="636.59,-189.44 631.58,-180.1 629.67,-190.53 636.59,-189.44"/>
</g>
<!-- :core:gt7&#45;ps5&#45;data -->
<g id="node6" class="node">
<title>:core:gt7&#45;ps5&#45;data</title>
<ellipse fill="none" stroke="black" cx="458.89" cy="-162" rx="94.78" ry="18"/>
<text text-anchor="middle" x="458.89" y="-158.3" font-family="Times,serif" font-size="14.00">:core:gt7&#45;ps5&#45;data</text>
</g>
<!-- :app:androidApp&#45;&gt;:core:gt7&#45;ps5&#45;data -->
<g id="edge4" class="edge">
<title>:app:androidApp&#45;&gt;:core:gt7&#45;ps5&#45;data</title>
<path fill="none" stroke="black" d="M600.61,-217.81C573.53,-207.33 537.31,-193.33 508.26,-182.09"/>
<polygon fill="black" stroke="black" points="509.3,-178.74 498.71,-178.4 506.78,-185.27 509.3,-178.74"/>
</g>
<!-- :feature:main -->
<g id="node9" class="node">
<title>:feature:main</title>
<ellipse fill="none" stroke="black" cx="1319.89" cy="-90" rx="73.39" ry="18"/>
<text text-anchor="middle" x="1319.89" y="-86.3" font-family="Times,serif" font-size="14.00">:feature:main</text>
</g>
<!-- :app:shared&#45;&gt;:feature:main -->
<g id="edge10" class="edge">
<title>:app:shared&#45;&gt;:feature:main</title>
<path fill="none" stroke="black" d="M3162.23,-160.62C2878.22,-158.72 1753.96,-148.74 1402.89,-108 1396.02,-107.2 1388.87,-106.12 1381.78,-104.9"/>
<polygon fill="black" stroke="black" points="1381.94,-101.37 1371.47,-103 1380.67,-108.25 1381.94,-101.37"/>
</g>
<!-- :feature:lmu&#45;windows&#45;connection -->
<g id="node10" class="node">
<title>:feature:lmu&#45;windows&#45;connection</title>
<ellipse fill="none" stroke="black" cx="1575.89" cy="-90" rx="164.37" ry="18"/>
<text text-anchor="middle" x="1575.89" y="-86.3" font-family="Times,serif" font-size="14.00">:feature:lmu&#45;windows&#45;connection</text>
</g>
<!-- :app:shared&#45;&gt;:feature:lmu&#45;windows&#45;connection -->
<g id="edge11" class="edge">
<title>:app:shared&#45;&gt;:feature:lmu&#45;windows&#45;connection</title>
<path fill="none" stroke="black" d="M3162.26,-160.09C2954.84,-156.89 2294.94,-144.36 1749.89,-108 1733.43,-106.9 1716.12,-105.5 1699.07,-103.98"/>
<polygon fill="black" stroke="black" points="1699.34,-100.49 1689.06,-103.08 1698.7,-107.47 1699.34,-100.49"/>
</g>
<!-- :feature:gt7&#45;ps5&#45;connection -->
<g id="node11" class="node">
<title>:feature:gt7&#45;ps5&#45;connection</title>
<ellipse fill="none" stroke="black" cx="1896.89" cy="-90" rx="138.38" ry="18"/>
<text text-anchor="middle" x="1896.89" y="-86.3" font-family="Times,serif" font-size="14.00">:feature:gt7&#45;ps5&#45;connection</text>
</g>
<!-- :app:shared&#45;&gt;:feature:gt7&#45;ps5&#45;connection -->
<g id="edge12" class="edge">
<title>:app:shared&#45;&gt;:feature:gt7&#45;ps5&#45;connection</title>
<path fill="none" stroke="black" d="M3162.71,-159.67C2983.85,-155.68 2470.39,-141.93 2044.89,-108 2031.3,-106.92 2017.03,-105.56 2002.94,-104.09"/>
<polygon fill="black" stroke="black" points="2003.04,-100.58 1992.73,-102.99 2002.3,-107.54 2003.04,-100.58"/>
</g>
<!-- :feature:server&#45;connection -->
<g id="node12" class="node">
<title>:feature:server&#45;connection</title>
<ellipse fill="none" stroke="black" cx="2186.89" cy="-90" rx="133.48" ry="18"/>
<text text-anchor="middle" x="2186.89" y="-86.3" font-family="Times,serif" font-size="14.00">:feature:server&#45;connection</text>
</g>
<!-- :app:shared&#45;&gt;:feature:server&#45;connection -->
<g id="edge13" class="edge">
<title>:app:shared&#45;&gt;:feature:server&#45;connection</title>
<path fill="none" stroke="black" d="M3163.2,-158.53C3015.26,-152.57 2640.93,-135.85 2328.89,-108 2316.28,-106.87 2303.05,-105.52 2289.96,-104.08"/>
<polygon fill="black" stroke="black" points="2290.32,-100.6 2279.99,-102.96 2289.54,-107.55 2290.32,-100.6"/>
</g>
<!-- :feature:lmu&#45;windows&#45;narrator -->
<g id="node13" class="node">
<title>:feature:lmu&#45;windows&#45;narrator</title>
<ellipse fill="none" stroke="black" cx="6466.89" cy="-90" rx="153.27" ry="18"/>
<text text-anchor="middle" x="6466.89" y="-86.3" font-family="Times,serif" font-size="14.00">:feature:lmu&#45;windows&#45;narrator</text>
</g>
<!-- :app:shared&#45;&gt;:feature:lmu&#45;windows&#45;narrator -->
<g id="edge14" class="edge">
<title>:app:shared&#45;&gt;:feature:lmu&#45;windows&#45;narrator</title>
<path fill="none" stroke="black" d="M3293.49,-160.65C3682.33,-158.43 5688.63,-145.31 6303.89,-108 6319.65,-107.04 6336.23,-105.7 6352.54,-104.19"/>
<polygon fill="black" stroke="black" points="6353.03,-107.66 6362.65,-103.23 6352.37,-100.69 6353.03,-107.66"/>
</g>
<!-- :feature:gt7&#45;ps5&#45;narrator -->
<g id="node14" class="node">
<title>:feature:gt7&#45;ps5&#45;narrator</title>
<ellipse fill="none" stroke="black" cx="6765.89" cy="-90" rx="127.28" ry="18"/>
<text text-anchor="middle" x="6765.89" y="-86.3" font-family="Times,serif" font-size="14.00">:feature:gt7&#45;ps5&#45;narrator</text>
</g>
<!-- :app:shared&#45;&gt;:feature:gt7&#45;ps5&#45;narrator -->
<g id="edge15" class="edge">
<title>:app:shared&#45;&gt;:feature:gt7&#45;ps5&#45;narrator</title>
<path fill="none" stroke="black" d="M3293.61,-160.94C3706.35,-160.45 5945.35,-155.6 6628.89,-108 6641.85,-107.1 6655.45,-105.82 6668.86,-104.36"/>
<polygon fill="black" stroke="black" points="6669.51,-107.8 6679.06,-103.21 6668.73,-100.85 6669.51,-107.8"/>
</g>
<!-- :feature:other&#45;license&#45;detail -->
<g id="node15" class="node">
<title>:feature:other&#45;license&#45;detail</title>
<ellipse fill="none" stroke="black" cx="7050.89" cy="-90" rx="139.98" ry="18"/>
<text text-anchor="middle" x="7050.89" y="-86.3" font-family="Times,serif" font-size="14.00">:feature:other&#45;license&#45;detail</text>
</g>
<!-- :app:shared&#45;&gt;:feature:other&#45;license&#45;detail -->
<g id="edge16" class="edge">
<title>:app:shared&#45;&gt;:feature:other&#45;license&#45;detail</title>
<path fill="none" stroke="black" d="M3293.57,-160.94C3725.14,-160.45 6160.24,-155.54 6901.89,-108 6916.14,-107.09 6931.12,-105.78 6945.87,-104.3"/>
<polygon fill="black" stroke="black" points="6946.44,-107.76 6956.03,-103.25 6945.72,-100.8 6946.44,-107.76"/>
</g>
<!-- :feature:other&#45;list -->
<g id="node16" class="node">
<title>:feature:other&#45;list</title>
<ellipse fill="none" stroke="black" cx="2732.89" cy="-90" rx="92.88" ry="18"/>
<text text-anchor="middle" x="2732.89" y="-86.3" font-family="Times,serif" font-size="14.00">:feature:other&#45;list</text>
</g>
<!-- :app:shared&#45;&gt;:feature:other&#45;list -->
<g id="edge17" class="edge">
<title>:app:shared&#45;&gt;:feature:other&#45;list</title>
<path fill="none" stroke="black" d="M3169.39,-153.74C3092.38,-144.05 2952.8,-126 2833.89,-108 2826.01,-106.81 2817.8,-105.51 2809.62,-104.19"/>
<polygon fill="black" stroke="black" points="2810.1,-100.72 2799.66,-102.56 2808.97,-107.63 2810.1,-100.72"/>
</g>
<!-- :feature:other&#45;server&#45;ip&#45;detail -->
<g id="node17" class="node">
<title>:feature:other&#45;server&#45;ip&#45;detail</title>
<ellipse fill="none" stroke="black" cx="7357.89" cy="-90" rx="148.67" ry="18"/>
<text text-anchor="middle" x="7357.89" y="-86.3" font-family="Times,serif" font-size="14.00">:feature:other&#45;server&#45;ip&#45;detail</text>
</g>
<!-- :app:shared&#45;&gt;:feature:other&#45;server&#45;ip&#45;detail -->
<g id="edge18" class="edge">
<title>:app:shared&#45;&gt;:feature:other&#45;server&#45;ip&#45;detail</title>
<path fill="none" stroke="black" d="M3293.73,-160.97C3745.64,-160.63 6394.9,-156.57 7199.89,-108 7215.02,-107.09 7230.94,-105.78 7246.61,-104.3"/>
<polygon fill="black" stroke="black" points="7247.25,-107.75 7256.86,-103.3 7246.57,-100.78 7247.25,-107.75"/>
</g>
<!-- :feature:other&#45;console&#45;ip&#45;detail -->
<g id="node18" class="node">
<title>:feature:other&#45;console&#45;ip&#45;detail</title>
<ellipse fill="none" stroke="black" cx="3413.89" cy="-90" rx="153.27" ry="18"/>
<text text-anchor="middle" x="3413.89" y="-86.3" font-family="Times,serif" font-size="14.00">:feature:other&#45;console&#45;ip&#45;detail</text>
</g>
<!-- :app:shared&#45;&gt;:feature:other&#45;console&#45;ip&#45;detail -->
<g id="edge19" class="edge">
<title>:app:shared&#45;&gt;:feature:other&#45;console&#45;ip&#45;detail</title>
<path fill="none" stroke="black" d="M3265.08,-147C3292.54,-136.67 3330.29,-122.46 3360.9,-110.94"/>
<polygon fill="black" stroke="black" points="3362.44,-114.1 3370.56,-107.31 3359.97,-107.55 3362.44,-114.1"/>
</g>
<!-- :feature:other&#45;readout&#45;start&#45;sound&#45;detail -->
<g id="node19" class="node">
<title>:feature:other&#45;readout&#45;start&#45;sound&#45;detail</title>
<ellipse fill="none" stroke="black" cx="3042.89" cy="-90" rx="199.56" ry="18"/>
<text text-anchor="middle" x="3042.89" y="-86.3" font-family="Times,serif" font-size="14.00">:feature:other&#45;readout&#45;start&#45;sound&#45;detail</text>
</g>
<!-- :app:shared&#45;&gt;:feature:other&#45;readout&#45;start&#45;sound&#45;detail -->
<g id="edge20" class="edge">
<title>:app:shared&#45;&gt;:feature:other&#45;readout&#45;start&#45;sound&#45;detail</title>
<path fill="none" stroke="black" d="M3190.9,-147C3163.87,-136.78 3126.82,-122.76 3096.55,-111.31"/>
<polygon fill="black" stroke="black" points="3097.58,-107.95 3086.98,-107.68 3095.1,-114.5 3097.58,-107.95"/>
</g>
<!-- :feature:other&#45;volume&#45;detail -->
<g id="node20" class="node">
<title>:feature:other&#45;volume&#45;detail</title>
<ellipse fill="none" stroke="black" cx="3725.89" cy="-90" rx="141.07" ry="18"/>
<text text-anchor="middle" x="3725.89" y="-86.3" font-family="Times,serif" font-size="14.00">:feature:other&#45;volume&#45;detail</text>
</g>
<!-- :app:shared&#45;&gt;:feature:other&#45;volume&#45;detail -->
<g id="edge21" class="edge">
<title>:app:shared&#45;&gt;:feature:other&#45;volume&#45;detail</title>
<path fill="none" stroke="black" d="M3285.02,-152.97C3367.85,-141.33 3522.55,-119.58 3624.89,-105.2"/>
<polygon fill="black" stroke="black" points="3625.52,-108.64 3634.94,-103.78 3624.55,-101.71 3625.52,-108.64"/>
</g>
<!-- :feature:other&#45;keep&#45;screen&#45;on&#45;detail -->
<g id="node21" class="node">
<title>:feature:other&#45;keep&#45;screen&#45;on&#45;detail</title>
<ellipse fill="none" stroke="black" cx="547.89" cy="-90" rx="176.57" ry="18"/>
<text text-anchor="middle" x="547.89" y="-86.3" font-family="Times,serif" font-size="14.00">:feature:other&#45;keep&#45;screen&#45;on&#45;detail</text>
</g>
<!-- :app:shared&#45;&gt;:feature:other&#45;keep&#45;screen&#45;on&#45;detail -->
<g id="edge22" class="edge">
<title>:app:shared&#45;&gt;:feature:other&#45;keep&#45;screen&#45;on&#45;detail</title>
<path fill="none" stroke="black" d="M3161.83,-161.29C2873.62,-162.2 1697.6,-162.21 733.89,-108 715.91,-106.99 696.99,-105.62 678.37,-104.09"/>
<polygon fill="black" stroke="black" points="678.62,-100.6 668.36,-103.25 678.04,-107.57 678.62,-100.6"/>
</g>
<!-- :feature:telemetry&#45;log&#45;list -->
<g id="node22" class="node">
<title>:feature:telemetry&#45;log&#45;list</title>
<ellipse fill="none" stroke="black" cx="872.89" cy="-90" rx="129.98" ry="18"/>
<text text-anchor="middle" x="872.89" y="-86.3" font-family="Times,serif" font-size="14.00">:feature:telemetry&#45;log&#45;list</text>
</g>
<!-- :app:shared&#45;&gt;:feature:telemetry&#45;log&#45;list -->
<g id="edge23" class="edge">
<title>:app:shared&#45;&gt;:feature:telemetry&#45;log&#45;list</title>
<path fill="none" stroke="black" d="M3162.39,-160.3C2842.91,-156.75 1445.96,-139.66 1011.89,-108 998.94,-107.06 985.35,-105.77 971.95,-104.32"/>
<polygon fill="black" stroke="black" points="972.07,-100.81 961.75,-103.18 971.3,-107.77 972.07,-100.81"/>
</g>
<!-- :feature:readout&#45;list -->
<g id="node23" class="node">
<title>:feature:readout&#45;list</title>
<ellipse fill="none" stroke="black" cx="1124.89" cy="-90" rx="103.98" ry="18"/>
<text text-anchor="middle" x="1124.89" y="-86.3" font-family="Times,serif" font-size="14.00">:feature:readout&#45;list</text>
</g>
<!-- :app:shared&#45;&gt;:feature:readout&#45;list -->
<g id="edge24" class="edge">
<title>:app:shared&#45;&gt;:feature:readout&#45;list</title>
<path fill="none" stroke="black" d="M3162.47,-160.34C2863.39,-157.15 1624.33,-142.09 1237.89,-108 1227.71,-107.1 1217.04,-105.88 1206.51,-104.49"/>
<polygon fill="black" stroke="black" points="1206.85,-101.01 1196.46,-103.12 1205.9,-107.94 1206.85,-101.01"/>
</g>
<!-- :feature:lmu&#45;windows&#45;readout&#45;vehicle&#45;approach&#45;detail -->
<g id="node24" class="node">
<title>:feature:lmu&#45;windows&#45;readout&#45;vehicle&#45;approach&#45;detail</title>
<ellipse fill="none" stroke="black" cx="4145.89" cy="-90" rx="260.75" ry="18"/>
<text text-anchor="middle" x="4145.89" y="-86.3" font-family="Times,serif" font-size="14.00">:feature:lmu&#45;windows&#45;readout&#45;vehicle&#45;approach&#45;detail</text>
</g>
<!-- :app:shared&#45;&gt;:feature:lmu&#45;windows&#45;readout&#45;vehicle&#45;approach&#45;detail -->
<g id="edge25" class="edge">
<title>:app:shared&#45;&gt;:feature:lmu&#45;windows&#45;readout&#45;vehicle&#45;approach&#45;detail</title>
<path fill="none" stroke="black" d="M3290.27,-156.24C3427.54,-145.78 3760.11,-120.42 3967.86,-104.57"/>
<polygon fill="black" stroke="black" points="3968.27,-108.05 3977.97,-103.8 3967.73,-101.07 3968.27,-108.05"/>
</g>
<!-- :feature:lmu&#45;windows&#45;readout&#45;flag&#45;detail -->
<g id="node25" class="node">
<title>:feature:lmu&#45;windows&#45;readout&#45;flag&#45;detail</title>
<ellipse fill="none" stroke="black" cx="4623.89" cy="-90" rx="199.56" ry="18"/>
<text text-anchor="middle" x="4623.89" y="-86.3" font-family="Times,serif" font-size="14.00">:feature:lmu&#45;windows&#45;readout&#45;flag&#45;detail</text>
</g>
<!-- :app:shared&#45;&gt;:feature:lmu&#45;windows&#45;readout&#45;flag&#45;detail -->
<g id="edge26" class="edge">
<title>:app:shared&#45;&gt;:feature:lmu&#45;windows&#45;readout&#45;flag&#45;detail</title>
<path fill="none" stroke="black" d="M3292.65,-158.95C3471.53,-153.12 3987.57,-135.05 4415.89,-108 4435.22,-106.78 4455.55,-105.33 4475.62,-103.79"/>
<polygon fill="black" stroke="black" points="4476.06,-107.27 4485.76,-103.01 4475.52,-100.29 4476.06,-107.27"/>
</g>
<!-- :feature:lmu&#45;windows&#45;readout&#45;vehicle&#45;damage&#45;detail -->
<g id="node26" class="node">
<title>:feature:lmu&#45;windows&#45;readout&#45;vehicle&#45;damage&#45;detail</title>
<ellipse fill="none" stroke="black" cx="5095.89" cy="-90" rx="254.55" ry="18"/>
<text text-anchor="middle" x="5095.89" y="-86.3" font-family="Times,serif" font-size="14.00">:feature:lmu&#45;windows&#45;readout&#45;vehicle&#45;damage&#45;detail</text>
</g>
<!-- :app:shared&#45;&gt;:feature:lmu&#45;windows&#45;readout&#45;vehicle&#45;damage&#45;detail -->
<g id="edge27" class="edge">
<title>:app:shared&#45;&gt;:feature:lmu&#45;windows&#45;readout&#45;vehicle&#45;damage&#45;detail</title>
<path fill="none" stroke="black" d="M3293.28,-159.58C3511.58,-154.68 4235.23,-137.18 4832.89,-108 4858.12,-106.77 4884.69,-105.28 4910.86,-103.7"/>
<polygon fill="black" stroke="black" points="4911.1,-107.19 4920.87,-103.09 4910.67,-100.2 4911.1,-107.19"/>
</g>
<!-- :feature:gt7&#45;ps5&#45;readout&#45;my&#45;bestlap&#45;detail -->
<g id="node27" class="node">
<title>:feature:gt7&#45;ps5&#45;readout&#45;my&#45;bestlap&#45;detail</title>
<ellipse fill="none" stroke="black" cx="5576.89" cy="-90" rx="207.96" ry="18"/>
<text text-anchor="middle" x="5576.89" y="-86.3" font-family="Times,serif" font-size="14.00">:feature:gt7&#45;ps5&#45;readout&#45;my&#45;bestlap&#45;detail</text>
</g>
<!-- :app:shared&#45;&gt;:feature:gt7&#45;ps5&#45;readout&#45;my&#45;bestlap&#45;detail -->
<g id="edge28" class="edge">
<title>:app:shared&#45;&gt;:feature:gt7&#45;ps5&#45;readout&#45;my&#45;bestlap&#45;detail</title>
<path fill="none" stroke="black" d="M3293.36,-160.64C3554.31,-158.96 4545.49,-149.99 5359.89,-108 5381,-106.91 5403.24,-105.49 5425.12,-103.93"/>
<polygon fill="black" stroke="black" points="5425.42,-107.41 5435.14,-103.2 5424.91,-100.43 5425.42,-107.41"/>
</g>
<!-- :feature:gt7&#45;ps5&#45;readout&#45;remaining&#45;fuel&#45;laps&#45;detail -->
<g id="node28" class="node">
<title>:feature:gt7&#45;ps5&#45;readout&#45;remaining&#45;fuel&#45;laps&#45;detail</title>
<ellipse fill="none" stroke="black" cx="6048.89" cy="-90" rx="246.16" ry="18"/>
<text text-anchor="middle" x="6048.89" y="-86.3" font-family="Times,serif" font-size="14.00">:feature:gt7&#45;ps5&#45;readout&#45;remaining&#45;fuel&#45;laps&#45;detail</text>
</g>
<!-- :app:shared&#45;&gt;:feature:gt7&#45;ps5&#45;readout&#45;remaining&#45;fuel&#45;laps&#45;detail -->
<g id="edge29" class="edge">
<title>:app:shared&#45;&gt;:feature:gt7&#45;ps5&#45;readout&#45;remaining&#45;fuel&#45;laps&#45;detail</title>
<path fill="none" stroke="black" d="M3293.84,-160.75C3586.8,-159.41 4799.52,-151.39 5793.89,-108 5818.93,-106.91 5845.34,-105.47 5871.3,-103.89"/>
<polygon fill="black" stroke="black" points="5871.84,-107.36 5881.61,-103.25 5871.41,-100.38 5871.84,-107.36"/>
</g>
<!-- :core:data&#45;&gt;:core:domain -->
<g id="edge31" class="edge">
<title>:core:data&#45;&gt;:core:domain</title>
<path fill="none" stroke="black" d="M586.75,-149.65C578.85,-147.66 570.63,-145.69 562.89,-144 470.18,-123.79 295.54,-139.84 361.89,-72 402.79,-30.17 2241,-20.84 2651.97,-19.27"/>
<polygon fill="black" stroke="black" points="2652,-22.77 2661.99,-19.23 2651.97,-15.77 2652,-22.77"/>
</g>
<!-- :core:gt7&#45;ps5&#45;data&#45;&gt;:core:domain -->
<g id="edge32" class="edge">
<title>:core:gt7&#45;ps5&#45;data&#45;&gt;:core:domain</title>
<path fill="none" stroke="black" d="M399.35,-147.84C378.12,-139.97 356.39,-127.53 343.89,-108 335.26,-94.53 332.7,-83.44 343.89,-72 385.13,-29.83 2239.28,-20.76 2652.03,-19.26"/>
<polygon fill="black" stroke="black" points="2652.1,-22.76 2662.09,-19.22 2652.08,-15.76 2652.1,-22.76"/>
</g>
<!-- :app:desktopApp -->
<g id="node7" class="node">
<title>:app:desktopApp</title>
<ellipse fill="none" stroke="black" cx="446.89" cy="-234" rx="88.28" ry="18"/>
<text text-anchor="middle" x="446.89" y="-230.3" font-family="Times,serif" font-size="14.00">:app:desktopApp</text>
</g>
<!-- :app:desktopApp&#45;&gt;:server -->
<g id="edge9" class="edge">
<title>:app:desktopApp&#45;&gt;:server</title>
<path fill="none" stroke="black" d="M414.21,-217.12C391.9,-206.27 362.31,-191.88 339.24,-180.67"/>
<polygon fill="black" stroke="black" points="340.64,-177.46 330.12,-176.24 337.58,-183.76 340.64,-177.46"/>
</g>
<!-- :app:desktopApp&#45;&gt;:app:shared -->
<g id="edge5" class="edge">
<title>:app:desktopApp&#45;&gt;:app:shared</title>
<path fill="none" stroke="black" d="M507.75,-220.86C519.69,-218.9 532.15,-217.14 543.89,-216 1070.1,-165 2771.57,-162.77 3151.98,-162.92"/>
<polygon fill="black" stroke="black" points="3152.05,-166.42 3162.05,-162.93 3152.05,-159.42 3152.05,-166.42"/>
</g>
<!-- :app:desktopApp&#45;&gt;:core:data -->
<g id="edge6" class="edge">
<title>:app:desktopApp&#45;&gt;:core:data</title>
<path fill="none" stroke="black" d="M486.38,-217.81C515.34,-206.67 554.68,-191.54 584.69,-180"/>
<polygon fill="black" stroke="black" points="586.01,-183.24 594.08,-176.39 583.49,-176.71 586.01,-183.24"/>
</g>
<!-- :app:desktopApp&#45;&gt;:core:gt7&#45;ps5&#45;data -->
<g id="edge8" class="edge">
<title>:app:desktopApp&#45;&gt;:core:gt7&#45;ps5&#45;data</title>
<path fill="none" stroke="black" d="M449.86,-215.7C451.18,-207.98 452.77,-198.71 454.24,-190.11"/>
<polygon fill="black" stroke="black" points="457.72,-190.55 455.96,-180.1 450.82,-189.37 457.72,-190.55"/>
</g>
<!-- :core:lmu&#45;windows&#45;data -->
<g id="node8" class="node">
<title>:core:lmu&#45;windows&#45;data</title>
<ellipse fill="none" stroke="black" cx="120.89" cy="-162" rx="120.78" ry="18"/>
<text text-anchor="middle" x="120.89" y="-158.3" font-family="Times,serif" font-size="14.00">:core:lmu&#45;windows&#45;data</text>
</g>
<!-- :app:desktopApp&#45;&gt;:core:lmu&#45;windows&#45;data -->
<g id="edge7" class="edge">
<title>:app:desktopApp&#45;&gt;:core:lmu&#45;windows&#45;data</title>
<path fill="none" stroke="black" d="M388.23,-220.4C334.6,-208.89 254.96,-191.79 196.56,-179.25"/>
<polygon fill="black" stroke="black" points="197.15,-175.8 186.64,-177.12 195.68,-182.64 197.15,-175.8"/>
</g>
<!-- :core:lmu&#45;windows&#45;data&#45;&gt;:core:domain -->
<g id="edge33" class="edge">
<title>:core:lmu&#45;windows&#45;data&#45;&gt;:core:domain</title>
<path fill="none" stroke="black" d="M146.67,-144.27C181.41,-122.78 245.95,-86.53 306.89,-72 538.74,-16.72 2256.52,-17.76 2651.9,-18.74"/>
<polygon fill="black" stroke="black" points="2652.09,-22.24 2662.1,-18.77 2652.11,-15.24 2652.09,-22.24"/>
</g>
<!-- :feature:main&#45;&gt;:core:domain -->
<g id="edge50" class="edge">
<title>:feature:main&#45;&gt;:core:domain</title>
<path fill="none" stroke="black" d="M1371.48,-77.09C1381.83,-75.08 1392.67,-73.24 1402.89,-72 1646.83,-42.36 2403.39,-25.39 2652.47,-20.49"/>
<polygon fill="black" stroke="black" points="2652.6,-23.99 2662.53,-20.3 2652.47,-16.99 2652.6,-23.99"/>
</g>
<!-- :feature:lmu&#45;windows&#45;connection&#45;&gt;:core:domain -->
<g id="edge41" class="edge">
<title>:feature:lmu&#45;windows&#45;connection&#45;&gt;:core:domain</title>
<path fill="none" stroke="black" d="M1690.48,-77.09C1710.28,-75.24 1730.67,-73.46 1749.89,-72 2085.2,-46.59 2485.75,-28.93 2653.19,-22.12"/>
<polygon fill="black" stroke="black" points="2653.55,-25.61 2663.4,-21.71 2653.27,-18.61 2653.55,-25.61"/>
</g>
<!-- :feature:gt7&#45;ps5&#45;connection&#45;&gt;:core:domain -->
<g id="edge34" class="edge">
<title>:feature:gt7&#45;ps5&#45;connection&#45;&gt;:core:domain</title>
<path fill="none" stroke="black" d="M1994.76,-77.23C2011.47,-75.38 2028.67,-73.56 2044.89,-72 2265.78,-50.81 2527.22,-32.54 2654.87,-24.05"/>
<polygon fill="black" stroke="black" points="2655.2,-27.54 2664.95,-23.39 2654.74,-20.56 2655.2,-27.54"/>
</g>
<!-- :feature:server&#45;connection&#45;&gt;:core:domain -->
<g id="edge63" class="edge">
<title>:feature:server&#45;connection&#45;&gt;:core:domain</title>
<path fill="none" stroke="black" d="M2279.82,-77.09C2387.57,-63.27 2562.89,-40.79 2660.85,-28.24"/>
<polygon fill="black" stroke="black" points="2661.47,-31.68 2670.95,-26.94 2660.58,-24.74 2661.47,-31.68"/>
</g>
<!-- :feature:lmu&#45;windows&#45;narrator&#45;&gt;:core:domain -->
<g id="edge42" class="edge">
<title>:feature:lmu&#45;windows&#45;narrator&#45;&gt;:core:domain</title>
<path fill="none" stroke="black" d="M6362.66,-76.73C6343.15,-74.83 6322.92,-73.13 6303.89,-72 5592.12,-29.69 3276.91,-20.62 2813.91,-19.22"/>
<polygon fill="black" stroke="black" points="2813.65,-15.72 2803.64,-19.19 2813.63,-22.72 2813.65,-15.72"/>
</g>
<!-- :core:designsystem -->
<g id="node30" class="node">
<title>:core:designsystem</title>
<ellipse fill="none" stroke="black" cx="5576.89" cy="-18" rx="100.98" ry="18"/>
<text text-anchor="middle" x="5576.89" y="-14.3" font-family="Times,serif" font-size="14.00">:core:designsystem</text>
</g>
<!-- :feature:lmu&#45;windows&#45;narrator&#45;&gt;:core:designsystem -->
<g id="edge43" class="edge">
<title>:feature:lmu&#45;windows&#45;narrator&#45;&gt;:core:designsystem</title>
<path fill="none" stroke="black" d="M6358.65,-77.23C6340.38,-75.39 6321.6,-73.57 6303.89,-72 6082.07,-52.35 5821.69,-34.67 5680.58,-25.54"/>
<polygon fill="black" stroke="black" points="5680.41,-22.02 5670.21,-24.87 5679.96,-29.01 5680.41,-22.02"/>
</g>
<!-- :feature:gt7&#45;ps5&#45;narrator&#45;&gt;:core:domain -->
<g id="edge35" class="edge">
<title>:feature:gt7&#45;ps5&#45;narrator&#45;&gt;:core:domain</title>
<path fill="none" stroke="black" d="M6679.06,-76.77C6662.44,-74.84 6645.15,-73.12 6628.89,-72 6236.17,-45.05 3336.65,-23.29 2813.62,-19.56"/>
<polygon fill="black" stroke="black" points="2813.55,-16.06 2803.52,-19.49 2813.5,-23.06 2813.55,-16.06"/>
</g>
<!-- :feature:gt7&#45;ps5&#45;narrator&#45;&gt;:core:designsystem -->
<g id="edge36" class="edge">
<title>:feature:gt7&#45;ps5&#45;narrator&#45;&gt;:core:designsystem</title>
<path fill="none" stroke="black" d="M6677.19,-77.03C6661.13,-75.14 6644.53,-73.36 6628.89,-72 6285.25,-42.06 5876.88,-27.47 5685.73,-21.86"/>
<polygon fill="black" stroke="black" points="5685.78,-18.36 5675.68,-21.57 5685.57,-25.36 5685.78,-18.36"/>
</g>
<!-- :feature:other&#45;license&#45;detail&#45;&gt;:core:domain -->
<g id="edge54" class="edge">
<title>:feature:other&#45;license&#45;detail&#45;&gt;:core:domain</title>
<path fill="none" stroke="black" d="M6956.03,-76.73C6938.08,-74.82 6919.43,-73.11 6901.89,-72 6480.17,-45.33 3359.17,-23.22 2814.01,-19.54"/>
<polygon fill="black" stroke="black" points="2813.9,-16.04 2803.88,-19.47 2813.86,-23.04 2813.9,-16.04"/>
</g>
<!-- :feature:other&#45;license&#45;detail&#45;&gt;:core:designsystem -->
<g id="edge55" class="edge">
<title>:feature:other&#45;license&#45;detail&#45;&gt;:core:designsystem</title>
<path fill="none" stroke="black" d="M6954.41,-76.94C6936.95,-75.06 6918.89,-73.31 6901.89,-72 6452.02,-37.39 5914.38,-24.71 5687.03,-20.67"/>
<polygon fill="black" stroke="black" points="5686.82,-17.16 5676.76,-20.49 5686.7,-24.16 5686.82,-17.16"/>
</g>
<!-- :feature:other&#45;list&#45;&gt;:core:domain -->
<g id="edge56" class="edge">
<title>:feature:other&#45;list&#45;&gt;:core:domain</title>
<path fill="none" stroke="black" d="M2732.89,-71.7C2732.89,-63.98 2732.89,-54.71 2732.89,-46.11"/>
<polygon fill="black" stroke="black" points="2736.39,-46.1 2732.89,-36.1 2729.39,-46.1 2736.39,-46.1"/>
</g>
<!-- :feature:other&#45;server&#45;ip&#45;detail&#45;&gt;:core:domain -->
<g id="edge58" class="edge">
<title>:feature:other&#45;server&#45;ip&#45;detail&#45;&gt;:core:domain</title>
<path fill="none" stroke="black" d="M7257.29,-76.72C7238.25,-74.81 7218.48,-73.11 7199.89,-72 6746.38,-44.97 3380.89,-23.02 2813.88,-19.49"/>
<polygon fill="black" stroke="black" points="2813.77,-15.99 2803.75,-19.43 2813.73,-22.99 2813.77,-15.99"/>
</g>
<!-- :feature:other&#45;server&#45;ip&#45;detail&#45;&gt;:core:designsystem -->
<g id="edge59" class="edge">
<title>:feature:other&#45;server&#45;ip&#45;detail&#45;&gt;:core:designsystem</title>
<path fill="none" stroke="black" d="M7255.57,-76.87C7237.06,-74.99 7217.92,-73.26 7199.89,-72 6632,-32.23 5950.21,-22.23 5687.52,-19.77"/>
<polygon fill="black" stroke="black" points="5687.25,-16.27 5677.22,-19.68 5687.19,-23.27 5687.25,-16.27"/>
</g>
<!-- :feature:other&#45;console&#45;ip&#45;detail&#45;&gt;:core:domain -->
<g id="edge51" class="edge">
<title>:feature:other&#45;console&#45;ip&#45;detail&#45;&gt;:core:domain</title>
<path fill="none" stroke="black" d="M3303.66,-77.39C3286.33,-75.58 3268.63,-73.73 3251.89,-72 3093.8,-55.63 2908.59,-36.8 2807.72,-26.58"/>
<polygon fill="black" stroke="black" points="2807.93,-23.08 2797.62,-25.55 2807.22,-30.04 2807.93,-23.08"/>
</g>
<!-- :feature:other&#45;console&#45;ip&#45;detail&#45;&gt;:core:designsystem -->
<g id="edge52" class="edge">
<title>:feature:other&#45;console&#45;ip&#45;detail&#45;&gt;:core:designsystem</title>
<path fill="none" stroke="black" d="M3518.8,-76.78C3537.78,-74.92 3557.41,-73.21 3575.89,-72 4295.29,-24.8 5162.8,-19.29 5465.93,-18.9"/>
<polygon fill="black" stroke="black" points="5466.04,-22.4 5476.04,-18.89 5466.03,-15.4 5466.04,-22.4"/>
</g>
<!-- :feature:other&#45;readout&#45;start&#45;sound&#45;detail&#45;&gt;:core:domain -->
<g id="edge57" class="edge">
<title>:feature:other&#45;readout&#45;start&#45;sound&#45;detail&#45;&gt;:core:domain</title>
<path fill="none" stroke="black" d="M2972.55,-73.12C2918.79,-60.98 2845.43,-44.41 2794.08,-32.82"/>
<polygon fill="black" stroke="black" points="2794.65,-29.36 2784.12,-30.57 2793.1,-36.19 2794.65,-29.36"/>
</g>
<!-- :feature:other&#45;volume&#45;detail&#45;&gt;:core:domain -->
<g id="edge60" class="edge">
<title>:feature:other&#45;volume&#45;detail&#45;&gt;:core:domain</title>
<path fill="none" stroke="black" d="M3627.12,-77.09C3610.05,-75.24 3592.47,-73.46 3575.89,-72 3295.29,-47.29 2961.17,-29.82 2811.82,-22.64"/>
<polygon fill="black" stroke="black" points="2811.98,-19.14 2801.82,-22.16 2811.64,-26.14 2811.98,-19.14"/>
</g>
<!-- :feature:other&#45;volume&#45;detail&#45;&gt;:core:designsystem -->
<g id="edge61" class="edge">
<title>:feature:other&#45;volume&#45;detail&#45;&gt;:core:designsystem</title>
<path fill="none" stroke="black" d="M3822.61,-76.86C3840.31,-74.98 3858.64,-73.24 3875.89,-72 4474.52,-28.82 5194.16,-20.8 5465.83,-19.32"/>
<polygon fill="black" stroke="black" points="5466.11,-22.82 5476.09,-19.27 5466.07,-15.82 5466.11,-22.82"/>
</g>
<!-- :feature:other&#45;keep&#45;screen&#45;on&#45;detail&#45;&gt;:core:domain -->
<g id="edge53" class="edge">
<title>:feature:other&#45;keep&#45;screen&#45;on&#45;detail&#45;&gt;:core:domain</title>
<path fill="none" stroke="black" d="M668.87,-76.8C690.5,-74.95 712.85,-73.24 733.89,-72 1478.11,-28.17 2380.34,-20.58 2651.84,-19.27"/>
<polygon fill="black" stroke="black" points="2652.01,-22.77 2662,-19.22 2651.98,-15.77 2652.01,-22.77"/>
</g>
<!-- :feature:telemetry&#45;log&#45;list&#45;&gt;:core:domain -->
<g id="edge65" class="edge">
<title>:feature:telemetry&#45;log&#45;list&#45;&gt;:core:domain</title>
<path fill="none" stroke="black" d="M962.12,-76.87C978.64,-74.97 995.77,-73.23 1011.89,-72 1641.8,-23.88 2404.58,-19.09 2651.54,-18.88"/>
<polygon fill="black" stroke="black" points="2651.87,-22.38 2661.86,-18.88 2651.86,-15.38 2651.87,-22.38"/>
</g>
<!-- :feature:readout&#45;list&#45;&gt;:core:domain -->
<g id="edge62" class="edge">
<title>:feature:readout&#45;list&#45;&gt;:core:domain</title>
<path fill="none" stroke="black" d="M1196.78,-76.93C1210.4,-75 1224.56,-73.24 1237.89,-72 1775.92,-22.15 2426.86,-18.32 2651.82,-18.64"/>
<polygon fill="black" stroke="black" points="2651.89,-22.14 2661.89,-18.65 2651.9,-15.14 2651.89,-22.14"/>
</g>
<!-- :feature:lmu&#45;windows&#45;readout&#45;vehicle&#45;approach&#45;detail&#45;&gt;:core:domain -->
<g id="edge46" class="edge">
<title>:feature:lmu&#45;windows&#45;readout&#45;vehicle&#45;approach&#45;detail&#45;&gt;:core:domain</title>
<path fill="none" stroke="black" d="M3963.64,-77.11C3934.3,-75.32 3904.26,-73.55 3875.89,-72 3476.56,-50.17 2998.44,-29.9 2812.4,-22.23"/>
<polygon fill="black" stroke="black" points="2812.3,-18.73 2802.16,-21.81 2812.01,-25.72 2812.3,-18.73"/>
</g>
<!-- :feature:lmu&#45;windows&#45;readout&#45;vehicle&#45;approach&#45;detail&#45;&gt;:core:designsystem -->
<g id="edge47" class="edge">
<title>:feature:lmu&#45;windows&#45;readout&#45;vehicle&#45;approach&#45;detail&#45;&gt;:core:designsystem</title>
<path fill="none" stroke="black" d="M4327.82,-77.07C4356.94,-75.28 4386.74,-73.53 4414.89,-72 4803.06,-50.88 5264.49,-31.56 5469.52,-23.27"/>
<polygon fill="black" stroke="black" points="5469.84,-26.76 5479.69,-22.86 5469.55,-19.76 5469.84,-26.76"/>
</g>
<!-- :feature:lmu&#45;windows&#45;readout&#45;flag&#45;detail&#45;&gt;:core:domain -->
<g id="edge44" class="edge">
<title>:feature:lmu&#45;windows&#45;readout&#45;flag&#45;detail&#45;&gt;:core:domain</title>
<path fill="none" stroke="black" d="M4487.18,-76.84C4463.42,-75.01 4438.95,-73.3 4415.89,-72 3800.14,-37.16 3056.27,-23.75 2813.63,-20.11"/>
<polygon fill="black" stroke="black" points="2813.54,-16.61 2803.49,-19.96 2813.44,-23.61 2813.54,-16.61"/>
</g>
<!-- :feature:lmu&#45;windows&#45;readout&#45;flag&#45;detail&#45;&gt;:core:designsystem -->
<g id="edge45" class="edge">
<title>:feature:lmu&#45;windows&#45;readout&#45;flag&#45;detail&#45;&gt;:core:designsystem</title>
<path fill="none" stroke="black" d="M4765.13,-77.25C4787.46,-75.46 4810.3,-73.65 4831.89,-72 5061.37,-54.46 5330.76,-35.77 5474.41,-25.95"/>
<polygon fill="black" stroke="black" points="5474.79,-29.43 5484.53,-25.26 5474.32,-22.45 5474.79,-29.43"/>
</g>
<!-- :feature:lmu&#45;windows&#45;readout&#45;vehicle&#45;damage&#45;detail&#45;&gt;:core:domain -->
<g id="edge48" class="edge">
<title>:feature:lmu&#45;windows&#45;readout&#45;vehicle&#45;damage&#45;detail&#45;&gt;:core:domain</title>
<path fill="none" stroke="black" d="M4922.29,-76.81C4892.48,-74.99 4861.8,-73.3 4832.89,-72 4046.54,-36.68 3093.42,-23.24 2813.69,-19.9"/>
<polygon fill="black" stroke="black" points="2813.67,-16.4 2803.63,-19.78 2813.58,-23.4 2813.67,-16.4"/>
</g>
<!-- :feature:lmu&#45;windows&#45;readout&#45;vehicle&#45;damage&#45;detail&#45;&gt;:core:designsystem -->
<g id="edge49" class="edge">
<title>:feature:lmu&#45;windows&#45;readout&#45;vehicle&#45;damage&#45;detail&#45;&gt;:core:designsystem</title>
<path fill="none" stroke="black" d="M5201.74,-73.59C5288.75,-60.93 5410.44,-43.22 5491.36,-31.45"/>
<polygon fill="black" stroke="black" points="5492.12,-34.87 5501.51,-29.97 5491.11,-27.95 5492.12,-34.87"/>
</g>
<!-- :feature:gt7&#45;ps5&#45;readout&#45;my&#45;bestlap&#45;detail&#45;&gt;:core:domain -->
<g id="edge37" class="edge">
<title>:feature:gt7&#45;ps5&#45;readout&#45;my&#45;bestlap&#45;detail&#45;&gt;:core:domain</title>
<path fill="none" stroke="black" d="M5435.72,-76.75C5410.49,-74.9 5384.42,-73.21 5359.89,-72 4356.75,-22.63 3135.97,-18.98 2813.91,-18.92"/>
<polygon fill="black" stroke="black" points="2813.74,-15.42 2803.73,-18.92 2813.73,-22.42 2813.74,-15.42"/>
</g>
<!-- :feature:gt7&#45;ps5&#45;readout&#45;my&#45;bestlap&#45;detail&#45;&gt;:core:designsystem -->
<g id="edge38" class="edge">
<title>:feature:gt7&#45;ps5&#45;readout&#45;my&#45;bestlap&#45;detail&#45;&gt;:core:designsystem</title>
<path fill="none" stroke="black" d="M5576.89,-71.7C5576.89,-63.98 5576.89,-54.71 5576.89,-46.11"/>
<polygon fill="black" stroke="black" points="5580.39,-46.1 5576.89,-36.1 5573.39,-46.1 5580.39,-46.1"/>
</g>
<!-- :feature:gt7&#45;ps5&#45;readout&#45;remaining&#45;fuel&#45;laps&#45;detail&#45;&gt;:core:domain -->
<g id="edge39" class="edge">
<title>:feature:gt7&#45;ps5&#45;readout&#45;remaining&#45;fuel&#45;laps&#45;detail&#45;&gt;:core:domain</title>
<path fill="none" stroke="black" d="M5882.29,-76.71C5852.85,-74.87 5822.48,-73.2 5793.89,-72 4610.4,-22.33 3167.64,-18.98 2813.98,-18.94"/>
<polygon fill="black" stroke="black" points="2813.83,-15.44 2803.83,-18.94 2813.83,-22.44 2813.83,-15.44"/>
</g>
<!-- :feature:gt7&#45;ps5&#45;readout&#45;remaining&#45;fuel&#45;laps&#45;detail&#45;&gt;:core:designsystem -->
<g id="edge40" class="edge">
<title>:feature:gt7&#45;ps5&#45;readout&#45;remaining&#45;fuel&#45;laps&#45;detail&#45;&gt;:core:designsystem</title>
<path fill="none" stroke="black" d="M5945.31,-73.64C5860.21,-61.02 5741.15,-43.36 5661.65,-31.57"/>
<polygon fill="black" stroke="black" points="5662.08,-28.1 5651.67,-30.09 5661.05,-35.02 5662.08,-28.1"/>
</g>
<!-- :app:webApp -->
<g id="node29" class="node">
<title>:app:webApp</title>
<ellipse fill="none" stroke="black" cx="3227.89" cy="-234" rx="70.69" ry="18"/>
<text text-anchor="middle" x="3227.89" y="-230.3" font-family="Times,serif" font-size="14.00">:app:webApp</text>
</g>
<!-- :app:webApp&#45;&gt;:app:shared -->
<g id="edge30" class="edge">
<title>:app:webApp&#45;&gt;:app:shared</title>
<path fill="none" stroke="black" d="M3227.89,-215.7C3227.89,-207.98 3227.89,-198.71 3227.89,-190.11"/>
<polygon fill="black" stroke="black" points="3231.39,-190.1 3227.89,-180.1 3224.39,-190.1 3231.39,-190.1"/>
</g>
<!-- :feature:telemetry&#45;log&#45;detail -->
<g id="node31" class="node">
<title>:feature:telemetry&#45;log&#45;detail</title>
<ellipse fill="none" stroke="black" cx="2479.89" cy="-90" rx="141.88" ry="18"/>
<text text-anchor="middle" x="2479.89" y="-86.3" font-family="Times,serif" font-size="14.00">:feature:telemetry&#45;log&#45;detail</text>
</g>
<!-- :feature:telemetry&#45;log&#45;detail&#45;&gt;:core:domain -->
<g id="edge64" class="edge">
<title>:feature:telemetry&#45;log&#45;detail&#45;&gt;:core:domain</title>
<path fill="none" stroke="black" d="M2536.04,-73.46C2577.95,-61.87 2634.98,-46.09 2676.86,-34.5"/>
<polygon fill="black" stroke="black" points="2677.92,-37.84 2686.63,-31.8 2676.06,-31.09 2677.92,-37.84"/>
</g>
</g>
</svg>
