<?xml version="1.0" encoding="UTF-8" standalone="no"?>
<!DOCTYPE svg PUBLIC "-//W3C//DTD SVG 1.1//EN"
 "http://www.w3.org/Graphics/SVG/1.1/DTD/svg11.dtd">
<!-- Generated by graphviz version 2.43.0 (0)
 -->
<!-- Title: G Pages: 1 -->
<svg width="482pt" height="116pt"
 viewBox="0.00 0.00 481.94 116.00" xmlns="http://www.w3.org/2000/svg" xmlns:xlink="http://www.w3.org/1999/xlink">
<g id="graph0" class="graph" transform="scale(1 1) rotate(0) translate(4 112)">
<title>G</title>
<polygon fill="white" stroke="transparent" points="-4,4 -4,-112 477.94,-112 477.94,4 -4,4"/>
<!-- :server -->
<g id="node1" class="node">
<title>:server</title>
<ellipse fill="none" stroke="black" cx="43.55" cy="-90" rx="43.59" ry="18"/>
<text text-anchor="middle" x="43.55" y="-86.3" font-family="Times,serif" font-size="14.00">:server</text>
</g>
<!-- :core -->
<g id="node2" class="node">
<title>:core</title>
<ellipse fill="none" stroke="black" cx="43.55" cy="-18" rx="33.6" ry="18"/>
<text text-anchor="middle" x="43.55" y="-14.3" font-family="Times,serif" font-size="14.00">:core</text>
</g>
<!-- :server&#45;&gt;:core -->
<g id="edge1" class="edge">
<title>:server&#45;&gt;:core</title>
<path fill="none" stroke="black" d="M43.55,-71.7C43.55,-63.98 43.55,-54.71 43.55,-46.11"/>
<polygon fill="black" stroke="black" points="47.05,-46.1 43.55,-36.1 40.05,-46.1 47.05,-46.1"/>
</g>
<!-- :app:androidApp -->
<g id="node3" class="node">
<title>:app:androidApp</title>
<ellipse fill="none" stroke="black" cx="192.55" cy="-90" rx="87.18" ry="18"/>
<text text-anchor="middle" x="192.55" y="-86.3" font-family="Times,serif" font-size="14.00">:app:androidApp</text>
</g>
<!-- :app:shared -->
<g id="node4" class="node">
<title>:app:shared</title>
<ellipse fill="none" stroke="black" cx="288.55" cy="-18" rx="65.79" ry="18"/>
<text text-anchor="middle" x="288.55" y="-14.3" font-family="Times,serif" font-size="14.00">:app:shared</text>
</g>
<!-- :app:androidApp&#45;&gt;:app:shared -->
<g id="edge2" class="edge">
<title>:app:androidApp&#45;&gt;:app:shared</title>
<path fill="none" stroke="black" d="M215.3,-72.41C228.15,-63.04 244.39,-51.2 258.31,-41.05"/>
<polygon fill="black" stroke="black" points="260.6,-43.71 266.62,-34.99 256.48,-38.05 260.6,-43.71"/>
</g>
<!-- :app:desktopApp -->
<g id="node5" class="node">
<title>:app:desktopApp</title>
<ellipse fill="none" stroke="black" cx="385.55" cy="-90" rx="88.28" ry="18"/>
<text text-anchor="middle" x="385.55" y="-86.3" font-family="Times,serif" font-size="14.00">:app:desktopApp</text>
</g>
<!-- :app:desktopApp&#45;&gt;:app:shared -->
<g id="edge3" class="edge">
<title>:app:desktopApp&#45;&gt;:app:shared</title>
<path fill="none" stroke="red" stroke-width="2" d="M362.56,-72.41C349.57,-63.04 333.16,-51.2 319.1,-41.05"/>
<polygon fill="red" stroke="red" stroke-width="2" points="320.86,-38 310.7,-34.99 316.76,-43.68 320.86,-38"/>
</g>
</g>
</svg>
