<?xml version="1.0" encoding="UTF-8" standalone="no"?>
<!DOCTYPE svg PUBLIC "-//W3C//DTD SVG 1.1//EN"
 "http://www.w3.org/Graphics/SVG/1.1/DTD/svg11.dtd">
<!-- Generated by graphviz version 2.43.0 (0)
 -->
<!-- Title: G Pages: 1 -->
<svg width="2814pt" height="260pt"
 viewBox="0.00 0.00 2814.36 260.00" xmlns="http://www.w3.org/2000/svg" xmlns:xlink="http://www.w3.org/1999/xlink">
<g id="graph0" class="graph" transform="scale(1 1) rotate(0) translate(4 256)">
<title>G</title>
<polygon fill="white" stroke="transparent" points="-4,4 -4,-256 2810.36,-256 2810.36,4 -4,4"/>
<!-- :server -->
<g id="node1" class="node">
<title>:server</title>
<ellipse fill="none" stroke="black" cx="2462.99" cy="-90" rx="43.59" ry="18"/>
<text text-anchor="middle" x="2462.99" y="-86.3" font-family="Times,serif" font-size="14.00">:server</text>
</g>
<!-- :core:domain -->
<g id="node2" class="node">
<title>:core:domain</title>
<ellipse fill="none" stroke="black" cx="1973.99" cy="-18" rx="70.69" ry="18"/>
<text text-anchor="middle" x="1973.99" y="-14.3" font-family="Times,serif" font-size="14.00">:core:domain</text>
</g>
<!-- :server&#45;&gt;:core:domain -->
<g id="edge1" class="edge">
<title>:server&#45;&gt;:core:domain</title>
<path fill="none" stroke="black" d="M2431.02,-77.67C2424.15,-75.54 2416.88,-73.51 2409.99,-72 2286.39,-44.92 2139.85,-30.68 2052.02,-24.01"/>
<polygon fill="black" stroke="black" points="2052.11,-20.51 2041.87,-23.25 2051.59,-27.49 2052.11,-20.51"/>
</g>
<!-- :app:androidApp -->
<g id="node3" class="node">
<title>:app:androidApp</title>
<ellipse fill="none" stroke="black" cx="2169.99" cy="-234" rx="87.18" ry="18"/>
<text text-anchor="middle" x="2169.99" y="-230.3" font-family="Times,serif" font-size="14.00">:app:androidApp</text>
</g>
<!-- :app:shared -->
<g id="node4" class="node">
<title>:app:shared</title>
<ellipse fill="none" stroke="black" cx="1865.99" cy="-162" rx="65.79" ry="18"/>
<text text-anchor="middle" x="1865.99" y="-158.3" font-family="Times,serif" font-size="14.00">:app:shared</text>
</g>
<!-- :app:androidApp&#45;&gt;:app:shared -->
<g id="edge2" class="edge">
<title>:app:androidApp&#45;&gt;:app:shared</title>
<path fill="none" stroke="black" d="M2114.23,-220.16C2060.49,-207.79 1979.5,-189.14 1924.77,-176.54"/>
<polygon fill="black" stroke="black" points="1925.4,-173.09 1914.87,-174.26 1923.83,-179.91 1925.4,-173.09"/>
</g>
<!-- :core:data -->
<g id="node5" class="node">
<title>:core:data</title>
<ellipse fill="none" stroke="black" cx="2618.99" cy="-162" rx="57.39" ry="18"/>
<text text-anchor="middle" x="2618.99" y="-158.3" font-family="Times,serif" font-size="14.00">:core:data</text>
</g>
<!-- :app:androidApp&#45;&gt;:core:data -->
<g id="edge3" class="edge">
<title>:app:androidApp&#45;&gt;:core:data</title>
<path fill="none" stroke="black" d="M2237.21,-222.52C2324.45,-208.92 2475.38,-185.39 2558.95,-172.36"/>
<polygon fill="black" stroke="black" points="2559.71,-175.78 2569.05,-170.79 2558.63,-168.87 2559.71,-175.78"/>
</g>
<!-- :feature:lmu&#45;connection -->
<g id="node7" class="node">
<title>:feature:lmu&#45;connection</title>
<ellipse fill="none" stroke="black" cx="2644.99" cy="-90" rx="120.78" ry="18"/>
<text text-anchor="middle" x="2644.99" y="-86.3" font-family="Times,serif" font-size="14.00">:feature:lmu&#45;connection</text>
</g>
<!-- :app:shared&#45;&gt;:feature:lmu&#45;connection -->
<g id="edge7" class="edge">
<title>:app:shared&#45;&gt;:feature:lmu&#45;connection</title>
<path fill="none" stroke="black" d="M1929.29,-156.89C2045.63,-149.09 2301.23,-130.89 2515.99,-108 2526.93,-106.83 2538.38,-105.49 2549.75,-104.09"/>
<polygon fill="black" stroke="black" points="2550.22,-107.56 2559.71,-102.85 2549.35,-100.62 2550.22,-107.56"/>
</g>
<!-- :feature:lmu&#45;narrator -->
<g id="node8" class="node">
<title>:feature:lmu&#45;narrator</title>
<ellipse fill="none" stroke="black" cx="1633.99" cy="-90" rx="109.68" ry="18"/>
<text text-anchor="middle" x="1633.99" y="-86.3" font-family="Times,serif" font-size="14.00">:feature:lmu&#45;narrator</text>
</g>
<!-- :app:shared&#45;&gt;:feature:lmu&#45;narrator -->
<g id="edge8" class="edge">
<title>:app:shared&#45;&gt;:feature:lmu&#45;narrator</title>
<path fill="none" stroke="black" d="M1823.43,-148.16C1787.06,-137.19 1734.31,-121.27 1693.71,-109.02"/>
<polygon fill="black" stroke="black" points="1694.51,-105.61 1683.93,-106.07 1692.49,-112.31 1694.51,-105.61"/>
</g>
<!-- :feature:other&#45;detail -->
<g id="node9" class="node">
<title>:feature:other&#45;detail</title>
<ellipse fill="none" stroke="black" cx="1865.99" cy="-90" rx="104.78" ry="18"/>
<text text-anchor="middle" x="1865.99" y="-86.3" font-family="Times,serif" font-size="14.00">:feature:other&#45;detail</text>
</g>
<!-- :app:shared&#45;&gt;:feature:other&#45;detail -->
<g id="edge9" class="edge">
<title>:app:shared&#45;&gt;:feature:other&#45;detail</title>
<path fill="none" stroke="black" d="M1865.99,-143.7C1865.99,-135.98 1865.99,-126.71 1865.99,-118.11"/>
<polygon fill="black" stroke="black" points="1869.49,-118.1 1865.99,-108.1 1862.49,-118.1 1869.49,-118.1"/>
</g>
<!-- :feature:other&#45;list -->
<g id="node10" class="node">
<title>:feature:other&#45;list</title>
<ellipse fill="none" stroke="black" cx="2081.99" cy="-90" rx="92.88" ry="18"/>
<text text-anchor="middle" x="2081.99" y="-86.3" font-family="Times,serif" font-size="14.00">:feature:other&#45;list</text>
</g>
<!-- :app:shared&#45;&gt;:feature:other&#45;list -->
<g id="edge10" class="edge">
<title>:app:shared&#45;&gt;:feature:other&#45;list</title>
<path fill="none" stroke="black" d="M1906.61,-147.83C1940.49,-136.85 1989.1,-121.1 2026.55,-108.97"/>
<polygon fill="black" stroke="black" points="2027.87,-112.22 2036.31,-105.8 2025.71,-105.56 2027.87,-112.22"/>
</g>
<!-- :feature:other&#45;volume&#45;detail -->
<g id="node11" class="node">
<title>:feature:other&#45;volume&#45;detail</title>
<ellipse fill="none" stroke="black" cx="910.99" cy="-90" rx="141.07" ry="18"/>
<text text-anchor="middle" x="910.99" y="-86.3" font-family="Times,serif" font-size="14.00">:feature:other&#45;volume&#45;detail</text>
</g>
<!-- :app:shared&#45;&gt;:feature:other&#45;volume&#45;detail -->
<g id="edge11" class="edge">
<title>:app:shared&#45;&gt;:feature:other&#45;volume&#45;detail</title>
<path fill="none" stroke="black" d="M1801.99,-157.81C1665.61,-150.8 1336.33,-132.65 1060.99,-108 1047.65,-106.81 1033.66,-105.41 1019.81,-103.94"/>
<polygon fill="black" stroke="black" points="1020.08,-100.45 1009.76,-102.86 1019.33,-107.41 1020.08,-100.45"/>
</g>
<!-- :feature:readout&#45;list -->
<g id="node12" class="node">
<title>:feature:readout&#45;list</title>
<ellipse fill="none" stroke="black" cx="2296.99" cy="-90" rx="103.98" ry="18"/>
<text text-anchor="middle" x="2296.99" y="-86.3" font-family="Times,serif" font-size="14.00">:feature:readout&#45;list</text>
</g>
<!-- :app:shared&#45;&gt;:feature:readout&#45;list -->
<g id="edge12" class="edge">
<title>:app:shared&#45;&gt;:feature:readout&#45;list</title>
<path fill="none" stroke="black" d="M1921.01,-152.06C1995.12,-140.03 2127.65,-118.5 2213.92,-104.49"/>
<polygon fill="black" stroke="black" points="2214.64,-107.92 2223.95,-102.86 2213.52,-101.01 2214.64,-107.92"/>
</g>
<!-- :feature:lmu&#45;readout&#45;vehicle&#45;approach&#45;detail -->
<g id="node13" class="node">
<title>:feature:lmu&#45;readout&#45;vehicle&#45;approach&#45;detail</title>
<ellipse fill="none" stroke="black" cx="1287.99" cy="-90" rx="217.96" ry="18"/>
<text text-anchor="middle" x="1287.99" y="-86.3" font-family="Times,serif" font-size="14.00">:feature:lmu&#45;readout&#45;vehicle&#45;approach&#45;detail</text>
</g>
<!-- :app:shared&#45;&gt;:feature:lmu&#45;readout&#45;vehicle&#45;approach&#45;detail -->
<g id="edge13" class="edge">
<title>:app:shared&#45;&gt;:feature:lmu&#45;readout&#45;vehicle&#45;approach&#45;detail</title>
<path fill="none" stroke="black" d="M1807.12,-153.87C1715.65,-142.79 1537.27,-121.19 1415.39,-106.43"/>
<polygon fill="black" stroke="black" points="1415.6,-102.93 1405.25,-105.2 1414.76,-109.88 1415.6,-102.93"/>
</g>
<!-- :feature:lmu&#45;readout&#45;flag&#45;detail -->
<g id="node14" class="node">
<title>:feature:lmu&#45;readout&#45;flag&#45;detail</title>
<ellipse fill="none" stroke="black" cx="155.99" cy="-90" rx="155.97" ry="18"/>
<text text-anchor="middle" x="155.99" y="-86.3" font-family="Times,serif" font-size="14.00">:feature:lmu&#45;readout&#45;flag&#45;detail</text>
</g>
<!-- :app:shared&#45;&gt;:feature:lmu&#45;readout&#45;flag&#45;detail -->
<g id="edge14" class="edge">
<title>:app:shared&#45;&gt;:feature:lmu&#45;readout&#45;flag&#45;detail</title>
<path fill="none" stroke="black" d="M1800.4,-160.35C1587.01,-157.91 893.32,-147.25 320.99,-108 305.67,-106.95 289.57,-105.6 273.69,-104.12"/>
<polygon fill="black" stroke="black" points="273.58,-100.59 263.29,-103.13 272.91,-107.56 273.58,-100.59"/>
</g>
<!-- :feature:lmu&#45;readout&#45;vehicle&#45;damage&#45;detail -->
<g id="node15" class="node">
<title>:feature:lmu&#45;readout&#45;vehicle&#45;damage&#45;detail</title>
<ellipse fill="none" stroke="black" cx="540.99" cy="-90" rx="211.46" ry="18"/>
<text text-anchor="middle" x="540.99" y="-86.3" font-family="Times,serif" font-size="14.00">:feature:lmu&#45;readout&#45;vehicle&#45;damage&#45;detail</text>
</g>
<!-- :app:shared&#45;&gt;:feature:lmu&#45;readout&#45;vehicle&#45;damage&#45;detail -->
<g id="edge15" class="edge">
<title>:app:shared&#45;&gt;:feature:lmu&#45;readout&#45;vehicle&#45;damage&#45;detail</title>
<path fill="none" stroke="black" d="M1801.49,-158.57C1631.32,-152 1156.1,-132.74 760.99,-108 740.6,-106.72 719.17,-105.24 698.01,-103.7"/>
<polygon fill="black" stroke="black" points="698.21,-100.2 687.98,-102.96 697.7,-107.18 698.21,-100.2"/>
</g>
<!-- :core:data&#45;&gt;:core:domain -->
<g id="edge17" class="edge">
<title>:core:data&#45;&gt;:core:domain</title>
<path fill="none" stroke="black" d="M2666.65,-151.98C2725.19,-138.95 2812.38,-111.95 2774.99,-72 2726.54,-20.24 2249.04,-17.28 2055.16,-18.24"/>
<polygon fill="black" stroke="black" points="2055.01,-14.74 2045.03,-18.3 2055.05,-21.74 2055.01,-14.74"/>
</g>
<!-- :app:desktopApp -->
<g id="node6" class="node">
<title>:app:desktopApp</title>
<ellipse fill="none" stroke="black" cx="2618.99" cy="-234" rx="88.28" ry="18"/>
<text text-anchor="middle" x="2618.99" y="-230.3" font-family="Times,serif" font-size="14.00">:app:desktopApp</text>
</g>
<!-- :app:desktopApp&#45;&gt;:core:domain -->
<g id="edge6" class="edge">
<title>:app:desktopApp&#45;&gt;:core:domain</title>
<path fill="none" stroke="black" d="M2658.38,-217.79C2724.71,-190.1 2846.46,-129.05 2792.99,-72 2767.96,-45.31 2255.72,-27.33 2054.31,-21.26"/>
<polygon fill="black" stroke="black" points="2054.19,-17.76 2044.09,-20.96 2053.98,-24.75 2054.19,-17.76"/>
</g>
<!-- :app:desktopApp&#45;&gt;:app:shared -->
<g id="edge4" class="edge">
<title>:app:desktopApp&#45;&gt;:app:shared</title>
<path fill="none" stroke="black" d="M2540.53,-225.71C2393.54,-212.04 2078.76,-182.78 1937.35,-169.63"/>
<polygon fill="black" stroke="black" points="1937.35,-166.12 1927.07,-168.68 1936.7,-173.09 1937.35,-166.12"/>
</g>
<!-- :app:desktopApp&#45;&gt;:core:data -->
<g id="edge5" class="edge">
<title>:app:desktopApp&#45;&gt;:core:data</title>
<path fill="none" stroke="black" d="M2618.99,-215.7C2618.99,-207.98 2618.99,-198.71 2618.99,-190.11"/>
<polygon fill="black" stroke="black" points="2622.49,-190.1 2618.99,-180.1 2615.49,-190.1 2622.49,-190.1"/>
</g>
<!-- :feature:lmu&#45;connection&#45;&gt;:core:domain -->
<g id="edge18" class="edge">
<title>:feature:lmu&#45;connection&#45;&gt;:core:domain</title>
<path fill="none" stroke="black" d="M2558.99,-77.26C2544.64,-75.42 2529.9,-73.6 2515.99,-72 2350.09,-52.96 2155.12,-34.97 2050.16,-25.64"/>
<polygon fill="black" stroke="black" points="2050.24,-22.13 2039.97,-24.73 2049.63,-29.1 2050.24,-22.13"/>
</g>
<!-- :feature:lmu&#45;narrator&#45;&gt;:core:domain -->
<g id="edge19" class="edge">
<title>:feature:lmu&#45;narrator&#45;&gt;:core:domain</title>
<path fill="none" stroke="black" d="M1699.54,-75.5C1760.47,-62.96 1850.62,-44.4 1910.78,-32.01"/>
<polygon fill="black" stroke="black" points="1911.82,-35.37 1920.91,-29.93 1910.41,-28.52 1911.82,-35.37"/>
</g>
<!-- :feature:other&#45;detail&#45;&gt;:core:domain -->
<g id="edge26" class="edge">
<title>:feature:other&#45;detail&#45;&gt;:core:domain</title>
<path fill="none" stroke="black" d="M1891.58,-72.41C1906.32,-62.86 1925,-50.75 1940.85,-40.48"/>
<polygon fill="black" stroke="black" points="1942.83,-43.36 1949.32,-34.99 1939.02,-37.49 1942.83,-43.36"/>
</g>
<!-- :feature:other&#45;list&#45;&gt;:core:domain -->
<g id="edge27" class="edge">
<title>:feature:other&#45;list&#45;&gt;:core:domain</title>
<path fill="none" stroke="black" d="M2056.66,-72.59C2041.94,-63.04 2023.2,-50.9 2007.28,-40.58"/>
<polygon fill="black" stroke="black" points="2009.07,-37.57 1998.78,-35.07 2005.26,-43.44 2009.07,-37.57"/>
</g>
<!-- :feature:other&#45;volume&#45;detail&#45;&gt;:core:domain -->
<g id="edge28" class="edge">
<title>:feature:other&#45;volume&#45;detail&#45;&gt;:core:domain</title>
<path fill="none" stroke="black" d="M1009.35,-77.07C1026.54,-75.21 1044.27,-73.43 1060.99,-72 1368.64,-45.66 1735.77,-28.75 1894.45,-22.15"/>
<polygon fill="black" stroke="black" points="1894.75,-25.64 1904.6,-21.73 1894.46,-18.64 1894.75,-25.64"/>
</g>
<!-- :core:designsystem -->
<g id="node17" class="node">
<title>:core:designsystem</title>
<ellipse fill="none" stroke="black" cx="725.99" cy="-18" rx="100.98" ry="18"/>
<text text-anchor="middle" x="725.99" y="-14.3" font-family="Times,serif" font-size="14.00">:core:designsystem</text>
</g>
<!-- :feature:other&#45;volume&#45;detail&#45;&gt;:core:designsystem -->
<g id="edge29" class="edge">
<title>:feature:other&#45;volume&#45;detail&#45;&gt;:core:designsystem</title>
<path fill="none" stroke="black" d="M868.08,-72.76C840.75,-62.42 805.21,-48.98 776.52,-38.12"/>
<polygon fill="black" stroke="black" points="777.66,-34.81 767.07,-34.55 775.19,-41.36 777.66,-34.81"/>
</g>
<!-- :feature:readout&#45;list&#45;&gt;:core:domain -->
<g id="edge30" class="edge">
<title>:feature:readout&#45;list&#45;&gt;:core:domain</title>
<path fill="none" stroke="black" d="M2234.71,-75.5C2177.47,-63.1 2093.07,-44.81 2035.93,-32.43"/>
<polygon fill="black" stroke="black" points="2036.46,-28.96 2025.95,-30.26 2034.98,-35.8 2036.46,-28.96"/>
</g>
<!-- :feature:lmu&#45;readout&#45;vehicle&#45;approach&#45;detail&#45;&gt;:core:domain -->
<g id="edge22" class="edge">
<title>:feature:lmu&#45;readout&#45;vehicle&#45;approach&#45;detail&#45;&gt;:core:domain</title>
<path fill="none" stroke="black" d="M1419.44,-75.59C1562,-61.04 1784.56,-38.33 1899.58,-26.59"/>
<polygon fill="black" stroke="black" points="1900.1,-30.06 1909.69,-25.56 1899.39,-23.09 1900.1,-30.06"/>
</g>
<!-- :feature:lmu&#45;readout&#45;vehicle&#45;approach&#45;detail&#45;&gt;:core:designsystem -->
<g id="edge23" class="edge">
<title>:feature:lmu&#45;readout&#45;vehicle&#45;approach&#45;detail&#45;&gt;:core:designsystem</title>
<path fill="none" stroke="black" d="M1172.9,-74.67C1067.29,-61.51 912.97,-42.29 816.08,-30.22"/>
<polygon fill="black" stroke="black" points="816.37,-26.73 806.02,-28.97 815.51,-33.68 816.37,-26.73"/>
</g>
<!-- :feature:lmu&#45;readout&#45;flag&#45;detail&#45;&gt;:core:domain -->
<g id="edge20" class="edge">
<title>:feature:lmu&#45;readout&#45;flag&#45;detail&#45;&gt;:core:domain</title>
<path fill="none" stroke="black" d="M262.85,-76.88C282.18,-75 302.17,-73.27 320.99,-72 923.95,-31.32 1652.81,-21.71 1892.96,-19.57"/>
<polygon fill="black" stroke="black" points="1893.04,-23.07 1903.01,-19.49 1892.98,-16.07 1893.04,-23.07"/>
</g>
<!-- :feature:lmu&#45;readout&#45;flag&#45;detail&#45;&gt;:core:designsystem -->
<g id="edge21" class="edge">
<title>:feature:lmu&#45;readout&#45;flag&#45;detail&#45;&gt;:core:designsystem</title>
<path fill="none" stroke="black" d="M258.55,-76.4C365.88,-63.22 532.75,-42.73 635.38,-30.13"/>
<polygon fill="black" stroke="black" points="635.91,-33.59 645.41,-28.89 635.06,-26.64 635.91,-33.59"/>
</g>
<!-- :feature:lmu&#45;readout&#45;vehicle&#45;damage&#45;detail&#45;&gt;:core:domain -->
<g id="edge24" class="edge">
<title>:feature:lmu&#45;readout&#45;vehicle&#45;damage&#45;detail&#45;&gt;:core:domain</title>
<path fill="none" stroke="black" d="M687.38,-77C711.95,-75.18 737.18,-73.44 760.99,-72 1187.84,-46.19 1699.92,-28 1894.09,-21.57"/>
<polygon fill="black" stroke="black" points="1894.33,-25.06 1904.2,-21.23 1894.09,-18.06 1894.33,-25.06"/>
</g>
<!-- :feature:lmu&#45;readout&#45;vehicle&#45;damage&#45;detail&#45;&gt;:core:designsystem -->
<g id="edge25" class="edge">
<title>:feature:lmu&#45;readout&#45;vehicle&#45;damage&#45;detail&#45;&gt;:core:designsystem</title>
<path fill="none" stroke="black" d="M585.3,-72.23C612.36,-61.99 647.05,-48.87 675.22,-38.21"/>
<polygon fill="black" stroke="black" points="676.77,-41.36 684.88,-34.55 674.29,-34.82 676.77,-41.36"/>
</g>
<!-- :app:webApp -->
<g id="node16" class="node">
<title>:app:webApp</title>
<ellipse fill="none" stroke="black" cx="1865.99" cy="-234" rx="70.69" ry="18"/>
<text text-anchor="middle" x="1865.99" y="-230.3" font-family="Times,serif" font-size="14.00">:app:webApp</text>
</g>
<!-- :app:webApp&#45;&gt;:app:shared -->
<g id="edge16" class="edge">
<title>:app:webApp&#45;&gt;:app:shared</title>
<path fill="none" stroke="black" d="M1865.99,-215.7C1865.99,-207.98 1865.99,-198.71 1865.99,-190.11"/>
<polygon fill="black" stroke="black" points="1869.49,-190.1 1865.99,-180.1 1862.49,-190.1 1869.49,-190.1"/>
</g>
</g>
</svg>
