<?xml version="1.0" encoding="UTF-8" standalone="no"?>
<!DOCTYPE svg PUBLIC "-//W3C//DTD SVG 1.1//EN"
 "http://www.w3.org/Graphics/SVG/1.1/DTD/svg11.dtd">
<!-- Generated by graphviz version 2.43.0 (0)
 -->
<!-- Title: G Pages: 1 -->
<svg width="1232pt" height="260pt"
 viewBox="0.00 0.00 1231.74 260.00" xmlns="http://www.w3.org/2000/svg" xmlns:xlink="http://www.w3.org/1999/xlink">
<g id="graph0" class="graph" transform="scale(1 1) rotate(0) translate(4 256)">
<title>G</title>
<polygon fill="white" stroke="transparent" points="-4,4 -4,-256 1227.74,-256 1227.74,4 -4,4"/>
<!-- :server -->
<g id="node1" class="node">
<title>:server</title>
<ellipse fill="none" stroke="black" cx="43.55" cy="-90" rx="43.59" ry="18"/>
<text text-anchor="middle" x="43.55" y="-86.3" font-family="Times,serif" font-size="14.00">:server</text>
</g>
<!-- :core:domain -->
<g id="node2" class="node">
<title>:core:domain</title>
<ellipse fill="none" stroke="black" cx="656.55" cy="-18" rx="70.69" ry="18"/>
<text text-anchor="middle" x="656.55" y="-14.3" font-family="Times,serif" font-size="14.00">:core:domain</text>
</g>
<!-- :server&#45;&gt;:core:domain -->
<g id="edge1" class="edge">
<title>:server&#45;&gt;:core:domain</title>
<path fill="none" stroke="black" d="M76.71,-78.1C84.77,-75.79 93.41,-73.57 101.55,-72 268.67,-39.83 468.03,-26.85 576.51,-21.87"/>
<polygon fill="black" stroke="black" points="576.89,-25.36 586.72,-21.42 576.58,-18.37 576.89,-25.36"/>
</g>
<!-- :app:androidApp -->
<g id="node3" class="node">
<title>:app:androidApp</title>
<ellipse fill="none" stroke="black" cx="242.55" cy="-234" rx="87.18" ry="18"/>
<text text-anchor="middle" x="242.55" y="-230.3" font-family="Times,serif" font-size="14.00">:app:androidApp</text>
</g>
<!-- :app:androidApp&#45;&gt;:core:domain -->
<g id="edge3" class="edge">
<title>:app:androidApp&#45;&gt;:core:domain</title>
<path fill="none" stroke="black" d="M217.2,-216.6C173.2,-186.19 91.33,-119.82 134.55,-72 163.57,-39.88 437.38,-26.24 576.39,-21.34"/>
<polygon fill="black" stroke="black" points="576.69,-24.83 586.57,-20.99 576.45,-17.84 576.69,-24.83"/>
</g>
<!-- :app:shared -->
<g id="node4" class="node">
<title>:app:shared</title>
<ellipse fill="none" stroke="black" cx="592.55" cy="-162" rx="65.79" ry="18"/>
<text text-anchor="middle" x="592.55" y="-158.3" font-family="Times,serif" font-size="14.00">:app:shared</text>
</g>
<!-- :app:androidApp&#45;&gt;:app:shared -->
<g id="edge2" class="edge">
<title>:app:androidApp&#45;&gt;:app:shared</title>
<path fill="none" stroke="black" d="M302.71,-220.97C366.53,-208.2 466.83,-188.14 531.13,-175.28"/>
<polygon fill="black" stroke="black" points="532.01,-178.68 541.13,-173.28 530.63,-171.81 532.01,-178.68"/>
</g>
<!-- :feature:announcer -->
<g id="node5" class="node">
<title>:feature:announcer</title>
<ellipse fill="none" stroke="black" cx="242.55" cy="-90" rx="98.58" ry="18"/>
<text text-anchor="middle" x="242.55" y="-86.3" font-family="Times,serif" font-size="14.00">:feature:announcer</text>
</g>
<!-- :app:androidApp&#45;&gt;:feature:announcer -->
<g id="edge4" class="edge">
<title>:app:androidApp&#45;&gt;:feature:announcer</title>
<path fill="none" stroke="black" d="M242.55,-215.87C242.55,-191.67 242.55,-147.21 242.55,-118.39"/>
<polygon fill="black" stroke="black" points="246.05,-118.19 242.55,-108.19 239.05,-118.19 246.05,-118.19"/>
</g>
<!-- :app:shared&#45;&gt;:feature:announcer -->
<g id="edge9" class="edge">
<title>:app:shared&#45;&gt;:feature:announcer</title>
<path fill="none" stroke="black" d="M541.28,-150.75C482.04,-138.9 384.08,-119.31 316.58,-105.81"/>
<polygon fill="black" stroke="black" points="316.92,-102.31 306.43,-103.78 315.55,-109.17 316.92,-102.31"/>
</g>
<!-- :feature:readout -->
<g id="node7" class="node">
<title>:feature:readout</title>
<ellipse fill="none" stroke="black" cx="967.55" cy="-90" rx="86.38" ry="18"/>
<text text-anchor="middle" x="967.55" y="-86.3" font-family="Times,serif" font-size="14.00">:feature:readout</text>
</g>
<!-- :app:shared&#45;&gt;:feature:readout -->
<g id="edge11" class="edge">
<title>:app:shared&#45;&gt;:feature:readout</title>
<path fill="none" stroke="black" d="M645.08,-151.19C710.35,-139.01 822.02,-118.17 895.31,-104.48"/>
<polygon fill="black" stroke="black" points="896.2,-107.88 905.38,-102.6 894.91,-101 896.2,-107.88"/>
</g>
<!-- :feature:other -->
<g id="node8" class="node">
<title>:feature:other</title>
<ellipse fill="none" stroke="black" cx="787.55" cy="-90" rx="75.29" ry="18"/>
<text text-anchor="middle" x="787.55" y="-86.3" font-family="Times,serif" font-size="14.00">:feature:other</text>
</g>
<!-- :app:shared&#45;&gt;:feature:other -->
<g id="edge10" class="edge">
<title>:app:shared&#45;&gt;:feature:other</title>
<path fill="none" stroke="black" d="M631.07,-147.17C661.68,-136.18 704.71,-120.73 737.9,-108.82"/>
<polygon fill="black" stroke="black" points="739.2,-112.08 747.42,-105.4 736.83,-105.49 739.2,-112.08"/>
</g>
<!-- :feature:readout&#45;vehicle&#45;approach -->
<g id="node9" class="node">
<title>:feature:readout&#45;vehicle&#45;approach</title>
<ellipse fill="none" stroke="black" cx="526.55" cy="-90" rx="167.87" ry="18"/>
<text text-anchor="middle" x="526.55" y="-86.3" font-family="Times,serif" font-size="14.00">:feature:readout&#45;vehicle&#45;approach</text>
</g>
<!-- :app:shared&#45;&gt;:feature:readout&#45;vehicle&#45;approach -->
<g id="edge12" class="edge">
<title>:app:shared&#45;&gt;:feature:readout&#45;vehicle&#45;approach</title>
<path fill="none" stroke="black" d="M576.91,-144.41C568.72,-135.73 558.55,-124.95 549.5,-115.34"/>
<polygon fill="black" stroke="black" points="551.94,-112.83 542.53,-107.96 546.85,-117.63 551.94,-112.83"/>
</g>
<!-- :feature:announcer&#45;&gt;:core:domain -->
<g id="edge15" class="edge">
<title>:feature:announcer&#45;&gt;:core:domain</title>
<path fill="none" stroke="black" d="M312.31,-77.2C389.5,-64.15 513.02,-43.27 589.22,-30.38"/>
<polygon fill="black" stroke="black" points="589.91,-33.82 599.19,-28.7 588.75,-26.91 589.91,-33.82"/>
</g>
<!-- :app:desktopApp -->
<g id="node6" class="node">
<title>:app:desktopApp</title>
<ellipse fill="none" stroke="black" cx="901.55" cy="-234" rx="88.28" ry="18"/>
<text text-anchor="middle" x="901.55" y="-230.3" font-family="Times,serif" font-size="14.00">:app:desktopApp</text>
</g>
<!-- :app:desktopApp&#45;&gt;:core:domain -->
<g id="edge6" class="edge">
<title>:app:desktopApp&#45;&gt;:core:domain</title>
<path fill="none" stroke="black" d="M938.5,-217.45C1000,-189.46 1111.97,-128.29 1062.55,-72 1041.31,-47.82 846.95,-31.32 735.03,-23.75"/>
<polygon fill="black" stroke="black" points="735,-20.24 724.79,-23.06 734.54,-27.22 735,-20.24"/>
</g>
<!-- :app:desktopApp&#45;&gt;:app:shared -->
<g id="edge5" class="edge">
<title>:app:desktopApp&#45;&gt;:app:shared</title>
<path fill="none" stroke="black" d="M844.87,-220.16C790.09,-207.75 707.43,-189.03 651.79,-176.42"/>
<polygon fill="black" stroke="black" points="652.26,-172.94 641.73,-174.14 650.71,-179.77 652.26,-172.94"/>
</g>
<!-- :app:desktopApp&#45;&gt;:feature:announcer -->
<g id="edge8" class="edge">
<title>:app:desktopApp&#45;&gt;:feature:announcer</title>
<path fill="none" stroke="black" d="M821.75,-226.12C743.56,-218.4 621.36,-203.77 517.55,-180 437.25,-161.62 346.87,-130.22 292.34,-110.05"/>
<polygon fill="black" stroke="black" points="293.51,-106.75 282.92,-106.55 291.07,-113.31 293.51,-106.75"/>
</g>
<!-- :app:desktopApp&#45;&gt;:feature:readout -->
<g id="edge7" class="edge">
<title>:app:desktopApp&#45;&gt;:feature:readout</title>
<path fill="none" stroke="black" d="M909.51,-215.87C920.9,-191.35 941.97,-146.03 955.34,-117.26"/>
<polygon fill="black" stroke="black" points="958.52,-118.73 959.56,-108.19 952.17,-115.78 958.52,-118.73"/>
</g>
<!-- :feature:readout&#45;&gt;:core:domain -->
<g id="edge17" class="edge">
<title>:feature:readout&#45;&gt;:core:domain</title>
<path fill="none" stroke="black" d="M911.23,-76.32C856.57,-64.02 773.85,-45.4 717.63,-32.75"/>
<polygon fill="black" stroke="black" points="718.33,-29.32 707.8,-30.54 716.79,-36.15 718.33,-29.32"/>
</g>
<!-- :feature:other&#45;&gt;:core:domain -->
<g id="edge16" class="edge">
<title>:feature:other&#45;&gt;:core:domain</title>
<path fill="none" stroke="black" d="M758.15,-73.29C739.44,-63.29 715.01,-50.24 694.8,-39.44"/>
<polygon fill="black" stroke="black" points="696.32,-36.28 685.85,-34.66 693.02,-42.46 696.32,-36.28"/>
</g>
<!-- :feature:readout&#45;vehicle&#45;approach&#45;&gt;:core:domain -->
<g id="edge18" class="edge">
<title>:feature:readout&#45;vehicle&#45;approach&#45;&gt;:core:domain</title>
<path fill="none" stroke="black" d="M557.68,-72.23C575.97,-62.39 599.22,-49.87 618.58,-39.45"/>
<polygon fill="black" stroke="black" points="620.3,-42.49 627.44,-34.67 616.98,-36.33 620.3,-42.49"/>
</g>
<!-- :app:webApp -->
<g id="node10" class="node">
<title>:app:webApp</title>
<ellipse fill="none" stroke="black" cx="592.55" cy="-234" rx="70.69" ry="18"/>
<text text-anchor="middle" x="592.55" y="-230.3" font-family="Times,serif" font-size="14.00">:app:webApp</text>
</g>
<!-- :app:webApp&#45;&gt;:app:shared -->
<g id="edge13" class="edge">
<title>:app:webApp&#45;&gt;:app:shared</title>
<path fill="none" stroke="black" d="M592.55,-215.7C592.55,-207.98 592.55,-198.71 592.55,-190.11"/>
<polygon fill="black" stroke="black" points="596.05,-190.1 592.55,-180.1 589.05,-190.1 596.05,-190.1"/>
</g>
<!-- :core:data -->
<g id="node11" class="node">
<title>:core:data</title>
<ellipse fill="none" stroke="black" cx="1166.55" cy="-90" rx="57.39" ry="18"/>
<text text-anchor="middle" x="1166.55" y="-86.3" font-family="Times,serif" font-size="14.00">:core:data</text>
</g>
<!-- :core:data&#45;&gt;:core:domain -->
<g id="edge14" class="edge">
<title>:core:data&#45;&gt;:core:domain</title>
<path fill="none" stroke="black" d="M1123.91,-77.95C1114.61,-75.78 1104.78,-73.66 1095.55,-72 969.26,-49.34 820.75,-33.67 732.87,-25.53"/>
<polygon fill="black" stroke="black" points="733,-22.03 722.72,-24.6 732.36,-29 733,-22.03"/>
</g>
</g>
</svg>
