<?xml version="1.0" encoding="UTF-8" standalone="no"?>
<!DOCTYPE svg PUBLIC "-//W3C//DTD SVG 1.1//EN"
 "http://www.w3.org/Graphics/SVG/1.1/DTD/svg11.dtd">
<!-- Generated by graphviz version 2.43.0 (0)
 -->
<!-- Title: G Pages: 1 -->
<svg width="607pt" height="260pt"
 viewBox="0.00 0.00 606.74 260.00" xmlns="http://www.w3.org/2000/svg" xmlns:xlink="http://www.w3.org/1999/xlink">
<g id="graph0" class="graph" transform="scale(1 1) rotate(0) translate(4 256)">
<title>G</title>
<polygon fill="white" stroke="transparent" points="-4,4 -4,-256 602.74,-256 602.74,4 -4,4"/>
<!-- :server -->
<g id="node1" class="node">
<title>:server</title>
<ellipse fill="none" stroke="black" cx="43.55" cy="-90" rx="43.59" ry="18"/>
<text text-anchor="middle" x="43.55" y="-86.3" font-family="Times,serif" font-size="14.00">:server</text>
</g>
<!-- :core:domain -->
<g id="node2" class="node">
<title>:core:domain</title>
<ellipse fill="none" stroke="black" cx="204.55" cy="-18" rx="70.69" ry="18"/>
<text text-anchor="middle" x="204.55" y="-14.3" font-family="Times,serif" font-size="14.00">:core:domain</text>
</g>
<!-- :server&#45;&gt;:core:domain -->
<g id="edge1" class="edge">
<title>:server&#45;&gt;:core:domain</title>
<path fill="none" stroke="black" d="M72.33,-76.49C97.03,-65.74 133.01,-50.1 161.19,-37.85"/>
<polygon fill="black" stroke="black" points="162.65,-41.03 170.43,-33.83 159.86,-34.61 162.65,-41.03"/>
</g>
<!-- :app:androidApp -->
<g id="node3" class="node">
<title>:app:androidApp</title>
<ellipse fill="none" stroke="black" cx="256.55" cy="-234" rx="87.18" ry="18"/>
<text text-anchor="middle" x="256.55" y="-230.3" font-family="Times,serif" font-size="14.00">:app:androidApp</text>
</g>
<!-- :app:androidApp&#45;&gt;:core:domain -->
<g id="edge3" class="edge">
<title>:app:androidApp&#45;&gt;:core:domain</title>
<path fill="none" stroke="black" d="M224.31,-217.16C209.22,-208.21 192.26,-195.66 181.55,-180 154.06,-139.85 147.81,-118.05 163.55,-72 167.04,-61.76 173.41,-51.97 180.1,-43.65"/>
<polygon fill="black" stroke="black" points="182.94,-45.72 186.81,-35.85 177.63,-41.15 182.94,-45.72"/>
</g>
<!-- :app:shared -->
<g id="node4" class="node">
<title>:app:shared</title>
<ellipse fill="none" stroke="black" cx="256.55" cy="-162" rx="65.79" ry="18"/>
<text text-anchor="middle" x="256.55" y="-158.3" font-family="Times,serif" font-size="14.00">:app:shared</text>
</g>
<!-- :app:androidApp&#45;&gt;:app:shared -->
<g id="edge2" class="edge">
<title>:app:androidApp&#45;&gt;:app:shared</title>
<path fill="none" stroke="black" d="M256.55,-215.7C256.55,-207.98 256.55,-198.71 256.55,-190.11"/>
<polygon fill="black" stroke="black" points="260.05,-190.1 256.55,-180.1 253.05,-190.1 260.05,-190.1"/>
</g>
<!-- :feature:readout -->
<g id="node5" class="node">
<title>:feature:readout</title>
<ellipse fill="none" stroke="black" cx="436.55" cy="-90" rx="86.38" ry="18"/>
<text text-anchor="middle" x="436.55" y="-86.3" font-family="Times,serif" font-size="14.00">:feature:readout</text>
</g>
<!-- :app:androidApp&#45;&gt;:feature:readout -->
<g id="edge4" class="edge">
<title>:app:androidApp&#45;&gt;:feature:readout</title>
<path fill="none" stroke="black" d="M280.92,-216.58C295.78,-206.37 315.04,-192.79 331.55,-180 359.18,-158.59 389.53,-132.58 410.46,-114.22"/>
<polygon fill="black" stroke="black" points="412.8,-116.82 417.99,-107.59 408.17,-111.57 412.8,-116.82"/>
</g>
<!-- :app:shared&#45;&gt;:core:domain -->
<g id="edge10" class="edge">
<title>:app:shared&#45;&gt;:core:domain</title>
<path fill="none" stroke="black" d="M218.64,-147.15C201.3,-138.68 182.46,-125.97 172.55,-108 161.3,-87.61 172.33,-62.5 184.41,-44.16"/>
<polygon fill="black" stroke="black" points="187.44,-45.94 190.33,-35.75 181.71,-41.91 187.44,-45.94"/>
</g>
<!-- :app:shared&#45;&gt;:feature:readout -->
<g id="edge9" class="edge">
<title>:app:shared&#45;&gt;:feature:readout</title>
<path fill="none" stroke="black" d="M292.97,-146.83C320.41,-136.16 358.29,-121.43 388.26,-109.78"/>
<polygon fill="black" stroke="black" points="389.63,-113 397.68,-106.11 387.09,-106.48 389.63,-113"/>
</g>
<!-- :feature:other -->
<g id="node8" class="node">
<title>:feature:other</title>
<ellipse fill="none" stroke="black" cx="256.55" cy="-90" rx="75.29" ry="18"/>
<text text-anchor="middle" x="256.55" y="-86.3" font-family="Times,serif" font-size="14.00">:feature:other</text>
</g>
<!-- :app:shared&#45;&gt;:feature:other -->
<g id="edge8" class="edge">
<title>:app:shared&#45;&gt;:feature:other</title>
<path fill="none" stroke="black" d="M256.55,-143.7C256.55,-135.98 256.55,-126.71 256.55,-118.11"/>
<polygon fill="black" stroke="black" points="260.05,-118.1 256.55,-108.1 253.05,-118.1 260.05,-118.1"/>
</g>
<!-- :feature:readout&#45;&gt;:core:domain -->
<g id="edge14" class="edge">
<title>:feature:readout&#45;&gt;:core:domain</title>
<path fill="none" stroke="black" d="M389.6,-74.83C351.51,-63.34 297.82,-47.14 258.07,-35.15"/>
<polygon fill="black" stroke="black" points="258.87,-31.74 248.29,-32.2 256.85,-38.44 258.87,-31.74"/>
</g>
<!-- :app:desktopApp -->
<g id="node6" class="node">
<title>:app:desktopApp</title>
<ellipse fill="none" stroke="black" cx="449.55" cy="-234" rx="88.28" ry="18"/>
<text text-anchor="middle" x="449.55" y="-230.3" font-family="Times,serif" font-size="14.00">:app:desktopApp</text>
</g>
<!-- :app:desktopApp&#45;&gt;:app:shared -->
<g id="edge5" class="edge">
<title>:app:desktopApp&#45;&gt;:app:shared</title>
<path fill="none" stroke="black" d="M408.14,-217.98C377.63,-206.92 336.06,-191.84 304.17,-180.27"/>
<polygon fill="black" stroke="black" points="305.2,-176.92 294.6,-176.8 302.81,-183.5 305.2,-176.92"/>
</g>
<!-- :app:desktopApp&#45;&gt;:feature:readout -->
<g id="edge7" class="edge">
<title>:app:desktopApp&#45;&gt;:feature:readout</title>
<path fill="none" stroke="black" d="M447.98,-215.87C445.76,-191.67 441.69,-147.21 439.05,-118.39"/>
<polygon fill="black" stroke="black" points="442.52,-117.83 438.12,-108.19 435.55,-118.47 442.52,-117.83"/>
</g>
<!-- :core:data -->
<g id="node7" class="node">
<title>:core:data</title>
<ellipse fill="none" stroke="black" cx="541.55" cy="-162" rx="57.39" ry="18"/>
<text text-anchor="middle" x="541.55" y="-158.3" font-family="Times,serif" font-size="14.00">:core:data</text>
</g>
<!-- :app:desktopApp&#45;&gt;:core:data -->
<g id="edge6" class="edge">
<title>:app:desktopApp&#45;&gt;:core:data</title>
<path fill="none" stroke="black" d="M471.35,-216.41C483.67,-207.04 499.23,-195.2 512.57,-185.05"/>
<polygon fill="black" stroke="black" points="514.69,-187.83 520.53,-178.99 510.46,-182.26 514.69,-187.83"/>
</g>
<!-- :core:data&#45;&gt;:core:domain -->
<g id="edge12" class="edge">
<title>:core:data&#45;&gt;:core:domain</title>
<path fill="none" stroke="black" d="M545.15,-143.74C548.22,-123.72 549.67,-91.03 531.55,-72 498.63,-37.43 370.9,-25.41 285.17,-21.23"/>
<polygon fill="black" stroke="black" points="285.08,-17.72 274.93,-20.76 284.76,-24.71 285.08,-17.72"/>
</g>
<!-- :feature:other&#45;&gt;:core:domain -->
<g id="edge13" class="edge">
<title>:feature:other&#45;&gt;:core:domain</title>
<path fill="none" stroke="black" d="M243.96,-72.05C237.7,-63.63 230.01,-53.28 223.09,-43.97"/>
<polygon fill="black" stroke="black" points="225.79,-41.73 217.02,-35.79 220.17,-45.9 225.79,-41.73"/>
</g>
<!-- :app:webApp -->
<g id="node9" class="node">
<title>:app:webApp</title>
<ellipse fill="none" stroke="black" cx="80.55" cy="-234" rx="70.69" ry="18"/>
<text text-anchor="middle" x="80.55" y="-230.3" font-family="Times,serif" font-size="14.00">:app:webApp</text>
</g>
<!-- :app:webApp&#45;&gt;:app:shared -->
<g id="edge11" class="edge">
<title>:app:webApp&#45;&gt;:app:shared</title>
<path fill="none" stroke="black" d="M117.01,-218.5C144.33,-207.63 181.88,-192.7 211.15,-181.06"/>
<polygon fill="black" stroke="black" points="212.73,-184.19 220.73,-177.25 210.14,-177.69 212.73,-184.19"/>
</g>
</g>
</svg>
