<?xml version="1.0" encoding="UTF-8" standalone="no"?>
<!DOCTYPE svg PUBLIC "-//W3C//DTD SVG 1.1//EN"
 "http://www.w3.org/Graphics/SVG/1.1/DTD/svg11.dtd">
<!-- Generated by graphviz version 2.43.0 (0)
 -->
<!-- Title: G Pages: 1 -->
<svg width="5384pt" height="260pt"
 viewBox="0.00 0.00 5384.13 260.00" xmlns="http://www.w3.org/2000/svg" xmlns:xlink="http://www.w3.org/1999/xlink">
<g id="graph0" class="graph" transform="scale(1 1) rotate(0) translate(4 256)">
<title>G</title>
<polygon fill="white" stroke="transparent" points="-4,4 -4,-256 5380.13,-256 5380.13,4 -4,4"/>
<!-- :server -->
<g id="node1" class="node">
<title>:server</title>
<ellipse fill="none" stroke="black" cx="4885.74" cy="-162" rx="43.59" ry="18"/>
<text text-anchor="middle" x="4885.74" y="-158.3" font-family="Times,serif" font-size="14.00">:server</text>
</g>
<!-- :core:domain -->
<g id="node2" class="node">
<title>:core:domain</title>
<ellipse fill="none" stroke="black" cx="3628.74" cy="-18" rx="70.69" ry="18"/>
<text text-anchor="middle" x="3628.74" y="-14.3" font-family="Times,serif" font-size="14.00">:core:domain</text>
</g>
<!-- :server&#45;&gt;:core:domain -->
<g id="edge1" class="edge">
<title>:server&#45;&gt;:core:domain</title>
<path fill="none" stroke="black" d="M4880.32,-144C4872.6,-122.92 4856.24,-87.85 4828.74,-72 4780.29,-44.09 3970.49,-25.74 3709.27,-20.53"/>
<polygon fill="black" stroke="black" points="3709.16,-17.02 3699.09,-20.32 3709.02,-24.02 3709.16,-17.02"/>
</g>
<!-- :app:androidApp -->
<g id="node3" class="node">
<title>:app:androidApp</title>
<ellipse fill="none" stroke="black" cx="3858.74" cy="-234" rx="87.18" ry="18"/>
<text text-anchor="middle" x="3858.74" y="-230.3" font-family="Times,serif" font-size="14.00">:app:androidApp</text>
</g>
<!-- :app:shared -->
<g id="node4" class="node">
<title>:app:shared</title>
<ellipse fill="none" stroke="black" cx="3032.74" cy="-162" rx="65.79" ry="18"/>
<text text-anchor="middle" x="3032.74" y="-158.3" font-family="Times,serif" font-size="14.00">:app:shared</text>
</g>
<!-- :app:androidApp&#45;&gt;:app:shared -->
<g id="edge2" class="edge">
<title>:app:androidApp&#45;&gt;:app:shared</title>
<path fill="none" stroke="black" d="M3779.91,-226.32C3619.87,-212.76 3258.99,-182.17 3104.8,-169.11"/>
<polygon fill="black" stroke="black" points="3104.76,-165.59 3094.5,-168.23 3104.17,-172.57 3104.76,-165.59"/>
</g>
<!-- :core:data -->
<g id="node5" class="node">
<title>:core:data</title>
<ellipse fill="none" stroke="black" cx="4507.74" cy="-162" rx="57.39" ry="18"/>
<text text-anchor="middle" x="4507.74" y="-158.3" font-family="Times,serif" font-size="14.00">:core:data</text>
</g>
<!-- :app:androidApp&#45;&gt;:core:data -->
<g id="edge3" class="edge">
<title>:app:androidApp&#45;&gt;:core:data</title>
<path fill="none" stroke="black" d="M3934.14,-224.87C4063.15,-210.95 4323.94,-182.82 4444.27,-169.85"/>
<polygon fill="black" stroke="black" points="4444.86,-173.3 4454.43,-168.75 4444.11,-166.34 4444.86,-173.3"/>
</g>
<!-- :feature:main -->
<g id="node8" class="node">
<title>:feature:main</title>
<ellipse fill="none" stroke="black" cx="2904.74" cy="-90" rx="73.39" ry="18"/>
<text text-anchor="middle" x="2904.74" y="-86.3" font-family="Times,serif" font-size="14.00">:feature:main</text>
</g>
<!-- :app:shared&#45;&gt;:feature:main -->
<g id="edge8" class="edge">
<title>:app:shared&#45;&gt;:feature:main</title>
<path fill="none" stroke="black" d="M3004.65,-145.64C2986.4,-135.66 2962.38,-122.52 2942.47,-111.64"/>
<polygon fill="black" stroke="black" points="2944.1,-108.54 2933.65,-106.81 2940.74,-114.68 2944.1,-108.54"/>
</g>
<!-- :feature:lmu&#45;windows&#45;connection -->
<g id="node9" class="node">
<title>:feature:lmu&#45;windows&#45;connection</title>
<ellipse fill="none" stroke="black" cx="3160.74" cy="-90" rx="164.37" ry="18"/>
<text text-anchor="middle" x="3160.74" y="-86.3" font-family="Times,serif" font-size="14.00">:feature:lmu&#45;windows&#45;connection</text>
</g>
<!-- :app:shared&#45;&gt;:feature:lmu&#45;windows&#45;connection -->
<g id="edge9" class="edge">
<title>:app:shared&#45;&gt;:feature:lmu&#45;windows&#45;connection</title>
<path fill="none" stroke="black" d="M3060.83,-145.64C3078.49,-135.98 3101.54,-123.37 3121.06,-112.7"/>
<polygon fill="black" stroke="black" points="3122.93,-115.66 3130.03,-107.8 3119.57,-109.52 3122.93,-115.66"/>
</g>
<!-- :feature:server&#45;connection -->
<g id="node10" class="node">
<title>:feature:server&#45;connection</title>
<ellipse fill="none" stroke="black" cx="3476.74" cy="-90" rx="133.48" ry="18"/>
<text text-anchor="middle" x="3476.74" y="-86.3" font-family="Times,serif" font-size="14.00">:feature:server&#45;connection</text>
</g>
<!-- :app:shared&#45;&gt;:feature:server&#45;connection -->
<g id="edge10" class="edge">
<title>:app:shared&#45;&gt;:feature:server&#45;connection</title>
<path fill="none" stroke="black" d="M3088.07,-152.28C3161.94,-140.63 3293.82,-119.84 3383.25,-105.74"/>
<polygon fill="black" stroke="black" points="3384.07,-109.15 3393.4,-104.14 3382.98,-102.24 3384.07,-109.15"/>
</g>
<!-- :feature:lmu&#45;windows&#45;narrator -->
<g id="node11" class="node">
<title>:feature:lmu&#45;windows&#45;narrator</title>
<ellipse fill="none" stroke="black" cx="3781.74" cy="-90" rx="153.27" ry="18"/>
<text text-anchor="middle" x="3781.74" y="-86.3" font-family="Times,serif" font-size="14.00">:feature:lmu&#45;windows&#45;narrator</text>
</g>
<!-- :app:shared&#45;&gt;:feature:lmu&#45;windows&#45;narrator -->
<g id="edge11" class="edge">
<title>:app:shared&#45;&gt;:feature:lmu&#45;windows&#45;narrator</title>
<path fill="none" stroke="black" d="M3094.35,-155.71C3201.16,-146.47 3427.6,-126.61 3618.74,-108 3632.77,-106.63 3647.48,-105.16 3662.08,-103.67"/>
<polygon fill="black" stroke="black" points="3662.57,-107.14 3672.16,-102.64 3661.85,-100.17 3662.57,-107.14"/>
</g>
<!-- :feature:other&#45;license&#45;detail -->
<g id="node12" class="node">
<title>:feature:other&#45;license&#45;detail</title>
<ellipse fill="none" stroke="black" cx="139.74" cy="-90" rx="139.98" ry="18"/>
<text text-anchor="middle" x="139.74" y="-86.3" font-family="Times,serif" font-size="14.00">:feature:other&#45;license&#45;detail</text>
</g>
<!-- :app:shared&#45;&gt;:feature:other&#45;license&#45;detail -->
<g id="edge12" class="edge">
<title>:app:shared&#45;&gt;:feature:other&#45;license&#45;detail</title>
<path fill="none" stroke="black" d="M2967.24,-160.58C2603.94,-158.14 833.03,-144.5 287.74,-108 273.79,-107.07 259.14,-105.77 244.71,-104.31"/>
<polygon fill="black" stroke="black" points="245.07,-100.82 234.76,-103.27 244.34,-107.79 245.07,-100.82"/>
</g>
<!-- :feature:other&#45;list -->
<g id="node13" class="node">
<title>:feature:other&#45;list</title>
<ellipse fill="none" stroke="black" cx="4045.74" cy="-90" rx="92.88" ry="18"/>
<text text-anchor="middle" x="4045.74" y="-86.3" font-family="Times,serif" font-size="14.00">:feature:other&#45;list</text>
</g>
<!-- :app:shared&#45;&gt;:feature:other&#45;list -->
<g id="edge13" class="edge">
<title>:app:shared&#45;&gt;:feature:other&#45;list</title>
<path fill="none" stroke="black" d="M3097.84,-159.6C3247.58,-155.87 3627.87,-143.41 3943.74,-108 3952.42,-107.03 3961.49,-105.81 3970.49,-104.47"/>
<polygon fill="black" stroke="black" points="3971.23,-107.9 3980.59,-102.93 3970.17,-100.98 3971.23,-107.9"/>
</g>
<!-- :feature:other&#45;server&#45;ip&#45;detail -->
<g id="node14" class="node">
<title>:feature:other&#45;server&#45;ip&#45;detail</title>
<ellipse fill="none" stroke="black" cx="1824.74" cy="-90" rx="148.67" ry="18"/>
<text text-anchor="middle" x="1824.74" y="-86.3" font-family="Times,serif" font-size="14.00">:feature:other&#45;server&#45;ip&#45;detail</text>
</g>
<!-- :app:shared&#45;&gt;:feature:other&#45;server&#45;ip&#45;detail -->
<g id="edge14" class="edge">
<title>:app:shared&#45;&gt;:feature:other&#45;server&#45;ip&#45;detail</title>
<path fill="none" stroke="black" d="M2967.83,-159.01C2803.03,-153.66 2355.07,-137.4 1982.74,-108 1968.44,-106.87 1953.43,-105.5 1938.58,-104.03"/>
<polygon fill="black" stroke="black" points="1938.65,-100.52 1928.35,-103 1937.95,-107.48 1938.65,-100.52"/>
</g>
<!-- :feature:other&#45;readout&#45;start&#45;sound&#45;detail -->
<g id="node15" class="node">
<title>:feature:other&#45;readout&#45;start&#45;sound&#45;detail</title>
<ellipse fill="none" stroke="black" cx="4355.74" cy="-90" rx="199.56" ry="18"/>
<text text-anchor="middle" x="4355.74" y="-86.3" font-family="Times,serif" font-size="14.00">:feature:other&#45;readout&#45;start&#45;sound&#45;detail</text>
</g>
<!-- :app:shared&#45;&gt;:feature:other&#45;readout&#45;start&#45;sound&#45;detail -->
<g id="edge15" class="edge">
<title>:app:shared&#45;&gt;:feature:other&#45;readout&#45;start&#45;sound&#45;detail</title>
<path fill="none" stroke="black" d="M3097.51,-158.69C3268.97,-152.42 3748.87,-133.77 4147.74,-108 4166.99,-106.76 4187.24,-105.29 4207.23,-103.76"/>
<polygon fill="black" stroke="black" points="4207.63,-107.24 4217.33,-102.97 4207.09,-100.26 4207.63,-107.24"/>
</g>
<!-- :feature:other&#45;volume&#45;detail -->
<g id="node16" class="node">
<title>:feature:other&#45;volume&#45;detail</title>
<ellipse fill="none" stroke="black" cx="2132.74" cy="-90" rx="141.07" ry="18"/>
<text text-anchor="middle" x="2132.74" y="-86.3" font-family="Times,serif" font-size="14.00">:feature:other&#45;volume&#45;detail</text>
</g>
<!-- :app:shared&#45;&gt;:feature:other&#45;volume&#45;detail -->
<g id="edge16" class="edge">
<title>:app:shared&#45;&gt;:feature:other&#45;volume&#45;detail</title>
<path fill="none" stroke="black" d="M2968.95,-157.41C2839.47,-149.91 2536.53,-131.34 2282.74,-108 2269.51,-106.78 2255.63,-105.38 2241.89,-103.92"/>
<polygon fill="black" stroke="black" points="2242.24,-100.43 2231.92,-102.84 2241.49,-107.39 2242.24,-100.43"/>
</g>
<!-- :feature:readout&#45;list -->
<g id="node17" class="node">
<title>:feature:readout&#45;list</title>
<ellipse fill="none" stroke="black" cx="4677.74" cy="-90" rx="103.98" ry="18"/>
<text text-anchor="middle" x="4677.74" y="-86.3" font-family="Times,serif" font-size="14.00">:feature:readout&#45;list</text>
</g>
<!-- :app:shared&#45;&gt;:feature:readout&#45;list -->
<g id="edge17" class="edge">
<title>:app:shared&#45;&gt;:feature:readout&#45;list</title>
<path fill="none" stroke="black" d="M3098.61,-161.42C3311.33,-162.19 3998.95,-160.17 4564.74,-108 4574.84,-107.07 4585.42,-105.83 4595.88,-104.45"/>
<polygon fill="black" stroke="black" points="4596.42,-107.9 4605.85,-103.08 4595.47,-100.97 4596.42,-107.9"/>
</g>
<!-- :feature:lmu&#45;windows&#45;readout&#45;vehicle&#45;approach&#45;detail -->
<g id="node18" class="node">
<title>:feature:lmu&#45;windows&#45;readout&#45;vehicle&#45;approach&#45;detail</title>
<ellipse fill="none" stroke="black" cx="2552.74" cy="-90" rx="260.75" ry="18"/>
<text text-anchor="middle" x="2552.74" y="-86.3" font-family="Times,serif" font-size="14.00">:feature:lmu&#45;windows&#45;readout&#45;vehicle&#45;approach&#45;detail</text>
</g>
<!-- :app:shared&#45;&gt;:feature:lmu&#45;windows&#45;readout&#45;vehicle&#45;approach&#45;detail -->
<g id="edge18" class="edge">
<title>:app:shared&#45;&gt;:feature:lmu&#45;windows&#45;readout&#45;vehicle&#45;approach&#45;detail</title>
<path fill="none" stroke="black" d="M2976.26,-152.76C2901.03,-141.79 2766.12,-122.12 2668.75,-107.92"/>
<polygon fill="black" stroke="black" points="2669.25,-104.46 2658.85,-106.48 2668.24,-111.38 2669.25,-104.46"/>
</g>
<!-- :feature:lmu&#45;windows&#45;readout&#45;flag&#45;detail -->
<g id="node19" class="node">
<title>:feature:lmu&#45;windows&#45;readout&#45;flag&#45;detail</title>
<ellipse fill="none" stroke="black" cx="496.74" cy="-90" rx="199.56" ry="18"/>
<text text-anchor="middle" x="496.74" y="-86.3" font-family="Times,serif" font-size="14.00">:feature:lmu&#45;windows&#45;readout&#45;flag&#45;detail</text>
</g>
<!-- :app:shared&#45;&gt;:feature:lmu&#45;windows&#45;readout&#45;flag&#45;detail -->
<g id="edge19" class="edge">
<title>:app:shared&#45;&gt;:feature:lmu&#45;windows&#45;readout&#45;flag&#45;detail</title>
<path fill="none" stroke="black" d="M2966.95,-160.92C2691.04,-160.27 1599.99,-154.74 704.74,-108 684.6,-106.95 663.4,-105.55 642.53,-104.01"/>
<polygon fill="black" stroke="black" points="642.56,-100.5 632.32,-103.24 642.03,-107.48 642.56,-100.5"/>
</g>
<!-- :feature:lmu&#45;windows&#45;readout&#45;vehicle&#45;damage&#45;detail -->
<g id="node20" class="node">
<title>:feature:lmu&#45;windows&#45;readout&#45;vehicle&#45;damage&#45;detail</title>
<ellipse fill="none" stroke="black" cx="968.74" cy="-90" rx="254.55" ry="18"/>
<text text-anchor="middle" x="968.74" y="-86.3" font-family="Times,serif" font-size="14.00">:feature:lmu&#45;windows&#45;readout&#45;vehicle&#45;damage&#45;detail</text>
</g>
<!-- :app:shared&#45;&gt;:feature:lmu&#45;windows&#45;readout&#45;vehicle&#45;damage&#45;detail -->
<g id="edge20" class="edge">
<title>:app:shared&#45;&gt;:feature:lmu&#45;windows&#45;readout&#45;vehicle&#45;damage&#45;detail</title>
<path fill="none" stroke="black" d="M2967.32,-159.9C2732.55,-155.77 1910.41,-139.79 1232.74,-108 1207.21,-106.8 1180.31,-105.32 1153.83,-103.74"/>
<polygon fill="black" stroke="black" points="1153.91,-100.24 1143.71,-103.13 1153.48,-107.22 1153.91,-100.24"/>
</g>
<!-- :feature:gt7&#45;ps5&#45;readout&#45;my&#45;bestlap&#45;detail -->
<g id="node21" class="node">
<title>:feature:gt7&#45;ps5&#45;readout&#45;my&#45;bestlap&#45;detail</title>
<ellipse fill="none" stroke="black" cx="1449.74" cy="-90" rx="207.96" ry="18"/>
<text text-anchor="middle" x="1449.74" y="-86.3" font-family="Times,serif" font-size="14.00">:feature:gt7&#45;ps5&#45;readout&#45;my&#45;bestlap&#45;detail</text>
</g>
<!-- :app:shared&#45;&gt;:feature:gt7&#45;ps5&#45;readout&#45;my&#45;bestlap&#45;detail -->
<g id="edge21" class="edge">
<title>:app:shared&#45;&gt;:feature:gt7&#45;ps5&#45;readout&#45;my&#45;bestlap&#45;detail</title>
<path fill="none" stroke="black" d="M2967.64,-159.38C2771.18,-154.31 2166.95,-137.29 1666.74,-108 1646.22,-106.8 1624.63,-105.34 1603.34,-103.79"/>
<polygon fill="black" stroke="black" points="1603.49,-100.29 1593.26,-103.05 1602.97,-107.27 1603.49,-100.29"/>
</g>
<!-- :core:data&#45;&gt;:core:domain -->
<g id="edge23" class="edge">
<title>:core:data&#45;&gt;:core:domain</title>
<path fill="none" stroke="black" d="M4549.5,-149.65C4557.52,-147.64 4565.87,-145.66 4573.74,-144 4673.16,-122.99 4860.93,-145.47 4790.74,-72 4753.44,-32.96 3967.29,-22.16 3709.68,-19.66"/>
<polygon fill="black" stroke="black" points="3709.67,-16.16 3699.64,-19.57 3709.61,-23.16 3709.67,-16.16"/>
</g>
<!-- :app:desktopApp -->
<g id="node6" class="node">
<title>:app:desktopApp</title>
<ellipse fill="none" stroke="black" cx="4605.74" cy="-234" rx="88.28" ry="18"/>
<text text-anchor="middle" x="4605.74" y="-230.3" font-family="Times,serif" font-size="14.00">:app:desktopApp</text>
</g>
<!-- :app:desktopApp&#45;&gt;:server -->
<g id="edge7" class="edge">
<title>:app:desktopApp&#45;&gt;:server</title>
<path fill="none" stroke="black" d="M4665.63,-220.58C4711.83,-210.64 4777.18,-195.79 4833.74,-180 4836.89,-179.12 4840.14,-178.17 4843.4,-177.18"/>
<polygon fill="black" stroke="black" points="4844.64,-180.46 4853.14,-174.14 4842.55,-173.78 4844.64,-180.46"/>
</g>
<!-- :app:desktopApp&#45;&gt;:app:shared -->
<g id="edge4" class="edge">
<title>:app:desktopApp&#45;&gt;:app:shared</title>
<path fill="none" stroke="black" d="M4520.33,-229.2C4242.75,-216.85 3368.97,-177.96 3107.42,-166.32"/>
<polygon fill="black" stroke="black" points="3107.41,-162.82 3097.27,-165.87 3107.1,-169.81 3107.41,-162.82"/>
</g>
<!-- :app:desktopApp&#45;&gt;:core:data -->
<g id="edge5" class="edge">
<title>:app:desktopApp&#45;&gt;:core:data</title>
<path fill="none" stroke="black" d="M4582.51,-216.41C4569.29,-206.97 4552.58,-195.03 4538.3,-184.83"/>
<polygon fill="black" stroke="black" points="4539.96,-181.71 4529.79,-178.75 4535.89,-187.41 4539.96,-181.71"/>
</g>
<!-- :core:lmu&#45;windows&#45;data -->
<g id="node7" class="node">
<title>:core:lmu&#45;windows&#45;data</title>
<ellipse fill="none" stroke="black" cx="4703.74" cy="-162" rx="120.78" ry="18"/>
<text text-anchor="middle" x="4703.74" y="-158.3" font-family="Times,serif" font-size="14.00">:core:lmu&#45;windows&#45;data</text>
</g>
<!-- :app:desktopApp&#45;&gt;:core:lmu&#45;windows&#45;data -->
<g id="edge6" class="edge">
<title>:app:desktopApp&#45;&gt;:core:lmu&#45;windows&#45;data</title>
<path fill="none" stroke="black" d="M4628.96,-216.41C4641.81,-207.24 4657.95,-195.7 4671.95,-185.71"/>
<polygon fill="black" stroke="black" points="4674.24,-188.37 4680.34,-179.71 4670.17,-182.68 4674.24,-188.37"/>
</g>
<!-- :core:lmu&#45;windows&#45;data&#45;&gt;:core:domain -->
<g id="edge25" class="edge">
<title>:core:lmu&#45;windows&#45;data&#45;&gt;:core:domain</title>
<path fill="none" stroke="black" d="M4761.73,-146.17C4781.04,-138.17 4800.47,-126.08 4811.74,-108 4820.2,-94.42 4822.8,-83.56 4811.74,-72 4773.68,-32.2 3970.63,-21.9 3709.79,-19.59"/>
<polygon fill="black" stroke="black" points="3709.65,-16.09 3699.62,-19.51 3709.59,-23.09 3709.65,-16.09"/>
</g>
<!-- :feature:main&#45;&gt;:core:domain -->
<g id="edge37" class="edge">
<title>:feature:main&#45;&gt;:core:domain</title>
<path fill="none" stroke="black" d="M2957.26,-77.26C2967.34,-75.28 2977.84,-73.42 2987.74,-72 3188.86,-43.19 3427.89,-28.56 3549.34,-22.51"/>
<polygon fill="black" stroke="black" points="3549.85,-25.99 3559.66,-22 3549.5,-19 3549.85,-25.99"/>
</g>
<!-- :feature:lmu&#45;windows&#45;connection&#45;&gt;:core:domain -->
<g id="edge29" class="edge">
<title>:feature:lmu&#45;windows&#45;connection&#45;&gt;:core:domain</title>
<path fill="none" stroke="black" d="M3253.48,-75.13C3343.43,-61.67 3477.89,-41.56 3559.07,-29.42"/>
<polygon fill="black" stroke="black" points="3559.81,-32.85 3569.18,-27.91 3558.78,-25.93 3559.81,-32.85"/>
</g>
<!-- :feature:server&#45;connection&#45;&gt;:core:domain -->
<g id="edge46" class="edge">
<title>:feature:server&#45;connection&#45;&gt;:core:domain</title>
<path fill="none" stroke="black" d="M3512.37,-72.59C3534.66,-62.32 3563.48,-49.05 3586.85,-38.29"/>
<polygon fill="black" stroke="black" points="3588.56,-41.36 3596.18,-34 3585.63,-35 3588.56,-41.36"/>
</g>
<!-- :feature:lmu&#45;windows&#45;narrator&#45;&gt;:core:domain -->
<g id="edge30" class="edge">
<title>:feature:lmu&#45;windows&#45;narrator&#45;&gt;:core:domain</title>
<path fill="none" stroke="black" d="M3745.48,-72.41C3723.11,-62.18 3694.33,-49.01 3670.94,-38.31"/>
<polygon fill="black" stroke="black" points="3672.16,-35.02 3661.61,-34.04 3669.24,-41.38 3672.16,-35.02"/>
</g>
<!-- :core:designsystem -->
<g id="node25" class="node">
<title>:core:designsystem</title>
<ellipse fill="none" stroke="black" cx="1449.74" cy="-18" rx="100.98" ry="18"/>
<text text-anchor="middle" x="1449.74" y="-14.3" font-family="Times,serif" font-size="14.00">:core:designsystem</text>
</g>
<!-- :feature:other&#45;license&#45;detail&#45;&gt;:core:designsystem -->
<g id="edge38" class="edge">
<title>:feature:other&#45;license&#45;detail&#45;&gt;:core:designsystem</title>
<path fill="none" stroke="black" d="M236.37,-76.93C253.46,-75.07 271.11,-73.33 287.74,-72 674,-41.04 1134.06,-26.72 1340.27,-21.48"/>
<polygon fill="black" stroke="black" points="1340.59,-24.98 1350.5,-21.23 1340.41,-17.98 1340.59,-24.98"/>
</g>
<!-- :feature:other&#45;list&#45;&gt;:core:domain -->
<g id="edge39" class="edge">
<title>:feature:other&#45;list&#45;&gt;:core:domain</title>
<path fill="none" stroke="black" d="M3977.81,-77.6C3900.18,-64.57 3773.87,-43.36 3696.36,-30.35"/>
<polygon fill="black" stroke="black" points="3696.67,-26.85 3686.22,-28.65 3695.51,-33.76 3696.67,-26.85"/>
</g>
<!-- :feature:other&#45;server&#45;ip&#45;detail&#45;&gt;:core:domain -->
<g id="edge41" class="edge">
<title>:feature:other&#45;server&#45;ip&#45;detail&#45;&gt;:core:domain</title>
<path fill="none" stroke="black" d="M1927.05,-76.86C1945.57,-74.99 1964.71,-73.26 1982.74,-72 2583.06,-30.1 3308.89,-21.27 3548.05,-19.46"/>
<polygon fill="black" stroke="black" points="3548.08,-22.96 3558.05,-19.38 3548.03,-15.96 3548.08,-22.96"/>
</g>
<!-- :feature:other&#45;server&#45;ip&#45;detail&#45;&gt;:core:designsystem -->
<g id="edge42" class="edge">
<title>:feature:other&#45;server&#45;ip&#45;detail&#45;&gt;:core:designsystem</title>
<path fill="none" stroke="black" d="M1747.49,-74.58C1682.98,-62.54 1591.45,-45.45 1526.95,-33.41"/>
<polygon fill="black" stroke="black" points="1527.31,-29.92 1516.83,-31.52 1526.02,-36.8 1527.31,-29.92"/>
</g>
<!-- :feature:other&#45;readout&#45;start&#45;sound&#45;detail&#45;&gt;:core:domain -->
<g id="edge40" class="edge">
<title>:feature:other&#45;readout&#45;start&#45;sound&#45;detail&#45;&gt;:core:domain</title>
<path fill="none" stroke="black" d="M4224.92,-76.4C4072.83,-61.76 3826.98,-38.09 3703.94,-26.24"/>
<polygon fill="black" stroke="black" points="3704.14,-22.74 3693.85,-25.27 3703.47,-29.71 3704.14,-22.74"/>
</g>
<!-- :feature:other&#45;volume&#45;detail&#45;&gt;:core:domain -->
<g id="edge43" class="edge">
<title>:feature:other&#45;volume&#45;detail&#45;&gt;:core:domain</title>
<path fill="none" stroke="black" d="M2229.87,-76.94C2247.44,-75.06 2265.62,-73.31 2282.74,-72 2761.72,-35.48 3338.61,-23.44 3547.93,-20.11"/>
<polygon fill="black" stroke="black" points="3548.27,-23.61 3558.21,-19.95 3548.16,-16.61 3548.27,-23.61"/>
</g>
<!-- :feature:other&#45;volume&#45;detail&#45;&gt;:core:designsystem -->
<g id="edge44" class="edge">
<title>:feature:other&#45;volume&#45;detail&#45;&gt;:core:designsystem</title>
<path fill="none" stroke="black" d="M2031.9,-77.38C2015.47,-75.54 1998.64,-73.69 1982.74,-72 1830.45,-55.8 1653.52,-38.51 1546.67,-28.24"/>
<polygon fill="black" stroke="black" points="1546.84,-24.74 1536.56,-27.26 1546.18,-31.7 1546.84,-24.74"/>
</g>
<!-- :feature:readout&#45;list&#45;&gt;:core:domain -->
<g id="edge45" class="edge">
<title>:feature:readout&#45;list&#45;&gt;:core:domain</title>
<path fill="none" stroke="black" d="M4605.22,-77.07C4591.79,-75.15 4577.86,-73.36 4564.74,-72 4249.09,-39.39 3871.32,-25.71 3709.15,-21.04"/>
<polygon fill="black" stroke="black" points="3708.87,-17.53 3698.78,-20.75 3708.67,-24.53 3708.87,-17.53"/>
</g>
<!-- :feature:lmu&#45;windows&#45;readout&#45;vehicle&#45;approach&#45;detail&#45;&gt;:core:domain -->
<g id="edge33" class="edge">
<title>:feature:lmu&#45;windows&#45;readout&#45;vehicle&#45;approach&#45;detail&#45;&gt;:core:domain</title>
<path fill="none" stroke="black" d="M2735.27,-77.13C2973.82,-61.61 3381.16,-35.11 3550.91,-24.06"/>
<polygon fill="black" stroke="black" points="3551.26,-27.55 3561.01,-23.41 3550.8,-20.56 3551.26,-27.55"/>
</g>
<!-- :feature:lmu&#45;windows&#45;readout&#45;vehicle&#45;approach&#45;detail&#45;&gt;:core:designsystem -->
<g id="edge34" class="edge">
<title>:feature:lmu&#45;windows&#45;readout&#45;vehicle&#45;approach&#45;detail&#45;&gt;:core:designsystem</title>
<path fill="none" stroke="black" d="M2368.12,-77.28C2134.32,-62.45 1739.51,-37.39 1553.1,-25.56"/>
<polygon fill="black" stroke="black" points="1553.23,-22.06 1543.03,-24.92 1552.78,-29.05 1553.23,-22.06"/>
</g>
<!-- :feature:lmu&#45;windows&#45;readout&#45;flag&#45;detail&#45;&gt;:core:domain -->
<g id="edge31" class="edge">
<title>:feature:lmu&#45;windows&#45;readout&#45;flag&#45;detail&#45;&gt;:core:domain</title>
<path fill="none" stroke="black" d="M631.76,-76.71C656.04,-74.86 681.13,-73.18 704.74,-72 1830.82,-15.83 3203.48,-17.23 3547.59,-18.59"/>
<polygon fill="black" stroke="black" points="3547.7,-22.09 3557.71,-18.63 3547.73,-15.09 3547.7,-22.09"/>
</g>
<!-- :feature:lmu&#45;windows&#45;readout&#45;flag&#45;detail&#45;&gt;:core:designsystem -->
<g id="edge32" class="edge">
<title>:feature:lmu&#45;windows&#45;readout&#45;flag&#45;detail&#45;&gt;:core:designsystem</title>
<path fill="none" stroke="black" d="M637.98,-77.25C660.31,-75.46 683.15,-73.65 704.74,-72 934.21,-54.46 1203.61,-35.77 1347.26,-25.95"/>
<polygon fill="black" stroke="black" points="1347.64,-29.43 1357.38,-25.26 1347.17,-22.45 1347.64,-29.43"/>
</g>
<!-- :feature:lmu&#45;windows&#45;readout&#45;vehicle&#45;damage&#45;detail&#45;&gt;:core:domain -->
<g id="edge35" class="edge">
<title>:feature:lmu&#45;windows&#45;readout&#45;vehicle&#45;damage&#45;detail&#45;&gt;:core:domain</title>
<path fill="none" stroke="black" d="M1142.29,-76.78C1172.43,-74.95 1203.49,-73.26 1232.74,-72 2140.57,-32.75 3243.23,-21.9 3547.59,-19.55"/>
<polygon fill="black" stroke="black" points="3547.68,-23.05 3557.65,-19.48 3547.62,-16.05 3547.68,-23.05"/>
</g>
<!-- :feature:lmu&#45;windows&#45;readout&#45;vehicle&#45;damage&#45;detail&#45;&gt;:core:designsystem -->
<g id="edge36" class="edge">
<title>:feature:lmu&#45;windows&#45;readout&#45;vehicle&#45;damage&#45;detail&#45;&gt;:core:designsystem</title>
<path fill="none" stroke="black" d="M1074.59,-73.59C1161.6,-60.93 1283.29,-43.22 1364.21,-31.45"/>
<polygon fill="black" stroke="black" points="1364.97,-34.87 1374.36,-29.97 1363.96,-27.95 1364.97,-34.87"/>
</g>
<!-- :feature:gt7&#45;ps5&#45;readout&#45;my&#45;bestlap&#45;detail&#45;&gt;:core:domain -->
<g id="edge27" class="edge">
<title>:feature:gt7&#45;ps5&#45;readout&#45;my&#45;bestlap&#45;detail&#45;&gt;:core:domain</title>
<path fill="none" stroke="black" d="M1591.78,-76.82C1616.75,-74.98 1642.49,-73.28 1666.74,-72 2396.19,-33.6 3279.74,-22.35 3547.82,-19.7"/>
<polygon fill="black" stroke="black" points="3547.89,-23.2 3557.86,-19.6 3547.83,-16.2 3547.89,-23.2"/>
</g>
<!-- :feature:gt7&#45;ps5&#45;readout&#45;my&#45;bestlap&#45;detail&#45;&gt;:core:designsystem -->
<g id="edge28" class="edge">
<title>:feature:gt7&#45;ps5&#45;readout&#45;my&#45;bestlap&#45;detail&#45;&gt;:core:designsystem</title>
<path fill="none" stroke="black" d="M1449.74,-71.7C1449.74,-63.98 1449.74,-54.71 1449.74,-46.11"/>
<polygon fill="black" stroke="black" points="1453.24,-46.1 1449.74,-36.1 1446.24,-46.1 1453.24,-46.1"/>
</g>
<!-- :app:webApp -->
<g id="node22" class="node">
<title>:app:webApp</title>
<ellipse fill="none" stroke="black" cx="3032.74" cy="-234" rx="70.69" ry="18"/>
<text text-anchor="middle" x="3032.74" y="-230.3" font-family="Times,serif" font-size="14.00">:app:webApp</text>
</g>
<!-- :app:webApp&#45;&gt;:app:shared -->
<g id="edge22" class="edge">
<title>:app:webApp&#45;&gt;:app:shared</title>
<path fill="none" stroke="black" d="M3032.74,-215.7C3032.74,-207.98 3032.74,-198.71 3032.74,-190.11"/>
<polygon fill="black" stroke="black" points="3036.24,-190.1 3032.74,-180.1 3029.24,-190.1 3036.24,-190.1"/>
</g>
<!-- :core:gt7&#45;ps5&#45;data -->
<g id="node23" class="node">
<title>:core:gt7&#45;ps5&#45;data</title>
<ellipse fill="none" stroke="black" cx="5008.74" cy="-90" rx="94.78" ry="18"/>
<text text-anchor="middle" x="5008.74" y="-86.3" font-family="Times,serif" font-size="14.00">:core:gt7&#45;ps5&#45;data</text>
</g>
<!-- :core:gt7&#45;ps5&#45;data&#45;&gt;:core:domain -->
<g id="edge24" class="edge">
<title>:core:gt7&#45;ps5&#45;data&#45;&gt;:core:domain</title>
<path fill="none" stroke="black" d="M4941.44,-77.29C4927.68,-75.23 4913.27,-73.33 4899.74,-72 4451.74,-27.87 3911.39,-20.41 3709.76,-19.21"/>
<polygon fill="black" stroke="black" points="3709.57,-15.71 3699.55,-19.15 3709.53,-22.71 3709.57,-15.71"/>
</g>
<!-- :feature:gt7&#45;ps5&#45;narrator -->
<g id="node24" class="node">
<title>:feature:gt7&#45;ps5&#45;narrator</title>
<ellipse fill="none" stroke="black" cx="5248.74" cy="-90" rx="127.28" ry="18"/>
<text text-anchor="middle" x="5248.74" y="-86.3" font-family="Times,serif" font-size="14.00">:feature:gt7&#45;ps5&#45;narrator</text>
</g>
<!-- :feature:gt7&#45;ps5&#45;narrator&#45;&gt;:core:domain -->
<g id="edge26" class="edge">
<title>:feature:gt7&#45;ps5&#45;narrator&#45;&gt;:core:domain</title>
<path fill="none" stroke="black" d="M5161.06,-76.88C5145.01,-74.99 5128.39,-73.26 5112.74,-72 4578.41,-29.15 3933.06,-20.94 3709.54,-19.37"/>
<polygon fill="black" stroke="black" points="3709.56,-15.87 3699.54,-19.3 3709.51,-22.87 3709.56,-15.87"/>
</g>
</g>
</svg>
