<?xml version="1.0" encoding="UTF-8" standalone="no"?>
<!DOCTYPE svg PUBLIC "-//W3C//DTD SVG 1.1//EN"
 "http://www.w3.org/Graphics/SVG/1.1/DTD/svg11.dtd">
<!-- Generated by graphviz version 2.43.0 (0)
 -->
<!-- Title: G Pages: 1 -->
<svg width="2437pt" height="260pt"
 viewBox="0.00 0.00 2436.90 260.00" xmlns="http://www.w3.org/2000/svg" xmlns:xlink="http://www.w3.org/1999/xlink">
<g id="graph0" class="graph" transform="scale(1 1) rotate(0) translate(4 256)">
<title>G</title>
<polygon fill="white" stroke="transparent" points="-4,4 -4,-256 2432.9,-256 2432.9,4 -4,4"/>
<!-- :server -->
<g id="node1" class="node">
<title>:server</title>
<ellipse fill="none" stroke="black" cx="2345.99" cy="-90" rx="43.59" ry="18"/>
<text text-anchor="middle" x="2345.99" y="-86.3" font-family="Times,serif" font-size="14.00">:server</text>
</g>
<!-- :core:domain -->
<g id="node2" class="node">
<title>:core:domain</title>
<ellipse fill="none" stroke="black" cx="1784.99" cy="-18" rx="70.69" ry="18"/>
<text text-anchor="middle" x="1784.99" y="-14.3" font-family="Times,serif" font-size="14.00">:core:domain</text>
</g>
<!-- :server&#45;&gt;:core:domain -->
<g id="edge1" class="edge">
<title>:server&#45;&gt;:core:domain</title>
<path fill="none" stroke="black" d="M2314.04,-77.58C2307.17,-75.46 2299.89,-73.45 2292.99,-72 2143.65,-40.61 1965.53,-27.47 1864.81,-22.23"/>
<polygon fill="black" stroke="black" points="1864.87,-18.73 1854.71,-21.72 1864.52,-25.72 1864.87,-18.73"/>
</g>
<!-- :app:androidApp -->
<g id="node3" class="node">
<title>:app:androidApp</title>
<ellipse fill="none" stroke="black" cx="1909.99" cy="-234" rx="87.18" ry="18"/>
<text text-anchor="middle" x="1909.99" y="-230.3" font-family="Times,serif" font-size="14.00">:app:androidApp</text>
</g>
<!-- :app:shared -->
<g id="node4" class="node">
<title>:app:shared</title>
<ellipse fill="none" stroke="black" cx="1678.99" cy="-162" rx="65.79" ry="18"/>
<text text-anchor="middle" x="1678.99" y="-158.3" font-family="Times,serif" font-size="14.00">:app:shared</text>
</g>
<!-- :app:androidApp&#45;&gt;:app:shared -->
<g id="edge2" class="edge">
<title>:app:androidApp&#45;&gt;:app:shared</title>
<path fill="none" stroke="black" d="M1862.96,-218.75C1824.65,-207.14 1770.62,-190.77 1731.02,-178.77"/>
<polygon fill="black" stroke="black" points="1731.87,-175.37 1721.28,-175.82 1729.84,-182.07 1731.87,-175.37"/>
</g>
<!-- :core:data -->
<g id="node5" class="node">
<title>:core:data</title>
<ellipse fill="none" stroke="black" cx="2316.99" cy="-162" rx="57.39" ry="18"/>
<text text-anchor="middle" x="2316.99" y="-158.3" font-family="Times,serif" font-size="14.00">:core:data</text>
</g>
<!-- :app:androidApp&#45;&gt;:core:data -->
<g id="edge3" class="edge">
<title>:app:androidApp&#45;&gt;:core:data</title>
<path fill="none" stroke="black" d="M1974.93,-221.83C2052.84,-208.43 2182.36,-186.15 2257.68,-173.2"/>
<polygon fill="black" stroke="black" points="2258.68,-176.58 2267.94,-171.44 2257.49,-169.68 2258.68,-176.58"/>
</g>
<!-- :feature:lmu&#45;connection -->
<g id="node7" class="node">
<title>:feature:lmu&#45;connection</title>
<ellipse fill="none" stroke="black" cx="1344.99" cy="-90" rx="120.78" ry="18"/>
<text text-anchor="middle" x="1344.99" y="-86.3" font-family="Times,serif" font-size="14.00">:feature:lmu&#45;connection</text>
</g>
<!-- :app:shared&#45;&gt;:feature:lmu&#45;connection -->
<g id="edge7" class="edge">
<title>:app:shared&#45;&gt;:feature:lmu&#45;connection</title>
<path fill="none" stroke="black" d="M1628.62,-150.44C1573.79,-138.95 1485.44,-120.44 1421.91,-107.12"/>
<polygon fill="black" stroke="black" points="1422.44,-103.66 1411.94,-105.03 1421,-110.51 1422.44,-103.66"/>
</g>
<!-- :feature:narrator -->
<g id="node8" class="node">
<title>:feature:narrator</title>
<ellipse fill="none" stroke="black" cx="1572.99" cy="-90" rx="89.08" ry="18"/>
<text text-anchor="middle" x="1572.99" y="-86.3" font-family="Times,serif" font-size="14.00">:feature:narrator</text>
</g>
<!-- :app:shared&#45;&gt;:feature:narrator -->
<g id="edge8" class="edge">
<title>:app:shared&#45;&gt;:feature:narrator</title>
<path fill="none" stroke="black" d="M1654.93,-145.12C1640.5,-135.59 1621.94,-123.33 1606.13,-112.89"/>
<polygon fill="black" stroke="black" points="1607.95,-109.9 1597.68,-107.31 1604.1,-115.74 1607.95,-109.9"/>
</g>
<!-- :feature:other&#45;detail -->
<g id="node9" class="node">
<title>:feature:other&#45;detail</title>
<ellipse fill="none" stroke="black" cx="1784.99" cy="-90" rx="104.78" ry="18"/>
<text text-anchor="middle" x="1784.99" y="-86.3" font-family="Times,serif" font-size="14.00">:feature:other&#45;detail</text>
</g>
<!-- :app:shared&#45;&gt;:feature:other&#45;detail -->
<g id="edge9" class="edge">
<title>:app:shared&#45;&gt;:feature:other&#45;detail</title>
<path fill="none" stroke="black" d="M1703.04,-145.12C1717.37,-135.65 1735.77,-123.5 1751.5,-113.11"/>
<polygon fill="black" stroke="black" points="1753.51,-115.98 1759.92,-107.55 1749.65,-110.14 1753.51,-115.98"/>
</g>
<!-- :feature:other&#45;list -->
<g id="node10" class="node">
<title>:feature:other&#45;list</title>
<ellipse fill="none" stroke="black" cx="2000.99" cy="-90" rx="92.88" ry="18"/>
<text text-anchor="middle" x="2000.99" y="-86.3" font-family="Times,serif" font-size="14.00">:feature:other&#45;list</text>
</g>
<!-- :app:shared&#45;&gt;:feature:other&#45;list -->
<g id="edge10" class="edge">
<title>:app:shared&#45;&gt;:feature:other&#45;list</title>
<path fill="none" stroke="black" d="M1728.95,-150.14C1783.33,-138.32 1870.67,-119.33 1931.67,-106.07"/>
<polygon fill="black" stroke="black" points="1932.57,-109.45 1941.6,-103.91 1931.09,-102.61 1932.57,-109.45"/>
</g>
<!-- :feature:readout -->
<g id="node11" class="node">
<title>:feature:readout</title>
<ellipse fill="none" stroke="black" cx="2197.99" cy="-90" rx="86.38" ry="18"/>
<text text-anchor="middle" x="2197.99" y="-86.3" font-family="Times,serif" font-size="14.00">:feature:readout</text>
</g>
<!-- :app:shared&#45;&gt;:feature:readout -->
<g id="edge11" class="edge">
<title>:app:shared&#45;&gt;:feature:readout</title>
<path fill="none" stroke="black" d="M1738.81,-154.53C1821.04,-145.4 1973.54,-127.66 2102.99,-108 2110.42,-106.87 2118.16,-105.62 2125.87,-104.31"/>
<polygon fill="black" stroke="black" points="2126.71,-107.72 2135.98,-102.58 2125.53,-100.82 2126.71,-107.72"/>
</g>
<!-- :feature:lmu&#45;readout&#45;vehicle&#45;approach&#45;detail -->
<g id="node12" class="node">
<title>:feature:lmu&#45;readout&#45;vehicle&#45;approach&#45;detail</title>
<ellipse fill="none" stroke="black" cx="987.99" cy="-90" rx="217.96" ry="18"/>
<text text-anchor="middle" x="987.99" y="-86.3" font-family="Times,serif" font-size="14.00">:feature:lmu&#45;readout&#45;vehicle&#45;approach&#45;detail</text>
</g>
<!-- :app:shared&#45;&gt;:feature:lmu&#45;readout&#45;vehicle&#45;approach&#45;detail -->
<g id="edge12" class="edge">
<title>:app:shared&#45;&gt;:feature:lmu&#45;readout&#45;vehicle&#45;approach&#45;detail</title>
<path fill="none" stroke="black" d="M1618.57,-154.88C1510.24,-143.91 1280.26,-120.61 1130.02,-105.39"/>
<polygon fill="black" stroke="black" points="1130.09,-101.88 1119.79,-104.35 1129.39,-108.84 1130.09,-101.88"/>
</g>
<!-- :feature:lmu&#45;readout&#45;flag&#45;detail -->
<g id="node13" class="node">
<title>:feature:lmu&#45;readout&#45;flag&#45;detail</title>
<ellipse fill="none" stroke="black" cx="155.99" cy="-90" rx="155.97" ry="18"/>
<text text-anchor="middle" x="155.99" y="-86.3" font-family="Times,serif" font-size="14.00">:feature:lmu&#45;readout&#45;flag&#45;detail</text>
</g>
<!-- :app:shared&#45;&gt;:feature:lmu&#45;readout&#45;flag&#45;detail -->
<g id="edge13" class="edge">
<title>:app:shared&#45;&gt;:feature:lmu&#45;readout&#45;flag&#45;detail</title>
<path fill="none" stroke="black" d="M1613.54,-159.92C1417.4,-156.38 817.28,-143.22 320.99,-108 305.79,-106.92 289.82,-105.56 274.06,-104.09"/>
<polygon fill="black" stroke="black" points="274.03,-100.57 263.74,-103.1 273.36,-107.53 274.03,-100.57"/>
</g>
<!-- :feature:lmu&#45;readout&#45;vehicle&#45;damage&#45;detail -->
<g id="node14" class="node">
<title>:feature:lmu&#45;readout&#45;vehicle&#45;damage&#45;detail</title>
<ellipse fill="none" stroke="black" cx="540.99" cy="-90" rx="211.46" ry="18"/>
<text text-anchor="middle" x="540.99" y="-86.3" font-family="Times,serif" font-size="14.00">:feature:lmu&#45;readout&#45;vehicle&#45;damage&#45;detail</text>
</g>
<!-- :app:shared&#45;&gt;:feature:lmu&#45;readout&#45;vehicle&#45;damage&#45;detail -->
<g id="edge14" class="edge">
<title>:app:shared&#45;&gt;:feature:lmu&#45;readout&#45;vehicle&#45;damage&#45;detail</title>
<path fill="none" stroke="black" d="M1614.97,-157.73C1465.42,-150.01 1081.53,-129.64 760.99,-108 741.03,-106.65 720.07,-105.15 699.33,-103.61"/>
<polygon fill="black" stroke="black" points="699.41,-100.1 689.18,-102.85 698.89,-107.08 699.41,-100.1"/>
</g>
<!-- :core:data&#45;&gt;:core:domain -->
<g id="edge16" class="edge">
<title>:core:data&#45;&gt;:core:domain</title>
<path fill="none" stroke="black" d="M2352.32,-147.78C2369.7,-139.26 2389.02,-126.31 2398.99,-108 2406.64,-93.95 2409.8,-83.79 2398.99,-72 2363.64,-33.47 2024.34,-22.88 1865.83,-20.03"/>
<polygon fill="black" stroke="black" points="1865.72,-16.52 1855.66,-19.85 1865.6,-23.52 1865.72,-16.52"/>
</g>
<!-- :app:desktopApp -->
<g id="node6" class="node">
<title>:app:desktopApp</title>
<ellipse fill="none" stroke="black" cx="2316.99" cy="-234" rx="88.28" ry="18"/>
<text text-anchor="middle" x="2316.99" y="-230.3" font-family="Times,serif" font-size="14.00">:app:desktopApp</text>
</g>
<!-- :app:desktopApp&#45;&gt;:core:domain -->
<g id="edge6" class="edge">
<title>:app:desktopApp&#45;&gt;:core:domain</title>
<path fill="none" stroke="black" d="M2340.45,-216.54C2381.62,-185.75 2458.63,-118.38 2415.99,-72 2379.47,-32.28 2027.89,-22.31 1865.94,-19.82"/>
<polygon fill="black" stroke="black" points="1865.6,-16.32 1855.55,-19.67 1865.49,-23.32 1865.6,-16.32"/>
</g>
<!-- :app:desktopApp&#45;&gt;:app:shared -->
<g id="edge4" class="edge">
<title>:app:desktopApp&#45;&gt;:app:shared</title>
<path fill="none" stroke="black" d="M2241.29,-224.7C2116.69,-211.02 1870.15,-183.97 1749.22,-170.71"/>
<polygon fill="black" stroke="black" points="1749.29,-167.19 1738.97,-169.58 1748.53,-174.15 1749.29,-167.19"/>
</g>
<!-- :app:desktopApp&#45;&gt;:core:data -->
<g id="edge5" class="edge">
<title>:app:desktopApp&#45;&gt;:core:data</title>
<path fill="none" stroke="black" d="M2316.99,-215.7C2316.99,-207.98 2316.99,-198.71 2316.99,-190.11"/>
<polygon fill="black" stroke="black" points="2320.49,-190.1 2316.99,-180.1 2313.49,-190.1 2320.49,-190.1"/>
</g>
<!-- :feature:lmu&#45;connection&#45;&gt;:core:domain -->
<g id="edge17" class="edge">
<title>:feature:lmu&#45;connection&#45;&gt;:core:domain</title>
<path fill="none" stroke="black" d="M1424.41,-76.36C1507.68,-63.12 1637.18,-42.51 1716.22,-29.94"/>
<polygon fill="black" stroke="black" points="1717.23,-33.32 1726.55,-28.3 1716.13,-26.41 1717.23,-33.32"/>
</g>
<!-- :feature:narrator&#45;&gt;:core:domain -->
<g id="edge24" class="edge">
<title>:feature:narrator&#45;&gt;:core:domain</title>
<path fill="none" stroke="black" d="M1617.43,-74.33C1651.39,-63.11 1698.25,-47.64 1733.78,-35.91"/>
<polygon fill="black" stroke="black" points="1735.08,-39.16 1743.48,-32.7 1732.89,-32.52 1735.08,-39.16"/>
</g>
<!-- :feature:other&#45;detail&#45;&gt;:core:domain -->
<g id="edge25" class="edge">
<title>:feature:other&#45;detail&#45;&gt;:core:domain</title>
<path fill="none" stroke="black" d="M1784.99,-71.7C1784.99,-63.98 1784.99,-54.71 1784.99,-46.11"/>
<polygon fill="black" stroke="black" points="1788.49,-46.1 1784.99,-36.1 1781.49,-46.1 1788.49,-46.1"/>
</g>
<!-- :feature:other&#45;list&#45;&gt;:core:domain -->
<g id="edge26" class="edge">
<title>:feature:other&#45;list&#45;&gt;:core:domain</title>
<path fill="none" stroke="black" d="M1955.44,-74.24C1920.71,-62.98 1872.85,-47.47 1836.68,-35.75"/>
<polygon fill="black" stroke="black" points="1837.4,-32.31 1826.81,-32.55 1835.24,-38.97 1837.4,-32.31"/>
</g>
<!-- :feature:readout&#45;&gt;:core:domain -->
<g id="edge27" class="edge">
<title>:feature:readout&#45;&gt;:core:domain</title>
<path fill="none" stroke="black" d="M2134.9,-77.6C2124.25,-75.71 2113.31,-73.78 2102.99,-72 2016.87,-57.12 1917.5,-40.67 1853.08,-30.11"/>
<polygon fill="black" stroke="black" points="1853.48,-26.63 1843.05,-28.46 1852.35,-33.54 1853.48,-26.63"/>
</g>
<!-- :feature:lmu&#45;readout&#45;vehicle&#45;approach&#45;detail&#45;&gt;:core:domain -->
<g id="edge20" class="edge">
<title>:feature:lmu&#45;readout&#45;vehicle&#45;approach&#45;detail&#45;&gt;:core:domain</title>
<path fill="none" stroke="black" d="M1131.39,-76.4C1300.87,-61.52 1576.53,-37.31 1709.08,-25.67"/>
<polygon fill="black" stroke="black" points="1709.49,-29.14 1719.14,-24.78 1708.88,-22.17 1709.49,-29.14"/>
</g>
<!-- :core:designsystem -->
<g id="node16" class="node">
<title>:core:designsystem</title>
<ellipse fill="none" stroke="black" cx="540.99" cy="-18" rx="100.98" ry="18"/>
<text text-anchor="middle" x="540.99" y="-14.3" font-family="Times,serif" font-size="14.00">:core:designsystem</text>
</g>
<!-- :feature:lmu&#45;readout&#45;vehicle&#45;approach&#45;detail&#45;&gt;:core:designsystem -->
<g id="edge21" class="edge">
<title>:feature:lmu&#45;readout&#45;vehicle&#45;approach&#45;detail&#45;&gt;:core:designsystem</title>
<path fill="none" stroke="black" d="M891.27,-73.85C811.55,-61.37 699.66,-43.85 623.96,-31.99"/>
<polygon fill="black" stroke="black" points="624.42,-28.52 613.99,-30.43 623.33,-35.44 624.42,-28.52"/>
</g>
<!-- :feature:lmu&#45;readout&#45;flag&#45;detail&#45;&gt;:core:domain -->
<g id="edge18" class="edge">
<title>:feature:lmu&#45;readout&#45;flag&#45;detail&#45;&gt;:core:domain</title>
<path fill="none" stroke="black" d="M263.29,-76.9C282.48,-75.03 302.31,-73.3 320.99,-72 847.66,-35.38 1482.79,-23.3 1704.2,-20.04"/>
<polygon fill="black" stroke="black" points="1704.48,-23.54 1714.43,-19.89 1704.38,-16.54 1704.48,-23.54"/>
</g>
<!-- :feature:lmu&#45;readout&#45;flag&#45;detail&#45;&gt;:core:designsystem -->
<g id="edge19" class="edge">
<title>:feature:lmu&#45;readout&#45;flag&#45;detail&#45;&gt;:core:designsystem</title>
<path fill="none" stroke="black" d="M235.76,-74.5C302.48,-62.36 397.11,-45.16 463.26,-33.13"/>
<polygon fill="black" stroke="black" points="464,-36.56 473.21,-31.32 462.74,-29.67 464,-36.56"/>
</g>
<!-- :feature:lmu&#45;readout&#45;vehicle&#45;damage&#45;detail&#45;&gt;:core:domain -->
<g id="edge22" class="edge">
<title>:feature:lmu&#45;readout&#45;vehicle&#45;damage&#45;detail&#45;&gt;:core:domain</title>
<path fill="none" stroke="black" d="M688.28,-77.1C712.56,-75.29 737.48,-73.52 760.99,-72 1112.87,-49.3 1533.26,-30 1705.49,-22.43"/>
<polygon fill="black" stroke="black" points="1705.89,-25.91 1715.73,-21.98 1705.58,-18.92 1705.89,-25.91"/>
</g>
<!-- :feature:lmu&#45;readout&#45;vehicle&#45;damage&#45;detail&#45;&gt;:core:designsystem -->
<g id="edge23" class="edge">
<title>:feature:lmu&#45;readout&#45;vehicle&#45;damage&#45;detail&#45;&gt;:core:designsystem</title>
<path fill="none" stroke="black" d="M540.99,-71.7C540.99,-63.98 540.99,-54.71 540.99,-46.11"/>
<polygon fill="black" stroke="black" points="544.49,-46.1 540.99,-36.1 537.49,-46.1 544.49,-46.1"/>
</g>
<!-- :app:webApp -->
<g id="node15" class="node">
<title>:app:webApp</title>
<ellipse fill="none" stroke="black" cx="1678.99" cy="-234" rx="70.69" ry="18"/>
<text text-anchor="middle" x="1678.99" y="-230.3" font-family="Times,serif" font-size="14.00">:app:webApp</text>
</g>
<!-- :app:webApp&#45;&gt;:app:shared -->
<g id="edge15" class="edge">
<title>:app:webApp&#45;&gt;:app:shared</title>
<path fill="none" stroke="black" d="M1678.99,-215.7C1678.99,-207.98 1678.99,-198.71 1678.99,-190.11"/>
<polygon fill="black" stroke="black" points="1682.49,-190.1 1678.99,-180.1 1675.49,-190.1 1682.49,-190.1"/>
</g>
</g>
</svg>
