<?xml version="1.0" encoding="UTF-8" standalone="no"?>
<!DOCTYPE svg PUBLIC "-//W3C//DTD SVG 1.1//EN"
 "http://www.w3.org/Graphics/SVG/1.1/DTD/svg11.dtd">
<!-- Generated by graphviz version 2.43.0 (0)
 -->
<!-- Title: G Pages: 1 -->
<svg width="6051pt" height="260pt"
 viewBox="0.00 0.00 6050.63 260.00" xmlns="http://www.w3.org/2000/svg" xmlns:xlink="http://www.w3.org/1999/xlink">
<g id="graph0" class="graph" transform="scale(1 1) rotate(0) translate(4 256)">
<title>G</title>
<polygon fill="white" stroke="transparent" points="-4,4 -4,-256 6046.63,-256 6046.63,4 -4,4"/>
<!-- :server -->
<g id="node1" class="node">
<title>:server</title>
<ellipse fill="none" stroke="black" cx="302.89" cy="-162" rx="43.59" ry="18"/>
<text text-anchor="middle" x="302.89" y="-158.3" font-family="Times,serif" font-size="14.00">:server</text>
</g>
<!-- :core:domain -->
<g id="node2" class="node">
<title>:core:domain</title>
<ellipse fill="none" stroke="black" cx="1997.89" cy="-18" rx="70.69" ry="18"/>
<text text-anchor="middle" x="1997.89" y="-14.3" font-family="Times,serif" font-size="14.00">:core:domain</text>
</g>
<!-- :server&#45;&gt;:core:domain -->
<g id="edge1" class="edge">
<title>:server&#45;&gt;:core:domain</title>
<path fill="none" stroke="black" d="M303.19,-143.94C304.57,-123.15 310.37,-88.72 332.89,-72 397.04,-24.36 1591.68,-19.48 1916.79,-19.03"/>
<polygon fill="black" stroke="black" points="1917.08,-22.53 1927.08,-19.02 1917.07,-15.53 1917.08,-22.53"/>
</g>
<!-- :app:androidApp -->
<g id="node3" class="node">
<title>:app:androidApp</title>
<ellipse fill="none" stroke="black" cx="639.89" cy="-234" rx="87.18" ry="18"/>
<text text-anchor="middle" x="639.89" y="-230.3" font-family="Times,serif" font-size="14.00">:app:androidApp</text>
</g>
<!-- :app:shared -->
<g id="node4" class="node">
<title>:app:shared</title>
<ellipse fill="none" stroke="black" cx="2507.89" cy="-162" rx="65.79" ry="18"/>
<text text-anchor="middle" x="2507.89" y="-158.3" font-family="Times,serif" font-size="14.00">:app:shared</text>
</g>
<!-- :app:androidApp&#45;&gt;:app:shared -->
<g id="edge2" class="edge">
<title>:app:androidApp&#45;&gt;:app:shared</title>
<path fill="none" stroke="black" d="M724.7,-229.82C1039.23,-218.04 2136.13,-176.93 2433.2,-165.8"/>
<polygon fill="black" stroke="black" points="2433.57,-169.29 2443.43,-165.42 2433.31,-162.29 2433.57,-169.29"/>
</g>
<!-- :core:data -->
<g id="node5" class="node">
<title>:core:data</title>
<ellipse fill="none" stroke="black" cx="628.89" cy="-162" rx="57.39" ry="18"/>
<text text-anchor="middle" x="628.89" y="-158.3" font-family="Times,serif" font-size="14.00">:core:data</text>
</g>
<!-- :app:androidApp&#45;&gt;:core:data -->
<g id="edge3" class="edge">
<title>:app:androidApp&#45;&gt;:core:data</title>
<path fill="none" stroke="black" d="M637.17,-215.7C635.96,-207.98 634.5,-198.71 633.15,-190.11"/>
<polygon fill="black" stroke="black" points="636.59,-189.44 631.58,-180.1 629.67,-190.53 636.59,-189.44"/>
</g>
<!-- :core:gt7&#45;ps5&#45;data -->
<g id="node6" class="node">
<title>:core:gt7&#45;ps5&#45;data</title>
<ellipse fill="none" stroke="black" cx="458.89" cy="-162" rx="94.78" ry="18"/>
<text text-anchor="middle" x="458.89" y="-158.3" font-family="Times,serif" font-size="14.00">:core:gt7&#45;ps5&#45;data</text>
</g>
<!-- :app:androidApp&#45;&gt;:core:gt7&#45;ps5&#45;data -->
<g id="edge4" class="edge">
<title>:app:androidApp&#45;&gt;:core:gt7&#45;ps5&#45;data</title>
<path fill="none" stroke="black" d="M600.61,-217.81C573.53,-207.33 537.31,-193.33 508.26,-182.09"/>
<polygon fill="black" stroke="black" points="509.3,-178.74 498.71,-178.4 506.78,-185.27 509.3,-178.74"/>
</g>
<!-- :feature:main -->
<g id="node9" class="node">
<title>:feature:main</title>
<ellipse fill="none" stroke="black" cx="1869.89" cy="-90" rx="73.39" ry="18"/>
<text text-anchor="middle" x="1869.89" y="-86.3" font-family="Times,serif" font-size="14.00">:feature:main</text>
</g>
<!-- :app:shared&#45;&gt;:feature:main -->
<g id="edge10" class="edge">
<title>:app:shared&#45;&gt;:feature:main</title>
<path fill="none" stroke="black" d="M2444.36,-157.15C2340.96,-150.39 2129.98,-134.51 1952.89,-108 1946.24,-107 1939.33,-105.82 1932.45,-104.55"/>
<polygon fill="black" stroke="black" points="1932.91,-101.08 1922.43,-102.64 1931.59,-107.96 1932.91,-101.08"/>
</g>
<!-- :feature:lmu&#45;windows&#45;connection -->
<g id="node10" class="node">
<title>:feature:lmu&#45;windows&#45;connection</title>
<ellipse fill="none" stroke="black" cx="2125.89" cy="-90" rx="164.37" ry="18"/>
<text text-anchor="middle" x="2125.89" y="-86.3" font-family="Times,serif" font-size="14.00">:feature:lmu&#45;windows&#45;connection</text>
</g>
<!-- :app:shared&#45;&gt;:feature:lmu&#45;windows&#45;connection -->
<g id="edge11" class="edge">
<title>:app:shared&#45;&gt;:feature:lmu&#45;windows&#45;connection</title>
<path fill="none" stroke="black" d="M2454.77,-151.27C2393.2,-139.98 2290.68,-121.2 2216.44,-107.59"/>
<polygon fill="black" stroke="black" points="2216.63,-104.07 2206.17,-105.71 2215.37,-110.96 2216.63,-104.07"/>
</g>
<!-- :feature:gt7&#45;ps5&#45;connection -->
<g id="node11" class="node">
<title>:feature:gt7&#45;ps5&#45;connection</title>
<ellipse fill="none" stroke="black" cx="508.89" cy="-90" rx="138.38" ry="18"/>
<text text-anchor="middle" x="508.89" y="-86.3" font-family="Times,serif" font-size="14.00">:feature:gt7&#45;ps5&#45;connection</text>
</g>
<!-- :app:shared&#45;&gt;:feature:gt7&#45;ps5&#45;connection -->
<g id="edge12" class="edge">
<title>:app:shared&#45;&gt;:feature:gt7&#45;ps5&#45;connection</title>
<path fill="none" stroke="black" d="M2442.21,-161.15C2202.79,-161.28 1354.33,-157.95 656.89,-108 642.95,-107 628.3,-105.67 613.87,-104.18"/>
<polygon fill="black" stroke="black" points="614.23,-100.7 603.92,-103.13 613.49,-107.66 614.23,-100.7"/>
</g>
<!-- :feature:server&#45;connection -->
<g id="node12" class="node">
<title>:feature:server&#45;connection</title>
<ellipse fill="none" stroke="black" cx="798.89" cy="-90" rx="133.48" ry="18"/>
<text text-anchor="middle" x="798.89" y="-86.3" font-family="Times,serif" font-size="14.00">:feature:server&#45;connection</text>
</g>
<!-- :app:shared&#45;&gt;:feature:server&#45;connection -->
<g id="edge13" class="edge">
<title>:app:shared&#45;&gt;:feature:server&#45;connection</title>
<path fill="none" stroke="black" d="M2442.09,-160.78C2226.48,-159.64 1521.7,-152.51 940.89,-108 927.87,-107 914.21,-105.7 900.71,-104.25"/>
<polygon fill="black" stroke="black" points="900.76,-100.74 890.44,-103.12 900,-107.7 900.76,-100.74"/>
</g>
<!-- :feature:lmu&#45;windows&#45;narrator -->
<g id="node13" class="node">
<title>:feature:lmu&#45;windows&#45;narrator</title>
<ellipse fill="none" stroke="black" cx="3839.89" cy="-90" rx="153.27" ry="18"/>
<text text-anchor="middle" x="3839.89" y="-86.3" font-family="Times,serif" font-size="14.00">:feature:lmu&#45;windows&#45;narrator</text>
</g>
<!-- :app:shared&#45;&gt;:feature:lmu&#45;windows&#45;narrator -->
<g id="edge14" class="edge">
<title>:app:shared&#45;&gt;:feature:lmu&#45;windows&#45;narrator</title>
<path fill="none" stroke="black" d="M2572.98,-159.41C2750.41,-154.77 3257.41,-139.56 3677.89,-108 3692.69,-106.89 3708.24,-105.52 3723.6,-104.04"/>
<polygon fill="black" stroke="black" points="3724.05,-107.52 3733.66,-103.06 3723.36,-100.55 3724.05,-107.52"/>
</g>
<!-- :feature:gt7&#45;ps5&#45;narrator -->
<g id="node14" class="node">
<title>:feature:gt7&#45;ps5&#45;narrator</title>
<ellipse fill="none" stroke="black" cx="4138.89" cy="-90" rx="127.28" ry="18"/>
<text text-anchor="middle" x="4138.89" y="-86.3" font-family="Times,serif" font-size="14.00">:feature:gt7&#45;ps5&#45;narrator</text>
</g>
<!-- :app:shared&#45;&gt;:feature:gt7&#45;ps5&#45;narrator -->
<g id="edge15" class="edge">
<title>:app:shared&#45;&gt;:feature:gt7&#45;ps5&#45;narrator</title>
<path fill="none" stroke="black" d="M2573.54,-160.73C2782.5,-159.43 3450.82,-151.88 4001.89,-108 4014.55,-106.99 4027.84,-105.67 4040.95,-104.21"/>
<polygon fill="black" stroke="black" points="4041.4,-107.69 4050.94,-103.07 4040.6,-100.73 4041.4,-107.69"/>
</g>
<!-- :feature:other&#45;license&#45;detail -->
<g id="node15" class="node">
<title>:feature:other&#45;license&#45;detail</title>
<ellipse fill="none" stroke="black" cx="5902.89" cy="-90" rx="139.98" ry="18"/>
<text text-anchor="middle" x="5902.89" y="-86.3" font-family="Times,serif" font-size="14.00">:feature:other&#45;license&#45;detail</text>
</g>
<!-- :app:shared&#45;&gt;:feature:other&#45;license&#45;detail -->
<g id="edge16" class="edge">
<title>:app:shared&#45;&gt;:feature:other&#45;license&#45;detail</title>
<path fill="none" stroke="black" d="M2573.52,-160.81C2975,-159.5 5103.69,-150.61 5754.89,-108 5768.94,-107.08 5783.71,-105.78 5798.25,-104.31"/>
<polygon fill="black" stroke="black" points="5798.69,-107.78 5808.27,-103.27 5797.96,-100.82 5798.69,-107.78"/>
</g>
<!-- :feature:other&#45;list -->
<g id="node16" class="node">
<title>:feature:other&#45;list</title>
<ellipse fill="none" stroke="black" cx="1042.89" cy="-90" rx="92.88" ry="18"/>
<text text-anchor="middle" x="1042.89" y="-86.3" font-family="Times,serif" font-size="14.00">:feature:other&#45;list</text>
</g>
<!-- :app:shared&#45;&gt;:feature:other&#45;list -->
<g id="edge17" class="edge">
<title>:app:shared&#45;&gt;:feature:other&#45;list</title>
<path fill="none" stroke="black" d="M2442.02,-161.42C2244.65,-162.04 1640.99,-159.28 1143.89,-108 1135.21,-107.11 1126.16,-105.93 1117.18,-104.61"/>
<polygon fill="black" stroke="black" points="1117.52,-101.12 1107.11,-103.07 1116.46,-108.04 1117.52,-101.12"/>
</g>
<!-- :feature:other&#45;server&#45;ip&#45;detail -->
<g id="node17" class="node">
<title>:feature:other&#45;server&#45;ip&#45;detail</title>
<ellipse fill="none" stroke="black" cx="4432.89" cy="-90" rx="148.67" ry="18"/>
<text text-anchor="middle" x="4432.89" y="-86.3" font-family="Times,serif" font-size="14.00">:feature:other&#45;server&#45;ip&#45;detail</text>
</g>
<!-- :app:shared&#45;&gt;:feature:other&#45;server&#45;ip&#45;detail -->
<g id="edge18" class="edge">
<title>:app:shared&#45;&gt;:feature:other&#45;server&#45;ip&#45;detail</title>
<path fill="none" stroke="black" d="M2573.77,-160.86C2806.54,-159.96 3611.99,-153.54 4274.89,-108 4289.79,-106.98 4305.46,-105.63 4320.9,-104.13"/>
<polygon fill="black" stroke="black" points="4321.39,-107.6 4331,-103.13 4320.7,-100.63 4321.39,-107.6"/>
</g>
<!-- :feature:other&#45;console&#45;ip&#45;detail -->
<g id="node18" class="node">
<title>:feature:other&#45;console&#45;ip&#45;detail</title>
<ellipse fill="none" stroke="black" cx="4752.89" cy="-90" rx="153.27" ry="18"/>
<text text-anchor="middle" x="4752.89" y="-86.3" font-family="Times,serif" font-size="14.00">:feature:other&#45;console&#45;ip&#45;detail</text>
</g>
<!-- :app:shared&#45;&gt;:feature:other&#45;console&#45;ip&#45;detail -->
<g id="edge19" class="edge">
<title>:app:shared&#45;&gt;:feature:other&#45;console&#45;ip&#45;detail</title>
<path fill="none" stroke="black" d="M2573.64,-161.22C2831.38,-161.68 3797.62,-159.63 4590.89,-108 4606.17,-107.01 4622.23,-105.67 4638.06,-104.19"/>
<polygon fill="black" stroke="black" points="4638.8,-107.63 4648.42,-103.19 4638.13,-100.66 4638.8,-107.63"/>
</g>
<!-- :feature:other&#45;readout&#45;start&#45;sound&#45;detail -->
<g id="node19" class="node">
<title>:feature:other&#45;readout&#45;start&#45;sound&#45;detail</title>
<ellipse fill="none" stroke="black" cx="1352.89" cy="-90" rx="199.56" ry="18"/>
<text text-anchor="middle" x="1352.89" y="-86.3" font-family="Times,serif" font-size="14.00">:feature:other&#45;readout&#45;start&#45;sound&#45;detail</text>
</g>
<!-- :app:shared&#45;&gt;:feature:other&#45;readout&#45;start&#45;sound&#45;detail -->
<g id="edge20" class="edge">
<title>:app:shared&#45;&gt;:feature:other&#45;readout&#45;start&#45;sound&#45;detail</title>
<path fill="none" stroke="black" d="M2443.9,-157.97C2291.23,-150.63 1893.59,-130.78 1561.89,-108 1542.78,-106.69 1522.7,-105.2 1502.85,-103.66"/>
<polygon fill="black" stroke="black" points="1503.06,-100.16 1492.82,-102.87 1502.52,-107.14 1503.06,-100.16"/>
</g>
<!-- :feature:other&#45;volume&#45;detail -->
<g id="node20" class="node">
<title>:feature:other&#45;volume&#45;detail</title>
<ellipse fill="none" stroke="black" cx="5064.89" cy="-90" rx="141.07" ry="18"/>
<text text-anchor="middle" x="5064.89" y="-86.3" font-family="Times,serif" font-size="14.00">:feature:other&#45;volume&#45;detail</text>
</g>
<!-- :app:shared&#45;&gt;:feature:other&#45;volume&#45;detail -->
<g id="edge21" class="edge">
<title>:app:shared&#45;&gt;:feature:other&#45;volume&#45;detail</title>
<path fill="none" stroke="black" d="M2573.38,-160.36C2909.21,-156.98 4440.64,-140.03 4914.89,-108 4929.02,-107.05 4943.86,-105.74 4958.5,-104.27"/>
<polygon fill="black" stroke="black" points="4958.99,-107.73 4968.58,-103.22 4958.27,-100.77 4958.99,-107.73"/>
</g>
<!-- :feature:readout&#45;list -->
<g id="node21" class="node">
<title>:feature:readout&#45;list</title>
<ellipse fill="none" stroke="black" cx="1674.89" cy="-90" rx="103.98" ry="18"/>
<text text-anchor="middle" x="1674.89" y="-86.3" font-family="Times,serif" font-size="14.00">:feature:readout&#45;list</text>
</g>
<!-- :app:shared&#45;&gt;:feature:readout&#45;list -->
<g id="edge22" class="edge">
<title>:app:shared&#45;&gt;:feature:readout&#45;list</title>
<path fill="none" stroke="black" d="M2443.69,-157.91C2317.67,-151.49 2029.23,-135 1787.89,-108 1778.2,-106.92 1768.07,-105.62 1758.03,-104.24"/>
<polygon fill="black" stroke="black" points="1758.42,-100.76 1748.03,-102.83 1757.44,-107.69 1758.42,-100.76"/>
</g>
<!-- :feature:lmu&#45;windows&#45;readout&#45;vehicle&#45;approach&#45;detail -->
<g id="node22" class="node">
<title>:feature:lmu&#45;windows&#45;readout&#45;vehicle&#45;approach&#45;detail</title>
<ellipse fill="none" stroke="black" cx="5484.89" cy="-90" rx="260.75" ry="18"/>
<text text-anchor="middle" x="5484.89" y="-86.3" font-family="Times,serif" font-size="14.00">:feature:lmu&#45;windows&#45;readout&#45;vehicle&#45;approach&#45;detail</text>
</g>
<!-- :app:shared&#45;&gt;:feature:lmu&#45;windows&#45;readout&#45;vehicle&#45;approach&#45;detail -->
<g id="edge23" class="edge">
<title>:app:shared&#45;&gt;:feature:lmu&#45;windows&#45;readout&#45;vehicle&#45;approach&#45;detail</title>
<path fill="none" stroke="black" d="M2573.62,-160.76C2875.75,-159.45 4161.39,-151.46 5214.89,-108 5241.74,-106.89 5270.08,-105.43 5297.9,-103.83"/>
<polygon fill="black" stroke="black" points="5298.34,-107.31 5308.12,-103.23 5297.93,-100.32 5298.34,-107.31"/>
</g>
<!-- :feature:lmu&#45;windows&#45;readout&#45;flag&#45;detail -->
<g id="node23" class="node">
<title>:feature:lmu&#45;windows&#45;readout&#45;flag&#45;detail</title>
<ellipse fill="none" stroke="black" cx="2507.89" cy="-90" rx="199.56" ry="18"/>
<text text-anchor="middle" x="2507.89" y="-86.3" font-family="Times,serif" font-size="14.00">:feature:lmu&#45;windows&#45;readout&#45;flag&#45;detail</text>
</g>
<!-- :app:shared&#45;&gt;:feature:lmu&#45;windows&#45;readout&#45;flag&#45;detail -->
<g id="edge24" class="edge">
<title>:app:shared&#45;&gt;:feature:lmu&#45;windows&#45;readout&#45;flag&#45;detail</title>
<path fill="none" stroke="black" d="M2507.89,-143.7C2507.89,-135.98 2507.89,-126.71 2507.89,-118.11"/>
<polygon fill="black" stroke="black" points="2511.39,-118.1 2507.89,-108.1 2504.39,-118.1 2511.39,-118.1"/>
</g>
<!-- :feature:lmu&#45;windows&#45;readout&#45;vehicle&#45;damage&#45;detail -->
<g id="node24" class="node">
<title>:feature:lmu&#45;windows&#45;readout&#45;vehicle&#45;damage&#45;detail</title>
<ellipse fill="none" stroke="black" cx="2979.89" cy="-90" rx="254.55" ry="18"/>
<text text-anchor="middle" x="2979.89" y="-86.3" font-family="Times,serif" font-size="14.00">:feature:lmu&#45;windows&#45;readout&#45;vehicle&#45;damage&#45;detail</text>
</g>
<!-- :app:shared&#45;&gt;:feature:lmu&#45;windows&#45;readout&#45;vehicle&#45;damage&#45;detail -->
<g id="edge25" class="edge">
<title>:app:shared&#45;&gt;:feature:lmu&#45;windows&#45;readout&#45;vehicle&#45;damage&#45;detail</title>
<path fill="none" stroke="black" d="M2564.35,-152.63C2638.44,-141.64 2770.23,-122.09 2865.56,-107.96"/>
<polygon fill="black" stroke="black" points="2866.16,-111.41 2875.54,-106.48 2865.13,-104.48 2866.16,-111.41"/>
</g>
<!-- :feature:gt7&#45;ps5&#45;readout&#45;my&#45;bestlap&#45;detail -->
<g id="node25" class="node">
<title>:feature:gt7&#45;ps5&#45;readout&#45;my&#45;bestlap&#45;detail</title>
<ellipse fill="none" stroke="black" cx="3460.89" cy="-90" rx="207.96" ry="18"/>
<text text-anchor="middle" x="3460.89" y="-86.3" font-family="Times,serif" font-size="14.00">:feature:gt7&#45;ps5&#45;readout&#45;my&#45;bestlap&#45;detail</text>
</g>
<!-- :app:shared&#45;&gt;:feature:gt7&#45;ps5&#45;readout&#45;my&#45;bestlap&#45;detail -->
<g id="edge26" class="edge">
<title>:app:shared&#45;&gt;:feature:gt7&#45;ps5&#45;readout&#45;my&#45;bestlap&#45;detail</title>
<path fill="none" stroke="black" d="M2570.91,-156.6C2698.13,-147.68 2994.78,-126.73 3243.89,-108 3263.07,-106.56 3283.2,-105.02 3303.15,-103.47"/>
<polygon fill="black" stroke="black" points="3303.54,-106.95 3313.24,-102.69 3303,-99.98 3303.54,-106.95"/>
</g>
<!-- :core:data&#45;&gt;:core:domain -->
<g id="edge28" class="edge">
<title>:core:data&#45;&gt;:core:domain</title>
<path fill="none" stroke="black" d="M586.75,-149.65C578.85,-147.66 570.63,-145.69 562.89,-144 470.18,-123.79 295.89,-140.18 361.89,-72 416.44,-15.65 1593.82,-17.08 1916.65,-18.53"/>
<polygon fill="black" stroke="black" points="1916.85,-22.04 1926.87,-18.58 1916.88,-15.04 1916.85,-22.04"/>
</g>
<!-- :core:gt7&#45;ps5&#45;data&#45;&gt;:core:domain -->
<g id="edge29" class="edge">
<title>:core:gt7&#45;ps5&#45;data&#45;&gt;:core:domain</title>
<path fill="none" stroke="black" d="M399.35,-147.84C378.12,-139.97 356.39,-127.53 343.89,-108 335.26,-94.53 332.76,-83.49 343.89,-72 371.55,-43.44 1588.57,-24.64 1916.97,-20.08"/>
<polygon fill="black" stroke="black" points="1917.4,-23.57 1927.35,-19.93 1917.3,-16.57 1917.4,-23.57"/>
</g>
<!-- :app:desktopApp -->
<g id="node7" class="node">
<title>:app:desktopApp</title>
<ellipse fill="none" stroke="black" cx="446.89" cy="-234" rx="88.28" ry="18"/>
<text text-anchor="middle" x="446.89" y="-230.3" font-family="Times,serif" font-size="14.00">:app:desktopApp</text>
</g>
<!-- :app:desktopApp&#45;&gt;:server -->
<g id="edge9" class="edge">
<title>:app:desktopApp&#45;&gt;:server</title>
<path fill="none" stroke="black" d="M414.21,-217.12C391.9,-206.27 362.31,-191.88 339.24,-180.67"/>
<polygon fill="black" stroke="black" points="340.64,-177.46 330.12,-176.24 337.58,-183.76 340.64,-177.46"/>
</g>
<!-- :app:desktopApp&#45;&gt;:app:shared -->
<g id="edge5" class="edge">
<title>:app:desktopApp&#45;&gt;:app:shared</title>
<path fill="none" stroke="black" d="M507.76,-220.93C519.69,-218.96 532.15,-217.18 543.89,-216 920.15,-178.16 2118.01,-166.11 2431.96,-163.56"/>
<polygon fill="black" stroke="black" points="2432.34,-167.06 2442.31,-163.48 2432.29,-160.06 2432.34,-167.06"/>
</g>
<!-- :app:desktopApp&#45;&gt;:core:data -->
<g id="edge6" class="edge">
<title>:app:desktopApp&#45;&gt;:core:data</title>
<path fill="none" stroke="black" d="M486.38,-217.81C515.34,-206.67 554.68,-191.54 584.69,-180"/>
<polygon fill="black" stroke="black" points="586.01,-183.24 594.08,-176.39 583.49,-176.71 586.01,-183.24"/>
</g>
<!-- :app:desktopApp&#45;&gt;:core:gt7&#45;ps5&#45;data -->
<g id="edge8" class="edge">
<title>:app:desktopApp&#45;&gt;:core:gt7&#45;ps5&#45;data</title>
<path fill="none" stroke="black" d="M449.86,-215.7C451.18,-207.98 452.77,-198.71 454.24,-190.11"/>
<polygon fill="black" stroke="black" points="457.72,-190.55 455.96,-180.1 450.82,-189.37 457.72,-190.55"/>
</g>
<!-- :core:lmu&#45;windows&#45;data -->
<g id="node8" class="node">
<title>:core:lmu&#45;windows&#45;data</title>
<ellipse fill="none" stroke="black" cx="120.89" cy="-162" rx="120.78" ry="18"/>
<text text-anchor="middle" x="120.89" y="-158.3" font-family="Times,serif" font-size="14.00">:core:lmu&#45;windows&#45;data</text>
</g>
<!-- :app:desktopApp&#45;&gt;:core:lmu&#45;windows&#45;data -->
<g id="edge7" class="edge">
<title>:app:desktopApp&#45;&gt;:core:lmu&#45;windows&#45;data</title>
<path fill="none" stroke="black" d="M388.23,-220.4C334.6,-208.89 254.96,-191.79 196.56,-179.25"/>
<polygon fill="black" stroke="black" points="197.15,-175.8 186.64,-177.12 195.68,-182.64 197.15,-175.8"/>
</g>
<!-- :core:lmu&#45;windows&#45;data&#45;&gt;:core:domain -->
<g id="edge30" class="edge">
<title>:core:lmu&#45;windows&#45;data&#45;&gt;:core:domain</title>
<path fill="none" stroke="black" d="M146.69,-144.36C181.45,-122.97 246.02,-86.82 306.89,-72 463.94,-33.76 1601.17,-22.1 1916.82,-19.58"/>
<polygon fill="black" stroke="black" points="1917.29,-23.07 1927.26,-19.5 1917.23,-16.07 1917.29,-23.07"/>
</g>
<!-- :feature:main&#45;&gt;:core:domain -->
<g id="edge45" class="edge">
<title>:feature:main&#45;&gt;:core:domain</title>
<path fill="none" stroke="black" d="M1898.61,-73.29C1916.81,-63.34 1940.55,-50.36 1960.24,-39.59"/>
<polygon fill="black" stroke="black" points="1962.17,-42.53 1969.26,-34.66 1958.81,-36.38 1962.17,-42.53"/>
</g>
<!-- :feature:lmu&#45;windows&#45;connection&#45;&gt;:core:domain -->
<g id="edge36" class="edge">
<title>:feature:lmu&#45;windows&#45;connection&#45;&gt;:core:domain</title>
<path fill="none" stroke="black" d="M2095.23,-72.23C2077.31,-62.43 2054.54,-49.98 2035.54,-39.59"/>
<polygon fill="black" stroke="black" points="2037,-36.4 2026.54,-34.67 2033.64,-42.54 2037,-36.4"/>
</g>
<!-- :feature:gt7&#45;ps5&#45;connection&#45;&gt;:core:domain -->
<g id="edge31" class="edge">
<title>:feature:gt7&#45;ps5&#45;connection&#45;&gt;:core:domain</title>
<path fill="none" stroke="black" d="M604.72,-76.93C622.06,-75.05 640,-73.3 656.89,-72 1133.78,-35.24 1708.14,-23.35 1917,-20.09"/>
<polygon fill="black" stroke="black" points="1917.32,-23.58 1927.26,-19.93 1917.21,-16.58 1917.32,-23.58"/>
</g>
<!-- :feature:server&#45;connection&#45;&gt;:core:domain -->
<g id="edge56" class="edge">
<title>:feature:server&#45;connection&#45;&gt;:core:domain</title>
<path fill="none" stroke="black" d="M891.22,-77.01C907.74,-75.13 924.81,-73.36 940.89,-72 1304.83,-41.13 1740.91,-26.24 1917.65,-21.13"/>
<polygon fill="black" stroke="black" points="1918,-24.62 1927.9,-20.84 1917.8,-17.63 1918,-24.62"/>
</g>
<!-- :feature:lmu&#45;windows&#45;narrator&#45;&gt;:core:domain -->
<g id="edge37" class="edge">
<title>:feature:lmu&#45;windows&#45;narrator&#45;&gt;:core:domain</title>
<path fill="none" stroke="black" d="M3734.98,-76.86C3716,-74.99 3696.37,-73.26 3677.89,-72 3064.04,-30.17 2321.72,-21.29 2078.96,-19.46"/>
<polygon fill="black" stroke="black" points="2078.83,-15.96 2068.81,-19.39 2078.78,-22.96 2078.83,-15.96"/>
</g>
<!-- :core:designsystem -->
<g id="node27" class="node">
<title>:core:designsystem</title>
<ellipse fill="none" stroke="black" cx="4285.89" cy="-18" rx="100.98" ry="18"/>
<text text-anchor="middle" x="4285.89" y="-14.3" font-family="Times,serif" font-size="14.00">:core:designsystem</text>
</g>
<!-- :feature:lmu&#45;windows&#45;narrator&#45;&gt;:core:designsystem -->
<g id="edge38" class="edge">
<title>:feature:lmu&#45;windows&#45;narrator&#45;&gt;:core:designsystem</title>
<path fill="none" stroke="black" d="M3927.74,-75.21C4007.52,-62.69 4124.36,-44.35 4202.67,-32.06"/>
<polygon fill="black" stroke="black" points="4203.64,-35.45 4212.98,-30.44 4202.55,-28.54 4203.64,-35.45"/>
</g>
<!-- :feature:gt7&#45;ps5&#45;narrator&#45;&gt;:core:domain -->
<g id="edge32" class="edge">
<title>:feature:gt7&#45;ps5&#45;narrator&#45;&gt;:core:domain</title>
<path fill="none" stroke="black" d="M4051.31,-76.85C4034.92,-74.94 4017.9,-73.2 4001.89,-72 3618.43,-43.21 2403.8,-24.63 2078.63,-20.09"/>
<polygon fill="black" stroke="black" points="2078.4,-16.58 2068.35,-19.94 2078.3,-23.58 2078.4,-16.58"/>
</g>
<!-- :feature:gt7&#45;ps5&#45;narrator&#45;&gt;:core:designsystem -->
<g id="edge33" class="edge">
<title>:feature:gt7&#45;ps5&#45;narrator&#45;&gt;:core:designsystem</title>
<path fill="none" stroke="black" d="M4173.35,-72.59C4194.15,-62.69 4220.81,-49.99 4242.96,-39.44"/>
<polygon fill="black" stroke="black" points="4244.62,-42.53 4252.15,-35.07 4241.61,-36.21 4244.62,-42.53"/>
</g>
<!-- :feature:other&#45;license&#45;detail&#45;&gt;:core:designsystem -->
<g id="edge48" class="edge">
<title>:feature:other&#45;license&#45;detail&#45;&gt;:core:designsystem</title>
<path fill="none" stroke="black" d="M5807.06,-76.88C5789.72,-75.01 5771.78,-73.27 5754.89,-72 5248.43,-33.84 4641.61,-22.98 4396.56,-20.04"/>
<polygon fill="black" stroke="black" points="4396.27,-16.53 4386.23,-19.91 4396.18,-23.53 4396.27,-16.53"/>
</g>
<!-- :feature:other&#45;list&#45;&gt;:core:domain -->
<g id="edge49" class="edge">
<title>:feature:other&#45;list&#45;&gt;:core:domain</title>
<path fill="none" stroke="black" d="M1107.67,-77.06C1119.68,-75.14 1132.14,-73.35 1143.89,-72 1427.37,-39.44 1766.24,-25.9 1917.78,-21.17"/>
<polygon fill="black" stroke="black" points="1918.04,-24.67 1927.93,-20.86 1917.83,-17.67 1918.04,-24.67"/>
</g>
<!-- :feature:other&#45;server&#45;ip&#45;detail&#45;&gt;:core:domain -->
<g id="edge51" class="edge">
<title>:feature:other&#45;server&#45;ip&#45;detail&#45;&gt;:core:domain</title>
<path fill="none" stroke="black" d="M4331.43,-76.81C4312.65,-74.92 4293.2,-73.2 4274.89,-72 3834.47,-43.23 2430.7,-24.33 2078.59,-19.97"/>
<polygon fill="black" stroke="black" points="2078.53,-16.47 2068.48,-19.84 2078.44,-23.47 2078.53,-16.47"/>
</g>
<!-- :feature:other&#45;server&#45;ip&#45;detail&#45;&gt;:core:designsystem -->
<g id="edge52" class="edge">
<title>:feature:other&#45;server&#45;ip&#45;detail&#45;&gt;:core:designsystem</title>
<path fill="none" stroke="black" d="M4398.05,-72.41C4377.25,-62.51 4350.67,-49.85 4328.61,-39.34"/>
<polygon fill="black" stroke="black" points="4330,-36.13 4319.46,-34.99 4326.99,-42.45 4330,-36.13"/>
</g>
<!-- :feature:other&#45;console&#45;ip&#45;detail&#45;&gt;:core:domain -->
<g id="edge46" class="edge">
<title>:feature:other&#45;console&#45;ip&#45;detail&#45;&gt;:core:domain</title>
<path fill="none" stroke="black" d="M4648.42,-76.73C4629.31,-74.86 4609.52,-73.17 4590.89,-72 4084.61,-40.32 2460.79,-23.35 2078.87,-19.74"/>
<polygon fill="black" stroke="black" points="2078.77,-16.24 2068.74,-19.64 2078.7,-23.23 2078.77,-16.24"/>
</g>
<!-- :feature:other&#45;console&#45;ip&#45;detail&#45;&gt;:core:designsystem -->
<g id="edge47" class="edge">
<title>:feature:other&#45;console&#45;ip&#45;detail&#45;&gt;:core:designsystem</title>
<path fill="none" stroke="black" d="M4662.29,-75.42C4577.88,-62.77 4452.99,-44.05 4370.55,-31.69"/>
<polygon fill="black" stroke="black" points="4370.87,-28.2 4360.46,-30.18 4369.83,-35.12 4370.87,-28.2"/>
</g>
<!-- :feature:other&#45;readout&#45;start&#45;sound&#45;detail&#45;&gt;:core:domain -->
<g id="edge50" class="edge">
<title>:feature:other&#45;readout&#45;start&#45;sound&#45;detail&#45;&gt;:core:domain</title>
<path fill="none" stroke="black" d="M1474.97,-75.75C1607.42,-61.38 1814.61,-38.89 1924.2,-27"/>
<polygon fill="black" stroke="black" points="1924.61,-30.47 1934.17,-25.92 1923.85,-23.51 1924.61,-30.47"/>
</g>
<!-- :feature:other&#45;volume&#45;detail&#45;&gt;:core:domain -->
<g id="edge53" class="edge">
<title>:feature:other&#45;volume&#45;detail&#45;&gt;:core:domain</title>
<path fill="none" stroke="black" d="M4968.99,-76.76C4951.04,-74.86 4932.41,-73.15 4914.89,-72 4340.97,-34.35 2489.66,-21.79 2079.05,-19.43"/>
<polygon fill="black" stroke="black" points="2078.78,-15.93 2068.76,-19.38 2078.74,-22.93 2078.78,-15.93"/>
</g>
<!-- :feature:other&#45;volume&#45;detail&#45;&gt;:core:designsystem -->
<g id="edge54" class="edge">
<title>:feature:other&#45;volume&#45;detail&#45;&gt;:core:designsystem</title>
<path fill="none" stroke="black" d="M4964.88,-77.26C4948.2,-75.42 4931.06,-73.6 4914.89,-72 4728.86,-53.62 4511.47,-36.21 4387.11,-26.63"/>
<polygon fill="black" stroke="black" points="4387.09,-23.11 4376.85,-25.84 4386.55,-30.09 4387.09,-23.11"/>
</g>
<!-- :feature:readout&#45;list&#45;&gt;:core:domain -->
<g id="edge55" class="edge">
<title>:feature:readout&#45;list&#45;&gt;:core:domain</title>
<path fill="none" stroke="black" d="M1737.17,-75.5C1794.41,-63.1 1878.8,-44.81 1935.94,-32.43"/>
<polygon fill="black" stroke="black" points="1936.89,-35.8 1945.93,-30.26 1935.41,-28.96 1936.89,-35.8"/>
</g>
<!-- :feature:lmu&#45;windows&#45;readout&#45;vehicle&#45;approach&#45;detail&#45;&gt;:core:domain -->
<g id="edge41" class="edge">
<title>:feature:lmu&#45;windows&#45;readout&#45;vehicle&#45;approach&#45;detail&#45;&gt;:core:domain</title>
<path fill="none" stroke="black" d="M5308.49,-76.71C5277.32,-74.88 5245.16,-73.2 5214.89,-72 3966.19,-22.43 2443.07,-19.02 2078.86,-18.95"/>
<polygon fill="black" stroke="black" points="2078.68,-15.45 2068.67,-18.95 2078.67,-22.45 2078.68,-15.45"/>
</g>
<!-- :feature:lmu&#45;windows&#45;readout&#45;vehicle&#45;approach&#45;detail&#45;&gt;:core:designsystem -->
<g id="edge42" class="edge">
<title>:feature:lmu&#45;windows&#45;readout&#45;vehicle&#45;approach&#45;detail&#45;&gt;:core:designsystem</title>
<path fill="none" stroke="black" d="M5300.44,-77.24C5271.8,-75.46 5242.55,-73.66 5214.89,-72 4915.87,-54.06 4562.62,-34.3 4390.58,-24.77"/>
<polygon fill="black" stroke="black" points="4390.7,-21.27 4380.52,-24.21 4390.31,-28.26 4390.7,-21.27"/>
</g>
<!-- :feature:lmu&#45;windows&#45;readout&#45;flag&#45;detail&#45;&gt;:core:domain -->
<g id="edge39" class="edge">
<title>:feature:lmu&#45;windows&#45;readout&#45;flag&#45;detail&#45;&gt;:core:domain</title>
<path fill="none" stroke="black" d="M2403.14,-74.62C2303.18,-60.9 2155.33,-40.61 2068.58,-28.7"/>
<polygon fill="black" stroke="black" points="2068.95,-25.22 2058.57,-27.33 2068,-32.16 2068.95,-25.22"/>
</g>
<!-- :feature:lmu&#45;windows&#45;readout&#45;flag&#45;detail&#45;&gt;:core:designsystem -->
<g id="edge40" class="edge">
<title>:feature:lmu&#45;windows&#45;readout&#45;flag&#45;detail&#45;&gt;:core:designsystem</title>
<path fill="none" stroke="black" d="M2644.6,-76.89C2668.36,-75.05 2692.83,-73.33 2715.89,-72 3263.67,-40.39 3920.12,-25.73 4176.12,-20.9"/>
<polygon fill="black" stroke="black" points="4176.23,-24.4 4186.17,-20.71 4176.1,-17.4 4176.23,-24.4"/>
</g>
<!-- :feature:lmu&#45;windows&#45;readout&#45;vehicle&#45;damage&#45;detail&#45;&gt;:core:domain -->
<g id="edge43" class="edge">
<title>:feature:lmu&#45;windows&#45;readout&#45;vehicle&#45;damage&#45;detail&#45;&gt;:core:domain</title>
<path fill="none" stroke="black" d="M2807.71,-76.73C2592.15,-61.36 2232.13,-35.7 2075.08,-24.5"/>
<polygon fill="black" stroke="black" points="2075.26,-21.01 2065.04,-23.79 2074.76,-27.99 2075.26,-21.01"/>
</g>
<!-- :feature:lmu&#45;windows&#45;readout&#45;vehicle&#45;damage&#45;detail&#45;&gt;:core:designsystem -->
<g id="edge44" class="edge">
<title>:feature:lmu&#45;windows&#45;readout&#45;vehicle&#45;damage&#45;detail&#45;&gt;:core:designsystem</title>
<path fill="none" stroke="black" d="M3158.8,-77.15C3187.26,-75.36 3216.38,-73.59 3243.89,-72 3585.71,-52.3 3990.84,-32.8 4179.43,-23.94"/>
<polygon fill="black" stroke="black" points="4179.79,-27.43 4189.62,-23.46 4179.46,-20.43 4179.79,-27.43"/>
</g>
<!-- :feature:gt7&#45;ps5&#45;readout&#45;my&#45;bestlap&#45;detail&#45;&gt;:core:domain -->
<g id="edge34" class="edge">
<title>:feature:gt7&#45;ps5&#45;readout&#45;my&#45;bestlap&#45;detail&#45;&gt;:core:domain</title>
<path fill="none" stroke="black" d="M3316.78,-76.99C3292.46,-75.17 3267.46,-73.42 3243.89,-72 2803.9,-45.42 2275.71,-27.6 2077.87,-21.41"/>
<polygon fill="black" stroke="black" points="2077.95,-17.91 2067.85,-21.1 2077.73,-24.91 2077.95,-17.91"/>
</g>
<!-- :feature:gt7&#45;ps5&#45;readout&#45;my&#45;bestlap&#45;detail&#45;&gt;:core:designsystem -->
<g id="edge35" class="edge">
<title>:feature:gt7&#45;ps5&#45;readout&#45;my&#45;bestlap&#45;detail&#45;&gt;:core:designsystem</title>
<path fill="none" stroke="black" d="M3603.65,-76.89C3770.29,-62.75 4041.51,-39.74 4186.71,-27.42"/>
<polygon fill="black" stroke="black" points="4187.27,-30.88 4196.94,-26.55 4186.68,-23.91 4187.27,-30.88"/>
</g>
<!-- :app:webApp -->
<g id="node26" class="node">
<title>:app:webApp</title>
<ellipse fill="none" stroke="black" cx="2507.89" cy="-234" rx="70.69" ry="18"/>
<text text-anchor="middle" x="2507.89" y="-230.3" font-family="Times,serif" font-size="14.00">:app:webApp</text>
</g>
<!-- :app:webApp&#45;&gt;:app:shared -->
<g id="edge27" class="edge">
<title>:app:webApp&#45;&gt;:app:shared</title>
<path fill="none" stroke="black" d="M2507.89,-215.7C2507.89,-207.98 2507.89,-198.71 2507.89,-190.11"/>
<polygon fill="black" stroke="black" points="2511.39,-190.1 2507.89,-180.1 2504.39,-190.1 2511.39,-190.1"/>
</g>
</g>
</svg>
