<?xml version="1.0" encoding="UTF-8" standalone="no"?>
<!DOCTYPE svg PUBLIC "-//W3C//DTD SVG 1.1//EN"
 "http://www.w3.org/Graphics/SVG/1.1/DTD/svg11.dtd">
<!-- Generated by graphviz version 2.43.0 (0)
 -->
<!-- Title: G Pages: 1 -->
<svg width="1347pt" height="260pt"
 viewBox="0.00 0.00 1346.98 260.00" xmlns="http://www.w3.org/2000/svg" xmlns:xlink="http://www.w3.org/1999/xlink">
<g id="graph0" class="graph" transform="scale(1 1) rotate(0) translate(4 256)">
<title>G</title>
<polygon fill="white" stroke="transparent" points="-4,4 -4,-256 1342.98,-256 1342.98,4 -4,4"/>
<!-- :server -->
<g id="node1" class="node">
<title>:server</title>
<ellipse fill="none" stroke="black" cx="627.59" cy="-90" rx="43.59" ry="18"/>
<text text-anchor="middle" x="627.59" y="-86.3" font-family="Times,serif" font-size="14.00">:server</text>
</g>
<!-- :core:domain -->
<g id="node2" class="node">
<title>:core:domain</title>
<ellipse fill="none" stroke="black" cx="944.59" cy="-18" rx="70.69" ry="18"/>
<text text-anchor="middle" x="944.59" y="-14.3" font-family="Times,serif" font-size="14.00">:core:domain</text>
</g>
<!-- :server&#45;&gt;:core:domain -->
<g id="edge1" class="edge">
<title>:server&#45;&gt;:core:domain</title>
<path fill="none" stroke="black" d="M660.22,-77.9C666.92,-75.8 673.95,-73.73 680.59,-72 746.79,-54.8 823.56,-39.94 877.19,-30.38"/>
<polygon fill="black" stroke="black" points="878.03,-33.78 887.26,-28.59 876.81,-26.89 878.03,-33.78"/>
</g>
<!-- :app:androidApp -->
<g id="node3" class="node">
<title>:app:androidApp</title>
<ellipse fill="none" stroke="black" cx="1057.59" cy="-234" rx="87.18" ry="18"/>
<text text-anchor="middle" x="1057.59" y="-230.3" font-family="Times,serif" font-size="14.00">:app:androidApp</text>
</g>
<!-- :app:shared -->
<g id="node4" class="node">
<title>:app:shared</title>
<ellipse fill="none" stroke="black" cx="891.59" cy="-162" rx="65.79" ry="18"/>
<text text-anchor="middle" x="891.59" y="-158.3" font-family="Times,serif" font-size="14.00">:app:shared</text>
</g>
<!-- :app:androidApp&#45;&gt;:app:shared -->
<g id="edge2" class="edge">
<title>:app:androidApp&#45;&gt;:app:shared</title>
<path fill="none" stroke="black" d="M1021.16,-217.64C995.92,-206.99 962.17,-192.76 935.45,-181.49"/>
<polygon fill="black" stroke="black" points="936.52,-178.15 925.95,-177.49 933.8,-184.6 936.52,-178.15"/>
</g>
<!-- :core:data -->
<g id="node5" class="node">
<title>:core:data</title>
<ellipse fill="none" stroke="black" cx="1207.59" cy="-162" rx="57.39" ry="18"/>
<text text-anchor="middle" x="1207.59" y="-158.3" font-family="Times,serif" font-size="14.00">:core:data</text>
</g>
<!-- :app:androidApp&#45;&gt;:core:data -->
<g id="edge3" class="edge">
<title>:app:androidApp&#45;&gt;:core:data</title>
<path fill="none" stroke="black" d="M1091.25,-217.29C1113.98,-206.69 1144.06,-192.65 1167.95,-181.5"/>
<polygon fill="black" stroke="black" points="1169.52,-184.63 1177.1,-177.23 1166.56,-178.29 1169.52,-184.63"/>
</g>
<!-- :feature:narrator -->
<g id="node7" class="node">
<title>:feature:narrator</title>
<ellipse fill="none" stroke="black" cx="1137.59" cy="-90" rx="89.08" ry="18"/>
<text text-anchor="middle" x="1137.59" y="-86.3" font-family="Times,serif" font-size="14.00">:feature:narrator</text>
</g>
<!-- :app:shared&#45;&gt;:feature:narrator -->
<g id="edge7" class="edge">
<title>:app:shared&#45;&gt;:feature:narrator</title>
<path fill="none" stroke="black" d="M935.29,-148.57C975.08,-137.24 1034.17,-120.43 1078.23,-107.89"/>
<polygon fill="black" stroke="black" points="1079.3,-111.23 1087.96,-105.12 1077.38,-104.49 1079.3,-111.23"/>
</g>
<!-- :feature:other -->
<g id="node8" class="node">
<title>:feature:other</title>
<ellipse fill="none" stroke="black" cx="764.59" cy="-90" rx="75.29" ry="18"/>
<text text-anchor="middle" x="764.59" y="-86.3" font-family="Times,serif" font-size="14.00">:feature:other</text>
</g>
<!-- :app:shared&#45;&gt;:feature:other -->
<g id="edge8" class="edge">
<title>:app:shared&#45;&gt;:feature:other</title>
<path fill="none" stroke="black" d="M863.72,-145.64C845.69,-135.7 822,-122.64 802.3,-111.78"/>
<polygon fill="black" stroke="black" points="803.72,-108.57 793.28,-106.81 800.34,-114.7 803.72,-108.57"/>
</g>
<!-- :feature:readout -->
<g id="node9" class="node">
<title>:feature:readout</title>
<ellipse fill="none" stroke="black" cx="944.59" cy="-90" rx="86.38" ry="18"/>
<text text-anchor="middle" x="944.59" y="-86.3" font-family="Times,serif" font-size="14.00">:feature:readout</text>
</g>
<!-- :app:shared&#45;&gt;:feature:readout -->
<g id="edge9" class="edge">
<title>:app:shared&#45;&gt;:feature:readout</title>
<path fill="none" stroke="black" d="M904.42,-144.05C910.71,-135.75 918.41,-125.58 925.38,-116.38"/>
<polygon fill="black" stroke="black" points="928.26,-118.36 931.51,-108.28 922.68,-114.14 928.26,-118.36"/>
</g>
<!-- :feature:readout&#45;vehicle&#45;approach -->
<g id="node10" class="node">
<title>:feature:readout&#45;vehicle&#45;approach</title>
<ellipse fill="none" stroke="black" cx="398.59" cy="-90" rx="167.87" ry="18"/>
<text text-anchor="middle" x="398.59" y="-86.3" font-family="Times,serif" font-size="14.00">:feature:readout&#45;vehicle&#45;approach</text>
</g>
<!-- :app:shared&#45;&gt;:feature:readout&#45;vehicle&#45;approach -->
<g id="edge10" class="edge">
<title>:app:shared&#45;&gt;:feature:readout&#45;vehicle&#45;approach</title>
<path fill="none" stroke="black" d="M834.56,-152.9C754.22,-141.5 606.28,-120.49 505.22,-106.14"/>
<polygon fill="black" stroke="black" points="505.68,-102.67 495.29,-104.73 504.7,-109.6 505.68,-102.67"/>
</g>
<!-- :feature:readout&#45;flag -->
<g id="node11" class="node">
<title>:feature:readout&#45;flag</title>
<ellipse fill="none" stroke="black" cx="106.59" cy="-90" rx="106.68" ry="18"/>
<text text-anchor="middle" x="106.59" y="-86.3" font-family="Times,serif" font-size="14.00">:feature:readout&#45;flag</text>
</g>
<!-- :app:shared&#45;&gt;:feature:readout&#45;flag -->
<g id="edge11" class="edge">
<title>:app:shared&#45;&gt;:feature:readout&#45;flag</title>
<path fill="none" stroke="black" d="M827.71,-157.39C708.39,-150.34 443.62,-133.16 221.59,-108 211.89,-106.9 201.75,-105.61 191.68,-104.24"/>
<polygon fill="black" stroke="black" points="192.04,-100.76 181.65,-102.85 191.08,-107.69 192.04,-100.76"/>
</g>
<!-- :core:data&#45;&gt;:core:domain -->
<g id="edge13" class="edge">
<title>:core:data&#45;&gt;:core:domain</title>
<path fill="none" stroke="black" d="M1221.17,-144.43C1235.31,-125.07 1253.13,-93.02 1235.59,-72 1209.1,-40.25 1100.81,-27.48 1024.1,-22.36"/>
<polygon fill="black" stroke="black" points="1024.17,-18.86 1013.97,-21.72 1023.73,-25.85 1024.17,-18.86"/>
</g>
<!-- :app:desktopApp -->
<g id="node6" class="node">
<title>:app:desktopApp</title>
<ellipse fill="none" stroke="black" cx="1250.59" cy="-234" rx="88.28" ry="18"/>
<text text-anchor="middle" x="1250.59" y="-230.3" font-family="Times,serif" font-size="14.00">:app:desktopApp</text>
</g>
<!-- :app:desktopApp&#45;&gt;:core:domain -->
<g id="edge6" class="edge">
<title>:app:desktopApp&#45;&gt;:core:domain</title>
<path fill="none" stroke="black" d="M1260.13,-215.93C1265.23,-205.82 1270.98,-192.57 1273.59,-180 1283.53,-132.12 1289.07,-104.56 1252.59,-72 1219.55,-42.51 1103.37,-29.07 1023.55,-23.21"/>
<polygon fill="black" stroke="black" points="1023.74,-19.72 1013.51,-22.5 1023.24,-26.7 1023.74,-19.72"/>
</g>
<!-- :app:desktopApp&#45;&gt;:app:shared -->
<g id="edge4" class="edge">
<title>:app:desktopApp&#45;&gt;:app:shared</title>
<path fill="none" stroke="black" d="M1188.88,-220.97C1122.99,-208.12 1019.21,-187.88 953.32,-175.04"/>
<polygon fill="black" stroke="black" points="953.97,-171.6 943.48,-173.12 952.63,-178.47 953.97,-171.6"/>
</g>
<!-- :app:desktopApp&#45;&gt;:core:data -->
<g id="edge5" class="edge">
<title>:app:desktopApp&#45;&gt;:core:data</title>
<path fill="none" stroke="black" d="M1240.18,-216.05C1235.11,-207.8 1228.91,-197.7 1223.28,-188.54"/>
<polygon fill="black" stroke="black" points="1226.12,-186.48 1217.9,-179.79 1220.16,-190.14 1226.12,-186.48"/>
</g>
<!-- :feature:narrator&#45;&gt;:core:domain -->
<g id="edge14" class="edge">
<title>:feature:narrator&#45;&gt;:core:domain</title>
<path fill="none" stroke="black" d="M1096.19,-73.98C1065.97,-63.02 1024.92,-48.14 993.16,-36.62"/>
<polygon fill="black" stroke="black" points="994.22,-33.28 983.62,-33.16 991.83,-39.86 994.22,-33.28"/>
</g>
<!-- :feature:other&#45;&gt;:core:domain -->
<g id="edge15" class="edge">
<title>:feature:other&#45;&gt;:core:domain</title>
<path fill="none" stroke="black" d="M802.32,-74.33C830.23,-63.47 868.4,-48.63 898.17,-37.05"/>
<polygon fill="black" stroke="black" points="899.47,-40.3 907.52,-33.42 896.93,-33.78 899.47,-40.3"/>
</g>
<!-- :feature:readout&#45;&gt;:core:domain -->
<g id="edge16" class="edge">
<title>:feature:readout&#45;&gt;:core:domain</title>
<path fill="none" stroke="black" d="M944.59,-71.7C944.59,-63.98 944.59,-54.71 944.59,-46.11"/>
<polygon fill="black" stroke="black" points="948.09,-46.1 944.59,-36.1 941.09,-46.1 948.09,-46.1"/>
</g>
<!-- :feature:readout&#45;vehicle&#45;approach&#45;&gt;:core:domain -->
<g id="edge18" class="edge">
<title>:feature:readout&#45;vehicle&#45;approach&#45;&gt;:core:domain</title>
<path fill="none" stroke="black" d="M501.61,-75.79C610,-61.9 777.75,-40.39 872.68,-28.22"/>
<polygon fill="black" stroke="black" points="873.29,-31.67 882.76,-26.93 872.4,-24.73 873.29,-31.67"/>
</g>
<!-- :core:designsystem -->
<g id="node13" class="node">
<title>:core:designsystem</title>
<ellipse fill="none" stroke="black" cx="252.59" cy="-18" rx="100.98" ry="18"/>
<text text-anchor="middle" x="252.59" y="-14.3" font-family="Times,serif" font-size="14.00">:core:designsystem</text>
</g>
<!-- :feature:readout&#45;vehicle&#45;approach&#45;&gt;:core:designsystem -->
<g id="edge19" class="edge">
<title>:feature:readout&#45;vehicle&#45;approach&#45;&gt;:core:designsystem</title>
<path fill="none" stroke="black" d="M363.62,-72.23C343.03,-62.36 316.83,-49.8 295.05,-39.36"/>
<polygon fill="black" stroke="black" points="296.55,-36.2 286.02,-35.03 293.52,-42.51 296.55,-36.2"/>
</g>
<!-- :feature:readout&#45;flag&#45;&gt;:core:designsystem -->
<g id="edge17" class="edge">
<title>:feature:readout&#45;flag&#45;&gt;:core:designsystem</title>
<path fill="none" stroke="black" d="M140.45,-72.76C161.16,-62.83 187.84,-50.04 209.98,-39.43"/>
<polygon fill="black" stroke="black" points="211.66,-42.51 219.16,-35.03 208.63,-36.19 211.66,-42.51"/>
</g>
<!-- :app:webApp -->
<g id="node12" class="node">
<title>:app:webApp</title>
<ellipse fill="none" stroke="black" cx="881.59" cy="-234" rx="70.69" ry="18"/>
<text text-anchor="middle" x="881.59" y="-230.3" font-family="Times,serif" font-size="14.00">:app:webApp</text>
</g>
<!-- :app:webApp&#45;&gt;:app:shared -->
<g id="edge12" class="edge">
<title>:app:webApp&#45;&gt;:app:shared</title>
<path fill="none" stroke="black" d="M884.06,-215.7C885.16,-207.98 886.49,-198.71 887.72,-190.11"/>
<polygon fill="black" stroke="black" points="891.2,-190.5 889.15,-180.1 884.27,-189.51 891.2,-190.5"/>
</g>
</g>
</svg>
