<?xml version="1.0" encoding="UTF-8" standalone="no"?>
<!DOCTYPE svg PUBLIC "-//W3C//DTD SVG 1.1//EN"
 "http://www.w3.org/Graphics/SVG/1.1/DTD/svg11.dtd">
<!-- Generated by graphviz version 2.43.0 (0)
 -->
<!-- Title: G Pages: 1 -->
<svg width="7144pt" height="260pt"
 viewBox="0.00 0.00 7143.67 260.00" xmlns="http://www.w3.org/2000/svg" xmlns:xlink="http://www.w3.org/1999/xlink">
<g id="graph0" class="graph" transform="scale(1 1) rotate(0) translate(4 256)">
<title>G</title>
<polygon fill="white" stroke="transparent" points="-4,4 -4,-256 7139.67,-256 7139.67,4 -4,4"/>
<!-- :server -->
<g id="node1" class="node">
<title>:server</title>
<ellipse fill="none" stroke="black" cx="302.89" cy="-162" rx="43.59" ry="18"/>
<text text-anchor="middle" x="302.89" y="-158.3" font-family="Times,serif" font-size="14.00">:server</text>
</g>
<!-- :core:domain -->
<g id="node2" class="node">
<title>:core:domain</title>
<ellipse fill="none" stroke="black" cx="3001.89" cy="-18" rx="70.69" ry="18"/>
<text text-anchor="middle" x="3001.89" y="-14.3" font-family="Times,serif" font-size="14.00">:core:domain</text>
</g>
<!-- :server&#45;&gt;:core:domain -->
<g id="edge1" class="edge">
<title>:server&#45;&gt;:core:domain</title>
<path fill="none" stroke="black" d="M303.15,-143.9C304.51,-123.06 310.27,-88.59 332.89,-72 386.38,-32.77 2480.04,-21.31 2920.92,-19.33"/>
<polygon fill="black" stroke="black" points="2921.04,-22.83 2931.03,-19.29 2921.01,-15.83 2921.04,-22.83"/>
</g>
<!-- :app:androidApp -->
<g id="node3" class="node">
<title>:app:androidApp</title>
<ellipse fill="none" stroke="black" cx="639.89" cy="-234" rx="87.18" ry="18"/>
<text text-anchor="middle" x="639.89" y="-230.3" font-family="Times,serif" font-size="14.00">:app:androidApp</text>
</g>
<!-- :app:shared -->
<g id="node4" class="node">
<title>:app:shared</title>
<ellipse fill="none" stroke="black" cx="3268.89" cy="-162" rx="65.79" ry="18"/>
<text text-anchor="middle" x="3268.89" y="-158.3" font-family="Times,serif" font-size="14.00">:app:shared</text>
</g>
<!-- :app:androidApp&#45;&gt;:app:shared -->
<g id="edge2" class="edge">
<title>:app:androidApp&#45;&gt;:app:shared</title>
<path fill="none" stroke="black" d="M725.87,-230.71C1127.52,-220.02 2815.46,-175.07 3193.54,-165.01"/>
<polygon fill="black" stroke="black" points="3193.91,-168.5 3203.81,-164.73 3193.72,-161.5 3193.91,-168.5"/>
</g>
<!-- :core:data -->
<g id="node5" class="node">
<title>:core:data</title>
<ellipse fill="none" stroke="black" cx="628.89" cy="-162" rx="57.39" ry="18"/>
<text text-anchor="middle" x="628.89" y="-158.3" font-family="Times,serif" font-size="14.00">:core:data</text>
</g>
<!-- :app:androidApp&#45;&gt;:core:data -->
<g id="edge3" class="edge">
<title>:app:androidApp&#45;&gt;:core:data</title>
<path fill="none" stroke="black" d="M637.17,-215.7C635.96,-207.98 634.5,-198.71 633.15,-190.11"/>
<polygon fill="black" stroke="black" points="636.59,-189.44 631.58,-180.1 629.67,-190.53 636.59,-189.44"/>
</g>
<!-- :core:gt7&#45;ps5&#45;data -->
<g id="node6" class="node">
<title>:core:gt7&#45;ps5&#45;data</title>
<ellipse fill="none" stroke="black" cx="458.89" cy="-162" rx="94.78" ry="18"/>
<text text-anchor="middle" x="458.89" y="-158.3" font-family="Times,serif" font-size="14.00">:core:gt7&#45;ps5&#45;data</text>
</g>
<!-- :app:androidApp&#45;&gt;:core:gt7&#45;ps5&#45;data -->
<g id="edge4" class="edge">
<title>:app:androidApp&#45;&gt;:core:gt7&#45;ps5&#45;data</title>
<path fill="none" stroke="black" d="M600.61,-217.81C573.53,-207.33 537.31,-193.33 508.26,-182.09"/>
<polygon fill="black" stroke="black" points="509.3,-178.74 498.71,-178.4 506.78,-185.27 509.3,-178.74"/>
</g>
<!-- :feature:main -->
<g id="node9" class="node">
<title>:feature:main</title>
<ellipse fill="none" stroke="black" cx="443.89" cy="-90" rx="73.39" ry="18"/>
<text text-anchor="middle" x="443.89" y="-86.3" font-family="Times,serif" font-size="14.00">:feature:main</text>
</g>
<!-- :app:shared&#45;&gt;:feature:main -->
<g id="edge10" class="edge">
<title>:app:shared&#45;&gt;:feature:main</title>
<path fill="none" stroke="black" d="M3203.37,-160.45C2812.87,-157.09 800.17,-138.37 526.89,-108 519.75,-107.21 512.32,-106.1 504.97,-104.82"/>
<polygon fill="black" stroke="black" points="505.48,-101.36 495.02,-103 504.22,-108.24 505.48,-101.36"/>
</g>
<!-- :feature:lmu&#45;windows&#45;connection -->
<g id="node10" class="node">
<title>:feature:lmu&#45;windows&#45;connection</title>
<ellipse fill="none" stroke="black" cx="699.89" cy="-90" rx="164.37" ry="18"/>
<text text-anchor="middle" x="699.89" y="-86.3" font-family="Times,serif" font-size="14.00">:feature:lmu&#45;windows&#45;connection</text>
</g>
<!-- :app:shared&#45;&gt;:feature:lmu&#45;windows&#45;connection -->
<g id="edge11" class="edge">
<title>:app:shared&#45;&gt;:feature:lmu&#45;windows&#45;connection</title>
<path fill="none" stroke="black" d="M3203.1,-161.36C2922.31,-162.5 1796.58,-163.2 873.89,-108 857.17,-107 839.58,-105.64 822.27,-104.13"/>
<polygon fill="black" stroke="black" points="822.38,-100.62 812.11,-103.22 821.76,-107.59 822.38,-100.62"/>
</g>
<!-- :feature:gt7&#45;ps5&#45;connection -->
<g id="node11" class="node">
<title>:feature:gt7&#45;ps5&#45;connection</title>
<ellipse fill="none" stroke="black" cx="1020.89" cy="-90" rx="138.38" ry="18"/>
<text text-anchor="middle" x="1020.89" y="-86.3" font-family="Times,serif" font-size="14.00">:feature:gt7&#45;ps5&#45;connection</text>
</g>
<!-- :app:shared&#45;&gt;:feature:gt7&#45;ps5&#45;connection -->
<g id="edge12" class="edge">
<title>:app:shared&#45;&gt;:feature:gt7&#45;ps5&#45;connection</title>
<path fill="none" stroke="black" d="M3203.03,-161.47C2943.79,-162.88 1968.82,-163.92 1168.89,-108 1154.84,-107.02 1140.08,-105.69 1125.54,-104.19"/>
<polygon fill="black" stroke="black" points="1125.83,-100.71 1115.52,-103.14 1125.1,-107.67 1125.83,-100.71"/>
</g>
<!-- :feature:server&#45;connection -->
<g id="node12" class="node">
<title>:feature:server&#45;connection</title>
<ellipse fill="none" stroke="black" cx="1310.89" cy="-90" rx="133.48" ry="18"/>
<text text-anchor="middle" x="1310.89" y="-86.3" font-family="Times,serif" font-size="14.00">:feature:server&#45;connection</text>
</g>
<!-- :app:shared&#45;&gt;:feature:server&#45;connection -->
<g id="edge13" class="edge">
<title>:app:shared&#45;&gt;:feature:server&#45;connection</title>
<path fill="none" stroke="black" d="M3203.22,-161.22C2966.65,-161.54 2135.85,-158.74 1452.89,-108 1439.64,-107.02 1425.72,-105.7 1412,-104.23"/>
<polygon fill="black" stroke="black" points="1412.38,-100.75 1402.05,-103.14 1411.61,-107.71 1412.38,-100.75"/>
</g>
<!-- :feature:lmu&#45;windows&#45;narrator -->
<g id="node13" class="node">
<title>:feature:lmu&#45;windows&#45;narrator</title>
<ellipse fill="none" stroke="black" cx="2559.89" cy="-90" rx="153.27" ry="18"/>
<text text-anchor="middle" x="2559.89" y="-86.3" font-family="Times,serif" font-size="14.00">:feature:lmu&#45;windows&#45;narrator</text>
</g>
<!-- :app:shared&#45;&gt;:feature:lmu&#45;windows&#45;narrator -->
<g id="edge14" class="edge">
<title>:app:shared&#45;&gt;:feature:lmu&#45;windows&#45;narrator</title>
<path fill="none" stroke="black" d="M3207.87,-155.22C3106.95,-145.63 2898.9,-125.72 2722.89,-108 2708.97,-106.6 2694.39,-105.11 2679.91,-103.62"/>
<polygon fill="black" stroke="black" points="2680.22,-100.13 2669.92,-102.58 2679.5,-107.09 2680.22,-100.13"/>
</g>
<!-- :feature:gt7&#45;ps5&#45;narrator -->
<g id="node14" class="node">
<title>:feature:gt7&#45;ps5&#45;narrator</title>
<ellipse fill="none" stroke="black" cx="2858.89" cy="-90" rx="127.28" ry="18"/>
<text text-anchor="middle" x="2858.89" y="-86.3" font-family="Times,serif" font-size="14.00">:feature:gt7&#45;ps5&#45;narrator</text>
</g>
<!-- :app:shared&#45;&gt;:feature:gt7&#45;ps5&#45;narrator -->
<g id="edge15" class="edge">
<title>:app:shared&#45;&gt;:feature:gt7&#45;ps5&#45;narrator</title>
<path fill="none" stroke="black" d="M3214.44,-151.7C3146.14,-140.04 3028.12,-119.89 2946.92,-106.03"/>
<polygon fill="black" stroke="black" points="2947.15,-102.52 2936.71,-104.29 2945.97,-109.42 2947.15,-102.52"/>
</g>
<!-- :feature:other&#45;license&#45;detail -->
<g id="node15" class="node">
<title>:feature:other&#45;license&#45;detail</title>
<ellipse fill="none" stroke="black" cx="3143.89" cy="-90" rx="139.98" ry="18"/>
<text text-anchor="middle" x="3143.89" y="-86.3" font-family="Times,serif" font-size="14.00">:feature:other&#45;license&#45;detail</text>
</g>
<!-- :app:shared&#45;&gt;:feature:other&#45;license&#45;detail -->
<g id="edge16" class="edge">
<title>:app:shared&#45;&gt;:feature:other&#45;license&#45;detail</title>
<path fill="none" stroke="black" d="M3241.46,-145.64C3224.21,-135.98 3201.69,-123.37 3182.64,-112.7"/>
<polygon fill="black" stroke="black" points="3184.32,-109.63 3173.88,-107.8 3180.9,-115.74 3184.32,-109.63"/>
</g>
<!-- :feature:other&#45;list -->
<g id="node16" class="node">
<title>:feature:other&#45;list</title>
<ellipse fill="none" stroke="black" cx="3394.89" cy="-90" rx="92.88" ry="18"/>
<text text-anchor="middle" x="3394.89" y="-86.3" font-family="Times,serif" font-size="14.00">:feature:other&#45;list</text>
</g>
<!-- :app:shared&#45;&gt;:feature:other&#45;list -->
<g id="edge17" class="edge">
<title>:app:shared&#45;&gt;:feature:other&#45;list</title>
<path fill="none" stroke="black" d="M3296.54,-145.64C3314.18,-135.84 3337.28,-123.01 3356.66,-112.24"/>
<polygon fill="black" stroke="black" points="3358.51,-115.22 3365.55,-107.3 3355.11,-109.1 3358.51,-115.22"/>
</g>
<!-- :feature:other&#45;server&#45;ip&#45;detail -->
<g id="node17" class="node">
<title>:feature:other&#45;server&#45;ip&#45;detail</title>
<ellipse fill="none" stroke="black" cx="3654.89" cy="-90" rx="148.67" ry="18"/>
<text text-anchor="middle" x="3654.89" y="-86.3" font-family="Times,serif" font-size="14.00">:feature:other&#45;server&#45;ip&#45;detail</text>
</g>
<!-- :app:shared&#45;&gt;:feature:other&#45;server&#45;ip&#45;detail -->
<g id="edge18" class="edge">
<title>:app:shared&#45;&gt;:feature:other&#45;server&#45;ip&#45;detail</title>
<path fill="none" stroke="black" d="M3322.16,-151.34C3385.1,-139.93 3490.77,-120.76 3566.14,-107.09"/>
<polygon fill="black" stroke="black" points="3566.89,-110.52 3576.11,-105.29 3565.64,-103.63 3566.89,-110.52"/>
</g>
<!-- :feature:other&#45;console&#45;ip&#45;detail -->
<g id="node18" class="node">
<title>:feature:other&#45;console&#45;ip&#45;detail</title>
<ellipse fill="none" stroke="black" cx="3974.89" cy="-90" rx="153.27" ry="18"/>
<text text-anchor="middle" x="3974.89" y="-86.3" font-family="Times,serif" font-size="14.00">:feature:other&#45;console&#45;ip&#45;detail</text>
</g>
<!-- :app:shared&#45;&gt;:feature:other&#45;console&#45;ip&#45;detail -->
<g id="edge19" class="edge">
<title>:app:shared&#45;&gt;:feature:other&#45;console&#45;ip&#45;detail</title>
<path fill="none" stroke="black" d="M3330.09,-155.19C3430.8,-145.59 3637.76,-125.72 3812.89,-108 3826.47,-106.63 3840.7,-105.16 3854.83,-103.7"/>
<polygon fill="black" stroke="black" points="3855.52,-107.15 3865.1,-102.63 3854.79,-100.18 3855.52,-107.15"/>
</g>
<!-- :feature:other&#45;readout&#45;start&#45;sound&#45;detail -->
<g id="node19" class="node">
<title>:feature:other&#45;readout&#45;start&#45;sound&#45;detail</title>
<ellipse fill="none" stroke="black" cx="4345.89" cy="-90" rx="199.56" ry="18"/>
<text text-anchor="middle" x="4345.89" y="-86.3" font-family="Times,serif" font-size="14.00">:feature:other&#45;readout&#45;start&#45;sound&#45;detail</text>
</g>
<!-- :app:shared&#45;&gt;:feature:other&#45;readout&#45;start&#45;sound&#45;detail -->
<g id="edge20" class="edge">
<title>:app:shared&#45;&gt;:feature:other&#45;readout&#45;start&#45;sound&#45;detail</title>
<path fill="none" stroke="black" d="M3332.62,-157.55C3476.24,-149.68 3836.08,-129.42 4136.89,-108 4155.75,-106.66 4175.56,-105.16 4195.17,-103.62"/>
<polygon fill="black" stroke="black" points="4195.7,-107.09 4205.39,-102.82 4195.15,-100.12 4195.7,-107.09"/>
</g>
<!-- :feature:other&#45;volume&#45;detail -->
<g id="node20" class="node">
<title>:feature:other&#45;volume&#45;detail</title>
<ellipse fill="none" stroke="black" cx="4704.89" cy="-90" rx="141.07" ry="18"/>
<text text-anchor="middle" x="4704.89" y="-86.3" font-family="Times,serif" font-size="14.00">:feature:other&#45;volume&#45;detail</text>
</g>
<!-- :app:shared&#45;&gt;:feature:other&#45;volume&#45;detail -->
<g id="edge21" class="edge">
<title>:app:shared&#45;&gt;:feature:other&#45;volume&#45;detail</title>
<path fill="none" stroke="black" d="M3334.23,-159.96C3523.41,-156.6 4087.86,-144.04 4554.89,-108 4568.56,-106.95 4582.9,-105.61 4597.08,-104.16"/>
<polygon fill="black" stroke="black" points="4597.77,-107.6 4607.35,-103.08 4597.04,-100.64 4597.77,-107.6"/>
</g>
<!-- :feature:telemetry&#45;log&#45;list -->
<g id="node21" class="node">
<title>:feature:telemetry&#45;log&#45;list</title>
<ellipse fill="none" stroke="black" cx="4993.89" cy="-90" rx="129.98" ry="18"/>
<text text-anchor="middle" x="4993.89" y="-86.3" font-family="Times,serif" font-size="14.00">:feature:telemetry&#45;log&#45;list</text>
</g>
<!-- :app:shared&#45;&gt;:feature:telemetry&#45;log&#45;list -->
<g id="edge22" class="edge">
<title>:app:shared&#45;&gt;:feature:telemetry&#45;log&#45;list</title>
<path fill="none" stroke="black" d="M3334.72,-160.88C3552.07,-160.04 4266.4,-153.73 4854.89,-108 4867.73,-107 4881.22,-105.69 4894.52,-104.23"/>
<polygon fill="black" stroke="black" points="4895.1,-107.69 4904.65,-103.1 4894.32,-100.73 4895.1,-107.69"/>
</g>
<!-- :feature:telemetry&#45;log&#45;detail -->
<g id="node22" class="node">
<title>:feature:telemetry&#45;log&#45;detail</title>
<ellipse fill="none" stroke="black" cx="5283.89" cy="-90" rx="141.88" ry="18"/>
<text text-anchor="middle" x="5283.89" y="-86.3" font-family="Times,serif" font-size="14.00">:feature:telemetry&#45;log&#45;detail</text>
</g>
<!-- :app:shared&#45;&gt;:feature:telemetry&#45;log&#45;detail -->
<g id="edge23" class="edge">
<title>:app:shared&#45;&gt;:feature:telemetry&#45;log&#45;detail</title>
<path fill="none" stroke="black" d="M3334.61,-161.12C3575.14,-161.13 4430.08,-157.47 5132.89,-108 5147.11,-107 5162.05,-105.66 5176.78,-104.18"/>
<polygon fill="black" stroke="black" points="5177.34,-107.64 5186.93,-103.13 5176.62,-100.68 5177.34,-107.64"/>
</g>
<!-- :feature:readout&#45;list -->
<g id="node23" class="node">
<title>:feature:readout&#45;list</title>
<ellipse fill="none" stroke="black" cx="5547.89" cy="-90" rx="103.98" ry="18"/>
<text text-anchor="middle" x="5547.89" y="-86.3" font-family="Times,serif" font-size="14.00">:feature:readout&#45;list</text>
</g>
<!-- :app:shared&#45;&gt;:feature:readout&#45;list -->
<g id="edge24" class="edge">
<title>:app:shared&#45;&gt;:feature:readout&#45;list</title>
<path fill="none" stroke="black" d="M3334.49,-160.5C3649.82,-157.93 5011.79,-144.86 5434.89,-108 5445.07,-107.11 5455.74,-105.89 5466.27,-104.51"/>
<polygon fill="black" stroke="black" points="5466.88,-107.96 5476.32,-103.14 5465.94,-101.03 5466.88,-107.96"/>
</g>
<!-- :feature:lmu&#45;windows&#45;readout&#45;vehicle&#45;approach&#45;detail -->
<g id="node24" class="node">
<title>:feature:lmu&#45;windows&#45;readout&#45;vehicle&#45;approach&#45;detail</title>
<ellipse fill="none" stroke="black" cx="5930.89" cy="-90" rx="260.75" ry="18"/>
<text text-anchor="middle" x="5930.89" y="-86.3" font-family="Times,serif" font-size="14.00">:feature:lmu&#45;windows&#45;readout&#45;vehicle&#45;approach&#45;detail</text>
</g>
<!-- :app:shared&#45;&gt;:feature:lmu&#45;windows&#45;readout&#45;vehicle&#45;approach&#45;detail -->
<g id="edge25" class="edge">
<title>:app:shared&#45;&gt;:feature:lmu&#45;windows&#45;readout&#45;vehicle&#45;approach&#45;detail</title>
<path fill="none" stroke="black" d="M3334.56,-160.53C3614.82,-158.29 4738.54,-147.24 5660.89,-108 5687.53,-106.87 5715.64,-105.4 5743.25,-103.8"/>
<polygon fill="black" stroke="black" points="5743.62,-107.29 5753.39,-103.21 5743.21,-100.3 5743.62,-107.29"/>
</g>
<!-- :feature:lmu&#45;windows&#45;readout&#45;flag&#45;detail -->
<g id="node25" class="node">
<title>:feature:lmu&#45;windows&#45;readout&#45;flag&#45;detail</title>
<ellipse fill="none" stroke="black" cx="6408.89" cy="-90" rx="199.56" ry="18"/>
<text text-anchor="middle" x="6408.89" y="-86.3" font-family="Times,serif" font-size="14.00">:feature:lmu&#45;windows&#45;readout&#45;flag&#45;detail</text>
</g>
<!-- :app:shared&#45;&gt;:feature:lmu&#45;windows&#45;readout&#45;flag&#45;detail -->
<g id="edge26" class="edge">
<title>:app:shared&#45;&gt;:feature:lmu&#45;windows&#45;readout&#45;flag&#45;detail</title>
<path fill="none" stroke="black" d="M3334.74,-161.36C3651.92,-162.74 5053.95,-165.18 6200.89,-108 6221.27,-106.98 6242.76,-105.59 6263.87,-104.04"/>
<polygon fill="black" stroke="black" points="6264.16,-107.53 6273.87,-103.29 6263.63,-100.55 6264.16,-107.53"/>
</g>
<!-- :feature:lmu&#45;windows&#45;readout&#45;vehicle&#45;damage&#45;detail -->
<g id="node26" class="node">
<title>:feature:lmu&#45;windows&#45;readout&#45;vehicle&#45;damage&#45;detail</title>
<ellipse fill="none" stroke="black" cx="6880.89" cy="-90" rx="254.55" ry="18"/>
<text text-anchor="middle" x="6880.89" y="-86.3" font-family="Times,serif" font-size="14.00">:feature:lmu&#45;windows&#45;readout&#45;vehicle&#45;damage&#45;detail</text>
</g>
<!-- :app:shared&#45;&gt;:feature:lmu&#45;windows&#45;readout&#45;vehicle&#45;damage&#45;detail -->
<g id="edge27" class="edge">
<title>:app:shared&#45;&gt;:feature:lmu&#45;windows&#45;readout&#45;vehicle&#45;damage&#45;detail</title>
<path fill="none" stroke="black" d="M3334.74,-161.15C3677.85,-161.69 5295.69,-161.16 6617.89,-108 6644.15,-106.94 6671.87,-105.51 6699.07,-103.91"/>
<polygon fill="black" stroke="black" points="6699.29,-107.4 6709.06,-103.32 6698.87,-100.42 6699.29,-107.4"/>
</g>
<!-- :feature:gt7&#45;ps5&#45;readout&#45;my&#45;bestlap&#45;detail -->
<g id="node27" class="node">
<title>:feature:gt7&#45;ps5&#45;readout&#45;my&#45;bestlap&#45;detail</title>
<ellipse fill="none" stroke="black" cx="1669.89" cy="-90" rx="207.96" ry="18"/>
<text text-anchor="middle" x="1669.89" y="-86.3" font-family="Times,serif" font-size="14.00">:feature:gt7&#45;ps5&#45;readout&#45;my&#45;bestlap&#45;detail</text>
</g>
<!-- :app:shared&#45;&gt;:feature:gt7&#45;ps5&#45;readout&#45;my&#45;bestlap&#45;detail -->
<g id="edge28" class="edge">
<title>:app:shared&#45;&gt;:feature:gt7&#45;ps5&#45;readout&#45;my&#45;bestlap&#45;detail</title>
<path fill="none" stroke="black" d="M3203.74,-159.42C3005.71,-154.43 2393.55,-137.55 1886.89,-108 1866.37,-106.8 1844.78,-105.35 1823.49,-103.8"/>
<polygon fill="black" stroke="black" points="1823.64,-100.3 1813.41,-103.05 1823.12,-107.28 1823.64,-100.3"/>
</g>
<!-- :feature:gt7&#45;ps5&#45;readout&#45;remaining&#45;fuel&#45;laps&#45;detail -->
<g id="node28" class="node">
<title>:feature:gt7&#45;ps5&#45;readout&#45;remaining&#45;fuel&#45;laps&#45;detail</title>
<ellipse fill="none" stroke="black" cx="2141.89" cy="-90" rx="246.16" ry="18"/>
<text text-anchor="middle" x="2141.89" y="-86.3" font-family="Times,serif" font-size="14.00">:feature:gt7&#45;ps5&#45;readout&#45;remaining&#45;fuel&#45;laps&#45;detail</text>
</g>
<!-- :app:shared&#45;&gt;:feature:gt7&#45;ps5&#45;readout&#45;remaining&#45;fuel&#45;laps&#45;detail -->
<g id="edge29" class="edge">
<title>:app:shared&#45;&gt;:feature:gt7&#45;ps5&#45;readout&#45;remaining&#45;fuel&#45;laps&#45;detail</title>
<path fill="none" stroke="black" d="M3205.5,-157.26C3061.8,-148.77 2700.27,-127.24 2397.89,-108 2374.84,-106.53 2350.63,-104.96 2326.67,-103.39"/>
<polygon fill="black" stroke="black" points="2326.63,-99.88 2316.43,-102.72 2326.17,-106.87 2326.63,-99.88"/>
</g>
<!-- :core:data&#45;&gt;:core:domain -->
<g id="edge31" class="edge">
<title>:core:data&#45;&gt;:core:domain</title>
<path fill="none" stroke="black" d="M586.75,-149.65C578.85,-147.66 570.63,-145.69 562.89,-144 470.18,-123.79 295.47,-139.77 361.89,-72 407.79,-25.17 2481.99,-19.71 2920.86,-19.08"/>
<polygon fill="black" stroke="black" points="2920.92,-22.58 2930.92,-19.07 2920.91,-15.58 2920.92,-22.58"/>
</g>
<!-- :core:gt7&#45;ps5&#45;data&#45;&gt;:core:domain -->
<g id="edge32" class="edge">
<title>:core:gt7&#45;ps5&#45;data&#45;&gt;:core:domain</title>
<path fill="none" stroke="black" d="M399.35,-147.84C378.12,-139.97 356.39,-127.53 343.89,-108 335.26,-94.53 332.69,-83.43 343.89,-72 390.13,-24.82 2480.71,-19.64 2921.02,-19.07"/>
<polygon fill="black" stroke="black" points="2921.12,-22.57 2931.12,-19.06 2921.11,-15.57 2921.12,-22.57"/>
</g>
<!-- :app:desktopApp -->
<g id="node7" class="node">
<title>:app:desktopApp</title>
<ellipse fill="none" stroke="black" cx="446.89" cy="-234" rx="88.28" ry="18"/>
<text text-anchor="middle" x="446.89" y="-230.3" font-family="Times,serif" font-size="14.00">:app:desktopApp</text>
</g>
<!-- :app:desktopApp&#45;&gt;:server -->
<g id="edge9" class="edge">
<title>:app:desktopApp&#45;&gt;:server</title>
<path fill="none" stroke="black" d="M414.21,-217.12C391.9,-206.27 362.31,-191.88 339.24,-180.67"/>
<polygon fill="black" stroke="black" points="340.64,-177.46 330.12,-176.24 337.58,-183.76 340.64,-177.46"/>
</g>
<!-- :app:desktopApp&#45;&gt;:app:shared -->
<g id="edge5" class="edge">
<title>:app:desktopApp&#45;&gt;:app:shared</title>
<path fill="none" stroke="black" d="M507.75,-220.86C519.69,-218.9 532.15,-217.14 543.89,-216 1078.73,-164.24 2809.37,-162.61 3193.08,-162.9"/>
<polygon fill="black" stroke="black" points="3193.23,-166.4 3203.24,-162.9 3193.24,-159.4 3193.23,-166.4"/>
</g>
<!-- :app:desktopApp&#45;&gt;:core:data -->
<g id="edge6" class="edge">
<title>:app:desktopApp&#45;&gt;:core:data</title>
<path fill="none" stroke="black" d="M486.38,-217.81C515.34,-206.67 554.68,-191.54 584.69,-180"/>
<polygon fill="black" stroke="black" points="586.01,-183.24 594.08,-176.39 583.49,-176.71 586.01,-183.24"/>
</g>
<!-- :app:desktopApp&#45;&gt;:core:gt7&#45;ps5&#45;data -->
<g id="edge8" class="edge">
<title>:app:desktopApp&#45;&gt;:core:gt7&#45;ps5&#45;data</title>
<path fill="none" stroke="black" d="M449.86,-215.7C451.18,-207.98 452.77,-198.71 454.24,-190.11"/>
<polygon fill="black" stroke="black" points="457.72,-190.55 455.96,-180.1 450.82,-189.37 457.72,-190.55"/>
</g>
<!-- :core:lmu&#45;windows&#45;data -->
<g id="node8" class="node">
<title>:core:lmu&#45;windows&#45;data</title>
<ellipse fill="none" stroke="black" cx="120.89" cy="-162" rx="120.78" ry="18"/>
<text text-anchor="middle" x="120.89" y="-158.3" font-family="Times,serif" font-size="14.00">:core:lmu&#45;windows&#45;data</text>
</g>
<!-- :app:desktopApp&#45;&gt;:core:lmu&#45;windows&#45;data -->
<g id="edge7" class="edge">
<title>:app:desktopApp&#45;&gt;:core:lmu&#45;windows&#45;data</title>
<path fill="none" stroke="black" d="M388.23,-220.4C334.6,-208.89 254.96,-191.79 196.56,-179.25"/>
<polygon fill="black" stroke="black" points="197.15,-175.8 186.64,-177.12 195.68,-182.64 197.15,-175.8"/>
</g>
<!-- :core:lmu&#45;windows&#45;data&#45;&gt;:core:domain -->
<g id="edge33" class="edge">
<title>:core:lmu&#45;windows&#45;data&#45;&gt;:core:domain</title>
<path fill="none" stroke="black" d="M146.51,-144.25C181.04,-122.74 245.22,-86.46 305.89,-72 436.08,-40.96 2485.4,-23.08 2920.92,-19.62"/>
<polygon fill="black" stroke="black" points="2921.24,-23.12 2931.21,-19.54 2921.18,-16.12 2921.24,-23.12"/>
</g>
<!-- :feature:main&#45;&gt;:core:domain -->
<g id="edge50" class="edge">
<title>:feature:main&#45;&gt;:core:domain</title>
<path fill="none" stroke="black" d="M495.02,-77.02C505.51,-74.99 516.51,-73.16 526.89,-72 1006.5,-18.2 2549.42,-18 2920.89,-18.77"/>
<polygon fill="black" stroke="black" points="2921.01,-22.27 2931.01,-18.79 2921.02,-15.27 2921.01,-22.27"/>
</g>
<!-- :feature:lmu&#45;windows&#45;connection&#45;&gt;:core:domain -->
<g id="edge41" class="edge">
<title>:feature:lmu&#45;windows&#45;connection&#45;&gt;:core:domain</title>
<path fill="none" stroke="black" d="M812.11,-76.83C832.64,-74.95 853.89,-73.22 873.89,-72 1670.94,-23.2 2638.54,-19.02 2920.93,-18.9"/>
<polygon fill="black" stroke="black" points="2921.09,-22.4 2931.09,-18.9 2921.09,-15.4 2921.09,-22.4"/>
</g>
<!-- :feature:gt7&#45;ps5&#45;connection&#45;&gt;:core:domain -->
<g id="edge34" class="edge">
<title>:feature:gt7&#45;ps5&#45;connection&#45;&gt;:core:domain</title>
<path fill="none" stroke="black" d="M1115.92,-76.87C1133.5,-74.97 1151.73,-73.23 1168.89,-72 1844.63,-23.51 2663.51,-19.01 2920.64,-18.88"/>
<polygon fill="black" stroke="black" points="2921.01,-22.38 2931.01,-18.87 2921.01,-15.38 2921.01,-22.38"/>
</g>
<!-- :feature:server&#45;connection&#45;&gt;:core:domain -->
<g id="edge65" class="edge">
<title>:feature:server&#45;connection&#45;&gt;:core:domain</title>
<path fill="none" stroke="black" d="M1402.44,-76.88C1419.2,-74.99 1436.55,-73.26 1452.89,-72 2013.39,-28.94 2690.66,-20.86 2920.84,-19.35"/>
<polygon fill="black" stroke="black" points="2921.16,-22.85 2931.14,-19.28 2921.12,-15.85 2921.16,-22.85"/>
</g>
<!-- :feature:lmu&#45;windows&#45;narrator&#45;&gt;:core:domain -->
<g id="edge42" class="edge">
<title>:feature:lmu&#45;windows&#45;narrator&#45;&gt;:core:domain</title>
<path fill="none" stroke="black" d="M2647.21,-75.17C2731.12,-61.88 2856.22,-42.07 2933.23,-29.87"/>
<polygon fill="black" stroke="black" points="2933.98,-33.3 2943.31,-28.28 2932.88,-26.39 2933.98,-33.3"/>
</g>
<!-- :core:designsystem -->
<g id="node30" class="node">
<title>:core:designsystem</title>
<ellipse fill="none" stroke="black" cx="4159.89" cy="-18" rx="100.98" ry="18"/>
<text text-anchor="middle" x="4159.89" y="-14.3" font-family="Times,serif" font-size="14.00">:core:designsystem</text>
</g>
<!-- :feature:lmu&#45;windows&#45;narrator&#45;&gt;:core:designsystem -->
<g id="edge43" class="edge">
<title>:feature:lmu&#45;windows&#45;narrator&#45;&gt;:core:designsystem</title>
<path fill="none" stroke="black" d="M2665.89,-76.9C2684.85,-75.04 2704.44,-73.3 2722.89,-72 3217.27,-37.14 3809.06,-24.47 4049.87,-20.54"/>
<polygon fill="black" stroke="black" points="4050.09,-24.04 4060.03,-20.38 4049.97,-17.04 4050.09,-24.04"/>
</g>
<!-- :feature:gt7&#45;ps5&#45;narrator&#45;&gt;:core:domain -->
<g id="edge35" class="edge">
<title>:feature:gt7&#45;ps5&#45;narrator&#45;&gt;:core:domain</title>
<path fill="none" stroke="black" d="M2892.42,-72.59C2913.07,-62.48 2939.69,-49.45 2961.51,-38.77"/>
<polygon fill="black" stroke="black" points="2963.09,-41.89 2970.53,-34.35 2960.01,-35.6 2963.09,-41.89"/>
</g>
<!-- :feature:gt7&#45;ps5&#45;narrator&#45;&gt;:core:designsystem -->
<g id="edge36" class="edge">
<title>:feature:gt7&#45;ps5&#45;narrator&#45;&gt;:core:designsystem</title>
<path fill="none" stroke="black" d="M2946.94,-76.96C2962.87,-75.08 2979.36,-73.32 2994.89,-72 3381.99,-39.05 3843.32,-25.72 4050.11,-21.11"/>
<polygon fill="black" stroke="black" points="4050.45,-24.6 4060.37,-20.88 4050.29,-17.6 4050.45,-24.6"/>
</g>
<!-- :feature:other&#45;license&#45;detail&#45;&gt;:core:domain -->
<g id="edge53" class="edge">
<title>:feature:other&#45;license&#45;detail&#45;&gt;:core:domain</title>
<path fill="none" stroke="black" d="M3110.24,-72.41C3089.8,-62.34 3063.6,-49.42 3042.09,-38.81"/>
<polygon fill="black" stroke="black" points="3043.39,-35.56 3032.87,-34.27 3040.3,-41.83 3043.39,-35.56"/>
</g>
<!-- :feature:other&#45;license&#45;detail&#45;&gt;:core:designsystem -->
<g id="edge54" class="edge">
<title>:feature:other&#45;license&#45;detail&#45;&gt;:core:designsystem</title>
<path fill="none" stroke="black" d="M3241.6,-77.11C3258.68,-75.24 3276.29,-73.45 3292.89,-72 3566.4,-48.05 3889.39,-31.36 4053.15,-23.72"/>
<polygon fill="black" stroke="black" points="4053.39,-27.21 4063.22,-23.25 4053.07,-20.22 4053.39,-27.21"/>
</g>
<!-- :feature:other&#45;list&#45;&gt;:core:domain -->
<g id="edge55" class="edge">
<title>:feature:other&#45;list&#45;&gt;:core:domain</title>
<path fill="none" stroke="black" d="M3329.11,-77.28C3256.59,-64.37 3140.59,-43.71 3067.96,-30.77"/>
<polygon fill="black" stroke="black" points="3068.46,-27.3 3058,-28.99 3067.23,-34.19 3068.46,-27.3"/>
</g>
<!-- :feature:other&#45;list&#45;&gt;:core:designsystem -->
<g id="edge56" class="edge">
<title>:feature:other&#45;list&#45;&gt;:core:designsystem</title>
<path fill="none" stroke="black" d="M3460.61,-77.2C3472.65,-75.28 3485.13,-73.45 3496.89,-72 3693.34,-47.82 3923.95,-32.26 4054.91,-24.62"/>
<polygon fill="black" stroke="black" points="4055.16,-28.11 4064.94,-24.04 4054.75,-21.12 4055.16,-28.11"/>
</g>
<!-- :feature:other&#45;server&#45;ip&#45;detail&#45;&gt;:core:domain -->
<g id="edge59" class="edge">
<title>:feature:other&#45;server&#45;ip&#45;detail&#45;&gt;:core:domain</title>
<path fill="none" stroke="black" d="M3547.8,-77.47C3530.77,-75.64 3513.35,-73.77 3496.89,-72 3347.49,-55.96 3172.73,-37.27 3075.94,-26.92"/>
<polygon fill="black" stroke="black" points="3076.28,-23.43 3065.97,-25.85 3075.54,-30.39 3076.28,-23.43"/>
</g>
<!-- :feature:other&#45;server&#45;ip&#45;detail&#45;&gt;:core:designsystem -->
<g id="edge60" class="edge">
<title>:feature:other&#45;server&#45;ip&#45;detail&#45;&gt;:core:designsystem</title>
<path fill="none" stroke="black" d="M3748.69,-76C3841.48,-63.14 3982.36,-43.61 4072.75,-31.08"/>
<polygon fill="black" stroke="black" points="4073.28,-34.54 4082.7,-29.7 4072.32,-27.61 4073.28,-34.54"/>
</g>
<!-- :feature:other&#45;console&#45;ip&#45;detail&#45;&gt;:core:domain -->
<g id="edge51" class="edge">
<title>:feature:other&#45;console&#45;ip&#45;detail&#45;&gt;:core:domain</title>
<path fill="none" stroke="black" d="M3867.33,-77.11C3849.17,-75.28 3830.5,-73.5 3812.89,-72 3544.65,-49.17 3225.76,-30.93 3080.72,-23.12"/>
<polygon fill="black" stroke="black" points="3080.75,-19.62 3070.58,-22.58 3080.38,-26.61 3080.75,-19.62"/>
</g>
<!-- :feature:other&#45;console&#45;ip&#45;detail&#45;&gt;:core:designsystem -->
<g id="edge52" class="edge">
<title>:feature:other&#45;console&#45;ip&#45;detail&#45;&gt;:core:designsystem</title>
<path fill="none" stroke="black" d="M4018.26,-72.59C4045.61,-62.24 4081.03,-48.84 4109.6,-38.03"/>
<polygon fill="black" stroke="black" points="4110.89,-41.28 4119.01,-34.47 4108.42,-34.73 4110.89,-41.28"/>
</g>
<!-- :feature:other&#45;readout&#45;start&#45;sound&#45;detail&#45;&gt;:core:domain -->
<g id="edge57" class="edge">
<title>:feature:other&#45;readout&#45;start&#45;sound&#45;detail&#45;&gt;:core:domain</title>
<path fill="none" stroke="black" d="M4207.1,-77.04C4183.67,-75.21 4159.6,-73.45 4136.89,-72 3741.3,-46.68 3267.4,-28.45 3081.89,-21.79"/>
<polygon fill="black" stroke="black" points="3081.8,-18.28 3071.68,-21.42 3081.55,-25.28 3081.8,-18.28"/>
</g>
<!-- :feature:other&#45;readout&#45;start&#45;sound&#45;detail&#45;&gt;:core:designsystem -->
<g id="edge58" class="edge">
<title>:feature:other&#45;readout&#45;start&#45;sound&#45;detail&#45;&gt;:core:designsystem</title>
<path fill="none" stroke="black" d="M4301.81,-72.41C4274.4,-62.1 4239.06,-48.8 4210.51,-38.05"/>
<polygon fill="black" stroke="black" points="4211.7,-34.76 4201.1,-34.51 4209.23,-41.31 4211.7,-34.76"/>
</g>
<!-- :feature:other&#45;volume&#45;detail&#45;&gt;:core:domain -->
<g id="edge61" class="edge">
<title>:feature:other&#45;volume&#45;detail&#45;&gt;:core:domain</title>
<path fill="none" stroke="black" d="M4607.76,-76.86C4590.19,-74.99 4572.01,-73.26 4554.89,-72 3992.81,-30.62 3313.87,-21.48 3083.13,-19.52"/>
<polygon fill="black" stroke="black" points="3082.84,-16.02 3072.81,-19.43 3082.78,-23.02 3082.84,-16.02"/>
</g>
<!-- :feature:other&#45;volume&#45;detail&#45;&gt;:core:designsystem -->
<g id="edge62" class="edge">
<title>:feature:other&#45;volume&#45;detail&#45;&gt;:core:designsystem</title>
<path fill="none" stroke="black" d="M4609.33,-76.73C4507.66,-63.67 4348.07,-43.17 4248.95,-30.44"/>
<polygon fill="black" stroke="black" points="4249.32,-26.96 4238.96,-29.16 4248.43,-33.9 4249.32,-26.96"/>
</g>
<!-- :feature:telemetry&#45;log&#45;list&#45;&gt;:core:domain -->
<g id="edge68" class="edge">
<title>:feature:telemetry&#45;log&#45;list&#45;&gt;:core:domain</title>
<path fill="none" stroke="black" d="M4904.66,-76.84C4888.14,-74.94 4871.01,-73.21 4854.89,-72 4502.66,-45.48 3392.11,-25.47 3082.65,-20.31"/>
<polygon fill="black" stroke="black" points="3082.47,-16.8 3072.41,-20.14 3082.35,-23.8 3082.47,-16.8"/>
</g>
<!-- :feature:telemetry&#45;log&#45;list&#45;&gt;:core:designsystem -->
<g id="edge69" class="edge">
<title>:feature:telemetry&#45;log&#45;list&#45;&gt;:core:designsystem</title>
<path fill="none" stroke="black" d="M4902.36,-77.2C4886.55,-75.34 4870.25,-73.52 4854.89,-72 4645.19,-51.19 4399.19,-34.17 4263.3,-25.41"/>
<polygon fill="black" stroke="black" points="4263.52,-21.92 4253.31,-24.77 4263.07,-28.9 4263.52,-21.92"/>
</g>
<!-- :feature:telemetry&#45;log&#45;detail&#45;&gt;:core:domain -->
<g id="edge66" class="edge">
<title>:feature:telemetry&#45;log&#45;detail&#45;&gt;:core:domain</title>
<path fill="none" stroke="black" d="M5186.93,-76.82C5168.99,-74.92 5150.39,-73.2 5132.89,-72 4722.93,-43.88 3420.62,-24.66 3082.65,-20.06"/>
<polygon fill="black" stroke="black" points="3082.5,-16.56 3072.45,-19.93 3082.41,-23.56 3082.5,-16.56"/>
</g>
<!-- :feature:telemetry&#45;log&#45;detail&#45;&gt;:core:designsystem -->
<g id="edge67" class="edge">
<title>:feature:telemetry&#45;log&#45;detail&#45;&gt;:core:designsystem</title>
<path fill="none" stroke="black" d="M5185.28,-77.07C5167.84,-75.2 5149.85,-73.42 5132.89,-72 4819.29,-45.83 4447.71,-29.71 4267.98,-22.85"/>
<polygon fill="black" stroke="black" points="4267.85,-19.34 4257.73,-22.46 4267.59,-26.34 4267.85,-19.34"/>
</g>
<!-- :feature:readout&#45;list&#45;&gt;:core:domain -->
<g id="edge63" class="edge">
<title>:feature:readout&#45;list&#45;&gt;:core:domain</title>
<path fill="none" stroke="black" d="M5476.62,-76.87C5462.81,-74.92 5448.43,-73.16 5434.89,-72 5315.32,-61.75 3491.16,-27.94 3082.64,-20.47"/>
<polygon fill="black" stroke="black" points="3082.46,-16.97 3072.4,-20.28 3082.33,-23.96 3082.46,-16.97"/>
</g>
<!-- :feature:readout&#45;list&#45;&gt;:core:designsystem -->
<g id="edge64" class="edge">
<title>:feature:readout&#45;list&#45;&gt;:core:designsystem</title>
<path fill="none" stroke="black" d="M5475.69,-76.95C5462.17,-75.03 5448.12,-73.27 5434.89,-72 5005.65,-30.91 4492.1,-21.67 4270.56,-19.59"/>
<polygon fill="black" stroke="black" points="4270.59,-16.09 4260.56,-19.5 4270.52,-23.09 4270.59,-16.09"/>
</g>
<!-- :feature:lmu&#45;windows&#45;readout&#45;vehicle&#45;approach&#45;detail&#45;&gt;:core:domain -->
<g id="edge46" class="edge">
<title>:feature:lmu&#45;windows&#45;readout&#45;vehicle&#45;approach&#45;detail&#45;&gt;:core:domain</title>
<path fill="none" stroke="black" d="M5753.76,-76.76C5722.81,-74.93 5690.92,-73.24 5660.89,-72 5398.26,-61.12 3498.91,-27.66 3082.46,-20.4"/>
<polygon fill="black" stroke="black" points="3082.37,-16.9 3072.31,-20.22 3082.25,-23.9 3082.37,-16.9"/>
</g>
<!-- :feature:lmu&#45;windows&#45;readout&#45;vehicle&#45;approach&#45;detail&#45;&gt;:core:designsystem -->
<g id="edge47" class="edge">
<title>:feature:lmu&#45;windows&#45;readout&#45;vehicle&#45;approach&#45;detail&#45;&gt;:core:designsystem</title>
<path fill="none" stroke="black" d="M5750.84,-76.97C5720.81,-75.16 5689.97,-73.43 5660.89,-72 5139.75,-46.4 4516.24,-28.44 4268.79,-21.82"/>
<polygon fill="black" stroke="black" points="4268.81,-18.31 4258.72,-21.55 4268.62,-25.31 4268.81,-18.31"/>
</g>
<!-- :feature:lmu&#45;windows&#45;readout&#45;flag&#45;detail&#45;&gt;:core:domain -->
<g id="edge44" class="edge">
<title>:feature:lmu&#45;windows&#45;readout&#45;flag&#45;detail&#45;&gt;:core:domain</title>
<path fill="none" stroke="black" d="M6274.15,-76.7C6249.78,-74.84 6224.59,-73.16 6200.89,-72 6180.81,-71.01 3577.45,-28.41 3082.6,-20.32"/>
<polygon fill="black" stroke="black" points="3082.39,-16.82 3072.33,-20.15 3082.28,-23.81 3082.39,-16.82"/>
</g>
<!-- :feature:lmu&#45;windows&#45;readout&#45;flag&#45;detail&#45;&gt;:core:designsystem -->
<g id="edge45" class="edge">
<title>:feature:lmu&#45;windows&#45;readout&#45;flag&#45;detail&#45;&gt;:core:designsystem</title>
<path fill="none" stroke="black" d="M6273.02,-76.8C6249.01,-74.96 6224.22,-73.26 6200.89,-72 5464.63,-32.38 4577.33,-22.16 4270.54,-19.71"/>
<polygon fill="black" stroke="black" points="4270.34,-16.21 4260.31,-19.63 4270.29,-23.21 4270.34,-16.21"/>
</g>
<!-- :feature:lmu&#45;windows&#45;readout&#45;vehicle&#45;damage&#45;detail&#45;&gt;:core:domain -->
<g id="edge48" class="edge">
<title>:feature:lmu&#45;windows&#45;readout&#45;vehicle&#45;damage&#45;detail&#45;&gt;:core:domain</title>
<path fill="none" stroke="black" d="M6709.42,-76.66C6678.95,-74.83 6647.49,-73.16 6617.89,-72 5477.32,-27.17 5191.2,-53.26 4049.89,-36 3689.09,-30.54 3258.43,-23.34 3082.62,-20.37"/>
<polygon fill="black" stroke="black" points="3082.48,-16.87 3072.42,-20.2 3082.36,-23.87 3082.48,-16.87"/>
</g>
<!-- :feature:lmu&#45;windows&#45;readout&#45;vehicle&#45;damage&#45;detail&#45;&gt;:core:designsystem -->
<g id="edge49" class="edge">
<title>:feature:lmu&#45;windows&#45;readout&#45;vehicle&#45;damage&#45;detail&#45;&gt;:core:designsystem</title>
<path fill="none" stroke="black" d="M6708,-76.76C6677.97,-74.94 6647.03,-73.26 6617.89,-72 5711.84,-32.97 4616.63,-22.22 4270.35,-19.69"/>
<polygon fill="black" stroke="black" points="4270.35,-16.19 4260.32,-19.62 4270.3,-23.19 4270.35,-16.19"/>
</g>
<!-- :feature:gt7&#45;ps5&#45;readout&#45;my&#45;bestlap&#45;detail&#45;&gt;:core:domain -->
<g id="edge37" class="edge">
<title>:feature:gt7&#45;ps5&#45;readout&#45;my&#45;bestlap&#45;detail&#45;&gt;:core:domain</title>
<path fill="none" stroke="black" d="M1814.59,-77.04C1838.72,-75.23 1863.51,-73.47 1886.89,-72 2274.84,-47.59 2739.37,-28.89 2922.3,-21.94"/>
<polygon fill="black" stroke="black" points="2922.51,-25.44 2932.37,-21.56 2922.25,-18.44 2922.51,-25.44"/>
</g>
<!-- :feature:gt7&#45;ps5&#45;readout&#45;my&#45;bestlap&#45;detail&#45;&gt;:core:designsystem -->
<g id="edge38" class="edge">
<title>:feature:gt7&#45;ps5&#45;readout&#45;my&#45;bestlap&#45;detail&#45;&gt;:core:designsystem</title>
<path fill="none" stroke="black" d="M1811.35,-76.79C1836.49,-74.94 1862.45,-73.24 1886.89,-72 2315.5,-50.23 3655.92,-27.2 4049.92,-20.76"/>
<polygon fill="black" stroke="black" points="4050.24,-24.26 4060.18,-20.6 4050.13,-17.26 4050.24,-24.26"/>
</g>
<!-- :feature:gt7&#45;ps5&#45;readout&#45;remaining&#45;fuel&#45;laps&#45;detail&#45;&gt;:core:domain -->
<g id="edge39" class="edge">
<title>:feature:gt7&#45;ps5&#45;readout&#45;remaining&#45;fuel&#45;laps&#45;detail&#45;&gt;:core:domain</title>
<path fill="none" stroke="black" d="M2299.63,-76.16C2485.07,-61.07 2785.28,-36.63 2925.36,-25.23"/>
<polygon fill="black" stroke="black" points="2925.88,-28.7 2935.57,-24.4 2925.32,-21.72 2925.88,-28.7"/>
</g>
<!-- :feature:gt7&#45;ps5&#45;readout&#45;remaining&#45;fuel&#45;laps&#45;detail&#45;&gt;:core:designsystem -->
<g id="edge40" class="edge">
<title>:feature:gt7&#45;ps5&#45;readout&#45;remaining&#45;fuel&#45;laps&#45;detail&#45;&gt;:core:designsystem</title>
<path fill="none" stroke="black" d="M2311.22,-76.89C2340.12,-75.07 2369.86,-73.35 2397.89,-72 3022.56,-41.87 3772.68,-26.07 4049.94,-20.92"/>
<polygon fill="black" stroke="black" points="4050.07,-24.42 4060,-20.74 4049.94,-17.42 4050.07,-24.42"/>
</g>
<!-- :app:webApp -->
<g id="node29" class="node">
<title>:app:webApp</title>
<ellipse fill="none" stroke="black" cx="3268.89" cy="-234" rx="70.69" ry="18"/>
<text text-anchor="middle" x="3268.89" y="-230.3" font-family="Times,serif" font-size="14.00">:app:webApp</text>
</g>
<!-- :app:webApp&#45;&gt;:app:shared -->
<g id="edge30" class="edge">
<title>:app:webApp&#45;&gt;:app:shared</title>
<path fill="none" stroke="black" d="M3268.89,-215.7C3268.89,-207.98 3268.89,-198.71 3268.89,-190.11"/>
<polygon fill="black" stroke="black" points="3272.39,-190.1 3268.89,-180.1 3265.39,-190.1 3272.39,-190.1"/>
</g>
</g>
</svg>
