<?xml version="1.0" encoding="UTF-8" standalone="no"?>
<!DOCTYPE svg PUBLIC "-//W3C//DTD SVG 1.1//EN"
 "http://www.w3.org/Graphics/SVG/1.1/DTD/svg11.dtd">
<!-- Generated by graphviz version 2.43.0 (0)
 -->
<!-- Title: G Pages: 1 -->
<svg width="2197pt" height="260pt"
 viewBox="0.00 0.00 2196.75 260.00" xmlns="http://www.w3.org/2000/svg" xmlns:xlink="http://www.w3.org/1999/xlink">
<g id="graph0" class="graph" transform="scale(1 1) rotate(0) translate(4 256)">
<title>G</title>
<polygon fill="white" stroke="transparent" points="-4,4 -4,-256 2192.75,-256 2192.75,4 -4,4"/>
<!-- :server -->
<g id="node1" class="node">
<title>:server</title>
<ellipse fill="none" stroke="black" cx="2105.84" cy="-90" rx="43.59" ry="18"/>
<text text-anchor="middle" x="2105.84" y="-86.3" font-family="Times,serif" font-size="14.00">:server</text>
</g>
<!-- :core:domain -->
<g id="node2" class="node">
<title>:core:domain</title>
<ellipse fill="none" stroke="black" cx="1544.84" cy="-18" rx="70.69" ry="18"/>
<text text-anchor="middle" x="1544.84" y="-14.3" font-family="Times,serif" font-size="14.00">:core:domain</text>
</g>
<!-- :server&#45;&gt;:core:domain -->
<g id="edge1" class="edge">
<title>:server&#45;&gt;:core:domain</title>
<path fill="none" stroke="black" d="M2073.89,-77.58C2067.02,-75.46 2059.74,-73.45 2052.84,-72 1903.5,-40.61 1725.38,-27.47 1624.66,-22.23"/>
<polygon fill="black" stroke="black" points="1624.73,-18.73 1614.56,-21.72 1624.37,-25.72 1624.73,-18.73"/>
</g>
<!-- :app:androidApp -->
<g id="node3" class="node">
<title>:app:androidApp</title>
<ellipse fill="none" stroke="black" cx="1669.84" cy="-234" rx="87.18" ry="18"/>
<text text-anchor="middle" x="1669.84" y="-230.3" font-family="Times,serif" font-size="14.00">:app:androidApp</text>
</g>
<!-- :app:shared -->
<g id="node4" class="node">
<title>:app:shared</title>
<ellipse fill="none" stroke="black" cx="1438.84" cy="-162" rx="65.79" ry="18"/>
<text text-anchor="middle" x="1438.84" y="-158.3" font-family="Times,serif" font-size="14.00">:app:shared</text>
</g>
<!-- :app:androidApp&#45;&gt;:app:shared -->
<g id="edge2" class="edge">
<title>:app:androidApp&#45;&gt;:app:shared</title>
<path fill="none" stroke="black" d="M1622.81,-218.75C1584.51,-207.14 1530.47,-190.77 1490.87,-178.77"/>
<polygon fill="black" stroke="black" points="1491.72,-175.37 1481.13,-175.82 1489.69,-182.07 1491.72,-175.37"/>
</g>
<!-- :core:data -->
<g id="node5" class="node">
<title>:core:data</title>
<ellipse fill="none" stroke="black" cx="2076.84" cy="-162" rx="57.39" ry="18"/>
<text text-anchor="middle" x="2076.84" y="-158.3" font-family="Times,serif" font-size="14.00">:core:data</text>
</g>
<!-- :app:androidApp&#45;&gt;:core:data -->
<g id="edge3" class="edge">
<title>:app:androidApp&#45;&gt;:core:data</title>
<path fill="none" stroke="black" d="M1734.78,-221.83C1812.69,-208.43 1942.22,-186.15 2017.54,-173.2"/>
<polygon fill="black" stroke="black" points="2018.53,-176.58 2027.79,-171.44 2017.34,-169.68 2018.53,-176.58"/>
</g>
<!-- :feature:lmu&#45;connection -->
<g id="node7" class="node">
<title>:feature:lmu&#45;connection</title>
<ellipse fill="none" stroke="black" cx="1104.84" cy="-90" rx="120.78" ry="18"/>
<text text-anchor="middle" x="1104.84" y="-86.3" font-family="Times,serif" font-size="14.00">:feature:lmu&#45;connection</text>
</g>
<!-- :app:shared&#45;&gt;:feature:lmu&#45;connection -->
<g id="edge7" class="edge">
<title>:app:shared&#45;&gt;:feature:lmu&#45;connection</title>
<path fill="none" stroke="black" d="M1388.47,-150.44C1333.64,-138.95 1245.29,-120.44 1181.76,-107.12"/>
<polygon fill="black" stroke="black" points="1182.29,-103.66 1171.79,-105.03 1180.86,-110.51 1182.29,-103.66"/>
</g>
<!-- :feature:narrator -->
<g id="node8" class="node">
<title>:feature:narrator</title>
<ellipse fill="none" stroke="black" cx="1332.84" cy="-90" rx="89.08" ry="18"/>
<text text-anchor="middle" x="1332.84" y="-86.3" font-family="Times,serif" font-size="14.00">:feature:narrator</text>
</g>
<!-- :app:shared&#45;&gt;:feature:narrator -->
<g id="edge8" class="edge">
<title>:app:shared&#45;&gt;:feature:narrator</title>
<path fill="none" stroke="black" d="M1414.78,-145.12C1400.35,-135.59 1381.79,-123.33 1365.99,-112.89"/>
<polygon fill="black" stroke="black" points="1367.8,-109.9 1357.53,-107.31 1363.95,-115.74 1367.8,-109.9"/>
</g>
<!-- :feature:other&#45;detail -->
<g id="node9" class="node">
<title>:feature:other&#45;detail</title>
<ellipse fill="none" stroke="black" cx="1544.84" cy="-90" rx="104.78" ry="18"/>
<text text-anchor="middle" x="1544.84" y="-86.3" font-family="Times,serif" font-size="14.00">:feature:other&#45;detail</text>
</g>
<!-- :app:shared&#45;&gt;:feature:other&#45;detail -->
<g id="edge9" class="edge">
<title>:app:shared&#45;&gt;:feature:other&#45;detail</title>
<path fill="none" stroke="black" d="M1462.89,-145.12C1477.22,-135.65 1495.62,-123.5 1511.35,-113.11"/>
<polygon fill="black" stroke="black" points="1513.36,-115.98 1519.77,-107.55 1509.5,-110.14 1513.36,-115.98"/>
</g>
<!-- :feature:other&#45;list -->
<g id="node10" class="node">
<title>:feature:other&#45;list</title>
<ellipse fill="none" stroke="black" cx="1760.84" cy="-90" rx="92.88" ry="18"/>
<text text-anchor="middle" x="1760.84" y="-86.3" font-family="Times,serif" font-size="14.00">:feature:other&#45;list</text>
</g>
<!-- :app:shared&#45;&gt;:feature:other&#45;list -->
<g id="edge10" class="edge">
<title>:app:shared&#45;&gt;:feature:other&#45;list</title>
<path fill="none" stroke="black" d="M1488.8,-150.14C1543.18,-138.32 1630.52,-119.33 1691.52,-106.07"/>
<polygon fill="black" stroke="black" points="1692.43,-109.45 1701.45,-103.91 1690.94,-102.61 1692.43,-109.45"/>
</g>
<!-- :feature:readout -->
<g id="node11" class="node">
<title>:feature:readout</title>
<ellipse fill="none" stroke="black" cx="1957.84" cy="-90" rx="86.38" ry="18"/>
<text text-anchor="middle" x="1957.84" y="-86.3" font-family="Times,serif" font-size="14.00">:feature:readout</text>
</g>
<!-- :app:shared&#45;&gt;:feature:readout -->
<g id="edge11" class="edge">
<title>:app:shared&#45;&gt;:feature:readout</title>
<path fill="none" stroke="black" d="M1498.66,-154.53C1580.89,-145.4 1733.39,-127.66 1862.84,-108 1870.27,-106.87 1878.01,-105.62 1885.73,-104.31"/>
<polygon fill="black" stroke="black" points="1886.56,-107.72 1895.83,-102.58 1885.38,-100.82 1886.56,-107.72"/>
</g>
<!-- :feature:readout&#45;vehicle&#45;approach -->
<g id="node12" class="node">
<title>:feature:readout&#45;vehicle&#45;approach</title>
<ellipse fill="none" stroke="black" cx="797.84" cy="-90" rx="167.87" ry="18"/>
<text text-anchor="middle" x="797.84" y="-86.3" font-family="Times,serif" font-size="14.00">:feature:readout&#45;vehicle&#45;approach</text>
</g>
<!-- :app:shared&#45;&gt;:feature:readout&#45;vehicle&#45;approach -->
<g id="edge12" class="edge">
<title>:app:shared&#45;&gt;:feature:readout&#45;vehicle&#45;approach</title>
<path fill="none" stroke="black" d="M1379.11,-154.48C1275.03,-143.11 1058.45,-119.46 921.04,-104.45"/>
<polygon fill="black" stroke="black" points="921.2,-100.95 910.88,-103.34 920.44,-107.91 921.2,-100.95"/>
</g>
<!-- :feature:readout&#45;flag&#45;detail -->
<g id="node13" class="node">
<title>:feature:readout&#45;flag&#45;detail</title>
<ellipse fill="none" stroke="black" cx="135.84" cy="-90" rx="135.68" ry="18"/>
<text text-anchor="middle" x="135.84" y="-86.3" font-family="Times,serif" font-size="14.00">:feature:readout&#45;flag&#45;detail</text>
</g>
<!-- :app:shared&#45;&gt;:feature:readout&#45;flag&#45;detail -->
<g id="edge13" class="edge">
<title>:app:shared&#45;&gt;:feature:readout&#45;flag&#45;detail</title>
<path fill="none" stroke="black" d="M1373.76,-159.64C1197.52,-155.61 696.31,-141.82 280.84,-108 267.75,-106.93 254.03,-105.6 240.45,-104.16"/>
<polygon fill="black" stroke="black" points="240.44,-100.64 230.12,-103.04 239.68,-107.6 240.44,-100.64"/>
</g>
<!-- :feature:readout&#45;vehicle&#45;damage -->
<g id="node14" class="node">
<title>:feature:readout&#45;vehicle&#45;damage</title>
<ellipse fill="none" stroke="black" cx="450.84" cy="-90" rx="161.37" ry="18"/>
<text text-anchor="middle" x="450.84" y="-86.3" font-family="Times,serif" font-size="14.00">:feature:readout&#45;vehicle&#45;damage</text>
</g>
<!-- :app:shared&#45;&gt;:feature:readout&#45;vehicle&#45;damage -->
<g id="edge14" class="edge">
<title>:app:shared&#45;&gt;:feature:readout&#45;vehicle&#45;damage</title>
<path fill="none" stroke="black" d="M1375.14,-157.63C1237.42,-150.19 901.66,-131.13 620.84,-108 605.8,-106.76 590.03,-105.34 574.41,-103.87"/>
<polygon fill="black" stroke="black" points="574.47,-100.36 564.18,-102.89 573.8,-107.33 574.47,-100.36"/>
</g>
<!-- :core:data&#45;&gt;:core:domain -->
<g id="edge16" class="edge">
<title>:core:data&#45;&gt;:core:domain</title>
<path fill="none" stroke="black" d="M2112.17,-147.78C2129.55,-139.26 2148.87,-126.31 2158.84,-108 2166.49,-93.95 2169.65,-83.79 2158.84,-72 2123.49,-33.47 1784.19,-22.88 1625.68,-20.03"/>
<polygon fill="black" stroke="black" points="1625.57,-16.52 1615.51,-19.85 1625.45,-23.52 1625.57,-16.52"/>
</g>
<!-- :app:desktopApp -->
<g id="node6" class="node">
<title>:app:desktopApp</title>
<ellipse fill="none" stroke="black" cx="2076.84" cy="-234" rx="88.28" ry="18"/>
<text text-anchor="middle" x="2076.84" y="-230.3" font-family="Times,serif" font-size="14.00">:app:desktopApp</text>
</g>
<!-- :app:desktopApp&#45;&gt;:core:domain -->
<g id="edge6" class="edge">
<title>:app:desktopApp&#45;&gt;:core:domain</title>
<path fill="none" stroke="black" d="M2100.3,-216.54C2141.47,-185.75 2218.48,-118.38 2175.84,-72 2139.32,-32.28 1787.74,-22.31 1625.79,-19.82"/>
<polygon fill="black" stroke="black" points="1625.45,-16.32 1615.4,-19.67 1625.35,-23.32 1625.45,-16.32"/>
</g>
<!-- :app:desktopApp&#45;&gt;:app:shared -->
<g id="edge4" class="edge">
<title>:app:desktopApp&#45;&gt;:app:shared</title>
<path fill="none" stroke="black" d="M2001.15,-224.7C1876.54,-211.02 1630,-183.97 1509.07,-170.71"/>
<polygon fill="black" stroke="black" points="1509.14,-167.19 1498.82,-169.58 1508.38,-174.15 1509.14,-167.19"/>
</g>
<!-- :app:desktopApp&#45;&gt;:core:data -->
<g id="edge5" class="edge">
<title>:app:desktopApp&#45;&gt;:core:data</title>
<path fill="none" stroke="black" d="M2076.84,-215.7C2076.84,-207.98 2076.84,-198.71 2076.84,-190.11"/>
<polygon fill="black" stroke="black" points="2080.34,-190.1 2076.84,-180.1 2073.34,-190.1 2080.34,-190.1"/>
</g>
<!-- :feature:lmu&#45;connection&#45;&gt;:core:domain -->
<g id="edge17" class="edge">
<title>:feature:lmu&#45;connection&#45;&gt;:core:domain</title>
<path fill="none" stroke="black" d="M1184.26,-76.36C1267.53,-63.12 1397.04,-42.51 1476.07,-29.94"/>
<polygon fill="black" stroke="black" points="1477.08,-33.32 1486.4,-28.3 1475.98,-26.41 1477.08,-33.32"/>
</g>
<!-- :feature:narrator&#45;&gt;:core:domain -->
<g id="edge18" class="edge">
<title>:feature:narrator&#45;&gt;:core:domain</title>
<path fill="none" stroke="black" d="M1377.28,-74.33C1411.24,-63.11 1458.1,-47.64 1493.63,-35.91"/>
<polygon fill="black" stroke="black" points="1494.94,-39.16 1503.33,-32.7 1492.74,-32.52 1494.94,-39.16"/>
</g>
<!-- :feature:other&#45;detail&#45;&gt;:core:domain -->
<g id="edge19" class="edge">
<title>:feature:other&#45;detail&#45;&gt;:core:domain</title>
<path fill="none" stroke="black" d="M1544.84,-71.7C1544.84,-63.98 1544.84,-54.71 1544.84,-46.11"/>
<polygon fill="black" stroke="black" points="1548.34,-46.1 1544.84,-36.1 1541.34,-46.1 1548.34,-46.1"/>
</g>
<!-- :feature:other&#45;list&#45;&gt;:core:domain -->
<g id="edge20" class="edge">
<title>:feature:other&#45;list&#45;&gt;:core:domain</title>
<path fill="none" stroke="black" d="M1715.29,-74.24C1680.56,-62.98 1632.7,-47.47 1596.53,-35.75"/>
<polygon fill="black" stroke="black" points="1597.25,-32.31 1586.66,-32.55 1595.09,-38.97 1597.25,-32.31"/>
</g>
<!-- :feature:readout&#45;&gt;:core:domain -->
<g id="edge21" class="edge">
<title>:feature:readout&#45;&gt;:core:domain</title>
<path fill="none" stroke="black" d="M1894.75,-77.6C1884.1,-75.71 1873.16,-73.78 1862.84,-72 1776.72,-57.12 1677.35,-40.67 1612.93,-30.11"/>
<polygon fill="black" stroke="black" points="1613.34,-26.63 1602.9,-28.46 1612.2,-33.54 1613.34,-26.63"/>
</g>
<!-- :feature:readout&#45;vehicle&#45;approach&#45;&gt;:core:domain -->
<g id="edge24" class="edge">
<title>:feature:readout&#45;vehicle&#45;approach&#45;&gt;:core:domain</title>
<path fill="none" stroke="black" d="M918.28,-77.38C937.2,-75.57 956.55,-73.73 974.84,-72 1151.92,-55.26 1360,-36.02 1469.18,-25.96"/>
<polygon fill="black" stroke="black" points="1469.8,-29.42 1479.44,-25.02 1469.16,-22.45 1469.8,-29.42"/>
</g>
<!-- :core:designsystem -->
<g id="node16" class="node">
<title>:core:designsystem</title>
<ellipse fill="none" stroke="black" cx="450.84" cy="-18" rx="100.98" ry="18"/>
<text text-anchor="middle" x="450.84" y="-14.3" font-family="Times,serif" font-size="14.00">:core:designsystem</text>
</g>
<!-- :feature:readout&#45;vehicle&#45;approach&#45;&gt;:core:designsystem -->
<g id="edge25" class="edge">
<title>:feature:readout&#45;vehicle&#45;approach&#45;&gt;:core:designsystem</title>
<path fill="none" stroke="black" d="M722.54,-73.81C663.94,-61.99 583.06,-45.67 524.8,-33.92"/>
<polygon fill="black" stroke="black" points="525.42,-30.47 514.92,-31.93 524.03,-37.34 525.42,-30.47"/>
</g>
<!-- :feature:readout&#45;flag&#45;detail&#45;&gt;:core:domain -->
<g id="edge22" class="edge">
<title>:feature:readout&#45;flag&#45;detail&#45;&gt;:core:domain</title>
<path fill="none" stroke="black" d="M229.73,-76.95C246.72,-75.07 264.29,-73.32 280.84,-72 726.85,-36.55 1263.4,-23.96 1463.99,-20.29"/>
<polygon fill="black" stroke="black" points="1464.21,-23.79 1474.15,-20.11 1464.09,-16.79 1464.21,-23.79"/>
</g>
<!-- :feature:readout&#45;flag&#45;detail&#45;&gt;:core:designsystem -->
<g id="edge23" class="edge">
<title>:feature:readout&#45;flag&#45;detail&#45;&gt;:core:designsystem</title>
<path fill="none" stroke="black" d="M202.26,-74.24C254.49,-62.63 327.07,-46.5 380.33,-34.67"/>
<polygon fill="black" stroke="black" points="381.37,-38.02 390.37,-32.44 379.85,-31.19 381.37,-38.02"/>
</g>
<!-- :feature:readout&#45;vehicle&#45;damage&#45;&gt;:core:domain -->
<g id="edge26" class="edge">
<title>:feature:readout&#45;vehicle&#45;damage&#45;&gt;:core:domain</title>
<path fill="none" stroke="black" d="M563.25,-77.08C582.45,-75.24 602.21,-73.47 620.84,-72 932.95,-47.45 1305.23,-29.57 1465.28,-22.43"/>
<polygon fill="black" stroke="black" points="1465.68,-25.91 1475.51,-21.97 1465.37,-18.92 1465.68,-25.91"/>
</g>
<!-- :feature:readout&#45;vehicle&#45;damage&#45;&gt;:core:designsystem -->
<g id="edge27" class="edge">
<title>:feature:readout&#45;vehicle&#45;damage&#45;&gt;:core:designsystem</title>
<path fill="none" stroke="black" d="M450.84,-71.7C450.84,-63.98 450.84,-54.71 450.84,-46.11"/>
<polygon fill="black" stroke="black" points="454.34,-46.1 450.84,-36.1 447.34,-46.1 454.34,-46.1"/>
</g>
<!-- :app:webApp -->
<g id="node15" class="node">
<title>:app:webApp</title>
<ellipse fill="none" stroke="black" cx="1438.84" cy="-234" rx="70.69" ry="18"/>
<text text-anchor="middle" x="1438.84" y="-230.3" font-family="Times,serif" font-size="14.00">:app:webApp</text>
</g>
<!-- :app:webApp&#45;&gt;:app:shared -->
<g id="edge15" class="edge">
<title>:app:webApp&#45;&gt;:app:shared</title>
<path fill="none" stroke="black" d="M1438.84,-215.7C1438.84,-207.98 1438.84,-198.71 1438.84,-190.11"/>
<polygon fill="black" stroke="black" points="1442.34,-190.1 1438.84,-180.1 1435.34,-190.1 1442.34,-190.1"/>
</g>
</g>
</svg>
