<?xml version="1.0" encoding="UTF-8" standalone="no"?>
<!DOCTYPE svg PUBLIC "-//W3C//DTD SVG 1.1//EN"
 "http://www.w3.org/Graphics/SVG/1.1/DTD/svg11.dtd">
<!-- Generated by graphviz version 2.43.0 (0)
 -->
<!-- Title: G Pages: 1 -->
<svg width="6933pt" height="260pt"
 viewBox="0.00 0.00 6932.67 260.00" xmlns="http://www.w3.org/2000/svg" xmlns:xlink="http://www.w3.org/1999/xlink">
<g id="graph0" class="graph" transform="scale(1 1) rotate(0) translate(4 256)">
<title>G</title>
<polygon fill="white" stroke="transparent" points="-4,4 -4,-256 6928.67,-256 6928.67,4 -4,4"/>
<!-- :server -->
<g id="node1" class="node">
<title>:server</title>
<ellipse fill="none" stroke="black" cx="302.89" cy="-162" rx="43.59" ry="18"/>
<text text-anchor="middle" x="302.89" y="-158.3" font-family="Times,serif" font-size="14.00">:server</text>
</g>
<!-- :core:domain -->
<g id="node2" class="node">
<title>:core:domain</title>
<ellipse fill="none" stroke="black" cx="2587.89" cy="-18" rx="70.69" ry="18"/>
<text text-anchor="middle" x="2587.89" y="-14.3" font-family="Times,serif" font-size="14.00">:core:domain</text>
</g>
<!-- :server&#45;&gt;:core:domain -->
<g id="edge1" class="edge">
<title>:server&#45;&gt;:core:domain</title>
<path fill="none" stroke="black" d="M303.16,-143.91C304.53,-123.09 310.3,-88.63 332.89,-72 377.54,-39.13 2109.24,-22.93 2507.02,-19.64"/>
<polygon fill="black" stroke="black" points="2507.31,-23.14 2517.28,-19.55 2507.26,-16.14 2507.31,-23.14"/>
</g>
<!-- :app:androidApp -->
<g id="node3" class="node">
<title>:app:androidApp</title>
<ellipse fill="none" stroke="black" cx="639.89" cy="-234" rx="87.18" ry="18"/>
<text text-anchor="middle" x="639.89" y="-230.3" font-family="Times,serif" font-size="14.00">:app:androidApp</text>
</g>
<!-- :app:shared -->
<g id="node4" class="node">
<title>:app:shared</title>
<ellipse fill="none" stroke="black" cx="2886.89" cy="-162" rx="65.79" ry="18"/>
<text text-anchor="middle" x="2886.89" y="-158.3" font-family="Times,serif" font-size="14.00">:app:shared</text>
</g>
<!-- :app:androidApp&#45;&gt;:app:shared -->
<g id="edge2" class="edge">
<title>:app:androidApp&#45;&gt;:app:shared</title>
<path fill="none" stroke="black" d="M725.23,-230.34C1084.75,-219.14 2473,-175.89 2811.93,-165.34"/>
<polygon fill="black" stroke="black" points="2812.24,-168.83 2822.12,-165.02 2812.02,-161.83 2812.24,-168.83"/>
</g>
<!-- :core:data -->
<g id="node5" class="node">
<title>:core:data</title>
<ellipse fill="none" stroke="black" cx="628.89" cy="-162" rx="57.39" ry="18"/>
<text text-anchor="middle" x="628.89" y="-158.3" font-family="Times,serif" font-size="14.00">:core:data</text>
</g>
<!-- :app:androidApp&#45;&gt;:core:data -->
<g id="edge3" class="edge">
<title>:app:androidApp&#45;&gt;:core:data</title>
<path fill="none" stroke="black" d="M637.17,-215.7C635.96,-207.98 634.5,-198.71 633.15,-190.11"/>
<polygon fill="black" stroke="black" points="636.59,-189.44 631.58,-180.1 629.67,-190.53 636.59,-189.44"/>
</g>
<!-- :core:gt7&#45;ps5&#45;data -->
<g id="node6" class="node">
<title>:core:gt7&#45;ps5&#45;data</title>
<ellipse fill="none" stroke="black" cx="458.89" cy="-162" rx="94.78" ry="18"/>
<text text-anchor="middle" x="458.89" y="-158.3" font-family="Times,serif" font-size="14.00">:core:gt7&#45;ps5&#45;data</text>
</g>
<!-- :app:androidApp&#45;&gt;:core:gt7&#45;ps5&#45;data -->
<g id="edge4" class="edge">
<title>:app:androidApp&#45;&gt;:core:gt7&#45;ps5&#45;data</title>
<path fill="none" stroke="black" d="M600.61,-217.81C573.53,-207.33 537.31,-193.33 508.26,-182.09"/>
<polygon fill="black" stroke="black" points="509.3,-178.74 498.71,-178.4 506.78,-185.27 509.3,-178.74"/>
</g>
<!-- :feature:main -->
<g id="node9" class="node">
<title>:feature:main</title>
<ellipse fill="none" stroke="black" cx="2587.89" cy="-90" rx="73.39" ry="18"/>
<text text-anchor="middle" x="2587.89" y="-86.3" font-family="Times,serif" font-size="14.00">:feature:main</text>
</g>
<!-- :app:shared&#45;&gt;:feature:main -->
<g id="edge10" class="edge">
<title>:app:shared&#45;&gt;:feature:main</title>
<path fill="none" stroke="black" d="M2838.52,-149.68C2786.83,-137.57 2704.78,-118.37 2648.75,-105.25"/>
<polygon fill="black" stroke="black" points="2649.48,-101.82 2638.95,-102.95 2647.88,-108.64 2649.48,-101.82"/>
</g>
<!-- :feature:lmu&#45;windows&#45;connection -->
<g id="node10" class="node">
<title>:feature:lmu&#45;windows&#45;connection</title>
<ellipse fill="none" stroke="black" cx="534.89" cy="-90" rx="164.37" ry="18"/>
<text text-anchor="middle" x="534.89" y="-86.3" font-family="Times,serif" font-size="14.00">:feature:lmu&#45;windows&#45;connection</text>
</g>
<!-- :app:shared&#45;&gt;:feature:lmu&#45;windows&#45;connection -->
<g id="edge11" class="edge">
<title>:app:shared&#45;&gt;:feature:lmu&#45;windows&#45;connection</title>
<path fill="none" stroke="black" d="M2820.88,-161.15C2555.6,-161.39 1541.36,-158.73 708.89,-108 692.17,-106.98 674.58,-105.61 657.27,-104.09"/>
<polygon fill="black" stroke="black" points="657.39,-100.59 647.11,-103.18 656.76,-107.56 657.39,-100.59"/>
</g>
<!-- :feature:gt7&#45;ps5&#45;connection -->
<g id="node11" class="node">
<title>:feature:gt7&#45;ps5&#45;connection</title>
<ellipse fill="none" stroke="black" cx="855.89" cy="-90" rx="138.38" ry="18"/>
<text text-anchor="middle" x="855.89" y="-86.3" font-family="Times,serif" font-size="14.00">:feature:gt7&#45;ps5&#45;connection</text>
</g>
<!-- :app:shared&#45;&gt;:feature:gt7&#45;ps5&#45;connection -->
<g id="edge12" class="edge">
<title>:app:shared&#45;&gt;:feature:gt7&#45;ps5&#45;connection</title>
<path fill="none" stroke="black" d="M2820.91,-161.2C2578.5,-161.5 1714.21,-158.7 1003.89,-108 989.95,-107.01 975.3,-105.67 960.87,-104.19"/>
<polygon fill="black" stroke="black" points="961.23,-100.71 950.92,-103.14 960.49,-107.67 961.23,-100.71"/>
</g>
<!-- :feature:server&#45;connection -->
<g id="node12" class="node">
<title>:feature:server&#45;connection</title>
<ellipse fill="none" stroke="black" cx="1145.89" cy="-90" rx="133.48" ry="18"/>
<text text-anchor="middle" x="1145.89" y="-86.3" font-family="Times,serif" font-size="14.00">:feature:server&#45;connection</text>
</g>
<!-- :app:shared&#45;&gt;:feature:server&#45;connection -->
<g id="edge13" class="edge">
<title>:app:shared&#45;&gt;:feature:server&#45;connection</title>
<path fill="none" stroke="black" d="M2821.29,-160.85C2603.09,-159.9 1881.95,-153.32 1287.89,-108 1274.87,-107.01 1261.2,-105.7 1247.71,-104.26"/>
<polygon fill="black" stroke="black" points="1247.76,-100.75 1237.44,-103.13 1247,-107.7 1247.76,-100.75"/>
</g>
<!-- :feature:lmu&#45;windows&#45;narrator -->
<g id="node13" class="node">
<title>:feature:lmu&#45;windows&#45;narrator</title>
<ellipse fill="none" stroke="black" cx="3776.89" cy="-90" rx="153.27" ry="18"/>
<text text-anchor="middle" x="3776.89" y="-86.3" font-family="Times,serif" font-size="14.00">:feature:lmu&#45;windows&#45;narrator</text>
</g>
<!-- :app:shared&#45;&gt;:feature:lmu&#45;windows&#45;narrator -->
<g id="edge14" class="edge">
<title>:app:shared&#45;&gt;:feature:lmu&#45;windows&#45;narrator</title>
<path fill="none" stroke="black" d="M2950.15,-157.05C3076.43,-149.03 3368.71,-129.72 3613.89,-108 3628.28,-106.73 3643.38,-105.29 3658.33,-103.8"/>
<polygon fill="black" stroke="black" points="3659.05,-107.25 3668.65,-102.77 3658.35,-100.28 3659.05,-107.25"/>
</g>
<!-- :feature:gt7&#45;ps5&#45;narrator -->
<g id="node14" class="node">
<title>:feature:gt7&#45;ps5&#45;narrator</title>
<ellipse fill="none" stroke="black" cx="4075.89" cy="-90" rx="127.28" ry="18"/>
<text text-anchor="middle" x="4075.89" y="-86.3" font-family="Times,serif" font-size="14.00">:feature:gt7&#45;ps5&#45;narrator</text>
</g>
<!-- :app:shared&#45;&gt;:feature:gt7&#45;ps5&#45;narrator -->
<g id="edge15" class="edge">
<title>:app:shared&#45;&gt;:feature:gt7&#45;ps5&#45;narrator</title>
<path fill="none" stroke="black" d="M2951.95,-159.38C3117.13,-154.9 3566.1,-140.48 3938.89,-108 3951.23,-106.92 3964.17,-105.59 3976.97,-104.15"/>
<polygon fill="black" stroke="black" points="3977.65,-107.59 3987.19,-102.97 3976.85,-100.64 3977.65,-107.59"/>
</g>
<!-- :feature:other&#45;license&#45;detail -->
<g id="node15" class="node">
<title>:feature:other&#45;license&#45;detail</title>
<ellipse fill="none" stroke="black" cx="4360.89" cy="-90" rx="139.98" ry="18"/>
<text text-anchor="middle" x="4360.89" y="-86.3" font-family="Times,serif" font-size="14.00">:feature:other&#45;license&#45;detail</text>
</g>
<!-- :app:shared&#45;&gt;:feature:other&#45;license&#45;detail -->
<g id="edge16" class="edge">
<title>:app:shared&#45;&gt;:feature:other&#45;license&#45;detail</title>
<path fill="none" stroke="black" d="M2952.48,-160.08C3145.66,-157.02 3729.28,-145.13 4211.89,-108 4225.57,-106.95 4239.94,-105.61 4254.12,-104.14"/>
<polygon fill="black" stroke="black" points="4254.83,-107.59 4264.41,-103.06 4254.09,-100.63 4254.83,-107.59"/>
</g>
<!-- :feature:other&#45;list -->
<g id="node16" class="node">
<title>:feature:other&#45;list</title>
<ellipse fill="none" stroke="black" cx="1389.89" cy="-90" rx="92.88" ry="18"/>
<text text-anchor="middle" x="1389.89" y="-86.3" font-family="Times,serif" font-size="14.00">:feature:other&#45;list</text>
</g>
<!-- :app:shared&#45;&gt;:feature:other&#45;list -->
<g id="edge17" class="edge">
<title>:app:shared&#45;&gt;:feature:other&#45;list</title>
<path fill="none" stroke="black" d="M2821.26,-161.5C2621.14,-162.4 2001.17,-160.41 1490.89,-108 1482.21,-107.11 1473.16,-105.94 1464.18,-104.62"/>
<polygon fill="black" stroke="black" points="1464.52,-101.13 1454.11,-103.08 1463.46,-108.05 1464.52,-101.13"/>
</g>
<!-- :feature:other&#45;server&#45;ip&#45;detail -->
<g id="node17" class="node">
<title>:feature:other&#45;server&#45;ip&#45;detail</title>
<ellipse fill="none" stroke="black" cx="4667.89" cy="-90" rx="148.67" ry="18"/>
<text text-anchor="middle" x="4667.89" y="-86.3" font-family="Times,serif" font-size="14.00">:feature:other&#45;server&#45;ip&#45;detail</text>
</g>
<!-- :app:shared&#45;&gt;:feature:other&#45;server&#45;ip&#45;detail -->
<g id="edge18" class="edge">
<title>:app:shared&#45;&gt;:feature:other&#45;server&#45;ip&#45;detail</title>
<path fill="none" stroke="black" d="M2952.68,-160.61C3173.16,-158.93 3905.94,-150.29 4509.89,-108 4524.68,-106.96 4540.22,-105.61 4555.54,-104.13"/>
<polygon fill="black" stroke="black" points="4555.97,-107.6 4565.57,-103.13 4555.28,-100.64 4555.97,-107.6"/>
</g>
<!-- :feature:other&#45;console&#45;ip&#45;detail -->
<g id="node18" class="node">
<title>:feature:other&#45;console&#45;ip&#45;detail</title>
<ellipse fill="none" stroke="black" cx="4987.89" cy="-90" rx="153.27" ry="18"/>
<text text-anchor="middle" x="4987.89" y="-86.3" font-family="Times,serif" font-size="14.00">:feature:other&#45;console&#45;ip&#45;detail</text>
</g>
<!-- :app:shared&#45;&gt;:feature:other&#45;console&#45;ip&#45;detail -->
<g id="edge19" class="edge">
<title>:app:shared&#45;&gt;:feature:other&#45;console&#45;ip&#45;detail</title>
<path fill="none" stroke="black" d="M2952.68,-161.04C3199.27,-160.81 4092.09,-156.46 4825.89,-108 4841.05,-107 4856.98,-105.67 4872.7,-104.19"/>
<polygon fill="black" stroke="black" points="4873.36,-107.64 4882.98,-103.2 4872.69,-100.68 4873.36,-107.64"/>
</g>
<!-- :feature:other&#45;readout&#45;start&#45;sound&#45;detail -->
<g id="node19" class="node">
<title>:feature:other&#45;readout&#45;start&#45;sound&#45;detail</title>
<ellipse fill="none" stroke="black" cx="1699.89" cy="-90" rx="199.56" ry="18"/>
<text text-anchor="middle" x="1699.89" y="-86.3" font-family="Times,serif" font-size="14.00">:feature:other&#45;readout&#45;start&#45;sound&#45;detail</text>
</g>
<!-- :app:shared&#45;&gt;:feature:other&#45;readout&#45;start&#45;sound&#45;detail -->
<g id="edge20" class="edge">
<title>:app:shared&#45;&gt;:feature:other&#45;readout&#45;start&#45;sound&#45;detail</title>
<path fill="none" stroke="black" d="M2822.71,-158.14C2666.23,-151.02 2252.63,-131.42 1907.89,-108 1888.87,-106.71 1868.89,-105.23 1849.13,-103.7"/>
<polygon fill="black" stroke="black" points="1849.39,-100.2 1839.15,-102.91 1848.84,-107.18 1849.39,-100.2"/>
</g>
<!-- :feature:other&#45;volume&#45;detail -->
<g id="node20" class="node">
<title>:feature:other&#45;volume&#45;detail</title>
<ellipse fill="none" stroke="black" cx="5299.89" cy="-90" rx="141.07" ry="18"/>
<text text-anchor="middle" x="5299.89" y="-86.3" font-family="Times,serif" font-size="14.00">:feature:other&#45;volume&#45;detail</text>
</g>
<!-- :app:shared&#45;&gt;:feature:other&#45;volume&#45;detail -->
<g id="edge21" class="edge">
<title>:app:shared&#45;&gt;:feature:other&#45;volume&#45;detail</title>
<path fill="none" stroke="black" d="M2952.43,-160.26C3276.06,-156.47 4705.86,-138.3 5149.89,-108 5164.02,-107.04 5178.86,-105.72 5193.5,-104.25"/>
<polygon fill="black" stroke="black" points="5193.99,-107.71 5203.58,-103.2 5193.27,-100.75 5193.99,-107.71"/>
</g>
<!-- :feature:other&#45;keep&#45;screen&#45;on&#45;detail -->
<g id="node21" class="node">
<title>:feature:other&#45;keep&#45;screen&#45;on&#45;detail</title>
<ellipse fill="none" stroke="black" cx="2093.89" cy="-90" rx="176.57" ry="18"/>
<text text-anchor="middle" x="2093.89" y="-86.3" font-family="Times,serif" font-size="14.00">:feature:other&#45;keep&#45;screen&#45;on&#45;detail</text>
</g>
<!-- :app:shared&#45;&gt;:feature:other&#45;keep&#45;screen&#45;on&#45;detail -->
<g id="edge22" class="edge">
<title>:app:shared&#45;&gt;:feature:other&#45;keep&#45;screen&#45;on&#45;detail</title>
<path fill="none" stroke="black" d="M2825.28,-155.7C2715.6,-146.26 2479.29,-125.82 2279.89,-108 2263.91,-106.57 2247.16,-105.06 2230.53,-103.55"/>
<polygon fill="black" stroke="black" points="2230.48,-100.03 2220.2,-102.61 2229.84,-107 2230.48,-100.03"/>
</g>
<!-- :feature:readout&#45;list -->
<g id="node22" class="node">
<title>:feature:readout&#45;list</title>
<ellipse fill="none" stroke="black" cx="2392.89" cy="-90" rx="103.98" ry="18"/>
<text text-anchor="middle" x="2392.89" y="-86.3" font-family="Times,serif" font-size="14.00">:feature:readout&#45;list</text>
</g>
<!-- :app:shared&#45;&gt;:feature:readout&#45;list -->
<g id="edge23" class="edge">
<title>:app:shared&#45;&gt;:feature:readout&#45;list</title>
<path fill="none" stroke="black" d="M2829.41,-153.21C2754.8,-143.04 2620.56,-124.6 2505.89,-108 2496.95,-106.71 2487.62,-105.33 2478.31,-103.95"/>
<polygon fill="black" stroke="black" points="2478.65,-100.47 2468.24,-102.46 2477.62,-107.39 2478.65,-100.47"/>
</g>
<!-- :feature:lmu&#45;windows&#45;readout&#45;vehicle&#45;approach&#45;detail -->
<g id="node23" class="node">
<title>:feature:lmu&#45;windows&#45;readout&#45;vehicle&#45;approach&#45;detail</title>
<ellipse fill="none" stroke="black" cx="5719.89" cy="-90" rx="260.75" ry="18"/>
<text text-anchor="middle" x="5719.89" y="-86.3" font-family="Times,serif" font-size="14.00">:feature:lmu&#45;windows&#45;readout&#45;vehicle&#45;approach&#45;detail</text>
</g>
<!-- :app:shared&#45;&gt;:feature:lmu&#45;windows&#45;readout&#45;vehicle&#45;approach&#45;detail -->
<g id="edge24" class="edge">
<title>:app:shared&#45;&gt;:feature:lmu&#45;windows&#45;readout&#45;vehicle&#45;approach&#45;detail</title>
<path fill="none" stroke="black" d="M2952.76,-160.66C3245.36,-158.94 4456.6,-149.52 5449.89,-108 5476.64,-106.88 5504.86,-105.42 5532.57,-103.82"/>
<polygon fill="black" stroke="black" points="5532.98,-107.3 5542.76,-103.23 5532.57,-100.31 5532.98,-107.3"/>
</g>
<!-- :feature:lmu&#45;windows&#45;readout&#45;flag&#45;detail -->
<g id="node24" class="node">
<title>:feature:lmu&#45;windows&#45;readout&#45;flag&#45;detail</title>
<ellipse fill="none" stroke="black" cx="6197.89" cy="-90" rx="199.56" ry="18"/>
<text text-anchor="middle" x="6197.89" y="-86.3" font-family="Times,serif" font-size="14.00">:feature:lmu&#45;windows&#45;readout&#45;flag&#45;detail</text>
</g>
<!-- :app:shared&#45;&gt;:feature:lmu&#45;windows&#45;readout&#45;flag&#45;detail -->
<g id="edge25" class="edge">
<title>:app:shared&#45;&gt;:feature:lmu&#45;windows&#45;readout&#45;flag&#45;detail</title>
<path fill="none" stroke="black" d="M2952.42,-160.46C3343.05,-157.14 5368.51,-138.67 5989.89,-108 6010.35,-106.99 6031.92,-105.6 6053.11,-104.04"/>
<polygon fill="black" stroke="black" points="6053.44,-107.52 6063.15,-103.29 6052.91,-100.54 6053.44,-107.52"/>
</g>
<!-- :feature:lmu&#45;windows&#45;readout&#45;vehicle&#45;damage&#45;detail -->
<g id="node25" class="node">
<title>:feature:lmu&#45;windows&#45;readout&#45;vehicle&#45;damage&#45;detail</title>
<ellipse fill="none" stroke="black" cx="6669.89" cy="-90" rx="254.55" ry="18"/>
<text text-anchor="middle" x="6669.89" y="-86.3" font-family="Times,serif" font-size="14.00">:feature:lmu&#45;windows&#45;readout&#45;vehicle&#45;damage&#45;detail</text>
</g>
<!-- :app:shared&#45;&gt;:feature:lmu&#45;windows&#45;readout&#45;vehicle&#45;damage&#45;detail -->
<g id="edge26" class="edge">
<title>:app:shared&#45;&gt;:feature:lmu&#45;windows&#45;readout&#45;vehicle&#45;damage&#45;detail</title>
<path fill="none" stroke="black" d="M2952.58,-161.22C3305.52,-162.17 5012.59,-163.53 6406.89,-108 6433.25,-106.95 6461.09,-105.51 6488.39,-103.91"/>
<polygon fill="black" stroke="black" points="6488.64,-107.4 6498.42,-103.31 6488.23,-100.41 6488.64,-107.4"/>
</g>
<!-- :feature:gt7&#45;ps5&#45;readout&#45;my&#45;bestlap&#45;detail -->
<g id="node26" class="node">
<title>:feature:gt7&#45;ps5&#45;readout&#45;my&#45;bestlap&#45;detail</title>
<ellipse fill="none" stroke="black" cx="2886.89" cy="-90" rx="207.96" ry="18"/>
<text text-anchor="middle" x="2886.89" y="-86.3" font-family="Times,serif" font-size="14.00">:feature:gt7&#45;ps5&#45;readout&#45;my&#45;bestlap&#45;detail</text>
</g>
<!-- :app:shared&#45;&gt;:feature:gt7&#45;ps5&#45;readout&#45;my&#45;bestlap&#45;detail -->
<g id="edge27" class="edge">
<title>:app:shared&#45;&gt;:feature:gt7&#45;ps5&#45;readout&#45;my&#45;bestlap&#45;detail</title>
<path fill="none" stroke="black" d="M2886.89,-143.7C2886.89,-135.98 2886.89,-126.71 2886.89,-118.11"/>
<polygon fill="black" stroke="black" points="2890.39,-118.1 2886.89,-108.1 2883.39,-118.1 2890.39,-118.1"/>
</g>
<!-- :feature:gt7&#45;ps5&#45;readout&#45;remaining&#45;fuel&#45;laps&#45;detail -->
<g id="node27" class="node">
<title>:feature:gt7&#45;ps5&#45;readout&#45;remaining&#45;fuel&#45;laps&#45;detail</title>
<ellipse fill="none" stroke="black" cx="3358.89" cy="-90" rx="246.16" ry="18"/>
<text text-anchor="middle" x="3358.89" y="-86.3" font-family="Times,serif" font-size="14.00">:feature:gt7&#45;ps5&#45;readout&#45;remaining&#45;fuel&#45;laps&#45;detail</text>
</g>
<!-- :app:shared&#45;&gt;:feature:gt7&#45;ps5&#45;readout&#45;remaining&#45;fuel&#45;laps&#45;detail -->
<g id="edge28" class="edge">
<title>:app:shared&#45;&gt;:feature:gt7&#45;ps5&#45;readout&#45;remaining&#45;fuel&#45;laps&#45;detail</title>
<path fill="none" stroke="black" d="M2943.35,-152.63C3017.68,-141.6 3150.07,-121.97 3245.47,-107.82"/>
<polygon fill="black" stroke="black" points="3246.07,-111.27 3255.45,-106.34 3245.05,-104.35 3246.07,-111.27"/>
</g>
<!-- :core:data&#45;&gt;:core:domain -->
<g id="edge30" class="edge">
<title>:core:data&#45;&gt;:core:domain</title>
<path fill="none" stroke="black" d="M586.75,-149.65C578.85,-147.66 570.63,-145.69 562.89,-144 470.18,-123.79 295.59,-139.89 361.89,-72 400.1,-32.87 2111.24,-21.5 2506.86,-19.39"/>
<polygon fill="black" stroke="black" points="2507.09,-22.89 2517.07,-19.34 2507.05,-15.89 2507.09,-22.89"/>
</g>
<!-- :core:gt7&#45;ps5&#45;data&#45;&gt;:core:domain -->
<g id="edge31" class="edge">
<title>:core:gt7&#45;ps5&#45;data&#45;&gt;:core:domain</title>
<path fill="none" stroke="black" d="M399.35,-147.84C378.12,-139.97 356.39,-127.53 343.89,-108 335.26,-94.53 332.71,-83.45 343.89,-72 382.43,-32.54 2109.27,-21.42 2506.85,-19.38"/>
<polygon fill="black" stroke="black" points="2507.13,-22.88 2517.12,-19.33 2507.1,-15.88 2507.13,-22.88"/>
</g>
<!-- :app:desktopApp -->
<g id="node7" class="node">
<title>:app:desktopApp</title>
<ellipse fill="none" stroke="black" cx="446.89" cy="-234" rx="88.28" ry="18"/>
<text text-anchor="middle" x="446.89" y="-230.3" font-family="Times,serif" font-size="14.00">:app:desktopApp</text>
</g>
<!-- :app:desktopApp&#45;&gt;:server -->
<g id="edge9" class="edge">
<title>:app:desktopApp&#45;&gt;:server</title>
<path fill="none" stroke="black" d="M414.21,-217.12C391.9,-206.27 362.31,-191.88 339.24,-180.67"/>
<polygon fill="black" stroke="black" points="340.64,-177.46 330.12,-176.24 337.58,-183.76 340.64,-177.46"/>
</g>
<!-- :app:desktopApp&#45;&gt;:app:shared -->
<g id="edge5" class="edge">
<title>:app:desktopApp&#45;&gt;:app:shared</title>
<path fill="none" stroke="black" d="M507.75,-220.89C519.69,-218.92 532.15,-217.15 543.89,-216 998.99,-171.23 2461.3,-164.22 2811.17,-163.17"/>
<polygon fill="black" stroke="black" points="2811.2,-166.68 2821.19,-163.15 2811.18,-159.68 2811.2,-166.68"/>
</g>
<!-- :app:desktopApp&#45;&gt;:core:data -->
<g id="edge6" class="edge">
<title>:app:desktopApp&#45;&gt;:core:data</title>
<path fill="none" stroke="black" d="M486.38,-217.81C515.34,-206.67 554.68,-191.54 584.69,-180"/>
<polygon fill="black" stroke="black" points="586.01,-183.24 594.08,-176.39 583.49,-176.71 586.01,-183.24"/>
</g>
<!-- :app:desktopApp&#45;&gt;:core:gt7&#45;ps5&#45;data -->
<g id="edge8" class="edge">
<title>:app:desktopApp&#45;&gt;:core:gt7&#45;ps5&#45;data</title>
<path fill="none" stroke="black" d="M449.86,-215.7C451.18,-207.98 452.77,-198.71 454.24,-190.11"/>
<polygon fill="black" stroke="black" points="457.72,-190.55 455.96,-180.1 450.82,-189.37 457.72,-190.55"/>
</g>
<!-- :core:lmu&#45;windows&#45;data -->
<g id="node8" class="node">
<title>:core:lmu&#45;windows&#45;data</title>
<ellipse fill="none" stroke="black" cx="120.89" cy="-162" rx="120.78" ry="18"/>
<text text-anchor="middle" x="120.89" y="-158.3" font-family="Times,serif" font-size="14.00">:core:lmu&#45;windows&#45;data</text>
</g>
<!-- :app:desktopApp&#45;&gt;:core:lmu&#45;windows&#45;data -->
<g id="edge7" class="edge">
<title>:app:desktopApp&#45;&gt;:core:lmu&#45;windows&#45;data</title>
<path fill="none" stroke="black" d="M388.23,-220.4C334.6,-208.89 254.96,-191.79 196.56,-179.25"/>
<polygon fill="black" stroke="black" points="197.15,-175.8 186.64,-177.12 195.68,-182.64 197.15,-175.8"/>
</g>
<!-- :core:lmu&#45;windows&#45;data&#45;&gt;:core:domain -->
<g id="edge32" class="edge">
<title>:core:lmu&#45;windows&#45;data&#45;&gt;:core:domain</title>
<path fill="none" stroke="black" d="M146.67,-144.28C181.42,-122.81 245.96,-86.57 306.89,-72 523.9,-20.1 2125.95,-18.5 2506.81,-18.86"/>
<polygon fill="black" stroke="black" points="2506.92,-22.36 2516.92,-18.88 2506.93,-15.36 2506.92,-22.36"/>
</g>
<!-- :feature:main&#45;&gt;:core:domain -->
<g id="edge49" class="edge">
<title>:feature:main&#45;&gt;:core:domain</title>
<path fill="none" stroke="black" d="M2587.89,-71.7C2587.89,-63.98 2587.89,-54.71 2587.89,-46.11"/>
<polygon fill="black" stroke="black" points="2591.39,-46.1 2587.89,-36.1 2584.39,-46.1 2591.39,-46.1"/>
</g>
<!-- :feature:lmu&#45;windows&#45;connection&#45;&gt;:core:domain -->
<g id="edge40" class="edge">
<title>:feature:lmu&#45;windows&#45;connection&#45;&gt;:core:domain</title>
<path fill="none" stroke="black" d="M647.58,-76.84C667.97,-74.97 689.05,-73.25 708.89,-72 1403.93,-28.3 2245.88,-20.63 2506.85,-19.28"/>
<polygon fill="black" stroke="black" points="2507.01,-22.78 2516.99,-19.23 2506.98,-15.78 2507.01,-22.78"/>
</g>
<!-- :feature:gt7&#45;ps5&#45;connection&#45;&gt;:core:domain -->
<g id="edge33" class="edge">
<title>:feature:gt7&#45;ps5&#45;connection&#45;&gt;:core:domain</title>
<path fill="none" stroke="black" d="M951.32,-76.89C968.78,-75 986.87,-73.26 1003.89,-72 1578.79,-29.43 2273.62,-21.04 2507.03,-19.4"/>
<polygon fill="black" stroke="black" points="2507.15,-22.9 2517.13,-19.33 2507.1,-15.9 2507.15,-22.9"/>
</g>
<!-- :feature:server&#45;connection&#45;&gt;:core:domain -->
<g id="edge62" class="edge">
<title>:feature:server&#45;connection&#45;&gt;:core:domain</title>
<path fill="none" stroke="black" d="M1237.83,-76.93C1254.47,-75.05 1271.68,-73.3 1287.89,-72 1748.45,-35.1 2302.97,-23.33 2507.27,-20.09"/>
<polygon fill="black" stroke="black" points="2507.37,-23.59 2517.31,-19.93 2507.26,-16.59 2507.37,-23.59"/>
</g>
<!-- :feature:lmu&#45;windows&#45;narrator&#45;&gt;:core:domain -->
<g id="edge41" class="edge">
<title>:feature:lmu&#45;windows&#45;narrator&#45;&gt;:core:domain</title>
<path fill="none" stroke="black" d="M3669.99,-77.04C3651.31,-75.18 3632.04,-73.41 3613.89,-72 3261.7,-44.56 2840.36,-27.85 2667.66,-21.7"/>
<polygon fill="black" stroke="black" points="2667.75,-18.2 2657.64,-21.34 2667.51,-25.2 2667.75,-18.2"/>
</g>
<!-- :core:designsystem -->
<g id="node29" class="node">
<title>:core:designsystem</title>
<ellipse fill="none" stroke="black" cx="4667.89" cy="-18" rx="100.98" ry="18"/>
<text text-anchor="middle" x="4667.89" y="-14.3" font-family="Times,serif" font-size="14.00">:core:designsystem</text>
</g>
<!-- :feature:lmu&#45;windows&#45;narrator&#45;&gt;:core:designsystem -->
<g id="edge42" class="edge">
<title>:feature:lmu&#45;windows&#45;narrator&#45;&gt;:core:designsystem</title>
<path fill="none" stroke="black" d="M3885.13,-77.23C3903.4,-75.38 3922.18,-73.57 3939.89,-72 4162.02,-52.34 4422.75,-34.66 4564.06,-25.53"/>
<polygon fill="black" stroke="black" points="4564.69,-29 4574.44,-24.87 4564.24,-22.02 4564.69,-29"/>
</g>
<!-- :feature:gt7&#45;ps5&#45;narrator&#45;&gt;:core:domain -->
<g id="edge34" class="edge">
<title>:feature:gt7&#45;ps5&#45;narrator&#45;&gt;:core:domain</title>
<path fill="none" stroke="black" d="M3987.93,-76.97C3971.65,-75.06 3954.77,-73.29 3938.89,-72 3458.09,-32.81 2878.6,-22.39 2668.71,-19.8"/>
<polygon fill="black" stroke="black" points="2668.74,-16.3 2658.7,-19.68 2668.65,-23.3 2668.74,-16.3"/>
</g>
<!-- :feature:gt7&#45;ps5&#45;narrator&#45;&gt;:core:designsystem -->
<g id="edge35" class="edge">
<title>:feature:gt7&#45;ps5&#45;narrator&#45;&gt;:core:designsystem</title>
<path fill="none" stroke="black" d="M4167.32,-77.46C4182.21,-75.61 4197.48,-73.74 4211.89,-72 4337.73,-56.82 4483.21,-40.05 4575.35,-29.52"/>
<polygon fill="black" stroke="black" points="4575.95,-32.97 4585.49,-28.36 4575.15,-26.02 4575.95,-32.97"/>
</g>
<!-- :feature:other&#45;license&#45;detail&#45;&gt;:core:domain -->
<g id="edge53" class="edge">
<title>:feature:other&#45;license&#45;detail&#45;&gt;:core:domain</title>
<path fill="none" stroke="black" d="M4264.81,-76.88C4247.23,-74.99 4229.03,-73.26 4211.89,-72 3621.06,-28.73 2906.73,-20.78 2669.11,-19.33"/>
<polygon fill="black" stroke="black" points="2668.85,-15.83 2658.83,-19.27 2668.81,-22.83 2668.85,-15.83"/>
</g>
<!-- :feature:other&#45;license&#45;detail&#45;&gt;:core:designsystem -->
<g id="edge54" class="edge">
<title>:feature:other&#45;license&#45;detail&#45;&gt;:core:designsystem</title>
<path fill="none" stroke="black" d="M4426.37,-74.07C4476.97,-62.53 4546.85,-46.6 4598.42,-34.84"/>
<polygon fill="black" stroke="black" points="4599.51,-38.18 4608.48,-32.55 4597.96,-31.36 4599.51,-38.18"/>
</g>
<!-- :feature:other&#45;list&#45;&gt;:core:domain -->
<g id="edge55" class="edge">
<title>:feature:other&#45;list&#45;&gt;:core:domain</title>
<path fill="none" stroke="black" d="M1454.39,-76.97C1466.48,-75.05 1479.04,-73.28 1490.89,-72 1869.51,-31.13 2325.06,-21.77 2507.05,-19.63"/>
<polygon fill="black" stroke="black" points="2507.12,-23.13 2517.08,-19.52 2507.04,-16.13 2507.12,-23.13"/>
</g>
<!-- :feature:other&#45;server&#45;ip&#45;detail&#45;&gt;:core:domain -->
<g id="edge57" class="edge">
<title>:feature:other&#45;server&#45;ip&#45;detail&#45;&gt;:core:domain</title>
<path fill="none" stroke="black" d="M4566,-76.83C4547.36,-74.95 4528.06,-73.23 4509.89,-72 3797.52,-23.93 2933.82,-19.19 2668.96,-18.93"/>
<polygon fill="black" stroke="black" points="2668.67,-15.43 2658.67,-18.92 2668.67,-22.43 2668.67,-15.43"/>
</g>
<!-- :feature:other&#45;server&#45;ip&#45;detail&#45;&gt;:core:designsystem -->
<g id="edge58" class="edge">
<title>:feature:other&#45;server&#45;ip&#45;detail&#45;&gt;:core:designsystem</title>
<path fill="none" stroke="black" d="M4667.89,-71.7C4667.89,-63.98 4667.89,-54.71 4667.89,-46.11"/>
<polygon fill="black" stroke="black" points="4671.39,-46.1 4667.89,-36.1 4664.39,-46.1 4671.39,-46.1"/>
</g>
<!-- :feature:other&#45;console&#45;ip&#45;detail&#45;&gt;:core:domain -->
<g id="edge50" class="edge">
<title>:feature:other&#45;console&#45;ip&#45;detail&#45;&gt;:core:domain</title>
<path fill="none" stroke="black" d="M4883.42,-76.78C4864.31,-74.91 4844.52,-73.2 4825.89,-72 3984.05,-17.95 2960.92,-17.45 2669.08,-18.55"/>
<polygon fill="black" stroke="black" points="2668.99,-15.05 2659.01,-18.59 2669.02,-22.05 2668.99,-15.05"/>
</g>
<!-- :feature:other&#45;console&#45;ip&#45;detail&#45;&gt;:core:designsystem -->
<g id="edge51" class="edge">
<title>:feature:other&#45;console&#45;ip&#45;detail&#45;&gt;:core:designsystem</title>
<path fill="none" stroke="black" d="M4918.85,-73.9C4865.66,-62.26 4792.39,-46.24 4738.75,-34.5"/>
<polygon fill="black" stroke="black" points="4739.49,-31.08 4728.98,-32.36 4738,-37.92 4739.49,-31.08"/>
</g>
<!-- :feature:other&#45;readout&#45;start&#45;sound&#45;detail&#45;&gt;:core:domain -->
<g id="edge56" class="edge">
<title>:feature:other&#45;readout&#45;start&#45;sound&#45;detail&#45;&gt;:core:domain</title>
<path fill="none" stroke="black" d="M1841.98,-77.31C1864.05,-75.52 1886.58,-73.7 1907.89,-72 2126.32,-54.56 2384.27,-34.64 2510.48,-24.94"/>
<polygon fill="black" stroke="black" points="2511.1,-28.4 2520.8,-24.14 2510.56,-21.42 2511.1,-28.4"/>
</g>
<!-- :feature:other&#45;volume&#45;detail&#45;&gt;:core:domain -->
<g id="edge59" class="edge">
<title>:feature:other&#45;volume&#45;detail&#45;&gt;:core:domain</title>
<path fill="none" stroke="black" d="M5203.98,-76.8C5186.03,-74.89 5167.41,-73.17 5149.89,-72 4650.07,-38.58 3047.05,-22.94 2668.53,-19.67"/>
<polygon fill="black" stroke="black" points="2668.52,-16.17 2658.49,-19.58 2668.46,-23.17 2668.52,-16.17"/>
</g>
<!-- :feature:other&#45;volume&#45;detail&#45;&gt;:core:designsystem -->
<g id="edge60" class="edge">
<title>:feature:other&#45;volume&#45;detail&#45;&gt;:core:designsystem</title>
<path fill="none" stroke="black" d="M5198.23,-77.43C5182.06,-75.61 5165.52,-73.74 5149.89,-72 5014.94,-56.93 4858.71,-39.81 4761.58,-29.21"/>
<polygon fill="black" stroke="black" points="4761.81,-25.71 4751.49,-28.11 4761.05,-32.67 4761.81,-25.71"/>
</g>
<!-- :feature:other&#45;keep&#45;screen&#45;on&#45;detail&#45;&gt;:core:domain -->
<g id="edge52" class="edge">
<title>:feature:other&#45;keep&#45;screen&#45;on&#45;detail&#45;&gt;:core:domain</title>
<path fill="none" stroke="black" d="M2192.37,-75.04C2288.53,-61.42 2432.45,-41.03 2517.58,-28.96"/>
<polygon fill="black" stroke="black" points="2518.26,-32.4 2527.67,-27.53 2517.28,-25.47 2518.26,-32.4"/>
</g>
<!-- :feature:readout&#45;list&#45;&gt;:core:domain -->
<g id="edge61" class="edge">
<title>:feature:readout&#45;list&#45;&gt;:core:domain</title>
<path fill="none" stroke="black" d="M2436.17,-73.46C2466.67,-62.51 2507.56,-47.84 2539.2,-36.48"/>
<polygon fill="black" stroke="black" points="2540.48,-39.74 2548.71,-33.07 2538.11,-33.15 2540.48,-39.74"/>
</g>
<!-- :feature:lmu&#45;windows&#45;readout&#45;vehicle&#45;approach&#45;detail&#45;&gt;:core:domain -->
<g id="edge45" class="edge">
<title>:feature:lmu&#45;windows&#45;readout&#45;vehicle&#45;approach&#45;detail&#45;&gt;:core:domain</title>
<path fill="none" stroke="black" d="M5543.12,-76.74C5512.07,-74.91 5480.04,-73.23 5449.89,-72 4349.03,-27.17 3008.41,-20.24 2668.95,-19.19"/>
<polygon fill="black" stroke="black" points="2668.74,-15.68 2658.73,-19.15 2668.72,-22.68 2668.74,-15.68"/>
</g>
<!-- :feature:lmu&#45;windows&#45;readout&#45;vehicle&#45;approach&#45;detail&#45;&gt;:core:designsystem -->
<g id="edge46" class="edge">
<title>:feature:lmu&#45;windows&#45;readout&#45;vehicle&#45;approach&#45;detail&#45;&gt;:core:designsystem</title>
<path fill="none" stroke="black" d="M5539.34,-76.99C5317.53,-62.23 4948.79,-37.69 4770.57,-25.83"/>
<polygon fill="black" stroke="black" points="4770.62,-22.33 4760.41,-25.16 4770.15,-29.31 4770.62,-22.33"/>
</g>
<!-- :feature:lmu&#45;windows&#45;readout&#45;flag&#45;detail&#45;&gt;:core:domain -->
<g id="edge43" class="edge">
<title>:feature:lmu&#45;windows&#45;readout&#45;flag&#45;detail&#45;&gt;:core:domain</title>
<path fill="none" stroke="black" d="M6063.15,-76.68C6038.78,-74.83 6013.59,-73.15 5989.89,-72 5313.4,-39.12 3119.05,-22.62 2669,-19.54"/>
<polygon fill="black" stroke="black" points="2668.72,-16.03 2658.7,-19.47 2668.67,-23.03 2668.72,-16.03"/>
</g>
<!-- :feature:lmu&#45;windows&#45;readout&#45;flag&#45;detail&#45;&gt;:core:designsystem -->
<g id="edge44" class="edge">
<title>:feature:lmu&#45;windows&#45;readout&#45;flag&#45;detail&#45;&gt;:core:designsystem</title>
<path fill="none" stroke="black" d="M6060.33,-76.95C6036.84,-75.12 6012.67,-73.39 5989.89,-72 5540.26,-44.62 5003.71,-28.09 4777.27,-21.85"/>
<polygon fill="black" stroke="black" points="4777.14,-18.35 4767.05,-21.57 4776.95,-25.34 4777.14,-18.35"/>
</g>
<!-- :feature:lmu&#45;windows&#45;readout&#45;vehicle&#45;damage&#45;detail&#45;&gt;:core:domain -->
<g id="edge47" class="edge">
<title>:feature:lmu&#45;windows&#45;readout&#45;vehicle&#45;damage&#45;detail&#45;&gt;:core:domain</title>
<path fill="none" stroke="black" d="M6498.42,-76.66C6467.95,-74.82 6436.49,-73.16 6406.89,-72 5642.08,-41.99 3150.94,-23.01 2669.02,-19.56"/>
<polygon fill="black" stroke="black" points="2668.71,-16.06 2658.69,-19.49 2668.66,-23.06 2668.71,-16.06"/>
</g>
<!-- :feature:lmu&#45;windows&#45;readout&#45;vehicle&#45;damage&#45;detail&#45;&gt;:core:designsystem -->
<g id="edge48" class="edge">
<title>:feature:lmu&#45;windows&#45;readout&#45;vehicle&#45;damage&#45;detail&#45;&gt;:core:designsystem</title>
<path fill="none" stroke="black" d="M6495.22,-76.87C6465.75,-75.07 6435.45,-73.36 6406.89,-72 5791.4,-42.74 5052.55,-26.46 4777.8,-21.05"/>
<polygon fill="black" stroke="black" points="4777.5,-17.54 4767.43,-20.85 4777.36,-24.54 4777.5,-17.54"/>
</g>
<!-- :feature:gt7&#45;ps5&#45;readout&#45;my&#45;bestlap&#45;detail&#45;&gt;:core:domain -->
<g id="edge36" class="edge">
<title>:feature:gt7&#45;ps5&#45;readout&#45;my&#45;bestlap&#45;detail&#45;&gt;:core:domain</title>
<path fill="none" stroke="black" d="M2818.29,-72.94C2767,-60.93 2697.52,-44.67 2648.31,-33.15"/>
<polygon fill="black" stroke="black" points="2648.98,-29.71 2638.44,-30.84 2647.38,-36.52 2648.98,-29.71"/>
</g>
<!-- :feature:gt7&#45;ps5&#45;readout&#45;my&#45;bestlap&#45;detail&#45;&gt;:core:designsystem -->
<g id="edge37" class="edge">
<title>:feature:gt7&#45;ps5&#45;readout&#45;my&#45;bestlap&#45;detail&#45;&gt;:core:designsystem</title>
<path fill="none" stroke="black" d="M3029.82,-76.9C3054.51,-75.07 3079.93,-73.34 3103.89,-72 3649.29,-41.41 4302.74,-26.18 4558.08,-21.05"/>
<polygon fill="black" stroke="black" points="4558.17,-24.55 4568.1,-20.85 4558.03,-17.55 4558.17,-24.55"/>
</g>
<!-- :feature:gt7&#45;ps5&#45;readout&#45;remaining&#45;fuel&#45;laps&#45;detail&#45;&gt;:core:domain -->
<g id="edge38" class="edge">
<title>:feature:gt7&#45;ps5&#45;readout&#45;remaining&#45;fuel&#45;laps&#45;detail&#45;&gt;:core:domain</title>
<path fill="none" stroke="black" d="M3211.14,-75.59C3047.45,-60.72 2789.93,-37.34 2663.31,-25.85"/>
<polygon fill="black" stroke="black" points="2663.59,-22.36 2653.31,-24.94 2662.95,-29.33 2663.59,-22.36"/>
</g>
<!-- :feature:gt7&#45;ps5&#45;readout&#45;remaining&#45;fuel&#45;laps&#45;detail&#45;&gt;:core:designsystem -->
<g id="edge39" class="edge">
<title>:feature:gt7&#45;ps5&#45;readout&#45;remaining&#45;fuel&#45;laps&#45;detail&#45;&gt;:core:designsystem</title>
<path fill="none" stroke="black" d="M3531.69,-77.15C3559.5,-75.35 3587.99,-73.57 3614.89,-72 3960.92,-51.8 4371.18,-32.49 4561.32,-23.8"/>
<polygon fill="black" stroke="black" points="4561.49,-27.29 4571.32,-23.34 4561.17,-20.3 4561.49,-27.29"/>
</g>
<!-- :app:webApp -->
<g id="node28" class="node">
<title>:app:webApp</title>
<ellipse fill="none" stroke="black" cx="2886.89" cy="-234" rx="70.69" ry="18"/>
<text text-anchor="middle" x="2886.89" y="-230.3" font-family="Times,serif" font-size="14.00">:app:webApp</text>
</g>
<!-- :app:webApp&#45;&gt;:app:shared -->
<g id="edge29" class="edge">
<title>:app:webApp&#45;&gt;:app:shared</title>
<path fill="none" stroke="black" d="M2886.89,-215.7C2886.89,-207.98 2886.89,-198.71 2886.89,-190.11"/>
<polygon fill="black" stroke="black" points="2890.39,-190.1 2886.89,-180.1 2883.39,-190.1 2890.39,-190.1"/>
</g>
</g>
</svg>
