<?xml version="1.0" encoding="UTF-8" standalone="no"?>
<!DOCTYPE svg PUBLIC "-//W3C//DTD SVG 1.1//EN"
 "http://www.w3.org/Graphics/SVG/1.1/DTD/svg11.dtd">
<!-- Generated by graphviz version 14.1.5 (20260411.2331)
 -->
<!-- Title: G Pages: 1 -->
<svg width="5813pt" height="260pt"
 viewBox="0.00 0.00 5813.00 260.00" xmlns="http://www.w3.org/2000/svg" xmlns:xlink="http://www.w3.org/1999/xlink">
<g id="graph0" class="graph" transform="scale(1 1) rotate(0) translate(4 256)">
<title>G</title>
<polygon fill="white" stroke="none" points="-4,4 -4,-256 5808.64,-256 5808.64,4 -4,4"/>
<!-- :server -->
<g id="node1" class="node">
<title>:server</title>
<ellipse fill="none" stroke="black" cx="344.75" cy="-162" rx="36" ry="18"/>
<text xml:space="preserve" text-anchor="middle" x="344.75" y="-156.95" font-family="Times,serif" font-size="14.00">:server</text>
</g>
<!-- :core:domain -->
<g id="node2" class="node">
<title>:core:domain</title>
<ellipse fill="none" stroke="black" cx="2125.75" cy="-18" rx="60.05" ry="18"/>
<text xml:space="preserve" text-anchor="middle" x="2125.75" y="-12.95" font-family="Times,serif" font-size="14.00">:core:domain</text>
</g>
<!-- :server&#45;&gt;:core:domain -->
<g id="edge1" class="edge">
<title>:server&#45;&gt;:core:domain</title>
<path fill="none" stroke="black" d="M317.05,-149.96C281.64,-135.72 224.56,-112.27 221.75,-108 212.95,-94.63 210.59,-83.47 221.75,-72 254.29,-38.54 1710.91,-22.87 2053.94,-19.64"/>
<polygon fill="black" stroke="black" points="2053.95,-23.14 2063.92,-19.55 2053.89,-16.14 2053.95,-23.14"/>
</g>
<!-- :app:androidApp -->
<g id="node3" class="node">
<title>:app:androidApp</title>
<ellipse fill="none" stroke="black" cx="140.75" cy="-234" rx="73.36" ry="18"/>
<text xml:space="preserve" text-anchor="middle" x="140.75" y="-228.95" font-family="Times,serif" font-size="14.00">:app:androidApp</text>
</g>
<!-- :app:androidApp&#45;&gt;:core:domain -->
<g id="edge2" class="edge">
<title>:app:androidApp&#45;&gt;:core:domain</title>
<path fill="none" stroke="black" d="M81.14,-223.19C55.92,-215.77 28.92,-202.77 13.75,-180 -43.36,-94.29 95.34,-85.2 143.75,-72 330.57,-21.05 1720.28,-18.72 2053.9,-18.9"/>
<polygon fill="black" stroke="black" points="2053.8,-22.4 2063.81,-18.91 2053.81,-15.4 2053.8,-22.4"/>
</g>
<!-- :app:shared -->
<g id="node4" class="node">
<title>:app:shared</title>
<ellipse fill="none" stroke="black" cx="2483.75" cy="-162" rx="53.4" ry="18"/>
<text xml:space="preserve" text-anchor="middle" x="2483.75" y="-156.95" font-family="Times,serif" font-size="14.00">:app:shared</text>
</g>
<!-- :app:androidApp&#45;&gt;:app:shared -->
<g id="edge3" class="edge">
<title>:app:androidApp&#45;&gt;:app:shared</title>
<path fill="none" stroke="black" d="M200.6,-223.19C220.05,-220.38 241.77,-217.64 261.75,-216 697.2,-180.34 2100.93,-166.3 2419.18,-163.53"/>
<polygon fill="black" stroke="black" points="2418.99,-167.03 2428.96,-163.45 2418.93,-160.03 2418.99,-167.03"/>
</g>
<!-- :core:data -->
<g id="node5" class="node">
<title>:core:data</title>
<ellipse fill="none" stroke="black" cx="243.75" cy="-162" rx="47.26" ry="18"/>
<text xml:space="preserve" text-anchor="middle" x="243.75" y="-156.95" font-family="Times,serif" font-size="14.00">:core:data</text>
</g>
<!-- :app:androidApp&#45;&gt;:core:data -->
<g id="edge4" class="edge">
<title>:app:androidApp&#45;&gt;:core:data</title>
<path fill="none" stroke="black" d="M164.9,-216.59C178.95,-207.04 196.82,-194.9 211.99,-184.58"/>
<polygon fill="black" stroke="black" points="213.96,-187.48 220.26,-178.96 210.02,-181.69 213.96,-187.48"/>
</g>
<!-- :core:gt7&#45;ps5&#45;data -->
<g id="node6" class="node">
<title>:core:gt7&#45;ps5&#45;data</title>
<ellipse fill="none" stroke="black" cx="100.75" cy="-162" rx="77.97" ry="18"/>
<text xml:space="preserve" text-anchor="middle" x="100.75" y="-156.95" font-family="Times,serif" font-size="14.00">:core:gt7&#45;ps5&#45;data</text>
</g>
<!-- :app:androidApp&#45;&gt;:core:gt7&#45;ps5&#45;data -->
<g id="edge5" class="edge">
<title>:app:androidApp&#45;&gt;:core:gt7&#45;ps5&#45;data</title>
<path fill="none" stroke="black" d="M130.86,-215.7C126.41,-207.9 121.04,-198.51 116.08,-189.83"/>
<polygon fill="black" stroke="black" points="119.27,-188.36 111.27,-181.42 113.2,-191.84 119.27,-188.36"/>
</g>
<!-- :feature:main -->
<g id="node9" class="node">
<title>:feature:main</title>
<ellipse fill="none" stroke="black" cx="779.75" cy="-90" rx="60.56" ry="18"/>
<text xml:space="preserve" text-anchor="middle" x="779.75" y="-84.95" font-family="Times,serif" font-size="14.00">:feature:main</text>
</g>
<!-- :app:shared&#45;&gt;:feature:main -->
<g id="edge11" class="edge">
<title>:app:shared&#45;&gt;:feature:main</title>
<path fill="none" stroke="black" d="M2430.37,-160.74C2185.19,-159.35 1165.61,-151.01 849.75,-108 844.53,-107.29 839.12,-106.35 833.74,-105.28"/>
<polygon fill="black" stroke="black" points="834.79,-101.92 824.28,-103.24 833.32,-108.77 834.79,-101.92"/>
</g>
<!-- :feature:lmu&#45;windows&#45;connection -->
<g id="node10" class="node">
<title>:feature:lmu&#45;windows&#45;connection</title>
<ellipse fill="none" stroke="black" cx="994.75" cy="-90" rx="136.31" ry="18"/>
<text xml:space="preserve" text-anchor="middle" x="994.75" y="-84.95" font-family="Times,serif" font-size="14.00">:feature:lmu&#45;windows&#45;connection</text>
</g>
<!-- :app:shared&#45;&gt;:feature:lmu&#45;windows&#45;connection -->
<g id="edge12" class="edge">
<title>:app:shared&#45;&gt;:feature:lmu&#45;windows&#45;connection</title>
<path fill="none" stroke="black" d="M2430.2,-160.37C2248.76,-157.94 1640.57,-147.17 1139.75,-108 1127.34,-107.03 1114.35,-105.81 1101.47,-104.46"/>
<polygon fill="black" stroke="black" points="1102.01,-101 1091.7,-103.41 1101.27,-107.96 1102.01,-101"/>
</g>
<!-- :feature:gt7&#45;ps5&#45;connection -->
<g id="node11" class="node">
<title>:feature:gt7&#45;ps5&#45;connection</title>
<ellipse fill="none" stroke="black" cx="355.75" cy="-90" rx="112.77" ry="18"/>
<text xml:space="preserve" text-anchor="middle" x="355.75" y="-84.95" font-family="Times,serif" font-size="14.00">:feature:gt7&#45;ps5&#45;connection</text>
</g>
<!-- :app:shared&#45;&gt;:feature:gt7&#45;ps5&#45;connection -->
<g id="edge13" class="edge">
<title>:app:shared&#45;&gt;:feature:gt7&#45;ps5&#45;connection</title>
<path fill="none" stroke="black" d="M2430.27,-160.41C2152.54,-157.21 872.3,-140.9 476.75,-108 466.58,-107.15 455.96,-106.03 445.42,-104.75"/>
<polygon fill="black" stroke="black" points="445.9,-101.28 435.54,-103.51 445.02,-108.23 445.9,-101.28"/>
</g>
<!-- :feature:server&#45;connection -->
<g id="node12" class="node">
<title>:feature:server&#45;connection</title>
<ellipse fill="none" stroke="black" cx="593.75" cy="-90" rx="107.65" ry="18"/>
<text xml:space="preserve" text-anchor="middle" x="593.75" y="-84.95" font-family="Times,serif" font-size="14.00">:feature:server&#45;connection</text>
</g>
<!-- :app:shared&#45;&gt;:feature:server&#45;connection -->
<g id="edge14" class="edge">
<title>:app:shared&#45;&gt;:feature:server&#45;connection</title>
<path fill="none" stroke="black" d="M2430.23,-160.24C2172.39,-156.43 1056.4,-138.48 709.75,-108 700.1,-107.15 690.03,-106.03 680.03,-104.77"/>
<polygon fill="black" stroke="black" points="680.66,-101.32 670.29,-103.49 679.75,-108.26 680.66,-101.32"/>
</g>
<!-- :feature:lmu&#45;windows&#45;narrator -->
<g id="node13" class="node">
<title>:feature:lmu&#45;windows&#45;narrator</title>
<ellipse fill="none" stroke="black" cx="5046.75" cy="-90" rx="125.05" ry="18"/>
<text xml:space="preserve" text-anchor="middle" x="5046.75" y="-84.95" font-family="Times,serif" font-size="14.00">:feature:lmu&#45;windows&#45;narrator</text>
</g>
<!-- :app:shared&#45;&gt;:feature:lmu&#45;windows&#45;narrator -->
<g id="edge15" class="edge">
<title>:app:shared&#45;&gt;:feature:lmu&#45;windows&#45;narrator</title>
<path fill="none" stroke="black" d="M2537.33,-160.59C2848.69,-158.11 4428.22,-143.92 4912.75,-108 4924.48,-107.13 4936.75,-105.95 4948.91,-104.61"/>
<polygon fill="black" stroke="black" points="4948.98,-108.13 4958.52,-103.52 4948.19,-101.17 4948.98,-108.13"/>
</g>
<!-- :feature:gt7&#45;ps5&#45;narrator -->
<g id="node14" class="node">
<title>:feature:gt7&#45;ps5&#45;narrator</title>
<ellipse fill="none" stroke="black" cx="5291.75" cy="-90" rx="101.51" ry="18"/>
<text xml:space="preserve" text-anchor="middle" x="5291.75" y="-84.95" font-family="Times,serif" font-size="14.00">:feature:gt7&#45;ps5&#45;narrator</text>
</g>
<!-- :app:shared&#45;&gt;:feature:gt7&#45;ps5&#45;narrator -->
<g id="edge16" class="edge">
<title>:app:shared&#45;&gt;:feature:gt7&#45;ps5&#45;narrator</title>
<path fill="none" stroke="black" d="M2537.48,-160.91C2869.03,-160.24 4640.23,-154.5 5180.75,-108 5190.1,-107.2 5199.87,-106.09 5209.55,-104.83"/>
<polygon fill="black" stroke="black" points="5209.93,-108.31 5219.36,-103.49 5208.98,-101.38 5209.93,-108.31"/>
</g>
<!-- :feature:other&#45;license&#45;detail -->
<g id="node15" class="node">
<title>:feature:other&#45;license&#45;detail</title>
<ellipse fill="none" stroke="black" cx="5523.75" cy="-90" rx="112.77" ry="18"/>
<text xml:space="preserve" text-anchor="middle" x="5523.75" y="-84.95" font-family="Times,serif" font-size="14.00">:feature:other&#45;license&#45;detail</text>
</g>
<!-- :app:shared&#45;&gt;:feature:other&#45;license&#45;detail -->
<g id="edge17" class="edge">
<title>:app:shared&#45;&gt;:feature:other&#45;license&#45;detail</title>
<path fill="none" stroke="black" d="M2537.34,-160.92C2884.11,-160.25 4814.89,-154.46 5402.75,-108 5413.11,-107.18 5423.93,-106.05 5434.67,-104.76"/>
<polygon fill="black" stroke="black" points="5434.81,-108.27 5444.29,-103.56 5433.94,-101.33 5434.81,-108.27"/>
</g>
<!-- :feature:other&#45;list -->
<g id="node16" class="node">
<title>:feature:other&#45;list</title>
<ellipse fill="none" stroke="black" cx="5729.75" cy="-90" rx="74.89" ry="18"/>
<text xml:space="preserve" text-anchor="middle" x="5729.75" y="-84.95" font-family="Times,serif" font-size="14.00">:feature:other&#45;list</text>
</g>
<!-- :app:shared&#45;&gt;:feature:other&#45;list -->
<g id="edge18" class="edge">
<title>:app:shared&#45;&gt;:feature:other&#45;list</title>
<path fill="none" stroke="black" d="M2537.31,-160.69C2927.35,-158.39 5324.99,-142.85 5645.75,-108 5652.29,-107.29 5659.07,-106.32 5665.82,-105.2"/>
<polygon fill="black" stroke="black" points="5666.38,-108.65 5675.61,-103.45 5665.16,-101.76 5666.38,-108.65"/>
</g>
<!-- :feature:other&#45;server&#45;ip&#45;detail -->
<g id="node17" class="node">
<title>:feature:other&#45;server&#45;ip&#45;detail</title>
<ellipse fill="none" stroke="black" cx="1268.75" cy="-90" rx="119.93" ry="18"/>
<text xml:space="preserve" text-anchor="middle" x="1268.75" y="-84.95" font-family="Times,serif" font-size="14.00">:feature:other&#45;server&#45;ip&#45;detail</text>
</g>
<!-- :app:shared&#45;&gt;:feature:other&#45;server&#45;ip&#45;detail -->
<g id="edge19" class="edge">
<title>:app:shared&#45;&gt;:feature:other&#45;server&#45;ip&#45;detail</title>
<path fill="none" stroke="black" d="M2430.2,-159.97C2271.92,-156.58 1792.61,-143.88 1396.75,-108 1386.23,-107.05 1375.24,-105.87 1364.32,-104.58"/>
<polygon fill="black" stroke="black" points="1364.83,-101.12 1354.48,-103.38 1363.99,-108.07 1364.83,-101.12"/>
</g>
<!-- :feature:other&#45;console&#45;ip&#45;detail -->
<g id="node18" class="node">
<title>:feature:other&#45;console&#45;ip&#45;detail</title>
<ellipse fill="none" stroke="black" cx="1531.75" cy="-90" rx="125.56" ry="18"/>
<text xml:space="preserve" text-anchor="middle" x="1531.75" y="-84.95" font-family="Times,serif" font-size="14.00">:feature:other&#45;console&#45;ip&#45;detail</text>
</g>
<!-- :app:shared&#45;&gt;:feature:other&#45;console&#45;ip&#45;detail -->
<g id="edge20" class="edge">
<title>:app:shared&#45;&gt;:feature:other&#45;console&#45;ip&#45;detail</title>
<path fill="none" stroke="black" d="M2431.03,-158.71C2300.89,-152.81 1954.04,-135.6 1665.75,-108 1654.81,-106.95 1643.38,-105.72 1632.01,-104.4"/>
<polygon fill="black" stroke="black" points="1632.53,-100.94 1622.18,-103.24 1631.7,-107.89 1632.53,-100.94"/>
</g>
<!-- :feature:other&#45;readout&#45;start&#45;sound&#45;detail -->
<g id="node19" class="node">
<title>:feature:other&#45;readout&#45;start&#45;sound&#45;detail</title>
<ellipse fill="none" stroke="black" cx="1833.75" cy="-90" rx="158.83" ry="18"/>
<text xml:space="preserve" text-anchor="middle" x="1833.75" y="-84.95" font-family="Times,serif" font-size="14.00">:feature:other&#45;readout&#45;start&#45;sound&#45;detail</text>
</g>
<!-- :app:shared&#45;&gt;:feature:other&#45;readout&#45;start&#45;sound&#45;detail -->
<g id="edge21" class="edge">
<title>:app:shared&#45;&gt;:feature:other&#45;readout&#45;start&#45;sound&#45;detail</title>
<path fill="none" stroke="black" d="M2433.29,-155.57C2331.9,-144.65 2100.91,-119.77 1957.07,-104.28"/>
<polygon fill="black" stroke="black" points="1957.83,-100.84 1947.51,-103.25 1957.08,-107.8 1957.83,-100.84"/>
</g>
<!-- :feature:other&#45;volume&#45;detail -->
<g id="node20" class="node">
<title>:feature:other&#45;volume&#45;detail</title>
<ellipse fill="none" stroke="black" cx="2125.75" cy="-90" rx="115.33" ry="18"/>
<text xml:space="preserve" text-anchor="middle" x="2125.75" y="-84.95" font-family="Times,serif" font-size="14.00">:feature:other&#45;volume&#45;detail</text>
</g>
<!-- :app:shared&#45;&gt;:feature:other&#45;volume&#45;detail -->
<g id="edge22" class="edge">
<title>:app:shared&#45;&gt;:feature:other&#45;volume&#45;detail</title>
<path fill="none" stroke="black" d="M2438.41,-152.13C2380.28,-140.77 2278.45,-120.86 2206.83,-106.85"/>
<polygon fill="black" stroke="black" points="2207.57,-103.43 2197.09,-104.95 2206.23,-110.3 2207.57,-103.43"/>
</g>
<!-- :feature:telemetry&#45;log&#45;list -->
<g id="node21" class="node">
<title>:feature:telemetry&#45;log&#45;list</title>
<ellipse fill="none" stroke="black" cx="2364.75" cy="-90" rx="106.11" ry="18"/>
<text xml:space="preserve" text-anchor="middle" x="2364.75" y="-84.95" font-family="Times,serif" font-size="14.00">:feature:telemetry&#45;log&#45;list</text>
</g>
<!-- :app:shared&#45;&gt;:feature:telemetry&#45;log&#45;list -->
<g id="edge23" class="edge">
<title>:app:shared&#45;&gt;:feature:telemetry&#45;log&#45;list</title>
<path fill="none" stroke="black" d="M2457.93,-145.81C2441.85,-136.36 2420.89,-124.02 2402.92,-113.45"/>
<polygon fill="black" stroke="black" points="2404.72,-110.45 2394.32,-108.4 2401.17,-116.48 2404.72,-110.45"/>
</g>
<!-- :feature:telemetry&#45;log&#45;detail -->
<g id="node22" class="node">
<title>:feature:telemetry&#45;log&#45;detail</title>
<ellipse fill="none" stroke="black" cx="2603.75" cy="-90" rx="115.33" ry="18"/>
<text xml:space="preserve" text-anchor="middle" x="2603.75" y="-84.95" font-family="Times,serif" font-size="14.00">:feature:telemetry&#45;log&#45;detail</text>
</g>
<!-- :app:shared&#45;&gt;:feature:telemetry&#45;log&#45;detail -->
<g id="edge24" class="edge">
<title>:app:shared&#45;&gt;:feature:telemetry&#45;log&#45;detail</title>
<path fill="none" stroke="black" d="M2509.79,-145.81C2525.96,-136.38 2547.03,-124.09 2565.12,-113.53"/>
<polygon fill="black" stroke="black" points="2566.64,-116.7 2573.51,-108.64 2563.11,-110.65 2566.64,-116.7"/>
</g>
<!-- :feature:readout&#45;list -->
<g id="node23" class="node">
<title>:feature:readout&#45;list</title>
<ellipse fill="none" stroke="black" cx="2820.75" cy="-90" rx="83.6" ry="18"/>
<text xml:space="preserve" text-anchor="middle" x="2820.75" y="-84.95" font-family="Times,serif" font-size="14.00">:feature:readout&#45;list</text>
</g>
<!-- :app:shared&#45;&gt;:feature:readout&#45;list -->
<g id="edge25" class="edge">
<title>:app:shared&#45;&gt;:feature:readout&#45;list</title>
<path fill="none" stroke="black" d="M2528.5,-151.7C2585.37,-139.89 2684.15,-119.37 2750.96,-105.5"/>
<polygon fill="black" stroke="black" points="2751.66,-108.93 2760.74,-103.47 2750.23,-102.07 2751.66,-108.93"/>
</g>
<!-- :feature:lmu&#45;windows&#45;readout&#45;vehicle&#45;approach&#45;detail -->
<g id="node24" class="node">
<title>:feature:lmu&#45;windows&#45;readout&#45;vehicle&#45;approach&#45;detail</title>
<ellipse fill="none" stroke="black" cx="3135.75" cy="-90" rx="213.59" ry="18"/>
<text xml:space="preserve" text-anchor="middle" x="3135.75" y="-84.95" font-family="Times,serif" font-size="14.00">:feature:lmu&#45;windows&#45;readout&#45;vehicle&#45;approach&#45;detail</text>
</g>
<!-- :app:shared&#45;&gt;:feature:lmu&#45;windows&#45;readout&#45;vehicle&#45;approach&#45;detail -->
<g id="edge26" class="edge">
<title>:app:shared&#45;&gt;:feature:lmu&#45;windows&#45;readout&#45;vehicle&#45;approach&#45;detail</title>
<path fill="none" stroke="black" d="M2534.1,-155.59C2631.98,-145.09 2851.05,-121.57 2996.07,-106"/>
<polygon fill="black" stroke="black" points="2996.17,-109.51 3005.74,-104.96 2995.42,-102.55 2996.17,-109.51"/>
</g>
<!-- :feature:lmu&#45;windows&#45;readout&#45;flag&#45;detail -->
<g id="node25" class="node">
<title>:feature:lmu&#45;windows&#45;readout&#45;flag&#45;detail</title>
<ellipse fill="none" stroke="black" cx="3531.75" cy="-90" rx="164.46" ry="18"/>
<text xml:space="preserve" text-anchor="middle" x="3531.75" y="-84.95" font-family="Times,serif" font-size="14.00">:feature:lmu&#45;windows&#45;readout&#45;flag&#45;detail</text>
</g>
<!-- :app:shared&#45;&gt;:feature:lmu&#45;windows&#45;readout&#45;flag&#45;detail -->
<g id="edge27" class="edge">
<title>:app:shared&#45;&gt;:feature:lmu&#45;windows&#45;readout&#45;flag&#45;detail</title>
<path fill="none" stroke="black" d="M2536.57,-158.49C2672.83,-151.87 3047.36,-132.72 3358.75,-108 3373.52,-106.83 3388.98,-105.48 3404.33,-104.07"/>
<polygon fill="black" stroke="black" points="3404.34,-107.58 3413.97,-103.17 3403.69,-100.61 3404.34,-107.58"/>
</g>
<!-- :feature:lmu&#45;windows&#45;readout&#45;vehicle&#45;damage&#45;detail -->
<g id="node26" class="node">
<title>:feature:lmu&#45;windows&#45;readout&#45;vehicle&#45;damage&#45;detail</title>
<ellipse fill="none" stroke="black" cx="3922.75" cy="-90" rx="208.99" ry="18"/>
<text xml:space="preserve" text-anchor="middle" x="3922.75" y="-84.95" font-family="Times,serif" font-size="14.00">:feature:lmu&#45;windows&#45;readout&#45;vehicle&#45;damage&#45;detail</text>
</g>
<!-- :app:shared&#45;&gt;:feature:lmu&#45;windows&#45;readout&#45;vehicle&#45;damage&#45;detail -->
<g id="edge28" class="edge">
<title>:app:shared&#45;&gt;:feature:lmu&#45;windows&#45;readout&#45;vehicle&#45;damage&#45;detail</title>
<path fill="none" stroke="black" d="M2537.04,-159.34C2707.29,-153.91 3253.37,-135.39 3704.75,-108 3724,-106.83 3744.2,-105.46 3764.21,-104.01"/>
<polygon fill="black" stroke="black" points="3764.4,-107.5 3774.12,-103.28 3763.89,-100.52 3764.4,-107.5"/>
</g>
<!-- :feature:gt7&#45;ps5&#45;readout&#45;my&#45;bestlap&#45;detail -->
<g id="node27" class="node">
<title>:feature:gt7&#45;ps5&#45;readout&#45;my&#45;bestlap&#45;detail</title>
<ellipse fill="none" stroke="black" cx="4317.75" cy="-90" rx="168.04" ry="18"/>
<text xml:space="preserve" text-anchor="middle" x="4317.75" y="-84.95" font-family="Times,serif" font-size="14.00">:feature:gt7&#45;ps5&#45;readout&#45;my&#45;bestlap&#45;detail</text>
</g>
<!-- :app:shared&#45;&gt;:feature:gt7&#45;ps5&#45;readout&#45;my&#45;bestlap&#45;detail -->
<g id="edge29" class="edge">
<title>:app:shared&#45;&gt;:feature:gt7&#45;ps5&#45;readout&#45;my&#45;bestlap&#45;detail</title>
<path fill="none" stroke="black" d="M2537.45,-160.53C2744.53,-158.44 3510.99,-148.27 4140.75,-108 4156.52,-106.99 4173.06,-105.71 4189.43,-104.3"/>
<polygon fill="black" stroke="black" points="4189.56,-107.8 4199.22,-103.43 4188.95,-100.83 4189.56,-107.8"/>
</g>
<!-- :feature:gt7&#45;ps5&#45;readout&#45;remaining&#45;fuel&#45;laps&#45;detail -->
<g id="node28" class="node">
<title>:feature:gt7&#45;ps5&#45;readout&#45;remaining&#45;fuel&#45;laps&#45;detail</title>
<ellipse fill="none" stroke="black" cx="4703.75" cy="-90" rx="199.78" ry="18"/>
<text xml:space="preserve" text-anchor="middle" x="4703.75" y="-84.95" font-family="Times,serif" font-size="14.00">:feature:gt7&#45;ps5&#45;readout&#45;remaining&#45;fuel&#45;laps&#45;detail</text>
</g>
<!-- :app:shared&#45;&gt;:feature:gt7&#45;ps5&#45;readout&#45;remaining&#45;fuel&#45;laps&#45;detail -->
<g id="edge30" class="edge">
<title>:app:shared&#45;&gt;:feature:gt7&#45;ps5&#45;readout&#45;remaining&#45;fuel&#45;laps&#45;detail</title>
<path fill="none" stroke="black" d="M2537.4,-160.67C2770.42,-158.98 3717.91,-149.8 4494.75,-108 4513.91,-106.97 4534.03,-105.64 4553.92,-104.19"/>
<polygon fill="black" stroke="black" points="4554.04,-107.69 4563.75,-103.45 4553.52,-100.71 4554.04,-107.69"/>
</g>
<!-- :core:data&#45;&gt;:core:domain -->
<g id="edge32" class="edge">
<title>:core:data&#45;&gt;:core:domain</title>
<path fill="none" stroke="black" d="M228.47,-144.79C211.82,-125.17 190.03,-92.27 209.75,-72 242.52,-38.31 1710.62,-22.8 2054.31,-19.63"/>
<polygon fill="black" stroke="black" points="2054.1,-23.13 2064.07,-19.54 2054.04,-16.13 2054.1,-23.13"/>
</g>
<!-- :core:gt7&#45;ps5&#45;data&#45;&gt;:core:domain -->
<g id="edge33" class="edge">
<title>:core:gt7&#45;ps5&#45;data&#45;&gt;:core:domain</title>
<path fill="none" stroke="black" d="M112.89,-144.05C129.33,-122.68 160.89,-86.93 197.75,-72 285.25,-36.55 1715.43,-22.42 2054.21,-19.57"/>
<polygon fill="black" stroke="black" points="2054.08,-23.07 2064.05,-19.48 2054.02,-16.07 2054.08,-23.07"/>
</g>
<!-- :app:desktopApp -->
<g id="node7" class="node">
<title>:app:desktopApp</title>
<ellipse fill="none" stroke="black" cx="344.75" cy="-234" rx="73.87" ry="18"/>
<text xml:space="preserve" text-anchor="middle" x="344.75" y="-228.95" font-family="Times,serif" font-size="14.00">:app:desktopApp</text>
</g>
<!-- :app:desktopApp&#45;&gt;:server -->
<g id="edge10" class="edge">
<title>:app:desktopApp&#45;&gt;:server</title>
<path fill="none" stroke="black" d="M344.75,-215.7C344.75,-208.41 344.75,-199.73 344.75,-191.54"/>
<polygon fill="black" stroke="black" points="348.25,-191.62 344.75,-181.62 341.25,-191.62 348.25,-191.62"/>
</g>
<!-- :app:desktopApp&#45;&gt;:app:shared -->
<g id="edge6" class="edge">
<title>:app:desktopApp&#45;&gt;:app:shared</title>
<path fill="none" stroke="black" d="M417.76,-230.61C749.01,-219.77 2107.93,-175.3 2419.77,-165.09"/>
<polygon fill="black" stroke="black" points="2419.45,-168.61 2429.33,-164.78 2419.22,-161.61 2419.45,-168.61"/>
</g>
<!-- :app:desktopApp&#45;&gt;:core:data -->
<g id="edge7" class="edge">
<title>:app:desktopApp&#45;&gt;:core:data</title>
<path fill="none" stroke="black" d="M321.07,-216.59C307.39,-207.11 290.01,-195.06 275.2,-184.8"/>
<polygon fill="black" stroke="black" points="277.35,-182.03 267.14,-179.21 273.37,-187.79 277.35,-182.03"/>
</g>
<!-- :app:desktopApp&#45;&gt;:core:gt7&#45;ps5&#45;data -->
<g id="edge9" class="edge">
<title>:app:desktopApp&#45;&gt;:core:gt7&#45;ps5&#45;data</title>
<path fill="none" stroke="black" d="M298.28,-219.67C258.81,-208.34 201.94,-192.03 159.35,-179.81"/>
<polygon fill="black" stroke="black" points="160.33,-176.45 149.75,-177.06 158.4,-183.18 160.33,-176.45"/>
</g>
<!-- :core:lmu&#45;windows&#45;data -->
<g id="node8" class="node">
<title>:core:lmu&#45;windows&#45;data</title>
<ellipse fill="none" stroke="black" cx="500.75" cy="-162" rx="101.51" ry="18"/>
<text xml:space="preserve" text-anchor="middle" x="500.75" y="-156.95" font-family="Times,serif" font-size="14.00">:core:lmu&#45;windows&#45;data</text>
</g>
<!-- :app:desktopApp&#45;&gt;:core:lmu&#45;windows&#45;data -->
<g id="edge8" class="edge">
<title>:app:desktopApp&#45;&gt;:core:lmu&#45;windows&#45;data</title>
<path fill="none" stroke="black" d="M378.98,-217.64C401.09,-207.72 430.14,-194.68 454.32,-183.83"/>
<polygon fill="black" stroke="black" points="455.62,-187.08 463.31,-179.8 452.76,-180.7 455.62,-187.08"/>
</g>
<!-- :core:lmu&#45;windows&#45;data&#45;&gt;:core:domain -->
<g id="edge34" class="edge">
<title>:core:lmu&#45;windows&#45;data&#45;&gt;:core:domain</title>
<path fill="none" stroke="black" d="M428.64,-149C351.72,-135.86 240.01,-115.62 233.75,-108 223.6,-95.63 222.6,-83.47 233.75,-72 266.07,-38.76 1712.73,-22.93 2054.11,-19.65"/>
<polygon fill="black" stroke="black" points="2054.07,-23.15 2064.04,-19.56 2054.01,-16.15 2054.07,-23.15"/>
</g>
<!-- :feature:main&#45;&gt;:core:domain -->
<g id="edge51" class="edge">
<title>:feature:main&#45;&gt;:core:domain</title>
<path fill="none" stroke="black" d="M823.18,-77.05C831.92,-75.04 841.08,-73.22 849.75,-72 1085.09,-38.86 1821.1,-24.06 2054.2,-20.12"/>
<polygon fill="black" stroke="black" points="2054.12,-23.62 2064.06,-19.95 2054,-16.62 2054.12,-23.62"/>
</g>
<!-- :feature:lmu&#45;windows&#45;connection&#45;&gt;:core:domain -->
<g id="edge42" class="edge">
<title>:feature:lmu&#45;windows&#45;connection&#45;&gt;:core:domain</title>
<path fill="none" stroke="black" d="M1090.99,-76.86C1107.25,-75.05 1123.97,-73.35 1139.75,-72 1482.11,-42.76 1892.81,-26.82 2054.96,-21.27"/>
<polygon fill="black" stroke="black" points="2054.81,-24.78 2064.68,-20.94 2054.57,-17.78 2054.81,-24.78"/>
</g>
<!-- :feature:gt7&#45;ps5&#45;connection&#45;&gt;:core:domain -->
<g id="edge35" class="edge">
<title>:feature:gt7&#45;ps5&#45;connection&#45;&gt;:core:domain</title>
<path fill="none" stroke="black" d="M434.37,-76.71C448.45,-74.86 463.01,-73.18 476.75,-72 1085.39,-19.62 1824.42,-17.73 2054.15,-18.56"/>
<polygon fill="black" stroke="black" points="2053.81,-22.06 2063.83,-18.6 2053.84,-15.06 2053.81,-22.06"/>
</g>
<!-- :feature:server&#45;connection&#45;&gt;:core:domain -->
<g id="edge66" class="edge">
<title>:feature:server&#45;connection&#45;&gt;:core:domain</title>
<path fill="none" stroke="black" d="M669.11,-76.75C682.61,-74.9 696.57,-73.21 709.75,-72 1223.67,-24.86 1846.19,-19.39 2054.21,-18.95"/>
<polygon fill="black" stroke="black" points="2054.05,-22.45 2064.05,-18.93 2054.04,-15.45 2054.05,-22.45"/>
</g>
<!-- :feature:lmu&#45;windows&#45;narrator&#45;&gt;:core:domain -->
<g id="edge43" class="edge">
<title>:feature:lmu&#45;windows&#45;narrator&#45;&gt;:core:domain</title>
<path fill="none" stroke="black" d="M4960.39,-76.66C4944.57,-74.8 4928.19,-73.12 4912.75,-72 4773.48,-61.87 2619.3,-26.92 2197.19,-20.14"/>
<polygon fill="black" stroke="black" points="2197.36,-16.64 2187.31,-19.98 2197.25,-23.64 2197.36,-16.64"/>
</g>
<!-- :core:designsystem -->
<g id="node30" class="node">
<title>:core:designsystem</title>
<ellipse fill="none" stroke="black" cx="3333.75" cy="-18" rx="82.06" ry="18"/>
<text xml:space="preserve" text-anchor="middle" x="3333.75" y="-12.95" font-family="Times,serif" font-size="14.00">:core:designsystem</text>
</g>
<!-- :feature:lmu&#45;windows&#45;narrator&#45;&gt;:core:designsystem -->
<g id="edge44" class="edge">
<title>:feature:lmu&#45;windows&#45;narrator&#45;&gt;:core:designsystem</title>
<path fill="none" stroke="black" d="M4959.65,-76.76C4944.06,-74.91 4927.94,-73.22 4912.75,-72 4350.25,-26.98 3672.05,-20.09 3427.41,-19.12"/>
<polygon fill="black" stroke="black" points="3427.62,-15.62 3417.61,-19.08 3427.59,-22.62 3427.62,-15.62"/>
</g>
<!-- :feature:gt7&#45;ps5&#45;narrator&#45;&gt;:core:domain -->
<g id="edge36" class="edge">
<title>:feature:gt7&#45;ps5&#45;narrator&#45;&gt;:core:domain</title>
<path fill="none" stroke="black" d="M5221.16,-76.73C5207.78,-74.82 5193.86,-73.11 5180.75,-72 5103.99,-65.49 2649.48,-27.13 2197.06,-20.1"/>
<polygon fill="black" stroke="black" points="2197.37,-16.61 2187.32,-19.95 2197.26,-23.61 2197.37,-16.61"/>
</g>
<!-- :feature:gt7&#45;ps5&#45;narrator&#45;&gt;:core:designsystem -->
<g id="edge37" class="edge">
<title>:feature:gt7&#45;ps5&#45;narrator&#45;&gt;:core:designsystem</title>
<path fill="none" stroke="black" d="M5220.55,-76.77C5207.35,-74.88 5193.66,-73.17 5180.75,-72 4834.72,-40.66 3751.84,-24.41 3426.86,-20.15"/>
<polygon fill="black" stroke="black" points="3427.18,-16.66 3417.14,-20.03 3427.09,-23.66 3427.18,-16.66"/>
</g>
<!-- :feature:other&#45;license&#45;detail&#45;&gt;:core:domain -->
<g id="edge54" class="edge">
<title>:feature:other&#45;license&#45;detail&#45;&gt;:core:domain</title>
<path fill="none" stroke="black" d="M5445.8,-76.61C5431.51,-74.75 5416.71,-73.09 5402.75,-72 5361.38,-68.77 2672.44,-27.39 2197.14,-20.09"/>
<polygon fill="black" stroke="black" points="2197.24,-16.6 2187.19,-19.94 2197.13,-23.59 2197.24,-16.6"/>
</g>
<!-- :feature:other&#45;license&#45;detail&#45;&gt;:core:designsystem -->
<g id="edge55" class="edge">
<title>:feature:other&#45;license&#45;detail&#45;&gt;:core:designsystem</title>
<path fill="none" stroke="black" d="M5445.46,-76.67C5431.28,-74.82 5416.6,-73.15 5402.75,-72 5010.96,-39.57 3777.29,-23.86 3427.21,-19.98"/>
<polygon fill="black" stroke="black" points="3427.42,-16.48 3417.39,-19.87 3427.35,-23.48 3427.42,-16.48"/>
</g>
<!-- :feature:other&#45;list&#45;&gt;:core:domain -->
<g id="edge56" class="edge">
<title>:feature:other&#45;list&#45;&gt;:core:domain</title>
<path fill="none" stroke="black" d="M5677.11,-76.8C5666.76,-74.84 5655.96,-73.1 5645.75,-72 5380.26,-43.39 3509.75,-40.03 3242.75,-36 2847.78,-30.04 2374.24,-22.8 2197.17,-20.09"/>
<polygon fill="black" stroke="black" points="2197.25,-16.59 2187.2,-19.94 2197.14,-23.59 2197.25,-16.59"/>
</g>
<!-- :feature:other&#45;list&#45;&gt;:core:designsystem -->
<g id="edge57" class="edge">
<title>:feature:other&#45;list&#45;&gt;:core:designsystem</title>
<path fill="none" stroke="black" d="M5677.1,-76.86C5666.76,-74.9 5655.95,-73.14 5645.75,-72 5205.04,-22.75 3803.44,-19.03 3427.37,-18.94"/>
<polygon fill="black" stroke="black" points="3427.53,-15.44 3417.53,-18.94 3427.53,-22.44 3427.53,-15.44"/>
</g>
<!-- :feature:other&#45;server&#45;ip&#45;detail&#45;&gt;:core:domain -->
<g id="edge60" class="edge">
<title>:feature:other&#45;server&#45;ip&#45;detail&#45;&gt;:core:domain</title>
<path fill="none" stroke="black" d="M1354.04,-76.95C1368.29,-75.15 1382.92,-73.42 1396.75,-72 1638.14,-47.22 1925.67,-29.89 2055.72,-22.7"/>
<polygon fill="black" stroke="black" points="2055.76,-26.21 2065.55,-22.16 2055.37,-19.22 2055.76,-26.21"/>
</g>
<!-- :feature:other&#45;server&#45;ip&#45;detail&#45;&gt;:core:designsystem -->
<g id="edge61" class="edge">
<title>:feature:other&#45;server&#45;ip&#45;detail&#45;&gt;:core:designsystem</title>
<path fill="none" stroke="black" d="M1351.93,-76.67C1366.82,-74.83 1382.22,-73.16 1396.75,-72 1761.59,-42.86 2905.59,-24.97 3240.66,-20.25"/>
<polygon fill="black" stroke="black" points="3240.3,-23.76 3250.25,-20.12 3240.2,-16.76 3240.3,-23.76"/>
</g>
<!-- :feature:other&#45;console&#45;ip&#45;detail&#45;&gt;:core:domain -->
<g id="edge52" class="edge">
<title>:feature:other&#45;console&#45;ip&#45;detail&#45;&gt;:core:domain</title>
<path fill="none" stroke="black" d="M1622.91,-77.29C1637.25,-75.49 1651.9,-73.68 1665.75,-72 1805.47,-55.09 1969.23,-36.52 2058.8,-26.47"/>
<polygon fill="black" stroke="black" points="2059.09,-29.96 2068.64,-25.37 2058.31,-23 2059.09,-29.96"/>
</g>
<!-- :feature:other&#45;console&#45;ip&#45;detail&#45;&gt;:core:designsystem -->
<g id="edge53" class="edge">
<title>:feature:other&#45;console&#45;ip&#45;detail&#45;&gt;:core:designsystem</title>
<path fill="none" stroke="black" d="M1619.2,-76.7C1634.68,-74.86 1650.67,-73.19 1665.75,-72 2264.17,-24.64 2986.53,-19.22 3240.23,-18.88"/>
<polygon fill="black" stroke="black" points="3240.08,-22.38 3250.08,-18.87 3240.07,-15.38 3240.08,-22.38"/>
</g>
<!-- :feature:other&#45;readout&#45;start&#45;sound&#45;detail&#45;&gt;:core:domain -->
<g id="edge58" class="edge">
<title>:feature:other&#45;readout&#45;start&#45;sound&#45;detail&#45;&gt;:core:domain</title>
<path fill="none" stroke="black" d="M1899.64,-73.2C1950.67,-60.97 2020.61,-44.2 2069.14,-32.57"/>
<polygon fill="black" stroke="black" points="2069.69,-36.04 2078.59,-30.3 2068.05,-29.23 2069.69,-36.04"/>
</g>
<!-- :feature:other&#45;readout&#45;start&#45;sound&#45;detail&#45;&gt;:core:designsystem -->
<g id="edge59" class="edge">
<title>:feature:other&#45;readout&#45;start&#45;sound&#45;detail&#45;&gt;:core:designsystem</title>
<path fill="none" stroke="black" d="M1944.82,-76.79C1963.8,-74.99 1983.33,-73.3 2001.75,-72 2466.41,-39.28 3023.79,-25.25 3240.86,-20.74"/>
<polygon fill="black" stroke="black" points="3240.75,-24.25 3250.67,-20.54 3240.6,-17.25 3240.75,-24.25"/>
</g>
<!-- :feature:other&#45;volume&#45;detail&#45;&gt;:core:domain -->
<g id="edge62" class="edge">
<title>:feature:other&#45;volume&#45;detail&#45;&gt;:core:domain</title>
<path fill="none" stroke="black" d="M2125.75,-71.7C2125.75,-64.41 2125.75,-55.73 2125.75,-47.54"/>
<polygon fill="black" stroke="black" points="2129.25,-47.62 2125.75,-37.62 2122.25,-47.62 2129.25,-47.62"/>
</g>
<!-- :feature:other&#45;volume&#45;detail&#45;&gt;:core:designsystem -->
<g id="edge63" class="edge">
<title>:feature:other&#45;volume&#45;detail&#45;&gt;:core:designsystem</title>
<path fill="none" stroke="black" d="M2207.01,-76.83C2221.23,-74.99 2235.9,-73.29 2249.75,-72 2615.44,-38.06 3052.69,-25.08 3240.52,-20.82"/>
<polygon fill="black" stroke="black" points="3240.56,-24.32 3250.47,-20.59 3240.4,-17.32 3240.56,-24.32"/>
</g>
<!-- :feature:telemetry&#45;log&#45;list&#45;&gt;:core:domain -->
<g id="edge69" class="edge">
<title>:feature:telemetry&#45;log&#45;list&#45;&gt;:core:domain</title>
<path fill="none" stroke="black" d="M2313.18,-73.9C2273.42,-62.25 2218.63,-46.2 2178.56,-34.47"/>
<polygon fill="black" stroke="black" points="2179.71,-31.16 2169.13,-31.7 2177.74,-37.87 2179.71,-31.16"/>
</g>
<!-- :feature:telemetry&#45;log&#45;list&#45;&gt;:core:designsystem -->
<g id="edge70" class="edge">
<title>:feature:telemetry&#45;log&#45;list&#45;&gt;:core:designsystem</title>
<path fill="none" stroke="black" d="M2440.1,-76.93C2453.29,-75.08 2466.9,-73.35 2479.75,-72 2756.13,-43.05 3084.6,-28.11 3241.46,-22.16"/>
<polygon fill="black" stroke="black" points="3241.53,-25.66 3251.39,-21.79 3241.27,-18.67 3241.53,-25.66"/>
</g>
<!-- :feature:telemetry&#45;log&#45;detail&#45;&gt;:core:domain -->
<g id="edge67" class="edge">
<title>:feature:telemetry&#45;log&#45;detail&#45;&gt;:core:domain</title>
<path fill="none" stroke="black" d="M2521.58,-76.97C2427.57,-63.2 2275.6,-40.94 2189.89,-28.39"/>
<polygon fill="black" stroke="black" points="2190.66,-24.97 2180.26,-26.98 2189.64,-31.89 2190.66,-24.97"/>
</g>
<!-- :feature:telemetry&#45;log&#45;detail&#45;&gt;:core:designsystem -->
<g id="edge68" class="edge">
<title>:feature:telemetry&#45;log&#45;detail&#45;&gt;:core:designsystem</title>
<path fill="none" stroke="black" d="M2686.39,-77.1C2700.19,-75.27 2714.36,-73.5 2727.75,-72 2911.34,-51.4 3126.97,-34.21 3245.15,-25.38"/>
<polygon fill="black" stroke="black" points="3245.4,-28.87 3255.11,-24.64 3244.88,-21.89 3245.4,-28.87"/>
</g>
<!-- :feature:readout&#45;list&#45;&gt;:core:domain -->
<g id="edge64" class="edge">
<title>:feature:readout&#45;list&#45;&gt;:core:domain</title>
<path fill="none" stroke="black" d="M2760.85,-77.2C2749.87,-75.28 2738.48,-73.45 2727.75,-72 2536.01,-46.09 2308.11,-30.01 2195.66,-23.04"/>
<polygon fill="black" stroke="black" points="2196.19,-19.56 2186,-22.44 2195.76,-26.55 2196.19,-19.56"/>
</g>
<!-- :feature:readout&#45;list&#45;&gt;:core:designsystem -->
<g id="edge65" class="edge">
<title>:feature:readout&#45;list&#45;&gt;:core:designsystem</title>
<path fill="none" stroke="black" d="M2881.53,-77.26C2891.93,-75.4 2902.64,-73.57 2912.75,-72 3029.32,-53.91 3164.79,-37.71 3249.9,-28.12"/>
<polygon fill="black" stroke="black" points="3250.26,-31.6 3259.81,-27.01 3249.48,-24.64 3250.26,-31.6"/>
</g>
<!-- :feature:lmu&#45;windows&#45;readout&#45;vehicle&#45;approach&#45;detail&#45;&gt;:core:domain -->
<g id="edge47" class="edge">
<title>:feature:lmu&#45;windows&#45;readout&#45;vehicle&#45;approach&#45;detail&#45;&gt;:core:domain</title>
<path fill="none" stroke="black" d="M2982.6,-77.09C2959.53,-75.35 2936.01,-73.6 2913.75,-72 2648.37,-52.91 2332.56,-32.31 2195.24,-23.46"/>
<polygon fill="black" stroke="black" points="2195.8,-19.99 2185.6,-22.84 2195.35,-26.97 2195.8,-19.99"/>
</g>
<!-- :feature:lmu&#45;windows&#45;readout&#45;vehicle&#45;approach&#45;detail&#45;&gt;:core:designsystem -->
<g id="edge48" class="edge">
<title>:feature:lmu&#45;windows&#45;readout&#45;vehicle&#45;approach&#45;detail&#45;&gt;:core:designsystem</title>
<path fill="none" stroke="black" d="M3183.68,-72.05C3213.04,-61.68 3250.64,-48.38 3280.87,-37.7"/>
<polygon fill="black" stroke="black" points="3281.95,-41.03 3290.21,-34.39 3279.62,-34.43 3281.95,-41.03"/>
</g>
<!-- :feature:lmu&#45;windows&#45;readout&#45;flag&#45;detail&#45;&gt;:core:domain -->
<g id="edge45" class="edge">
<title>:feature:lmu&#45;windows&#45;readout&#45;flag&#45;detail&#45;&gt;:core:domain</title>
<path fill="none" stroke="black" d="M3416.43,-76.78C3397.19,-74.99 3377.41,-73.32 3358.75,-72 2917.55,-40.86 2386.17,-25.48 2196.91,-20.69"/>
<polygon fill="black" stroke="black" points="2197.08,-17.19 2186.99,-20.44 2196.9,-24.19 2197.08,-17.19"/>
</g>
<!-- :feature:lmu&#45;windows&#45;readout&#45;flag&#45;detail&#45;&gt;:core:designsystem -->
<g id="edge46" class="edge">
<title>:feature:lmu&#45;windows&#45;readout&#45;flag&#45;detail&#45;&gt;:core:designsystem</title>
<path fill="none" stroke="black" d="M3484.58,-72.32C3455,-61.87 3416.84,-48.38 3386.31,-37.58"/>
<polygon fill="black" stroke="black" points="3387.87,-34.42 3377.28,-34.39 3385.54,-41.02 3387.87,-34.42"/>
</g>
<!-- :feature:lmu&#45;windows&#45;readout&#45;vehicle&#45;damage&#45;detail&#45;&gt;:core:domain -->
<g id="edge49" class="edge">
<title>:feature:lmu&#45;windows&#45;readout&#45;vehicle&#45;damage&#45;detail&#45;&gt;:core:domain</title>
<path fill="none" stroke="black" d="M3777.11,-76.74C3752.95,-74.97 3728.15,-73.3 3704.75,-72 3123.27,-39.58 2420.15,-24.48 2197.17,-20.27"/>
<polygon fill="black" stroke="black" points="2197.24,-16.77 2187.18,-20.08 2197.11,-23.77 2197.24,-16.77"/>
</g>
<!-- :feature:lmu&#45;windows&#45;readout&#45;vehicle&#45;damage&#45;detail&#45;&gt;:core:designsystem -->
<g id="edge50" class="edge">
<title>:feature:lmu&#45;windows&#45;readout&#45;vehicle&#45;damage&#45;detail&#45;&gt;:core:designsystem</title>
<path fill="none" stroke="black" d="M3803.56,-74.83C3688.33,-61.14 3516.81,-40.76 3416.02,-28.78"/>
<polygon fill="black" stroke="black" points="3416.53,-25.31 3406.19,-27.61 3415.71,-32.26 3416.53,-25.31"/>
</g>
<!-- :feature:gt7&#45;ps5&#45;readout&#45;my&#45;bestlap&#45;detail&#45;&gt;:core:domain -->
<g id="edge38" class="edge">
<title>:feature:gt7&#45;ps5&#45;readout&#45;my&#45;bestlap&#45;detail&#45;&gt;:core:domain</title>
<path fill="none" stroke="black" d="M4201.21,-76.65C4181.07,-74.84 4160.32,-73.2 4140.75,-72 3750.65,-48.16 2507.29,-25.57 2196.62,-20.2"/>
<polygon fill="black" stroke="black" points="2197.11,-16.71 2187.05,-20.04 2196.99,-23.71 2197.11,-16.71"/>
</g>
<!-- :feature:gt7&#45;ps5&#45;readout&#45;my&#45;bestlap&#45;detail&#45;&gt;:core:designsystem -->
<g id="edge39" class="edge">
<title>:feature:gt7&#45;ps5&#45;readout&#45;my&#45;bestlap&#45;detail&#45;&gt;:core:designsystem</title>
<path fill="none" stroke="black" d="M4198.3,-77.03C4179.07,-75.25 4159.37,-73.5 4140.75,-72 3880.74,-50.98 3573.1,-32.56 3423.9,-24.03"/>
<polygon fill="black" stroke="black" points="3424.25,-20.55 3414.07,-23.47 3423.86,-27.53 3424.25,-20.55"/>
</g>
<!-- :feature:gt7&#45;ps5&#45;readout&#45;remaining&#45;fuel&#45;laps&#45;detail&#45;&gt;:core:domain -->
<g id="edge40" class="edge">
<title>:feature:gt7&#45;ps5&#45;readout&#45;remaining&#45;fuel&#45;laps&#45;detail&#45;&gt;:core:domain</title>
<path fill="none" stroke="black" d="M4565.83,-76.63C4542.13,-74.83 4517.74,-73.19 4494.75,-72 4030.77,-47.96 2541.33,-25.08 2197.18,-20.03"/>
<polygon fill="black" stroke="black" points="2197.47,-16.53 2187.41,-19.89 2197.36,-23.53 2197.47,-16.53"/>
</g>
<!-- :feature:gt7&#45;ps5&#45;readout&#45;remaining&#45;fuel&#45;laps&#45;detail&#45;&gt;:core:designsystem -->
<g id="edge41" class="edge">
<title>:feature:gt7&#45;ps5&#45;readout&#45;remaining&#45;fuel&#45;laps&#45;detail&#45;&gt;:core:designsystem</title>
<path fill="none" stroke="black" d="M4562.99,-76.86C4540.19,-75.09 4516.82,-73.4 4494.75,-72 4097.17,-46.76 3622.25,-28.93 3425.79,-22.09"/>
<polygon fill="black" stroke="black" points="3426.01,-18.6 3415.9,-21.75 3425.77,-25.59 3426.01,-18.6"/>
</g>
<!-- :app:webApp -->
<g id="node29" class="node">
<title>:app:webApp</title>
<ellipse fill="none" stroke="black" cx="2483.75" cy="-234" rx="60.56" ry="18"/>
<text xml:space="preserve" text-anchor="middle" x="2483.75" y="-228.95" font-family="Times,serif" font-size="14.00">:app:webApp</text>
</g>
<!-- :app:webApp&#45;&gt;:app:shared -->
<g id="edge31" class="edge">
<title>:app:webApp&#45;&gt;:app:shared</title>
<path fill="none" stroke="black" d="M2483.75,-215.7C2483.75,-208.41 2483.75,-199.73 2483.75,-191.54"/>
<polygon fill="black" stroke="black" points="2487.25,-191.62 2483.75,-181.62 2480.25,-191.62 2487.25,-191.62"/>
</g>
</g>
</svg>
