<?xml version="1.0" encoding="UTF-8" standalone="no"?>
<!DOCTYPE svg PUBLIC "-//W3C//DTD SVG 1.1//EN"
 "http://www.w3.org/Graphics/SVG/1.1/DTD/svg11.dtd">
<!-- Generated by graphviz version 2.43.0 (0)
 -->
<!-- Title: G Pages: 1 -->
<svg width="6424pt" height="260pt"
 viewBox="0.00 0.00 6423.63 260.00" xmlns="http://www.w3.org/2000/svg" xmlns:xlink="http://www.w3.org/1999/xlink">
<g id="graph0" class="graph" transform="scale(1 1) rotate(0) translate(4 256)">
<title>G</title>
<polygon fill="white" stroke="transparent" points="-4,4 -4,-256 6419.63,-256 6419.63,4 -4,4"/>
<!-- :server -->
<g id="node1" class="node">
<title>:server</title>
<ellipse fill="none" stroke="black" cx="302.89" cy="-162" rx="43.59" ry="18"/>
<text text-anchor="middle" x="302.89" y="-158.3" font-family="Times,serif" font-size="14.00">:server</text>
</g>
<!-- :core:domain -->
<g id="node2" class="node">
<title>:core:domain</title>
<ellipse fill="none" stroke="black" cx="2152.89" cy="-18" rx="70.69" ry="18"/>
<text text-anchor="middle" x="2152.89" y="-14.3" font-family="Times,serif" font-size="14.00">:core:domain</text>
</g>
<!-- :server&#45;&gt;:core:domain -->
<g id="edge1" class="edge">
<title>:server&#45;&gt;:core:domain</title>
<path fill="none" stroke="black" d="M303.18,-143.93C304.56,-123.13 310.35,-88.69 332.89,-72 403.58,-19.65 1727.69,-18.27 2071.75,-18.8"/>
<polygon fill="black" stroke="black" points="2071.88,-22.3 2081.89,-18.81 2071.89,-15.3 2071.88,-22.3"/>
</g>
<!-- :app:androidApp -->
<g id="node3" class="node">
<title>:app:androidApp</title>
<ellipse fill="none" stroke="black" cx="639.89" cy="-234" rx="87.18" ry="18"/>
<text text-anchor="middle" x="639.89" y="-230.3" font-family="Times,serif" font-size="14.00">:app:androidApp</text>
</g>
<!-- :app:shared -->
<g id="node4" class="node">
<title>:app:shared</title>
<ellipse fill="none" stroke="black" cx="2647.89" cy="-162" rx="65.79" ry="18"/>
<text text-anchor="middle" x="2647.89" y="-158.3" font-family="Times,serif" font-size="14.00">:app:shared</text>
</g>
<!-- :app:androidApp&#45;&gt;:app:shared -->
<g id="edge2" class="edge">
<title>:app:androidApp&#45;&gt;:app:shared</title>
<path fill="none" stroke="black" d="M724.89,-230.04C1056.29,-218.48 2258.82,-176.56 2572.59,-165.63"/>
<polygon fill="black" stroke="black" points="2573.06,-169.11 2582.93,-165.26 2572.82,-162.12 2573.06,-169.11"/>
</g>
<!-- :core:data -->
<g id="node5" class="node">
<title>:core:data</title>
<ellipse fill="none" stroke="black" cx="628.89" cy="-162" rx="57.39" ry="18"/>
<text text-anchor="middle" x="628.89" y="-158.3" font-family="Times,serif" font-size="14.00">:core:data</text>
</g>
<!-- :app:androidApp&#45;&gt;:core:data -->
<g id="edge3" class="edge">
<title>:app:androidApp&#45;&gt;:core:data</title>
<path fill="none" stroke="black" d="M637.17,-215.7C635.96,-207.98 634.5,-198.71 633.15,-190.11"/>
<polygon fill="black" stroke="black" points="636.59,-189.44 631.58,-180.1 629.67,-190.53 636.59,-189.44"/>
</g>
<!-- :core:gt7&#45;ps5&#45;data -->
<g id="node6" class="node">
<title>:core:gt7&#45;ps5&#45;data</title>
<ellipse fill="none" stroke="black" cx="458.89" cy="-162" rx="94.78" ry="18"/>
<text text-anchor="middle" x="458.89" y="-158.3" font-family="Times,serif" font-size="14.00">:core:gt7&#45;ps5&#45;data</text>
</g>
<!-- :app:androidApp&#45;&gt;:core:gt7&#45;ps5&#45;data -->
<g id="edge4" class="edge">
<title>:app:androidApp&#45;&gt;:core:gt7&#45;ps5&#45;data</title>
<path fill="none" stroke="black" d="M600.61,-217.81C573.53,-207.33 537.31,-193.33 508.26,-182.09"/>
<polygon fill="black" stroke="black" points="509.3,-178.74 498.71,-178.4 506.78,-185.27 509.3,-178.74"/>
</g>
<!-- :feature:main -->
<g id="node9" class="node">
<title>:feature:main</title>
<ellipse fill="none" stroke="black" cx="1041.89" cy="-90" rx="73.39" ry="18"/>
<text text-anchor="middle" x="1041.89" y="-86.3" font-family="Times,serif" font-size="14.00">:feature:main</text>
</g>
<!-- :app:shared&#45;&gt;:feature:main -->
<g id="edge10" class="edge">
<title>:app:shared&#45;&gt;:feature:main</title>
<path fill="none" stroke="black" d="M2582.29,-160.18C2328.86,-156.78 1413.55,-142.34 1124.89,-108 1118.02,-107.18 1110.87,-106.09 1103.78,-104.86"/>
<polygon fill="black" stroke="black" points="1103.94,-101.33 1093.47,-102.96 1102.67,-108.21 1103.94,-101.33"/>
</g>
<!-- :feature:lmu&#45;windows&#45;connection -->
<g id="node10" class="node">
<title>:feature:lmu&#45;windows&#45;connection</title>
<ellipse fill="none" stroke="black" cx="1297.89" cy="-90" rx="164.37" ry="18"/>
<text text-anchor="middle" x="1297.89" y="-86.3" font-family="Times,serif" font-size="14.00">:feature:lmu&#45;windows&#45;connection</text>
</g>
<!-- :app:shared&#45;&gt;:feature:lmu&#45;windows&#45;connection -->
<g id="edge11" class="edge">
<title>:app:shared&#45;&gt;:feature:lmu&#45;windows&#45;connection</title>
<path fill="none" stroke="black" d="M2582.8,-159.26C2404.78,-154.25 1894.89,-138.17 1471.89,-108 1455.84,-106.86 1438.98,-105.46 1422.33,-103.96"/>
<polygon fill="black" stroke="black" points="1422.28,-100.44 1412,-103.01 1421.64,-107.41 1422.28,-100.44"/>
</g>
<!-- :feature:gt7&#45;ps5&#45;connection -->
<g id="node11" class="node">
<title>:feature:gt7&#45;ps5&#45;connection</title>
<ellipse fill="none" stroke="black" cx="1618.89" cy="-90" rx="138.38" ry="18"/>
<text text-anchor="middle" x="1618.89" y="-86.3" font-family="Times,serif" font-size="14.00">:feature:gt7&#45;ps5&#45;connection</text>
</g>
<!-- :app:shared&#45;&gt;:feature:gt7&#45;ps5&#45;connection -->
<g id="edge12" class="edge">
<title>:app:shared&#45;&gt;:feature:gt7&#45;ps5&#45;connection</title>
<path fill="none" stroke="black" d="M2583.41,-158.32C2437.72,-152.01 2071.99,-134.68 1766.89,-108 1753.62,-106.84 1739.7,-105.46 1725.93,-103.99"/>
<polygon fill="black" stroke="black" points="1726.26,-100.51 1715.94,-102.91 1725.5,-107.47 1726.26,-100.51"/>
</g>
<!-- :feature:server&#45;connection -->
<g id="node12" class="node">
<title>:feature:server&#45;connection</title>
<ellipse fill="none" stroke="black" cx="1908.89" cy="-90" rx="133.48" ry="18"/>
<text text-anchor="middle" x="1908.89" y="-86.3" font-family="Times,serif" font-size="14.00">:feature:server&#45;connection</text>
</g>
<!-- :app:shared&#45;&gt;:feature:server&#45;connection -->
<g id="edge13" class="edge">
<title>:app:shared&#45;&gt;:feature:server&#45;connection</title>
<path fill="none" stroke="black" d="M2585.52,-156.1C2476.83,-147.41 2245.71,-128.31 2050.89,-108 2038.81,-106.74 2026.16,-105.34 2013.6,-103.9"/>
<polygon fill="black" stroke="black" points="2013.89,-100.41 2003.56,-102.74 2013.09,-107.37 2013.89,-100.41"/>
</g>
<!-- :feature:lmu&#45;windows&#45;narrator -->
<g id="node13" class="node">
<title>:feature:lmu&#45;windows&#45;narrator</title>
<ellipse fill="none" stroke="black" cx="2833.89" cy="-90" rx="153.27" ry="18"/>
<text text-anchor="middle" x="2833.89" y="-86.3" font-family="Times,serif" font-size="14.00">:feature:lmu&#45;windows&#45;narrator</text>
</g>
<!-- :app:shared&#45;&gt;:feature:lmu&#45;windows&#45;narrator -->
<g id="edge14" class="edge">
<title>:app:shared&#45;&gt;:feature:lmu&#45;windows&#45;narrator</title>
<path fill="none" stroke="black" d="M2685.08,-147C2712.54,-136.67 2750.29,-122.46 2780.9,-110.94"/>
<polygon fill="black" stroke="black" points="2782.44,-114.1 2790.56,-107.31 2779.97,-107.55 2782.44,-114.1"/>
</g>
<!-- :feature:gt7&#45;ps5&#45;narrator -->
<g id="node14" class="node">
<title>:feature:gt7&#45;ps5&#45;narrator</title>
<ellipse fill="none" stroke="black" cx="3132.89" cy="-90" rx="127.28" ry="18"/>
<text text-anchor="middle" x="3132.89" y="-86.3" font-family="Times,serif" font-size="14.00">:feature:gt7&#45;ps5&#45;narrator</text>
</g>
<!-- :app:shared&#45;&gt;:feature:gt7&#45;ps5&#45;narrator -->
<g id="edge15" class="edge">
<title>:app:shared&#45;&gt;:feature:gt7&#45;ps5&#45;narrator</title>
<path fill="none" stroke="black" d="M2704.47,-152.83C2786.13,-141.05 2938.07,-119.12 3037.31,-104.79"/>
<polygon fill="black" stroke="black" points="3037.95,-108.24 3047.35,-103.35 3036.95,-101.31 3037.95,-108.24"/>
</g>
<!-- :feature:other&#45;license&#45;detail -->
<g id="node15" class="node">
<title>:feature:other&#45;license&#45;detail</title>
<ellipse fill="none" stroke="black" cx="6275.89" cy="-90" rx="139.98" ry="18"/>
<text text-anchor="middle" x="6275.89" y="-86.3" font-family="Times,serif" font-size="14.00">:feature:other&#45;license&#45;detail</text>
</g>
<!-- :app:shared&#45;&gt;:feature:other&#45;license&#45;detail -->
<g id="edge16" class="edge">
<title>:app:shared&#45;&gt;:feature:other&#45;license&#45;detail</title>
<path fill="none" stroke="black" d="M2713.41,-160.88C3131.11,-160.01 5426.5,-153.18 6126.89,-108 6141.14,-107.08 6156.12,-105.78 6170.87,-104.29"/>
<polygon fill="black" stroke="black" points="6171.44,-107.75 6181.03,-103.24 6170.72,-100.79 6171.44,-107.75"/>
</g>
<!-- :feature:other&#45;list -->
<g id="node16" class="node">
<title>:feature:other&#45;list</title>
<ellipse fill="none" stroke="black" cx="2152.89" cy="-90" rx="92.88" ry="18"/>
<text text-anchor="middle" x="2152.89" y="-86.3" font-family="Times,serif" font-size="14.00">:feature:other&#45;list</text>
</g>
<!-- :app:shared&#45;&gt;:feature:other&#45;list -->
<g id="edge17" class="edge">
<title>:app:shared&#45;&gt;:feature:other&#45;list</title>
<path fill="none" stroke="black" d="M2589.39,-153.74C2512.38,-144.05 2372.8,-126 2253.89,-108 2246.01,-106.81 2237.8,-105.51 2229.62,-104.19"/>
<polygon fill="black" stroke="black" points="2230.1,-100.72 2219.66,-102.56 2228.97,-107.63 2230.1,-100.72"/>
</g>
<!-- :feature:other&#45;server&#45;ip&#45;detail -->
<g id="node17" class="node">
<title>:feature:other&#45;server&#45;ip&#45;detail</title>
<ellipse fill="none" stroke="black" cx="3426.89" cy="-90" rx="148.67" ry="18"/>
<text text-anchor="middle" x="3426.89" y="-86.3" font-family="Times,serif" font-size="14.00">:feature:other&#45;server&#45;ip&#45;detail</text>
</g>
<!-- :app:shared&#45;&gt;:feature:other&#45;server&#45;ip&#45;detail -->
<g id="edge18" class="edge">
<title>:app:shared&#45;&gt;:feature:other&#45;server&#45;ip&#45;detail</title>
<path fill="none" stroke="black" d="M2710.07,-156.15C2821.94,-147.32 3064.52,-127.71 3268.89,-108 3282.48,-106.69 3296.72,-105.25 3310.85,-103.78"/>
<polygon fill="black" stroke="black" points="3311.53,-107.23 3321.11,-102.71 3310.8,-100.27 3311.53,-107.23"/>
</g>
<!-- :feature:other&#45;console&#45;ip&#45;detail -->
<g id="node18" class="node">
<title>:feature:other&#45;console&#45;ip&#45;detail</title>
<ellipse fill="none" stroke="black" cx="3746.89" cy="-90" rx="153.27" ry="18"/>
<text text-anchor="middle" x="3746.89" y="-86.3" font-family="Times,serif" font-size="14.00">:feature:other&#45;console&#45;ip&#45;detail</text>
</g>
<!-- :app:shared&#45;&gt;:feature:other&#45;console&#45;ip&#45;detail -->
<g id="edge19" class="edge">
<title>:app:shared&#45;&gt;:feature:other&#45;console&#45;ip&#45;detail</title>
<path fill="none" stroke="black" d="M2712.43,-158.42C2864.56,-152.1 3257.44,-134.43 3584.89,-108 3599.32,-106.84 3614.45,-105.46 3629.44,-104"/>
<polygon fill="black" stroke="black" points="3630.17,-107.44 3639.77,-102.97 3629.48,-100.48 3630.17,-107.44"/>
</g>
<!-- :feature:other&#45;readout&#45;start&#45;sound&#45;detail -->
<g id="node19" class="node">
<title>:feature:other&#45;readout&#45;start&#45;sound&#45;detail</title>
<ellipse fill="none" stroke="black" cx="2462.89" cy="-90" rx="199.56" ry="18"/>
<text text-anchor="middle" x="2462.89" y="-86.3" font-family="Times,serif" font-size="14.00">:feature:other&#45;readout&#45;start&#45;sound&#45;detail</text>
</g>
<!-- :app:shared&#45;&gt;:feature:other&#45;readout&#45;start&#45;sound&#45;detail -->
<g id="edge20" class="edge">
<title>:app:shared&#45;&gt;:feature:other&#45;readout&#45;start&#45;sound&#45;detail</title>
<path fill="none" stroke="black" d="M2610.9,-147C2583.87,-136.78 2546.82,-122.76 2516.55,-111.31"/>
<polygon fill="black" stroke="black" points="2517.58,-107.95 2506.98,-107.68 2515.1,-114.5 2517.58,-107.95"/>
</g>
<!-- :feature:other&#45;volume&#45;detail -->
<g id="node20" class="node">
<title>:feature:other&#45;volume&#45;detail</title>
<ellipse fill="none" stroke="black" cx="4058.89" cy="-90" rx="141.07" ry="18"/>
<text text-anchor="middle" x="4058.89" y="-86.3" font-family="Times,serif" font-size="14.00">:feature:other&#45;volume&#45;detail</text>
</g>
<!-- :app:shared&#45;&gt;:feature:other&#45;volume&#45;detail -->
<g id="edge21" class="edge">
<title>:app:shared&#45;&gt;:feature:other&#45;volume&#45;detail</title>
<path fill="none" stroke="black" d="M2713.29,-159.88C2900.1,-156.35 3452.03,-143.44 3908.89,-108 3922.56,-106.94 3936.9,-105.6 3951.07,-104.15"/>
<polygon fill="black" stroke="black" points="3951.77,-107.59 3961.35,-103.07 3951.04,-100.63 3951.77,-107.59"/>
</g>
<!-- :feature:other&#45;keep&#45;screen&#45;on&#45;detail -->
<g id="node21" class="node">
<title>:feature:other&#45;keep&#45;screen&#45;on&#45;detail</title>
<ellipse fill="none" stroke="black" cx="547.89" cy="-90" rx="176.57" ry="18"/>
<text text-anchor="middle" x="547.89" y="-86.3" font-family="Times,serif" font-size="14.00">:feature:other&#45;keep&#45;screen&#45;on&#45;detail</text>
</g>
<!-- :app:shared&#45;&gt;:feature:other&#45;keep&#45;screen&#45;on&#45;detail -->
<g id="edge22" class="edge">
<title>:app:shared&#45;&gt;:feature:other&#45;keep&#45;screen&#45;on&#45;detail</title>
<path fill="none" stroke="black" d="M2582.13,-160.69C2337.61,-159.22 1457.7,-151.06 733.89,-108 716.14,-106.94 697.45,-105.56 679.05,-104.04"/>
<polygon fill="black" stroke="black" points="679.13,-100.53 668.87,-103.18 678.54,-107.51 679.13,-100.53"/>
</g>
<!-- :feature:readout&#45;list -->
<g id="node22" class="node">
<title>:feature:readout&#45;list</title>
<ellipse fill="none" stroke="black" cx="846.89" cy="-90" rx="103.98" ry="18"/>
<text text-anchor="middle" x="846.89" y="-86.3" font-family="Times,serif" font-size="14.00">:feature:readout&#45;list</text>
</g>
<!-- :app:shared&#45;&gt;:feature:readout&#45;list -->
<g id="edge23" class="edge">
<title>:app:shared&#45;&gt;:feature:readout&#45;list</title>
<path fill="none" stroke="black" d="M2582.26,-159.98C2311.9,-155.6 1283.47,-137.32 959.89,-108 949.71,-107.08 939.05,-105.84 928.51,-104.45"/>
<polygon fill="black" stroke="black" points="928.85,-100.96 918.47,-103.07 927.9,-107.89 928.85,-100.96"/>
</g>
<!-- :feature:lmu&#45;windows&#45;readout&#45;vehicle&#45;approach&#45;detail -->
<g id="node23" class="node">
<title>:feature:lmu&#45;windows&#45;readout&#45;vehicle&#45;approach&#45;detail</title>
<ellipse fill="none" stroke="black" cx="4478.89" cy="-90" rx="260.75" ry="18"/>
<text text-anchor="middle" x="4478.89" y="-86.3" font-family="Times,serif" font-size="14.00">:feature:lmu&#45;windows&#45;readout&#45;vehicle&#45;approach&#45;detail</text>
</g>
<!-- :app:shared&#45;&gt;:feature:lmu&#45;windows&#45;readout&#45;vehicle&#45;approach&#45;detail -->
<g id="edge24" class="edge">
<title>:app:shared&#45;&gt;:feature:lmu&#45;windows&#45;readout&#45;vehicle&#45;approach&#45;detail</title>
<path fill="none" stroke="black" d="M2712.97,-159.46C2927.07,-154.27 3628.94,-136.1 4208.89,-108 4234.78,-106.75 4262.07,-105.24 4288.93,-103.65"/>
<polygon fill="black" stroke="black" points="4289.43,-107.13 4299.2,-103.04 4289.01,-100.14 4289.43,-107.13"/>
</g>
<!-- :feature:lmu&#45;windows&#45;readout&#45;flag&#45;detail -->
<g id="node24" class="node">
<title>:feature:lmu&#45;windows&#45;readout&#45;flag&#45;detail</title>
<ellipse fill="none" stroke="black" cx="4956.89" cy="-90" rx="199.56" ry="18"/>
<text text-anchor="middle" x="4956.89" y="-86.3" font-family="Times,serif" font-size="14.00">:feature:lmu&#45;windows&#45;readout&#45;flag&#45;detail</text>
</g>
<!-- :app:shared&#45;&gt;:feature:lmu&#45;windows&#45;readout&#45;flag&#45;detail -->
<g id="edge25" class="edge">
<title>:app:shared&#45;&gt;:feature:lmu&#45;windows&#45;readout&#45;flag&#45;detail</title>
<path fill="none" stroke="black" d="M2713.74,-160.69C2972.91,-159.18 3947.77,-150.81 4748.89,-108 4768.94,-106.93 4790.07,-105.52 4810.85,-103.98"/>
<polygon fill="black" stroke="black" points="4811.31,-107.46 4821.02,-103.21 4810.79,-100.48 4811.31,-107.46"/>
</g>
<!-- :feature:lmu&#45;windows&#45;readout&#45;vehicle&#45;damage&#45;detail -->
<g id="node25" class="node">
<title>:feature:lmu&#45;windows&#45;readout&#45;vehicle&#45;damage&#45;detail</title>
<ellipse fill="none" stroke="black" cx="5428.89" cy="-90" rx="254.55" ry="18"/>
<text text-anchor="middle" x="5428.89" y="-86.3" font-family="Times,serif" font-size="14.00">:feature:lmu&#45;windows&#45;readout&#45;vehicle&#45;damage&#45;detail</text>
</g>
<!-- :app:shared&#45;&gt;:feature:lmu&#45;windows&#45;readout&#45;vehicle&#45;damage&#45;detail -->
<g id="edge26" class="edge">
<title>:app:shared&#45;&gt;:feature:lmu&#45;windows&#45;readout&#45;vehicle&#45;damage&#45;detail</title>
<path fill="none" stroke="black" d="M2713.58,-160.67C3002.73,-158.98 4191.17,-149.74 5165.89,-108 5191.73,-106.89 5218.98,-105.45 5245.76,-103.86"/>
<polygon fill="black" stroke="black" points="5246.23,-107.34 5256,-103.25 5245.81,-100.35 5246.23,-107.34"/>
</g>
<!-- :feature:gt7&#45;ps5&#45;readout&#45;my&#45;bestlap&#45;detail -->
<g id="node26" class="node">
<title>:feature:gt7&#45;ps5&#45;readout&#45;my&#45;bestlap&#45;detail</title>
<ellipse fill="none" stroke="black" cx="5909.89" cy="-90" rx="207.96" ry="18"/>
<text text-anchor="middle" x="5909.89" y="-86.3" font-family="Times,serif" font-size="14.00">:feature:gt7&#45;ps5&#45;readout&#45;my&#45;bestlap&#45;detail</text>
</g>
<!-- :app:shared&#45;&gt;:feature:gt7&#45;ps5&#45;readout&#45;my&#45;bestlap&#45;detail -->
<g id="edge27" class="edge">
<title>:app:shared&#45;&gt;:feature:gt7&#45;ps5&#45;readout&#45;my&#45;bestlap&#45;detail</title>
<path fill="none" stroke="black" d="M2713.56,-161.34C3037.58,-162.68 4498.34,-165.13 5692.89,-108 5714.33,-106.97 5736.94,-105.57 5759.14,-104"/>
<polygon fill="black" stroke="black" points="5759.59,-107.48 5769.31,-103.27 5759.08,-100.49 5759.59,-107.48"/>
</g>
<!-- :core:data&#45;&gt;:core:domain -->
<g id="edge29" class="edge">
<title>:core:data&#45;&gt;:core:domain</title>
<path fill="none" stroke="black" d="M586.75,-149.65C578.85,-147.66 570.63,-145.69 562.89,-144 470.18,-123.79 295.79,-140.08 361.89,-72 392.07,-40.91 1727.15,-23.78 2072.19,-19.87"/>
<polygon fill="black" stroke="black" points="2072.39,-23.37 2082.35,-19.76 2072.31,-16.37 2072.39,-23.37"/>
</g>
<!-- :core:gt7&#45;ps5&#45;data&#45;&gt;:core:domain -->
<g id="edge30" class="edge">
<title>:core:gt7&#45;ps5&#45;data&#45;&gt;:core:domain</title>
<path fill="none" stroke="black" d="M399.35,-147.84C378.12,-139.97 356.39,-127.53 343.89,-108 335.26,-94.53 332.74,-83.48 343.89,-72 374.4,-40.59 1724.37,-23.68 2071.96,-19.85"/>
<polygon fill="black" stroke="black" points="2072.23,-23.35 2082.19,-19.74 2072.15,-16.35 2072.23,-23.35"/>
</g>
<!-- :app:desktopApp -->
<g id="node7" class="node">
<title>:app:desktopApp</title>
<ellipse fill="none" stroke="black" cx="446.89" cy="-234" rx="88.28" ry="18"/>
<text text-anchor="middle" x="446.89" y="-230.3" font-family="Times,serif" font-size="14.00">:app:desktopApp</text>
</g>
<!-- :app:desktopApp&#45;&gt;:server -->
<g id="edge9" class="edge">
<title>:app:desktopApp&#45;&gt;:server</title>
<path fill="none" stroke="black" d="M414.21,-217.12C391.9,-206.27 362.31,-191.88 339.24,-180.67"/>
<polygon fill="black" stroke="black" points="340.64,-177.46 330.12,-176.24 337.58,-183.76 340.64,-177.46"/>
</g>
<!-- :app:desktopApp&#45;&gt;:app:shared -->
<g id="edge5" class="edge">
<title>:app:desktopApp&#45;&gt;:app:shared</title>
<path fill="none" stroke="black" d="M507.76,-220.91C519.69,-218.94 532.15,-217.17 543.89,-216 949.21,-175.6 2244.4,-165.37 2572.02,-163.4"/>
<polygon fill="black" stroke="black" points="2572.37,-166.9 2582.35,-163.34 2572.33,-159.9 2572.37,-166.9"/>
</g>
<!-- :app:desktopApp&#45;&gt;:core:data -->
<g id="edge6" class="edge">
<title>:app:desktopApp&#45;&gt;:core:data</title>
<path fill="none" stroke="black" d="M486.38,-217.81C515.34,-206.67 554.68,-191.54 584.69,-180"/>
<polygon fill="black" stroke="black" points="586.01,-183.24 594.08,-176.39 583.49,-176.71 586.01,-183.24"/>
</g>
<!-- :app:desktopApp&#45;&gt;:core:gt7&#45;ps5&#45;data -->
<g id="edge8" class="edge">
<title>:app:desktopApp&#45;&gt;:core:gt7&#45;ps5&#45;data</title>
<path fill="none" stroke="black" d="M449.86,-215.7C451.18,-207.98 452.77,-198.71 454.24,-190.11"/>
<polygon fill="black" stroke="black" points="457.72,-190.55 455.96,-180.1 450.82,-189.37 457.72,-190.55"/>
</g>
<!-- :core:lmu&#45;windows&#45;data -->
<g id="node8" class="node">
<title>:core:lmu&#45;windows&#45;data</title>
<ellipse fill="none" stroke="black" cx="120.89" cy="-162" rx="120.78" ry="18"/>
<text text-anchor="middle" x="120.89" y="-158.3" font-family="Times,serif" font-size="14.00">:core:lmu&#45;windows&#45;data</text>
</g>
<!-- :app:desktopApp&#45;&gt;:core:lmu&#45;windows&#45;data -->
<g id="edge7" class="edge">
<title>:app:desktopApp&#45;&gt;:core:lmu&#45;windows&#45;data</title>
<path fill="none" stroke="black" d="M388.23,-220.4C334.6,-208.89 254.96,-191.79 196.56,-179.25"/>
<polygon fill="black" stroke="black" points="197.15,-175.8 186.64,-177.12 195.68,-182.64 197.15,-175.8"/>
</g>
<!-- :core:lmu&#45;windows&#45;data&#45;&gt;:core:domain -->
<g id="edge31" class="edge">
<title>:core:lmu&#45;windows&#45;data&#45;&gt;:core:domain</title>
<path fill="none" stroke="black" d="M146.68,-144.33C181.44,-122.92 246,-86.74 306.89,-72 479.65,-30.18 1738.38,-21.04 2071.95,-19.35"/>
<polygon fill="black" stroke="black" points="2072.03,-22.85 2082.01,-19.3 2072,-15.85 2072.03,-22.85"/>
</g>
<!-- :feature:main&#45;&gt;:core:domain -->
<g id="edge46" class="edge">
<title>:feature:main&#45;&gt;:core:domain</title>
<path fill="none" stroke="black" d="M1093.49,-77.18C1103.84,-75.16 1114.68,-73.3 1124.89,-72 1475.56,-27.31 1898.08,-20.04 2072.05,-19.04"/>
<polygon fill="black" stroke="black" points="2072.16,-22.54 2082.14,-18.99 2072.13,-15.54 2072.16,-22.54"/>
</g>
<!-- :feature:lmu&#45;windows&#45;connection&#45;&gt;:core:domain -->
<g id="edge37" class="edge">
<title>:feature:lmu&#45;windows&#45;connection&#45;&gt;:core:domain</title>
<path fill="none" stroke="black" d="M1414.85,-77.25C1433.91,-75.43 1453.45,-73.62 1471.89,-72 1690.49,-52.82 1948.89,-33.67 2075.33,-24.54"/>
<polygon fill="black" stroke="black" points="2075.95,-28 2085.67,-23.79 2075.45,-21.02 2075.95,-28"/>
</g>
<!-- :feature:gt7&#45;ps5&#45;connection&#45;&gt;:core:domain -->
<g id="edge32" class="edge">
<title>:feature:gt7&#45;ps5&#45;connection&#45;&gt;:core:domain</title>
<path fill="none" stroke="black" d="M1712.52,-76.73C1817.71,-62.94 1986.17,-40.86 2081.34,-28.38"/>
<polygon fill="black" stroke="black" points="2081.99,-31.82 2091.45,-27.05 2081.08,-24.88 2081.99,-31.82"/>
</g>
<!-- :feature:server&#45;connection&#45;&gt;:core:domain -->
<g id="edge58" class="edge">
<title>:feature:server&#45;connection&#45;&gt;:core:domain</title>
<path fill="none" stroke="black" d="M1963.04,-73.46C2003.25,-61.93 2057.87,-46.26 2098.21,-34.69"/>
<polygon fill="black" stroke="black" points="2099.23,-38.03 2107.88,-31.91 2097.3,-31.31 2099.23,-38.03"/>
</g>
<!-- :feature:lmu&#45;windows&#45;narrator&#45;&gt;:core:domain -->
<g id="edge38" class="edge">
<title>:feature:lmu&#45;windows&#45;narrator&#45;&gt;:core:domain</title>
<path fill="none" stroke="black" d="M2723.66,-77.39C2706.33,-75.58 2688.63,-73.73 2671.89,-72 2513.8,-55.63 2328.59,-36.8 2227.72,-26.58"/>
<polygon fill="black" stroke="black" points="2227.93,-23.08 2217.62,-25.55 2227.22,-30.04 2227.93,-23.08"/>
</g>
<!-- :core:designsystem -->
<g id="node28" class="node">
<title>:core:designsystem</title>
<ellipse fill="none" stroke="black" cx="4268.89" cy="-18" rx="100.98" ry="18"/>
<text text-anchor="middle" x="4268.89" y="-14.3" font-family="Times,serif" font-size="14.00">:core:designsystem</text>
</g>
<!-- :feature:lmu&#45;windows&#45;narrator&#45;&gt;:core:designsystem -->
<g id="edge39" class="edge">
<title>:feature:lmu&#45;windows&#45;narrator&#45;&gt;:core:designsystem</title>
<path fill="none" stroke="black" d="M2939.9,-76.98C2958.86,-75.1 2978.44,-73.34 2996.89,-72 3426.27,-40.69 3938.64,-26.34 4159.13,-21.27"/>
<polygon fill="black" stroke="black" points="4159.49,-24.76 4169.4,-21.04 4159.33,-17.77 4159.49,-24.76"/>
</g>
<!-- :feature:gt7&#45;ps5&#45;narrator&#45;&gt;:core:domain -->
<g id="edge33" class="edge">
<title>:feature:gt7&#45;ps5&#45;narrator&#45;&gt;:core:domain</title>
<path fill="none" stroke="black" d="M3043.44,-77.11C3027.61,-75.23 3011.28,-73.44 2995.89,-72 2715.61,-45.82 2381.66,-29.1 2232.13,-22.38"/>
<polygon fill="black" stroke="black" points="2232.26,-18.88 2222.12,-21.93 2231.95,-25.87 2232.26,-18.88"/>
</g>
<!-- :feature:gt7&#45;ps5&#45;narrator&#45;&gt;:core:designsystem -->
<g id="edge34" class="edge">
<title>:feature:gt7&#45;ps5&#45;narrator&#45;&gt;:core:designsystem</title>
<path fill="none" stroke="black" d="M3221.31,-77.02C3237.13,-75.14 3253.48,-73.37 3268.89,-72 3592.45,-43.24 3976.39,-28.23 4160.22,-22.22"/>
<polygon fill="black" stroke="black" points="4160.55,-25.71 4170.43,-21.89 4160.32,-18.71 4160.55,-25.71"/>
</g>
<!-- :feature:other&#45;license&#45;detail&#45;&gt;:core:designsystem -->
<g id="edge50" class="edge">
<title>:feature:other&#45;license&#45;detail&#45;&gt;:core:designsystem</title>
<path fill="none" stroke="black" d="M6180.22,-76.87C6162.51,-74.97 6144.16,-73.23 6126.89,-72 5465.21,-24.9 4668.17,-19.27 4379.78,-18.88"/>
<polygon fill="black" stroke="black" points="4379.75,-15.38 4369.74,-18.86 4379.74,-22.38 4379.75,-15.38"/>
</g>
<!-- :feature:other&#45;list&#45;&gt;:core:domain -->
<g id="edge51" class="edge">
<title>:feature:other&#45;list&#45;&gt;:core:domain</title>
<path fill="none" stroke="black" d="M2152.89,-71.7C2152.89,-63.98 2152.89,-54.71 2152.89,-46.11"/>
<polygon fill="black" stroke="black" points="2156.39,-46.1 2152.89,-36.1 2149.39,-46.1 2156.39,-46.1"/>
</g>
<!-- :feature:other&#45;server&#45;ip&#45;detail&#45;&gt;:core:domain -->
<g id="edge53" class="edge">
<title>:feature:other&#45;server&#45;ip&#45;detail&#45;&gt;:core:domain</title>
<path fill="none" stroke="black" d="M3323.71,-77C3305.46,-75.14 3286.63,-73.37 3268.89,-72 2881.22,-41.97 2416.39,-26.47 2232.94,-21.16"/>
<polygon fill="black" stroke="black" points="2232.94,-17.66 2222.84,-20.87 2232.74,-24.66 2232.94,-17.66"/>
</g>
<!-- :feature:other&#45;server&#45;ip&#45;detail&#45;&gt;:core:designsystem -->
<g id="edge54" class="edge">
<title>:feature:other&#45;server&#45;ip&#45;detail&#45;&gt;:core:designsystem</title>
<path fill="none" stroke="black" d="M3532.23,-77.22C3549.81,-75.39 3567.86,-73.58 3584.89,-72 3791.07,-52.92 4032.65,-35.32 4166.48,-25.98"/>
<polygon fill="black" stroke="black" points="4166.98,-29.45 4176.71,-25.27 4166.49,-22.47 4166.98,-29.45"/>
</g>
<!-- :feature:other&#45;console&#45;ip&#45;detail&#45;&gt;:core:domain -->
<g id="edge47" class="edge">
<title>:feature:other&#45;console&#45;ip&#45;detail&#45;&gt;:core:domain</title>
<path fill="none" stroke="black" d="M3641.54,-76.9C3622.69,-75.04 3603.22,-73.3 3584.89,-72 3070.98,-35.57 2451.44,-23.4 2233.46,-20.08"/>
<polygon fill="black" stroke="black" points="2233.44,-16.57 2223.38,-19.92 2233.33,-23.57 2233.44,-16.57"/>
</g>
<!-- :feature:other&#45;console&#45;ip&#45;detail&#45;&gt;:core:designsystem -->
<g id="edge48" class="edge">
<title>:feature:other&#45;console&#45;ip&#45;detail&#45;&gt;:core:designsystem</title>
<path fill="none" stroke="black" d="M3843.85,-76C3940.43,-63.05 4087.4,-43.34 4180.76,-30.82"/>
<polygon fill="black" stroke="black" points="4181.3,-34.28 4190.75,-29.48 4180.37,-27.34 4181.3,-34.28"/>
</g>
<!-- :feature:other&#45;readout&#45;start&#45;sound&#45;detail&#45;&gt;:core:domain -->
<g id="edge52" class="edge">
<title>:feature:other&#45;readout&#45;start&#45;sound&#45;detail&#45;&gt;:core:domain</title>
<path fill="none" stroke="black" d="M2392.55,-73.12C2338.79,-60.98 2265.43,-44.41 2214.08,-32.82"/>
<polygon fill="black" stroke="black" points="2214.65,-29.36 2204.12,-30.57 2213.1,-36.19 2214.65,-29.36"/>
</g>
<!-- :feature:other&#45;volume&#45;detail&#45;&gt;:core:domain -->
<g id="edge55" class="edge">
<title>:feature:other&#45;volume&#45;detail&#45;&gt;:core:domain</title>
<path fill="none" stroke="black" d="M3962.17,-76.85C3944.47,-74.96 3926.14,-73.24 3908.89,-72 3264.13,-25.81 2483.4,-19.78 2233.74,-19.07"/>
<polygon fill="black" stroke="black" points="2233.68,-15.56 2223.67,-19.04 2233.66,-22.56 2233.68,-15.56"/>
</g>
<!-- :feature:other&#45;volume&#45;detail&#45;&gt;:core:designsystem -->
<g id="edge56" class="edge">
<title>:feature:other&#45;volume&#45;detail&#45;&gt;:core:designsystem</title>
<path fill="none" stroke="black" d="M4106.8,-73.03C4138.65,-62.41 4180.55,-48.45 4213.77,-37.37"/>
<polygon fill="black" stroke="black" points="4214.96,-40.67 4223.34,-34.18 4212.75,-34.03 4214.96,-40.67"/>
</g>
<!-- :feature:other&#45;keep&#45;screen&#45;on&#45;detail&#45;&gt;:core:domain -->
<g id="edge49" class="edge">
<title>:feature:other&#45;keep&#45;screen&#45;on&#45;detail&#45;&gt;:core:domain</title>
<path fill="none" stroke="black" d="M669.88,-76.9C691.2,-75.06 713.18,-73.33 733.89,-72 1242.76,-39.27 1855.68,-24.83 2072.31,-20.49"/>
<polygon fill="black" stroke="black" points="2072.39,-23.99 2082.32,-20.29 2072.25,-16.99 2072.39,-23.99"/>
</g>
<!-- :feature:readout&#45;list&#45;&gt;:core:domain -->
<g id="edge57" class="edge">
<title>:feature:readout&#45;list&#45;&gt;:core:domain</title>
<path fill="none" stroke="black" d="M919.09,-76.99C932.61,-75.06 946.66,-73.29 959.89,-72 1376.99,-31.47 1879.19,-21.9 2072.06,-19.67"/>
<polygon fill="black" stroke="black" points="2072.15,-23.17 2082.11,-19.56 2072.07,-16.17 2072.15,-23.17"/>
</g>
<!-- :feature:lmu&#45;windows&#45;readout&#45;vehicle&#45;approach&#45;detail&#45;&gt;:core:domain -->
<g id="edge42" class="edge">
<title>:feature:lmu&#45;windows&#45;readout&#45;vehicle&#45;approach&#45;detail&#45;&gt;:core:domain</title>
<path fill="none" stroke="black" d="M4300.66,-76.84C4270.06,-75.02 4238.57,-73.32 4208.89,-72 3440.69,-37.93 2509.98,-23.67 2233.82,-20.01"/>
<polygon fill="black" stroke="black" points="2233.54,-16.5 2223.49,-19.87 2233.44,-23.5 2233.54,-16.5"/>
</g>
<!-- :feature:lmu&#45;windows&#45;readout&#45;vehicle&#45;approach&#45;detail&#45;&gt;:core:designsystem -->
<g id="edge43" class="edge">
<title>:feature:lmu&#45;windows&#45;readout&#45;vehicle&#45;approach&#45;detail&#45;&gt;:core:designsystem</title>
<path fill="none" stroke="black" d="M4428.86,-72.32C4397.3,-61.8 4356.53,-48.21 4324.04,-37.38"/>
<polygon fill="black" stroke="black" points="4324.84,-33.96 4314.24,-34.12 4322.62,-40.6 4324.84,-33.96"/>
</g>
<!-- :feature:lmu&#45;windows&#45;readout&#45;flag&#45;detail&#45;&gt;:core:domain -->
<g id="edge40" class="edge">
<title>:feature:lmu&#45;windows&#45;readout&#45;flag&#45;detail&#45;&gt;:core:domain</title>
<path fill="none" stroke="black" d="M4821.59,-76.74C4797.39,-74.89 4772.41,-73.2 4748.89,-72 3758.51,-21.47 2553.27,-18.64 2233.76,-18.85"/>
<polygon fill="black" stroke="black" points="2233.67,-15.35 2223.67,-18.86 2233.67,-22.35 2233.67,-15.35"/>
</g>
<!-- :feature:lmu&#45;windows&#45;readout&#45;flag&#45;detail&#45;&gt;:core:designsystem -->
<g id="edge41" class="edge">
<title>:feature:lmu&#45;windows&#45;readout&#45;flag&#45;detail&#45;&gt;:core:designsystem</title>
<path fill="none" stroke="black" d="M4829.9,-76.08C4695.17,-62.37 4485.38,-41.03 4364.16,-28.69"/>
<polygon fill="black" stroke="black" points="4364.45,-25.2 4354.15,-27.67 4363.74,-32.17 4364.45,-25.2"/>
</g>
<!-- :feature:lmu&#45;windows&#45;readout&#45;vehicle&#45;damage&#45;detail&#45;&gt;:core:domain -->
<g id="edge44" class="edge">
<title>:feature:lmu&#45;windows&#45;readout&#45;vehicle&#45;damage&#45;detail&#45;&gt;:core:domain</title>
<path fill="none" stroke="black" d="M5256.71,-76.71C5226.46,-74.88 5195.26,-73.21 5165.89,-72 4002.2,-24.18 2583.96,-19.45 2233.87,-19.03"/>
<polygon fill="black" stroke="black" points="2233.83,-15.53 2223.82,-19.02 2233.82,-22.53 2233.83,-15.53"/>
</g>
<!-- :feature:lmu&#45;windows&#45;readout&#45;vehicle&#45;damage&#45;detail&#45;&gt;:core:designsystem -->
<g id="edge45" class="edge">
<title>:feature:lmu&#45;windows&#45;readout&#45;vehicle&#45;damage&#45;detail&#45;&gt;:core:designsystem</title>
<path fill="none" stroke="black" d="M5248.87,-77.23C5221.09,-75.45 5192.72,-73.66 5165.89,-72 4879.03,-54.25 4540.48,-34.6 4373.21,-24.98"/>
<polygon fill="black" stroke="black" points="4373.36,-21.48 4363.17,-24.4 4372.96,-28.47 4373.36,-21.48"/>
</g>
<!-- :feature:gt7&#45;ps5&#45;readout&#45;my&#45;bestlap&#45;detail&#45;&gt;:core:domain -->
<g id="edge35" class="edge">
<title>:feature:gt7&#45;ps5&#45;readout&#45;my&#45;bestlap&#45;detail&#45;&gt;:core:domain</title>
<path fill="none" stroke="black" d="M5769.6,-76.7C5744.09,-74.84 5717.71,-73.16 5692.89,-72 4987.2,-39.11 2694.57,-22.55 2233.94,-19.52"/>
<polygon fill="black" stroke="black" points="2233.74,-16.01 2223.72,-19.45 2233.69,-23.01 2233.74,-16.01"/>
</g>
<!-- :feature:gt7&#45;ps5&#45;readout&#45;my&#45;bestlap&#45;detail&#45;&gt;:core:designsystem -->
<g id="edge36" class="edge">
<title>:feature:gt7&#45;ps5&#45;readout&#45;my&#45;bestlap&#45;detail&#45;&gt;:core:designsystem</title>
<path fill="none" stroke="black" d="M5766.67,-76.94C5742.07,-75.11 5716.75,-73.38 5692.89,-72 5202.88,-43.7 4617.09,-27.43 4378.3,-21.54"/>
<polygon fill="black" stroke="black" points="4378.31,-18.04 4368.22,-21.3 4378.13,-25.04 4378.31,-18.04"/>
</g>
<!-- :app:webApp -->
<g id="node27" class="node">
<title>:app:webApp</title>
<ellipse fill="none" stroke="black" cx="2647.89" cy="-234" rx="70.69" ry="18"/>
<text text-anchor="middle" x="2647.89" y="-230.3" font-family="Times,serif" font-size="14.00">:app:webApp</text>
</g>
<!-- :app:webApp&#45;&gt;:app:shared -->
<g id="edge28" class="edge">
<title>:app:webApp&#45;&gt;:app:shared</title>
<path fill="none" stroke="black" d="M2647.89,-215.7C2647.89,-207.98 2647.89,-198.71 2647.89,-190.11"/>
<polygon fill="black" stroke="black" points="2651.39,-190.1 2647.89,-180.1 2644.39,-190.1 2651.39,-190.1"/>
</g>
</g>
</svg>
