<?xml version="1.0" encoding="UTF-8" standalone="no"?>
<!DOCTYPE svg PUBLIC "-//W3C//DTD SVG 1.1//EN"
 "http://www.w3.org/Graphics/SVG/1.1/DTD/svg11.dtd">
<!-- Generated by graphviz version 2.43.0 (0)
 -->
<!-- Title: G Pages: 1 -->
<svg width="5222pt" height="260pt"
 viewBox="0.00 0.00 5221.63 260.00" xmlns="http://www.w3.org/2000/svg" xmlns:xlink="http://www.w3.org/1999/xlink">
<g id="graph0" class="graph" transform="scale(1 1) rotate(0) translate(4 256)">
<title>G</title>
<polygon fill="white" stroke="transparent" points="-4,4 -4,-256 5217.63,-256 5217.63,4 -4,4"/>
<!-- :server -->
<g id="node1" class="node">
<title>:server</title>
<ellipse fill="none" stroke="black" cx="302.89" cy="-162" rx="43.59" ry="18"/>
<text text-anchor="middle" x="302.89" y="-158.3" font-family="Times,serif" font-size="14.00">:server</text>
</g>
<!-- :core:domain -->
<g id="node2" class="node">
<title>:core:domain</title>
<ellipse fill="none" stroke="black" cx="1724.89" cy="-18" rx="70.69" ry="18"/>
<text text-anchor="middle" x="1724.89" y="-14.3" font-family="Times,serif" font-size="14.00">:core:domain</text>
</g>
<!-- :server&#45;&gt;:core:domain -->
<g id="edge1" class="edge">
<title>:server&#45;&gt;:core:domain</title>
<path fill="none" stroke="black" d="M273,-148.88C247.09,-137.7 212.59,-120.92 204.89,-108 196.7,-94.26 193.77,-83.51 204.89,-72 255.19,-19.91 1335.55,-18.18 1643.58,-18.75"/>
<polygon fill="black" stroke="black" points="1643.77,-22.25 1653.77,-18.77 1643.78,-15.25 1643.77,-22.25"/>
</g>
<!-- :app:androidApp -->
<g id="node3" class="node">
<title>:app:androidApp</title>
<ellipse fill="none" stroke="black" cx="1052.89" cy="-234" rx="87.18" ry="18"/>
<text text-anchor="middle" x="1052.89" y="-230.3" font-family="Times,serif" font-size="14.00">:app:androidApp</text>
</g>
<!-- :app:shared -->
<g id="node4" class="node">
<title>:app:shared</title>
<ellipse fill="none" stroke="black" cx="1724.89" cy="-162" rx="65.79" ry="18"/>
<text text-anchor="middle" x="1724.89" y="-158.3" font-family="Times,serif" font-size="14.00">:app:shared</text>
</g>
<!-- :app:androidApp&#45;&gt;:app:shared -->
<g id="edge2" class="edge">
<title>:app:androidApp&#45;&gt;:app:shared</title>
<path fill="none" stroke="black" d="M1128.67,-225.11C1259.84,-211.44 1527.36,-183.58 1654.61,-170.32"/>
<polygon fill="black" stroke="black" points="1655.05,-173.79 1664.63,-169.28 1654.32,-166.83 1655.05,-173.79"/>
</g>
<!-- :core:data -->
<g id="node5" class="node">
<title>:core:data</title>
<ellipse fill="none" stroke="black" cx="421.89" cy="-162" rx="57.39" ry="18"/>
<text text-anchor="middle" x="421.89" y="-158.3" font-family="Times,serif" font-size="14.00">:core:data</text>
</g>
<!-- :app:androidApp&#45;&gt;:core:data -->
<g id="edge3" class="edge">
<title>:app:androidApp&#45;&gt;:core:data</title>
<path fill="none" stroke="black" d="M978.03,-224.7C852.7,-210.79 602.63,-183.05 485.36,-170.04"/>
<polygon fill="black" stroke="black" points="485.44,-166.53 475.11,-168.9 484.67,-173.49 485.44,-166.53"/>
</g>
<!-- :feature:main -->
<g id="node8" class="node">
<title>:feature:main</title>
<ellipse fill="none" stroke="black" cx="1468.89" cy="-90" rx="73.39" ry="18"/>
<text text-anchor="middle" x="1468.89" y="-86.3" font-family="Times,serif" font-size="14.00">:feature:main</text>
</g>
<!-- :app:shared&#45;&gt;:feature:main -->
<g id="edge8" class="edge">
<title>:app:shared&#45;&gt;:feature:main</title>
<path fill="none" stroke="black" d="M1680,-148.73C1637.12,-137 1572.31,-119.28 1525.81,-106.57"/>
<polygon fill="black" stroke="black" points="1526.46,-103.11 1515.89,-103.85 1524.61,-109.87 1526.46,-103.11"/>
</g>
<!-- :feature:lmu&#45;windows&#45;connection -->
<g id="node9" class="node">
<title>:feature:lmu&#45;windows&#45;connection</title>
<ellipse fill="none" stroke="black" cx="1724.89" cy="-90" rx="164.37" ry="18"/>
<text text-anchor="middle" x="1724.89" y="-86.3" font-family="Times,serif" font-size="14.00">:feature:lmu&#45;windows&#45;connection</text>
</g>
<!-- :app:shared&#45;&gt;:feature:lmu&#45;windows&#45;connection -->
<g id="edge9" class="edge">
<title>:app:shared&#45;&gt;:feature:lmu&#45;windows&#45;connection</title>
<path fill="none" stroke="black" d="M1724.89,-143.7C1724.89,-135.98 1724.89,-126.71 1724.89,-118.11"/>
<polygon fill="black" stroke="black" points="1728.39,-118.1 1724.89,-108.1 1721.39,-118.1 1728.39,-118.1"/>
</g>
<!-- :feature:server&#45;connection -->
<g id="node10" class="node">
<title>:feature:server&#45;connection</title>
<ellipse fill="none" stroke="black" cx="2247.89" cy="-90" rx="133.48" ry="18"/>
<text text-anchor="middle" x="2247.89" y="-86.3" font-family="Times,serif" font-size="14.00">:feature:server&#45;connection</text>
</g>
<!-- :app:shared&#45;&gt;:feature:server&#45;connection -->
<g id="edge10" class="edge">
<title>:app:shared&#45;&gt;:feature:server&#45;connection</title>
<path fill="none" stroke="black" d="M1782.61,-153.27C1870.32,-141.53 2038.42,-119.04 2146.73,-104.54"/>
<polygon fill="black" stroke="black" points="2147.25,-108 2156.7,-103.21 2146.32,-101.06 2147.25,-108"/>
</g>
<!-- :feature:lmu&#45;windows&#45;narrator -->
<g id="node11" class="node">
<title>:feature:lmu&#45;windows&#45;narrator</title>
<ellipse fill="none" stroke="black" cx="377.89" cy="-90" rx="153.27" ry="18"/>
<text text-anchor="middle" x="377.89" y="-86.3" font-family="Times,serif" font-size="14.00">:feature:lmu&#45;windows&#45;narrator</text>
</g>
<!-- :app:shared&#45;&gt;:feature:lmu&#45;windows&#45;narrator -->
<g id="edge11" class="edge">
<title>:app:shared&#45;&gt;:feature:lmu&#45;windows&#45;narrator</title>
<path fill="none" stroke="black" d="M1659.62,-159.45C1480.5,-154.91 966.27,-139.88 539.89,-108 525.08,-106.89 509.54,-105.53 494.18,-104.05"/>
<polygon fill="black" stroke="black" points="494.41,-100.56 484.12,-103.07 493.73,-107.52 494.41,-100.56"/>
</g>
<!-- :feature:other&#45;license&#45;detail -->
<g id="node12" class="node">
<title>:feature:other&#45;license&#45;detail</title>
<ellipse fill="none" stroke="black" cx="5073.89" cy="-90" rx="139.98" ry="18"/>
<text text-anchor="middle" x="5073.89" y="-86.3" font-family="Times,serif" font-size="14.00">:feature:other&#45;license&#45;detail</text>
</g>
<!-- :app:shared&#45;&gt;:feature:other&#45;license&#45;detail -->
<g id="edge12" class="edge">
<title>:app:shared&#45;&gt;:feature:other&#45;license&#45;detail</title>
<path fill="none" stroke="black" d="M1790.54,-160.78C2188.64,-159.33 4283.63,-149.79 4924.89,-108 4939.14,-107.07 4954.12,-105.76 4968.87,-104.27"/>
<polygon fill="black" stroke="black" points="4969.44,-107.73 4979.03,-103.22 4968.72,-100.77 4969.44,-107.73"/>
</g>
<!-- :feature:other&#45;list -->
<g id="node13" class="node">
<title>:feature:other&#45;list</title>
<ellipse fill="none" stroke="black" cx="641.89" cy="-90" rx="92.88" ry="18"/>
<text text-anchor="middle" x="641.89" y="-86.3" font-family="Times,serif" font-size="14.00">:feature:other&#45;list</text>
</g>
<!-- :app:shared&#45;&gt;:feature:other&#45;list -->
<g id="edge13" class="edge">
<title>:app:shared&#45;&gt;:feature:other&#45;list</title>
<path fill="none" stroke="black" d="M1659.47,-160.02C1501.47,-157.09 1086.74,-146.09 742.89,-108 734.29,-107.05 725.3,-105.84 716.39,-104.51"/>
<polygon fill="black" stroke="black" points="716.81,-101.04 706.39,-102.97 715.74,-107.96 716.81,-101.04"/>
</g>
<!-- :feature:other&#45;server&#45;ip&#45;detail -->
<g id="node14" class="node">
<title>:feature:other&#45;server&#45;ip&#45;detail</title>
<ellipse fill="none" stroke="black" cx="4766.89" cy="-90" rx="148.67" ry="18"/>
<text text-anchor="middle" x="4766.89" y="-86.3" font-family="Times,serif" font-size="14.00">:feature:other&#45;server&#45;ip&#45;detail</text>
</g>
<!-- :app:shared&#45;&gt;:feature:other&#45;server&#45;ip&#45;detail -->
<g id="edge14" class="edge">
<title>:app:shared&#45;&gt;:feature:other&#45;server&#45;ip&#45;detail</title>
<path fill="none" stroke="black" d="M1790.61,-160.59C2165.22,-158.11 4034.28,-144.12 4608.89,-108 4624.02,-107.05 4639.94,-105.72 4655.61,-104.23"/>
<polygon fill="black" stroke="black" points="4656.25,-107.68 4665.86,-103.22 4655.56,-100.71 4656.25,-107.68"/>
</g>
<!-- :feature:other&#45;readout&#45;start&#45;sound&#45;detail -->
<g id="node15" class="node">
<title>:feature:other&#45;readout&#45;start&#45;sound&#45;detail</title>
<ellipse fill="none" stroke="black" cx="951.89" cy="-90" rx="199.56" ry="18"/>
<text text-anchor="middle" x="951.89" y="-86.3" font-family="Times,serif" font-size="14.00">:feature:other&#45;readout&#45;start&#45;sound&#45;detail</text>
</g>
<!-- :app:shared&#45;&gt;:feature:other&#45;readout&#45;start&#45;sound&#45;detail -->
<g id="edge15" class="edge">
<title>:app:shared&#45;&gt;:feature:other&#45;readout&#45;start&#45;sound&#45;detail</title>
<path fill="none" stroke="black" d="M1663.59,-155.45C1542.1,-144.45 1267.81,-119.61 1097.44,-104.18"/>
<polygon fill="black" stroke="black" points="1097.66,-100.69 1087.38,-103.27 1097.03,-107.66 1097.66,-100.69"/>
</g>
<!-- :feature:other&#45;volume&#45;detail -->
<g id="node16" class="node">
<title>:feature:other&#45;volume&#45;detail</title>
<ellipse fill="none" stroke="black" cx="2539.89" cy="-90" rx="141.07" ry="18"/>
<text text-anchor="middle" x="2539.89" y="-86.3" font-family="Times,serif" font-size="14.00">:feature:other&#45;volume&#45;detail</text>
</g>
<!-- :app:shared&#45;&gt;:feature:other&#45;volume&#45;detail -->
<g id="edge16" class="edge">
<title>:app:shared&#45;&gt;:feature:other&#45;volume&#45;detail</title>
<path fill="none" stroke="black" d="M1787.76,-156.69C1905.84,-148.44 2168.84,-129.33 2389.89,-108 2402.88,-106.75 2416.5,-105.34 2430,-103.88"/>
<polygon fill="black" stroke="black" points="2430.73,-107.32 2440.29,-102.76 2429.97,-100.36 2430.73,-107.32"/>
</g>
<!-- :feature:readout&#45;list -->
<g id="node17" class="node">
<title>:feature:readout&#45;list</title>
<ellipse fill="none" stroke="black" cx="1273.89" cy="-90" rx="103.98" ry="18"/>
<text text-anchor="middle" x="1273.89" y="-86.3" font-family="Times,serif" font-size="14.00">:feature:readout&#45;list</text>
</g>
<!-- :app:shared&#45;&gt;:feature:readout&#45;list -->
<g id="edge17" class="edge">
<title>:app:shared&#45;&gt;:feature:readout&#45;list</title>
<path fill="none" stroke="black" d="M1669.14,-152.35C1591.33,-140.27 1449.54,-118.26 1358.63,-104.15"/>
<polygon fill="black" stroke="black" points="1359.04,-100.67 1348.62,-102.6 1357.97,-107.59 1359.04,-100.67"/>
</g>
<!-- :feature:lmu&#45;windows&#45;readout&#45;vehicle&#45;approach&#45;detail -->
<g id="node18" class="node">
<title>:feature:lmu&#45;windows&#45;readout&#45;vehicle&#45;approach&#45;detail</title>
<ellipse fill="none" stroke="black" cx="2959.89" cy="-90" rx="260.75" ry="18"/>
<text text-anchor="middle" x="2959.89" y="-86.3" font-family="Times,serif" font-size="14.00">:feature:lmu&#45;windows&#45;readout&#45;vehicle&#45;approach&#45;detail</text>
</g>
<!-- :app:shared&#45;&gt;:feature:lmu&#45;windows&#45;readout&#45;vehicle&#45;approach&#45;detail -->
<g id="edge18" class="edge">
<title>:app:shared&#45;&gt;:feature:lmu&#45;windows&#45;readout&#45;vehicle&#45;approach&#45;detail</title>
<path fill="none" stroke="black" d="M1788.7,-157.67C1943.31,-149.57 2350.29,-128.02 2689.89,-108 2714.41,-106.55 2740.19,-104.99 2765.68,-103.42"/>
<polygon fill="black" stroke="black" points="2766.05,-106.9 2775.81,-102.79 2765.61,-99.91 2766.05,-106.9"/>
</g>
<!-- :feature:lmu&#45;windows&#45;readout&#45;flag&#45;detail -->
<g id="node19" class="node">
<title>:feature:lmu&#45;windows&#45;readout&#45;flag&#45;detail</title>
<ellipse fill="none" stroke="black" cx="3437.89" cy="-90" rx="199.56" ry="18"/>
<text text-anchor="middle" x="3437.89" y="-86.3" font-family="Times,serif" font-size="14.00">:feature:lmu&#45;windows&#45;readout&#45;flag&#45;detail</text>
</g>
<!-- :app:shared&#45;&gt;:feature:lmu&#45;windows&#45;readout&#45;flag&#45;detail -->
<g id="edge19" class="edge">
<title>:app:shared&#45;&gt;:feature:lmu&#45;windows&#45;readout&#45;flag&#45;detail</title>
<path fill="none" stroke="black" d="M1790.22,-159.78C1999.68,-155.64 2673.3,-140.53 3229.89,-108 3249.63,-106.85 3270.4,-105.41 3290.87,-103.87"/>
<polygon fill="black" stroke="black" points="3291.19,-107.36 3300.89,-103.1 3290.66,-100.38 3291.19,-107.36"/>
</g>
<!-- :feature:lmu&#45;windows&#45;readout&#45;vehicle&#45;damage&#45;detail -->
<g id="node20" class="node">
<title>:feature:lmu&#45;windows&#45;readout&#45;vehicle&#45;damage&#45;detail</title>
<ellipse fill="none" stroke="black" cx="4344.89" cy="-90" rx="254.55" ry="18"/>
<text text-anchor="middle" x="4344.89" y="-86.3" font-family="Times,serif" font-size="14.00">:feature:lmu&#45;windows&#45;readout&#45;vehicle&#45;damage&#45;detail</text>
</g>
<!-- :app:shared&#45;&gt;:feature:lmu&#45;windows&#45;readout&#45;vehicle&#45;damage&#45;detail -->
<g id="edge20" class="edge">
<title>:app:shared&#45;&gt;:feature:lmu&#45;windows&#45;readout&#45;vehicle&#45;damage&#45;detail</title>
<path fill="none" stroke="black" d="M1790.51,-160.53C2068.11,-158.32 3173.47,-147.41 4080.89,-108 4106.83,-106.87 4134.18,-105.42 4161.06,-103.83"/>
<polygon fill="black" stroke="black" points="4161.57,-107.3 4171.34,-103.21 4161.15,-100.32 4161.57,-107.3"/>
</g>
<!-- :core:data&#45;&gt;:core:domain -->
<g id="edge22" class="edge">
<title>:core:data&#45;&gt;:core:domain</title>
<path fill="none" stroke="black" d="M378.93,-149.93C371.26,-147.96 363.34,-145.92 355.89,-144 293.67,-127.99 255.26,-158.77 215.89,-108 206.09,-95.36 204.78,-83.51 215.89,-72 265.79,-20.31 1337.16,-18.29 1643.65,-18.77"/>
<polygon fill="black" stroke="black" points="1643.79,-22.27 1653.8,-18.79 1643.8,-15.27 1643.79,-22.27"/>
</g>
<!-- :app:desktopApp -->
<g id="node6" class="node">
<title>:app:desktopApp</title>
<ellipse fill="none" stroke="black" cx="362.89" cy="-234" rx="88.28" ry="18"/>
<text text-anchor="middle" x="362.89" y="-230.3" font-family="Times,serif" font-size="14.00">:app:desktopApp</text>
</g>
<!-- :app:desktopApp&#45;&gt;:server -->
<g id="edge7" class="edge">
<title>:app:desktopApp&#45;&gt;:server</title>
<path fill="none" stroke="black" d="M348.36,-216.05C340.89,-207.33 331.64,-196.54 323.44,-186.98"/>
<polygon fill="black" stroke="black" points="326.03,-184.62 316.87,-179.31 320.72,-189.18 326.03,-184.62"/>
</g>
<!-- :app:desktopApp&#45;&gt;:app:shared -->
<g id="edge4" class="edge">
<title>:app:desktopApp&#45;&gt;:app:shared</title>
<path fill="none" stroke="black" d="M447.32,-228.66C695.02,-215.93 1417.06,-178.82 1650.88,-166.8"/>
<polygon fill="black" stroke="black" points="1651.18,-170.29 1660.98,-166.28 1650.82,-163.3 1651.18,-170.29"/>
</g>
<!-- :app:desktopApp&#45;&gt;:core:data -->
<g id="edge5" class="edge">
<title>:app:desktopApp&#45;&gt;:core:data</title>
<path fill="none" stroke="black" d="M377.17,-216.05C384.35,-207.54 393.17,-197.07 401.09,-187.68"/>
<polygon fill="black" stroke="black" points="403.97,-189.69 407.74,-179.79 398.62,-185.18 403.97,-189.69"/>
</g>
<!-- :core:lmu&#45;windows&#45;data -->
<g id="node7" class="node">
<title>:core:lmu&#45;windows&#45;data</title>
<ellipse fill="none" stroke="black" cx="120.89" cy="-162" rx="120.78" ry="18"/>
<text text-anchor="middle" x="120.89" y="-158.3" font-family="Times,serif" font-size="14.00">:core:lmu&#45;windows&#45;data</text>
</g>
<!-- :app:desktopApp&#45;&gt;:core:lmu&#45;windows&#45;data -->
<g id="edge6" class="edge">
<title>:app:desktopApp&#45;&gt;:core:lmu&#45;windows&#45;data</title>
<path fill="none" stroke="black" d="M314.21,-218.92C276.59,-208.04 224.25,-192.9 183.51,-181.11"/>
<polygon fill="black" stroke="black" points="184.27,-177.69 173.69,-178.27 182.32,-184.41 184.27,-177.69"/>
</g>
<!-- :core:lmu&#45;windows&#45;data&#45;&gt;:core:domain -->
<g id="edge24" class="edge">
<title>:core:lmu&#45;windows&#45;data&#45;&gt;:core:domain</title>
<path fill="none" stroke="black" d="M129.16,-143.83C140.46,-122.58 162.9,-87.32 193.89,-72 259.27,-39.67 1336.94,-23.83 1643.9,-19.96"/>
<polygon fill="black" stroke="black" points="1644.1,-23.46 1654.05,-19.83 1644.01,-16.46 1644.1,-23.46"/>
</g>
<!-- :feature:main&#45;&gt;:core:domain -->
<g id="edge35" class="edge">
<title>:feature:main&#45;&gt;:core:domain</title>
<path fill="none" stroke="black" d="M1516.14,-76.08C1559.21,-64.3 1622.9,-46.89 1668.59,-34.39"/>
<polygon fill="black" stroke="black" points="1669.62,-37.74 1678.34,-31.73 1667.77,-30.99 1669.62,-37.74"/>
</g>
<!-- :feature:lmu&#45;windows&#45;connection&#45;&gt;:core:domain -->
<g id="edge27" class="edge">
<title>:feature:lmu&#45;windows&#45;connection&#45;&gt;:core:domain</title>
<path fill="none" stroke="black" d="M1724.89,-71.7C1724.89,-63.98 1724.89,-54.71 1724.89,-46.11"/>
<polygon fill="black" stroke="black" points="1728.39,-46.1 1724.89,-36.1 1721.39,-46.1 1728.39,-46.1"/>
</g>
<!-- :feature:server&#45;connection&#45;&gt;:core:domain -->
<g id="edge44" class="edge">
<title>:feature:server&#45;connection&#45;&gt;:core:domain</title>
<path fill="none" stroke="black" d="M2156.79,-76.81C2054.15,-63.07 1889.47,-41.03 1795.9,-28.5"/>
<polygon fill="black" stroke="black" points="1796.34,-25.03 1785.96,-27.17 1795.41,-31.97 1796.34,-25.03"/>
</g>
<!-- :feature:lmu&#45;windows&#45;narrator&#45;&gt;:core:domain -->
<g id="edge28" class="edge">
<title>:feature:lmu&#45;windows&#45;narrator&#45;&gt;:core:domain</title>
<path fill="none" stroke="black" d="M484.12,-76.93C502.69,-75.09 521.84,-73.35 539.89,-72 954.79,-40.98 1452.86,-25.91 1644.42,-20.94"/>
<polygon fill="black" stroke="black" points="1644.77,-24.43 1654.68,-20.67 1644.59,-17.43 1644.77,-24.43"/>
</g>
<!-- :core:designsystem -->
<g id="node24" class="node">
<title>:core:designsystem</title>
<ellipse fill="none" stroke="black" cx="3863.89" cy="-18" rx="100.98" ry="18"/>
<text text-anchor="middle" x="3863.89" y="-14.3" font-family="Times,serif" font-size="14.00">:core:designsystem</text>
</g>
<!-- :feature:other&#45;license&#45;detail&#45;&gt;:core:designsystem -->
<g id="edge36" class="edge">
<title>:feature:other&#45;license&#45;detail&#45;&gt;:core:designsystem</title>
<path fill="none" stroke="black" d="M4976.6,-77C4959.39,-75.13 4941.63,-73.37 4924.89,-72 4577.49,-43.53 4164.76,-28.21 3972.5,-22.14"/>
<polygon fill="black" stroke="black" points="3972.5,-18.64 3962.4,-21.82 3972.28,-25.64 3972.5,-18.64"/>
</g>
<!-- :feature:other&#45;list&#45;&gt;:core:domain -->
<g id="edge37" class="edge">
<title>:feature:other&#45;list&#45;&gt;:core:domain</title>
<path fill="none" stroke="black" d="M706.39,-77.03C718.49,-75.1 731.05,-73.31 742.89,-72 1076.32,-35.06 1476.41,-23.6 1644.41,-20.27"/>
<polygon fill="black" stroke="black" points="1644.48,-23.77 1654.41,-20.08 1644.35,-16.77 1644.48,-23.77"/>
</g>
<!-- :feature:other&#45;server&#45;ip&#45;detail&#45;&gt;:core:domain -->
<g id="edge39" class="edge">
<title>:feature:other&#45;server&#45;ip&#45;detail&#45;&gt;:core:domain</title>
<path fill="none" stroke="black" d="M4665.86,-76.78C4646.95,-74.88 4627.34,-73.16 4608.89,-72 4041.67,-36.34 2213.07,-22.25 1805.79,-19.51"/>
<polygon fill="black" stroke="black" points="1805.61,-16.01 1795.58,-19.45 1805.56,-23.01 1805.61,-16.01"/>
</g>
<!-- :feature:other&#45;server&#45;ip&#45;detail&#45;&gt;:core:designsystem -->
<g id="edge40" class="edge">
<title>:feature:other&#45;server&#45;ip&#45;detail&#45;&gt;:core:designsystem</title>
<path fill="none" stroke="black" d="M4661.98,-77.17C4644.27,-75.33 4626.06,-73.53 4608.89,-72 4380.44,-51.59 4112.02,-34.08 3967.93,-25.21"/>
<polygon fill="black" stroke="black" points="3967.96,-21.71 3957.77,-24.59 3967.53,-28.69 3967.96,-21.71"/>
</g>
<!-- :feature:other&#45;readout&#45;start&#45;sound&#45;detail&#45;&gt;:core:domain -->
<g id="edge38" class="edge">
<title>:feature:other&#45;readout&#45;start&#45;sound&#45;detail&#45;&gt;:core:domain</title>
<path fill="none" stroke="black" d="M1087.42,-76.73C1250.57,-61.95 1518.83,-37.66 1649.14,-25.86"/>
<polygon fill="black" stroke="black" points="1649.77,-29.32 1659.42,-24.93 1649.14,-22.35 1649.77,-29.32"/>
</g>
<!-- :feature:other&#45;volume&#45;detail&#45;&gt;:core:domain -->
<g id="edge41" class="edge">
<title>:feature:other&#45;volume&#45;detail&#45;&gt;:core:domain</title>
<path fill="none" stroke="black" d="M2440.29,-77.24C2423.48,-75.39 2406.19,-73.57 2389.89,-72 2177.68,-51.52 1926.83,-33.09 1802.62,-24.35"/>
<polygon fill="black" stroke="black" points="1802.67,-20.85 1792.45,-23.64 1802.18,-27.83 1802.67,-20.85"/>
</g>
<!-- :feature:other&#45;volume&#45;detail&#45;&gt;:core:designsystem -->
<g id="edge42" class="edge">
<title>:feature:other&#45;volume&#45;detail&#45;&gt;:core:designsystem</title>
<path fill="none" stroke="black" d="M2637.43,-76.98C2654.88,-75.1 2672.91,-73.34 2689.89,-72 3080.86,-41.06 3546.62,-26.7 3754.41,-21.47"/>
<polygon fill="black" stroke="black" points="3754.5,-24.97 3764.41,-21.22 3754.33,-17.97 3754.5,-24.97"/>
</g>
<!-- :feature:readout&#45;list&#45;&gt;:core:domain -->
<g id="edge43" class="edge">
<title>:feature:readout&#45;list&#45;&gt;:core:domain</title>
<path fill="none" stroke="black" d="M1348.62,-77.4C1434.17,-64.12 1573.15,-42.55 1656.12,-29.67"/>
<polygon fill="black" stroke="black" points="1656.86,-33.1 1666.2,-28.11 1655.78,-26.18 1656.86,-33.1"/>
</g>
<!-- :feature:lmu&#45;windows&#45;readout&#45;vehicle&#45;approach&#45;detail&#45;&gt;:core:domain -->
<g id="edge31" class="edge">
<title>:feature:lmu&#45;windows&#45;readout&#45;vehicle&#45;approach&#45;detail&#45;&gt;:core:domain</title>
<path fill="none" stroke="black" d="M2775.81,-77.21C2747.05,-75.43 2717.67,-73.64 2689.89,-72 2360.74,-52.6 1968.3,-31.75 1803.68,-23.11"/>
<polygon fill="black" stroke="black" points="1803.81,-19.62 1793.64,-22.59 1803.44,-26.61 1803.81,-19.62"/>
</g>
<!-- :feature:lmu&#45;windows&#45;readout&#45;vehicle&#45;approach&#45;detail&#45;&gt;:core:designsystem -->
<g id="edge32" class="edge">
<title>:feature:lmu&#45;windows&#45;readout&#45;vehicle&#45;approach&#45;detail&#45;&gt;:core:designsystem</title>
<path fill="none" stroke="black" d="M3126.22,-76.12C3312.66,-61.68 3608.97,-38.74 3763.17,-26.8"/>
<polygon fill="black" stroke="black" points="3763.88,-30.26 3773.58,-25.99 3763.33,-23.28 3763.88,-30.26"/>
</g>
<!-- :feature:lmu&#45;windows&#45;readout&#45;flag&#45;detail&#45;&gt;:core:domain -->
<g id="edge29" class="edge">
<title>:feature:lmu&#45;windows&#45;readout&#45;flag&#45;detail&#45;&gt;:core:domain</title>
<path fill="none" stroke="black" d="M3300.89,-76.9C3277.23,-75.06 3252.86,-73.34 3229.89,-72 2686.23,-40.23 2030.89,-25.07 1805.55,-20.53"/>
<polygon fill="black" stroke="black" points="1805.53,-17.02 1795.47,-20.32 1805.39,-24.02 1805.53,-17.02"/>
</g>
<!-- :feature:lmu&#45;windows&#45;readout&#45;flag&#45;detail&#45;&gt;:core:designsystem -->
<g id="edge30" class="edge">
<title>:feature:lmu&#45;windows&#45;readout&#45;flag&#45;detail&#45;&gt;:core:designsystem</title>
<path fill="none" stroke="black" d="M3529.28,-73.98C3604.46,-61.63 3710.05,-44.28 3782.39,-32.39"/>
<polygon fill="black" stroke="black" points="3783.07,-35.83 3792.37,-30.75 3781.94,-28.92 3783.07,-35.83"/>
</g>
<!-- :feature:lmu&#45;windows&#45;readout&#45;vehicle&#45;damage&#45;detail&#45;&gt;:core:domain -->
<g id="edge33" class="edge">
<title>:feature:lmu&#45;windows&#45;readout&#45;vehicle&#45;damage&#45;detail&#45;&gt;:core:domain</title>
<path fill="none" stroke="black" d="M4171.34,-76.79C4141.2,-74.96 4110.14,-73.27 4080.89,-72 3189.66,-33.3 2107.49,-22.07 1806.15,-19.6"/>
<polygon fill="black" stroke="black" points="1805.79,-16.09 1795.76,-19.51 1805.73,-23.09 1805.79,-16.09"/>
</g>
<!-- :feature:lmu&#45;windows&#45;readout&#45;vehicle&#45;damage&#45;detail&#45;&gt;:core:designsystem -->
<g id="edge34" class="edge">
<title>:feature:lmu&#45;windows&#45;readout&#45;vehicle&#45;damage&#45;detail&#45;&gt;:core:designsystem</title>
<path fill="none" stroke="black" d="M4239.03,-73.59C4152.03,-60.93 4030.34,-43.22 3949.42,-31.45"/>
<polygon fill="black" stroke="black" points="3949.66,-27.95 3939.26,-29.97 3948.66,-34.87 3949.66,-27.95"/>
</g>
<!-- :app:webApp -->
<g id="node21" class="node">
<title>:app:webApp</title>
<ellipse fill="none" stroke="black" cx="1724.89" cy="-234" rx="70.69" ry="18"/>
<text text-anchor="middle" x="1724.89" y="-230.3" font-family="Times,serif" font-size="14.00">:app:webApp</text>
</g>
<!-- :app:webApp&#45;&gt;:app:shared -->
<g id="edge21" class="edge">
<title>:app:webApp&#45;&gt;:app:shared</title>
<path fill="none" stroke="black" d="M1724.89,-215.7C1724.89,-207.98 1724.89,-198.71 1724.89,-190.11"/>
<polygon fill="black" stroke="black" points="1728.39,-190.1 1724.89,-180.1 1721.39,-190.1 1728.39,-190.1"/>
</g>
<!-- :core:gt7&#45;ps5&#45;data -->
<g id="node22" class="node">
<title>:core:gt7&#45;ps5&#45;data</title>
<ellipse fill="none" stroke="black" cx="2001.89" cy="-90" rx="94.78" ry="18"/>
<text text-anchor="middle" x="2001.89" y="-86.3" font-family="Times,serif" font-size="14.00">:core:gt7&#45;ps5&#45;data</text>
</g>
<!-- :core:gt7&#45;ps5&#45;data&#45;&gt;:core:domain -->
<g id="edge23" class="edge">
<title>:core:gt7&#45;ps5&#45;data&#45;&gt;:core:domain</title>
<path fill="none" stroke="black" d="M1947.16,-75.17C1899.81,-63.2 1831.54,-45.95 1783.18,-33.73"/>
<polygon fill="black" stroke="black" points="1784.03,-30.34 1773.48,-31.28 1782.32,-37.12 1784.03,-30.34"/>
</g>
<!-- :feature:gt7&#45;ps5&#45;readout&#45;my&#45;bestlap&#45;detail -->
<g id="node23" class="node">
<title>:feature:gt7&#45;ps5&#45;readout&#45;my&#45;bestlap&#45;detail</title>
<ellipse fill="none" stroke="black" cx="3863.89" cy="-90" rx="207.96" ry="18"/>
<text text-anchor="middle" x="3863.89" y="-86.3" font-family="Times,serif" font-size="14.00">:feature:gt7&#45;ps5&#45;readout&#45;my&#45;bestlap&#45;detail</text>
</g>
<!-- :feature:gt7&#45;ps5&#45;readout&#45;my&#45;bestlap&#45;detail&#45;&gt;:core:domain -->
<g id="edge25" class="edge">
<title>:feature:gt7&#45;ps5&#45;readout&#45;my&#45;bestlap&#45;detail&#45;&gt;:core:domain</title>
<path fill="none" stroke="black" d="M3721.84,-76.83C3696.88,-74.99 3671.13,-73.28 3646.89,-72 2933.9,-34.27 2070.61,-22.59 1805.91,-19.77"/>
<polygon fill="black" stroke="black" points="1805.66,-16.26 1795.62,-19.66 1805.59,-23.26 1805.66,-16.26"/>
</g>
<!-- :feature:gt7&#45;ps5&#45;readout&#45;my&#45;bestlap&#45;detail&#45;&gt;:core:designsystem -->
<g id="edge26" class="edge">
<title>:feature:gt7&#45;ps5&#45;readout&#45;my&#45;bestlap&#45;detail&#45;&gt;:core:designsystem</title>
<path fill="none" stroke="black" d="M3863.89,-71.7C3863.89,-63.98 3863.89,-54.71 3863.89,-46.11"/>
<polygon fill="black" stroke="black" points="3867.39,-46.1 3863.89,-36.1 3860.39,-46.1 3867.39,-46.1"/>
</g>
</g>
</svg>
