<?xml version="1.0" encoding="UTF-8" standalone="no"?>
<!DOCTYPE svg PUBLIC "-//W3C//DTD SVG 1.1//EN"
 "http://www.w3.org/Graphics/SVG/1.1/DTD/svg11.dtd">
<!-- Generated by graphviz version 2.43.0 (0)
 -->
<!-- Title: G Pages: 1 -->
<svg width="1212pt" height="260pt"
 viewBox="0.00 0.00 1211.74 260.00" xmlns="http://www.w3.org/2000/svg" xmlns:xlink="http://www.w3.org/1999/xlink">
<g id="graph0" class="graph" transform="scale(1 1) rotate(0) translate(4 256)">
<title>G</title>
<polygon fill="white" stroke="transparent" points="-4,4 -4,-256 1207.74,-256 1207.74,4 -4,4"/>
<!-- :server -->
<g id="node1" class="node">
<title>:server</title>
<ellipse fill="none" stroke="black" cx="43.55" cy="-90" rx="43.59" ry="18"/>
<text text-anchor="middle" x="43.55" y="-86.3" font-family="Times,serif" font-size="14.00">:server</text>
</g>
<!-- :core:domain -->
<g id="node2" class="node">
<title>:core:domain</title>
<ellipse fill="none" stroke="black" cx="663.55" cy="-18" rx="70.69" ry="18"/>
<text text-anchor="middle" x="663.55" y="-14.3" font-family="Times,serif" font-size="14.00">:core:domain</text>
</g>
<!-- :server&#45;&gt;:core:domain -->
<g id="edge1" class="edge">
<title>:server&#45;&gt;:core:domain</title>
<path fill="none" stroke="black" d="M76.4,-78.19C84.55,-75.84 93.3,-73.58 101.55,-72 271.24,-39.44 473.77,-26.59 583.41,-21.74"/>
<polygon fill="black" stroke="black" points="583.89,-25.23 593.73,-21.3 583.59,-18.23 583.89,-25.23"/>
</g>
<!-- :app:androidApp -->
<g id="node3" class="node">
<title>:app:androidApp</title>
<ellipse fill="none" stroke="black" cx="300.55" cy="-234" rx="87.18" ry="18"/>
<text text-anchor="middle" x="300.55" y="-230.3" font-family="Times,serif" font-size="14.00">:app:androidApp</text>
</g>
<!-- :app:androidApp&#45;&gt;:core:domain -->
<g id="edge3" class="edge">
<title>:app:androidApp&#45;&gt;:core:domain</title>
<path fill="none" stroke="black" d="M262.93,-217.69C199.6,-189.85 83.37,-128.56 134.55,-72 164.04,-39.41 442.52,-25.97 583.13,-21.23"/>
<polygon fill="black" stroke="black" points="583.54,-24.72 593.42,-20.89 583.31,-17.73 583.54,-24.72"/>
</g>
<!-- :app:shared -->
<g id="node4" class="node">
<title>:app:shared</title>
<ellipse fill="none" stroke="black" cx="616.55" cy="-162" rx="65.79" ry="18"/>
<text text-anchor="middle" x="616.55" y="-158.3" font-family="Times,serif" font-size="14.00">:app:shared</text>
</g>
<!-- :app:androidApp&#45;&gt;:app:shared -->
<g id="edge2" class="edge">
<title>:app:androidApp&#45;&gt;:app:shared</title>
<path fill="none" stroke="black" d="M357.77,-220.32C414.23,-207.82 500.15,-188.78 557.3,-176.12"/>
<polygon fill="black" stroke="black" points="558.27,-179.5 567.27,-173.92 556.75,-172.66 558.27,-179.5"/>
</g>
<!-- :feature:narrator -->
<g id="node6" class="node">
<title>:feature:narrator</title>
<ellipse fill="none" stroke="black" cx="754.55" cy="-90" rx="89.08" ry="18"/>
<text text-anchor="middle" x="754.55" y="-86.3" font-family="Times,serif" font-size="14.00">:feature:narrator</text>
</g>
<!-- :app:shared&#45;&gt;:feature:narrator -->
<g id="edge8" class="edge">
<title>:app:shared&#45;&gt;:feature:narrator</title>
<path fill="none" stroke="black" d="M646.49,-145.81C666.33,-135.75 692.59,-122.43 714.25,-111.44"/>
<polygon fill="black" stroke="black" points="715.89,-114.53 723.22,-106.89 712.72,-108.29 715.89,-114.53"/>
</g>
<!-- :feature:readout -->
<g id="node7" class="node">
<title>:feature:readout</title>
<ellipse fill="none" stroke="black" cx="947.55" cy="-90" rx="86.38" ry="18"/>
<text text-anchor="middle" x="947.55" y="-86.3" font-family="Times,serif" font-size="14.00">:feature:readout</text>
</g>
<!-- :app:shared&#45;&gt;:feature:readout -->
<g id="edge10" class="edge">
<title>:app:shared&#45;&gt;:feature:readout</title>
<path fill="none" stroke="black" d="M666.82,-150.37C723.55,-138.37 816.16,-118.79 879.37,-105.42"/>
<polygon fill="black" stroke="black" points="880.2,-108.82 889.26,-103.33 878.75,-101.97 880.2,-108.82"/>
</g>
<!-- :feature:other -->
<g id="node8" class="node">
<title>:feature:other</title>
<ellipse fill="none" stroke="black" cx="572.55" cy="-90" rx="75.29" ry="18"/>
<text text-anchor="middle" x="572.55" y="-86.3" font-family="Times,serif" font-size="14.00">:feature:other</text>
</g>
<!-- :app:shared&#45;&gt;:feature:other -->
<g id="edge9" class="edge">
<title>:app:shared&#45;&gt;:feature:other</title>
<path fill="none" stroke="black" d="M605.89,-144.05C600.78,-135.92 594.54,-126 588.85,-116.94"/>
<polygon fill="black" stroke="black" points="591.69,-114.88 583.4,-108.28 585.76,-118.6 591.69,-114.88"/>
</g>
<!-- :feature:readout&#45;vehicle&#45;approach -->
<g id="node9" class="node">
<title>:feature:readout&#45;vehicle&#45;approach</title>
<ellipse fill="none" stroke="black" cx="311.55" cy="-90" rx="167.87" ry="18"/>
<text text-anchor="middle" x="311.55" y="-86.3" font-family="Times,serif" font-size="14.00">:feature:readout&#45;vehicle&#45;approach</text>
</g>
<!-- :app:shared&#45;&gt;:feature:readout&#45;vehicle&#45;approach -->
<g id="edge11" class="edge">
<title>:app:shared&#45;&gt;:feature:readout&#45;vehicle&#45;approach</title>
<path fill="none" stroke="black" d="M567.88,-149.83C519.73,-138.78 445.27,-121.69 388.99,-108.77"/>
<polygon fill="black" stroke="black" points="389.59,-105.32 379.06,-106.49 388.02,-112.14 389.59,-105.32"/>
</g>
<!-- :app:desktopApp -->
<g id="node5" class="node">
<title>:app:desktopApp</title>
<ellipse fill="none" stroke="black" cx="832.55" cy="-234" rx="88.28" ry="18"/>
<text text-anchor="middle" x="832.55" y="-230.3" font-family="Times,serif" font-size="14.00">:app:desktopApp</text>
</g>
<!-- :app:desktopApp&#45;&gt;:core:domain -->
<g id="edge5" class="edge">
<title>:app:desktopApp&#45;&gt;:core:domain</title>
<path fill="none" stroke="black" d="M880.81,-218.85C959.03,-193.6 1099.31,-137.25 1042.55,-72 1004.76,-28.57 844.45,-19.65 744.82,-18.42"/>
<polygon fill="black" stroke="black" points="744.81,-14.92 734.78,-18.32 744.74,-21.92 744.81,-14.92"/>
</g>
<!-- :app:desktopApp&#45;&gt;:app:shared -->
<g id="edge4" class="edge">
<title>:app:desktopApp&#45;&gt;:app:shared</title>
<path fill="none" stroke="black" d="M787.53,-218.41C752.38,-207.02 703.55,-191.2 667.07,-179.37"/>
<polygon fill="black" stroke="black" points="667.72,-175.91 657.13,-176.15 665.57,-182.57 667.72,-175.91"/>
</g>
<!-- :app:desktopApp&#45;&gt;:feature:narrator -->
<g id="edge6" class="edge">
<title>:app:desktopApp&#45;&gt;:feature:narrator</title>
<path fill="none" stroke="black" d="M823.14,-215.87C809.67,-191.35 784.78,-146.03 768.97,-117.26"/>
<polygon fill="black" stroke="black" points="771.87,-115.27 763.99,-108.19 765.73,-118.64 771.87,-115.27"/>
</g>
<!-- :app:desktopApp&#45;&gt;:feature:readout -->
<g id="edge7" class="edge">
<title>:app:desktopApp&#45;&gt;:feature:readout</title>
<path fill="none" stroke="black" d="M846.19,-216.15C866.33,-191.28 904.16,-144.57 927.47,-115.79"/>
<polygon fill="black" stroke="black" points="930.35,-117.8 933.92,-107.82 924.91,-113.39 930.35,-117.8"/>
</g>
<!-- :feature:narrator&#45;&gt;:core:domain -->
<g id="edge14" class="edge">
<title>:feature:narrator&#45;&gt;:core:domain</title>
<path fill="none" stroke="black" d="M732.98,-72.41C720.99,-63.19 705.91,-51.59 692.87,-41.55"/>
<polygon fill="black" stroke="black" points="694.7,-38.55 684.64,-35.23 690.44,-44.1 694.7,-38.55"/>
</g>
<!-- :feature:readout&#45;&gt;:core:domain -->
<g id="edge16" class="edge">
<title>:feature:readout&#45;&gt;:core:domain</title>
<path fill="none" stroke="black" d="M894.13,-75.83C845.17,-63.77 772.82,-45.93 722.26,-33.47"/>
<polygon fill="black" stroke="black" points="723,-30.05 712.46,-31.06 721.33,-36.85 723,-30.05"/>
</g>
<!-- :feature:other&#45;&gt;:core:domain -->
<g id="edge15" class="edge">
<title>:feature:other&#45;&gt;:core:domain</title>
<path fill="none" stroke="black" d="M594.11,-72.41C606.1,-63.19 621.18,-51.59 634.23,-41.55"/>
<polygon fill="black" stroke="black" points="636.66,-44.1 642.45,-35.23 632.39,-38.55 636.66,-44.1"/>
</g>
<!-- :feature:readout&#45;vehicle&#45;approach&#45;&gt;:core:domain -->
<g id="edge17" class="edge">
<title>:feature:readout&#45;vehicle&#45;approach&#45;&gt;:core:domain</title>
<path fill="none" stroke="black" d="M387.49,-73.9C450.73,-61.32 539.78,-43.61 599.47,-31.74"/>
<polygon fill="black" stroke="black" points="600.4,-35.13 609.52,-29.74 599.03,-28.26 600.4,-35.13"/>
</g>
<!-- :app:webApp -->
<g id="node10" class="node">
<title>:app:webApp</title>
<ellipse fill="none" stroke="black" cx="616.55" cy="-234" rx="70.69" ry="18"/>
<text text-anchor="middle" x="616.55" y="-230.3" font-family="Times,serif" font-size="14.00">:app:webApp</text>
</g>
<!-- :app:webApp&#45;&gt;:app:shared -->
<g id="edge12" class="edge">
<title>:app:webApp&#45;&gt;:app:shared</title>
<path fill="none" stroke="black" d="M616.55,-215.7C616.55,-207.98 616.55,-198.71 616.55,-190.11"/>
<polygon fill="black" stroke="black" points="620.05,-190.1 616.55,-180.1 613.05,-190.1 620.05,-190.1"/>
</g>
<!-- :core:data -->
<g id="node11" class="node">
<title>:core:data</title>
<ellipse fill="none" stroke="black" cx="1146.55" cy="-90" rx="57.39" ry="18"/>
<text text-anchor="middle" x="1146.55" y="-86.3" font-family="Times,serif" font-size="14.00">:core:data</text>
</g>
<!-- :core:data&#45;&gt;:core:domain -->
<g id="edge13" class="edge">
<title>:core:data&#45;&gt;:core:domain</title>
<path fill="none" stroke="black" d="M1103.52,-77.92C1094.33,-75.77 1084.65,-73.67 1075.55,-72 958.77,-50.57 821.8,-34.78 738.9,-26.25"/>
<polygon fill="black" stroke="black" points="739.12,-22.75 728.82,-25.22 738.41,-29.71 739.12,-22.75"/>
</g>
</g>
</svg>
