<?xml version="1.0" encoding="UTF-8" standalone="no"?>
<!DOCTYPE svg PUBLIC "-//W3C//DTD SVG 1.1//EN"
 "http://www.w3.org/Graphics/SVG/1.1/DTD/svg11.dtd">
<!-- Generated by graphviz version 2.43.0 (0)
 -->
<!-- Title: G Pages: 1 -->
<svg width="1104pt" height="260pt"
 viewBox="0.00 0.00 1104.00 260.00" xmlns="http://www.w3.org/2000/svg" xmlns:xlink="http://www.w3.org/1999/xlink">
<g id="graph0" class="graph" transform="scale(1 1) rotate(0) translate(4 256)">
<title>G</title>
<polygon fill="white" stroke="transparent" points="-4,4 -4,-256 1100,-256 1100,4 -4,4"/>
<!-- :server -->
<g id="node1" class="node">
<title>:server</title>
<ellipse fill="none" stroke="black" cx="1052.45" cy="-90" rx="43.59" ry="18"/>
<text text-anchor="middle" x="1052.45" y="-86.3" font-family="Times,serif" font-size="14.00">:server</text>
</g>
<!-- :core:domain -->
<g id="node2" class="node">
<title>:core:domain</title>
<ellipse fill="none" stroke="black" cx="738.45" cy="-18" rx="70.69" ry="18"/>
<text text-anchor="middle" x="738.45" y="-14.3" font-family="Times,serif" font-size="14.00">:core:domain</text>
</g>
<!-- :server&#45;&gt;:core:domain -->
<g id="edge1" class="edge">
<title>:server&#45;&gt;:core:domain</title>
<path fill="none" stroke="black" d="M1018.54,-78.56C1010.66,-76.27 1002.29,-73.96 994.45,-72 930.26,-55.97 856.16,-41.01 804.25,-31.1"/>
<polygon fill="black" stroke="black" points="804.66,-27.62 794.18,-29.19 803.35,-34.49 804.66,-27.62"/>
</g>
<!-- :app:androidApp -->
<g id="node3" class="node">
<title>:app:androidApp</title>
<ellipse fill="none" stroke="black" cx="234.45" cy="-234" rx="87.18" ry="18"/>
<text text-anchor="middle" x="234.45" y="-230.3" font-family="Times,serif" font-size="14.00">:app:androidApp</text>
</g>
<!-- :app:androidApp&#45;&gt;:core:domain -->
<g id="edge3" class="edge">
<title>:app:androidApp&#45;&gt;:core:domain</title>
<path fill="none" stroke="black" d="M184.62,-219.15C102.49,-194.05 -46.45,-137.52 14.45,-72 36.14,-48.67 475.14,-29.13 658.78,-21.95"/>
<polygon fill="black" stroke="black" points="659.06,-25.44 668.91,-21.56 658.79,-18.45 659.06,-25.44"/>
</g>
<!-- :app:shared -->
<g id="node4" class="node">
<title>:app:shared</title>
<ellipse fill="none" stroke="black" cx="557.45" cy="-162" rx="65.79" ry="18"/>
<text text-anchor="middle" x="557.45" y="-158.3" font-family="Times,serif" font-size="14.00">:app:shared</text>
</g>
<!-- :app:androidApp&#45;&gt;:app:shared -->
<g id="edge2" class="edge">
<title>:app:androidApp&#45;&gt;:app:shared</title>
<path fill="none" stroke="black" d="M292.2,-220.49C350.18,-207.92 439.09,-188.65 497.75,-175.94"/>
<polygon fill="black" stroke="black" points="498.59,-179.34 507.62,-173.8 497.11,-172.5 498.59,-179.34"/>
</g>
<!-- :feature:narrator -->
<g id="node7" class="node">
<title>:feature:narrator</title>
<ellipse fill="none" stroke="black" cx="466.45" cy="-90" rx="89.08" ry="18"/>
<text text-anchor="middle" x="466.45" y="-86.3" font-family="Times,serif" font-size="14.00">:feature:narrator</text>
</g>
<!-- :app:shared&#45;&gt;:feature:narrator -->
<g id="edge7" class="edge">
<title>:app:shared&#45;&gt;:feature:narrator</title>
<path fill="none" stroke="black" d="M536.35,-144.76C524.46,-135.62 509.42,-124.05 496.34,-113.99"/>
<polygon fill="black" stroke="black" points="498.14,-110.96 488.08,-107.63 493.87,-116.5 498.14,-110.96"/>
</g>
<!-- :feature:other -->
<g id="node8" class="node">
<title>:feature:other</title>
<ellipse fill="none" stroke="black" cx="648.45" cy="-90" rx="75.29" ry="18"/>
<text text-anchor="middle" x="648.45" y="-86.3" font-family="Times,serif" font-size="14.00">:feature:other</text>
</g>
<!-- :app:shared&#45;&gt;:feature:other -->
<g id="edge8" class="edge">
<title>:app:shared&#45;&gt;:feature:other</title>
<path fill="none" stroke="black" d="M578.56,-144.76C590.53,-135.55 605.71,-123.88 618.85,-113.77"/>
<polygon fill="black" stroke="black" points="621.35,-116.26 627.15,-107.39 617.09,-110.71 621.35,-116.26"/>
</g>
<!-- :feature:readout -->
<g id="node9" class="node">
<title>:feature:readout</title>
<ellipse fill="none" stroke="black" cx="828.45" cy="-90" rx="86.38" ry="18"/>
<text text-anchor="middle" x="828.45" y="-86.3" font-family="Times,serif" font-size="14.00">:feature:readout</text>
</g>
<!-- :app:shared&#45;&gt;:feature:readout -->
<g id="edge9" class="edge">
<title>:app:shared&#45;&gt;:feature:readout</title>
<path fill="none" stroke="black" d="M603.42,-149.13C648.21,-137.56 716.61,-119.89 766.25,-107.07"/>
<polygon fill="black" stroke="black" points="767.42,-110.38 776.22,-104.49 765.67,-103.6 767.42,-110.38"/>
</g>
<!-- :feature:readout&#45;vehicle&#45;approach -->
<g id="node10" class="node">
<title>:feature:readout&#45;vehicle&#45;approach</title>
<ellipse fill="none" stroke="black" cx="191.45" cy="-90" rx="167.87" ry="18"/>
<text text-anchor="middle" x="191.45" y="-86.3" font-family="Times,serif" font-size="14.00">:feature:readout&#45;vehicle&#45;approach</text>
</g>
<!-- :app:shared&#45;&gt;:feature:readout&#45;vehicle&#45;approach -->
<g id="edge10" class="edge">
<title>:app:shared&#45;&gt;:feature:readout&#45;vehicle&#45;approach</title>
<path fill="none" stroke="black" d="M505.01,-150.97C446.33,-139.75 350.27,-121.37 279.91,-107.92"/>
<polygon fill="black" stroke="black" points="280.2,-104.41 269.72,-105.97 278.89,-111.29 280.2,-104.41"/>
</g>
<!-- :app:desktopApp -->
<g id="node5" class="node">
<title>:app:desktopApp</title>
<ellipse fill="none" stroke="black" cx="895.45" cy="-234" rx="88.28" ry="18"/>
<text text-anchor="middle" x="895.45" y="-230.3" font-family="Times,serif" font-size="14.00">:app:desktopApp</text>
</g>
<!-- :app:desktopApp&#45;&gt;:core:domain -->
<g id="edge6" class="edge">
<title>:app:desktopApp&#45;&gt;:core:domain</title>
<path fill="none" stroke="black" d="M925.78,-217.03C939.35,-208.12 953.96,-195.64 961.45,-180 982.59,-135.91 975.5,-106.1 940.45,-72 908.29,-40.7 859.99,-27.28 818.69,-21.76"/>
<polygon fill="black" stroke="black" points="818.98,-18.27 808.63,-20.55 818.14,-25.22 818.98,-18.27"/>
</g>
<!-- :app:desktopApp&#45;&gt;:app:shared -->
<g id="edge4" class="edge">
<title>:app:desktopApp&#45;&gt;:app:shared</title>
<path fill="none" stroke="black" d="M835.8,-220.65C774.59,-207.97 679.82,-188.34 618.2,-175.58"/>
<polygon fill="black" stroke="black" points="618.74,-172.12 608.23,-173.52 617.32,-178.97 618.74,-172.12"/>
</g>
<!-- :core:data -->
<g id="node6" class="node">
<title>:core:data</title>
<ellipse fill="none" stroke="black" cx="895.45" cy="-162" rx="57.39" ry="18"/>
<text text-anchor="middle" x="895.45" y="-158.3" font-family="Times,serif" font-size="14.00">:core:data</text>
</g>
<!-- :app:desktopApp&#45;&gt;:core:data -->
<g id="edge5" class="edge">
<title>:app:desktopApp&#45;&gt;:core:data</title>
<path fill="none" stroke="black" d="M895.45,-215.7C895.45,-207.98 895.45,-198.71 895.45,-190.11"/>
<polygon fill="black" stroke="black" points="898.95,-190.1 895.45,-180.1 891.95,-190.1 898.95,-190.1"/>
</g>
<!-- :core:data&#45;&gt;:core:domain -->
<g id="edge12" class="edge">
<title>:core:data&#45;&gt;:core:domain</title>
<path fill="none" stroke="black" d="M908.91,-144.38C922.66,-125.27 939.83,-93.73 923.45,-72 909.21,-53.11 854.12,-38.9 807.73,-29.97"/>
<polygon fill="black" stroke="black" points="808.15,-26.49 797.67,-28.09 806.86,-33.37 808.15,-26.49"/>
</g>
<!-- :feature:narrator&#45;&gt;:core:domain -->
<g id="edge13" class="edge">
<title>:feature:narrator&#45;&gt;:core:domain</title>
<path fill="none" stroke="black" d="M519.22,-75.42C565.52,-63.51 632.73,-46.21 680.51,-33.91"/>
<polygon fill="black" stroke="black" points="681.58,-37.25 690.39,-31.37 679.83,-30.47 681.58,-37.25"/>
</g>
<!-- :feature:other&#45;&gt;:core:domain -->
<g id="edge14" class="edge">
<title>:feature:other&#45;&gt;:core:domain</title>
<path fill="none" stroke="black" d="M669.78,-72.41C681.64,-63.19 696.55,-51.59 709.45,-41.55"/>
<polygon fill="black" stroke="black" points="711.84,-44.13 717.59,-35.23 707.55,-38.61 711.84,-44.13"/>
</g>
<!-- :feature:readout&#45;&gt;:core:domain -->
<g id="edge15" class="edge">
<title>:feature:readout&#45;&gt;:core:domain</title>
<path fill="none" stroke="black" d="M807.12,-72.41C795.27,-63.19 780.35,-51.59 767.45,-41.55"/>
<polygon fill="black" stroke="black" points="769.36,-38.61 759.32,-35.23 765.06,-44.13 769.36,-38.61"/>
</g>
<!-- :feature:readout&#45;vehicle&#45;approach&#45;&gt;:core:domain -->
<g id="edge16" class="edge">
<title>:feature:readout&#45;vehicle&#45;approach&#45;&gt;:core:domain</title>
<path fill="none" stroke="black" d="M294.66,-75.79C403.24,-61.9 571.31,-40.39 666.41,-28.22"/>
<polygon fill="black" stroke="black" points="667.04,-31.67 676.51,-26.93 666.15,-24.72 667.04,-31.67"/>
</g>
<!-- :core:designsystem -->
<g id="node12" class="node">
<title>:core:designsystem</title>
<ellipse fill="none" stroke="black" cx="191.45" cy="-18" rx="100.98" ry="18"/>
<text text-anchor="middle" x="191.45" y="-14.3" font-family="Times,serif" font-size="14.00">:core:designsystem</text>
</g>
<!-- :feature:readout&#45;vehicle&#45;approach&#45;&gt;:core:designsystem -->
<g id="edge17" class="edge">
<title>:feature:readout&#45;vehicle&#45;approach&#45;&gt;:core:designsystem</title>
<path fill="none" stroke="black" d="M191.45,-71.7C191.45,-63.98 191.45,-54.71 191.45,-46.11"/>
<polygon fill="black" stroke="black" points="194.95,-46.1 191.45,-36.1 187.95,-46.1 194.95,-46.1"/>
</g>
<!-- :app:webApp -->
<g id="node11" class="node">
<title>:app:webApp</title>
<ellipse fill="none" stroke="black" cx="557.45" cy="-234" rx="70.69" ry="18"/>
<text text-anchor="middle" x="557.45" y="-230.3" font-family="Times,serif" font-size="14.00">:app:webApp</text>
</g>
<!-- :app:webApp&#45;&gt;:app:shared -->
<g id="edge11" class="edge">
<title>:app:webApp&#45;&gt;:app:shared</title>
<path fill="none" stroke="black" d="M557.45,-215.7C557.45,-207.98 557.45,-198.71 557.45,-190.11"/>
<polygon fill="black" stroke="black" points="560.95,-190.1 557.45,-180.1 553.95,-190.1 560.95,-190.1"/>
</g>
</g>
</svg>
