<?xml version="1.0" encoding="UTF-8" standalone="no"?>
<!DOCTYPE svg PUBLIC "-//W3C//DTD SVG 1.1//EN"
 "http://www.w3.org/Graphics/SVG/1.1/DTD/svg11.dtd">
<!-- Generated by graphviz version 2.43.0 (0)
 -->
<!-- Title: G Pages: 1 -->
<svg width="2297pt" height="260pt"
 viewBox="0.00 0.00 2296.75 260.00" xmlns="http://www.w3.org/2000/svg" xmlns:xlink="http://www.w3.org/1999/xlink">
<g id="graph0" class="graph" transform="scale(1 1) rotate(0) translate(4 256)">
<title>G</title>
<polygon fill="white" stroke="transparent" points="-4,4 -4,-256 2292.75,-256 2292.75,4 -4,4"/>
<!-- :server -->
<g id="node1" class="node">
<title>:server</title>
<ellipse fill="none" stroke="black" cx="2205.84" cy="-90" rx="43.59" ry="18"/>
<text text-anchor="middle" x="2205.84" y="-86.3" font-family="Times,serif" font-size="14.00">:server</text>
</g>
<!-- :core:domain -->
<g id="node2" class="node">
<title>:core:domain</title>
<ellipse fill="none" stroke="black" cx="1644.84" cy="-18" rx="70.69" ry="18"/>
<text text-anchor="middle" x="1644.84" y="-14.3" font-family="Times,serif" font-size="14.00">:core:domain</text>
</g>
<!-- :server&#45;&gt;:core:domain -->
<g id="edge1" class="edge">
<title>:server&#45;&gt;:core:domain</title>
<path fill="none" stroke="black" d="M2173.89,-77.58C2167.02,-75.46 2159.74,-73.45 2152.84,-72 2003.5,-40.61 1825.38,-27.47 1724.66,-22.23"/>
<polygon fill="black" stroke="black" points="1724.73,-18.73 1714.56,-21.72 1724.37,-25.72 1724.73,-18.73"/>
</g>
<!-- :app:androidApp -->
<g id="node3" class="node">
<title>:app:androidApp</title>
<ellipse fill="none" stroke="black" cx="1769.84" cy="-234" rx="87.18" ry="18"/>
<text text-anchor="middle" x="1769.84" y="-230.3" font-family="Times,serif" font-size="14.00">:app:androidApp</text>
</g>
<!-- :app:shared -->
<g id="node4" class="node">
<title>:app:shared</title>
<ellipse fill="none" stroke="black" cx="1538.84" cy="-162" rx="65.79" ry="18"/>
<text text-anchor="middle" x="1538.84" y="-158.3" font-family="Times,serif" font-size="14.00">:app:shared</text>
</g>
<!-- :app:androidApp&#45;&gt;:app:shared -->
<g id="edge2" class="edge">
<title>:app:androidApp&#45;&gt;:app:shared</title>
<path fill="none" stroke="black" d="M1722.81,-218.75C1684.51,-207.14 1630.47,-190.77 1590.87,-178.77"/>
<polygon fill="black" stroke="black" points="1591.72,-175.37 1581.13,-175.82 1589.69,-182.07 1591.72,-175.37"/>
</g>
<!-- :core:data -->
<g id="node5" class="node">
<title>:core:data</title>
<ellipse fill="none" stroke="black" cx="2176.84" cy="-162" rx="57.39" ry="18"/>
<text text-anchor="middle" x="2176.84" y="-158.3" font-family="Times,serif" font-size="14.00">:core:data</text>
</g>
<!-- :app:androidApp&#45;&gt;:core:data -->
<g id="edge3" class="edge">
<title>:app:androidApp&#45;&gt;:core:data</title>
<path fill="none" stroke="black" d="M1834.78,-221.83C1912.69,-208.43 2042.22,-186.15 2117.54,-173.2"/>
<polygon fill="black" stroke="black" points="2118.53,-176.58 2127.79,-171.44 2117.34,-169.68 2118.53,-176.58"/>
</g>
<!-- :feature:lmu&#45;connection -->
<g id="node7" class="node">
<title>:feature:lmu&#45;connection</title>
<ellipse fill="none" stroke="black" cx="1204.84" cy="-90" rx="120.78" ry="18"/>
<text text-anchor="middle" x="1204.84" y="-86.3" font-family="Times,serif" font-size="14.00">:feature:lmu&#45;connection</text>
</g>
<!-- :app:shared&#45;&gt;:feature:lmu&#45;connection -->
<g id="edge7" class="edge">
<title>:app:shared&#45;&gt;:feature:lmu&#45;connection</title>
<path fill="none" stroke="black" d="M1488.47,-150.44C1433.64,-138.95 1345.29,-120.44 1281.76,-107.12"/>
<polygon fill="black" stroke="black" points="1282.29,-103.66 1271.79,-105.03 1280.86,-110.51 1282.29,-103.66"/>
</g>
<!-- :feature:narrator -->
<g id="node8" class="node">
<title>:feature:narrator</title>
<ellipse fill="none" stroke="black" cx="1432.84" cy="-90" rx="89.08" ry="18"/>
<text text-anchor="middle" x="1432.84" y="-86.3" font-family="Times,serif" font-size="14.00">:feature:narrator</text>
</g>
<!-- :app:shared&#45;&gt;:feature:narrator -->
<g id="edge8" class="edge">
<title>:app:shared&#45;&gt;:feature:narrator</title>
<path fill="none" stroke="black" d="M1514.78,-145.12C1500.35,-135.59 1481.79,-123.33 1465.99,-112.89"/>
<polygon fill="black" stroke="black" points="1467.8,-109.9 1457.53,-107.31 1463.95,-115.74 1467.8,-109.9"/>
</g>
<!-- :feature:other&#45;detail -->
<g id="node9" class="node">
<title>:feature:other&#45;detail</title>
<ellipse fill="none" stroke="black" cx="1644.84" cy="-90" rx="104.78" ry="18"/>
<text text-anchor="middle" x="1644.84" y="-86.3" font-family="Times,serif" font-size="14.00">:feature:other&#45;detail</text>
</g>
<!-- :app:shared&#45;&gt;:feature:other&#45;detail -->
<g id="edge9" class="edge">
<title>:app:shared&#45;&gt;:feature:other&#45;detail</title>
<path fill="none" stroke="black" d="M1562.89,-145.12C1577.22,-135.65 1595.62,-123.5 1611.35,-113.11"/>
<polygon fill="black" stroke="black" points="1613.36,-115.98 1619.77,-107.55 1609.5,-110.14 1613.36,-115.98"/>
</g>
<!-- :feature:other&#45;list -->
<g id="node10" class="node">
<title>:feature:other&#45;list</title>
<ellipse fill="none" stroke="black" cx="1860.84" cy="-90" rx="92.88" ry="18"/>
<text text-anchor="middle" x="1860.84" y="-86.3" font-family="Times,serif" font-size="14.00">:feature:other&#45;list</text>
</g>
<!-- :app:shared&#45;&gt;:feature:other&#45;list -->
<g id="edge10" class="edge">
<title>:app:shared&#45;&gt;:feature:other&#45;list</title>
<path fill="none" stroke="black" d="M1588.8,-150.14C1643.18,-138.32 1730.52,-119.33 1791.52,-106.07"/>
<polygon fill="black" stroke="black" points="1792.43,-109.45 1801.45,-103.91 1790.94,-102.61 1792.43,-109.45"/>
</g>
<!-- :feature:readout -->
<g id="node11" class="node">
<title>:feature:readout</title>
<ellipse fill="none" stroke="black" cx="2057.84" cy="-90" rx="86.38" ry="18"/>
<text text-anchor="middle" x="2057.84" y="-86.3" font-family="Times,serif" font-size="14.00">:feature:readout</text>
</g>
<!-- :app:shared&#45;&gt;:feature:readout -->
<g id="edge11" class="edge">
<title>:app:shared&#45;&gt;:feature:readout</title>
<path fill="none" stroke="black" d="M1598.66,-154.53C1680.89,-145.4 1833.39,-127.66 1962.84,-108 1970.27,-106.87 1978.01,-105.62 1985.73,-104.31"/>
<polygon fill="black" stroke="black" points="1986.56,-107.72 1995.83,-102.58 1985.38,-100.82 1986.56,-107.72"/>
</g>
<!-- :feature:readout&#45;vehicle&#45;approach -->
<g id="node12" class="node">
<title>:feature:readout&#45;vehicle&#45;approach</title>
<ellipse fill="none" stroke="black" cx="897.84" cy="-90" rx="167.87" ry="18"/>
<text text-anchor="middle" x="897.84" y="-86.3" font-family="Times,serif" font-size="14.00">:feature:readout&#45;vehicle&#45;approach</text>
</g>
<!-- :app:shared&#45;&gt;:feature:readout&#45;vehicle&#45;approach -->
<g id="edge12" class="edge">
<title>:app:shared&#45;&gt;:feature:readout&#45;vehicle&#45;approach</title>
<path fill="none" stroke="black" d="M1479.11,-154.48C1375.03,-143.11 1158.45,-119.46 1021.04,-104.45"/>
<polygon fill="black" stroke="black" points="1021.2,-100.95 1010.88,-103.34 1020.44,-107.91 1021.2,-100.95"/>
</g>
<!-- :feature:readout&#45;flag&#45;detail -->
<g id="node13" class="node">
<title>:feature:readout&#45;flag&#45;detail</title>
<ellipse fill="none" stroke="black" cx="135.84" cy="-90" rx="135.68" ry="18"/>
<text text-anchor="middle" x="135.84" y="-86.3" font-family="Times,serif" font-size="14.00">:feature:readout&#45;flag&#45;detail</text>
</g>
<!-- :app:shared&#45;&gt;:feature:readout&#45;flag&#45;detail -->
<g id="edge13" class="edge">
<title>:app:shared&#45;&gt;:feature:readout&#45;flag&#45;detail</title>
<path fill="none" stroke="black" d="M1473.59,-159.97C1287.2,-156.65 736.54,-144.26 280.84,-108 267.52,-106.94 253.54,-105.6 239.74,-104.13"/>
<polygon fill="black" stroke="black" points="240.05,-100.64 229.73,-103.04 239.29,-107.6 240.05,-100.64"/>
</g>
<!-- :feature:lmu&#45;readout&#45;vehicle&#45;damage&#45;detail -->
<g id="node14" class="node">
<title>:feature:lmu&#45;readout&#45;vehicle&#45;damage&#45;detail</title>
<ellipse fill="none" stroke="black" cx="500.84" cy="-90" rx="211.46" ry="18"/>
<text text-anchor="middle" x="500.84" y="-86.3" font-family="Times,serif" font-size="14.00">:feature:lmu&#45;readout&#45;vehicle&#45;damage&#45;detail</text>
</g>
<!-- :app:shared&#45;&gt;:feature:lmu&#45;readout&#45;vehicle&#45;damage&#45;detail -->
<g id="edge14" class="edge">
<title>:app:shared&#45;&gt;:feature:lmu&#45;readout&#45;vehicle&#45;damage&#45;detail</title>
<path fill="none" stroke="black" d="M1475.44,-157.16C1337.95,-148.78 1002.08,-127.98 720.84,-108 701.13,-106.6 680.44,-105.08 659.96,-103.53"/>
<polygon fill="black" stroke="black" points="660.16,-100.04 649.93,-102.77 659.64,-107.02 660.16,-100.04"/>
</g>
<!-- :core:data&#45;&gt;:core:domain -->
<g id="edge16" class="edge">
<title>:core:data&#45;&gt;:core:domain</title>
<path fill="none" stroke="black" d="M2212.17,-147.78C2229.55,-139.26 2248.87,-126.31 2258.84,-108 2266.49,-93.95 2269.65,-83.79 2258.84,-72 2223.49,-33.47 1884.19,-22.88 1725.68,-20.03"/>
<polygon fill="black" stroke="black" points="1725.57,-16.52 1715.51,-19.85 1725.45,-23.52 1725.57,-16.52"/>
</g>
<!-- :app:desktopApp -->
<g id="node6" class="node">
<title>:app:desktopApp</title>
<ellipse fill="none" stroke="black" cx="2176.84" cy="-234" rx="88.28" ry="18"/>
<text text-anchor="middle" x="2176.84" y="-230.3" font-family="Times,serif" font-size="14.00">:app:desktopApp</text>
</g>
<!-- :app:desktopApp&#45;&gt;:core:domain -->
<g id="edge6" class="edge">
<title>:app:desktopApp&#45;&gt;:core:domain</title>
<path fill="none" stroke="black" d="M2200.3,-216.54C2241.47,-185.75 2318.48,-118.38 2275.84,-72 2239.32,-32.28 1887.74,-22.31 1725.79,-19.82"/>
<polygon fill="black" stroke="black" points="1725.45,-16.32 1715.4,-19.67 1725.35,-23.32 1725.45,-16.32"/>
</g>
<!-- :app:desktopApp&#45;&gt;:app:shared -->
<g id="edge4" class="edge">
<title>:app:desktopApp&#45;&gt;:app:shared</title>
<path fill="none" stroke="black" d="M2101.15,-224.7C1976.54,-211.02 1730,-183.97 1609.07,-170.71"/>
<polygon fill="black" stroke="black" points="1609.14,-167.19 1598.82,-169.58 1608.38,-174.15 1609.14,-167.19"/>
</g>
<!-- :app:desktopApp&#45;&gt;:core:data -->
<g id="edge5" class="edge">
<title>:app:desktopApp&#45;&gt;:core:data</title>
<path fill="none" stroke="black" d="M2176.84,-215.7C2176.84,-207.98 2176.84,-198.71 2176.84,-190.11"/>
<polygon fill="black" stroke="black" points="2180.34,-190.1 2176.84,-180.1 2173.34,-190.1 2180.34,-190.1"/>
</g>
<!-- :feature:lmu&#45;connection&#45;&gt;:core:domain -->
<g id="edge17" class="edge">
<title>:feature:lmu&#45;connection&#45;&gt;:core:domain</title>
<path fill="none" stroke="black" d="M1284.26,-76.36C1367.53,-63.12 1497.04,-42.51 1576.07,-29.94"/>
<polygon fill="black" stroke="black" points="1577.08,-33.32 1586.4,-28.3 1575.98,-26.41 1577.08,-33.32"/>
</g>
<!-- :feature:narrator&#45;&gt;:core:domain -->
<g id="edge20" class="edge">
<title>:feature:narrator&#45;&gt;:core:domain</title>
<path fill="none" stroke="black" d="M1477.28,-74.33C1511.24,-63.11 1558.1,-47.64 1593.63,-35.91"/>
<polygon fill="black" stroke="black" points="1594.94,-39.16 1603.33,-32.7 1592.74,-32.52 1594.94,-39.16"/>
</g>
<!-- :feature:other&#45;detail&#45;&gt;:core:domain -->
<g id="edge21" class="edge">
<title>:feature:other&#45;detail&#45;&gt;:core:domain</title>
<path fill="none" stroke="black" d="M1644.84,-71.7C1644.84,-63.98 1644.84,-54.71 1644.84,-46.11"/>
<polygon fill="black" stroke="black" points="1648.34,-46.1 1644.84,-36.1 1641.34,-46.1 1648.34,-46.1"/>
</g>
<!-- :feature:other&#45;list&#45;&gt;:core:domain -->
<g id="edge22" class="edge">
<title>:feature:other&#45;list&#45;&gt;:core:domain</title>
<path fill="none" stroke="black" d="M1815.29,-74.24C1780.56,-62.98 1732.7,-47.47 1696.53,-35.75"/>
<polygon fill="black" stroke="black" points="1697.25,-32.31 1686.66,-32.55 1695.09,-38.97 1697.25,-32.31"/>
</g>
<!-- :feature:readout&#45;&gt;:core:domain -->
<g id="edge23" class="edge">
<title>:feature:readout&#45;&gt;:core:domain</title>
<path fill="none" stroke="black" d="M1994.75,-77.6C1984.1,-75.71 1973.16,-73.78 1962.84,-72 1876.72,-57.12 1777.35,-40.67 1712.93,-30.11"/>
<polygon fill="black" stroke="black" points="1713.34,-26.63 1702.9,-28.46 1712.2,-33.54 1713.34,-26.63"/>
</g>
<!-- :feature:readout&#45;vehicle&#45;approach&#45;&gt;:core:domain -->
<g id="edge26" class="edge">
<title>:feature:readout&#45;vehicle&#45;approach&#45;&gt;:core:domain</title>
<path fill="none" stroke="black" d="M1018.28,-77.38C1037.2,-75.57 1056.55,-73.73 1074.84,-72 1251.92,-55.26 1460,-36.02 1569.18,-25.96"/>
<polygon fill="black" stroke="black" points="1569.8,-29.42 1579.44,-25.02 1569.16,-22.45 1569.8,-29.42"/>
</g>
<!-- :core:designsystem -->
<g id="node16" class="node">
<title>:core:designsystem</title>
<ellipse fill="none" stroke="black" cx="500.84" cy="-18" rx="100.98" ry="18"/>
<text text-anchor="middle" x="500.84" y="-14.3" font-family="Times,serif" font-size="14.00">:core:designsystem</text>
</g>
<!-- :feature:readout&#45;vehicle&#45;approach&#45;&gt;:core:designsystem -->
<g id="edge27" class="edge">
<title>:feature:readout&#45;vehicle&#45;approach&#45;&gt;:core:designsystem</title>
<path fill="none" stroke="black" d="M814.61,-74.33C745.52,-62.14 647.9,-44.93 579.96,-32.95"/>
<polygon fill="black" stroke="black" points="580.2,-29.44 569.74,-31.15 578.98,-36.33 580.2,-29.44"/>
</g>
<!-- :feature:readout&#45;flag&#45;detail&#45;&gt;:core:domain -->
<g id="edge24" class="edge">
<title>:feature:readout&#45;flag&#45;detail&#45;&gt;:core:domain</title>
<path fill="none" stroke="black" d="M229.72,-76.91C246.71,-75.03 264.29,-73.29 280.84,-72 766.97,-34.12 1352.79,-22.89 1564.01,-19.95"/>
<polygon fill="black" stroke="black" points="1564.14,-23.44 1574.09,-19.81 1564.04,-16.44 1564.14,-23.44"/>
</g>
<!-- :feature:readout&#45;flag&#45;detail&#45;&gt;:core:designsystem -->
<g id="edge25" class="edge">
<title>:feature:readout&#45;flag&#45;detail&#45;&gt;:core:designsystem</title>
<path fill="none" stroke="black" d="M209.7,-74.83C272.28,-62.83 361.66,-45.69 424.84,-33.57"/>
<polygon fill="black" stroke="black" points="425.59,-37 434.75,-31.67 424.27,-30.12 425.59,-37"/>
</g>
<!-- :feature:lmu&#45;readout&#45;vehicle&#45;damage&#45;detail&#45;&gt;:core:domain -->
<g id="edge18" class="edge">
<title>:feature:lmu&#45;readout&#45;vehicle&#45;damage&#45;detail&#45;&gt;:core:domain</title>
<path fill="none" stroke="black" d="M649.03,-77.15C673.03,-75.34 697.62,-73.56 720.84,-72 1033.6,-50.95 1406.29,-31.2 1565.93,-23"/>
<polygon fill="black" stroke="black" points="1566.32,-26.48 1576.13,-22.47 1565.96,-19.49 1566.32,-26.48"/>
</g>
<!-- :feature:lmu&#45;readout&#45;vehicle&#45;damage&#45;detail&#45;&gt;:core:designsystem -->
<g id="edge19" class="edge">
<title>:feature:lmu&#45;readout&#45;vehicle&#45;damage&#45;detail&#45;&gt;:core:designsystem</title>
<path fill="none" stroke="black" d="M500.84,-71.7C500.84,-63.98 500.84,-54.71 500.84,-46.11"/>
<polygon fill="black" stroke="black" points="504.34,-46.1 500.84,-36.1 497.34,-46.1 504.34,-46.1"/>
</g>
<!-- :app:webApp -->
<g id="node15" class="node">
<title>:app:webApp</title>
<ellipse fill="none" stroke="black" cx="1538.84" cy="-234" rx="70.69" ry="18"/>
<text text-anchor="middle" x="1538.84" y="-230.3" font-family="Times,serif" font-size="14.00">:app:webApp</text>
</g>
<!-- :app:webApp&#45;&gt;:app:shared -->
<g id="edge15" class="edge">
<title>:app:webApp&#45;&gt;:app:shared</title>
<path fill="none" stroke="black" d="M1538.84,-215.7C1538.84,-207.98 1538.84,-198.71 1538.84,-190.11"/>
<polygon fill="black" stroke="black" points="1542.34,-190.1 1538.84,-180.1 1535.34,-190.1 1542.34,-190.1"/>
</g>
</g>
</svg>
