<?xml version="1.0" encoding="UTF-8" standalone="no"?>
<!DOCTYPE svg PUBLIC "-//W3C//DTD SVG 1.1//EN"
 "http://www.w3.org/Graphics/SVG/1.1/DTD/svg11.dtd">
<!-- Generated by graphviz version 2.43.0 (0)
 -->
<!-- Title: G Pages: 1 -->
<svg width="2878pt" height="260pt"
 viewBox="0.00 0.00 2878.09 260.00" xmlns="http://www.w3.org/2000/svg" xmlns:xlink="http://www.w3.org/1999/xlink">
<g id="graph0" class="graph" transform="scale(1 1) rotate(0) translate(4 256)">
<title>G</title>
<polygon fill="white" stroke="transparent" points="-4,4 -4,-256 2874.09,-256 2874.09,4 -4,4"/>
<!-- :server -->
<g id="node1" class="node">
<title>:server</title>
<ellipse fill="none" stroke="black" cx="802.35" cy="-90" rx="43.59" ry="18"/>
<text text-anchor="middle" x="802.35" y="-86.3" font-family="Times,serif" font-size="14.00">:server</text>
</g>
<!-- :core:domain -->
<g id="node2" class="node">
<title>:core:domain</title>
<ellipse fill="none" stroke="black" cx="802.35" cy="-18" rx="70.69" ry="18"/>
<text text-anchor="middle" x="802.35" y="-14.3" font-family="Times,serif" font-size="14.00">:core:domain</text>
</g>
<!-- :server&#45;&gt;:core:domain -->
<g id="edge1" class="edge">
<title>:server&#45;&gt;:core:domain</title>
<path fill="none" stroke="black" d="M802.35,-71.7C802.35,-63.98 802.35,-54.71 802.35,-46.11"/>
<polygon fill="black" stroke="black" points="805.85,-46.1 802.35,-36.1 798.85,-46.1 805.85,-46.1"/>
</g>
<!-- :app:androidApp -->
<g id="node3" class="node">
<title>:app:androidApp</title>
<ellipse fill="none" stroke="black" cx="514.35" cy="-234" rx="87.18" ry="18"/>
<text text-anchor="middle" x="514.35" y="-230.3" font-family="Times,serif" font-size="14.00">:app:androidApp</text>
</g>
<!-- :app:shared -->
<g id="node4" class="node">
<title>:app:shared</title>
<ellipse fill="none" stroke="black" cx="956.35" cy="-162" rx="65.79" ry="18"/>
<text text-anchor="middle" x="956.35" y="-158.3" font-family="Times,serif" font-size="14.00">:app:shared</text>
</g>
<!-- :app:androidApp&#45;&gt;:app:shared -->
<g id="edge2" class="edge">
<title>:app:androidApp&#45;&gt;:app:shared</title>
<path fill="none" stroke="black" d="M581.48,-222.37C665.29,-209.1 807.7,-186.54 890.78,-173.39"/>
<polygon fill="black" stroke="black" points="891.52,-176.81 900.85,-171.79 890.43,-169.9 891.52,-176.81"/>
</g>
<!-- :core:data -->
<g id="node5" class="node">
<title>:core:data</title>
<ellipse fill="none" stroke="black" cx="187.35" cy="-162" rx="57.39" ry="18"/>
<text text-anchor="middle" x="187.35" y="-158.3" font-family="Times,serif" font-size="14.00">:core:data</text>
</g>
<!-- :app:androidApp&#45;&gt;:core:data -->
<g id="edge3" class="edge">
<title>:app:androidApp&#45;&gt;:core:data</title>
<path fill="none" stroke="black" d="M456.27,-220.57C396.07,-207.68 302.62,-187.68 243.24,-174.96"/>
<polygon fill="black" stroke="black" points="243.8,-171.51 233.29,-172.83 242.34,-178.35 243.8,-171.51"/>
</g>
<!-- :feature:lmu&#45;connection -->
<g id="node7" class="node">
<title>:feature:lmu&#45;connection</title>
<ellipse fill="none" stroke="black" cx="382.35" cy="-90" rx="120.78" ry="18"/>
<text text-anchor="middle" x="382.35" y="-86.3" font-family="Times,serif" font-size="14.00">:feature:lmu&#45;connection</text>
</g>
<!-- :app:shared&#45;&gt;:feature:lmu&#45;connection -->
<g id="edge7" class="edge">
<title>:app:shared&#45;&gt;:feature:lmu&#45;connection</title>
<path fill="none" stroke="black" d="M897.08,-154.14C811.92,-144.23 650.04,-125.22 512.35,-108 501.72,-106.67 490.6,-105.25 479.53,-103.83"/>
<polygon fill="black" stroke="black" points="479.76,-100.33 469.39,-102.52 478.86,-107.27 479.76,-100.33"/>
</g>
<!-- :feature:lmu&#45;narrator -->
<g id="node8" class="node">
<title>:feature:lmu&#45;narrator</title>
<ellipse fill="none" stroke="black" cx="631.35" cy="-90" rx="109.68" ry="18"/>
<text text-anchor="middle" x="631.35" y="-86.3" font-family="Times,serif" font-size="14.00">:feature:lmu&#45;narrator</text>
</g>
<!-- :app:shared&#45;&gt;:feature:lmu&#45;narrator -->
<g id="edge8" class="edge">
<title>:app:shared&#45;&gt;:feature:lmu&#45;narrator</title>
<path fill="none" stroke="black" d="M906.28,-150.22C852.48,-138.63 766.42,-120.09 704.92,-106.84"/>
<polygon fill="black" stroke="black" points="705.4,-103.37 694.88,-104.68 703.92,-110.21 705.4,-103.37"/>
</g>
<!-- :feature:other&#45;license&#45;detail -->
<g id="node9" class="node">
<title>:feature:other&#45;license&#45;detail</title>
<ellipse fill="none" stroke="black" cx="2730.35" cy="-90" rx="139.98" ry="18"/>
<text text-anchor="middle" x="2730.35" y="-86.3" font-family="Times,serif" font-size="14.00">:feature:other&#45;license&#45;detail</text>
</g>
<!-- :app:shared&#45;&gt;:feature:other&#45;license&#45;detail -->
<g id="edge9" class="edge">
<title>:app:shared&#45;&gt;:feature:other&#45;license&#45;detail</title>
<path fill="none" stroke="black" d="M1021.9,-160.79C1242.34,-159.65 1977.09,-152.55 2582.35,-108 2595.95,-107 2610.22,-105.69 2624.31,-104.24"/>
<polygon fill="black" stroke="black" points="2624.95,-107.69 2634.53,-103.16 2624.21,-100.73 2624.95,-107.69"/>
</g>
<!-- :feature:other&#45;list -->
<g id="node10" class="node">
<title>:feature:other&#45;list</title>
<ellipse fill="none" stroke="black" cx="956.35" cy="-90" rx="92.88" ry="18"/>
<text text-anchor="middle" x="956.35" y="-86.3" font-family="Times,serif" font-size="14.00">:feature:other&#45;list</text>
</g>
<!-- :app:shared&#45;&gt;:feature:other&#45;list -->
<g id="edge10" class="edge">
<title>:app:shared&#45;&gt;:feature:other&#45;list</title>
<path fill="none" stroke="black" d="M956.35,-143.7C956.35,-135.98 956.35,-126.71 956.35,-118.11"/>
<polygon fill="black" stroke="black" points="959.85,-118.1 956.35,-108.1 952.85,-118.1 959.85,-118.1"/>
</g>
<!-- :feature:other&#45;volume&#45;detail -->
<g id="node11" class="node">
<title>:feature:other&#45;volume&#45;detail</title>
<ellipse fill="none" stroke="black" cx="1978.35" cy="-90" rx="141.07" ry="18"/>
<text text-anchor="middle" x="1978.35" y="-86.3" font-family="Times,serif" font-size="14.00">:feature:other&#45;volume&#45;detail</text>
</g>
<!-- :app:shared&#45;&gt;:feature:other&#45;volume&#45;detail -->
<g id="edge11" class="edge">
<title>:app:shared&#45;&gt;:feature:other&#45;volume&#45;detail</title>
<path fill="none" stroke="black" d="M1020.71,-158.24C1165.27,-151.78 1526.72,-134.24 1828.35,-108 1841.69,-106.84 1855.68,-105.46 1869.54,-104.01"/>
<polygon fill="black" stroke="black" points="1870.01,-107.48 1879.58,-102.93 1869.27,-100.52 1870.01,-107.48"/>
</g>
<!-- :feature:readout&#45;list -->
<g id="node12" class="node">
<title>:feature:readout&#45;list</title>
<ellipse fill="none" stroke="black" cx="139.35" cy="-90" rx="103.98" ry="18"/>
<text text-anchor="middle" x="139.35" y="-86.3" font-family="Times,serif" font-size="14.00">:feature:readout&#45;list</text>
</g>
<!-- :app:shared&#45;&gt;:feature:readout&#45;list -->
<g id="edge12" class="edge">
<title>:app:shared&#45;&gt;:feature:readout&#45;list</title>
<path fill="none" stroke="black" d="M892.14,-157.76C768.18,-151.16 487.42,-134.49 252.35,-108 242.67,-106.91 232.54,-105.61 222.49,-104.22"/>
<polygon fill="black" stroke="black" points="222.88,-100.74 212.49,-102.81 221.91,-107.68 222.88,-100.74"/>
</g>
<!-- :feature:lmu&#45;readout&#45;vehicle&#45;approach&#45;detail -->
<g id="node13" class="node">
<title>:feature:lmu&#45;readout&#45;vehicle&#45;approach&#45;detail</title>
<ellipse fill="none" stroke="black" cx="2355.35" cy="-90" rx="217.96" ry="18"/>
<text text-anchor="middle" x="2355.35" y="-86.3" font-family="Times,serif" font-size="14.00">:feature:lmu&#45;readout&#45;vehicle&#45;approach&#45;detail</text>
</g>
<!-- :app:shared&#45;&gt;:feature:lmu&#45;readout&#45;vehicle&#45;approach&#45;detail -->
<g id="edge13" class="edge">
<title>:app:shared&#45;&gt;:feature:lmu&#45;readout&#45;vehicle&#45;approach&#45;detail</title>
<path fill="none" stroke="black" d="M1021.18,-158.74C1198.51,-152.42 1706.47,-133.33 2128.35,-108 2149.56,-106.73 2171.88,-105.24 2193.89,-103.68"/>
<polygon fill="black" stroke="black" points="2194.26,-107.16 2203.98,-102.96 2193.76,-100.18 2194.26,-107.16"/>
</g>
<!-- :feature:lmu&#45;readout&#45;flag&#45;detail -->
<g id="node14" class="node">
<title>:feature:lmu&#45;readout&#45;flag&#45;detail</title>
<ellipse fill="none" stroke="black" cx="1223.35" cy="-90" rx="155.97" ry="18"/>
<text text-anchor="middle" x="1223.35" y="-86.3" font-family="Times,serif" font-size="14.00">:feature:lmu&#45;readout&#45;flag&#45;detail</text>
</g>
<!-- :app:shared&#45;&gt;:feature:lmu&#45;readout&#45;flag&#45;detail -->
<g id="edge14" class="edge">
<title>:app:shared&#45;&gt;:feature:lmu&#45;readout&#45;flag&#45;detail</title>
<path fill="none" stroke="black" d="M1001.95,-149.05C1043.61,-138.12 1105.84,-121.81 1153.72,-109.26"/>
<polygon fill="black" stroke="black" points="1154.62,-112.64 1163.4,-106.72 1152.84,-105.87 1154.62,-112.64"/>
</g>
<!-- :feature:lmu&#45;readout&#45;vehicle&#45;damage&#45;detail -->
<g id="node15" class="node">
<title>:feature:lmu&#45;readout&#45;vehicle&#45;damage&#45;detail</title>
<ellipse fill="none" stroke="black" cx="1608.35" cy="-90" rx="211.46" ry="18"/>
<text text-anchor="middle" x="1608.35" y="-86.3" font-family="Times,serif" font-size="14.00">:feature:lmu&#45;readout&#45;vehicle&#45;damage&#45;detail</text>
</g>
<!-- :app:shared&#45;&gt;:feature:lmu&#45;readout&#45;vehicle&#45;damage&#45;detail -->
<g id="edge15" class="edge">
<title>:app:shared&#45;&gt;:feature:lmu&#45;readout&#45;vehicle&#45;damage&#45;detail</title>
<path fill="none" stroke="black" d="M1016.23,-154.57C1119.22,-143.51 1332.34,-120.63 1472.81,-105.55"/>
<polygon fill="black" stroke="black" points="1473.23,-109.03 1482.8,-104.48 1472.48,-102.07 1473.23,-109.03"/>
</g>
<!-- :core:data&#45;&gt;:core:domain -->
<g id="edge17" class="edge">
<title>:core:data&#45;&gt;:core:domain</title>
<path fill="none" stroke="black" d="M138.77,-152.39C78.47,-139.74 -12.02,-113.08 26.35,-72 73.02,-22.04 531.51,-17.96 721.02,-18.43"/>
<polygon fill="black" stroke="black" points="721.2,-21.93 731.21,-18.46 721.22,-14.93 721.2,-21.93"/>
</g>
<!-- :app:desktopApp -->
<g id="node6" class="node">
<title>:app:desktopApp</title>
<ellipse fill="none" stroke="black" cx="187.35" cy="-234" rx="88.28" ry="18"/>
<text text-anchor="middle" x="187.35" y="-230.3" font-family="Times,serif" font-size="14.00">:app:desktopApp</text>
</g>
<!-- :app:desktopApp&#45;&gt;:core:domain -->
<g id="edge6" class="edge">
<title>:app:desktopApp&#45;&gt;:core:domain</title>
<path fill="none" stroke="black" d="M147.97,-217.8C81.66,-190.14 -40.06,-129.12 13.35,-72 60.97,-21.08 529.71,-17.6 721.35,-18.33"/>
<polygon fill="black" stroke="black" points="721.35,-21.83 731.36,-18.38 721.38,-14.83 721.35,-21.83"/>
</g>
<!-- :app:desktopApp&#45;&gt;:app:shared -->
<g id="edge4" class="edge">
<title>:app:desktopApp&#45;&gt;:app:shared</title>
<path fill="none" stroke="black" d="M266.39,-225.81C416.58,-212.13 741,-182.6 885,-169.49"/>
<polygon fill="black" stroke="black" points="885.41,-172.97 895.06,-168.58 884.78,-166 885.41,-172.97"/>
</g>
<!-- :app:desktopApp&#45;&gt;:core:data -->
<g id="edge5" class="edge">
<title>:app:desktopApp&#45;&gt;:core:data</title>
<path fill="none" stroke="black" d="M187.35,-215.7C187.35,-207.98 187.35,-198.71 187.35,-190.11"/>
<polygon fill="black" stroke="black" points="190.85,-190.1 187.35,-180.1 183.85,-190.1 190.85,-190.1"/>
</g>
<!-- :feature:lmu&#45;connection&#45;&gt;:core:domain -->
<g id="edge18" class="edge">
<title>:feature:lmu&#45;connection&#45;&gt;:core:domain</title>
<path fill="none" stroke="black" d="M459.88,-76.08C538.65,-62.95 659.47,-42.81 734.55,-30.3"/>
<polygon fill="black" stroke="black" points="735.55,-33.68 744.84,-28.59 734.4,-26.78 735.55,-33.68"/>
</g>
<!-- :feature:lmu&#45;narrator&#45;&gt;:core:domain -->
<g id="edge19" class="edge">
<title>:feature:lmu&#45;narrator&#45;&gt;:core:domain</title>
<path fill="none" stroke="black" d="M670.15,-73.12C696.07,-62.51 730.24,-48.52 757.35,-37.42"/>
<polygon fill="black" stroke="black" points="758.69,-40.66 766.62,-33.63 756.04,-34.18 758.69,-40.66"/>
</g>
<!-- :core:designsystem -->
<g id="node17" class="node">
<title>:core:designsystem</title>
<ellipse fill="none" stroke="black" cx="1978.35" cy="-18" rx="100.98" ry="18"/>
<text text-anchor="middle" x="1978.35" y="-14.3" font-family="Times,serif" font-size="14.00">:core:designsystem</text>
</g>
<!-- :feature:other&#45;license&#45;detail&#45;&gt;:core:designsystem -->
<g id="edge26" class="edge">
<title>:feature:other&#45;license&#45;detail&#45;&gt;:core:designsystem</title>
<path fill="none" stroke="black" d="M2631.28,-77.25C2614.94,-75.42 2598.18,-73.6 2582.35,-72 2405.29,-54.07 2198.65,-36.7 2078.73,-26.98"/>
<polygon fill="black" stroke="black" points="2078.72,-23.47 2068.47,-26.15 2078.16,-30.44 2078.72,-23.47"/>
</g>
<!-- :feature:other&#45;list&#45;&gt;:core:domain -->
<g id="edge27" class="edge">
<title>:feature:other&#45;list&#45;&gt;:core:domain</title>
<path fill="none" stroke="black" d="M921.79,-73.29C899.01,-62.94 869.02,-49.3 844.79,-38.29"/>
<polygon fill="black" stroke="black" points="846.03,-35.01 835.48,-34.06 843.13,-41.38 846.03,-35.01"/>
</g>
<!-- :feature:other&#45;volume&#45;detail&#45;&gt;:core:domain -->
<g id="edge28" class="edge">
<title>:feature:other&#45;volume&#45;detail&#45;&gt;:core:domain</title>
<path fill="none" stroke="black" d="M1880.4,-77.02C1863.08,-75.16 1845.2,-73.39 1828.35,-72 1476.51,-43 1055.4,-27.16 882.46,-21.47"/>
<polygon fill="black" stroke="black" points="882.53,-17.97 872.42,-21.14 882.3,-24.96 882.53,-17.97"/>
</g>
<!-- :feature:other&#45;volume&#45;detail&#45;&gt;:core:designsystem -->
<g id="edge29" class="edge">
<title>:feature:other&#45;volume&#45;detail&#45;&gt;:core:designsystem</title>
<path fill="none" stroke="black" d="M1978.35,-71.7C1978.35,-63.98 1978.35,-54.71 1978.35,-46.11"/>
<polygon fill="black" stroke="black" points="1981.85,-46.1 1978.35,-36.1 1974.85,-46.1 1981.85,-46.1"/>
</g>
<!-- :feature:readout&#45;list&#45;&gt;:core:domain -->
<g id="edge30" class="edge">
<title>:feature:readout&#45;list&#45;&gt;:core:domain</title>
<path fill="none" stroke="black" d="M213.43,-77.28C226.39,-75.39 239.75,-73.55 252.35,-72 420.91,-51.21 619.37,-33.83 725.76,-25.08"/>
<polygon fill="black" stroke="black" points="726.09,-28.57 735.77,-24.26 725.51,-21.59 726.09,-28.57"/>
</g>
<!-- :feature:lmu&#45;readout&#45;vehicle&#45;approach&#45;detail&#45;&gt;:core:domain -->
<g id="edge22" class="edge">
<title>:feature:lmu&#45;readout&#45;vehicle&#45;approach&#45;detail&#45;&gt;:core:domain</title>
<path fill="none" stroke="black" d="M2204.6,-76.97C2179.16,-75.15 2153.01,-73.42 2128.35,-72 1656.45,-44.91 1089.29,-27.2 882.63,-21.23"/>
<polygon fill="black" stroke="black" points="882.57,-17.73 872.48,-20.94 882.37,-24.73 882.57,-17.73"/>
</g>
<!-- :feature:lmu&#45;readout&#45;vehicle&#45;approach&#45;detail&#45;&gt;:core:designsystem -->
<g id="edge23" class="edge">
<title>:feature:lmu&#45;readout&#45;vehicle&#45;approach&#45;detail&#45;&gt;:core:designsystem</title>
<path fill="none" stroke="black" d="M2271.21,-73.38C2206.64,-61.39 2118.19,-44.97 2055.44,-33.31"/>
<polygon fill="black" stroke="black" points="2056.07,-29.87 2045.6,-31.49 2054.79,-36.75 2056.07,-29.87"/>
</g>
<!-- :feature:lmu&#45;readout&#45;flag&#45;detail&#45;&gt;:core:domain -->
<g id="edge20" class="edge">
<title>:feature:lmu&#45;readout&#45;flag&#45;detail&#45;&gt;:core:domain</title>
<path fill="none" stroke="black" d="M1138.41,-74.88C1059.27,-61.72 942.8,-42.35 869.84,-30.22"/>
<polygon fill="black" stroke="black" points="870.28,-26.75 859.84,-28.56 869.13,-33.65 870.28,-26.75"/>
</g>
<!-- :feature:lmu&#45;readout&#45;flag&#45;detail&#45;&gt;:core:designsystem -->
<g id="edge21" class="edge">
<title>:feature:lmu&#45;readout&#45;flag&#45;detail&#45;&gt;:core:designsystem</title>
<path fill="none" stroke="black" d="M1334.72,-77.33C1352.65,-75.5 1371.01,-73.67 1388.35,-72 1560.93,-55.36 1762.08,-37.65 1879.32,-27.5"/>
<polygon fill="black" stroke="black" points="1879.7,-30.98 1889.36,-26.63 1879.09,-24 1879.7,-30.98"/>
</g>
<!-- :feature:lmu&#45;readout&#45;vehicle&#45;damage&#45;detail&#45;&gt;:core:domain -->
<g id="edge24" class="edge">
<title>:feature:lmu&#45;readout&#45;vehicle&#45;damage&#45;detail&#45;&gt;:core:domain</title>
<path fill="none" stroke="black" d="M1466.11,-76.65C1294.66,-61.76 1012.88,-37.28 878.39,-25.6"/>
<polygon fill="black" stroke="black" points="878.44,-22.1 868.18,-24.72 877.84,-29.07 878.44,-22.1"/>
</g>
<!-- :feature:lmu&#45;readout&#45;vehicle&#45;damage&#45;detail&#45;&gt;:core:designsystem -->
<g id="edge25" class="edge">
<title>:feature:lmu&#45;readout&#45;vehicle&#45;damage&#45;detail&#45;&gt;:core:designsystem</title>
<path fill="none" stroke="black" d="M1690.93,-73.38C1753.97,-61.45 1840.2,-45.14 1901.72,-33.5"/>
<polygon fill="black" stroke="black" points="1902.58,-36.9 1911.76,-31.6 1901.28,-30.02 1902.58,-36.9"/>
</g>
<!-- :app:webApp -->
<g id="node16" class="node">
<title>:app:webApp</title>
<ellipse fill="none" stroke="black" cx="956.35" cy="-234" rx="70.69" ry="18"/>
<text text-anchor="middle" x="956.35" y="-230.3" font-family="Times,serif" font-size="14.00">:app:webApp</text>
</g>
<!-- :app:webApp&#45;&gt;:app:shared -->
<g id="edge16" class="edge">
<title>:app:webApp&#45;&gt;:app:shared</title>
<path fill="none" stroke="black" d="M956.35,-215.7C956.35,-207.98 956.35,-198.71 956.35,-190.11"/>
<polygon fill="black" stroke="black" points="959.85,-190.1 956.35,-180.1 952.85,-190.1 959.85,-190.1"/>
</g>
</g>
</svg>
