<?xml version="1.0" encoding="UTF-8" standalone="no"?>
<!DOCTYPE svg PUBLIC "-//W3C//DTD SVG 1.1//EN"
 "http://www.w3.org/Graphics/SVG/1.1/DTD/svg11.dtd">
<!-- Generated by graphviz version 2.43.0 (0)
 -->
<!-- Title: G Pages: 1 -->
<svg width="4790pt" height="260pt"
 viewBox="0.00 0.00 4789.63 260.00" xmlns="http://www.w3.org/2000/svg" xmlns:xlink="http://www.w3.org/1999/xlink">
<g id="graph0" class="graph" transform="scale(1 1) rotate(0) translate(4 256)">
<title>G</title>
<polygon fill="white" stroke="transparent" points="-4,4 -4,-256 4785.63,-256 4785.63,4 -4,4"/>
<!-- :server -->
<g id="node1" class="node">
<title>:server</title>
<ellipse fill="none" stroke="black" cx="302.89" cy="-162" rx="43.59" ry="18"/>
<text text-anchor="middle" x="302.89" y="-158.3" font-family="Times,serif" font-size="14.00">:server</text>
</g>
<!-- :core:domain -->
<g id="node2" class="node">
<title>:core:domain</title>
<ellipse fill="none" stroke="black" cx="1666.89" cy="-18" rx="70.69" ry="18"/>
<text text-anchor="middle" x="1666.89" y="-14.3" font-family="Times,serif" font-size="14.00">:core:domain</text>
</g>
<!-- :server&#45;&gt;:core:domain -->
<g id="edge1" class="edge">
<title>:server&#45;&gt;:core:domain</title>
<path fill="none" stroke="black" d="M273,-148.88C247.09,-137.7 212.59,-120.92 204.89,-108 196.7,-94.26 193.78,-83.52 204.89,-72 253.08,-22.03 1285.53,-18.76 1585.72,-18.86"/>
<polygon fill="black" stroke="black" points="1586.08,-22.36 1596.08,-18.87 1586.08,-15.36 1586.08,-22.36"/>
</g>
<!-- :app:androidApp -->
<g id="node3" class="node">
<title>:app:androidApp</title>
<ellipse fill="none" stroke="black" cx="1099.89" cy="-234" rx="87.18" ry="18"/>
<text text-anchor="middle" x="1099.89" y="-230.3" font-family="Times,serif" font-size="14.00">:app:androidApp</text>
</g>
<!-- :app:shared -->
<g id="node4" class="node">
<title>:app:shared</title>
<ellipse fill="none" stroke="black" cx="1818.89" cy="-162" rx="65.79" ry="18"/>
<text text-anchor="middle" x="1818.89" y="-158.3" font-family="Times,serif" font-size="14.00">:app:shared</text>
</g>
<!-- :app:androidApp&#45;&gt;:app:shared -->
<g id="edge2" class="edge">
<title>:app:androidApp&#45;&gt;:app:shared</title>
<path fill="none" stroke="black" d="M1176.83,-225.51C1317,-211.86 1611.99,-183.14 1747.75,-169.93"/>
<polygon fill="black" stroke="black" points="1748.42,-173.38 1758.03,-168.92 1747.74,-166.41 1748.42,-173.38"/>
</g>
<!-- :core:data -->
<g id="node5" class="node">
<title>:core:data</title>
<ellipse fill="none" stroke="black" cx="421.89" cy="-162" rx="57.39" ry="18"/>
<text text-anchor="middle" x="421.89" y="-158.3" font-family="Times,serif" font-size="14.00">:core:data</text>
</g>
<!-- :app:androidApp&#45;&gt;:core:data -->
<g id="edge3" class="edge">
<title>:app:androidApp&#45;&gt;:core:data</title>
<path fill="none" stroke="black" d="M1023.76,-225.14C889,-211.23 610.89,-182.51 485.58,-169.58"/>
<polygon fill="black" stroke="black" points="485.68,-166.07 475.38,-168.52 484.96,-173.03 485.68,-166.07"/>
</g>
<!-- :feature:main -->
<g id="node8" class="node">
<title>:feature:main</title>
<ellipse fill="none" stroke="black" cx="941.89" cy="-90" rx="73.39" ry="18"/>
<text text-anchor="middle" x="941.89" y="-86.3" font-family="Times,serif" font-size="14.00">:feature:main</text>
</g>
<!-- :app:shared&#45;&gt;:feature:main -->
<g id="edge8" class="edge">
<title>:app:shared&#45;&gt;:feature:main</title>
<path fill="none" stroke="black" d="M1753.75,-159.63C1617.75,-156.13 1293.92,-144.36 1024.89,-108 1018.13,-107.09 1011.1,-105.95 1004.11,-104.69"/>
<polygon fill="black" stroke="black" points="1004.42,-101.19 993.95,-102.78 1003.13,-108.07 1004.42,-101.19"/>
</g>
<!-- :feature:lmu&#45;windows&#45;connection -->
<g id="node9" class="node">
<title>:feature:lmu&#45;windows&#45;connection</title>
<ellipse fill="none" stroke="black" cx="1197.89" cy="-90" rx="164.37" ry="18"/>
<text text-anchor="middle" x="1197.89" y="-86.3" font-family="Times,serif" font-size="14.00">:feature:lmu&#45;windows&#45;connection</text>
</g>
<!-- :app:shared&#45;&gt;:feature:lmu&#45;windows&#45;connection -->
<g id="edge9" class="edge">
<title>:app:shared&#45;&gt;:feature:lmu&#45;windows&#45;connection</title>
<path fill="none" stroke="black" d="M1759.35,-154.29C1658.08,-142.87 1450.46,-119.47 1318.04,-104.54"/>
<polygon fill="black" stroke="black" points="1318.18,-101.04 1307.85,-103.4 1317.4,-107.99 1318.18,-101.04"/>
</g>
<!-- :feature:server&#45;connection -->
<g id="node10" class="node">
<title>:feature:server&#45;connection</title>
<ellipse fill="none" stroke="black" cx="1513.89" cy="-90" rx="133.48" ry="18"/>
<text text-anchor="middle" x="1513.89" y="-86.3" font-family="Times,serif" font-size="14.00">:feature:server&#45;connection</text>
</g>
<!-- :app:shared&#45;&gt;:feature:server&#45;connection -->
<g id="edge10" class="edge">
<title>:app:shared&#45;&gt;:feature:server&#45;connection</title>
<path fill="none" stroke="black" d="M1770.22,-149.83C1721.2,-138.58 1644.91,-121.07 1588.29,-108.08"/>
<polygon fill="black" stroke="black" points="1588.84,-104.61 1578.31,-105.79 1587.28,-111.43 1588.84,-104.61"/>
</g>
<!-- :feature:lmu&#45;windows&#45;narrator -->
<g id="node11" class="node">
<title>:feature:lmu&#45;windows&#45;narrator</title>
<ellipse fill="none" stroke="black" cx="1818.89" cy="-90" rx="153.27" ry="18"/>
<text text-anchor="middle" x="1818.89" y="-86.3" font-family="Times,serif" font-size="14.00">:feature:lmu&#45;windows&#45;narrator</text>
</g>
<!-- :app:shared&#45;&gt;:feature:lmu&#45;windows&#45;narrator -->
<g id="edge11" class="edge">
<title>:app:shared&#45;&gt;:feature:lmu&#45;windows&#45;narrator</title>
<path fill="none" stroke="black" d="M1818.89,-143.7C1818.89,-135.98 1818.89,-126.71 1818.89,-118.11"/>
<polygon fill="black" stroke="black" points="1822.39,-118.1 1818.89,-108.1 1815.39,-118.1 1822.39,-118.1"/>
</g>
<!-- :feature:other&#45;license&#45;detail -->
<g id="node12" class="node">
<title>:feature:other&#45;license&#45;detail</title>
<ellipse fill="none" stroke="black" cx="4641.89" cy="-90" rx="139.98" ry="18"/>
<text text-anchor="middle" x="4641.89" y="-86.3" font-family="Times,serif" font-size="14.00">:feature:other&#45;license&#45;detail</text>
</g>
<!-- :app:shared&#45;&gt;:feature:other&#45;license&#45;detail -->
<g id="edge12" class="edge">
<title>:app:shared&#45;&gt;:feature:other&#45;license&#45;detail</title>
<path fill="none" stroke="black" d="M1884.44,-160.54C2242.23,-157.88 3962.56,-143.43 4492.89,-108 4507.03,-107.06 4521.9,-105.74 4536.54,-104.26"/>
<polygon fill="black" stroke="black" points="4537.04,-107.73 4546.63,-103.21 4536.32,-100.77 4537.04,-107.73"/>
</g>
<!-- :feature:other&#45;list -->
<g id="node13" class="node">
<title>:feature:other&#45;list</title>
<ellipse fill="none" stroke="black" cx="2082.89" cy="-90" rx="92.88" ry="18"/>
<text text-anchor="middle" x="2082.89" y="-86.3" font-family="Times,serif" font-size="14.00">:feature:other&#45;list</text>
</g>
<!-- :app:shared&#45;&gt;:feature:other&#45;list -->
<g id="edge13" class="edge">
<title>:app:shared&#45;&gt;:feature:other&#45;list</title>
<path fill="none" stroke="black" d="M1864.27,-148.97C1907.35,-137.54 1972.47,-120.28 2020.44,-107.56"/>
<polygon fill="black" stroke="black" points="2021.63,-110.86 2030.4,-104.92 2019.83,-104.1 2021.63,-110.86"/>
</g>
<!-- :feature:other&#45;server&#45;ip&#45;detail -->
<g id="node14" class="node">
<title>:feature:other&#45;server&#45;ip&#45;detail</title>
<ellipse fill="none" stroke="black" cx="4034.89" cy="-90" rx="148.67" ry="18"/>
<text text-anchor="middle" x="4034.89" y="-86.3" font-family="Times,serif" font-size="14.00">:feature:other&#45;server&#45;ip&#45;detail</text>
</g>
<!-- :app:shared&#45;&gt;:feature:other&#45;server&#45;ip&#45;detail -->
<g id="edge14" class="edge">
<title>:app:shared&#45;&gt;:feature:other&#45;server&#45;ip&#45;detail</title>
<path fill="none" stroke="black" d="M1884.73,-161.25C2140.69,-161.82 3094.11,-160.1 3876.89,-108 3891.79,-107.01 3907.46,-105.68 3922.9,-104.19"/>
<polygon fill="black" stroke="black" points="3923.4,-107.66 3933,-103.19 3922.71,-100.69 3923.4,-107.66"/>
</g>
<!-- :feature:other&#45;readout&#45;start&#45;sound&#45;detail -->
<g id="node15" class="node">
<title>:feature:other&#45;readout&#45;start&#45;sound&#45;detail</title>
<ellipse fill="none" stroke="black" cx="424.89" cy="-90" rx="199.56" ry="18"/>
<text text-anchor="middle" x="424.89" y="-86.3" font-family="Times,serif" font-size="14.00">:feature:other&#45;readout&#45;start&#45;sound&#45;detail</text>
</g>
<!-- :app:shared&#45;&gt;:feature:other&#45;readout&#45;start&#45;sound&#45;detail -->
<g id="edge15" class="edge">
<title>:app:shared&#45;&gt;:feature:other&#45;readout&#45;start&#45;sound&#45;detail</title>
<path fill="none" stroke="black" d="M1753.98,-158.93C1575.25,-153.05 1060.87,-134.9 633.89,-108 614.39,-106.77 593.87,-105.31 573.63,-103.77"/>
<polygon fill="black" stroke="black" points="573.64,-100.26 563.4,-102.98 573.1,-107.24 573.64,-100.26"/>
</g>
<!-- :feature:other&#45;volume&#45;detail -->
<g id="node16" class="node">
<title>:feature:other&#45;volume&#45;detail</title>
<ellipse fill="none" stroke="black" cx="4342.89" cy="-90" rx="141.07" ry="18"/>
<text text-anchor="middle" x="4342.89" y="-86.3" font-family="Times,serif" font-size="14.00">:feature:other&#45;volume&#45;detail</text>
</g>
<!-- :app:shared&#45;&gt;:feature:other&#45;volume&#45;detail -->
<g id="edge16" class="edge">
<title>:app:shared&#45;&gt;:feature:other&#45;volume&#45;detail</title>
<path fill="none" stroke="black" d="M1884.31,-160.34C2217.2,-156.87 3725.53,-139.64 4192.89,-108 4207.02,-107.04 4221.86,-105.73 4236.5,-104.26"/>
<polygon fill="black" stroke="black" points="4236.99,-107.73 4246.58,-103.22 4236.27,-100.77 4236.99,-107.73"/>
</g>
<!-- :feature:readout&#45;list -->
<g id="node17" class="node">
<title>:feature:readout&#45;list</title>
<ellipse fill="none" stroke="black" cx="746.89" cy="-90" rx="103.98" ry="18"/>
<text text-anchor="middle" x="746.89" y="-86.3" font-family="Times,serif" font-size="14.00">:feature:readout&#45;list</text>
</g>
<!-- :app:shared&#45;&gt;:feature:readout&#45;list -->
<g id="edge17" class="edge">
<title>:app:shared&#45;&gt;:feature:readout&#45;list</title>
<path fill="none" stroke="black" d="M1753.61,-159.51C1598.34,-155.51 1194.96,-142.39 859.89,-108 850.05,-106.99 839.75,-105.73 829.55,-104.35"/>
<polygon fill="black" stroke="black" points="829.79,-100.85 819.4,-102.94 828.82,-107.78 829.79,-100.85"/>
</g>
<!-- :feature:lmu&#45;windows&#45;readout&#45;vehicle&#45;approach&#45;detail -->
<g id="node18" class="node">
<title>:feature:lmu&#45;windows&#45;readout&#45;vehicle&#45;approach&#45;detail</title>
<ellipse fill="none" stroke="black" cx="2662.89" cy="-90" rx="260.75" ry="18"/>
<text text-anchor="middle" x="2662.89" y="-86.3" font-family="Times,serif" font-size="14.00">:feature:lmu&#45;windows&#45;readout&#45;vehicle&#45;approach&#45;detail</text>
</g>
<!-- :app:shared&#45;&gt;:feature:lmu&#45;windows&#45;readout&#45;vehicle&#45;approach&#45;detail -->
<g id="edge18" class="edge">
<title>:app:shared&#45;&gt;:feature:lmu&#45;windows&#45;readout&#45;vehicle&#45;approach&#45;detail</title>
<path fill="none" stroke="black" d="M1880.95,-155.85C2008.48,-145.28 2303.89,-120.78 2492.88,-105.1"/>
<polygon fill="black" stroke="black" points="2493.25,-108.58 2502.93,-104.27 2492.67,-101.61 2493.25,-108.58"/>
</g>
<!-- :feature:lmu&#45;windows&#45;readout&#45;flag&#45;detail -->
<g id="node19" class="node">
<title>:feature:lmu&#45;windows&#45;readout&#45;flag&#45;detail</title>
<ellipse fill="none" stroke="black" cx="3140.89" cy="-90" rx="199.56" ry="18"/>
<text text-anchor="middle" x="3140.89" y="-86.3" font-family="Times,serif" font-size="14.00">:feature:lmu&#45;windows&#45;readout&#45;flag&#45;detail</text>
</g>
<!-- :app:shared&#45;&gt;:feature:lmu&#45;windows&#45;readout&#45;flag&#45;detail -->
<g id="edge19" class="edge">
<title>:app:shared&#45;&gt;:feature:lmu&#45;windows&#45;readout&#45;flag&#45;detail</title>
<path fill="none" stroke="black" d="M1883.6,-158.69C2054.91,-152.41 2534.38,-133.76 2932.89,-108 2952.14,-106.76 2972.39,-105.29 2992.38,-103.76"/>
<polygon fill="black" stroke="black" points="2992.78,-107.24 3002.48,-102.97 2992.24,-100.26 2992.78,-107.24"/>
</g>
<!-- :feature:lmu&#45;windows&#45;readout&#45;vehicle&#45;damage&#45;detail -->
<g id="node20" class="node">
<title>:feature:lmu&#45;windows&#45;readout&#45;vehicle&#45;damage&#45;detail</title>
<ellipse fill="none" stroke="black" cx="3612.89" cy="-90" rx="254.55" ry="18"/>
<text text-anchor="middle" x="3612.89" y="-86.3" font-family="Times,serif" font-size="14.00">:feature:lmu&#45;windows&#45;readout&#45;vehicle&#45;damage&#45;detail</text>
</g>
<!-- :app:shared&#45;&gt;:feature:lmu&#45;windows&#45;readout&#45;vehicle&#45;damage&#45;detail -->
<g id="edge20" class="edge">
<title>:app:shared&#45;&gt;:feature:lmu&#45;windows&#45;readout&#45;vehicle&#45;damage&#45;detail</title>
<path fill="none" stroke="black" d="M1884.2,-159.44C2095.93,-154.23 2782.43,-136.16 3349.89,-108 3374.9,-106.76 3401.24,-105.27 3427.2,-103.7"/>
<polygon fill="black" stroke="black" points="3427.74,-107.17 3437.51,-103.07 3427.31,-100.19 3427.74,-107.17"/>
</g>
<!-- :core:data&#45;&gt;:core:domain -->
<g id="edge22" class="edge">
<title>:core:data&#45;&gt;:core:domain</title>
<path fill="none" stroke="black" d="M378.93,-149.93C371.26,-147.96 363.34,-145.92 355.89,-144 293.67,-127.99 255.26,-158.77 215.89,-108 206.09,-95.36 204.78,-83.52 215.89,-72 263.66,-22.46 1286.09,-18.87 1585.31,-18.89"/>
<polygon fill="black" stroke="black" points="1585.65,-22.39 1595.65,-18.89 1585.65,-15.39 1585.65,-22.39"/>
</g>
<!-- :app:desktopApp -->
<g id="node6" class="node">
<title>:app:desktopApp</title>
<ellipse fill="none" stroke="black" cx="362.89" cy="-234" rx="88.28" ry="18"/>
<text text-anchor="middle" x="362.89" y="-230.3" font-family="Times,serif" font-size="14.00">:app:desktopApp</text>
</g>
<!-- :app:desktopApp&#45;&gt;:server -->
<g id="edge7" class="edge">
<title>:app:desktopApp&#45;&gt;:server</title>
<path fill="none" stroke="black" d="M348.36,-216.05C340.89,-207.33 331.64,-196.54 323.44,-186.98"/>
<polygon fill="black" stroke="black" points="326.03,-184.62 316.87,-179.31 320.72,-189.18 326.03,-184.62"/>
</g>
<!-- :app:desktopApp&#45;&gt;:app:shared -->
<g id="edge4" class="edge">
<title>:app:desktopApp&#45;&gt;:app:shared</title>
<path fill="none" stroke="black" d="M447.73,-228.92C708.89,-216.37 1497.91,-178.43 1744.45,-166.58"/>
<polygon fill="black" stroke="black" points="1744.91,-170.06 1754.73,-166.08 1744.58,-163.07 1744.91,-170.06"/>
</g>
<!-- :app:desktopApp&#45;&gt;:core:data -->
<g id="edge5" class="edge">
<title>:app:desktopApp&#45;&gt;:core:data</title>
<path fill="none" stroke="black" d="M377.17,-216.05C384.35,-207.54 393.17,-197.07 401.09,-187.68"/>
<polygon fill="black" stroke="black" points="403.97,-189.69 407.74,-179.79 398.62,-185.18 403.97,-189.69"/>
</g>
<!-- :core:lmu&#45;windows&#45;data -->
<g id="node7" class="node">
<title>:core:lmu&#45;windows&#45;data</title>
<ellipse fill="none" stroke="black" cx="120.89" cy="-162" rx="120.78" ry="18"/>
<text text-anchor="middle" x="120.89" y="-158.3" font-family="Times,serif" font-size="14.00">:core:lmu&#45;windows&#45;data</text>
</g>
<!-- :app:desktopApp&#45;&gt;:core:lmu&#45;windows&#45;data -->
<g id="edge6" class="edge">
<title>:app:desktopApp&#45;&gt;:core:lmu&#45;windows&#45;data</title>
<path fill="none" stroke="black" d="M314.21,-218.92C276.59,-208.04 224.25,-192.9 183.51,-181.11"/>
<polygon fill="black" stroke="black" points="184.27,-177.69 173.69,-178.27 182.32,-184.41 184.27,-177.69"/>
</g>
<!-- :core:lmu&#45;windows&#45;data&#45;&gt;:core:domain -->
<g id="edge24" class="edge">
<title>:core:lmu&#45;windows&#45;data&#45;&gt;:core:domain</title>
<path fill="none" stroke="black" d="M129.16,-143.84C140.46,-122.6 162.91,-87.35 193.89,-72 256.56,-40.96 1286.78,-24.28 1586.01,-20.07"/>
<polygon fill="black" stroke="black" points="1586.39,-23.57 1596.34,-19.93 1586.29,-16.57 1586.39,-23.57"/>
</g>
<!-- :feature:main&#45;&gt;:core:domain -->
<g id="edge33" class="edge">
<title>:feature:main&#45;&gt;:core:domain</title>
<path fill="none" stroke="black" d="M994.41,-77.25C1004.49,-75.28 1014.99,-73.42 1024.89,-72 1226.32,-43.16 1465.72,-28.54 1587.37,-22.5"/>
<polygon fill="black" stroke="black" points="1587.89,-25.98 1597.71,-21.99 1587.55,-18.99 1587.89,-25.98"/>
</g>
<!-- :feature:lmu&#45;windows&#45;connection&#45;&gt;:core:domain -->
<g id="edge25" class="edge">
<title>:feature:lmu&#45;windows&#45;connection&#45;&gt;:core:domain</title>
<path fill="none" stroke="black" d="M1290.83,-75.13C1381.1,-61.65 1516.1,-41.51 1597.42,-29.37"/>
<polygon fill="black" stroke="black" points="1598.17,-32.79 1607.55,-27.86 1597.14,-25.87 1598.17,-32.79"/>
</g>
<!-- :feature:server&#45;connection&#45;&gt;:core:domain -->
<g id="edge42" class="edge">
<title>:feature:server&#45;connection&#45;&gt;:core:domain</title>
<path fill="none" stroke="black" d="M1549.76,-72.59C1572.2,-62.32 1601.2,-49.05 1624.73,-38.29"/>
<polygon fill="black" stroke="black" points="1626.48,-41.34 1634.11,-34 1623.56,-34.97 1626.48,-41.34"/>
</g>
<!-- :feature:lmu&#45;windows&#45;narrator&#45;&gt;:core:domain -->
<g id="edge26" class="edge">
<title>:feature:lmu&#45;windows&#45;narrator&#45;&gt;:core:domain</title>
<path fill="none" stroke="black" d="M1782.87,-72.41C1760.65,-62.18 1732.05,-49.01 1708.81,-38.31"/>
<polygon fill="black" stroke="black" points="1710.09,-35.04 1699.54,-34.04 1707.16,-41.4 1710.09,-35.04"/>
</g>
<!-- :core:designsystem -->
<g id="node23" class="node">
<title>:core:designsystem</title>
<ellipse fill="none" stroke="black" cx="3823.89" cy="-18" rx="100.98" ry="18"/>
<text text-anchor="middle" x="3823.89" y="-14.3" font-family="Times,serif" font-size="14.00">:core:designsystem</text>
</g>
<!-- :feature:other&#45;license&#45;detail&#45;&gt;:core:designsystem -->
<g id="edge34" class="edge">
<title>:feature:other&#45;license&#45;detail&#45;&gt;:core:designsystem</title>
<path fill="none" stroke="black" d="M4542.96,-77.23C4526.26,-75.38 4509.09,-73.57 4492.89,-72 4292.41,-52.63 4057.63,-35.25 3926.28,-26.01"/>
<polygon fill="black" stroke="black" points="3926.45,-22.51 3916.23,-25.3 3925.96,-29.49 3926.45,-22.51"/>
</g>
<!-- :feature:other&#45;list&#45;&gt;:core:domain -->
<g id="edge35" class="edge">
<title>:feature:other&#45;list&#45;&gt;:core:domain</title>
<path fill="none" stroke="black" d="M2015.13,-77.6C1937.68,-64.57 1811.67,-43.36 1734.35,-30.35"/>
<polygon fill="black" stroke="black" points="1734.68,-26.86 1724.24,-28.65 1733.52,-33.76 1734.68,-26.86"/>
</g>
<!-- :feature:other&#45;server&#45;ip&#45;detail&#45;&gt;:core:domain -->
<g id="edge37" class="edge">
<title>:feature:other&#45;server&#45;ip&#45;detail&#45;&gt;:core:domain</title>
<path fill="none" stroke="black" d="M3933.43,-76.82C3914.65,-74.93 3895.2,-73.2 3876.89,-72 3047.01,-17.5 2038.57,-17.29 1748.49,-18.51"/>
<polygon fill="black" stroke="black" points="1748.05,-15.01 1738.06,-18.56 1748.08,-22.01 1748.05,-15.01"/>
</g>
<!-- :feature:other&#45;server&#45;ip&#45;detail&#45;&gt;:core:designsystem -->
<g id="edge38" class="edge">
<title>:feature:other&#45;server&#45;ip&#45;detail&#45;&gt;:core:designsystem</title>
<path fill="none" stroke="black" d="M3986.48,-72.94C3954.48,-62.32 3912.45,-48.38 3879.13,-37.33"/>
<polygon fill="black" stroke="black" points="3880.14,-33.97 3869.54,-34.15 3877.93,-40.62 3880.14,-33.97"/>
</g>
<!-- :feature:other&#45;readout&#45;start&#45;sound&#45;detail&#45;&gt;:core:domain -->
<g id="edge36" class="edge">
<title>:feature:other&#45;readout&#45;start&#45;sound&#45;detail&#45;&gt;:core:domain</title>
<path fill="none" stroke="black" d="M564.25,-77.08C587.5,-75.26 611.37,-73.49 633.89,-72 989.43,-48.42 1414.4,-29.55 1587.59,-22.26"/>
<polygon fill="black" stroke="black" points="1587.79,-25.75 1597.63,-21.84 1587.49,-18.76 1587.79,-25.75"/>
</g>
<!-- :feature:other&#45;volume&#45;detail&#45;&gt;:core:domain -->
<g id="edge39" class="edge">
<title>:feature:other&#45;volume&#45;detail&#45;&gt;:core:domain</title>
<path fill="none" stroke="black" d="M4246.58,-76.76C4228.76,-74.87 4210.28,-73.17 4192.89,-72 3700.76,-39.02 2123.86,-23.08 1747.91,-19.7"/>
<polygon fill="black" stroke="black" points="1747.7,-16.19 1737.67,-19.6 1747.64,-23.19 1747.7,-16.19"/>
</g>
<!-- :feature:other&#45;volume&#45;detail&#45;&gt;:core:designsystem -->
<g id="edge40" class="edge">
<title>:feature:other&#45;volume&#45;detail&#45;&gt;:core:designsystem</title>
<path fill="none" stroke="black" d="M4249.8,-76.45C4153.97,-63.52 4005.76,-43.53 3911.85,-30.86"/>
<polygon fill="black" stroke="black" points="3912.18,-27.38 3901.8,-29.51 3911.25,-34.31 3912.18,-27.38"/>
</g>
<!-- :feature:readout&#45;list&#45;&gt;:core:domain -->
<g id="edge41" class="edge">
<title>:feature:readout&#45;list&#45;&gt;:core:domain</title>
<path fill="none" stroke="black" d="M819.72,-77.13C833.05,-75.21 846.87,-73.4 859.89,-72 1125.55,-43.34 1442.2,-28 1587.22,-22.02"/>
<polygon fill="black" stroke="black" points="1587.52,-25.51 1597.36,-21.6 1587.23,-18.51 1587.52,-25.51"/>
</g>
<!-- :feature:lmu&#45;windows&#45;readout&#45;vehicle&#45;approach&#45;detail&#45;&gt;:core:domain -->
<g id="edge29" class="edge">
<title>:feature:lmu&#45;windows&#45;readout&#45;vehicle&#45;approach&#45;detail&#45;&gt;:core:domain</title>
<path fill="none" stroke="black" d="M2487.4,-76.67C2268.33,-61.27 1903.12,-35.6 1744.44,-24.45"/>
<polygon fill="black" stroke="black" points="1744.51,-20.95 1734.29,-23.74 1744.02,-27.93 1744.51,-20.95"/>
</g>
<!-- :feature:lmu&#45;windows&#45;readout&#45;vehicle&#45;approach&#45;detail&#45;&gt;:core:designsystem -->
<g id="edge30" class="edge">
<title>:feature:lmu&#45;windows&#45;readout&#45;vehicle&#45;approach&#45;detail&#45;&gt;:core:designsystem</title>
<path fill="none" stroke="black" d="M2847.38,-77.25C2875.68,-75.47 2904.57,-73.68 2931.89,-72 3216.84,-54.53 3553.04,-34.79 3719.57,-25.07"/>
<polygon fill="black" stroke="black" points="3720.03,-28.55 3729.81,-24.47 3719.62,-21.56 3720.03,-28.55"/>
</g>
<!-- :feature:lmu&#45;windows&#45;readout&#45;flag&#45;detail&#45;&gt;:core:domain -->
<g id="edge27" class="edge">
<title>:feature:lmu&#45;windows&#45;readout&#45;flag&#45;detail&#45;&gt;:core:domain</title>
<path fill="none" stroke="black" d="M3003.05,-76.96C2979.65,-75.14 2955.58,-73.4 2932.89,-72 2485.08,-44.34 1947.25,-27.11 1747.07,-21.25"/>
<polygon fill="black" stroke="black" points="1747.03,-17.75 1736.93,-20.96 1746.83,-24.75 1747.03,-17.75"/>
</g>
<!-- :feature:lmu&#45;windows&#45;readout&#45;flag&#45;detail&#45;&gt;:core:designsystem -->
<g id="edge28" class="edge">
<title>:feature:lmu&#45;windows&#45;readout&#45;flag&#45;detail&#45;&gt;:core:designsystem</title>
<path fill="none" stroke="black" d="M3267.36,-76.04C3400.75,-62.37 3607.93,-41.13 3728.31,-28.8"/>
<polygon fill="black" stroke="black" points="3729.02,-32.24 3738.61,-27.74 3728.3,-25.28 3729.02,-32.24"/>
</g>
<!-- :feature:lmu&#45;windows&#45;readout&#45;vehicle&#45;damage&#45;detail&#45;&gt;:core:domain -->
<g id="edge31" class="edge">
<title>:feature:lmu&#45;windows&#45;readout&#45;vehicle&#45;damage&#45;detail&#45;&gt;:core:domain</title>
<path fill="none" stroke="black" d="M3437.87,-76.88C3408.5,-75.07 3378.34,-73.37 3349.89,-72 2733.87,-42.4 1990.18,-25.59 1747.61,-20.6"/>
<polygon fill="black" stroke="black" points="1747.54,-17.09 1737.47,-20.39 1747.39,-24.09 1747.54,-17.09"/>
</g>
<!-- :feature:lmu&#45;windows&#45;readout&#45;vehicle&#45;damage&#45;detail&#45;&gt;:core:designsystem -->
<g id="edge32" class="edge">
<title>:feature:lmu&#45;windows&#45;readout&#45;vehicle&#45;damage&#45;detail&#45;&gt;:core:designsystem</title>
<path fill="none" stroke="black" d="M3663.16,-72.32C3694.86,-61.8 3735.84,-48.21 3768.48,-37.38"/>
<polygon fill="black" stroke="black" points="3769.93,-40.59 3778.32,-34.12 3767.73,-33.94 3769.93,-40.59"/>
</g>
<!-- :app:webApp -->
<g id="node21" class="node">
<title>:app:webApp</title>
<ellipse fill="none" stroke="black" cx="1818.89" cy="-234" rx="70.69" ry="18"/>
<text text-anchor="middle" x="1818.89" y="-230.3" font-family="Times,serif" font-size="14.00">:app:webApp</text>
</g>
<!-- :app:webApp&#45;&gt;:app:shared -->
<g id="edge21" class="edge">
<title>:app:webApp&#45;&gt;:app:shared</title>
<path fill="none" stroke="black" d="M1818.89,-215.7C1818.89,-207.98 1818.89,-198.71 1818.89,-190.11"/>
<polygon fill="black" stroke="black" points="1822.39,-190.1 1818.89,-180.1 1815.39,-190.1 1822.39,-190.1"/>
</g>
<!-- :core:gt7&#45;ps5&#45;data -->
<g id="node22" class="node">
<title>:core:gt7&#45;ps5&#45;data</title>
<ellipse fill="none" stroke="black" cx="2288.89" cy="-90" rx="94.78" ry="18"/>
<text text-anchor="middle" x="2288.89" y="-86.3" font-family="Times,serif" font-size="14.00">:core:gt7&#45;ps5&#45;data</text>
</g>
<!-- :core:gt7&#45;ps5&#45;data&#45;&gt;:core:domain -->
<g id="edge23" class="edge">
<title>:core:gt7&#45;ps5&#45;data&#45;&gt;:core:domain</title>
<path fill="none" stroke="black" d="M2221.28,-77.35C2209.18,-75.43 2196.68,-73.57 2184.89,-72 2028.51,-51.24 1844.63,-34.15 1743.4,-25.38"/>
<polygon fill="black" stroke="black" points="1743.54,-21.88 1733.27,-24.51 1742.93,-28.85 1743.54,-21.88"/>
</g>
</g>
</svg>
