<?xml version="1.0" encoding="UTF-8" standalone="no"?>
<!DOCTYPE svg PUBLIC "-//W3C//DTD SVG 1.1//EN"
 "http://www.w3.org/Graphics/SVG/1.1/DTD/svg11.dtd">
<!-- Generated by graphviz version 2.43.0 (0)
 -->
<!-- Title: G Pages: 1 -->
<svg width="1897pt" height="260pt"
 viewBox="0.00 0.00 1897.34 260.00" xmlns="http://www.w3.org/2000/svg" xmlns:xlink="http://www.w3.org/1999/xlink">
<g id="graph0" class="graph" transform="scale(1 1) rotate(0) translate(4 256)">
<title>G</title>
<polygon fill="white" stroke="transparent" points="-4,4 -4,-256 1893.34,-256 1893.34,4 -4,4"/>
<!-- :server -->
<g id="node1" class="node">
<title>:server</title>
<ellipse fill="none" stroke="black" cx="1822.19" cy="-90" rx="43.59" ry="18"/>
<text text-anchor="middle" x="1822.19" y="-86.3" font-family="Times,serif" font-size="14.00">:server</text>
</g>
<!-- :core:domain -->
<g id="node2" class="node">
<title>:core:domain</title>
<ellipse fill="none" stroke="black" cx="1286.19" cy="-18" rx="70.69" ry="18"/>
<text text-anchor="middle" x="1286.19" y="-14.3" font-family="Times,serif" font-size="14.00">:core:domain</text>
</g>
<!-- :server&#45;&gt;:core:domain -->
<g id="edge1" class="edge">
<title>:server&#45;&gt;:core:domain</title>
<path fill="none" stroke="black" d="M1789,-78.19C1780.95,-75.87 1772.31,-73.63 1764.19,-72 1625.17,-44.14 1460.25,-29.92 1364.97,-23.5"/>
<polygon fill="black" stroke="black" points="1365.05,-20 1354.84,-22.83 1364.58,-26.99 1365.05,-20"/>
</g>
<!-- :app:androidApp -->
<g id="node3" class="node">
<title>:app:androidApp</title>
<ellipse fill="none" stroke="black" cx="1419.19" cy="-234" rx="87.18" ry="18"/>
<text text-anchor="middle" x="1419.19" y="-230.3" font-family="Times,serif" font-size="14.00">:app:androidApp</text>
</g>
<!-- :app:shared -->
<g id="node4" class="node">
<title>:app:shared</title>
<ellipse fill="none" stroke="black" cx="1196.19" cy="-162" rx="65.79" ry="18"/>
<text text-anchor="middle" x="1196.19" y="-158.3" font-family="Times,serif" font-size="14.00">:app:shared</text>
</g>
<!-- :app:androidApp&#45;&gt;:app:shared -->
<g id="edge2" class="edge">
<title>:app:androidApp&#45;&gt;:app:shared</title>
<path fill="none" stroke="black" d="M1373.52,-218.67C1336.91,-207.17 1285.54,-191.05 1247.51,-179.11"/>
<polygon fill="black" stroke="black" points="1248.24,-175.67 1237.65,-176.02 1246.15,-182.35 1248.24,-175.67"/>
</g>
<!-- :core:data -->
<g id="node5" class="node">
<title>:core:data</title>
<ellipse fill="none" stroke="black" cx="1658.19" cy="-162" rx="57.39" ry="18"/>
<text text-anchor="middle" x="1658.19" y="-158.3" font-family="Times,serif" font-size="14.00">:core:data</text>
</g>
<!-- :app:androidApp&#45;&gt;:core:data -->
<g id="edge3" class="edge">
<title>:app:androidApp&#45;&gt;:core:data</title>
<path fill="none" stroke="black" d="M1467.26,-218.92C1508.15,-206.94 1566.66,-189.81 1608.11,-177.67"/>
<polygon fill="black" stroke="black" points="1609.12,-181.02 1617.73,-174.85 1607.15,-174.3 1609.12,-181.02"/>
</g>
<!-- :feature:lmu&#45;connection -->
<g id="node7" class="node">
<title>:feature:lmu&#45;connection</title>
<ellipse fill="none" stroke="black" cx="1601.19" cy="-90" rx="120.78" ry="18"/>
<text text-anchor="middle" x="1601.19" y="-86.3" font-family="Times,serif" font-size="14.00">:feature:lmu&#45;connection</text>
</g>
<!-- :app:shared&#45;&gt;:feature:lmu&#45;connection -->
<g id="edge7" class="edge">
<title>:app:shared&#45;&gt;:feature:lmu&#45;connection</title>
<path fill="none" stroke="black" d="M1250.39,-151.63C1318.29,-139.9 1435.44,-119.65 1515.52,-105.81"/>
<polygon fill="black" stroke="black" points="1516.33,-109.22 1525.59,-104.07 1515.14,-102.32 1516.33,-109.22"/>
</g>
<!-- :feature:narrator -->
<g id="node8" class="node">
<title>:feature:narrator</title>
<ellipse fill="none" stroke="black" cx="1014.19" cy="-90" rx="89.08" ry="18"/>
<text text-anchor="middle" x="1014.19" y="-86.3" font-family="Times,serif" font-size="14.00">:feature:narrator</text>
</g>
<!-- :app:shared&#45;&gt;:feature:narrator -->
<g id="edge8" class="edge">
<title>:app:shared&#45;&gt;:feature:narrator</title>
<path fill="none" stroke="black" d="M1159.79,-147C1132.09,-136.35 1093.66,-121.57 1063.24,-109.87"/>
<polygon fill="black" stroke="black" points="1064.26,-106.51 1053.67,-106.19 1061.75,-113.04 1064.26,-106.51"/>
</g>
<!-- :feature:other -->
<g id="node9" class="node">
<title>:feature:other</title>
<ellipse fill="none" stroke="black" cx="1196.19" cy="-90" rx="75.29" ry="18"/>
<text text-anchor="middle" x="1196.19" y="-86.3" font-family="Times,serif" font-size="14.00">:feature:other</text>
</g>
<!-- :app:shared&#45;&gt;:feature:other -->
<g id="edge9" class="edge">
<title>:app:shared&#45;&gt;:feature:other</title>
<path fill="none" stroke="black" d="M1196.19,-143.7C1196.19,-135.98 1196.19,-126.71 1196.19,-118.11"/>
<polygon fill="black" stroke="black" points="1199.69,-118.1 1196.19,-108.1 1192.69,-118.1 1199.69,-118.1"/>
</g>
<!-- :feature:readout -->
<g id="node10" class="node">
<title>:feature:readout</title>
<ellipse fill="none" stroke="black" cx="1376.19" cy="-90" rx="86.38" ry="18"/>
<text text-anchor="middle" x="1376.19" y="-86.3" font-family="Times,serif" font-size="14.00">:feature:readout</text>
</g>
<!-- :app:shared&#45;&gt;:feature:readout -->
<g id="edge10" class="edge">
<title>:app:shared&#45;&gt;:feature:readout</title>
<path fill="none" stroke="black" d="M1232.61,-146.83C1260.05,-136.16 1297.93,-121.43 1327.9,-109.78"/>
<polygon fill="black" stroke="black" points="1329.27,-113 1337.32,-106.11 1326.73,-106.48 1329.27,-113"/>
</g>
<!-- :feature:readout&#45;vehicle&#45;approach -->
<g id="node11" class="node">
<title>:feature:readout&#45;vehicle&#45;approach</title>
<ellipse fill="none" stroke="black" cx="508.19" cy="-90" rx="167.87" ry="18"/>
<text text-anchor="middle" x="508.19" y="-86.3" font-family="Times,serif" font-size="14.00">:feature:readout&#45;vehicle&#45;approach</text>
</g>
<!-- :app:shared&#45;&gt;:feature:readout&#45;vehicle&#45;approach -->
<g id="edge11" class="edge">
<title>:app:shared&#45;&gt;:feature:readout&#45;vehicle&#45;approach</title>
<path fill="none" stroke="black" d="M1135.73,-154.85C1024.27,-143.51 784.18,-119.08 635.4,-103.94"/>
<polygon fill="black" stroke="black" points="635.6,-100.45 625.29,-102.92 634.89,-107.41 635.6,-100.45"/>
</g>
<!-- :feature:readout&#45;flag -->
<g id="node12" class="node">
<title>:feature:readout&#45;flag</title>
<ellipse fill="none" stroke="black" cx="800.19" cy="-90" rx="106.68" ry="18"/>
<text text-anchor="middle" x="800.19" y="-86.3" font-family="Times,serif" font-size="14.00">:feature:readout&#45;flag</text>
</g>
<!-- :app:shared&#45;&gt;:feature:readout&#45;flag -->
<g id="edge12" class="edge">
<title>:app:shared&#45;&gt;:feature:readout&#45;flag</title>
<path fill="none" stroke="black" d="M1142.37,-151.49C1075.07,-139.59 959.25,-119.12 881.22,-105.32"/>
<polygon fill="black" stroke="black" points="881.4,-101.8 870.94,-103.51 880.18,-108.69 881.4,-101.8"/>
</g>
<!-- :feature:readout&#45;vehicle&#45;damage -->
<g id="node13" class="node">
<title>:feature:readout&#45;vehicle&#45;damage</title>
<ellipse fill="none" stroke="black" cx="161.19" cy="-90" rx="161.37" ry="18"/>
<text text-anchor="middle" x="161.19" y="-86.3" font-family="Times,serif" font-size="14.00">:feature:readout&#45;vehicle&#45;damage</text>
</g>
<!-- :app:shared&#45;&gt;:feature:readout&#45;vehicle&#45;damage -->
<g id="edge13" class="edge">
<title>:app:shared&#45;&gt;:feature:readout&#45;vehicle&#45;damage</title>
<path fill="none" stroke="black" d="M1132.1,-157.92C988.57,-150.83 630.37,-132.12 331.19,-108 316.03,-106.78 300.12,-105.36 284.38,-103.88"/>
<polygon fill="black" stroke="black" points="284.35,-100.36 274.06,-102.9 283.69,-107.33 284.35,-100.36"/>
</g>
<!-- :core:data&#45;&gt;:core:domain -->
<g id="edge15" class="edge">
<title>:core:data&#45;&gt;:core:domain</title>
<path fill="none" stroke="black" d="M1689.74,-146.85C1705.24,-138.07 1722.44,-125.16 1731.19,-108 1738.45,-93.75 1741.81,-83.96 1731.19,-72 1707.35,-45.16 1486.59,-29.47 1365.24,-22.81"/>
<polygon fill="black" stroke="black" points="1365.42,-19.31 1355.24,-22.27 1365.04,-26.3 1365.42,-19.31"/>
</g>
<!-- :app:desktopApp -->
<g id="node6" class="node">
<title>:app:desktopApp</title>
<ellipse fill="none" stroke="black" cx="1658.19" cy="-234" rx="88.28" ry="18"/>
<text text-anchor="middle" x="1658.19" y="-230.3" font-family="Times,serif" font-size="14.00">:app:desktopApp</text>
</g>
<!-- :app:desktopApp&#45;&gt;:core:domain -->
<g id="edge6" class="edge">
<title>:app:desktopApp&#45;&gt;:core:domain</title>
<path fill="none" stroke="black" d="M1707.61,-219.04C1788.61,-193.86 1934.92,-137.35 1875.19,-72 1841.58,-35.24 1520.52,-23.76 1367.08,-20.35"/>
<polygon fill="black" stroke="black" points="1366.85,-16.84 1356.78,-20.13 1366.7,-23.84 1366.85,-16.84"/>
</g>
<!-- :app:desktopApp&#45;&gt;:app:shared -->
<g id="edge4" class="edge">
<title>:app:desktopApp&#45;&gt;:app:shared</title>
<path fill="none" stroke="black" d="M1589.52,-222.6C1501.26,-209.22 1349.09,-186.17 1262.16,-173"/>
<polygon fill="black" stroke="black" points="1262.56,-169.52 1252.15,-171.48 1261.51,-176.44 1262.56,-169.52"/>
</g>
<!-- :app:desktopApp&#45;&gt;:core:data -->
<g id="edge5" class="edge">
<title>:app:desktopApp&#45;&gt;:core:data</title>
<path fill="none" stroke="black" d="M1658.19,-215.7C1658.19,-207.98 1658.19,-198.71 1658.19,-190.11"/>
<polygon fill="black" stroke="black" points="1661.69,-190.1 1658.19,-180.1 1654.69,-190.1 1661.69,-190.1"/>
</g>
<!-- :feature:lmu&#45;connection&#45;&gt;:core:domain -->
<g id="edge16" class="edge">
<title>:feature:lmu&#45;connection&#45;&gt;:core:domain</title>
<path fill="none" stroke="black" d="M1536.68,-74.67C1481.27,-62.35 1401.94,-44.72 1347.48,-32.62"/>
<polygon fill="black" stroke="black" points="1348.13,-29.18 1337.61,-30.43 1346.61,-36.01 1348.13,-29.18"/>
</g>
<!-- :feature:narrator&#45;&gt;:core:domain -->
<g id="edge17" class="edge">
<title>:feature:narrator&#45;&gt;:core:domain</title>
<path fill="none" stroke="black" d="M1066.95,-75.42C1113.25,-63.51 1180.46,-46.21 1228.24,-33.91"/>
<polygon fill="black" stroke="black" points="1229.31,-37.25 1238.12,-31.37 1227.57,-30.47 1229.31,-37.25"/>
</g>
<!-- :feature:other&#45;&gt;:core:domain -->
<g id="edge18" class="edge">
<title>:feature:other&#45;&gt;:core:domain</title>
<path fill="none" stroke="black" d="M1217.51,-72.41C1229.37,-63.19 1244.29,-51.59 1257.19,-41.55"/>
<polygon fill="black" stroke="black" points="1259.58,-44.13 1265.32,-35.23 1255.28,-38.61 1259.58,-44.13"/>
</g>
<!-- :feature:readout&#45;&gt;:core:domain -->
<g id="edge19" class="edge">
<title>:feature:readout&#45;&gt;:core:domain</title>
<path fill="none" stroke="black" d="M1354.86,-72.41C1343,-63.19 1328.09,-51.59 1315.18,-41.55"/>
<polygon fill="black" stroke="black" points="1317.09,-38.61 1307.05,-35.23 1312.8,-44.13 1317.09,-38.61"/>
</g>
<!-- :feature:readout&#45;vehicle&#45;approach&#45;&gt;:core:domain -->
<g id="edge22" class="edge">
<title>:feature:readout&#45;vehicle&#45;approach&#45;&gt;:core:domain</title>
<path fill="none" stroke="black" d="M627.46,-77.34C646.43,-75.53 665.85,-73.69 684.19,-72 873.32,-54.54 1096.01,-35.27 1210.21,-25.48"/>
<polygon fill="black" stroke="black" points="1210.59,-28.96 1220.25,-24.62 1209.99,-21.99 1210.59,-28.96"/>
</g>
<!-- :core:designsystem -->
<g id="node15" class="node">
<title>:core:designsystem</title>
<ellipse fill="none" stroke="black" cx="508.19" cy="-18" rx="100.98" ry="18"/>
<text text-anchor="middle" x="508.19" y="-14.3" font-family="Times,serif" font-size="14.00">:core:designsystem</text>
</g>
<!-- :feature:readout&#45;vehicle&#45;approach&#45;&gt;:core:designsystem -->
<g id="edge23" class="edge">
<title>:feature:readout&#45;vehicle&#45;approach&#45;&gt;:core:designsystem</title>
<path fill="none" stroke="black" d="M508.19,-71.7C508.19,-63.98 508.19,-54.71 508.19,-46.11"/>
<polygon fill="black" stroke="black" points="511.69,-46.1 508.19,-36.1 504.69,-46.1 511.69,-46.1"/>
</g>
<!-- :feature:readout&#45;flag&#45;&gt;:core:domain -->
<g id="edge20" class="edge">
<title>:feature:readout&#45;flag&#45;&gt;:core:domain</title>
<path fill="none" stroke="black" d="M877.87,-77.58C890.67,-75.71 903.8,-73.8 916.19,-72 1020.46,-56.89 1141.3,-39.63 1215.74,-29.02"/>
<polygon fill="black" stroke="black" points="1216.53,-32.44 1225.94,-27.57 1215.54,-25.51 1216.53,-32.44"/>
</g>
<!-- :feature:readout&#45;flag&#45;&gt;:core:designsystem -->
<g id="edge21" class="edge">
<title>:feature:readout&#45;flag&#45;&gt;:core:designsystem</title>
<path fill="none" stroke="black" d="M741.45,-74.92C693.51,-63.43 625.76,-47.19 575.62,-35.17"/>
<polygon fill="black" stroke="black" points="576.38,-31.75 565.84,-32.82 574.74,-38.55 576.38,-31.75"/>
</g>
<!-- :feature:readout&#45;vehicle&#45;damage&#45;&gt;:core:domain -->
<g id="edge24" class="edge">
<title>:feature:readout&#45;vehicle&#45;damage&#45;&gt;:core:domain</title>
<path fill="none" stroke="black" d="M273.6,-77.05C292.8,-75.21 312.56,-73.45 331.19,-72 655.38,-46.81 1042.4,-29.14 1206.43,-22.23"/>
<polygon fill="black" stroke="black" points="1207.07,-25.71 1216.91,-21.79 1206.77,-18.72 1207.07,-25.71"/>
</g>
<!-- :feature:readout&#45;vehicle&#45;damage&#45;&gt;:core:designsystem -->
<g id="edge25" class="edge">
<title>:feature:readout&#45;vehicle&#45;damage&#45;&gt;:core:designsystem</title>
<path fill="none" stroke="black" d="M235.63,-73.98C294.27,-62.15 375.61,-45.74 434.15,-33.94"/>
<polygon fill="black" stroke="black" points="434.96,-37.34 444.07,-31.93 433.57,-30.48 434.96,-37.34"/>
</g>
<!-- :app:webApp -->
<g id="node14" class="node">
<title>:app:webApp</title>
<ellipse fill="none" stroke="black" cx="1196.19" cy="-234" rx="70.69" ry="18"/>
<text text-anchor="middle" x="1196.19" y="-230.3" font-family="Times,serif" font-size="14.00">:app:webApp</text>
</g>
<!-- :app:webApp&#45;&gt;:app:shared -->
<g id="edge14" class="edge">
<title>:app:webApp&#45;&gt;:app:shared</title>
<path fill="none" stroke="black" d="M1196.19,-215.7C1196.19,-207.98 1196.19,-198.71 1196.19,-190.11"/>
<polygon fill="black" stroke="black" points="1199.69,-190.1 1196.19,-180.1 1192.69,-190.1 1199.69,-190.1"/>
</g>
</g>
</svg>
