<?xml version="1.0" encoding="UTF-8" standalone="no"?>
<!DOCTYPE svg PUBLIC "-//W3C//DTD SVG 1.1//EN"
 "http://www.w3.org/Graphics/SVG/1.1/DTD/svg11.dtd">
<!-- Generated by graphviz version 2.43.0 (0)
 -->
<!-- Title: G Pages: 1 -->
<svg width="3368pt" height="260pt"
 viewBox="0.00 0.00 3368.48 260.00" xmlns="http://www.w3.org/2000/svg" xmlns:xlink="http://www.w3.org/1999/xlink">
<g id="graph0" class="graph" transform="scale(1 1) rotate(0) translate(4 256)">
<title>G</title>
<polygon fill="white" stroke="transparent" points="-4,4 -4,-256 3364.48,-256 3364.48,4 -4,4"/>
<!-- :server -->
<g id="node1" class="node">
<title>:server</title>
<ellipse fill="none" stroke="black" cx="45.74" cy="-162" rx="43.59" ry="18"/>
<text text-anchor="middle" x="45.74" y="-158.3" font-family="Times,serif" font-size="14.00">:server</text>
</g>
<!-- :core:domain -->
<g id="node2" class="node">
<title>:core:domain</title>
<ellipse fill="none" stroke="black" cx="982.74" cy="-18" rx="70.69" ry="18"/>
<text text-anchor="middle" x="982.74" y="-14.3" font-family="Times,serif" font-size="14.00">:core:domain</text>
</g>
<!-- :server&#45;&gt;:core:domain -->
<g id="edge1" class="edge">
<title>:server&#45;&gt;:core:domain</title>
<path fill="none" stroke="black" d="M29.42,-144.98C11.58,-125.56 -12.01,-92.86 7.74,-72 38.31,-39.73 673.47,-24.76 901.85,-20.4"/>
<polygon fill="black" stroke="black" points="902.16,-23.9 912.09,-20.21 902.02,-16.9 902.16,-23.9"/>
</g>
<!-- :app:androidApp -->
<g id="node3" class="node">
<title>:app:androidApp</title>
<ellipse fill="none" stroke="black" cx="853.74" cy="-234" rx="87.18" ry="18"/>
<text text-anchor="middle" x="853.74" y="-230.3" font-family="Times,serif" font-size="14.00">:app:androidApp</text>
</g>
<!-- :app:shared -->
<g id="node4" class="node">
<title>:app:shared</title>
<ellipse fill="none" stroke="black" cx="1112.74" cy="-162" rx="65.79" ry="18"/>
<text text-anchor="middle" x="1112.74" y="-158.3" font-family="Times,serif" font-size="14.00">:app:shared</text>
</g>
<!-- :app:androidApp&#45;&gt;:app:shared -->
<g id="edge2" class="edge">
<title>:app:androidApp&#45;&gt;:app:shared</title>
<path fill="none" stroke="black" d="M904.3,-219.34C948.46,-207.4 1012.43,-190.11 1057.84,-177.84"/>
<polygon fill="black" stroke="black" points="1058.78,-181.21 1067.52,-175.22 1056.95,-174.45 1058.78,-181.21"/>
</g>
<!-- :core:data -->
<g id="node5" class="node">
<title>:core:data</title>
<ellipse fill="none" stroke="black" cx="495.74" cy="-162" rx="57.39" ry="18"/>
<text text-anchor="middle" x="495.74" y="-158.3" font-family="Times,serif" font-size="14.00">:core:data</text>
</g>
<!-- :app:androidApp&#45;&gt;:core:data -->
<g id="edge3" class="edge">
<title>:app:androidApp&#45;&gt;:core:data</title>
<path fill="none" stroke="black" d="M792.61,-221.05C725.5,-207.92 618.61,-187.02 553.06,-174.21"/>
<polygon fill="black" stroke="black" points="553.4,-170.71 542.91,-172.22 552.05,-177.58 553.4,-170.71"/>
</g>
<!-- :feature:lmu&#45;connection -->
<g id="node7" class="node">
<title>:feature:lmu&#45;connection</title>
<ellipse fill="none" stroke="black" cx="579.74" cy="-90" rx="120.78" ry="18"/>
<text text-anchor="middle" x="579.74" y="-86.3" font-family="Times,serif" font-size="14.00">:feature:lmu&#45;connection</text>
</g>
<!-- :app:shared&#45;&gt;:feature:lmu&#45;connection -->
<g id="edge7" class="edge">
<title>:app:shared&#45;&gt;:feature:lmu&#45;connection</title>
<path fill="none" stroke="black" d="M1054.94,-153.41C964.39,-141.52 788.03,-118.35 677.48,-103.84"/>
<polygon fill="black" stroke="black" points="677.7,-100.33 667.33,-102.5 676.79,-107.28 677.7,-100.33"/>
</g>
<!-- :feature:server&#45;connection -->
<g id="node8" class="node">
<title>:feature:server&#45;connection</title>
<ellipse fill="none" stroke="black" cx="851.74" cy="-90" rx="133.48" ry="18"/>
<text text-anchor="middle" x="851.74" y="-86.3" font-family="Times,serif" font-size="14.00">:feature:server&#45;connection</text>
</g>
<!-- :app:shared&#45;&gt;:feature:server&#45;connection -->
<g id="edge8" class="edge">
<title>:app:shared&#45;&gt;:feature:server&#45;connection</title>
<path fill="none" stroke="black" d="M1067.58,-148.89C1026.58,-137.89 965.57,-121.53 918.86,-109"/>
<polygon fill="black" stroke="black" points="919.69,-105.6 909.12,-106.39 917.88,-112.36 919.69,-105.6"/>
</g>
<!-- :feature:lmu&#45;narrator -->
<g id="node9" class="node">
<title>:feature:lmu&#45;narrator</title>
<ellipse fill="none" stroke="black" cx="1112.74" cy="-90" rx="109.68" ry="18"/>
<text text-anchor="middle" x="1112.74" y="-86.3" font-family="Times,serif" font-size="14.00">:feature:lmu&#45;narrator</text>
</g>
<!-- :app:shared&#45;&gt;:feature:lmu&#45;narrator -->
<g id="edge9" class="edge">
<title>:app:shared&#45;&gt;:feature:lmu&#45;narrator</title>
<path fill="none" stroke="black" d="M1112.74,-143.7C1112.74,-135.98 1112.74,-126.71 1112.74,-118.11"/>
<polygon fill="black" stroke="black" points="1116.24,-118.1 1112.74,-108.1 1109.24,-118.1 1116.24,-118.1"/>
</g>
<!-- :feature:other&#45;license&#45;detail -->
<g id="node10" class="node">
<title>:feature:other&#45;license&#45;detail</title>
<ellipse fill="none" stroke="black" cx="3220.74" cy="-90" rx="139.98" ry="18"/>
<text text-anchor="middle" x="3220.74" y="-86.3" font-family="Times,serif" font-size="14.00">:feature:other&#45;license&#45;detail</text>
</g>
<!-- :app:shared&#45;&gt;:feature:other&#45;license&#45;detail -->
<g id="edge10" class="edge">
<title>:app:shared&#45;&gt;:feature:other&#45;license&#45;detail</title>
<path fill="none" stroke="black" d="M1178.37,-161.28C1426.35,-161.92 2329.76,-160.27 3071.74,-108 3085.78,-107.01 3100.52,-105.68 3115.06,-104.2"/>
<polygon fill="black" stroke="black" points="3115.49,-107.68 3125.07,-103.15 3114.76,-100.71 3115.49,-107.68"/>
</g>
<!-- :feature:other&#45;list -->
<g id="node11" class="node">
<title>:feature:other&#45;list</title>
<ellipse fill="none" stroke="black" cx="121.74" cy="-90" rx="92.88" ry="18"/>
<text text-anchor="middle" x="121.74" y="-86.3" font-family="Times,serif" font-size="14.00">:feature:other&#45;list</text>
</g>
<!-- :app:shared&#45;&gt;:feature:other&#45;list -->
<g id="edge11" class="edge">
<title>:app:shared&#45;&gt;:feature:other&#45;list</title>
<path fill="none" stroke="black" d="M1047.57,-159.47C900.32,-155.5 530.83,-142.65 223.74,-108 215.06,-107.02 205.99,-105.8 197,-104.46"/>
<polygon fill="black" stroke="black" points="197.31,-100.97 186.9,-102.91 196.25,-107.89 197.31,-100.97"/>
</g>
<!-- :feature:other&#45;server&#45;ip&#45;detail -->
<g id="node12" class="node">
<title>:feature:other&#45;server&#45;ip&#45;detail</title>
<ellipse fill="none" stroke="black" cx="1389.74" cy="-90" rx="148.67" ry="18"/>
<text text-anchor="middle" x="1389.74" y="-86.3" font-family="Times,serif" font-size="14.00">:feature:other&#45;server&#45;ip&#45;detail</text>
</g>
<!-- :app:shared&#45;&gt;:feature:other&#45;server&#45;ip&#45;detail -->
<g id="edge12" class="edge">
<title>:app:shared&#45;&gt;:feature:other&#45;server&#45;ip&#45;detail</title>
<path fill="none" stroke="black" d="M1159.42,-149.2C1203,-138.19 1268.66,-121.6 1318.74,-108.94"/>
<polygon fill="black" stroke="black" points="1319.7,-112.31 1328.53,-106.47 1317.98,-105.52 1319.7,-112.31"/>
</g>
<!-- :feature:other&#45;volume&#45;detail -->
<g id="node13" class="node">
<title>:feature:other&#45;volume&#45;detail</title>
<ellipse fill="none" stroke="black" cx="1697.74" cy="-90" rx="141.07" ry="18"/>
<text text-anchor="middle" x="1697.74" y="-86.3" font-family="Times,serif" font-size="14.00">:feature:other&#45;volume&#45;detail</text>
</g>
<!-- :app:shared&#45;&gt;:feature:other&#45;volume&#45;detail -->
<g id="edge13" class="edge">
<title>:app:shared&#45;&gt;:feature:other&#45;volume&#45;detail</title>
<path fill="none" stroke="black" d="M1171.51,-153.97C1268.88,-142.32 1465.13,-118.83 1588.52,-104.07"/>
<polygon fill="black" stroke="black" points="1589.23,-107.51 1598.75,-102.85 1588.4,-100.56 1589.23,-107.51"/>
</g>
<!-- :feature:readout&#45;list -->
<g id="node14" class="node">
<title>:feature:readout&#45;list</title>
<ellipse fill="none" stroke="black" cx="336.74" cy="-90" rx="103.98" ry="18"/>
<text text-anchor="middle" x="336.74" y="-86.3" font-family="Times,serif" font-size="14.00">:feature:readout&#45;list</text>
</g>
<!-- :app:shared&#45;&gt;:feature:readout&#45;list -->
<g id="edge14" class="edge">
<title>:app:shared&#45;&gt;:feature:readout&#45;list</title>
<path fill="none" stroke="black" d="M1049.06,-157.39C930.75,-150.35 669.14,-133.24 449.74,-108 440.14,-106.89 430.09,-105.59 420.12,-104.21"/>
<polygon fill="black" stroke="black" points="420.59,-100.74 410.2,-102.81 419.61,-107.67 420.59,-100.74"/>
</g>
<!-- :feature:lmu&#45;readout&#45;vehicle&#45;approach&#45;detail -->
<g id="node15" class="node">
<title>:feature:lmu&#45;readout&#45;vehicle&#45;approach&#45;detail</title>
<ellipse fill="none" stroke="black" cx="2074.74" cy="-90" rx="217.96" ry="18"/>
<text text-anchor="middle" x="2074.74" y="-86.3" font-family="Times,serif" font-size="14.00">:feature:lmu&#45;readout&#45;vehicle&#45;approach&#45;detail</text>
</g>
<!-- :app:shared&#45;&gt;:feature:lmu&#45;readout&#45;vehicle&#45;approach&#45;detail -->
<g id="edge15" class="edge">
<title>:app:shared&#45;&gt;:feature:lmu&#45;readout&#45;vehicle&#45;approach&#45;detail</title>
<path fill="none" stroke="black" d="M1175.67,-156.52C1302.72,-147.47 1598.94,-126.29 1847.74,-108 1867.73,-106.53 1888.7,-104.98 1909.49,-103.43"/>
<polygon fill="black" stroke="black" points="1909.96,-106.9 1919.67,-102.67 1909.44,-99.92 1909.96,-106.9"/>
</g>
<!-- :feature:lmu&#45;readout&#45;flag&#45;detail -->
<g id="node16" class="node">
<title>:feature:lmu&#45;readout&#45;flag&#45;detail</title>
<ellipse fill="none" stroke="black" cx="2466.74" cy="-90" rx="155.97" ry="18"/>
<text text-anchor="middle" x="2466.74" y="-86.3" font-family="Times,serif" font-size="14.00">:feature:lmu&#45;readout&#45;flag&#45;detail</text>
</g>
<!-- :app:shared&#45;&gt;:feature:lmu&#45;readout&#45;flag&#45;detail -->
<g id="edge16" class="edge">
<title>:app:shared&#45;&gt;:feature:lmu&#45;readout&#45;flag&#45;detail</title>
<path fill="none" stroke="black" d="M1177.91,-159.43C1357.33,-154.8 1873.64,-139.57 2301.74,-108 2316.82,-106.89 2332.65,-105.52 2348.3,-104.04"/>
<polygon fill="black" stroke="black" points="2348.92,-107.5 2358.54,-103.06 2348.25,-100.53 2348.92,-107.5"/>
</g>
<!-- :feature:lmu&#45;readout&#45;vehicle&#45;damage&#45;detail -->
<g id="node17" class="node">
<title>:feature:lmu&#45;readout&#45;vehicle&#45;damage&#45;detail</title>
<ellipse fill="none" stroke="black" cx="2851.74" cy="-90" rx="211.46" ry="18"/>
<text text-anchor="middle" x="2851.74" y="-86.3" font-family="Times,serif" font-size="14.00">:feature:lmu&#45;readout&#45;vehicle&#45;damage&#45;detail</text>
</g>
<!-- :app:shared&#45;&gt;:feature:lmu&#45;readout&#45;vehicle&#45;damage&#45;detail -->
<g id="edge17" class="edge">
<title>:app:shared&#45;&gt;:feature:lmu&#45;readout&#45;vehicle&#45;damage&#45;detail</title>
<path fill="none" stroke="black" d="M1177.93,-159.71C1388.47,-155.33 2069.25,-139.53 2631.74,-108 2652.63,-106.83 2674.61,-105.38 2696.28,-103.84"/>
<polygon fill="black" stroke="black" points="2696.82,-107.31 2706.54,-103.09 2696.31,-100.32 2696.82,-107.31"/>
</g>
<!-- :core:data&#45;&gt;:core:domain -->
<g id="edge19" class="edge">
<title>:core:data&#45;&gt;:core:domain</title>
<path fill="none" stroke="black" d="M439.11,-158.85C318.97,-153.72 47.29,-138.79 19.74,-108 9.07,-96.08 8.75,-83.62 19.74,-72 49.89,-40.15 675.8,-24.93 902.05,-20.46"/>
<polygon fill="black" stroke="black" points="902.26,-23.95 912.19,-20.26 902.13,-16.95 902.26,-23.95"/>
</g>
<!-- :app:desktopApp -->
<g id="node6" class="node">
<title>:app:desktopApp</title>
<ellipse fill="none" stroke="black" cx="495.74" cy="-234" rx="88.28" ry="18"/>
<text text-anchor="middle" x="495.74" y="-230.3" font-family="Times,serif" font-size="14.00">:app:desktopApp</text>
</g>
<!-- :app:desktopApp&#45;&gt;:server -->
<g id="edge6" class="edge">
<title>:app:desktopApp&#45;&gt;:server</title>
<path fill="none" stroke="black" d="M427.89,-222.44C336.65,-208.25 176.55,-183.35 95.6,-170.76"/>
<polygon fill="black" stroke="black" points="96.08,-167.29 85.66,-169.21 95.01,-174.21 96.08,-167.29"/>
</g>
<!-- :app:desktopApp&#45;&gt;:app:shared -->
<g id="edge4" class="edge">
<title>:app:desktopApp&#45;&gt;:app:shared</title>
<path fill="none" stroke="black" d="M570.78,-224.49C691.27,-210.82 926.19,-184.17 1043.13,-170.9"/>
<polygon fill="black" stroke="black" points="1043.85,-174.34 1053.39,-169.73 1043.06,-167.38 1043.85,-174.34"/>
</g>
<!-- :app:desktopApp&#45;&gt;:core:data -->
<g id="edge5" class="edge">
<title>:app:desktopApp&#45;&gt;:core:data</title>
<path fill="none" stroke="black" d="M495.74,-215.7C495.74,-207.98 495.74,-198.71 495.74,-190.11"/>
<polygon fill="black" stroke="black" points="499.24,-190.1 495.74,-180.1 492.24,-190.1 499.24,-190.1"/>
</g>
<!-- :feature:lmu&#45;connection&#45;&gt;:core:domain -->
<g id="edge20" class="edge">
<title>:feature:lmu&#45;connection&#45;&gt;:core:domain</title>
<path fill="none" stroke="black" d="M655.07,-75.92C729.99,-62.9 843.83,-43.13 915.7,-30.65"/>
<polygon fill="black" stroke="black" points="916.74,-34.02 925.99,-28.86 915.54,-27.12 916.74,-34.02"/>
</g>
<!-- :feature:server&#45;connection&#45;&gt;:core:domain -->
<g id="edge35" class="edge">
<title>:feature:server&#45;connection&#45;&gt;:core:domain</title>
<path fill="none" stroke="black" d="M882.79,-72.41C901.34,-62.5 925.04,-49.83 944.71,-39.32"/>
<polygon fill="black" stroke="black" points="946.55,-42.31 953.72,-34.51 943.25,-36.14 946.55,-42.31"/>
</g>
<!-- :feature:lmu&#45;narrator&#45;&gt;:core:domain -->
<g id="edge21" class="edge">
<title>:feature:lmu&#45;narrator&#45;&gt;:core:domain</title>
<path fill="none" stroke="black" d="M1082.26,-72.59C1063.87,-62.68 1040.27,-49.97 1020.67,-39.42"/>
<polygon fill="black" stroke="black" points="1022.16,-36.25 1011.69,-34.59 1018.84,-42.41 1022.16,-36.25"/>
</g>
<!-- :core:designsystem -->
<g id="node19" class="node">
<title>:core:designsystem</title>
<ellipse fill="none" stroke="black" cx="2270.74" cy="-18" rx="100.98" ry="18"/>
<text text-anchor="middle" x="2270.74" y="-14.3" font-family="Times,serif" font-size="14.00">:core:designsystem</text>
</g>
<!-- :feature:other&#45;license&#45;detail&#45;&gt;:core:designsystem -->
<g id="edge28" class="edge">
<title>:feature:other&#45;license&#45;detail&#45;&gt;:core:designsystem</title>
<path fill="none" stroke="black" d="M3122.63,-77.14C3105.67,-75.28 3088.21,-73.48 3071.74,-72 2822.93,-49.59 2529.83,-32.58 2376.46,-24.39"/>
<polygon fill="black" stroke="black" points="2376.28,-20.88 2366.11,-23.84 2375.91,-27.87 2376.28,-20.88"/>
</g>
<!-- :feature:other&#45;list&#45;&gt;:core:domain -->
<g id="edge29" class="edge">
<title>:feature:other&#45;list&#45;&gt;:core:domain</title>
<path fill="none" stroke="black" d="M187.18,-77.14C199.31,-75.22 211.89,-73.4 223.74,-72 470.58,-42.88 764.61,-27.93 903.11,-22.06"/>
<polygon fill="black" stroke="black" points="903.36,-25.55 913.21,-21.63 903.07,-18.56 903.36,-25.55"/>
</g>
<!-- :feature:other&#45;server&#45;ip&#45;detail&#45;&gt;:core:domain -->
<g id="edge30" class="edge">
<title>:feature:other&#45;server&#45;ip&#45;detail&#45;&gt;:core:domain</title>
<path fill="none" stroke="black" d="M1307.87,-74.92C1231.98,-61.87 1120.45,-42.68 1049.73,-30.52"/>
<polygon fill="black" stroke="black" points="1050.05,-27.03 1039.6,-28.78 1048.87,-33.92 1050.05,-27.03"/>
</g>
<!-- :feature:other&#45;server&#45;ip&#45;detail&#45;&gt;:core:designsystem -->
<g id="edge31" class="edge">
<title>:feature:other&#45;server&#45;ip&#45;detail&#45;&gt;:core:designsystem</title>
<path fill="none" stroke="black" d="M1494.66,-77.21C1512.37,-75.36 1530.57,-73.55 1547.74,-72 1768.01,-52.08 2026.55,-34.54 2167.03,-25.49"/>
<polygon fill="black" stroke="black" points="2167.6,-28.96 2177.36,-24.83 2167.15,-21.98 2167.6,-28.96"/>
</g>
<!-- :feature:other&#45;volume&#45;detail&#45;&gt;:core:domain -->
<g id="edge32" class="edge">
<title>:feature:other&#45;volume&#45;detail&#45;&gt;:core:domain</title>
<path fill="none" stroke="black" d="M1597.32,-77.35C1580.76,-75.5 1563.78,-73.66 1547.74,-72 1372.83,-53.89 1167.16,-35.27 1058.66,-25.65"/>
<polygon fill="black" stroke="black" points="1058.73,-22.14 1048.46,-24.75 1058.12,-29.12 1058.73,-22.14"/>
</g>
<!-- :feature:other&#45;volume&#45;detail&#45;&gt;:core:designsystem -->
<g id="edge33" class="edge">
<title>:feature:other&#45;volume&#45;detail&#45;&gt;:core:designsystem</title>
<path fill="none" stroke="black" d="M1795.92,-77.01C1903.63,-63.85 2075.09,-42.9 2179.82,-30.11"/>
<polygon fill="black" stroke="black" points="2180.56,-33.54 2190.06,-28.86 2179.71,-26.6 2180.56,-33.54"/>
</g>
<!-- :feature:readout&#45;list&#45;&gt;:core:domain -->
<g id="edge34" class="edge">
<title>:feature:readout&#45;list&#45;&gt;:core:domain</title>
<path fill="none" stroke="black" d="M410.83,-77.31C423.78,-75.42 437.14,-73.57 449.74,-72 612.05,-51.73 802.94,-34.3 906.51,-25.37"/>
<polygon fill="black" stroke="black" points="906.9,-28.85 916.57,-24.5 906.3,-21.87 906.9,-28.85"/>
</g>
<!-- :feature:lmu&#45;readout&#45;vehicle&#45;approach&#45;detail&#45;&gt;:core:domain -->
<g id="edge24" class="edge">
<title>:feature:lmu&#45;readout&#45;vehicle&#45;approach&#45;detail&#45;&gt;:core:domain</title>
<path fill="none" stroke="black" d="M1921.22,-77.22C1896.65,-75.41 1871.5,-73.62 1847.74,-72 1557.94,-52.27 1213.28,-32.16 1061.33,-23.46"/>
<polygon fill="black" stroke="black" points="1061.35,-19.95 1051.17,-22.88 1060.95,-26.94 1061.35,-19.95"/>
</g>
<!-- :feature:lmu&#45;readout&#45;vehicle&#45;approach&#45;detail&#45;&gt;:core:designsystem -->
<g id="edge25" class="edge">
<title>:feature:lmu&#45;readout&#45;vehicle&#45;approach&#45;detail&#45;&gt;:core:designsystem</title>
<path fill="none" stroke="black" d="M2121.19,-72.41C2150.31,-62.01 2187.9,-48.59 2218.12,-37.8"/>
<polygon fill="black" stroke="black" points="2219.41,-41.05 2227.65,-34.39 2217.05,-34.46 2219.41,-41.05"/>
</g>
<!-- :feature:lmu&#45;readout&#45;flag&#45;detail&#45;&gt;:core:domain -->
<g id="edge22" class="edge">
<title>:feature:lmu&#45;readout&#45;flag&#45;detail&#45;&gt;:core:domain</title>
<path fill="none" stroke="black" d="M2358.99,-76.92C2339.94,-75.06 2320.27,-73.33 2301.74,-72 1833.32,-38.49 1269.68,-24.67 1063.39,-20.49"/>
<polygon fill="black" stroke="black" points="1063.32,-16.98 1053.25,-20.28 1063.18,-23.98 1063.32,-16.98"/>
</g>
<!-- :feature:lmu&#45;readout&#45;flag&#45;detail&#45;&gt;:core:designsystem -->
<g id="edge23" class="edge">
<title>:feature:lmu&#45;readout&#45;flag&#45;detail&#45;&gt;:core:designsystem</title>
<path fill="none" stroke="black" d="M2421.28,-72.76C2392,-62.31 2353.82,-48.67 2323.25,-37.75"/>
<polygon fill="black" stroke="black" points="2324.2,-34.38 2313.61,-34.31 2321.85,-40.97 2324.2,-34.38"/>
</g>
<!-- :feature:lmu&#45;readout&#45;vehicle&#45;damage&#45;detail&#45;&gt;:core:domain -->
<g id="edge26" class="edge">
<title>:feature:lmu&#45;readout&#45;vehicle&#45;damage&#45;detail&#45;&gt;:core:domain</title>
<path fill="none" stroke="black" d="M2706.84,-76.87C2681.81,-75.04 2656.03,-73.33 2631.74,-72 2029.71,-39.08 1302.84,-24.46 1063.46,-20.31"/>
<polygon fill="black" stroke="black" points="1063.17,-16.8 1053.11,-20.13 1063.05,-23.8 1063.17,-16.8"/>
</g>
<!-- :feature:lmu&#45;readout&#45;vehicle&#45;damage&#45;detail&#45;&gt;:core:designsystem -->
<g id="edge27" class="edge">
<title>:feature:lmu&#45;readout&#45;vehicle&#45;damage&#45;detail&#45;&gt;:core:designsystem</title>
<path fill="none" stroke="black" d="M2735.22,-74.96C2625.37,-61.73 2462.97,-42.16 2362.18,-30.02"/>
<polygon fill="black" stroke="black" points="2362.36,-26.51 2352.01,-28.79 2361.52,-33.46 2362.36,-26.51"/>
</g>
<!-- :app:webApp -->
<g id="node18" class="node">
<title>:app:webApp</title>
<ellipse fill="none" stroke="black" cx="1112.74" cy="-234" rx="70.69" ry="18"/>
<text text-anchor="middle" x="1112.74" y="-230.3" font-family="Times,serif" font-size="14.00">:app:webApp</text>
</g>
<!-- :app:webApp&#45;&gt;:app:shared -->
<g id="edge18" class="edge">
<title>:app:webApp&#45;&gt;:app:shared</title>
<path fill="none" stroke="black" d="M1112.74,-215.7C1112.74,-207.98 1112.74,-198.71 1112.74,-190.11"/>
<polygon fill="black" stroke="black" points="1116.24,-190.1 1112.74,-180.1 1109.24,-190.1 1116.24,-190.1"/>
</g>
</g>
</svg>
