<?xml version="1.0" encoding="UTF-8" standalone="no"?>
<!DOCTYPE svg PUBLIC "-//W3C//DTD SVG 1.1//EN"
 "http://www.w3.org/Graphics/SVG/1.1/DTD/svg11.dtd">
<!-- Generated by graphviz version 2.43.0 (0)
 -->
<!-- Title: G Pages: 1 -->
<svg width="7084pt" height="260pt"
 viewBox="0.00 0.00 7083.97 260.00" xmlns="http://www.w3.org/2000/svg" xmlns:xlink="http://www.w3.org/1999/xlink">
<g id="graph0" class="graph" transform="scale(1 1) rotate(0) translate(4 256)">
<title>G</title>
<polygon fill="white" stroke="transparent" points="-4,4 -4,-256 7079.97,-256 7079.97,4 -4,4"/>
<!-- :server -->
<g id="node1" class="node">
<title>:server</title>
<ellipse fill="none" stroke="black" cx="43.55" cy="-162" rx="43.59" ry="18"/>
<text text-anchor="middle" x="43.55" y="-158.3" font-family="Times,serif" font-size="14.00">:server</text>
</g>
<!-- :core:domain -->
<g id="node2" class="node">
<title>:core:domain</title>
<ellipse fill="none" stroke="black" cx="2468.55" cy="-18" rx="70.69" ry="18"/>
<text text-anchor="middle" x="2468.55" y="-14.3" font-family="Times,serif" font-size="14.00">:core:domain</text>
</g>
<!-- :server&#45;&gt;:core:domain -->
<g id="edge1" class="edge">
<title>:server&#45;&gt;:core:domain</title>
<path fill="none" stroke="black" d="M65.6,-146.27C98.69,-125.12 163.87,-87.04 225.55,-72 438.48,-20.07 2010.79,-18.48 2387.57,-18.86"/>
<polygon fill="black" stroke="black" points="2387.57,-22.36 2397.58,-18.87 2387.58,-15.36 2387.57,-22.36"/>
</g>
<!-- :app:androidApp -->
<g id="node3" class="node">
<title>:app:androidApp</title>
<ellipse fill="none" stroke="black" cx="640.55" cy="-234" rx="87.18" ry="18"/>
<text text-anchor="middle" x="640.55" y="-230.3" font-family="Times,serif" font-size="14.00">:app:androidApp</text>
</g>
<!-- :app:shared -->
<g id="node4" class="node">
<title>:app:shared</title>
<ellipse fill="none" stroke="black" cx="2999.55" cy="-162" rx="65.79" ry="18"/>
<text text-anchor="middle" x="2999.55" y="-158.3" font-family="Times,serif" font-size="14.00">:app:shared</text>
</g>
<!-- :app:androidApp&#45;&gt;:app:shared -->
<g id="edge2" class="edge">
<title>:app:androidApp&#45;&gt;:app:shared</title>
<path fill="none" stroke="black" d="M726.25,-230.46C1098.8,-219.4 2574.51,-175.61 2924.72,-165.22"/>
<polygon fill="black" stroke="black" points="2924.85,-168.72 2934.75,-164.92 2924.65,-161.72 2924.85,-168.72"/>
</g>
<!-- :core:data -->
<g id="node5" class="node">
<title>:core:data</title>
<ellipse fill="none" stroke="black" cx="629.55" cy="-162" rx="57.39" ry="18"/>
<text text-anchor="middle" x="629.55" y="-158.3" font-family="Times,serif" font-size="14.00">:core:data</text>
</g>
<!-- :app:androidApp&#45;&gt;:core:data -->
<g id="edge3" class="edge">
<title>:app:androidApp&#45;&gt;:core:data</title>
<path fill="none" stroke="black" d="M637.83,-215.7C636.61,-207.98 635.16,-198.71 633.81,-190.11"/>
<polygon fill="black" stroke="black" points="637.24,-189.44 632.23,-180.1 630.33,-190.53 637.24,-189.44"/>
</g>
<!-- :core:gt7&#45;ps5&#45;data -->
<g id="node6" class="node">
<title>:core:gt7&#45;ps5&#45;data</title>
<ellipse fill="none" stroke="black" cx="459.55" cy="-162" rx="94.78" ry="18"/>
<text text-anchor="middle" x="459.55" y="-158.3" font-family="Times,serif" font-size="14.00">:core:gt7&#45;ps5&#45;data</text>
</g>
<!-- :app:androidApp&#45;&gt;:core:gt7&#45;ps5&#45;data -->
<g id="edge4" class="edge">
<title>:app:androidApp&#45;&gt;:core:gt7&#45;ps5&#45;data</title>
<path fill="none" stroke="black" d="M601.27,-217.81C574.18,-207.33 537.96,-193.33 508.92,-182.09"/>
<polygon fill="black" stroke="black" points="509.96,-178.74 499.37,-178.4 507.43,-185.27 509.96,-178.74"/>
</g>
<!-- :core:designsystem -->
<g id="node9" class="node">
<title>:core:designsystem</title>
<ellipse fill="none" stroke="black" cx="3937.55" cy="-18" rx="100.98" ry="18"/>
<text text-anchor="middle" x="3937.55" y="-14.3" font-family="Times,serif" font-size="14.00">:core:designsystem</text>
</g>
<!-- :app:shared&#45;&gt;:core:designsystem -->
<g id="edge10" class="edge">
<title>:app:shared&#45;&gt;:core:designsystem</title>
<path fill="none" stroke="black" d="M3065.29,-160.77C3586.45,-158.91 7030.86,-145.17 7067.55,-108 7078.79,-96.61 7078.76,-83.41 7067.55,-72 7013.55,-17.08 4599.83,-17.87 4048.76,-18.77"/>
<polygon fill="black" stroke="black" points="4048.42,-15.27 4038.43,-18.78 4048.43,-22.27 4048.42,-15.27"/>
</g>
<!-- :feature:main -->
<g id="node10" class="node">
<title>:feature:main</title>
<ellipse fill="none" stroke="black" cx="366.55" cy="-90" rx="73.39" ry="18"/>
<text text-anchor="middle" x="366.55" y="-86.3" font-family="Times,serif" font-size="14.00">:feature:main</text>
</g>
<!-- :app:shared&#45;&gt;:feature:main -->
<g id="edge11" class="edge">
<title>:app:shared&#45;&gt;:feature:main</title>
<path fill="none" stroke="black" d="M2933.86,-161.25C2585.56,-162.31 951.76,-164.18 449.55,-108 442.41,-107.2 434.98,-106.09 427.62,-104.81"/>
<polygon fill="black" stroke="black" points="428.14,-101.35 417.67,-102.98 426.88,-108.23 428.14,-101.35"/>
</g>
<!-- :feature:lmu&#45;windows&#45;connection -->
<g id="node11" class="node">
<title>:feature:lmu&#45;windows&#45;connection</title>
<ellipse fill="none" stroke="black" cx="622.55" cy="-90" rx="164.37" ry="18"/>
<text text-anchor="middle" x="622.55" y="-86.3" font-family="Times,serif" font-size="14.00">:feature:lmu&#45;windows&#45;connection</text>
</g>
<!-- :app:shared&#45;&gt;:feature:lmu&#45;windows&#45;connection -->
<g id="edge12" class="edge">
<title>:app:shared&#45;&gt;:feature:lmu&#45;windows&#45;connection</title>
<path fill="none" stroke="black" d="M2933.69,-161.18C2666.78,-161.52 1639.53,-159.25 796.55,-108 779.83,-106.98 762.24,-105.62 744.92,-104.1"/>
<polygon fill="black" stroke="black" points="745.04,-100.59 734.77,-103.18 744.42,-107.56 745.04,-100.59"/>
</g>
<!-- :feature:gt7&#45;ps5&#45;connection -->
<g id="node12" class="node">
<title>:feature:gt7&#45;ps5&#45;connection</title>
<ellipse fill="none" stroke="black" cx="943.55" cy="-90" rx="138.38" ry="18"/>
<text text-anchor="middle" x="943.55" y="-86.3" font-family="Times,serif" font-size="14.00">:feature:gt7&#45;ps5&#45;connection</text>
</g>
<!-- :app:shared&#45;&gt;:feature:gt7&#45;ps5&#45;connection -->
<g id="edge13" class="edge">
<title>:app:shared&#45;&gt;:feature:gt7&#45;ps5&#45;connection</title>
<path fill="none" stroke="black" d="M2933.96,-161.23C2690.08,-161.66 1812.54,-159.33 1091.55,-108 1077.61,-107.01 1062.96,-105.68 1048.52,-104.19"/>
<polygon fill="black" stroke="black" points="1048.88,-100.71 1038.57,-103.15 1048.15,-107.68 1048.88,-100.71"/>
</g>
<!-- :feature:server&#45;connection -->
<g id="node13" class="node">
<title>:feature:server&#45;connection</title>
<ellipse fill="none" stroke="black" cx="1233.55" cy="-90" rx="133.48" ry="18"/>
<text text-anchor="middle" x="1233.55" y="-86.3" font-family="Times,serif" font-size="14.00">:feature:server&#45;connection</text>
</g>
<!-- :app:shared&#45;&gt;:feature:server&#45;connection -->
<g id="edge14" class="edge">
<title>:app:shared&#45;&gt;:feature:server&#45;connection</title>
<path fill="none" stroke="black" d="M2933.73,-160.87C2713.2,-160.01 1980.25,-153.66 1376.55,-108 1363.21,-106.99 1349.19,-105.66 1335.37,-104.19"/>
<polygon fill="black" stroke="black" points="1335.68,-100.7 1325.36,-103.09 1334.92,-107.66 1335.68,-100.7"/>
</g>
<!-- :feature:lmu&#45;windows&#45;narrator -->
<g id="node14" class="node">
<title>:feature:lmu&#45;windows&#45;narrator</title>
<ellipse fill="none" stroke="black" cx="6905.55" cy="-90" rx="153.27" ry="18"/>
<text text-anchor="middle" x="6905.55" y="-86.3" font-family="Times,serif" font-size="14.00">:feature:lmu&#45;windows&#45;narrator</text>
</g>
<!-- :app:shared&#45;&gt;:feature:lmu&#45;windows&#45;narrator -->
<g id="edge15" class="edge">
<title>:app:shared&#45;&gt;:feature:lmu&#45;windows&#45;narrator</title>
<path fill="none" stroke="black" d="M3065.4,-160.88C3502.1,-159.94 5986.13,-152.71 6742.55,-108 6758.31,-107.07 6774.89,-105.74 6791.2,-104.24"/>
<polygon fill="black" stroke="black" points="6791.69,-107.71 6801.31,-103.28 6791.03,-100.74 6791.69,-107.71"/>
</g>
<!-- :feature:gt7&#45;ps5&#45;narrator -->
<g id="node15" class="node">
<title>:feature:gt7&#45;ps5&#45;narrator</title>
<ellipse fill="none" stroke="black" cx="1512.55" cy="-90" rx="127.28" ry="18"/>
<text text-anchor="middle" x="1512.55" y="-86.3" font-family="Times,serif" font-size="14.00">:feature:gt7&#45;ps5&#45;narrator</text>
</g>
<!-- :app:shared&#45;&gt;:feature:gt7&#45;ps5&#45;narrator -->
<g id="edge16" class="edge">
<title>:app:shared&#45;&gt;:feature:gt7&#45;ps5&#45;narrator</title>
<path fill="none" stroke="black" d="M2934.05,-160.41C2738.45,-158.21 2141.58,-148.41 1648.55,-108 1636.2,-106.99 1623.24,-105.68 1610.44,-104.25"/>
<polygon fill="black" stroke="black" points="1610.56,-100.74 1600.22,-103.07 1609.76,-107.69 1610.56,-100.74"/>
</g>
<!-- :feature:other&#45;license&#45;detail -->
<g id="node16" class="node">
<title>:feature:other&#45;license&#45;detail</title>
<ellipse fill="none" stroke="black" cx="1797.55" cy="-90" rx="139.98" ry="18"/>
<text text-anchor="middle" x="1797.55" y="-86.3" font-family="Times,serif" font-size="14.00">:feature:other&#45;license&#45;detail</text>
</g>
<!-- :app:shared&#45;&gt;:feature:other&#45;license&#45;detail -->
<g id="edge17" class="edge">
<title>:app:shared&#45;&gt;:feature:other&#45;license&#45;detail</title>
<path fill="none" stroke="black" d="M2934.44,-159.16C2769.14,-154.17 2319.84,-138.66 1946.55,-108 1933.08,-106.89 1918.95,-105.54 1904.97,-104.08"/>
<polygon fill="black" stroke="black" points="1905.15,-100.58 1894.84,-103 1904.41,-107.54 1905.15,-100.58"/>
</g>
<!-- :feature:other&#45;list -->
<g id="node17" class="node">
<title>:feature:other&#45;list</title>
<ellipse fill="none" stroke="black" cx="2048.55" cy="-90" rx="92.88" ry="18"/>
<text text-anchor="middle" x="2048.55" y="-86.3" font-family="Times,serif" font-size="14.00">:feature:other&#45;list</text>
</g>
<!-- :app:shared&#45;&gt;:feature:other&#45;list -->
<g id="edge18" class="edge">
<title>:app:shared&#45;&gt;:feature:other&#45;list</title>
<path fill="none" stroke="black" d="M2934.64,-159.22C2792.27,-154.83 2441.99,-141.29 2150.55,-108 2141.86,-107.01 2132.79,-105.78 2123.8,-104.44"/>
<polygon fill="black" stroke="black" points="2124.12,-100.95 2113.7,-102.88 2123.05,-107.86 2124.12,-100.95"/>
</g>
<!-- :feature:other&#45;server&#45;ip&#45;detail -->
<g id="node18" class="node">
<title>:feature:other&#45;server&#45;ip&#45;detail</title>
<ellipse fill="none" stroke="black" cx="2308.55" cy="-90" rx="148.67" ry="18"/>
<text text-anchor="middle" x="2308.55" y="-86.3" font-family="Times,serif" font-size="14.00">:feature:other&#45;server&#45;ip&#45;detail</text>
</g>
<!-- :app:shared&#45;&gt;:feature:other&#45;server&#45;ip&#45;detail -->
<g id="edge19" class="edge">
<title>:app:shared&#45;&gt;:feature:other&#45;server&#45;ip&#45;detail</title>
<path fill="none" stroke="black" d="M2938.78,-155.12C2839.81,-145.5 2637.67,-125.71 2466.55,-108 2453.19,-106.62 2439.19,-105.15 2425.29,-103.67"/>
<polygon fill="black" stroke="black" points="2425.51,-100.17 2415.2,-102.59 2424.77,-107.13 2425.51,-100.17"/>
</g>
<!-- :feature:other&#45;console&#45;ip&#45;detail -->
<g id="node19" class="node">
<title>:feature:other&#45;console&#45;ip&#45;detail</title>
<ellipse fill="none" stroke="black" cx="2628.55" cy="-90" rx="153.27" ry="18"/>
<text text-anchor="middle" x="2628.55" y="-86.3" font-family="Times,serif" font-size="14.00">:feature:other&#45;console&#45;ip&#45;detail</text>
</g>
<!-- :app:shared&#45;&gt;:feature:other&#45;console&#45;ip&#45;detail -->
<g id="edge20" class="edge">
<title>:app:shared&#45;&gt;:feature:other&#45;console&#45;ip&#45;detail</title>
<path fill="none" stroke="black" d="M2947.18,-151.12C2887.09,-139.78 2787.6,-121.01 2715.76,-107.46"/>
<polygon fill="black" stroke="black" points="2716.29,-103.99 2705.82,-105.58 2714.99,-110.87 2716.29,-103.99"/>
</g>
<!-- :feature:other&#45;readout&#45;start&#45;sound&#45;detail -->
<g id="node20" class="node">
<title>:feature:other&#45;readout&#45;start&#45;sound&#45;detail</title>
<ellipse fill="none" stroke="black" cx="2999.55" cy="-90" rx="199.56" ry="18"/>
<text text-anchor="middle" x="2999.55" y="-86.3" font-family="Times,serif" font-size="14.00">:feature:other&#45;readout&#45;start&#45;sound&#45;detail</text>
</g>
<!-- :app:shared&#45;&gt;:feature:other&#45;readout&#45;start&#45;sound&#45;detail -->
<g id="edge21" class="edge">
<title>:app:shared&#45;&gt;:feature:other&#45;readout&#45;start&#45;sound&#45;detail</title>
<path fill="none" stroke="black" d="M2999.55,-143.7C2999.55,-135.98 2999.55,-126.71 2999.55,-118.11"/>
<polygon fill="black" stroke="black" points="3003.05,-118.1 2999.55,-108.1 2996.05,-118.1 3003.05,-118.1"/>
</g>
<!-- :feature:other&#45;volume&#45;detail -->
<g id="node21" class="node">
<title>:feature:other&#45;volume&#45;detail</title>
<ellipse fill="none" stroke="black" cx="3358.55" cy="-90" rx="141.07" ry="18"/>
<text text-anchor="middle" x="3358.55" y="-86.3" font-family="Times,serif" font-size="14.00">:feature:other&#45;volume&#45;detail</text>
</g>
<!-- :app:shared&#45;&gt;:feature:other&#45;volume&#45;detail -->
<g id="edge22" class="edge">
<title>:app:shared&#45;&gt;:feature:other&#45;volume&#45;detail</title>
<path fill="none" stroke="black" d="M3051.36,-150.9C3109.76,-139.51 3205.52,-120.84 3274.62,-107.37"/>
<polygon fill="black" stroke="black" points="3275.46,-110.77 3284.61,-105.42 3274.12,-103.9 3275.46,-110.77"/>
</g>
<!-- :feature:telemetry&#45;log&#45;list -->
<g id="node22" class="node">
<title>:feature:telemetry&#45;log&#45;list</title>
<ellipse fill="none" stroke="black" cx="3647.55" cy="-90" rx="129.98" ry="18"/>
<text text-anchor="middle" x="3647.55" y="-86.3" font-family="Times,serif" font-size="14.00">:feature:telemetry&#45;log&#45;list</text>
</g>
<!-- :app:shared&#45;&gt;:feature:telemetry&#45;log&#45;list -->
<g id="edge23" class="edge">
<title>:app:shared&#45;&gt;:feature:telemetry&#45;log&#45;list</title>
<path fill="none" stroke="black" d="M3060.31,-155.03C3155.79,-145.57 3346.77,-126.31 3508.55,-108 3520.15,-106.69 3532.3,-105.27 3544.37,-103.83"/>
<polygon fill="black" stroke="black" points="3544.97,-107.28 3554.49,-102.62 3544.14,-100.33 3544.97,-107.28"/>
</g>
<!-- :feature:telemetry&#45;log&#45;detail -->
<g id="node23" class="node">
<title>:feature:telemetry&#45;log&#45;detail</title>
<ellipse fill="none" stroke="black" cx="3937.55" cy="-90" rx="141.88" ry="18"/>
<text text-anchor="middle" x="3937.55" y="-86.3" font-family="Times,serif" font-size="14.00">:feature:telemetry&#45;log&#45;detail</text>
</g>
<!-- :app:shared&#45;&gt;:feature:telemetry&#45;log&#45;detail -->
<g id="edge24" class="edge">
<title>:app:shared&#45;&gt;:feature:telemetry&#45;log&#45;detail</title>
<path fill="none" stroke="black" d="M3063.38,-157.67C3197.47,-150.48 3518.2,-132.13 3786.55,-108 3799.97,-106.79 3814.05,-105.39 3828,-103.92"/>
<polygon fill="black" stroke="black" points="3828.54,-107.38 3838.11,-102.84 3827.8,-100.42 3828.54,-107.38"/>
</g>
<!-- :feature:readout&#45;list -->
<g id="node24" class="node">
<title>:feature:readout&#45;list</title>
<ellipse fill="none" stroke="black" cx="4201.55" cy="-90" rx="103.98" ry="18"/>
<text text-anchor="middle" x="4201.55" y="-86.3" font-family="Times,serif" font-size="14.00">:feature:readout&#45;list</text>
</g>
<!-- :app:shared&#45;&gt;:feature:readout&#45;list -->
<g id="edge25" class="edge">
<title>:app:shared&#45;&gt;:feature:readout&#45;list</title>
<path fill="none" stroke="black" d="M3065.08,-160.11C3234.67,-157.3 3701.7,-146.41 4088.55,-108 4098.47,-107.01 4108.85,-105.76 4119.12,-104.38"/>
<polygon fill="black" stroke="black" points="4119.92,-107.81 4129.34,-102.97 4118.96,-100.87 4119.92,-107.81"/>
</g>
<!-- :feature:lmu&#45;windows&#45;readout&#45;vehicle&#45;approach&#45;detail -->
<g id="node25" class="node">
<title>:feature:lmu&#45;windows&#45;readout&#45;vehicle&#45;approach&#45;detail</title>
<ellipse fill="none" stroke="black" cx="4584.55" cy="-90" rx="260.75" ry="18"/>
<text text-anchor="middle" x="4584.55" y="-86.3" font-family="Times,serif" font-size="14.00">:feature:lmu&#45;windows&#45;readout&#45;vehicle&#45;approach&#45;detail</text>
</g>
<!-- :app:shared&#45;&gt;:feature:lmu&#45;windows&#45;readout&#45;vehicle&#45;approach&#45;detail -->
<g id="edge26" class="edge">
<title>:app:shared&#45;&gt;:feature:lmu&#45;windows&#45;readout&#45;vehicle&#45;approach&#45;detail</title>
<path fill="none" stroke="black" d="M3064.22,-158.91C3255.4,-152.63 3834.51,-132.78 4314.55,-108 4340.02,-106.68 4366.84,-105.16 4393.28,-103.58"/>
<polygon fill="black" stroke="black" points="4393.63,-107.07 4403.4,-102.97 4393.21,-100.08 4393.63,-107.07"/>
</g>
<!-- :feature:lmu&#45;windows&#45;readout&#45;flag&#45;detail -->
<g id="node26" class="node">
<title>:feature:lmu&#45;windows&#45;readout&#45;flag&#45;detail</title>
<ellipse fill="none" stroke="black" cx="5062.55" cy="-90" rx="199.56" ry="18"/>
<text text-anchor="middle" x="5062.55" y="-86.3" font-family="Times,serif" font-size="14.00">:feature:lmu&#45;windows&#45;readout&#45;flag&#45;detail</text>
</g>
<!-- :app:shared&#45;&gt;:feature:lmu&#45;windows&#45;readout&#45;flag&#45;detail -->
<g id="edge27" class="edge">
<title>:app:shared&#45;&gt;:feature:lmu&#45;windows&#45;readout&#45;flag&#45;detail</title>
<path fill="none" stroke="black" d="M3065.32,-160.38C3305.09,-157.86 4154.87,-146.56 4854.55,-108 4874.52,-106.9 4895.56,-105.48 4916.26,-103.94"/>
<polygon fill="black" stroke="black" points="4916.69,-107.41 4926.4,-103.17 4916.16,-100.43 4916.69,-107.41"/>
</g>
<!-- :feature:lmu&#45;windows&#45;readout&#45;vehicle&#45;damage&#45;detail -->
<g id="node27" class="node">
<title>:feature:lmu&#45;windows&#45;readout&#45;vehicle&#45;damage&#45;detail</title>
<ellipse fill="none" stroke="black" cx="5534.55" cy="-90" rx="254.55" ry="18"/>
<text text-anchor="middle" x="5534.55" y="-86.3" font-family="Times,serif" font-size="14.00">:feature:lmu&#45;windows&#45;readout&#45;vehicle&#45;damage&#45;detail</text>
</g>
<!-- :app:shared&#45;&gt;:feature:lmu&#45;windows&#45;readout&#45;vehicle&#45;damage&#45;detail -->
<g id="edge28" class="edge">
<title>:app:shared&#45;&gt;:feature:lmu&#45;windows&#45;readout&#45;vehicle&#45;damage&#45;detail</title>
<path fill="none" stroke="black" d="M3065.1,-160.46C3336.53,-158.01 4398.95,-146.36 5271.55,-108 5297.28,-106.87 5324.42,-105.41 5351.1,-103.83"/>
<polygon fill="black" stroke="black" points="5351.53,-107.31 5361.3,-103.22 5351.11,-100.32 5351.53,-107.31"/>
</g>
<!-- :feature:gt7&#45;ps5&#45;readout&#45;my&#45;bestlap&#45;detail -->
<g id="node28" class="node">
<title>:feature:gt7&#45;ps5&#45;readout&#45;my&#45;bestlap&#45;detail</title>
<ellipse fill="none" stroke="black" cx="6015.55" cy="-90" rx="207.96" ry="18"/>
<text text-anchor="middle" x="6015.55" y="-86.3" font-family="Times,serif" font-size="14.00">:feature:gt7&#45;ps5&#45;readout&#45;my&#45;bestlap&#45;detail</text>
</g>
<!-- :app:shared&#45;&gt;:feature:gt7&#45;ps5&#45;readout&#45;my&#45;bestlap&#45;detail -->
<g id="edge29" class="edge">
<title>:app:shared&#45;&gt;:feature:gt7&#45;ps5&#45;readout&#45;my&#45;bestlap&#45;detail</title>
<path fill="none" stroke="black" d="M3065.2,-161.19C3373.33,-161.8 4706.89,-161.05 5798.55,-108 5819.9,-106.96 5842.42,-105.55 5864.54,-103.99"/>
<polygon fill="black" stroke="black" points="5864.95,-107.47 5874.67,-103.26 5864.45,-100.48 5864.95,-107.47"/>
</g>
<!-- :feature:gt7&#45;ps5&#45;readout&#45;remaining&#45;fuel&#45;laps&#45;detail -->
<g id="node29" class="node">
<title>:feature:gt7&#45;ps5&#45;readout&#45;remaining&#45;fuel&#45;laps&#45;detail</title>
<ellipse fill="none" stroke="black" cx="6487.55" cy="-90" rx="246.16" ry="18"/>
<text text-anchor="middle" x="6487.55" y="-86.3" font-family="Times,serif" font-size="14.00">:feature:gt7&#45;ps5&#45;readout&#45;remaining&#45;fuel&#45;laps&#45;detail</text>
</g>
<!-- :app:shared&#45;&gt;:feature:gt7&#45;ps5&#45;readout&#45;remaining&#45;fuel&#45;laps&#45;detail -->
<g id="edge30" class="edge">
<title>:app:shared&#45;&gt;:feature:gt7&#45;ps5&#45;readout&#45;remaining&#45;fuel&#45;laps&#45;detail</title>
<path fill="none" stroke="black" d="M3065.32,-161.15C3401.22,-161.64 4959,-160.86 6232.55,-108 6258,-106.94 6284.86,-105.51 6311.22,-103.91"/>
<polygon fill="black" stroke="black" points="6311.53,-107.4 6321.29,-103.29 6311.1,-100.41 6311.53,-107.4"/>
</g>
<!-- :core:data&#45;&gt;:core:domain -->
<g id="edge32" class="edge">
<title>:core:data&#45;&gt;:core:domain</title>
<path fill="none" stroke="black" d="M588.18,-149.51C580.05,-147.49 571.56,-145.54 563.55,-144 437.79,-119.79 195.1,-163.65 284.55,-72 321.99,-33.64 1997.21,-21.7 2387.76,-19.43"/>
<polygon fill="black" stroke="black" points="2387.87,-22.93 2397.85,-19.37 2387.83,-15.93 2387.87,-22.93"/>
</g>
<!-- :core:gt7&#45;ps5&#45;data&#45;&gt;:core:domain -->
<g id="edge33" class="edge">
<title>:core:gt7&#45;ps5&#45;data&#45;&gt;:core:domain</title>
<path fill="none" stroke="black" d="M397.43,-148.32C342.59,-136.5 270.05,-119.08 261.55,-108 251.8,-95.31 250.37,-83.45 261.55,-72 299.41,-33.22 1994.1,-21.59 2387.56,-19.41"/>
<polygon fill="black" stroke="black" points="2387.74,-22.91 2397.72,-19.35 2387.7,-15.91 2387.74,-22.91"/>
</g>
<!-- :app:desktopApp -->
<g id="node7" class="node">
<title>:app:desktopApp</title>
<ellipse fill="none" stroke="black" cx="447.55" cy="-234" rx="88.28" ry="18"/>
<text text-anchor="middle" x="447.55" y="-230.3" font-family="Times,serif" font-size="14.00">:app:desktopApp</text>
</g>
<!-- :app:desktopApp&#45;&gt;:server -->
<g id="edge9" class="edge">
<title>:app:desktopApp&#45;&gt;:server</title>
<path fill="none" stroke="black" d="M370.28,-225.12C298.49,-216.91 188.9,-202.13 95.55,-180 92.16,-179.2 88.68,-178.28 85.21,-177.29"/>
<polygon fill="black" stroke="black" points="86.07,-173.89 75.49,-174.37 84.05,-180.6 86.07,-173.89"/>
</g>
<!-- :app:desktopApp&#45;&gt;:app:shared -->
<g id="edge5" class="edge">
<title>:app:desktopApp&#45;&gt;:app:shared</title>
<path fill="none" stroke="black" d="M508.41,-220.88C520.35,-218.91 532.81,-217.15 544.55,-216 1022.97,-169.19 2563.67,-163.72 2923.77,-163.08"/>
<polygon fill="black" stroke="black" points="2923.83,-166.58 2933.83,-163.07 2923.82,-159.58 2923.83,-166.58"/>
</g>
<!-- :app:desktopApp&#45;&gt;:core:data -->
<g id="edge6" class="edge">
<title>:app:desktopApp&#45;&gt;:core:data</title>
<path fill="none" stroke="black" d="M487.04,-217.81C516,-206.67 555.34,-191.54 585.35,-180"/>
<polygon fill="black" stroke="black" points="586.66,-183.24 594.74,-176.39 584.15,-176.71 586.66,-183.24"/>
</g>
<!-- :app:desktopApp&#45;&gt;:core:gt7&#45;ps5&#45;data -->
<g id="edge8" class="edge">
<title>:app:desktopApp&#45;&gt;:core:gt7&#45;ps5&#45;data</title>
<path fill="none" stroke="black" d="M450.51,-215.7C451.83,-207.98 453.42,-198.71 454.9,-190.11"/>
<polygon fill="black" stroke="black" points="458.37,-190.55 456.61,-180.1 451.47,-189.37 458.37,-190.55"/>
</g>
<!-- :core:lmu&#45;windows&#45;data -->
<g id="node8" class="node">
<title>:core:lmu&#45;windows&#45;data</title>
<ellipse fill="none" stroke="black" cx="225.55" cy="-162" rx="120.78" ry="18"/>
<text text-anchor="middle" x="225.55" y="-158.3" font-family="Times,serif" font-size="14.00">:core:lmu&#45;windows&#45;data</text>
</g>
<!-- :app:desktopApp&#45;&gt;:core:lmu&#45;windows&#45;data -->
<g id="edge7" class="edge">
<title>:app:desktopApp&#45;&gt;:core:lmu&#45;windows&#45;data</title>
<path fill="none" stroke="black" d="M401.82,-218.58C367.79,-207.85 321.08,-193.12 284.29,-181.52"/>
<polygon fill="black" stroke="black" points="285.27,-178.16 274.68,-178.49 283.17,-184.84 285.27,-178.16"/>
</g>
<!-- :core:lmu&#45;windows&#45;data&#45;&gt;:core:domain -->
<g id="edge34" class="edge">
<title>:core:lmu&#45;windows&#45;data&#45;&gt;:core:domain</title>
<path fill="none" stroke="black" d="M224.82,-143.65C225,-122.89 228.87,-88.84 250.55,-72 293.57,-38.58 1993.82,-22.83 2387.68,-19.62"/>
<polygon fill="black" stroke="black" points="2387.88,-23.12 2397.85,-19.54 2387.82,-16.12 2387.88,-23.12"/>
</g>
<!-- :feature:main&#45;&gt;:core:domain -->
<g id="edge51" class="edge">
<title>:feature:main&#45;&gt;:core:domain</title>
<path fill="none" stroke="black" d="M417.68,-77.06C428.17,-75.03 439.17,-73.19 449.55,-72 834.55,-27.87 2059.88,-20.43 2387.4,-19.23"/>
<polygon fill="black" stroke="black" points="2387.76,-22.72 2397.75,-19.19 2387.74,-15.72 2387.76,-22.72"/>
</g>
<!-- :feature:lmu&#45;windows&#45;connection&#45;&gt;:core:domain -->
<g id="edge42" class="edge">
<title>:feature:lmu&#45;windows&#45;connection&#45;&gt;:core:domain</title>
<path fill="none" stroke="black" d="M735.71,-76.86C755.95,-74.99 776.86,-73.27 796.55,-72 1407.26,-32.53 2145.44,-22.13 2387.45,-19.68"/>
<polygon fill="black" stroke="black" points="2387.61,-23.18 2397.57,-19.58 2387.54,-16.18 2387.61,-23.18"/>
</g>
<!-- :feature:gt7&#45;ps5&#45;connection&#45;&gt;:core:domain -->
<g id="edge35" class="edge">
<title>:feature:gt7&#45;ps5&#45;connection&#45;&gt;:core:domain</title>
<path fill="none" stroke="black" d="M1039.38,-76.92C1056.72,-75.04 1074.66,-73.29 1091.55,-72 1582.94,-34.38 2175.14,-22.98 2387.72,-19.97"/>
<polygon fill="black" stroke="black" points="2387.91,-23.47 2397.86,-19.83 2387.81,-16.47 2387.91,-23.47"/>
</g>
<!-- :feature:server&#45;connection&#45;&gt;:core:domain -->
<g id="edge66" class="edge">
<title>:feature:server&#45;connection&#45;&gt;:core:domain</title>
<path fill="none" stroke="black" d="M1326.14,-77.04C1342.9,-75.14 1360.23,-73.36 1376.55,-72 1754.36,-40.41 2207.41,-25.85 2388.27,-20.98"/>
<polygon fill="black" stroke="black" points="2388.59,-24.47 2398.49,-20.7 2388.4,-17.47 2388.59,-24.47"/>
</g>
<!-- :feature:lmu&#45;windows&#45;narrator&#45;&gt;:core:domain -->
<g id="edge43" class="edge">
<title>:feature:lmu&#45;windows&#45;narrator&#45;&gt;:core:domain</title>
<path fill="none" stroke="black" d="M6801.75,-76.74C6782.11,-74.83 6761.72,-73.12 6742.55,-72 6095.81,-34.36 4475.32,-44.05 3827.55,-36 3342.38,-29.97 2759.79,-22.66 2549.32,-20.01"/>
<polygon fill="black" stroke="black" points="2549.33,-16.51 2539.29,-19.89 2549.24,-23.51 2549.33,-16.51"/>
</g>
<!-- :feature:lmu&#45;windows&#45;narrator&#45;&gt;:core:designsystem -->
<g id="edge44" class="edge">
<title>:feature:lmu&#45;windows&#45;narrator&#45;&gt;:core:designsystem</title>
<path fill="none" stroke="black" d="M6800.87,-76.75C6781.5,-74.87 6761.43,-73.16 6742.55,-72 6204.44,-38.92 4499.46,-23.42 4048.08,-19.83"/>
<polygon fill="black" stroke="black" points="4048,-16.33 4037.97,-19.75 4047.94,-23.33 4048,-16.33"/>
</g>
<!-- :feature:gt7&#45;ps5&#45;narrator&#45;&gt;:core:domain -->
<g id="edge36" class="edge">
<title>:feature:gt7&#45;ps5&#45;narrator&#45;&gt;:core:domain</title>
<path fill="none" stroke="black" d="M1601.71,-77.08C1617.3,-75.22 1633.39,-73.44 1648.55,-72 1919.69,-46.31 2242.48,-29.46 2389.07,-22.55"/>
<polygon fill="black" stroke="black" points="2389.5,-26.04 2399.32,-22.07 2389.17,-19.05 2389.5,-26.04"/>
</g>
<!-- :feature:gt7&#45;ps5&#45;narrator&#45;&gt;:core:designsystem -->
<g id="edge37" class="edge">
<title>:feature:gt7&#45;ps5&#45;narrator&#45;&gt;:core:designsystem</title>
<path fill="none" stroke="black" d="M1599.48,-76.8C1615.75,-74.9 1632.65,-73.17 1648.55,-72 2079.66,-40.15 3430.5,-24.16 3827.06,-20.07"/>
<polygon fill="black" stroke="black" points="3827.13,-23.57 3837.1,-19.97 3827.06,-16.57 3827.13,-23.57"/>
</g>
<!-- :feature:other&#45;license&#45;detail&#45;&gt;:core:domain -->
<g id="edge54" class="edge">
<title>:feature:other&#45;license&#45;detail&#45;&gt;:core:domain</title>
<path fill="none" stroke="black" d="M1897.71,-77.4C1914.03,-75.56 1930.76,-73.7 1946.55,-72 2105.47,-54.87 2291.78,-36.32 2393.26,-26.35"/>
<polygon fill="black" stroke="black" points="2393.81,-29.81 2403.42,-25.35 2393.12,-22.84 2393.81,-29.81"/>
</g>
<!-- :feature:other&#45;license&#45;detail&#45;&gt;:core:designsystem -->
<g id="edge55" class="edge">
<title>:feature:other&#45;license&#45;detail&#45;&gt;:core:designsystem</title>
<path fill="none" stroke="black" d="M1893.22,-76.84C1910.92,-74.94 1929.27,-73.21 1946.55,-72 2661.7,-21.78 3524.41,-18.14 3826.58,-18.57"/>
<polygon fill="black" stroke="black" points="3826.65,-22.07 3836.65,-18.59 3826.66,-15.07 3826.65,-22.07"/>
</g>
<!-- :feature:other&#45;list&#45;&gt;:core:domain -->
<g id="edge56" class="edge">
<title>:feature:other&#45;list&#45;&gt;:core:domain</title>
<path fill="none" stroke="black" d="M2116.49,-77.68C2194.82,-64.62 2322.77,-43.3 2400.94,-30.27"/>
<polygon fill="black" stroke="black" points="2401.87,-33.66 2411.16,-28.56 2400.72,-26.76 2401.87,-33.66"/>
</g>
<!-- :feature:other&#45;list&#45;&gt;:core:designsystem -->
<g id="edge57" class="edge">
<title>:feature:other&#45;list&#45;&gt;:core:designsystem</title>
<path fill="none" stroke="black" d="M2112.85,-76.92C2125.31,-74.97 2138.31,-73.2 2150.55,-72 2478.26,-39.98 3490.3,-24.63 3827.19,-20.31"/>
<polygon fill="black" stroke="black" points="3827.48,-23.81 3837.44,-20.18 3827.39,-16.81 3827.48,-23.81"/>
</g>
<!-- :feature:other&#45;server&#45;ip&#45;detail&#45;&gt;:core:domain -->
<g id="edge60" class="edge">
<title>:feature:other&#45;server&#45;ip&#45;detail&#45;&gt;:core:domain</title>
<path fill="none" stroke="black" d="M2346.46,-72.41C2370.04,-62.1 2400.43,-48.8 2425,-38.05"/>
<polygon fill="black" stroke="black" points="2426.68,-41.14 2434.44,-33.92 2423.88,-34.72 2426.68,-41.14"/>
</g>
<!-- :feature:other&#45;server&#45;ip&#45;detail&#45;&gt;:core:designsystem -->
<g id="edge61" class="edge">
<title>:feature:other&#45;server&#45;ip&#45;detail&#45;&gt;:core:designsystem</title>
<path fill="none" stroke="black" d="M2410.87,-76.92C2429.38,-75.04 2448.52,-73.29 2466.55,-72 2973.82,-35.62 3581.4,-23.77 3826.74,-20.3"/>
<polygon fill="black" stroke="black" points="3827.14,-23.8 3837.09,-20.16 3827.04,-16.8 3827.14,-23.8"/>
</g>
<!-- :feature:other&#45;console&#45;ip&#45;detail&#45;&gt;:core:domain -->
<g id="edge52" class="edge">
<title>:feature:other&#45;console&#45;ip&#45;detail&#45;&gt;:core:domain</title>
<path fill="none" stroke="black" d="M2590.63,-72.41C2567.05,-62.1 2536.66,-48.8 2512.09,-38.05"/>
<polygon fill="black" stroke="black" points="2513.22,-34.72 2502.65,-33.92 2510.41,-41.14 2513.22,-34.72"/>
</g>
<!-- :feature:other&#45;console&#45;ip&#45;detail&#45;&gt;:core:designsystem -->
<g id="edge53" class="edge">
<title>:feature:other&#45;console&#45;ip&#45;detail&#45;&gt;:core:designsystem</title>
<path fill="none" stroke="black" d="M2734.78,-76.96C2753.35,-75.11 2772.5,-73.36 2790.55,-72 3171.48,-43.24 3624.86,-27.84 3828.74,-21.91"/>
<polygon fill="black" stroke="black" points="3828.96,-25.41 3838.85,-21.62 3828.75,-18.41 3828.96,-25.41"/>
</g>
<!-- :feature:other&#45;readout&#45;start&#45;sound&#45;detail&#45;&gt;:core:domain -->
<g id="edge58" class="edge">
<title>:feature:other&#45;readout&#45;start&#45;sound&#45;detail&#45;&gt;:core:domain</title>
<path fill="none" stroke="black" d="M2891.77,-74.79C2786.84,-60.96 2630.34,-40.33 2539.96,-28.41"/>
<polygon fill="black" stroke="black" points="2540.19,-24.91 2529.81,-27.08 2539.27,-31.85 2540.19,-24.91"/>
</g>
<!-- :feature:other&#45;readout&#45;start&#45;sound&#45;detail&#45;&gt;:core:designsystem -->
<g id="edge59" class="edge">
<title>:feature:other&#45;readout&#45;start&#45;sound&#45;detail&#45;&gt;:core:designsystem</title>
<path fill="none" stroke="black" d="M3141.19,-77.31C3163.72,-75.5 3186.77,-73.68 3208.55,-72 3432.11,-54.78 3694.37,-36.08 3835.39,-26.15"/>
<polygon fill="black" stroke="black" points="3836.02,-29.61 3845.75,-25.42 3835.53,-22.63 3836.02,-29.61"/>
</g>
<!-- :feature:other&#45;volume&#45;detail&#45;&gt;:core:domain -->
<g id="edge62" class="edge">
<title>:feature:other&#45;volume&#45;detail&#45;&gt;:core:domain</title>
<path fill="none" stroke="black" d="M3259.36,-77.17C3242.42,-75.32 3224.99,-73.52 3208.55,-72 2967.77,-49.74 2682.17,-31.63 2546.98,-23.55"/>
<polygon fill="black" stroke="black" points="2546.91,-20.04 2536.72,-22.94 2546.5,-27.03 2546.91,-20.04"/>
</g>
<!-- :feature:other&#45;volume&#45;detail&#45;&gt;:core:designsystem -->
<g id="edge63" class="edge">
<title>:feature:other&#45;volume&#45;detail&#45;&gt;:core:designsystem</title>
<path fill="none" stroke="black" d="M3457.09,-77.09C3566.23,-63.89 3740.74,-42.79 3846.69,-29.98"/>
<polygon fill="black" stroke="black" points="3847.21,-33.45 3856.72,-28.77 3846.37,-26.5 3847.21,-33.45"/>
</g>
<!-- :feature:telemetry&#45;log&#45;list&#45;&gt;:core:domain -->
<g id="edge69" class="edge">
<title>:feature:telemetry&#45;log&#45;list&#45;&gt;:core:domain</title>
<path fill="none" stroke="black" d="M3557.17,-77.01C3541,-75.13 3524.29,-73.36 3508.55,-72 3151.37,-41.1 2723.52,-26.27 2548.8,-21.15"/>
<polygon fill="black" stroke="black" points="2548.75,-17.65 2538.66,-20.86 2548.55,-24.65 2548.75,-17.65"/>
</g>
<!-- :feature:telemetry&#45;log&#45;list&#45;&gt;:core:designsystem -->
<g id="edge70" class="edge">
<title>:feature:telemetry&#45;log&#45;list&#45;&gt;:core:designsystem</title>
<path fill="none" stroke="black" d="M3709.4,-74.07C3756.71,-62.65 3821.86,-46.92 3870.43,-35.2"/>
<polygon fill="black" stroke="black" points="3871.32,-38.59 3880.22,-32.84 3869.68,-31.78 3871.32,-38.59"/>
</g>
<!-- :feature:telemetry&#45;log&#45;detail&#45;&gt;:core:domain -->
<g id="edge67" class="edge">
<title>:feature:telemetry&#45;log&#45;detail&#45;&gt;:core:domain</title>
<path fill="none" stroke="black" d="M3839.77,-76.95C3822.07,-75.07 3803.78,-73.31 3786.55,-72 3318.64,-36.3 2755.33,-23.79 2549.15,-20.22"/>
<polygon fill="black" stroke="black" points="2549.08,-16.72 2539.02,-20.05 2548.96,-23.72 2549.08,-16.72"/>
</g>
<!-- :feature:telemetry&#45;log&#45;detail&#45;&gt;:core:designsystem -->
<g id="edge68" class="edge">
<title>:feature:telemetry&#45;log&#45;detail&#45;&gt;:core:designsystem</title>
<path fill="none" stroke="black" d="M3937.55,-71.7C3937.55,-63.98 3937.55,-54.71 3937.55,-46.11"/>
<polygon fill="black" stroke="black" points="3941.05,-46.1 3937.55,-36.1 3934.05,-46.1 3941.05,-46.1"/>
</g>
<!-- :feature:readout&#45;list&#45;&gt;:core:domain -->
<g id="edge64" class="edge">
<title>:feature:readout&#45;list&#45;&gt;:core:domain</title>
<path fill="none" stroke="black" d="M4129.66,-76.9C4116.04,-74.97 4101.88,-73.22 4088.55,-72 3500.04,-18.29 2786.92,-17.03 2549.65,-18.32"/>
<polygon fill="black" stroke="black" points="2549.37,-14.82 2539.39,-18.38 2549.41,-21.82 2549.37,-14.82"/>
</g>
<!-- :feature:readout&#45;list&#45;&gt;:core:designsystem -->
<g id="edge65" class="edge">
<title>:feature:readout&#45;list&#45;&gt;:core:designsystem</title>
<path fill="none" stroke="black" d="M4147.17,-74.58C4104.79,-63.34 4045.85,-47.72 4001.26,-35.89"/>
<polygon fill="black" stroke="black" points="4001.97,-32.46 3991.4,-33.28 4000.17,-39.23 4001.97,-32.46"/>
</g>
<!-- :feature:lmu&#45;windows&#45;readout&#45;vehicle&#45;approach&#45;detail&#45;&gt;:core:domain -->
<g id="edge47" class="edge">
<title>:feature:lmu&#45;windows&#45;readout&#45;vehicle&#45;approach&#45;detail&#45;&gt;:core:domain</title>
<path fill="none" stroke="black" d="M4405.59,-76.87C4375.22,-75.06 4343.99,-73.35 4314.55,-72 3631.86,-40.72 2806.25,-24.78 2549,-20.33"/>
<polygon fill="black" stroke="black" points="2549.06,-16.83 2539,-20.16 2548.94,-23.83 2549.06,-16.83"/>
</g>
<!-- :feature:lmu&#45;windows&#45;readout&#45;vehicle&#45;approach&#45;detail&#45;&gt;:core:designsystem -->
<g id="edge48" class="edge">
<title>:feature:lmu&#45;windows&#45;readout&#45;vehicle&#45;approach&#45;detail&#45;&gt;:core:designsystem</title>
<path fill="none" stroke="black" d="M4450.88,-74.54C4325.65,-60.99 4141.68,-41.09 4031.35,-29.15"/>
<polygon fill="black" stroke="black" points="4031.55,-25.65 4021.24,-28.05 4030.8,-32.61 4031.55,-25.65"/>
</g>
<!-- :feature:lmu&#45;windows&#45;readout&#45;flag&#45;detail&#45;&gt;:core:domain -->
<g id="edge45" class="edge">
<title>:feature:lmu&#45;windows&#45;readout&#45;flag&#45;detail&#45;&gt;:core:domain</title>
<path fill="none" stroke="black" d="M4927.24,-76.77C4903.05,-74.92 4878.06,-73.22 4854.55,-72 4391.04,-47.93 2911.46,-25.4 2549.18,-20.15"/>
<polygon fill="black" stroke="black" points="2549.1,-16.65 2539.05,-20 2548.99,-23.64 2549.1,-16.65"/>
</g>
<!-- :feature:lmu&#45;windows&#45;readout&#45;flag&#45;detail&#45;&gt;:core:designsystem -->
<g id="edge46" class="edge">
<title>:feature:lmu&#45;windows&#45;readout&#45;flag&#45;detail&#45;&gt;:core:designsystem</title>
<path fill="none" stroke="black" d="M4922.72,-77.11C4899.94,-75.31 4876.59,-73.54 4854.55,-72 4560.93,-51.52 4214.02,-33.02 4043.3,-24.29"/>
<polygon fill="black" stroke="black" points="4043.47,-20.8 4033.31,-23.78 4043.11,-27.79 4043.47,-20.8"/>
</g>
<!-- :feature:lmu&#45;windows&#45;readout&#45;vehicle&#45;damage&#45;detail&#45;&gt;:core:domain -->
<g id="edge49" class="edge">
<title>:feature:lmu&#45;windows&#45;readout&#45;vehicle&#45;damage&#45;detail&#45;&gt;:core:domain</title>
<path fill="none" stroke="black" d="M5362.01,-76.72C5331.87,-74.89 5300.8,-73.22 5271.55,-72 4720.55,-48.99 2948.69,-25.19 2549.11,-20.03"/>
<polygon fill="black" stroke="black" points="2549.13,-16.53 2539.09,-19.9 2549.04,-23.53 2549.13,-16.53"/>
</g>
<!-- :feature:lmu&#45;windows&#45;readout&#45;vehicle&#45;damage&#45;detail&#45;&gt;:core:designsystem -->
<g id="edge50" class="edge">
<title>:feature:lmu&#45;windows&#45;readout&#45;vehicle&#45;damage&#45;detail&#45;&gt;:core:designsystem</title>
<path fill="none" stroke="black" d="M5358.1,-76.99C5329.18,-75.19 5299.53,-73.46 5271.55,-72 4816.48,-48.26 4273.59,-29.72 4046.17,-22.4"/>
<polygon fill="black" stroke="black" points="4046.01,-18.89 4035.91,-22.07 4045.79,-25.89 4046.01,-18.89"/>
</g>
<!-- :feature:gt7&#45;ps5&#45;readout&#45;my&#45;bestlap&#45;detail&#45;&gt;:core:domain -->
<g id="edge38" class="edge">
<title>:feature:gt7&#45;ps5&#45;readout&#45;my&#45;bestlap&#45;detail&#45;&gt;:core:domain</title>
<path fill="none" stroke="black" d="M5874.97,-76.7C5849.55,-74.85 5823.27,-73.16 5798.55,-72 5465.3,-56.31 3026.32,-25.83 2549.33,-19.98"/>
<polygon fill="black" stroke="black" points="2549.13,-16.48 2539.09,-19.86 2549.05,-23.48 2549.13,-16.48"/>
</g>
<!-- :feature:gt7&#45;ps5&#45;readout&#45;my&#45;bestlap&#45;detail&#45;&gt;:core:designsystem -->
<g id="edge39" class="edge">
<title>:feature:gt7&#45;ps5&#45;readout&#45;my&#45;bestlap&#45;detail&#45;&gt;:core:designsystem</title>
<path fill="none" stroke="black" d="M5873.21,-76.83C5848.33,-75 5822.7,-73.29 5798.55,-72 5134.47,-36.55 4335.74,-23.85 4047.76,-20.23"/>
<polygon fill="black" stroke="black" points="4047.77,-16.73 4037.73,-20.1 4047.68,-23.73 4047.77,-16.73"/>
</g>
<!-- :feature:gt7&#45;ps5&#45;readout&#45;remaining&#45;fuel&#45;laps&#45;detail&#45;&gt;:core:domain -->
<g id="edge40" class="edge">
<title>:feature:gt7&#45;ps5&#45;readout&#45;remaining&#45;fuel&#45;laps&#45;detail&#45;&gt;:core:domain</title>
<path fill="none" stroke="black" d="M6321.64,-76.67C6291.99,-74.83 6261.36,-73.16 6232.55,-72 6042.34,-64.33 3079.92,-26.71 2549.52,-20.02"/>
<polygon fill="black" stroke="black" points="2549.33,-16.52 2539.28,-19.89 2549.24,-23.52 2549.33,-16.52"/>
</g>
<!-- :feature:gt7&#45;ps5&#45;readout&#45;remaining&#45;fuel&#45;laps&#45;detail&#45;&gt;:core:designsystem -->
<g id="edge41" class="edge">
<title>:feature:gt7&#45;ps5&#45;readout&#45;remaining&#45;fuel&#45;laps&#45;detail&#45;&gt;:core:designsystem</title>
<path fill="none" stroke="black" d="M6319.92,-76.78C6290.8,-74.96 6260.8,-73.27 6232.55,-72 5392.95,-34.34 4379.3,-22.76 4048.06,-19.85"/>
<polygon fill="black" stroke="black" points="4048.01,-16.35 4037.98,-19.76 4047.95,-23.35 4048.01,-16.35"/>
</g>
<!-- :app:webApp -->
<g id="node30" class="node">
<title>:app:webApp</title>
<ellipse fill="none" stroke="black" cx="2999.55" cy="-234" rx="70.69" ry="18"/>
<text text-anchor="middle" x="2999.55" y="-230.3" font-family="Times,serif" font-size="14.00">:app:webApp</text>
</g>
<!-- :app:webApp&#45;&gt;:app:shared -->
<g id="edge31" class="edge">
<title>:app:webApp&#45;&gt;:app:shared</title>
<path fill="none" stroke="black" d="M2999.55,-215.7C2999.55,-207.98 2999.55,-198.71 2999.55,-190.11"/>
<polygon fill="black" stroke="black" points="3003.05,-190.1 2999.55,-180.1 2996.05,-190.1 3003.05,-190.1"/>
</g>
</g>
</svg>
