<?xml version="1.0" encoding="UTF-8" standalone="no"?>
<!DOCTYPE svg PUBLIC "-//W3C//DTD SVG 1.1//EN"
 "http://www.w3.org/Graphics/SVG/1.1/DTD/svg11.dtd">
<!-- Generated by graphviz version 2.43.0 (0)
 -->
<!-- Title: G Pages: 1 -->
<svg width="1606pt" height="260pt"
 viewBox="0.00 0.00 1606.08 260.00" xmlns="http://www.w3.org/2000/svg" xmlns:xlink="http://www.w3.org/1999/xlink">
<g id="graph0" class="graph" transform="scale(1 1) rotate(0) translate(4 256)">
<title>G</title>
<polygon fill="white" stroke="transparent" points="-4,4 -4,-256 1602.08,-256 1602.08,4 -4,4"/>
<!-- :server -->
<g id="node1" class="node">
<title>:server</title>
<ellipse fill="none" stroke="black" cx="886.69" cy="-90" rx="43.59" ry="18"/>
<text text-anchor="middle" x="886.69" y="-86.3" font-family="Times,serif" font-size="14.00">:server</text>
</g>
<!-- :core:domain -->
<g id="node2" class="node">
<title>:core:domain</title>
<ellipse fill="none" stroke="black" cx="1037.69" cy="-18" rx="70.69" ry="18"/>
<text text-anchor="middle" x="1037.69" y="-14.3" font-family="Times,serif" font-size="14.00">:core:domain</text>
</g>
<!-- :server&#45;&gt;:core:domain -->
<g id="edge1" class="edge">
<title>:server&#45;&gt;:core:domain</title>
<path fill="none" stroke="black" d="M914.73,-76C937.52,-65.43 970.01,-50.37 995.87,-38.39"/>
<polygon fill="black" stroke="black" points="997.46,-41.5 1005.06,-34.12 994.52,-35.15 997.46,-41.5"/>
</g>
<!-- :app:androidApp -->
<g id="node3" class="node">
<title>:app:androidApp</title>
<ellipse fill="none" stroke="black" cx="1316.69" cy="-234" rx="87.18" ry="18"/>
<text text-anchor="middle" x="1316.69" y="-230.3" font-family="Times,serif" font-size="14.00">:app:androidApp</text>
</g>
<!-- :app:shared -->
<g id="node4" class="node">
<title>:app:shared</title>
<ellipse fill="none" stroke="black" cx="1158.69" cy="-162" rx="65.79" ry="18"/>
<text text-anchor="middle" x="1158.69" y="-158.3" font-family="Times,serif" font-size="14.00">:app:shared</text>
</g>
<!-- :app:androidApp&#45;&gt;:app:shared -->
<g id="edge2" class="edge">
<title>:app:androidApp&#45;&gt;:app:shared</title>
<path fill="none" stroke="black" d="M1281.62,-217.46C1257.84,-206.93 1226.27,-192.94 1201.08,-181.78"/>
<polygon fill="black" stroke="black" points="1202.32,-178.5 1191.76,-177.65 1199.49,-184.91 1202.32,-178.5"/>
</g>
<!-- :core:data -->
<g id="node5" class="node">
<title>:core:data</title>
<ellipse fill="none" stroke="black" cx="1466.69" cy="-162" rx="57.39" ry="18"/>
<text text-anchor="middle" x="1466.69" y="-158.3" font-family="Times,serif" font-size="14.00">:core:data</text>
</g>
<!-- :app:androidApp&#45;&gt;:core:data -->
<g id="edge3" class="edge">
<title>:app:androidApp&#45;&gt;:core:data</title>
<path fill="none" stroke="black" d="M1350.35,-217.29C1373.07,-206.69 1403.16,-192.65 1427.04,-181.5"/>
<polygon fill="black" stroke="black" points="1428.61,-184.63 1436.19,-177.23 1425.65,-178.29 1428.61,-184.63"/>
</g>
<!-- :feature:narrator -->
<g id="node7" class="node">
<title>:feature:narrator</title>
<ellipse fill="none" stroke="black" cx="1037.69" cy="-90" rx="89.08" ry="18"/>
<text text-anchor="middle" x="1037.69" y="-86.3" font-family="Times,serif" font-size="14.00">:feature:narrator</text>
</g>
<!-- :app:shared&#45;&gt;:feature:narrator -->
<g id="edge7" class="edge">
<title>:app:shared&#45;&gt;:feature:narrator</title>
<path fill="none" stroke="black" d="M1131.83,-145.46C1114.96,-135.7 1092.97,-122.98 1074.48,-112.29"/>
<polygon fill="black" stroke="black" points="1076.13,-109.2 1065.73,-107.22 1072.63,-115.26 1076.13,-109.2"/>
</g>
<!-- :feature:other -->
<g id="node8" class="node">
<title>:feature:other</title>
<ellipse fill="none" stroke="black" cx="1219.69" cy="-90" rx="75.29" ry="18"/>
<text text-anchor="middle" x="1219.69" y="-86.3" font-family="Times,serif" font-size="14.00">:feature:other</text>
</g>
<!-- :app:shared&#45;&gt;:feature:other -->
<g id="edge8" class="edge">
<title>:app:shared&#45;&gt;:feature:other</title>
<path fill="none" stroke="black" d="M1173.14,-144.41C1180.63,-135.82 1189.92,-125.16 1198.22,-115.63"/>
<polygon fill="black" stroke="black" points="1200.98,-117.79 1204.91,-107.96 1195.7,-113.2 1200.98,-117.79"/>
</g>
<!-- :feature:readout -->
<g id="node9" class="node">
<title>:feature:readout</title>
<ellipse fill="none" stroke="black" cx="1399.69" cy="-90" rx="86.38" ry="18"/>
<text text-anchor="middle" x="1399.69" y="-86.3" font-family="Times,serif" font-size="14.00">:feature:readout</text>
</g>
<!-- :app:shared&#45;&gt;:feature:readout -->
<g id="edge9" class="edge">
<title>:app:shared&#45;&gt;:feature:readout</title>
<path fill="none" stroke="black" d="M1202.05,-148.4C1241.02,-137.08 1298.57,-120.37 1341.53,-107.89"/>
<polygon fill="black" stroke="black" points="1342.66,-111.21 1351.29,-105.06 1340.71,-104.49 1342.66,-111.21"/>
</g>
<!-- :feature:readout&#45;vehicle&#45;approach -->
<g id="node10" class="node">
<title>:feature:readout&#45;vehicle&#45;approach</title>
<ellipse fill="none" stroke="black" cx="167.69" cy="-90" rx="167.87" ry="18"/>
<text text-anchor="middle" x="167.69" y="-86.3" font-family="Times,serif" font-size="14.00">:feature:readout&#45;vehicle&#45;approach</text>
</g>
<!-- :app:shared&#45;&gt;:feature:readout&#45;vehicle&#45;approach -->
<g id="edge10" class="edge">
<title>:app:shared&#45;&gt;:feature:readout&#45;vehicle&#45;approach</title>
<path fill="none" stroke="black" d="M1094.97,-157.54C957.6,-149.92 623.34,-130.59 343.69,-108 328.1,-106.74 311.75,-105.31 295.56,-103.83"/>
<polygon fill="black" stroke="black" points="295.79,-100.33 285.51,-102.9 295.14,-107.3 295.79,-100.33"/>
</g>
<!-- :feature:readout&#45;flag -->
<g id="node11" class="node">
<title>:feature:readout&#45;flag</title>
<ellipse fill="none" stroke="black" cx="459.69" cy="-90" rx="106.68" ry="18"/>
<text text-anchor="middle" x="459.69" y="-86.3" font-family="Times,serif" font-size="14.00">:feature:readout&#45;flag</text>
</g>
<!-- :app:shared&#45;&gt;:feature:readout&#45;flag -->
<g id="edge11" class="edge">
<title>:app:shared&#45;&gt;:feature:readout&#45;flag</title>
<path fill="none" stroke="black" d="M1095.91,-156.47C988.8,-148.47 763.98,-130.56 574.69,-108 565.07,-106.85 555.01,-105.54 545.02,-104.16"/>
<polygon fill="black" stroke="black" points="545.46,-100.69 535.07,-102.76 544.49,-107.62 545.46,-100.69"/>
</g>
<!-- :core:data&#45;&gt;:core:domain -->
<g id="edge13" class="edge">
<title>:core:data&#45;&gt;:core:domain</title>
<path fill="none" stroke="black" d="M1480.5,-144.23C1494.86,-124.68 1512.89,-92.44 1494.69,-72 1470.08,-44.37 1241.68,-28.97 1117.39,-22.57"/>
<polygon fill="black" stroke="black" points="1117.32,-19.07 1107.16,-22.05 1116.97,-26.06 1117.32,-19.07"/>
</g>
<!-- :app:desktopApp -->
<g id="node6" class="node">
<title>:app:desktopApp</title>
<ellipse fill="none" stroke="black" cx="1509.69" cy="-234" rx="88.28" ry="18"/>
<text text-anchor="middle" x="1509.69" y="-230.3" font-family="Times,serif" font-size="14.00">:app:desktopApp</text>
</g>
<!-- :app:desktopApp&#45;&gt;:core:domain -->
<g id="edge6" class="edge">
<title>:app:desktopApp&#45;&gt;:core:domain</title>
<path fill="none" stroke="black" d="M1519.23,-215.93C1524.33,-205.82 1530.08,-192.57 1532.69,-180 1542.63,-132.12 1549.11,-103.47 1511.69,-72 1482.11,-47.13 1243.58,-30.34 1116.59,-23.08"/>
<polygon fill="black" stroke="black" points="1116.71,-19.58 1106.53,-22.51 1116.31,-26.57 1116.71,-19.58"/>
</g>
<!-- :app:desktopApp&#45;&gt;:app:shared -->
<g id="edge4" class="edge">
<title>:app:desktopApp&#45;&gt;:app:shared</title>
<path fill="none" stroke="black" d="M1448.95,-220.89C1384.88,-208.11 1284.47,-188.09 1220.13,-175.25"/>
<polygon fill="black" stroke="black" points="1220.62,-171.78 1210.13,-173.26 1219.25,-178.65 1220.62,-171.78"/>
</g>
<!-- :app:desktopApp&#45;&gt;:core:data -->
<g id="edge5" class="edge">
<title>:app:desktopApp&#45;&gt;:core:data</title>
<path fill="none" stroke="black" d="M1499.28,-216.05C1494.21,-207.8 1488,-197.7 1482.37,-188.54"/>
<polygon fill="black" stroke="black" points="1485.21,-186.48 1477,-179.79 1479.25,-190.14 1485.21,-186.48"/>
</g>
<!-- :feature:narrator&#45;&gt;:core:domain -->
<g id="edge15" class="edge">
<title>:feature:narrator&#45;&gt;:core:domain</title>
<path fill="none" stroke="black" d="M1037.69,-71.7C1037.69,-63.98 1037.69,-54.71 1037.69,-46.11"/>
<polygon fill="black" stroke="black" points="1041.19,-46.1 1037.69,-36.1 1034.19,-46.1 1041.19,-46.1"/>
</g>
<!-- :feature:other&#45;&gt;:core:domain -->
<g id="edge16" class="edge">
<title>:feature:other&#45;&gt;:core:domain</title>
<path fill="none" stroke="black" d="M1181.53,-74.33C1153.32,-63.47 1114.72,-48.63 1084.62,-37.05"/>
<polygon fill="black" stroke="black" points="1085.75,-33.74 1075.16,-33.42 1083.24,-40.27 1085.75,-33.74"/>
</g>
<!-- :feature:readout&#45;&gt;:core:domain -->
<g id="edge17" class="edge">
<title>:feature:readout&#45;&gt;:core:domain</title>
<path fill="none" stroke="black" d="M1338.69,-77.2C1273.04,-64.51 1169.07,-44.41 1102.13,-31.46"/>
<polygon fill="black" stroke="black" points="1102.6,-27.99 1092.12,-29.53 1101.27,-34.86 1102.6,-27.99"/>
</g>
<!-- :feature:readout&#45;vehicle&#45;approach&#45;&gt;:core:domain -->
<g id="edge20" class="edge">
<title>:feature:readout&#45;vehicle&#45;approach&#45;&gt;:core:domain</title>
<path fill="none" stroke="black" d="M286,-77.24C305.27,-75.42 325.03,-73.61 343.69,-72 567.27,-52.67 831.7,-33.49 960.04,-24.42"/>
<polygon fill="black" stroke="black" points="960.44,-27.9 970.17,-23.7 959.94,-20.92 960.44,-27.9"/>
</g>
<!-- :core:designsystem -->
<g id="node14" class="node">
<title>:core:designsystem</title>
<ellipse fill="none" stroke="black" cx="313.69" cy="-18" rx="100.98" ry="18"/>
<text text-anchor="middle" x="313.69" y="-14.3" font-family="Times,serif" font-size="14.00">:core:designsystem</text>
</g>
<!-- :feature:readout&#45;vehicle&#45;approach&#45;&gt;:core:designsystem -->
<g id="edge21" class="edge">
<title>:feature:readout&#45;vehicle&#45;approach&#45;&gt;:core:designsystem</title>
<path fill="none" stroke="black" d="M202.66,-72.23C223.25,-62.36 249.45,-49.8 271.22,-39.36"/>
<polygon fill="black" stroke="black" points="272.75,-42.51 280.25,-35.03 269.72,-36.2 272.75,-42.51"/>
</g>
<!-- :feature:readout&#45;flag&#45;&gt;:core:domain -->
<g id="edge18" class="edge">
<title>:feature:readout&#45;flag&#45;&gt;:core:domain</title>
<path fill="none" stroke="black" d="M536.03,-77.36C548.92,-75.49 562.18,-73.64 574.69,-72 711.74,-54.03 872.07,-36.44 963.57,-26.73"/>
<polygon fill="black" stroke="black" points="963.99,-30.2 973.57,-25.67 963.25,-23.24 963.99,-30.2"/>
</g>
<!-- :feature:readout&#45;flag&#45;&gt;:core:designsystem -->
<g id="edge19" class="edge">
<title>:feature:readout&#45;flag&#45;&gt;:core:designsystem</title>
<path fill="none" stroke="black" d="M425.82,-72.76C405.11,-62.83 378.43,-50.04 356.29,-39.43"/>
<polygon fill="black" stroke="black" points="357.64,-36.19 347.11,-35.03 354.62,-42.51 357.64,-36.19"/>
</g>
<!-- :app:webApp -->
<g id="node12" class="node">
<title>:app:webApp</title>
<ellipse fill="none" stroke="black" cx="1140.69" cy="-234" rx="70.69" ry="18"/>
<text text-anchor="middle" x="1140.69" y="-230.3" font-family="Times,serif" font-size="14.00">:app:webApp</text>
</g>
<!-- :app:webApp&#45;&gt;:app:shared -->
<g id="edge12" class="edge">
<title>:app:webApp&#45;&gt;:app:shared</title>
<path fill="none" stroke="black" d="M1145.13,-215.7C1147.14,-207.9 1149.55,-198.51 1151.79,-189.83"/>
<polygon fill="black" stroke="black" points="1155.19,-190.66 1154.29,-180.1 1148.41,-188.92 1155.19,-190.66"/>
</g>
<!-- :feature:lmu&#45;connection -->
<g id="node13" class="node">
<title>:feature:lmu&#45;connection</title>
<ellipse fill="none" stroke="black" cx="704.69" cy="-90" rx="120.78" ry="18"/>
<text text-anchor="middle" x="704.69" y="-86.3" font-family="Times,serif" font-size="14.00">:feature:lmu&#45;connection</text>
</g>
<!-- :feature:lmu&#45;connection&#45;&gt;:core:domain -->
<g id="edge14" class="edge">
<title>:feature:lmu&#45;connection&#45;&gt;:core:domain</title>
<path fill="none" stroke="black" d="M771.67,-74.92C830.98,-62.45 916.89,-44.39 974.89,-32.2"/>
<polygon fill="black" stroke="black" points="975.96,-35.55 985.03,-30.07 974.52,-28.7 975.96,-35.55"/>
</g>
</g>
</svg>
