<?xml version="1.0" encoding="UTF-8" standalone="no"?>
<!DOCTYPE svg PUBLIC "-//W3C//DTD SVG 1.1//EN"
 "http://www.w3.org/Graphics/SVG/1.1/DTD/svg11.dtd">
<!-- Generated by graphviz version 2.43.0 (0)
 -->
<!-- Title: G Pages: 1 -->
<svg width="701pt" height="260pt"
 viewBox="0.00 0.00 700.74 260.00" xmlns="http://www.w3.org/2000/svg" xmlns:xlink="http://www.w3.org/1999/xlink">
<g id="graph0" class="graph" transform="scale(1 1) rotate(0) translate(4 256)">
<title>G</title>
<polygon fill="white" stroke="transparent" points="-4,4 -4,-256 696.74,-256 696.74,4 -4,4"/>
<!-- :server -->
<g id="node1" class="node">
<title>:server</title>
<ellipse fill="none" stroke="black" cx="43.55" cy="-90" rx="43.59" ry="18"/>
<text text-anchor="middle" x="43.55" y="-86.3" font-family="Times,serif" font-size="14.00">:server</text>
</g>
<!-- :core:domain -->
<g id="node2" class="node">
<title>:core:domain</title>
<ellipse fill="none" stroke="black" cx="256.55" cy="-18" rx="70.69" ry="18"/>
<text text-anchor="middle" x="256.55" y="-14.3" font-family="Times,serif" font-size="14.00">:core:domain</text>
</g>
<!-- :server&#45;&gt;:core:domain -->
<g id="edge1" class="edge">
<title>:server&#45;&gt;:core:domain</title>
<path fill="none" stroke="black" d="M76.83,-78.06C111.31,-66.73 165.64,-48.88 205.54,-35.76"/>
<polygon fill="black" stroke="black" points="206.69,-39.07 215.1,-32.62 204.51,-32.42 206.69,-39.07"/>
</g>
<!-- :app:androidApp -->
<g id="node3" class="node">
<title>:app:androidApp</title>
<ellipse fill="none" stroke="black" cx="115.55" cy="-234" rx="87.18" ry="18"/>
<text text-anchor="middle" x="115.55" y="-230.3" font-family="Times,serif" font-size="14.00">:app:androidApp</text>
</g>
<!-- :app:androidApp&#45;&gt;:core:domain -->
<g id="edge3" class="edge">
<title>:app:androidApp&#45;&gt;:core:domain</title>
<path fill="none" stroke="black" d="M116.39,-215.81C118.78,-184.1 127.89,-115.68 162.55,-72 174.34,-57.14 191.5,-45.74 207.95,-37.4"/>
<polygon fill="black" stroke="black" points="209.47,-40.55 216.98,-33.07 206.45,-34.24 209.47,-40.55"/>
</g>
<!-- :app:shared -->
<g id="node4" class="node">
<title>:app:shared</title>
<ellipse fill="none" stroke="black" cx="273.55" cy="-162" rx="65.79" ry="18"/>
<text text-anchor="middle" x="273.55" y="-158.3" font-family="Times,serif" font-size="14.00">:app:shared</text>
</g>
<!-- :app:androidApp&#45;&gt;:app:shared -->
<g id="edge2" class="edge">
<title>:app:androidApp&#45;&gt;:app:shared</title>
<path fill="none" stroke="black" d="M150.61,-217.46C174.39,-206.93 205.96,-192.94 231.16,-181.78"/>
<polygon fill="black" stroke="black" points="232.74,-184.91 240.47,-177.65 229.91,-178.5 232.74,-184.91"/>
</g>
<!-- :app:shared&#45;&gt;:core:domain -->
<g id="edge8" class="edge">
<title>:app:shared&#45;&gt;:core:domain</title>
<path fill="none" stroke="black" d="M227.94,-148.93C207.23,-140.93 184.69,-128.08 172.55,-108 164.27,-94.31 164.82,-86.01 172.55,-72 180.61,-57.37 194.61,-46.22 208.89,-38.02"/>
<polygon fill="black" stroke="black" points="210.59,-41.08 217.76,-33.28 207.29,-34.9 210.59,-41.08"/>
</g>
<!-- :feature:other -->
<g id="node6" class="node">
<title>:feature:other</title>
<ellipse fill="none" stroke="black" cx="256.55" cy="-90" rx="75.29" ry="18"/>
<text text-anchor="middle" x="256.55" y="-86.3" font-family="Times,serif" font-size="14.00">:feature:other</text>
</g>
<!-- :app:shared&#45;&gt;:feature:other -->
<g id="edge6" class="edge">
<title>:app:shared&#45;&gt;:feature:other</title>
<path fill="none" stroke="black" d="M269.34,-143.7C267.45,-135.9 265.17,-126.51 263.06,-117.83"/>
<polygon fill="black" stroke="black" points="266.46,-117 260.7,-108.1 259.66,-118.65 266.46,-117"/>
</g>
<!-- :feature:readout -->
<g id="node7" class="node">
<title>:feature:readout</title>
<ellipse fill="none" stroke="black" cx="436.55" cy="-90" rx="86.38" ry="18"/>
<text text-anchor="middle" x="436.55" y="-86.3" font-family="Times,serif" font-size="14.00">:feature:readout</text>
</g>
<!-- :app:shared&#45;&gt;:feature:readout -->
<g id="edge7" class="edge">
<title>:app:shared&#45;&gt;:feature:readout</title>
<path fill="none" stroke="black" d="M307.32,-146.5C331.57,-136.08 364.53,-121.93 391.09,-110.52"/>
<polygon fill="black" stroke="black" points="392.75,-113.62 400.55,-106.46 389.98,-107.19 392.75,-113.62"/>
</g>
<!-- :app:desktopApp -->
<g id="node5" class="node">
<title>:app:desktopApp</title>
<ellipse fill="none" stroke="black" cx="509.55" cy="-234" rx="88.28" ry="18"/>
<text text-anchor="middle" x="509.55" y="-230.3" font-family="Times,serif" font-size="14.00">:app:desktopApp</text>
</g>
<!-- :app:desktopApp&#45;&gt;:core:domain -->
<g id="edge5" class="edge">
<title>:app:desktopApp&#45;&gt;:core:domain</title>
<path fill="none" stroke="black" d="M519.45,-215.68C536.41,-183.45 566.03,-113.77 531.55,-72 507.04,-42.32 407.69,-29.08 335.42,-23.3"/>
<polygon fill="black" stroke="black" points="335.65,-19.81 325.42,-22.53 335.12,-26.79 335.65,-19.81"/>
</g>
<!-- :app:desktopApp&#45;&gt;:app:shared -->
<g id="edge4" class="edge">
<title>:app:desktopApp&#45;&gt;:app:shared</title>
<path fill="none" stroke="black" d="M461.79,-218.83C422.47,-207.17 366.79,-190.66 326.19,-178.61"/>
<polygon fill="black" stroke="black" points="327.05,-175.22 316.47,-175.73 325.06,-181.93 327.05,-175.22"/>
</g>
<!-- :feature:other&#45;&gt;:core:domain -->
<g id="edge11" class="edge">
<title>:feature:other&#45;&gt;:core:domain</title>
<path fill="none" stroke="black" d="M256.55,-71.7C256.55,-63.98 256.55,-54.71 256.55,-46.11"/>
<polygon fill="black" stroke="black" points="260.05,-46.1 256.55,-36.1 253.05,-46.1 260.05,-46.1"/>
</g>
<!-- :feature:readout&#45;&gt;:core:domain -->
<g id="edge12" class="edge">
<title>:feature:readout&#45;&gt;:core:domain</title>
<path fill="none" stroke="black" d="M397.49,-73.81C369.81,-63.05 332.53,-48.55 303.27,-37.17"/>
<polygon fill="black" stroke="black" points="304.27,-33.8 293.68,-33.44 301.73,-40.33 304.27,-33.8"/>
</g>
<!-- :app:webApp -->
<g id="node8" class="node">
<title>:app:webApp</title>
<ellipse fill="none" stroke="black" cx="291.55" cy="-234" rx="70.69" ry="18"/>
<text text-anchor="middle" x="291.55" y="-230.3" font-family="Times,serif" font-size="14.00">:app:webApp</text>
</g>
<!-- :app:webApp&#45;&gt;:app:shared -->
<g id="edge9" class="edge">
<title>:app:webApp&#45;&gt;:app:shared</title>
<path fill="none" stroke="black" d="M287.1,-215.7C285.09,-207.9 282.68,-198.51 280.45,-189.83"/>
<polygon fill="black" stroke="black" points="283.82,-188.92 277.94,-180.1 277.05,-190.66 283.82,-188.92"/>
</g>
<!-- :core:data -->
<g id="node9" class="node">
<title>:core:data</title>
<ellipse fill="none" stroke="black" cx="635.55" cy="-90" rx="57.39" ry="18"/>
<text text-anchor="middle" x="635.55" y="-86.3" font-family="Times,serif" font-size="14.00">:core:data</text>
</g>
<!-- :core:data&#45;&gt;:core:domain -->
<g id="edge10" class="edge">
<title>:core:data&#45;&gt;:core:domain</title>
<path fill="none" stroke="black" d="M592.09,-78.13C583.01,-75.99 573.49,-73.84 564.55,-72 482.86,-55.21 388.24,-39.48 325.66,-29.58"/>
<polygon fill="black" stroke="black" points="325.94,-26.08 315.52,-27.99 324.85,-33 325.94,-26.08"/>
</g>
</g>
</svg>
