<?xml version="1.0" encoding="UTF-8" standalone="no"?>
<!DOCTYPE svg PUBLIC "-//W3C//DTD SVG 1.1//EN"
 "http://www.w3.org/Graphics/SVG/1.1/DTD/svg11.dtd">
<!-- Generated by graphviz version 2.43.0 (0)
 -->
<!-- Title: G Pages: 1 -->
<svg width="605pt" height="260pt"
 viewBox="0.00 0.00 605.29 260.00" xmlns="http://www.w3.org/2000/svg" xmlns:xlink="http://www.w3.org/1999/xlink">
<g id="graph0" class="graph" transform="scale(1 1) rotate(0) translate(4 256)">
<title>G</title>
<polygon fill="white" stroke="transparent" points="-4,4 -4,-256 601.29,-256 601.29,4 -4,4"/>
<!-- :server -->
<g id="node1" class="node">
<title>:server</title>
<ellipse fill="none" stroke="black" cx="86.09" cy="-90" rx="43.59" ry="18"/>
<text text-anchor="middle" x="86.09" y="-86.3" font-family="Times,serif" font-size="14.00">:server</text>
</g>
<!-- :core:domain -->
<g id="node2" class="node">
<title>:core:domain</title>
<ellipse fill="none" stroke="black" cx="261.09" cy="-18" rx="70.69" ry="18"/>
<text text-anchor="middle" x="261.09" y="-14.3" font-family="Times,serif" font-size="14.00">:core:domain</text>
</g>
<!-- :server&#45;&gt;:core:domain -->
<g id="edge1" class="edge">
<title>:server&#45;&gt;:core:domain</title>
<path fill="none" stroke="black" d="M116.18,-76.97C143.45,-66.06 184.06,-49.81 215.35,-37.3"/>
<polygon fill="black" stroke="black" points="216.76,-40.5 224.74,-33.54 214.16,-34 216.76,-40.5"/>
</g>
<!-- :app:androidApp -->
<g id="node3" class="node">
<title>:app:androidApp</title>
<ellipse fill="none" stroke="black" cx="87.09" cy="-234" rx="87.18" ry="18"/>
<text text-anchor="middle" x="87.09" y="-230.3" font-family="Times,serif" font-size="14.00">:app:androidApp</text>
</g>
<!-- :app:shared -->
<g id="node4" class="node">
<title>:app:shared</title>
<ellipse fill="none" stroke="black" cx="262.09" cy="-162" rx="65.79" ry="18"/>
<text text-anchor="middle" x="262.09" y="-158.3" font-family="Times,serif" font-size="14.00">:app:shared</text>
</g>
<!-- :app:androidApp&#45;&gt;:app:shared -->
<g id="edge2" class="edge">
<title>:app:androidApp&#45;&gt;:app:shared</title>
<path fill="none" stroke="black" d="M125.5,-217.64C152.52,-206.83 188.79,-192.32 217.17,-180.97"/>
<polygon fill="black" stroke="black" points="218.48,-184.22 226.46,-177.25 215.88,-177.72 218.48,-184.22"/>
</g>
<!-- :app:shared&#45;&gt;:core:domain -->
<g id="edge8" class="edge">
<title>:app:shared&#45;&gt;:core:domain</title>
<path fill="none" stroke="black" d="M223.74,-147.26C206.21,-138.82 187.13,-126.1 177.09,-108 169.33,-94.01 169.37,-86.01 177.09,-72 185.16,-57.37 199.15,-46.22 213.43,-38.02"/>
<polygon fill="black" stroke="black" points="215.13,-41.08 222.31,-33.28 211.84,-34.9 215.13,-41.08"/>
</g>
<!-- :feature:readout -->
<g id="node7" class="node">
<title>:feature:readout</title>
<ellipse fill="none" stroke="black" cx="441.09" cy="-90" rx="86.38" ry="18"/>
<text text-anchor="middle" x="441.09" y="-86.3" font-family="Times,serif" font-size="14.00">:feature:readout</text>
</g>
<!-- :app:shared&#45;&gt;:feature:readout -->
<g id="edge7" class="edge">
<title>:app:shared&#45;&gt;:feature:readout</title>
<path fill="none" stroke="black" d="M298.32,-146.83C325.6,-136.16 363.27,-121.43 393.07,-109.78"/>
<polygon fill="black" stroke="black" points="394.41,-113.02 402.44,-106.11 391.86,-106.5 394.41,-113.02"/>
</g>
<!-- :feature:other -->
<g id="node8" class="node">
<title>:feature:other</title>
<ellipse fill="none" stroke="black" cx="261.09" cy="-90" rx="75.29" ry="18"/>
<text text-anchor="middle" x="261.09" y="-86.3" font-family="Times,serif" font-size="14.00">:feature:other</text>
</g>
<!-- :app:shared&#45;&gt;:feature:other -->
<g id="edge6" class="edge">
<title>:app:shared&#45;&gt;:feature:other</title>
<path fill="none" stroke="black" d="M261.85,-143.7C261.73,-135.98 261.6,-126.71 261.48,-118.11"/>
<polygon fill="black" stroke="black" points="264.98,-118.05 261.34,-108.1 257.98,-118.15 264.98,-118.05"/>
</g>
<!-- :app:desktopApp -->
<g id="node5" class="node">
<title>:app:desktopApp</title>
<ellipse fill="none" stroke="black" cx="441.09" cy="-234" rx="88.28" ry="18"/>
<text text-anchor="middle" x="441.09" y="-230.3" font-family="Times,serif" font-size="14.00">:app:desktopApp</text>
</g>
<!-- :app:desktopApp&#45;&gt;:app:shared -->
<g id="edge3" class="edge">
<title>:app:desktopApp&#45;&gt;:app:shared</title>
<path fill="none" stroke="black" d="M402.25,-217.81C374.45,-206.94 336.91,-192.26 307.68,-180.83"/>
<polygon fill="black" stroke="black" points="308.7,-177.47 298.12,-177.09 306.15,-183.99 308.7,-177.47"/>
</g>
<!-- :core:data -->
<g id="node6" class="node">
<title>:core:data</title>
<ellipse fill="none" stroke="black" cx="540.09" cy="-162" rx="57.39" ry="18"/>
<text text-anchor="middle" x="540.09" y="-158.3" font-family="Times,serif" font-size="14.00">:core:data</text>
</g>
<!-- :app:desktopApp&#45;&gt;:core:data -->
<g id="edge4" class="edge">
<title>:app:desktopApp&#45;&gt;:core:data</title>
<path fill="none" stroke="black" d="M464.3,-216.59C477.78,-207.06 494.91,-194.95 509.47,-184.65"/>
<polygon fill="black" stroke="black" points="511.56,-187.46 517.71,-178.83 507.52,-181.74 511.56,-187.46"/>
</g>
<!-- :app:desktopApp&#45;&gt;:feature:readout -->
<g id="edge5" class="edge">
<title>:app:desktopApp&#45;&gt;:feature:readout</title>
<path fill="none" stroke="black" d="M441.09,-215.87C441.09,-191.67 441.09,-147.21 441.09,-118.39"/>
<polygon fill="black" stroke="black" points="444.59,-118.19 441.09,-108.19 437.59,-118.19 444.59,-118.19"/>
</g>
<!-- :core:data&#45;&gt;:core:domain -->
<g id="edge10" class="edge">
<title>:core:data&#45;&gt;:core:domain</title>
<path fill="none" stroke="black" d="M544.94,-144C549.45,-124.23 553.18,-91.78 536.09,-72 510.93,-42.88 411.73,-29.51 339.68,-23.54"/>
<polygon fill="black" stroke="black" points="339.95,-20.05 329.7,-22.75 339.4,-27.03 339.95,-20.05"/>
</g>
<!-- :feature:readout&#45;&gt;:core:domain -->
<g id="edge12" class="edge">
<title>:feature:readout&#45;&gt;:core:domain</title>
<path fill="none" stroke="black" d="M402.03,-73.81C374.35,-63.05 337.08,-48.55 307.82,-37.17"/>
<polygon fill="black" stroke="black" points="308.82,-33.8 298.23,-33.44 306.28,-40.33 308.82,-33.8"/>
</g>
<!-- :feature:other&#45;&gt;:core:domain -->
<g id="edge11" class="edge">
<title>:feature:other&#45;&gt;:core:domain</title>
<path fill="none" stroke="black" d="M261.09,-71.7C261.09,-63.98 261.09,-54.71 261.09,-46.11"/>
<polygon fill="black" stroke="black" points="264.59,-46.1 261.09,-36.1 257.59,-46.1 264.59,-46.1"/>
</g>
<!-- :app:webApp -->
<g id="node9" class="node">
<title>:app:webApp</title>
<ellipse fill="none" stroke="black" cx="263.09" cy="-234" rx="70.69" ry="18"/>
<text text-anchor="middle" x="263.09" y="-230.3" font-family="Times,serif" font-size="14.00">:app:webApp</text>
</g>
<!-- :app:webApp&#45;&gt;:app:shared -->
<g id="edge9" class="edge">
<title>:app:webApp&#45;&gt;:app:shared</title>
<path fill="none" stroke="black" d="M262.85,-215.7C262.73,-207.98 262.6,-198.71 262.48,-190.11"/>
<polygon fill="black" stroke="black" points="265.98,-190.05 262.34,-180.1 258.98,-190.15 265.98,-190.05"/>
</g>
</g>
</svg>
