<?xml version="1.0" encoding="UTF-8" standalone="no"?>
<!DOCTYPE svg PUBLIC "-//W3C//DTD SVG 1.1//EN"
 "http://www.w3.org/Graphics/SVG/1.1/DTD/svg11.dtd">
<!-- Generated by graphviz version 2.43.0 (0)
 -->
<!-- Title: G Pages: 1 -->
<svg width="2478pt" height="260pt"
 viewBox="0.00 0.00 2477.88 260.00" xmlns="http://www.w3.org/2000/svg" xmlns:xlink="http://www.w3.org/1999/xlink">
<g id="graph0" class="graph" transform="scale(1 1) rotate(0) translate(4 256)">
<title>G</title>
<polygon fill="white" stroke="transparent" points="-4,4 -4,-256 2473.88,-256 2473.88,4 -4,4"/>
<!-- :server -->
<g id="node1" class="node">
<title>:server</title>
<ellipse fill="none" stroke="black" cx="2386.99" cy="-90" rx="43.59" ry="18"/>
<text text-anchor="middle" x="2386.99" y="-86.3" font-family="Times,serif" font-size="14.00">:server</text>
</g>
<!-- :core:domain -->
<g id="node2" class="node">
<title>:core:domain</title>
<ellipse fill="none" stroke="black" cx="1825.99" cy="-18" rx="70.69" ry="18"/>
<text text-anchor="middle" x="1825.99" y="-14.3" font-family="Times,serif" font-size="14.00">:core:domain</text>
</g>
<!-- :server&#45;&gt;:core:domain -->
<g id="edge1" class="edge">
<title>:server&#45;&gt;:core:domain</title>
<path fill="none" stroke="black" d="M2355.04,-77.58C2348.17,-75.46 2340.89,-73.45 2333.99,-72 2184.65,-40.61 2006.53,-27.47 1905.81,-22.23"/>
<polygon fill="black" stroke="black" points="1905.87,-18.73 1895.71,-21.72 1905.52,-25.72 1905.87,-18.73"/>
</g>
<!-- :app:androidApp -->
<g id="node3" class="node">
<title>:app:androidApp</title>
<ellipse fill="none" stroke="black" cx="1938.99" cy="-234" rx="87.18" ry="18"/>
<text text-anchor="middle" x="1938.99" y="-230.3" font-family="Times,serif" font-size="14.00">:app:androidApp</text>
</g>
<!-- :app:shared -->
<g id="node4" class="node">
<title>:app:shared</title>
<ellipse fill="none" stroke="black" cx="1705.99" cy="-162" rx="65.79" ry="18"/>
<text text-anchor="middle" x="1705.99" y="-158.3" font-family="Times,serif" font-size="14.00">:app:shared</text>
</g>
<!-- :app:androidApp&#45;&gt;:app:shared -->
<g id="edge2" class="edge">
<title>:app:androidApp&#45;&gt;:app:shared</title>
<path fill="none" stroke="black" d="M1891.84,-218.83C1853.14,-207.21 1798.39,-190.76 1758.34,-178.73"/>
<polygon fill="black" stroke="black" points="1759.34,-175.37 1748.75,-175.85 1757.32,-182.08 1759.34,-175.37"/>
</g>
<!-- :core:data -->
<g id="node5" class="node">
<title>:core:data</title>
<ellipse fill="none" stroke="black" cx="2355.99" cy="-162" rx="57.39" ry="18"/>
<text text-anchor="middle" x="2355.99" y="-158.3" font-family="Times,serif" font-size="14.00">:core:data</text>
</g>
<!-- :app:androidApp&#45;&gt;:core:data -->
<g id="edge3" class="edge">
<title>:app:androidApp&#45;&gt;:core:data</title>
<path fill="none" stroke="black" d="M2004.6,-221.99C2084.83,-208.52 2219.45,-185.92 2296.69,-172.95"/>
<polygon fill="black" stroke="black" points="2297.45,-176.38 2306.73,-171.27 2296.29,-169.47 2297.45,-176.38"/>
</g>
<!-- :feature:lmu&#45;connection -->
<g id="node7" class="node">
<title>:feature:lmu&#45;connection</title>
<ellipse fill="none" stroke="black" cx="1344.99" cy="-90" rx="120.78" ry="18"/>
<text text-anchor="middle" x="1344.99" y="-86.3" font-family="Times,serif" font-size="14.00">:feature:lmu&#45;connection</text>
</g>
<!-- :app:shared&#45;&gt;:feature:lmu&#45;connection -->
<g id="edge7" class="edge">
<title>:app:shared&#45;&gt;:feature:lmu&#45;connection</title>
<path fill="none" stroke="black" d="M1653.88,-150.9C1594.05,-139.29 1495.19,-120.13 1425.45,-106.6"/>
<polygon fill="black" stroke="black" points="1425.86,-103.12 1415.38,-104.65 1424.53,-109.99 1425.86,-103.12"/>
</g>
<!-- :feature:lmu&#45;narrator -->
<g id="node8" class="node">
<title>:feature:lmu&#45;narrator</title>
<ellipse fill="none" stroke="black" cx="1593.99" cy="-90" rx="109.68" ry="18"/>
<text text-anchor="middle" x="1593.99" y="-86.3" font-family="Times,serif" font-size="14.00">:feature:lmu&#45;narrator</text>
</g>
<!-- :app:shared&#45;&gt;:feature:lmu&#45;narrator -->
<g id="edge8" class="edge">
<title>:app:shared&#45;&gt;:feature:lmu&#45;narrator</title>
<path fill="none" stroke="black" d="M1680.85,-145.29C1665.72,-135.84 1646.22,-123.65 1629.54,-113.22"/>
<polygon fill="black" stroke="black" points="1630.93,-109.96 1620.6,-107.63 1627.22,-115.9 1630.93,-109.96"/>
</g>
<!-- :feature:other&#45;detail -->
<g id="node9" class="node">
<title>:feature:other&#45;detail</title>
<ellipse fill="none" stroke="black" cx="1825.99" cy="-90" rx="104.78" ry="18"/>
<text text-anchor="middle" x="1825.99" y="-86.3" font-family="Times,serif" font-size="14.00">:feature:other&#45;detail</text>
</g>
<!-- :app:shared&#45;&gt;:feature:other&#45;detail -->
<g id="edge9" class="edge">
<title>:app:shared&#45;&gt;:feature:other&#45;detail</title>
<path fill="none" stroke="black" d="M1732.62,-145.46C1749.23,-135.77 1770.85,-123.16 1789.1,-112.51"/>
<polygon fill="black" stroke="black" points="1790.88,-115.53 1797.76,-107.47 1787.36,-109.48 1790.88,-115.53"/>
</g>
<!-- :feature:other&#45;list -->
<g id="node10" class="node">
<title>:feature:other&#45;list</title>
<ellipse fill="none" stroke="black" cx="2041.99" cy="-90" rx="92.88" ry="18"/>
<text text-anchor="middle" x="2041.99" y="-86.3" font-family="Times,serif" font-size="14.00">:feature:other&#45;list</text>
</g>
<!-- :app:shared&#45;&gt;:feature:other&#45;list -->
<g id="edge10" class="edge">
<title>:app:shared&#45;&gt;:feature:other&#45;list</title>
<path fill="none" stroke="black" d="M1756.65,-150.44C1813.73,-138.55 1906.9,-119.14 1971.16,-105.75"/>
<polygon fill="black" stroke="black" points="1972.14,-109.13 1981.22,-103.66 1970.71,-102.27 1972.14,-109.13"/>
</g>
<!-- :feature:readout -->
<g id="node11" class="node">
<title>:feature:readout</title>
<ellipse fill="none" stroke="black" cx="2238.99" cy="-90" rx="86.38" ry="18"/>
<text text-anchor="middle" x="2238.99" y="-86.3" font-family="Times,serif" font-size="14.00">:feature:readout</text>
</g>
<!-- :app:shared&#45;&gt;:feature:readout -->
<g id="edge11" class="edge">
<title>:app:shared&#45;&gt;:feature:readout</title>
<path fill="none" stroke="black" d="M1766.35,-154.79C1850.96,-145.84 2009.53,-128.15 2143.99,-108 2151.42,-106.89 2159.16,-105.64 2166.88,-104.34"/>
<polygon fill="black" stroke="black" points="2167.71,-107.75 2176.98,-102.62 2166.53,-100.85 2167.71,-107.75"/>
</g>
<!-- :feature:lmu&#45;readout&#45;vehicle&#45;approach&#45;detail -->
<g id="node12" class="node">
<title>:feature:lmu&#45;readout&#45;vehicle&#45;approach&#45;detail</title>
<ellipse fill="none" stroke="black" cx="987.99" cy="-90" rx="217.96" ry="18"/>
<text text-anchor="middle" x="987.99" y="-86.3" font-family="Times,serif" font-size="14.00">:feature:lmu&#45;readout&#45;vehicle&#45;approach&#45;detail</text>
</g>
<!-- :app:shared&#45;&gt;:feature:lmu&#45;readout&#45;vehicle&#45;approach&#45;detail -->
<g id="edge12" class="edge">
<title>:app:shared&#45;&gt;:feature:lmu&#45;readout&#45;vehicle&#45;approach&#45;detail</title>
<path fill="none" stroke="black" d="M1645.08,-155.06C1532.76,-144.11 1290.16,-120.46 1133.24,-105.16"/>
<polygon fill="black" stroke="black" points="1133.33,-101.65 1123.03,-104.17 1132.65,-108.62 1133.33,-101.65"/>
</g>
<!-- :feature:lmu&#45;readout&#45;flag&#45;detail -->
<g id="node13" class="node">
<title>:feature:lmu&#45;readout&#45;flag&#45;detail</title>
<ellipse fill="none" stroke="black" cx="155.99" cy="-90" rx="155.97" ry="18"/>
<text text-anchor="middle" x="155.99" y="-86.3" font-family="Times,serif" font-size="14.00">:feature:lmu&#45;readout&#45;flag&#45;detail</text>
</g>
<!-- :app:shared&#45;&gt;:feature:lmu&#45;readout&#45;flag&#45;detail -->
<g id="edge13" class="edge">
<title>:app:shared&#45;&gt;:feature:lmu&#45;readout&#45;flag&#45;detail</title>
<path fill="none" stroke="black" d="M1640.65,-159.99C1442.1,-156.62 828.35,-143.81 320.99,-108 305.67,-106.92 289.58,-105.55 273.69,-104.06"/>
<polygon fill="black" stroke="black" points="273.58,-100.54 263.29,-103.07 272.92,-107.5 273.58,-100.54"/>
</g>
<!-- :feature:lmu&#45;readout&#45;vehicle&#45;damage&#45;detail -->
<g id="node14" class="node">
<title>:feature:lmu&#45;readout&#45;vehicle&#45;damage&#45;detail</title>
<ellipse fill="none" stroke="black" cx="540.99" cy="-90" rx="211.46" ry="18"/>
<text text-anchor="middle" x="540.99" y="-86.3" font-family="Times,serif" font-size="14.00">:feature:lmu&#45;readout&#45;vehicle&#45;damage&#45;detail</text>
</g>
<!-- :app:shared&#45;&gt;:feature:lmu&#45;readout&#45;vehicle&#45;damage&#45;detail -->
<g id="edge14" class="edge">
<title>:app:shared&#45;&gt;:feature:lmu&#45;readout&#45;vehicle&#45;damage&#45;detail</title>
<path fill="none" stroke="black" d="M1642.07,-157.88C1489.57,-150.34 1092.38,-130.09 760.99,-108 740.95,-106.66 719.89,-105.16 699.07,-103.62"/>
<polygon fill="black" stroke="black" points="699.11,-100.11 688.88,-102.86 698.59,-107.09 699.11,-100.11"/>
</g>
<!-- :core:data&#45;&gt;:core:domain -->
<g id="edge16" class="edge">
<title>:core:data&#45;&gt;:core:domain</title>
<path fill="none" stroke="black" d="M2392.15,-147.99C2409.95,-139.53 2429.74,-126.57 2439.99,-108 2447.71,-93.99 2450.8,-83.79 2439.99,-72 2404.64,-33.47 2065.34,-22.88 1906.83,-20.03"/>
<polygon fill="black" stroke="black" points="1906.72,-16.52 1896.66,-19.85 1906.6,-23.52 1906.72,-16.52"/>
</g>
<!-- :app:desktopApp -->
<g id="node6" class="node">
<title>:app:desktopApp</title>
<ellipse fill="none" stroke="black" cx="2355.99" cy="-234" rx="88.28" ry="18"/>
<text text-anchor="middle" x="2355.99" y="-230.3" font-family="Times,serif" font-size="14.00">:app:desktopApp</text>
</g>
<!-- :app:desktopApp&#45;&gt;:core:domain -->
<g id="edge6" class="edge">
<title>:app:desktopApp&#45;&gt;:core:domain</title>
<path fill="none" stroke="black" d="M2379.81,-216.59C2421.61,-185.88 2499.87,-118.63 2456.99,-72 2420.47,-32.28 2068.89,-22.31 1906.94,-19.82"/>
<polygon fill="black" stroke="black" points="1906.6,-16.32 1896.55,-19.67 1906.49,-23.32 1906.6,-16.32"/>
</g>
<!-- :app:desktopApp&#45;&gt;:app:shared -->
<g id="edge4" class="edge">
<title>:app:desktopApp&#45;&gt;:app:shared</title>
<path fill="none" stroke="black" d="M2279.83,-224.8C2152.66,-211.1 1898.94,-183.78 1775.99,-170.54"/>
<polygon fill="black" stroke="black" points="1776.25,-167.05 1765.93,-169.46 1775.5,-174.01 1776.25,-167.05"/>
</g>
<!-- :app:desktopApp&#45;&gt;:core:data -->
<g id="edge5" class="edge">
<title>:app:desktopApp&#45;&gt;:core:data</title>
<path fill="none" stroke="black" d="M2355.99,-215.7C2355.99,-207.98 2355.99,-198.71 2355.99,-190.11"/>
<polygon fill="black" stroke="black" points="2359.49,-190.1 2355.99,-180.1 2352.49,-190.1 2359.49,-190.1"/>
</g>
<!-- :feature:lmu&#45;connection&#45;&gt;:core:domain -->
<g id="edge17" class="edge">
<title>:feature:lmu&#45;connection&#45;&gt;:core:domain</title>
<path fill="none" stroke="black" d="M1428.22,-76.89C1520.94,-63.39 1669.21,-41.82 1756.13,-29.17"/>
<polygon fill="black" stroke="black" points="1756.77,-32.61 1766.16,-27.71 1755.76,-25.68 1756.77,-32.61"/>
</g>
<!-- :feature:lmu&#45;narrator&#45;&gt;:core:domain -->
<g id="edge18" class="edge">
<title>:feature:lmu&#45;narrator&#45;&gt;:core:domain</title>
<path fill="none" stroke="black" d="M1644.04,-73.9C1681.83,-62.5 1733.59,-46.88 1772.24,-35.22"/>
<polygon fill="black" stroke="black" points="1773.71,-38.43 1782.27,-32.19 1771.69,-31.73 1773.71,-38.43"/>
</g>
<!-- :feature:other&#45;detail&#45;&gt;:core:domain -->
<g id="edge25" class="edge">
<title>:feature:other&#45;detail&#45;&gt;:core:domain</title>
<path fill="none" stroke="black" d="M1825.99,-71.7C1825.99,-63.98 1825.99,-54.71 1825.99,-46.11"/>
<polygon fill="black" stroke="black" points="1829.49,-46.1 1825.99,-36.1 1822.49,-46.1 1829.49,-46.1"/>
</g>
<!-- :feature:other&#45;list&#45;&gt;:core:domain -->
<g id="edge26" class="edge">
<title>:feature:other&#45;list&#45;&gt;:core:domain</title>
<path fill="none" stroke="black" d="M1996.44,-74.24C1961.71,-62.98 1913.85,-47.47 1877.68,-35.75"/>
<polygon fill="black" stroke="black" points="1878.4,-32.31 1867.81,-32.55 1876.24,-38.97 1878.4,-32.31"/>
</g>
<!-- :feature:readout&#45;&gt;:core:domain -->
<g id="edge27" class="edge">
<title>:feature:readout&#45;&gt;:core:domain</title>
<path fill="none" stroke="black" d="M2175.9,-77.6C2165.25,-75.71 2154.31,-73.78 2143.99,-72 2057.87,-57.12 1958.5,-40.67 1894.08,-30.11"/>
<polygon fill="black" stroke="black" points="1894.48,-26.63 1884.05,-28.46 1893.35,-33.54 1894.48,-26.63"/>
</g>
<!-- :feature:lmu&#45;readout&#45;vehicle&#45;approach&#45;detail&#45;&gt;:core:domain -->
<g id="edge21" class="edge">
<title>:feature:lmu&#45;readout&#45;vehicle&#45;approach&#45;detail&#45;&gt;:core:domain</title>
<path fill="none" stroke="black" d="M1135.39,-76.69C1314.77,-61.7 1610.83,-36.97 1749.66,-25.38"/>
<polygon fill="black" stroke="black" points="1750.11,-28.85 1759.79,-24.53 1749.53,-21.87 1750.11,-28.85"/>
</g>
<!-- :core:designsystem -->
<g id="node16" class="node">
<title>:core:designsystem</title>
<ellipse fill="none" stroke="black" cx="540.99" cy="-18" rx="100.98" ry="18"/>
<text text-anchor="middle" x="540.99" y="-14.3" font-family="Times,serif" font-size="14.00">:core:designsystem</text>
</g>
<!-- :feature:lmu&#45;readout&#45;vehicle&#45;approach&#45;detail&#45;&gt;:core:designsystem -->
<g id="edge22" class="edge">
<title>:feature:lmu&#45;readout&#45;vehicle&#45;approach&#45;detail&#45;&gt;:core:designsystem</title>
<path fill="none" stroke="black" d="M891.27,-73.85C811.55,-61.37 699.66,-43.85 623.96,-31.99"/>
<polygon fill="black" stroke="black" points="624.42,-28.52 613.99,-30.43 623.33,-35.44 624.42,-28.52"/>
</g>
<!-- :feature:lmu&#45;readout&#45;flag&#45;detail&#45;&gt;:core:domain -->
<g id="edge19" class="edge">
<title>:feature:lmu&#45;readout&#45;flag&#45;detail&#45;&gt;:core:domain</title>
<path fill="none" stroke="black" d="M263.29,-76.88C282.48,-75.02 302.31,-73.29 320.99,-72 864.28,-34.49 1519.84,-22.93 1745.29,-19.93"/>
<polygon fill="black" stroke="black" points="1745.42,-23.43 1755.38,-19.8 1745.33,-16.43 1745.42,-23.43"/>
</g>
<!-- :feature:lmu&#45;readout&#45;flag&#45;detail&#45;&gt;:core:designsystem -->
<g id="edge20" class="edge">
<title>:feature:lmu&#45;readout&#45;flag&#45;detail&#45;&gt;:core:designsystem</title>
<path fill="none" stroke="black" d="M235.76,-74.5C302.48,-62.36 397.11,-45.16 463.26,-33.13"/>
<polygon fill="black" stroke="black" points="464,-36.56 473.21,-31.32 462.74,-29.67 464,-36.56"/>
</g>
<!-- :feature:lmu&#45;readout&#45;vehicle&#45;damage&#45;detail&#45;&gt;:core:domain -->
<g id="edge23" class="edge">
<title>:feature:lmu&#45;readout&#45;vehicle&#45;damage&#45;detail&#45;&gt;:core:domain</title>
<path fill="none" stroke="black" d="M688.28,-77.06C712.56,-75.25 737.47,-73.49 760.99,-72 1129.12,-48.62 1569.38,-29.53 1746.47,-22.21"/>
<polygon fill="black" stroke="black" points="1746.64,-25.71 1756.48,-21.8 1746.35,-18.71 1746.64,-25.71"/>
</g>
<!-- :feature:lmu&#45;readout&#45;vehicle&#45;damage&#45;detail&#45;&gt;:core:designsystem -->
<g id="edge24" class="edge">
<title>:feature:lmu&#45;readout&#45;vehicle&#45;damage&#45;detail&#45;&gt;:core:designsystem</title>
<path fill="none" stroke="black" d="M540.99,-71.7C540.99,-63.98 540.99,-54.71 540.99,-46.11"/>
<polygon fill="black" stroke="black" points="544.49,-46.1 540.99,-36.1 537.49,-46.1 544.49,-46.1"/>
</g>
<!-- :app:webApp -->
<g id="node15" class="node">
<title>:app:webApp</title>
<ellipse fill="none" stroke="black" cx="1705.99" cy="-234" rx="70.69" ry="18"/>
<text text-anchor="middle" x="1705.99" y="-230.3" font-family="Times,serif" font-size="14.00">:app:webApp</text>
</g>
<!-- :app:webApp&#45;&gt;:app:shared -->
<g id="edge15" class="edge">
<title>:app:webApp&#45;&gt;:app:shared</title>
<path fill="none" stroke="black" d="M1705.99,-215.7C1705.99,-207.98 1705.99,-198.71 1705.99,-190.11"/>
<polygon fill="black" stroke="black" points="1709.49,-190.1 1705.99,-180.1 1702.49,-190.1 1709.49,-190.1"/>
</g>
</g>
</svg>
