<?xml version="1.0" encoding="UTF-8" standalone="no"?>
<!DOCTYPE svg PUBLIC "-//W3C//DTD SVG 1.1//EN"
 "http://www.w3.org/Graphics/SVG/1.1/DTD/svg11.dtd">
<!-- Generated by graphviz version 2.43.0 (0)
 -->
<!-- Title: G Pages: 1 -->
<svg width="3087pt" height="260pt"
 viewBox="0.00 0.00 3087.11 260.00" xmlns="http://www.w3.org/2000/svg" xmlns:xlink="http://www.w3.org/1999/xlink">
<g id="graph0" class="graph" transform="scale(1 1) rotate(0) translate(4 256)">
<title>G</title>
<polygon fill="white" stroke="transparent" points="-4,4 -4,-256 3083.11,-256 3083.11,4 -4,4"/>
<!-- :server -->
<g id="node1" class="node">
<title>:server</title>
<ellipse fill="none" stroke="black" cx="186.37" cy="-162" rx="43.59" ry="18"/>
<text text-anchor="middle" x="186.37" y="-158.3" font-family="Times,serif" font-size="14.00">:server</text>
</g>
<!-- :core:domain -->
<g id="node2" class="node">
<title>:core:domain</title>
<ellipse fill="none" stroke="black" cx="831.37" cy="-18" rx="70.69" ry="18"/>
<text text-anchor="middle" x="831.37" y="-14.3" font-family="Times,serif" font-size="14.00">:core:domain</text>
</g>
<!-- :server&#45;&gt;:core:domain -->
<g id="edge1" class="edge">
<title>:server&#45;&gt;:core:domain</title>
<path fill="none" stroke="black" d="M145.88,-155.35C81.29,-144.81 -33.54,-118.84 10.37,-72 35.47,-45.23 549.56,-27.28 751.21,-21.24"/>
<polygon fill="black" stroke="black" points="751.55,-24.74 761.44,-20.94 751.34,-17.74 751.55,-24.74"/>
</g>
<!-- :app:androidApp -->
<g id="node3" class="node">
<title>:app:androidApp</title>
<ellipse fill="none" stroke="black" cx="781.37" cy="-234" rx="87.18" ry="18"/>
<text text-anchor="middle" x="781.37" y="-230.3" font-family="Times,serif" font-size="14.00">:app:androidApp</text>
</g>
<!-- :app:shared -->
<g id="node4" class="node">
<title>:app:shared</title>
<ellipse fill="none" stroke="black" cx="1004.37" cy="-162" rx="65.79" ry="18"/>
<text text-anchor="middle" x="1004.37" y="-158.3" font-family="Times,serif" font-size="14.00">:app:shared</text>
</g>
<!-- :app:androidApp&#45;&gt;:app:shared -->
<g id="edge2" class="edge">
<title>:app:androidApp&#45;&gt;:app:shared</title>
<path fill="none" stroke="black" d="M827.04,-218.67C863.65,-207.17 915.01,-191.05 953.05,-179.11"/>
<polygon fill="black" stroke="black" points="954.41,-182.35 962.9,-176.02 952.31,-175.67 954.41,-182.35"/>
</g>
<!-- :core:data -->
<g id="node5" class="node">
<title>:core:data</title>
<ellipse fill="none" stroke="black" cx="494.37" cy="-162" rx="57.39" ry="18"/>
<text text-anchor="middle" x="494.37" y="-158.3" font-family="Times,serif" font-size="14.00">:core:data</text>
</g>
<!-- :app:androidApp&#45;&gt;:core:data -->
<g id="edge3" class="edge">
<title>:app:androidApp&#45;&gt;:core:data</title>
<path fill="none" stroke="black" d="M727.39,-219.83C676.09,-207.32 599.37,-188.61 548.14,-176.11"/>
<polygon fill="black" stroke="black" points="548.79,-172.67 538.25,-173.7 547.14,-179.47 548.79,-172.67"/>
</g>
<!-- :feature:lmu&#45;connection -->
<g id="node7" class="node">
<title>:feature:lmu&#45;connection</title>
<ellipse fill="none" stroke="black" cx="582.37" cy="-90" rx="120.78" ry="18"/>
<text text-anchor="middle" x="582.37" y="-86.3" font-family="Times,serif" font-size="14.00">:feature:lmu&#45;connection</text>
</g>
<!-- :app:shared&#45;&gt;:feature:lmu&#45;connection -->
<g id="edge7" class="edge">
<title>:app:shared&#45;&gt;:feature:lmu&#45;connection</title>
<path fill="none" stroke="black" d="M949.63,-151.92C878.7,-140.15 754.16,-119.5 670,-105.53"/>
<polygon fill="black" stroke="black" points="670.38,-102.05 659.94,-103.87 669.23,-108.96 670.38,-102.05"/>
</g>
<!-- :feature:lmu&#45;narrator -->
<g id="node8" class="node">
<title>:feature:lmu&#45;narrator</title>
<ellipse fill="none" stroke="black" cx="831.37" cy="-90" rx="109.68" ry="18"/>
<text text-anchor="middle" x="831.37" y="-86.3" font-family="Times,serif" font-size="14.00">:feature:lmu&#45;narrator</text>
</g>
<!-- :app:shared&#45;&gt;:feature:lmu&#45;narrator -->
<g id="edge8" class="edge">
<title>:app:shared&#45;&gt;:feature:lmu&#45;narrator</title>
<path fill="none" stroke="black" d="M968.94,-146.67C943.28,-136.28 908.26,-122.11 879.98,-110.67"/>
<polygon fill="black" stroke="black" points="881.25,-107.41 870.67,-106.9 878.63,-113.9 881.25,-107.41"/>
</g>
<!-- :feature:other&#45;license&#45;detail -->
<g id="node9" class="node">
<title>:feature:other&#45;license&#45;detail</title>
<ellipse fill="none" stroke="black" cx="2939.37" cy="-90" rx="139.98" ry="18"/>
<text text-anchor="middle" x="2939.37" y="-86.3" font-family="Times,serif" font-size="14.00">:feature:other&#45;license&#45;detail</text>
</g>
<!-- :app:shared&#45;&gt;:feature:other&#45;license&#45;detail -->
<g id="edge9" class="edge">
<title>:app:shared&#45;&gt;:feature:other&#45;license&#45;detail</title>
<path fill="none" stroke="black" d="M1070.15,-161.04C1304.4,-160.75 2119.72,-156.12 2790.37,-108 2804.16,-107.01 2818.64,-105.7 2832.94,-104.24"/>
<polygon fill="black" stroke="black" points="2833.72,-107.68 2843.3,-103.16 2832.99,-100.72 2833.72,-107.68"/>
</g>
<!-- :feature:other&#45;list -->
<g id="node10" class="node">
<title>:feature:other&#45;list</title>
<ellipse fill="none" stroke="black" cx="124.37" cy="-90" rx="92.88" ry="18"/>
<text text-anchor="middle" x="124.37" y="-86.3" font-family="Times,serif" font-size="14.00">:feature:other&#45;list</text>
</g>
<!-- :app:shared&#45;&gt;:feature:other&#45;list -->
<g id="edge10" class="edge">
<title>:app:shared&#45;&gt;:feature:other&#45;list</title>
<path fill="none" stroke="black" d="M939.62,-158.72C805.96,-153.54 489.92,-138.87 226.37,-108 217.75,-106.99 208.76,-105.76 199.83,-104.42"/>
<polygon fill="black" stroke="black" points="200.22,-100.94 189.81,-102.87 199.15,-107.86 200.22,-100.94"/>
</g>
<!-- :feature:other&#45;server&#45;ip&#45;detail -->
<g id="node11" class="node">
<title>:feature:other&#45;server&#45;ip&#45;detail</title>
<ellipse fill="none" stroke="black" cx="2332.37" cy="-90" rx="148.67" ry="18"/>
<text text-anchor="middle" x="2332.37" y="-86.3" font-family="Times,serif" font-size="14.00">:feature:other&#45;server&#45;ip&#45;detail</text>
</g>
<!-- :app:shared&#45;&gt;:feature:other&#45;server&#45;ip&#45;detail -->
<g id="edge11" class="edge">
<title>:app:shared&#45;&gt;:feature:other&#45;server&#45;ip&#45;detail</title>
<path fill="none" stroke="black" d="M1069.46,-159.47C1246.9,-154.98 1753.93,-140.11 2174.37,-108 2188.79,-106.9 2203.92,-105.54 2218.88,-104.07"/>
<polygon fill="black" stroke="black" points="2219.59,-107.51 2229.19,-103.03 2218.89,-100.55 2219.59,-107.51"/>
</g>
<!-- :feature:other&#45;volume&#45;detail -->
<g id="node12" class="node">
<title>:feature:other&#45;volume&#45;detail</title>
<ellipse fill="none" stroke="black" cx="2640.37" cy="-90" rx="141.07" ry="18"/>
<text text-anchor="middle" x="2640.37" y="-86.3" font-family="Times,serif" font-size="14.00">:feature:other&#45;volume&#45;detail</text>
</g>
<!-- :app:shared&#45;&gt;:feature:other&#45;volume&#45;detail -->
<g id="edge12" class="edge">
<title>:app:shared&#45;&gt;:feature:other&#45;volume&#45;detail</title>
<path fill="none" stroke="black" d="M1070.02,-160.47C1278.22,-158.38 1942.35,-148.77 2490.37,-108 2504.15,-106.98 2518.61,-105.65 2532.89,-104.2"/>
<polygon fill="black" stroke="black" points="2533.66,-107.63 2543.24,-103.12 2532.93,-100.67 2533.66,-107.63"/>
</g>
<!-- :feature:readout&#45;list -->
<g id="node13" class="node">
<title>:feature:readout&#45;list</title>
<ellipse fill="none" stroke="black" cx="339.37" cy="-90" rx="103.98" ry="18"/>
<text text-anchor="middle" x="339.37" y="-86.3" font-family="Times,serif" font-size="14.00">:feature:readout&#45;list</text>
</g>
<!-- :app:shared&#45;&gt;:feature:readout&#45;list -->
<g id="edge13" class="edge">
<title>:app:shared&#45;&gt;:feature:readout&#45;list</title>
<path fill="none" stroke="black" d="M942.16,-156.12C839.83,-147.85 629.62,-129.83 452.37,-108 443.02,-106.85 433.24,-105.54 423.53,-104.17"/>
<polygon fill="black" stroke="black" points="423.84,-100.68 413.45,-102.73 422.85,-107.61 423.84,-100.68"/>
</g>
<!-- :feature:lmu&#45;readout&#45;vehicle&#45;approach&#45;detail -->
<g id="node14" class="node">
<title>:feature:lmu&#45;readout&#45;vehicle&#45;approach&#45;detail</title>
<ellipse fill="none" stroke="black" cx="1177.37" cy="-90" rx="217.96" ry="18"/>
<text text-anchor="middle" x="1177.37" y="-86.3" font-family="Times,serif" font-size="14.00">:feature:lmu&#45;readout&#45;vehicle&#45;approach&#45;detail</text>
</g>
<!-- :app:shared&#45;&gt;:feature:lmu&#45;readout&#45;vehicle&#45;approach&#45;detail -->
<g id="edge14" class="edge">
<title>:app:shared&#45;&gt;:feature:lmu&#45;readout&#45;vehicle&#45;approach&#45;detail</title>
<path fill="none" stroke="black" d="M1039.8,-146.67C1064.73,-136.58 1098.49,-122.92 1126.33,-111.65"/>
<polygon fill="black" stroke="black" points="1127.95,-114.77 1135.9,-107.78 1125.32,-108.28 1127.95,-114.77"/>
</g>
<!-- :feature:lmu&#45;readout&#45;flag&#45;detail -->
<g id="node15" class="node">
<title>:feature:lmu&#45;readout&#45;flag&#45;detail</title>
<ellipse fill="none" stroke="black" cx="1569.37" cy="-90" rx="155.97" ry="18"/>
<text text-anchor="middle" x="1569.37" y="-86.3" font-family="Times,serif" font-size="14.00">:feature:lmu&#45;readout&#45;flag&#45;detail</text>
</g>
<!-- :app:shared&#45;&gt;:feature:lmu&#45;readout&#45;flag&#45;detail -->
<g id="edge15" class="edge">
<title>:app:shared&#45;&gt;:feature:lmu&#45;readout&#45;flag&#45;detail</title>
<path fill="none" stroke="black" d="M1062.97,-153.74C1155.82,-142.24 1338.36,-119.62 1457.04,-104.92"/>
<polygon fill="black" stroke="black" points="1457.75,-108.36 1467.25,-103.65 1456.89,-101.41 1457.75,-108.36"/>
</g>
<!-- :feature:lmu&#45;readout&#45;vehicle&#45;damage&#45;detail -->
<g id="node16" class="node">
<title>:feature:lmu&#45;readout&#45;vehicle&#45;damage&#45;detail</title>
<ellipse fill="none" stroke="black" cx="1954.37" cy="-90" rx="211.46" ry="18"/>
<text text-anchor="middle" x="1954.37" y="-86.3" font-family="Times,serif" font-size="14.00">:feature:lmu&#45;readout&#45;vehicle&#45;damage&#45;detail</text>
</g>
<!-- :app:shared&#45;&gt;:feature:lmu&#45;readout&#45;vehicle&#45;damage&#45;detail -->
<g id="edge16" class="edge">
<title>:app:shared&#45;&gt;:feature:lmu&#45;readout&#45;vehicle&#45;damage&#45;detail</title>
<path fill="none" stroke="black" d="M1067.36,-156.53C1193.81,-147.52 1487.59,-126.49 1734.37,-108 1753.73,-106.55 1774.05,-105.01 1794.19,-103.46"/>
<polygon fill="black" stroke="black" points="1794.67,-106.94 1804.38,-102.68 1794.14,-99.96 1794.67,-106.94"/>
</g>
<!-- :core:data&#45;&gt;:core:domain -->
<g id="edge18" class="edge">
<title>:core:data&#45;&gt;:core:domain</title>
<path fill="none" stroke="black" d="M439.38,-156.78C317.87,-147.19 36.14,-123.41 22.37,-108 11.71,-96.07 11.43,-83.68 22.37,-72 71.38,-19.68 554.75,-17.07 750.09,-18.18"/>
<polygon fill="black" stroke="black" points="750.27,-21.68 760.3,-18.25 750.32,-14.68 750.27,-21.68"/>
</g>
<!-- :app:desktopApp -->
<g id="node6" class="node">
<title>:app:desktopApp</title>
<ellipse fill="none" stroke="black" cx="494.37" cy="-234" rx="88.28" ry="18"/>
<text text-anchor="middle" x="494.37" y="-230.3" font-family="Times,serif" font-size="14.00">:app:desktopApp</text>
</g>
<!-- :app:desktopApp&#45;&gt;:server -->
<g id="edge6" class="edge">
<title>:app:desktopApp&#45;&gt;:server</title>
<path fill="none" stroke="black" d="M437.52,-220.08C378.77,-206.73 288.15,-186.13 233.33,-173.67"/>
<polygon fill="black" stroke="black" points="234.06,-170.25 223.53,-171.45 232.51,-177.07 234.06,-170.25"/>
</g>
<!-- :app:desktopApp&#45;&gt;:app:shared -->
<g id="edge4" class="edge">
<title>:app:desktopApp&#45;&gt;:app:shared</title>
<path fill="none" stroke="black" d="M565.55,-223.23C664.1,-209.7 840.82,-185.45 937.19,-172.22"/>
<polygon fill="black" stroke="black" points="937.69,-175.69 947.12,-170.86 936.73,-168.75 937.69,-175.69"/>
</g>
<!-- :app:desktopApp&#45;&gt;:core:data -->
<g id="edge5" class="edge">
<title>:app:desktopApp&#45;&gt;:core:data</title>
<path fill="none" stroke="black" d="M494.37,-215.7C494.37,-207.98 494.37,-198.71 494.37,-190.11"/>
<polygon fill="black" stroke="black" points="497.87,-190.1 494.37,-180.1 490.87,-190.1 497.87,-190.1"/>
</g>
<!-- :feature:lmu&#45;connection&#45;&gt;:core:domain -->
<g id="edge19" class="edge">
<title>:feature:lmu&#45;connection&#45;&gt;:core:domain</title>
<path fill="none" stroke="black" d="M636.4,-73.81C677.71,-62.2 734.47,-46.24 776.09,-34.54"/>
<polygon fill="black" stroke="black" points="777.11,-37.89 785.79,-31.81 775.22,-31.15 777.11,-37.89"/>
</g>
<!-- :feature:lmu&#45;narrator&#45;&gt;:core:domain -->
<g id="edge20" class="edge">
<title>:feature:lmu&#45;narrator&#45;&gt;:core:domain</title>
<path fill="none" stroke="black" d="M831.37,-71.7C831.37,-63.98 831.37,-54.71 831.37,-46.11"/>
<polygon fill="black" stroke="black" points="834.87,-46.1 831.37,-36.1 827.87,-46.1 834.87,-46.1"/>
</g>
<!-- :core:designsystem -->
<g id="node18" class="node">
<title>:core:designsystem</title>
<ellipse fill="none" stroke="black" cx="2143.37" cy="-18" rx="100.98" ry="18"/>
<text text-anchor="middle" x="2143.37" y="-14.3" font-family="Times,serif" font-size="14.00">:core:designsystem</text>
</g>
<!-- :feature:other&#45;license&#45;detail&#45;&gt;:core:designsystem -->
<g id="edge27" class="edge">
<title>:feature:other&#45;license&#45;detail&#45;&gt;:core:designsystem</title>
<path fill="none" stroke="black" d="M2840.43,-77.26C2823.73,-75.41 2806.56,-73.59 2790.37,-72 2597.75,-53.13 2372.42,-35.73 2244.93,-26.31"/>
<polygon fill="black" stroke="black" points="2245.02,-22.81 2234.79,-25.57 2244.51,-29.79 2245.02,-22.81"/>
</g>
<!-- :feature:other&#45;list&#45;&gt;:core:domain -->
<g id="edge28" class="edge">
<title>:feature:other&#45;list&#45;&gt;:core:domain</title>
<path fill="none" stroke="black" d="M190.1,-77.27C202.14,-75.34 214.62,-73.49 226.37,-72 414.71,-48.09 637.42,-31.6 752.97,-23.91"/>
<polygon fill="black" stroke="black" points="753.39,-27.39 763.14,-23.24 752.93,-20.41 753.39,-27.39"/>
</g>
<!-- :feature:other&#45;server&#45;ip&#45;detail&#45;&gt;:core:domain -->
<g id="edge29" class="edge">
<title>:feature:other&#45;server&#45;ip&#45;detail&#45;&gt;:core:domain</title>
<path fill="none" stroke="black" d="M2229.62,-76.92C2211.24,-75.06 2192.25,-73.31 2174.37,-72 1696.64,-36.91 1121.5,-24.02 912.36,-20.28"/>
<polygon fill="black" stroke="black" points="912.15,-16.78 902.09,-20.1 912.02,-23.78 912.15,-16.78"/>
</g>
<!-- :feature:other&#45;server&#45;ip&#45;detail&#45;&gt;:core:designsystem -->
<g id="edge30" class="edge">
<title>:feature:other&#45;server&#45;ip&#45;detail&#45;&gt;:core:designsystem</title>
<path fill="none" stroke="black" d="M2288.53,-72.76C2260.51,-62.39 2224.06,-48.88 2194.69,-38.01"/>
<polygon fill="black" stroke="black" points="2195.62,-34.62 2185.02,-34.43 2193.18,-41.18 2195.62,-34.62"/>
</g>
<!-- :feature:other&#45;volume&#45;detail&#45;&gt;:core:domain -->
<g id="edge31" class="edge">
<title>:feature:other&#45;volume&#45;detail&#45;&gt;:core:domain</title>
<path fill="none" stroke="black" d="M2543.65,-76.87C2525.95,-74.99 2507.62,-73.25 2490.37,-72 1885.08,-28.1 1152.93,-20.56 912.28,-19.27"/>
<polygon fill="black" stroke="black" points="912.24,-15.77 902.22,-19.22 912.2,-22.77 912.24,-15.77"/>
</g>
<!-- :feature:other&#45;volume&#45;detail&#45;&gt;:core:designsystem -->
<g id="edge32" class="edge">
<title>:feature:other&#45;volume&#45;detail&#45;&gt;:core:designsystem</title>
<path fill="none" stroke="black" d="M2549.5,-76.2C2458.47,-63.38 2319.38,-43.79 2229.91,-31.19"/>
<polygon fill="black" stroke="black" points="2230.19,-27.69 2219.8,-29.76 2229.21,-34.62 2230.19,-27.69"/>
</g>
<!-- :feature:readout&#45;list&#45;&gt;:core:domain -->
<g id="edge33" class="edge">
<title>:feature:readout&#45;list&#45;&gt;:core:domain</title>
<path fill="none" stroke="black" d="M414.73,-77.55C427.29,-75.67 440.2,-73.77 452.37,-72 559.81,-56.41 684.52,-39.12 760.67,-28.66"/>
<polygon fill="black" stroke="black" points="761.19,-32.12 770.62,-27.3 760.24,-25.19 761.19,-32.12"/>
</g>
<!-- :feature:lmu&#45;readout&#45;vehicle&#45;approach&#45;detail&#45;&gt;:core:domain -->
<g id="edge23" class="edge">
<title>:feature:lmu&#45;readout&#45;vehicle&#45;approach&#45;detail&#45;&gt;:core:domain</title>
<path fill="none" stroke="black" d="M1098.86,-73.12C1037.16,-60.63 952.34,-43.47 894.88,-31.85"/>
<polygon fill="black" stroke="black" points="895.34,-28.37 884.84,-29.82 893.95,-35.23 895.34,-28.37"/>
</g>
<!-- :feature:lmu&#45;readout&#45;vehicle&#45;approach&#45;detail&#45;&gt;:core:designsystem -->
<g id="edge24" class="edge">
<title>:feature:lmu&#45;readout&#45;vehicle&#45;approach&#45;detail&#45;&gt;:core:designsystem</title>
<path fill="none" stroke="black" d="M1332.44,-77.32C1356.52,-75.53 1381.12,-73.7 1404.37,-72 1631.9,-55.32 1898.89,-36.31 2041.44,-26.21"/>
<polygon fill="black" stroke="black" points="2041.76,-29.69 2051.48,-25.5 2041.26,-22.71 2041.76,-29.69"/>
</g>
<!-- :feature:lmu&#45;readout&#45;flag&#45;detail&#45;&gt;:core:domain -->
<g id="edge21" class="edge">
<title>:feature:lmu&#45;readout&#45;flag&#45;detail&#45;&gt;:core:domain</title>
<path fill="none" stroke="black" d="M1458,-77.37C1440.07,-75.54 1421.71,-73.7 1404.37,-72 1226.23,-54.59 1016.79,-35.59 907.11,-25.75"/>
<polygon fill="black" stroke="black" points="907.4,-22.26 897.13,-24.86 906.78,-29.24 907.4,-22.26"/>
</g>
<!-- :feature:lmu&#45;readout&#45;flag&#45;detail&#45;&gt;:core:designsystem -->
<g id="edge22" class="edge">
<title>:feature:lmu&#45;readout&#45;flag&#45;detail&#45;&gt;:core:designsystem</title>
<path fill="none" stroke="black" d="M1672.32,-76.45C1780.51,-63.25 1949.04,-42.7 2052.46,-30.09"/>
<polygon fill="black" stroke="black" points="2053.07,-33.54 2062.58,-28.85 2052.23,-26.59 2053.07,-33.54"/>
</g>
<!-- :feature:lmu&#45;readout&#45;vehicle&#45;damage&#45;detail&#45;&gt;:core:domain -->
<g id="edge25" class="edge">
<title>:feature:lmu&#45;readout&#45;vehicle&#45;damage&#45;detail&#45;&gt;:core:domain</title>
<path fill="none" stroke="black" d="M1806.18,-77.17C1782.18,-75.36 1757.59,-73.58 1734.37,-72 1429.66,-51.29 1066.78,-31.46 909.96,-23.12"/>
<polygon fill="black" stroke="black" points="910.1,-19.63 899.93,-22.59 909.73,-26.62 910.1,-19.63"/>
</g>
<!-- :feature:lmu&#45;readout&#45;vehicle&#45;damage&#45;detail&#45;&gt;:core:designsystem -->
<g id="edge26" class="edge">
<title>:feature:lmu&#45;readout&#45;vehicle&#45;damage&#45;detail&#45;&gt;:core:designsystem</title>
<path fill="none" stroke="black" d="M1999.64,-72.23C2027.51,-61.91 2063.29,-48.66 2092.19,-37.96"/>
<polygon fill="black" stroke="black" points="2093.54,-41.19 2101.7,-34.43 2091.11,-34.62 2093.54,-41.19"/>
</g>
<!-- :app:webApp -->
<g id="node17" class="node">
<title>:app:webApp</title>
<ellipse fill="none" stroke="black" cx="1004.37" cy="-234" rx="70.69" ry="18"/>
<text text-anchor="middle" x="1004.37" y="-230.3" font-family="Times,serif" font-size="14.00">:app:webApp</text>
</g>
<!-- :app:webApp&#45;&gt;:app:shared -->
<g id="edge17" class="edge">
<title>:app:webApp&#45;&gt;:app:shared</title>
<path fill="none" stroke="black" d="M1004.37,-215.7C1004.37,-207.98 1004.37,-198.71 1004.37,-190.11"/>
<polygon fill="black" stroke="black" points="1007.87,-190.1 1004.37,-180.1 1000.87,-190.1 1007.87,-190.1"/>
</g>
</g>
</svg>
