<?xml version="1.0" encoding="UTF-8" standalone="no"?>
<!DOCTYPE svg PUBLIC "-//W3C//DTD SVG 1.1//EN"
 "http://www.w3.org/Graphics/SVG/1.1/DTD/svg11.dtd">
<!-- Generated by graphviz version 2.43.0 (0)
 -->
<!-- Title: G Pages: 1 -->
<svg width="5652pt" height="260pt"
 viewBox="0.00 0.00 5651.63 260.00" xmlns="http://www.w3.org/2000/svg" xmlns:xlink="http://www.w3.org/1999/xlink">
<g id="graph0" class="graph" transform="scale(1 1) rotate(0) translate(4 256)">
<title>G</title>
<polygon fill="white" stroke="transparent" points="-4,4 -4,-256 5647.63,-256 5647.63,4 -4,4"/>
<!-- :server -->
<g id="node1" class="node">
<title>:server</title>
<ellipse fill="none" stroke="black" cx="577.89" cy="-162" rx="43.59" ry="18"/>
<text text-anchor="middle" x="577.89" y="-158.3" font-family="Times,serif" font-size="14.00">:server</text>
</g>
<!-- :core:domain -->
<g id="node2" class="node">
<title>:core:domain</title>
<ellipse fill="none" stroke="black" cx="1781.89" cy="-18" rx="70.69" ry="18"/>
<text text-anchor="middle" x="1781.89" y="-14.3" font-family="Times,serif" font-size="14.00">:core:domain</text>
</g>
<!-- :server&#45;&gt;:core:domain -->
<g id="edge1" class="edge">
<title>:server&#45;&gt;:core:domain</title>
<path fill="none" stroke="black" d="M534.96,-158.33C410.38,-150.4 56.49,-126.32 39.89,-108 29.14,-96.14 28.75,-83.48 39.89,-72 69.16,-41.82 1361.4,-24.09 1700.9,-19.94"/>
<polygon fill="black" stroke="black" points="1701.18,-23.44 1711.14,-19.82 1701.1,-16.44 1701.18,-23.44"/>
</g>
<!-- :app:androidApp -->
<g id="node3" class="node">
<title>:app:androidApp</title>
<ellipse fill="none" stroke="black" cx="1724.89" cy="-234" rx="87.18" ry="18"/>
<text text-anchor="middle" x="1724.89" y="-230.3" font-family="Times,serif" font-size="14.00">:app:androidApp</text>
</g>
<!-- :app:shared -->
<g id="node4" class="node">
<title>:app:shared</title>
<ellipse fill="none" stroke="black" cx="2505.89" cy="-162" rx="65.79" ry="18"/>
<text text-anchor="middle" x="2505.89" y="-158.3" font-family="Times,serif" font-size="14.00">:app:shared</text>
</g>
<!-- :app:androidApp&#45;&gt;:app:shared -->
<g id="edge2" class="edge">
<title>:app:androidApp&#45;&gt;:app:shared</title>
<path fill="none" stroke="black" d="M1802.99,-226C1954.84,-212.39 2287.81,-182.55 2434.31,-169.42"/>
<polygon fill="black" stroke="black" points="2434.88,-172.88 2444.53,-168.5 2434.26,-165.91 2434.88,-172.88"/>
</g>
<!-- :core:data -->
<g id="node5" class="node">
<title>:core:data</title>
<ellipse fill="none" stroke="black" cx="833.89" cy="-162" rx="57.39" ry="18"/>
<text text-anchor="middle" x="833.89" y="-158.3" font-family="Times,serif" font-size="14.00">:core:data</text>
</g>
<!-- :app:androidApp&#45;&gt;:core:data -->
<g id="edge3" class="edge">
<title>:app:androidApp&#45;&gt;:core:data</title>
<path fill="none" stroke="black" d="M1645.03,-226.73C1470.64,-213.03 1058.57,-180.65 898.79,-168.1"/>
<polygon fill="black" stroke="black" points="898.88,-164.59 888.63,-167.3 898.33,-171.57 898.88,-164.59"/>
</g>
<!-- :feature:main -->
<g id="node8" class="node">
<title>:feature:main</title>
<ellipse fill="none" stroke="black" cx="1781.89" cy="-90" rx="73.39" ry="18"/>
<text text-anchor="middle" x="1781.89" y="-86.3" font-family="Times,serif" font-size="14.00">:feature:main</text>
</g>
<!-- :app:shared&#45;&gt;:feature:main -->
<g id="edge8" class="edge">
<title>:app:shared&#45;&gt;:feature:main</title>
<path fill="none" stroke="black" d="M2441.46,-158.22C2325.61,-152.67 2074.63,-138.04 1864.89,-108 1858.24,-107.05 1851.32,-105.89 1844.43,-104.64"/>
<polygon fill="black" stroke="black" points="1844.89,-101.16 1834.41,-102.74 1843.59,-108.04 1844.89,-101.16"/>
</g>
<!-- :feature:lmu&#45;windows&#45;connection -->
<g id="node9" class="node">
<title>:feature:lmu&#45;windows&#45;connection</title>
<ellipse fill="none" stroke="black" cx="2037.89" cy="-90" rx="164.37" ry="18"/>
<text text-anchor="middle" x="2037.89" y="-86.3" font-family="Times,serif" font-size="14.00">:feature:lmu&#45;windows&#45;connection</text>
</g>
<!-- :app:shared&#45;&gt;:feature:lmu&#45;windows&#45;connection -->
<g id="edge9" class="edge">
<title>:app:shared&#45;&gt;:feature:lmu&#45;windows&#45;connection</title>
<path fill="none" stroke="black" d="M2449.44,-152.56C2373.13,-141.14 2235.7,-120.59 2140.78,-106.39"/>
<polygon fill="black" stroke="black" points="2141.27,-102.92 2130.86,-104.91 2140.24,-109.85 2141.27,-102.92"/>
</g>
<!-- :feature:server&#45;connection -->
<g id="node10" class="node">
<title>:feature:server&#45;connection</title>
<ellipse fill="none" stroke="black" cx="2353.89" cy="-90" rx="133.48" ry="18"/>
<text text-anchor="middle" x="2353.89" y="-86.3" font-family="Times,serif" font-size="14.00">:feature:server&#45;connection</text>
</g>
<!-- :app:shared&#45;&gt;:feature:server&#45;connection -->
<g id="edge10" class="edge">
<title>:app:shared&#45;&gt;:feature:server&#45;connection</title>
<path fill="none" stroke="black" d="M2473.65,-146.15C2451.88,-136.13 2422.84,-122.75 2398.81,-111.69"/>
<polygon fill="black" stroke="black" points="2400.08,-108.42 2389.53,-107.41 2397.15,-114.78 2400.08,-108.42"/>
</g>
<!-- :feature:lmu&#45;windows&#45;narrator -->
<g id="node11" class="node">
<title>:feature:lmu&#45;windows&#45;narrator</title>
<ellipse fill="none" stroke="black" cx="2658.89" cy="-90" rx="153.27" ry="18"/>
<text text-anchor="middle" x="2658.89" y="-86.3" font-family="Times,serif" font-size="14.00">:feature:lmu&#45;windows&#45;narrator</text>
</g>
<!-- :app:shared&#45;&gt;:feature:lmu&#45;windows&#45;narrator -->
<g id="edge11" class="edge">
<title>:app:shared&#45;&gt;:feature:lmu&#45;windows&#45;narrator</title>
<path fill="none" stroke="black" d="M2538.34,-146.15C2560.17,-136.16 2589.28,-122.85 2613.42,-111.8"/>
<polygon fill="black" stroke="black" points="2615.1,-114.88 2622.74,-107.54 2612.19,-108.52 2615.1,-114.88"/>
</g>
<!-- :feature:other&#45;license&#45;detail -->
<g id="node12" class="node">
<title>:feature:other&#45;license&#45;detail</title>
<ellipse fill="none" stroke="black" cx="5503.89" cy="-90" rx="139.98" ry="18"/>
<text text-anchor="middle" x="5503.89" y="-86.3" font-family="Times,serif" font-size="14.00">:feature:other&#45;license&#45;detail</text>
</g>
<!-- :app:shared&#45;&gt;:feature:other&#45;license&#45;detail -->
<g id="edge12" class="edge">
<title>:app:shared&#45;&gt;:feature:other&#45;license&#45;detail</title>
<path fill="none" stroke="black" d="M2571.42,-160.63C2942.91,-158.39 4787.69,-145.55 5354.89,-108 5369.03,-107.06 5383.9,-105.76 5398.54,-104.28"/>
<polygon fill="black" stroke="black" points="5399.04,-107.75 5408.63,-103.23 5398.32,-100.78 5399.04,-107.75"/>
</g>
<!-- :feature:other&#45;list -->
<g id="node13" class="node">
<title>:feature:other&#45;list</title>
<ellipse fill="none" stroke="black" cx="954.89" cy="-90" rx="92.88" ry="18"/>
<text text-anchor="middle" x="954.89" y="-86.3" font-family="Times,serif" font-size="14.00">:feature:other&#45;list</text>
</g>
<!-- :app:shared&#45;&gt;:feature:other&#45;list -->
<g id="edge13" class="edge">
<title>:app:shared&#45;&gt;:feature:other&#45;list</title>
<path fill="none" stroke="black" d="M2439.92,-161.64C2234.44,-162.98 1587.8,-162.25 1055.89,-108 1047.21,-107.12 1038.16,-105.95 1029.18,-104.63"/>
<polygon fill="black" stroke="black" points="1029.52,-101.14 1019.11,-103.1 1028.46,-108.06 1029.52,-101.14"/>
</g>
<!-- :feature:other&#45;server&#45;ip&#45;detail -->
<g id="node14" class="node">
<title>:feature:other&#45;server&#45;ip&#45;detail</title>
<ellipse fill="none" stroke="black" cx="2978.89" cy="-90" rx="148.67" ry="18"/>
<text text-anchor="middle" x="2978.89" y="-86.3" font-family="Times,serif" font-size="14.00">:feature:other&#45;server&#45;ip&#45;detail</text>
</g>
<!-- :app:shared&#45;&gt;:feature:other&#45;server&#45;ip&#45;detail -->
<g id="edge14" class="edge">
<title>:app:shared&#45;&gt;:feature:other&#45;server&#45;ip&#45;detail</title>
<path fill="none" stroke="black" d="M2562.47,-152.63C2640.51,-141.08 2782.41,-120.08 2878.64,-105.84"/>
<polygon fill="black" stroke="black" points="2879.3,-109.28 2888.68,-104.35 2878.28,-102.35 2879.3,-109.28"/>
</g>
<!-- :feature:other&#45;readout&#45;start&#45;sound&#45;detail -->
<g id="node15" class="node">
<title>:feature:other&#45;readout&#45;start&#45;sound&#45;detail</title>
<ellipse fill="none" stroke="black" cx="1264.89" cy="-90" rx="199.56" ry="18"/>
<text text-anchor="middle" x="1264.89" y="-86.3" font-family="Times,serif" font-size="14.00">:feature:other&#45;readout&#45;start&#45;sound&#45;detail</text>
</g>
<!-- :app:shared&#45;&gt;:feature:other&#45;readout&#45;start&#45;sound&#45;detail -->
<g id="edge15" class="edge">
<title>:app:shared&#45;&gt;:feature:other&#45;readout&#45;start&#45;sound&#45;detail</title>
<path fill="none" stroke="black" d="M2441.55,-158.36C2279.19,-151.57 1839.74,-132.27 1473.89,-108 1454.62,-106.72 1434.37,-105.24 1414.36,-103.7"/>
<polygon fill="black" stroke="black" points="1414.49,-100.2 1404.25,-102.92 1413.95,-107.18 1414.49,-100.2"/>
</g>
<!-- :feature:other&#45;volume&#45;detail -->
<g id="node16" class="node">
<title>:feature:other&#45;volume&#45;detail</title>
<ellipse fill="none" stroke="black" cx="3286.89" cy="-90" rx="141.07" ry="18"/>
<text text-anchor="middle" x="3286.89" y="-86.3" font-family="Times,serif" font-size="14.00">:feature:other&#45;volume&#45;detail</text>
</g>
<!-- :app:shared&#45;&gt;:feature:other&#45;volume&#45;detail -->
<g id="edge16" class="edge">
<title>:app:shared&#45;&gt;:feature:other&#45;volume&#45;detail</title>
<path fill="none" stroke="black" d="M2568.64,-156.34C2682.13,-147.77 2929.02,-128.5 3136.89,-108 3149.78,-106.73 3163.27,-105.32 3176.67,-103.86"/>
<polygon fill="black" stroke="black" points="3177.32,-107.31 3186.88,-102.74 3176.56,-100.35 3177.32,-107.31"/>
</g>
<!-- :feature:readout&#45;list -->
<g id="node17" class="node">
<title>:feature:readout&#45;list</title>
<ellipse fill="none" stroke="black" cx="1586.89" cy="-90" rx="103.98" ry="18"/>
<text text-anchor="middle" x="1586.89" y="-86.3" font-family="Times,serif" font-size="14.00">:feature:readout&#45;list</text>
</g>
<!-- :app:shared&#45;&gt;:feature:readout&#45;list -->
<g id="edge17" class="edge">
<title>:app:shared&#45;&gt;:feature:readout&#45;list</title>
<path fill="none" stroke="black" d="M2441.22,-158.59C2304.21,-153.07 1974.73,-137.66 1699.89,-108 1690.13,-106.95 1679.91,-105.66 1669.79,-104.28"/>
<polygon fill="black" stroke="black" points="1670.11,-100.79 1659.72,-102.87 1669.13,-107.72 1670.11,-100.79"/>
</g>
<!-- :feature:lmu&#45;windows&#45;readout&#45;vehicle&#45;approach&#45;detail -->
<g id="node18" class="node">
<title>:feature:lmu&#45;windows&#45;readout&#45;vehicle&#45;approach&#45;detail</title>
<ellipse fill="none" stroke="black" cx="3706.89" cy="-90" rx="260.75" ry="18"/>
<text text-anchor="middle" x="3706.89" y="-86.3" font-family="Times,serif" font-size="14.00">:feature:lmu&#45;windows&#45;readout&#45;vehicle&#45;approach&#45;detail</text>
</g>
<!-- :app:shared&#45;&gt;:feature:lmu&#45;windows&#45;readout&#45;vehicle&#45;approach&#45;detail -->
<g id="edge18" class="edge">
<title>:app:shared&#45;&gt;:feature:lmu&#45;windows&#45;readout&#45;vehicle&#45;approach&#45;detail</title>
<path fill="none" stroke="black" d="M2569.67,-157.5C2720.48,-149.2 3110.85,-127.54 3436.89,-108 3461.31,-106.54 3486.97,-104.96 3512.35,-103.39"/>
<polygon fill="black" stroke="black" points="3512.68,-106.88 3522.44,-102.76 3512.25,-99.89 3512.68,-106.88"/>
</g>
<!-- :feature:lmu&#45;windows&#45;readout&#45;flag&#45;detail -->
<g id="node19" class="node">
<title>:feature:lmu&#45;windows&#45;readout&#45;flag&#45;detail</title>
<ellipse fill="none" stroke="black" cx="4184.89" cy="-90" rx="199.56" ry="18"/>
<text text-anchor="middle" x="4184.89" y="-86.3" font-family="Times,serif" font-size="14.00">:feature:lmu&#45;windows&#45;readout&#45;flag&#45;detail</text>
</g>
<!-- :app:shared&#45;&gt;:feature:lmu&#45;windows&#45;readout&#45;flag&#45;detail -->
<g id="edge19" class="edge">
<title>:app:shared&#45;&gt;:feature:lmu&#45;windows&#45;readout&#45;flag&#45;detail</title>
<path fill="none" stroke="black" d="M2571.19,-159.71C2777.55,-155.4 3434.15,-139.94 3976.89,-108 3996.63,-106.84 4017.4,-105.4 4037.87,-103.85"/>
<polygon fill="black" stroke="black" points="4038.19,-107.34 4047.89,-103.09 4037.66,-100.36 4038.19,-107.34"/>
</g>
<!-- :feature:lmu&#45;windows&#45;readout&#45;vehicle&#45;damage&#45;detail -->
<g id="node20" class="node">
<title>:feature:lmu&#45;windows&#45;readout&#45;vehicle&#45;damage&#45;detail</title>
<ellipse fill="none" stroke="black" cx="4656.89" cy="-90" rx="254.55" ry="18"/>
<text text-anchor="middle" x="4656.89" y="-86.3" font-family="Times,serif" font-size="14.00">:feature:lmu&#45;windows&#45;readout&#45;vehicle&#45;damage&#45;detail</text>
</g>
<!-- :app:shared&#45;&gt;:feature:lmu&#45;windows&#45;readout&#45;vehicle&#45;damage&#45;detail -->
<g id="edge20" class="edge">
<title>:app:shared&#45;&gt;:feature:lmu&#45;windows&#45;readout&#45;vehicle&#45;damage&#45;detail</title>
<path fill="none" stroke="black" d="M2571.55,-160.02C2813.79,-156.24 3680.23,-141.07 4393.89,-108 4419.32,-106.82 4446.12,-105.35 4472.5,-103.77"/>
<polygon fill="black" stroke="black" points="4472.81,-107.26 4482.58,-103.16 4472.39,-100.27 4472.81,-107.26"/>
</g>
<!-- :feature:gt7&#45;ps5&#45;readout&#45;my&#45;bestlap&#45;detail -->
<g id="node21" class="node">
<title>:feature:gt7&#45;ps5&#45;readout&#45;my&#45;bestlap&#45;detail</title>
<ellipse fill="none" stroke="black" cx="5137.89" cy="-90" rx="207.96" ry="18"/>
<text text-anchor="middle" x="5137.89" y="-86.3" font-family="Times,serif" font-size="14.00">:feature:gt7&#45;ps5&#45;readout&#45;my&#45;bestlap&#45;detail</text>
</g>
<!-- :app:shared&#45;&gt;:feature:gt7&#45;ps5&#45;readout&#45;my&#45;bestlap&#45;detail -->
<g id="edge21" class="edge">
<title>:app:shared&#45;&gt;:feature:gt7&#45;ps5&#45;readout&#45;my&#45;bestlap&#45;detail</title>
<path fill="none" stroke="black" d="M2571.73,-160.91C2853.96,-160.25 3989.48,-154.67 4920.89,-108 4942.08,-106.94 4964.42,-105.52 4986.37,-103.96"/>
<polygon fill="black" stroke="black" points="4986.71,-107.45 4996.43,-103.24 4986.2,-100.47 4986.71,-107.45"/>
</g>
<!-- :core:data&#45;&gt;:core:domain -->
<g id="edge23" class="edge">
<title>:core:data&#45;&gt;:core:domain</title>
<path fill="none" stroke="black" d="M832,-143.9C830.79,-123.39 832.38,-89.58 852.89,-72 884.86,-44.59 1481.36,-26.66 1701.31,-20.96"/>
<polygon fill="black" stroke="black" points="1701.59,-24.46 1711.5,-20.7 1701.41,-17.46 1701.59,-24.46"/>
</g>
<!-- :app:desktopApp -->
<g id="node6" class="node">
<title>:app:desktopApp</title>
<ellipse fill="none" stroke="black" cx="774.89" cy="-234" rx="88.28" ry="18"/>
<text text-anchor="middle" x="774.89" y="-230.3" font-family="Times,serif" font-size="14.00">:app:desktopApp</text>
</g>
<!-- :app:desktopApp&#45;&gt;:server -->
<g id="edge7" class="edge">
<title>:app:desktopApp&#45;&gt;:server</title>
<path fill="none" stroke="black" d="M732.63,-217.98C699.08,-206.06 652.45,-189.49 619.17,-177.67"/>
<polygon fill="black" stroke="black" points="620.32,-174.36 609.72,-174.31 617.97,-180.96 620.32,-174.36"/>
</g>
<!-- :app:desktopApp&#45;&gt;:app:shared -->
<g id="edge4" class="edge">
<title>:app:desktopApp&#45;&gt;:app:shared</title>
<path fill="none" stroke="black" d="M860.73,-229.53C1159.42,-217.45 2150.35,-177.38 2431.14,-166.02"/>
<polygon fill="black" stroke="black" points="2431.37,-169.52 2441.22,-165.62 2431.09,-162.52 2431.37,-169.52"/>
</g>
<!-- :app:desktopApp&#45;&gt;:core:data -->
<g id="edge5" class="edge">
<title>:app:desktopApp&#45;&gt;:core:data</title>
<path fill="none" stroke="black" d="M789.17,-216.05C796.35,-207.54 805.17,-197.07 813.09,-187.68"/>
<polygon fill="black" stroke="black" points="815.97,-189.69 819.74,-179.79 810.62,-185.18 815.97,-189.69"/>
</g>
<!-- :core:lmu&#45;windows&#45;data -->
<g id="node7" class="node">
<title>:core:lmu&#45;windows&#45;data</title>
<ellipse fill="none" stroke="black" cx="120.89" cy="-162" rx="120.78" ry="18"/>
<text text-anchor="middle" x="120.89" y="-158.3" font-family="Times,serif" font-size="14.00">:core:lmu&#45;windows&#45;data</text>
</g>
<!-- :app:desktopApp&#45;&gt;:core:lmu&#45;windows&#45;data -->
<g id="edge6" class="edge">
<title>:app:desktopApp&#45;&gt;:core:lmu&#45;windows&#45;data</title>
<path fill="none" stroke="black" d="M698.59,-224.83C581.76,-212.33 358.24,-188.4 226.1,-174.26"/>
<polygon fill="black" stroke="black" points="226.28,-170.76 215.97,-173.18 225.54,-177.72 226.28,-170.76"/>
</g>
<!-- :core:lmu&#45;windows&#45;data&#45;&gt;:core:domain -->
<g id="edge25" class="edge">
<title>:core:lmu&#45;windows&#45;data&#45;&gt;:core:domain</title>
<path fill="none" stroke="black" d="M72.71,-145.28C55.43,-137.05 37.79,-125.03 27.89,-108 19.85,-94.17 16.75,-83.48 27.89,-72 57.39,-41.59 1360.6,-24.01 1701.16,-19.92"/>
<polygon fill="black" stroke="black" points="1701.24,-23.42 1711.19,-19.8 1701.15,-16.42 1701.24,-23.42"/>
</g>
<!-- :feature:main&#45;&gt;:core:domain -->
<g id="edge38" class="edge">
<title>:feature:main&#45;&gt;:core:domain</title>
<path fill="none" stroke="black" d="M1781.89,-71.7C1781.89,-63.98 1781.89,-54.71 1781.89,-46.11"/>
<polygon fill="black" stroke="black" points="1785.39,-46.1 1781.89,-36.1 1778.39,-46.1 1785.39,-46.1"/>
</g>
<!-- :feature:lmu&#45;windows&#45;connection&#45;&gt;:core:domain -->
<g id="edge30" class="edge">
<title>:feature:lmu&#45;windows&#45;connection&#45;&gt;:core:domain</title>
<path fill="none" stroke="black" d="M1979.8,-73.12C1937.32,-61.5 1880.04,-45.84 1838.03,-34.35"/>
<polygon fill="black" stroke="black" points="1838.8,-30.93 1828.23,-31.67 1836.96,-37.69 1838.8,-30.93"/>
</g>
<!-- :feature:server&#45;connection&#45;&gt;:core:domain -->
<g id="edge47" class="edge">
<title>:feature:server&#45;connection&#45;&gt;:core:domain</title>
<path fill="none" stroke="black" d="M2258.79,-77.36C2145.04,-63.44 1957.14,-40.45 1854.44,-27.88"/>
<polygon fill="black" stroke="black" points="1854.82,-24.4 1844.47,-26.66 1853.97,-31.35 1854.82,-24.4"/>
</g>
<!-- :feature:lmu&#45;windows&#45;narrator&#45;&gt;:core:domain -->
<g id="edge31" class="edge">
<title>:feature:lmu&#45;windows&#45;narrator&#45;&gt;:core:domain</title>
<path fill="none" stroke="black" d="M2550.21,-77.21C2532.08,-75.37 2513.46,-73.57 2495.89,-72 2265.05,-51.4 1991.72,-32.69 1860.24,-24.05"/>
<polygon fill="black" stroke="black" points="1860.08,-20.53 1849.87,-23.37 1859.62,-27.52 1860.08,-20.53"/>
</g>
<!-- :core:designsystem -->
<g id="node26" class="node">
<title>:core:designsystem</title>
<ellipse fill="none" stroke="black" cx="4184.89" cy="-18" rx="100.98" ry="18"/>
<text text-anchor="middle" x="4184.89" y="-14.3" font-family="Times,serif" font-size="14.00">:core:designsystem</text>
</g>
<!-- :feature:other&#45;license&#45;detail&#45;&gt;:core:designsystem -->
<g id="edge39" class="edge">
<title>:feature:other&#45;license&#45;detail&#45;&gt;:core:designsystem</title>
<path fill="none" stroke="black" d="M5407,-76.97C5389.67,-75.1 5371.76,-73.34 5354.89,-72 4965.45,-41 4501.54,-26.68 4294.31,-21.46"/>
<polygon fill="black" stroke="black" points="4294.12,-17.96 4284.03,-21.21 4293.94,-24.95 4294.12,-17.96"/>
</g>
<!-- :feature:other&#45;list&#45;&gt;:core:domain -->
<g id="edge40" class="edge">
<title>:feature:other&#45;list&#45;&gt;:core:domain</title>
<path fill="none" stroke="black" d="M1019.96,-77.13C1031.88,-75.21 1044.24,-73.4 1055.89,-72 1290.07,-43.81 1568.67,-28.55 1702.45,-22.36"/>
<polygon fill="black" stroke="black" points="1702.78,-25.84 1712.61,-21.89 1702.46,-18.85 1702.78,-25.84"/>
</g>
<!-- :feature:other&#45;server&#45;ip&#45;detail&#45;&gt;:core:domain -->
<g id="edge42" class="edge">
<title>:feature:other&#45;server&#45;ip&#45;detail&#45;&gt;:core:domain</title>
<path fill="none" stroke="black" d="M2875.28,-77.01C2857.17,-75.15 2838.49,-73.39 2820.89,-72 2463.85,-43.71 2036.52,-27.45 1862.03,-21.55"/>
<polygon fill="black" stroke="black" points="1862.02,-18.05 1851.9,-21.21 1861.78,-25.05 1862.02,-18.05"/>
</g>
<!-- :feature:other&#45;server&#45;ip&#45;detail&#45;&gt;:core:designsystem -->
<g id="edge43" class="edge">
<title>:feature:other&#45;server&#45;ip&#45;detail&#45;&gt;:core:designsystem</title>
<path fill="none" stroke="black" d="M3082.5,-77C3100.61,-75.15 3119.29,-73.39 3136.89,-72 3479.45,-44.93 3886.16,-28.98 4076.51,-22.46"/>
<polygon fill="black" stroke="black" points="4076.64,-25.95 4086.52,-22.11 4076.41,-18.96 4076.64,-25.95"/>
</g>
<!-- :feature:other&#45;readout&#45;start&#45;sound&#45;detail&#45;&gt;:core:domain -->
<g id="edge41" class="edge">
<title>:feature:other&#45;readout&#45;start&#45;sound&#45;detail&#45;&gt;:core:domain</title>
<path fill="none" stroke="black" d="M1370.45,-74.71C1472.01,-60.96 1622.75,-40.55 1710.79,-28.63"/>
<polygon fill="black" stroke="black" points="1711.51,-32.06 1720.95,-27.25 1710.57,-25.12 1711.51,-32.06"/>
</g>
<!-- :feature:other&#45;volume&#45;detail&#45;&gt;:core:domain -->
<g id="edge44" class="edge">
<title>:feature:other&#45;volume&#45;detail&#45;&gt;:core:domain</title>
<path fill="none" stroke="black" d="M3189.76,-76.93C3172.18,-75.05 3154.01,-73.3 3136.89,-72 2654.18,-35.26 2072.68,-23.35 1862.55,-20.08"/>
<polygon fill="black" stroke="black" points="1862.58,-16.58 1852.53,-19.93 1862.47,-23.58 1862.58,-16.58"/>
</g>
<!-- :feature:other&#45;volume&#45;detail&#45;&gt;:core:designsystem -->
<g id="edge45" class="edge">
<title>:feature:other&#45;volume&#45;detail&#45;&gt;:core:designsystem</title>
<path fill="none" stroke="black" d="M3386.07,-77.16C3403.01,-75.31 3420.45,-73.51 3436.89,-72 3666.19,-50.89 3935.72,-33.65 4080.42,-25.01"/>
<polygon fill="black" stroke="black" points="4080.84,-28.49 4090.62,-24.4 4080.43,-21.5 4080.84,-28.49"/>
</g>
<!-- :feature:readout&#45;list&#45;&gt;:core:domain -->
<g id="edge46" class="edge">
<title>:feature:readout&#45;list&#45;&gt;:core:domain</title>
<path fill="none" stroke="black" d="M1630.17,-73.46C1660.67,-62.51 1701.56,-47.84 1733.2,-36.48"/>
<polygon fill="black" stroke="black" points="1734.48,-39.74 1742.71,-33.07 1732.11,-33.15 1734.48,-39.74"/>
</g>
<!-- :feature:lmu&#45;windows&#45;readout&#45;vehicle&#45;approach&#45;detail&#45;&gt;:core:domain -->
<g id="edge34" class="edge">
<title>:feature:lmu&#45;windows&#45;readout&#45;vehicle&#45;approach&#45;detail&#45;&gt;:core:domain</title>
<path fill="none" stroke="black" d="M3527.57,-76.93C3497.31,-75.12 3466.21,-73.39 3436.89,-72 2831.8,-43.27 2101.5,-25.93 1862.1,-20.69"/>
<polygon fill="black" stroke="black" points="1862.17,-17.19 1852.09,-20.47 1862.01,-24.19 1862.17,-17.19"/>
</g>
<!-- :feature:lmu&#45;windows&#45;readout&#45;vehicle&#45;approach&#45;detail&#45;&gt;:core:designsystem -->
<g id="edge35" class="edge">
<title>:feature:lmu&#45;windows&#45;readout&#45;vehicle&#45;approach&#45;detail&#45;&gt;:core:designsystem</title>
<path fill="none" stroke="black" d="M3812.68,-73.51C3898.91,-60.88 4019.14,-43.27 4099.37,-31.52"/>
<polygon fill="black" stroke="black" points="4100.05,-34.96 4109.44,-30.05 4099.04,-28.03 4100.05,-34.96"/>
</g>
<!-- :feature:lmu&#45;windows&#45;readout&#45;flag&#45;detail&#45;&gt;:core:domain -->
<g id="edge32" class="edge">
<title>:feature:lmu&#45;windows&#45;readout&#45;flag&#45;detail&#45;&gt;:core:domain</title>
<path fill="none" stroke="black" d="M4049.3,-76.79C4025.2,-74.94 4000.32,-73.24 3976.89,-72 3152.49,-28.39 2152,-20.64 1863.38,-19.28"/>
<polygon fill="black" stroke="black" points="1863.02,-15.78 1853.01,-19.23 1862.99,-22.78 1863.02,-15.78"/>
</g>
<!-- :feature:lmu&#45;windows&#45;readout&#45;flag&#45;detail&#45;&gt;:core:designsystem -->
<g id="edge33" class="edge">
<title>:feature:lmu&#45;windows&#45;readout&#45;flag&#45;detail&#45;&gt;:core:designsystem</title>
<path fill="none" stroke="black" d="M4184.89,-71.7C4184.89,-63.98 4184.89,-54.71 4184.89,-46.11"/>
<polygon fill="black" stroke="black" points="4188.39,-46.1 4184.89,-36.1 4181.39,-46.1 4188.39,-46.1"/>
</g>
<!-- :feature:lmu&#45;windows&#45;readout&#45;vehicle&#45;damage&#45;detail&#45;&gt;:core:domain -->
<g id="edge36" class="edge">
<title>:feature:lmu&#45;windows&#45;readout&#45;vehicle&#45;damage&#45;detail&#45;&gt;:core:domain</title>
<path fill="none" stroke="black" d="M4484.35,-76.75C4454.21,-74.93 4423.15,-73.24 4393.89,-72 3396.44,-29.66 2183.26,-20.95 1862.7,-19.34"/>
<polygon fill="black" stroke="black" points="1862.59,-15.84 1852.57,-19.29 1862.55,-22.84 1862.59,-15.84"/>
</g>
<!-- :feature:lmu&#45;windows&#45;readout&#45;vehicle&#45;damage&#45;detail&#45;&gt;:core:designsystem -->
<g id="edge37" class="edge">
<title>:feature:lmu&#45;windows&#45;readout&#45;vehicle&#45;damage&#45;detail&#45;&gt;:core:designsystem</title>
<path fill="none" stroke="black" d="M4552.72,-73.55C4467.72,-60.95 4349.12,-43.36 4269.8,-31.59"/>
<polygon fill="black" stroke="black" points="4270.25,-28.12 4259.85,-30.12 4269.23,-35.05 4270.25,-28.12"/>
</g>
<!-- :feature:gt7&#45;ps5&#45;readout&#45;my&#45;bestlap&#45;detail&#45;&gt;:core:domain -->
<g id="edge28" class="edge">
<title>:feature:gt7&#45;ps5&#45;readout&#45;my&#45;bestlap&#45;detail&#45;&gt;:core:domain</title>
<path fill="none" stroke="black" d="M4997.31,-76.72C4971.89,-74.86 4945.61,-73.18 4920.89,-72 4299.67,-42.45 2291.55,-23.47 1862.87,-19.69"/>
<polygon fill="black" stroke="black" points="1862.77,-16.19 1852.74,-19.6 1862.71,-23.19 1862.77,-16.19"/>
</g>
<!-- :feature:gt7&#45;ps5&#45;readout&#45;my&#45;bestlap&#45;detail&#45;&gt;:core:designsystem -->
<g id="edge29" class="edge">
<title>:feature:gt7&#45;ps5&#45;readout&#45;my&#45;bestlap&#45;detail&#45;&gt;:core:designsystem</title>
<path fill="none" stroke="black" d="M4990.24,-77.31C4967.03,-75.51 4943.31,-73.69 4920.89,-72 4694.46,-54.98 4428.76,-36.12 4286.71,-26.13"/>
<polygon fill="black" stroke="black" points="4286.92,-22.63 4276.7,-25.42 4286.43,-29.62 4286.92,-22.63"/>
</g>
<!-- :app:webApp -->
<g id="node22" class="node">
<title>:app:webApp</title>
<ellipse fill="none" stroke="black" cx="2505.89" cy="-234" rx="70.69" ry="18"/>
<text text-anchor="middle" x="2505.89" y="-230.3" font-family="Times,serif" font-size="14.00">:app:webApp</text>
</g>
<!-- :app:webApp&#45;&gt;:app:shared -->
<g id="edge22" class="edge">
<title>:app:webApp&#45;&gt;:app:shared</title>
<path fill="none" stroke="black" d="M2505.89,-215.7C2505.89,-207.98 2505.89,-198.71 2505.89,-190.11"/>
<polygon fill="black" stroke="black" points="2509.39,-190.1 2505.89,-180.1 2502.39,-190.1 2509.39,-190.1"/>
</g>
<!-- :core:gt7&#45;ps5&#45;data -->
<g id="node23" class="node">
<title>:core:gt7&#45;ps5&#45;data</title>
<ellipse fill="none" stroke="black" cx="143.89" cy="-90" rx="94.78" ry="18"/>
<text text-anchor="middle" x="143.89" y="-86.3" font-family="Times,serif" font-size="14.00">:core:gt7&#45;ps5&#45;data</text>
</g>
<!-- :core:gt7&#45;ps5&#45;data&#45;&gt;:core:domain -->
<g id="edge24" class="edge">
<title>:core:gt7&#45;ps5&#45;data&#45;&gt;:core:domain</title>
<path fill="none" stroke="black" d="M209.46,-76.98C222.17,-75.02 235.42,-73.23 247.89,-72 533.93,-43.8 1427.2,-25.49 1701.18,-20.43"/>
<polygon fill="black" stroke="black" points="1701.5,-23.92 1711.43,-20.24 1701.37,-16.92 1701.5,-23.92"/>
</g>
<!-- :feature:gt7&#45;ps5&#45;connection -->
<g id="node24" class="node">
<title>:feature:gt7&#45;ps5&#45;connection</title>
<ellipse fill="none" stroke="black" cx="394.89" cy="-90" rx="138.38" ry="18"/>
<text text-anchor="middle" x="394.89" y="-86.3" font-family="Times,serif" font-size="14.00">:feature:gt7&#45;ps5&#45;connection</text>
</g>
<!-- :feature:gt7&#45;ps5&#45;connection&#45;&gt;:core:domain -->
<g id="edge26" class="edge">
<title>:feature:gt7&#45;ps5&#45;connection&#45;&gt;:core:domain</title>
<path fill="none" stroke="black" d="M490.73,-76.98C508.07,-75.09 526,-73.33 542.89,-72 979.33,-37.64 1504.14,-24.43 1701.58,-20.44"/>
<polygon fill="black" stroke="black" points="1701.65,-23.94 1711.58,-20.24 1701.51,-16.94 1701.65,-23.94"/>
</g>
<!-- :feature:gt7&#45;ps5&#45;narrator -->
<g id="node25" class="node">
<title>:feature:gt7&#45;ps5&#45;narrator</title>
<ellipse fill="none" stroke="black" cx="678.89" cy="-90" rx="127.28" ry="18"/>
<text text-anchor="middle" x="678.89" y="-86.3" font-family="Times,serif" font-size="14.00">:feature:gt7&#45;ps5&#45;narrator</text>
</g>
<!-- :feature:gt7&#45;ps5&#45;narrator&#45;&gt;:core:domain -->
<g id="edge27" class="edge">
<title>:feature:gt7&#45;ps5&#45;narrator&#45;&gt;:core:domain</title>
<path fill="none" stroke="black" d="M769.06,-77.24C785.93,-75.3 803.43,-73.44 819.89,-72 1146.51,-43.34 1536.97,-27.5 1702,-21.65"/>
<polygon fill="black" stroke="black" points="1702.2,-25.14 1712.07,-21.29 1701.95,-18.15 1702.2,-25.14"/>
</g>
</g>
</svg>
