<?xml version="1.0" encoding="UTF-8" standalone="no"?>
<!DOCTYPE svg PUBLIC "-//W3C//DTD SVG 1.1//EN"
 "http://www.w3.org/Graphics/SVG/1.1/DTD/svg11.dtd">
<!-- Generated by graphviz version 2.43.0 (0)
 -->
<!-- Title: G Pages: 1 -->
<svg width="2337pt" height="260pt"
 viewBox="0.00 0.00 2336.90 260.00" xmlns="http://www.w3.org/2000/svg" xmlns:xlink="http://www.w3.org/1999/xlink">
<g id="graph0" class="graph" transform="scale(1 1) rotate(0) translate(4 256)">
<title>G</title>
<polygon fill="white" stroke="transparent" points="-4,4 -4,-256 2332.9,-256 2332.9,4 -4,4"/>
<!-- :server -->
<g id="node1" class="node">
<title>:server</title>
<ellipse fill="none" stroke="black" cx="2245.99" cy="-90" rx="43.59" ry="18"/>
<text text-anchor="middle" x="2245.99" y="-86.3" font-family="Times,serif" font-size="14.00">:server</text>
</g>
<!-- :core:domain -->
<g id="node2" class="node">
<title>:core:domain</title>
<ellipse fill="none" stroke="black" cx="1684.99" cy="-18" rx="70.69" ry="18"/>
<text text-anchor="middle" x="1684.99" y="-14.3" font-family="Times,serif" font-size="14.00">:core:domain</text>
</g>
<!-- :server&#45;&gt;:core:domain -->
<g id="edge1" class="edge">
<title>:server&#45;&gt;:core:domain</title>
<path fill="none" stroke="black" d="M2214.04,-77.58C2207.17,-75.46 2199.89,-73.45 2192.99,-72 2043.65,-40.61 1865.53,-27.47 1764.81,-22.23"/>
<polygon fill="black" stroke="black" points="1764.87,-18.73 1754.71,-21.72 1764.52,-25.72 1764.87,-18.73"/>
</g>
<!-- :app:androidApp -->
<g id="node3" class="node">
<title>:app:androidApp</title>
<ellipse fill="none" stroke="black" cx="1809.99" cy="-234" rx="87.18" ry="18"/>
<text text-anchor="middle" x="1809.99" y="-230.3" font-family="Times,serif" font-size="14.00">:app:androidApp</text>
</g>
<!-- :app:shared -->
<g id="node4" class="node">
<title>:app:shared</title>
<ellipse fill="none" stroke="black" cx="1578.99" cy="-162" rx="65.79" ry="18"/>
<text text-anchor="middle" x="1578.99" y="-158.3" font-family="Times,serif" font-size="14.00">:app:shared</text>
</g>
<!-- :app:androidApp&#45;&gt;:app:shared -->
<g id="edge2" class="edge">
<title>:app:androidApp&#45;&gt;:app:shared</title>
<path fill="none" stroke="black" d="M1762.96,-218.75C1724.65,-207.14 1670.62,-190.77 1631.02,-178.77"/>
<polygon fill="black" stroke="black" points="1631.87,-175.37 1621.28,-175.82 1629.84,-182.07 1631.87,-175.37"/>
</g>
<!-- :core:data -->
<g id="node5" class="node">
<title>:core:data</title>
<ellipse fill="none" stroke="black" cx="2216.99" cy="-162" rx="57.39" ry="18"/>
<text text-anchor="middle" x="2216.99" y="-158.3" font-family="Times,serif" font-size="14.00">:core:data</text>
</g>
<!-- :app:androidApp&#45;&gt;:core:data -->
<g id="edge3" class="edge">
<title>:app:androidApp&#45;&gt;:core:data</title>
<path fill="none" stroke="black" d="M1874.93,-221.83C1952.84,-208.43 2082.36,-186.15 2157.68,-173.2"/>
<polygon fill="black" stroke="black" points="2158.68,-176.58 2167.94,-171.44 2157.49,-169.68 2158.68,-176.58"/>
</g>
<!-- :feature:lmu&#45;connection -->
<g id="node7" class="node">
<title>:feature:lmu&#45;connection</title>
<ellipse fill="none" stroke="black" cx="1244.99" cy="-90" rx="120.78" ry="18"/>
<text text-anchor="middle" x="1244.99" y="-86.3" font-family="Times,serif" font-size="14.00">:feature:lmu&#45;connection</text>
</g>
<!-- :app:shared&#45;&gt;:feature:lmu&#45;connection -->
<g id="edge7" class="edge">
<title>:app:shared&#45;&gt;:feature:lmu&#45;connection</title>
<path fill="none" stroke="black" d="M1528.62,-150.44C1473.79,-138.95 1385.44,-120.44 1321.91,-107.12"/>
<polygon fill="black" stroke="black" points="1322.44,-103.66 1311.94,-105.03 1321,-110.51 1322.44,-103.66"/>
</g>
<!-- :feature:narrator -->
<g id="node8" class="node">
<title>:feature:narrator</title>
<ellipse fill="none" stroke="black" cx="1472.99" cy="-90" rx="89.08" ry="18"/>
<text text-anchor="middle" x="1472.99" y="-86.3" font-family="Times,serif" font-size="14.00">:feature:narrator</text>
</g>
<!-- :app:shared&#45;&gt;:feature:narrator -->
<g id="edge8" class="edge">
<title>:app:shared&#45;&gt;:feature:narrator</title>
<path fill="none" stroke="black" d="M1554.93,-145.12C1540.5,-135.59 1521.94,-123.33 1506.13,-112.89"/>
<polygon fill="black" stroke="black" points="1507.95,-109.9 1497.68,-107.31 1504.1,-115.74 1507.95,-109.9"/>
</g>
<!-- :feature:other&#45;detail -->
<g id="node9" class="node">
<title>:feature:other&#45;detail</title>
<ellipse fill="none" stroke="black" cx="1684.99" cy="-90" rx="104.78" ry="18"/>
<text text-anchor="middle" x="1684.99" y="-86.3" font-family="Times,serif" font-size="14.00">:feature:other&#45;detail</text>
</g>
<!-- :app:shared&#45;&gt;:feature:other&#45;detail -->
<g id="edge9" class="edge">
<title>:app:shared&#45;&gt;:feature:other&#45;detail</title>
<path fill="none" stroke="black" d="M1603.04,-145.12C1617.37,-135.65 1635.77,-123.5 1651.5,-113.11"/>
<polygon fill="black" stroke="black" points="1653.51,-115.98 1659.92,-107.55 1649.65,-110.14 1653.51,-115.98"/>
</g>
<!-- :feature:other&#45;list -->
<g id="node10" class="node">
<title>:feature:other&#45;list</title>
<ellipse fill="none" stroke="black" cx="1900.99" cy="-90" rx="92.88" ry="18"/>
<text text-anchor="middle" x="1900.99" y="-86.3" font-family="Times,serif" font-size="14.00">:feature:other&#45;list</text>
</g>
<!-- :app:shared&#45;&gt;:feature:other&#45;list -->
<g id="edge10" class="edge">
<title>:app:shared&#45;&gt;:feature:other&#45;list</title>
<path fill="none" stroke="black" d="M1628.95,-150.14C1683.33,-138.32 1770.67,-119.33 1831.67,-106.07"/>
<polygon fill="black" stroke="black" points="1832.57,-109.45 1841.6,-103.91 1831.09,-102.61 1832.57,-109.45"/>
</g>
<!-- :feature:readout -->
<g id="node11" class="node">
<title>:feature:readout</title>
<ellipse fill="none" stroke="black" cx="2097.99" cy="-90" rx="86.38" ry="18"/>
<text text-anchor="middle" x="2097.99" y="-86.3" font-family="Times,serif" font-size="14.00">:feature:readout</text>
</g>
<!-- :app:shared&#45;&gt;:feature:readout -->
<g id="edge11" class="edge">
<title>:app:shared&#45;&gt;:feature:readout</title>
<path fill="none" stroke="black" d="M1638.81,-154.53C1721.04,-145.4 1873.54,-127.66 2002.99,-108 2010.42,-106.87 2018.16,-105.62 2025.87,-104.31"/>
<polygon fill="black" stroke="black" points="2026.71,-107.72 2035.98,-102.58 2025.53,-100.82 2026.71,-107.72"/>
</g>
<!-- :feature:readout&#45;vehicle&#45;approach -->
<g id="node12" class="node">
<title>:feature:readout&#45;vehicle&#45;approach</title>
<ellipse fill="none" stroke="black" cx="937.99" cy="-90" rx="167.87" ry="18"/>
<text text-anchor="middle" x="937.99" y="-86.3" font-family="Times,serif" font-size="14.00">:feature:readout&#45;vehicle&#45;approach</text>
</g>
<!-- :app:shared&#45;&gt;:feature:readout&#45;vehicle&#45;approach -->
<g id="edge12" class="edge">
<title>:app:shared&#45;&gt;:feature:readout&#45;vehicle&#45;approach</title>
<path fill="none" stroke="black" d="M1519.26,-154.48C1415.18,-143.11 1198.59,-119.46 1061.19,-104.45"/>
<polygon fill="black" stroke="black" points="1061.35,-100.95 1051.03,-103.34 1060.59,-107.91 1061.35,-100.95"/>
</g>
<!-- :feature:lmu&#45;readout&#45;flag&#45;detail -->
<g id="node13" class="node">
<title>:feature:lmu&#45;readout&#45;flag&#45;detail</title>
<ellipse fill="none" stroke="black" cx="155.99" cy="-90" rx="155.97" ry="18"/>
<text text-anchor="middle" x="155.99" y="-86.3" font-family="Times,serif" font-size="14.00">:feature:lmu&#45;readout&#45;flag&#45;detail</text>
</g>
<!-- :app:shared&#45;&gt;:feature:lmu&#45;readout&#45;flag&#45;detail -->
<g id="edge13" class="edge">
<title>:app:shared&#45;&gt;:feature:lmu&#45;readout&#45;flag&#45;detail</title>
<path fill="none" stroke="black" d="M1513.76,-159.65C1327.44,-155.48 776.93,-141.06 320.99,-108 305.79,-106.9 289.83,-105.53 274.06,-104.04"/>
<polygon fill="black" stroke="black" points="274.03,-100.52 263.74,-103.05 273.36,-107.49 274.03,-100.52"/>
</g>
<!-- :feature:lmu&#45;readout&#45;vehicle&#45;damage&#45;detail -->
<g id="node14" class="node">
<title>:feature:lmu&#45;readout&#45;vehicle&#45;damage&#45;detail</title>
<ellipse fill="none" stroke="black" cx="540.99" cy="-90" rx="211.46" ry="18"/>
<text text-anchor="middle" x="540.99" y="-86.3" font-family="Times,serif" font-size="14.00">:feature:lmu&#45;readout&#45;vehicle&#45;damage&#45;detail</text>
</g>
<!-- :app:shared&#45;&gt;:feature:lmu&#45;readout&#45;vehicle&#45;damage&#45;detail -->
<g id="edge14" class="edge">
<title>:app:shared&#45;&gt;:feature:lmu&#45;readout&#45;vehicle&#45;damage&#45;detail</title>
<path fill="none" stroke="black" d="M1515.59,-157.16C1378.1,-148.78 1042.23,-127.98 760.99,-108 741.28,-106.6 720.59,-105.08 700.11,-103.53"/>
<polygon fill="black" stroke="black" points="700.31,-100.04 690.08,-102.77 699.79,-107.02 700.31,-100.04"/>
</g>
<!-- :core:data&#45;&gt;:core:domain -->
<g id="edge16" class="edge">
<title>:core:data&#45;&gt;:core:domain</title>
<path fill="none" stroke="black" d="M2252.32,-147.78C2269.7,-139.26 2289.02,-126.31 2298.99,-108 2306.64,-93.95 2309.8,-83.79 2298.99,-72 2263.64,-33.47 1924.34,-22.88 1765.83,-20.03"/>
<polygon fill="black" stroke="black" points="1765.72,-16.52 1755.66,-19.85 1765.6,-23.52 1765.72,-16.52"/>
</g>
<!-- :app:desktopApp -->
<g id="node6" class="node">
<title>:app:desktopApp</title>
<ellipse fill="none" stroke="black" cx="2216.99" cy="-234" rx="88.28" ry="18"/>
<text text-anchor="middle" x="2216.99" y="-230.3" font-family="Times,serif" font-size="14.00">:app:desktopApp</text>
</g>
<!-- :app:desktopApp&#45;&gt;:core:domain -->
<g id="edge6" class="edge">
<title>:app:desktopApp&#45;&gt;:core:domain</title>
<path fill="none" stroke="black" d="M2240.45,-216.54C2281.62,-185.75 2358.63,-118.38 2315.99,-72 2279.47,-32.28 1927.89,-22.31 1765.94,-19.82"/>
<polygon fill="black" stroke="black" points="1765.6,-16.32 1755.55,-19.67 1765.49,-23.32 1765.6,-16.32"/>
</g>
<!-- :app:desktopApp&#45;&gt;:app:shared -->
<g id="edge4" class="edge">
<title>:app:desktopApp&#45;&gt;:app:shared</title>
<path fill="none" stroke="black" d="M2141.29,-224.7C2016.69,-211.02 1770.15,-183.97 1649.22,-170.71"/>
<polygon fill="black" stroke="black" points="1649.29,-167.19 1638.97,-169.58 1648.53,-174.15 1649.29,-167.19"/>
</g>
<!-- :app:desktopApp&#45;&gt;:core:data -->
<g id="edge5" class="edge">
<title>:app:desktopApp&#45;&gt;:core:data</title>
<path fill="none" stroke="black" d="M2216.99,-215.7C2216.99,-207.98 2216.99,-198.71 2216.99,-190.11"/>
<polygon fill="black" stroke="black" points="2220.49,-190.1 2216.99,-180.1 2213.49,-190.1 2220.49,-190.1"/>
</g>
<!-- :feature:lmu&#45;connection&#45;&gt;:core:domain -->
<g id="edge17" class="edge">
<title>:feature:lmu&#45;connection&#45;&gt;:core:domain</title>
<path fill="none" stroke="black" d="M1324.41,-76.36C1407.68,-63.12 1537.18,-42.51 1616.22,-29.94"/>
<polygon fill="black" stroke="black" points="1617.23,-33.32 1626.55,-28.3 1616.13,-26.41 1617.23,-33.32"/>
</g>
<!-- :feature:narrator&#45;&gt;:core:domain -->
<g id="edge22" class="edge">
<title>:feature:narrator&#45;&gt;:core:domain</title>
<path fill="none" stroke="black" d="M1517.43,-74.33C1551.39,-63.11 1598.25,-47.64 1633.78,-35.91"/>
<polygon fill="black" stroke="black" points="1635.08,-39.16 1643.48,-32.7 1632.89,-32.52 1635.08,-39.16"/>
</g>
<!-- :feature:other&#45;detail&#45;&gt;:core:domain -->
<g id="edge23" class="edge">
<title>:feature:other&#45;detail&#45;&gt;:core:domain</title>
<path fill="none" stroke="black" d="M1684.99,-71.7C1684.99,-63.98 1684.99,-54.71 1684.99,-46.11"/>
<polygon fill="black" stroke="black" points="1688.49,-46.1 1684.99,-36.1 1681.49,-46.1 1688.49,-46.1"/>
</g>
<!-- :feature:other&#45;list&#45;&gt;:core:domain -->
<g id="edge24" class="edge">
<title>:feature:other&#45;list&#45;&gt;:core:domain</title>
<path fill="none" stroke="black" d="M1855.44,-74.24C1820.71,-62.98 1772.85,-47.47 1736.68,-35.75"/>
<polygon fill="black" stroke="black" points="1737.4,-32.31 1726.81,-32.55 1735.24,-38.97 1737.4,-32.31"/>
</g>
<!-- :feature:readout&#45;&gt;:core:domain -->
<g id="edge25" class="edge">
<title>:feature:readout&#45;&gt;:core:domain</title>
<path fill="none" stroke="black" d="M2034.9,-77.6C2024.25,-75.71 2013.31,-73.78 2002.99,-72 1916.87,-57.12 1817.5,-40.67 1753.08,-30.11"/>
<polygon fill="black" stroke="black" points="1753.48,-26.63 1743.05,-28.46 1752.35,-33.54 1753.48,-26.63"/>
</g>
<!-- :feature:readout&#45;vehicle&#45;approach&#45;&gt;:core:domain -->
<g id="edge26" class="edge">
<title>:feature:readout&#45;vehicle&#45;approach&#45;&gt;:core:domain</title>
<path fill="none" stroke="black" d="M1058.42,-77.38C1077.35,-75.57 1096.7,-73.73 1114.99,-72 1292.07,-55.26 1500.15,-36.02 1609.33,-25.96"/>
<polygon fill="black" stroke="black" points="1609.95,-29.42 1619.58,-25.02 1609.3,-22.45 1609.95,-29.42"/>
</g>
<!-- :core:designsystem -->
<g id="node16" class="node">
<title>:core:designsystem</title>
<ellipse fill="none" stroke="black" cx="540.99" cy="-18" rx="100.98" ry="18"/>
<text text-anchor="middle" x="540.99" y="-14.3" font-family="Times,serif" font-size="14.00">:core:designsystem</text>
</g>
<!-- :feature:readout&#45;vehicle&#45;approach&#45;&gt;:core:designsystem -->
<g id="edge27" class="edge">
<title>:feature:readout&#45;vehicle&#45;approach&#45;&gt;:core:designsystem</title>
<path fill="none" stroke="black" d="M854.76,-74.33C785.66,-62.14 688.05,-44.93 620.11,-32.95"/>
<polygon fill="black" stroke="black" points="620.35,-29.44 609.89,-31.15 619.13,-36.33 620.35,-29.44"/>
</g>
<!-- :feature:lmu&#45;readout&#45;flag&#45;detail&#45;&gt;:core:domain -->
<g id="edge18" class="edge">
<title>:feature:lmu&#45;readout&#45;flag&#45;detail&#45;&gt;:core:domain</title>
<path fill="none" stroke="black" d="M263.74,-76.9C282.79,-75.04 302.46,-73.31 320.99,-72 807.66,-37.51 1393.73,-24.22 1604.57,-20.33"/>
<polygon fill="black" stroke="black" points="1604.69,-23.83 1614.62,-20.15 1604.56,-16.83 1604.69,-23.83"/>
</g>
<!-- :feature:lmu&#45;readout&#45;flag&#45;detail&#45;&gt;:core:designsystem -->
<g id="edge19" class="edge">
<title>:feature:lmu&#45;readout&#45;flag&#45;detail&#45;&gt;:core:designsystem</title>
<path fill="none" stroke="black" d="M235.76,-74.5C302.48,-62.36 397.11,-45.16 463.26,-33.13"/>
<polygon fill="black" stroke="black" points="464,-36.56 473.21,-31.32 462.74,-29.67 464,-36.56"/>
</g>
<!-- :feature:lmu&#45;readout&#45;vehicle&#45;damage&#45;detail&#45;&gt;:core:domain -->
<g id="edge20" class="edge">
<title>:feature:lmu&#45;readout&#45;vehicle&#45;damage&#45;detail&#45;&gt;:core:domain</title>
<path fill="none" stroke="black" d="M689.18,-77.15C713.18,-75.34 737.77,-73.56 760.99,-72 1073.75,-50.95 1446.44,-31.2 1606.07,-23"/>
<polygon fill="black" stroke="black" points="1606.47,-26.48 1616.28,-22.47 1606.11,-19.49 1606.47,-26.48"/>
</g>
<!-- :feature:lmu&#45;readout&#45;vehicle&#45;damage&#45;detail&#45;&gt;:core:designsystem -->
<g id="edge21" class="edge">
<title>:feature:lmu&#45;readout&#45;vehicle&#45;damage&#45;detail&#45;&gt;:core:designsystem</title>
<path fill="none" stroke="black" d="M540.99,-71.7C540.99,-63.98 540.99,-54.71 540.99,-46.11"/>
<polygon fill="black" stroke="black" points="544.49,-46.1 540.99,-36.1 537.49,-46.1 544.49,-46.1"/>
</g>
<!-- :app:webApp -->
<g id="node15" class="node">
<title>:app:webApp</title>
<ellipse fill="none" stroke="black" cx="1578.99" cy="-234" rx="70.69" ry="18"/>
<text text-anchor="middle" x="1578.99" y="-230.3" font-family="Times,serif" font-size="14.00">:app:webApp</text>
</g>
<!-- :app:webApp&#45;&gt;:app:shared -->
<g id="edge15" class="edge">
<title>:app:webApp&#45;&gt;:app:shared</title>
<path fill="none" stroke="black" d="M1578.99,-215.7C1578.99,-207.98 1578.99,-198.71 1578.99,-190.11"/>
<polygon fill="black" stroke="black" points="1582.49,-190.1 1578.99,-180.1 1575.49,-190.1 1582.49,-190.1"/>
</g>
</g>
</svg>
