<?xml version="1.0" encoding="UTF-8" standalone="no"?>
<!DOCTYPE svg PUBLIC "-//W3C//DTD SVG 1.1//EN"
 "http://www.w3.org/Graphics/SVG/1.1/DTD/svg11.dtd">
<!-- Generated by graphviz version 2.43.0 (0)
 -->
<!-- Title: G Pages: 1 -->
<svg width="642pt" height="260pt"
 viewBox="0.00 0.00 641.94 260.00" xmlns="http://www.w3.org/2000/svg" xmlns:xlink="http://www.w3.org/1999/xlink">
<g id="graph0" class="graph" transform="scale(1 1) rotate(0) translate(4 256)">
<title>G</title>
<polygon fill="white" stroke="transparent" points="-4,4 -4,-256 637.94,-256 637.94,4 -4,4"/>
<!-- :server -->
<g id="node1" class="node">
<title>:server</title>
<ellipse fill="none" stroke="black" cx="43.55" cy="-90" rx="43.59" ry="18"/>
<text text-anchor="middle" x="43.55" y="-86.3" font-family="Times,serif" font-size="14.00">:server</text>
</g>
<!-- :core:domain -->
<g id="node2" class="node">
<title>:core:domain</title>
<ellipse fill="none" stroke="black" cx="286.55" cy="-18" rx="70.69" ry="18"/>
<text text-anchor="middle" x="286.55" y="-14.3" font-family="Times,serif" font-size="14.00">:core:domain</text>
</g>
<!-- :server&#45;&gt;:core:domain -->
<g id="edge1" class="edge">
<title>:server&#45;&gt;:core:domain</title>
<path fill="none" stroke="black" d="M77.89,-78.9C85.66,-76.62 93.89,-74.22 101.55,-72 145.1,-59.38 194.48,-45.24 231.26,-34.74"/>
<polygon fill="black" stroke="black" points="232.63,-37.99 241.29,-31.88 230.71,-31.26 232.63,-37.99"/>
</g>
<!-- :app:androidApp -->
<g id="node3" class="node">
<title>:app:androidApp</title>
<ellipse fill="none" stroke="black" cx="185.55" cy="-234" rx="87.18" ry="18"/>
<text text-anchor="middle" x="185.55" y="-230.3" font-family="Times,serif" font-size="14.00">:app:androidApp</text>
</g>
<!-- :app:androidApp&#45;&gt;:core:domain -->
<g id="edge3" class="edge">
<title>:app:androidApp&#45;&gt;:core:domain</title>
<path fill="none" stroke="black" d="M171.08,-215.96C146.47,-184.81 102.11,-117.65 134.55,-72 152.06,-47.34 181.94,-34.06 210.59,-26.94"/>
<polygon fill="black" stroke="black" points="211.67,-30.29 220.66,-24.67 210.13,-23.46 211.67,-30.29"/>
</g>
<!-- :app:shared -->
<g id="node4" class="node">
<title>:app:shared</title>
<ellipse fill="none" stroke="black" cx="347.55" cy="-162" rx="65.79" ry="18"/>
<text text-anchor="middle" x="347.55" y="-158.3" font-family="Times,serif" font-size="14.00">:app:shared</text>
</g>
<!-- :app:androidApp&#45;&gt;:app:shared -->
<g id="edge2" class="edge">
<title>:app:androidApp&#45;&gt;:app:shared</title>
<path fill="none" stroke="black" d="M221.5,-217.46C246.07,-206.85 278.76,-192.72 304.69,-181.52"/>
<polygon fill="black" stroke="black" points="306.11,-184.72 313.91,-177.54 303.34,-178.29 306.11,-184.72"/>
</g>
<!-- :feature:readout -->
<g id="node5" class="node">
<title>:feature:readout</title>
<ellipse fill="none" stroke="black" cx="229.55" cy="-90" rx="86.38" ry="18"/>
<text text-anchor="middle" x="229.55" y="-86.3" font-family="Times,serif" font-size="14.00">:feature:readout</text>
</g>
<!-- :app:androidApp&#45;&gt;:feature:readout -->
<g id="edge4" class="edge">
<title>:app:androidApp&#45;&gt;:feature:readout</title>
<path fill="none" stroke="black" d="M190.85,-215.87C198.39,-191.56 212.25,-146.82 221.18,-118.01"/>
<polygon fill="black" stroke="black" points="224.6,-118.78 224.22,-108.19 217.92,-116.71 224.6,-118.78"/>
</g>
<!-- :app:shared&#45;&gt;:core:domain -->
<g id="edge9" class="edge">
<title>:app:shared&#45;&gt;:core:domain</title>
<path fill="none" stroke="black" d="M345.07,-143.96C341.95,-125.57 335.63,-95.71 324.55,-72 319.94,-62.15 313.45,-52.24 307.13,-43.69"/>
<polygon fill="black" stroke="black" points="309.81,-41.45 300.94,-35.65 304.27,-45.71 309.81,-41.45"/>
</g>
<!-- :app:shared&#45;&gt;:feature:readout -->
<g id="edge8" class="edge">
<title>:app:shared&#45;&gt;:feature:readout</title>
<path fill="none" stroke="black" d="M321.36,-145.46C305.05,-135.79 283.85,-123.21 265.92,-112.58"/>
<polygon fill="black" stroke="black" points="267.28,-109.31 256.89,-107.22 263.71,-115.33 267.28,-109.31"/>
</g>
<!-- :feature:other -->
<g id="node8" class="node">
<title>:feature:other</title>
<ellipse fill="none" stroke="black" cx="446.55" cy="-90" rx="75.29" ry="18"/>
<text text-anchor="middle" x="446.55" y="-86.3" font-family="Times,serif" font-size="14.00">:feature:other</text>
</g>
<!-- :app:shared&#45;&gt;:feature:other -->
<g id="edge7" class="edge">
<title>:app:shared&#45;&gt;:feature:other</title>
<path fill="none" stroke="black" d="M370.51,-144.76C383.78,-135.38 400.67,-123.44 415.16,-113.19"/>
<polygon fill="black" stroke="black" points="417.22,-116.02 423.37,-107.39 413.18,-110.31 417.22,-116.02"/>
</g>
<!-- :feature:readout&#45;&gt;:core:domain -->
<g id="edge13" class="edge">
<title>:feature:readout&#45;&gt;:core:domain</title>
<path fill="none" stroke="black" d="M243.34,-72.05C250.28,-63.54 258.8,-53.07 266.45,-43.68"/>
<polygon fill="black" stroke="black" points="269.27,-45.75 272.88,-35.79 263.85,-41.33 269.27,-45.75"/>
</g>
<!-- :app:desktopApp -->
<g id="node6" class="node">
<title>:app:desktopApp</title>
<ellipse fill="none" stroke="black" cx="545.55" cy="-234" rx="88.28" ry="18"/>
<text text-anchor="middle" x="545.55" y="-230.3" font-family="Times,serif" font-size="14.00">:app:desktopApp</text>
</g>
<!-- :app:desktopApp&#45;&gt;:app:shared -->
<g id="edge5" class="edge">
<title>:app:desktopApp&#45;&gt;:app:shared</title>
<path fill="none" stroke="black" d="M503.56,-218.15C471.94,-206.98 428.56,-191.64 395.56,-179.98"/>
<polygon fill="black" stroke="black" points="396.71,-176.67 386.12,-176.64 394.38,-183.27 396.71,-176.67"/>
</g>
<!-- :core:data -->
<g id="node7" class="node">
<title>:core:data</title>
<ellipse fill="none" stroke="black" cx="547.55" cy="-162" rx="57.39" ry="18"/>
<text text-anchor="middle" x="547.55" y="-158.3" font-family="Times,serif" font-size="14.00">:core:data</text>
</g>
<!-- :app:desktopApp&#45;&gt;:core:data -->
<g id="edge6" class="edge">
<title>:app:desktopApp&#45;&gt;:core:data</title>
<path fill="none" stroke="black" d="M546.04,-215.7C546.26,-207.98 546.53,-198.71 546.77,-190.11"/>
<polygon fill="black" stroke="black" points="550.27,-190.2 547.06,-180.1 543.27,-190 550.27,-190.2"/>
</g>
<!-- :core:data&#45;&gt;:core:domain -->
<g id="edge11" class="edge">
<title>:core:data&#45;&gt;:core:domain</title>
<path fill="none" stroke="black" d="M549.42,-143.74C550.57,-123.72 549.11,-91.03 530.55,-72 507.4,-48.26 424.78,-33.97 362.04,-26.31"/>
<polygon fill="black" stroke="black" points="362.1,-22.79 351.75,-25.09 361.27,-29.74 362.1,-22.79"/>
</g>
<!-- :feature:other&#45;&gt;:core:domain -->
<g id="edge12" class="edge">
<title>:feature:other&#45;&gt;:core:domain</title>
<path fill="none" stroke="black" d="M411.83,-73.81C387.76,-63.28 355.55,-49.19 329.81,-37.93"/>
<polygon fill="black" stroke="black" points="331.21,-34.72 320.65,-33.92 328.41,-41.13 331.21,-34.72"/>
</g>
<!-- :app:webApp -->
<g id="node9" class="node">
<title>:app:webApp</title>
<ellipse fill="none" stroke="black" cx="361.55" cy="-234" rx="70.69" ry="18"/>
<text text-anchor="middle" x="361.55" y="-230.3" font-family="Times,serif" font-size="14.00">:app:webApp</text>
</g>
<!-- :app:webApp&#45;&gt;:app:shared -->
<g id="edge10" class="edge">
<title>:app:webApp&#45;&gt;:app:shared</title>
<path fill="none" stroke="black" d="M358.09,-215.7C356.54,-207.98 354.69,-198.71 352.97,-190.11"/>
<polygon fill="black" stroke="black" points="356.36,-189.22 350.97,-180.1 349.5,-190.6 356.36,-189.22"/>
</g>
</g>
</svg>
