<?xml version="1.0" encoding="UTF-8" standalone="no"?>
<!DOCTYPE svg PUBLIC "-//W3C//DTD SVG 1.1//EN"
 "http://www.w3.org/Graphics/SVG/1.1/DTD/svg11.dtd">
<!-- Generated by graphviz version 2.43.0 (0)
 -->
<!-- Title: G Pages: 1 -->
<svg width="6933pt" height="260pt"
 viewBox="0.00 0.00 6932.63 260.00" xmlns="http://www.w3.org/2000/svg" xmlns:xlink="http://www.w3.org/1999/xlink">
<g id="graph0" class="graph" transform="scale(1 1) rotate(0) translate(4 256)">
<title>G</title>
<polygon fill="white" stroke="transparent" points="-4,4 -4,-256 6928.63,-256 6928.63,4 -4,4"/>
<!-- :server -->
<g id="node1" class="node">
<title>:server</title>
<ellipse fill="none" stroke="black" cx="302.89" cy="-162" rx="43.59" ry="18"/>
<text text-anchor="middle" x="302.89" y="-158.3" font-family="Times,serif" font-size="14.00">:server</text>
</g>
<!-- :core:domain -->
<g id="node2" class="node">
<title>:core:domain</title>
<ellipse fill="none" stroke="black" cx="2490.89" cy="-18" rx="70.69" ry="18"/>
<text text-anchor="middle" x="2490.89" y="-14.3" font-family="Times,serif" font-size="14.00">:core:domain</text>
</g>
<!-- :server&#45;&gt;:core:domain -->
<g id="edge1" class="edge">
<title>:server&#45;&gt;:core:domain</title>
<path fill="none" stroke="black" d="M303.17,-143.92C304.53,-123.1 310.31,-88.64 332.89,-72 375.48,-40.61 2022.96,-23.35 2410.06,-19.72"/>
<polygon fill="black" stroke="black" points="2410.36,-23.22 2420.33,-19.63 2410.3,-16.22 2410.36,-23.22"/>
</g>
<!-- :app:androidApp -->
<g id="node3" class="node">
<title>:app:androidApp</title>
<ellipse fill="none" stroke="black" cx="639.89" cy="-234" rx="87.18" ry="18"/>
<text text-anchor="middle" x="639.89" y="-230.3" font-family="Times,serif" font-size="14.00">:app:androidApp</text>
</g>
<!-- :app:shared -->
<g id="node4" class="node">
<title>:app:shared</title>
<ellipse fill="none" stroke="black" cx="2939.89" cy="-162" rx="65.79" ry="18"/>
<text text-anchor="middle" x="2939.89" y="-158.3" font-family="Times,serif" font-size="14.00">:app:shared</text>
</g>
<!-- :app:androidApp&#45;&gt;:app:shared -->
<g id="edge2" class="edge">
<title>:app:androidApp&#45;&gt;:app:shared</title>
<path fill="none" stroke="black" d="M725.51,-230.39C1091.38,-219.26 2520.55,-175.76 2864.93,-165.28"/>
<polygon fill="black" stroke="black" points="2865.15,-168.78 2875.04,-164.97 2864.94,-161.78 2865.15,-168.78"/>
</g>
<!-- :core:data -->
<g id="node5" class="node">
<title>:core:data</title>
<ellipse fill="none" stroke="black" cx="628.89" cy="-162" rx="57.39" ry="18"/>
<text text-anchor="middle" x="628.89" y="-158.3" font-family="Times,serif" font-size="14.00">:core:data</text>
</g>
<!-- :app:androidApp&#45;&gt;:core:data -->
<g id="edge3" class="edge">
<title>:app:androidApp&#45;&gt;:core:data</title>
<path fill="none" stroke="black" d="M637.17,-215.7C635.96,-207.98 634.5,-198.71 633.15,-190.11"/>
<polygon fill="black" stroke="black" points="636.59,-189.44 631.58,-180.1 629.67,-190.53 636.59,-189.44"/>
</g>
<!-- :core:gt7&#45;ps5&#45;data -->
<g id="node6" class="node">
<title>:core:gt7&#45;ps5&#45;data</title>
<ellipse fill="none" stroke="black" cx="458.89" cy="-162" rx="94.78" ry="18"/>
<text text-anchor="middle" x="458.89" y="-158.3" font-family="Times,serif" font-size="14.00">:core:gt7&#45;ps5&#45;data</text>
</g>
<!-- :app:androidApp&#45;&gt;:core:gt7&#45;ps5&#45;data -->
<g id="edge4" class="edge">
<title>:app:androidApp&#45;&gt;:core:gt7&#45;ps5&#45;data</title>
<path fill="none" stroke="black" d="M600.61,-217.81C573.53,-207.33 537.31,-193.33 508.26,-182.09"/>
<polygon fill="black" stroke="black" points="509.3,-178.74 498.71,-178.4 506.78,-185.27 509.3,-178.74"/>
</g>
<!-- :feature:main -->
<g id="node9" class="node">
<title>:feature:main</title>
<ellipse fill="none" stroke="black" cx="2587.89" cy="-90" rx="73.39" ry="18"/>
<text text-anchor="middle" x="2587.89" y="-86.3" font-family="Times,serif" font-size="14.00">:feature:main</text>
</g>
<!-- :app:shared&#45;&gt;:feature:main -->
<g id="edge10" class="edge">
<title>:app:shared&#45;&gt;:feature:main</title>
<path fill="none" stroke="black" d="M2887.84,-150.95C2833.45,-140.41 2745.63,-123.28 2669.89,-108 2664.14,-106.84 2658.16,-105.62 2652.17,-104.39"/>
<polygon fill="black" stroke="black" points="2652.63,-100.91 2642.13,-102.33 2651.22,-107.77 2652.63,-100.91"/>
</g>
<!-- :feature:lmu&#45;windows&#45;connection -->
<g id="node10" class="node">
<title>:feature:lmu&#45;windows&#45;connection</title>
<ellipse fill="none" stroke="black" cx="534.89" cy="-90" rx="164.37" ry="18"/>
<text text-anchor="middle" x="534.89" y="-86.3" font-family="Times,serif" font-size="14.00">:feature:lmu&#45;windows&#45;connection</text>
</g>
<!-- :app:shared&#45;&gt;:feature:lmu&#45;windows&#45;connection -->
<g id="edge11" class="edge">
<title>:app:shared&#45;&gt;:feature:lmu&#45;windows&#45;connection</title>
<path fill="none" stroke="black" d="M2874.11,-161.21C2605.25,-161.67 1563.55,-159.83 708.89,-108 692.17,-106.99 674.58,-105.62 657.27,-104.1"/>
<polygon fill="black" stroke="black" points="657.39,-100.6 647.11,-103.19 656.76,-107.57 657.39,-100.6"/>
</g>
<!-- :feature:gt7&#45;ps5&#45;connection -->
<g id="node11" class="node">
<title>:feature:gt7&#45;ps5&#45;connection</title>
<ellipse fill="none" stroke="black" cx="855.89" cy="-90" rx="138.38" ry="18"/>
<text text-anchor="middle" x="855.89" y="-86.3" font-family="Times,serif" font-size="14.00">:feature:gt7&#45;ps5&#45;connection</text>
</g>
<!-- :app:shared&#45;&gt;:feature:gt7&#45;ps5&#45;connection -->
<g id="edge12" class="edge">
<title>:app:shared&#45;&gt;:feature:gt7&#45;ps5&#45;connection</title>
<path fill="none" stroke="black" d="M2874.19,-161.27C2627.92,-161.85 1736.3,-159.99 1003.89,-108 989.95,-107.01 975.3,-105.68 960.87,-104.2"/>
<polygon fill="black" stroke="black" points="961.23,-100.72 950.92,-103.15 960.49,-107.68 961.23,-100.72"/>
</g>
<!-- :feature:server&#45;connection -->
<g id="node12" class="node">
<title>:feature:server&#45;connection</title>
<ellipse fill="none" stroke="black" cx="1145.89" cy="-90" rx="133.48" ry="18"/>
<text text-anchor="middle" x="1145.89" y="-86.3" font-family="Times,serif" font-size="14.00">:feature:server&#45;connection</text>
</g>
<!-- :app:shared&#45;&gt;:feature:server&#45;connection -->
<g id="edge13" class="edge">
<title>:app:shared&#45;&gt;:feature:server&#45;connection</title>
<path fill="none" stroke="black" d="M2874.07,-160.94C2651.03,-160.32 1903.43,-154.63 1287.89,-108 1274.87,-107.01 1261.2,-105.71 1247.71,-104.27"/>
<polygon fill="black" stroke="black" points="1247.76,-100.76 1237.44,-103.15 1247,-107.72 1247.76,-100.76"/>
</g>
<!-- :feature:lmu&#45;windows&#45;narrator -->
<g id="node13" class="node">
<title>:feature:lmu&#45;windows&#45;narrator</title>
<ellipse fill="none" stroke="black" cx="5260.89" cy="-90" rx="153.27" ry="18"/>
<text text-anchor="middle" x="5260.89" y="-86.3" font-family="Times,serif" font-size="14.00">:feature:lmu&#45;windows&#45;narrator</text>
</g>
<!-- :app:shared&#45;&gt;:feature:lmu&#45;windows&#45;narrator -->
<g id="edge14" class="edge">
<title>:app:shared&#45;&gt;:feature:lmu&#45;windows&#45;narrator</title>
<path fill="none" stroke="black" d="M3005.75,-161.29C3269.33,-162.03 4273.7,-161.02 5097.89,-108 5113.53,-106.99 5129.98,-105.63 5146.17,-104.12"/>
<polygon fill="black" stroke="black" points="5146.59,-107.6 5156.21,-103.16 5145.92,-100.63 5146.59,-107.6"/>
</g>
<!-- :feature:gt7&#45;ps5&#45;narrator -->
<g id="node14" class="node">
<title>:feature:gt7&#45;ps5&#45;narrator</title>
<ellipse fill="none" stroke="black" cx="5559.89" cy="-90" rx="127.28" ry="18"/>
<text text-anchor="middle" x="5559.89" y="-86.3" font-family="Times,serif" font-size="14.00">:feature:gt7&#45;ps5&#45;narrator</text>
</g>
<!-- :app:shared&#45;&gt;:feature:gt7&#45;ps5&#45;narrator -->
<g id="edge15" class="edge">
<title>:app:shared&#45;&gt;:feature:gt7&#45;ps5&#45;narrator</title>
<path fill="none" stroke="black" d="M3005.47,-160.51C3347.84,-157.8 4932.91,-143.54 5422.89,-108 5435.75,-107.07 5449.25,-105.78 5462.56,-104.32"/>
<polygon fill="black" stroke="black" points="5463.14,-107.77 5472.69,-103.17 5462.36,-100.82 5463.14,-107.77"/>
</g>
<!-- :feature:other&#45;license&#45;detail -->
<g id="node15" class="node">
<title>:feature:other&#45;license&#45;detail</title>
<ellipse fill="none" stroke="black" cx="6784.89" cy="-90" rx="139.98" ry="18"/>
<text text-anchor="middle" x="6784.89" y="-86.3" font-family="Times,serif" font-size="14.00">:feature:other&#45;license&#45;detail</text>
</g>
<!-- :app:shared&#45;&gt;:feature:other&#45;license&#45;detail -->
<g id="edge16" class="edge">
<title>:app:shared&#45;&gt;:feature:other&#45;license&#45;detail</title>
<path fill="none" stroke="black" d="M3005.61,-160.95C3438.8,-160.49 5889.6,-155.81 6635.89,-108 6650.14,-107.09 6665.12,-105.79 6679.87,-104.3"/>
<polygon fill="black" stroke="black" points="6680.44,-107.76 6690.03,-103.25 6679.72,-100.8 6680.44,-107.76"/>
</g>
<!-- :feature:other&#45;list -->
<g id="node16" class="node">
<title>:feature:other&#45;list</title>
<ellipse fill="none" stroke="black" cx="1389.89" cy="-90" rx="92.88" ry="18"/>
<text text-anchor="middle" x="1389.89" y="-86.3" font-family="Times,serif" font-size="14.00">:feature:other&#45;list</text>
</g>
<!-- :app:shared&#45;&gt;:feature:other&#45;list -->
<g id="edge17" class="edge">
<title>:app:shared&#45;&gt;:feature:other&#45;list</title>
<path fill="none" stroke="black" d="M2873.97,-161.64C2668.62,-162.97 2022.43,-162.22 1490.89,-108 1482.21,-107.12 1473.16,-105.95 1464.18,-104.63"/>
<polygon fill="black" stroke="black" points="1464.52,-101.14 1454.11,-103.1 1463.46,-108.06 1464.52,-101.14"/>
</g>
<!-- :feature:other&#45;server&#45;ip&#45;detail -->
<g id="node17" class="node">
<title>:feature:other&#45;server&#45;ip&#45;detail</title>
<ellipse fill="none" stroke="black" cx="5853.89" cy="-90" rx="148.67" ry="18"/>
<text text-anchor="middle" x="5853.89" y="-86.3" font-family="Times,serif" font-size="14.00">:feature:other&#45;server&#45;ip&#45;detail</text>
</g>
<!-- :app:shared&#45;&gt;:feature:other&#45;server&#45;ip&#45;detail -->
<g id="edge18" class="edge">
<title>:app:shared&#45;&gt;:feature:other&#45;server&#45;ip&#45;detail</title>
<path fill="none" stroke="black" d="M3005.35,-160.52C3369.41,-157.76 5148.14,-142.67 5695.89,-108 5710.91,-107.05 5726.7,-105.73 5742.26,-104.25"/>
<polygon fill="black" stroke="black" points="5742.82,-107.71 5752.43,-103.25 5742.14,-100.74 5742.82,-107.71"/>
</g>
<!-- :feature:other&#45;console&#45;ip&#45;detail -->
<g id="node18" class="node">
<title>:feature:other&#45;console&#45;ip&#45;detail</title>
<ellipse fill="none" stroke="black" cx="6173.89" cy="-90" rx="153.27" ry="18"/>
<text text-anchor="middle" x="6173.89" y="-86.3" font-family="Times,serif" font-size="14.00">:feature:other&#45;console&#45;ip&#45;detail</text>
</g>
<!-- :app:shared&#45;&gt;:feature:other&#45;console&#45;ip&#45;detail -->
<g id="edge19" class="edge">
<title>:app:shared&#45;&gt;:feature:other&#45;console&#45;ip&#45;detail</title>
<path fill="none" stroke="black" d="M3005.41,-160.65C3393.74,-158.46 5397.44,-145.47 6011.89,-108 6027.43,-107.05 6043.79,-105.73 6059.88,-104.23"/>
<polygon fill="black" stroke="black" points="6060.24,-107.71 6069.86,-103.27 6059.57,-100.74 6060.24,-107.71"/>
</g>
<!-- :feature:other&#45;readout&#45;start&#45;sound&#45;detail -->
<g id="node19" class="node">
<title>:feature:other&#45;readout&#45;start&#45;sound&#45;detail</title>
<ellipse fill="none" stroke="black" cx="1699.89" cy="-90" rx="199.56" ry="18"/>
<text text-anchor="middle" x="1699.89" y="-86.3" font-family="Times,serif" font-size="14.00">:feature:other&#45;readout&#45;start&#45;sound&#45;detail</text>
</g>
<!-- :app:shared&#45;&gt;:feature:other&#45;readout&#45;start&#45;sound&#45;detail -->
<g id="edge20" class="edge">
<title>:app:shared&#45;&gt;:feature:other&#45;readout&#45;start&#45;sound&#45;detail</title>
<path fill="none" stroke="black" d="M2875.54,-158.37C2713.18,-151.6 2273.73,-132.34 1907.89,-108 1888.79,-106.73 1868.72,-105.26 1848.89,-103.73"/>
<polygon fill="black" stroke="black" points="1849.1,-100.23 1838.86,-102.94 1848.56,-107.21 1849.1,-100.23"/>
</g>
<!-- :feature:other&#45;volume&#45;detail -->
<g id="node20" class="node">
<title>:feature:other&#45;volume&#45;detail</title>
<ellipse fill="none" stroke="black" cx="6485.89" cy="-90" rx="141.07" ry="18"/>
<text text-anchor="middle" x="6485.89" y="-86.3" font-family="Times,serif" font-size="14.00">:feature:other&#45;volume&#45;detail</text>
</g>
<!-- :app:shared&#45;&gt;:feature:other&#45;volume&#45;detail -->
<g id="edge21" class="edge">
<title>:app:shared&#45;&gt;:feature:other&#45;volume&#45;detail</title>
<path fill="none" stroke="black" d="M3005.5,-160.85C3417.6,-159.76 5653.12,-151.91 6335.89,-108 6350.13,-107.08 6365.09,-105.79 6379.83,-104.32"/>
<polygon fill="black" stroke="black" points="6380.4,-107.78 6389.99,-103.27 6379.68,-100.81 6380.4,-107.78"/>
</g>
<!-- :feature:other&#45;keep&#45;screen&#45;on&#45;detail -->
<g id="node21" class="node">
<title>:feature:other&#45;keep&#45;screen&#45;on&#45;detail</title>
<ellipse fill="none" stroke="black" cx="2093.89" cy="-90" rx="176.57" ry="18"/>
<text text-anchor="middle" x="2093.89" y="-86.3" font-family="Times,serif" font-size="14.00">:feature:other&#45;keep&#45;screen&#45;on&#45;detail</text>
</g>
<!-- :app:shared&#45;&gt;:feature:other&#45;keep&#45;screen&#45;on&#45;detail -->
<g id="edge22" class="edge">
<title>:app:shared&#45;&gt;:feature:other&#45;keep&#45;screen&#45;on&#45;detail</title>
<path fill="none" stroke="black" d="M2877.54,-156.22C2760.41,-147.2 2499.5,-126.85 2279.89,-108 2263.77,-106.62 2246.87,-105.13 2230.1,-103.62"/>
<polygon fill="black" stroke="black" points="2229.96,-100.1 2219.69,-102.69 2229.33,-107.07 2229.96,-100.1"/>
</g>
<!-- :feature:readout&#45;list -->
<g id="node22" class="node">
<title>:feature:readout&#45;list</title>
<ellipse fill="none" stroke="black" cx="2392.89" cy="-90" rx="103.98" ry="18"/>
<text text-anchor="middle" x="2392.89" y="-86.3" font-family="Times,serif" font-size="14.00">:feature:readout&#45;list</text>
</g>
<!-- :app:shared&#45;&gt;:feature:readout&#45;list -->
<g id="edge23" class="edge">
<title>:app:shared&#45;&gt;:feature:readout&#45;list</title>
<path fill="none" stroke="black" d="M2880.5,-154.28C2796.85,-144.69 2639.58,-126.22 2505.89,-108 2496.7,-106.75 2487.09,-105.39 2477.54,-104"/>
<polygon fill="black" stroke="black" points="2478.01,-100.53 2467.61,-102.54 2477,-107.45 2478.01,-100.53"/>
</g>
<!-- :feature:lmu&#45;windows&#45;readout&#45;vehicle&#45;approach&#45;detail -->
<g id="node23" class="node">
<title>:feature:lmu&#45;windows&#45;readout&#45;vehicle&#45;approach&#45;detail</title>
<ellipse fill="none" stroke="black" cx="2939.89" cy="-90" rx="260.75" ry="18"/>
<text text-anchor="middle" x="2939.89" y="-86.3" font-family="Times,serif" font-size="14.00">:feature:lmu&#45;windows&#45;readout&#45;vehicle&#45;approach&#45;detail</text>
</g>
<!-- :app:shared&#45;&gt;:feature:lmu&#45;windows&#45;readout&#45;vehicle&#45;approach&#45;detail -->
<g id="edge24" class="edge">
<title>:app:shared&#45;&gt;:feature:lmu&#45;windows&#45;readout&#45;vehicle&#45;approach&#45;detail</title>
<path fill="none" stroke="black" d="M2939.89,-143.7C2939.89,-135.98 2939.89,-126.71 2939.89,-118.11"/>
<polygon fill="black" stroke="black" points="2943.39,-118.1 2939.89,-108.1 2936.39,-118.1 2943.39,-118.1"/>
</g>
<!-- :feature:lmu&#45;windows&#45;readout&#45;flag&#45;detail -->
<g id="node24" class="node">
<title>:feature:lmu&#45;windows&#45;readout&#45;flag&#45;detail</title>
<ellipse fill="none" stroke="black" cx="3417.89" cy="-90" rx="199.56" ry="18"/>
<text text-anchor="middle" x="3417.89" y="-86.3" font-family="Times,serif" font-size="14.00">:feature:lmu&#45;windows&#45;readout&#45;flag&#45;detail</text>
</g>
<!-- :app:shared&#45;&gt;:feature:lmu&#45;windows&#45;readout&#45;flag&#45;detail -->
<g id="edge25" class="edge">
<title>:app:shared&#45;&gt;:feature:lmu&#45;windows&#45;readout&#45;flag&#45;detail</title>
<path fill="none" stroke="black" d="M2996.6,-152.7C3073.03,-141.5 3210.7,-121.34 3307.82,-107.12"/>
<polygon fill="black" stroke="black" points="3308.59,-110.54 3317.98,-105.63 3307.57,-103.62 3308.59,-110.54"/>
</g>
<!-- :feature:lmu&#45;windows&#45;readout&#45;vehicle&#45;damage&#45;detail -->
<g id="node25" class="node">
<title>:feature:lmu&#45;windows&#45;readout&#45;vehicle&#45;damage&#45;detail</title>
<ellipse fill="none" stroke="black" cx="3889.89" cy="-90" rx="254.55" ry="18"/>
<text text-anchor="middle" x="3889.89" y="-86.3" font-family="Times,serif" font-size="14.00">:feature:lmu&#45;windows&#45;readout&#45;vehicle&#45;damage&#45;detail</text>
</g>
<!-- :app:shared&#45;&gt;:feature:lmu&#45;windows&#45;readout&#45;vehicle&#45;damage&#45;detail -->
<g id="edge26" class="edge">
<title>:app:shared&#45;&gt;:feature:lmu&#45;windows&#45;readout&#45;vehicle&#45;damage&#45;detail</title>
<path fill="none" stroke="black" d="M3002.59,-156.38C3144.48,-145.93 3494.57,-120.13 3710.16,-104.24"/>
<polygon fill="black" stroke="black" points="3710.61,-107.72 3720.33,-103.49 3710.1,-100.74 3710.61,-107.72"/>
</g>
<!-- :feature:gt7&#45;ps5&#45;readout&#45;my&#45;bestlap&#45;detail -->
<g id="node26" class="node">
<title>:feature:gt7&#45;ps5&#45;readout&#45;my&#45;bestlap&#45;detail</title>
<ellipse fill="none" stroke="black" cx="4370.89" cy="-90" rx="207.96" ry="18"/>
<text text-anchor="middle" x="4370.89" y="-86.3" font-family="Times,serif" font-size="14.00">:feature:gt7&#45;ps5&#45;readout&#45;my&#45;bestlap&#45;detail</text>
</g>
<!-- :app:shared&#45;&gt;:feature:gt7&#45;ps5&#45;readout&#45;my&#45;bestlap&#45;detail -->
<g id="edge27" class="edge">
<title>:app:shared&#45;&gt;:feature:gt7&#45;ps5&#45;readout&#45;my&#45;bestlap&#45;detail</title>
<path fill="none" stroke="black" d="M3004.75,-158.96C3186.31,-153.07 3715.11,-134.76 4153.89,-108 4174.24,-106.76 4195.65,-105.29 4216.77,-103.73"/>
<polygon fill="black" stroke="black" points="4217.07,-107.22 4226.78,-102.99 4216.55,-100.24 4217.07,-107.22"/>
</g>
<!-- :feature:gt7&#45;ps5&#45;readout&#45;remaining&#45;fuel&#45;laps&#45;detail -->
<g id="node27" class="node">
<title>:feature:gt7&#45;ps5&#45;readout&#45;remaining&#45;fuel&#45;laps&#45;detail</title>
<ellipse fill="none" stroke="black" cx="4842.89" cy="-90" rx="246.16" ry="18"/>
<text text-anchor="middle" x="4842.89" y="-86.3" font-family="Times,serif" font-size="14.00">:feature:gt7&#45;ps5&#45;readout&#45;remaining&#45;fuel&#45;laps&#45;detail</text>
</g>
<!-- :app:shared&#45;&gt;:feature:gt7&#45;ps5&#45;readout&#45;remaining&#45;fuel&#45;laps&#45;detail -->
<g id="edge28" class="edge">
<title>:app:shared&#45;&gt;:feature:gt7&#45;ps5&#45;readout&#45;remaining&#45;fuel&#45;laps&#45;detail</title>
<path fill="none" stroke="black" d="M3005.09,-159.71C3226.86,-155.15 3972.47,-138.4 4587.89,-108 4612.34,-106.79 4638.1,-105.32 4663.46,-103.74"/>
<polygon fill="black" stroke="black" points="4663.78,-107.23 4673.54,-103.11 4663.34,-100.24 4663.78,-107.23"/>
</g>
<!-- :core:data&#45;&gt;:core:domain -->
<g id="edge30" class="edge">
<title>:core:data&#45;&gt;:core:domain</title>
<path fill="none" stroke="black" d="M586.75,-149.65C578.85,-147.66 570.63,-145.69 562.89,-144 470.18,-123.79 295.63,-139.93 361.89,-72 398.31,-34.67 2025.26,-21.97 2409.97,-19.48"/>
<polygon fill="black" stroke="black" points="2410.2,-22.98 2420.18,-19.42 2410.15,-15.98 2410.2,-22.98"/>
</g>
<!-- :core:gt7&#45;ps5&#45;data&#45;&gt;:core:domain -->
<g id="edge31" class="edge">
<title>:core:gt7&#45;ps5&#45;data&#45;&gt;:core:domain</title>
<path fill="none" stroke="black" d="M399.35,-147.84C378.12,-139.97 356.39,-127.53 343.89,-108 335.26,-94.53 332.72,-83.45 343.89,-72 380.64,-34.33 2023.12,-21.88 2409.92,-19.47"/>
<polygon fill="black" stroke="black" points="2410.21,-22.96 2420.18,-19.4 2410.16,-15.96 2410.21,-22.96"/>
</g>
<!-- :app:desktopApp -->
<g id="node7" class="node">
<title>:app:desktopApp</title>
<ellipse fill="none" stroke="black" cx="446.89" cy="-234" rx="88.28" ry="18"/>
<text text-anchor="middle" x="446.89" y="-230.3" font-family="Times,serif" font-size="14.00">:app:desktopApp</text>
</g>
<!-- :app:desktopApp&#45;&gt;:server -->
<g id="edge9" class="edge">
<title>:app:desktopApp&#45;&gt;:server</title>
<path fill="none" stroke="black" d="M414.21,-217.12C391.9,-206.27 362.31,-191.88 339.24,-180.67"/>
<polygon fill="black" stroke="black" points="340.64,-177.46 330.12,-176.24 337.58,-183.76 340.64,-177.46"/>
</g>
<!-- :app:desktopApp&#45;&gt;:app:shared -->
<g id="edge5" class="edge">
<title>:app:desktopApp&#45;&gt;:app:shared</title>
<path fill="none" stroke="black" d="M507.75,-220.88C519.69,-218.92 532.15,-217.15 543.89,-216 1009.93,-170.27 2508.8,-163.98 2863.93,-163.13"/>
<polygon fill="black" stroke="black" points="2864.11,-166.63 2874.1,-163.11 2864.09,-159.63 2864.11,-166.63"/>
</g>
<!-- :app:desktopApp&#45;&gt;:core:data -->
<g id="edge6" class="edge">
<title>:app:desktopApp&#45;&gt;:core:data</title>
<path fill="none" stroke="black" d="M486.38,-217.81C515.34,-206.67 554.68,-191.54 584.69,-180"/>
<polygon fill="black" stroke="black" points="586.01,-183.24 594.08,-176.39 583.49,-176.71 586.01,-183.24"/>
</g>
<!-- :app:desktopApp&#45;&gt;:core:gt7&#45;ps5&#45;data -->
<g id="edge8" class="edge">
<title>:app:desktopApp&#45;&gt;:core:gt7&#45;ps5&#45;data</title>
<path fill="none" stroke="black" d="M449.86,-215.7C451.18,-207.98 452.77,-198.71 454.24,-190.11"/>
<polygon fill="black" stroke="black" points="457.72,-190.55 455.96,-180.1 450.82,-189.37 457.72,-190.55"/>
</g>
<!-- :core:lmu&#45;windows&#45;data -->
<g id="node8" class="node">
<title>:core:lmu&#45;windows&#45;data</title>
<ellipse fill="none" stroke="black" cx="120.89" cy="-162" rx="120.78" ry="18"/>
<text text-anchor="middle" x="120.89" y="-158.3" font-family="Times,serif" font-size="14.00">:core:lmu&#45;windows&#45;data</text>
</g>
<!-- :app:desktopApp&#45;&gt;:core:lmu&#45;windows&#45;data -->
<g id="edge7" class="edge">
<title>:app:desktopApp&#45;&gt;:core:lmu&#45;windows&#45;data</title>
<path fill="none" stroke="black" d="M388.23,-220.4C334.6,-208.89 254.96,-191.79 196.56,-179.25"/>
<polygon fill="black" stroke="black" points="197.15,-175.8 186.64,-177.12 195.68,-182.64 197.15,-175.8"/>
</g>
<!-- :core:lmu&#45;windows&#45;data&#45;&gt;:core:domain -->
<g id="edge32" class="edge">
<title>:core:lmu&#45;windows&#45;data&#45;&gt;:core:domain</title>
<path fill="none" stroke="black" d="M146.67,-144.29C181.42,-122.83 245.97,-86.6 306.89,-72 514.03,-22.34 2039.42,-19.02 2409.95,-18.96"/>
<polygon fill="black" stroke="black" points="2410.06,-22.46 2420.06,-18.95 2410.06,-15.46 2410.06,-22.46"/>
</g>
<!-- :feature:main&#45;&gt;:core:domain -->
<g id="edge49" class="edge">
<title>:feature:main&#45;&gt;:core:domain</title>
<path fill="none" stroke="black" d="M2565.39,-72.76C2552.41,-63.4 2535.91,-51.49 2521.74,-41.26"/>
<polygon fill="black" stroke="black" points="2523.42,-38.16 2513.26,-35.15 2519.33,-43.84 2523.42,-38.16"/>
</g>
<!-- :feature:lmu&#45;windows&#45;connection&#45;&gt;:core:domain -->
<g id="edge40" class="edge">
<title>:feature:lmu&#45;windows&#45;connection&#45;&gt;:core:domain</title>
<path fill="none" stroke="black" d="M647.59,-76.87C667.97,-74.99 689.05,-73.26 708.89,-72 1364.3,-30.28 2157.44,-21.31 2409.75,-19.46"/>
<polygon fill="black" stroke="black" points="2409.95,-22.96 2419.93,-19.39 2409.9,-15.96 2409.95,-22.96"/>
</g>
<!-- :feature:gt7&#45;ps5&#45;connection&#45;&gt;:core:domain -->
<g id="edge33" class="edge">
<title>:feature:gt7&#45;ps5&#45;connection&#45;&gt;:core:domain</title>
<path fill="none" stroke="black" d="M951.32,-76.92C968.79,-75.03 986.87,-73.28 1003.89,-72 1539.51,-31.76 2186.03,-21.92 2409.94,-19.65"/>
<polygon fill="black" stroke="black" points="2410,-23.15 2419.97,-19.55 2409.93,-16.15 2410,-23.15"/>
</g>
<!-- :feature:server&#45;connection&#45;&gt;:core:domain -->
<g id="edge61" class="edge">
<title>:feature:server&#45;connection&#45;&gt;:core:domain</title>
<path fill="none" stroke="black" d="M1237.83,-76.97C1254.47,-75.09 1271.68,-73.33 1287.89,-72 1709.82,-37.5 2216.98,-24.42 2410.52,-20.46"/>
<polygon fill="black" stroke="black" points="2410.67,-23.95 2420.6,-20.25 2410.53,-16.96 2410.67,-23.95"/>
</g>
<!-- :feature:lmu&#45;windows&#45;narrator&#45;&gt;:core:domain -->
<g id="edge41" class="edge">
<title>:feature:lmu&#45;windows&#45;narrator&#45;&gt;:core:domain</title>
<path fill="none" stroke="black" d="M5156.21,-76.78C5136.85,-74.89 5116.77,-73.17 5097.89,-72 4588.58,-40.32 2954.49,-23.33 2571.67,-19.73"/>
<polygon fill="black" stroke="black" points="2571.55,-16.23 2561.52,-19.64 2571.49,-23.23 2571.55,-16.23"/>
</g>
<!-- :core:designsystem -->
<g id="node29" class="node">
<title>:core:designsystem</title>
<ellipse fill="none" stroke="black" cx="5260.89" cy="-18" rx="100.98" ry="18"/>
<text text-anchor="middle" x="5260.89" y="-14.3" font-family="Times,serif" font-size="14.00">:core:designsystem</text>
</g>
<!-- :feature:lmu&#45;windows&#45;narrator&#45;&gt;:core:designsystem -->
<g id="edge42" class="edge">
<title>:feature:lmu&#45;windows&#45;narrator&#45;&gt;:core:designsystem</title>
<path fill="none" stroke="black" d="M5260.89,-71.7C5260.89,-63.98 5260.89,-54.71 5260.89,-46.11"/>
<polygon fill="black" stroke="black" points="5264.39,-46.1 5260.89,-36.1 5257.39,-46.1 5264.39,-46.1"/>
</g>
<!-- :feature:gt7&#45;ps5&#45;narrator&#45;&gt;:core:domain -->
<g id="edge34" class="edge">
<title>:feature:gt7&#45;ps5&#45;narrator&#45;&gt;:core:domain</title>
<path fill="none" stroke="black" d="M5473.06,-76.83C5456.43,-74.89 5439.15,-73.15 5422.89,-72 4845.93,-31.1 2983.3,-21.05 2571.83,-19.31"/>
<polygon fill="black" stroke="black" points="2571.82,-15.81 2561.81,-19.27 2571.79,-22.81 2571.82,-15.81"/>
</g>
<!-- :feature:gt7&#45;ps5&#45;narrator&#45;&gt;:core:designsystem -->
<g id="edge35" class="edge">
<title>:feature:gt7&#45;ps5&#45;narrator&#45;&gt;:core:designsystem</title>
<path fill="none" stroke="black" d="M5497.21,-74.33C5448.08,-62.82 5379.82,-46.84 5329.28,-35.01"/>
<polygon fill="black" stroke="black" points="5329.96,-31.58 5319.42,-32.7 5328.36,-38.39 5329.96,-31.58"/>
</g>
<!-- :feature:other&#45;license&#45;detail&#45;&gt;:core:designsystem -->
<g id="edge53" class="edge">
<title>:feature:other&#45;license&#45;detail&#45;&gt;:core:designsystem</title>
<path fill="none" stroke="black" d="M6688.41,-76.92C6670.95,-75.04 6652.89,-73.3 6635.89,-72 6166.46,-36.22 5604.94,-24.12 5371.3,-20.45"/>
<polygon fill="black" stroke="black" points="5371.15,-16.94 5361.1,-20.29 5371.05,-23.94 5371.15,-16.94"/>
</g>
<!-- :feature:other&#45;list&#45;&gt;:core:domain -->
<g id="edge54" class="edge">
<title>:feature:other&#45;list&#45;&gt;:core:domain</title>
<path fill="none" stroke="black" d="M1454.39,-77.02C1466.49,-75.09 1479.05,-73.31 1490.89,-72 1831.28,-34.46 2239.89,-23.31 2410.21,-20.17"/>
<polygon fill="black" stroke="black" points="2410.41,-23.66 2420.35,-19.98 2410.29,-16.66 2410.41,-23.66"/>
</g>
<!-- :feature:other&#45;server&#45;ip&#45;detail&#45;&gt;:core:domain -->
<g id="edge56" class="edge">
<title>:feature:other&#45;server&#45;ip&#45;detail&#45;&gt;:core:domain</title>
<path fill="none" stroke="black" d="M5752.86,-76.75C5733.95,-74.85 5714.34,-73.14 5695.89,-72 5061.25,-32.69 3005.8,-21.33 2571.82,-19.34"/>
<polygon fill="black" stroke="black" points="2571.58,-15.84 2561.57,-19.3 2571.55,-22.84 2571.58,-15.84"/>
</g>
<!-- :feature:other&#45;server&#45;ip&#45;detail&#45;&gt;:core:designsystem -->
<g id="edge57" class="edge">
<title>:feature:other&#45;server&#45;ip&#45;detail&#45;&gt;:core:designsystem</title>
<path fill="none" stroke="black" d="M5751.27,-76.89C5639.04,-63.64 5460.8,-42.6 5352.93,-29.86"/>
<polygon fill="black" stroke="black" points="5353.06,-26.36 5342.71,-28.66 5352.23,-33.31 5353.06,-26.36"/>
</g>
<!-- :feature:other&#45;console&#45;ip&#45;detail&#45;&gt;:core:domain -->
<g id="edge50" class="edge">
<title>:feature:other&#45;console&#45;ip&#45;detail&#45;&gt;:core:domain</title>
<path fill="none" stroke="black" d="M6069.86,-76.69C6050.61,-74.81 6030.66,-73.12 6011.89,-72 5310.67,-30.01 3030.99,-20.7 2571.89,-19.23"/>
<polygon fill="black" stroke="black" points="2571.71,-15.73 2561.7,-19.2 2571.69,-22.73 2571.71,-15.73"/>
</g>
<!-- :feature:other&#45;console&#45;ip&#45;detail&#45;&gt;:core:designsystem -->
<g id="edge51" class="edge">
<title>:feature:other&#45;console&#45;ip&#45;detail&#45;&gt;:core:designsystem</title>
<path fill="none" stroke="black" d="M6065.88,-77.15C6047.86,-75.32 6029.36,-73.53 6011.89,-72 5781.26,-51.77 5510.26,-34.16 5365.16,-25.23"/>
<polygon fill="black" stroke="black" points="5365.12,-21.72 5354.93,-24.6 5364.7,-28.71 5365.12,-21.72"/>
</g>
<!-- :feature:other&#45;readout&#45;start&#45;sound&#45;detail&#45;&gt;:core:domain -->
<g id="edge55" class="edge">
<title>:feature:other&#45;readout&#45;start&#45;sound&#45;detail&#45;&gt;:core:domain</title>
<path fill="none" stroke="black" d="M1836.77,-76.89C2004.19,-62.07 2281.72,-37.51 2414.94,-25.72"/>
<polygon fill="black" stroke="black" points="2415.41,-29.19 2425.06,-24.83 2414.79,-22.22 2415.41,-29.19"/>
</g>
<!-- :feature:other&#45;volume&#45;detail&#45;&gt;:core:domain -->
<g id="edge58" class="edge">
<title>:feature:other&#45;volume&#45;detail&#45;&gt;:core:domain</title>
<path fill="none" stroke="black" d="M6390.39,-76.74C6372.32,-74.83 6353.54,-73.12 6335.89,-72 5566.43,-23.21 3055.38,-19.32 2571.86,-19.02"/>
<polygon fill="black" stroke="black" points="2571.82,-15.52 2561.82,-19.02 2571.82,-22.52 2571.82,-15.52"/>
</g>
<!-- :feature:other&#45;volume&#45;detail&#45;&gt;:core:designsystem -->
<g id="edge59" class="edge">
<title>:feature:other&#45;volume&#45;detail&#45;&gt;:core:designsystem</title>
<path fill="none" stroke="black" d="M6387.94,-76.99C6370.62,-75.13 6352.74,-73.37 6335.89,-72 5983.21,-43.35 5564.1,-28.09 5369.8,-22.08"/>
<polygon fill="black" stroke="black" points="5369.69,-18.58 5359.59,-21.77 5369.47,-25.57 5369.69,-18.58"/>
</g>
<!-- :feature:other&#45;keep&#45;screen&#45;on&#45;detail&#45;&gt;:core:domain -->
<g id="edge52" class="edge">
<title>:feature:other&#45;keep&#45;screen&#45;on&#45;detail&#45;&gt;:core:domain</title>
<path fill="none" stroke="black" d="M2178.08,-74.15C2251.47,-61.21 2356.49,-42.7 2424.19,-30.76"/>
<polygon fill="black" stroke="black" points="2425.07,-34.16 2434.31,-28.98 2423.86,-27.27 2425.07,-34.16"/>
</g>
<!-- :feature:readout&#45;list&#45;&gt;:core:domain -->
<g id="edge60" class="edge">
<title>:feature:readout&#45;list&#45;&gt;:core:domain</title>
<path fill="none" stroke="black" d="M2416.11,-72.41C2429.14,-63.1 2445.58,-51.37 2459.71,-41.27"/>
<polygon fill="black" stroke="black" points="2462.07,-43.89 2468.17,-35.23 2458,-38.19 2462.07,-43.89"/>
</g>
<!-- :feature:lmu&#45;windows&#45;readout&#45;vehicle&#45;approach&#45;detail&#45;&gt;:core:domain -->
<g id="edge45" class="edge">
<title>:feature:lmu&#45;windows&#45;readout&#45;vehicle&#45;approach&#45;detail&#45;&gt;:core:domain</title>
<path fill="none" stroke="black" d="M2839.68,-73.38C2754.52,-60.1 2634.51,-41.39 2559.78,-29.74"/>
<polygon fill="black" stroke="black" points="2559.97,-26.23 2549.55,-28.14 2558.89,-33.14 2559.97,-26.23"/>
</g>
<!-- :feature:lmu&#45;windows&#45;readout&#45;vehicle&#45;approach&#45;detail&#45;&gt;:core:designsystem -->
<g id="edge46" class="edge">
<title>:feature:lmu&#45;windows&#45;readout&#45;vehicle&#45;approach&#45;detail&#45;&gt;:core:designsystem</title>
<path fill="none" stroke="black" d="M3117.82,-76.82C3148.19,-75.01 3179.44,-73.31 3208.89,-72 3950.11,-39.02 4842.92,-24.63 5150.5,-20.4"/>
<polygon fill="black" stroke="black" points="5150.8,-23.9 5160.75,-20.26 5150.71,-16.9 5150.8,-23.9"/>
</g>
<!-- :feature:lmu&#45;windows&#45;readout&#45;flag&#45;detail&#45;&gt;:core:domain -->
<g id="edge43" class="edge">
<title>:feature:lmu&#45;windows&#45;readout&#45;flag&#45;detail&#45;&gt;:core:domain</title>
<path fill="none" stroke="black" d="M3276.36,-77.28C3254.12,-75.48 3231.38,-73.67 3209.89,-72 2976.38,-53.85 2700.08,-33.92 2568.31,-24.5"/>
<polygon fill="black" stroke="black" points="2568.53,-21.01 2558.31,-23.79 2568.03,-27.99 2568.53,-21.01"/>
</g>
<!-- :feature:lmu&#45;windows&#45;readout&#45;flag&#45;detail&#45;&gt;:core:designsystem -->
<g id="edge44" class="edge">
<title>:feature:lmu&#45;windows&#45;readout&#45;flag&#45;detail&#45;&gt;:core:designsystem</title>
<path fill="none" stroke="black" d="M3554.6,-76.86C3578.36,-75.03 3602.83,-73.32 3625.89,-72 4199.14,-39.3 4886.69,-25.19 5150.47,-20.71"/>
<polygon fill="black" stroke="black" points="5150.87,-24.2 5160.81,-20.53 5150.76,-17.2 5150.87,-24.2"/>
</g>
<!-- :feature:lmu&#45;windows&#45;readout&#45;vehicle&#45;damage&#45;detail&#45;&gt;:core:domain -->
<g id="edge47" class="edge">
<title>:feature:lmu&#45;windows&#45;readout&#45;vehicle&#45;damage&#45;detail&#45;&gt;:core:domain</title>
<path fill="none" stroke="black" d="M3712.02,-77.07C3683.55,-75.28 3654.41,-73.53 3626.89,-72 3230.51,-49.94 2755.97,-29.84 2570.59,-22.23"/>
<polygon fill="black" stroke="black" points="2570.53,-18.72 2560.39,-21.81 2570.24,-25.72 2570.53,-18.72"/>
</g>
<!-- :feature:lmu&#45;windows&#45;readout&#45;vehicle&#45;damage&#45;detail&#45;&gt;:core:designsystem -->
<g id="edge48" class="edge">
<title>:feature:lmu&#45;windows&#45;readout&#45;vehicle&#45;damage&#45;detail&#45;&gt;:core:designsystem</title>
<path fill="none" stroke="black" d="M4068.09,-77.12C4096.77,-75.33 4126.15,-73.56 4153.89,-72 4520.91,-51.4 4956.68,-32.03 5154.16,-23.52"/>
<polygon fill="black" stroke="black" points="5154.4,-27.02 5164.24,-23.09 5154.1,-20.02 5154.4,-27.02"/>
</g>
<!-- :feature:gt7&#45;ps5&#45;readout&#45;my&#45;bestlap&#45;detail&#45;&gt;:core:domain -->
<g id="edge36" class="edge">
<title>:feature:gt7&#45;ps5&#45;readout&#45;my&#45;bestlap&#45;detail&#45;&gt;:core:domain</title>
<path fill="none" stroke="black" d="M4228.25,-76.88C4203.47,-75.04 4177.94,-73.32 4153.89,-72 3546.11,-38.53 2812.13,-24.25 2571.51,-20.25"/>
<polygon fill="black" stroke="black" points="2571.51,-16.75 2561.45,-20.08 2571.39,-23.74 2571.51,-16.75"/>
</g>
<!-- :feature:gt7&#45;ps5&#45;readout&#45;my&#45;bestlap&#45;detail&#45;&gt;:core:designsystem -->
<g id="edge37" class="edge">
<title>:feature:gt7&#45;ps5&#45;readout&#45;my&#45;bestlap&#45;detail&#45;&gt;:core:designsystem</title>
<path fill="none" stroke="black" d="M4519.1,-77.34C4700.89,-63.04 5004.13,-39.19 5160.63,-26.89"/>
<polygon fill="black" stroke="black" points="5161.03,-30.36 5170.72,-26.09 5160.48,-23.39 5161.03,-30.36"/>
</g>
<!-- :feature:gt7&#45;ps5&#45;readout&#45;remaining&#45;fuel&#45;laps&#45;detail&#45;&gt;:core:domain -->
<g id="edge38" class="edge">
<title>:feature:gt7&#45;ps5&#45;readout&#45;remaining&#45;fuel&#45;laps&#45;detail&#45;&gt;:core:domain</title>
<path fill="none" stroke="black" d="M4674.92,-76.81C4645.91,-74.99 4616.03,-73.29 4587.89,-72 3802.7,-35.92 2850.92,-23 2571.57,-19.84"/>
<polygon fill="black" stroke="black" points="2571.57,-16.34 2561.53,-19.73 2571.49,-23.34 2571.57,-16.34"/>
</g>
<!-- :feature:gt7&#45;ps5&#45;readout&#45;remaining&#45;fuel&#45;laps&#45;detail&#45;&gt;:core:designsystem -->
<g id="edge39" class="edge">
<title>:feature:gt7&#45;ps5&#45;readout&#45;remaining&#45;fuel&#45;laps&#45;detail&#45;&gt;:core:designsystem</title>
<path fill="none" stroke="black" d="M4936.44,-73.33C5009.61,-61.08 5110.29,-44.22 5180.01,-32.54"/>
<polygon fill="black" stroke="black" points="5180.78,-35.96 5190.06,-30.86 5179.62,-29.06 5180.78,-35.96"/>
</g>
<!-- :app:webApp -->
<g id="node28" class="node">
<title>:app:webApp</title>
<ellipse fill="none" stroke="black" cx="2939.89" cy="-234" rx="70.69" ry="18"/>
<text text-anchor="middle" x="2939.89" y="-230.3" font-family="Times,serif" font-size="14.00">:app:webApp</text>
</g>
<!-- :app:webApp&#45;&gt;:app:shared -->
<g id="edge29" class="edge">
<title>:app:webApp&#45;&gt;:app:shared</title>
<path fill="none" stroke="black" d="M2939.89,-215.7C2939.89,-207.98 2939.89,-198.71 2939.89,-190.11"/>
<polygon fill="black" stroke="black" points="2943.39,-190.1 2939.89,-180.1 2936.39,-190.1 2943.39,-190.1"/>
</g>
</g>
</svg>
