<?xml version="1.0" encoding="UTF-8" standalone="no"?>
<!DOCTYPE svg PUBLIC "-//W3C//DTD SVG 1.1//EN"
 "http://www.w3.org/Graphics/SVG/1.1/DTD/svg11.dtd">
<!-- Generated by graphviz version 2.43.0 (0)
 -->
<!-- Title: G Pages: 1 -->
<svg width="3814pt" height="260pt"
 viewBox="0.00 0.00 3814.29 260.00" xmlns="http://www.w3.org/2000/svg" xmlns:xlink="http://www.w3.org/1999/xlink">
<g id="graph0" class="graph" transform="scale(1 1) rotate(0) translate(4 256)">
<title>G</title>
<polygon fill="white" stroke="transparent" points="-4,4 -4,-256 3810.29,-256 3810.29,4 -4,4"/>
<!-- :server -->
<g id="node1" class="node">
<title>:server</title>
<ellipse fill="none" stroke="black" cx="127.56" cy="-162" rx="43.59" ry="18"/>
<text text-anchor="middle" x="127.56" y="-158.3" font-family="Times,serif" font-size="14.00">:server</text>
</g>
<!-- :core:domain -->
<g id="node2" class="node">
<title>:core:domain</title>
<ellipse fill="none" stroke="black" cx="1089.56" cy="-18" rx="70.69" ry="18"/>
<text text-anchor="middle" x="1089.56" y="-14.3" font-family="Times,serif" font-size="14.00">:core:domain</text>
</g>
<!-- :server&#45;&gt;:core:domain -->
<g id="edge1" class="edge">
<title>:server&#45;&gt;:core:domain</title>
<path fill="none" stroke="black" d="M87.28,-154.81C59.71,-148.25 25.09,-134.91 7.56,-108 -1.18,-94.59 -3.48,-83.59 7.56,-72 41.96,-35.87 762.77,-23.22 1008.4,-19.95"/>
<polygon fill="black" stroke="black" points="1008.74,-23.45 1018.69,-19.82 1008.64,-16.45 1008.74,-23.45"/>
</g>
<!-- :app:androidApp -->
<g id="node3" class="node">
<title>:app:androidApp</title>
<ellipse fill="none" stroke="black" cx="937.56" cy="-234" rx="87.18" ry="18"/>
<text text-anchor="middle" x="937.56" y="-230.3" font-family="Times,serif" font-size="14.00">:app:androidApp</text>
</g>
<!-- :app:shared -->
<g id="node4" class="node">
<title>:app:shared</title>
<ellipse fill="none" stroke="black" cx="1196.56" cy="-162" rx="65.79" ry="18"/>
<text text-anchor="middle" x="1196.56" y="-158.3" font-family="Times,serif" font-size="14.00">:app:shared</text>
</g>
<!-- :app:androidApp&#45;&gt;:app:shared -->
<g id="edge2" class="edge">
<title>:app:androidApp&#45;&gt;:app:shared</title>
<path fill="none" stroke="black" d="M988.11,-219.34C1032.27,-207.4 1096.24,-190.11 1141.65,-177.84"/>
<polygon fill="black" stroke="black" points="1142.59,-181.21 1151.33,-175.22 1140.76,-174.45 1142.59,-181.21"/>
</g>
<!-- :core:data -->
<g id="node5" class="node">
<title>:core:data</title>
<ellipse fill="none" stroke="black" cx="578.56" cy="-162" rx="57.39" ry="18"/>
<text text-anchor="middle" x="578.56" y="-158.3" font-family="Times,serif" font-size="14.00">:core:data</text>
</g>
<!-- :app:androidApp&#45;&gt;:core:data -->
<g id="edge3" class="edge">
<title>:app:androidApp&#45;&gt;:core:data</title>
<path fill="none" stroke="black" d="M876.66,-221.13C809.44,-208.02 702.05,-187.08 636.17,-174.23"/>
<polygon fill="black" stroke="black" points="636.45,-170.72 625.97,-172.24 635.11,-177.59 636.45,-170.72"/>
</g>
<!-- :app:shared&#45;&gt;:core:domain -->
<g id="edge7" class="edge">
<title>:app:shared&#45;&gt;:core:domain</title>
<path fill="none" stroke="black" d="M1132.02,-158.66C888.83,-149.75 41.14,-118.03 31.56,-108 20.5,-96.43 20.53,-83.59 31.56,-72 65.12,-36.71 767.56,-23.53 1008.94,-20.04"/>
<polygon fill="black" stroke="black" points="1009.11,-23.54 1019.05,-19.89 1009.01,-16.54 1009.11,-23.54"/>
</g>
<!-- :feature:lmu&#45;windows&#45;connection -->
<g id="node7" class="node">
<title>:feature:lmu&#45;windows&#45;connection</title>
<ellipse fill="none" stroke="black" cx="204.56" cy="-90" rx="164.37" ry="18"/>
<text text-anchor="middle" x="204.56" y="-86.3" font-family="Times,serif" font-size="14.00">:feature:lmu&#45;windows&#45;connection</text>
</g>
<!-- :app:shared&#45;&gt;:feature:lmu&#45;windows&#45;connection -->
<g id="edge8" class="edge">
<title>:app:shared&#45;&gt;:feature:lmu&#45;windows&#45;connection</title>
<path fill="none" stroke="black" d="M1132.87,-157.58C995.15,-150.04 659.41,-130.81 378.56,-108 362.9,-106.73 346.46,-105.28 330.2,-103.77"/>
<polygon fill="black" stroke="black" points="330.38,-100.27 320.1,-102.82 329.73,-107.24 330.38,-100.27"/>
</g>
<!-- :feature:server&#45;connection -->
<g id="node8" class="node">
<title>:feature:server&#45;connection</title>
<ellipse fill="none" stroke="black" cx="520.56" cy="-90" rx="133.48" ry="18"/>
<text text-anchor="middle" x="520.56" y="-86.3" font-family="Times,serif" font-size="14.00">:feature:server&#45;connection</text>
</g>
<!-- :app:shared&#45;&gt;:feature:server&#45;connection -->
<g id="edge9" class="edge">
<title>:app:shared&#45;&gt;:feature:server&#45;connection</title>
<path fill="none" stroke="black" d="M1135.37,-155.3C1036.22,-145.98 834.34,-126.64 663.56,-108 651.4,-106.67 638.66,-105.23 626.02,-103.77"/>
<polygon fill="black" stroke="black" points="626.25,-100.27 615.91,-102.59 625.44,-107.23 626.25,-100.27"/>
</g>
<!-- :feature:lmu&#45;windows&#45;narrator -->
<g id="node9" class="node">
<title>:feature:lmu&#45;windows&#45;narrator</title>
<ellipse fill="none" stroke="black" cx="825.56" cy="-90" rx="153.27" ry="18"/>
<text text-anchor="middle" x="825.56" y="-86.3" font-family="Times,serif" font-size="14.00">:feature:lmu&#45;windows&#45;narrator</text>
</g>
<!-- :app:shared&#45;&gt;:feature:lmu&#45;windows&#45;narrator -->
<g id="edge10" class="edge">
<title>:app:shared&#45;&gt;:feature:lmu&#45;windows&#45;narrator</title>
<path fill="none" stroke="black" d="M1144.19,-151.12C1084.1,-139.78 984.61,-121.01 912.77,-107.46"/>
<polygon fill="black" stroke="black" points="913.3,-103.99 902.83,-105.58 912.01,-110.87 913.3,-103.99"/>
</g>
<!-- :feature:other&#45;license&#45;detail -->
<g id="node10" class="node">
<title>:feature:other&#45;license&#45;detail</title>
<ellipse fill="none" stroke="black" cx="3666.56" cy="-90" rx="139.98" ry="18"/>
<text text-anchor="middle" x="3666.56" y="-86.3" font-family="Times,serif" font-size="14.00">:feature:other&#45;license&#45;detail</text>
</g>
<!-- :app:shared&#45;&gt;:feature:other&#45;license&#45;detail -->
<g id="edge11" class="edge">
<title>:app:shared&#45;&gt;:feature:other&#45;license&#45;detail</title>
<path fill="none" stroke="black" d="M1262.16,-160.32C1591.01,-156.76 3062.22,-139.35 3518.56,-108 3532.5,-107.04 3547.15,-105.73 3561.58,-104.26"/>
<polygon fill="black" stroke="black" points="3561.95,-107.74 3571.53,-103.22 3561.22,-100.78 3561.95,-107.74"/>
</g>
<!-- :feature:other&#45;list -->
<g id="node11" class="node">
<title>:feature:other&#45;list</title>
<ellipse fill="none" stroke="black" cx="1089.56" cy="-90" rx="92.88" ry="18"/>
<text text-anchor="middle" x="1089.56" y="-86.3" font-family="Times,serif" font-size="14.00">:feature:other&#45;list</text>
</g>
<!-- :app:shared&#45;&gt;:feature:other&#45;list -->
<g id="edge12" class="edge">
<title>:app:shared&#45;&gt;:feature:other&#45;list</title>
<path fill="none" stroke="black" d="M1172.28,-145.12C1157.81,-135.65 1139.24,-123.5 1123.36,-113.11"/>
<polygon fill="black" stroke="black" points="1125.14,-110.1 1114.86,-107.55 1121.31,-115.96 1125.14,-110.1"/>
</g>
<!-- :feature:other&#45;server&#45;ip&#45;detail -->
<g id="node12" class="node">
<title>:feature:other&#45;server&#45;ip&#45;detail</title>
<ellipse fill="none" stroke="black" cx="2520.56" cy="-90" rx="148.67" ry="18"/>
<text text-anchor="middle" x="2520.56" y="-86.3" font-family="Times,serif" font-size="14.00">:feature:other&#45;server&#45;ip&#45;detail</text>
</g>
<!-- :app:shared&#45;&gt;:feature:other&#45;server&#45;ip&#45;detail -->
<g id="edge13" class="edge">
<title>:app:shared&#45;&gt;:feature:other&#45;server&#45;ip&#45;detail</title>
<path fill="none" stroke="black" d="M1261.75,-159.45C1438.87,-154.93 1943.81,-140.01 2362.56,-108 2376.97,-106.9 2392.11,-105.53 2407.06,-104.06"/>
<polygon fill="black" stroke="black" points="2407.78,-107.51 2417.38,-103.03 2407.08,-100.54 2407.78,-107.51"/>
</g>
<!-- :feature:other&#45;volume&#45;detail -->
<g id="node13" class="node">
<title>:feature:other&#45;volume&#45;detail</title>
<ellipse fill="none" stroke="black" cx="2828.56" cy="-90" rx="141.07" ry="18"/>
<text text-anchor="middle" x="2828.56" y="-86.3" font-family="Times,serif" font-size="14.00">:feature:other&#45;volume&#45;detail</text>
</g>
<!-- :app:shared&#45;&gt;:feature:other&#45;volume&#45;detail -->
<g id="edge14" class="edge">
<title>:app:shared&#45;&gt;:feature:other&#45;volume&#45;detail</title>
<path fill="none" stroke="black" d="M1262.03,-160.46C1469.67,-158.35 2132.01,-148.68 2678.56,-108 2692.33,-106.97 2706.79,-105.65 2721.07,-104.19"/>
<polygon fill="black" stroke="black" points="2721.85,-107.63 2731.43,-103.11 2721.12,-100.67 2721.85,-107.63"/>
</g>
<!-- :feature:readout&#45;list -->
<g id="node14" class="node">
<title>:feature:readout&#45;list</title>
<ellipse fill="none" stroke="black" cx="1304.56" cy="-90" rx="103.98" ry="18"/>
<text text-anchor="middle" x="1304.56" y="-86.3" font-family="Times,serif" font-size="14.00">:feature:readout&#45;list</text>
</g>
<!-- :app:shared&#45;&gt;:feature:readout&#45;list -->
<g id="edge15" class="edge">
<title>:app:shared&#45;&gt;:feature:readout&#45;list</title>
<path fill="none" stroke="black" d="M1221.06,-145.12C1235.66,-135.65 1254.41,-123.5 1270.44,-113.11"/>
<polygon fill="black" stroke="black" points="1272.53,-115.93 1279.02,-107.55 1268.72,-110.05 1272.53,-115.93"/>
</g>
<!-- :feature:lmu&#45;windows&#45;readout&#45;vehicle&#45;approach&#45;detail -->
<g id="node15" class="node">
<title>:feature:lmu&#45;windows&#45;readout&#45;vehicle&#45;approach&#45;detail</title>
<ellipse fill="none" stroke="black" cx="3248.56" cy="-90" rx="260.75" ry="18"/>
<text text-anchor="middle" x="3248.56" y="-86.3" font-family="Times,serif" font-size="14.00">:feature:lmu&#45;windows&#45;readout&#45;vehicle&#45;approach&#45;detail</text>
</g>
<!-- :app:shared&#45;&gt;:feature:lmu&#45;windows&#45;readout&#45;vehicle&#45;approach&#45;detail -->
<g id="edge16" class="edge">
<title>:app:shared&#45;&gt;:feature:lmu&#45;windows&#45;readout&#45;vehicle&#45;approach&#45;detail</title>
<path fill="none" stroke="black" d="M1262.12,-159.83C1495.61,-155.52 2308.41,-139.05 2978.56,-108 3004.78,-106.78 3032.42,-105.29 3059.61,-103.7"/>
<polygon fill="black" stroke="black" points="3059.83,-107.19 3069.6,-103.1 3059.41,-100.2 3059.83,-107.19"/>
</g>
<!-- :feature:lmu&#45;windows&#45;readout&#45;flag&#45;detail -->
<g id="node16" class="node">
<title>:feature:lmu&#45;windows&#45;readout&#45;flag&#45;detail</title>
<ellipse fill="none" stroke="black" cx="1626.56" cy="-90" rx="199.56" ry="18"/>
<text text-anchor="middle" x="1626.56" y="-86.3" font-family="Times,serif" font-size="14.00">:feature:lmu&#45;windows&#45;readout&#45;flag&#45;detail</text>
</g>
<!-- :app:shared&#45;&gt;:feature:lmu&#45;windows&#45;readout&#45;flag&#45;detail -->
<g id="edge17" class="edge">
<title>:app:shared&#45;&gt;:feature:lmu&#45;windows&#45;readout&#45;flag&#45;detail</title>
<path fill="none" stroke="black" d="M1251.45,-152.06C1320.06,-140.9 1438.83,-121.56 1524.37,-107.63"/>
<polygon fill="black" stroke="black" points="1525.06,-111.07 1534.37,-106.01 1523.94,-104.16 1525.06,-111.07"/>
</g>
<!-- :feature:lmu&#45;windows&#45;readout&#45;vehicle&#45;damage&#45;detail -->
<g id="node17" class="node">
<title>:feature:lmu&#45;windows&#45;readout&#45;vehicle&#45;damage&#45;detail</title>
<ellipse fill="none" stroke="black" cx="2098.56" cy="-90" rx="254.55" ry="18"/>
<text text-anchor="middle" x="2098.56" y="-86.3" font-family="Times,serif" font-size="14.00">:feature:lmu&#45;windows&#45;readout&#45;vehicle&#45;damage&#45;detail</text>
</g>
<!-- :app:shared&#45;&gt;:feature:lmu&#45;windows&#45;readout&#45;vehicle&#45;damage&#45;detail -->
<g id="edge18" class="edge">
<title>:app:shared&#45;&gt;:feature:lmu&#45;windows&#45;readout&#45;vehicle&#45;damage&#45;detail</title>
<path fill="none" stroke="black" d="M1258.91,-156.16C1394.5,-145.64 1720.29,-120.36 1923.87,-104.56"/>
<polygon fill="black" stroke="black" points="1924.38,-108.03 1934.07,-103.76 1923.83,-101.05 1924.38,-108.03"/>
</g>
<!-- :core:data&#45;&gt;:core:domain -->
<g id="edge20" class="edge">
<title>:core:data&#45;&gt;:core:domain</title>
<path fill="none" stroke="black" d="M521.38,-159.84C385.66,-156.51 52.89,-144.64 19.56,-108 8.79,-96.16 8.53,-83.59 19.56,-72 53.55,-36.28 765.56,-23.37 1008.88,-19.99"/>
<polygon fill="black" stroke="black" points="1009.12,-23.49 1019.07,-19.85 1009.02,-16.49 1009.12,-23.49"/>
</g>
<!-- :app:desktopApp -->
<g id="node6" class="node">
<title>:app:desktopApp</title>
<ellipse fill="none" stroke="black" cx="578.56" cy="-234" rx="88.28" ry="18"/>
<text text-anchor="middle" x="578.56" y="-230.3" font-family="Times,serif" font-size="14.00">:app:desktopApp</text>
</g>
<!-- :app:desktopApp&#45;&gt;:server -->
<g id="edge6" class="edge">
<title>:app:desktopApp&#45;&gt;:server</title>
<path fill="none" stroke="black" d="M510.55,-222.44C419.11,-208.25 258.65,-183.35 177.53,-170.76"/>
<polygon fill="black" stroke="black" points="177.98,-167.29 167.57,-169.21 176.91,-174.2 177.98,-167.29"/>
</g>
<!-- :app:desktopApp&#45;&gt;:app:shared -->
<g id="edge4" class="edge">
<title>:app:desktopApp&#45;&gt;:app:shared</title>
<path fill="none" stroke="black" d="M653.72,-224.49C774.4,-210.82 1009.7,-184.17 1126.83,-170.9"/>
<polygon fill="black" stroke="black" points="1127.57,-174.34 1137.11,-169.73 1126.78,-167.38 1127.57,-174.34"/>
</g>
<!-- :app:desktopApp&#45;&gt;:core:data -->
<g id="edge5" class="edge">
<title>:app:desktopApp&#45;&gt;:core:data</title>
<path fill="none" stroke="black" d="M578.56,-215.7C578.56,-207.98 578.56,-198.71 578.56,-190.11"/>
<polygon fill="black" stroke="black" points="582.06,-190.1 578.56,-180.1 575.06,-190.1 582.06,-190.1"/>
</g>
<!-- :feature:lmu&#45;windows&#45;connection&#45;&gt;:core:domain -->
<g id="edge21" class="edge">
<title>:feature:lmu&#45;windows&#45;connection&#45;&gt;:core:domain</title>
<path fill="none" stroke="black" d="M321.05,-77.25C340.25,-75.41 359.96,-73.6 378.56,-72 608.49,-52.2 880.65,-33.13 1011.55,-24.23"/>
<polygon fill="black" stroke="black" points="1012.13,-27.69 1021.87,-23.53 1011.66,-20.71 1012.13,-27.69"/>
</g>
<!-- :feature:server&#45;connection&#45;&gt;:core:domain -->
<g id="edge36" class="edge">
<title>:feature:server&#45;connection&#45;&gt;:core:domain</title>
<path fill="none" stroke="black" d="M615.47,-77.32C728.58,-63.41 915.05,-40.47 1017.17,-27.91"/>
<polygon fill="black" stroke="black" points="1017.88,-31.34 1027.38,-26.65 1017.03,-24.4 1017.88,-31.34"/>
</g>
<!-- :feature:lmu&#45;windows&#45;narrator&#45;&gt;:core:domain -->
<g id="edge22" class="edge">
<title>:feature:lmu&#45;windows&#45;narrator&#45;&gt;:core:domain</title>
<path fill="none" stroke="black" d="M884.47,-73.38C928.6,-61.68 988.64,-45.76 1032.35,-34.17"/>
<polygon fill="black" stroke="black" points="1033.48,-37.49 1042.25,-31.54 1031.69,-30.72 1033.48,-37.49"/>
</g>
<!-- :core:designsystem -->
<g id="node19" class="node">
<title>:core:designsystem</title>
<ellipse fill="none" stroke="black" cx="2674.56" cy="-18" rx="100.98" ry="18"/>
<text text-anchor="middle" x="2674.56" y="-14.3" font-family="Times,serif" font-size="14.00">:core:designsystem</text>
</g>
<!-- :feature:other&#45;license&#45;detail&#45;&gt;:core:designsystem -->
<g id="edge29" class="edge">
<title>:feature:other&#45;license&#45;detail&#45;&gt;:core:designsystem</title>
<path fill="none" stroke="black" d="M3569.11,-77.08C3552.26,-75.23 3534.92,-73.45 3518.56,-72 3253.82,-48.5 2941.46,-31.73 2781.21,-23.93"/>
<polygon fill="black" stroke="black" points="2781.03,-20.42 2770.88,-23.43 2780.69,-27.41 2781.03,-20.42"/>
</g>
<!-- :feature:other&#45;list&#45;&gt;:core:domain -->
<g id="edge30" class="edge">
<title>:feature:other&#45;list&#45;&gt;:core:domain</title>
<path fill="none" stroke="black" d="M1089.56,-71.7C1089.56,-63.98 1089.56,-54.71 1089.56,-46.11"/>
<polygon fill="black" stroke="black" points="1093.06,-46.1 1089.56,-36.1 1086.06,-46.1 1093.06,-46.1"/>
</g>
<!-- :feature:other&#45;server&#45;ip&#45;detail&#45;&gt;:core:domain -->
<g id="edge31" class="edge">
<title>:feature:other&#45;server&#45;ip&#45;detail&#45;&gt;:core:domain</title>
<path fill="none" stroke="black" d="M2417.81,-76.96C2399.43,-75.08 2380.44,-73.33 2362.56,-72 1912.66,-38.47 1371.62,-24.73 1170.23,-20.52"/>
<polygon fill="black" stroke="black" points="1170.1,-17.02 1160.03,-20.31 1169.96,-24.02 1170.1,-17.02"/>
</g>
<!-- :feature:other&#45;server&#45;ip&#45;detail&#45;&gt;:core:designsystem -->
<g id="edge32" class="edge">
<title>:feature:other&#45;server&#45;ip&#45;detail&#45;&gt;:core:designsystem</title>
<path fill="none" stroke="black" d="M2557.05,-72.41C2578.94,-62.46 2606.93,-49.74 2630.11,-39.2"/>
<polygon fill="black" stroke="black" points="2631.73,-42.31 2639.38,-34.99 2628.83,-35.94 2631.73,-42.31"/>
</g>
<!-- :feature:other&#45;volume&#45;detail&#45;&gt;:core:domain -->
<g id="edge33" class="edge">
<title>:feature:other&#45;volume&#45;detail&#45;&gt;:core:domain</title>
<path fill="none" stroke="black" d="M2731.83,-76.89C2714.13,-75.01 2695.81,-73.26 2678.56,-72 2101.81,-29.77 1404.8,-21.16 1170.67,-19.43"/>
<polygon fill="black" stroke="black" points="1170.56,-15.93 1160.54,-19.36 1170.51,-22.93 1170.56,-15.93"/>
</g>
<!-- :feature:other&#45;volume&#45;detail&#45;&gt;:core:designsystem -->
<g id="edge34" class="edge">
<title>:feature:other&#45;volume&#45;detail&#45;&gt;:core:designsystem</title>
<path fill="none" stroke="black" d="M2792.45,-72.59C2770.49,-62.61 2742.29,-49.79 2718.97,-39.19"/>
<polygon fill="black" stroke="black" points="2720.19,-35.9 2709.64,-34.95 2717.3,-42.27 2720.19,-35.9"/>
</g>
<!-- :feature:readout&#45;list&#45;&gt;:core:domain -->
<g id="edge35" class="edge">
<title>:feature:readout&#45;list&#45;&gt;:core:domain</title>
<path fill="none" stroke="black" d="M1257.9,-73.81C1223.47,-62.6 1176.62,-47.35 1141.09,-35.78"/>
<polygon fill="black" stroke="black" points="1141.98,-32.39 1131.39,-32.62 1139.81,-39.04 1141.98,-32.39"/>
</g>
<!-- :feature:lmu&#45;windows&#45;readout&#45;vehicle&#45;approach&#45;detail&#45;&gt;:core:domain -->
<g id="edge25" class="edge">
<title>:feature:lmu&#45;windows&#45;readout&#45;vehicle&#45;approach&#45;detail&#45;&gt;:core:domain</title>
<path fill="none" stroke="black" d="M3069.97,-76.88C3039.48,-75.06 3008.12,-73.34 2978.56,-72 2278.76,-40.16 1432.19,-24.56 1170.52,-20.26"/>
<polygon fill="black" stroke="black" points="1170.4,-16.76 1160.35,-20.1 1170.29,-23.76 1170.4,-16.76"/>
</g>
<!-- :feature:lmu&#45;windows&#45;readout&#45;vehicle&#45;approach&#45;detail&#45;&gt;:core:designsystem -->
<g id="edge26" class="edge">
<title>:feature:lmu&#45;windows&#45;readout&#45;vehicle&#45;approach&#45;detail&#45;&gt;:core:designsystem</title>
<path fill="none" stroke="black" d="M3126.12,-74.07C3018,-60.88 2862.82,-41.96 2765.42,-30.08"/>
<polygon fill="black" stroke="black" points="2765.65,-26.58 2755.3,-28.85 2764.8,-33.53 2765.65,-26.58"/>
</g>
<!-- :feature:lmu&#45;windows&#45;readout&#45;flag&#45;detail&#45;&gt;:core:domain -->
<g id="edge23" class="edge">
<title>:feature:lmu&#45;windows&#45;readout&#45;flag&#45;detail&#45;&gt;:core:domain</title>
<path fill="none" stroke="black" d="M1518.21,-74.88C1411.75,-61 1252.36,-40.22 1160.92,-28.3"/>
<polygon fill="black" stroke="black" points="1161.3,-24.82 1150.93,-27 1160.39,-31.76 1161.3,-24.82"/>
</g>
<!-- :feature:lmu&#45;windows&#45;readout&#45;flag&#45;detail&#45;&gt;:core:designsystem -->
<g id="edge24" class="edge">
<title>:feature:lmu&#45;windows&#45;readout&#45;flag&#45;detail&#45;&gt;:core:designsystem</title>
<path fill="none" stroke="black" d="M1766.95,-77.17C1789.55,-75.37 1812.69,-73.58 1834.56,-72 2099.1,-52.85 2410.8,-34.21 2569.79,-24.98"/>
<polygon fill="black" stroke="black" points="2570.26,-28.46 2580.04,-24.39 2569.85,-21.48 2570.26,-28.46"/>
</g>
<!-- :feature:lmu&#45;windows&#45;readout&#45;vehicle&#45;damage&#45;detail&#45;&gt;:core:domain -->
<g id="edge27" class="edge">
<title>:feature:lmu&#45;windows&#45;readout&#45;vehicle&#45;damage&#45;detail&#45;&gt;:core:domain</title>
<path fill="none" stroke="black" d="M1923.95,-76.89C1701.94,-61.48 1328.15,-35.55 1167.16,-24.38"/>
<polygon fill="black" stroke="black" points="1167.08,-20.87 1156.86,-23.67 1166.6,-27.85 1167.08,-20.87"/>
</g>
<!-- :feature:lmu&#45;windows&#45;readout&#45;vehicle&#45;damage&#45;detail&#45;&gt;:core:designsystem -->
<g id="edge28" class="edge">
<title>:feature:lmu&#45;windows&#45;readout&#45;vehicle&#45;damage&#45;detail&#45;&gt;:core:designsystem</title>
<path fill="none" stroke="black" d="M2220.71,-74.15C2329.31,-60.96 2485.64,-41.96 2583.58,-30.06"/>
<polygon fill="black" stroke="black" points="2584.25,-33.5 2593.76,-28.82 2583.41,-26.55 2584.25,-33.5"/>
</g>
<!-- :app:webApp -->
<g id="node18" class="node">
<title>:app:webApp</title>
<ellipse fill="none" stroke="black" cx="1196.56" cy="-234" rx="70.69" ry="18"/>
<text text-anchor="middle" x="1196.56" y="-230.3" font-family="Times,serif" font-size="14.00">:app:webApp</text>
</g>
<!-- :app:webApp&#45;&gt;:app:shared -->
<g id="edge19" class="edge">
<title>:app:webApp&#45;&gt;:app:shared</title>
<path fill="none" stroke="black" d="M1196.56,-215.7C1196.56,-207.98 1196.56,-198.71 1196.56,-190.11"/>
<polygon fill="black" stroke="black" points="1200.06,-190.1 1196.56,-180.1 1193.06,-190.1 1200.06,-190.1"/>
</g>
</g>
</svg>
