<?xml version="1.0" encoding="UTF-8" standalone="no"?>
<!DOCTYPE svg PUBLIC "-//W3C//DTD SVG 1.1//EN"
 "http://www.w3.org/Graphics/SVG/1.1/DTD/svg11.dtd">
<!-- Generated by graphviz version 2.43.0 (0)
 -->
<!-- Title: G Pages: 1 -->
<svg width="2799pt" height="260pt"
 viewBox="0.00 0.00 2799.28 260.00" xmlns="http://www.w3.org/2000/svg" xmlns:xlink="http://www.w3.org/1999/xlink">
<g id="graph0" class="graph" transform="scale(1 1) rotate(0) translate(4 256)">
<title>G</title>
<polygon fill="white" stroke="transparent" points="-4,4 -4,-256 2795.28,-256 2795.28,4 -4,4"/>
<!-- :server -->
<g id="node1" class="node">
<title>:server</title>
<ellipse fill="none" stroke="black" cx="43.55" cy="-162" rx="43.59" ry="18"/>
<text text-anchor="middle" x="43.55" y="-158.3" font-family="Times,serif" font-size="14.00">:server</text>
</g>
<!-- :core:domain -->
<g id="node2" class="node">
<title>:core:domain</title>
<ellipse fill="none" stroke="black" cx="766.55" cy="-18" rx="70.69" ry="18"/>
<text text-anchor="middle" x="766.55" y="-14.3" font-family="Times,serif" font-size="14.00">:core:domain</text>
</g>
<!-- :server&#45;&gt;:core:domain -->
<g id="edge1" class="edge">
<title>:server&#45;&gt;:core:domain</title>
<path fill="none" stroke="black" d="M36.43,-144.14C29.28,-124.19 21.64,-91.26 39.55,-72 82.76,-25.52 504.67,-19.34 685.23,-18.84"/>
<polygon fill="black" stroke="black" points="685.47,-22.34 695.47,-18.82 685.46,-15.34 685.47,-22.34"/>
</g>
<!-- :app:androidApp -->
<g id="node3" class="node">
<title>:app:androidApp</title>
<ellipse fill="none" stroke="black" cx="651.55" cy="-234" rx="87.18" ry="18"/>
<text text-anchor="middle" x="651.55" y="-230.3" font-family="Times,serif" font-size="14.00">:app:androidApp</text>
</g>
<!-- :app:shared -->
<g id="node4" class="node">
<title>:app:shared</title>
<ellipse fill="none" stroke="black" cx="876.55" cy="-162" rx="65.79" ry="18"/>
<text text-anchor="middle" x="876.55" y="-158.3" font-family="Times,serif" font-size="14.00">:app:shared</text>
</g>
<!-- :app:androidApp&#45;&gt;:app:shared -->
<g id="edge2" class="edge">
<title>:app:androidApp&#45;&gt;:app:shared</title>
<path fill="none" stroke="black" d="M697.62,-218.67C734.56,-207.17 786.39,-191.05 824.76,-179.11"/>
<polygon fill="black" stroke="black" points="826.2,-182.33 834.71,-176.02 824.12,-175.65 826.2,-182.33"/>
</g>
<!-- :core:data -->
<g id="node5" class="node">
<title>:core:data</title>
<ellipse fill="none" stroke="black" cx="359.55" cy="-162" rx="57.39" ry="18"/>
<text text-anchor="middle" x="359.55" y="-158.3" font-family="Times,serif" font-size="14.00">:core:data</text>
</g>
<!-- :app:androidApp&#45;&gt;:core:data -->
<g id="edge3" class="edge">
<title>:app:androidApp&#45;&gt;:core:data</title>
<path fill="none" stroke="black" d="M596.97,-219.92C544.55,-207.35 465.83,-188.48 413.59,-175.96"/>
<polygon fill="black" stroke="black" points="414.38,-172.55 403.84,-173.62 412.75,-179.35 414.38,-172.55"/>
</g>
<!-- :feature:lmu&#45;connection -->
<g id="node7" class="node">
<title>:feature:lmu&#45;connection</title>
<ellipse fill="none" stroke="black" cx="406.55" cy="-90" rx="120.78" ry="18"/>
<text text-anchor="middle" x="406.55" y="-86.3" font-family="Times,serif" font-size="14.00">:feature:lmu&#45;connection</text>
</g>
<!-- :app:shared&#45;&gt;:feature:lmu&#45;connection -->
<g id="edge7" class="edge">
<title>:app:shared&#45;&gt;:feature:lmu&#45;connection</title>
<path fill="none" stroke="black" d="M820.32,-152.63C740.78,-140.78 594.46,-118.99 498.85,-104.75"/>
<polygon fill="black" stroke="black" points="499.3,-101.28 488.89,-103.26 498.27,-108.2 499.3,-101.28"/>
</g>
<!-- :feature:lmu&#45;narrator -->
<g id="node8" class="node">
<title>:feature:lmu&#45;narrator</title>
<ellipse fill="none" stroke="black" cx="655.55" cy="-90" rx="109.68" ry="18"/>
<text text-anchor="middle" x="655.55" y="-86.3" font-family="Times,serif" font-size="14.00">:feature:lmu&#45;narrator</text>
</g>
<!-- :app:shared&#45;&gt;:feature:lmu&#45;narrator -->
<g id="edge8" class="edge">
<title>:app:shared&#45;&gt;:feature:lmu&#45;narrator</title>
<path fill="none" stroke="black" d="M835.24,-147.92C800.95,-137.05 751.78,-121.48 713.54,-109.37"/>
<polygon fill="black" stroke="black" points="714.16,-105.9 703.57,-106.21 712.05,-112.57 714.16,-105.9"/>
</g>
<!-- :feature:other&#45;license&#45;detail -->
<g id="node9" class="node">
<title>:feature:other&#45;license&#45;detail</title>
<ellipse fill="none" stroke="black" cx="2651.55" cy="-90" rx="139.98" ry="18"/>
<text text-anchor="middle" x="2651.55" y="-86.3" font-family="Times,serif" font-size="14.00">:feature:other&#45;license&#45;detail</text>
</g>
<!-- :app:shared&#45;&gt;:feature:other&#45;license&#45;detail -->
<g id="edge9" class="edge">
<title>:app:shared&#45;&gt;:feature:other&#45;license&#45;detail</title>
<path fill="none" stroke="black" d="M942.09,-160.77C1162.53,-159.58 1897.27,-152.32 2502.55,-108 2516.34,-106.99 2530.82,-105.67 2545.11,-104.21"/>
<polygon fill="black" stroke="black" points="2545.89,-107.64 2555.47,-103.12 2545.16,-100.68 2545.89,-107.64"/>
</g>
<!-- :feature:other&#45;list -->
<g id="node10" class="node">
<title>:feature:other&#45;list</title>
<ellipse fill="none" stroke="black" cx="876.55" cy="-90" rx="92.88" ry="18"/>
<text text-anchor="middle" x="876.55" y="-86.3" font-family="Times,serif" font-size="14.00">:feature:other&#45;list</text>
</g>
<!-- :app:shared&#45;&gt;:feature:other&#45;list -->
<g id="edge10" class="edge">
<title>:app:shared&#45;&gt;:feature:other&#45;list</title>
<path fill="none" stroke="black" d="M876.55,-143.7C876.55,-135.98 876.55,-126.71 876.55,-118.11"/>
<polygon fill="black" stroke="black" points="880.05,-118.1 876.55,-108.1 873.05,-118.1 880.05,-118.1"/>
</g>
<!-- :feature:other&#45;volume&#45;detail -->
<g id="node11" class="node">
<title>:feature:other&#45;volume&#45;detail</title>
<ellipse fill="none" stroke="black" cx="1568.55" cy="-90" rx="141.07" ry="18"/>
<text text-anchor="middle" x="1568.55" y="-86.3" font-family="Times,serif" font-size="14.00">:feature:other&#45;volume&#45;detail</text>
</g>
<!-- :app:shared&#45;&gt;:feature:other&#45;volume&#45;detail -->
<g id="edge11" class="edge">
<title>:app:shared&#45;&gt;:feature:other&#45;volume&#45;detail</title>
<path fill="none" stroke="black" d="M937.54,-155.34C1037.9,-145.97 1244.13,-126.41 1418.55,-108 1431.22,-106.66 1444.48,-105.22 1457.66,-103.76"/>
<polygon fill="black" stroke="black" points="1458.16,-107.23 1467.71,-102.64 1457.39,-100.27 1458.16,-107.23"/>
</g>
<!-- :feature:readout&#45;list -->
<g id="node12" class="node">
<title>:feature:readout&#45;list</title>
<ellipse fill="none" stroke="black" cx="163.55" cy="-90" rx="103.98" ry="18"/>
<text text-anchor="middle" x="163.55" y="-86.3" font-family="Times,serif" font-size="14.00">:feature:readout&#45;list</text>
</g>
<!-- :app:shared&#45;&gt;:feature:readout&#45;list -->
<g id="edge12" class="edge">
<title>:app:shared&#45;&gt;:feature:readout&#45;list</title>
<path fill="none" stroke="black" d="M813.35,-156.7C703.84,-148.95 471.76,-131.28 276.55,-108 267.12,-106.88 257.26,-105.58 247.47,-104.21"/>
<polygon fill="black" stroke="black" points="247.7,-100.71 237.31,-102.76 246.72,-107.64 247.7,-100.71"/>
</g>
<!-- :feature:lmu&#45;readout&#45;vehicle&#45;approach&#45;detail -->
<g id="node13" class="node">
<title>:feature:lmu&#45;readout&#45;vehicle&#45;approach&#45;detail</title>
<ellipse fill="none" stroke="black" cx="1945.55" cy="-90" rx="217.96" ry="18"/>
<text text-anchor="middle" x="1945.55" y="-86.3" font-family="Times,serif" font-size="14.00">:feature:lmu&#45;readout&#45;vehicle&#45;approach&#45;detail</text>
</g>
<!-- :app:shared&#45;&gt;:feature:lmu&#45;readout&#45;vehicle&#45;approach&#45;detail -->
<g id="edge13" class="edge">
<title>:app:shared&#45;&gt;:feature:lmu&#45;readout&#45;vehicle&#45;approach&#45;detail</title>
<path fill="none" stroke="black" d="M939.94,-157.27C1080.27,-148.95 1427.76,-128.04 1718.55,-108 1738.97,-106.59 1760.42,-105.06 1781.65,-103.51"/>
<polygon fill="black" stroke="black" points="1781.99,-106.99 1791.71,-102.77 1781.48,-100.01 1781.99,-106.99"/>
</g>
<!-- :feature:lmu&#45;readout&#45;flag&#45;detail -->
<g id="node14" class="node">
<title>:feature:lmu&#45;readout&#45;flag&#45;detail</title>
<ellipse fill="none" stroke="black" cx="2337.55" cy="-90" rx="155.97" ry="18"/>
<text text-anchor="middle" x="2337.55" y="-86.3" font-family="Times,serif" font-size="14.00">:feature:lmu&#45;readout&#45;flag&#45;detail</text>
</g>
<!-- :app:shared&#45;&gt;:feature:lmu&#45;readout&#45;flag&#45;detail -->
<g id="edge14" class="edge">
<title>:app:shared&#45;&gt;:feature:lmu&#45;readout&#45;flag&#45;detail</title>
<path fill="none" stroke="black" d="M941.69,-159.76C1131.62,-155.83 1701.15,-141.89 2172.55,-108 2187.74,-106.91 2203.71,-105.54 2219.47,-104.06"/>
<polygon fill="black" stroke="black" points="2220.17,-107.51 2229.79,-103.07 2219.5,-100.54 2220.17,-107.51"/>
</g>
<!-- :feature:lmu&#45;readout&#45;vehicle&#45;damage&#45;detail -->
<g id="node15" class="node">
<title>:feature:lmu&#45;readout&#45;vehicle&#45;damage&#45;detail</title>
<ellipse fill="none" stroke="black" cx="1198.55" cy="-90" rx="211.46" ry="18"/>
<text text-anchor="middle" x="1198.55" y="-86.3" font-family="Times,serif" font-size="14.00">:feature:lmu&#45;readout&#45;vehicle&#45;damage&#45;detail</text>
</g>
<!-- :app:shared&#45;&gt;:feature:lmu&#45;readout&#45;vehicle&#45;damage&#45;detail -->
<g id="edge15" class="edge">
<title>:app:shared&#45;&gt;:feature:lmu&#45;readout&#45;vehicle&#45;damage&#45;detail</title>
<path fill="none" stroke="black" d="M926.51,-150.14C976.96,-139.17 1055.77,-122.04 1115.61,-109.03"/>
<polygon fill="black" stroke="black" points="1116.39,-112.44 1125.41,-106.9 1114.9,-105.6 1116.39,-112.44"/>
</g>
<!-- :core:data&#45;&gt;:core:domain -->
<g id="edge17" class="edge">
<title>:core:data&#45;&gt;:core:domain</title>
<path fill="none" stroke="black" d="M302.7,-159.68C222.45,-156.47 82.17,-145.5 50.55,-108 40.23,-95.77 39.66,-83.72 50.55,-72 93.01,-26.28 507.1,-19.66 685.48,-18.94"/>
<polygon fill="black" stroke="black" points="685.61,-22.44 695.59,-18.91 685.58,-15.44 685.61,-22.44"/>
</g>
<!-- :app:desktopApp -->
<g id="node6" class="node">
<title>:app:desktopApp</title>
<ellipse fill="none" stroke="black" cx="359.55" cy="-234" rx="88.28" ry="18"/>
<text text-anchor="middle" x="359.55" y="-230.3" font-family="Times,serif" font-size="14.00">:app:desktopApp</text>
</g>
<!-- :app:desktopApp&#45;&gt;:server -->
<g id="edge6" class="edge">
<title>:app:desktopApp&#45;&gt;:server</title>
<path fill="none" stroke="black" d="M301.95,-220.24C241.46,-206.84 147.42,-186.01 91.02,-173.52"/>
<polygon fill="black" stroke="black" points="91.47,-170.03 80.95,-171.29 89.95,-176.87 91.47,-170.03"/>
</g>
<!-- :app:desktopApp&#45;&gt;:app:shared -->
<g id="edge4" class="edge">
<title>:app:desktopApp&#45;&gt;:app:shared</title>
<path fill="none" stroke="black" d="M430.89,-223.34C530.82,-209.81 711.16,-185.39 809,-172.15"/>
<polygon fill="black" stroke="black" points="809.63,-175.59 819.07,-170.78 808.69,-168.66 809.63,-175.59"/>
</g>
<!-- :app:desktopApp&#45;&gt;:core:data -->
<g id="edge5" class="edge">
<title>:app:desktopApp&#45;&gt;:core:data</title>
<path fill="none" stroke="black" d="M359.55,-215.7C359.55,-207.98 359.55,-198.71 359.55,-190.11"/>
<polygon fill="black" stroke="black" points="363.05,-190.1 359.55,-180.1 356.05,-190.1 363.05,-190.1"/>
</g>
<!-- :feature:lmu&#45;connection&#45;&gt;:core:domain -->
<g id="edge18" class="edge">
<title>:feature:lmu&#45;connection&#45;&gt;:core:domain</title>
<path fill="none" stroke="black" d="M476.81,-75.34C542.17,-62.63 638.74,-43.85 702.15,-31.52"/>
<polygon fill="black" stroke="black" points="702.88,-34.95 712.03,-29.6 701.54,-28.07 702.88,-34.95"/>
</g>
<!-- :feature:lmu&#45;narrator&#45;&gt;:core:domain -->
<g id="edge19" class="edge">
<title>:feature:lmu&#45;narrator&#45;&gt;:core:domain</title>
<path fill="none" stroke="black" d="M681.85,-72.41C697,-62.86 716.2,-50.75 732.49,-40.48"/>
<polygon fill="black" stroke="black" points="734.6,-43.28 741.19,-34.99 730.87,-37.36 734.6,-43.28"/>
</g>
<!-- :core:designsystem -->
<g id="node17" class="node">
<title>:core:designsystem</title>
<ellipse fill="none" stroke="black" cx="1945.55" cy="-18" rx="100.98" ry="18"/>
<text text-anchor="middle" x="1945.55" y="-14.3" font-family="Times,serif" font-size="14.00">:core:designsystem</text>
</g>
<!-- :feature:other&#45;license&#45;detail&#45;&gt;:core:designsystem -->
<g id="edge26" class="edge">
<title>:feature:other&#45;license&#45;detail&#45;&gt;:core:designsystem</title>
<path fill="none" stroke="black" d="M2551.79,-77.36C2535.34,-75.51 2518.47,-73.67 2502.55,-72 2341.87,-55.19 2154.89,-37.85 2043.59,-27.77"/>
<polygon fill="black" stroke="black" points="2043.66,-24.26 2033.39,-26.85 2043.03,-31.23 2043.66,-24.26"/>
</g>
<!-- :feature:other&#45;list&#45;&gt;:core:domain -->
<g id="edge27" class="edge">
<title>:feature:other&#45;list&#45;&gt;:core:domain</title>
<path fill="none" stroke="black" d="M850.76,-72.59C835.75,-63.04 816.67,-50.9 800.46,-40.58"/>
<polygon fill="black" stroke="black" points="802.11,-37.48 791.8,-35.07 798.35,-43.39 802.11,-37.48"/>
</g>
<!-- :feature:other&#45;volume&#45;detail&#45;&gt;:core:domain -->
<g id="edge28" class="edge">
<title>:feature:other&#45;volume&#45;detail&#45;&gt;:core:domain</title>
<path fill="none" stroke="black" d="M1468.54,-77.22C1451.86,-75.38 1434.72,-73.57 1418.55,-72 1211.03,-51.81 965.83,-33.32 843.72,-24.48"/>
<polygon fill="black" stroke="black" points="843.94,-20.98 833.72,-23.75 843.44,-27.97 843.94,-20.98"/>
</g>
<!-- :feature:other&#45;volume&#45;detail&#45;&gt;:core:designsystem -->
<g id="edge29" class="edge">
<title>:feature:other&#45;volume&#45;detail&#45;&gt;:core:designsystem</title>
<path fill="none" stroke="black" d="M1644.84,-74.83C1710.02,-62.73 1803.34,-45.4 1868.69,-33.27"/>
<polygon fill="black" stroke="black" points="1869.33,-36.71 1878.52,-31.44 1868.05,-29.83 1869.33,-36.71"/>
</g>
<!-- :feature:readout&#45;list&#45;&gt;:core:domain -->
<g id="edge30" class="edge">
<title>:feature:readout&#45;list&#45;&gt;:core:domain</title>
<path fill="none" stroke="black" d="M237.94,-77.36C250.8,-75.47 264.05,-73.61 276.55,-72 423.1,-53.06 594.93,-35.55 691.23,-26.17"/>
<polygon fill="black" stroke="black" points="691.84,-29.62 701.45,-25.17 691.16,-22.66 691.84,-29.62"/>
</g>
<!-- :feature:lmu&#45;readout&#45;vehicle&#45;approach&#45;detail&#45;&gt;:core:domain -->
<g id="edge22" class="edge">
<title>:feature:lmu&#45;readout&#45;vehicle&#45;approach&#45;detail&#45;&gt;:core:domain</title>
<path fill="none" stroke="black" d="M1792.64,-77.15C1767.87,-75.34 1742.5,-73.56 1718.55,-72 1394.88,-50.87 1008.95,-31.04 845.69,-22.89"/>
<polygon fill="black" stroke="black" points="845.43,-19.38 835.27,-22.37 845.08,-26.37 845.43,-19.38"/>
</g>
<!-- :feature:lmu&#45;readout&#45;vehicle&#45;approach&#45;detail&#45;&gt;:core:designsystem -->
<g id="edge23" class="edge">
<title>:feature:lmu&#45;readout&#45;vehicle&#45;approach&#45;detail&#45;&gt;:core:designsystem</title>
<path fill="none" stroke="black" d="M1945.55,-71.7C1945.55,-63.98 1945.55,-54.71 1945.55,-46.11"/>
<polygon fill="black" stroke="black" points="1949.05,-46.1 1945.55,-36.1 1942.05,-46.1 1949.05,-46.1"/>
</g>
<!-- :feature:lmu&#45;readout&#45;flag&#45;detail&#45;&gt;:core:domain -->
<g id="edge20" class="edge">
<title>:feature:lmu&#45;readout&#45;flag&#45;detail&#45;&gt;:core:domain</title>
<path fill="none" stroke="black" d="M2230.24,-76.92C2211.05,-75.05 2191.22,-73.31 2172.55,-72 1669.39,-36.63 1063.16,-23.84 847.5,-20.21"/>
<polygon fill="black" stroke="black" points="847.28,-16.71 837.22,-20.04 847.16,-23.71 847.28,-16.71"/>
</g>
<!-- :feature:lmu&#45;readout&#45;flag&#45;detail&#45;&gt;:core:designsystem -->
<g id="edge21" class="edge">
<title>:feature:lmu&#45;readout&#45;flag&#45;detail&#45;&gt;:core:designsystem</title>
<path fill="none" stroke="black" d="M2256.8,-74.58C2188.69,-62.42 2091.77,-45.11 2024.25,-33.05"/>
<polygon fill="black" stroke="black" points="2024.55,-29.55 2014.09,-31.24 2023.32,-36.44 2024.55,-29.55"/>
</g>
<!-- :feature:lmu&#45;readout&#45;vehicle&#45;damage&#45;detail&#45;&gt;:core:domain -->
<g id="edge24" class="edge">
<title>:feature:lmu&#45;readout&#45;vehicle&#45;damage&#45;detail&#45;&gt;:core:domain</title>
<path fill="none" stroke="black" d="M1105.07,-73.85C1023.68,-60.67 907.6,-41.86 834.71,-30.04"/>
<polygon fill="black" stroke="black" points="835.15,-26.57 824.72,-28.43 834.03,-33.48 835.15,-26.57"/>
</g>
<!-- :feature:lmu&#45;readout&#45;vehicle&#45;damage&#45;detail&#45;&gt;:core:designsystem -->
<g id="edge25" class="edge">
<title>:feature:lmu&#45;readout&#45;vehicle&#45;damage&#45;detail&#45;&gt;:core:designsystem</title>
<path fill="none" stroke="black" d="M1335.12,-76.2C1483.76,-62.27 1717.66,-40.35 1848.56,-28.09"/>
<polygon fill="black" stroke="black" points="1848.95,-31.57 1858.58,-27.15 1848.29,-24.6 1848.95,-31.57"/>
</g>
<!-- :app:webApp -->
<g id="node16" class="node">
<title>:app:webApp</title>
<ellipse fill="none" stroke="black" cx="876.55" cy="-234" rx="70.69" ry="18"/>
<text text-anchor="middle" x="876.55" y="-230.3" font-family="Times,serif" font-size="14.00">:app:webApp</text>
</g>
<!-- :app:webApp&#45;&gt;:app:shared -->
<g id="edge16" class="edge">
<title>:app:webApp&#45;&gt;:app:shared</title>
<path fill="none" stroke="black" d="M876.55,-215.7C876.55,-207.98 876.55,-198.71 876.55,-190.11"/>
<polygon fill="black" stroke="black" points="880.05,-190.1 876.55,-180.1 873.05,-190.1 880.05,-190.1"/>
</g>
</g>
</svg>
