<?xml version="1.0" encoding="UTF-8" standalone="no"?>
<!DOCTYPE svg PUBLIC "-//W3C//DTD SVG 1.1//EN"
 "http://www.w3.org/Graphics/SVG/1.1/DTD/svg11.dtd">
<!-- Generated by graphviz version 2.43.0 (0)
 -->
<!-- Title: G Pages: 1 -->
<svg width="6933pt" height="260pt"
 viewBox="0.00 0.00 6932.63 260.00" xmlns="http://www.w3.org/2000/svg" xmlns:xlink="http://www.w3.org/1999/xlink">
<g id="graph0" class="graph" transform="scale(1 1) rotate(0) translate(4 256)">
<title>G</title>
<polygon fill="white" stroke="transparent" points="-4,4 -4,-256 6928.63,-256 6928.63,4 -4,4"/>
<!-- :server -->
<g id="node1" class="node">
<title>:server</title>
<ellipse fill="none" stroke="black" cx="302.89" cy="-162" rx="43.59" ry="18"/>
<text text-anchor="middle" x="302.89" y="-158.3" font-family="Times,serif" font-size="14.00">:server</text>
</g>
<!-- :core:domain -->
<g id="node2" class="node">
<title>:core:domain</title>
<ellipse fill="none" stroke="black" cx="2392.89" cy="-18" rx="70.69" ry="18"/>
<text text-anchor="middle" x="2392.89" y="-14.3" font-family="Times,serif" font-size="14.00">:core:domain</text>
</g>
<!-- :server&#45;&gt;:core:domain -->
<g id="edge1" class="edge">
<title>:server&#45;&gt;:core:domain</title>
<path fill="none" stroke="black" d="M303.17,-143.92C304.54,-123.1 310.32,-88.65 332.89,-72 373.4,-42.11 1935.96,-23.8 2312.08,-19.82"/>
<polygon fill="black" stroke="black" points="2312.37,-23.32 2322.33,-19.71 2312.29,-16.32 2312.37,-23.32"/>
</g>
<!-- :app:androidApp -->
<g id="node3" class="node">
<title>:app:androidApp</title>
<ellipse fill="none" stroke="black" cx="639.89" cy="-234" rx="87.18" ry="18"/>
<text text-anchor="middle" x="639.89" y="-230.3" font-family="Times,serif" font-size="14.00">:app:androidApp</text>
</g>
<!-- :app:shared -->
<g id="node4" class="node">
<title>:app:shared</title>
<ellipse fill="none" stroke="black" cx="2832.89" cy="-162" rx="65.79" ry="18"/>
<text text-anchor="middle" x="2832.89" y="-158.3" font-family="Times,serif" font-size="14.00">:app:shared</text>
</g>
<!-- :app:androidApp&#45;&gt;:app:shared -->
<g id="edge2" class="edge">
<title>:app:androidApp&#45;&gt;:app:shared</title>
<path fill="none" stroke="black" d="M725.18,-230.28C1078.59,-219 2424.99,-176.02 2758.04,-165.39"/>
<polygon fill="black" stroke="black" points="2758.18,-168.89 2768.06,-165.07 2757.96,-161.89 2758.18,-168.89"/>
</g>
<!-- :core:data -->
<g id="node5" class="node">
<title>:core:data</title>
<ellipse fill="none" stroke="black" cx="628.89" cy="-162" rx="57.39" ry="18"/>
<text text-anchor="middle" x="628.89" y="-158.3" font-family="Times,serif" font-size="14.00">:core:data</text>
</g>
<!-- :app:androidApp&#45;&gt;:core:data -->
<g id="edge3" class="edge">
<title>:app:androidApp&#45;&gt;:core:data</title>
<path fill="none" stroke="black" d="M637.17,-215.7C635.96,-207.98 634.5,-198.71 633.15,-190.11"/>
<polygon fill="black" stroke="black" points="636.59,-189.44 631.58,-180.1 629.67,-190.53 636.59,-189.44"/>
</g>
<!-- :core:gt7&#45;ps5&#45;data -->
<g id="node6" class="node">
<title>:core:gt7&#45;ps5&#45;data</title>
<ellipse fill="none" stroke="black" cx="458.89" cy="-162" rx="94.78" ry="18"/>
<text text-anchor="middle" x="458.89" y="-158.3" font-family="Times,serif" font-size="14.00">:core:gt7&#45;ps5&#45;data</text>
</g>
<!-- :app:androidApp&#45;&gt;:core:gt7&#45;ps5&#45;data -->
<g id="edge4" class="edge">
<title>:app:androidApp&#45;&gt;:core:gt7&#45;ps5&#45;data</title>
<path fill="none" stroke="black" d="M600.61,-217.81C573.53,-207.33 537.31,-193.33 508.26,-182.09"/>
<polygon fill="black" stroke="black" points="509.3,-178.74 498.71,-178.4 506.78,-185.27 509.3,-178.74"/>
</g>
<!-- :feature:main -->
<g id="node9" class="node">
<title>:feature:main</title>
<ellipse fill="none" stroke="black" cx="2587.89" cy="-90" rx="73.39" ry="18"/>
<text text-anchor="middle" x="2587.89" y="-86.3" font-family="Times,serif" font-size="14.00">:feature:main</text>
</g>
<!-- :app:shared&#45;&gt;:feature:main -->
<g id="edge10" class="edge">
<title>:app:shared&#45;&gt;:feature:main</title>
<path fill="none" stroke="black" d="M2789.09,-148.49C2748.4,-136.86 2687.61,-119.49 2643.51,-106.89"/>
<polygon fill="black" stroke="black" points="2644.38,-103.5 2633.81,-104.12 2642.46,-110.23 2644.38,-103.5"/>
</g>
<!-- :feature:lmu&#45;windows&#45;connection -->
<g id="node10" class="node">
<title>:feature:lmu&#45;windows&#45;connection</title>
<ellipse fill="none" stroke="black" cx="534.89" cy="-90" rx="164.37" ry="18"/>
<text text-anchor="middle" x="534.89" y="-86.3" font-family="Times,serif" font-size="14.00">:feature:lmu&#45;windows&#45;connection</text>
</g>
<!-- :app:shared&#45;&gt;:feature:lmu&#45;windows&#45;connection -->
<g id="edge11" class="edge">
<title>:app:shared&#45;&gt;:feature:lmu&#45;windows&#45;connection</title>
<path fill="none" stroke="black" d="M2767.19,-161.09C2506.45,-161.1 1519.33,-157.64 708.89,-108 692.17,-106.98 674.58,-105.6 657.27,-104.08"/>
<polygon fill="black" stroke="black" points="657.39,-100.58 647.11,-103.17 656.76,-107.55 657.39,-100.58"/>
</g>
<!-- :feature:gt7&#45;ps5&#45;connection -->
<g id="node11" class="node">
<title>:feature:gt7&#45;ps5&#45;connection</title>
<ellipse fill="none" stroke="black" cx="855.89" cy="-90" rx="138.38" ry="18"/>
<text text-anchor="middle" x="855.89" y="-86.3" font-family="Times,serif" font-size="14.00">:feature:gt7&#45;ps5&#45;connection</text>
</g>
<!-- :app:shared&#45;&gt;:feature:gt7&#45;ps5&#45;connection -->
<g id="edge12" class="edge">
<title>:app:shared&#45;&gt;:feature:gt7&#45;ps5&#45;connection</title>
<path fill="none" stroke="black" d="M2767.17,-161.12C2529.49,-161.13 1692.25,-157.42 1003.89,-108 989.95,-107 975.3,-105.66 960.87,-104.18"/>
<polygon fill="black" stroke="black" points="961.23,-100.7 950.92,-103.13 960.5,-107.66 961.23,-100.7"/>
</g>
<!-- :feature:server&#45;connection -->
<g id="node12" class="node">
<title>:feature:server&#45;connection</title>
<ellipse fill="none" stroke="black" cx="1145.89" cy="-90" rx="133.48" ry="18"/>
<text text-anchor="middle" x="1145.89" y="-86.3" font-family="Times,serif" font-size="14.00">:feature:server&#45;connection</text>
</g>
<!-- :app:shared&#45;&gt;:feature:server&#45;connection -->
<g id="edge13" class="edge">
<title>:app:shared&#45;&gt;:feature:server&#45;connection</title>
<path fill="none" stroke="black" d="M2767.27,-160.74C2553.8,-159.46 1859.88,-151.97 1287.89,-108 1274.87,-107 1261.21,-105.69 1247.71,-104.25"/>
<polygon fill="black" stroke="black" points="1247.76,-100.73 1237.44,-103.12 1247,-107.69 1247.76,-100.73"/>
</g>
<!-- :feature:lmu&#45;windows&#45;narrator -->
<g id="node13" class="node">
<title>:feature:lmu&#45;windows&#45;narrator</title>
<ellipse fill="none" stroke="black" cx="5374.89" cy="-90" rx="153.27" ry="18"/>
<text text-anchor="middle" x="5374.89" y="-86.3" font-family="Times,serif" font-size="14.00">:feature:lmu&#45;windows&#45;narrator</text>
</g>
<!-- :app:shared&#45;&gt;:feature:lmu&#45;windows&#45;narrator -->
<g id="edge14" class="edge">
<title>:app:shared&#45;&gt;:feature:lmu&#45;windows&#45;narrator</title>
<path fill="none" stroke="black" d="M2898.47,-160.27C3232.18,-156.45 4744.22,-137.76 5212.89,-108 5228.17,-107.03 5244.23,-105.71 5260.06,-104.23"/>
<polygon fill="black" stroke="black" points="5260.8,-107.68 5270.42,-103.24 5260.13,-100.71 5260.8,-107.68"/>
</g>
<!-- :feature:gt7&#45;ps5&#45;narrator -->
<g id="node14" class="node">
<title>:feature:gt7&#45;ps5&#45;narrator</title>
<ellipse fill="none" stroke="black" cx="5673.89" cy="-90" rx="127.28" ry="18"/>
<text text-anchor="middle" x="5673.89" y="-86.3" font-family="Times,serif" font-size="14.00">:feature:gt7&#45;ps5&#45;narrator</text>
</g>
<!-- :app:shared&#45;&gt;:feature:gt7&#45;ps5&#45;narrator -->
<g id="edge15" class="edge">
<title>:app:shared&#45;&gt;:feature:gt7&#45;ps5&#45;narrator</title>
<path fill="none" stroke="black" d="M2898.59,-160.64C3259.12,-158.52 5000.5,-146.43 5536.89,-108 5549.75,-107.08 5563.25,-105.79 5576.56,-104.34"/>
<polygon fill="black" stroke="black" points="5577.14,-107.8 5586.69,-103.2 5576.36,-100.84 5577.14,-107.8"/>
</g>
<!-- :feature:other&#45;license&#45;detail -->
<g id="node15" class="node">
<title>:feature:other&#45;license&#45;detail</title>
<ellipse fill="none" stroke="black" cx="6784.89" cy="-90" rx="139.98" ry="18"/>
<text text-anchor="middle" x="6784.89" y="-86.3" font-family="Times,serif" font-size="14.00">:feature:other&#45;license&#45;detail</text>
</g>
<!-- :app:shared&#45;&gt;:feature:other&#45;license&#45;detail -->
<g id="edge16" class="edge">
<title>:app:shared&#45;&gt;:feature:other&#45;license&#45;detail</title>
<path fill="none" stroke="black" d="M2898.73,-160.98C3339.48,-160.72 5866.96,-157.1 6635.89,-108 6650.14,-107.09 6665.12,-105.79 6679.87,-104.31"/>
<polygon fill="black" stroke="black" points="6680.44,-107.77 6690.03,-103.26 6679.72,-100.8 6680.44,-107.77"/>
</g>
<!-- :feature:other&#45;list -->
<g id="node16" class="node">
<title>:feature:other&#45;list</title>
<ellipse fill="none" stroke="black" cx="1389.89" cy="-90" rx="92.88" ry="18"/>
<text text-anchor="middle" x="1389.89" y="-86.3" font-family="Times,serif" font-size="14.00">:feature:other&#45;list</text>
</g>
<!-- :app:shared&#45;&gt;:feature:other&#45;list -->
<g id="edge17" class="edge">
<title>:app:shared&#45;&gt;:feature:other&#45;list</title>
<path fill="none" stroke="black" d="M2767.05,-161.36C2571.79,-161.79 1979.1,-158.52 1490.89,-108 1482.22,-107.1 1473.16,-105.92 1464.18,-104.61"/>
<polygon fill="black" stroke="black" points="1464.52,-101.12 1454.11,-103.07 1463.46,-108.04 1464.52,-101.12"/>
</g>
<!-- :feature:other&#45;server&#45;ip&#45;detail -->
<g id="node17" class="node">
<title>:feature:other&#45;server&#45;ip&#45;detail</title>
<ellipse fill="none" stroke="black" cx="5967.89" cy="-90" rx="148.67" ry="18"/>
<text text-anchor="middle" x="5967.89" y="-86.3" font-family="Times,serif" font-size="14.00">:feature:other&#45;server&#45;ip&#45;detail</text>
</g>
<!-- :app:shared&#45;&gt;:feature:other&#45;server&#45;ip&#45;detail -->
<g id="edge18" class="edge">
<title>:app:shared&#45;&gt;:feature:other&#45;server&#45;ip&#45;detail</title>
<path fill="none" stroke="black" d="M2898.54,-160.63C3280.07,-158.37 5215.62,-145.19 5809.89,-108 5825.02,-107.05 5840.94,-105.73 5856.61,-104.23"/>
<polygon fill="black" stroke="black" points="5857.25,-107.69 5866.86,-103.23 5856.56,-100.72 5857.25,-107.69"/>
</g>
<!-- :feature:other&#45;console&#45;ip&#45;detail -->
<g id="node18" class="node">
<title>:feature:other&#45;console&#45;ip&#45;detail</title>
<ellipse fill="none" stroke="black" cx="2832.89" cy="-90" rx="153.27" ry="18"/>
<text text-anchor="middle" x="2832.89" y="-86.3" font-family="Times,serif" font-size="14.00">:feature:other&#45;console&#45;ip&#45;detail</text>
</g>
<!-- :app:shared&#45;&gt;:feature:other&#45;console&#45;ip&#45;detail -->
<g id="edge19" class="edge">
<title>:app:shared&#45;&gt;:feature:other&#45;console&#45;ip&#45;detail</title>
<path fill="none" stroke="black" d="M2832.89,-143.7C2832.89,-135.98 2832.89,-126.71 2832.89,-118.11"/>
<polygon fill="black" stroke="black" points="2836.39,-118.1 2832.89,-108.1 2829.39,-118.1 2836.39,-118.1"/>
</g>
<!-- :feature:other&#45;readout&#45;start&#45;sound&#45;detail -->
<g id="node19" class="node">
<title>:feature:other&#45;readout&#45;start&#45;sound&#45;detail</title>
<ellipse fill="none" stroke="black" cx="1699.89" cy="-90" rx="199.56" ry="18"/>
<text text-anchor="middle" x="1699.89" y="-86.3" font-family="Times,serif" font-size="14.00">:feature:other&#45;readout&#45;start&#45;sound&#45;detail</text>
</g>
<!-- :app:shared&#45;&gt;:feature:other&#45;readout&#45;start&#45;sound&#45;detail -->
<g id="edge20" class="edge">
<title>:app:shared&#45;&gt;:feature:other&#45;readout&#45;start&#45;sound&#45;detail</title>
<path fill="none" stroke="black" d="M2768.93,-157.87C2618.64,-150.4 2231.23,-130.47 1907.89,-108 1889.04,-106.69 1869.23,-105.21 1849.65,-103.68"/>
<polygon fill="black" stroke="black" points="1849.67,-100.17 1839.43,-102.87 1849.12,-107.15 1849.67,-100.17"/>
</g>
<!-- :feature:other&#45;volume&#45;detail -->
<g id="node20" class="node">
<title>:feature:other&#45;volume&#45;detail</title>
<ellipse fill="none" stroke="black" cx="3144.89" cy="-90" rx="141.07" ry="18"/>
<text text-anchor="middle" x="3144.89" y="-86.3" font-family="Times,serif" font-size="14.00">:feature:other&#45;volume&#45;detail</text>
</g>
<!-- :app:shared&#45;&gt;:feature:other&#45;volume&#45;detail -->
<g id="edge21" class="edge">
<title>:app:shared&#45;&gt;:feature:other&#45;volume&#45;detail</title>
<path fill="none" stroke="black" d="M2881.98,-149.99C2932.03,-138.76 3010.36,-121.18 3068.52,-108.14"/>
<polygon fill="black" stroke="black" points="3069.41,-111.52 3078.4,-105.92 3067.87,-104.69 3069.41,-111.52"/>
</g>
<!-- :feature:other&#45;keep&#45;screen&#45;on&#45;detail -->
<g id="node21" class="node">
<title>:feature:other&#45;keep&#45;screen&#45;on&#45;detail</title>
<ellipse fill="none" stroke="black" cx="2093.89" cy="-90" rx="176.57" ry="18"/>
<text text-anchor="middle" x="2093.89" y="-86.3" font-family="Times,serif" font-size="14.00">:feature:other&#45;keep&#45;screen&#45;on&#45;detail</text>
</g>
<!-- :app:shared&#45;&gt;:feature:other&#45;keep&#45;screen&#45;on&#45;detail -->
<g id="edge22" class="edge">
<title>:app:shared&#45;&gt;:feature:other&#45;keep&#45;screen&#45;on&#45;detail</title>
<path fill="none" stroke="black" d="M2771.79,-155.21C2653.32,-143.99 2389.9,-119.04 2228.53,-103.75"/>
<polygon fill="black" stroke="black" points="2228.82,-100.27 2218.53,-102.81 2228.16,-107.23 2228.82,-100.27"/>
</g>
<!-- :feature:readout&#45;list -->
<g id="node22" class="node">
<title>:feature:readout&#45;list</title>
<ellipse fill="none" stroke="black" cx="2392.89" cy="-90" rx="103.98" ry="18"/>
<text text-anchor="middle" x="2392.89" y="-86.3" font-family="Times,serif" font-size="14.00">:feature:readout&#45;list</text>
</g>
<!-- :app:shared&#45;&gt;:feature:readout&#45;list -->
<g id="edge23" class="edge">
<title>:app:shared&#45;&gt;:feature:readout&#45;list</title>
<path fill="none" stroke="black" d="M2777.61,-152.21C2701.82,-140.15 2565.02,-118.38 2476.63,-104.32"/>
<polygon fill="black" stroke="black" points="2477.05,-100.85 2466.63,-102.73 2475.95,-107.76 2477.05,-100.85"/>
</g>
<!-- :feature:lmu&#45;windows&#45;readout&#45;vehicle&#45;approach&#45;detail -->
<g id="node23" class="node">
<title>:feature:lmu&#45;windows&#45;readout&#45;vehicle&#45;approach&#45;detail</title>
<ellipse fill="none" stroke="black" cx="3564.89" cy="-90" rx="260.75" ry="18"/>
<text text-anchor="middle" x="3564.89" y="-86.3" font-family="Times,serif" font-size="14.00">:feature:lmu&#45;windows&#45;readout&#45;vehicle&#45;approach&#45;detail</text>
</g>
<!-- :app:shared&#45;&gt;:feature:lmu&#45;windows&#45;readout&#45;vehicle&#45;approach&#45;detail -->
<g id="edge24" class="edge">
<title>:app:shared&#45;&gt;:feature:lmu&#45;windows&#45;readout&#45;vehicle&#45;approach&#45;detail</title>
<path fill="none" stroke="black" d="M2893.73,-155.18C3005.88,-144.46 3248.43,-121.26 3409.14,-105.89"/>
<polygon fill="black" stroke="black" points="3409.5,-109.38 3419.12,-104.94 3408.83,-102.41 3409.5,-109.38"/>
</g>
<!-- :feature:lmu&#45;windows&#45;readout&#45;flag&#45;detail -->
<g id="node24" class="node">
<title>:feature:lmu&#45;windows&#45;readout&#45;flag&#45;detail</title>
<ellipse fill="none" stroke="black" cx="4042.89" cy="-90" rx="199.56" ry="18"/>
<text text-anchor="middle" x="4042.89" y="-86.3" font-family="Times,serif" font-size="14.00">:feature:lmu&#45;windows&#45;readout&#45;flag&#45;detail</text>
</g>
<!-- :app:shared&#45;&gt;:feature:lmu&#45;windows&#45;readout&#45;flag&#45;detail -->
<g id="edge25" class="edge">
<title>:app:shared&#45;&gt;:feature:lmu&#45;windows&#45;readout&#45;flag&#45;detail</title>
<path fill="none" stroke="black" d="M2897.11,-158.24C3056.13,-151.28 3480.97,-131.82 3834.89,-108 3853.91,-106.72 3873.89,-105.25 3893.65,-103.72"/>
<polygon fill="black" stroke="black" points="3893.94,-107.21 3903.63,-102.94 3893.39,-100.23 3893.94,-107.21"/>
</g>
<!-- :feature:lmu&#45;windows&#45;readout&#45;vehicle&#45;damage&#45;detail -->
<g id="node25" class="node">
<title>:feature:lmu&#45;windows&#45;readout&#45;vehicle&#45;damage&#45;detail</title>
<ellipse fill="none" stroke="black" cx="4514.89" cy="-90" rx="254.55" ry="18"/>
<text text-anchor="middle" x="4514.89" y="-86.3" font-family="Times,serif" font-size="14.00">:feature:lmu&#45;windows&#45;readout&#45;vehicle&#45;damage&#45;detail</text>
</g>
<!-- :app:shared&#45;&gt;:feature:lmu&#45;windows&#45;readout&#45;vehicle&#45;damage&#45;detail -->
<g id="edge26" class="edge">
<title>:app:shared&#45;&gt;:feature:lmu&#45;windows&#45;readout&#45;vehicle&#45;damage&#45;detail</title>
<path fill="none" stroke="black" d="M2897.98,-159.2C3099.33,-153.49 3729.93,-134.61 4251.89,-108 4276.7,-106.74 4302.81,-105.24 4328.57,-103.67"/>
<polygon fill="black" stroke="black" points="4329.03,-107.15 4338.8,-103.05 4328.6,-100.17 4329.03,-107.15"/>
</g>
<!-- :feature:gt7&#45;ps5&#45;readout&#45;my&#45;bestlap&#45;detail -->
<g id="node26" class="node">
<title>:feature:gt7&#45;ps5&#45;readout&#45;my&#45;bestlap&#45;detail</title>
<ellipse fill="none" stroke="black" cx="4995.89" cy="-90" rx="207.96" ry="18"/>
<text text-anchor="middle" x="4995.89" y="-86.3" font-family="Times,serif" font-size="14.00">:feature:gt7&#45;ps5&#45;readout&#45;my&#45;bestlap&#45;detail</text>
</g>
<!-- :app:shared&#45;&gt;:feature:gt7&#45;ps5&#45;readout&#45;my&#45;bestlap&#45;detail -->
<g id="edge27" class="edge">
<title>:app:shared&#45;&gt;:feature:gt7&#45;ps5&#45;readout&#45;my&#45;bestlap&#45;detail</title>
<path fill="none" stroke="black" d="M2898.45,-160.43C3145.2,-158.01 4041.44,-146.9 4778.89,-108 4799.91,-106.89 4822.07,-105.46 4843.86,-103.9"/>
<polygon fill="black" stroke="black" points="4844.12,-107.39 4853.84,-103.17 4843.61,-100.41 4844.12,-107.39"/>
</g>
<!-- :feature:gt7&#45;ps5&#45;readout&#45;remaining&#45;fuel&#45;laps&#45;detail -->
<g id="node27" class="node">
<title>:feature:gt7&#45;ps5&#45;readout&#45;remaining&#45;fuel&#45;laps&#45;detail</title>
<ellipse fill="none" stroke="black" cx="6380.89" cy="-90" rx="246.16" ry="18"/>
<text text-anchor="middle" x="6380.89" y="-86.3" font-family="Times,serif" font-size="14.00">:feature:gt7&#45;ps5&#45;readout&#45;remaining&#45;fuel&#45;laps&#45;detail</text>
</g>
<!-- :app:shared&#45;&gt;:feature:gt7&#45;ps5&#45;readout&#45;remaining&#45;fuel&#45;laps&#45;detail -->
<g id="edge28" class="edge">
<title>:app:shared&#45;&gt;:feature:gt7&#45;ps5&#45;readout&#45;remaining&#45;fuel&#45;laps&#45;detail</title>
<path fill="none" stroke="black" d="M2898.48,-161.18C3237.65,-161.82 4826.93,-161.72 6125.89,-108 6151.34,-106.95 6178.2,-105.51 6204.56,-103.92"/>
<polygon fill="black" stroke="black" points="6204.87,-107.41 6214.64,-103.3 6204.44,-100.42 6204.87,-107.41"/>
</g>
<!-- :core:data&#45;&gt;:core:domain -->
<g id="edge30" class="edge">
<title>:core:data&#45;&gt;:core:domain</title>
<path fill="none" stroke="black" d="M586.75,-149.65C578.85,-147.66 570.63,-145.69 562.89,-144 470.18,-123.79 295.67,-139.97 361.89,-72 396.5,-36.48 1938.57,-22.46 2312.06,-19.58"/>
<polygon fill="black" stroke="black" points="2312.27,-23.08 2322.24,-19.5 2312.22,-16.08 2312.27,-23.08"/>
</g>
<!-- :core:gt7&#45;ps5&#45;data&#45;&gt;:core:domain -->
<g id="edge31" class="edge">
<title>:core:gt7&#45;ps5&#45;data&#45;&gt;:core:domain</title>
<path fill="none" stroke="black" d="M399.35,-147.84C378.12,-139.97 356.39,-127.53 343.89,-108 335.26,-94.53 332.72,-83.46 343.89,-72 378.83,-36.15 1936.26,-22.37 2311.96,-19.56"/>
<polygon fill="black" stroke="black" points="2312.23,-23.06 2322.21,-19.49 2312.18,-16.06 2312.23,-23.06"/>
</g>
<!-- :app:desktopApp -->
<g id="node7" class="node">
<title>:app:desktopApp</title>
<ellipse fill="none" stroke="black" cx="446.89" cy="-234" rx="88.28" ry="18"/>
<text text-anchor="middle" x="446.89" y="-230.3" font-family="Times,serif" font-size="14.00">:app:desktopApp</text>
</g>
<!-- :app:desktopApp&#45;&gt;:server -->
<g id="edge9" class="edge">
<title>:app:desktopApp&#45;&gt;:server</title>
<path fill="none" stroke="black" d="M414.21,-217.12C391.9,-206.27 362.31,-191.88 339.24,-180.67"/>
<polygon fill="black" stroke="black" points="340.64,-177.46 330.12,-176.24 337.58,-183.76 340.64,-177.46"/>
</g>
<!-- :app:desktopApp&#45;&gt;:app:shared -->
<g id="edge5" class="edge">
<title>:app:desktopApp&#45;&gt;:app:shared</title>
<path fill="none" stroke="black" d="M507.75,-220.89C519.69,-218.93 532.15,-217.16 543.89,-216 987.77,-172.22 2412.48,-164.47 2757.24,-163.22"/>
<polygon fill="black" stroke="black" points="2757.38,-166.72 2767.37,-163.19 2757.35,-159.72 2757.38,-166.72"/>
</g>
<!-- :app:desktopApp&#45;&gt;:core:data -->
<g id="edge6" class="edge">
<title>:app:desktopApp&#45;&gt;:core:data</title>
<path fill="none" stroke="black" d="M486.38,-217.81C515.34,-206.67 554.68,-191.54 584.69,-180"/>
<polygon fill="black" stroke="black" points="586.01,-183.24 594.08,-176.39 583.49,-176.71 586.01,-183.24"/>
</g>
<!-- :app:desktopApp&#45;&gt;:core:gt7&#45;ps5&#45;data -->
<g id="edge8" class="edge">
<title>:app:desktopApp&#45;&gt;:core:gt7&#45;ps5&#45;data</title>
<path fill="none" stroke="black" d="M449.86,-215.7C451.18,-207.98 452.77,-198.71 454.24,-190.11"/>
<polygon fill="black" stroke="black" points="457.72,-190.55 455.96,-180.1 450.82,-189.37 457.72,-190.55"/>
</g>
<!-- :core:lmu&#45;windows&#45;data -->
<g id="node8" class="node">
<title>:core:lmu&#45;windows&#45;data</title>
<ellipse fill="none" stroke="black" cx="120.89" cy="-162" rx="120.78" ry="18"/>
<text text-anchor="middle" x="120.89" y="-158.3" font-family="Times,serif" font-size="14.00">:core:lmu&#45;windows&#45;data</text>
</g>
<!-- :app:desktopApp&#45;&gt;:core:lmu&#45;windows&#45;data -->
<g id="edge7" class="edge">
<title>:app:desktopApp&#45;&gt;:core:lmu&#45;windows&#45;data</title>
<path fill="none" stroke="black" d="M388.23,-220.4C334.6,-208.89 254.96,-191.79 196.56,-179.25"/>
<polygon fill="black" stroke="black" points="197.15,-175.8 186.64,-177.12 195.68,-182.64 197.15,-175.8"/>
</g>
<!-- :core:lmu&#45;windows&#45;data&#45;&gt;:core:domain -->
<g id="edge32" class="edge">
<title>:core:lmu&#45;windows&#45;data&#45;&gt;:core:domain</title>
<path fill="none" stroke="black" d="M146.67,-144.3C181.43,-122.85 245.98,-86.64 306.89,-72 504.06,-24.61 1952.13,-19.57 2312.07,-19.06"/>
<polygon fill="black" stroke="black" points="2312.15,-22.56 2322.15,-19.04 2312.14,-15.56 2312.15,-22.56"/>
</g>
<!-- :feature:main&#45;&gt;:core:domain -->
<g id="edge48" class="edge">
<title>:feature:main&#45;&gt;:core:domain</title>
<path fill="none" stroke="black" d="M2547.96,-74.67C2517.26,-63.65 2474.7,-48.37 2441.93,-36.61"/>
<polygon fill="black" stroke="black" points="2442.7,-33.16 2432.1,-33.08 2440.33,-39.75 2442.7,-33.16"/>
</g>
<!-- :feature:lmu&#45;windows&#45;connection&#45;&gt;:core:domain -->
<g id="edge39" class="edge">
<title>:feature:lmu&#45;windows&#45;connection&#45;&gt;:core:domain</title>
<path fill="none" stroke="black" d="M648.05,-76.85C668.29,-74.99 689.2,-73.27 708.89,-72 1324.71,-32.27 2069.21,-22.03 2312.07,-19.65"/>
<polygon fill="black" stroke="black" points="2312.26,-23.15 2322.22,-19.56 2312.19,-16.15 2312.26,-23.15"/>
</g>
<!-- :feature:gt7&#45;ps5&#45;connection&#45;&gt;:core:domain -->
<g id="edge33" class="edge">
<title>:feature:gt7&#45;ps5&#45;connection&#45;&gt;:core:domain</title>
<path fill="none" stroke="black" d="M951.32,-76.96C968.79,-75.06 986.87,-73.3 1003.89,-72 1500.16,-34.09 2098.36,-22.86 2312.12,-19.93"/>
<polygon fill="black" stroke="black" points="2312.36,-23.43 2322.32,-19.79 2312.27,-16.43 2312.36,-23.43"/>
</g>
<!-- :feature:server&#45;connection&#45;&gt;:core:domain -->
<g id="edge60" class="edge">
<title>:feature:server&#45;connection&#45;&gt;:core:domain</title>
<path fill="none" stroke="black" d="M1238.22,-76.98C1254.74,-75.11 1271.81,-73.35 1287.89,-72 1670.85,-39.93 2130.22,-25.62 2312.6,-20.89"/>
<polygon fill="black" stroke="black" points="2312.73,-24.39 2322.64,-20.63 2312.55,-17.39 2312.73,-24.39"/>
</g>
<!-- :feature:lmu&#45;windows&#45;narrator&#45;&gt;:core:domain -->
<g id="edge40" class="edge">
<title>:feature:lmu&#45;windows&#45;narrator&#45;&gt;:core:domain</title>
<path fill="none" stroke="black" d="M5270.86,-76.75C5251.61,-74.86 5231.66,-73.16 5212.89,-72 4658.97,-37.79 2875.1,-22.61 2473.64,-19.58"/>
<polygon fill="black" stroke="black" points="2473.59,-16.08 2463.57,-19.51 2473.54,-23.08 2473.59,-16.08"/>
</g>
<!-- :core:designsystem -->
<g id="node29" class="node">
<title>:core:designsystem</title>
<ellipse fill="none" stroke="black" cx="4995.89" cy="-18" rx="100.98" ry="18"/>
<text text-anchor="middle" x="4995.89" y="-14.3" font-family="Times,serif" font-size="14.00">:core:designsystem</text>
</g>
<!-- :feature:lmu&#45;windows&#45;narrator&#45;&gt;:core:designsystem -->
<g id="edge41" class="edge">
<title>:feature:lmu&#45;windows&#45;narrator&#45;&gt;:core:designsystem</title>
<path fill="none" stroke="black" d="M5296.36,-74.5C5231.02,-62.43 5138.49,-45.34 5073.42,-33.32"/>
<polygon fill="black" stroke="black" points="5073.69,-29.81 5063.23,-31.44 5072.42,-36.69 5073.69,-29.81"/>
</g>
<!-- :feature:gt7&#45;ps5&#45;narrator&#45;&gt;:core:domain -->
<g id="edge34" class="edge">
<title>:feature:gt7&#45;ps5&#45;narrator&#45;&gt;:core:domain</title>
<path fill="none" stroke="black" d="M5587.06,-76.81C5570.43,-74.88 5553.15,-73.14 5536.89,-72 4915.51,-28.33 2903.54,-20.4 2474.03,-19.19"/>
<polygon fill="black" stroke="black" points="2473.89,-15.69 2463.88,-19.17 2473.87,-22.69 2473.89,-15.69"/>
</g>
<!-- :feature:gt7&#45;ps5&#45;narrator&#45;&gt;:core:designsystem -->
<g id="edge35" class="edge">
<title>:feature:gt7&#45;ps5&#45;narrator&#45;&gt;:core:designsystem</title>
<path fill="none" stroke="black" d="M5582.92,-77.38C5567.56,-75.51 5551.78,-73.65 5536.89,-72 5382.19,-54.83 5202.27,-37.78 5093.84,-27.83"/>
<polygon fill="black" stroke="black" points="5093.85,-24.32 5083.57,-26.89 5093.21,-31.29 5093.85,-24.32"/>
</g>
<!-- :feature:other&#45;license&#45;detail&#45;&gt;:core:designsystem -->
<g id="edge52" class="edge">
<title>:feature:other&#45;license&#45;detail&#45;&gt;:core:designsystem</title>
<path fill="none" stroke="black" d="M6688.81,-76.88C6671.23,-74.99 6653.03,-73.25 6635.89,-72 6061.49,-30.02 5371.49,-21.29 5106.73,-19.48"/>
<polygon fill="black" stroke="black" points="5106.37,-15.97 5096.34,-19.41 5106.32,-22.97 5106.37,-15.97"/>
</g>
<!-- :feature:other&#45;list&#45;&gt;:core:domain -->
<g id="edge53" class="edge">
<title>:feature:other&#45;list&#45;&gt;:core:domain</title>
<path fill="none" stroke="black" d="M1454.67,-77.03C1466.68,-75.12 1479.14,-73.33 1490.89,-72 1792.88,-37.81 2154.41,-25.02 2312.39,-20.81"/>
<polygon fill="black" stroke="black" points="2312.59,-24.31 2322.49,-20.55 2312.41,-17.31 2312.59,-24.31"/>
</g>
<!-- :feature:other&#45;server&#45;ip&#45;detail&#45;&gt;:core:domain -->
<g id="edge55" class="edge">
<title>:feature:other&#45;server&#45;ip&#45;detail&#45;&gt;:core:domain</title>
<path fill="none" stroke="black" d="M5866.86,-76.74C5847.95,-74.84 5828.34,-73.13 5809.89,-72 5130.71,-30.28 2925.3,-20.77 2474.01,-19.25"/>
<polygon fill="black" stroke="black" points="2473.69,-15.75 2463.68,-19.21 2473.66,-22.75 2473.69,-15.75"/>
</g>
<!-- :feature:other&#45;server&#45;ip&#45;detail&#45;&gt;:core:designsystem -->
<g id="edge56" class="edge">
<title>:feature:other&#45;server&#45;ip&#45;detail&#45;&gt;:core:designsystem</title>
<path fill="none" stroke="black" d="M5863.41,-77.13C5845.57,-75.28 5827.21,-73.49 5809.89,-72 5555.85,-50.07 5256.51,-32.77 5101.25,-24.44"/>
<polygon fill="black" stroke="black" points="5101.4,-20.94 5091.23,-23.9 5101.03,-27.93 5101.4,-20.94"/>
</g>
<!-- :feature:other&#45;console&#45;ip&#45;detail&#45;&gt;:core:domain -->
<g id="edge49" class="edge">
<title>:feature:other&#45;console&#45;ip&#45;detail&#45;&gt;:core:domain</title>
<path fill="none" stroke="black" d="M2745.7,-75.13C2662.14,-61.83 2537.73,-42.04 2461.15,-29.86"/>
<polygon fill="black" stroke="black" points="2461.56,-26.38 2451.13,-28.27 2460.46,-33.29 2461.56,-26.38"/>
</g>
<!-- :feature:other&#45;console&#45;ip&#45;detail&#45;&gt;:core:designsystem -->
<g id="edge50" class="edge">
<title>:feature:other&#45;console&#45;ip&#45;detail&#45;&gt;:core:designsystem</title>
<path fill="none" stroke="black" d="M2937.8,-76.78C2956.78,-74.92 2976.41,-73.21 2994.89,-72 3714.29,-24.8 4581.8,-19.29 4884.93,-18.9"/>
<polygon fill="black" stroke="black" points="4885.04,-22.4 4895.04,-18.89 4885.03,-15.4 4885.04,-22.4"/>
</g>
<!-- :feature:other&#45;readout&#45;start&#45;sound&#45;detail&#45;&gt;:core:domain -->
<g id="edge54" class="edge">
<title>:feature:other&#45;readout&#45;start&#45;sound&#45;detail&#45;&gt;:core:domain</title>
<path fill="none" stroke="black" d="M1827.4,-76.12C1971.36,-61.58 2200.79,-38.4 2318.25,-26.54"/>
<polygon fill="black" stroke="black" points="2318.63,-30.02 2328.23,-25.53 2317.93,-23.05 2318.63,-30.02"/>
</g>
<!-- :feature:other&#45;volume&#45;detail&#45;&gt;:core:domain -->
<g id="edge57" class="edge">
<title>:feature:other&#45;volume&#45;detail&#45;&gt;:core:domain</title>
<path fill="none" stroke="black" d="M3044.47,-77.27C3027.92,-75.43 3010.93,-73.61 2994.89,-72 2806.16,-53 2583.75,-34.4 2469.36,-25.12"/>
<polygon fill="black" stroke="black" points="2469.56,-21.62 2459.31,-24.3 2468.99,-28.6 2469.56,-21.62"/>
</g>
<!-- :feature:other&#45;volume&#45;detail&#45;&gt;:core:designsystem -->
<g id="edge58" class="edge">
<title>:feature:other&#45;volume&#45;detail&#45;&gt;:core:designsystem</title>
<path fill="none" stroke="black" d="M3241.61,-76.86C3259.31,-74.98 3277.64,-73.24 3294.89,-72 3893.52,-28.82 4613.16,-20.8 4884.83,-19.32"/>
<polygon fill="black" stroke="black" points="4885.11,-22.82 4895.09,-19.27 4885.07,-15.82 4885.11,-22.82"/>
</g>
<!-- :feature:other&#45;keep&#45;screen&#45;on&#45;detail&#45;&gt;:core:domain -->
<g id="edge51" class="edge">
<title>:feature:other&#45;keep&#45;screen&#45;on&#45;detail&#45;&gt;:core:domain</title>
<path fill="none" stroke="black" d="M2160.99,-73.29C2212.54,-61.22 2283.09,-44.71 2332.8,-33.07"/>
<polygon fill="black" stroke="black" points="2333.82,-36.42 2342.76,-30.74 2332.22,-29.61 2333.82,-36.42"/>
</g>
<!-- :feature:readout&#45;list&#45;&gt;:core:domain -->
<g id="edge59" class="edge">
<title>:feature:readout&#45;list&#45;&gt;:core:domain</title>
<path fill="none" stroke="black" d="M2392.89,-71.7C2392.89,-63.98 2392.89,-54.71 2392.89,-46.11"/>
<polygon fill="black" stroke="black" points="2396.39,-46.1 2392.89,-36.1 2389.39,-46.1 2396.39,-46.1"/>
</g>
<!-- :feature:lmu&#45;windows&#45;readout&#45;vehicle&#45;approach&#45;detail&#45;&gt;:core:domain -->
<g id="edge44" class="edge">
<title>:feature:lmu&#45;windows&#45;readout&#45;vehicle&#45;approach&#45;detail&#45;&gt;:core:domain</title>
<path fill="none" stroke="black" d="M3380.08,-77.26C3351.55,-75.48 3322.43,-73.68 3294.89,-72 2990.19,-53.46 2627.51,-32.48 2471.07,-23.48"/>
<polygon fill="black" stroke="black" points="2471.25,-19.99 2461.07,-22.91 2470.85,-26.98 2471.25,-19.99"/>
</g>
<!-- :feature:lmu&#45;windows&#45;readout&#45;vehicle&#45;approach&#45;detail&#45;&gt;:core:designsystem -->
<g id="edge45" class="edge">
<title>:feature:lmu&#45;windows&#45;readout&#45;vehicle&#45;approach&#45;detail&#45;&gt;:core:designsystem</title>
<path fill="none" stroke="black" d="M3746.82,-77.07C3775.94,-75.28 3805.74,-73.53 3833.89,-72 4222.06,-50.88 4683.49,-31.56 4888.52,-23.27"/>
<polygon fill="black" stroke="black" points="4888.84,-26.76 4898.69,-22.86 4888.55,-19.76 4888.84,-26.76"/>
</g>
<!-- :feature:lmu&#45;windows&#45;readout&#45;flag&#45;detail&#45;&gt;:core:domain -->
<g id="edge42" class="edge">
<title>:feature:lmu&#45;windows&#45;readout&#45;flag&#45;detail&#45;&gt;:core:domain</title>
<path fill="none" stroke="black" d="M3905.61,-76.9C3882.03,-75.08 3857.77,-73.35 3834.89,-72 3316.39,-41.3 2691.9,-25.56 2473.2,-20.69"/>
<polygon fill="black" stroke="black" points="2473.17,-17.19 2463.09,-20.47 2473.01,-24.19 2473.17,-17.19"/>
</g>
<!-- :feature:lmu&#45;windows&#45;readout&#45;flag&#45;detail&#45;&gt;:core:designsystem -->
<g id="edge43" class="edge">
<title>:feature:lmu&#45;windows&#45;readout&#45;flag&#45;detail&#45;&gt;:core:designsystem</title>
<path fill="none" stroke="black" d="M4184.13,-77.25C4206.46,-75.46 4229.3,-73.65 4250.89,-72 4480.37,-54.46 4749.76,-35.77 4893.41,-25.95"/>
<polygon fill="black" stroke="black" points="4893.79,-29.43 4903.53,-25.26 4893.32,-22.45 4893.79,-29.43"/>
</g>
<!-- :feature:lmu&#45;windows&#45;readout&#45;vehicle&#45;damage&#45;detail&#45;&gt;:core:domain -->
<g id="edge46" class="edge">
<title>:feature:lmu&#45;windows&#45;readout&#45;vehicle&#45;damage&#45;detail&#45;&gt;:core:domain</title>
<path fill="none" stroke="black" d="M4340.58,-76.85C4310.99,-75.04 4280.57,-73.34 4251.89,-72 3564.02,-39.97 2732.02,-24.52 2473.46,-20.26"/>
<polygon fill="black" stroke="black" points="2473.47,-16.76 2463.41,-20.09 2473.35,-23.76 2473.47,-16.76"/>
</g>
<!-- :feature:lmu&#45;windows&#45;readout&#45;vehicle&#45;damage&#45;detail&#45;&gt;:core:designsystem -->
<g id="edge47" class="edge">
<title>:feature:lmu&#45;windows&#45;readout&#45;vehicle&#45;damage&#45;detail&#45;&gt;:core:designsystem</title>
<path fill="none" stroke="black" d="M4620.74,-73.59C4707.75,-60.93 4829.44,-43.22 4910.36,-31.45"/>
<polygon fill="black" stroke="black" points="4911.12,-34.87 4920.51,-29.97 4910.11,-27.95 4911.12,-34.87"/>
</g>
<!-- :feature:gt7&#45;ps5&#45;readout&#45;my&#45;bestlap&#45;detail&#45;&gt;:core:domain -->
<g id="edge36" class="edge">
<title>:feature:gt7&#45;ps5&#45;readout&#45;my&#45;bestlap&#45;detail&#45;&gt;:core:domain</title>
<path fill="none" stroke="black" d="M4854.43,-76.77C4829.28,-74.92 4803.33,-73.23 4778.89,-72 3875.14,-26.6 2776.88,-20.09 2473.72,-19.16"/>
<polygon fill="black" stroke="black" points="2473.71,-15.66 2463.7,-19.13 2473.69,-22.66 2473.71,-15.66"/>
</g>
<!-- :feature:gt7&#45;ps5&#45;readout&#45;my&#45;bestlap&#45;detail&#45;&gt;:core:designsystem -->
<g id="edge37" class="edge">
<title>:feature:gt7&#45;ps5&#45;readout&#45;my&#45;bestlap&#45;detail&#45;&gt;:core:designsystem</title>
<path fill="none" stroke="black" d="M4995.89,-71.7C4995.89,-63.98 4995.89,-54.71 4995.89,-46.11"/>
<polygon fill="black" stroke="black" points="4999.39,-46.1 4995.89,-36.1 4992.39,-46.1 4999.39,-46.1"/>
</g>
<!-- :feature:gt7&#45;ps5&#45;readout&#45;remaining&#45;fuel&#45;laps&#45;detail&#45;&gt;:core:designsystem -->
<g id="edge38" class="edge">
<title>:feature:gt7&#45;ps5&#45;readout&#45;remaining&#45;fuel&#45;laps&#45;detail&#45;&gt;:core:designsystem</title>
<path fill="none" stroke="black" d="M6209.12,-77.08C6181.3,-75.29 6152.8,-73.53 6125.89,-72 5750.31,-50.67 5304.15,-31.59 5103.29,-23.33"/>
<polygon fill="black" stroke="black" points="5103.17,-19.82 5093.04,-22.91 5102.89,-26.82 5103.17,-19.82"/>
</g>
<!-- :app:webApp -->
<g id="node28" class="node">
<title>:app:webApp</title>
<ellipse fill="none" stroke="black" cx="2832.89" cy="-234" rx="70.69" ry="18"/>
<text text-anchor="middle" x="2832.89" y="-230.3" font-family="Times,serif" font-size="14.00">:app:webApp</text>
</g>
<!-- :app:webApp&#45;&gt;:app:shared -->
<g id="edge29" class="edge">
<title>:app:webApp&#45;&gt;:app:shared</title>
<path fill="none" stroke="black" d="M2832.89,-215.7C2832.89,-207.98 2832.89,-198.71 2832.89,-190.11"/>
<polygon fill="black" stroke="black" points="2836.39,-190.1 2832.89,-180.1 2829.39,-190.1 2836.39,-190.1"/>
</g>
</g>
</svg>
