<?xml version="1.0" encoding="UTF-8" standalone="no"?>
<!DOCTYPE svg PUBLIC "-//W3C//DTD SVG 1.1//EN"
 "http://www.w3.org/Graphics/SVG/1.1/DTD/svg11.dtd">
<!-- Generated by graphviz version 2.43.0 (0)
 -->
<!-- Title: G Pages: 1 -->
<svg width="6008pt" height="260pt"
 viewBox="0.00 0.00 6007.63 260.00" xmlns="http://www.w3.org/2000/svg" xmlns:xlink="http://www.w3.org/1999/xlink">
<g id="graph0" class="graph" transform="scale(1 1) rotate(0) translate(4 256)">
<title>G</title>
<polygon fill="white" stroke="transparent" points="-4,4 -4,-256 6003.63,-256 6003.63,4 -4,4"/>
<!-- :server -->
<g id="node1" class="node">
<title>:server</title>
<ellipse fill="none" stroke="black" cx="250.89" cy="-162" rx="43.59" ry="18"/>
<text text-anchor="middle" x="250.89" y="-158.3" font-family="Times,serif" font-size="14.00">:server</text>
</g>
<!-- :core:domain -->
<g id="node2" class="node">
<title>:core:domain</title>
<ellipse fill="none" stroke="black" cx="1988.89" cy="-18" rx="70.69" ry="18"/>
<text text-anchor="middle" x="1988.89" y="-14.3" font-family="Times,serif" font-size="14.00">:core:domain</text>
</g>
<!-- :server&#45;&gt;:core:domain -->
<g id="edge1" class="edge">
<title>:server&#45;&gt;:core:domain</title>
<path fill="none" stroke="black" d="M251.79,-143.89C253.89,-123.04 260.88,-88.55 283.89,-72 350.44,-24.15 1577.23,-19.42 1907.56,-19.02"/>
<polygon fill="black" stroke="black" points="1908,-22.52 1918,-19.01 1907.99,-15.52 1908,-22.52"/>
</g>
<!-- :app:androidApp -->
<g id="node3" class="node">
<title>:app:androidApp</title>
<ellipse fill="none" stroke="black" cx="1297.89" cy="-234" rx="87.18" ry="18"/>
<text text-anchor="middle" x="1297.89" y="-230.3" font-family="Times,serif" font-size="14.00">:app:androidApp</text>
</g>
<!-- :app:shared -->
<g id="node4" class="node">
<title>:app:shared</title>
<ellipse fill="none" stroke="black" cx="2304.89" cy="-162" rx="65.79" ry="18"/>
<text text-anchor="middle" x="2304.89" y="-158.3" font-family="Times,serif" font-size="14.00">:app:shared</text>
</g>
<!-- :app:androidApp&#45;&gt;:app:shared -->
<g id="edge2" class="edge">
<title>:app:androidApp&#45;&gt;:app:shared</title>
<path fill="none" stroke="black" d="M1379.02,-227.36C1570.68,-214.04 2049.1,-180.78 2232.11,-168.06"/>
<polygon fill="black" stroke="black" points="2232.44,-171.54 2242.17,-167.36 2231.95,-164.56 2232.44,-171.54"/>
</g>
<!-- :core:data -->
<g id="node5" class="node">
<title>:core:data</title>
<ellipse fill="none" stroke="black" cx="628.89" cy="-162" rx="57.39" ry="18"/>
<text text-anchor="middle" x="628.89" y="-158.3" font-family="Times,serif" font-size="14.00">:core:data</text>
</g>
<!-- :app:androidApp&#45;&gt;:core:data -->
<g id="edge3" class="edge">
<title>:app:androidApp&#45;&gt;:core:data</title>
<path fill="none" stroke="black" d="M1222.12,-225.07C1089.19,-211.16 816.34,-182.61 692.52,-169.66"/>
<polygon fill="black" stroke="black" points="692.74,-166.16 682.43,-168.6 692.02,-173.12 692.74,-166.16"/>
</g>
<!-- :feature:main -->
<g id="node9" class="node">
<title>:feature:main</title>
<ellipse fill="none" stroke="black" cx="397.89" cy="-90" rx="73.39" ry="18"/>
<text text-anchor="middle" x="397.89" y="-86.3" font-family="Times,serif" font-size="14.00">:feature:main</text>
</g>
<!-- :app:shared&#45;&gt;:feature:main -->
<g id="edge9" class="edge">
<title>:app:shared&#45;&gt;:feature:main</title>
<path fill="none" stroke="black" d="M2239.27,-160.61C1955.41,-158.71 831.77,-148.72 480.89,-108 474.02,-107.2 466.87,-106.12 459.78,-104.9"/>
<polygon fill="black" stroke="black" points="459.94,-101.37 449.47,-103 458.67,-108.25 459.94,-101.37"/>
</g>
<!-- :feature:lmu&#45;windows&#45;connection -->
<g id="node10" class="node">
<title>:feature:lmu&#45;windows&#45;connection</title>
<ellipse fill="none" stroke="black" cx="653.89" cy="-90" rx="164.37" ry="18"/>
<text text-anchor="middle" x="653.89" y="-86.3" font-family="Times,serif" font-size="14.00">:feature:lmu&#45;windows&#45;connection</text>
</g>
<!-- :app:shared&#45;&gt;:feature:lmu&#45;windows&#45;connection -->
<g id="edge10" class="edge">
<title>:app:shared&#45;&gt;:feature:lmu&#45;windows&#45;connection</title>
<path fill="none" stroke="black" d="M2239.3,-160.09C2032.03,-156.89 1372.57,-144.35 827.89,-108 811.44,-106.9 794.13,-105.5 777.07,-103.98"/>
<polygon fill="black" stroke="black" points="777.34,-100.49 767.06,-103.08 776.7,-107.46 777.34,-100.49"/>
</g>
<!-- :feature:gt7&#45;ps5&#45;connection -->
<g id="node11" class="node">
<title>:feature:gt7&#45;ps5&#45;connection</title>
<ellipse fill="none" stroke="black" cx="974.89" cy="-90" rx="138.38" ry="18"/>
<text text-anchor="middle" x="974.89" y="-86.3" font-family="Times,serif" font-size="14.00">:feature:gt7&#45;ps5&#45;connection</text>
</g>
<!-- :app:shared&#45;&gt;:feature:gt7&#45;ps5&#45;connection -->
<g id="edge11" class="edge">
<title>:app:shared&#45;&gt;:feature:gt7&#45;ps5&#45;connection</title>
<path fill="none" stroke="black" d="M2239.77,-159.67C2061.06,-155.68 1548.03,-141.91 1122.89,-108 1109.3,-106.92 1095.04,-105.56 1080.95,-104.08"/>
<polygon fill="black" stroke="black" points="1081.05,-100.58 1070.73,-102.99 1080.3,-107.54 1081.05,-100.58"/>
</g>
<!-- :feature:server&#45;connection -->
<g id="node12" class="node">
<title>:feature:server&#45;connection</title>
<ellipse fill="none" stroke="black" cx="1264.89" cy="-90" rx="133.48" ry="18"/>
<text text-anchor="middle" x="1264.89" y="-86.3" font-family="Times,serif" font-size="14.00">:feature:server&#45;connection</text>
</g>
<!-- :app:shared&#45;&gt;:feature:server&#45;connection -->
<g id="edge12" class="edge">
<title>:app:shared&#45;&gt;:feature:server&#45;connection</title>
<path fill="none" stroke="black" d="M2240.35,-158.5C2092.74,-152.5 1719.25,-135.68 1407.89,-108 1395.09,-106.86 1381.67,-105.5 1368.39,-104.04"/>
<polygon fill="black" stroke="black" points="1368.6,-100.54 1358.27,-102.91 1367.82,-107.5 1368.6,-100.54"/>
</g>
<!-- :feature:lmu&#45;windows&#45;narrator -->
<g id="node13" class="node">
<title>:feature:lmu&#45;windows&#45;narrator</title>
<ellipse fill="none" stroke="black" cx="1569.89" cy="-90" rx="153.27" ry="18"/>
<text text-anchor="middle" x="1569.89" y="-86.3" font-family="Times,serif" font-size="14.00">:feature:lmu&#45;windows&#45;narrator</text>
</g>
<!-- :app:shared&#45;&gt;:feature:lmu&#45;windows&#45;narrator -->
<g id="edge13" class="edge">
<title>:app:shared&#45;&gt;:feature:lmu&#45;windows&#45;narrator</title>
<path fill="none" stroke="black" d="M2243.39,-155.56C2138.44,-146.23 1918.06,-126.38 1731.89,-108 1718.19,-106.65 1703.84,-105.19 1689.59,-103.73"/>
<polygon fill="black" stroke="black" points="1689.54,-100.21 1679.24,-102.66 1688.82,-107.17 1689.54,-100.21"/>
</g>
<!-- :feature:other&#45;license&#45;detail -->
<g id="node14" class="node">
<title>:feature:other&#45;license&#45;detail</title>
<ellipse fill="none" stroke="black" cx="5859.89" cy="-90" rx="139.98" ry="18"/>
<text text-anchor="middle" x="5859.89" y="-86.3" font-family="Times,serif" font-size="14.00">:feature:other&#45;license&#45;detail</text>
</g>
<!-- :app:shared&#45;&gt;:feature:other&#45;license&#45;detail -->
<g id="edge14" class="edge">
<title>:app:shared&#45;&gt;:feature:other&#45;license&#45;detail</title>
<path fill="none" stroke="black" d="M2370.7,-160.86C2784.01,-159.83 5026.12,-152.28 5710.89,-108 5725.14,-107.08 5740.12,-105.77 5754.87,-104.29"/>
<polygon fill="black" stroke="black" points="5755.45,-107.75 5765.03,-103.23 5754.72,-100.78 5755.45,-107.75"/>
</g>
<!-- :feature:other&#45;list -->
<g id="node15" class="node">
<title>:feature:other&#45;list</title>
<ellipse fill="none" stroke="black" cx="1833.89" cy="-90" rx="92.88" ry="18"/>
<text text-anchor="middle" x="1833.89" y="-86.3" font-family="Times,serif" font-size="14.00">:feature:other&#45;list</text>
</g>
<!-- :app:shared&#45;&gt;:feature:other&#45;list -->
<g id="edge15" class="edge">
<title>:app:shared&#45;&gt;:feature:other&#45;list</title>
<path fill="none" stroke="black" d="M2247.46,-153.22C2174.66,-143.25 2045.34,-125.2 1934.89,-108 1927.08,-106.78 1918.95,-105.48 1910.82,-104.15"/>
<polygon fill="black" stroke="black" points="1911.39,-100.7 1900.95,-102.52 1910.25,-107.6 1911.39,-100.7"/>
</g>
<!-- :feature:other&#45;server&#45;ip&#45;detail -->
<g id="node16" class="node">
<title>:feature:other&#45;server&#45;ip&#45;detail</title>
<ellipse fill="none" stroke="black" cx="3442.89" cy="-90" rx="148.67" ry="18"/>
<text text-anchor="middle" x="3442.89" y="-86.3" font-family="Times,serif" font-size="14.00">:feature:other&#45;server&#45;ip&#45;detail</text>
</g>
<!-- :app:shared&#45;&gt;:feature:other&#45;server&#45;ip&#45;detail -->
<g id="edge16" class="edge">
<title>:app:shared&#45;&gt;:feature:other&#45;server&#45;ip&#45;detail</title>
<path fill="none" stroke="black" d="M2369.47,-158.7C2526.42,-152.84 2940.34,-135.83 3284.89,-108 3299.19,-106.84 3314.2,-105.46 3329.04,-103.98"/>
<polygon fill="black" stroke="black" points="3329.68,-107.43 3339.28,-102.94 3328.98,-100.47 3329.68,-107.43"/>
</g>
<!-- :feature:other&#45;gt7&#45;ps5&#45;ip&#45;detail -->
<g id="node17" class="node">
<title>:feature:other&#45;gt7&#45;ps5&#45;ip&#45;detail</title>
<ellipse fill="none" stroke="black" cx="3763.89" cy="-90" rx="154.07" ry="18"/>
<text text-anchor="middle" x="3763.89" y="-86.3" font-family="Times,serif" font-size="14.00">:feature:other&#45;gt7&#45;ps5&#45;ip&#45;detail</text>
</g>
<!-- :app:shared&#45;&gt;:feature:other&#45;gt7&#45;ps5&#45;ip&#45;detail -->
<g id="edge17" class="edge">
<title>:app:shared&#45;&gt;:feature:other&#45;gt7&#45;ps5&#45;ip&#45;detail</title>
<path fill="none" stroke="black" d="M2370.04,-159.79C2559.97,-155.94 3129.52,-142.19 3600.89,-108 3615.91,-106.91 3631.68,-105.55 3647.25,-104.07"/>
<polygon fill="black" stroke="black" points="3647.83,-107.53 3657.45,-103.08 3647.16,-100.56 3647.83,-107.53"/>
</g>
<!-- :feature:other&#45;readout&#45;start&#45;sound&#45;detail -->
<g id="node18" class="node">
<title>:feature:other&#45;readout&#45;start&#45;sound&#45;detail</title>
<ellipse fill="none" stroke="black" cx="2143.89" cy="-90" rx="199.56" ry="18"/>
<text text-anchor="middle" x="2143.89" y="-86.3" font-family="Times,serif" font-size="14.00">:feature:other&#45;readout&#45;start&#45;sound&#45;detail</text>
</g>
<!-- :app:shared&#45;&gt;:feature:other&#45;readout&#45;start&#45;sound&#45;detail -->
<g id="edge18" class="edge">
<title>:app:shared&#45;&gt;:feature:other&#45;readout&#45;start&#45;sound&#45;detail</title>
<path fill="none" stroke="black" d="M2271.53,-146.5C2248.4,-136.44 2217.25,-122.89 2191.51,-111.7"/>
<polygon fill="black" stroke="black" points="2192.86,-108.48 2182.3,-107.7 2190.07,-114.9 2192.86,-108.48"/>
</g>
<!-- :feature:other&#45;volume&#45;detail -->
<g id="node19" class="node">
<title>:feature:other&#45;volume&#45;detail</title>
<ellipse fill="none" stroke="black" cx="4076.89" cy="-90" rx="141.07" ry="18"/>
<text text-anchor="middle" x="4076.89" y="-86.3" font-family="Times,serif" font-size="14.00">:feature:other&#45;volume&#45;detail</text>
</g>
<!-- :app:shared&#45;&gt;:feature:other&#45;volume&#45;detail -->
<g id="edge19" class="edge">
<title>:app:shared&#45;&gt;:feature:other&#45;volume&#45;detail</title>
<path fill="none" stroke="black" d="M2370.66,-160.74C2591.02,-159.47 3323.44,-151.98 3926.89,-108 3940.91,-106.98 3955.64,-105.64 3970.16,-104.16"/>
<polygon fill="black" stroke="black" points="3970.59,-107.63 3980.17,-103.11 3969.86,-100.67 3970.59,-107.63"/>
</g>
<!-- :feature:readout&#45;list -->
<g id="node20" class="node">
<title>:feature:readout&#45;list</title>
<ellipse fill="none" stroke="black" cx="2465.89" cy="-90" rx="103.98" ry="18"/>
<text text-anchor="middle" x="2465.89" y="-86.3" font-family="Times,serif" font-size="14.00">:feature:readout&#45;list</text>
</g>
<!-- :app:shared&#45;&gt;:feature:readout&#45;list -->
<g id="edge20" class="edge">
<title>:app:shared&#45;&gt;:feature:readout&#45;list</title>
<path fill="none" stroke="black" d="M2338.25,-146.5C2361.88,-136.22 2393.86,-122.32 2419.91,-110.99"/>
<polygon fill="black" stroke="black" points="2421.43,-114.15 2429.21,-106.95 2418.64,-107.73 2421.43,-114.15"/>
</g>
<!-- :feature:lmu&#45;windows&#45;readout&#45;vehicle&#45;approach&#45;detail -->
<g id="node21" class="node">
<title>:feature:lmu&#45;windows&#45;readout&#45;vehicle&#45;approach&#45;detail</title>
<ellipse fill="none" stroke="black" cx="4496.89" cy="-90" rx="260.75" ry="18"/>
<text text-anchor="middle" x="4496.89" y="-86.3" font-family="Times,serif" font-size="14.00">:feature:lmu&#45;windows&#45;readout&#45;vehicle&#45;approach&#45;detail</text>
</g>
<!-- :app:shared&#45;&gt;:feature:lmu&#45;windows&#45;readout&#45;vehicle&#45;approach&#45;detail -->
<g id="edge21" class="edge">
<title>:app:shared&#45;&gt;:feature:lmu&#45;windows&#45;readout&#45;vehicle&#45;approach&#45;detail</title>
<path fill="none" stroke="black" d="M2370.47,-160.03C2615.3,-156.24 3499.1,-140.94 4226.89,-108 4253.22,-106.81 4280.97,-105.32 4308.27,-103.73"/>
<polygon fill="black" stroke="black" points="4308.52,-107.22 4318.3,-103.14 4308.11,-100.23 4308.52,-107.22"/>
</g>
<!-- :feature:lmu&#45;windows&#45;readout&#45;flag&#45;detail -->
<g id="node22" class="node">
<title>:feature:lmu&#45;windows&#45;readout&#45;flag&#45;detail</title>
<ellipse fill="none" stroke="black" cx="4974.89" cy="-90" rx="199.56" ry="18"/>
<text text-anchor="middle" x="4974.89" y="-86.3" font-family="Times,serif" font-size="14.00">:feature:lmu&#45;windows&#45;readout&#45;flag&#45;detail</text>
</g>
<!-- :app:shared&#45;&gt;:feature:lmu&#45;windows&#45;readout&#45;flag&#45;detail -->
<g id="edge22" class="edge">
<title>:app:shared&#45;&gt;:feature:lmu&#45;windows&#45;readout&#45;flag&#45;detail</title>
<path fill="none" stroke="black" d="M2370.57,-161.03C2655.85,-160.87 3815.83,-157.06 4766.89,-108 4787.1,-106.96 4808.4,-105.56 4829.34,-104.01"/>
<polygon fill="black" stroke="black" points="4829.88,-107.48 4839.59,-103.24 4829.35,-100.5 4829.88,-107.48"/>
</g>
<!-- :feature:lmu&#45;windows&#45;readout&#45;vehicle&#45;damage&#45;detail -->
<g id="node23" class="node">
<title>:feature:lmu&#45;windows&#45;readout&#45;vehicle&#45;damage&#45;detail</title>
<ellipse fill="none" stroke="black" cx="5446.89" cy="-90" rx="254.55" ry="18"/>
<text text-anchor="middle" x="5446.89" y="-86.3" font-family="Times,serif" font-size="14.00">:feature:lmu&#45;windows&#45;readout&#45;vehicle&#45;damage&#45;detail</text>
</g>
<!-- :app:shared&#45;&gt;:feature:lmu&#45;windows&#45;readout&#45;vehicle&#45;damage&#45;detail -->
<g id="edge23" class="edge">
<title>:app:shared&#45;&gt;:feature:lmu&#45;windows&#45;readout&#45;vehicle&#45;damage&#45;detail</title>
<path fill="none" stroke="black" d="M2370.57,-160.91C2683.94,-160.25 4058.5,-154.71 5183.89,-108 5209.94,-106.92 5237.41,-105.48 5264.4,-103.89"/>
<polygon fill="black" stroke="black" points="5264.94,-107.36 5274.71,-103.27 5264.52,-100.38 5264.94,-107.36"/>
</g>
<!-- :feature:gt7&#45;ps5&#45;readout&#45;my&#45;bestlap&#45;detail -->
<g id="node24" class="node">
<title>:feature:gt7&#45;ps5&#45;readout&#45;my&#45;bestlap&#45;detail</title>
<ellipse fill="none" stroke="black" cx="3067.89" cy="-90" rx="207.96" ry="18"/>
<text text-anchor="middle" x="3067.89" y="-86.3" font-family="Times,serif" font-size="14.00">:feature:gt7&#45;ps5&#45;readout&#45;my&#45;bestlap&#45;detail</text>
</g>
<!-- :app:shared&#45;&gt;:feature:gt7&#45;ps5&#45;readout&#45;my&#45;bestlap&#45;detail -->
<g id="edge24" class="edge">
<title>:app:shared&#45;&gt;:feature:gt7&#45;ps5&#45;readout&#45;my&#45;bestlap&#45;detail</title>
<path fill="none" stroke="black" d="M2366.04,-155.39C2485.43,-144.44 2752.52,-119.93 2920.63,-104.51"/>
<polygon fill="black" stroke="black" points="2921.17,-107.98 2930.81,-103.58 2920.53,-101 2921.17,-107.98"/>
</g>
<!-- :core:data&#45;&gt;:core:domain -->
<g id="edge26" class="edge">
<title>:core:data&#45;&gt;:core:domain</title>
<path fill="none" stroke="black" d="M587.15,-149.53C579.13,-147.53 570.78,-145.59 562.89,-144 450.79,-121.46 236.33,-154.13 315.89,-72 343.9,-43.09 1576.94,-24.52 1907.87,-20.05"/>
<polygon fill="black" stroke="black" points="1908.38,-23.54 1918.33,-19.91 1908.29,-16.54 1908.38,-23.54"/>
</g>
<!-- :app:desktopApp -->
<g id="node6" class="node">
<title>:app:desktopApp</title>
<ellipse fill="none" stroke="black" cx="432.89" cy="-234" rx="88.28" ry="18"/>
<text text-anchor="middle" x="432.89" y="-230.3" font-family="Times,serif" font-size="14.00">:app:desktopApp</text>
</g>
<!-- :app:desktopApp&#45;&gt;:server -->
<g id="edge8" class="edge">
<title>:app:desktopApp&#45;&gt;:server</title>
<path fill="none" stroke="black" d="M393.4,-217.81C363.12,-206.16 321.49,-190.15 291.04,-178.44"/>
<polygon fill="black" stroke="black" points="292.17,-175.13 281.58,-174.8 289.66,-181.66 292.17,-175.13"/>
</g>
<!-- :app:desktopApp&#45;&gt;:app:shared -->
<g id="edge4" class="edge">
<title>:app:desktopApp&#45;&gt;:app:shared</title>
<path fill="none" stroke="black" d="M519.12,-229.78C836,-217.93 1933.12,-176.9 2230.21,-165.79"/>
<polygon fill="black" stroke="black" points="2230.57,-169.28 2240.43,-165.41 2230.31,-162.29 2230.57,-169.28"/>
</g>
<!-- :app:desktopApp&#45;&gt;:core:data -->
<g id="edge5" class="edge">
<title>:app:desktopApp&#45;&gt;:core:data</title>
<path fill="none" stroke="black" d="M474.94,-217.98C506.64,-206.66 550.09,-191.14 582.75,-179.48"/>
<polygon fill="black" stroke="black" points="584.27,-182.65 592.51,-175.99 581.92,-176.06 584.27,-182.65"/>
</g>
<!-- :core:lmu&#45;windows&#45;data -->
<g id="node7" class="node">
<title>:core:lmu&#45;windows&#45;data</title>
<ellipse fill="none" stroke="black" cx="432.89" cy="-162" rx="120.78" ry="18"/>
<text text-anchor="middle" x="432.89" y="-158.3" font-family="Times,serif" font-size="14.00">:core:lmu&#45;windows&#45;data</text>
</g>
<!-- :app:desktopApp&#45;&gt;:core:lmu&#45;windows&#45;data -->
<g id="edge6" class="edge">
<title>:app:desktopApp&#45;&gt;:core:lmu&#45;windows&#45;data</title>
<path fill="none" stroke="black" d="M432.89,-215.7C432.89,-207.98 432.89,-198.71 432.89,-190.11"/>
<polygon fill="black" stroke="black" points="436.39,-190.1 432.89,-180.1 429.39,-190.1 436.39,-190.1"/>
</g>
<!-- :core:gt7&#45;ps5&#45;data -->
<g id="node8" class="node">
<title>:core:gt7&#45;ps5&#45;data</title>
<ellipse fill="none" stroke="black" cx="94.89" cy="-162" rx="94.78" ry="18"/>
<text text-anchor="middle" x="94.89" y="-158.3" font-family="Times,serif" font-size="14.00">:core:gt7&#45;ps5&#45;data</text>
</g>
<!-- :app:desktopApp&#45;&gt;:core:gt7&#45;ps5&#45;data -->
<g id="edge7" class="edge">
<title>:app:desktopApp&#45;&gt;:core:gt7&#45;ps5&#45;data</title>
<path fill="none" stroke="black" d="M373.24,-220.65C315.53,-208.69 227.99,-190.56 166.53,-177.84"/>
<polygon fill="black" stroke="black" points="167.02,-174.36 156.51,-175.76 165.6,-181.22 167.02,-174.36"/>
</g>
<!-- :core:lmu&#45;windows&#45;data&#45;&gt;:core:domain -->
<g id="edge28" class="edge">
<title>:core:lmu&#45;windows&#45;data&#45;&gt;:core:domain</title>
<path fill="none" stroke="black" d="M354.18,-148.32C331.26,-140.57 308.7,-128.09 294.89,-108 285.83,-94.81 283.76,-83.49 294.89,-72 323.29,-42.7 1575.09,-24.37 1908.19,-20.01"/>
<polygon fill="black" stroke="black" points="1908.29,-23.51 1918.24,-19.88 1908.2,-16.51 1908.29,-23.51"/>
</g>
<!-- :core:gt7&#45;ps5&#45;data&#45;&gt;:core:domain -->
<g id="edge27" class="edge">
<title>:core:gt7&#45;ps5&#45;data&#45;&gt;:core:domain</title>
<path fill="none" stroke="black" d="M116.86,-144.35C146.55,-122.95 201.99,-86.79 255.89,-72 415.98,-28.08 1587.07,-20.5 1907.85,-19.24"/>
<polygon fill="black" stroke="black" points="1908.01,-22.74 1917.99,-19.2 1907.98,-15.74 1908.01,-22.74"/>
</g>
<!-- :feature:main&#45;&gt;:core:domain -->
<g id="edge41" class="edge">
<title>:feature:main&#45;&gt;:core:domain</title>
<path fill="none" stroke="black" d="M449.48,-77.05C459.83,-75.04 470.67,-73.22 480.89,-72 760.99,-38.63 1637.01,-23.9 1908.11,-20.06"/>
<polygon fill="black" stroke="black" points="1908.31,-23.56 1918.26,-19.92 1908.21,-16.56 1908.31,-23.56"/>
</g>
<!-- :feature:lmu&#45;windows&#45;connection&#45;&gt;:core:domain -->
<g id="edge33" class="edge">
<title>:feature:lmu&#45;windows&#45;connection&#45;&gt;:core:domain</title>
<path fill="none" stroke="black" d="M768.01,-77C787.95,-75.14 808.52,-73.39 827.89,-72 1233.51,-42.95 1720.05,-26.79 1908.69,-21.23"/>
<polygon fill="black" stroke="black" points="1908.91,-24.73 1918.8,-20.93 1908.7,-17.73 1908.91,-24.73"/>
</g>
<!-- :feature:gt7&#45;ps5&#45;connection&#45;&gt;:core:domain -->
<g id="edge29" class="edge">
<title>:feature:gt7&#45;ps5&#45;connection&#45;&gt;:core:domain</title>
<path fill="none" stroke="black" d="M1071.94,-77.1C1088.91,-75.24 1106.4,-73.45 1122.89,-72 1412.22,-46.55 1756.99,-29.37 1909.55,-22.44"/>
<polygon fill="black" stroke="black" points="1909.93,-25.93 1919.76,-21.98 1909.61,-18.93 1909.93,-25.93"/>
</g>
<!-- :feature:server&#45;connection&#45;&gt;:core:domain -->
<g id="edge52" class="edge">
<title>:feature:server&#45;connection&#45;&gt;:core:domain</title>
<path fill="none" stroke="black" d="M1359.85,-77.34C1375.88,-75.48 1392.35,-73.63 1407.89,-72 1588.61,-53.02 1801.36,-34.61 1912.51,-25.3"/>
<polygon fill="black" stroke="black" points="1912.94,-28.77 1922.61,-24.45 1912.36,-21.8 1912.94,-28.77"/>
</g>
<!-- :feature:lmu&#45;windows&#45;narrator&#45;&gt;:core:domain -->
<g id="edge34" class="edge">
<title>:feature:lmu&#45;windows&#45;narrator&#45;&gt;:core:domain</title>
<path fill="none" stroke="black" d="M1654.18,-74.92C1732.81,-61.78 1848.6,-42.44 1921.33,-30.29"/>
<polygon fill="black" stroke="black" points="1922.01,-33.72 1931.29,-28.62 1920.85,-26.82 1922.01,-33.72"/>
</g>
<!-- :core:designsystem -->
<g id="node27" class="node">
<title>:core:designsystem</title>
<ellipse fill="none" stroke="black" cx="4286.89" cy="-18" rx="100.98" ry="18"/>
<text text-anchor="middle" x="4286.89" y="-14.3" font-family="Times,serif" font-size="14.00">:core:designsystem</text>
</g>
<!-- :feature:other&#45;license&#45;detail&#45;&gt;:core:designsystem -->
<g id="edge44" class="edge">
<title>:feature:other&#45;license&#45;detail&#45;&gt;:core:designsystem</title>
<path fill="none" stroke="black" d="M5763.41,-76.9C5745.95,-75.02 5727.9,-73.28 5710.89,-72 5222.07,-35.07 4636.81,-23.56 4397.28,-20.24"/>
<polygon fill="black" stroke="black" points="4397.22,-16.74 4387.17,-20.1 4397.12,-23.74 4397.22,-16.74"/>
</g>
<!-- :feature:other&#45;list&#45;&gt;:core:domain -->
<g id="edge45" class="edge">
<title>:feature:other&#45;list&#45;&gt;:core:domain</title>
<path fill="none" stroke="black" d="M1868.68,-73.29C1891.69,-62.9 1922,-49.21 1946.43,-38.18"/>
<polygon fill="black" stroke="black" points="1948.14,-41.24 1955.82,-33.94 1945.26,-34.86 1948.14,-41.24"/>
</g>
<!-- :feature:other&#45;server&#45;ip&#45;detail&#45;&gt;:core:domain -->
<g id="edge47" class="edge">
<title>:feature:other&#45;server&#45;ip&#45;detail&#45;&gt;:core:domain</title>
<path fill="none" stroke="black" d="M3340.14,-76.95C3321.76,-75.08 3302.78,-73.33 3284.89,-72 2825.54,-37.93 2272.85,-24.47 2069.24,-20.43"/>
<polygon fill="black" stroke="black" points="2069.29,-16.93 2059.23,-20.24 2069.16,-23.93 2069.29,-16.93"/>
</g>
<!-- :feature:other&#45;server&#45;ip&#45;detail&#45;&gt;:core:designsystem -->
<g id="edge48" class="edge">
<title>:feature:other&#45;server&#45;ip&#45;detail&#45;&gt;:core:designsystem</title>
<path fill="none" stroke="black" d="M3548.23,-77.22C3565.81,-75.38 3583.86,-73.57 3600.89,-72 3807.67,-52.89 4049.96,-35.29 4184.18,-25.97"/>
<polygon fill="black" stroke="black" points="4184.71,-29.44 4194.44,-25.26 4184.23,-22.46 4184.71,-29.44"/>
</g>
<!-- :feature:other&#45;gt7&#45;ps5&#45;ip&#45;detail&#45;&gt;:core:domain -->
<g id="edge42" class="edge">
<title>:feature:other&#45;gt7&#45;ps5&#45;ip&#45;detail&#45;&gt;:core:domain</title>
<path fill="none" stroke="black" d="M3658.33,-76.88C3639.23,-75.01 3619.48,-73.27 3600.89,-72 3014.58,-31.84 2306.14,-21.91 2069.91,-19.63"/>
<polygon fill="black" stroke="black" points="2069.72,-16.13 2059.69,-19.53 2069.66,-23.13 2069.72,-16.13"/>
</g>
<!-- :feature:other&#45;gt7&#45;ps5&#45;ip&#45;detail&#45;&gt;:core:designsystem -->
<g id="edge43" class="edge">
<title>:feature:other&#45;gt7&#45;ps5&#45;ip&#45;detail&#45;&gt;:core:designsystem</title>
<path fill="none" stroke="black" d="M3861.04,-76C3957.95,-63.03 4105.49,-43.28 4199.01,-30.76"/>
<polygon fill="black" stroke="black" points="4199.56,-34.22 4209.01,-29.42 4198.63,-27.28 4199.56,-34.22"/>
</g>
<!-- :feature:other&#45;readout&#45;start&#45;sound&#45;detail&#45;&gt;:core:domain -->
<g id="edge46" class="edge">
<title>:feature:other&#45;readout&#45;start&#45;sound&#45;detail&#45;&gt;:core:domain</title>
<path fill="none" stroke="black" d="M2106.77,-72.23C2084.1,-62 2055.03,-48.87 2031.43,-38.21"/>
<polygon fill="black" stroke="black" points="2032.58,-34.89 2022.02,-33.96 2029.7,-41.27 2032.58,-34.89"/>
</g>
<!-- :feature:other&#45;volume&#45;detail&#45;&gt;:core:domain -->
<g id="edge49" class="edge">
<title>:feature:other&#45;volume&#45;detail&#45;&gt;:core:domain</title>
<path fill="none" stroke="black" d="M3980.18,-76.81C3962.47,-74.93 3944.15,-73.21 3926.89,-72 3208.32,-21.55 2336.74,-18.41 2070.19,-18.74"/>
<polygon fill="black" stroke="black" points="2069.83,-15.24 2059.83,-18.75 2069.84,-22.24 2069.83,-15.24"/>
</g>
<!-- :feature:other&#45;volume&#45;detail&#45;&gt;:core:designsystem -->
<g id="edge50" class="edge">
<title>:feature:other&#45;volume&#45;detail&#45;&gt;:core:designsystem</title>
<path fill="none" stroke="black" d="M4124.81,-73.03C4156.65,-62.41 4198.55,-48.45 4231.78,-37.37"/>
<polygon fill="black" stroke="black" points="4232.96,-40.67 4241.34,-34.18 4230.75,-34.03 4232.96,-40.67"/>
</g>
<!-- :feature:readout&#45;list&#45;&gt;:core:domain -->
<g id="edge51" class="edge">
<title>:feature:readout&#45;list&#45;&gt;:core:domain</title>
<path fill="none" stroke="black" d="M2390.22,-77.57C2377.75,-75.7 2364.96,-73.79 2352.89,-72 2250.62,-56.86 2132.14,-39.68 2058.84,-29.08"/>
<polygon fill="black" stroke="black" points="2059.2,-25.6 2048.81,-27.64 2058.2,-32.53 2059.2,-25.6"/>
</g>
<!-- :feature:lmu&#45;windows&#45;readout&#45;vehicle&#45;approach&#45;detail&#45;&gt;:core:domain -->
<g id="edge37" class="edge">
<title>:feature:lmu&#45;windows&#45;readout&#45;vehicle&#45;approach&#45;detail&#45;&gt;:core:domain</title>
<path fill="none" stroke="black" d="M4319.03,-76.81C4288.32,-74.99 4256.69,-73.29 4226.89,-72 3383.63,-35.48 2360.47,-22.78 2069.52,-19.77"/>
<polygon fill="black" stroke="black" points="2069.51,-16.27 2059.48,-19.66 2069.44,-23.27 2069.51,-16.27"/>
</g>
<!-- :feature:lmu&#45;windows&#45;readout&#45;vehicle&#45;approach&#45;detail&#45;&gt;:core:designsystem -->
<g id="edge38" class="edge">
<title>:feature:lmu&#45;windows&#45;readout&#45;vehicle&#45;approach&#45;detail&#45;&gt;:core:designsystem</title>
<path fill="none" stroke="black" d="M4446.86,-72.32C4415.3,-61.8 4374.53,-48.21 4342.04,-37.38"/>
<polygon fill="black" stroke="black" points="4342.84,-33.96 4332.25,-34.12 4340.63,-40.6 4342.84,-33.96"/>
</g>
<!-- :feature:lmu&#45;windows&#45;readout&#45;flag&#45;detail&#45;&gt;:core:domain -->
<g id="edge35" class="edge">
<title>:feature:lmu&#45;windows&#45;readout&#45;flag&#45;detail&#45;&gt;:core:domain</title>
<path fill="none" stroke="black" d="M4839.87,-76.73C4815.59,-74.88 4790.5,-73.19 4766.89,-72 3701.18,-18.34 2403,-17.84 2069.82,-18.7"/>
<polygon fill="black" stroke="black" points="2069.77,-15.2 2059.78,-18.72 2069.79,-22.2 2069.77,-15.2"/>
</g>
<!-- :feature:lmu&#45;windows&#45;readout&#45;flag&#45;detail&#45;&gt;:core:designsystem -->
<g id="edge36" class="edge">
<title>:feature:lmu&#45;windows&#45;readout&#45;flag&#45;detail&#45;&gt;:core:designsystem</title>
<path fill="none" stroke="black" d="M4847.9,-76.08C4713.17,-62.37 4503.38,-41.03 4382.16,-28.69"/>
<polygon fill="black" stroke="black" points="4382.45,-25.2 4372.15,-27.67 4381.74,-32.17 4382.45,-25.2"/>
</g>
<!-- :feature:lmu&#45;windows&#45;readout&#45;vehicle&#45;damage&#45;detail&#45;&gt;:core:domain -->
<g id="edge39" class="edge">
<title>:feature:lmu&#45;windows&#45;readout&#45;vehicle&#45;damage&#45;detail&#45;&gt;:core:domain</title>
<path fill="none" stroke="black" d="M5275.07,-76.7C5244.7,-74.87 5213.38,-73.2 5183.89,-72 3944.46,-21.69 2432.71,-18.83 2069.91,-18.91"/>
<polygon fill="black" stroke="black" points="2069.76,-15.41 2059.76,-18.92 2069.77,-22.41 2069.76,-15.41"/>
</g>
<!-- :feature:lmu&#45;windows&#45;readout&#45;vehicle&#45;damage&#45;detail&#45;&gt;:core:designsystem -->
<g id="edge40" class="edge">
<title>:feature:lmu&#45;windows&#45;readout&#45;vehicle&#45;damage&#45;detail&#45;&gt;:core:designsystem</title>
<path fill="none" stroke="black" d="M5266.87,-77.23C5239.09,-75.45 5210.72,-73.66 5183.89,-72 4897.03,-54.25 4558.48,-34.6 4391.21,-24.98"/>
<polygon fill="black" stroke="black" points="4391.36,-21.48 4381.18,-24.4 4390.96,-28.47 4391.36,-21.48"/>
</g>
<!-- :feature:gt7&#45;ps5&#45;readout&#45;my&#45;bestlap&#45;detail&#45;&gt;:core:domain -->
<g id="edge31" class="edge">
<title>:feature:gt7&#45;ps5&#45;readout&#45;my&#45;bestlap&#45;detail&#45;&gt;:core:domain</title>
<path fill="none" stroke="black" d="M2921.42,-77.19C2897.84,-75.38 2873.7,-73.59 2850.89,-72 2562.31,-51.83 2219.08,-31.96 2067.5,-23.39"/>
<polygon fill="black" stroke="black" points="2067.54,-19.89 2057.36,-22.82 2067.15,-26.88 2067.54,-19.89"/>
</g>
<!-- :feature:gt7&#45;ps5&#45;readout&#45;my&#45;bestlap&#45;detail&#45;&gt;:core:designsystem -->
<g id="edge32" class="edge">
<title>:feature:gt7&#45;ps5&#45;readout&#45;my&#45;bestlap&#45;detail&#45;&gt;:core:designsystem</title>
<path fill="none" stroke="black" d="M3213.18,-77.11C3237.13,-75.29 3261.7,-73.52 3284.89,-72 3610.96,-50.61 3997.15,-32.11 4180.3,-23.75"/>
<polygon fill="black" stroke="black" points="4180.64,-27.24 4190.47,-23.29 4180.32,-20.25 4180.64,-27.24"/>
</g>
<!-- :app:webApp -->
<g id="node25" class="node">
<title>:app:webApp</title>
<ellipse fill="none" stroke="black" cx="2304.89" cy="-234" rx="70.69" ry="18"/>
<text text-anchor="middle" x="2304.89" y="-230.3" font-family="Times,serif" font-size="14.00">:app:webApp</text>
</g>
<!-- :app:webApp&#45;&gt;:app:shared -->
<g id="edge25" class="edge">
<title>:app:webApp&#45;&gt;:app:shared</title>
<path fill="none" stroke="black" d="M2304.89,-215.7C2304.89,-207.98 2304.89,-198.71 2304.89,-190.11"/>
<polygon fill="black" stroke="black" points="2308.39,-190.1 2304.89,-180.1 2301.39,-190.1 2308.39,-190.1"/>
</g>
<!-- :feature:gt7&#45;ps5&#45;narrator -->
<g id="node26" class="node">
<title>:feature:gt7&#45;ps5&#45;narrator</title>
<ellipse fill="none" stroke="black" cx="2714.89" cy="-90" rx="127.28" ry="18"/>
<text text-anchor="middle" x="2714.89" y="-86.3" font-family="Times,serif" font-size="14.00">:feature:gt7&#45;ps5&#45;narrator</text>
</g>
<!-- :feature:gt7&#45;ps5&#45;narrator&#45;&gt;:core:domain -->
<g id="edge30" class="edge">
<title>:feature:gt7&#45;ps5&#45;narrator&#45;&gt;:core:domain</title>
<path fill="none" stroke="black" d="M2624.6,-77.27C2609.35,-75.41 2593.68,-73.59 2578.89,-72 2395.2,-52.27 2178.78,-34.13 2066.02,-25.07"/>
<polygon fill="black" stroke="black" points="2066.02,-21.56 2055.77,-24.25 2065.46,-28.53 2066.02,-21.56"/>
</g>
</g>
</svg>
