<?xml version="1.0" encoding="UTF-8" standalone="no"?>
<!DOCTYPE svg PUBLIC "-//W3C//DTD SVG 1.1//EN"
 "http://www.w3.org/Graphics/SVG/1.1/DTD/svg11.dtd">
<!-- Generated by graphviz version 2.43.0 (0)
 -->
<!-- Title: G Pages: 1 -->
<svg width="2861pt" height="260pt"
 viewBox="0.00 0.00 2860.94 260.00" xmlns="http://www.w3.org/2000/svg" xmlns:xlink="http://www.w3.org/1999/xlink">
<g id="graph0" class="graph" transform="scale(1 1) rotate(0) translate(4 256)">
<title>G</title>
<polygon fill="white" stroke="transparent" points="-4,4 -4,-256 2856.94,-256 2856.94,4 -4,4"/>
<!-- :server -->
<g id="node1" class="node">
<title>:server</title>
<ellipse fill="none" stroke="black" cx="546.21" cy="-90" rx="43.59" ry="18"/>
<text text-anchor="middle" x="546.21" y="-86.3" font-family="Times,serif" font-size="14.00">:server</text>
</g>
<!-- :core:domain -->
<g id="node2" class="node">
<title>:core:domain</title>
<ellipse fill="none" stroke="black" cx="828.21" cy="-18" rx="70.69" ry="18"/>
<text text-anchor="middle" x="828.21" y="-14.3" font-family="Times,serif" font-size="14.00">:core:domain</text>
</g>
<!-- :server&#45;&gt;:core:domain -->
<g id="edge1" class="edge">
<title>:server&#45;&gt;:core:domain</title>
<path fill="none" stroke="black" d="M578.8,-77.85C585.2,-75.8 591.89,-73.76 598.21,-72 654.11,-56.45 718.54,-41.89 764.96,-31.98"/>
<polygon fill="black" stroke="black" points="765.83,-35.37 774.88,-29.87 764.37,-28.53 765.83,-35.37"/>
</g>
<!-- :app:androidApp -->
<g id="node3" class="node">
<title>:app:androidApp</title>
<ellipse fill="none" stroke="black" cx="1011.21" cy="-234" rx="87.18" ry="18"/>
<text text-anchor="middle" x="1011.21" y="-230.3" font-family="Times,serif" font-size="14.00">:app:androidApp</text>
</g>
<!-- :app:shared -->
<g id="node4" class="node">
<title>:app:shared</title>
<ellipse fill="none" stroke="black" cx="1099.21" cy="-162" rx="65.79" ry="18"/>
<text text-anchor="middle" x="1099.21" y="-158.3" font-family="Times,serif" font-size="14.00">:app:shared</text>
</g>
<!-- :app:androidApp&#45;&gt;:app:shared -->
<g id="edge2" class="edge">
<title>:app:androidApp&#45;&gt;:app:shared</title>
<path fill="none" stroke="black" d="M1032.06,-216.41C1043.65,-207.19 1058.24,-195.59 1070.85,-185.55"/>
<polygon fill="black" stroke="black" points="1073.16,-188.19 1078.8,-179.23 1068.8,-182.71 1073.16,-188.19"/>
</g>
<!-- :core:data -->
<g id="node5" class="node">
<title>:core:data</title>
<ellipse fill="none" stroke="black" cx="818.21" cy="-162" rx="57.39" ry="18"/>
<text text-anchor="middle" x="818.21" y="-158.3" font-family="Times,serif" font-size="14.00">:core:data</text>
</g>
<!-- :app:androidApp&#45;&gt;:core:data -->
<g id="edge3" class="edge">
<title>:app:androidApp&#45;&gt;:core:data</title>
<path fill="none" stroke="black" d="M969.8,-217.98C938.69,-206.7 896.07,-191.24 863.95,-179.59"/>
<polygon fill="black" stroke="black" points="864.94,-176.23 854.34,-176.11 862.55,-182.81 864.94,-176.23"/>
</g>
<!-- :feature:lmu&#45;connection -->
<g id="node7" class="node">
<title>:feature:lmu&#45;connection</title>
<ellipse fill="none" stroke="black" cx="364.21" cy="-90" rx="120.78" ry="18"/>
<text text-anchor="middle" x="364.21" y="-86.3" font-family="Times,serif" font-size="14.00">:feature:lmu&#45;connection</text>
</g>
<!-- :app:shared&#45;&gt;:feature:lmu&#45;connection -->
<g id="edge6" class="edge">
<title>:app:shared&#45;&gt;:feature:lmu&#45;connection</title>
<path fill="none" stroke="black" d="M1037.24,-155.93C904.74,-145.03 597.47,-119.42 493.21,-108 482.26,-106.8 470.81,-105.44 459.45,-104.03"/>
<polygon fill="black" stroke="black" points="459.85,-100.55 449.49,-102.78 458.98,-107.5 459.85,-100.55"/>
</g>
<!-- :feature:lmu&#45;narrator -->
<g id="node8" class="node">
<title>:feature:lmu&#45;narrator</title>
<ellipse fill="none" stroke="black" cx="717.21" cy="-90" rx="109.68" ry="18"/>
<text text-anchor="middle" x="717.21" y="-86.3" font-family="Times,serif" font-size="14.00">:feature:lmu&#45;narrator</text>
</g>
<!-- :app:shared&#45;&gt;:feature:lmu&#45;narrator -->
<g id="edge7" class="edge">
<title>:app:shared&#45;&gt;:feature:lmu&#45;narrator</title>
<path fill="none" stroke="black" d="M1046.09,-151.27C981.54,-139.44 872,-119.37 797.22,-105.66"/>
<polygon fill="black" stroke="black" points="797.83,-102.22 787.37,-103.86 796.57,-109.1 797.83,-102.22"/>
</g>
<!-- :feature:other&#45;license&#45;detail -->
<g id="node9" class="node">
<title>:feature:other&#45;license&#45;detail</title>
<ellipse fill="none" stroke="black" cx="2713.21" cy="-90" rx="139.98" ry="18"/>
<text text-anchor="middle" x="2713.21" y="-86.3" font-family="Times,serif" font-size="14.00">:feature:other&#45;license&#45;detail</text>
</g>
<!-- :app:shared&#45;&gt;:feature:other&#45;license&#45;detail -->
<g id="edge8" class="edge">
<title>:app:shared&#45;&gt;:feature:other&#45;license&#45;detail</title>
<path fill="none" stroke="black" d="M1164.65,-160.44C1370.73,-158.28 2024.58,-148.48 2564.21,-108 2577.89,-106.97 2592.26,-105.65 2606.44,-104.19"/>
<polygon fill="black" stroke="black" points="2607.15,-107.64 2616.73,-103.11 2606.42,-100.68 2607.15,-107.64"/>
</g>
<!-- :feature:other&#45;list -->
<g id="node10" class="node">
<title>:feature:other&#45;list</title>
<ellipse fill="none" stroke="black" cx="938.21" cy="-90" rx="92.88" ry="18"/>
<text text-anchor="middle" x="938.21" y="-86.3" font-family="Times,serif" font-size="14.00">:feature:other&#45;list</text>
</g>
<!-- :app:shared&#45;&gt;:feature:other&#45;list -->
<g id="edge9" class="edge">
<title>:app:shared&#45;&gt;:feature:other&#45;list</title>
<path fill="none" stroke="black" d="M1065.85,-146.5C1042.06,-136.15 1009.79,-122.12 983.65,-110.76"/>
<polygon fill="black" stroke="black" points="984.89,-107.48 974.32,-106.7 982.1,-113.9 984.89,-107.48"/>
</g>
<!-- :feature:other&#45;volume&#45;detail -->
<g id="node11" class="node">
<title>:feature:other&#45;volume&#45;detail</title>
<ellipse fill="none" stroke="black" cx="1630.21" cy="-90" rx="141.07" ry="18"/>
<text text-anchor="middle" x="1630.21" y="-86.3" font-family="Times,serif" font-size="14.00">:feature:other&#45;volume&#45;detail</text>
</g>
<!-- :app:shared&#45;&gt;:feature:other&#45;volume&#45;detail -->
<g id="edge10" class="edge">
<title>:app:shared&#45;&gt;:feature:other&#45;volume&#45;detail</title>
<path fill="none" stroke="black" d="M1157.04,-153.38C1245.41,-141.73 1415.36,-119.32 1525.7,-104.78"/>
<polygon fill="black" stroke="black" points="1526.4,-108.21 1535.86,-103.44 1525.49,-101.27 1526.4,-108.21"/>
</g>
<!-- :feature:readout&#45;list -->
<g id="node12" class="node">
<title>:feature:readout&#45;list</title>
<ellipse fill="none" stroke="black" cx="121.21" cy="-90" rx="103.98" ry="18"/>
<text text-anchor="middle" x="121.21" y="-86.3" font-family="Times,serif" font-size="14.00">:feature:readout&#45;list</text>
</g>
<!-- :app:shared&#45;&gt;:feature:readout&#45;list -->
<g id="edge11" class="edge">
<title>:app:shared&#45;&gt;:feature:readout&#45;list</title>
<path fill="none" stroke="black" d="M1037.6,-155.74C994.63,-152.17 935.95,-147.48 884.21,-144 595.53,-124.6 522.02,-137.55 234.21,-108 224.36,-106.99 214.07,-105.73 203.87,-104.35"/>
<polygon fill="black" stroke="black" points="204.11,-100.85 193.72,-102.94 203.14,-107.78 204.11,-100.85"/>
</g>
<!-- :feature:lmu&#45;readout&#45;vehicle&#45;approach&#45;detail -->
<g id="node13" class="node">
<title>:feature:lmu&#45;readout&#45;vehicle&#45;approach&#45;detail</title>
<ellipse fill="none" stroke="black" cx="2007.21" cy="-90" rx="217.96" ry="18"/>
<text text-anchor="middle" x="2007.21" y="-86.3" font-family="Times,serif" font-size="14.00">:feature:lmu&#45;readout&#45;vehicle&#45;approach&#45;detail</text>
</g>
<!-- :app:shared&#45;&gt;:feature:lmu&#45;readout&#45;vehicle&#45;approach&#45;detail -->
<g id="edge12" class="edge">
<title>:app:shared&#45;&gt;:feature:lmu&#45;readout&#45;vehicle&#45;approach&#45;detail</title>
<path fill="none" stroke="black" d="M1161.62,-156.19C1300.7,-145.47 1639.9,-119.32 1843.92,-103.59"/>
<polygon fill="black" stroke="black" points="1844.43,-107.06 1854.13,-102.8 1843.89,-100.08 1844.43,-107.06"/>
</g>
<!-- :feature:lmu&#45;readout&#45;flag&#45;detail -->
<g id="node14" class="node">
<title>:feature:lmu&#45;readout&#45;flag&#45;detail</title>
<ellipse fill="none" stroke="black" cx="2399.21" cy="-90" rx="155.97" ry="18"/>
<text text-anchor="middle" x="2399.21" y="-86.3" font-family="Times,serif" font-size="14.00">:feature:lmu&#45;readout&#45;flag&#45;detail</text>
</g>
<!-- :app:shared&#45;&gt;:feature:lmu&#45;readout&#45;flag&#45;detail -->
<g id="edge13" class="edge">
<title>:app:shared&#45;&gt;:feature:lmu&#45;readout&#45;flag&#45;detail</title>
<path fill="none" stroke="black" d="M1164.22,-159.24C1338.01,-154.26 1827.75,-138.4 2234.21,-108 2249.28,-106.87 2265.11,-105.49 2280.76,-104.01"/>
<polygon fill="black" stroke="black" points="2281.38,-107.47 2291,-103.02 2280.71,-100.5 2281.38,-107.47"/>
</g>
<!-- :feature:lmu&#45;readout&#45;vehicle&#45;damage&#45;detail -->
<g id="node15" class="node">
<title>:feature:lmu&#45;readout&#45;vehicle&#45;damage&#45;detail</title>
<ellipse fill="none" stroke="black" cx="1260.21" cy="-90" rx="211.46" ry="18"/>
<text text-anchor="middle" x="1260.21" y="-86.3" font-family="Times,serif" font-size="14.00">:feature:lmu&#45;readout&#45;vehicle&#45;damage&#45;detail</text>
</g>
<!-- :app:shared&#45;&gt;:feature:lmu&#45;readout&#45;vehicle&#45;damage&#45;detail -->
<g id="edge14" class="edge">
<title>:app:shared&#45;&gt;:feature:lmu&#45;readout&#45;vehicle&#45;damage&#45;detail</title>
<path fill="none" stroke="black" d="M1132.56,-146.5C1155.62,-136.47 1186.63,-122.99 1212.31,-111.82"/>
<polygon fill="black" stroke="black" points="1213.73,-115.02 1221.51,-107.82 1210.94,-108.6 1213.73,-115.02"/>
</g>
<!-- :core:data&#45;&gt;:core:domain -->
<g id="edge16" class="edge">
<title>:core:data&#45;&gt;:core:domain</title>
<path fill="none" stroke="black" d="M761.4,-159.39C581.4,-154.02 33.95,-135.48 8.21,-108 -2.73,-96.32 -2.74,-83.67 8.21,-72 33.26,-45.27 546.13,-27.31 747.78,-21.26"/>
<polygon fill="black" stroke="black" points="748.12,-24.75 758.01,-20.95 747.91,-17.75 748.12,-24.75"/>
</g>
<!-- :app:desktopApp -->
<g id="node6" class="node">
<title>:app:desktopApp</title>
<ellipse fill="none" stroke="black" cx="818.21" cy="-234" rx="88.28" ry="18"/>
<text text-anchor="middle" x="818.21" y="-230.3" font-family="Times,serif" font-size="14.00">:app:desktopApp</text>
</g>
<!-- :app:desktopApp&#45;&gt;:app:shared -->
<g id="edge4" class="edge">
<title>:app:desktopApp&#45;&gt;:app:shared</title>
<path fill="none" stroke="black" d="M871.72,-219.67C920.58,-207.5 992.59,-189.56 1042.45,-177.14"/>
<polygon fill="black" stroke="black" points="1043.56,-180.47 1052.42,-174.65 1041.87,-173.68 1043.56,-180.47"/>
</g>
<!-- :app:desktopApp&#45;&gt;:core:data -->
<g id="edge5" class="edge">
<title>:app:desktopApp&#45;&gt;:core:data</title>
<path fill="none" stroke="black" d="M818.21,-215.7C818.21,-207.98 818.21,-198.71 818.21,-190.11"/>
<polygon fill="black" stroke="black" points="821.71,-190.1 818.21,-180.1 814.71,-190.1 821.71,-190.1"/>
</g>
<!-- :feature:lmu&#45;connection&#45;&gt;:core:domain -->
<g id="edge17" class="edge">
<title>:feature:lmu&#45;connection&#45;&gt;:core:domain</title>
<path fill="none" stroke="black" d="M445.83,-76.69C534.66,-63.29 675.18,-42.09 758.86,-29.46"/>
<polygon fill="black" stroke="black" points="759.41,-32.92 768.78,-27.97 758.37,-26 759.41,-32.92"/>
</g>
<!-- :feature:lmu&#45;narrator&#45;&gt;:core:domain -->
<g id="edge18" class="edge">
<title>:feature:lmu&#45;narrator&#45;&gt;:core:domain</title>
<path fill="none" stroke="black" d="M743.51,-72.41C758.66,-62.86 777.86,-50.75 794.15,-40.48"/>
<polygon fill="black" stroke="black" points="796.26,-43.28 802.85,-34.99 792.53,-37.36 796.26,-43.28"/>
</g>
<!-- :core:designsystem -->
<g id="node17" class="node">
<title>:core:designsystem</title>
<ellipse fill="none" stroke="black" cx="2007.21" cy="-18" rx="100.98" ry="18"/>
<text text-anchor="middle" x="2007.21" y="-14.3" font-family="Times,serif" font-size="14.00">:core:designsystem</text>
</g>
<!-- :feature:other&#45;license&#45;detail&#45;&gt;:core:designsystem -->
<g id="edge25" class="edge">
<title>:feature:other&#45;license&#45;detail&#45;&gt;:core:designsystem</title>
<path fill="none" stroke="black" d="M2613.45,-77.36C2597,-75.51 2580.13,-73.67 2564.21,-72 2403.53,-55.19 2216.55,-37.85 2105.25,-27.77"/>
<polygon fill="black" stroke="black" points="2105.32,-24.26 2095.05,-26.85 2104.69,-31.23 2105.32,-24.26"/>
</g>
<!-- :feature:other&#45;list&#45;&gt;:core:domain -->
<g id="edge26" class="edge">
<title>:feature:other&#45;list&#45;&gt;:core:domain</title>
<path fill="none" stroke="black" d="M912.42,-72.59C897.41,-63.04 878.33,-50.9 862.12,-40.58"/>
<polygon fill="black" stroke="black" points="863.77,-37.48 853.45,-35.07 860.01,-43.39 863.77,-37.48"/>
</g>
<!-- :feature:other&#45;volume&#45;detail&#45;&gt;:core:domain -->
<g id="edge27" class="edge">
<title>:feature:other&#45;volume&#45;detail&#45;&gt;:core:domain</title>
<path fill="none" stroke="black" d="M1530.2,-77.22C1513.52,-75.38 1496.38,-73.57 1480.21,-72 1272.69,-51.81 1027.49,-33.32 905.38,-24.48"/>
<polygon fill="black" stroke="black" points="905.6,-20.98 895.38,-23.75 905.1,-27.97 905.6,-20.98"/>
</g>
<!-- :feature:other&#45;volume&#45;detail&#45;&gt;:core:designsystem -->
<g id="edge28" class="edge">
<title>:feature:other&#45;volume&#45;detail&#45;&gt;:core:designsystem</title>
<path fill="none" stroke="black" d="M1706.5,-74.83C1771.68,-62.73 1865,-45.4 1930.35,-33.27"/>
<polygon fill="black" stroke="black" points="1930.99,-36.71 1940.18,-31.44 1929.71,-29.83 1930.99,-36.71"/>
</g>
<!-- :feature:readout&#45;list&#45;&gt;:core:domain -->
<g id="edge29" class="edge">
<title>:feature:readout&#45;list&#45;&gt;:core:domain</title>
<path fill="none" stroke="black" d="M194.97,-77.25C208.02,-75.35 221.5,-73.52 234.21,-72 419.06,-49.87 637.31,-32.68 750.82,-24.41"/>
<polygon fill="black" stroke="black" points="751.09,-27.9 760.81,-23.68 750.58,-20.92 751.09,-27.9"/>
</g>
<!-- :feature:lmu&#45;readout&#45;vehicle&#45;approach&#45;detail&#45;&gt;:core:domain -->
<g id="edge21" class="edge">
<title>:feature:lmu&#45;readout&#45;vehicle&#45;approach&#45;detail&#45;&gt;:core:domain</title>
<path fill="none" stroke="black" d="M1854.3,-77.15C1829.53,-75.34 1804.16,-73.56 1780.21,-72 1456.53,-50.87 1070.61,-31.04 907.35,-22.89"/>
<polygon fill="black" stroke="black" points="907.09,-19.38 896.93,-22.37 906.74,-26.37 907.09,-19.38"/>
</g>
<!-- :feature:lmu&#45;readout&#45;vehicle&#45;approach&#45;detail&#45;&gt;:core:designsystem -->
<g id="edge22" class="edge">
<title>:feature:lmu&#45;readout&#45;vehicle&#45;approach&#45;detail&#45;&gt;:core:designsystem</title>
<path fill="none" stroke="black" d="M2007.21,-71.7C2007.21,-63.98 2007.21,-54.71 2007.21,-46.11"/>
<polygon fill="black" stroke="black" points="2010.71,-46.1 2007.21,-36.1 2003.71,-46.1 2010.71,-46.1"/>
</g>
<!-- :feature:lmu&#45;readout&#45;flag&#45;detail&#45;&gt;:core:domain -->
<g id="edge19" class="edge">
<title>:feature:lmu&#45;readout&#45;flag&#45;detail&#45;&gt;:core:domain</title>
<path fill="none" stroke="black" d="M2291.9,-76.92C2272.71,-75.05 2252.88,-73.31 2234.21,-72 1731.04,-36.63 1124.82,-23.84 909.16,-20.21"/>
<polygon fill="black" stroke="black" points="908.94,-16.71 898.88,-20.04 908.82,-23.71 908.94,-16.71"/>
</g>
<!-- :feature:lmu&#45;readout&#45;flag&#45;detail&#45;&gt;:core:designsystem -->
<g id="edge20" class="edge">
<title>:feature:lmu&#45;readout&#45;flag&#45;detail&#45;&gt;:core:designsystem</title>
<path fill="none" stroke="black" d="M2318.46,-74.58C2250.35,-62.42 2153.43,-45.11 2085.91,-33.05"/>
<polygon fill="black" stroke="black" points="2086.21,-29.55 2075.75,-31.24 2084.98,-36.44 2086.21,-29.55"/>
</g>
<!-- :feature:lmu&#45;readout&#45;vehicle&#45;damage&#45;detail&#45;&gt;:core:domain -->
<g id="edge23" class="edge">
<title>:feature:lmu&#45;readout&#45;vehicle&#45;damage&#45;detail&#45;&gt;:core:domain</title>
<path fill="none" stroke="black" d="M1166.73,-73.85C1085.34,-60.67 969.26,-41.86 896.37,-30.04"/>
<polygon fill="black" stroke="black" points="896.81,-26.57 886.38,-28.43 895.69,-33.48 896.81,-26.57"/>
</g>
<!-- :feature:lmu&#45;readout&#45;vehicle&#45;damage&#45;detail&#45;&gt;:core:designsystem -->
<g id="edge24" class="edge">
<title>:feature:lmu&#45;readout&#45;vehicle&#45;damage&#45;detail&#45;&gt;:core:designsystem</title>
<path fill="none" stroke="black" d="M1396.78,-76.2C1545.42,-62.27 1779.32,-40.35 1910.22,-28.09"/>
<polygon fill="black" stroke="black" points="1910.61,-31.57 1920.24,-27.15 1909.95,-24.6 1910.61,-31.57"/>
</g>
<!-- :app:webApp -->
<g id="node16" class="node">
<title>:app:webApp</title>
<ellipse fill="none" stroke="black" cx="1187.21" cy="-234" rx="70.69" ry="18"/>
<text text-anchor="middle" x="1187.21" y="-230.3" font-family="Times,serif" font-size="14.00">:app:webApp</text>
</g>
<!-- :app:webApp&#45;&gt;:app:shared -->
<g id="edge15" class="edge">
<title>:app:webApp&#45;&gt;:app:shared</title>
<path fill="none" stroke="black" d="M1166.35,-216.41C1154.76,-207.19 1140.17,-195.59 1127.56,-185.55"/>
<polygon fill="black" stroke="black" points="1129.61,-182.71 1119.61,-179.23 1125.25,-188.19 1129.61,-182.71"/>
</g>
</g>
</svg>
