<?xml version="1.0" encoding="UTF-8" standalone="no"?>
<!DOCTYPE svg PUBLIC "-//W3C//DTD SVG 1.1//EN"
 "http://www.w3.org/Graphics/SVG/1.1/DTD/svg11.dtd">
<!-- Generated by graphviz version 2.43.0 (0)
 -->
<!-- Title: G Pages: 1 -->
<svg width="1267pt" height="260pt"
 viewBox="0.00 0.00 1267.08 260.00" xmlns="http://www.w3.org/2000/svg" xmlns:xlink="http://www.w3.org/1999/xlink">
<g id="graph0" class="graph" transform="scale(1 1) rotate(0) translate(4 256)">
<title>G</title>
<polygon fill="white" stroke="transparent" points="-4,4 -4,-256 1263.08,-256 1263.08,4 -4,4"/>
<!-- :server -->
<g id="node1" class="node">
<title>:server</title>
<ellipse fill="none" stroke="black" cx="1085.69" cy="-90" rx="43.59" ry="18"/>
<text text-anchor="middle" x="1085.69" y="-86.3" font-family="Times,serif" font-size="14.00">:server</text>
</g>
<!-- :core:domain -->
<g id="node2" class="node">
<title>:core:domain</title>
<ellipse fill="none" stroke="black" cx="856.69" cy="-18" rx="70.69" ry="18"/>
<text text-anchor="middle" x="856.69" y="-14.3" font-family="Times,serif" font-size="14.00">:core:domain</text>
</g>
<!-- :server&#45;&gt;:core:domain -->
<g id="edge1" class="edge">
<title>:server&#45;&gt;:core:domain</title>
<path fill="none" stroke="black" d="M1052.35,-78.21C1045.84,-76.13 1039.05,-73.98 1032.69,-72 992.05,-59.37 946,-45.52 911.2,-35.14"/>
<polygon fill="black" stroke="black" points="911.82,-31.68 901.24,-32.18 909.82,-38.38 911.82,-31.68"/>
</g>
<!-- :app:androidApp -->
<g id="node3" class="node">
<title>:app:androidApp</title>
<ellipse fill="none" stroke="black" cx="876.69" cy="-234" rx="87.18" ry="18"/>
<text text-anchor="middle" x="876.69" y="-230.3" font-family="Times,serif" font-size="14.00">:app:androidApp</text>
</g>
<!-- :app:androidApp&#45;&gt;:core:domain -->
<g id="edge3" class="edge">
<title>:app:androidApp&#45;&gt;:core:domain</title>
<path fill="none" stroke="black" d="M937.42,-220.96C1033.25,-199.33 1202.43,-148.84 1138.69,-72 1113.36,-41.47 1010.4,-28.41 936.21,-22.91"/>
<polygon fill="black" stroke="black" points="936.17,-19.39 925.94,-22.18 935.67,-26.38 936.17,-19.39"/>
</g>
<!-- :app:shared -->
<g id="node4" class="node">
<title>:app:shared</title>
<ellipse fill="none" stroke="black" cx="674.69" cy="-162" rx="65.79" ry="18"/>
<text text-anchor="middle" x="674.69" y="-158.3" font-family="Times,serif" font-size="14.00">:app:shared</text>
</g>
<!-- :app:androidApp&#45;&gt;:app:shared -->
<g id="edge2" class="edge">
<title>:app:androidApp&#45;&gt;:app:shared</title>
<path fill="none" stroke="black" d="M833.85,-218.15C801.49,-206.94 757.04,-191.54 723.34,-179.86"/>
<polygon fill="black" stroke="black" points="724.29,-176.49 713.7,-176.52 722,-183.1 724.29,-176.49"/>
</g>
<!-- :feature:narrator -->
<g id="node6" class="node">
<title>:feature:narrator</title>
<ellipse fill="none" stroke="black" cx="442.69" cy="-90" rx="89.08" ry="18"/>
<text text-anchor="middle" x="442.69" y="-86.3" font-family="Times,serif" font-size="14.00">:feature:narrator</text>
</g>
<!-- :app:shared&#45;&gt;:feature:narrator -->
<g id="edge6" class="edge">
<title>:app:shared&#45;&gt;:feature:narrator</title>
<path fill="none" stroke="black" d="M632.13,-148.16C595.03,-136.97 540.9,-120.63 500,-108.29"/>
<polygon fill="black" stroke="black" points="500.75,-104.86 490.16,-105.33 498.73,-111.56 500.75,-104.86"/>
</g>
<!-- :feature:other -->
<g id="node7" class="node">
<title>:feature:other</title>
<ellipse fill="none" stroke="black" cx="624.69" cy="-90" rx="75.29" ry="18"/>
<text text-anchor="middle" x="624.69" y="-86.3" font-family="Times,serif" font-size="14.00">:feature:other</text>
</g>
<!-- :app:shared&#45;&gt;:feature:other -->
<g id="edge7" class="edge">
<title>:app:shared&#45;&gt;:feature:other</title>
<path fill="none" stroke="black" d="M662.58,-144.05C656.56,-135.63 649.17,-125.28 642.52,-115.97"/>
<polygon fill="black" stroke="black" points="645.34,-113.89 636.68,-107.79 639.64,-117.96 645.34,-113.89"/>
</g>
<!-- :feature:readout -->
<g id="node8" class="node">
<title>:feature:readout</title>
<ellipse fill="none" stroke="black" cx="937.69" cy="-90" rx="86.38" ry="18"/>
<text text-anchor="middle" x="937.69" y="-86.3" font-family="Times,serif" font-size="14.00">:feature:readout</text>
</g>
<!-- :app:shared&#45;&gt;:feature:readout -->
<g id="edge8" class="edge">
<title>:app:shared&#45;&gt;:feature:readout</title>
<path fill="none" stroke="black" d="M720.2,-148.89C763.43,-137.38 828.75,-119.99 876.52,-107.28"/>
<polygon fill="black" stroke="black" points="877.67,-110.59 886.44,-104.64 875.87,-103.83 877.67,-110.59"/>
</g>
<!-- :feature:readout&#45;vehicle&#45;approach -->
<g id="node9" class="node">
<title>:feature:readout&#45;vehicle&#45;approach</title>
<ellipse fill="none" stroke="black" cx="167.69" cy="-90" rx="167.87" ry="18"/>
<text text-anchor="middle" x="167.69" y="-86.3" font-family="Times,serif" font-size="14.00">:feature:readout&#45;vehicle&#45;approach</text>
</g>
<!-- :app:shared&#45;&gt;:feature:readout&#45;vehicle&#45;approach -->
<g id="edge9" class="edge">
<title>:app:shared&#45;&gt;:feature:readout&#45;vehicle&#45;approach</title>
<path fill="none" stroke="black" d="M617.51,-153.11C534.97,-141.71 380.88,-120.44 276.31,-106"/>
<polygon fill="black" stroke="black" points="276.73,-102.52 266.35,-104.62 275.78,-109.46 276.73,-102.52"/>
</g>
<!-- :app:desktopApp -->
<g id="node5" class="node">
<title>:app:desktopApp</title>
<ellipse fill="none" stroke="black" cx="1170.69" cy="-234" rx="88.28" ry="18"/>
<text text-anchor="middle" x="1170.69" y="-230.3" font-family="Times,serif" font-size="14.00">:app:desktopApp</text>
</g>
<!-- :app:desktopApp&#45;&gt;:core:domain -->
<g id="edge5" class="edge">
<title>:app:desktopApp&#45;&gt;:core:domain</title>
<path fill="none" stroke="black" d="M1175.46,-215.83C1183.37,-183.25 1194.99,-112.1 1158.69,-72 1129.71,-39.99 1016.19,-27.27 936.91,-22.24"/>
<polygon fill="black" stroke="black" points="936.65,-18.72 926.45,-21.61 936.22,-25.71 936.65,-18.72"/>
</g>
<!-- :app:desktopApp&#45;&gt;:app:shared -->
<g id="edge4" class="edge">
<title>:app:desktopApp&#45;&gt;:app:shared</title>
<path fill="none" stroke="black" d="M1100.15,-223.05C1004.54,-209.55 835.04,-185.63 741.43,-172.42"/>
<polygon fill="black" stroke="black" points="741.9,-168.95 731.51,-171.02 740.92,-175.88 741.9,-168.95"/>
</g>
<!-- :feature:narrator&#45;&gt;:core:domain -->
<g id="edge12" class="edge">
<title>:feature:narrator&#45;&gt;:core:domain</title>
<path fill="none" stroke="black" d="M507.78,-77.66C518.76,-75.76 530.05,-73.81 540.69,-72 626.31,-57.39 725.04,-40.89 789.04,-30.23"/>
<polygon fill="black" stroke="black" points="789.72,-33.67 799.01,-28.57 788.57,-26.76 789.72,-33.67"/>
</g>
<!-- :feature:other&#45;&gt;:core:domain -->
<g id="edge13" class="edge">
<title>:feature:other&#45;&gt;:core:domain</title>
<path fill="none" stroke="black" d="M669.42,-75.5C707.61,-63.98 762.64,-47.38 803.17,-35.15"/>
<polygon fill="black" stroke="black" points="804.31,-38.46 812.88,-32.22 802.29,-31.76 804.31,-38.46"/>
</g>
<!-- :feature:readout&#45;&gt;:core:domain -->
<g id="edge14" class="edge">
<title>:feature:readout&#45;&gt;:core:domain</title>
<path fill="none" stroke="black" d="M918.49,-72.41C908,-63.34 894.84,-51.97 883.37,-42.06"/>
<polygon fill="black" stroke="black" points="885.6,-39.36 875.74,-35.47 881.02,-44.66 885.6,-39.36"/>
</g>
<!-- :feature:readout&#45;vehicle&#45;approach&#45;&gt;:core:domain -->
<g id="edge15" class="edge">
<title>:feature:readout&#45;vehicle&#45;approach&#45;&gt;:core:domain</title>
<path fill="none" stroke="black" d="M284.95,-77.09C427.17,-62.64 662.64,-38.71 782.15,-26.57"/>
<polygon fill="black" stroke="black" points="782.7,-30.03 792.3,-25.54 782,-23.07 782.7,-30.03"/>
</g>
<!-- :core:designsystem -->
<g id="node12" class="node">
<title>:core:designsystem</title>
<ellipse fill="none" stroke="black" cx="167.69" cy="-18" rx="100.98" ry="18"/>
<text text-anchor="middle" x="167.69" y="-14.3" font-family="Times,serif" font-size="14.00">:core:designsystem</text>
</g>
<!-- :feature:readout&#45;vehicle&#45;approach&#45;&gt;:core:designsystem -->
<g id="edge16" class="edge">
<title>:feature:readout&#45;vehicle&#45;approach&#45;&gt;:core:designsystem</title>
<path fill="none" stroke="black" d="M167.69,-71.7C167.69,-63.98 167.69,-54.71 167.69,-46.11"/>
<polygon fill="black" stroke="black" points="171.19,-46.1 167.69,-36.1 164.19,-46.1 171.19,-46.1"/>
</g>
<!-- :app:webApp -->
<g id="node10" class="node">
<title>:app:webApp</title>
<ellipse fill="none" stroke="black" cx="674.69" cy="-234" rx="70.69" ry="18"/>
<text text-anchor="middle" x="674.69" y="-230.3" font-family="Times,serif" font-size="14.00">:app:webApp</text>
</g>
<!-- :app:webApp&#45;&gt;:app:shared -->
<g id="edge10" class="edge">
<title>:app:webApp&#45;&gt;:app:shared</title>
<path fill="none" stroke="black" d="M674.69,-215.7C674.69,-207.98 674.69,-198.71 674.69,-190.11"/>
<polygon fill="black" stroke="black" points="678.19,-190.1 674.69,-180.1 671.19,-190.1 678.19,-190.1"/>
</g>
<!-- :core:data -->
<g id="node11" class="node">
<title>:core:data</title>
<ellipse fill="none" stroke="black" cx="775.69" cy="-90" rx="57.39" ry="18"/>
<text text-anchor="middle" x="775.69" y="-86.3" font-family="Times,serif" font-size="14.00">:core:data</text>
</g>
<!-- :core:data&#45;&gt;:core:domain -->
<g id="edge11" class="edge">
<title>:core:data&#45;&gt;:core:domain</title>
<path fill="none" stroke="black" d="M794.47,-72.76C805.03,-63.64 818.38,-52.1 830,-42.06"/>
<polygon fill="black" stroke="black" points="832.44,-44.58 837.72,-35.39 827.87,-39.28 832.44,-44.58"/>
</g>
</g>
</svg>
