<?xml version="1.0" encoding="UTF-8" standalone="no"?>
<!DOCTYPE svg PUBLIC "-//W3C//DTD SVG 1.1//EN"
 "http://www.w3.org/Graphics/SVG/1.1/DTD/svg11.dtd">
<!-- Generated by graphviz version 2.43.0 (0)
 -->
<!-- Title: G Pages: 1 -->
<svg width="3970pt" height="260pt"
 viewBox="0.00 0.00 3969.72 260.00" xmlns="http://www.w3.org/2000/svg" xmlns:xlink="http://www.w3.org/1999/xlink">
<g id="graph0" class="graph" transform="scale(1 1) rotate(0) translate(4 256)">
<title>G</title>
<polygon fill="white" stroke="transparent" points="-4,4 -4,-256 3965.72,-256 3965.72,4 -4,4"/>
<!-- :server -->
<g id="node1" class="node">
<title>:server</title>
<ellipse fill="none" stroke="black" cx="170.98" cy="-162" rx="43.59" ry="18"/>
<text text-anchor="middle" x="170.98" y="-158.3" font-family="Times,serif" font-size="14.00">:server</text>
</g>
<!-- :core:domain -->
<g id="node2" class="node">
<title>:core:domain</title>
<ellipse fill="none" stroke="black" cx="1244.98" cy="-18" rx="70.69" ry="18"/>
<text text-anchor="middle" x="1244.98" y="-14.3" font-family="Times,serif" font-size="14.00">:core:domain</text>
</g>
<!-- :server&#45;&gt;:core:domain -->
<g id="edge1" class="edge">
<title>:server&#45;&gt;:core:domain</title>
<path fill="none" stroke="black" d="M131.26,-154.11C71.38,-142.14 -30.9,-114.67 9.98,-72 49.92,-30.31 895.68,-21.26 1164.03,-19.43"/>
<polygon fill="black" stroke="black" points="1164.12,-22.93 1174.1,-19.37 1164.07,-15.93 1164.12,-22.93"/>
</g>
<!-- :app:androidApp -->
<g id="node3" class="node">
<title>:app:androidApp</title>
<ellipse fill="none" stroke="black" cx="1076.98" cy="-234" rx="87.18" ry="18"/>
<text text-anchor="middle" x="1076.98" y="-230.3" font-family="Times,serif" font-size="14.00">:app:androidApp</text>
</g>
<!-- :app:shared -->
<g id="node4" class="node">
<title>:app:shared</title>
<ellipse fill="none" stroke="black" cx="1351.98" cy="-162" rx="65.79" ry="18"/>
<text text-anchor="middle" x="1351.98" y="-158.3" font-family="Times,serif" font-size="14.00">:app:shared</text>
</g>
<!-- :app:androidApp&#45;&gt;:app:shared -->
<g id="edge2" class="edge">
<title>:app:androidApp&#45;&gt;:app:shared</title>
<path fill="none" stroke="black" d="M1129.68,-219.59C1177.24,-207.48 1247.02,-189.72 1295.67,-177.33"/>
<polygon fill="black" stroke="black" points="1296.58,-180.71 1305.41,-174.85 1294.85,-173.93 1296.58,-180.71"/>
</g>
<!-- :core:data -->
<g id="node5" class="node">
<title>:core:data</title>
<ellipse fill="none" stroke="black" cx="685.98" cy="-162" rx="57.39" ry="18"/>
<text text-anchor="middle" x="685.98" y="-158.3" font-family="Times,serif" font-size="14.00">:core:data</text>
</g>
<!-- :app:androidApp&#45;&gt;:core:data -->
<g id="edge3" class="edge">
<title>:app:androidApp&#45;&gt;:core:data</title>
<path fill="none" stroke="black" d="M1013.29,-221.6C938.93,-208.29 816.97,-186.45 744.78,-173.53"/>
<polygon fill="black" stroke="black" points="744.96,-170 734.5,-171.69 743.73,-176.89 744.96,-170"/>
</g>
<!-- :feature:main -->
<g id="node7" class="node">
<title>:feature:main</title>
<ellipse fill="none" stroke="black" cx="103.98" cy="-90" rx="73.39" ry="18"/>
<text text-anchor="middle" x="103.98" y="-86.3" font-family="Times,serif" font-size="14.00">:feature:main</text>
</g>
<!-- :app:shared&#45;&gt;:feature:main -->
<g id="edge7" class="edge">
<title>:app:shared&#45;&gt;:feature:main</title>
<path fill="none" stroke="black" d="M1286.67,-159.38C1073.96,-153.88 402.34,-134.79 186.98,-108 180.11,-107.15 172.97,-106.03 165.88,-104.78"/>
<polygon fill="black" stroke="black" points="166.04,-101.25 155.57,-102.87 164.77,-108.14 166.04,-101.25"/>
</g>
<!-- :feature:lmu&#45;windows&#45;connection -->
<g id="node8" class="node">
<title>:feature:lmu&#45;windows&#45;connection</title>
<ellipse fill="none" stroke="black" cx="359.98" cy="-90" rx="164.37" ry="18"/>
<text text-anchor="middle" x="359.98" y="-86.3" font-family="Times,serif" font-size="14.00">:feature:lmu&#45;windows&#45;connection</text>
</g>
<!-- :app:shared&#45;&gt;:feature:lmu&#45;windows&#45;connection -->
<g id="edge8" class="edge">
<title>:app:shared&#45;&gt;:feature:lmu&#45;windows&#45;connection</title>
<path fill="none" stroke="black" d="M1288.29,-157.58C1150.57,-150.04 814.83,-130.81 533.98,-108 518.32,-106.73 501.88,-105.28 485.62,-103.77"/>
<polygon fill="black" stroke="black" points="485.8,-100.27 475.52,-102.82 485.15,-107.24 485.8,-100.27"/>
</g>
<!-- :feature:server&#45;connection -->
<g id="node9" class="node">
<title>:feature:server&#45;connection</title>
<ellipse fill="none" stroke="black" cx="675.98" cy="-90" rx="133.48" ry="18"/>
<text text-anchor="middle" x="675.98" y="-86.3" font-family="Times,serif" font-size="14.00">:feature:server&#45;connection</text>
</g>
<!-- :app:shared&#45;&gt;:feature:server&#45;connection -->
<g id="edge9" class="edge">
<title>:app:shared&#45;&gt;:feature:server&#45;connection</title>
<path fill="none" stroke="black" d="M1290.79,-155.3C1191.64,-145.98 989.76,-126.64 818.98,-108 806.82,-106.67 794.08,-105.23 781.44,-103.77"/>
<polygon fill="black" stroke="black" points="781.67,-100.27 771.33,-102.59 780.86,-107.23 781.67,-100.27"/>
</g>
<!-- :feature:lmu&#45;windows&#45;narrator -->
<g id="node10" class="node">
<title>:feature:lmu&#45;windows&#45;narrator</title>
<ellipse fill="none" stroke="black" cx="980.98" cy="-90" rx="153.27" ry="18"/>
<text text-anchor="middle" x="980.98" y="-86.3" font-family="Times,serif" font-size="14.00">:feature:lmu&#45;windows&#45;narrator</text>
</g>
<!-- :app:shared&#45;&gt;:feature:lmu&#45;windows&#45;narrator -->
<g id="edge10" class="edge">
<title>:app:shared&#45;&gt;:feature:lmu&#45;windows&#45;narrator</title>
<path fill="none" stroke="black" d="M1299.61,-151.12C1239.52,-139.78 1140.03,-121.01 1068.19,-107.46"/>
<polygon fill="black" stroke="black" points="1068.72,-103.99 1058.25,-105.58 1067.43,-110.87 1068.72,-103.99"/>
</g>
<!-- :feature:other&#45;license&#45;detail -->
<g id="node11" class="node">
<title>:feature:other&#45;license&#45;detail</title>
<ellipse fill="none" stroke="black" cx="3821.98" cy="-90" rx="139.98" ry="18"/>
<text text-anchor="middle" x="3821.98" y="-86.3" font-family="Times,serif" font-size="14.00">:feature:other&#45;license&#45;detail</text>
</g>
<!-- :app:shared&#45;&gt;:feature:other&#45;license&#45;detail -->
<g id="edge11" class="edge">
<title>:app:shared&#45;&gt;:feature:other&#45;license&#45;detail</title>
<path fill="none" stroke="black" d="M1417.58,-160.32C1746.43,-156.76 3217.64,-139.35 3673.98,-108 3687.92,-107.04 3702.57,-105.73 3717.01,-104.26"/>
<polygon fill="black" stroke="black" points="3717.38,-107.74 3726.96,-103.22 3716.65,-100.78 3717.38,-107.74"/>
</g>
<!-- :feature:other&#45;list -->
<g id="node12" class="node">
<title>:feature:other&#45;list</title>
<ellipse fill="none" stroke="black" cx="1244.98" cy="-90" rx="92.88" ry="18"/>
<text text-anchor="middle" x="1244.98" y="-86.3" font-family="Times,serif" font-size="14.00">:feature:other&#45;list</text>
</g>
<!-- :app:shared&#45;&gt;:feature:other&#45;list -->
<g id="edge12" class="edge">
<title>:app:shared&#45;&gt;:feature:other&#45;list</title>
<path fill="none" stroke="black" d="M1327.7,-145.12C1313.23,-135.65 1294.66,-123.5 1278.78,-113.11"/>
<polygon fill="black" stroke="black" points="1280.56,-110.1 1270.28,-107.55 1276.73,-115.96 1280.56,-110.1"/>
</g>
<!-- :feature:other&#45;server&#45;ip&#45;detail -->
<g id="node13" class="node">
<title>:feature:other&#45;server&#45;ip&#45;detail</title>
<ellipse fill="none" stroke="black" cx="2675.98" cy="-90" rx="148.67" ry="18"/>
<text text-anchor="middle" x="2675.98" y="-86.3" font-family="Times,serif" font-size="14.00">:feature:other&#45;server&#45;ip&#45;detail</text>
</g>
<!-- :app:shared&#45;&gt;:feature:other&#45;server&#45;ip&#45;detail -->
<g id="edge13" class="edge">
<title>:app:shared&#45;&gt;:feature:other&#45;server&#45;ip&#45;detail</title>
<path fill="none" stroke="black" d="M1417.17,-159.45C1594.29,-154.93 2099.23,-140.01 2517.98,-108 2532.39,-106.9 2547.53,-105.53 2562.48,-104.06"/>
<polygon fill="black" stroke="black" points="2563.2,-107.51 2572.8,-103.03 2562.5,-100.54 2563.2,-107.51"/>
</g>
<!-- :feature:other&#45;volume&#45;detail -->
<g id="node14" class="node">
<title>:feature:other&#45;volume&#45;detail</title>
<ellipse fill="none" stroke="black" cx="2983.98" cy="-90" rx="141.07" ry="18"/>
<text text-anchor="middle" x="2983.98" y="-86.3" font-family="Times,serif" font-size="14.00">:feature:other&#45;volume&#45;detail</text>
</g>
<!-- :app:shared&#45;&gt;:feature:other&#45;volume&#45;detail -->
<g id="edge14" class="edge">
<title>:app:shared&#45;&gt;:feature:other&#45;volume&#45;detail</title>
<path fill="none" stroke="black" d="M1417.45,-160.46C1625.09,-158.35 2287.43,-148.68 2833.98,-108 2847.75,-106.97 2862.21,-105.65 2876.5,-104.19"/>
<polygon fill="black" stroke="black" points="2877.27,-107.63 2886.85,-103.11 2876.54,-100.67 2877.27,-107.63"/>
</g>
<!-- :feature:readout&#45;list -->
<g id="node15" class="node">
<title>:feature:readout&#45;list</title>
<ellipse fill="none" stroke="black" cx="1459.98" cy="-90" rx="103.98" ry="18"/>
<text text-anchor="middle" x="1459.98" y="-86.3" font-family="Times,serif" font-size="14.00">:feature:readout&#45;list</text>
</g>
<!-- :app:shared&#45;&gt;:feature:readout&#45;list -->
<g id="edge15" class="edge">
<title>:app:shared&#45;&gt;:feature:readout&#45;list</title>
<path fill="none" stroke="black" d="M1376.48,-145.12C1391.08,-135.65 1409.83,-123.5 1425.86,-113.11"/>
<polygon fill="black" stroke="black" points="1427.95,-115.93 1434.44,-107.55 1424.15,-110.05 1427.95,-115.93"/>
</g>
<!-- :feature:lmu&#45;windows&#45;readout&#45;vehicle&#45;approach&#45;detail -->
<g id="node16" class="node">
<title>:feature:lmu&#45;windows&#45;readout&#45;vehicle&#45;approach&#45;detail</title>
<ellipse fill="none" stroke="black" cx="3403.98" cy="-90" rx="260.75" ry="18"/>
<text text-anchor="middle" x="3403.98" y="-86.3" font-family="Times,serif" font-size="14.00">:feature:lmu&#45;windows&#45;readout&#45;vehicle&#45;approach&#45;detail</text>
</g>
<!-- :app:shared&#45;&gt;:feature:lmu&#45;windows&#45;readout&#45;vehicle&#45;approach&#45;detail -->
<g id="edge16" class="edge">
<title>:app:shared&#45;&gt;:feature:lmu&#45;windows&#45;readout&#45;vehicle&#45;approach&#45;detail</title>
<path fill="none" stroke="black" d="M1417.54,-159.83C1651.03,-155.52 2463.83,-139.05 3133.98,-108 3160.2,-106.78 3187.84,-105.29 3215.03,-103.7"/>
<polygon fill="black" stroke="black" points="3215.25,-107.19 3225.02,-103.1 3214.83,-100.2 3215.25,-107.19"/>
</g>
<!-- :feature:lmu&#45;windows&#45;readout&#45;flag&#45;detail -->
<g id="node17" class="node">
<title>:feature:lmu&#45;windows&#45;readout&#45;flag&#45;detail</title>
<ellipse fill="none" stroke="black" cx="1781.98" cy="-90" rx="199.56" ry="18"/>
<text text-anchor="middle" x="1781.98" y="-86.3" font-family="Times,serif" font-size="14.00">:feature:lmu&#45;windows&#45;readout&#45;flag&#45;detail</text>
</g>
<!-- :app:shared&#45;&gt;:feature:lmu&#45;windows&#45;readout&#45;flag&#45;detail -->
<g id="edge17" class="edge">
<title>:app:shared&#45;&gt;:feature:lmu&#45;windows&#45;readout&#45;flag&#45;detail</title>
<path fill="none" stroke="black" d="M1406.87,-152.06C1475.48,-140.9 1594.25,-121.56 1679.79,-107.63"/>
<polygon fill="black" stroke="black" points="1680.48,-111.07 1689.79,-106.01 1679.36,-104.16 1680.48,-111.07"/>
</g>
<!-- :feature:lmu&#45;windows&#45;readout&#45;vehicle&#45;damage&#45;detail -->
<g id="node18" class="node">
<title>:feature:lmu&#45;windows&#45;readout&#45;vehicle&#45;damage&#45;detail</title>
<ellipse fill="none" stroke="black" cx="2253.98" cy="-90" rx="254.55" ry="18"/>
<text text-anchor="middle" x="2253.98" y="-86.3" font-family="Times,serif" font-size="14.00">:feature:lmu&#45;windows&#45;readout&#45;vehicle&#45;damage&#45;detail</text>
</g>
<!-- :app:shared&#45;&gt;:feature:lmu&#45;windows&#45;readout&#45;vehicle&#45;damage&#45;detail -->
<g id="edge18" class="edge">
<title>:app:shared&#45;&gt;:feature:lmu&#45;windows&#45;readout&#45;vehicle&#45;damage&#45;detail</title>
<path fill="none" stroke="black" d="M1414.33,-156.16C1549.92,-145.64 1875.71,-120.36 2079.29,-104.56"/>
<polygon fill="black" stroke="black" points="2079.8,-108.03 2089.5,-103.76 2079.26,-101.05 2079.8,-108.03"/>
</g>
<!-- :core:data&#45;&gt;:core:domain -->
<g id="edge20" class="edge">
<title>:core:data&#45;&gt;:core:domain</title>
<path fill="none" stroke="black" d="M629.69,-158.57C473.1,-151.53 42.5,-130.22 21.98,-108 11.12,-96.24 10.91,-83.56 21.98,-72 61.48,-30.75 897.28,-21.4 1163.97,-19.47"/>
<polygon fill="black" stroke="black" points="1164.37,-22.97 1174.35,-19.39 1164.32,-15.97 1164.37,-22.97"/>
</g>
<!-- :app:desktopApp -->
<g id="node6" class="node">
<title>:app:desktopApp</title>
<ellipse fill="none" stroke="black" cx="685.98" cy="-234" rx="88.28" ry="18"/>
<text text-anchor="middle" x="685.98" y="-230.3" font-family="Times,serif" font-size="14.00">:app:desktopApp</text>
</g>
<!-- :app:desktopApp&#45;&gt;:server -->
<g id="edge6" class="edge">
<title>:app:desktopApp&#45;&gt;:server</title>
<path fill="none" stroke="black" d="M614.64,-223.3C509.1,-208.96 313.93,-182.43 221.73,-169.9"/>
<polygon fill="black" stroke="black" points="222.19,-166.43 211.81,-168.55 221.24,-173.36 222.19,-166.43"/>
</g>
<!-- :app:desktopApp&#45;&gt;:app:shared -->
<g id="edge4" class="edge">
<title>:app:desktopApp&#45;&gt;:app:shared</title>
<path fill="none" stroke="black" d="M762.7,-224.94C892.95,-211.25 1155.41,-183.66 1281.38,-170.42"/>
<polygon fill="black" stroke="black" points="1282.09,-173.86 1291.67,-169.34 1281.36,-166.9 1282.09,-173.86"/>
</g>
<!-- :app:desktopApp&#45;&gt;:core:data -->
<g id="edge5" class="edge">
<title>:app:desktopApp&#45;&gt;:core:data</title>
<path fill="none" stroke="black" d="M685.98,-215.7C685.98,-207.98 685.98,-198.71 685.98,-190.11"/>
<polygon fill="black" stroke="black" points="689.48,-190.1 685.98,-180.1 682.48,-190.1 689.48,-190.1"/>
</g>
<!-- :feature:main&#45;&gt;:core:domain -->
<g id="edge29" class="edge">
<title>:feature:main&#45;&gt;:core:domain</title>
<path fill="none" stroke="black" d="M155.58,-77.17C165.93,-75.15 176.76,-73.29 186.98,-72 549.41,-26.08 986.4,-19.51 1164.03,-18.87"/>
<polygon fill="black" stroke="black" points="1164.09,-22.37 1174.08,-18.84 1164.07,-15.37 1164.09,-22.37"/>
</g>
<!-- :feature:lmu&#45;windows&#45;connection&#45;&gt;:core:domain -->
<g id="edge21" class="edge">
<title>:feature:lmu&#45;windows&#45;connection&#45;&gt;:core:domain</title>
<path fill="none" stroke="black" d="M476.47,-77.25C495.68,-75.41 515.38,-73.6 533.98,-72 763.92,-52.2 1036.07,-33.13 1166.97,-24.23"/>
<polygon fill="black" stroke="black" points="1167.55,-27.69 1177.29,-23.53 1167.08,-20.71 1167.55,-27.69"/>
</g>
<!-- :feature:server&#45;connection&#45;&gt;:core:domain -->
<g id="edge37" class="edge">
<title>:feature:server&#45;connection&#45;&gt;:core:domain</title>
<path fill="none" stroke="black" d="M770.9,-77.32C884,-63.41 1070.47,-40.47 1172.59,-27.91"/>
<polygon fill="black" stroke="black" points="1173.31,-31.34 1182.8,-26.65 1172.45,-24.4 1173.31,-31.34"/>
</g>
<!-- :feature:lmu&#45;windows&#45;narrator&#45;&gt;:core:domain -->
<g id="edge22" class="edge">
<title>:feature:lmu&#45;windows&#45;narrator&#45;&gt;:core:domain</title>
<path fill="none" stroke="black" d="M1039.9,-73.38C1084.02,-61.68 1144.06,-45.76 1187.77,-34.17"/>
<polygon fill="black" stroke="black" points="1188.91,-37.49 1197.67,-31.54 1187.11,-30.72 1188.91,-37.49"/>
</g>
<!-- :core:designsystem -->
<g id="node20" class="node">
<title>:core:designsystem</title>
<ellipse fill="none" stroke="black" cx="2829.98" cy="-18" rx="100.98" ry="18"/>
<text text-anchor="middle" x="2829.98" y="-14.3" font-family="Times,serif" font-size="14.00">:core:designsystem</text>
</g>
<!-- :feature:other&#45;license&#45;detail&#45;&gt;:core:designsystem -->
<g id="edge30" class="edge">
<title>:feature:other&#45;license&#45;detail&#45;&gt;:core:designsystem</title>
<path fill="none" stroke="black" d="M3724.53,-77.08C3707.69,-75.23 3690.34,-73.45 3673.98,-72 3409.24,-48.5 3096.88,-31.73 2936.63,-23.93"/>
<polygon fill="black" stroke="black" points="2936.45,-20.42 2926.3,-23.43 2936.12,-27.41 2936.45,-20.42"/>
</g>
<!-- :feature:other&#45;list&#45;&gt;:core:domain -->
<g id="edge31" class="edge">
<title>:feature:other&#45;list&#45;&gt;:core:domain</title>
<path fill="none" stroke="black" d="M1244.98,-71.7C1244.98,-63.98 1244.98,-54.71 1244.98,-46.11"/>
<polygon fill="black" stroke="black" points="1248.48,-46.1 1244.98,-36.1 1241.48,-46.1 1248.48,-46.1"/>
</g>
<!-- :feature:other&#45;server&#45;ip&#45;detail&#45;&gt;:core:domain -->
<g id="edge32" class="edge">
<title>:feature:other&#45;server&#45;ip&#45;detail&#45;&gt;:core:domain</title>
<path fill="none" stroke="black" d="M2573.23,-76.96C2554.85,-75.08 2535.86,-73.33 2517.98,-72 2068.08,-38.47 1527.04,-24.73 1325.65,-20.52"/>
<polygon fill="black" stroke="black" points="1325.52,-17.02 1315.45,-20.31 1325.38,-24.02 1325.52,-17.02"/>
</g>
<!-- :feature:other&#45;server&#45;ip&#45;detail&#45;&gt;:core:designsystem -->
<g id="edge33" class="edge">
<title>:feature:other&#45;server&#45;ip&#45;detail&#45;&gt;:core:designsystem</title>
<path fill="none" stroke="black" d="M2712.47,-72.41C2734.36,-62.46 2762.36,-49.74 2785.53,-39.2"/>
<polygon fill="black" stroke="black" points="2787.15,-42.31 2794.8,-34.99 2784.25,-35.94 2787.15,-42.31"/>
</g>
<!-- :feature:other&#45;volume&#45;detail&#45;&gt;:core:domain -->
<g id="edge34" class="edge">
<title>:feature:other&#45;volume&#45;detail&#45;&gt;:core:domain</title>
<path fill="none" stroke="black" d="M2887.26,-76.89C2869.56,-75.01 2851.23,-73.26 2833.98,-72 2257.23,-29.77 1560.22,-21.16 1326.09,-19.43"/>
<polygon fill="black" stroke="black" points="1325.98,-15.93 1315.96,-19.36 1325.93,-22.93 1325.98,-15.93"/>
</g>
<!-- :feature:other&#45;volume&#45;detail&#45;&gt;:core:designsystem -->
<g id="edge35" class="edge">
<title>:feature:other&#45;volume&#45;detail&#45;&gt;:core:designsystem</title>
<path fill="none" stroke="black" d="M2947.87,-72.59C2925.92,-62.61 2897.71,-49.79 2874.39,-39.19"/>
<polygon fill="black" stroke="black" points="2875.61,-35.9 2865.06,-34.95 2872.72,-42.27 2875.61,-35.9"/>
</g>
<!-- :feature:readout&#45;list&#45;&gt;:core:domain -->
<g id="edge36" class="edge">
<title>:feature:readout&#45;list&#45;&gt;:core:domain</title>
<path fill="none" stroke="black" d="M1413.33,-73.81C1378.89,-62.6 1332.05,-47.35 1296.51,-35.78"/>
<polygon fill="black" stroke="black" points="1297.4,-32.39 1286.81,-32.62 1295.23,-39.04 1297.4,-32.39"/>
</g>
<!-- :feature:lmu&#45;windows&#45;readout&#45;vehicle&#45;approach&#45;detail&#45;&gt;:core:domain -->
<g id="edge25" class="edge">
<title>:feature:lmu&#45;windows&#45;readout&#45;vehicle&#45;approach&#45;detail&#45;&gt;:core:domain</title>
<path fill="none" stroke="black" d="M3225.39,-76.88C3194.9,-75.06 3163.54,-73.34 3133.98,-72 2434.18,-40.16 1587.61,-24.56 1325.94,-20.26"/>
<polygon fill="black" stroke="black" points="1325.83,-16.76 1315.77,-20.1 1325.71,-23.76 1325.83,-16.76"/>
</g>
<!-- :feature:lmu&#45;windows&#45;readout&#45;vehicle&#45;approach&#45;detail&#45;&gt;:core:designsystem -->
<g id="edge26" class="edge">
<title>:feature:lmu&#45;windows&#45;readout&#45;vehicle&#45;approach&#45;detail&#45;&gt;:core:designsystem</title>
<path fill="none" stroke="black" d="M3281.54,-74.07C3173.42,-60.88 3018.24,-41.96 2920.84,-30.08"/>
<polygon fill="black" stroke="black" points="2921.07,-26.58 2910.72,-28.85 2920.22,-33.53 2921.07,-26.58"/>
</g>
<!-- :feature:lmu&#45;windows&#45;readout&#45;flag&#45;detail&#45;&gt;:core:domain -->
<g id="edge23" class="edge">
<title>:feature:lmu&#45;windows&#45;readout&#45;flag&#45;detail&#45;&gt;:core:domain</title>
<path fill="none" stroke="black" d="M1673.63,-74.88C1567.17,-61 1407.78,-40.22 1316.34,-28.3"/>
<polygon fill="black" stroke="black" points="1316.72,-24.82 1306.35,-27 1315.81,-31.76 1316.72,-24.82"/>
</g>
<!-- :feature:lmu&#45;windows&#45;readout&#45;flag&#45;detail&#45;&gt;:core:designsystem -->
<g id="edge24" class="edge">
<title>:feature:lmu&#45;windows&#45;readout&#45;flag&#45;detail&#45;&gt;:core:designsystem</title>
<path fill="none" stroke="black" d="M1922.37,-77.17C1944.97,-75.37 1968.11,-73.58 1989.98,-72 2254.52,-52.85 2566.22,-34.21 2725.21,-24.98"/>
<polygon fill="black" stroke="black" points="2725.68,-28.46 2735.46,-24.39 2725.27,-21.48 2725.68,-28.46"/>
</g>
<!-- :feature:lmu&#45;windows&#45;readout&#45;vehicle&#45;damage&#45;detail&#45;&gt;:core:domain -->
<g id="edge27" class="edge">
<title>:feature:lmu&#45;windows&#45;readout&#45;vehicle&#45;damage&#45;detail&#45;&gt;:core:domain</title>
<path fill="none" stroke="black" d="M2079.38,-76.89C1857.36,-61.48 1483.57,-35.55 1322.58,-24.38"/>
<polygon fill="black" stroke="black" points="1322.5,-20.87 1312.28,-23.67 1322.02,-27.85 1322.5,-20.87"/>
</g>
<!-- :feature:lmu&#45;windows&#45;readout&#45;vehicle&#45;damage&#45;detail&#45;&gt;:core:designsystem -->
<g id="edge28" class="edge">
<title>:feature:lmu&#45;windows&#45;readout&#45;vehicle&#45;damage&#45;detail&#45;&gt;:core:designsystem</title>
<path fill="none" stroke="black" d="M2376.13,-74.15C2484.73,-60.96 2641.06,-41.96 2739,-30.06"/>
<polygon fill="black" stroke="black" points="2739.67,-33.5 2749.18,-28.82 2738.83,-26.55 2739.67,-33.5"/>
</g>
<!-- :app:webApp -->
<g id="node19" class="node">
<title>:app:webApp</title>
<ellipse fill="none" stroke="black" cx="1351.98" cy="-234" rx="70.69" ry="18"/>
<text text-anchor="middle" x="1351.98" y="-230.3" font-family="Times,serif" font-size="14.00">:app:webApp</text>
</g>
<!-- :app:webApp&#45;&gt;:app:shared -->
<g id="edge19" class="edge">
<title>:app:webApp&#45;&gt;:app:shared</title>
<path fill="none" stroke="black" d="M1351.98,-215.7C1351.98,-207.98 1351.98,-198.71 1351.98,-190.11"/>
<polygon fill="black" stroke="black" points="1355.48,-190.1 1351.98,-180.1 1348.48,-190.1 1355.48,-190.1"/>
</g>
</g>
</svg>
