<?xml version="1.0" encoding="UTF-8" standalone="no"?>
<!DOCTYPE svg PUBLIC "-//W3C//DTD SVG 1.1//EN"
 "http://www.w3.org/Graphics/SVG/1.1/DTD/svg11.dtd">
<!-- Generated by graphviz version 2.43.0 (0)
 -->
<!-- Title: G Pages: 1 -->
<svg width="3802pt" height="260pt"
 viewBox="0.00 0.00 3801.97 260.00" xmlns="http://www.w3.org/2000/svg" xmlns:xlink="http://www.w3.org/1999/xlink">
<g id="graph0" class="graph" transform="scale(1 1) rotate(0) translate(4 256)">
<title>G</title>
<polygon fill="white" stroke="transparent" points="-4,4 -4,-256 3797.97,-256 3797.97,4 -4,4"/>
<!-- :server -->
<g id="node1" class="node">
<title>:server</title>
<ellipse fill="none" stroke="black" cx="62.23" cy="-162" rx="43.59" ry="18"/>
<text text-anchor="middle" x="62.23" y="-158.3" font-family="Times,serif" font-size="14.00">:server</text>
</g>
<!-- :core:domain -->
<g id="node2" class="node">
<title>:core:domain</title>
<ellipse fill="none" stroke="black" cx="1091.23" cy="-18" rx="70.69" ry="18"/>
<text text-anchor="middle" x="1091.23" y="-14.3" font-family="Times,serif" font-size="14.00">:core:domain</text>
</g>
<!-- :server&#45;&gt;:core:domain -->
<g id="edge1" class="edge">
<title>:server&#45;&gt;:core:domain</title>
<path fill="none" stroke="black" d="M41.39,-145.85C17.92,-127.02 -14.31,-94.62 7.23,-72 41.72,-35.79 764.68,-23.18 1010.36,-19.94"/>
<polygon fill="black" stroke="black" points="1010.69,-23.44 1020.64,-19.81 1010.6,-16.44 1010.69,-23.44"/>
</g>
<!-- :app:androidApp -->
<g id="node3" class="node">
<title>:app:androidApp</title>
<ellipse fill="none" stroke="black" cx="968.23" cy="-234" rx="87.18" ry="18"/>
<text text-anchor="middle" x="968.23" y="-230.3" font-family="Times,serif" font-size="14.00">:app:androidApp</text>
</g>
<!-- :app:shared -->
<g id="node4" class="node">
<title>:app:shared</title>
<ellipse fill="none" stroke="black" cx="1243.23" cy="-162" rx="65.79" ry="18"/>
<text text-anchor="middle" x="1243.23" y="-158.3" font-family="Times,serif" font-size="14.00">:app:shared</text>
</g>
<!-- :app:androidApp&#45;&gt;:app:shared -->
<g id="edge2" class="edge">
<title>:app:androidApp&#45;&gt;:app:shared</title>
<path fill="none" stroke="black" d="M1020.93,-219.59C1068.49,-207.48 1138.27,-189.72 1186.92,-177.33"/>
<polygon fill="black" stroke="black" points="1187.84,-180.71 1196.66,-174.85 1186.11,-173.93 1187.84,-180.71"/>
</g>
<!-- :core:data -->
<g id="node5" class="node">
<title>:core:data</title>
<ellipse fill="none" stroke="black" cx="577.23" cy="-162" rx="57.39" ry="18"/>
<text text-anchor="middle" x="577.23" y="-158.3" font-family="Times,serif" font-size="14.00">:core:data</text>
</g>
<!-- :app:androidApp&#45;&gt;:core:data -->
<g id="edge3" class="edge">
<title>:app:androidApp&#45;&gt;:core:data</title>
<path fill="none" stroke="black" d="M904.54,-221.6C830.19,-208.29 708.22,-186.45 636.03,-173.53"/>
<polygon fill="black" stroke="black" points="636.22,-170 625.75,-171.69 634.98,-176.89 636.22,-170"/>
</g>
<!-- :feature:lmu&#45;windows&#45;connection -->
<g id="node7" class="node">
<title>:feature:lmu&#45;windows&#45;connection</title>
<ellipse fill="none" stroke="black" cx="622.23" cy="-90" rx="164.37" ry="18"/>
<text text-anchor="middle" x="622.23" y="-86.3" font-family="Times,serif" font-size="14.00">:feature:lmu&#45;windows&#45;connection</text>
</g>
<!-- :app:shared&#45;&gt;:feature:lmu&#45;windows&#45;connection -->
<g id="edge7" class="edge">
<title>:app:shared&#45;&gt;:feature:lmu&#45;windows&#45;connection</title>
<path fill="none" stroke="black" d="M1183.69,-154.29C1082.43,-142.87 874.81,-119.47 742.39,-104.54"/>
<polygon fill="black" stroke="black" points="742.52,-101.04 732.19,-103.4 741.74,-107.99 742.52,-101.04"/>
</g>
<!-- :feature:server&#45;connection -->
<g id="node8" class="node">
<title>:feature:server&#45;connection</title>
<ellipse fill="none" stroke="black" cx="938.23" cy="-90" rx="133.48" ry="18"/>
<text text-anchor="middle" x="938.23" y="-86.3" font-family="Times,serif" font-size="14.00">:feature:server&#45;connection</text>
</g>
<!-- :app:shared&#45;&gt;:feature:server&#45;connection -->
<g id="edge8" class="edge">
<title>:app:shared&#45;&gt;:feature:server&#45;connection</title>
<path fill="none" stroke="black" d="M1194.57,-149.83C1145.54,-138.58 1069.25,-121.07 1012.63,-108.08"/>
<polygon fill="black" stroke="black" points="1013.19,-104.61 1002.66,-105.79 1011.62,-111.43 1013.19,-104.61"/>
</g>
<!-- :feature:lmu&#45;windows&#45;narrator -->
<g id="node9" class="node">
<title>:feature:lmu&#45;windows&#45;narrator</title>
<ellipse fill="none" stroke="black" cx="1243.23" cy="-90" rx="153.27" ry="18"/>
<text text-anchor="middle" x="1243.23" y="-86.3" font-family="Times,serif" font-size="14.00">:feature:lmu&#45;windows&#45;narrator</text>
</g>
<!-- :app:shared&#45;&gt;:feature:lmu&#45;windows&#45;narrator -->
<g id="edge9" class="edge">
<title>:app:shared&#45;&gt;:feature:lmu&#45;windows&#45;narrator</title>
<path fill="none" stroke="black" d="M1243.23,-143.7C1243.23,-135.98 1243.23,-126.71 1243.23,-118.11"/>
<polygon fill="black" stroke="black" points="1246.73,-118.1 1243.23,-108.1 1239.73,-118.1 1246.73,-118.1"/>
</g>
<!-- :feature:other&#45;license&#45;detail -->
<g id="node10" class="node">
<title>:feature:other&#45;license&#45;detail</title>
<ellipse fill="none" stroke="black" cx="3654.23" cy="-90" rx="139.98" ry="18"/>
<text text-anchor="middle" x="3654.23" y="-86.3" font-family="Times,serif" font-size="14.00">:feature:other&#45;license&#45;detail</text>
</g>
<!-- :app:shared&#45;&gt;:feature:other&#45;license&#45;detail -->
<g id="edge10" class="edge">
<title>:app:shared&#45;&gt;:feature:other&#45;license&#45;detail</title>
<path fill="none" stroke="black" d="M1308.74,-160.26C1632.23,-156.51 3061.41,-138.46 3505.23,-108 3519.27,-107.04 3534.01,-105.72 3548.55,-104.25"/>
<polygon fill="black" stroke="black" points="3548.98,-107.72 3558.57,-103.21 3548.26,-100.76 3548.98,-107.72"/>
</g>
<!-- :feature:other&#45;list -->
<g id="node11" class="node">
<title>:feature:other&#45;list</title>
<ellipse fill="none" stroke="black" cx="121.23" cy="-90" rx="92.88" ry="18"/>
<text text-anchor="middle" x="121.23" y="-86.3" font-family="Times,serif" font-size="14.00">:feature:other&#45;list</text>
</g>
<!-- :app:shared&#45;&gt;:feature:other&#45;list -->
<g id="edge11" class="edge">
<title>:app:shared&#45;&gt;:feature:other&#45;list</title>
<path fill="none" stroke="black" d="M1177.69,-160.16C1015.44,-157.54 582.18,-147.11 223.23,-108 214.48,-107.05 205.34,-105.83 196.27,-104.5"/>
<polygon fill="black" stroke="black" points="196.52,-100.99 186.1,-102.94 195.46,-107.91 196.52,-100.99"/>
</g>
<!-- :feature:other&#45;server&#45;ip&#45;detail -->
<g id="node12" class="node">
<title>:feature:other&#45;server&#45;ip&#45;detail</title>
<ellipse fill="none" stroke="black" cx="1563.23" cy="-90" rx="148.67" ry="18"/>
<text text-anchor="middle" x="1563.23" y="-86.3" font-family="Times,serif" font-size="14.00">:feature:other&#45;server&#45;ip&#45;detail</text>
</g>
<!-- :app:shared&#45;&gt;:feature:other&#45;server&#45;ip&#45;detail -->
<g id="edge12" class="edge">
<title>:app:shared&#45;&gt;:feature:other&#45;server&#45;ip&#45;detail</title>
<path fill="none" stroke="black" d="M1292.88,-150.14C1344.18,-138.92 1424.99,-121.24 1484.92,-108.13"/>
<polygon fill="black" stroke="black" points="1485.7,-111.54 1494.72,-105.99 1484.21,-104.7 1485.7,-111.54"/>
</g>
<!-- :feature:other&#45;volume&#45;detail -->
<g id="node13" class="node">
<title>:feature:other&#45;volume&#45;detail</title>
<ellipse fill="none" stroke="black" cx="1871.23" cy="-90" rx="141.07" ry="18"/>
<text text-anchor="middle" x="1871.23" y="-86.3" font-family="Times,serif" font-size="14.00">:feature:other&#45;volume&#45;detail</text>
</g>
<!-- :app:shared&#45;&gt;:feature:other&#45;volume&#45;detail -->
<g id="edge13" class="edge">
<title>:app:shared&#45;&gt;:feature:other&#45;volume&#45;detail</title>
<path fill="none" stroke="black" d="M1302.85,-154.44C1393.31,-144.47 1570.63,-124.88 1721.23,-108 1733.56,-106.62 1746.46,-105.17 1759.3,-103.72"/>
<polygon fill="black" stroke="black" points="1760.03,-107.16 1769.57,-102.56 1759.24,-100.2 1760.03,-107.16"/>
</g>
<!-- :feature:readout&#45;list -->
<g id="node14" class="node">
<title>:feature:readout&#45;list</title>
<ellipse fill="none" stroke="black" cx="336.23" cy="-90" rx="103.98" ry="18"/>
<text text-anchor="middle" x="336.23" y="-86.3" font-family="Times,serif" font-size="14.00">:feature:readout&#45;list</text>
</g>
<!-- :app:shared&#45;&gt;:feature:readout&#45;list -->
<g id="edge14" class="edge">
<title>:app:shared&#45;&gt;:feature:readout&#45;list</title>
<path fill="none" stroke="black" d="M1178.75,-158.5C1043.32,-152.87 719.47,-137.3 449.23,-108 439.47,-106.94 429.26,-105.66 419.13,-104.27"/>
<polygon fill="black" stroke="black" points="419.45,-100.78 409.06,-102.86 418.48,-107.72 419.45,-100.78"/>
</g>
<!-- :feature:lmu&#45;windows&#45;readout&#45;vehicle&#45;approach&#45;detail -->
<g id="node15" class="node">
<title>:feature:lmu&#45;windows&#45;readout&#45;vehicle&#45;approach&#45;detail</title>
<ellipse fill="none" stroke="black" cx="2291.23" cy="-90" rx="260.75" ry="18"/>
<text text-anchor="middle" x="2291.23" y="-86.3" font-family="Times,serif" font-size="14.00">:feature:lmu&#45;windows&#45;readout&#45;vehicle&#45;approach&#45;detail</text>
</g>
<!-- :app:shared&#45;&gt;:feature:lmu&#45;windows&#45;readout&#45;vehicle&#45;approach&#45;detail -->
<g id="edge15" class="edge">
<title>:app:shared&#45;&gt;:feature:lmu&#45;windows&#45;readout&#45;vehicle&#45;approach&#45;detail</title>
<path fill="none" stroke="black" d="M1306.43,-156.78C1460.6,-146.48 1860.89,-119.74 2101.01,-103.71"/>
<polygon fill="black" stroke="black" points="2101.51,-107.18 2111.25,-103.02 2101.04,-100.2 2101.51,-107.18"/>
</g>
<!-- :feature:lmu&#45;windows&#45;readout&#45;flag&#45;detail -->
<g id="node16" class="node">
<title>:feature:lmu&#45;windows&#45;readout&#45;flag&#45;detail</title>
<ellipse fill="none" stroke="black" cx="2769.23" cy="-90" rx="199.56" ry="18"/>
<text text-anchor="middle" x="2769.23" y="-86.3" font-family="Times,serif" font-size="14.00">:feature:lmu&#45;windows&#45;readout&#45;flag&#45;detail</text>
</g>
<!-- :app:shared&#45;&gt;:feature:lmu&#45;windows&#45;readout&#45;flag&#45;detail -->
<g id="edge16" class="edge">
<title>:app:shared&#45;&gt;:feature:lmu&#45;windows&#45;readout&#45;flag&#45;detail</title>
<path fill="none" stroke="black" d="M1308.42,-159.33C1500.45,-154.22 2080.64,-137.29 2561.23,-108 2580.72,-106.81 2601.23,-105.37 2621.45,-103.84"/>
<polygon fill="black" stroke="black" points="2621.97,-107.31 2631.67,-103.05 2621.43,-100.33 2621.97,-107.31"/>
</g>
<!-- :feature:lmu&#45;windows&#45;readout&#45;vehicle&#45;damage&#45;detail -->
<g id="node17" class="node">
<title>:feature:lmu&#45;windows&#45;readout&#45;vehicle&#45;damage&#45;detail</title>
<ellipse fill="none" stroke="black" cx="3241.23" cy="-90" rx="254.55" ry="18"/>
<text text-anchor="middle" x="3241.23" y="-86.3" font-family="Times,serif" font-size="14.00">:feature:lmu&#45;windows&#45;readout&#45;vehicle&#45;damage&#45;detail</text>
</g>
<!-- :app:shared&#45;&gt;:feature:lmu&#45;windows&#45;readout&#45;vehicle&#45;damage&#45;detail -->
<g id="edge17" class="edge">
<title>:app:shared&#45;&gt;:feature:lmu&#45;windows&#45;readout&#45;vehicle&#45;damage&#45;detail</title>
<path fill="none" stroke="black" d="M1308.65,-159.8C1538.05,-155.44 2327.29,-138.97 2978.23,-108 3003.56,-106.79 3030.25,-105.31 3056.52,-103.74"/>
<polygon fill="black" stroke="black" points="3056.79,-107.23 3066.56,-103.13 3056.37,-100.24 3056.79,-107.23"/>
</g>
<!-- :core:data&#45;&gt;:core:domain -->
<g id="edge19" class="edge">
<title>:core:data&#45;&gt;:core:domain</title>
<path fill="none" stroke="black" d="M520.16,-159.84C384.68,-156.48 52.5,-144.58 19.23,-108 8.47,-96.16 8.2,-83.59 19.23,-72 53.29,-36.22 766.63,-23.35 1010.4,-19.99"/>
<polygon fill="black" stroke="black" points="1010.66,-23.48 1020.61,-19.85 1010.57,-16.48 1010.66,-23.48"/>
</g>
<!-- :app:desktopApp -->
<g id="node6" class="node">
<title>:app:desktopApp</title>
<ellipse fill="none" stroke="black" cx="577.23" cy="-234" rx="88.28" ry="18"/>
<text text-anchor="middle" x="577.23" y="-230.3" font-family="Times,serif" font-size="14.00">:app:desktopApp</text>
</g>
<!-- :app:desktopApp&#45;&gt;:server -->
<g id="edge6" class="edge">
<title>:app:desktopApp&#45;&gt;:server</title>
<path fill="none" stroke="black" d="M505.89,-223.3C400.35,-208.96 205.18,-182.43 112.99,-169.9"/>
<polygon fill="black" stroke="black" points="113.44,-166.43 103.06,-168.55 112.5,-173.36 113.44,-166.43"/>
</g>
<!-- :app:desktopApp&#45;&gt;:app:shared -->
<g id="edge4" class="edge">
<title>:app:desktopApp&#45;&gt;:app:shared</title>
<path fill="none" stroke="black" d="M653.96,-224.94C784.2,-211.25 1046.67,-183.66 1172.63,-170.42"/>
<polygon fill="black" stroke="black" points="1173.35,-173.86 1182.93,-169.34 1172.62,-166.9 1173.35,-173.86"/>
</g>
<!-- :app:desktopApp&#45;&gt;:core:data -->
<g id="edge5" class="edge">
<title>:app:desktopApp&#45;&gt;:core:data</title>
<path fill="none" stroke="black" d="M577.23,-215.7C577.23,-207.98 577.23,-198.71 577.23,-190.11"/>
<polygon fill="black" stroke="black" points="580.73,-190.1 577.23,-180.1 573.73,-190.1 580.73,-190.1"/>
</g>
<!-- :feature:lmu&#45;windows&#45;connection&#45;&gt;:core:domain -->
<g id="edge20" class="edge">
<title>:feature:lmu&#45;windows&#45;connection&#45;&gt;:core:domain</title>
<path fill="none" stroke="black" d="M715.17,-75.13C805.44,-61.65 940.44,-41.51 1021.76,-29.37"/>
<polygon fill="black" stroke="black" points="1022.52,-32.79 1031.89,-27.86 1021.48,-25.87 1022.52,-32.79"/>
</g>
<!-- :feature:server&#45;connection&#45;&gt;:core:domain -->
<g id="edge35" class="edge">
<title>:feature:server&#45;connection&#45;&gt;:core:domain</title>
<path fill="none" stroke="black" d="M974.1,-72.59C996.54,-62.32 1025.54,-49.05 1049.07,-38.29"/>
<polygon fill="black" stroke="black" points="1050.82,-41.34 1058.46,-34 1047.91,-34.97 1050.82,-41.34"/>
</g>
<!-- :feature:lmu&#45;windows&#45;narrator&#45;&gt;:core:domain -->
<g id="edge21" class="edge">
<title>:feature:lmu&#45;windows&#45;narrator&#45;&gt;:core:domain</title>
<path fill="none" stroke="black" d="M1207.21,-72.41C1184.99,-62.18 1156.39,-49.01 1133.15,-38.31"/>
<polygon fill="black" stroke="black" points="1134.43,-35.04 1123.89,-34.04 1131.51,-41.4 1134.43,-35.04"/>
</g>
<!-- :core:designsystem -->
<g id="node19" class="node">
<title>:core:designsystem</title>
<ellipse fill="none" stroke="black" cx="2530.23" cy="-18" rx="100.98" ry="18"/>
<text text-anchor="middle" x="2530.23" y="-14.3" font-family="Times,serif" font-size="14.00">:core:designsystem</text>
</g>
<!-- :feature:other&#45;license&#45;detail&#45;&gt;:core:designsystem -->
<g id="edge28" class="edge">
<title>:feature:other&#45;license&#45;detail&#45;&gt;:core:designsystem</title>
<path fill="none" stroke="black" d="M3556.93,-77.06C3539.73,-75.19 3521.97,-73.41 3505.23,-72 3190.85,-45.54 2818.28,-29.54 2638.28,-22.78"/>
<polygon fill="black" stroke="black" points="2638.4,-19.28 2628.28,-22.4 2638.14,-26.28 2638.4,-19.28"/>
</g>
<!-- :feature:other&#45;list&#45;&gt;:core:domain -->
<g id="edge29" class="edge">
<title>:feature:other&#45;list&#45;&gt;:core:domain</title>
<path fill="none" stroke="black" d="M186.39,-77.1C198.6,-75.17 211.28,-73.36 223.23,-72 511.93,-39.22 857.12,-25.77 1010.7,-21.12"/>
<polygon fill="black" stroke="black" points="1011.09,-24.61 1020.98,-20.81 1010.88,-17.61 1011.09,-24.61"/>
</g>
<!-- :feature:other&#45;server&#45;ip&#45;detail&#45;&gt;:core:domain -->
<g id="edge30" class="edge">
<title>:feature:other&#45;server&#45;ip&#45;detail&#45;&gt;:core:domain</title>
<path fill="none" stroke="black" d="M1473.06,-75.63C1382.13,-62.14 1243.7,-41.61 1160.88,-29.33"/>
<polygon fill="black" stroke="black" points="1161.22,-25.84 1150.81,-27.84 1160.19,-32.77 1161.22,-25.84"/>
</g>
<!-- :feature:other&#45;server&#45;ip&#45;detail&#45;&gt;:core:designsystem -->
<g id="edge31" class="edge">
<title>:feature:other&#45;server&#45;ip&#45;detail&#45;&gt;:core:designsystem</title>
<path fill="none" stroke="black" d="M1667.71,-77.14C1685.55,-75.29 1703.92,-73.5 1721.23,-72 1973.11,-50.21 2269.81,-32.9 2424.43,-24.52"/>
<polygon fill="black" stroke="black" points="2425.06,-27.99 2434.86,-23.95 2424.69,-21 2425.06,-27.99"/>
</g>
<!-- :feature:other&#45;volume&#45;detail&#45;&gt;:core:domain -->
<g id="edge32" class="edge">
<title>:feature:other&#45;volume&#45;detail&#45;&gt;:core:domain</title>
<path fill="none" stroke="black" d="M1771.22,-77.26C1754.54,-75.42 1737.4,-73.6 1721.23,-72 1522.22,-52.36 1287.39,-33.83 1168.52,-24.78"/>
<polygon fill="black" stroke="black" points="1168.66,-21.28 1158.42,-24.01 1168.13,-28.26 1168.66,-21.28"/>
</g>
<!-- :feature:other&#45;volume&#45;detail&#45;&gt;:core:designsystem -->
<g id="edge33" class="edge">
<title>:feature:other&#45;volume&#45;detail&#45;&gt;:core:designsystem</title>
<path fill="none" stroke="black" d="M1972.48,-77.4C1988.78,-75.57 2005.47,-73.71 2021.23,-72 2165.48,-56.32 2332.83,-39.07 2435.1,-28.64"/>
<polygon fill="black" stroke="black" points="2435.51,-32.12 2445.1,-27.63 2434.8,-25.16 2435.51,-32.12"/>
</g>
<!-- :feature:readout&#45;list&#45;&gt;:core:domain -->
<g id="edge34" class="edge">
<title>:feature:readout&#45;list&#45;&gt;:core:domain</title>
<path fill="none" stroke="black" d="M409.69,-77.22C422.83,-75.32 436.42,-73.49 449.23,-72 651.89,-48.42 891.74,-31.53 1012.86,-23.77"/>
<polygon fill="black" stroke="black" points="1013.38,-27.25 1023.14,-23.12 1012.94,-20.26 1013.38,-27.25"/>
</g>
<!-- :feature:lmu&#45;windows&#45;readout&#45;vehicle&#45;approach&#45;detail&#45;&gt;:core:domain -->
<g id="edge24" class="edge">
<title>:feature:lmu&#45;windows&#45;readout&#45;vehicle&#45;approach&#45;detail&#45;&gt;:core:domain</title>
<path fill="none" stroke="black" d="M2106.79,-77.24C2078.15,-75.46 2048.89,-73.66 2021.23,-72 1705.9,-53.09 1330.32,-32.18 1170.03,-23.33"/>
<polygon fill="black" stroke="black" points="1169.96,-19.82 1159.79,-22.77 1169.58,-26.81 1169.96,-19.82"/>
</g>
<!-- :feature:lmu&#45;windows&#45;readout&#45;vehicle&#45;approach&#45;detail&#45;&gt;:core:designsystem -->
<g id="edge25" class="edge">
<title>:feature:lmu&#45;windows&#45;readout&#45;vehicle&#45;approach&#45;detail&#45;&gt;:core:designsystem</title>
<path fill="none" stroke="black" d="M2347.87,-72.41C2384.75,-61.61 2432.78,-47.54 2470.3,-36.55"/>
<polygon fill="black" stroke="black" points="2471.47,-39.86 2480.09,-33.69 2469.51,-33.14 2471.47,-39.86"/>
</g>
<!-- :feature:lmu&#45;windows&#45;readout&#45;flag&#45;detail&#45;&gt;:core:domain -->
<g id="edge22" class="edge">
<title>:feature:lmu&#45;windows&#45;readout&#45;flag&#45;detail&#45;&gt;:core:domain</title>
<path fill="none" stroke="black" d="M2632.24,-76.91C2608.57,-75.08 2584.2,-73.35 2561.23,-72 2031.73,-40.83 1393.78,-25.35 1171.91,-20.62"/>
<polygon fill="black" stroke="black" points="1171.74,-17.11 1161.67,-20.4 1171.59,-24.11 1171.74,-17.11"/>
</g>
<!-- :feature:lmu&#45;windows&#45;readout&#45;flag&#45;detail&#45;&gt;:core:designsystem -->
<g id="edge23" class="edge">
<title>:feature:lmu&#45;windows&#45;readout&#45;flag&#45;detail&#45;&gt;:core:designsystem</title>
<path fill="none" stroke="black" d="M2713.5,-72.68C2676.53,-61.85 2628.04,-47.65 2590.22,-36.57"/>
<polygon fill="black" stroke="black" points="2590.94,-33.13 2580.35,-33.68 2588.97,-39.85 2590.94,-33.13"/>
</g>
<!-- :feature:lmu&#45;windows&#45;readout&#45;vehicle&#45;damage&#45;detail&#45;&gt;:core:domain -->
<g id="edge26" class="edge">
<title>:feature:lmu&#45;windows&#45;readout&#45;vehicle&#45;damage&#45;detail&#45;&gt;:core:domain</title>
<path fill="none" stroke="black" d="M3066.92,-76.84C3037.33,-75.03 3006.91,-73.33 2978.23,-72 2279.2,-39.6 1433.51,-24.38 1172.11,-20.22"/>
<polygon fill="black" stroke="black" points="1172,-16.72 1161.95,-20.06 1171.89,-23.71 1172,-16.72"/>
</g>
<!-- :feature:lmu&#45;windows&#45;readout&#45;vehicle&#45;damage&#45;detail&#45;&gt;:core:designsystem -->
<g id="edge27" class="edge">
<title>:feature:lmu&#45;windows&#45;readout&#45;vehicle&#45;damage&#45;detail&#45;&gt;:core:designsystem</title>
<path fill="none" stroke="black" d="M3099.06,-75C2958.64,-61.18 2747.75,-40.41 2626.09,-28.44"/>
<polygon fill="black" stroke="black" points="2626.34,-24.94 2616.04,-27.45 2625.65,-31.91 2626.34,-24.94"/>
</g>
<!-- :app:webApp -->
<g id="node18" class="node">
<title>:app:webApp</title>
<ellipse fill="none" stroke="black" cx="1243.23" cy="-234" rx="70.69" ry="18"/>
<text text-anchor="middle" x="1243.23" y="-230.3" font-family="Times,serif" font-size="14.00">:app:webApp</text>
</g>
<!-- :app:webApp&#45;&gt;:app:shared -->
<g id="edge18" class="edge">
<title>:app:webApp&#45;&gt;:app:shared</title>
<path fill="none" stroke="black" d="M1243.23,-215.7C1243.23,-207.98 1243.23,-198.71 1243.23,-190.11"/>
<polygon fill="black" stroke="black" points="1246.73,-190.1 1243.23,-180.1 1239.73,-190.1 1246.73,-190.1"/>
</g>
</g>
</svg>
