<?xml version="1.0" encoding="UTF-8" standalone="no"?>
<!DOCTYPE svg PUBLIC "-//W3C//DTD SVG 1.1//EN"
 "http://www.w3.org/Graphics/SVG/1.1/DTD/svg11.dtd">
<!-- Generated by graphviz version 2.43.0 (0)
 -->
<!-- Title: G Pages: 1 -->
<svg width="2080pt" height="260pt"
 viewBox="0.00 0.00 2080.31 260.00" xmlns="http://www.w3.org/2000/svg" xmlns:xlink="http://www.w3.org/1999/xlink">
<g id="graph0" class="graph" transform="scale(1 1) rotate(0) translate(4 256)">
<title>G</title>
<polygon fill="white" stroke="transparent" points="-4,4 -4,-256 2076.31,-256 2076.31,4 -4,4"/>
<!-- :server -->
<g id="node1" class="node">
<title>:server</title>
<ellipse fill="none" stroke="black" cx="1987.59" cy="-90" rx="43.59" ry="18"/>
<text text-anchor="middle" x="1987.59" y="-86.3" font-family="Times,serif" font-size="14.00">:server</text>
</g>
<!-- :core:domain -->
<g id="node2" class="node">
<title>:core:domain</title>
<ellipse fill="none" stroke="black" cx="1456.59" cy="-18" rx="70.69" ry="18"/>
<text text-anchor="middle" x="1456.59" y="-14.3" font-family="Times,serif" font-size="14.00">:core:domain</text>
</g>
<!-- :server&#45;&gt;:core:domain -->
<g id="edge1" class="edge">
<title>:server&#45;&gt;:core:domain</title>
<path fill="none" stroke="black" d="M1955.64,-77.62C1948.76,-75.49 1941.49,-73.47 1934.59,-72 1796.13,-42.43 1631.37,-28.78 1535.91,-22.93"/>
<polygon fill="black" stroke="black" points="1535.94,-19.43 1525.75,-22.32 1535.52,-26.42 1535.94,-19.43"/>
</g>
<!-- :app:androidApp -->
<g id="node3" class="node">
<title>:app:androidApp</title>
<ellipse fill="none" stroke="black" cx="1588.59" cy="-234" rx="87.18" ry="18"/>
<text text-anchor="middle" x="1588.59" y="-230.3" font-family="Times,serif" font-size="14.00">:app:androidApp</text>
</g>
<!-- :app:shared -->
<g id="node4" class="node">
<title>:app:shared</title>
<ellipse fill="none" stroke="black" cx="1365.59" cy="-162" rx="65.79" ry="18"/>
<text text-anchor="middle" x="1365.59" y="-158.3" font-family="Times,serif" font-size="14.00">:app:shared</text>
</g>
<!-- :app:androidApp&#45;&gt;:app:shared -->
<g id="edge2" class="edge">
<title>:app:androidApp&#45;&gt;:app:shared</title>
<path fill="none" stroke="black" d="M1542.93,-218.67C1506.31,-207.17 1454.95,-191.05 1416.91,-179.11"/>
<polygon fill="black" stroke="black" points="1417.65,-175.67 1407.06,-176.02 1415.55,-182.35 1417.65,-175.67"/>
</g>
<!-- :core:data -->
<g id="node5" class="node">
<title>:core:data</title>
<ellipse fill="none" stroke="black" cx="1965.59" cy="-162" rx="57.39" ry="18"/>
<text text-anchor="middle" x="1965.59" y="-158.3" font-family="Times,serif" font-size="14.00">:core:data</text>
</g>
<!-- :app:androidApp&#45;&gt;:core:data -->
<g id="edge3" class="edge">
<title>:app:androidApp&#45;&gt;:core:data</title>
<path fill="none" stroke="black" d="M1651.27,-221.36C1722.71,-208.1 1838.53,-186.59 1907.85,-173.72"/>
<polygon fill="black" stroke="black" points="1908.54,-177.15 1917.73,-171.89 1907.26,-170.27 1908.54,-177.15"/>
</g>
<!-- :feature:lmu&#45;connection -->
<g id="node7" class="node">
<title>:feature:lmu&#45;connection</title>
<ellipse fill="none" stroke="black" cx="1046.59" cy="-90" rx="120.78" ry="18"/>
<text text-anchor="middle" x="1046.59" y="-86.3" font-family="Times,serif" font-size="14.00">:feature:lmu&#45;connection</text>
</g>
<!-- :app:shared&#45;&gt;:feature:lmu&#45;connection -->
<g id="edge7" class="edge">
<title>:app:shared&#45;&gt;:feature:lmu&#45;connection</title>
<path fill="none" stroke="black" d="M1316.1,-150.14C1263.96,-138.7 1181.25,-120.55 1121.2,-107.37"/>
<polygon fill="black" stroke="black" points="1121.91,-103.94 1111.39,-105.22 1120.41,-110.78 1121.91,-103.94"/>
</g>
<!-- :feature:narrator -->
<g id="node8" class="node">
<title>:feature:narrator</title>
<ellipse fill="none" stroke="black" cx="1274.59" cy="-90" rx="89.08" ry="18"/>
<text text-anchor="middle" x="1274.59" y="-86.3" font-family="Times,serif" font-size="14.00">:feature:narrator</text>
</g>
<!-- :app:shared&#45;&gt;:feature:narrator -->
<g id="edge8" class="edge">
<title>:app:shared&#45;&gt;:feature:narrator</title>
<path fill="none" stroke="black" d="M1344.48,-144.76C1332.6,-135.62 1317.56,-124.05 1304.47,-113.99"/>
<polygon fill="black" stroke="black" points="1306.27,-110.96 1296.21,-107.63 1302.01,-116.5 1306.27,-110.96"/>
</g>
<!-- :feature:other -->
<g id="node9" class="node">
<title>:feature:other</title>
<ellipse fill="none" stroke="black" cx="1456.59" cy="-90" rx="75.29" ry="18"/>
<text text-anchor="middle" x="1456.59" y="-86.3" font-family="Times,serif" font-size="14.00">:feature:other</text>
</g>
<!-- :app:shared&#45;&gt;:feature:other -->
<g id="edge9" class="edge">
<title>:app:shared&#45;&gt;:feature:other</title>
<path fill="none" stroke="black" d="M1386.7,-144.76C1398.67,-135.55 1413.84,-123.88 1426.99,-113.77"/>
<polygon fill="black" stroke="black" points="1429.49,-116.26 1435.28,-107.39 1425.22,-110.71 1429.49,-116.26"/>
</g>
<!-- :feature:other&#45;list -->
<g id="node10" class="node">
<title>:feature:other&#45;list</title>
<ellipse fill="none" stroke="black" cx="1642.59" cy="-90" rx="92.88" ry="18"/>
<text text-anchor="middle" x="1642.59" y="-86.3" font-family="Times,serif" font-size="14.00">:feature:other&#45;list</text>
</g>
<!-- :app:shared&#45;&gt;:feature:other&#45;list -->
<g id="edge10" class="edge">
<title>:app:shared&#45;&gt;:feature:other&#45;list</title>
<path fill="none" stroke="black" d="M1412.27,-149.2C1457.8,-137.7 1527.43,-120.1 1578.21,-107.27"/>
<polygon fill="black" stroke="black" points="1579.27,-110.61 1588.11,-104.77 1577.55,-103.83 1579.27,-110.61"/>
</g>
<!-- :feature:readout -->
<g id="node11" class="node">
<title>:feature:readout</title>
<ellipse fill="none" stroke="black" cx="1839.59" cy="-90" rx="86.38" ry="18"/>
<text text-anchor="middle" x="1839.59" y="-86.3" font-family="Times,serif" font-size="14.00">:feature:readout</text>
</g>
<!-- :app:shared&#45;&gt;:feature:readout -->
<g id="edge11" class="edge">
<title>:app:shared&#45;&gt;:feature:readout</title>
<path fill="none" stroke="black" d="M1423.8,-153.56C1498.29,-143.88 1631.25,-126.06 1744.59,-108 1751.95,-106.83 1759.63,-105.55 1767.28,-104.24"/>
<polygon fill="black" stroke="black" points="1768.05,-107.65 1777.3,-102.5 1766.85,-100.76 1768.05,-107.65"/>
</g>
<!-- :feature:readout&#45;vehicle&#45;approach -->
<g id="node12" class="node">
<title>:feature:readout&#45;vehicle&#45;approach</title>
<ellipse fill="none" stroke="black" cx="739.59" cy="-90" rx="167.87" ry="18"/>
<text text-anchor="middle" x="739.59" y="-86.3" font-family="Times,serif" font-size="14.00">:feature:readout&#45;vehicle&#45;approach</text>
</g>
<!-- :app:shared&#45;&gt;:feature:readout&#45;vehicle&#45;approach -->
<g id="edge12" class="edge">
<title>:app:shared&#45;&gt;:feature:readout&#45;vehicle&#45;approach</title>
<path fill="none" stroke="black" d="M1306.13,-154.35C1204.48,-142.98 995.33,-119.6 861.56,-104.64"/>
<polygon fill="black" stroke="black" points="861.59,-101.12 851.26,-103.49 860.81,-108.08 861.59,-101.12"/>
</g>
<!-- :feature:readout&#45;flag -->
<g id="node13" class="node">
<title>:feature:readout&#45;flag</title>
<ellipse fill="none" stroke="black" cx="106.59" cy="-90" rx="106.68" ry="18"/>
<text text-anchor="middle" x="106.59" y="-86.3" font-family="Times,serif" font-size="14.00">:feature:readout&#45;flag</text>
</g>
<!-- :app:shared&#45;&gt;:feature:readout&#45;flag -->
<g id="edge13" class="edge">
<title>:app:shared&#45;&gt;:feature:readout&#45;flag</title>
<path fill="none" stroke="black" d="M1300.03,-160.23C1124.81,-157.69 631.17,-147.31 222.59,-108 212.3,-107.01 201.53,-105.74 190.88,-104.35"/>
<polygon fill="black" stroke="black" points="191.09,-100.85 180.72,-102.98 190.16,-107.79 191.09,-100.85"/>
</g>
<!-- :feature:readout&#45;vehicle&#45;damage -->
<g id="node14" class="node">
<title>:feature:readout&#45;vehicle&#45;damage</title>
<ellipse fill="none" stroke="black" cx="392.59" cy="-90" rx="161.37" ry="18"/>
<text text-anchor="middle" x="392.59" y="-86.3" font-family="Times,serif" font-size="14.00">:feature:readout&#45;vehicle&#45;damage</text>
</g>
<!-- :app:shared&#45;&gt;:feature:readout&#45;vehicle&#45;damage -->
<g id="edge14" class="edge">
<title>:app:shared&#45;&gt;:feature:readout&#45;vehicle&#45;damage</title>
<path fill="none" stroke="black" d="M1301.78,-157.52C1165.79,-149.95 837.4,-130.8 562.59,-108 547.56,-106.75 531.79,-105.33 516.17,-103.85"/>
<polygon fill="black" stroke="black" points="516.22,-100.34 505.93,-102.87 515.55,-107.31 516.22,-100.34"/>
</g>
<!-- :core:data&#45;&gt;:core:domain -->
<g id="edge16" class="edge">
<title>:core:data&#45;&gt;:core:domain</title>
<path fill="none" stroke="black" d="M1997.98,-147.05C2013.91,-138.33 2031.57,-125.41 2040.59,-108 2047.95,-93.79 2051.38,-83.81 2040.59,-72 2007.33,-35.58 1689.75,-23.93 1537.38,-20.42"/>
<polygon fill="black" stroke="black" points="1537.22,-16.91 1527.14,-20.19 1537.06,-23.91 1537.22,-16.91"/>
</g>
<!-- :app:desktopApp -->
<g id="node6" class="node">
<title>:app:desktopApp</title>
<ellipse fill="none" stroke="black" cx="1965.59" cy="-234" rx="88.28" ry="18"/>
<text text-anchor="middle" x="1965.59" y="-230.3" font-family="Times,serif" font-size="14.00">:app:desktopApp</text>
</g>
<!-- :app:desktopApp&#45;&gt;:core:domain -->
<g id="edge6" class="edge">
<title>:app:desktopApp&#45;&gt;:core:domain</title>
<path fill="none" stroke="black" d="M1992.34,-216.63C2005.69,-207.31 2021.17,-194.59 2031.59,-180 2060.29,-139.83 2090.93,-108.41 2057.59,-72 2023.13,-34.37 1692.97,-23.32 1537.19,-20.19"/>
<polygon fill="black" stroke="black" points="1537.26,-16.69 1527.19,-19.99 1537.12,-23.69 1537.26,-16.69"/>
</g>
<!-- :app:desktopApp&#45;&gt;:app:shared -->
<g id="edge4" class="edge">
<title>:app:desktopApp&#45;&gt;:app:shared</title>
<path fill="none" stroke="black" d="M1890.81,-224.28C1773.56,-210.6 1548.15,-184.3 1434.58,-171.05"/>
<polygon fill="black" stroke="black" points="1434.95,-167.57 1424.61,-169.89 1434.14,-174.52 1434.95,-167.57"/>
</g>
<!-- :app:desktopApp&#45;&gt;:core:data -->
<g id="edge5" class="edge">
<title>:app:desktopApp&#45;&gt;:core:data</title>
<path fill="none" stroke="black" d="M1965.59,-215.7C1965.59,-207.98 1965.59,-198.71 1965.59,-190.11"/>
<polygon fill="black" stroke="black" points="1969.09,-190.1 1965.59,-180.1 1962.09,-190.1 1969.09,-190.1"/>
</g>
<!-- :feature:lmu&#45;connection&#45;&gt;:core:domain -->
<g id="edge17" class="edge">
<title>:feature:lmu&#45;connection&#45;&gt;:core:domain</title>
<path fill="none" stroke="black" d="M1122.75,-76C1199.39,-62.91 1316.42,-42.93 1389.62,-30.43"/>
<polygon fill="black" stroke="black" points="1390.38,-33.85 1399.65,-28.72 1389.2,-26.95 1390.38,-33.85"/>
</g>
<!-- :feature:narrator&#45;&gt;:core:domain -->
<g id="edge18" class="edge">
<title>:feature:narrator&#45;&gt;:core:domain</title>
<path fill="none" stroke="black" d="M1314.08,-73.81C1342.17,-63.01 1380.01,-48.45 1409.64,-37.06"/>
<polygon fill="black" stroke="black" points="1411.27,-40.18 1419.35,-33.32 1408.76,-33.65 1411.27,-40.18"/>
</g>
<!-- :feature:other&#45;&gt;:core:domain -->
<g id="edge19" class="edge">
<title>:feature:other&#45;&gt;:core:domain</title>
<path fill="none" stroke="black" d="M1456.59,-71.7C1456.59,-63.98 1456.59,-54.71 1456.59,-46.11"/>
<polygon fill="black" stroke="black" points="1460.09,-46.1 1456.59,-36.1 1453.09,-46.1 1460.09,-46.1"/>
</g>
<!-- :feature:other&#45;list&#45;&gt;:core:domain -->
<g id="edge20" class="edge">
<title>:feature:other&#45;list&#45;&gt;:core:domain</title>
<path fill="none" stroke="black" d="M1601.77,-73.64C1572.92,-62.78 1534.16,-48.19 1503.95,-36.82"/>
<polygon fill="black" stroke="black" points="1505.05,-33.5 1494.46,-33.25 1502.59,-40.05 1505.05,-33.5"/>
</g>
<!-- :feature:readout&#45;&gt;:core:domain -->
<g id="edge21" class="edge">
<title>:feature:readout&#45;&gt;:core:domain</title>
<path fill="none" stroke="black" d="M1776.77,-77.52C1706.69,-64.71 1593.8,-44.08 1522.49,-31.04"/>
<polygon fill="black" stroke="black" points="1522.74,-27.53 1512.28,-29.18 1521.48,-34.42 1522.74,-27.53"/>
</g>
<!-- :feature:readout&#45;vehicle&#45;approach&#45;&gt;:core:domain -->
<g id="edge24" class="edge">
<title>:feature:readout&#45;vehicle&#45;approach&#45;&gt;:core:domain</title>
<path fill="none" stroke="black" d="M859.2,-77.32C1007.82,-62.81 1256.97,-38.49 1381.28,-26.35"/>
<polygon fill="black" stroke="black" points="1381.85,-29.81 1391.46,-25.36 1381.17,-22.85 1381.85,-29.81"/>
</g>
<!-- :core:designsystem -->
<g id="node16" class="node">
<title>:core:designsystem</title>
<ellipse fill="none" stroke="black" cx="392.59" cy="-18" rx="100.98" ry="18"/>
<text text-anchor="middle" x="392.59" y="-14.3" font-family="Times,serif" font-size="14.00">:core:designsystem</text>
</g>
<!-- :feature:readout&#45;vehicle&#45;approach&#45;&gt;:core:designsystem -->
<g id="edge25" class="edge">
<title>:feature:readout&#45;vehicle&#45;approach&#45;&gt;:core:designsystem</title>
<path fill="none" stroke="black" d="M664.3,-73.81C605.7,-61.99 524.81,-45.67 466.55,-33.92"/>
<polygon fill="black" stroke="black" points="467.17,-30.47 456.67,-31.93 465.79,-37.34 467.17,-30.47"/>
</g>
<!-- :feature:readout&#45;flag&#45;&gt;:core:domain -->
<g id="edge22" class="edge">
<title>:feature:readout&#45;flag&#45;&gt;:core:domain</title>
<path fill="none" stroke="black" d="M180.71,-76.98C194.6,-75.06 209.01,-73.28 222.59,-72 655.94,-31.05 1177.93,-21.72 1375.52,-19.61"/>
<polygon fill="black" stroke="black" points="1375.85,-23.11 1385.81,-19.5 1375.78,-16.11 1375.85,-23.11"/>
</g>
<!-- :feature:readout&#45;flag&#45;&gt;:core:designsystem -->
<g id="edge23" class="edge">
<title>:feature:readout&#45;flag&#45;&gt;:core:designsystem</title>
<path fill="none" stroke="black" d="M164.47,-74.83C211.19,-63.4 276.99,-47.29 325.92,-35.32"/>
<polygon fill="black" stroke="black" points="326.9,-38.68 335.78,-32.91 325.23,-31.88 326.9,-38.68"/>
</g>
<!-- :feature:readout&#45;vehicle&#45;damage&#45;&gt;:core:domain -->
<g id="edge26" class="edge">
<title>:feature:readout&#45;vehicle&#45;damage&#45;&gt;:core:domain</title>
<path fill="none" stroke="black" d="M505.47,-77.07C524.52,-75.24 544.11,-73.47 562.59,-72 862.96,-48.09 1220.89,-30.01 1377.1,-22.63"/>
<polygon fill="black" stroke="black" points="1377.72,-26.11 1387.54,-22.14 1377.39,-19.11 1377.72,-26.11"/>
</g>
<!-- :feature:readout&#45;vehicle&#45;damage&#45;&gt;:core:designsystem -->
<g id="edge27" class="edge">
<title>:feature:readout&#45;vehicle&#45;damage&#45;&gt;:core:designsystem</title>
<path fill="none" stroke="black" d="M392.59,-71.7C392.59,-63.98 392.59,-54.71 392.59,-46.11"/>
<polygon fill="black" stroke="black" points="396.09,-46.1 392.59,-36.1 389.09,-46.1 396.09,-46.1"/>
</g>
<!-- :app:webApp -->
<g id="node15" class="node">
<title>:app:webApp</title>
<ellipse fill="none" stroke="black" cx="1365.59" cy="-234" rx="70.69" ry="18"/>
<text text-anchor="middle" x="1365.59" y="-230.3" font-family="Times,serif" font-size="14.00">:app:webApp</text>
</g>
<!-- :app:webApp&#45;&gt;:app:shared -->
<g id="edge15" class="edge">
<title>:app:webApp&#45;&gt;:app:shared</title>
<path fill="none" stroke="black" d="M1365.59,-215.7C1365.59,-207.98 1365.59,-198.71 1365.59,-190.11"/>
<polygon fill="black" stroke="black" points="1369.09,-190.1 1365.59,-180.1 1362.09,-190.1 1369.09,-190.1"/>
</g>
</g>
</svg>
