<?xml version="1.0" encoding="UTF-8" standalone="no"?>
<!DOCTYPE svg PUBLIC "-//W3C//DTD SVG 1.1//EN"
 "http://www.w3.org/Graphics/SVG/1.1/DTD/svg11.dtd">
<!-- Generated by graphviz version 2.43.0 (0)
 -->
<!-- Title: G Pages: 1 -->
<svg width="2514pt" height="260pt"
 viewBox="0.00 0.00 2513.87 260.00" xmlns="http://www.w3.org/2000/svg" xmlns:xlink="http://www.w3.org/1999/xlink">
<g id="graph0" class="graph" transform="scale(1 1) rotate(0) translate(4 256)">
<title>G</title>
<polygon fill="white" stroke="transparent" points="-4,4 -4,-256 2509.87,-256 2509.87,4 -4,4"/>
<!-- :server -->
<g id="node1" class="node">
<title>:server</title>
<ellipse fill="none" stroke="black" cx="2422.99" cy="-90" rx="43.59" ry="18"/>
<text text-anchor="middle" x="2422.99" y="-86.3" font-family="Times,serif" font-size="14.00">:server</text>
</g>
<!-- :core:domain -->
<g id="node2" class="node">
<title>:core:domain</title>
<ellipse fill="none" stroke="black" cx="1825.99" cy="-18" rx="70.69" ry="18"/>
<text text-anchor="middle" x="1825.99" y="-14.3" font-family="Times,serif" font-size="14.00">:core:domain</text>
</g>
<!-- :server&#45;&gt;:core:domain -->
<g id="edge1" class="edge">
<title>:server&#45;&gt;:core:domain</title>
<path fill="none" stroke="black" d="M2391.33,-77.63C2384.37,-75.48 2376.99,-73.45 2369.99,-72 2207.27,-38.38 2012.64,-25.96 1905.88,-21.46"/>
<polygon fill="black" stroke="black" points="1905.96,-17.96 1895.82,-21.05 1905.67,-24.96 1905.96,-17.96"/>
</g>
<!-- :app:androidApp -->
<g id="node3" class="node">
<title>:app:androidApp</title>
<ellipse fill="none" stroke="black" cx="1949.99" cy="-234" rx="87.18" ry="18"/>
<text text-anchor="middle" x="1949.99" y="-230.3" font-family="Times,serif" font-size="14.00">:app:androidApp</text>
</g>
<!-- :app:shared -->
<g id="node4" class="node">
<title>:app:shared</title>
<ellipse fill="none" stroke="black" cx="1709.99" cy="-162" rx="65.79" ry="18"/>
<text text-anchor="middle" x="1709.99" y="-158.3" font-family="Times,serif" font-size="14.00">:app:shared</text>
</g>
<!-- :app:androidApp&#45;&gt;:app:shared -->
<g id="edge2" class="edge">
<title>:app:androidApp&#45;&gt;:app:shared</title>
<path fill="none" stroke="black" d="M1901.71,-218.92C1861.54,-207.2 1804.43,-190.55 1763,-178.46"/>
<polygon fill="black" stroke="black" points="1763.93,-175.09 1753.35,-175.65 1761.97,-181.81 1763.93,-175.09"/>
</g>
<!-- :core:data -->
<g id="node5" class="node">
<title>:core:data</title>
<ellipse fill="none" stroke="black" cx="2384.99" cy="-162" rx="57.39" ry="18"/>
<text text-anchor="middle" x="2384.99" y="-158.3" font-family="Times,serif" font-size="14.00">:core:data</text>
</g>
<!-- :app:androidApp&#45;&gt;:core:data -->
<g id="edge3" class="edge">
<title>:app:androidApp&#45;&gt;:core:data</title>
<path fill="none" stroke="black" d="M2016.53,-222.29C2100.75,-208.74 2244.56,-185.6 2325.35,-172.6"/>
<polygon fill="black" stroke="black" points="2326.05,-176.03 2335.37,-170.98 2324.94,-169.12 2326.05,-176.03"/>
</g>
<!-- :feature:lmu&#45;connection -->
<g id="node7" class="node">
<title>:feature:lmu&#45;connection</title>
<ellipse fill="none" stroke="black" cx="1344.99" cy="-90" rx="120.78" ry="18"/>
<text text-anchor="middle" x="1344.99" y="-86.3" font-family="Times,serif" font-size="14.00">:feature:lmu&#45;connection</text>
</g>
<!-- :app:shared&#45;&gt;:feature:lmu&#45;connection -->
<g id="edge7" class="edge">
<title>:app:shared&#45;&gt;:feature:lmu&#45;connection</title>
<path fill="none" stroke="black" d="M1657.69,-150.97C1597.19,-139.37 1496.86,-120.13 1426.19,-106.57"/>
<polygon fill="black" stroke="black" points="1426.47,-103.06 1415.99,-104.62 1425.15,-109.94 1426.47,-103.06"/>
</g>
<!-- :feature:lmu&#45;narrator -->
<g id="node8" class="node">
<title>:feature:lmu&#45;narrator</title>
<ellipse fill="none" stroke="black" cx="1593.99" cy="-90" rx="109.68" ry="18"/>
<text text-anchor="middle" x="1593.99" y="-86.3" font-family="Times,serif" font-size="14.00">:feature:lmu&#45;narrator</text>
</g>
<!-- :app:shared&#45;&gt;:feature:lmu&#45;narrator -->
<g id="edge8" class="edge">
<title>:app:shared&#45;&gt;:feature:lmu&#45;narrator</title>
<path fill="none" stroke="black" d="M1683.95,-145.29C1668.14,-135.75 1647.72,-123.42 1630.33,-112.93"/>
<polygon fill="black" stroke="black" points="1631.92,-109.8 1621.55,-107.63 1628.3,-115.8 1631.92,-109.8"/>
</g>
<!-- :feature:other&#45;detail -->
<g id="node9" class="node">
<title>:feature:other&#45;detail</title>
<ellipse fill="none" stroke="black" cx="1825.99" cy="-90" rx="104.78" ry="18"/>
<text text-anchor="middle" x="1825.99" y="-86.3" font-family="Times,serif" font-size="14.00">:feature:other&#45;detail</text>
</g>
<!-- :app:shared&#45;&gt;:feature:other&#45;detail -->
<g id="edge9" class="edge">
<title>:app:shared&#45;&gt;:feature:other&#45;detail</title>
<path fill="none" stroke="black" d="M1736.02,-145.29C1751.95,-135.68 1772.55,-123.25 1790.02,-112.7"/>
<polygon fill="black" stroke="black" points="1792.08,-115.55 1798.83,-107.39 1788.46,-109.56 1792.08,-115.55"/>
</g>
<!-- :feature:other&#45;list -->
<g id="node10" class="node">
<title>:feature:other&#45;list</title>
<ellipse fill="none" stroke="black" cx="2041.99" cy="-90" rx="92.88" ry="18"/>
<text text-anchor="middle" x="2041.99" y="-86.3" font-family="Times,serif" font-size="14.00">:feature:other&#45;list</text>
</g>
<!-- :app:shared&#45;&gt;:feature:other&#45;list -->
<g id="edge10" class="edge">
<title>:app:shared&#45;&gt;:feature:other&#45;list</title>
<path fill="none" stroke="black" d="M1760.41,-150.37C1816.71,-138.5 1908.24,-119.2 1971.58,-105.84"/>
<polygon fill="black" stroke="black" points="1972.44,-109.24 1981.5,-103.75 1970.99,-102.39 1972.44,-109.24"/>
</g>
<!-- :feature:readout&#45;list -->
<g id="node11" class="node">
<title>:feature:readout&#45;list</title>
<ellipse fill="none" stroke="black" cx="2256.99" cy="-90" rx="103.98" ry="18"/>
<text text-anchor="middle" x="2256.99" y="-86.3" font-family="Times,serif" font-size="14.00">:feature:readout&#45;list</text>
</g>
<!-- :app:shared&#45;&gt;:feature:readout&#45;list -->
<g id="edge11" class="edge">
<title>:app:shared&#45;&gt;:feature:readout&#45;list</title>
<path fill="none" stroke="black" d="M1769.37,-154.28C1853.03,-144.69 2010.3,-126.22 2143.99,-108 2153.18,-106.75 2162.78,-105.39 2172.34,-104"/>
<polygon fill="black" stroke="black" points="2172.88,-107.45 2182.26,-102.54 2171.86,-100.53 2172.88,-107.45"/>
</g>
<!-- :feature:lmu&#45;readout&#45;vehicle&#45;approach&#45;detail -->
<g id="node12" class="node">
<title>:feature:lmu&#45;readout&#45;vehicle&#45;approach&#45;detail</title>
<ellipse fill="none" stroke="black" cx="987.99" cy="-90" rx="217.96" ry="18"/>
<text text-anchor="middle" x="987.99" y="-86.3" font-family="Times,serif" font-size="14.00">:feature:lmu&#45;readout&#45;vehicle&#45;approach&#45;detail</text>
</g>
<!-- :app:shared&#45;&gt;:feature:lmu&#45;readout&#45;vehicle&#45;approach&#45;detail -->
<g id="edge12" class="edge">
<title>:app:shared&#45;&gt;:feature:lmu&#45;readout&#45;vehicle&#45;approach&#45;detail</title>
<path fill="none" stroke="black" d="M1649.05,-155.09C1536.11,-144.14 1291.43,-120.42 1133.51,-105.11"/>
<polygon fill="black" stroke="black" points="1133.52,-101.59 1123.23,-104.11 1132.85,-108.56 1133.52,-101.59"/>
</g>
<!-- :feature:lmu&#45;readout&#45;flag&#45;detail -->
<g id="node13" class="node">
<title>:feature:lmu&#45;readout&#45;flag&#45;detail</title>
<ellipse fill="none" stroke="black" cx="155.99" cy="-90" rx="155.97" ry="18"/>
<text text-anchor="middle" x="155.99" y="-86.3" font-family="Times,serif" font-size="14.00">:feature:lmu&#45;readout&#45;flag&#45;detail</text>
</g>
<!-- :app:shared&#45;&gt;:feature:lmu&#45;readout&#45;flag&#45;detail -->
<g id="edge13" class="edge">
<title>:app:shared&#45;&gt;:feature:lmu&#45;readout&#45;flag&#45;detail</title>
<path fill="none" stroke="black" d="M1644.47,-160C1445.34,-156.64 829.82,-143.88 320.99,-108 305.67,-106.92 289.57,-105.55 273.69,-104.06"/>
<polygon fill="black" stroke="black" points="273.58,-100.54 263.29,-103.07 272.92,-107.51 273.58,-100.54"/>
</g>
<!-- :feature:lmu&#45;readout&#45;vehicle&#45;damage&#45;detail -->
<g id="node14" class="node">
<title>:feature:lmu&#45;readout&#45;vehicle&#45;damage&#45;detail</title>
<ellipse fill="none" stroke="black" cx="540.99" cy="-90" rx="211.46" ry="18"/>
<text text-anchor="middle" x="540.99" y="-86.3" font-family="Times,serif" font-size="14.00">:feature:lmu&#45;readout&#45;vehicle&#45;damage&#45;detail</text>
</g>
<!-- :app:shared&#45;&gt;:feature:lmu&#45;readout&#45;vehicle&#45;damage&#45;detail -->
<g id="edge14" class="edge">
<title>:app:shared&#45;&gt;:feature:lmu&#45;readout&#45;vehicle&#45;damage&#45;detail</title>
<path fill="none" stroke="black" d="M1645.8,-157.89C1492.66,-150.36 1093.78,-130.15 760.99,-108 740.95,-106.67 719.89,-105.17 699.07,-103.62"/>
<polygon fill="black" stroke="black" points="699.11,-100.12 688.88,-102.86 698.59,-107.1 699.11,-100.12"/>
</g>
<!-- :core:data&#45;&gt;:core:domain -->
<g id="edge16" class="edge">
<title>:core:data&#45;&gt;:core:domain</title>
<path fill="none" stroke="black" d="M2424.08,-148.73C2443.33,-140.49 2464.78,-127.5 2475.99,-108 2483.96,-94.13 2486.83,-83.76 2475.99,-72 2438.15,-30.95 2072.74,-21.69 1907.01,-19.61"/>
<polygon fill="black" stroke="black" points="1906.91,-16.11 1896.86,-19.48 1906.82,-23.1 1906.91,-16.11"/>
</g>
<!-- :app:desktopApp -->
<g id="node6" class="node">
<title>:app:desktopApp</title>
<ellipse fill="none" stroke="black" cx="2384.99" cy="-234" rx="88.28" ry="18"/>
<text text-anchor="middle" x="2384.99" y="-230.3" font-family="Times,serif" font-size="14.00">:app:desktopApp</text>
</g>
<!-- :app:desktopApp&#45;&gt;:core:domain -->
<g id="edge6" class="edge">
<title>:app:desktopApp&#45;&gt;:core:domain</title>
<path fill="none" stroke="black" d="M2410.43,-216.51C2454.59,-185.95 2536.72,-119.35 2492.99,-72 2453.95,-29.74 2076,-21.15 1906.98,-19.42"/>
<polygon fill="black" stroke="black" points="1906.92,-15.92 1896.88,-19.32 1906.85,-22.92 1906.92,-15.92"/>
</g>
<!-- :app:desktopApp&#45;&gt;:app:shared -->
<g id="edge4" class="edge">
<title>:app:desktopApp&#45;&gt;:app:shared</title>
<path fill="none" stroke="black" d="M2308.21,-225.04C2176.16,-211.34 1907.96,-183.53 1780.42,-170.3"/>
<polygon fill="black" stroke="black" points="1780.68,-166.81 1770.37,-169.26 1779.96,-173.78 1780.68,-166.81"/>
</g>
<!-- :app:desktopApp&#45;&gt;:core:data -->
<g id="edge5" class="edge">
<title>:app:desktopApp&#45;&gt;:core:data</title>
<path fill="none" stroke="black" d="M2384.99,-215.7C2384.99,-207.98 2384.99,-198.71 2384.99,-190.11"/>
<polygon fill="black" stroke="black" points="2388.49,-190.1 2384.99,-180.1 2381.49,-190.1 2388.49,-190.1"/>
</g>
<!-- :feature:lmu&#45;connection&#45;&gt;:core:domain -->
<g id="edge17" class="edge">
<title>:feature:lmu&#45;connection&#45;&gt;:core:domain</title>
<path fill="none" stroke="black" d="M1428.22,-76.89C1520.94,-63.39 1669.21,-41.82 1756.13,-29.17"/>
<polygon fill="black" stroke="black" points="1756.77,-32.61 1766.16,-27.71 1755.76,-25.68 1756.77,-32.61"/>
</g>
<!-- :feature:lmu&#45;narrator&#45;&gt;:core:domain -->
<g id="edge18" class="edge">
<title>:feature:lmu&#45;narrator&#45;&gt;:core:domain</title>
<path fill="none" stroke="black" d="M1644.04,-73.9C1681.83,-62.5 1733.59,-46.88 1772.24,-35.22"/>
<polygon fill="black" stroke="black" points="1773.71,-38.43 1782.27,-32.19 1771.69,-31.73 1773.71,-38.43"/>
</g>
<!-- :feature:other&#45;detail&#45;&gt;:core:domain -->
<g id="edge25" class="edge">
<title>:feature:other&#45;detail&#45;&gt;:core:domain</title>
<path fill="none" stroke="black" d="M1825.99,-71.7C1825.99,-63.98 1825.99,-54.71 1825.99,-46.11"/>
<polygon fill="black" stroke="black" points="1829.49,-46.1 1825.99,-36.1 1822.49,-46.1 1829.49,-46.1"/>
</g>
<!-- :feature:other&#45;list&#45;&gt;:core:domain -->
<g id="edge26" class="edge">
<title>:feature:other&#45;list&#45;&gt;:core:domain</title>
<path fill="none" stroke="black" d="M1996.44,-74.24C1961.71,-62.98 1913.85,-47.47 1877.68,-35.75"/>
<polygon fill="black" stroke="black" points="1878.4,-32.31 1867.81,-32.55 1876.24,-38.97 1878.4,-32.31"/>
</g>
<!-- :feature:readout&#45;list&#45;&gt;:core:domain -->
<g id="edge27" class="edge">
<title>:feature:readout&#45;list&#45;&gt;:core:domain</title>
<path fill="none" stroke="black" d="M2183.87,-77.13C2102.85,-63.97 1973.23,-42.91 1894.22,-30.08"/>
<polygon fill="black" stroke="black" points="1894.33,-26.55 1883.89,-28.41 1893.2,-33.46 1894.33,-26.55"/>
</g>
<!-- :feature:lmu&#45;readout&#45;vehicle&#45;approach&#45;detail&#45;&gt;:core:domain -->
<g id="edge21" class="edge">
<title>:feature:lmu&#45;readout&#45;vehicle&#45;approach&#45;detail&#45;&gt;:core:domain</title>
<path fill="none" stroke="black" d="M1135.39,-76.69C1314.77,-61.7 1610.83,-36.97 1749.66,-25.38"/>
<polygon fill="black" stroke="black" points="1750.11,-28.85 1759.79,-24.53 1749.53,-21.87 1750.11,-28.85"/>
</g>
<!-- :core:designsystem -->
<g id="node16" class="node">
<title>:core:designsystem</title>
<ellipse fill="none" stroke="black" cx="540.99" cy="-18" rx="100.98" ry="18"/>
<text text-anchor="middle" x="540.99" y="-14.3" font-family="Times,serif" font-size="14.00">:core:designsystem</text>
</g>
<!-- :feature:lmu&#45;readout&#45;vehicle&#45;approach&#45;detail&#45;&gt;:core:designsystem -->
<g id="edge22" class="edge">
<title>:feature:lmu&#45;readout&#45;vehicle&#45;approach&#45;detail&#45;&gt;:core:designsystem</title>
<path fill="none" stroke="black" d="M891.27,-73.85C811.55,-61.37 699.66,-43.85 623.96,-31.99"/>
<polygon fill="black" stroke="black" points="624.42,-28.52 613.99,-30.43 623.33,-35.44 624.42,-28.52"/>
</g>
<!-- :feature:lmu&#45;readout&#45;flag&#45;detail&#45;&gt;:core:domain -->
<g id="edge19" class="edge">
<title>:feature:lmu&#45;readout&#45;flag&#45;detail&#45;&gt;:core:domain</title>
<path fill="none" stroke="black" d="M263.29,-76.88C282.48,-75.02 302.31,-73.29 320.99,-72 864.28,-34.49 1519.84,-22.93 1745.29,-19.93"/>
<polygon fill="black" stroke="black" points="1745.42,-23.43 1755.38,-19.8 1745.33,-16.43 1745.42,-23.43"/>
</g>
<!-- :feature:lmu&#45;readout&#45;flag&#45;detail&#45;&gt;:core:designsystem -->
<g id="edge20" class="edge">
<title>:feature:lmu&#45;readout&#45;flag&#45;detail&#45;&gt;:core:designsystem</title>
<path fill="none" stroke="black" d="M235.76,-74.5C302.48,-62.36 397.11,-45.16 463.26,-33.13"/>
<polygon fill="black" stroke="black" points="464,-36.56 473.21,-31.32 462.74,-29.67 464,-36.56"/>
</g>
<!-- :feature:lmu&#45;readout&#45;vehicle&#45;damage&#45;detail&#45;&gt;:core:domain -->
<g id="edge23" class="edge">
<title>:feature:lmu&#45;readout&#45;vehicle&#45;damage&#45;detail&#45;&gt;:core:domain</title>
<path fill="none" stroke="black" d="M688.28,-77.06C712.56,-75.25 737.47,-73.49 760.99,-72 1129.12,-48.62 1569.38,-29.53 1746.47,-22.21"/>
<polygon fill="black" stroke="black" points="1746.64,-25.71 1756.48,-21.8 1746.35,-18.71 1746.64,-25.71"/>
</g>
<!-- :feature:lmu&#45;readout&#45;vehicle&#45;damage&#45;detail&#45;&gt;:core:designsystem -->
<g id="edge24" class="edge">
<title>:feature:lmu&#45;readout&#45;vehicle&#45;damage&#45;detail&#45;&gt;:core:designsystem</title>
<path fill="none" stroke="black" d="M540.99,-71.7C540.99,-63.98 540.99,-54.71 540.99,-46.11"/>
<polygon fill="black" stroke="black" points="544.49,-46.1 540.99,-36.1 537.49,-46.1 544.49,-46.1"/>
</g>
<!-- :app:webApp -->
<g id="node15" class="node">
<title>:app:webApp</title>
<ellipse fill="none" stroke="black" cx="1709.99" cy="-234" rx="70.69" ry="18"/>
<text text-anchor="middle" x="1709.99" y="-230.3" font-family="Times,serif" font-size="14.00">:app:webApp</text>
</g>
<!-- :app:webApp&#45;&gt;:app:shared -->
<g id="edge15" class="edge">
<title>:app:webApp&#45;&gt;:app:shared</title>
<path fill="none" stroke="black" d="M1709.99,-215.7C1709.99,-207.98 1709.99,-198.71 1709.99,-190.11"/>
<polygon fill="black" stroke="black" points="1713.49,-190.1 1709.99,-180.1 1706.49,-190.1 1713.49,-190.1"/>
</g>
</g>
</svg>
