<?xml version="1.0" encoding="UTF-8" standalone="no"?>
<!DOCTYPE svg PUBLIC "-//W3C//DTD SVG 1.1//EN"
 "http://www.w3.org/Graphics/SVG/1.1/DTD/svg11.dtd">
<!-- Generated by graphviz version 2.43.0 (0)
 -->
<!-- Title: G Pages: 1 -->
<svg width="700pt" height="260pt"
 viewBox="0.00 0.00 699.74 260.00" xmlns="http://www.w3.org/2000/svg" xmlns:xlink="http://www.w3.org/1999/xlink">
<g id="graph0" class="graph" transform="scale(1 1) rotate(0) translate(4 256)">
<title>G</title>
<polygon fill="white" stroke="transparent" points="-4,4 -4,-256 695.74,-256 695.74,4 -4,4"/>
<!-- :server -->
<g id="node1" class="node">
<title>:server</title>
<ellipse fill="none" stroke="black" cx="43.55" cy="-90" rx="43.59" ry="18"/>
<text text-anchor="middle" x="43.55" y="-86.3" font-family="Times,serif" font-size="14.00">:server</text>
</g>
<!-- :core:domain -->
<g id="node2" class="node">
<title>:core:domain</title>
<ellipse fill="none" stroke="black" cx="321.55" cy="-18" rx="70.69" ry="18"/>
<text text-anchor="middle" x="321.55" y="-14.3" font-family="Times,serif" font-size="14.00">:core:domain</text>
</g>
<!-- :server&#45;&gt;:core:domain -->
<g id="edge1" class="edge">
<title>:server&#45;&gt;:core:domain</title>
<path fill="none" stroke="black" d="M77.82,-78.65C85.6,-76.39 93.84,-74.06 101.55,-72 154.9,-57.76 215.98,-43.18 260.23,-32.93"/>
<polygon fill="black" stroke="black" points="261.29,-36.27 270.25,-30.61 259.72,-29.45 261.29,-36.27"/>
</g>
<!-- :app:androidApp -->
<g id="node3" class="node">
<title>:app:androidApp</title>
<ellipse fill="none" stroke="black" cx="165.55" cy="-234" rx="87.18" ry="18"/>
<text text-anchor="middle" x="165.55" y="-230.3" font-family="Times,serif" font-size="14.00">:app:androidApp</text>
</g>
<!-- :app:androidApp&#45;&gt;:core:domain -->
<g id="edge3" class="edge">
<title>:app:androidApp&#45;&gt;:core:domain</title>
<path fill="none" stroke="black" d="M154.52,-216.02C135.5,-184.36 101.59,-115.6 134.55,-72 149.03,-52.84 205.24,-38.6 252.29,-29.73"/>
<polygon fill="black" stroke="black" points="252.97,-33.16 262.17,-27.92 251.7,-26.28 252.97,-33.16"/>
</g>
<!-- :app:shared -->
<g id="node4" class="node">
<title>:app:shared</title>
<ellipse fill="none" stroke="black" cx="331.55" cy="-162" rx="65.79" ry="18"/>
<text text-anchor="middle" x="331.55" y="-158.3" font-family="Times,serif" font-size="14.00">:app:shared</text>
</g>
<!-- :app:androidApp&#45;&gt;:app:shared -->
<g id="edge2" class="edge">
<title>:app:androidApp&#45;&gt;:app:shared</title>
<path fill="none" stroke="black" d="M201.98,-217.64C227.22,-206.99 260.96,-192.76 287.69,-181.49"/>
<polygon fill="black" stroke="black" points="289.33,-184.6 297.19,-177.49 286.61,-178.15 289.33,-184.6"/>
</g>
<!-- :feature:readout -->
<g id="node5" class="node">
<title>:feature:readout</title>
<ellipse fill="none" stroke="black" cx="435.55" cy="-90" rx="86.38" ry="18"/>
<text text-anchor="middle" x="435.55" y="-86.3" font-family="Times,serif" font-size="14.00">:feature:readout</text>
</g>
<!-- :app:androidApp&#45;&gt;:feature:readout -->
<g id="edge4" class="edge">
<title>:app:androidApp&#45;&gt;:feature:readout</title>
<path fill="none" stroke="black" d="M178.49,-216.06C194.65,-196.03 224.15,-163.03 256.55,-144 288.59,-125.18 327.85,-112.58 361.43,-104.41"/>
<polygon fill="black" stroke="black" points="362.25,-107.81 371.19,-102.12 360.65,-101 362.25,-107.81"/>
</g>
<!-- :app:shared&#45;&gt;:core:domain -->
<g id="edge11" class="edge">
<title>:app:shared&#45;&gt;:core:domain</title>
<path fill="none" stroke="black" d="M330.34,-143.87C328.64,-119.67 325.5,-75.21 323.48,-46.39"/>
<polygon fill="black" stroke="black" points="326.95,-45.92 322.76,-36.19 319.97,-46.41 326.95,-45.92"/>
</g>
<!-- :app:shared&#45;&gt;:feature:readout -->
<g id="edge10" class="edge">
<title>:app:shared&#45;&gt;:feature:readout</title>
<path fill="none" stroke="black" d="M355.15,-145.12C369.17,-135.67 387.18,-123.56 402.59,-113.18"/>
<polygon fill="black" stroke="black" points="404.98,-115.79 411.32,-107.31 401.07,-109.99 404.98,-115.79"/>
</g>
<!-- :feature:other -->
<g id="node8" class="node">
<title>:feature:other</title>
<ellipse fill="none" stroke="black" cx="218.55" cy="-90" rx="75.29" ry="18"/>
<text text-anchor="middle" x="218.55" y="-86.3" font-family="Times,serif" font-size="14.00">:feature:other</text>
</g>
<!-- :app:shared&#45;&gt;:feature:other -->
<g id="edge9" class="edge">
<title>:app:shared&#45;&gt;:feature:other</title>
<path fill="none" stroke="black" d="M306.19,-145.29C290.56,-135.61 270.31,-123.07 253.22,-112.48"/>
<polygon fill="black" stroke="black" points="254.95,-109.43 244.6,-107.14 251.26,-115.38 254.95,-109.43"/>
</g>
<!-- :feature:readout&#45;&gt;:core:domain -->
<g id="edge15" class="edge">
<title>:feature:readout&#45;&gt;:core:domain</title>
<path fill="none" stroke="black" d="M409.11,-72.76C393.31,-63.07 373.07,-50.64 356.03,-40.17"/>
<polygon fill="black" stroke="black" points="357.8,-37.16 347.45,-34.91 354.14,-43.12 357.8,-37.16"/>
</g>
<!-- :app:desktopApp -->
<g id="node6" class="node">
<title>:app:desktopApp</title>
<ellipse fill="none" stroke="black" cx="529.55" cy="-234" rx="88.28" ry="18"/>
<text text-anchor="middle" x="529.55" y="-230.3" font-family="Times,serif" font-size="14.00">:app:desktopApp</text>
</g>
<!-- :app:desktopApp&#45;&gt;:core:domain -->
<g id="edge7" class="edge">
<title>:app:desktopApp&#45;&gt;:core:domain</title>
<path fill="none" stroke="black" d="M535.88,-215.79C546.46,-183.74 563.5,-114.36 530.55,-72 513.73,-50.39 447.86,-36.17 394.5,-27.95"/>
<polygon fill="black" stroke="black" points="394.77,-24.45 384.36,-26.43 393.73,-31.37 394.77,-24.45"/>
</g>
<!-- :app:desktopApp&#45;&gt;:app:shared -->
<g id="edge5" class="edge">
<title>:app:desktopApp&#45;&gt;:app:shared</title>
<path fill="none" stroke="black" d="M487.56,-218.15C455.94,-206.98 412.56,-191.64 379.56,-179.98"/>
<polygon fill="black" stroke="black" points="380.71,-176.67 370.12,-176.64 378.38,-183.27 380.71,-176.67"/>
</g>
<!-- :app:desktopApp&#45;&gt;:feature:readout -->
<g id="edge8" class="edge">
<title>:app:desktopApp&#45;&gt;:feature:readout</title>
<path fill="none" stroke="black" d="M518.21,-215.87C501.9,-191.24 471.71,-145.64 452.68,-116.88"/>
<polygon fill="black" stroke="black" points="455.36,-114.6 446.92,-108.19 449.53,-118.46 455.36,-114.6"/>
</g>
<!-- :core:data -->
<g id="node7" class="node">
<title>:core:data</title>
<ellipse fill="none" stroke="black" cx="634.55" cy="-162" rx="57.39" ry="18"/>
<text text-anchor="middle" x="634.55" y="-158.3" font-family="Times,serif" font-size="14.00">:core:data</text>
</g>
<!-- :app:desktopApp&#45;&gt;:core:data -->
<g id="edge6" class="edge">
<title>:app:desktopApp&#45;&gt;:core:data</title>
<path fill="none" stroke="black" d="M554.16,-216.59C568.69,-206.9 587.22,-194.55 602.84,-184.14"/>
<polygon fill="black" stroke="black" points="604.78,-187.05 611.16,-178.59 600.9,-181.22 604.78,-187.05"/>
</g>
<!-- :core:data&#45;&gt;:core:domain -->
<g id="edge13" class="edge">
<title>:core:data&#45;&gt;:core:domain</title>
<path fill="none" stroke="black" d="M625.75,-143.99C614.28,-123.57 592.25,-89.85 563.55,-72 514.69,-41.61 450.81,-28.5 400.94,-22.92"/>
<polygon fill="black" stroke="black" points="401.16,-19.43 390.85,-21.87 400.43,-26.39 401.16,-19.43"/>
</g>
<!-- :feature:other&#45;&gt;:core:domain -->
<g id="edge14" class="edge">
<title>:feature:other&#45;&gt;:core:domain</title>
<path fill="none" stroke="black" d="M242.44,-72.76C256.35,-63.31 274.07,-51.26 289.22,-40.97"/>
<polygon fill="black" stroke="black" points="291.48,-43.66 297.79,-35.15 287.55,-37.87 291.48,-43.66"/>
</g>
<!-- :app:webApp -->
<g id="node9" class="node">
<title>:app:webApp</title>
<ellipse fill="none" stroke="black" cx="341.55" cy="-234" rx="70.69" ry="18"/>
<text text-anchor="middle" x="341.55" y="-230.3" font-family="Times,serif" font-size="14.00">:app:webApp</text>
</g>
<!-- :app:webApp&#45;&gt;:app:shared -->
<g id="edge12" class="edge">
<title>:app:webApp&#45;&gt;:app:shared</title>
<path fill="none" stroke="black" d="M339.07,-215.7C337.97,-207.98 336.65,-198.71 335.42,-190.11"/>
<polygon fill="black" stroke="black" points="338.87,-189.51 333.99,-180.1 331.94,-190.5 338.87,-189.51"/>
</g>
</g>
</svg>
