<?xml version="1.0" encoding="UTF-8" standalone="no"?>
<!DOCTYPE svg PUBLIC "-//W3C//DTD SVG 1.1//EN"
 "http://www.w3.org/Graphics/SVG/1.1/DTD/svg11.dtd">
<!-- Generated by graphviz version 2.43.0 (0)
 -->
<!-- Title: G Pages: 1 -->
<svg width="3455pt" height="260pt"
 viewBox="0.00 0.00 3454.98 260.00" xmlns="http://www.w3.org/2000/svg" xmlns:xlink="http://www.w3.org/1999/xlink">
<g id="graph0" class="graph" transform="scale(1 1) rotate(0) translate(4 256)">
<title>G</title>
<polygon fill="white" stroke="transparent" points="-4,4 -4,-256 3450.98,-256 3450.98,4 -4,4"/>
<!-- :server -->
<g id="node1" class="node">
<title>:server</title>
<ellipse fill="none" stroke="black" cx="56.25" cy="-162" rx="43.59" ry="18"/>
<text text-anchor="middle" x="56.25" y="-158.3" font-family="Times,serif" font-size="14.00">:server</text>
</g>
<!-- :core:domain -->
<g id="node2" class="node">
<title>:core:domain</title>
<ellipse fill="none" stroke="black" cx="1069.25" cy="-18" rx="70.69" ry="18"/>
<text text-anchor="middle" x="1069.25" y="-14.3" font-family="Times,serif" font-size="14.00">:core:domain</text>
</g>
<!-- :server&#45;&gt;:core:domain -->
<g id="edge1" class="edge">
<title>:server&#45;&gt;:core:domain</title>
<path fill="none" stroke="black" d="M37.13,-145.64C15.64,-126.6 -13.67,-93.98 7.25,-72 40.94,-36.58 746.03,-23.49 988.33,-20.03"/>
<polygon fill="black" stroke="black" points="988.53,-23.52 998.48,-19.88 988.43,-16.52 988.53,-23.52"/>
</g>
<!-- :app:androidApp -->
<g id="node3" class="node">
<title>:app:androidApp</title>
<ellipse fill="none" stroke="black" cx="929.25" cy="-234" rx="87.18" ry="18"/>
<text text-anchor="middle" x="929.25" y="-230.3" font-family="Times,serif" font-size="14.00">:app:androidApp</text>
</g>
<!-- :app:shared -->
<g id="node4" class="node">
<title>:app:shared</title>
<ellipse fill="none" stroke="black" cx="1199.25" cy="-162" rx="65.79" ry="18"/>
<text text-anchor="middle" x="1199.25" y="-158.3" font-family="Times,serif" font-size="14.00">:app:shared</text>
</g>
<!-- :app:androidApp&#45;&gt;:app:shared -->
<g id="edge2" class="edge">
<title>:app:androidApp&#45;&gt;:app:shared</title>
<path fill="none" stroke="black" d="M981.3,-219.5C1027.8,-207.45 1095.73,-189.84 1143.35,-177.49"/>
<polygon fill="black" stroke="black" points="1144.39,-180.84 1153.19,-174.94 1142.64,-174.06 1144.39,-180.84"/>
</g>
<!-- :core:data -->
<g id="node5" class="node">
<title>:core:data</title>
<ellipse fill="none" stroke="black" cx="549.25" cy="-162" rx="57.39" ry="18"/>
<text text-anchor="middle" x="549.25" y="-158.3" font-family="Times,serif" font-size="14.00">:core:data</text>
</g>
<!-- :app:androidApp&#45;&gt;:core:data -->
<g id="edge3" class="edge">
<title>:app:androidApp&#45;&gt;:core:data</title>
<path fill="none" stroke="black" d="M866.5,-221.44C794.47,-208.17 677.28,-186.59 607.29,-173.69"/>
<polygon fill="black" stroke="black" points="607.78,-170.22 597.32,-171.86 606.52,-177.11 607.78,-170.22"/>
</g>
<!-- :feature:lmu&#45;windows&#45;connection -->
<g id="node7" class="node">
<title>:feature:lmu&#45;windows&#45;connection</title>
<ellipse fill="none" stroke="black" cx="622.25" cy="-90" rx="164.37" ry="18"/>
<text text-anchor="middle" x="622.25" y="-86.3" font-family="Times,serif" font-size="14.00">:feature:lmu&#45;windows&#45;connection</text>
</g>
<!-- :app:shared&#45;&gt;:feature:lmu&#45;windows&#45;connection -->
<g id="edge7" class="edge">
<title>:app:shared&#45;&gt;:feature:lmu&#45;windows&#45;connection</title>
<path fill="none" stroke="black" d="M1140.48,-153.87C1046.24,-142.44 859.58,-119.79 737.9,-105.03"/>
<polygon fill="black" stroke="black" points="738.14,-101.53 727.8,-103.81 737.3,-108.48 738.14,-101.53"/>
</g>
<!-- :feature:server&#45;connection -->
<g id="node8" class="node">
<title>:feature:server&#45;connection</title>
<ellipse fill="none" stroke="black" cx="938.25" cy="-90" rx="133.48" ry="18"/>
<text text-anchor="middle" x="938.25" y="-86.3" font-family="Times,serif" font-size="14.00">:feature:server&#45;connection</text>
</g>
<!-- :app:shared&#45;&gt;:feature:server&#45;connection -->
<g id="edge8" class="edge">
<title>:app:shared&#45;&gt;:feature:server&#45;connection</title>
<path fill="none" stroke="black" d="M1154.08,-148.89C1113.08,-137.89 1052.07,-121.53 1005.36,-109"/>
<polygon fill="black" stroke="black" points="1006.19,-105.6 995.63,-106.39 1004.38,-112.36 1006.19,-105.6"/>
</g>
<!-- :feature:lmu&#45;narrator -->
<g id="node9" class="node">
<title>:feature:lmu&#45;narrator</title>
<ellipse fill="none" stroke="black" cx="1199.25" cy="-90" rx="109.68" ry="18"/>
<text text-anchor="middle" x="1199.25" y="-86.3" font-family="Times,serif" font-size="14.00">:feature:lmu&#45;narrator</text>
</g>
<!-- :app:shared&#45;&gt;:feature:lmu&#45;narrator -->
<g id="edge9" class="edge">
<title>:app:shared&#45;&gt;:feature:lmu&#45;narrator</title>
<path fill="none" stroke="black" d="M1199.25,-143.7C1199.25,-135.98 1199.25,-126.71 1199.25,-118.11"/>
<polygon fill="black" stroke="black" points="1202.75,-118.1 1199.25,-108.1 1195.75,-118.1 1202.75,-118.1"/>
</g>
<!-- :feature:other&#45;license&#45;detail -->
<g id="node10" class="node">
<title>:feature:other&#45;license&#45;detail</title>
<ellipse fill="none" stroke="black" cx="3307.25" cy="-90" rx="139.98" ry="18"/>
<text text-anchor="middle" x="3307.25" y="-86.3" font-family="Times,serif" font-size="14.00">:feature:other&#45;license&#45;detail</text>
</g>
<!-- :app:shared&#45;&gt;:feature:other&#45;license&#45;detail -->
<g id="edge10" class="edge">
<title>:app:shared&#45;&gt;:feature:other&#45;license&#45;detail</title>
<path fill="none" stroke="black" d="M1264.87,-161.28C1512.85,-161.92 2416.26,-160.27 3158.25,-108 3172.28,-107.01 3187.02,-105.68 3201.56,-104.2"/>
<polygon fill="black" stroke="black" points="3201.99,-107.68 3211.58,-103.15 3201.27,-100.71 3201.99,-107.68"/>
</g>
<!-- :feature:other&#45;list -->
<g id="node11" class="node">
<title>:feature:other&#45;list</title>
<ellipse fill="none" stroke="black" cx="121.25" cy="-90" rx="92.88" ry="18"/>
<text text-anchor="middle" x="121.25" y="-86.3" font-family="Times,serif" font-size="14.00">:feature:other&#45;list</text>
</g>
<!-- :app:shared&#45;&gt;:feature:other&#45;list -->
<g id="edge11" class="edge">
<title>:app:shared&#45;&gt;:feature:other&#45;list</title>
<path fill="none" stroke="black" d="M1133.94,-159.95C976.7,-156.89 564.81,-145.62 223.25,-108 214.49,-107.04 205.35,-105.82 196.29,-104.48"/>
<polygon fill="black" stroke="black" points="196.53,-100.97 186.12,-102.92 195.47,-107.89 196.53,-100.97"/>
</g>
<!-- :feature:other&#45;server&#45;ip&#45;detail -->
<g id="node12" class="node">
<title>:feature:other&#45;server&#45;ip&#45;detail</title>
<ellipse fill="none" stroke="black" cx="1476.25" cy="-90" rx="148.67" ry="18"/>
<text text-anchor="middle" x="1476.25" y="-86.3" font-family="Times,serif" font-size="14.00">:feature:other&#45;server&#45;ip&#45;detail</text>
</g>
<!-- :app:shared&#45;&gt;:feature:other&#45;server&#45;ip&#45;detail -->
<g id="edge12" class="edge">
<title>:app:shared&#45;&gt;:feature:other&#45;server&#45;ip&#45;detail</title>
<path fill="none" stroke="black" d="M1245.92,-149.2C1289.5,-138.19 1355.16,-121.6 1405.24,-108.94"/>
<polygon fill="black" stroke="black" points="1406.2,-112.31 1415.04,-106.47 1404.48,-105.52 1406.2,-112.31"/>
</g>
<!-- :feature:other&#45;volume&#45;detail -->
<g id="node13" class="node">
<title>:feature:other&#45;volume&#45;detail</title>
<ellipse fill="none" stroke="black" cx="1784.25" cy="-90" rx="141.07" ry="18"/>
<text text-anchor="middle" x="1784.25" y="-86.3" font-family="Times,serif" font-size="14.00">:feature:other&#45;volume&#45;detail</text>
</g>
<!-- :app:shared&#45;&gt;:feature:other&#45;volume&#45;detail -->
<g id="edge13" class="edge">
<title>:app:shared&#45;&gt;:feature:other&#45;volume&#45;detail</title>
<path fill="none" stroke="black" d="M1258.02,-153.97C1355.38,-142.32 1551.64,-118.83 1675.02,-104.07"/>
<polygon fill="black" stroke="black" points="1675.74,-107.51 1685.25,-102.85 1674.9,-100.56 1675.74,-107.51"/>
</g>
<!-- :feature:readout&#45;list -->
<g id="node14" class="node">
<title>:feature:readout&#45;list</title>
<ellipse fill="none" stroke="black" cx="336.25" cy="-90" rx="103.98" ry="18"/>
<text text-anchor="middle" x="336.25" y="-86.3" font-family="Times,serif" font-size="14.00">:feature:readout&#45;list</text>
</g>
<!-- :app:shared&#45;&gt;:feature:readout&#45;list -->
<g id="edge14" class="edge">
<title>:app:shared&#45;&gt;:feature:readout&#45;list</title>
<path fill="none" stroke="black" d="M1134.88,-158.16C1004.98,-152.06 702.25,-135.93 449.25,-108 439.56,-106.93 429.43,-105.65 419.38,-104.27"/>
<polygon fill="black" stroke="black" points="419.77,-100.79 409.38,-102.86 418.8,-107.72 419.77,-100.79"/>
</g>
<!-- :feature:lmu&#45;readout&#45;vehicle&#45;approach&#45;detail -->
<g id="node15" class="node">
<title>:feature:lmu&#45;readout&#45;vehicle&#45;approach&#45;detail</title>
<ellipse fill="none" stroke="black" cx="2161.25" cy="-90" rx="217.96" ry="18"/>
<text text-anchor="middle" x="2161.25" y="-86.3" font-family="Times,serif" font-size="14.00">:feature:lmu&#45;readout&#45;vehicle&#45;approach&#45;detail</text>
</g>
<!-- :app:shared&#45;&gt;:feature:lmu&#45;readout&#45;vehicle&#45;approach&#45;detail -->
<g id="edge15" class="edge">
<title>:app:shared&#45;&gt;:feature:lmu&#45;readout&#45;vehicle&#45;approach&#45;detail</title>
<path fill="none" stroke="black" d="M1262.17,-156.52C1389.22,-147.47 1685.44,-126.29 1934.25,-108 1954.23,-106.53 1975.2,-104.98 1995.99,-103.43"/>
<polygon fill="black" stroke="black" points="1996.46,-106.9 2006.17,-102.67 1995.94,-99.92 1996.46,-106.9"/>
</g>
<!-- :feature:lmu&#45;readout&#45;flag&#45;detail -->
<g id="node16" class="node">
<title>:feature:lmu&#45;readout&#45;flag&#45;detail</title>
<ellipse fill="none" stroke="black" cx="2553.25" cy="-90" rx="155.97" ry="18"/>
<text text-anchor="middle" x="2553.25" y="-86.3" font-family="Times,serif" font-size="14.00">:feature:lmu&#45;readout&#45;flag&#45;detail</text>
</g>
<!-- :app:shared&#45;&gt;:feature:lmu&#45;readout&#45;flag&#45;detail -->
<g id="edge16" class="edge">
<title>:app:shared&#45;&gt;:feature:lmu&#45;readout&#45;flag&#45;detail</title>
<path fill="none" stroke="black" d="M1264.41,-159.43C1443.83,-154.8 1960.14,-139.57 2388.25,-108 2403.32,-106.89 2419.16,-105.52 2434.8,-104.04"/>
<polygon fill="black" stroke="black" points="2435.42,-107.5 2445.04,-103.06 2434.75,-100.53 2435.42,-107.5"/>
</g>
<!-- :feature:lmu&#45;readout&#45;vehicle&#45;damage&#45;detail -->
<g id="node17" class="node">
<title>:feature:lmu&#45;readout&#45;vehicle&#45;damage&#45;detail</title>
<ellipse fill="none" stroke="black" cx="2938.25" cy="-90" rx="211.46" ry="18"/>
<text text-anchor="middle" x="2938.25" y="-86.3" font-family="Times,serif" font-size="14.00">:feature:lmu&#45;readout&#45;vehicle&#45;damage&#45;detail</text>
</g>
<!-- :app:shared&#45;&gt;:feature:lmu&#45;readout&#45;vehicle&#45;damage&#45;detail -->
<g id="edge17" class="edge">
<title>:app:shared&#45;&gt;:feature:lmu&#45;readout&#45;vehicle&#45;damage&#45;detail</title>
<path fill="none" stroke="black" d="M1264.43,-159.71C1474.97,-155.33 2155.75,-139.53 2718.25,-108 2739.13,-106.83 2761.11,-105.38 2782.78,-103.84"/>
<polygon fill="black" stroke="black" points="2783.32,-107.31 2793.04,-103.09 2782.82,-100.32 2783.32,-107.31"/>
</g>
<!-- :core:data&#45;&gt;:core:domain -->
<g id="edge19" class="edge">
<title>:core:data&#45;&gt;:core:domain</title>
<path fill="none" stroke="black" d="M492.15,-159.53C361.68,-155.57 50.54,-142.58 19.25,-108 8.51,-96.14 8.22,-83.6 19.25,-72 52.51,-37.02 748.06,-23.66 988.4,-20.07"/>
<polygon fill="black" stroke="black" points="988.53,-23.57 998.47,-19.92 988.42,-16.57 988.53,-23.57"/>
</g>
<!-- :app:desktopApp -->
<g id="node6" class="node">
<title>:app:desktopApp</title>
<ellipse fill="none" stroke="black" cx="549.25" cy="-234" rx="88.28" ry="18"/>
<text text-anchor="middle" x="549.25" y="-230.3" font-family="Times,serif" font-size="14.00">:app:desktopApp</text>
</g>
<!-- :app:desktopApp&#45;&gt;:server -->
<g id="edge6" class="edge">
<title>:app:desktopApp&#45;&gt;:server</title>
<path fill="none" stroke="black" d="M478.87,-223.01C378.17,-208.71 195.38,-182.76 106.91,-170.19"/>
<polygon fill="black" stroke="black" points="107.25,-166.71 96.86,-168.77 106.27,-173.64 107.25,-166.71"/>
</g>
<!-- :app:desktopApp&#45;&gt;:app:shared -->
<g id="edge4" class="edge">
<title>:app:desktopApp&#45;&gt;:app:shared</title>
<path fill="none" stroke="black" d="M625.4,-224.8C752.57,-211.1 1006.3,-183.78 1129.24,-170.54"/>
<polygon fill="black" stroke="black" points="1129.73,-174.01 1139.3,-169.46 1128.98,-167.05 1129.73,-174.01"/>
</g>
<!-- :app:desktopApp&#45;&gt;:core:data -->
<g id="edge5" class="edge">
<title>:app:desktopApp&#45;&gt;:core:data</title>
<path fill="none" stroke="black" d="M549.25,-215.7C549.25,-207.98 549.25,-198.71 549.25,-190.11"/>
<polygon fill="black" stroke="black" points="552.75,-190.1 549.25,-180.1 545.75,-190.1 552.75,-190.1"/>
</g>
<!-- :feature:lmu&#45;windows&#45;connection&#45;&gt;:core:domain -->
<g id="edge27" class="edge">
<title>:feature:lmu&#45;windows&#45;connection&#45;&gt;:core:domain</title>
<path fill="none" stroke="black" d="M712.16,-74.92C797.2,-61.6 922.97,-41.91 1000.32,-29.79"/>
<polygon fill="black" stroke="black" points="1001.1,-33.21 1010.44,-28.21 1000.02,-26.3 1001.1,-33.21"/>
</g>
<!-- :feature:server&#45;connection&#45;&gt;:core:domain -->
<g id="edge35" class="edge">
<title>:feature:server&#45;connection&#45;&gt;:core:domain</title>
<path fill="none" stroke="black" d="M969.29,-72.41C987.84,-62.5 1011.54,-49.83 1031.21,-39.32"/>
<polygon fill="black" stroke="black" points="1033.05,-42.31 1040.22,-34.51 1029.75,-36.14 1033.05,-42.31"/>
</g>
<!-- :feature:lmu&#45;narrator&#45;&gt;:core:domain -->
<g id="edge20" class="edge">
<title>:feature:lmu&#45;narrator&#45;&gt;:core:domain</title>
<path fill="none" stroke="black" d="M1168.77,-72.59C1150.37,-62.68 1126.77,-49.97 1107.17,-39.42"/>
<polygon fill="black" stroke="black" points="1108.66,-36.25 1098.2,-34.59 1105.34,-42.41 1108.66,-36.25"/>
</g>
<!-- :core:designsystem -->
<g id="node19" class="node">
<title>:core:designsystem</title>
<ellipse fill="none" stroke="black" cx="2357.25" cy="-18" rx="100.98" ry="18"/>
<text text-anchor="middle" x="2357.25" y="-14.3" font-family="Times,serif" font-size="14.00">:core:designsystem</text>
</g>
<!-- :feature:other&#45;license&#45;detail&#45;&gt;:core:designsystem -->
<g id="edge28" class="edge">
<title>:feature:other&#45;license&#45;detail&#45;&gt;:core:designsystem</title>
<path fill="none" stroke="black" d="M3209.13,-77.14C3192.18,-75.28 3174.71,-73.48 3158.25,-72 2909.43,-49.59 2616.33,-32.58 2462.96,-24.39"/>
<polygon fill="black" stroke="black" points="2462.78,-20.88 2452.61,-23.84 2462.41,-27.87 2462.78,-20.88"/>
</g>
<!-- :feature:other&#45;list&#45;&gt;:core:domain -->
<g id="edge29" class="edge">
<title>:feature:other&#45;list&#45;&gt;:core:domain</title>
<path fill="none" stroke="black" d="M186.4,-77.12C198.61,-75.18 211.3,-73.37 223.25,-72 503.56,-39.95 838.5,-26.18 989.03,-21.28"/>
<polygon fill="black" stroke="black" points="989.23,-24.78 999.12,-20.96 989.01,-17.78 989.23,-24.78"/>
</g>
<!-- :feature:other&#45;server&#45;ip&#45;detail&#45;&gt;:core:domain -->
<g id="edge30" class="edge">
<title>:feature:other&#45;server&#45;ip&#45;detail&#45;&gt;:core:domain</title>
<path fill="none" stroke="black" d="M1394.37,-74.92C1318.48,-61.87 1206.95,-42.68 1136.23,-30.52"/>
<polygon fill="black" stroke="black" points="1136.55,-27.03 1126.11,-28.78 1135.37,-33.92 1136.55,-27.03"/>
</g>
<!-- :feature:other&#45;server&#45;ip&#45;detail&#45;&gt;:core:designsystem -->
<g id="edge31" class="edge">
<title>:feature:other&#45;server&#45;ip&#45;detail&#45;&gt;:core:designsystem</title>
<path fill="none" stroke="black" d="M1581.16,-77.21C1598.87,-75.36 1617.07,-73.55 1634.25,-72 1854.51,-52.08 2113.05,-34.54 2253.54,-25.49"/>
<polygon fill="black" stroke="black" points="2254.1,-28.96 2263.86,-24.83 2253.65,-21.98 2254.1,-28.96"/>
</g>
<!-- :feature:other&#45;volume&#45;detail&#45;&gt;:core:domain -->
<g id="edge32" class="edge">
<title>:feature:other&#45;volume&#45;detail&#45;&gt;:core:domain</title>
<path fill="none" stroke="black" d="M1683.82,-77.35C1667.26,-75.5 1650.28,-73.66 1634.25,-72 1459.33,-53.89 1253.66,-35.27 1145.16,-25.65"/>
<polygon fill="black" stroke="black" points="1145.23,-22.14 1134.96,-24.75 1144.62,-29.12 1145.23,-22.14"/>
</g>
<!-- :feature:other&#45;volume&#45;detail&#45;&gt;:core:designsystem -->
<g id="edge33" class="edge">
<title>:feature:other&#45;volume&#45;detail&#45;&gt;:core:designsystem</title>
<path fill="none" stroke="black" d="M1882.42,-77.01C1990.13,-63.85 2161.59,-42.9 2266.32,-30.11"/>
<polygon fill="black" stroke="black" points="2267.06,-33.54 2276.56,-28.86 2266.21,-26.6 2267.06,-33.54"/>
</g>
<!-- :feature:readout&#45;list&#45;&gt;:core:domain -->
<g id="edge34" class="edge">
<title>:feature:readout&#45;list&#45;&gt;:core:domain</title>
<path fill="none" stroke="black" d="M409.7,-77.25C422.85,-75.35 436.44,-73.51 449.25,-72 643.67,-49.09 873.52,-32.06 991.21,-24.06"/>
<polygon fill="black" stroke="black" points="991.47,-27.55 1001.21,-23.38 991,-20.57 991.47,-27.55"/>
</g>
<!-- :feature:lmu&#45;readout&#45;vehicle&#45;approach&#45;detail&#45;&gt;:core:domain -->
<g id="edge23" class="edge">
<title>:feature:lmu&#45;readout&#45;vehicle&#45;approach&#45;detail&#45;&gt;:core:domain</title>
<path fill="none" stroke="black" d="M2007.72,-77.22C1983.15,-75.41 1958,-73.62 1934.25,-72 1644.44,-52.27 1299.78,-32.16 1147.83,-23.46"/>
<polygon fill="black" stroke="black" points="1147.85,-19.95 1137.67,-22.88 1147.45,-26.94 1147.85,-19.95"/>
</g>
<!-- :feature:lmu&#45;readout&#45;vehicle&#45;approach&#45;detail&#45;&gt;:core:designsystem -->
<g id="edge24" class="edge">
<title>:feature:lmu&#45;readout&#45;vehicle&#45;approach&#45;detail&#45;&gt;:core:designsystem</title>
<path fill="none" stroke="black" d="M2207.69,-72.41C2236.81,-62.01 2274.4,-48.59 2304.62,-37.8"/>
<polygon fill="black" stroke="black" points="2305.91,-41.05 2314.15,-34.39 2303.55,-34.46 2305.91,-41.05"/>
</g>
<!-- :feature:lmu&#45;readout&#45;flag&#45;detail&#45;&gt;:core:domain -->
<g id="edge21" class="edge">
<title>:feature:lmu&#45;readout&#45;flag&#45;detail&#45;&gt;:core:domain</title>
<path fill="none" stroke="black" d="M2445.49,-76.92C2426.44,-75.06 2406.77,-73.33 2388.25,-72 1919.82,-38.49 1356.19,-24.67 1149.89,-20.49"/>
<polygon fill="black" stroke="black" points="1149.82,-16.98 1139.75,-20.28 1149.68,-23.98 1149.82,-16.98"/>
</g>
<!-- :feature:lmu&#45;readout&#45;flag&#45;detail&#45;&gt;:core:designsystem -->
<g id="edge22" class="edge">
<title>:feature:lmu&#45;readout&#45;flag&#45;detail&#45;&gt;:core:designsystem</title>
<path fill="none" stroke="black" d="M2507.79,-72.76C2478.5,-62.31 2440.33,-48.67 2409.75,-37.75"/>
<polygon fill="black" stroke="black" points="2410.7,-34.38 2400.11,-34.31 2408.35,-40.97 2410.7,-34.38"/>
</g>
<!-- :feature:lmu&#45;readout&#45;vehicle&#45;damage&#45;detail&#45;&gt;:core:domain -->
<g id="edge25" class="edge">
<title>:feature:lmu&#45;readout&#45;vehicle&#45;damage&#45;detail&#45;&gt;:core:domain</title>
<path fill="none" stroke="black" d="M2793.34,-76.87C2768.31,-75.04 2742.53,-73.33 2718.25,-72 2116.22,-39.08 1389.34,-24.46 1149.96,-20.31"/>
<polygon fill="black" stroke="black" points="1149.67,-16.8 1139.61,-20.13 1149.55,-23.8 1149.67,-16.8"/>
</g>
<!-- :feature:lmu&#45;readout&#45;vehicle&#45;damage&#45;detail&#45;&gt;:core:designsystem -->
<g id="edge26" class="edge">
<title>:feature:lmu&#45;readout&#45;vehicle&#45;damage&#45;detail&#45;&gt;:core:designsystem</title>
<path fill="none" stroke="black" d="M2821.72,-74.96C2711.87,-61.73 2549.47,-42.16 2448.68,-30.02"/>
<polygon fill="black" stroke="black" points="2448.86,-26.51 2438.52,-28.79 2448.02,-33.46 2448.86,-26.51"/>
</g>
<!-- :app:webApp -->
<g id="node18" class="node">
<title>:app:webApp</title>
<ellipse fill="none" stroke="black" cx="1199.25" cy="-234" rx="70.69" ry="18"/>
<text text-anchor="middle" x="1199.25" y="-230.3" font-family="Times,serif" font-size="14.00">:app:webApp</text>
</g>
<!-- :app:webApp&#45;&gt;:app:shared -->
<g id="edge18" class="edge">
<title>:app:webApp&#45;&gt;:app:shared</title>
<path fill="none" stroke="black" d="M1199.25,-215.7C1199.25,-207.98 1199.25,-198.71 1199.25,-190.11"/>
<polygon fill="black" stroke="black" points="1202.75,-190.1 1199.25,-180.1 1195.75,-190.1 1202.75,-190.1"/>
</g>
</g>
</svg>
