<?xml version="1.0" encoding="UTF-8" standalone="no"?>
<!DOCTYPE svg PUBLIC "-//W3C//DTD SVG 1.1//EN"
 "http://www.w3.org/Graphics/SVG/1.1/DTD/svg11.dtd">
<!-- Generated by graphviz version 2.43.0 (0)
 -->
<!-- Title: G Pages: 1 -->
<svg width="7142pt" height="260pt"
 viewBox="0.00 0.00 7142.28 260.00" xmlns="http://www.w3.org/2000/svg" xmlns:xlink="http://www.w3.org/1999/xlink">
<g id="graph0" class="graph" transform="scale(1 1) rotate(0) translate(4 256)">
<title>G</title>
<polygon fill="white" stroke="transparent" points="-4,4 -4,-256 7138.28,-256 7138.28,4 -4,4"/>
<!-- :server -->
<g id="node1" class="node">
<title>:server</title>
<ellipse fill="none" stroke="black" cx="302.89" cy="-162" rx="43.59" ry="18"/>
<text text-anchor="middle" x="302.89" y="-158.3" font-family="Times,serif" font-size="14.00">:server</text>
</g>
<!-- :core:domain -->
<g id="node2" class="node">
<title>:core:domain</title>
<ellipse fill="none" stroke="black" cx="2515.89" cy="-18" rx="70.69" ry="18"/>
<text text-anchor="middle" x="2515.89" y="-14.3" font-family="Times,serif" font-size="14.00">:core:domain</text>
</g>
<!-- :server&#45;&gt;:core:domain -->
<g id="edge1" class="edge">
<title>:server&#45;&gt;:core:domain</title>
<path fill="none" stroke="black" d="M303.17,-143.91C304.53,-123.09 310.31,-88.64 332.89,-72 376.01,-40.23 2045.19,-23.24 2435.06,-19.7"/>
<polygon fill="black" stroke="black" points="2435.15,-23.2 2445.12,-19.61 2435.09,-16.2 2435.15,-23.2"/>
</g>
<!-- :app:androidApp -->
<g id="node3" class="node">
<title>:app:androidApp</title>
<ellipse fill="none" stroke="black" cx="639.89" cy="-234" rx="87.18" ry="18"/>
<text text-anchor="middle" x="639.89" y="-230.3" font-family="Times,serif" font-size="14.00">:app:androidApp</text>
</g>
<!-- :app:shared -->
<g id="node4" class="node">
<title>:app:shared</title>
<ellipse fill="none" stroke="black" cx="2842.89" cy="-162" rx="65.79" ry="18"/>
<text text-anchor="middle" x="2842.89" y="-158.3" font-family="Times,serif" font-size="14.00">:app:shared</text>
</g>
<!-- :app:androidApp&#45;&gt;:app:shared -->
<g id="edge2" class="edge">
<title>:app:androidApp&#45;&gt;:app:shared</title>
<path fill="none" stroke="black" d="M725.24,-230.29C1079.82,-219.02 2433.67,-176 2767.94,-165.38"/>
<polygon fill="black" stroke="black" points="2768.11,-168.88 2778,-165.06 2767.89,-161.88 2768.11,-168.88"/>
</g>
<!-- :core:data -->
<g id="node5" class="node">
<title>:core:data</title>
<ellipse fill="none" stroke="black" cx="628.89" cy="-162" rx="57.39" ry="18"/>
<text text-anchor="middle" x="628.89" y="-158.3" font-family="Times,serif" font-size="14.00">:core:data</text>
</g>
<!-- :app:androidApp&#45;&gt;:core:data -->
<g id="edge3" class="edge">
<title>:app:androidApp&#45;&gt;:core:data</title>
<path fill="none" stroke="black" d="M637.17,-215.7C635.96,-207.98 634.5,-198.71 633.15,-190.11"/>
<polygon fill="black" stroke="black" points="636.59,-189.44 631.58,-180.1 629.67,-190.53 636.59,-189.44"/>
</g>
<!-- :core:gt7&#45;ps5&#45;data -->
<g id="node6" class="node">
<title>:core:gt7&#45;ps5&#45;data</title>
<ellipse fill="none" stroke="black" cx="458.89" cy="-162" rx="94.78" ry="18"/>
<text text-anchor="middle" x="458.89" y="-158.3" font-family="Times,serif" font-size="14.00">:core:gt7&#45;ps5&#45;data</text>
</g>
<!-- :app:androidApp&#45;&gt;:core:gt7&#45;ps5&#45;data -->
<g id="edge4" class="edge">
<title>:app:androidApp&#45;&gt;:core:gt7&#45;ps5&#45;data</title>
<path fill="none" stroke="black" d="M600.61,-217.81C573.53,-207.33 537.31,-193.33 508.26,-182.09"/>
<polygon fill="black" stroke="black" points="509.3,-178.74 498.71,-178.4 506.78,-185.27 509.3,-178.74"/>
</g>
<!-- :feature:main -->
<g id="node9" class="node">
<title>:feature:main</title>
<ellipse fill="none" stroke="black" cx="1249.89" cy="-90" rx="73.39" ry="18"/>
<text text-anchor="middle" x="1249.89" y="-86.3" font-family="Times,serif" font-size="14.00">:feature:main</text>
</g>
<!-- :app:shared&#45;&gt;:feature:main -->
<g id="edge10" class="edge">
<title>:app:shared&#45;&gt;:feature:main</title>
<path fill="none" stroke="black" d="M2777.42,-160.16C2525.55,-156.69 1618.92,-142.07 1332.89,-108 1326.02,-107.18 1318.87,-106.09 1311.78,-104.85"/>
<polygon fill="black" stroke="black" points="1311.94,-101.32 1301.47,-102.95 1310.67,-108.21 1311.94,-101.32"/>
</g>
<!-- :feature:lmu&#45;windows&#45;connection -->
<g id="node10" class="node">
<title>:feature:lmu&#45;windows&#45;connection</title>
<ellipse fill="none" stroke="black" cx="1505.89" cy="-90" rx="164.37" ry="18"/>
<text text-anchor="middle" x="1505.89" y="-86.3" font-family="Times,serif" font-size="14.00">:feature:lmu&#45;windows&#45;connection</text>
</g>
<!-- :app:shared&#45;&gt;:feature:lmu&#45;windows&#45;connection -->
<g id="edge11" class="edge">
<title>:app:shared&#45;&gt;:feature:lmu&#45;windows&#45;connection</title>
<path fill="none" stroke="black" d="M2777.88,-159.22C2601.26,-154.13 2097.71,-137.91 1679.89,-108 1663.84,-106.85 1646.98,-105.45 1630.34,-103.95"/>
<polygon fill="black" stroke="black" points="1630.28,-100.43 1620.01,-103 1629.64,-107.4 1630.28,-100.43"/>
</g>
<!-- :feature:gt7&#45;ps5&#45;connection -->
<g id="node11" class="node">
<title>:feature:gt7&#45;ps5&#45;connection</title>
<ellipse fill="none" stroke="black" cx="1826.89" cy="-90" rx="138.38" ry="18"/>
<text text-anchor="middle" x="1826.89" y="-86.3" font-family="Times,serif" font-size="14.00">:feature:gt7&#45;ps5&#45;connection</text>
</g>
<!-- :app:shared&#45;&gt;:feature:gt7&#45;ps5&#45;connection -->
<g id="edge12" class="edge">
<title>:app:shared&#45;&gt;:feature:gt7&#45;ps5&#45;connection</title>
<path fill="none" stroke="black" d="M2778.56,-158.25C2634.47,-151.83 2274.93,-134.37 1974.89,-108 1961.62,-106.83 1947.7,-105.45 1933.93,-103.98"/>
<polygon fill="black" stroke="black" points="1934.26,-100.5 1923.94,-102.9 1933.5,-107.45 1934.26,-100.5"/>
</g>
<!-- :feature:server&#45;connection -->
<g id="node12" class="node">
<title>:feature:server&#45;connection</title>
<ellipse fill="none" stroke="black" cx="2116.89" cy="-90" rx="133.48" ry="18"/>
<text text-anchor="middle" x="2116.89" y="-86.3" font-family="Times,serif" font-size="14.00">:feature:server&#45;connection</text>
</g>
<!-- :app:shared&#45;&gt;:feature:server&#45;connection -->
<g id="edge13" class="edge">
<title>:app:shared&#45;&gt;:feature:server&#45;connection</title>
<path fill="none" stroke="black" d="M2781.03,-155.97C2674.36,-147.17 2448.98,-128 2258.89,-108 2246.81,-106.73 2234.16,-105.32 2221.6,-103.88"/>
<polygon fill="black" stroke="black" points="2221.9,-100.39 2211.56,-102.72 2221.09,-107.34 2221.9,-100.39"/>
</g>
<!-- :feature:lmu&#45;windows&#45;narrator -->
<g id="node13" class="node">
<title>:feature:lmu&#45;windows&#45;narrator</title>
<ellipse fill="none" stroke="black" cx="6980.89" cy="-90" rx="153.27" ry="18"/>
<text text-anchor="middle" x="6980.89" y="-86.3" font-family="Times,serif" font-size="14.00">:feature:lmu&#45;windows&#45;narrator</text>
</g>
<!-- :app:shared&#45;&gt;:feature:lmu&#45;windows&#45;narrator -->
<g id="edge14" class="edge">
<title>:app:shared&#45;&gt;:feature:lmu&#45;windows&#45;narrator</title>
<path fill="none" stroke="black" d="M2908.78,-160.94C3361.02,-160.41 6012.21,-155.29 6817.89,-108 6833.65,-107.08 6850.23,-105.75 6866.55,-104.25"/>
<polygon fill="black" stroke="black" points="6867.03,-107.72 6876.66,-103.29 6866.37,-100.75 6867.03,-107.72"/>
</g>
<!-- :feature:gt7&#45;ps5&#45;narrator -->
<g id="node14" class="node">
<title>:feature:gt7&#45;ps5&#45;narrator</title>
<ellipse fill="none" stroke="black" cx="3015.89" cy="-90" rx="127.28" ry="18"/>
<text text-anchor="middle" x="3015.89" y="-86.3" font-family="Times,serif" font-size="14.00">:feature:gt7&#45;ps5&#45;narrator</text>
</g>
<!-- :app:shared&#45;&gt;:feature:gt7&#45;ps5&#45;narrator -->
<g id="edge15" class="edge">
<title>:app:shared&#45;&gt;:feature:gt7&#45;ps5&#45;narrator</title>
<path fill="none" stroke="black" d="M2878.32,-146.67C2903.81,-136.35 2938.51,-122.31 2966.69,-110.91"/>
<polygon fill="black" stroke="black" points="2968.02,-114.15 2975.97,-107.15 2965.39,-107.66 2968.02,-114.15"/>
</g>
<!-- :feature:other&#45;license&#45;detail -->
<g id="node15" class="node">
<title>:feature:other&#45;license&#45;detail</title>
<ellipse fill="none" stroke="black" cx="3300.89" cy="-90" rx="139.98" ry="18"/>
<text text-anchor="middle" x="3300.89" y="-86.3" font-family="Times,serif" font-size="14.00">:feature:other&#45;license&#45;detail</text>
</g>
<!-- :app:shared&#45;&gt;:feature:other&#45;license&#45;detail -->
<g id="edge16" class="edge">
<title>:app:shared&#45;&gt;:feature:other&#45;license&#45;detail</title>
<path fill="none" stroke="black" d="M2899.05,-152.42C2975.1,-140.79 3111.97,-119.87 3204.6,-105.72"/>
<polygon fill="black" stroke="black" points="3205.18,-109.17 3214.54,-104.2 3204.13,-102.25 3205.18,-109.17"/>
</g>
<!-- :feature:other&#45;list -->
<g id="node16" class="node">
<title>:feature:other&#45;list</title>
<ellipse fill="none" stroke="black" cx="2360.89" cy="-90" rx="92.88" ry="18"/>
<text text-anchor="middle" x="2360.89" y="-86.3" font-family="Times,serif" font-size="14.00">:feature:other&#45;list</text>
</g>
<!-- :app:shared&#45;&gt;:feature:other&#45;list -->
<g id="edge17" class="edge">
<title>:app:shared&#45;&gt;:feature:other&#45;list</title>
<path fill="none" stroke="black" d="M2785.04,-153.48C2710.32,-143.64 2576.25,-125.57 2461.89,-108 2454.08,-106.8 2445.94,-105.5 2437.82,-104.18"/>
<polygon fill="black" stroke="black" points="2438.38,-100.73 2427.94,-102.56 2437.24,-107.64 2438.38,-100.73"/>
</g>
<!-- :feature:other&#45;server&#45;ip&#45;detail -->
<g id="node17" class="node">
<title>:feature:other&#45;server&#45;ip&#45;detail</title>
<ellipse fill="none" stroke="black" cx="3607.89" cy="-90" rx="148.67" ry="18"/>
<text text-anchor="middle" x="3607.89" y="-86.3" font-family="Times,serif" font-size="14.00">:feature:other&#45;server&#45;ip&#45;detail</text>
</g>
<!-- :app:shared&#45;&gt;:feature:other&#45;server&#45;ip&#45;detail -->
<g id="edge18" class="edge">
<title>:app:shared&#45;&gt;:feature:other&#45;server&#45;ip&#45;detail</title>
<path fill="none" stroke="black" d="M2904.97,-155.99C3014.88,-147.04 3250.9,-127.39 3449.89,-108 3463.48,-106.68 3477.72,-105.23 3491.85,-103.75"/>
<polygon fill="black" stroke="black" points="3492.53,-107.2 3502.11,-102.68 3491.8,-100.24 3492.53,-107.2"/>
</g>
<!-- :feature:other&#45;console&#45;ip&#45;detail -->
<g id="node18" class="node">
<title>:feature:other&#45;console&#45;ip&#45;detail</title>
<ellipse fill="none" stroke="black" cx="3927.89" cy="-90" rx="153.27" ry="18"/>
<text text-anchor="middle" x="3927.89" y="-86.3" font-family="Times,serif" font-size="14.00">:feature:other&#45;console&#45;ip&#45;detail</text>
</g>
<!-- :app:shared&#45;&gt;:feature:other&#45;console&#45;ip&#45;detail -->
<g id="edge19" class="edge">
<title>:app:shared&#45;&gt;:feature:other&#45;console&#45;ip&#45;detail</title>
<path fill="none" stroke="black" d="M2907.3,-158.35C3057.76,-151.93 3443.93,-134.12 3765.89,-108 3780.32,-106.83 3795.45,-105.45 3810.44,-103.98"/>
<polygon fill="black" stroke="black" points="3811.17,-107.43 3820.77,-102.96 3810.48,-100.46 3811.17,-107.43"/>
</g>
<!-- :feature:other&#45;readout&#45;start&#45;sound&#45;detail -->
<g id="node19" class="node">
<title>:feature:other&#45;readout&#45;start&#45;sound&#45;detail</title>
<ellipse fill="none" stroke="black" cx="2670.89" cy="-90" rx="199.56" ry="18"/>
<text text-anchor="middle" x="2670.89" y="-86.3" font-family="Times,serif" font-size="14.00">:feature:other&#45;readout&#45;start&#45;sound&#45;detail</text>
</g>
<!-- :app:shared&#45;&gt;:feature:other&#45;readout&#45;start&#45;sound&#45;detail -->
<g id="edge20" class="edge">
<title>:app:shared&#45;&gt;:feature:other&#45;readout&#45;start&#45;sound&#45;detail</title>
<path fill="none" stroke="black" d="M2807.67,-146.67C2782.79,-136.54 2749.07,-122.82 2721.34,-111.53"/>
<polygon fill="black" stroke="black" points="2722.39,-108.18 2711.81,-107.65 2719.75,-114.66 2722.39,-108.18"/>
</g>
<!-- :feature:other&#45;volume&#45;detail -->
<g id="node20" class="node">
<title>:feature:other&#45;volume&#45;detail</title>
<ellipse fill="none" stroke="black" cx="4239.89" cy="-90" rx="141.07" ry="18"/>
<text text-anchor="middle" x="4239.89" y="-86.3" font-family="Times,serif" font-size="14.00">:feature:other&#45;volume&#45;detail</text>
</g>
<!-- :app:shared&#45;&gt;:feature:other&#45;volume&#45;detail -->
<g id="edge21" class="edge">
<title>:app:shared&#45;&gt;:feature:other&#45;volume&#45;detail</title>
<path fill="none" stroke="black" d="M2908.23,-159.84C3093.6,-156.21 3638.65,-143.12 4089.89,-108 4103.56,-106.94 4117.9,-105.6 4132.07,-104.14"/>
<polygon fill="black" stroke="black" points="4132.77,-107.59 4142.35,-103.06 4132.04,-100.63 4132.77,-107.59"/>
</g>
<!-- :feature:telemetry&#45;log&#45;list -->
<g id="node21" class="node">
<title>:feature:telemetry&#45;log&#45;list</title>
<ellipse fill="none" stroke="black" cx="500.89" cy="-90" rx="129.98" ry="18"/>
<text text-anchor="middle" x="500.89" y="-86.3" font-family="Times,serif" font-size="14.00">:feature:telemetry&#45;log&#45;list</text>
</g>
<!-- :app:shared&#45;&gt;:feature:telemetry&#45;log&#45;list -->
<g id="edge22" class="edge">
<title>:app:shared&#45;&gt;:feature:telemetry&#45;log&#45;list</title>
<path fill="none" stroke="black" d="M2777.51,-160.29C2459.4,-156.7 1071.29,-139.49 639.89,-108 626.94,-107.05 613.35,-105.76 599.95,-104.31"/>
<polygon fill="black" stroke="black" points="600.07,-100.81 589.75,-103.18 599.3,-107.76 600.07,-100.81"/>
</g>
<!-- :feature:telemetry&#45;log&#45;detail -->
<g id="node22" class="node">
<title>:feature:telemetry&#45;log&#45;detail</title>
<ellipse fill="none" stroke="black" cx="790.89" cy="-90" rx="141.88" ry="18"/>
<text text-anchor="middle" x="790.89" y="-86.3" font-family="Times,serif" font-size="14.00">:feature:telemetry&#45;log&#45;detail</text>
</g>
<!-- :app:shared&#45;&gt;:feature:telemetry&#45;log&#45;detail -->
<g id="edge23" class="edge">
<title>:app:shared&#45;&gt;:feature:telemetry&#45;log&#45;detail</title>
<path fill="none" stroke="black" d="M2777.13,-161.17C2533.57,-161.38 1659.88,-158.34 941.89,-108 927.67,-107 912.73,-105.67 898,-104.19"/>
<polygon fill="black" stroke="black" points="898.15,-100.68 887.85,-103.14 897.43,-107.65 898.15,-100.68"/>
</g>
<!-- :feature:readout&#45;list -->
<g id="node23" class="node">
<title>:feature:readout&#45;list</title>
<ellipse fill="none" stroke="black" cx="1054.89" cy="-90" rx="103.98" ry="18"/>
<text text-anchor="middle" x="1054.89" y="-86.3" font-family="Times,serif" font-size="14.00">:feature:readout&#45;list</text>
</g>
<!-- :app:shared&#45;&gt;:feature:readout&#45;list -->
<g id="edge24" class="edge">
<title>:app:shared&#45;&gt;:feature:readout&#45;list</title>
<path fill="none" stroke="black" d="M2777.31,-159.96C2508.34,-155.52 1488.79,-137.11 1167.89,-108 1157.71,-107.08 1147.05,-105.84 1136.51,-104.44"/>
<polygon fill="black" stroke="black" points="1136.85,-100.96 1126.47,-103.07 1135.9,-107.89 1136.85,-100.96"/>
</g>
<!-- :feature:lmu&#45;windows&#45;readout&#45;vehicle&#45;approach&#45;detail -->
<g id="node24" class="node">
<title>:feature:lmu&#45;windows&#45;readout&#45;vehicle&#45;approach&#45;detail</title>
<ellipse fill="none" stroke="black" cx="4659.89" cy="-90" rx="260.75" ry="18"/>
<text text-anchor="middle" x="4659.89" y="-86.3" font-family="Times,serif" font-size="14.00">:feature:lmu&#45;windows&#45;readout&#45;vehicle&#45;approach&#45;detail</text>
</g>
<!-- :app:shared&#45;&gt;:feature:lmu&#45;windows&#45;readout&#45;vehicle&#45;approach&#45;detail -->
<g id="edge25" class="edge">
<title>:app:shared&#45;&gt;:feature:lmu&#45;windows&#45;readout&#45;vehicle&#45;approach&#45;detail</title>
<path fill="none" stroke="black" d="M2908.14,-159.43C3121.19,-154.17 3815.81,-135.9 4389.89,-108 4415.68,-106.75 4442.85,-105.25 4469.61,-103.67"/>
<polygon fill="black" stroke="black" points="4470.06,-107.14 4479.84,-103.06 4469.65,-100.16 4470.06,-107.14"/>
</g>
<!-- :feature:lmu&#45;windows&#45;readout&#45;flag&#45;detail -->
<g id="node25" class="node">
<title>:feature:lmu&#45;windows&#45;readout&#45;flag&#45;detail</title>
<ellipse fill="none" stroke="black" cx="5137.89" cy="-90" rx="199.56" ry="18"/>
<text text-anchor="middle" x="5137.89" y="-86.3" font-family="Times,serif" font-size="14.00">:feature:lmu&#45;windows&#45;readout&#45;flag&#45;detail</text>
</g>
<!-- :app:shared&#45;&gt;:feature:lmu&#45;windows&#45;readout&#45;flag&#45;detail -->
<g id="edge26" class="edge">
<title>:app:shared&#45;&gt;:feature:lmu&#45;windows&#45;readout&#45;flag&#45;detail</title>
<path fill="none" stroke="black" d="M2908.74,-160.67C3166.85,-159.11 4134.56,-150.57 4929.89,-108 4949.94,-106.93 4971.06,-105.52 4991.85,-103.98"/>
<polygon fill="black" stroke="black" points="4992.31,-107.45 5002.02,-103.21 4991.79,-100.47 4992.31,-107.45"/>
</g>
<!-- :feature:lmu&#45;windows&#45;readout&#45;vehicle&#45;damage&#45;detail -->
<g id="node26" class="node">
<title>:feature:lmu&#45;windows&#45;readout&#45;vehicle&#45;damage&#45;detail</title>
<ellipse fill="none" stroke="black" cx="5609.89" cy="-90" rx="254.55" ry="18"/>
<text text-anchor="middle" x="5609.89" y="-86.3" font-family="Times,serif" font-size="14.00">:feature:lmu&#45;windows&#45;readout&#45;vehicle&#45;damage&#45;detail</text>
</g>
<!-- :app:shared&#45;&gt;:feature:lmu&#45;windows&#45;readout&#45;vehicle&#45;damage&#45;detail -->
<g id="edge27" class="edge">
<title>:app:shared&#45;&gt;:feature:lmu&#45;windows&#45;readout&#45;vehicle&#45;damage&#45;detail</title>
<path fill="none" stroke="black" d="M2908.69,-160.66C3197.09,-158.93 4378.13,-149.54 5346.89,-108 5372.73,-106.89 5399.98,-105.44 5426.76,-103.86"/>
<polygon fill="black" stroke="black" points="5427.23,-107.34 5437,-103.25 5426.81,-100.35 5427.23,-107.34"/>
</g>
<!-- :feature:gt7&#45;ps5&#45;readout&#45;my&#45;bestlap&#45;detail -->
<g id="node27" class="node">
<title>:feature:gt7&#45;ps5&#45;readout&#45;my&#45;bestlap&#45;detail</title>
<ellipse fill="none" stroke="black" cx="6090.89" cy="-90" rx="207.96" ry="18"/>
<text text-anchor="middle" x="6090.89" y="-86.3" font-family="Times,serif" font-size="14.00">:feature:gt7&#45;ps5&#45;readout&#45;my&#45;bestlap&#45;detail</text>
</g>
<!-- :app:shared&#45;&gt;:feature:gt7&#45;ps5&#45;readout&#45;my&#45;bestlap&#45;detail -->
<g id="edge28" class="edge">
<title>:app:shared&#45;&gt;:feature:gt7&#45;ps5&#45;readout&#45;my&#45;bestlap&#45;detail</title>
<path fill="none" stroke="black" d="M2908.52,-161.33C3231.6,-162.63 4685.16,-164.9 5873.89,-108 5895.25,-106.98 5917.77,-105.58 5939.89,-104.01"/>
<polygon fill="black" stroke="black" points="5940.29,-107.49 5950.02,-103.29 5939.79,-100.51 5940.29,-107.49"/>
</g>
<!-- :feature:gt7&#45;ps5&#45;readout&#45;remaining&#45;fuel&#45;laps&#45;detail -->
<g id="node28" class="node">
<title>:feature:gt7&#45;ps5&#45;readout&#45;remaining&#45;fuel&#45;laps&#45;detail</title>
<ellipse fill="none" stroke="black" cx="6562.89" cy="-90" rx="246.16" ry="18"/>
<text text-anchor="middle" x="6562.89" y="-86.3" font-family="Times,serif" font-size="14.00">:feature:gt7&#45;ps5&#45;readout&#45;remaining&#45;fuel&#45;laps&#45;detail</text>
</g>
<!-- :app:shared&#45;&gt;:feature:gt7&#45;ps5&#45;readout&#45;remaining&#45;fuel&#45;laps&#45;detail -->
<g id="edge29" class="edge">
<title>:app:shared&#45;&gt;:feature:gt7&#45;ps5&#45;readout&#45;remaining&#45;fuel&#45;laps&#45;detail</title>
<path fill="none" stroke="black" d="M2908.7,-161.25C3258.67,-162.32 4936.94,-164.15 6307.89,-108 6333.34,-106.96 6360.21,-105.53 6386.56,-103.94"/>
<polygon fill="black" stroke="black" points="6386.87,-107.42 6396.64,-103.32 6386.44,-100.44 6386.87,-107.42"/>
</g>
<!-- :core:data&#45;&gt;:core:domain -->
<g id="edge31" class="edge">
<title>:core:data&#45;&gt;:core:domain</title>
<path fill="none" stroke="black" d="M586.75,-149.65C578.85,-147.66 570.63,-145.69 562.89,-144 470.18,-123.79 295.62,-139.92 361.89,-72 398.77,-34.2 2047.5,-21.84 2434.98,-19.46"/>
<polygon fill="black" stroke="black" points="2435.28,-22.96 2445.26,-19.4 2435.23,-15.96 2435.28,-22.96"/>
</g>
<!-- :core:gt7&#45;ps5&#45;data&#45;&gt;:core:domain -->
<g id="edge32" class="edge">
<title>:core:gt7&#45;ps5&#45;data&#45;&gt;:core:domain</title>
<path fill="none" stroke="black" d="M399.35,-147.84C378.12,-139.97 356.39,-127.53 343.89,-108 335.26,-94.53 332.71,-83.45 343.89,-72 381.1,-33.87 2045.32,-21.76 2434.91,-19.44"/>
<polygon fill="black" stroke="black" points="2434.99,-22.94 2444.97,-19.38 2434.95,-15.94 2434.99,-22.94"/>
</g>
<!-- :app:desktopApp -->
<g id="node7" class="node">
<title>:app:desktopApp</title>
<ellipse fill="none" stroke="black" cx="446.89" cy="-234" rx="88.28" ry="18"/>
<text text-anchor="middle" x="446.89" y="-230.3" font-family="Times,serif" font-size="14.00">:app:desktopApp</text>
</g>
<!-- :app:desktopApp&#45;&gt;:server -->
<g id="edge9" class="edge">
<title>:app:desktopApp&#45;&gt;:server</title>
<path fill="none" stroke="black" d="M414.21,-217.12C391.9,-206.27 362.31,-191.88 339.24,-180.67"/>
<polygon fill="black" stroke="black" points="340.64,-177.46 330.12,-176.24 337.58,-183.76 340.64,-177.46"/>
</g>
<!-- :app:desktopApp&#45;&gt;:app:shared -->
<g id="edge5" class="edge">
<title>:app:desktopApp&#45;&gt;:app:shared</title>
<path fill="none" stroke="black" d="M507.75,-220.89C519.69,-218.93 532.15,-217.16 543.89,-216 989.83,-172.03 2421.43,-164.42 2767.2,-163.21"/>
<polygon fill="black" stroke="black" points="2767.36,-166.71 2777.35,-163.18 2767.34,-159.71 2767.36,-166.71"/>
</g>
<!-- :app:desktopApp&#45;&gt;:core:data -->
<g id="edge6" class="edge">
<title>:app:desktopApp&#45;&gt;:core:data</title>
<path fill="none" stroke="black" d="M486.38,-217.81C515.34,-206.67 554.68,-191.54 584.69,-180"/>
<polygon fill="black" stroke="black" points="586.01,-183.24 594.08,-176.39 583.49,-176.71 586.01,-183.24"/>
</g>
<!-- :app:desktopApp&#45;&gt;:core:gt7&#45;ps5&#45;data -->
<g id="edge8" class="edge">
<title>:app:desktopApp&#45;&gt;:core:gt7&#45;ps5&#45;data</title>
<path fill="none" stroke="black" d="M449.86,-215.7C451.18,-207.98 452.77,-198.71 454.24,-190.11"/>
<polygon fill="black" stroke="black" points="457.72,-190.55 455.96,-180.1 450.82,-189.37 457.72,-190.55"/>
</g>
<!-- :core:lmu&#45;windows&#45;data -->
<g id="node8" class="node">
<title>:core:lmu&#45;windows&#45;data</title>
<ellipse fill="none" stroke="black" cx="120.89" cy="-162" rx="120.78" ry="18"/>
<text text-anchor="middle" x="120.89" y="-158.3" font-family="Times,serif" font-size="14.00">:core:lmu&#45;windows&#45;data</text>
</g>
<!-- :app:desktopApp&#45;&gt;:core:lmu&#45;windows&#45;data -->
<g id="edge7" class="edge">
<title>:app:desktopApp&#45;&gt;:core:lmu&#45;windows&#45;data</title>
<path fill="none" stroke="black" d="M388.23,-220.4C334.6,-208.89 254.96,-191.79 196.56,-179.25"/>
<polygon fill="black" stroke="black" points="197.15,-175.8 186.64,-177.12 195.68,-182.64 197.15,-175.8"/>
</g>
<!-- :core:lmu&#45;windows&#45;data&#45;&gt;:core:domain -->
<g id="edge33" class="edge">
<title>:core:lmu&#45;windows&#45;data&#45;&gt;:core:domain</title>
<path fill="none" stroke="black" d="M146.67,-144.29C181.42,-122.83 245.97,-86.6 306.89,-72 516.58,-21.76 2061.8,-18.89 2434.96,-18.93"/>
<polygon fill="black" stroke="black" points="2435.13,-22.43 2445.13,-18.93 2435.13,-15.43 2435.13,-22.43"/>
</g>
<!-- :feature:main&#45;&gt;:core:domain -->
<g id="edge50" class="edge">
<title>:feature:main&#45;&gt;:core:domain</title>
<path fill="none" stroke="black" d="M1301.48,-77.13C1311.84,-75.11 1322.67,-73.27 1332.89,-72 1744.79,-20.91 2242.76,-17.44 2434.88,-18.26"/>
<polygon fill="black" stroke="black" points="2434.88,-21.76 2444.89,-18.3 2434.91,-14.76 2434.88,-21.76"/>
</g>
<!-- :feature:lmu&#45;windows&#45;connection&#45;&gt;:core:domain -->
<g id="edge41" class="edge">
<title>:feature:lmu&#45;windows&#45;connection&#45;&gt;:core:domain</title>
<path fill="none" stroke="black" d="M1621.43,-77.15C1640.93,-75.32 1660.98,-73.52 1679.89,-72 1957.88,-49.61 2288.52,-31.03 2436.92,-23.11"/>
<polygon fill="black" stroke="black" points="2437.49,-26.58 2447.29,-22.56 2437.12,-19.59 2437.49,-26.58"/>
</g>
<!-- :feature:gt7&#45;ps5&#45;connection&#45;&gt;:core:domain -->
<g id="edge34" class="edge">
<title>:feature:gt7&#45;ps5&#45;connection&#45;&gt;:core:domain</title>
<path fill="none" stroke="black" d="M1925.98,-77.39C1942.31,-75.54 1959.07,-73.68 1974.89,-72 2140.86,-54.34 2335.72,-35.78 2440.33,-26"/>
<polygon fill="black" stroke="black" points="2440.85,-29.47 2450.48,-25.05 2440.2,-22.5 2440.85,-29.47"/>
</g>
<!-- :feature:server&#45;connection&#45;&gt;:core:domain -->
<g id="edge62" class="edge">
<title>:feature:server&#45;connection&#45;&gt;:core:domain</title>
<path fill="none" stroke="black" d="M2194.77,-75.34C2268.91,-62.33 2379.29,-42.96 2449.41,-30.66"/>
<polygon fill="black" stroke="black" points="2450.21,-34.08 2459.45,-28.9 2449,-27.18 2450.21,-34.08"/>
</g>
<!-- :feature:lmu&#45;windows&#45;narrator&#45;&gt;:core:domain -->
<g id="edge42" class="edge">
<title>:feature:lmu&#45;windows&#45;narrator&#45;&gt;:core:domain</title>
<path fill="none" stroke="black" d="M6877.1,-76.74C6857.46,-74.82 6837.06,-73.12 6817.89,-72 6599.26,-59.28 3169.69,-25.38 2596.76,-19.79"/>
<polygon fill="black" stroke="black" points="2596.56,-16.28 2586.53,-19.69 2596.5,-23.28 2596.56,-16.28"/>
</g>
<!-- :core:designsystem -->
<g id="node30" class="node">
<title>:core:designsystem</title>
<ellipse fill="none" stroke="black" cx="4659.89" cy="-18" rx="100.98" ry="18"/>
<text text-anchor="middle" x="4659.89" y="-14.3" font-family="Times,serif" font-size="14.00">:core:designsystem</text>
</g>
<!-- :feature:lmu&#45;windows&#45;narrator&#45;&gt;:core:designsystem -->
<g id="edge43" class="edge">
<title>:feature:lmu&#45;windows&#45;narrator&#45;&gt;:core:designsystem</title>
<path fill="none" stroke="black" d="M6876.21,-76.84C6856.84,-74.95 6836.77,-73.21 6817.89,-72 6034.93,-21.64 5089.35,-18.2 4770.75,-18.62"/>
<polygon fill="black" stroke="black" points="4770.58,-15.12 4760.59,-18.64 4770.6,-22.12 4770.58,-15.12"/>
</g>
<!-- :feature:gt7&#45;ps5&#45;narrator&#45;&gt;:core:domain -->
<g id="edge35" class="edge">
<title>:feature:gt7&#45;ps5&#45;narrator&#45;&gt;:core:domain</title>
<path fill="none" stroke="black" d="M2928.8,-76.81C2831.67,-63.21 2676.45,-41.48 2586.55,-28.89"/>
<polygon fill="black" stroke="black" points="2586.85,-25.4 2576.46,-27.48 2585.88,-32.33 2586.85,-25.4"/>
</g>
<!-- :feature:gt7&#45;ps5&#45;narrator&#45;&gt;:core:designsystem -->
<g id="edge36" class="edge">
<title>:feature:gt7&#45;ps5&#45;narrator&#45;&gt;:core:designsystem</title>
<path fill="none" stroke="black" d="M3103.56,-76.87C3119.61,-74.99 3136.23,-73.25 3151.89,-72 3673.46,-30.32 4299.11,-21.42 4548.95,-19.52"/>
<polygon fill="black" stroke="black" points="4549.14,-23.01 4559.12,-19.44 4549.09,-16.01 4549.14,-23.01"/>
</g>
<!-- :feature:other&#45;license&#45;detail&#45;&gt;:core:domain -->
<g id="edge53" class="edge">
<title>:feature:other&#45;license&#45;detail&#45;&gt;:core:domain</title>
<path fill="none" stroke="black" d="M3201.95,-77.28C3185.25,-75.43 3168.08,-73.6 3151.89,-72 2950.73,-52.15 2713.29,-33.67 2593.43,-24.7"/>
<polygon fill="black" stroke="black" points="2593.49,-21.19 2583.26,-23.94 2592.97,-28.17 2593.49,-21.19"/>
</g>
<!-- :feature:other&#45;license&#45;detail&#45;&gt;:core:designsystem -->
<g id="edge54" class="edge">
<title>:feature:other&#45;license&#45;detail&#45;&gt;:core:designsystem</title>
<path fill="none" stroke="black" d="M3397.78,-76.95C3415.11,-75.08 3433.02,-73.33 3449.89,-72 3854.9,-40.06 4337.8,-26.14 4550.32,-21.24"/>
<polygon fill="black" stroke="black" points="4550.62,-24.73 4560.54,-21 4550.46,-17.73 4550.62,-24.73"/>
</g>
<!-- :feature:other&#45;list&#45;&gt;:core:domain -->
<g id="edge55" class="edge">
<title>:feature:other&#45;list&#45;&gt;:core:domain</title>
<path fill="none" stroke="black" d="M2395.67,-73.29C2418.68,-62.9 2449,-49.21 2473.43,-38.18"/>
<polygon fill="black" stroke="black" points="2475.14,-41.24 2482.81,-33.94 2472.26,-34.86 2475.14,-41.24"/>
</g>
<!-- :feature:other&#45;server&#45;ip&#45;detail&#45;&gt;:core:domain -->
<g id="edge57" class="edge">
<title>:feature:other&#45;server&#45;ip&#45;detail&#45;&gt;:core:domain</title>
<path fill="none" stroke="black" d="M3503.85,-77.05C3485.87,-75.2 3467.35,-73.43 3449.89,-72 3134.1,-46.07 2757.19,-28.88 2595.72,-22.17"/>
<polygon fill="black" stroke="black" points="2595.53,-18.66 2585.39,-21.74 2595.24,-25.65 2595.53,-18.66"/>
</g>
<!-- :feature:other&#45;server&#45;ip&#45;detail&#45;&gt;:core:designsystem -->
<g id="edge58" class="edge">
<title>:feature:other&#45;server&#45;ip&#45;detail&#45;&gt;:core:designsystem</title>
<path fill="none" stroke="black" d="M3711.93,-77.09C3729.91,-75.24 3748.43,-73.46 3765.89,-72 4049.83,-48.32 4385.37,-31.38 4553.14,-23.67"/>
<polygon fill="black" stroke="black" points="4553.38,-27.16 4563.21,-23.21 4553.06,-20.17 4553.38,-27.16"/>
</g>
<!-- :feature:other&#45;console&#45;ip&#45;detail&#45;&gt;:core:domain -->
<g id="edge51" class="edge">
<title>:feature:other&#45;console&#45;ip&#45;detail&#45;&gt;:core:domain</title>
<path fill="none" stroke="black" d="M3822.1,-76.94C3803.39,-75.08 3784.08,-73.34 3765.89,-72 3324.88,-39.54 2794.76,-25.19 2596.17,-20.67"/>
<polygon fill="black" stroke="black" points="2596.19,-17.17 2586.12,-20.45 2596.03,-24.17 2596.19,-17.17"/>
</g>
<!-- :feature:other&#45;console&#45;ip&#45;detail&#45;&gt;:core:designsystem -->
<g id="edge52" class="edge">
<title>:feature:other&#45;console&#45;ip&#45;detail&#45;&gt;:core:designsystem</title>
<path fill="none" stroke="black" d="M4037.23,-77.35C4054.84,-75.52 4072.86,-73.68 4089.89,-72 4255.5,-55.61 4448.32,-37.99 4561.91,-27.76"/>
<polygon fill="black" stroke="black" points="4562.33,-31.23 4571.98,-26.85 4561.7,-24.26 4562.33,-31.23"/>
</g>
<!-- :feature:other&#45;readout&#45;start&#45;sound&#45;detail&#45;&gt;:core:domain -->
<g id="edge56" class="edge">
<title>:feature:other&#45;readout&#45;start&#45;sound&#45;detail&#45;&gt;:core:domain</title>
<path fill="none" stroke="black" d="M2633.76,-72.23C2611.09,-62 2582.03,-48.87 2558.43,-38.21"/>
<polygon fill="black" stroke="black" points="2559.58,-34.89 2549.02,-33.96 2556.69,-41.27 2559.58,-34.89"/>
</g>
<!-- :feature:other&#45;volume&#45;detail&#45;&gt;:core:domain -->
<g id="edge59" class="edge">
<title>:feature:other&#45;volume&#45;detail&#45;&gt;:core:domain</title>
<path fill="none" stroke="black" d="M4143.17,-76.9C4125.47,-75.01 4107.14,-73.27 4089.89,-72 3518.92,-30.1 2828.97,-21.28 2596.65,-19.46"/>
<polygon fill="black" stroke="black" points="2596.62,-15.96 2586.59,-19.39 2596.57,-22.96 2596.62,-15.96"/>
</g>
<!-- :feature:other&#45;volume&#45;detail&#45;&gt;:core:designsystem -->
<g id="edge60" class="edge">
<title>:feature:other&#45;volume&#45;detail&#45;&gt;:core:designsystem</title>
<path fill="none" stroke="black" d="M4321.87,-75.34C4396.08,-62.97 4504.79,-44.85 4578.75,-32.52"/>
<polygon fill="black" stroke="black" points="4579.66,-35.92 4588.94,-30.82 4578.5,-29.02 4579.66,-35.92"/>
</g>
<!-- :feature:telemetry&#45;log&#45;list&#45;&gt;:core:domain -->
<g id="edge64" class="edge">
<title>:feature:telemetry&#45;log&#45;list&#45;&gt;:core:domain</title>
<path fill="none" stroke="black" d="M590.12,-76.84C606.64,-74.94 623.77,-73.21 639.89,-72 1333.24,-19.92 2174.23,-17.84 2434.93,-18.59"/>
<polygon fill="black" stroke="black" points="2435.05,-22.09 2445.07,-18.62 2435.08,-15.09 2435.05,-22.09"/>
</g>
<!-- :feature:telemetry&#45;log&#45;detail&#45;&gt;:core:domain -->
<g id="edge63" class="edge">
<title>:feature:telemetry&#45;log&#45;detail&#45;&gt;:core:domain</title>
<path fill="none" stroke="black" d="M888.26,-76.9C906.08,-75.01 924.52,-73.27 941.89,-72 1512.87,-30.31 2202.81,-21.36 2435.13,-19.49"/>
<polygon fill="black" stroke="black" points="2435.22,-22.98 2445.19,-19.41 2435.16,-15.98 2435.22,-22.98"/>
</g>
<!-- :feature:readout&#45;list&#45;&gt;:core:domain -->
<g id="edge61" class="edge">
<title>:feature:readout&#45;list&#45;&gt;:core:domain</title>
<path fill="none" stroke="black" d="M1126.78,-76.97C1140.4,-75.04 1154.56,-73.26 1167.89,-72 1646.78,-26.7 2224.92,-19.97 2434.81,-19.08"/>
<polygon fill="black" stroke="black" points="2434.83,-22.58 2444.82,-19.04 2434.81,-15.58 2434.83,-22.58"/>
</g>
<!-- :feature:lmu&#45;windows&#45;readout&#45;vehicle&#45;approach&#45;detail&#45;&gt;:core:domain -->
<g id="edge46" class="edge">
<title>:feature:lmu&#45;windows&#45;readout&#45;vehicle&#45;approach&#45;detail&#45;&gt;:core:domain</title>
<path fill="none" stroke="black" d="M4481.3,-76.88C4450.81,-75.06 4419.45,-73.35 4389.89,-72 3696.05,-40.35 2856.77,-24.64 2596.66,-20.29"/>
<polygon fill="black" stroke="black" points="2596.6,-16.78 2586.55,-20.12 2596.49,-23.78 2596.6,-16.78"/>
</g>
<!-- :feature:lmu&#45;windows&#45;readout&#45;vehicle&#45;approach&#45;detail&#45;&gt;:core:designsystem -->
<g id="edge47" class="edge">
<title>:feature:lmu&#45;windows&#45;readout&#45;vehicle&#45;approach&#45;detail&#45;&gt;:core:designsystem</title>
<path fill="none" stroke="black" d="M4659.89,-71.7C4659.89,-63.98 4659.89,-54.71 4659.89,-46.11"/>
<polygon fill="black" stroke="black" points="4663.39,-46.1 4659.89,-36.1 4656.39,-46.1 4663.39,-46.1"/>
</g>
<!-- :feature:lmu&#45;windows&#45;readout&#45;flag&#45;detail&#45;&gt;:core:domain -->
<g id="edge44" class="edge">
<title>:feature:lmu&#45;windows&#45;readout&#45;flag&#45;detail&#45;&gt;:core:domain</title>
<path fill="none" stroke="black" d="M5002.58,-76.77C4978.39,-74.91 4953.41,-73.22 4929.89,-72 4015.09,-24.62 2903.15,-19.51 2597.15,-19.03"/>
<polygon fill="black" stroke="black" points="2597.04,-15.53 2587.04,-19.01 2597.03,-22.53 2597.04,-15.53"/>
</g>
<!-- :feature:lmu&#45;windows&#45;readout&#45;flag&#45;detail&#45;&gt;:core:designsystem -->
<g id="edge45" class="edge">
<title>:feature:lmu&#45;windows&#45;readout&#45;flag&#45;detail&#45;&gt;:core:designsystem</title>
<path fill="none" stroke="black" d="M5037.98,-74.37C4951.28,-61.67 4827.12,-43.49 4745.05,-31.47"/>
<polygon fill="black" stroke="black" points="4745.41,-27.99 4735.01,-30 4744.4,-34.91 4745.41,-27.99"/>
</g>
<!-- :feature:lmu&#45;windows&#45;readout&#45;vehicle&#45;damage&#45;detail&#45;&gt;:core:domain -->
<g id="edge48" class="edge">
<title>:feature:lmu&#45;windows&#45;readout&#45;vehicle&#45;damage&#45;detail&#45;&gt;:core:domain</title>
<path fill="none" stroke="black" d="M5437.36,-76.71C5407.21,-74.89 5376.15,-73.22 5346.89,-72 4258.9,-26.68 2934.08,-20.11 2596.92,-19.16"/>
<polygon fill="black" stroke="black" points="2596.77,-15.66 2586.76,-19.13 2596.75,-22.66 2596.77,-15.66"/>
</g>
<!-- :feature:lmu&#45;windows&#45;readout&#45;vehicle&#45;damage&#45;detail&#45;&gt;:core:designsystem -->
<g id="edge49" class="edge">
<title>:feature:lmu&#45;windows&#45;readout&#45;vehicle&#45;damage&#45;detail&#45;&gt;:core:designsystem</title>
<path fill="none" stroke="black" d="M5440.6,-76.53C5243.22,-61.98 4923.4,-38.42 4761.18,-26.46"/>
<polygon fill="black" stroke="black" points="4761.44,-22.97 4751.21,-25.73 4760.92,-29.95 4761.44,-22.97"/>
</g>
<!-- :feature:gt7&#45;ps5&#45;readout&#45;my&#45;bestlap&#45;detail&#45;&gt;:core:domain -->
<g id="edge37" class="edge">
<title>:feature:gt7&#45;ps5&#45;readout&#45;my&#45;bestlap&#45;detail&#45;&gt;:core:domain</title>
<path fill="none" stroke="black" d="M5950.31,-76.7C5924.89,-74.84 5898.61,-73.16 5873.89,-72 5206.64,-40.63 3043.68,-22.96 2597.03,-19.59"/>
<polygon fill="black" stroke="black" points="2596.83,-16.09 2586.8,-19.52 2596.78,-23.09 2596.83,-16.09"/>
</g>
<!-- :feature:gt7&#45;ps5&#45;readout&#45;my&#45;bestlap&#45;detail&#45;&gt;:core:designsystem -->
<g id="edge38" class="edge">
<title>:feature:gt7&#45;ps5&#45;readout&#45;my&#45;bestlap&#45;detail&#45;&gt;:core:designsystem</title>
<path fill="none" stroke="black" d="M5946.78,-77.01C5922.46,-75.19 5897.46,-73.44 5873.89,-72 5466.26,-47.14 4980.95,-29.57 4768.52,-22.48"/>
<polygon fill="black" stroke="black" points="4768.41,-18.98 4758.3,-22.14 4768.18,-25.97 4768.41,-18.98"/>
</g>
<!-- :feature:gt7&#45;ps5&#45;readout&#45;remaining&#45;fuel&#45;laps&#45;detail&#45;&gt;:core:domain -->
<g id="edge39" class="edge">
<title>:feature:gt7&#45;ps5&#45;readout&#45;remaining&#45;fuel&#45;laps&#45;detail&#45;&gt;:core:domain</title>
<path fill="none" stroke="black" d="M6396.98,-76.67C6367.33,-74.83 6336.71,-73.16 6307.89,-72 5548.72,-41.41 3076.29,-22.9 2596.84,-19.55"/>
<polygon fill="black" stroke="black" points="2596.58,-16.05 2586.55,-19.48 2596.53,-23.05 2596.58,-16.05"/>
</g>
<!-- :feature:gt7&#45;ps5&#45;readout&#45;remaining&#45;fuel&#45;laps&#45;detail&#45;&gt;:core:designsystem -->
<g id="edge40" class="edge">
<title>:feature:gt7&#45;ps5&#45;readout&#45;remaining&#45;fuel&#45;laps&#45;detail&#45;&gt;:core:designsystem</title>
<path fill="none" stroke="black" d="M6393.54,-76.89C6364.96,-75.08 6335.59,-73.37 6307.89,-72 5728.79,-43.39 5034.43,-26.88 4769.7,-21.23"/>
<polygon fill="black" stroke="black" points="4769.39,-17.72 4759.32,-21.01 4769.25,-24.72 4769.39,-17.72"/>
</g>
<!-- :app:webApp -->
<g id="node29" class="node">
<title>:app:webApp</title>
<ellipse fill="none" stroke="black" cx="2842.89" cy="-234" rx="70.69" ry="18"/>
<text text-anchor="middle" x="2842.89" y="-230.3" font-family="Times,serif" font-size="14.00">:app:webApp</text>
</g>
<!-- :app:webApp&#45;&gt;:app:shared -->
<g id="edge30" class="edge">
<title>:app:webApp&#45;&gt;:app:shared</title>
<path fill="none" stroke="black" d="M2842.89,-215.7C2842.89,-207.98 2842.89,-198.71 2842.89,-190.11"/>
<polygon fill="black" stroke="black" points="2846.39,-190.1 2842.89,-180.1 2839.39,-190.1 2846.39,-190.1"/>
</g>
</g>
</svg>
