<?xml version="1.0" encoding="UTF-8" standalone="no"?>
<!DOCTYPE svg PUBLIC "-//W3C//DTD SVG 1.1//EN"
 "http://www.w3.org/Graphics/SVG/1.1/DTD/svg11.dtd">
<!-- Generated by graphviz version 2.43.0 (0)
 -->
<!-- Title: G Pages: 1 -->
<svg width="185pt" height="188pt"
 viewBox="0.00 0.00 184.78 188.00" xmlns="http://www.w3.org/2000/svg" xmlns:xlink="http://www.w3.org/1999/xlink">
<g id="graph0" class="graph" transform="scale(1 1) rotate(0) translate(4 184)">
<title>G</title>
<polygon fill="white" stroke="transparent" points="-4,4 -4,-184 180.78,-184 180.78,4 -4,4"/>
<!-- :server -->
<g id="node1" class="node">
<title>:server</title>
<ellipse fill="none" stroke="black" cx="88.39" cy="-90" rx="43.59" ry="18"/>
<text text-anchor="middle" x="88.39" y="-86.3" font-family="Times,serif" font-size="14.00">:server</text>
</g>
<!-- :core:domain -->
<g id="node2" class="node">
<title>:core:domain</title>
<ellipse fill="none" stroke="black" cx="88.39" cy="-18" rx="70.69" ry="18"/>
<text text-anchor="middle" x="88.39" y="-14.3" font-family="Times,serif" font-size="14.00">:core:domain</text>
</g>
<!-- :server&#45;&gt;:core:domain -->
<g id="edge1" class="edge">
<title>:server&#45;&gt;:core:domain</title>
<path fill="none" stroke="black" d="M88.39,-71.7C88.39,-63.98 88.39,-54.71 88.39,-46.11"/>
<polygon fill="black" stroke="black" points="91.89,-46.1 88.39,-36.1 84.89,-46.1 91.89,-46.1"/>
</g>
<!-- :app:desktopApp -->
<g id="node3" class="node">
<title>:app:desktopApp</title>
<ellipse fill="none" stroke="black" cx="88.39" cy="-162" rx="88.28" ry="18"/>
<text text-anchor="middle" x="88.39" y="-158.3" font-family="Times,serif" font-size="14.00">:app:desktopApp</text>
</g>
<!-- :app:desktopApp&#45;&gt;:server -->
<g id="edge2" class="edge">
<title>:app:desktopApp&#45;&gt;:server</title>
<path fill="none" stroke="black" d="M88.39,-143.7C88.39,-135.98 88.39,-126.71 88.39,-118.11"/>
<polygon fill="black" stroke="black" points="91.89,-118.1 88.39,-108.1 84.89,-118.1 91.89,-118.1"/>
</g>
</g>
</svg>
